solid 2_146
   facet normal -1.000000e+000 0.000000e+000 0.000000e+000
      outer loop
         vertex 0.000000e+000 1.000000e+001 1.000000e+001
         vertex 0.000000e+000 1.000000e+001 0.000000e+000
         vertex 0.000000e+000 0.000000e+000 1.000000e+001
      endloop
   endfacet
   facet normal -1.000000e+000 0.000000e+000 0.000000e+000
      outer loop
         vertex 0.000000e+000 0.000000e+000 1.000000e+001
         vertex 0.000000e+000 1.000000e+001 0.000000e+000
         vertex 0.000000e+000 0.000000e+000 0.000000e+000
      endloop
   endfacet
   facet normal 0.000000e+000 0.000000e+000 1.000000e+000
      outer loop
         vertex 5.726046e+000 3.598430e+000 1.000000e+001
         vertex 5.700743e+000 3.309216e+000 1.000000e+001
         vertex 1.000000e+001 0.000000e+000 1.000000e+001
      endloop
   endfacet
   facet normal 0.000000e+000 0.000000e+000 1.000000e+000
      outer loop
         vertex 1.000000e+001 0.000000e+000 1.000000e+001
         vertex 5.700743e+000 3.309216e+000 1.000000e+001
         vertex 5.625603e+000 3.028789e+000 1.000000e+001
      endloop
   endfacet
   facet normal 0.000000e+000 0.000000e+000 1.000000e+000
      outer loop
         vertex 1.000000e+001 0.000000e+000 1.000000e+001
         vertex 5.625603e+000 3.028789e+000 1.000000e+001
         vertex 5.502909e+000 2.765670e+000 1.000000e+001
      endloop
   endfacet
   facet normal 0.000000e+000 0.000000e+000 1.000000e+000
      outer loop
         vertex 3.227765e+000 2.156047e+000 1.000000e+001
         vertex 0.000000e+000 0.000000e+000 1.000000e+001
         vertex 3.490884e+000 2.033353e+000 1.000000e+001
      endloop
   endfacet
   facet normal 0.000000e+000 0.000000e+000 1.000000e+000
      outer loop
         vertex 3.490884e+000 2.033353e+000 1.000000e+001
         vertex 0.000000e+000 0.000000e+000 1.000000e+001
         vertex 3.771311e+000 1.958213e+000 1.000000e+001
      endloop
   endfacet
   facet normal 0.000000e+000 0.000000e+000 1.000000e+000
      outer loop
         vertex 5.726046e+000 3.598430e+000 1.000000e+001
         vertex 1.000000e+001 0.000000e+000 1.000000e+001
         vertex 5.700743e+000 3.887645e+000 1.000000e+001
      endloop
   endfacet
   facet normal 0.000000e+000 0.000000e+000 1.000000e+000
      outer loop
         vertex 5.700743e+000 3.887645e+000 1.000000e+001
         vertex 1.000000e+001 0.000000e+000 1.000000e+001
         vertex 1.000000e+001 1.000000e+001 1.000000e+001
      endloop
   endfacet
   facet normal 0.000000e+000 0.000000e+000 1.000000e+000
      outer loop
         vertex 5.700743e+000 3.887645e+000 1.000000e+001
         vertex 1.000000e+001 1.000000e+001 1.000000e+001
         vertex 5.625603e+000 4.168072e+000 1.000000e+001
      endloop
   endfacet
   facet normal 0.000000e+000 0.000000e+000 1.000000e+000
      outer loop
         vertex 5.502909e+000 2.765670e+000 1.000000e+001
         vertex 5.336388e+000 2.527854e+000 1.000000e+001
         vertex 1.000000e+001 0.000000e+000 1.000000e+001
      endloop
   endfacet
   facet normal 0.000000e+000 0.000000e+000 1.000000e+000
      outer loop
         vertex 1.000000e+001 0.000000e+000 1.000000e+001
         vertex 5.336388e+000 2.527854e+000 1.000000e+001
         vertex 5.131101e+000 2.322567e+000 1.000000e+001
      endloop
   endfacet
   facet normal 0.000000e+000 0.000000e+000 1.000000e+000
      outer loop
         vertex 1.000000e+001 0.000000e+000 1.000000e+001
         vertex 5.131101e+000 2.322567e+000 1.000000e+001
         vertex 4.893286e+000 2.156047e+000 1.000000e+001
      endloop
   endfacet
   facet normal 0.000000e+000 0.000000e+000 1.000000e+000
      outer loop
         vertex 4.893286e+000 2.156047e+000 1.000000e+001
         vertex 4.630167e+000 2.033353e+000 1.000000e+001
         vertex 1.000000e+001 0.000000e+000 1.000000e+001
      endloop
   endfacet
   facet normal 0.000000e+000 0.000000e+000 1.000000e+000
      outer loop
         vertex 1.000000e+001 0.000000e+000 1.000000e+001
         vertex 4.630167e+000 2.033353e+000 1.000000e+001
         vertex 4.349740e+000 1.958213e+000 1.000000e+001
      endloop
   endfacet
   facet normal 0.000000e+000 0.000000e+000 1.000000e+000
      outer loop
         vertex 1.000000e+001 0.000000e+000 1.000000e+001
         vertex 4.349740e+000 1.958213e+000 1.000000e+001
         vertex 0.000000e+000 0.000000e+000 1.000000e+001
      endloop
   endfacet
   facet normal 0.000000e+000 0.000000e+000 1.000000e+000
      outer loop
         vertex 0.000000e+000 0.000000e+000 1.000000e+001
         vertex 4.349740e+000 1.958213e+000 1.000000e+001
         vertex 4.060525e+000 1.932910e+000 1.000000e+001
      endloop
   endfacet
   facet normal 0.000000e+000 0.000000e+000 1.000000e+000
      outer loop
         vertex 0.000000e+000 0.000000e+000 1.000000e+001
         vertex 4.060525e+000 1.932910e+000 1.000000e+001
         vertex 3.771311e+000 1.958213e+000 1.000000e+001
      endloop
   endfacet
   facet normal 0.000000e+000 0.000000e+000 1.000000e+000
      outer loop
         vertex 0.000000e+000 0.000000e+000 1.000000e+001
         vertex 2.618142e+000 2.765670e+000 1.000000e+001
         vertex 2.495448e+000 3.028789e+000 1.000000e+001
      endloop
   endfacet
   facet normal 0.000000e+000 0.000000e+000 1.000000e+000
      outer loop
         vertex 2.420308e+000 3.887645e+000 1.000000e+001
         vertex 0.000000e+000 1.000000e+001 1.000000e+001
         vertex 2.395005e+000 3.598430e+000 1.000000e+001
      endloop
   endfacet
   facet normal 0.000000e+000 0.000000e+000 1.000000e+000
      outer loop
         vertex 2.395005e+000 3.598430e+000 1.000000e+001
         vertex 0.000000e+000 1.000000e+001 1.000000e+001
         vertex 0.000000e+000 0.000000e+000 1.000000e+001
      endloop
   endfacet
   facet normal 0.000000e+000 0.000000e+000 1.000000e+000
      outer loop
         vertex 2.395005e+000 3.598430e+000 1.000000e+001
         vertex 0.000000e+000 0.000000e+000 1.000000e+001
         vertex 2.420308e+000 3.309216e+000 1.000000e+001
      endloop
   endfacet
   facet normal 0.000000e+000 0.000000e+000 1.000000e+000
      outer loop
         vertex 2.420308e+000 3.309216e+000 1.000000e+001
         vertex 0.000000e+000 0.000000e+000 1.000000e+001
         vertex 2.495448e+000 3.028789e+000 1.000000e+001
      endloop
   endfacet
   facet normal 0.000000e+000 0.000000e+000 1.000000e+000
      outer loop
         vertex 2.420308e+000 3.887645e+000 1.000000e+001
         vertex 2.495448e+000 4.168072e+000 1.000000e+001
         vertex 0.000000e+000 1.000000e+001 1.000000e+001
      endloop
   endfacet
   facet normal 0.000000e+000 0.000000e+000 1.000000e+000
      outer loop
         vertex 0.000000e+000 1.000000e+001 1.000000e+001
         vertex 2.495448e+000 4.168072e+000 1.000000e+001
         vertex 2.618142e+000 4.431190e+000 1.000000e+001
      endloop
   endfacet
   facet normal 0.000000e+000 0.000000e+000 1.000000e+000
      outer loop
         vertex 0.000000e+000 1.000000e+001 1.000000e+001
         vertex 2.618142e+000 4.431190e+000 1.000000e+001
         vertex 2.784663e+000 4.669006e+000 1.000000e+001
      endloop
   endfacet
   facet normal 0.000000e+000 0.000000e+000 1.000000e+000
      outer loop
         vertex 2.784663e+000 4.669006e+000 1.000000e+001
         vertex 2.989949e+000 4.874293e+000 1.000000e+001
         vertex 0.000000e+000 1.000000e+001 1.000000e+001
      endloop
   endfacet
   facet normal 0.000000e+000 0.000000e+000 1.000000e+000
      outer loop
         vertex 0.000000e+000 1.000000e+001 1.000000e+001
         vertex 2.989949e+000 4.874293e+000 1.000000e+001
         vertex 3.227765e+000 5.040813e+000 1.000000e+001
      endloop
   endfacet
   facet normal 0.000000e+000 0.000000e+000 1.000000e+000
      outer loop
         vertex 0.000000e+000 1.000000e+001 1.000000e+001
         vertex 3.227765e+000 5.040813e+000 1.000000e+001
         vertex 3.490884e+000 5.163507e+000 1.000000e+001
      endloop
   endfacet
   facet normal 0.000000e+000 0.000000e+000 1.000000e+000
      outer loop
         vertex 3.227765e+000 2.156047e+000 1.000000e+001
         vertex 2.989949e+000 2.322567e+000 1.000000e+001
         vertex 0.000000e+000 0.000000e+000 1.000000e+001
      endloop
   endfacet
   facet normal 0.000000e+000 0.000000e+000 1.000000e+000
      outer loop
         vertex 0.000000e+000 0.000000e+000 1.000000e+001
         vertex 2.989949e+000 2.322567e+000 1.000000e+001
         vertex 2.784663e+000 2.527854e+000 1.000000e+001
      endloop
   endfacet
   facet normal 0.000000e+000 0.000000e+000 1.000000e+000
      outer loop
         vertex 0.000000e+000 0.000000e+000 1.000000e+001
         vertex 2.784663e+000 2.527854e+000 1.000000e+001
         vertex 2.618142e+000 2.765670e+000 1.000000e+001
      endloop
   endfacet
   facet normal 0.000000e+000 0.000000e+000 1.000000e+000
      outer loop
         vertex 4.349740e+000 5.238648e+000 1.000000e+001
         vertex 1.000000e+001 1.000000e+001 1.000000e+001
         vertex 4.060525e+000 5.263951e+000 1.000000e+001
      endloop
   endfacet
   facet normal 0.000000e+000 0.000000e+000 1.000000e+000
      outer loop
         vertex 4.060525e+000 5.263951e+000 1.000000e+001
         vertex 1.000000e+001 1.000000e+001 1.000000e+001
         vertex 0.000000e+000 1.000000e+001 1.000000e+001
      endloop
   endfacet
   facet normal 0.000000e+000 0.000000e+000 1.000000e+000
      outer loop
         vertex 4.060525e+000 5.263951e+000 1.000000e+001
         vertex 0.000000e+000 1.000000e+001 1.000000e+001
         vertex 3.771311e+000 5.238648e+000 1.000000e+001
      endloop
   endfacet
   facet normal 0.000000e+000 0.000000e+000 1.000000e+000
      outer loop
         vertex 3.771311e+000 5.238648e+000 1.000000e+001
         vertex 0.000000e+000 1.000000e+001 1.000000e+001
         vertex 3.490884e+000 5.163507e+000 1.000000e+001
      endloop
   endfacet
   facet normal 0.000000e+000 0.000000e+000 1.000000e+000
      outer loop
         vertex 4.349740e+000 5.238648e+000 1.000000e+001
         vertex 4.630167e+000 5.163507e+000 1.000000e+001
         vertex 1.000000e+001 1.000000e+001 1.000000e+001
      endloop
   endfacet
   facet normal 0.000000e+000 0.000000e+000 1.000000e+000
      outer loop
         vertex 1.000000e+001 1.000000e+001 1.000000e+001
         vertex 4.630167e+000 5.163507e+000 1.000000e+001
         vertex 4.893286e+000 5.040813e+000 1.000000e+001
      endloop
   endfacet
   facet normal 0.000000e+000 0.000000e+000 1.000000e+000
      outer loop
         vertex 1.000000e+001 1.000000e+001 1.000000e+001
         vertex 4.893286e+000 5.040813e+000 1.000000e+001
         vertex 5.131101e+000 4.874293e+000 1.000000e+001
      endloop
   endfacet
   facet normal 0.000000e+000 0.000000e+000 1.000000e+000
      outer loop
         vertex 5.131101e+000 4.874293e+000 1.000000e+001
         vertex 5.336388e+000 4.669006e+000 1.000000e+001
         vertex 1.000000e+001 1.000000e+001 1.000000e+001
      endloop
   endfacet
   facet normal 0.000000e+000 0.000000e+000 1.000000e+000
      outer loop
         vertex 1.000000e+001 1.000000e+001 1.000000e+001
         vertex 5.336388e+000 4.669006e+000 1.000000e+001
         vertex 5.502909e+000 4.431190e+000 1.000000e+001
      endloop
   endfacet
   facet normal 0.000000e+000 0.000000e+000 1.000000e+000
      outer loop
         vertex 1.000000e+001 1.000000e+001 1.000000e+001
         vertex 5.502909e+000 4.431190e+000 1.000000e+001
         vertex 5.625603e+000 4.168072e+000 1.000000e+001
      endloop
   endfacet
   facet normal 1.000000e+000 0.000000e+000 0.000000e+000
      outer loop
         vertex 1.000000e+001 1.000000e+001 0.000000e+000
         vertex 1.000000e+001 1.000000e+001 1.000000e+001
         vertex 1.000000e+001 0.000000e+000 0.000000e+000
      endloop
   endfacet
   facet normal 1.000000e+000 0.000000e+000 0.000000e+000
      outer loop
         vertex 1.000000e+001 0.000000e+000 0.000000e+000
         vertex 1.000000e+001 1.000000e+001 1.000000e+001
         vertex 1.000000e+001 0.000000e+000 1.000000e+001
      endloop
   endfacet
   facet normal 0.000000e+000 0.000000e+000 -1.000000e+000
      outer loop
         vertex 0.000000e+000 1.000000e+001 0.000000e+000
         vertex 1.000000e+001 1.000000e+001 0.000000e+000
         vertex 0.000000e+000 0.000000e+000 0.000000e+000
      endloop
   endfacet
   facet normal 0.000000e+000 0.000000e+000 -1.000000e+000
      outer loop
         vertex 0.000000e+000 0.000000e+000 0.000000e+000
         vertex 1.000000e+001 1.000000e+001 0.000000e+000
         vertex 1.000000e+001 0.000000e+000 0.000000e+000
      endloop
   endfacet
   facet normal 0.000000e+000 1.000000e+000 0.000000e+000
      outer loop
         vertex 1.000000e+001 1.000000e+001 1.000000e+001
         vertex 1.000000e+001 1.000000e+001 0.000000e+000
         vertex 0.000000e+000 1.000000e+001 1.000000e+001
      endloop
   endfacet
   facet normal 0.000000e+000 1.000000e+000 0.000000e+000
      outer loop
         vertex 0.000000e+000 1.000000e+001 1.000000e+001
         vertex 1.000000e+001 1.000000e+001 0.000000e+000
         vertex 0.000000e+000 1.000000e+001 0.000000e+000
      endloop
   endfacet
   facet normal 0.000000e+000 -1.000000e+000 0.000000e+000
      outer loop
         vertex 1.000000e+001 0.000000e+000 0.000000e+000
         vertex 1.000000e+001 0.000000e+000 1.000000e+001
         vertex 0.000000e+000 0.000000e+000 0.000000e+000
      endloop
   endfacet
   facet normal 0.000000e+000 -1.000000e+000 0.000000e+000
      outer loop
         vertex 0.000000e+000 0.000000e+000 0.000000e+000
         vertex 1.000000e+001 0.000000e+000 1.000000e+001
         vertex 0.000000e+000 0.000000e+000 1.000000e+001
      endloop
   endfacet
   facet normal -9.983119e-001 5.807913e-002 0.000000e+000
      outer loop
         vertex 5.700743e+000 3.309216e+000 3.660729e+000
         vertex 5.726046e+000 3.598430e+000 1.000000e+001
         vertex 5.726046e+000 3.598430e+000 3.660729e+000
      endloop
   endfacet
   facet normal -9.983119e-001 -5.807913e-002 0.000000e+000
      outer loop
         vertex 5.726046e+000 3.598430e+000 3.660729e+000
         vertex 5.726046e+000 3.598430e+000 1.000000e+001
         vertex 5.700743e+000 3.887645e+000 1.000000e+001
      endloop
   endfacet
   facet normal -9.932307e-001 -1.161583e-001 0.000000e+000
      outer loop
         vertex 5.726046e+000 3.598430e+000 3.660729e+000
         vertex 5.700743e+000 3.887645e+000 1.000000e+001
         vertex 5.700743e+000 3.887645e+000 3.660729e+000
      endloop
   endfacet
   facet normal -9.730600e-001 -2.305519e-001 0.000000e+000
      outer loop
         vertex 5.700743e+000 3.887645e+000 3.660729e+000
         vertex 5.700743e+000 3.887645e+000 1.000000e+001
         vertex 5.625603e+000 4.168072e+000 1.000000e+001
      endloop
   endfacet
   facet normal -9.579706e-001 -2.868663e-001 0.000000e+000
      outer loop
         vertex 5.700743e+000 3.887645e+000 3.660729e+000
         vertex 5.625603e+000 4.168072e+000 1.000000e+001
         vertex 5.625603e+000 4.168072e+000 3.660729e+000
      endloop
   endfacet
   facet normal -9.182422e-001 -3.960194e-001 0.000000e+000
      outer loop
         vertex 5.625603e+000 4.168072e+000 3.660729e+000
         vertex 5.625603e+000 4.168072e+000 1.000000e+001
         vertex 5.502909e+000 4.431190e+000 1.000000e+001
      endloop
   endfacet
   facet normal -8.936031e-001 -4.488580e-001 0.000000e+000
      outer loop
         vertex 5.625603e+000 4.168072e+000 3.660729e+000
         vertex 5.502909e+000 4.431190e+000 1.000000e+001
         vertex 5.502909e+000 4.431190e+000 3.660729e+000
      endloop
   endfacet
   facet normal -8.355240e-001 -5.494540e-001 0.000000e+000
      outer loop
         vertex 5.502909e+000 4.431190e+000 3.660729e+000
         vertex 5.502909e+000 4.431190e+000 1.000000e+001
         vertex 5.336388e+000 4.669006e+000 1.000000e+001
      endloop
   endfacet
   facet normal -8.020838e-001 -5.972114e-001 0.000000e+000
      outer loop
         vertex 5.502909e+000 4.431190e+000 3.660729e+000
         vertex 5.336388e+000 4.669006e+000 1.000000e+001
         vertex 5.336388e+000 4.669006e+000 3.660729e+000
      endloop
   endfacet
   facet normal -7.274188e-001 -6.861938e-001 0.000000e+000
      outer loop
         vertex 5.336388e+000 4.669006e+000 3.660729e+000
         vertex 5.336388e+000 4.669006e+000 1.000000e+001
         vertex 5.131101e+000 4.874293e+000 1.000000e+001
      endloop
   endfacet
   facet normal -6.861938e-001 -7.274188e-001 0.000000e+000
      outer loop
         vertex 5.336388e+000 4.669006e+000 3.660729e+000
         vertex 5.131101e+000 4.874293e+000 1.000000e+001
         vertex 5.131101e+000 4.874293e+000 3.660729e+000
      endloop
   endfacet
   facet normal -5.972114e-001 -8.020838e-001 0.000000e+000
      outer loop
         vertex 5.131101e+000 4.874293e+000 3.660729e+000
         vertex 5.131101e+000 4.874293e+000 1.000000e+001
         vertex 4.893286e+000 5.040813e+000 1.000000e+001
      endloop
   endfacet
   facet normal -5.494540e-001 -8.355240e-001 0.000000e+000
      outer loop
         vertex 5.131101e+000 4.874293e+000 3.660729e+000
         vertex 4.893286e+000 5.040813e+000 1.000000e+001
         vertex 4.893286e+000 5.040813e+000 3.660729e+000
      endloop
   endfacet
   facet normal -4.488580e-001 -8.936031e-001 0.000000e+000
      outer loop
         vertex 4.893286e+000 5.040813e+000 3.660729e+000
         vertex 4.893286e+000 5.040813e+000 1.000000e+001
         vertex 4.630167e+000 5.163507e+000 1.000000e+001
      endloop
   endfacet
   facet normal -3.960194e-001 -9.182422e-001 0.000000e+000
      outer loop
         vertex 4.893286e+000 5.040813e+000 3.660729e+000
         vertex 4.630167e+000 5.163507e+000 1.000000e+001
         vertex 4.630167e+000 5.163507e+000 3.660729e+000
      endloop
   endfacet
   facet normal -2.868663e-001 -9.579706e-001 0.000000e+000
      outer loop
         vertex 4.630167e+000 5.163507e+000 3.660729e+000
         vertex 4.630167e+000 5.163507e+000 1.000000e+001
         vertex 4.349740e+000 5.238648e+000 1.000000e+001
      endloop
   endfacet
   facet normal -2.305519e-001 -9.730600e-001 0.000000e+000
      outer loop
         vertex 4.630167e+000 5.163507e+000 3.660729e+000
         vertex 4.349740e+000 5.238648e+000 1.000000e+001
         vertex 4.349740e+000 5.238648e+000 3.660729e+000
      endloop
   endfacet
   facet normal -1.161583e-001 -9.932307e-001 0.000000e+000
      outer loop
         vertex 4.349740e+000 5.238648e+000 3.660729e+000
         vertex 4.349740e+000 5.238648e+000 1.000000e+001
         vertex 4.060525e+000 5.263951e+000 1.000000e+001
      endloop
   endfacet
   facet normal -5.807913e-002 -9.983119e-001 0.000000e+000
      outer loop
         vertex 4.349740e+000 5.238648e+000 3.660729e+000
         vertex 4.060525e+000 5.263951e+000 1.000000e+001
         vertex 4.060525e+000 5.263951e+000 3.660729e+000
      endloop
   endfacet
   facet normal 5.807913e-002 -9.983119e-001 0.000000e+000
      outer loop
         vertex 4.060525e+000 5.263951e+000 3.660729e+000
         vertex 4.060525e+000 5.263951e+000 1.000000e+001
         vertex 3.771311e+000 5.238648e+000 1.000000e+001
      endloop
   endfacet
   facet normal 1.161583e-001 -9.932307e-001 0.000000e+000
      outer loop
         vertex 4.060525e+000 5.263951e+000 3.660729e+000
         vertex 3.771311e+000 5.238648e+000 1.000000e+001
         vertex 3.771311e+000 5.238648e+000 3.660729e+000
      endloop
   endfacet
   facet normal 2.305519e-001 -9.730600e-001 0.000000e+000
      outer loop
         vertex 3.771311e+000 5.238648e+000 3.660729e+000
         vertex 3.771311e+000 5.238648e+000 1.000000e+001
         vertex 3.490884e+000 5.163507e+000 1.000000e+001
      endloop
   endfacet
   facet normal 2.868663e-001 -9.579706e-001 0.000000e+000
      outer loop
         vertex 3.771311e+000 5.238648e+000 3.660729e+000
         vertex 3.490884e+000 5.163507e+000 1.000000e+001
         vertex 3.490884e+000 5.163507e+000 3.660729e+000
      endloop
   endfacet
   facet normal 3.960194e-001 -9.182422e-001 0.000000e+000
      outer loop
         vertex 3.490884e+000 5.163507e+000 3.660729e+000
         vertex 3.490884e+000 5.163507e+000 1.000000e+001
         vertex 3.227765e+000 5.040813e+000 1.000000e+001
      endloop
   endfacet
   facet normal 4.488580e-001 -8.936031e-001 0.000000e+000
      outer loop
         vertex 3.490884e+000 5.163507e+000 3.660729e+000
         vertex 3.227765e+000 5.040813e+000 1.000000e+001
         vertex 3.227765e+000 5.040813e+000 3.660729e+000
      endloop
   endfacet
   facet normal 5.494540e-001 -8.355240e-001 0.000000e+000
      outer loop
         vertex 3.227765e+000 5.040813e+000 3.660729e+000
         vertex 3.227765e+000 5.040813e+000 1.000000e+001
         vertex 2.989949e+000 4.874293e+000 1.000000e+001
      endloop
   endfacet
   facet normal 5.972114e-001 -8.020838e-001 0.000000e+000
      outer loop
         vertex 3.227765e+000 5.040813e+000 3.660729e+000
         vertex 2.989949e+000 4.874293e+000 1.000000e+001
         vertex 2.989949e+000 4.874293e+000 3.660729e+000
      endloop
   endfacet
   facet normal 6.861938e-001 -7.274188e-001 0.000000e+000
      outer loop
         vertex 2.989949e+000 4.874293e+000 3.660729e+000
         vertex 2.989949e+000 4.874293e+000 1.000000e+001
         vertex 2.784663e+000 4.669006e+000 1.000000e+001
      endloop
   endfacet
   facet normal 7.274188e-001 -6.861938e-001 0.000000e+000
      outer loop
         vertex 2.989949e+000 4.874293e+000 3.660729e+000
         vertex 2.784663e+000 4.669006e+000 1.000000e+001
         vertex 2.784663e+000 4.669006e+000 3.660729e+000
      endloop
   endfacet
   facet normal 8.020838e-001 -5.972114e-001 0.000000e+000
      outer loop
         vertex 2.784663e+000 4.669006e+000 3.660729e+000
         vertex 2.784663e+000 4.669006e+000 1.000000e+001
         vertex 2.618142e+000 4.431190e+000 1.000000e+001
      endloop
   endfacet
   facet normal 8.355240e-001 -5.494540e-001 0.000000e+000
      outer loop
         vertex 2.784663e+000 4.669006e+000 3.660729e+000
         vertex 2.618142e+000 4.431190e+000 1.000000e+001
         vertex 2.618142e+000 4.431190e+000 3.660729e+000
      endloop
   endfacet
   facet normal 8.936031e-001 -4.488580e-001 0.000000e+000
      outer loop
         vertex 2.618142e+000 4.431190e+000 3.660729e+000
         vertex 2.618142e+000 4.431190e+000 1.000000e+001
         vertex 2.495448e+000 4.168072e+000 1.000000e+001
      endloop
   endfacet
   facet normal 9.182422e-001 -3.960194e-001 0.000000e+000
      outer loop
         vertex 2.618142e+000 4.431190e+000 3.660729e+000
         vertex 2.495448e+000 4.168072e+000 1.000000e+001
         vertex 2.495448e+000 4.168072e+000 3.660729e+000
      endloop
   endfacet
   facet normal 9.579706e-001 -2.868663e-001 0.000000e+000
      outer loop
         vertex 2.495448e+000 4.168072e+000 3.660729e+000
         vertex 2.495448e+000 4.168072e+000 1.000000e+001
         vertex 2.420308e+000 3.887645e+000 1.000000e+001
      endloop
   endfacet
   facet normal 9.730600e-001 -2.305519e-001 0.000000e+000
      outer loop
         vertex 2.495448e+000 4.168072e+000 3.660729e+000
         vertex 2.420308e+000 3.887645e+000 1.000000e+001
         vertex 2.420308e+000 3.887645e+000 3.660729e+000
      endloop
   endfacet
   facet normal 9.932307e-001 -1.161583e-001 0.000000e+000
      outer loop
         vertex 2.420308e+000 3.887645e+000 3.660729e+000
         vertex 2.420308e+000 3.887645e+000 1.000000e+001
         vertex 2.395005e+000 3.598430e+000 1.000000e+001
      endloop
   endfacet
   facet normal 9.983119e-001 -5.807913e-002 0.000000e+000
      outer loop
         vertex 2.420308e+000 3.887645e+000 3.660729e+000
         vertex 2.395005e+000 3.598430e+000 1.000000e+001
         vertex 2.395005e+000 3.598430e+000 3.660729e+000
      endloop
   endfacet
   facet normal 9.983119e-001 5.807913e-002 0.000000e+000
      outer loop
         vertex 2.395005e+000 3.598430e+000 3.660729e+000
         vertex 2.395005e+000 3.598430e+000 1.000000e+001
         vertex 2.420308e+000 3.309216e+000 1.000000e+001
      endloop
   endfacet
   facet normal 9.932307e-001 1.161583e-001 0.000000e+000
      outer loop
         vertex 2.395005e+000 3.598430e+000 3.660729e+000
         vertex 2.420308e+000 3.309216e+000 1.000000e+001
         vertex 2.420308e+000 3.309216e+000 3.660729e+000
      endloop
   endfacet
   facet normal 9.730600e-001 2.305519e-001 0.000000e+000
      outer loop
         vertex 2.420308e+000 3.309216e+000 3.660729e+000
         vertex 2.420308e+000 3.309216e+000 1.000000e+001
         vertex 2.495448e+000 3.028789e+000 1.000000e+001
      endloop
   endfacet
   facet normal 9.579706e-001 2.868663e-001 0.000000e+000
      outer loop
         vertex 2.420308e+000 3.309216e+000 3.660729e+000
         vertex 2.495448e+000 3.028789e+000 1.000000e+001
         vertex 2.495448e+000 3.028789e+000 3.660729e+000
      endloop
   endfacet
   facet normal 9.182422e-001 3.960194e-001 0.000000e+000
      outer loop
         vertex 2.495448e+000 3.028789e+000 3.660729e+000
         vertex 2.495448e+000 3.028789e+000 1.000000e+001
         vertex 2.618142e+000 2.765670e+000 1.000000e+001
      endloop
   endfacet
   facet normal 8.936031e-001 4.488580e-001 0.000000e+000
      outer loop
         vertex 2.495448e+000 3.028789e+000 3.660729e+000
         vertex 2.618142e+000 2.765670e+000 1.000000e+001
         vertex 2.618142e+000 2.765670e+000 3.660729e+000
      endloop
   endfacet
   facet normal 8.355240e-001 5.494540e-001 0.000000e+000
      outer loop
         vertex 2.618142e+000 2.765670e+000 3.660729e+000
         vertex 2.618142e+000 2.765670e+000 1.000000e+001
         vertex 2.784663e+000 2.527854e+000 1.000000e+001
      endloop
   endfacet
   facet normal 8.020838e-001 5.972114e-001 0.000000e+000
      outer loop
         vertex 2.618142e+000 2.765670e+000 3.660729e+000
         vertex 2.784663e+000 2.527854e+000 1.000000e+001
         vertex 2.784663e+000 2.527854e+000 3.660729e+000
      endloop
   endfacet
   facet normal 7.274188e-001 6.861938e-001 0.000000e+000
      outer loop
         vertex 2.784663e+000 2.527854e+000 3.660729e+000
         vertex 2.784663e+000 2.527854e+000 1.000000e+001
         vertex 2.989949e+000 2.322567e+000 1.000000e+001
      endloop
   endfacet
   facet normal 6.861938e-001 7.274188e-001 0.000000e+000
      outer loop
         vertex 2.784663e+000 2.527854e+000 3.660729e+000
         vertex 2.989949e+000 2.322567e+000 1.000000e+001
         vertex 2.989949e+000 2.322567e+000 3.660729e+000
      endloop
   endfacet
   facet normal 5.972114e-001 8.020838e-001 0.000000e+000
      outer loop
         vertex 2.989949e+000 2.322567e+000 3.660729e+000
         vertex 2.989949e+000 2.322567e+000 1.000000e+001
         vertex 3.227765e+000 2.156047e+000 1.000000e+001
      endloop
   endfacet
   facet normal 5.494540e-001 8.355240e-001 0.000000e+000
      outer loop
         vertex 2.989949e+000 2.322567e+000 3.660729e+000
         vertex 3.227765e+000 2.156047e+000 1.000000e+001
         vertex 3.227765e+000 2.156047e+000 3.660729e+000
      endloop
   endfacet
   facet normal 4.488580e-001 8.936031e-001 0.000000e+000
      outer loop
         vertex 3.227765e+000 2.156047e+000 3.660729e+000
         vertex 3.227765e+000 2.156047e+000 1.000000e+001
         vertex 3.490884e+000 2.033353e+000 1.000000e+001
      endloop
   endfacet
   facet normal 3.960194e-001 9.182422e-001 0.000000e+000
      outer loop
         vertex 3.227765e+000 2.156047e+000 3.660729e+000
         vertex 3.490884e+000 2.033353e+000 1.000000e+001
         vertex 3.490884e+000 2.033353e+000 3.660729e+000
      endloop
   endfacet
   facet normal 2.868663e-001 9.579706e-001 0.000000e+000
      outer loop
         vertex 3.490884e+000 2.033353e+000 3.660729e+000
         vertex 3.490884e+000 2.033353e+000 1.000000e+001
         vertex 3.771311e+000 1.958213e+000 1.000000e+001
      endloop
   endfacet
   facet normal 2.305519e-001 9.730600e-001 0.000000e+000
      outer loop
         vertex 3.490884e+000 2.033353e+000 3.660729e+000
         vertex 3.771311e+000 1.958213e+000 1.000000e+001
         vertex 3.771311e+000 1.958213e+000 3.660729e+000
      endloop
   endfacet
   facet normal 1.161583e-001 9.932307e-001 0.000000e+000
      outer loop
         vertex 3.771311e+000 1.958213e+000 3.660729e+000
         vertex 3.771311e+000 1.958213e+000 1.000000e+001
         vertex 4.060525e+000 1.932910e+000 1.000000e+001
      endloop
   endfacet
   facet normal 5.807913e-002 9.983119e-001 0.000000e+000
      outer loop
         vertex 3.771311e+000 1.958213e+000 3.660729e+000
         vertex 4.060525e+000 1.932910e+000 1.000000e+001
         vertex 4.060525e+000 1.932910e+000 3.660729e+000
      endloop
   endfacet
   facet normal -5.807913e-002 9.983119e-001 0.000000e+000
      outer loop
         vertex 4.060525e+000 1.932910e+000 3.660729e+000
         vertex 4.060525e+000 1.932910e+000 1.000000e+001
         vertex 4.349740e+000 1.958213e+000 1.000000e+001
      endloop
   endfacet
   facet normal -1.161583e-001 9.932307e-001 0.000000e+000
      outer loop
         vertex 4.060525e+000 1.932910e+000 3.660729e+000
         vertex 4.349740e+000 1.958213e+000 1.000000e+001
         vertex 4.349740e+000 1.958213e+000 3.660729e+000
      endloop
   endfacet
   facet normal -2.305519e-001 9.730600e-001 0.000000e+000
      outer loop
         vertex 4.349740e+000 1.958213e+000 3.660729e+000
         vertex 4.349740e+000 1.958213e+000 1.000000e+001
         vertex 4.630167e+000 2.033353e+000 1.000000e+001
      endloop
   endfacet
   facet normal -2.868663e-001 9.579706e-001 0.000000e+000
      outer loop
         vertex 4.349740e+000 1.958213e+000 3.660729e+000
         vertex 4.630167e+000 2.033353e+000 1.000000e+001
         vertex 4.630167e+000 2.033353e+000 3.660729e+000
      endloop
   endfacet
   facet normal -3.960194e-001 9.182422e-001 0.000000e+000
      outer loop
         vertex 4.630167e+000 2.033353e+000 3.660729e+000
         vertex 4.630167e+000 2.033353e+000 1.000000e+001
         vertex 4.893286e+000 2.156047e+000 1.000000e+001
      endloop
   endfacet
   facet normal -4.488580e-001 8.936031e-001 0.000000e+000
      outer loop
         vertex 4.630167e+000 2.033353e+000 3.660729e+000
         vertex 4.893286e+000 2.156047e+000 1.000000e+001
         vertex 4.893286e+000 2.156047e+000 3.660729e+000
      endloop
   endfacet
   facet normal -5.494540e-001 8.355240e-001 0.000000e+000
      outer loop
         vertex 4.893286e+000 2.156047e+000 3.660729e+000
         vertex 4.893286e+000 2.156047e+000 1.000000e+001
         vertex 5.131101e+000 2.322567e+000 1.000000e+001
      endloop
   endfacet
   facet normal -5.972114e-001 8.020838e-001 0.000000e+000
      outer loop
         vertex 4.893286e+000 2.156047e+000 3.660729e+000
         vertex 5.131101e+000 2.322567e+000 1.000000e+001
         vertex 5.131101e+000 2.322567e+000 3.660729e+000
      endloop
   endfacet
   facet normal -6.861938e-001 7.274188e-001 0.000000e+000
      outer loop
         vertex 5.131101e+000 2.322567e+000 3.660729e+000
         vertex 5.131101e+000 2.322567e+000 1.000000e+001
         vertex 5.336388e+000 2.527854e+000 1.000000e+001
      endloop
   endfacet
   facet normal -7.274188e-001 6.861938e-001 0.000000e+000
      outer loop
         vertex 5.131101e+000 2.322567e+000 3.660729e+000
         vertex 5.336388e+000 2.527854e+000 1.000000e+001
         vertex 5.336388e+000 2.527854e+000 3.660729e+000
      endloop
   endfacet
   facet normal -8.020838e-001 5.972114e-001 0.000000e+000
      outer loop
         vertex 5.336388e+000 2.527854e+000 3.660729e+000
         vertex 5.336388e+000 2.527854e+000 1.000000e+001
         vertex 5.502909e+000 2.765670e+000 1.000000e+001
      endloop
   endfacet
   facet normal -8.355240e-001 5.494540e-001 0.000000e+000
      outer loop
         vertex 5.336388e+000 2.527854e+000 3.660729e+000
         vertex 5.502909e+000 2.765670e+000 1.000000e+001
         vertex 5.502909e+000 2.765670e+000 3.660729e+000
      endloop
   endfacet
   facet normal -8.936031e-001 4.488580e-001 0.000000e+000
      outer loop
         vertex 5.502909e+000 2.765670e+000 3.660729e+000
         vertex 5.502909e+000 2.765670e+000 1.000000e+001
         vertex 5.625603e+000 3.028789e+000 1.000000e+001
      endloop
   endfacet
   facet normal -9.182422e-001 3.960194e-001 0.000000e+000
      outer loop
         vertex 5.502909e+000 2.765670e+000 3.660729e+000
         vertex 5.625603e+000 3.028789e+000 1.000000e+001
         vertex 5.625603e+000 3.028789e+000 3.660729e+000
      endloop
   endfacet
   facet normal -9.579706e-001 2.868663e-001 0.000000e+000
      outer loop
         vertex 5.625603e+000 3.028789e+000 3.660729e+000
         vertex 5.625603e+000 3.028789e+000 1.000000e+001
         vertex 5.700743e+000 3.309216e+000 1.000000e+001
      endloop
   endfacet
   facet normal -9.730600e-001 2.305519e-001 0.000000e+000
      outer loop
         vertex 5.625603e+000 3.028789e+000 3.660729e+000
         vertex 5.700743e+000 3.309216e+000 1.000000e+001
         vertex 5.700743e+000 3.309216e+000 3.660729e+000
      endloop
   endfacet
   facet normal -9.932307e-001 1.161583e-001 0.000000e+000
      outer loop
         vertex 5.700743e+000 3.309216e+000 3.660729e+000
         vertex 5.700743e+000 3.309216e+000 1.000000e+001
         vertex 5.726046e+000 3.598430e+000 1.000000e+001
      endloop
   endfacet
   facet normal 0.000000e+000 0.000000e+000 1.000000e+000
      outer loop
         vertex 4.349740e+000 5.238648e+000 3.660729e+000
         vertex 4.060525e+000 5.263951e+000 3.660729e+000
         vertex 3.490884e+000 2.033353e+000 3.660729e+000
      endloop
   endfacet
   facet normal 0.000000e+000 0.000000e+000 1.000000e+000
      outer loop
         vertex 3.771311e+000 1.958213e+000 3.660729e+000
         vertex 5.726046e+000 3.598430e+000 3.660729e+000
         vertex 3.490884e+000 2.033353e+000 3.660729e+000
      endloop
   endfacet
   facet normal 0.000000e+000 0.000000e+000 1.000000e+000
      outer loop
         vertex 3.490884e+000 2.033353e+000 3.660729e+000
         vertex 5.726046e+000 3.598430e+000 3.660729e+000
         vertex 5.700743e+000 3.887645e+000 3.660729e+000
      endloop
   endfacet
   facet normal 0.000000e+000 0.000000e+000 1.000000e+000
      outer loop
         vertex 3.490884e+000 2.033353e+000 3.660729e+000
         vertex 5.700743e+000 3.887645e+000 3.660729e+000
         vertex 5.625603e+000 4.168072e+000 3.660729e+000
      endloop
   endfacet
   facet normal 0.000000e+000 0.000000e+000 1.000000e+000
      outer loop
         vertex 5.625603e+000 4.168072e+000 3.660729e+000
         vertex 5.502909e+000 4.431190e+000 3.660729e+000
         vertex 3.490884e+000 2.033353e+000 3.660729e+000
      endloop
   endfacet
   facet normal 0.000000e+000 0.000000e+000 1.000000e+000
      outer loop
         vertex 3.490884e+000 2.033353e+000 3.660729e+000
         vertex 5.502909e+000 4.431190e+000 3.660729e+000
         vertex 5.336388e+000 4.669006e+000 3.660729e+000
      endloop
   endfacet
   facet normal 0.000000e+000 0.000000e+000 1.000000e+000
      outer loop
         vertex 3.490884e+000 2.033353e+000 3.660729e+000
         vertex 5.336388e+000 4.669006e+000 3.660729e+000
         vertex 5.131101e+000 4.874293e+000 3.660729e+000
      endloop
   endfacet
   facet normal 0.000000e+000 0.000000e+000 1.000000e+000
      outer loop
         vertex 3.771311e+000 1.958213e+000 3.660729e+000
         vertex 4.060525e+000 1.932910e+000 3.660729e+000
         vertex 5.726046e+000 3.598430e+000 3.660729e+000
      endloop
   endfacet
   facet normal 0.000000e+000 0.000000e+000 1.000000e+000
      outer loop
         vertex 5.726046e+000 3.598430e+000 3.660729e+000
         vertex 4.060525e+000 1.932910e+000 3.660729e+000
         vertex 4.349740e+000 1.958213e+000 3.660729e+000
      endloop
   endfacet
   facet normal 0.000000e+000 0.000000e+000 1.000000e+000
      outer loop
         vertex 5.726046e+000 3.598430e+000 3.660729e+000
         vertex 4.349740e+000 1.958213e+000 3.660729e+000
         vertex 4.630167e+000 2.033353e+000 3.660729e+000
      endloop
   endfacet
   facet normal 0.000000e+000 0.000000e+000 1.000000e+000
      outer loop
         vertex 4.630167e+000 2.033353e+000 3.660729e+000
         vertex 4.893286e+000 2.156047e+000 3.660729e+000
         vertex 5.726046e+000 3.598430e+000 3.660729e+000
      endloop
   endfacet
   facet normal 0.000000e+000 0.000000e+000 1.000000e+000
      outer loop
         vertex 5.726046e+000 3.598430e+000 3.660729e+000
         vertex 4.893286e+000 2.156047e+000 3.660729e+000
         vertex 5.131101e+000 2.322567e+000 3.660729e+000
      endloop
   endfacet
   facet normal 0.000000e+000 0.000000e+000 1.000000e+000
      outer loop
         vertex 5.726046e+000 3.598430e+000 3.660729e+000
         vertex 5.131101e+000 2.322567e+000 3.660729e+000
         vertex 5.336388e+000 2.527854e+000 3.660729e+000
      endloop
   endfacet
   facet normal 0.000000e+000 0.000000e+000 1.000000e+000
      outer loop
         vertex 5.131101e+000 4.874293e+000 3.660729e+000
         vertex 4.893286e+000 5.040813e+000 3.660729e+000
         vertex 3.490884e+000 2.033353e+000 3.660729e+000
      endloop
   endfacet
   facet normal 0.000000e+000 0.000000e+000 1.000000e+000
      outer loop
         vertex 3.490884e+000 2.033353e+000 3.660729e+000
         vertex 4.893286e+000 5.040813e+000 3.660729e+000
         vertex 4.630167e+000 5.163507e+000 3.660729e+000
      endloop
   endfacet
   facet normal 0.000000e+000 0.000000e+000 1.000000e+000
      outer loop
         vertex 3.490884e+000 2.033353e+000 3.660729e+000
         vertex 4.630167e+000 5.163507e+000 3.660729e+000
         vertex 4.349740e+000 5.238648e+000 3.660729e+000
      endloop
   endfacet
   facet normal 0.000000e+000 0.000000e+000 1.000000e+000
      outer loop
         vertex 2.989949e+000 4.874293e+000 3.660729e+000
         vertex 2.784663e+000 4.669006e+000 3.660729e+000
         vertex 3.227765e+000 5.040813e+000 3.660729e+000
      endloop
   endfacet
   facet normal 0.000000e+000 0.000000e+000 1.000000e+000
      outer loop
         vertex 3.227765e+000 5.040813e+000 3.660729e+000
         vertex 2.784663e+000 4.669006e+000 3.660729e+000
         vertex 2.618142e+000 4.431190e+000 3.660729e+000
      endloop
   endfacet
   facet normal 0.000000e+000 0.000000e+000 1.000000e+000
      outer loop
         vertex 3.227765e+000 5.040813e+000 3.660729e+000
         vertex 2.618142e+000 4.431190e+000 3.660729e+000
         vertex 2.495448e+000 4.168072e+000 3.660729e+000
      endloop
   endfacet
   facet normal 0.000000e+000 0.000000e+000 1.000000e+000
      outer loop
         vertex 4.060525e+000 5.263951e+000 3.660729e+000
         vertex 3.771311e+000 5.238648e+000 3.660729e+000
         vertex 3.490884e+000 2.033353e+000 3.660729e+000
      endloop
   endfacet
   facet normal 0.000000e+000 0.000000e+000 1.000000e+000
      outer loop
         vertex 3.490884e+000 2.033353e+000 3.660729e+000
         vertex 3.771311e+000 5.238648e+000 3.660729e+000
         vertex 3.490884e+000 5.163507e+000 3.660729e+000
      endloop
   endfacet
   facet normal 0.000000e+000 0.000000e+000 1.000000e+000
      outer loop
         vertex 3.490884e+000 2.033353e+000 3.660729e+000
         vertex 3.490884e+000 5.163507e+000 3.660729e+000
         vertex 3.227765e+000 2.156047e+000 3.660729e+000
      endloop
   endfacet
   facet normal 0.000000e+000 0.000000e+000 1.000000e+000
      outer loop
         vertex 3.227765e+000 2.156047e+000 3.660729e+000
         vertex 3.490884e+000 5.163507e+000 3.660729e+000
         vertex 2.989949e+000 2.322567e+000 3.660729e+000
      endloop
   endfacet
   facet normal 0.000000e+000 0.000000e+000 1.000000e+000
      outer loop
         vertex 5.336388e+000 2.527854e+000 3.660729e+000
         vertex 5.502909e+000 2.765670e+000 3.660729e+000
         vertex 5.726046e+000 3.598430e+000 3.660729e+000
      endloop
   endfacet
   facet normal 0.000000e+000 0.000000e+000 1.000000e+000
      outer loop
         vertex 5.726046e+000 3.598430e+000 3.660729e+000
         vertex 5.502909e+000 2.765670e+000 3.660729e+000
         vertex 5.625603e+000 3.028789e+000 3.660729e+000
      endloop
   endfacet
   facet normal 0.000000e+000 0.000000e+000 1.000000e+000
      outer loop
         vertex 5.726046e+000 3.598430e+000 3.660729e+000
         vertex 5.625603e+000 3.028789e+000 3.660729e+000
         vertex 5.700743e+000 3.309216e+000 3.660729e+000
      endloop
   endfacet
   facet normal 0.000000e+000 0.000000e+000 1.000000e+000
      outer loop
         vertex 2.495448e+000 4.168072e+000 3.660729e+000
         vertex 2.420308e+000 3.887645e+000 3.660729e+000
         vertex 3.227765e+000 5.040813e+000 3.660729e+000
      endloop
   endfacet
   facet normal 0.000000e+000 0.000000e+000 1.000000e+000
      outer loop
         vertex 3.227765e+000 5.040813e+000 3.660729e+000
         vertex 2.420308e+000 3.887645e+000 3.660729e+000
         vertex 2.395005e+000 3.598430e+000 3.660729e+000
      endloop
   endfacet
   facet normal 0.000000e+000 0.000000e+000 1.000000e+000
      outer loop
         vertex 3.227765e+000 5.040813e+000 3.660729e+000
         vertex 2.395005e+000 3.598430e+000 3.660729e+000
         vertex 3.490884e+000 5.163507e+000 3.660729e+000
      endloop
   endfacet
   facet normal 0.000000e+000 0.000000e+000 1.000000e+000
      outer loop
         vertex 3.490884e+000 5.163507e+000 3.660729e+000
         vertex 2.395005e+000 3.598430e+000 3.660729e+000
         vertex 2.420308e+000 3.309216e+000 3.660729e+000
      endloop
   endfacet
   facet normal 0.000000e+000 0.000000e+000 1.000000e+000
      outer loop
         vertex 3.490884e+000 5.163507e+000 3.660729e+000
         vertex 2.420308e+000 3.309216e+000 3.660729e+000
         vertex 2.495448e+000 3.028789e+000 3.660729e+000
      endloop
   endfacet
   facet normal 0.000000e+000 0.000000e+000 1.000000e+000
      outer loop
         vertex 2.495448e+000 3.028789e+000 3.660729e+000
         vertex 2.618142e+000 2.765670e+000 3.660729e+000
         vertex 3.490884e+000 5.163507e+000 3.660729e+000
      endloop
   endfacet
   facet normal 0.000000e+000 0.000000e+000 1.000000e+000
      outer loop
         vertex 3.490884e+000 5.163507e+000 3.660729e+000
         vertex 2.618142e+000 2.765670e+000 3.660729e+000
         vertex 2.784663e+000 2.527854e+000 3.660729e+000
      endloop
   endfacet
   facet normal 0.000000e+000 0.000000e+000 1.000000e+000
      outer loop
         vertex 3.490884e+000 5.163507e+000 3.660729e+000
         vertex 2.784663e+000 2.527854e+000 3.660729e+000
         vertex 2.989949e+000 2.322567e+000 3.660729e+000
      endloop
   endfacet
endsolid