solid 2_207
   facet normal -1.000000e+000 0.000000e+000 0.000000e+000
      outer loop
         vertex 0.000000e+000 1.000000e+001 1.000000e+001
         vertex 0.000000e+000 1.000000e+001 0.000000e+000
         vertex 0.000000e+000 0.000000e+000 1.000000e+001
      endloop
   endfacet
   facet normal -1.000000e+000 0.000000e+000 0.000000e+000
      outer loop
         vertex 0.000000e+000 0.000000e+000 1.000000e+001
         vertex 0.000000e+000 1.000000e+001 0.000000e+000
         vertex 0.000000e+000 0.000000e+000 0.000000e+000
      endloop
   endfacet
   facet normal 0.000000e+000 0.000000e+000 1.000000e+000
      outer loop
         vertex 1.000000e+001 0.000000e+000 1.000000e+001
         vertex 6.165487e+000 5.503065e+000 1.000000e+001
         vertex 5.894601e+000 5.313388e+000 1.000000e+001
      endloop
   endfacet
   facet normal 0.000000e+000 0.000000e+000 1.000000e+000
      outer loop
         vertex 3.492754e+000 8.175797e+000 1.000000e+001
         vertex 3.726588e+000 8.409632e+000 1.000000e+001
         vertex 0.000000e+000 1.000000e+001 1.000000e+001
      endloop
   endfacet
   facet normal 0.000000e+000 0.000000e+000 1.000000e+000
      outer loop
         vertex 0.000000e+000 1.000000e+001 1.000000e+001
         vertex 3.726588e+000 8.409632e+000 1.000000e+001
         vertex 3.997474e+000 8.599308e+000 1.000000e+001
      endloop
   endfacet
   facet normal 0.000000e+000 0.000000e+000 1.000000e+000
      outer loop
         vertex 0.000000e+000 1.000000e+001 1.000000e+001
         vertex 3.997474e+000 8.599308e+000 1.000000e+001
         vertex 4.297182e+000 8.739064e+000 1.000000e+001
      endloop
   endfacet
   facet normal 0.000000e+000 0.000000e+000 1.000000e+000
      outer loop
         vertex 6.728754e+000 6.307493e+000 1.000000e+001
         vertex 6.588997e+000 6.007785e+000 1.000000e+001
         vertex 1.000000e+001 0.000000e+000 1.000000e+001
      endloop
   endfacet
   facet normal 0.000000e+000 0.000000e+000 1.000000e+000
      outer loop
         vertex 1.000000e+001 0.000000e+000 1.000000e+001
         vertex 6.588997e+000 6.007785e+000 1.000000e+001
         vertex 6.399321e+000 5.736898e+000 1.000000e+001
      endloop
   endfacet
   facet normal 0.000000e+000 0.000000e+000 1.000000e+000
      outer loop
         vertex 1.000000e+001 0.000000e+000 1.000000e+001
         vertex 6.399321e+000 5.736898e+000 1.000000e+001
         vertex 6.165487e+000 5.503065e+000 1.000000e+001
      endloop
   endfacet
   facet normal 0.000000e+000 0.000000e+000 1.000000e+000
      outer loop
         vertex 4.946037e+000 5.059222e+000 1.000000e+001
         vertex 0.000000e+000 0.000000e+000 1.000000e+001
         vertex 5.275470e+000 5.088043e+000 1.000000e+001
      endloop
   endfacet
   facet normal 0.000000e+000 0.000000e+000 1.000000e+000
      outer loop
         vertex 5.275470e+000 5.088043e+000 1.000000e+001
         vertex 0.000000e+000 0.000000e+000 1.000000e+001
         vertex 1.000000e+001 0.000000e+000 1.000000e+001
      endloop
   endfacet
   facet normal 0.000000e+000 0.000000e+000 1.000000e+000
      outer loop
         vertex 5.275470e+000 5.088043e+000 1.000000e+001
         vertex 1.000000e+001 0.000000e+000 1.000000e+001
         vertex 5.594893e+000 5.173633e+000 1.000000e+001
      endloop
   endfacet
   facet normal 0.000000e+000 0.000000e+000 1.000000e+000
      outer loop
         vertex 5.594893e+000 5.173633e+000 1.000000e+001
         vertex 1.000000e+001 0.000000e+000 1.000000e+001
         vertex 5.894601e+000 5.313388e+000 1.000000e+001
      endloop
   endfacet
   facet normal 0.000000e+000 0.000000e+000 1.000000e+000
      outer loop
         vertex 5.594893e+000 8.739064e+000 1.000000e+001
         vertex 5.894601e+000 8.599308e+000 1.000000e+001
         vertex 1.000000e+001 1.000000e+001 1.000000e+001
      endloop
   endfacet
   facet normal 0.000000e+000 0.000000e+000 1.000000e+000
      outer loop
         vertex 1.000000e+001 1.000000e+001 1.000000e+001
         vertex 5.894601e+000 8.599308e+000 1.000000e+001
         vertex 6.165487e+000 8.409632e+000 1.000000e+001
      endloop
   endfacet
   facet normal 0.000000e+000 0.000000e+000 1.000000e+000
      outer loop
         vertex 4.946037e+000 5.059222e+000 1.000000e+001
         vertex 4.616605e+000 5.088043e+000 1.000000e+001
         vertex 0.000000e+000 0.000000e+000 1.000000e+001
      endloop
   endfacet
   facet normal 0.000000e+000 0.000000e+000 1.000000e+000
      outer loop
         vertex 0.000000e+000 0.000000e+000 1.000000e+001
         vertex 4.616605e+000 5.088043e+000 1.000000e+001
         vertex 4.297182e+000 5.173633e+000 1.000000e+001
      endloop
   endfacet
   facet normal 0.000000e+000 0.000000e+000 1.000000e+000
      outer loop
         vertex 0.000000e+000 0.000000e+000 1.000000e+001
         vertex 4.297182e+000 5.173633e+000 1.000000e+001
         vertex 3.997474e+000 5.313388e+000 1.000000e+001
      endloop
   endfacet
   facet normal 0.000000e+000 0.000000e+000 1.000000e+000
      outer loop
         vertex 3.077732e+000 7.285781e+000 1.000000e+001
         vertex 3.163321e+000 7.605204e+000 1.000000e+001
         vertex 0.000000e+000 1.000000e+001 1.000000e+001
      endloop
   endfacet
   facet normal 0.000000e+000 0.000000e+000 1.000000e+000
      outer loop
         vertex 0.000000e+000 1.000000e+001 1.000000e+001
         vertex 3.163321e+000 7.605204e+000 1.000000e+001
         vertex 3.303077e+000 7.904912e+000 1.000000e+001
      endloop
   endfacet
   facet normal 0.000000e+000 0.000000e+000 1.000000e+000
      outer loop
         vertex 0.000000e+000 1.000000e+001 1.000000e+001
         vertex 3.303077e+000 7.904912e+000 1.000000e+001
         vertex 3.492754e+000 8.175797e+000 1.000000e+001
      endloop
   endfacet
   facet normal 0.000000e+000 0.000000e+000 1.000000e+000
      outer loop
         vertex 4.297182e+000 8.739064e+000 1.000000e+001
         vertex 4.616605e+000 8.824654e+000 1.000000e+001
         vertex 0.000000e+000 1.000000e+001 1.000000e+001
      endloop
   endfacet
   facet normal 0.000000e+000 0.000000e+000 1.000000e+000
      outer loop
         vertex 0.000000e+000 1.000000e+001 1.000000e+001
         vertex 4.616605e+000 8.824654e+000 1.000000e+001
         vertex 4.946037e+000 8.853476e+000 1.000000e+001
      endloop
   endfacet
   facet normal 0.000000e+000 0.000000e+000 1.000000e+000
      outer loop
         vertex 0.000000e+000 1.000000e+001 1.000000e+001
         vertex 4.946037e+000 8.853476e+000 1.000000e+001
         vertex 1.000000e+001 1.000000e+001 1.000000e+001
      endloop
   endfacet
   facet normal 0.000000e+000 0.000000e+000 1.000000e+000
      outer loop
         vertex 1.000000e+001 1.000000e+001 1.000000e+001
         vertex 4.946037e+000 8.853476e+000 1.000000e+001
         vertex 5.275470e+000 8.824654e+000 1.000000e+001
      endloop
   endfacet
   facet normal 0.000000e+000 0.000000e+000 1.000000e+000
      outer loop
         vertex 1.000000e+001 1.000000e+001 1.000000e+001
         vertex 5.275470e+000 8.824654e+000 1.000000e+001
         vertex 5.594893e+000 8.739064e+000 1.000000e+001
      endloop
   endfacet
   facet normal 0.000000e+000 0.000000e+000 1.000000e+000
      outer loop
         vertex 6.165487e+000 8.409632e+000 1.000000e+001
         vertex 6.399321e+000 8.175797e+000 1.000000e+001
         vertex 1.000000e+001 1.000000e+001 1.000000e+001
      endloop
   endfacet
   facet normal 0.000000e+000 0.000000e+000 1.000000e+000
      outer loop
         vertex 1.000000e+001 1.000000e+001 1.000000e+001
         vertex 6.399321e+000 8.175797e+000 1.000000e+001
         vertex 6.588997e+000 7.904912e+000 1.000000e+001
      endloop
   endfacet
   facet normal 0.000000e+000 0.000000e+000 1.000000e+000
      outer loop
         vertex 1.000000e+001 1.000000e+001 1.000000e+001
         vertex 6.588997e+000 7.904912e+000 1.000000e+001
         vertex 6.728754e+000 7.605204e+000 1.000000e+001
      endloop
   endfacet
   facet normal 0.000000e+000 0.000000e+000 1.000000e+000
      outer loop
         vertex 6.728754e+000 7.605204e+000 1.000000e+001
         vertex 6.814342e+000 7.285781e+000 1.000000e+001
         vertex 1.000000e+001 1.000000e+001 1.000000e+001
      endloop
   endfacet
   facet normal 0.000000e+000 0.000000e+000 1.000000e+000
      outer loop
         vertex 1.000000e+001 1.000000e+001 1.000000e+001
         vertex 6.814342e+000 7.285781e+000 1.000000e+001
         vertex 6.843164e+000 6.956348e+000 1.000000e+001
      endloop
   endfacet
   facet normal 0.000000e+000 0.000000e+000 1.000000e+000
      outer loop
         vertex 1.000000e+001 1.000000e+001 1.000000e+001
         vertex 6.843164e+000 6.956348e+000 1.000000e+001
         vertex 1.000000e+001 0.000000e+000 1.000000e+001
      endloop
   endfacet
   facet normal 0.000000e+000 0.000000e+000 1.000000e+000
      outer loop
         vertex 1.000000e+001 0.000000e+000 1.000000e+001
         vertex 6.843164e+000 6.956348e+000 1.000000e+001
         vertex 6.814342e+000 6.626915e+000 1.000000e+001
      endloop
   endfacet
   facet normal 0.000000e+000 0.000000e+000 1.000000e+000
      outer loop
         vertex 1.000000e+001 0.000000e+000 1.000000e+001
         vertex 6.814342e+000 6.626915e+000 1.000000e+001
         vertex 6.728754e+000 6.307493e+000 1.000000e+001
      endloop
   endfacet
   facet normal 0.000000e+000 0.000000e+000 1.000000e+000
      outer loop
         vertex 3.997474e+000 5.313388e+000 1.000000e+001
         vertex 3.726588e+000 5.503065e+000 1.000000e+001
         vertex 0.000000e+000 0.000000e+000 1.000000e+001
      endloop
   endfacet
   facet normal 0.000000e+000 0.000000e+000 1.000000e+000
      outer loop
         vertex 0.000000e+000 0.000000e+000 1.000000e+001
         vertex 3.726588e+000 5.503065e+000 1.000000e+001
         vertex 3.492754e+000 5.736898e+000 1.000000e+001
      endloop
   endfacet
   facet normal 0.000000e+000 0.000000e+000 1.000000e+000
      outer loop
         vertex 0.000000e+000 0.000000e+000 1.000000e+001
         vertex 3.492754e+000 5.736898e+000 1.000000e+001
         vertex 3.303077e+000 6.007785e+000 1.000000e+001
      endloop
   endfacet
   facet normal 0.000000e+000 0.000000e+000 1.000000e+000
      outer loop
         vertex 3.303077e+000 6.007785e+000 1.000000e+001
         vertex 3.163321e+000 6.307493e+000 1.000000e+001
         vertex 0.000000e+000 0.000000e+000 1.000000e+001
      endloop
   endfacet
   facet normal 0.000000e+000 0.000000e+000 1.000000e+000
      outer loop
         vertex 0.000000e+000 0.000000e+000 1.000000e+001
         vertex 3.163321e+000 6.307493e+000 1.000000e+001
         vertex 3.077732e+000 6.626915e+000 1.000000e+001
      endloop
   endfacet
   facet normal 0.000000e+000 0.000000e+000 1.000000e+000
      outer loop
         vertex 0.000000e+000 0.000000e+000 1.000000e+001
         vertex 3.077732e+000 6.626915e+000 1.000000e+001
         vertex 0.000000e+000 1.000000e+001 1.000000e+001
      endloop
   endfacet
   facet normal 0.000000e+000 0.000000e+000 1.000000e+000
      outer loop
         vertex 0.000000e+000 1.000000e+001 1.000000e+001
         vertex 3.077732e+000 6.626915e+000 1.000000e+001
         vertex 3.048911e+000 6.956348e+000 1.000000e+001
      endloop
   endfacet
   facet normal 0.000000e+000 0.000000e+000 1.000000e+000
      outer loop
         vertex 0.000000e+000 1.000000e+001 1.000000e+001
         vertex 3.048911e+000 6.956348e+000 1.000000e+001
         vertex 3.077732e+000 7.285781e+000 1.000000e+001
      endloop
   endfacet
   facet normal 1.000000e+000 0.000000e+000 0.000000e+000
      outer loop
         vertex 1.000000e+001 1.000000e+001 0.000000e+000
         vertex 1.000000e+001 1.000000e+001 1.000000e+001
         vertex 1.000000e+001 0.000000e+000 0.000000e+000
      endloop
   endfacet
   facet normal 1.000000e+000 0.000000e+000 0.000000e+000
      outer loop
         vertex 1.000000e+001 0.000000e+000 0.000000e+000
         vertex 1.000000e+001 1.000000e+001 1.000000e+001
         vertex 1.000000e+001 0.000000e+000 1.000000e+001
      endloop
   endfacet
   facet normal 0.000000e+000 0.000000e+000 -1.000000e+000
      outer loop
         vertex 0.000000e+000 1.000000e+001 0.000000e+000
         vertex 1.000000e+001 1.000000e+001 0.000000e+000
         vertex 0.000000e+000 0.000000e+000 0.000000e+000
      endloop
   endfacet
   facet normal 0.000000e+000 0.000000e+000 -1.000000e+000
      outer loop
         vertex 0.000000e+000 0.000000e+000 0.000000e+000
         vertex 1.000000e+001 1.000000e+001 0.000000e+000
         vertex 1.000000e+001 0.000000e+000 0.000000e+000
      endloop
   endfacet
   facet normal 0.000000e+000 1.000000e+000 0.000000e+000
      outer loop
         vertex 1.000000e+001 1.000000e+001 1.000000e+001
         vertex 1.000000e+001 1.000000e+001 0.000000e+000
         vertex 0.000000e+000 1.000000e+001 1.000000e+001
      endloop
   endfacet
   facet normal 0.000000e+000 1.000000e+000 0.000000e+000
      outer loop
         vertex 0.000000e+000 1.000000e+001 1.000000e+001
         vertex 1.000000e+001 1.000000e+001 0.000000e+000
         vertex 0.000000e+000 1.000000e+001 0.000000e+000
      endloop
   endfacet
   facet normal 0.000000e+000 -1.000000e+000 0.000000e+000
      outer loop
         vertex 1.000000e+001 0.000000e+000 0.000000e+000
         vertex 1.000000e+001 0.000000e+000 1.000000e+001
         vertex 0.000000e+000 0.000000e+000 0.000000e+000
      endloop
   endfacet
   facet normal 0.000000e+000 -1.000000e+000 0.000000e+000
      outer loop
         vertex 0.000000e+000 0.000000e+000 0.000000e+000
         vertex 1.000000e+001 0.000000e+000 1.000000e+001
         vertex 0.000000e+000 0.000000e+000 1.000000e+001
      endloop
   endfacet
   facet normal -9.983119e-001 5.807913e-002 0.000000e+000
      outer loop
         vertex 6.814342e+000 6.626915e+000 2.752394e+000
         vertex 6.843164e+000 6.956348e+000 1.000000e+001
         vertex 6.843164e+000 6.956348e+000 2.752394e+000
      endloop
   endfacet
   facet normal -9.983119e-001 -5.807913e-002 0.000000e+000
      outer loop
         vertex 6.843164e+000 6.956348e+000 2.752394e+000
         vertex 6.843164e+000 6.956348e+000 1.000000e+001
         vertex 6.814342e+000 7.285781e+000 1.000000e+001
      endloop
   endfacet
   facet normal -9.932307e-001 -1.161583e-001 0.000000e+000
      outer loop
         vertex 6.843164e+000 6.956348e+000 2.752394e+000
         vertex 6.814342e+000 7.285781e+000 1.000000e+001
         vertex 6.814342e+000 7.285781e+000 2.752394e+000
      endloop
   endfacet
   facet normal -9.730600e-001 -2.305519e-001 0.000000e+000
      outer loop
         vertex 6.814342e+000 7.285781e+000 2.752394e+000
         vertex 6.814342e+000 7.285781e+000 1.000000e+001
         vertex 6.728754e+000 7.605204e+000 1.000000e+001
      endloop
   endfacet
   facet normal -9.579706e-001 -2.868663e-001 0.000000e+000
      outer loop
         vertex 6.814342e+000 7.285781e+000 2.752394e+000
         vertex 6.728754e+000 7.605204e+000 1.000000e+001
         vertex 6.728754e+000 7.605204e+000 2.752394e+000
      endloop
   endfacet
   facet normal -9.182422e-001 -3.960194e-001 0.000000e+000
      outer loop
         vertex 6.728754e+000 7.605204e+000 2.752394e+000
         vertex 6.728754e+000 7.605204e+000 1.000000e+001
         vertex 6.588997e+000 7.904912e+000 1.000000e+001
      endloop
   endfacet
   facet normal -8.936031e-001 -4.488580e-001 0.000000e+000
      outer loop
         vertex 6.728754e+000 7.605204e+000 2.752394e+000
         vertex 6.588997e+000 7.904912e+000 1.000000e+001
         vertex 6.588997e+000 7.904912e+000 2.752394e+000
      endloop
   endfacet
   facet normal -8.355240e-001 -5.494540e-001 0.000000e+000
      outer loop
         vertex 6.588997e+000 7.904912e+000 2.752394e+000
         vertex 6.588997e+000 7.904912e+000 1.000000e+001
         vertex 6.399321e+000 8.175797e+000 1.000000e+001
      endloop
   endfacet
   facet normal -8.020838e-001 -5.972114e-001 0.000000e+000
      outer loop
         vertex 6.588997e+000 7.904912e+000 2.752394e+000
         vertex 6.399321e+000 8.175797e+000 1.000000e+001
         vertex 6.399321e+000 8.175797e+000 2.752394e+000
      endloop
   endfacet
   facet normal -7.274188e-001 -6.861938e-001 0.000000e+000
      outer loop
         vertex 6.399321e+000 8.175797e+000 2.752394e+000
         vertex 6.399321e+000 8.175797e+000 1.000000e+001
         vertex 6.165487e+000 8.409632e+000 1.000000e+001
      endloop
   endfacet
   facet normal -6.861938e-001 -7.274188e-001 0.000000e+000
      outer loop
         vertex 6.399321e+000 8.175797e+000 2.752394e+000
         vertex 6.165487e+000 8.409632e+000 1.000000e+001
         vertex 6.165487e+000 8.409632e+000 2.752394e+000
      endloop
   endfacet
   facet normal -5.972114e-001 -8.020838e-001 0.000000e+000
      outer loop
         vertex 6.165487e+000 8.409632e+000 2.752394e+000
         vertex 6.165487e+000 8.409632e+000 1.000000e+001
         vertex 5.894601e+000 8.599308e+000 1.000000e+001
      endloop
   endfacet
   facet normal -5.494540e-001 -8.355240e-001 0.000000e+000
      outer loop
         vertex 6.165487e+000 8.409632e+000 2.752394e+000
         vertex 5.894601e+000 8.599308e+000 1.000000e+001
         vertex 5.894601e+000 8.599308e+000 2.752394e+000
      endloop
   endfacet
   facet normal -4.488580e-001 -8.936031e-001 0.000000e+000
      outer loop
         vertex 5.894601e+000 8.599308e+000 2.752394e+000
         vertex 5.894601e+000 8.599308e+000 1.000000e+001
         vertex 5.594893e+000 8.739064e+000 1.000000e+001
      endloop
   endfacet
   facet normal -3.960194e-001 -9.182422e-001 0.000000e+000
      outer loop
         vertex 5.894601e+000 8.599308e+000 2.752394e+000
         vertex 5.594893e+000 8.739064e+000 1.000000e+001
         vertex 5.594893e+000 8.739064e+000 2.752394e+000
      endloop
   endfacet
   facet normal -2.868663e-001 -9.579706e-001 0.000000e+000
      outer loop
         vertex 5.594893e+000 8.739064e+000 2.752394e+000
         vertex 5.594893e+000 8.739064e+000 1.000000e+001
         vertex 5.275470e+000 8.824654e+000 1.000000e+001
      endloop
   endfacet
   facet normal -2.305519e-001 -9.730600e-001 0.000000e+000
      outer loop
         vertex 5.594893e+000 8.739064e+000 2.752394e+000
         vertex 5.275470e+000 8.824654e+000 1.000000e+001
         vertex 5.275470e+000 8.824654e+000 2.752394e+000
      endloop
   endfacet
   facet normal -1.161583e-001 -9.932307e-001 0.000000e+000
      outer loop
         vertex 5.275470e+000 8.824654e+000 2.752394e+000
         vertex 5.275470e+000 8.824654e+000 1.000000e+001
         vertex 4.946037e+000 8.853476e+000 1.000000e+001
      endloop
   endfacet
   facet normal -5.807913e-002 -9.983119e-001 0.000000e+000
      outer loop
         vertex 5.275470e+000 8.824654e+000 2.752394e+000
         vertex 4.946037e+000 8.853476e+000 1.000000e+001
         vertex 4.946037e+000 8.853476e+000 2.752394e+000
      endloop
   endfacet
   facet normal 5.807913e-002 -9.983119e-001 0.000000e+000
      outer loop
         vertex 4.946037e+000 8.853476e+000 2.752394e+000
         vertex 4.946037e+000 8.853476e+000 1.000000e+001
         vertex 4.616605e+000 8.824654e+000 1.000000e+001
      endloop
   endfacet
   facet normal 1.161583e-001 -9.932307e-001 0.000000e+000
      outer loop
         vertex 4.946037e+000 8.853476e+000 2.752394e+000
         vertex 4.616605e+000 8.824654e+000 1.000000e+001
         vertex 4.616605e+000 8.824654e+000 2.752394e+000
      endloop
   endfacet
   facet normal 2.305519e-001 -9.730600e-001 0.000000e+000
      outer loop
         vertex 4.616605e+000 8.824654e+000 2.752394e+000
         vertex 4.616605e+000 8.824654e+000 1.000000e+001
         vertex 4.297182e+000 8.739064e+000 1.000000e+001
      endloop
   endfacet
   facet normal 2.868663e-001 -9.579706e-001 0.000000e+000
      outer loop
         vertex 4.616605e+000 8.824654e+000 2.752394e+000
         vertex 4.297182e+000 8.739064e+000 1.000000e+001
         vertex 4.297182e+000 8.739064e+000 2.752394e+000
      endloop
   endfacet
   facet normal 3.960194e-001 -9.182422e-001 0.000000e+000
      outer loop
         vertex 4.297182e+000 8.739064e+000 2.752394e+000
         vertex 4.297182e+000 8.739064e+000 1.000000e+001
         vertex 3.997474e+000 8.599308e+000 1.000000e+001
      endloop
   endfacet
   facet normal 4.488580e-001 -8.936031e-001 0.000000e+000
      outer loop
         vertex 4.297182e+000 8.739064e+000 2.752394e+000
         vertex 3.997474e+000 8.599308e+000 1.000000e+001
         vertex 3.997474e+000 8.599308e+000 2.752394e+000
      endloop
   endfacet
   facet normal 5.494540e-001 -8.355240e-001 0.000000e+000
      outer loop
         vertex 3.997474e+000 8.599308e+000 2.752394e+000
         vertex 3.997474e+000 8.599308e+000 1.000000e+001
         vertex 3.726588e+000 8.409632e+000 1.000000e+001
      endloop
   endfacet
   facet normal 5.972114e-001 -8.020838e-001 0.000000e+000
      outer loop
         vertex 3.997474e+000 8.599308e+000 2.752394e+000
         vertex 3.726588e+000 8.409632e+000 1.000000e+001
         vertex 3.726588e+000 8.409632e+000 2.752394e+000
      endloop
   endfacet
   facet normal 6.861938e-001 -7.274188e-001 0.000000e+000
      outer loop
         vertex 3.726588e+000 8.409632e+000 2.752394e+000
         vertex 3.726588e+000 8.409632e+000 1.000000e+001
         vertex 3.492754e+000 8.175797e+000 1.000000e+001
      endloop
   endfacet
   facet normal 7.274188e-001 -6.861938e-001 0.000000e+000
      outer loop
         vertex 3.726588e+000 8.409632e+000 2.752394e+000
         vertex 3.492754e+000 8.175797e+000 1.000000e+001
         vertex 3.492754e+000 8.175797e+000 2.752394e+000
      endloop
   endfacet
   facet normal 8.020838e-001 -5.972114e-001 0.000000e+000
      outer loop
         vertex 3.492754e+000 8.175797e+000 2.752394e+000
         vertex 3.492754e+000 8.175797e+000 1.000000e+001
         vertex 3.303077e+000 7.904912e+000 1.000000e+001
      endloop
   endfacet
   facet normal 8.355240e-001 -5.494540e-001 0.000000e+000
      outer loop
         vertex 3.492754e+000 8.175797e+000 2.752394e+000
         vertex 3.303077e+000 7.904912e+000 1.000000e+001
         vertex 3.303077e+000 7.904912e+000 2.752394e+000
      endloop
   endfacet
   facet normal 8.936031e-001 -4.488580e-001 0.000000e+000
      outer loop
         vertex 3.303077e+000 7.904912e+000 2.752394e+000
         vertex 3.303077e+000 7.904912e+000 1.000000e+001
         vertex 3.163321e+000 7.605204e+000 1.000000e+001
      endloop
   endfacet
   facet normal 9.182422e-001 -3.960194e-001 0.000000e+000
      outer loop
         vertex 3.303077e+000 7.904912e+000 2.752394e+000
         vertex 3.163321e+000 7.605204e+000 1.000000e+001
         vertex 3.163321e+000 7.605204e+000 2.752394e+000
      endloop
   endfacet
   facet normal 9.579706e-001 -2.868663e-001 0.000000e+000
      outer loop
         vertex 3.163321e+000 7.605204e+000 2.752394e+000
         vertex 3.163321e+000 7.605204e+000 1.000000e+001
         vertex 3.077732e+000 7.285781e+000 1.000000e+001
      endloop
   endfacet
   facet normal 9.730600e-001 -2.305519e-001 0.000000e+000
      outer loop
         vertex 3.163321e+000 7.605204e+000 2.752394e+000
         vertex 3.077732e+000 7.285781e+000 1.000000e+001
         vertex 3.077732e+000 7.285781e+000 2.752394e+000
      endloop
   endfacet
   facet normal 9.932307e-001 -1.161583e-001 0.000000e+000
      outer loop
         vertex 3.077732e+000 7.285781e+000 2.752394e+000
         vertex 3.077732e+000 7.285781e+000 1.000000e+001
         vertex 3.048911e+000 6.956348e+000 1.000000e+001
      endloop
   endfacet
   facet normal 9.983119e-001 -5.807913e-002 0.000000e+000
      outer loop
         vertex 3.077732e+000 7.285781e+000 2.752394e+000
         vertex 3.048911e+000 6.956348e+000 1.000000e+001
         vertex 3.048911e+000 6.956348e+000 2.752394e+000
      endloop
   endfacet
   facet normal 9.983119e-001 5.807913e-002 0.000000e+000
      outer loop
         vertex 3.048911e+000 6.956348e+000 2.752394e+000
         vertex 3.048911e+000 6.956348e+000 1.000000e+001
         vertex 3.077732e+000 6.626915e+000 1.000000e+001
      endloop
   endfacet
   facet normal 9.932307e-001 1.161583e-001 0.000000e+000
      outer loop
         vertex 3.048911e+000 6.956348e+000 2.752394e+000
         vertex 3.077732e+000 6.626915e+000 1.000000e+001
         vertex 3.077732e+000 6.626915e+000 2.752394e+000
      endloop
   endfacet
   facet normal 9.730600e-001 2.305519e-001 0.000000e+000
      outer loop
         vertex 3.077732e+000 6.626915e+000 2.752394e+000
         vertex 3.077732e+000 6.626915e+000 1.000000e+001
         vertex 3.163321e+000 6.307493e+000 1.000000e+001
      endloop
   endfacet
   facet normal 9.579706e-001 2.868663e-001 0.000000e+000
      outer loop
         vertex 3.077732e+000 6.626915e+000 2.752394e+000
         vertex 3.163321e+000 6.307493e+000 1.000000e+001
         vertex 3.163321e+000 6.307493e+000 2.752394e+000
      endloop
   endfacet
   facet normal 9.182422e-001 3.960194e-001 0.000000e+000
      outer loop
         vertex 3.163321e+000 6.307493e+000 2.752394e+000
         vertex 3.163321e+000 6.307493e+000 1.000000e+001
         vertex 3.303077e+000 6.007785e+000 1.000000e+001
      endloop
   endfacet
   facet normal 8.936031e-001 4.488580e-001 0.000000e+000
      outer loop
         vertex 3.163321e+000 6.307493e+000 2.752394e+000
         vertex 3.303077e+000 6.007785e+000 1.000000e+001
         vertex 3.303077e+000 6.007785e+000 2.752394e+000
      endloop
   endfacet
   facet normal 8.355240e-001 5.494540e-001 0.000000e+000
      outer loop
         vertex 3.303077e+000 6.007785e+000 2.752394e+000
         vertex 3.303077e+000 6.007785e+000 1.000000e+001
         vertex 3.492754e+000 5.736898e+000 1.000000e+001
      endloop
   endfacet
   facet normal 8.020838e-001 5.972114e-001 0.000000e+000
      outer loop
         vertex 3.303077e+000 6.007785e+000 2.752394e+000
         vertex 3.492754e+000 5.736898e+000 1.000000e+001
         vertex 3.492754e+000 5.736898e+000 2.752394e+000
      endloop
   endfacet
   facet normal 7.274188e-001 6.861938e-001 0.000000e+000
      outer loop
         vertex 3.492754e+000 5.736898e+000 2.752394e+000
         vertex 3.492754e+000 5.736898e+000 1.000000e+001
         vertex 3.726588e+000 5.503065e+000 1.000000e+001
      endloop
   endfacet
   facet normal 6.861938e-001 7.274188e-001 0.000000e+000
      outer loop
         vertex 3.492754e+000 5.736898e+000 2.752394e+000
         vertex 3.726588e+000 5.503065e+000 1.000000e+001
         vertex 3.726588e+000 5.503065e+000 2.752394e+000
      endloop
   endfacet
   facet normal 5.972114e-001 8.020838e-001 0.000000e+000
      outer loop
         vertex 3.726588e+000 5.503065e+000 2.752394e+000
         vertex 3.726588e+000 5.503065e+000 1.000000e+001
         vertex 3.997474e+000 5.313388e+000 1.000000e+001
      endloop
   endfacet
   facet normal 5.494540e-001 8.355240e-001 0.000000e+000
      outer loop
         vertex 3.726588e+000 5.503065e+000 2.752394e+000
         vertex 3.997474e+000 5.313388e+000 1.000000e+001
         vertex 3.997474e+000 5.313388e+000 2.752394e+000
      endloop
   endfacet
   facet normal 4.488580e-001 8.936031e-001 0.000000e+000
      outer loop
         vertex 3.997474e+000 5.313388e+000 2.752394e+000
         vertex 3.997474e+000 5.313388e+000 1.000000e+001
         vertex 4.297182e+000 5.173633e+000 1.000000e+001
      endloop
   endfacet
   facet normal 3.960194e-001 9.182422e-001 0.000000e+000
      outer loop
         vertex 3.997474e+000 5.313388e+000 2.752394e+000
         vertex 4.297182e+000 5.173633e+000 1.000000e+001
         vertex 4.297182e+000 5.173633e+000 2.752394e+000
      endloop
   endfacet
   facet normal 2.868663e-001 9.579706e-001 0.000000e+000
      outer loop
         vertex 4.297182e+000 5.173633e+000 2.752394e+000
         vertex 4.297182e+000 5.173633e+000 1.000000e+001
         vertex 4.616605e+000 5.088043e+000 1.000000e+001
      endloop
   endfacet
   facet normal 2.305519e-001 9.730600e-001 0.000000e+000
      outer loop
         vertex 4.297182e+000 5.173633e+000 2.752394e+000
         vertex 4.616605e+000 5.088043e+000 1.000000e+001
         vertex 4.616605e+000 5.088043e+000 2.752394e+000
      endloop
   endfacet
   facet normal 1.161583e-001 9.932307e-001 0.000000e+000
      outer loop
         vertex 4.616605e+000 5.088043e+000 2.752394e+000
         vertex 4.616605e+000 5.088043e+000 1.000000e+001
         vertex 4.946037e+000 5.059222e+000 1.000000e+001
      endloop
   endfacet
   facet normal 5.807913e-002 9.983119e-001 0.000000e+000
      outer loop
         vertex 4.616605e+000 5.088043e+000 2.752394e+000
         vertex 4.946037e+000 5.059222e+000 1.000000e+001
         vertex 4.946037e+000 5.059222e+000 2.752394e+000
      endloop
   endfacet
   facet normal -5.807913e-002 9.983119e-001 0.000000e+000
      outer loop
         vertex 4.946037e+000 5.059222e+000 2.752394e+000
         vertex 4.946037e+000 5.059222e+000 1.000000e+001
         vertex 5.275470e+000 5.088043e+000 1.000000e+001
      endloop
   endfacet
   facet normal -1.161583e-001 9.932307e-001 0.000000e+000
      outer loop
         vertex 4.946037e+000 5.059222e+000 2.752394e+000
         vertex 5.275470e+000 5.088043e+000 1.000000e+001
         vertex 5.275470e+000 5.088043e+000 2.752394e+000
      endloop
   endfacet
   facet normal -2.305519e-001 9.730600e-001 0.000000e+000
      outer loop
         vertex 5.275470e+000 5.088043e+000 2.752394e+000
         vertex 5.275470e+000 5.088043e+000 1.000000e+001
         vertex 5.594893e+000 5.173633e+000 1.000000e+001
      endloop
   endfacet
   facet normal -2.868663e-001 9.579706e-001 0.000000e+000
      outer loop
         vertex 5.275470e+000 5.088043e+000 2.752394e+000
         vertex 5.594893e+000 5.173633e+000 1.000000e+001
         vertex 5.594893e+000 5.173633e+000 2.752394e+000
      endloop
   endfacet
   facet normal -3.960194e-001 9.182422e-001 0.000000e+000
      outer loop
         vertex 5.594893e+000 5.173633e+000 2.752394e+000
         vertex 5.594893e+000 5.173633e+000 1.000000e+001
         vertex 5.894601e+000 5.313388e+000 1.000000e+001
      endloop
   endfacet
   facet normal -4.488580e-001 8.936031e-001 0.000000e+000
      outer loop
         vertex 5.594893e+000 5.173633e+000 2.752394e+000
         vertex 5.894601e+000 5.313388e+000 1.000000e+001
         vertex 5.894601e+000 5.313388e+000 2.752394e+000
      endloop
   endfacet
   facet normal -5.494540e-001 8.355240e-001 0.000000e+000
      outer loop
         vertex 5.894601e+000 5.313388e+000 2.752394e+000
         vertex 5.894601e+000 5.313388e+000 1.000000e+001
         vertex 6.165487e+000 5.503065e+000 1.000000e+001
      endloop
   endfacet
   facet normal -5.972114e-001 8.020838e-001 0.000000e+000
      outer loop
         vertex 5.894601e+000 5.313388e+000 2.752394e+000
         vertex 6.165487e+000 5.503065e+000 1.000000e+001
         vertex 6.165487e+000 5.503065e+000 2.752394e+000
      endloop
   endfacet
   facet normal -6.861938e-001 7.274188e-001 0.000000e+000
      outer loop
         vertex 6.165487e+000 5.503065e+000 2.752394e+000
         vertex 6.165487e+000 5.503065e+000 1.000000e+001
         vertex 6.399321e+000 5.736898e+000 1.000000e+001
      endloop
   endfacet
   facet normal -7.274188e-001 6.861938e-001 0.000000e+000
      outer loop
         vertex 6.165487e+000 5.503065e+000 2.752394e+000
         vertex 6.399321e+000 5.736898e+000 1.000000e+001
         vertex 6.399321e+000 5.736898e+000 2.752394e+000
      endloop
   endfacet
   facet normal -8.020838e-001 5.972114e-001 0.000000e+000
      outer loop
         vertex 6.399321e+000 5.736898e+000 2.752394e+000
         vertex 6.399321e+000 5.736898e+000 1.000000e+001
         vertex 6.588997e+000 6.007785e+000 1.000000e+001
      endloop
   endfacet
   facet normal -8.355240e-001 5.494540e-001 0.000000e+000
      outer loop
         vertex 6.399321e+000 5.736898e+000 2.752394e+000
         vertex 6.588997e+000 6.007785e+000 1.000000e+001
         vertex 6.588997e+000 6.007785e+000 2.752394e+000
      endloop
   endfacet
   facet normal -8.936031e-001 4.488580e-001 0.000000e+000
      outer loop
         vertex 6.588997e+000 6.007785e+000 2.752394e+000
         vertex 6.588997e+000 6.007785e+000 1.000000e+001
         vertex 6.728754e+000 6.307493e+000 1.000000e+001
      endloop
   endfacet
   facet normal -9.182422e-001 3.960194e-001 0.000000e+000
      outer loop
         vertex 6.588997e+000 6.007785e+000 2.752394e+000
         vertex 6.728754e+000 6.307493e+000 1.000000e+001
         vertex 6.728754e+000 6.307493e+000 2.752394e+000
      endloop
   endfacet
   facet normal -9.579706e-001 2.868663e-001 0.000000e+000
      outer loop
         vertex 6.728754e+000 6.307493e+000 2.752394e+000
         vertex 6.728754e+000 6.307493e+000 1.000000e+001
         vertex 6.814342e+000 6.626915e+000 1.000000e+001
      endloop
   endfacet
   facet normal -9.730600e-001 2.305519e-001 0.000000e+000
      outer loop
         vertex 6.728754e+000 6.307493e+000 2.752394e+000
         vertex 6.814342e+000 6.626915e+000 1.000000e+001
         vertex 6.814342e+000 6.626915e+000 2.752394e+000
      endloop
   endfacet
   facet normal -9.932307e-001 1.161583e-001 0.000000e+000
      outer loop
         vertex 6.814342e+000 6.626915e+000 2.752394e+000
         vertex 6.814342e+000 6.626915e+000 1.000000e+001
         vertex 6.843164e+000 6.956348e+000 1.000000e+001
      endloop
   endfacet
   facet normal 0.000000e+000 0.000000e+000 1.000000e+000
      outer loop
         vertex 4.946037e+000 5.059222e+000 2.752394e+000
         vertex 3.492754e+000 8.175797e+000 2.752394e+000
         vertex 4.616605e+000 5.088043e+000 2.752394e+000
      endloop
   endfacet
   facet normal 0.000000e+000 0.000000e+000 1.000000e+000
      outer loop
         vertex 4.616605e+000 5.088043e+000 2.752394e+000
         vertex 3.492754e+000 8.175797e+000 2.752394e+000
         vertex 3.303077e+000 7.904912e+000 2.752394e+000
      endloop
   endfacet
   facet normal 0.000000e+000 0.000000e+000 1.000000e+000
      outer loop
         vertex 4.616605e+000 5.088043e+000 2.752394e+000
         vertex 3.303077e+000 7.904912e+000 2.752394e+000
         vertex 3.163321e+000 7.605204e+000 2.752394e+000
      endloop
   endfacet
   facet normal 0.000000e+000 0.000000e+000 1.000000e+000
      outer loop
         vertex 3.163321e+000 7.605204e+000 2.752394e+000
         vertex 3.077732e+000 7.285781e+000 2.752394e+000
         vertex 4.616605e+000 5.088043e+000 2.752394e+000
      endloop
   endfacet
   facet normal 0.000000e+000 0.000000e+000 1.000000e+000
      outer loop
         vertex 4.616605e+000 5.088043e+000 2.752394e+000
         vertex 3.077732e+000 7.285781e+000 2.752394e+000
         vertex 3.048911e+000 6.956348e+000 2.752394e+000
      endloop
   endfacet
   facet normal 0.000000e+000 0.000000e+000 1.000000e+000
      outer loop
         vertex 4.616605e+000 5.088043e+000 2.752394e+000
         vertex 3.048911e+000 6.956348e+000 2.752394e+000
         vertex 3.077732e+000 6.626915e+000 2.752394e+000
      endloop
   endfacet
   facet normal 0.000000e+000 0.000000e+000 1.000000e+000
      outer loop
         vertex 4.946037e+000 5.059222e+000 2.752394e+000
         vertex 5.275470e+000 5.088043e+000 2.752394e+000
         vertex 3.492754e+000 8.175797e+000 2.752394e+000
      endloop
   endfacet
   facet normal 0.000000e+000 0.000000e+000 1.000000e+000
      outer loop
         vertex 3.492754e+000 8.175797e+000 2.752394e+000
         vertex 5.275470e+000 5.088043e+000 2.752394e+000
         vertex 5.594893e+000 5.173633e+000 2.752394e+000
      endloop
   endfacet
   facet normal 0.000000e+000 0.000000e+000 1.000000e+000
      outer loop
         vertex 3.492754e+000 8.175797e+000 2.752394e+000
         vertex 5.594893e+000 5.173633e+000 2.752394e+000
         vertex 5.894601e+000 5.313388e+000 2.752394e+000
      endloop
   endfacet
   facet normal 0.000000e+000 0.000000e+000 1.000000e+000
      outer loop
         vertex 3.997474e+000 8.599308e+000 2.752394e+000
         vertex 3.726588e+000 8.409632e+000 2.752394e+000
         vertex 6.399321e+000 5.736898e+000 2.752394e+000
      endloop
   endfacet
   facet normal 0.000000e+000 0.000000e+000 1.000000e+000
      outer loop
         vertex 6.399321e+000 5.736898e+000 2.752394e+000
         vertex 3.726588e+000 8.409632e+000 2.752394e+000
         vertex 3.492754e+000 8.175797e+000 2.752394e+000
      endloop
   endfacet
   facet normal 0.000000e+000 0.000000e+000 1.000000e+000
      outer loop
         vertex 6.399321e+000 5.736898e+000 2.752394e+000
         vertex 3.492754e+000 8.175797e+000 2.752394e+000
         vertex 6.165487e+000 5.503065e+000 2.752394e+000
      endloop
   endfacet
   facet normal 0.000000e+000 0.000000e+000 1.000000e+000
      outer loop
         vertex 6.165487e+000 5.503065e+000 2.752394e+000
         vertex 3.492754e+000 8.175797e+000 2.752394e+000
         vertex 5.894601e+000 5.313388e+000 2.752394e+000
      endloop
   endfacet
   facet normal 0.000000e+000 0.000000e+000 1.000000e+000
      outer loop
         vertex 6.728754e+000 6.307493e+000 2.752394e+000
         vertex 6.814342e+000 6.626915e+000 2.752394e+000
         vertex 4.297182e+000 8.739064e+000 2.752394e+000
      endloop
   endfacet
   facet normal 0.000000e+000 0.000000e+000 1.000000e+000
      outer loop
         vertex 5.894601e+000 8.599308e+000 2.752394e+000
         vertex 5.594893e+000 8.739064e+000 2.752394e+000
         vertex 6.165487e+000 8.409632e+000 2.752394e+000
      endloop
   endfacet
   facet normal 0.000000e+000 0.000000e+000 1.000000e+000
      outer loop
         vertex 6.165487e+000 8.409632e+000 2.752394e+000
         vertex 5.594893e+000 8.739064e+000 2.752394e+000
         vertex 6.399321e+000 8.175797e+000 2.752394e+000
      endloop
   endfacet
   facet normal 0.000000e+000 0.000000e+000 1.000000e+000
      outer loop
         vertex 5.275470e+000 8.824654e+000 2.752394e+000
         vertex 6.728754e+000 7.605204e+000 2.752394e+000
         vertex 5.594893e+000 8.739064e+000 2.752394e+000
      endloop
   endfacet
   facet normal 0.000000e+000 0.000000e+000 1.000000e+000
      outer loop
         vertex 5.594893e+000 8.739064e+000 2.752394e+000
         vertex 6.728754e+000 7.605204e+000 2.752394e+000
         vertex 6.588997e+000 7.904912e+000 2.752394e+000
      endloop
   endfacet
   facet normal 0.000000e+000 0.000000e+000 1.000000e+000
      outer loop
         vertex 5.594893e+000 8.739064e+000 2.752394e+000
         vertex 6.588997e+000 7.904912e+000 2.752394e+000
         vertex 6.399321e+000 8.175797e+000 2.752394e+000
      endloop
   endfacet
   facet normal 0.000000e+000 0.000000e+000 1.000000e+000
      outer loop
         vertex 5.275470e+000 8.824654e+000 2.752394e+000
         vertex 4.946037e+000 8.853476e+000 2.752394e+000
         vertex 6.728754e+000 7.605204e+000 2.752394e+000
      endloop
   endfacet
   facet normal 0.000000e+000 0.000000e+000 1.000000e+000
      outer loop
         vertex 6.728754e+000 7.605204e+000 2.752394e+000
         vertex 4.946037e+000 8.853476e+000 2.752394e+000
         vertex 4.616605e+000 8.824654e+000 2.752394e+000
      endloop
   endfacet
   facet normal 0.000000e+000 0.000000e+000 1.000000e+000
      outer loop
         vertex 6.728754e+000 7.605204e+000 2.752394e+000
         vertex 4.616605e+000 8.824654e+000 2.752394e+000
         vertex 4.297182e+000 8.739064e+000 2.752394e+000
      endloop
   endfacet
   facet normal 0.000000e+000 0.000000e+000 1.000000e+000
      outer loop
         vertex 3.997474e+000 8.599308e+000 2.752394e+000
         vertex 6.399321e+000 5.736898e+000 2.752394e+000
         vertex 4.297182e+000 8.739064e+000 2.752394e+000
      endloop
   endfacet
   facet normal 0.000000e+000 0.000000e+000 1.000000e+000
      outer loop
         vertex 4.297182e+000 8.739064e+000 2.752394e+000
         vertex 6.399321e+000 5.736898e+000 2.752394e+000
         vertex 6.588997e+000 6.007785e+000 2.752394e+000
      endloop
   endfacet
   facet normal 0.000000e+000 0.000000e+000 1.000000e+000
      outer loop
         vertex 4.297182e+000 8.739064e+000 2.752394e+000
         vertex 6.588997e+000 6.007785e+000 2.752394e+000
         vertex 6.728754e+000 6.307493e+000 2.752394e+000
      endloop
   endfacet
   facet normal 0.000000e+000 0.000000e+000 1.000000e+000
      outer loop
         vertex 6.814342e+000 6.626915e+000 2.752394e+000
         vertex 6.843164e+000 6.956348e+000 2.752394e+000
         vertex 4.297182e+000 8.739064e+000 2.752394e+000
      endloop
   endfacet
   facet normal 0.000000e+000 0.000000e+000 1.000000e+000
      outer loop
         vertex 4.297182e+000 8.739064e+000 2.752394e+000
         vertex 6.843164e+000 6.956348e+000 2.752394e+000
         vertex 6.814342e+000 7.285781e+000 2.752394e+000
      endloop
   endfacet
   facet normal 0.000000e+000 0.000000e+000 1.000000e+000
      outer loop
         vertex 4.297182e+000 8.739064e+000 2.752394e+000
         vertex 6.814342e+000 7.285781e+000 2.752394e+000
         vertex 6.728754e+000 7.605204e+000 2.752394e+000
      endloop
   endfacet
   facet normal 0.000000e+000 0.000000e+000 1.000000e+000
      outer loop
         vertex 3.726588e+000 5.503065e+000 2.752394e+000
         vertex 3.997474e+000 5.313388e+000 2.752394e+000
         vertex 3.492754e+000 5.736898e+000 2.752394e+000
      endloop
   endfacet
   facet normal 0.000000e+000 0.000000e+000 1.000000e+000
      outer loop
         vertex 3.492754e+000 5.736898e+000 2.752394e+000
         vertex 3.997474e+000 5.313388e+000 2.752394e+000
         vertex 3.303077e+000 6.007785e+000 2.752394e+000
      endloop
   endfacet
   facet normal 0.000000e+000 0.000000e+000 1.000000e+000
      outer loop
         vertex 3.077732e+000 6.626915e+000 2.752394e+000
         vertex 3.163321e+000 6.307493e+000 2.752394e+000
         vertex 4.616605e+000 5.088043e+000 2.752394e+000
      endloop
   endfacet
   facet normal 0.000000e+000 0.000000e+000 1.000000e+000
      outer loop
         vertex 4.616605e+000 5.088043e+000 2.752394e+000
         vertex 3.163321e+000 6.307493e+000 2.752394e+000
         vertex 3.303077e+000 6.007785e+000 2.752394e+000
      endloop
   endfacet
   facet normal 0.000000e+000 0.000000e+000 1.000000e+000
      outer loop
         vertex 4.616605e+000 5.088043e+000 2.752394e+000
         vertex 3.303077e+000 6.007785e+000 2.752394e+000
         vertex 4.297182e+000 5.173633e+000 2.752394e+000
      endloop
   endfacet
   facet normal 0.000000e+000 0.000000e+000 1.000000e+000
      outer loop
         vertex 4.297182e+000 5.173633e+000 2.752394e+000
         vertex 3.303077e+000 6.007785e+000 2.752394e+000
         vertex 3.997474e+000 5.313388e+000 2.752394e+000
      endloop
   endfacet
endsolid