solid 2_201
   facet normal -1.000000e+000 0.000000e+000 0.000000e+000
      outer loop
         vertex 0.000000e+000 1.000000e+001 1.000000e+001
         vertex 0.000000e+000 1.000000e+001 0.000000e+000
         vertex 0.000000e+000 0.000000e+000 1.000000e+001
      endloop
   endfacet
   facet normal -1.000000e+000 0.000000e+000 0.000000e+000
      outer loop
         vertex 0.000000e+000 0.000000e+000 1.000000e+001
         vertex 0.000000e+000 1.000000e+001 0.000000e+000
         vertex 0.000000e+000 0.000000e+000 0.000000e+000
      endloop
   endfacet
   facet normal 0.000000e+000 0.000000e+000 1.000000e+000
      outer loop
         vertex 5.138036e+000 8.605228e-001 1.000000e+001
         vertex 4.712258e+000 1.019330e+000 1.000000e+001
         vertex 0.000000e+000 0.000000e+000 1.000000e+001
      endloop
   endfacet
   facet normal 0.000000e+000 0.000000e+000 1.000000e+000
      outer loop
         vertex 8.442405e+000 1.830773e+000 1.000000e+001
         vertex 8.121075e+000 1.509443e+000 1.000000e+001
         vertex 1.000000e+001 0.000000e+000 1.000000e+001
      endloop
   endfacet
   facet normal 0.000000e+000 0.000000e+000 1.000000e+000
      outer loop
         vertex 1.000000e+001 1.000000e+001 1.000000e+001
         vertex 6.488622e+000 7.069068e+000 1.000000e+001
         vertex 6.932666e+000 6.972472e+000 1.000000e+001
      endloop
   endfacet
   facet normal 0.000000e+000 0.000000e+000 1.000000e+000
      outer loop
         vertex 8.121075e+000 6.323552e+000 1.000000e+001
         vertex 8.442405e+000 6.002222e+000 1.000000e+001
         vertex 1.000000e+001 1.000000e+001 1.000000e+001
      endloop
   endfacet
   facet normal 0.000000e+000 0.000000e+000 1.000000e+000
      outer loop
         vertex 1.000000e+001 1.000000e+001 1.000000e+001
         vertex 8.442405e+000 6.002222e+000 1.000000e+001
         vertex 8.714735e+000 5.638433e+000 1.000000e+001
      endloop
   endfacet
   facet normal 0.000000e+000 0.000000e+000 1.000000e+000
      outer loop
         vertex 1.000000e+001 1.000000e+001 1.000000e+001
         vertex 9.187921e+000 4.369769e+000 1.000000e+001
         vertex 9.220341e+000 3.916497e+000 1.000000e+001
      endloop
   endfacet
   facet normal 0.000000e+000 0.000000e+000 1.000000e+000
      outer loop
         vertex 1.000000e+001 1.000000e+001 1.000000e+001
         vertex 9.220341e+000 3.916497e+000 1.000000e+001
         vertex 1.000000e+001 0.000000e+000 1.000000e+001
      endloop
   endfacet
   facet normal 0.000000e+000 0.000000e+000 1.000000e+000
      outer loop
         vertex 1.000000e+001 0.000000e+000 1.000000e+001
         vertex 9.220341e+000 3.916497e+000 1.000000e+001
         vertex 9.187921e+000 3.463226e+000 1.000000e+001
      endloop
   endfacet
   facet normal 0.000000e+000 0.000000e+000 1.000000e+000
      outer loop
         vertex 1.000000e+001 0.000000e+000 1.000000e+001
         vertex 9.187921e+000 3.463226e+000 1.000000e+001
         vertex 9.091325e+000 3.019182e+000 1.000000e+001
      endloop
   endfacet
   facet normal 0.000000e+000 0.000000e+000 1.000000e+000
      outer loop
         vertex 8.121075e+000 1.509443e+000 1.000000e+001
         vertex 7.757286e+000 1.237114e+000 1.000000e+001
         vertex 1.000000e+001 0.000000e+000 1.000000e+001
      endloop
   endfacet
   facet normal 0.000000e+000 0.000000e+000 1.000000e+000
      outer loop
         vertex 1.000000e+001 0.000000e+000 1.000000e+001
         vertex 7.757286e+000 1.237114e+000 1.000000e+001
         vertex 7.358443e+000 1.019330e+000 1.000000e+001
      endloop
   endfacet
   facet normal 0.000000e+000 0.000000e+000 1.000000e+000
      outer loop
         vertex 1.000000e+001 0.000000e+000 1.000000e+001
         vertex 7.358443e+000 1.019330e+000 1.000000e+001
         vertex 6.932666e+000 8.605228e-001 1.000000e+001
      endloop
   endfacet
   facet normal 0.000000e+000 0.000000e+000 1.000000e+000
      outer loop
         vertex 4.712258e+000 1.019330e+000 1.000000e+001
         vertex 4.313416e+000 1.237114e+000 1.000000e+001
         vertex 0.000000e+000 0.000000e+000 1.000000e+001
      endloop
   endfacet
   facet normal 0.000000e+000 0.000000e+000 1.000000e+000
      outer loop
         vertex 0.000000e+000 0.000000e+000 1.000000e+001
         vertex 4.313416e+000 1.237114e+000 1.000000e+001
         vertex 3.949626e+000 1.509443e+000 1.000000e+001
      endloop
   endfacet
   facet normal 0.000000e+000 0.000000e+000 1.000000e+000
      outer loop
         vertex 0.000000e+000 0.000000e+000 1.000000e+001
         vertex 3.949626e+000 1.509443e+000 1.000000e+001
         vertex 3.628297e+000 1.830773e+000 1.000000e+001
      endloop
   endfacet
   facet normal 0.000000e+000 0.000000e+000 1.000000e+000
      outer loop
         vertex 3.628297e+000 1.830773e+000 1.000000e+001
         vertex 3.355967e+000 2.194562e+000 1.000000e+001
         vertex 0.000000e+000 0.000000e+000 1.000000e+001
      endloop
   endfacet
   facet normal 0.000000e+000 0.000000e+000 1.000000e+000
      outer loop
         vertex 0.000000e+000 0.000000e+000 1.000000e+001
         vertex 3.355967e+000 2.194562e+000 1.000000e+001
         vertex 3.138183e+000 2.593405e+000 1.000000e+001
      endloop
   endfacet
   facet normal 0.000000e+000 0.000000e+000 1.000000e+000
      outer loop
         vertex 0.000000e+000 0.000000e+000 1.000000e+001
         vertex 3.138183e+000 2.593405e+000 1.000000e+001
         vertex 2.979376e+000 3.019182e+000 1.000000e+001
      endloop
   endfacet
   facet normal 0.000000e+000 0.000000e+000 1.000000e+000
      outer loop
         vertex 0.000000e+000 1.000000e+001 1.000000e+001
         vertex 5.582080e+000 7.069068e+000 1.000000e+001
         vertex 1.000000e+001 1.000000e+001 1.000000e+001
      endloop
   endfacet
   facet normal 0.000000e+000 0.000000e+000 1.000000e+000
      outer loop
         vertex 1.000000e+001 1.000000e+001 1.000000e+001
         vertex 5.582080e+000 7.069068e+000 1.000000e+001
         vertex 6.035351e+000 7.101487e+000 1.000000e+001
      endloop
   endfacet
   facet normal 0.000000e+000 0.000000e+000 1.000000e+000
      outer loop
         vertex 1.000000e+001 1.000000e+001 1.000000e+001
         vertex 6.035351e+000 7.101487e+000 1.000000e+001
         vertex 6.488622e+000 7.069068e+000 1.000000e+001
      endloop
   endfacet
   facet normal 0.000000e+000 0.000000e+000 1.000000e+000
      outer loop
         vertex 6.932666e+000 6.972472e+000 1.000000e+001
         vertex 7.358443e+000 6.813665e+000 1.000000e+001
         vertex 1.000000e+001 1.000000e+001 1.000000e+001
      endloop
   endfacet
   facet normal 0.000000e+000 0.000000e+000 1.000000e+000
      outer loop
         vertex 1.000000e+001 1.000000e+001 1.000000e+001
         vertex 7.358443e+000 6.813665e+000 1.000000e+001
         vertex 7.757286e+000 6.595881e+000 1.000000e+001
      endloop
   endfacet
   facet normal 0.000000e+000 0.000000e+000 1.000000e+000
      outer loop
         vertex 1.000000e+001 1.000000e+001 1.000000e+001
         vertex 7.757286e+000 6.595881e+000 1.000000e+001
         vertex 8.121075e+000 6.323552e+000 1.000000e+001
      endloop
   endfacet
   facet normal 0.000000e+000 0.000000e+000 1.000000e+000
      outer loop
         vertex 9.091325e+000 3.019182e+000 1.000000e+001
         vertex 8.932519e+000 2.593405e+000 1.000000e+001
         vertex 1.000000e+001 0.000000e+000 1.000000e+001
      endloop
   endfacet
   facet normal 0.000000e+000 0.000000e+000 1.000000e+000
      outer loop
         vertex 1.000000e+001 0.000000e+000 1.000000e+001
         vertex 8.932519e+000 2.593405e+000 1.000000e+001
         vertex 8.714735e+000 2.194562e+000 1.000000e+001
      endloop
   endfacet
   facet normal 0.000000e+000 0.000000e+000 1.000000e+000
      outer loop
         vertex 1.000000e+001 0.000000e+000 1.000000e+001
         vertex 8.714735e+000 2.194562e+000 1.000000e+001
         vertex 8.442405e+000 1.830773e+000 1.000000e+001
      endloop
   endfacet
   facet normal 0.000000e+000 0.000000e+000 1.000000e+000
      outer loop
         vertex 6.932666e+000 8.605228e-001 1.000000e+001
         vertex 6.488622e+000 7.639269e-001 1.000000e+001
         vertex 1.000000e+001 0.000000e+000 1.000000e+001
      endloop
   endfacet
   facet normal 0.000000e+000 0.000000e+000 1.000000e+000
      outer loop
         vertex 1.000000e+001 0.000000e+000 1.000000e+001
         vertex 6.488622e+000 7.639269e-001 1.000000e+001
         vertex 6.035351e+000 7.315084e-001 1.000000e+001
      endloop
   endfacet
   facet normal 0.000000e+000 0.000000e+000 1.000000e+000
      outer loop
         vertex 1.000000e+001 0.000000e+000 1.000000e+001
         vertex 6.035351e+000 7.315084e-001 1.000000e+001
         vertex 0.000000e+000 0.000000e+000 1.000000e+001
      endloop
   endfacet
   facet normal 0.000000e+000 0.000000e+000 1.000000e+000
      outer loop
         vertex 0.000000e+000 0.000000e+000 1.000000e+001
         vertex 6.035351e+000 7.315084e-001 1.000000e+001
         vertex 5.582080e+000 7.639269e-001 1.000000e+001
      endloop
   endfacet
   facet normal 0.000000e+000 0.000000e+000 1.000000e+000
      outer loop
         vertex 0.000000e+000 0.000000e+000 1.000000e+001
         vertex 5.582080e+000 7.639269e-001 1.000000e+001
         vertex 5.138036e+000 8.605228e-001 1.000000e+001
      endloop
   endfacet
   facet normal 0.000000e+000 0.000000e+000 1.000000e+000
      outer loop
         vertex 3.949626e+000 6.323552e+000 1.000000e+001
         vertex 4.313416e+000 6.595881e+000 1.000000e+001
         vertex 0.000000e+000 1.000000e+001 1.000000e+001
      endloop
   endfacet
   facet normal 0.000000e+000 0.000000e+000 1.000000e+000
      outer loop
         vertex 8.714735e+000 5.638433e+000 1.000000e+001
         vertex 8.932519e+000 5.239590e+000 1.000000e+001
         vertex 1.000000e+001 1.000000e+001 1.000000e+001
      endloop
   endfacet
   facet normal 0.000000e+000 0.000000e+000 1.000000e+000
      outer loop
         vertex 1.000000e+001 1.000000e+001 1.000000e+001
         vertex 8.932519e+000 5.239590e+000 1.000000e+001
         vertex 9.091325e+000 4.813813e+000 1.000000e+001
      endloop
   endfacet
   facet normal 0.000000e+000 0.000000e+000 1.000000e+000
      outer loop
         vertex 1.000000e+001 1.000000e+001 1.000000e+001
         vertex 9.091325e+000 4.813813e+000 1.000000e+001
         vertex 9.187921e+000 4.369769e+000 1.000000e+001
      endloop
   endfacet
   facet normal 0.000000e+000 0.000000e+000 1.000000e+000
      outer loop
         vertex 2.979376e+000 4.813813e+000 1.000000e+001
         vertex 3.138183e+000 5.239590e+000 1.000000e+001
         vertex 0.000000e+000 1.000000e+001 1.000000e+001
      endloop
   endfacet
   facet normal 0.000000e+000 0.000000e+000 1.000000e+000
      outer loop
         vertex 2.979376e+000 3.019182e+000 1.000000e+001
         vertex 2.882780e+000 3.463226e+000 1.000000e+001
         vertex 0.000000e+000 0.000000e+000 1.000000e+001
      endloop
   endfacet
   facet normal 0.000000e+000 0.000000e+000 1.000000e+000
      outer loop
         vertex 0.000000e+000 0.000000e+000 1.000000e+001
         vertex 2.882780e+000 3.463226e+000 1.000000e+001
         vertex 2.850362e+000 3.916497e+000 1.000000e+001
      endloop
   endfacet
   facet normal 0.000000e+000 0.000000e+000 1.000000e+000
      outer loop
         vertex 0.000000e+000 0.000000e+000 1.000000e+001
         vertex 2.850362e+000 3.916497e+000 1.000000e+001
         vertex 0.000000e+000 1.000000e+001 1.000000e+001
      endloop
   endfacet
   facet normal 0.000000e+000 0.000000e+000 1.000000e+000
      outer loop
         vertex 0.000000e+000 1.000000e+001 1.000000e+001
         vertex 2.850362e+000 3.916497e+000 1.000000e+001
         vertex 2.882780e+000 4.369769e+000 1.000000e+001
      endloop
   endfacet
   facet normal 0.000000e+000 0.000000e+000 1.000000e+000
      outer loop
         vertex 0.000000e+000 1.000000e+001 1.000000e+001
         vertex 2.882780e+000 4.369769e+000 1.000000e+001
         vertex 2.979376e+000 4.813813e+000 1.000000e+001
      endloop
   endfacet
   facet normal 0.000000e+000 0.000000e+000 1.000000e+000
      outer loop
         vertex 3.138183e+000 5.239590e+000 1.000000e+001
         vertex 3.355967e+000 5.638433e+000 1.000000e+001
         vertex 0.000000e+000 1.000000e+001 1.000000e+001
      endloop
   endfacet
   facet normal 0.000000e+000 0.000000e+000 1.000000e+000
      outer loop
         vertex 0.000000e+000 1.000000e+001 1.000000e+001
         vertex 3.355967e+000 5.638433e+000 1.000000e+001
         vertex 3.628297e+000 6.002222e+000 1.000000e+001
      endloop
   endfacet
   facet normal 0.000000e+000 0.000000e+000 1.000000e+000
      outer loop
         vertex 0.000000e+000 1.000000e+001 1.000000e+001
         vertex 3.628297e+000 6.002222e+000 1.000000e+001
         vertex 3.949626e+000 6.323552e+000 1.000000e+001
      endloop
   endfacet
   facet normal 0.000000e+000 0.000000e+000 1.000000e+000
      outer loop
         vertex 4.313416e+000 6.595881e+000 1.000000e+001
         vertex 4.712258e+000 6.813665e+000 1.000000e+001
         vertex 0.000000e+000 1.000000e+001 1.000000e+001
      endloop
   endfacet
   facet normal 0.000000e+000 0.000000e+000 1.000000e+000
      outer loop
         vertex 0.000000e+000 1.000000e+001 1.000000e+001
         vertex 4.712258e+000 6.813665e+000 1.000000e+001
         vertex 5.138036e+000 6.972472e+000 1.000000e+001
      endloop
   endfacet
   facet normal 0.000000e+000 0.000000e+000 1.000000e+000
      outer loop
         vertex 0.000000e+000 1.000000e+001 1.000000e+001
         vertex 5.138036e+000 6.972472e+000 1.000000e+001
         vertex 5.582080e+000 7.069068e+000 1.000000e+001
      endloop
   endfacet
   facet normal 1.000000e+000 0.000000e+000 0.000000e+000
      outer loop
         vertex 1.000000e+001 1.000000e+001 0.000000e+000
         vertex 1.000000e+001 1.000000e+001 1.000000e+001
         vertex 1.000000e+001 0.000000e+000 0.000000e+000
      endloop
   endfacet
   facet normal 1.000000e+000 0.000000e+000 0.000000e+000
      outer loop
         vertex 1.000000e+001 0.000000e+000 0.000000e+000
         vertex 1.000000e+001 1.000000e+001 1.000000e+001
         vertex 1.000000e+001 0.000000e+000 1.000000e+001
      endloop
   endfacet
   facet normal 0.000000e+000 0.000000e+000 -1.000000e+000
      outer loop
         vertex 0.000000e+000 1.000000e+001 0.000000e+000
         vertex 1.000000e+001 1.000000e+001 0.000000e+000
         vertex 0.000000e+000 0.000000e+000 0.000000e+000
      endloop
   endfacet
   facet normal 0.000000e+000 0.000000e+000 -1.000000e+000
      outer loop
         vertex 0.000000e+000 0.000000e+000 0.000000e+000
         vertex 1.000000e+001 1.000000e+001 0.000000e+000
         vertex 1.000000e+001 0.000000e+000 0.000000e+000
      endloop
   endfacet
   facet normal 0.000000e+000 1.000000e+000 0.000000e+000
      outer loop
         vertex 1.000000e+001 1.000000e+001 1.000000e+001
         vertex 1.000000e+001 1.000000e+001 0.000000e+000
         vertex 0.000000e+000 1.000000e+001 1.000000e+001
      endloop
   endfacet
   facet normal 0.000000e+000 1.000000e+000 0.000000e+000
      outer loop
         vertex 0.000000e+000 1.000000e+001 1.000000e+001
         vertex 1.000000e+001 1.000000e+001 0.000000e+000
         vertex 0.000000e+000 1.000000e+001 0.000000e+000
      endloop
   endfacet
   facet normal 0.000000e+000 -1.000000e+000 0.000000e+000
      outer loop
         vertex 1.000000e+001 0.000000e+000 0.000000e+000
         vertex 1.000000e+001 0.000000e+000 1.000000e+001
         vertex 0.000000e+000 0.000000e+000 0.000000e+000
      endloop
   endfacet
   facet normal 0.000000e+000 -1.000000e+000 0.000000e+000
      outer loop
         vertex 0.000000e+000 0.000000e+000 0.000000e+000
         vertex 1.000000e+001 0.000000e+000 1.000000e+001
         vertex 0.000000e+000 0.000000e+000 1.000000e+001
      endloop
   endfacet
   facet normal -9.988691e-001 4.754595e-002 0.000000e+000
      outer loop
         vertex 9.187921e+000 3.463226e+000 6.029261e+000
         vertex 9.220341e+000 3.916497e+000 1.000000e+001
         vertex 9.220341e+000 3.916497e+000 6.029261e+000
      endloop
   endfacet
   facet normal -9.988691e-001 -4.754595e-002 0.000000e+000
      outer loop
         vertex 9.220341e+000 3.916497e+000 6.029261e+000
         vertex 9.220341e+000 3.916497e+000 1.000000e+001
         vertex 9.187921e+000 4.369769e+000 1.000000e+001
      endloop
   endfacet
   facet normal -9.954685e-001 -9.509189e-002 0.000000e+000
      outer loop
         vertex 9.220341e+000 3.916497e+000 6.029261e+000
         vertex 9.187921e+000 4.369769e+000 1.000000e+001
         vertex 9.187921e+000 4.369769e+000 6.029261e+000
      endloop
   endfacet
   facet normal -9.819355e-001 -1.892159e-001 0.000000e+000
      outer loop
         vertex 9.187921e+000 4.369769e+000 6.029261e+000
         vertex 9.187921e+000 4.369769e+000 1.000000e+001
         vertex 9.091325e+000 4.813813e+000 1.000000e+001
      endloop
   endfacet
   facet normal -9.718031e-001 -2.357940e-001 0.000000e+000
      outer loop
         vertex 9.187921e+000 4.369769e+000 6.029261e+000
         vertex 9.091325e+000 4.813813e+000 1.000000e+001
         vertex 9.091325e+000 4.813813e+000 6.029261e+000
      endloop
   endfacet
   facet normal -9.450126e-001 -3.270339e-001 0.000000e+000
      outer loop
         vertex 9.091325e+000 4.813813e+000 6.029261e+000
         vertex 9.091325e+000 4.813813e+000 1.000000e+001
         vertex 8.932519e+000 5.239590e+000 1.000000e+001
      endloop
   endfacet
   facet normal -9.283545e-001 -3.716959e-001 0.000000e+000
      outer loop
         vertex 9.091325e+000 4.813813e+000 6.029261e+000
         vertex 8.932519e+000 5.239590e+000 1.000000e+001
         vertex 8.932519e+000 5.239590e+000 6.029261e+000
      endloop
   endfacet
   facet normal -8.888519e-001 -4.581946e-001 0.000000e+000
      outer loop
         vertex 8.932519e+000 5.239590e+000 6.029261e+000
         vertex 8.932519e+000 5.239590e+000 1.000000e+001
         vertex 8.714735e+000 5.638433e+000 1.000000e+001
      endloop
   endfacet
   facet normal -8.660074e-001 -5.000312e-001 0.000000e+000
      outer loop
         vertex 8.932519e+000 5.239590e+000 6.029261e+000
         vertex 8.714735e+000 5.638433e+000 1.000000e+001
         vertex 8.714735e+000 5.638433e+000 6.029261e+000
      endloop
   endfacet
   facet normal -8.145968e-001 -5.800276e-001 0.000000e+000
      outer loop
         vertex 8.714735e+000 5.638433e+000 6.029261e+000
         vertex 8.714735e+000 5.638433e+000 1.000000e+001
         vertex 8.442405e+000 6.002222e+000 1.000000e+001
      endloop
   endfacet
   facet normal -7.860308e-001 -6.181873e-001 0.000000e+000
      outer loop
         vertex 8.714735e+000 5.638433e+000 6.029261e+000
         vertex 8.442405e+000 6.002222e+000 1.000000e+001
         vertex 8.442405e+000 6.002222e+000 6.029261e+000
      endloop
   endfacet
   facet normal -7.237589e-001 -6.900530e-001 0.000000e+000
      outer loop
         vertex 8.442405e+000 6.002222e+000 6.029261e+000
         vertex 8.442405e+000 6.002222e+000 1.000000e+001
         vertex 8.121075e+000 6.323552e+000 1.000000e+001
      endloop
   endfacet
   facet normal -6.900530e-001 -7.237589e-001 0.000000e+000
      outer loop
         vertex 8.442405e+000 6.002222e+000 6.029261e+000
         vertex 8.121075e+000 6.323552e+000 1.000000e+001
         vertex 8.121075e+000 6.323552e+000 6.029261e+000
      endloop
   endfacet
   facet normal -6.181873e-001 -7.860308e-001 0.000000e+000
      outer loop
         vertex 8.121075e+000 6.323552e+000 6.029261e+000
         vertex 8.121075e+000 6.323552e+000 1.000000e+001
         vertex 7.757286e+000 6.595881e+000 1.000000e+001
      endloop
   endfacet
   facet normal -5.800276e-001 -8.145968e-001 0.000000e+000
      outer loop
         vertex 8.121075e+000 6.323552e+000 6.029261e+000
         vertex 7.757286e+000 6.595881e+000 1.000000e+001
         vertex 7.757286e+000 6.595881e+000 6.029261e+000
      endloop
   endfacet
   facet normal -5.000312e-001 -8.660074e-001 0.000000e+000
      outer loop
         vertex 7.757286e+000 6.595881e+000 6.029261e+000
         vertex 7.757286e+000 6.595881e+000 1.000000e+001
         vertex 7.358443e+000 6.813665e+000 1.000000e+001
      endloop
   endfacet
   facet normal -4.581946e-001 -8.888519e-001 0.000000e+000
      outer loop
         vertex 7.757286e+000 6.595881e+000 6.029261e+000
         vertex 7.358443e+000 6.813665e+000 1.000000e+001
         vertex 7.358443e+000 6.813665e+000 6.029261e+000
      endloop
   endfacet
   facet normal -3.716959e-001 -9.283545e-001 0.000000e+000
      outer loop
         vertex 7.358443e+000 6.813665e+000 6.029261e+000
         vertex 7.358443e+000 6.813665e+000 1.000000e+001
         vertex 6.932666e+000 6.972472e+000 1.000000e+001
      endloop
   endfacet
   facet normal -3.270340e-001 -9.450126e-001 0.000000e+000
      outer loop
         vertex 7.358443e+000 6.813665e+000 6.029261e+000
         vertex 6.932666e+000 6.972472e+000 1.000000e+001
         vertex 6.932666e+000 6.972472e+000 6.029261e+000
      endloop
   endfacet
   facet normal -2.357940e-001 -9.718031e-001 0.000000e+000
      outer loop
         vertex 6.932666e+000 6.972472e+000 6.029261e+000
         vertex 6.932666e+000 6.972472e+000 1.000000e+001
         vertex 6.488622e+000 7.069068e+000 1.000000e+001
      endloop
   endfacet
   facet normal -1.892159e-001 -9.819355e-001 0.000000e+000
      outer loop
         vertex 6.932666e+000 6.972472e+000 6.029261e+000
         vertex 6.488622e+000 7.069068e+000 1.000000e+001
         vertex 6.488622e+000 7.069068e+000 6.029261e+000
      endloop
   endfacet
   facet normal -9.509189e-002 -9.954685e-001 0.000000e+000
      outer loop
         vertex 6.488622e+000 7.069068e+000 6.029261e+000
         vertex 6.488622e+000 7.069068e+000 1.000000e+001
         vertex 6.035351e+000 7.101487e+000 1.000000e+001
      endloop
   endfacet
   facet normal -4.754595e-002 -9.988691e-001 0.000000e+000
      outer loop
         vertex 6.488622e+000 7.069068e+000 6.029261e+000
         vertex 6.035351e+000 7.101487e+000 1.000000e+001
         vertex 6.035351e+000 7.101487e+000 6.029261e+000
      endloop
   endfacet
   facet normal 4.754595e-002 -9.988691e-001 0.000000e+000
      outer loop
         vertex 6.035351e+000 7.101487e+000 6.029261e+000
         vertex 6.035351e+000 7.101487e+000 1.000000e+001
         vertex 5.582080e+000 7.069068e+000 1.000000e+001
      endloop
   endfacet
   facet normal 9.509189e-002 -9.954685e-001 0.000000e+000
      outer loop
         vertex 6.035351e+000 7.101487e+000 6.029261e+000
         vertex 5.582080e+000 7.069068e+000 1.000000e+001
         vertex 5.582080e+000 7.069068e+000 6.029261e+000
      endloop
   endfacet
   facet normal 1.892159e-001 -9.819355e-001 0.000000e+000
      outer loop
         vertex 5.582080e+000 7.069068e+000 6.029261e+000
         vertex 5.582080e+000 7.069068e+000 1.000000e+001
         vertex 5.138036e+000 6.972472e+000 1.000000e+001
      endloop
   endfacet
   facet normal 2.357940e-001 -9.718031e-001 0.000000e+000
      outer loop
         vertex 5.582080e+000 7.069068e+000 6.029261e+000
         vertex 5.138036e+000 6.972472e+000 1.000000e+001
         vertex 5.138036e+000 6.972472e+000 6.029261e+000
      endloop
   endfacet
   facet normal 3.270339e-001 -9.450126e-001 0.000000e+000
      outer loop
         vertex 5.138036e+000 6.972472e+000 6.029261e+000
         vertex 5.138036e+000 6.972472e+000 1.000000e+001
         vertex 4.712258e+000 6.813665e+000 1.000000e+001
      endloop
   endfacet
   facet normal 3.716959e-001 -9.283545e-001 0.000000e+000
      outer loop
         vertex 5.138036e+000 6.972472e+000 6.029261e+000
         vertex 4.712258e+000 6.813665e+000 1.000000e+001
         vertex 4.712258e+000 6.813665e+000 6.029261e+000
      endloop
   endfacet
   facet normal 4.581946e-001 -8.888519e-001 0.000000e+000
      outer loop
         vertex 4.712258e+000 6.813665e+000 6.029261e+000
         vertex 4.712258e+000 6.813665e+000 1.000000e+001
         vertex 4.313416e+000 6.595881e+000 1.000000e+001
      endloop
   endfacet
   facet normal 5.000312e-001 -8.660074e-001 0.000000e+000
      outer loop
         vertex 4.712258e+000 6.813665e+000 6.029261e+000
         vertex 4.313416e+000 6.595881e+000 1.000000e+001
         vertex 4.313416e+000 6.595881e+000 6.029261e+000
      endloop
   endfacet
   facet normal 5.800276e-001 -8.145968e-001 0.000000e+000
      outer loop
         vertex 4.313416e+000 6.595881e+000 6.029261e+000
         vertex 4.313416e+000 6.595881e+000 1.000000e+001
         vertex 3.949626e+000 6.323552e+000 1.000000e+001
      endloop
   endfacet
   facet normal 6.181873e-001 -7.860308e-001 0.000000e+000
      outer loop
         vertex 4.313416e+000 6.595881e+000 6.029261e+000
         vertex 3.949626e+000 6.323552e+000 1.000000e+001
         vertex 3.949626e+000 6.323552e+000 6.029261e+000
      endloop
   endfacet
   facet normal 6.900530e-001 -7.237589e-001 0.000000e+000
      outer loop
         vertex 3.949626e+000 6.323552e+000 6.029261e+000
         vertex 3.949626e+000 6.323552e+000 1.000000e+001
         vertex 3.628297e+000 6.002222e+000 1.000000e+001
      endloop
   endfacet
   facet normal 7.237589e-001 -6.900530e-001 0.000000e+000
      outer loop
         vertex 3.949626e+000 6.323552e+000 6.029261e+000
         vertex 3.628297e+000 6.002222e+000 1.000000e+001
         vertex 3.628297e+000 6.002222e+000 6.029261e+000
      endloop
   endfacet
   facet normal 7.860308e-001 -6.181873e-001 0.000000e+000
      outer loop
         vertex 3.628297e+000 6.002222e+000 6.029261e+000
         vertex 3.628297e+000 6.002222e+000 1.000000e+001
         vertex 3.355967e+000 5.638433e+000 1.000000e+001
      endloop
   endfacet
   facet normal 8.145968e-001 -5.800276e-001 0.000000e+000
      outer loop
         vertex 3.628297e+000 6.002222e+000 6.029261e+000
         vertex 3.355967e+000 5.638433e+000 1.000000e+001
         vertex 3.355967e+000 5.638433e+000 6.029261e+000
      endloop
   endfacet
   facet normal 8.660074e-001 -5.000312e-001 0.000000e+000
      outer loop
         vertex 3.355967e+000 5.638433e+000 6.029261e+000
         vertex 3.355967e+000 5.638433e+000 1.000000e+001
         vertex 3.138183e+000 5.239590e+000 1.000000e+001
      endloop
   endfacet
   facet normal 8.888519e-001 -4.581946e-001 0.000000e+000
      outer loop
         vertex 3.355967e+000 5.638433e+000 6.029261e+000
         vertex 3.138183e+000 5.239590e+000 1.000000e+001
         vertex 3.138183e+000 5.239590e+000 6.029261e+000
      endloop
   endfacet
   facet normal 9.283545e-001 -3.716959e-001 0.000000e+000
      outer loop
         vertex 3.138183e+000 5.239590e+000 6.029261e+000
         vertex 3.138183e+000 5.239590e+000 1.000000e+001
         vertex 2.979376e+000 4.813813e+000 1.000000e+001
      endloop
   endfacet
   facet normal 9.450126e-001 -3.270340e-001 0.000000e+000
      outer loop
         vertex 3.138183e+000 5.239590e+000 6.029261e+000
         vertex 2.979376e+000 4.813813e+000 1.000000e+001
         vertex 2.979376e+000 4.813813e+000 6.029261e+000
      endloop
   endfacet
   facet normal 9.718031e-001 -2.357940e-001 0.000000e+000
      outer loop
         vertex 2.979376e+000 4.813813e+000 6.029261e+000
         vertex 2.979376e+000 4.813813e+000 1.000000e+001
         vertex 2.882780e+000 4.369769e+000 1.000000e+001
      endloop
   endfacet
   facet normal 9.819355e-001 -1.892159e-001 0.000000e+000
      outer loop
         vertex 2.979376e+000 4.813813e+000 6.029261e+000
         vertex 2.882780e+000 4.369769e+000 1.000000e+001
         vertex 2.882780e+000 4.369769e+000 6.029261e+000
      endloop
   endfacet
   facet normal 9.954685e-001 -9.509189e-002 0.000000e+000
      outer loop
         vertex 2.882780e+000 4.369769e+000 6.029261e+000
         vertex 2.882780e+000 4.369769e+000 1.000000e+001
         vertex 2.850362e+000 3.916497e+000 1.000000e+001
      endloop
   endfacet
   facet normal 9.988691e-001 -4.754595e-002 0.000000e+000
      outer loop
         vertex 2.882780e+000 4.369769e+000 6.029261e+000
         vertex 2.850362e+000 3.916497e+000 1.000000e+001
         vertex 2.850362e+000 3.916497e+000 6.029261e+000
      endloop
   endfacet
   facet normal 9.988691e-001 4.754595e-002 0.000000e+000
      outer loop
         vertex 2.850362e+000 3.916497e+000 6.029261e+000
         vertex 2.850362e+000 3.916497e+000 1.000000e+001
         vertex 2.882780e+000 3.463226e+000 1.000000e+001
      endloop
   endfacet
   facet normal 9.954685e-001 9.509189e-002 0.000000e+000
      outer loop
         vertex 2.850362e+000 3.916497e+000 6.029261e+000
         vertex 2.882780e+000 3.463226e+000 1.000000e+001
         vertex 2.882780e+000 3.463226e+000 6.029261e+000
      endloop
   endfacet
   facet normal 9.819355e-001 1.892159e-001 0.000000e+000
      outer loop
         vertex 2.882780e+000 3.463226e+000 6.029261e+000
         vertex 2.882780e+000 3.463226e+000 1.000000e+001
         vertex 2.979376e+000 3.019182e+000 1.000000e+001
      endloop
   endfacet
   facet normal 9.718031e-001 2.357940e-001 0.000000e+000
      outer loop
         vertex 2.882780e+000 3.463226e+000 6.029261e+000
         vertex 2.979376e+000 3.019182e+000 1.000000e+001
         vertex 2.979376e+000 3.019182e+000 6.029261e+000
      endloop
   endfacet
   facet normal 9.450126e-001 3.270339e-001 0.000000e+000
      outer loop
         vertex 2.979376e+000 3.019182e+000 6.029261e+000
         vertex 2.979376e+000 3.019182e+000 1.000000e+001
         vertex 3.138183e+000 2.593405e+000 1.000000e+001
      endloop
   endfacet
   facet normal 9.283545e-001 3.716959e-001 0.000000e+000
      outer loop
         vertex 2.979376e+000 3.019182e+000 6.029261e+000
         vertex 3.138183e+000 2.593405e+000 1.000000e+001
         vertex 3.138183e+000 2.593405e+000 6.029261e+000
      endloop
   endfacet
   facet normal 8.888519e-001 4.581946e-001 0.000000e+000
      outer loop
         vertex 3.138183e+000 2.593405e+000 6.029261e+000
         vertex 3.138183e+000 2.593405e+000 1.000000e+001
         vertex 3.355967e+000 2.194562e+000 1.000000e+001
      endloop
   endfacet
   facet normal 8.660074e-001 5.000312e-001 0.000000e+000
      outer loop
         vertex 3.138183e+000 2.593405e+000 6.029261e+000
         vertex 3.355967e+000 2.194562e+000 1.000000e+001
         vertex 3.355967e+000 2.194562e+000 6.029261e+000
      endloop
   endfacet
   facet normal 8.145968e-001 5.800276e-001 0.000000e+000
      outer loop
         vertex 3.355967e+000 2.194562e+000 6.029261e+000
         vertex 3.355967e+000 2.194562e+000 1.000000e+001
         vertex 3.628297e+000 1.830773e+000 1.000000e+001
      endloop
   endfacet
   facet normal 7.860308e-001 6.181873e-001 0.000000e+000
      outer loop
         vertex 3.355967e+000 2.194562e+000 6.029261e+000
         vertex 3.628297e+000 1.830773e+000 1.000000e+001
         vertex 3.628297e+000 1.830773e+000 6.029261e+000
      endloop
   endfacet
   facet normal 7.237589e-001 6.900530e-001 0.000000e+000
      outer loop
         vertex 3.628297e+000 1.830773e+000 6.029261e+000
         vertex 3.628297e+000 1.830773e+000 1.000000e+001
         vertex 3.949626e+000 1.509443e+000 1.000000e+001
      endloop
   endfacet
   facet normal 6.900530e-001 7.237589e-001 0.000000e+000
      outer loop
         vertex 3.628297e+000 1.830773e+000 6.029261e+000
         vertex 3.949626e+000 1.509443e+000 1.000000e+001
         vertex 3.949626e+000 1.509443e+000 6.029261e+000
      endloop
   endfacet
   facet normal 6.181873e-001 7.860308e-001 0.000000e+000
      outer loop
         vertex 3.949626e+000 1.509443e+000 6.029261e+000
         vertex 3.949626e+000 1.509443e+000 1.000000e+001
         vertex 4.313416e+000 1.237114e+000 1.000000e+001
      endloop
   endfacet
   facet normal 5.800276e-001 8.145968e-001 0.000000e+000
      outer loop
         vertex 3.949626e+000 1.509443e+000 6.029261e+000
         vertex 4.313416e+000 1.237114e+000 1.000000e+001
         vertex 4.313416e+000 1.237114e+000 6.029261e+000
      endloop
   endfacet
   facet normal 5.000312e-001 8.660074e-001 0.000000e+000
      outer loop
         vertex 4.313416e+000 1.237114e+000 6.029261e+000
         vertex 4.313416e+000 1.237114e+000 1.000000e+001
         vertex 4.712258e+000 1.019330e+000 1.000000e+001
      endloop
   endfacet
   facet normal 4.581946e-001 8.888519e-001 0.000000e+000
      outer loop
         vertex 4.313416e+000 1.237114e+000 6.029261e+000
         vertex 4.712258e+000 1.019330e+000 1.000000e+001
         vertex 4.712258e+000 1.019330e+000 6.029261e+000
      endloop
   endfacet
   facet normal 3.716959e-001 9.283545e-001 0.000000e+000
      outer loop
         vertex 4.712258e+000 1.019330e+000 6.029261e+000
         vertex 4.712258e+000 1.019330e+000 1.000000e+001
         vertex 5.138036e+000 8.605228e-001 1.000000e+001
      endloop
   endfacet
   facet normal 3.270340e-001 9.450126e-001 0.000000e+000
      outer loop
         vertex 4.712258e+000 1.019330e+000 6.029261e+000
         vertex 5.138036e+000 8.605228e-001 1.000000e+001
         vertex 5.138036e+000 8.605228e-001 6.029261e+000
      endloop
   endfacet
   facet normal 2.357940e-001 9.718031e-001 0.000000e+000
      outer loop
         vertex 5.138036e+000 8.605228e-001 6.029261e+000
         vertex 5.138036e+000 8.605228e-001 1.000000e+001
         vertex 5.582080e+000 7.639269e-001 1.000000e+001
      endloop
   endfacet
   facet normal 1.892159e-001 9.819355e-001 0.000000e+000
      outer loop
         vertex 5.138036e+000 8.605228e-001 6.029261e+000
         vertex 5.582080e+000 7.639269e-001 1.000000e+001
         vertex 5.582080e+000 7.639269e-001 6.029261e+000
      endloop
   endfacet
   facet normal 9.509189e-002 9.954685e-001 0.000000e+000
      outer loop
         vertex 5.582080e+000 7.639269e-001 6.029261e+000
         vertex 5.582080e+000 7.639269e-001 1.000000e+001
         vertex 6.035351e+000 7.315084e-001 1.000000e+001
      endloop
   endfacet
   facet normal 4.754595e-002 9.988691e-001 0.000000e+000
      outer loop
         vertex 5.582080e+000 7.639269e-001 6.029261e+000
         vertex 6.035351e+000 7.315084e-001 1.000000e+001
         vertex 6.035351e+000 7.315084e-001 6.029261e+000
      endloop
   endfacet
   facet normal -4.754595e-002 9.988691e-001 0.000000e+000
      outer loop
         vertex 6.035351e+000 7.315084e-001 6.029261e+000
         vertex 6.035351e+000 7.315084e-001 1.000000e+001
         vertex 6.488622e+000 7.639269e-001 1.000000e+001
      endloop
   endfacet
   facet normal -9.509189e-002 9.954685e-001 0.000000e+000
      outer loop
         vertex 6.035351e+000 7.315084e-001 6.029261e+000
         vertex 6.488622e+000 7.639269e-001 1.000000e+001
         vertex 6.488622e+000 7.639269e-001 6.029261e+000
      endloop
   endfacet
   facet normal -1.892159e-001 9.819355e-001 0.000000e+000
      outer loop
         vertex 6.488622e+000 7.639269e-001 6.029261e+000
         vertex 6.488622e+000 7.639269e-001 1.000000e+001
         vertex 6.932666e+000 8.605228e-001 1.000000e+001
      endloop
   endfacet
   facet normal -2.357940e-001 9.718031e-001 0.000000e+000
      outer loop
         vertex 6.488622e+000 7.639269e-001 6.029261e+000
         vertex 6.932666e+000 8.605228e-001 1.000000e+001
         vertex 6.932666e+000 8.605228e-001 6.029261e+000
      endloop
   endfacet
   facet normal -3.270339e-001 9.450126e-001 0.000000e+000
      outer loop
         vertex 6.932666e+000 8.605228e-001 6.029261e+000
         vertex 6.932666e+000 8.605228e-001 1.000000e+001
         vertex 7.358443e+000 1.019330e+000 1.000000e+001
      endloop
   endfacet
   facet normal -3.716959e-001 9.283545e-001 0.000000e+000
      outer loop
         vertex 6.932666e+000 8.605228e-001 6.029261e+000
         vertex 7.358443e+000 1.019330e+000 1.000000e+001
         vertex 7.358443e+000 1.019330e+000 6.029261e+000
      endloop
   endfacet
   facet normal -4.581946e-001 8.888519e-001 0.000000e+000
      outer loop
         vertex 7.358443e+000 1.019330e+000 6.029261e+000
         vertex 7.358443e+000 1.019330e+000 1.000000e+001
         vertex 7.757286e+000 1.237114e+000 1.000000e+001
      endloop
   endfacet
   facet normal -5.000312e-001 8.660074e-001 0.000000e+000
      outer loop
         vertex 7.358443e+000 1.019330e+000 6.029261e+000
         vertex 7.757286e+000 1.237114e+000 1.000000e+001
         vertex 7.757286e+000 1.237114e+000 6.029261e+000
      endloop
   endfacet
   facet normal -5.800276e-001 8.145968e-001 0.000000e+000
      outer loop
         vertex 7.757286e+000 1.237114e+000 6.029261e+000
         vertex 7.757286e+000 1.237114e+000 1.000000e+001
         vertex 8.121075e+000 1.509443e+000 1.000000e+001
      endloop
   endfacet
   facet normal -6.181873e-001 7.860308e-001 0.000000e+000
      outer loop
         vertex 7.757286e+000 1.237114e+000 6.029261e+000
         vertex 8.121075e+000 1.509443e+000 1.000000e+001
         vertex 8.121075e+000 1.509443e+000 6.029261e+000
      endloop
   endfacet
   facet normal -6.900530e-001 7.237589e-001 0.000000e+000
      outer loop
         vertex 8.121075e+000 1.509443e+000 6.029261e+000
         vertex 8.121075e+000 1.509443e+000 1.000000e+001
         vertex 8.442405e+000 1.830773e+000 1.000000e+001
      endloop
   endfacet
   facet normal -7.237589e-001 6.900530e-001 0.000000e+000
      outer loop
         vertex 8.121075e+000 1.509443e+000 6.029261e+000
         vertex 8.442405e+000 1.830773e+000 1.000000e+001
         vertex 8.442405e+000 1.830773e+000 6.029261e+000
      endloop
   endfacet
   facet normal -7.860308e-001 6.181873e-001 0.000000e+000
      outer loop
         vertex 8.442405e+000 1.830773e+000 6.029261e+000
         vertex 8.442405e+000 1.830773e+000 1.000000e+001
         vertex 8.714735e+000 2.194562e+000 1.000000e+001
      endloop
   endfacet
   facet normal -8.145968e-001 5.800276e-001 0.000000e+000
      outer loop
         vertex 8.442405e+000 1.830773e+000 6.029261e+000
         vertex 8.714735e+000 2.194562e+000 1.000000e+001
         vertex 8.714735e+000 2.194562e+000 6.029261e+000
      endloop
   endfacet
   facet normal -8.660074e-001 5.000312e-001 0.000000e+000
      outer loop
         vertex 8.714735e+000 2.194562e+000 6.029261e+000
         vertex 8.714735e+000 2.194562e+000 1.000000e+001
         vertex 8.932519e+000 2.593405e+000 1.000000e+001
      endloop
   endfacet
   facet normal -8.888519e-001 4.581946e-001 0.000000e+000
      outer loop
         vertex 8.714735e+000 2.194562e+000 6.029261e+000
         vertex 8.932519e+000 2.593405e+000 1.000000e+001
         vertex 8.932519e+000 2.593405e+000 6.029261e+000
      endloop
   endfacet
   facet normal -9.283545e-001 3.716959e-001 0.000000e+000
      outer loop
         vertex 8.932519e+000 2.593405e+000 6.029261e+000
         vertex 8.932519e+000 2.593405e+000 1.000000e+001
         vertex 9.091325e+000 3.019182e+000 1.000000e+001
      endloop
   endfacet
   facet normal -9.450126e-001 3.270340e-001 0.000000e+000
      outer loop
         vertex 8.932519e+000 2.593405e+000 6.029261e+000
         vertex 9.091325e+000 3.019182e+000 1.000000e+001
         vertex 9.091325e+000 3.019182e+000 6.029261e+000
      endloop
   endfacet
   facet normal -9.718031e-001 2.357940e-001 0.000000e+000
      outer loop
         vertex 9.091325e+000 3.019182e+000 6.029261e+000
         vertex 9.091325e+000 3.019182e+000 1.000000e+001
         vertex 9.187921e+000 3.463226e+000 1.000000e+001
      endloop
   endfacet
   facet normal -9.819355e-001 1.892159e-001 0.000000e+000
      outer loop
         vertex 9.091325e+000 3.019182e+000 6.029261e+000
         vertex 9.187921e+000 3.463226e+000 1.000000e+001
         vertex 9.187921e+000 3.463226e+000 6.029261e+000
      endloop
   endfacet
   facet normal -9.954685e-001 9.509189e-002 0.000000e+000
      outer loop
         vertex 9.187921e+000 3.463226e+000 6.029261e+000
         vertex 9.187921e+000 3.463226e+000 1.000000e+001
         vertex 9.220341e+000 3.916497e+000 1.000000e+001
      endloop
   endfacet
   facet normal 0.000000e+000 0.000000e+000 1.000000e+000
      outer loop
         vertex 4.712258e+000 6.813665e+000 6.029261e+000
         vertex 4.313416e+000 6.595881e+000 6.029261e+000
         vertex 7.757286e+000 1.237114e+000 6.029261e+000
      endloop
   endfacet
   facet normal 0.000000e+000 0.000000e+000 1.000000e+000
      outer loop
         vertex 6.488622e+000 7.069068e+000 6.029261e+000
         vertex 6.035351e+000 7.101487e+000 6.029261e+000
         vertex 7.757286e+000 1.237114e+000 6.029261e+000
      endloop
   endfacet
   facet normal 0.000000e+000 0.000000e+000 1.000000e+000
      outer loop
         vertex 3.949626e+000 6.323552e+000 6.029261e+000
         vertex 6.932666e+000 8.605228e-001 6.029261e+000
         vertex 4.313416e+000 6.595881e+000 6.029261e+000
      endloop
   endfacet
   facet normal 0.000000e+000 0.000000e+000 1.000000e+000
      outer loop
         vertex 4.313416e+000 6.595881e+000 6.029261e+000
         vertex 6.932666e+000 8.605228e-001 6.029261e+000
         vertex 7.358443e+000 1.019330e+000 6.029261e+000
      endloop
   endfacet
   facet normal 0.000000e+000 0.000000e+000 1.000000e+000
      outer loop
         vertex 4.313416e+000 6.595881e+000 6.029261e+000
         vertex 7.358443e+000 1.019330e+000 6.029261e+000
         vertex 7.757286e+000 1.237114e+000 6.029261e+000
      endloop
   endfacet
   facet normal 0.000000e+000 0.000000e+000 1.000000e+000
      outer loop
         vertex 8.121075e+000 1.509443e+000 6.029261e+000
         vertex 8.442405e+000 1.830773e+000 6.029261e+000
         vertex 7.358443e+000 6.813665e+000 6.029261e+000
      endloop
   endfacet
   facet normal 0.000000e+000 0.000000e+000 1.000000e+000
      outer loop
         vertex 8.442405e+000 1.830773e+000 6.029261e+000
         vertex 8.714735e+000 2.194562e+000 6.029261e+000
         vertex 7.358443e+000 6.813665e+000 6.029261e+000
      endloop
   endfacet
   facet normal 0.000000e+000 0.000000e+000 1.000000e+000
      outer loop
         vertex 7.358443e+000 6.813665e+000 6.029261e+000
         vertex 8.714735e+000 2.194562e+000 6.029261e+000
         vertex 8.932519e+000 2.593405e+000 6.029261e+000
      endloop
   endfacet
   facet normal 0.000000e+000 0.000000e+000 1.000000e+000
      outer loop
         vertex 7.358443e+000 6.813665e+000 6.029261e+000
         vertex 8.932519e+000 2.593405e+000 6.029261e+000
         vertex 7.757286e+000 6.595881e+000 6.029261e+000
      endloop
   endfacet
   facet normal 0.000000e+000 0.000000e+000 1.000000e+000
      outer loop
         vertex 9.187921e+000 3.463226e+000 6.029261e+000
         vertex 9.220341e+000 3.916497e+000 6.029261e+000
         vertex 8.121075e+000 6.323552e+000 6.029261e+000
      endloop
   endfacet
   facet normal 0.000000e+000 0.000000e+000 1.000000e+000
      outer loop
         vertex 8.121075e+000 1.509443e+000 6.029261e+000
         vertex 7.358443e+000 6.813665e+000 6.029261e+000
         vertex 7.757286e+000 1.237114e+000 6.029261e+000
      endloop
   endfacet
   facet normal 0.000000e+000 0.000000e+000 1.000000e+000
      outer loop
         vertex 7.757286e+000 1.237114e+000 6.029261e+000
         vertex 7.358443e+000 6.813665e+000 6.029261e+000
         vertex 6.932666e+000 6.972472e+000 6.029261e+000
      endloop
   endfacet
   facet normal 0.000000e+000 0.000000e+000 1.000000e+000
      outer loop
         vertex 7.757286e+000 1.237114e+000 6.029261e+000
         vertex 6.932666e+000 6.972472e+000 6.029261e+000
         vertex 6.488622e+000 7.069068e+000 6.029261e+000
      endloop
   endfacet
   facet normal 0.000000e+000 0.000000e+000 1.000000e+000
      outer loop
         vertex 3.949626e+000 6.323552e+000 6.029261e+000
         vertex 3.628297e+000 6.002222e+000 6.029261e+000
         vertex 6.932666e+000 8.605228e-001 6.029261e+000
      endloop
   endfacet
   facet normal 0.000000e+000 0.000000e+000 1.000000e+000
      outer loop
         vertex 6.932666e+000 8.605228e-001 6.029261e+000
         vertex 3.628297e+000 6.002222e+000 6.029261e+000
         vertex 3.355967e+000 5.638433e+000 6.029261e+000
      endloop
   endfacet
   facet normal 0.000000e+000 0.000000e+000 1.000000e+000
      outer loop
         vertex 6.932666e+000 8.605228e-001 6.029261e+000
         vertex 3.355967e+000 5.638433e+000 6.029261e+000
         vertex 3.138183e+000 5.239590e+000 6.029261e+000
      endloop
   endfacet
   facet normal 0.000000e+000 0.000000e+000 1.000000e+000
      outer loop
         vertex 3.138183e+000 5.239590e+000 6.029261e+000
         vertex 2.979376e+000 4.813813e+000 6.029261e+000
         vertex 6.932666e+000 8.605228e-001 6.029261e+000
      endloop
   endfacet
   facet normal 0.000000e+000 0.000000e+000 1.000000e+000
      outer loop
         vertex 6.932666e+000 8.605228e-001 6.029261e+000
         vertex 2.979376e+000 4.813813e+000 6.029261e+000
         vertex 2.882780e+000 4.369769e+000 6.029261e+000
      endloop
   endfacet
   facet normal 0.000000e+000 0.000000e+000 1.000000e+000
      outer loop
         vertex 6.932666e+000 8.605228e-001 6.029261e+000
         vertex 2.882780e+000 4.369769e+000 6.029261e+000
         vertex 2.850362e+000 3.916497e+000 6.029261e+000
      endloop
   endfacet
   facet normal 0.000000e+000 0.000000e+000 1.000000e+000
      outer loop
         vertex 6.035351e+000 7.101487e+000 6.029261e+000
         vertex 5.582080e+000 7.069068e+000 6.029261e+000
         vertex 7.757286e+000 1.237114e+000 6.029261e+000
      endloop
   endfacet
   facet normal 0.000000e+000 0.000000e+000 1.000000e+000
      outer loop
         vertex 7.757286e+000 1.237114e+000 6.029261e+000
         vertex 5.582080e+000 7.069068e+000 6.029261e+000
         vertex 5.138036e+000 6.972472e+000 6.029261e+000
      endloop
   endfacet
   facet normal 0.000000e+000 0.000000e+000 1.000000e+000
      outer loop
         vertex 7.757286e+000 1.237114e+000 6.029261e+000
         vertex 5.138036e+000 6.972472e+000 6.029261e+000
         vertex 4.712258e+000 6.813665e+000 6.029261e+000
      endloop
   endfacet
   facet normal 0.000000e+000 0.000000e+000 1.000000e+000
      outer loop
         vertex 3.628297e+000 1.830773e+000 6.029261e+000
         vertex 3.949626e+000 1.509443e+000 6.029261e+000
         vertex 4.313416e+000 1.237114e+000 6.029261e+000
      endloop
   endfacet
   facet normal 0.000000e+000 0.000000e+000 1.000000e+000
      outer loop
         vertex 2.850362e+000 3.916497e+000 6.029261e+000
         vertex 2.882780e+000 3.463226e+000 6.029261e+000
         vertex 6.932666e+000 8.605228e-001 6.029261e+000
      endloop
   endfacet
   facet normal 0.000000e+000 0.000000e+000 1.000000e+000
      outer loop
         vertex 6.932666e+000 8.605228e-001 6.029261e+000
         vertex 2.882780e+000 3.463226e+000 6.029261e+000
         vertex 2.979376e+000 3.019182e+000 6.029261e+000
      endloop
   endfacet
   facet normal 0.000000e+000 0.000000e+000 1.000000e+000
      outer loop
         vertex 6.932666e+000 8.605228e-001 6.029261e+000
         vertex 2.979376e+000 3.019182e+000 6.029261e+000
         vertex 6.488622e+000 7.639269e-001 6.029261e+000
      endloop
   endfacet
   facet normal 0.000000e+000 0.000000e+000 1.000000e+000
      outer loop
         vertex 6.488622e+000 7.639269e-001 6.029261e+000
         vertex 2.979376e+000 3.019182e+000 6.029261e+000
         vertex 6.035351e+000 7.315084e-001 6.029261e+000
      endloop
   endfacet
   facet normal 0.000000e+000 0.000000e+000 1.000000e+000
      outer loop
         vertex 7.757286e+000 6.595881e+000 6.029261e+000
         vertex 8.932519e+000 2.593405e+000 6.029261e+000
         vertex 8.121075e+000 6.323552e+000 6.029261e+000
      endloop
   endfacet
   facet normal 0.000000e+000 0.000000e+000 1.000000e+000
      outer loop
         vertex 8.121075e+000 6.323552e+000 6.029261e+000
         vertex 8.932519e+000 2.593405e+000 6.029261e+000
         vertex 9.091325e+000 3.019182e+000 6.029261e+000
      endloop
   endfacet
   facet normal 0.000000e+000 0.000000e+000 1.000000e+000
      outer loop
         vertex 8.121075e+000 6.323552e+000 6.029261e+000
         vertex 9.091325e+000 3.019182e+000 6.029261e+000
         vertex 9.187921e+000 3.463226e+000 6.029261e+000
      endloop
   endfacet
   facet normal 0.000000e+000 0.000000e+000 1.000000e+000
      outer loop
         vertex 8.442405e+000 6.002222e+000 6.029261e+000
         vertex 8.121075e+000 6.323552e+000 6.029261e+000
         vertex 8.714735e+000 5.638433e+000 6.029261e+000
      endloop
   endfacet
   facet normal 0.000000e+000 0.000000e+000 1.000000e+000
      outer loop
         vertex 8.714735e+000 5.638433e+000 6.029261e+000
         vertex 8.121075e+000 6.323552e+000 6.029261e+000
         vertex 8.932519e+000 5.239590e+000 6.029261e+000
      endloop
   endfacet
   facet normal 0.000000e+000 0.000000e+000 1.000000e+000
      outer loop
         vertex 3.138183e+000 2.593405e+000 6.029261e+000
         vertex 5.138036e+000 8.605228e-001 6.029261e+000
         vertex 2.979376e+000 3.019182e+000 6.029261e+000
      endloop
   endfacet
   facet normal 0.000000e+000 0.000000e+000 1.000000e+000
      outer loop
         vertex 2.979376e+000 3.019182e+000 6.029261e+000
         vertex 5.138036e+000 8.605228e-001 6.029261e+000
         vertex 5.582080e+000 7.639269e-001 6.029261e+000
      endloop
   endfacet
   facet normal 0.000000e+000 0.000000e+000 1.000000e+000
      outer loop
         vertex 2.979376e+000 3.019182e+000 6.029261e+000
         vertex 5.582080e+000 7.639269e-001 6.029261e+000
         vertex 6.035351e+000 7.315084e-001 6.029261e+000
      endloop
   endfacet
   facet normal 0.000000e+000 0.000000e+000 1.000000e+000
      outer loop
         vertex 3.138183e+000 2.593405e+000 6.029261e+000
         vertex 3.355967e+000 2.194562e+000 6.029261e+000
         vertex 5.138036e+000 8.605228e-001 6.029261e+000
      endloop
   endfacet
   facet normal 0.000000e+000 0.000000e+000 1.000000e+000
      outer loop
         vertex 5.138036e+000 8.605228e-001 6.029261e+000
         vertex 3.355967e+000 2.194562e+000 6.029261e+000
         vertex 3.628297e+000 1.830773e+000 6.029261e+000
      endloop
   endfacet
   facet normal 0.000000e+000 0.000000e+000 1.000000e+000
      outer loop
         vertex 5.138036e+000 8.605228e-001 6.029261e+000
         vertex 3.628297e+000 1.830773e+000 6.029261e+000
         vertex 4.712258e+000 1.019330e+000 6.029261e+000
      endloop
   endfacet
   facet normal 0.000000e+000 0.000000e+000 1.000000e+000
      outer loop
         vertex 4.712258e+000 1.019330e+000 6.029261e+000
         vertex 3.628297e+000 1.830773e+000 6.029261e+000
         vertex 4.313416e+000 1.237114e+000 6.029261e+000
      endloop
   endfacet
   facet normal 0.000000e+000 0.000000e+000 1.000000e+000
      outer loop
         vertex 9.220341e+000 3.916497e+000 6.029261e+000
         vertex 9.187921e+000 4.369769e+000 6.029261e+000
         vertex 8.121075e+000 6.323552e+000 6.029261e+000
      endloop
   endfacet
   facet normal 0.000000e+000 0.000000e+000 1.000000e+000
      outer loop
         vertex 8.121075e+000 6.323552e+000 6.029261e+000
         vertex 9.187921e+000 4.369769e+000 6.029261e+000
         vertex 9.091325e+000 4.813813e+000 6.029261e+000
      endloop
   endfacet
   facet normal 0.000000e+000 0.000000e+000 1.000000e+000
      outer loop
         vertex 8.121075e+000 6.323552e+000 6.029261e+000
         vertex 9.091325e+000 4.813813e+000 6.029261e+000
         vertex 8.932519e+000 5.239590e+000 6.029261e+000
      endloop
   endfacet
endsolid