solid 2_267
   facet normal -1.000000e+000 0.000000e+000 0.000000e+000
      outer loop
         vertex 0.000000e+000 1.000000e+001 1.000000e+001
         vertex 0.000000e+000 1.000000e+001 0.000000e+000
         vertex 0.000000e+000 0.000000e+000 1.000000e+001
      endloop
   endfacet
   facet normal -1.000000e+000 0.000000e+000 0.000000e+000
      outer loop
         vertex 0.000000e+000 0.000000e+000 1.000000e+001
         vertex 0.000000e+000 1.000000e+001 0.000000e+000
         vertex 0.000000e+000 0.000000e+000 0.000000e+000
      endloop
   endfacet
   facet normal 0.000000e+000 0.000000e+000 1.000000e+000
      outer loop
         vertex 8.102640e+000 4.114598e+000 1.000000e+001
         vertex 1.000000e+001 0.000000e+000 1.000000e+001
         vertex 8.303946e+000 4.402093e+000 1.000000e+001
      endloop
   endfacet
   facet normal 0.000000e+000 0.000000e+000 1.000000e+000
      outer loop
         vertex 8.303946e+000 4.402093e+000 1.000000e+001
         vertex 1.000000e+001 0.000000e+000 1.000000e+001
         vertex 8.452273e+000 4.720179e+000 1.000000e+001
      endloop
   endfacet
   facet normal 0.000000e+000 0.000000e+000 1.000000e+000
      outer loop
         vertex 1.000000e+001 1.000000e+001 1.000000e+001
         vertex 8.573699e+000 5.408820e+000 1.000000e+001
         vertex 1.000000e+001 0.000000e+000 1.000000e+001
      endloop
   endfacet
   facet normal 0.000000e+000 0.000000e+000 1.000000e+000
      outer loop
         vertex 1.000000e+001 0.000000e+000 1.000000e+001
         vertex 8.573699e+000 5.408820e+000 1.000000e+001
         vertex 8.543110e+000 5.059188e+000 1.000000e+001
      endloop
   endfacet
   facet normal 0.000000e+000 0.000000e+000 1.000000e+000
      outer loop
         vertex 1.000000e+001 0.000000e+000 1.000000e+001
         vertex 8.543110e+000 5.059188e+000 1.000000e+001
         vertex 8.452273e+000 4.720179e+000 1.000000e+001
      endloop
   endfacet
   facet normal 0.000000e+000 0.000000e+000 1.000000e+000
      outer loop
         vertex 8.102640e+000 4.114598e+000 1.000000e+001
         vertex 7.854468e+000 3.866426e+000 1.000000e+001
         vertex 1.000000e+001 0.000000e+000 1.000000e+001
      endloop
   endfacet
   facet normal 0.000000e+000 0.000000e+000 1.000000e+000
      outer loop
         vertex 1.000000e+001 0.000000e+000 1.000000e+001
         vertex 7.854468e+000 3.866426e+000 1.000000e+001
         vertex 7.566972e+000 3.665119e+000 1.000000e+001
      endloop
   endfacet
   facet normal 0.000000e+000 0.000000e+000 1.000000e+000
      outer loop
         vertex 1.000000e+001 0.000000e+000 1.000000e+001
         vertex 7.566972e+000 3.665119e+000 1.000000e+001
         vertex 7.248887e+000 3.516793e+000 1.000000e+001
      endloop
   endfacet
   facet normal 0.000000e+000 0.000000e+000 1.000000e+000
      outer loop
         vertex 5.871604e+000 3.516793e+000 1.000000e+001
         vertex 5.553519e+000 3.665119e+000 1.000000e+001
         vertex 0.000000e+000 0.000000e+000 1.000000e+001
      endloop
   endfacet
   facet normal 0.000000e+000 0.000000e+000 1.000000e+000
      outer loop
         vertex 7.248887e+000 3.516793e+000 1.000000e+001
         vertex 6.909878e+000 3.425956e+000 1.000000e+001
         vertex 1.000000e+001 0.000000e+000 1.000000e+001
      endloop
   endfacet
   facet normal 0.000000e+000 0.000000e+000 1.000000e+000
      outer loop
         vertex 1.000000e+001 0.000000e+000 1.000000e+001
         vertex 6.909878e+000 3.425956e+000 1.000000e+001
         vertex 6.560246e+000 3.395367e+000 1.000000e+001
      endloop
   endfacet
   facet normal 0.000000e+000 0.000000e+000 1.000000e+000
      outer loop
         vertex 1.000000e+001 0.000000e+000 1.000000e+001
         vertex 6.560246e+000 3.395367e+000 1.000000e+001
         vertex 0.000000e+000 0.000000e+000 1.000000e+001
      endloop
   endfacet
   facet normal 0.000000e+000 0.000000e+000 1.000000e+000
      outer loop
         vertex 0.000000e+000 0.000000e+000 1.000000e+001
         vertex 6.560246e+000 3.395367e+000 1.000000e+001
         vertex 6.210613e+000 3.425956e+000 1.000000e+001
      endloop
   endfacet
   facet normal 0.000000e+000 0.000000e+000 1.000000e+000
      outer loop
         vertex 0.000000e+000 0.000000e+000 1.000000e+001
         vertex 6.210613e+000 3.425956e+000 1.000000e+001
         vertex 5.871604e+000 3.516793e+000 1.000000e+001
      endloop
   endfacet
   facet normal 0.000000e+000 0.000000e+000 1.000000e+000
      outer loop
         vertex 5.553519e+000 3.665119e+000 1.000000e+001
         vertex 5.266023e+000 3.866426e+000 1.000000e+001
         vertex 0.000000e+000 0.000000e+000 1.000000e+001
      endloop
   endfacet
   facet normal 0.000000e+000 0.000000e+000 1.000000e+000
      outer loop
         vertex 0.000000e+000 0.000000e+000 1.000000e+001
         vertex 5.266023e+000 3.866426e+000 1.000000e+001
         vertex 5.017851e+000 4.114598e+000 1.000000e+001
      endloop
   endfacet
   facet normal 0.000000e+000 0.000000e+000 1.000000e+000
      outer loop
         vertex 0.000000e+000 0.000000e+000 1.000000e+001
         vertex 5.017851e+000 4.114598e+000 1.000000e+001
         vertex 4.816544e+000 4.402093e+000 1.000000e+001
      endloop
   endfacet
   facet normal 0.000000e+000 0.000000e+000 1.000000e+000
      outer loop
         vertex 4.577381e+000 5.758453e+000 1.000000e+001
         vertex 4.668219e+000 6.097462e+000 1.000000e+001
         vertex 0.000000e+000 1.000000e+001 1.000000e+001
      endloop
   endfacet
   facet normal 0.000000e+000 0.000000e+000 1.000000e+000
      outer loop
         vertex 0.000000e+000 1.000000e+001 1.000000e+001
         vertex 4.668219e+000 6.097462e+000 1.000000e+001
         vertex 4.816544e+000 6.415547e+000 1.000000e+001
      endloop
   endfacet
   facet normal 0.000000e+000 0.000000e+000 1.000000e+000
      outer loop
         vertex 4.816544e+000 6.415547e+000 1.000000e+001
         vertex 5.017851e+000 6.703043e+000 1.000000e+001
         vertex 0.000000e+000 1.000000e+001 1.000000e+001
      endloop
   endfacet
   facet normal 0.000000e+000 0.000000e+000 1.000000e+000
      outer loop
         vertex 0.000000e+000 1.000000e+001 1.000000e+001
         vertex 5.017851e+000 6.703043e+000 1.000000e+001
         vertex 5.266023e+000 6.951215e+000 1.000000e+001
      endloop
   endfacet
   facet normal 0.000000e+000 0.000000e+000 1.000000e+000
      outer loop
         vertex 0.000000e+000 1.000000e+001 1.000000e+001
         vertex 5.266023e+000 6.951215e+000 1.000000e+001
         vertex 5.553519e+000 7.152522e+000 1.000000e+001
      endloop
   endfacet
   facet normal 0.000000e+000 0.000000e+000 1.000000e+000
      outer loop
         vertex 6.909878e+000 7.391685e+000 1.000000e+001
         vertex 7.248887e+000 7.300847e+000 1.000000e+001
         vertex 1.000000e+001 1.000000e+001 1.000000e+001
      endloop
   endfacet
   facet normal 0.000000e+000 0.000000e+000 1.000000e+000
      outer loop
         vertex 1.000000e+001 1.000000e+001 1.000000e+001
         vertex 7.248887e+000 7.300847e+000 1.000000e+001
         vertex 7.566972e+000 7.152522e+000 1.000000e+001
      endloop
   endfacet
   facet normal 0.000000e+000 0.000000e+000 1.000000e+000
      outer loop
         vertex 5.553519e+000 7.152522e+000 1.000000e+001
         vertex 5.871604e+000 7.300847e+000 1.000000e+001
         vertex 0.000000e+000 1.000000e+001 1.000000e+001
      endloop
   endfacet
   facet normal 0.000000e+000 0.000000e+000 1.000000e+000
      outer loop
         vertex 0.000000e+000 1.000000e+001 1.000000e+001
         vertex 5.871604e+000 7.300847e+000 1.000000e+001
         vertex 6.210613e+000 7.391685e+000 1.000000e+001
      endloop
   endfacet
   facet normal 0.000000e+000 0.000000e+000 1.000000e+000
      outer loop
         vertex 0.000000e+000 1.000000e+001 1.000000e+001
         vertex 6.210613e+000 7.391685e+000 1.000000e+001
         vertex 1.000000e+001 1.000000e+001 1.000000e+001
      endloop
   endfacet
   facet normal 0.000000e+000 0.000000e+000 1.000000e+000
      outer loop
         vertex 1.000000e+001 1.000000e+001 1.000000e+001
         vertex 6.210613e+000 7.391685e+000 1.000000e+001
         vertex 6.560246e+000 7.422274e+000 1.000000e+001
      endloop
   endfacet
   facet normal 0.000000e+000 0.000000e+000 1.000000e+000
      outer loop
         vertex 1.000000e+001 1.000000e+001 1.000000e+001
         vertex 6.560246e+000 7.422274e+000 1.000000e+001
         vertex 6.909878e+000 7.391685e+000 1.000000e+001
      endloop
   endfacet
   facet normal 0.000000e+000 0.000000e+000 1.000000e+000
      outer loop
         vertex 8.303946e+000 6.415547e+000 1.000000e+001
         vertex 8.452273e+000 6.097462e+000 1.000000e+001
         vertex 1.000000e+001 1.000000e+001 1.000000e+001
      endloop
   endfacet
   facet normal 0.000000e+000 0.000000e+000 1.000000e+000
      outer loop
         vertex 1.000000e+001 1.000000e+001 1.000000e+001
         vertex 8.452273e+000 6.097462e+000 1.000000e+001
         vertex 8.543110e+000 5.758453e+000 1.000000e+001
      endloop
   endfacet
   facet normal 0.000000e+000 0.000000e+000 1.000000e+000
      outer loop
         vertex 1.000000e+001 1.000000e+001 1.000000e+001
         vertex 8.543110e+000 5.758453e+000 1.000000e+001
         vertex 8.573699e+000 5.408820e+000 1.000000e+001
      endloop
   endfacet
   facet normal 0.000000e+000 0.000000e+000 1.000000e+000
      outer loop
         vertex 4.816544e+000 4.402093e+000 1.000000e+001
         vertex 4.668219e+000 4.720179e+000 1.000000e+001
         vertex 0.000000e+000 0.000000e+000 1.000000e+001
      endloop
   endfacet
   facet normal 0.000000e+000 0.000000e+000 1.000000e+000
      outer loop
         vertex 0.000000e+000 0.000000e+000 1.000000e+001
         vertex 4.668219e+000 4.720179e+000 1.000000e+001
         vertex 4.577381e+000 5.059188e+000 1.000000e+001
      endloop
   endfacet
   facet normal 0.000000e+000 0.000000e+000 1.000000e+000
      outer loop
         vertex 0.000000e+000 0.000000e+000 1.000000e+001
         vertex 4.577381e+000 5.059188e+000 1.000000e+001
         vertex 0.000000e+000 1.000000e+001 1.000000e+001
      endloop
   endfacet
   facet normal 0.000000e+000 0.000000e+000 1.000000e+000
      outer loop
         vertex 0.000000e+000 1.000000e+001 1.000000e+001
         vertex 4.577381e+000 5.059188e+000 1.000000e+001
         vertex 4.546792e+000 5.408820e+000 1.000000e+001
      endloop
   endfacet
   facet normal 0.000000e+000 0.000000e+000 1.000000e+000
      outer loop
         vertex 0.000000e+000 1.000000e+001 1.000000e+001
         vertex 4.546792e+000 5.408820e+000 1.000000e+001
         vertex 4.577381e+000 5.758453e+000 1.000000e+001
      endloop
   endfacet
   facet normal 0.000000e+000 0.000000e+000 1.000000e+000
      outer loop
         vertex 7.566972e+000 7.152522e+000 1.000000e+001
         vertex 7.854468e+000 6.951215e+000 1.000000e+001
         vertex 1.000000e+001 1.000000e+001 1.000000e+001
      endloop
   endfacet
   facet normal 0.000000e+000 0.000000e+000 1.000000e+000
      outer loop
         vertex 1.000000e+001 1.000000e+001 1.000000e+001
         vertex 7.854468e+000 6.951215e+000 1.000000e+001
         vertex 8.102640e+000 6.703043e+000 1.000000e+001
      endloop
   endfacet
   facet normal 0.000000e+000 0.000000e+000 1.000000e+000
      outer loop
         vertex 1.000000e+001 1.000000e+001 1.000000e+001
         vertex 8.102640e+000 6.703043e+000 1.000000e+001
         vertex 8.303946e+000 6.415547e+000 1.000000e+001
      endloop
   endfacet
   facet normal 1.000000e+000 0.000000e+000 0.000000e+000
      outer loop
         vertex 1.000000e+001 1.000000e+001 0.000000e+000
         vertex 1.000000e+001 1.000000e+001 1.000000e+001
         vertex 1.000000e+001 0.000000e+000 0.000000e+000
      endloop
   endfacet
   facet normal 1.000000e+000 0.000000e+000 0.000000e+000
      outer loop
         vertex 1.000000e+001 0.000000e+000 0.000000e+000
         vertex 1.000000e+001 1.000000e+001 1.000000e+001
         vertex 1.000000e+001 0.000000e+000 1.000000e+001
      endloop
   endfacet
   facet normal 0.000000e+000 0.000000e+000 -1.000000e+000
      outer loop
         vertex 0.000000e+000 1.000000e+001 0.000000e+000
         vertex 1.000000e+001 1.000000e+001 0.000000e+000
         vertex 0.000000e+000 0.000000e+000 0.000000e+000
      endloop
   endfacet
   facet normal 0.000000e+000 0.000000e+000 -1.000000e+000
      outer loop
         vertex 0.000000e+000 0.000000e+000 0.000000e+000
         vertex 1.000000e+001 1.000000e+001 0.000000e+000
         vertex 1.000000e+001 0.000000e+000 0.000000e+000
      endloop
   endfacet
   facet normal 0.000000e+000 1.000000e+000 0.000000e+000
      outer loop
         vertex 1.000000e+001 1.000000e+001 1.000000e+001
         vertex 1.000000e+001 1.000000e+001 0.000000e+000
         vertex 0.000000e+000 1.000000e+001 1.000000e+001
      endloop
   endfacet
   facet normal 0.000000e+000 1.000000e+000 0.000000e+000
      outer loop
         vertex 0.000000e+000 1.000000e+001 1.000000e+001
         vertex 1.000000e+001 1.000000e+001 0.000000e+000
         vertex 0.000000e+000 1.000000e+001 0.000000e+000
      endloop
   endfacet
   facet normal 0.000000e+000 -1.000000e+000 0.000000e+000
      outer loop
         vertex 1.000000e+001 0.000000e+000 0.000000e+000
         vertex 1.000000e+001 0.000000e+000 1.000000e+001
         vertex 0.000000e+000 0.000000e+000 0.000000e+000
      endloop
   endfacet
   facet normal 0.000000e+000 -1.000000e+000 0.000000e+000
      outer loop
         vertex 0.000000e+000 0.000000e+000 0.000000e+000
         vertex 1.000000e+001 0.000000e+000 1.000000e+001
         vertex 0.000000e+000 0.000000e+000 1.000000e+001
      endloop
   endfacet
   facet normal -9.983119e-001 5.807913e-002 0.000000e+000
      outer loop
         vertex 8.543110e+000 5.059188e+000 3.995078e+000
         vertex 8.573699e+000 5.408820e+000 1.000000e+001
         vertex 8.573699e+000 5.408820e+000 3.995078e+000
      endloop
   endfacet
   facet normal -9.983119e-001 -5.807913e-002 0.000000e+000
      outer loop
         vertex 8.573699e+000 5.408820e+000 3.995078e+000
         vertex 8.573699e+000 5.408820e+000 1.000000e+001
         vertex 8.543110e+000 5.758453e+000 1.000000e+001
      endloop
   endfacet
   facet normal -9.932307e-001 -1.161583e-001 0.000000e+000
      outer loop
         vertex 8.573699e+000 5.408820e+000 3.995078e+000
         vertex 8.543110e+000 5.758453e+000 1.000000e+001
         vertex 8.543110e+000 5.758453e+000 3.995078e+000
      endloop
   endfacet
   facet normal -9.730600e-001 -2.305519e-001 0.000000e+000
      outer loop
         vertex 8.543110e+000 5.758453e+000 3.995078e+000
         vertex 8.543110e+000 5.758453e+000 1.000000e+001
         vertex 8.452273e+000 6.097462e+000 1.000000e+001
      endloop
   endfacet
   facet normal -9.579706e-001 -2.868663e-001 0.000000e+000
      outer loop
         vertex 8.543110e+000 5.758453e+000 3.995078e+000
         vertex 8.452273e+000 6.097462e+000 1.000000e+001
         vertex 8.452273e+000 6.097462e+000 3.995078e+000
      endloop
   endfacet
   facet normal -9.182422e-001 -3.960194e-001 0.000000e+000
      outer loop
         vertex 8.452273e+000 6.097462e+000 3.995078e+000
         vertex 8.452273e+000 6.097462e+000 1.000000e+001
         vertex 8.303946e+000 6.415547e+000 1.000000e+001
      endloop
   endfacet
   facet normal -8.936031e-001 -4.488580e-001 0.000000e+000
      outer loop
         vertex 8.452273e+000 6.097462e+000 3.995078e+000
         vertex 8.303946e+000 6.415547e+000 1.000000e+001
         vertex 8.303946e+000 6.415547e+000 3.995078e+000
      endloop
   endfacet
   facet normal -8.355240e-001 -5.494540e-001 0.000000e+000
      outer loop
         vertex 8.303946e+000 6.415547e+000 3.995078e+000
         vertex 8.303946e+000 6.415547e+000 1.000000e+001
         vertex 8.102640e+000 6.703043e+000 1.000000e+001
      endloop
   endfacet
   facet normal -8.020838e-001 -5.972114e-001 0.000000e+000
      outer loop
         vertex 8.303946e+000 6.415547e+000 3.995078e+000
         vertex 8.102640e+000 6.703043e+000 1.000000e+001
         vertex 8.102640e+000 6.703043e+000 3.995078e+000
      endloop
   endfacet
   facet normal -7.274188e-001 -6.861938e-001 0.000000e+000
      outer loop
         vertex 8.102640e+000 6.703043e+000 3.995078e+000
         vertex 8.102640e+000 6.703043e+000 1.000000e+001
         vertex 7.854468e+000 6.951215e+000 1.000000e+001
      endloop
   endfacet
   facet normal -6.861938e-001 -7.274188e-001 0.000000e+000
      outer loop
         vertex 8.102640e+000 6.703043e+000 3.995078e+000
         vertex 7.854468e+000 6.951215e+000 1.000000e+001
         vertex 7.854468e+000 6.951215e+000 3.995078e+000
      endloop
   endfacet
   facet normal -5.972114e-001 -8.020838e-001 0.000000e+000
      outer loop
         vertex 7.854468e+000 6.951215e+000 3.995078e+000
         vertex 7.854468e+000 6.951215e+000 1.000000e+001
         vertex 7.566972e+000 7.152522e+000 1.000000e+001
      endloop
   endfacet
   facet normal -5.494540e-001 -8.355240e-001 0.000000e+000
      outer loop
         vertex 7.854468e+000 6.951215e+000 3.995078e+000
         vertex 7.566972e+000 7.152522e+000 1.000000e+001
         vertex 7.566972e+000 7.152522e+000 3.995078e+000
      endloop
   endfacet
   facet normal -4.488580e-001 -8.936031e-001 0.000000e+000
      outer loop
         vertex 7.566972e+000 7.152522e+000 3.995078e+000
         vertex 7.566972e+000 7.152522e+000 1.000000e+001
         vertex 7.248887e+000 7.300847e+000 1.000000e+001
      endloop
   endfacet
   facet normal -3.960194e-001 -9.182422e-001 0.000000e+000
      outer loop
         vertex 7.566972e+000 7.152522e+000 3.995078e+000
         vertex 7.248887e+000 7.300847e+000 1.000000e+001
         vertex 7.248887e+000 7.300847e+000 3.995078e+000
      endloop
   endfacet
   facet normal -2.868663e-001 -9.579706e-001 0.000000e+000
      outer loop
         vertex 7.248887e+000 7.300847e+000 3.995078e+000
         vertex 7.248887e+000 7.300847e+000 1.000000e+001
         vertex 6.909878e+000 7.391685e+000 1.000000e+001
      endloop
   endfacet
   facet normal -2.305519e-001 -9.730600e-001 0.000000e+000
      outer loop
         vertex 7.248887e+000 7.300847e+000 3.995078e+000
         vertex 6.909878e+000 7.391685e+000 1.000000e+001
         vertex 6.909878e+000 7.391685e+000 3.995078e+000
      endloop
   endfacet
   facet normal -1.161583e-001 -9.932307e-001 0.000000e+000
      outer loop
         vertex 6.909878e+000 7.391685e+000 3.995078e+000
         vertex 6.909878e+000 7.391685e+000 1.000000e+001
         vertex 6.560246e+000 7.422274e+000 1.000000e+001
      endloop
   endfacet
   facet normal -5.807913e-002 -9.983119e-001 0.000000e+000
      outer loop
         vertex 6.909878e+000 7.391685e+000 3.995078e+000
         vertex 6.560246e+000 7.422274e+000 1.000000e+001
         vertex 6.560246e+000 7.422274e+000 3.995078e+000
      endloop
   endfacet
   facet normal 5.807913e-002 -9.983119e-001 0.000000e+000
      outer loop
         vertex 6.560246e+000 7.422274e+000 3.995078e+000
         vertex 6.560246e+000 7.422274e+000 1.000000e+001
         vertex 6.210613e+000 7.391685e+000 1.000000e+001
      endloop
   endfacet
   facet normal 1.161583e-001 -9.932307e-001 0.000000e+000
      outer loop
         vertex 6.560246e+000 7.422274e+000 3.995078e+000
         vertex 6.210613e+000 7.391685e+000 1.000000e+001
         vertex 6.210613e+000 7.391685e+000 3.995078e+000
      endloop
   endfacet
   facet normal 2.305519e-001 -9.730600e-001 0.000000e+000
      outer loop
         vertex 6.210613e+000 7.391685e+000 3.995078e+000
         vertex 6.210613e+000 7.391685e+000 1.000000e+001
         vertex 5.871604e+000 7.300847e+000 1.000000e+001
      endloop
   endfacet
   facet normal 2.868663e-001 -9.579706e-001 0.000000e+000
      outer loop
         vertex 6.210613e+000 7.391685e+000 3.995078e+000
         vertex 5.871604e+000 7.300847e+000 1.000000e+001
         vertex 5.871604e+000 7.300847e+000 3.995078e+000
      endloop
   endfacet
   facet normal 3.960194e-001 -9.182422e-001 0.000000e+000
      outer loop
         vertex 5.871604e+000 7.300847e+000 3.995078e+000
         vertex 5.871604e+000 7.300847e+000 1.000000e+001
         vertex 5.553519e+000 7.152522e+000 1.000000e+001
      endloop
   endfacet
   facet normal 4.488580e-001 -8.936031e-001 0.000000e+000
      outer loop
         vertex 5.871604e+000 7.300847e+000 3.995078e+000
         vertex 5.553519e+000 7.152522e+000 1.000000e+001
         vertex 5.553519e+000 7.152522e+000 3.995078e+000
      endloop
   endfacet
   facet normal 5.494540e-001 -8.355240e-001 0.000000e+000
      outer loop
         vertex 5.553519e+000 7.152522e+000 3.995078e+000
         vertex 5.553519e+000 7.152522e+000 1.000000e+001
         vertex 5.266023e+000 6.951215e+000 1.000000e+001
      endloop
   endfacet
   facet normal 5.972114e-001 -8.020838e-001 0.000000e+000
      outer loop
         vertex 5.553519e+000 7.152522e+000 3.995078e+000
         vertex 5.266023e+000 6.951215e+000 1.000000e+001
         vertex 5.266023e+000 6.951215e+000 3.995078e+000
      endloop
   endfacet
   facet normal 6.861938e-001 -7.274188e-001 0.000000e+000
      outer loop
         vertex 5.266023e+000 6.951215e+000 3.995078e+000
         vertex 5.266023e+000 6.951215e+000 1.000000e+001
         vertex 5.017851e+000 6.703043e+000 1.000000e+001
      endloop
   endfacet
   facet normal 7.274188e-001 -6.861938e-001 0.000000e+000
      outer loop
         vertex 5.266023e+000 6.951215e+000 3.995078e+000
         vertex 5.017851e+000 6.703043e+000 1.000000e+001
         vertex 5.017851e+000 6.703043e+000 3.995078e+000
      endloop
   endfacet
   facet normal 8.020838e-001 -5.972114e-001 0.000000e+000
      outer loop
         vertex 5.017851e+000 6.703043e+000 3.995078e+000
         vertex 5.017851e+000 6.703043e+000 1.000000e+001
         vertex 4.816544e+000 6.415547e+000 1.000000e+001
      endloop
   endfacet
   facet normal 8.355240e-001 -5.494540e-001 0.000000e+000
      outer loop
         vertex 5.017851e+000 6.703043e+000 3.995078e+000
         vertex 4.816544e+000 6.415547e+000 1.000000e+001
         vertex 4.816544e+000 6.415547e+000 3.995078e+000
      endloop
   endfacet
   facet normal 8.936031e-001 -4.488580e-001 0.000000e+000
      outer loop
         vertex 4.816544e+000 6.415547e+000 3.995078e+000
         vertex 4.816544e+000 6.415547e+000 1.000000e+001
         vertex 4.668219e+000 6.097462e+000 1.000000e+001
      endloop
   endfacet
   facet normal 9.182422e-001 -3.960194e-001 0.000000e+000
      outer loop
         vertex 4.816544e+000 6.415547e+000 3.995078e+000
         vertex 4.668219e+000 6.097462e+000 1.000000e+001
         vertex 4.668219e+000 6.097462e+000 3.995078e+000
      endloop
   endfacet
   facet normal 9.579706e-001 -2.868663e-001 0.000000e+000
      outer loop
         vertex 4.668219e+000 6.097462e+000 3.995078e+000
         vertex 4.668219e+000 6.097462e+000 1.000000e+001
         vertex 4.577381e+000 5.758453e+000 1.000000e+001
      endloop
   endfacet
   facet normal 9.730600e-001 -2.305519e-001 0.000000e+000
      outer loop
         vertex 4.668219e+000 6.097462e+000 3.995078e+000
         vertex 4.577381e+000 5.758453e+000 1.000000e+001
         vertex 4.577381e+000 5.758453e+000 3.995078e+000
      endloop
   endfacet
   facet normal 9.932307e-001 -1.161583e-001 0.000000e+000
      outer loop
         vertex 4.577381e+000 5.758453e+000 3.995078e+000
         vertex 4.577381e+000 5.758453e+000 1.000000e+001
         vertex 4.546792e+000 5.408820e+000 1.000000e+001
      endloop
   endfacet
   facet normal 9.983119e-001 -5.807913e-002 0.000000e+000
      outer loop
         vertex 4.577381e+000 5.758453e+000 3.995078e+000
         vertex 4.546792e+000 5.408820e+000 1.000000e+001
         vertex 4.546792e+000 5.408820e+000 3.995078e+000
      endloop
   endfacet
   facet normal 9.983119e-001 5.807913e-002 0.000000e+000
      outer loop
         vertex 4.546792e+000 5.408820e+000 3.995078e+000
         vertex 4.546792e+000 5.408820e+000 1.000000e+001
         vertex 4.577381e+000 5.059188e+000 1.000000e+001
      endloop
   endfacet
   facet normal 9.932307e-001 1.161583e-001 0.000000e+000
      outer loop
         vertex 4.546792e+000 5.408820e+000 3.995078e+000
         vertex 4.577381e+000 5.059188e+000 1.000000e+001
         vertex 4.577381e+000 5.059188e+000 3.995078e+000
      endloop
   endfacet
   facet normal 9.730600e-001 2.305519e-001 0.000000e+000
      outer loop
         vertex 4.577381e+000 5.059188e+000 3.995078e+000
         vertex 4.577381e+000 5.059188e+000 1.000000e+001
         vertex 4.668219e+000 4.720179e+000 1.000000e+001
      endloop
   endfacet
   facet normal 9.579706e-001 2.868663e-001 0.000000e+000
      outer loop
         vertex 4.577381e+000 5.059188e+000 3.995078e+000
         vertex 4.668219e+000 4.720179e+000 1.000000e+001
         vertex 4.668219e+000 4.720179e+000 3.995078e+000
      endloop
   endfacet
   facet normal 9.182422e-001 3.960194e-001 0.000000e+000
      outer loop
         vertex 4.668219e+000 4.720179e+000 3.995078e+000
         vertex 4.668219e+000 4.720179e+000 1.000000e+001
         vertex 4.816544e+000 4.402093e+000 1.000000e+001
      endloop
   endfacet
   facet normal 8.936031e-001 4.488580e-001 0.000000e+000
      outer loop
         vertex 4.668219e+000 4.720179e+000 3.995078e+000
         vertex 4.816544e+000 4.402093e+000 1.000000e+001
         vertex 4.816544e+000 4.402093e+000 3.995078e+000
      endloop
   endfacet
   facet normal 8.355240e-001 5.494540e-001 0.000000e+000
      outer loop
         vertex 4.816544e+000 4.402093e+000 3.995078e+000
         vertex 4.816544e+000 4.402093e+000 1.000000e+001
         vertex 5.017851e+000 4.114598e+000 1.000000e+001
      endloop
   endfacet
   facet normal 8.020838e-001 5.972114e-001 0.000000e+000
      outer loop
         vertex 4.816544e+000 4.402093e+000 3.995078e+000
         vertex 5.017851e+000 4.114598e+000 1.000000e+001
         vertex 5.017851e+000 4.114598e+000 3.995078e+000
      endloop
   endfacet
   facet normal 7.274188e-001 6.861938e-001 0.000000e+000
      outer loop
         vertex 5.017851e+000 4.114598e+000 3.995078e+000
         vertex 5.017851e+000 4.114598e+000 1.000000e+001
         vertex 5.266023e+000 3.866426e+000 1.000000e+001
      endloop
   endfacet
   facet normal 6.861938e-001 7.274188e-001 0.000000e+000
      outer loop
         vertex 5.017851e+000 4.114598e+000 3.995078e+000
         vertex 5.266023e+000 3.866426e+000 1.000000e+001
         vertex 5.266023e+000 3.866426e+000 3.995078e+000
      endloop
   endfacet
   facet normal 5.972114e-001 8.020838e-001 0.000000e+000
      outer loop
         vertex 5.266023e+000 3.866426e+000 3.995078e+000
         vertex 5.266023e+000 3.866426e+000 1.000000e+001
         vertex 5.553519e+000 3.665119e+000 1.000000e+001
      endloop
   endfacet
   facet normal 5.494540e-001 8.355240e-001 0.000000e+000
      outer loop
         vertex 5.266023e+000 3.866426e+000 3.995078e+000
         vertex 5.553519e+000 3.665119e+000 1.000000e+001
         vertex 5.553519e+000 3.665119e+000 3.995078e+000
      endloop
   endfacet
   facet normal 4.488580e-001 8.936031e-001 0.000000e+000
      outer loop
         vertex 5.553519e+000 3.665119e+000 3.995078e+000
         vertex 5.553519e+000 3.665119e+000 1.000000e+001
         vertex 5.871604e+000 3.516793e+000 1.000000e+001
      endloop
   endfacet
   facet normal 3.960194e-001 9.182422e-001 0.000000e+000
      outer loop
         vertex 5.553519e+000 3.665119e+000 3.995078e+000
         vertex 5.871604e+000 3.516793e+000 1.000000e+001
         vertex 5.871604e+000 3.516793e+000 3.995078e+000
      endloop
   endfacet
   facet normal 2.868663e-001 9.579706e-001 0.000000e+000
      outer loop
         vertex 5.871604e+000 3.516793e+000 3.995078e+000
         vertex 5.871604e+000 3.516793e+000 1.000000e+001
         vertex 6.210613e+000 3.425956e+000 1.000000e+001
      endloop
   endfacet
   facet normal 2.305519e-001 9.730600e-001 0.000000e+000
      outer loop
         vertex 5.871604e+000 3.516793e+000 3.995078e+000
         vertex 6.210613e+000 3.425956e+000 1.000000e+001
         vertex 6.210613e+000 3.425956e+000 3.995078e+000
      endloop
   endfacet
   facet normal 1.161583e-001 9.932307e-001 0.000000e+000
      outer loop
         vertex 6.210613e+000 3.425956e+000 3.995078e+000
         vertex 6.210613e+000 3.425956e+000 1.000000e+001
         vertex 6.560246e+000 3.395367e+000 1.000000e+001
      endloop
   endfacet
   facet normal 5.807913e-002 9.983119e-001 0.000000e+000
      outer loop
         vertex 6.210613e+000 3.425956e+000 3.995078e+000
         vertex 6.560246e+000 3.395367e+000 1.000000e+001
         vertex 6.560246e+000 3.395367e+000 3.995078e+000
      endloop
   endfacet
   facet normal -5.807913e-002 9.983119e-001 0.000000e+000
      outer loop
         vertex 6.560246e+000 3.395367e+000 3.995078e+000
         vertex 6.560246e+000 3.395367e+000 1.000000e+001
         vertex 6.909878e+000 3.425956e+000 1.000000e+001
      endloop
   endfacet
   facet normal -1.161583e-001 9.932307e-001 0.000000e+000
      outer loop
         vertex 6.560246e+000 3.395367e+000 3.995078e+000
         vertex 6.909878e+000 3.425956e+000 1.000000e+001
         vertex 6.909878e+000 3.425956e+000 3.995078e+000
      endloop
   endfacet
   facet normal -2.305519e-001 9.730600e-001 0.000000e+000
      outer loop
         vertex 6.909878e+000 3.425956e+000 3.995078e+000
         vertex 6.909878e+000 3.425956e+000 1.000000e+001
         vertex 7.248887e+000 3.516793e+000 1.000000e+001
      endloop
   endfacet
   facet normal -2.868663e-001 9.579706e-001 0.000000e+000
      outer loop
         vertex 6.909878e+000 3.425956e+000 3.995078e+000
         vertex 7.248887e+000 3.516793e+000 1.000000e+001
         vertex 7.248887e+000 3.516793e+000 3.995078e+000
      endloop
   endfacet
   facet normal -3.960194e-001 9.182422e-001 0.000000e+000
      outer loop
         vertex 7.248887e+000 3.516793e+000 3.995078e+000
         vertex 7.248887e+000 3.516793e+000 1.000000e+001
         vertex 7.566972e+000 3.665119e+000 1.000000e+001
      endloop
   endfacet
   facet normal -4.488580e-001 8.936031e-001 0.000000e+000
      outer loop
         vertex 7.248887e+000 3.516793e+000 3.995078e+000
         vertex 7.566972e+000 3.665119e+000 1.000000e+001
         vertex 7.566972e+000 3.665119e+000 3.995078e+000
      endloop
   endfacet
   facet normal -5.494540e-001 8.355240e-001 0.000000e+000
      outer loop
         vertex 7.566972e+000 3.665119e+000 3.995078e+000
         vertex 7.566972e+000 3.665119e+000 1.000000e+001
         vertex 7.854468e+000 3.866426e+000 1.000000e+001
      endloop
   endfacet
   facet normal -5.972114e-001 8.020838e-001 0.000000e+000
      outer loop
         vertex 7.566972e+000 3.665119e+000 3.995078e+000
         vertex 7.854468e+000 3.866426e+000 1.000000e+001
         vertex 7.854468e+000 3.866426e+000 3.995078e+000
      endloop
   endfacet
   facet normal -6.861938e-001 7.274188e-001 0.000000e+000
      outer loop
         vertex 7.854468e+000 3.866426e+000 3.995078e+000
         vertex 7.854468e+000 3.866426e+000 1.000000e+001
         vertex 8.102640e+000 4.114598e+000 1.000000e+001
      endloop
   endfacet
   facet normal -7.274188e-001 6.861938e-001 0.000000e+000
      outer loop
         vertex 7.854468e+000 3.866426e+000 3.995078e+000
         vertex 8.102640e+000 4.114598e+000 1.000000e+001
         vertex 8.102640e+000 4.114598e+000 3.995078e+000
      endloop
   endfacet
   facet normal -8.020838e-001 5.972114e-001 0.000000e+000
      outer loop
         vertex 8.102640e+000 4.114598e+000 3.995078e+000
         vertex 8.102640e+000 4.114598e+000 1.000000e+001
         vertex 8.303946e+000 4.402093e+000 1.000000e+001
      endloop
   endfacet
   facet normal -8.355240e-001 5.494540e-001 0.000000e+000
      outer loop
         vertex 8.102640e+000 4.114598e+000 3.995078e+000
         vertex 8.303946e+000 4.402093e+000 1.000000e+001
         vertex 8.303946e+000 4.402093e+000 3.995078e+000
      endloop
   endfacet
   facet normal -8.936031e-001 4.488580e-001 0.000000e+000
      outer loop
         vertex 8.303946e+000 4.402093e+000 3.995078e+000
         vertex 8.303946e+000 4.402093e+000 1.000000e+001
         vertex 8.452273e+000 4.720179e+000 1.000000e+001
      endloop
   endfacet
   facet normal -9.182422e-001 3.960194e-001 0.000000e+000
      outer loop
         vertex 8.303946e+000 4.402093e+000 3.995078e+000
         vertex 8.452273e+000 4.720179e+000 1.000000e+001
         vertex 8.452273e+000 4.720179e+000 3.995078e+000
      endloop
   endfacet
   facet normal -9.579706e-001 2.868663e-001 0.000000e+000
      outer loop
         vertex 8.452273e+000 4.720179e+000 3.995078e+000
         vertex 8.452273e+000 4.720179e+000 1.000000e+001
         vertex 8.543110e+000 5.059188e+000 1.000000e+001
      endloop
   endfacet
   facet normal -9.730600e-001 2.305519e-001 0.000000e+000
      outer loop
         vertex 8.452273e+000 4.720179e+000 3.995078e+000
         vertex 8.543110e+000 5.059188e+000 1.000000e+001
         vertex 8.543110e+000 5.059188e+000 3.995078e+000
      endloop
   endfacet
   facet normal -9.932307e-001 1.161583e-001 0.000000e+000
      outer loop
         vertex 8.543110e+000 5.059188e+000 3.995078e+000
         vertex 8.543110e+000 5.059188e+000 1.000000e+001
         vertex 8.573699e+000 5.408820e+000 1.000000e+001
      endloop
   endfacet
   facet normal 0.000000e+000 0.000000e+000 1.000000e+000
      outer loop
         vertex 8.543110e+000 5.059188e+000 3.995078e+000
         vertex 8.573699e+000 5.408820e+000 3.995078e+000
         vertex 4.816544e+000 6.415547e+000 3.995078e+000
      endloop
   endfacet
   facet normal 0.000000e+000 0.000000e+000 1.000000e+000
      outer loop
         vertex 7.248887e+000 3.516793e+000 3.995078e+000
         vertex 7.566972e+000 3.665119e+000 3.995078e+000
         vertex 5.017851e+000 4.114598e+000 3.995078e+000
      endloop
   endfacet
   facet normal 0.000000e+000 0.000000e+000 1.000000e+000
      outer loop
         vertex 4.668219e+000 6.097462e+000 3.995078e+000
         vertex 8.303946e+000 4.402093e+000 3.995078e+000
         vertex 4.816544e+000 6.415547e+000 3.995078e+000
      endloop
   endfacet
   facet normal 0.000000e+000 0.000000e+000 1.000000e+000
      outer loop
         vertex 4.816544e+000 6.415547e+000 3.995078e+000
         vertex 8.303946e+000 4.402093e+000 3.995078e+000
         vertex 8.452273e+000 4.720179e+000 3.995078e+000
      endloop
   endfacet
   facet normal 0.000000e+000 0.000000e+000 1.000000e+000
      outer loop
         vertex 4.816544e+000 6.415547e+000 3.995078e+000
         vertex 8.452273e+000 4.720179e+000 3.995078e+000
         vertex 8.543110e+000 5.059188e+000 3.995078e+000
      endloop
   endfacet
   facet normal 0.000000e+000 0.000000e+000 1.000000e+000
      outer loop
         vertex 4.668219e+000 6.097462e+000 3.995078e+000
         vertex 4.577381e+000 5.758453e+000 3.995078e+000
         vertex 8.303946e+000 4.402093e+000 3.995078e+000
      endloop
   endfacet
   facet normal 0.000000e+000 0.000000e+000 1.000000e+000
      outer loop
         vertex 8.303946e+000 4.402093e+000 3.995078e+000
         vertex 4.577381e+000 5.758453e+000 3.995078e+000
         vertex 4.546792e+000 5.408820e+000 3.995078e+000
      endloop
   endfacet
   facet normal 0.000000e+000 0.000000e+000 1.000000e+000
      outer loop
         vertex 8.303946e+000 4.402093e+000 3.995078e+000
         vertex 4.546792e+000 5.408820e+000 3.995078e+000
         vertex 4.577381e+000 5.059188e+000 3.995078e+000
      endloop
   endfacet
   facet normal 0.000000e+000 0.000000e+000 1.000000e+000
      outer loop
         vertex 7.566972e+000 3.665119e+000 3.995078e+000
         vertex 7.854468e+000 3.866426e+000 3.995078e+000
         vertex 5.017851e+000 4.114598e+000 3.995078e+000
      endloop
   endfacet
   facet normal 0.000000e+000 0.000000e+000 1.000000e+000
      outer loop
         vertex 5.017851e+000 4.114598e+000 3.995078e+000
         vertex 7.854468e+000 3.866426e+000 3.995078e+000
         vertex 8.102640e+000 4.114598e+000 3.995078e+000
      endloop
   endfacet
   facet normal 0.000000e+000 0.000000e+000 1.000000e+000
      outer loop
         vertex 5.017851e+000 4.114598e+000 3.995078e+000
         vertex 8.102640e+000 4.114598e+000 3.995078e+000
         vertex 8.303946e+000 4.402093e+000 3.995078e+000
      endloop
   endfacet
   facet normal 0.000000e+000 0.000000e+000 1.000000e+000
      outer loop
         vertex 5.553519e+000 7.152522e+000 3.995078e+000
         vertex 5.266023e+000 6.951215e+000 3.995078e+000
         vertex 8.573699e+000 5.408820e+000 3.995078e+000
      endloop
   endfacet
   facet normal 0.000000e+000 0.000000e+000 1.000000e+000
      outer loop
         vertex 8.573699e+000 5.408820e+000 3.995078e+000
         vertex 5.266023e+000 6.951215e+000 3.995078e+000
         vertex 5.017851e+000 6.703043e+000 3.995078e+000
      endloop
   endfacet
   facet normal 0.000000e+000 0.000000e+000 1.000000e+000
      outer loop
         vertex 8.573699e+000 5.408820e+000 3.995078e+000
         vertex 5.017851e+000 6.703043e+000 3.995078e+000
         vertex 4.816544e+000 6.415547e+000 3.995078e+000
      endloop
   endfacet
   facet normal 0.000000e+000 0.000000e+000 1.000000e+000
      outer loop
         vertex 4.577381e+000 5.059188e+000 3.995078e+000
         vertex 4.668219e+000 4.720179e+000 3.995078e+000
         vertex 8.303946e+000 4.402093e+000 3.995078e+000
      endloop
   endfacet
   facet normal 0.000000e+000 0.000000e+000 1.000000e+000
      outer loop
         vertex 8.303946e+000 4.402093e+000 3.995078e+000
         vertex 4.668219e+000 4.720179e+000 3.995078e+000
         vertex 4.816544e+000 4.402093e+000 3.995078e+000
      endloop
   endfacet
   facet normal 0.000000e+000 0.000000e+000 1.000000e+000
      outer loop
         vertex 8.303946e+000 4.402093e+000 3.995078e+000
         vertex 4.816544e+000 4.402093e+000 3.995078e+000
         vertex 5.017851e+000 4.114598e+000 3.995078e+000
      endloop
   endfacet
   facet normal 0.000000e+000 0.000000e+000 1.000000e+000
      outer loop
         vertex 6.560246e+000 7.422274e+000 3.995078e+000
         vertex 6.210613e+000 7.391685e+000 3.995078e+000
         vertex 8.573699e+000 5.408820e+000 3.995078e+000
      endloop
   endfacet
   facet normal 0.000000e+000 0.000000e+000 1.000000e+000
      outer loop
         vertex 8.573699e+000 5.408820e+000 3.995078e+000
         vertex 6.210613e+000 7.391685e+000 3.995078e+000
         vertex 5.871604e+000 7.300847e+000 3.995078e+000
      endloop
   endfacet
   facet normal 0.000000e+000 0.000000e+000 1.000000e+000
      outer loop
         vertex 8.573699e+000 5.408820e+000 3.995078e+000
         vertex 5.871604e+000 7.300847e+000 3.995078e+000
         vertex 5.553519e+000 7.152522e+000 3.995078e+000
      endloop
   endfacet
   facet normal 0.000000e+000 0.000000e+000 1.000000e+000
      outer loop
         vertex 5.017851e+000 4.114598e+000 3.995078e+000
         vertex 5.266023e+000 3.866426e+000 3.995078e+000
         vertex 7.248887e+000 3.516793e+000 3.995078e+000
      endloop
   endfacet
   facet normal 0.000000e+000 0.000000e+000 1.000000e+000
      outer loop
         vertex 7.248887e+000 3.516793e+000 3.995078e+000
         vertex 5.266023e+000 3.866426e+000 3.995078e+000
         vertex 5.553519e+000 3.665119e+000 3.995078e+000
      endloop
   endfacet
   facet normal 0.000000e+000 0.000000e+000 1.000000e+000
      outer loop
         vertex 7.248887e+000 3.516793e+000 3.995078e+000
         vertex 5.553519e+000 3.665119e+000 3.995078e+000
         vertex 5.871604e+000 3.516793e+000 3.995078e+000
      endloop
   endfacet
   facet normal 0.000000e+000 0.000000e+000 1.000000e+000
      outer loop
         vertex 5.871604e+000 3.516793e+000 3.995078e+000
         vertex 6.210613e+000 3.425956e+000 3.995078e+000
         vertex 7.248887e+000 3.516793e+000 3.995078e+000
      endloop
   endfacet
   facet normal 0.000000e+000 0.000000e+000 1.000000e+000
      outer loop
         vertex 7.248887e+000 3.516793e+000 3.995078e+000
         vertex 6.210613e+000 3.425956e+000 3.995078e+000
         vertex 6.560246e+000 3.395367e+000 3.995078e+000
      endloop
   endfacet
   facet normal 0.000000e+000 0.000000e+000 1.000000e+000
      outer loop
         vertex 7.248887e+000 3.516793e+000 3.995078e+000
         vertex 6.560246e+000 3.395367e+000 3.995078e+000
         vertex 6.909878e+000 3.425956e+000 3.995078e+000
      endloop
   endfacet
   facet normal 0.000000e+000 0.000000e+000 1.000000e+000
      outer loop
         vertex 8.573699e+000 5.408820e+000 3.995078e+000
         vertex 8.543110e+000 5.758453e+000 3.995078e+000
         vertex 6.560246e+000 7.422274e+000 3.995078e+000
      endloop
   endfacet
   facet normal 0.000000e+000 0.000000e+000 1.000000e+000
      outer loop
         vertex 6.560246e+000 7.422274e+000 3.995078e+000
         vertex 8.543110e+000 5.758453e+000 3.995078e+000
         vertex 8.452273e+000 6.097462e+000 3.995078e+000
      endloop
   endfacet
   facet normal 0.000000e+000 0.000000e+000 1.000000e+000
      outer loop
         vertex 6.560246e+000 7.422274e+000 3.995078e+000
         vertex 8.452273e+000 6.097462e+000 3.995078e+000
         vertex 8.303946e+000 6.415547e+000 3.995078e+000
      endloop
   endfacet
   facet normal 0.000000e+000 0.000000e+000 1.000000e+000
      outer loop
         vertex 8.303946e+000 6.415547e+000 3.995078e+000
         vertex 8.102640e+000 6.703043e+000 3.995078e+000
         vertex 6.560246e+000 7.422274e+000 3.995078e+000
      endloop
   endfacet
   facet normal 0.000000e+000 0.000000e+000 1.000000e+000
      outer loop
         vertex 6.560246e+000 7.422274e+000 3.995078e+000
         vertex 8.102640e+000 6.703043e+000 3.995078e+000
         vertex 7.854468e+000 6.951215e+000 3.995078e+000
      endloop
   endfacet
   facet normal 0.000000e+000 0.000000e+000 1.000000e+000
      outer loop
         vertex 6.560246e+000 7.422274e+000 3.995078e+000
         vertex 7.854468e+000 6.951215e+000 3.995078e+000
         vertex 6.909878e+000 7.391685e+000 3.995078e+000
      endloop
   endfacet
   facet normal 0.000000e+000 0.000000e+000 1.000000e+000
      outer loop
         vertex 6.909878e+000 7.391685e+000 3.995078e+000
         vertex 7.854468e+000 6.951215e+000 3.995078e+000
         vertex 7.566972e+000 7.152522e+000 3.995078e+000
      endloop
   endfacet
   facet normal 0.000000e+000 0.000000e+000 1.000000e+000
      outer loop
         vertex 6.909878e+000 7.391685e+000 3.995078e+000
         vertex 7.566972e+000 7.152522e+000 3.995078e+000
         vertex 7.248887e+000 7.300847e+000 3.995078e+000
      endloop
   endfacet
endsolid