solid 2_291
   facet normal -1.000000e+000 0.000000e+000 0.000000e+000
      outer loop
         vertex 0.000000e+000 1.000000e+001 1.000000e+001
         vertex 0.000000e+000 1.000000e+001 0.000000e+000
         vertex 0.000000e+000 0.000000e+000 1.000000e+001
      endloop
   endfacet
   facet normal -1.000000e+000 0.000000e+000 0.000000e+000
      outer loop
         vertex 0.000000e+000 0.000000e+000 1.000000e+001
         vertex 0.000000e+000 1.000000e+001 0.000000e+000
         vertex 0.000000e+000 0.000000e+000 0.000000e+000
      endloop
   endfacet
   facet normal 0.000000e+000 0.000000e+000 1.000000e+000
      outer loop
         vertex 6.647171e+000 3.357106e+000 1.000000e+001
         vertex 6.552925e+000 2.964543e+000 1.000000e+001
         vertex 1.000000e+001 0.000000e+000 1.000000e+001
      endloop
   endfacet
   facet normal 0.000000e+000 0.000000e+000 1.000000e+000
      outer loop
         vertex 1.000000e+001 0.000000e+000 1.000000e+001
         vertex 6.552925e+000 2.964543e+000 1.000000e+001
         vertex 6.398429e+000 2.591557e+000 1.000000e+001
      endloop
   endfacet
   facet normal 0.000000e+000 0.000000e+000 1.000000e+000
      outer loop
         vertex 5.618305e+000 1.678149e+000 1.000000e+001
         vertex 5.274079e+000 1.467207e+000 1.000000e+001
         vertex 1.000000e+001 0.000000e+000 1.000000e+001
      endloop
   endfacet
   facet normal 0.000000e+000 0.000000e+000 1.000000e+000
      outer loop
         vertex 1.000000e+001 0.000000e+000 1.000000e+001
         vertex 5.274079e+000 1.467207e+000 1.000000e+001
         vertex 4.901093e+000 1.312711e+000 1.000000e+001
      endloop
   endfacet
   facet normal 0.000000e+000 0.000000e+000 1.000000e+000
      outer loop
         vertex 6.398429e+000 2.591557e+000 1.000000e+001
         vertex 6.187488e+000 2.247331e+000 1.000000e+001
         vertex 1.000000e+001 0.000000e+000 1.000000e+001
      endloop
   endfacet
   facet normal 0.000000e+000 0.000000e+000 1.000000e+000
      outer loop
         vertex 1.000000e+001 0.000000e+000 1.000000e+001
         vertex 6.187488e+000 2.247331e+000 1.000000e+001
         vertex 5.925294e+000 1.940342e+000 1.000000e+001
      endloop
   endfacet
   facet normal 0.000000e+000 0.000000e+000 1.000000e+000
      outer loop
         vertex 1.000000e+001 0.000000e+000 1.000000e+001
         vertex 5.925294e+000 1.940342e+000 1.000000e+001
         vertex 5.618305e+000 1.678149e+000 1.000000e+001
      endloop
   endfacet
   facet normal 0.000000e+000 0.000000e+000 1.000000e+000
      outer loop
         vertex 4.901093e+000 1.312711e+000 1.000000e+001
         vertex 4.508530e+000 1.218465e+000 1.000000e+001
         vertex 1.000000e+001 0.000000e+000 1.000000e+001
      endloop
   endfacet
   facet normal 0.000000e+000 0.000000e+000 1.000000e+000
      outer loop
         vertex 1.000000e+001 0.000000e+000 1.000000e+001
         vertex 4.508530e+000 1.218465e+000 1.000000e+001
         vertex 4.106057e+000 1.186790e+000 1.000000e+001
      endloop
   endfacet
   facet normal 0.000000e+000 0.000000e+000 1.000000e+000
      outer loop
         vertex 1.000000e+001 0.000000e+000 1.000000e+001
         vertex 4.106057e+000 1.186790e+000 1.000000e+001
         vertex 0.000000e+000 0.000000e+000 1.000000e+001
      endloop
   endfacet
   facet normal 0.000000e+000 0.000000e+000 1.000000e+000
      outer loop
         vertex 0.000000e+000 0.000000e+000 1.000000e+001
         vertex 4.106057e+000 1.186790e+000 1.000000e+001
         vertex 3.703585e+000 1.218465e+000 1.000000e+001
      endloop
   endfacet
   facet normal 0.000000e+000 0.000000e+000 1.000000e+000
      outer loop
         vertex 0.000000e+000 0.000000e+000 1.000000e+001
         vertex 3.703585e+000 1.218465e+000 1.000000e+001
         vertex 3.311022e+000 1.312711e+000 1.000000e+001
      endloop
   endfacet
   facet normal 0.000000e+000 0.000000e+000 1.000000e+000
      outer loop
         vertex 3.311022e+000 1.312711e+000 1.000000e+001
         vertex 2.938036e+000 1.467207e+000 1.000000e+001
         vertex 0.000000e+000 0.000000e+000 1.000000e+001
      endloop
   endfacet
   facet normal 0.000000e+000 0.000000e+000 1.000000e+000
      outer loop
         vertex 0.000000e+000 0.000000e+000 1.000000e+001
         vertex 2.938036e+000 1.467207e+000 1.000000e+001
         vertex 2.593810e+000 1.678149e+000 1.000000e+001
      endloop
   endfacet
   facet normal 0.000000e+000 0.000000e+000 1.000000e+000
      outer loop
         vertex 0.000000e+000 0.000000e+000 1.000000e+001
         vertex 2.593810e+000 1.678149e+000 1.000000e+001
         vertex 2.286821e+000 1.940342e+000 1.000000e+001
      endloop
   endfacet
   facet normal 0.000000e+000 0.000000e+000 1.000000e+000
      outer loop
         vertex 2.286821e+000 1.940342e+000 1.000000e+001
         vertex 2.024627e+000 2.247331e+000 1.000000e+001
         vertex 0.000000e+000 0.000000e+000 1.000000e+001
      endloop
   endfacet
   facet normal 0.000000e+000 0.000000e+000 1.000000e+000
      outer loop
         vertex 0.000000e+000 0.000000e+000 1.000000e+001
         vertex 2.024627e+000 2.247331e+000 1.000000e+001
         vertex 1.813686e+000 2.591557e+000 1.000000e+001
      endloop
   endfacet
   facet normal 0.000000e+000 0.000000e+000 1.000000e+000
      outer loop
         vertex 0.000000e+000 0.000000e+000 1.000000e+001
         vertex 1.813686e+000 2.591557e+000 1.000000e+001
         vertex 1.659190e+000 2.964543e+000 1.000000e+001
      endloop
   endfacet
   facet normal 0.000000e+000 0.000000e+000 1.000000e+000
      outer loop
         vertex 2.938036e+000 6.051950e+000 1.000000e+001
         vertex 3.311022e+000 6.206446e+000 1.000000e+001
         vertex 0.000000e+000 1.000000e+001 1.000000e+001
      endloop
   endfacet
   facet normal 0.000000e+000 0.000000e+000 1.000000e+000
      outer loop
         vertex 4.901093e+000 6.206446e+000 1.000000e+001
         vertex 5.274079e+000 6.051950e+000 1.000000e+001
         vertex 1.000000e+001 1.000000e+001 1.000000e+001
      endloop
   endfacet
   facet normal 0.000000e+000 0.000000e+000 1.000000e+000
      outer loop
         vertex 1.000000e+001 1.000000e+001 1.000000e+001
         vertex 5.274079e+000 6.051950e+000 1.000000e+001
         vertex 5.618305e+000 5.841009e+000 1.000000e+001
      endloop
   endfacet
   facet normal 0.000000e+000 0.000000e+000 1.000000e+000
      outer loop
         vertex 5.618305e+000 5.841009e+000 1.000000e+001
         vertex 5.925294e+000 5.578815e+000 1.000000e+001
         vertex 1.000000e+001 1.000000e+001 1.000000e+001
      endloop
   endfacet
   facet normal 0.000000e+000 0.000000e+000 1.000000e+000
      outer loop
         vertex 1.000000e+001 1.000000e+001 1.000000e+001
         vertex 5.925294e+000 5.578815e+000 1.000000e+001
         vertex 6.187488e+000 5.271826e+000 1.000000e+001
      endloop
   endfacet
   facet normal 0.000000e+000 0.000000e+000 1.000000e+000
      outer loop
         vertex 1.000000e+001 1.000000e+001 1.000000e+001
         vertex 6.187488e+000 5.271826e+000 1.000000e+001
         vertex 6.398429e+000 4.927600e+000 1.000000e+001
      endloop
   endfacet
   facet normal 0.000000e+000 0.000000e+000 1.000000e+000
      outer loop
         vertex 3.311022e+000 6.206446e+000 1.000000e+001
         vertex 3.703585e+000 6.300693e+000 1.000000e+001
         vertex 0.000000e+000 1.000000e+001 1.000000e+001
      endloop
   endfacet
   facet normal 0.000000e+000 0.000000e+000 1.000000e+000
      outer loop
         vertex 0.000000e+000 1.000000e+001 1.000000e+001
         vertex 3.703585e+000 6.300693e+000 1.000000e+001
         vertex 4.106057e+000 6.332368e+000 1.000000e+001
      endloop
   endfacet
   facet normal 0.000000e+000 0.000000e+000 1.000000e+000
      outer loop
         vertex 0.000000e+000 1.000000e+001 1.000000e+001
         vertex 4.106057e+000 6.332368e+000 1.000000e+001
         vertex 1.000000e+001 1.000000e+001 1.000000e+001
      endloop
   endfacet
   facet normal 0.000000e+000 0.000000e+000 1.000000e+000
      outer loop
         vertex 1.000000e+001 1.000000e+001 1.000000e+001
         vertex 4.106057e+000 6.332368e+000 1.000000e+001
         vertex 4.508530e+000 6.300693e+000 1.000000e+001
      endloop
   endfacet
   facet normal 0.000000e+000 0.000000e+000 1.000000e+000
      outer loop
         vertex 1.000000e+001 1.000000e+001 1.000000e+001
         vertex 4.508530e+000 6.300693e+000 1.000000e+001
         vertex 4.901093e+000 6.206446e+000 1.000000e+001
      endloop
   endfacet
   facet normal 0.000000e+000 0.000000e+000 1.000000e+000
      outer loop
         vertex 6.398429e+000 4.927600e+000 1.000000e+001
         vertex 6.552925e+000 4.554615e+000 1.000000e+001
         vertex 1.000000e+001 1.000000e+001 1.000000e+001
      endloop
   endfacet
   facet normal 0.000000e+000 0.000000e+000 1.000000e+000
      outer loop
         vertex 1.000000e+001 1.000000e+001 1.000000e+001
         vertex 6.552925e+000 4.554615e+000 1.000000e+001
         vertex 6.647171e+000 4.162052e+000 1.000000e+001
      endloop
   endfacet
   facet normal 0.000000e+000 0.000000e+000 1.000000e+000
      outer loop
         vertex 1.000000e+001 1.000000e+001 1.000000e+001
         vertex 6.647171e+000 4.162052e+000 1.000000e+001
         vertex 1.000000e+001 0.000000e+000 1.000000e+001
      endloop
   endfacet
   facet normal 0.000000e+000 0.000000e+000 1.000000e+000
      outer loop
         vertex 1.000000e+001 0.000000e+000 1.000000e+001
         vertex 6.647171e+000 4.162052e+000 1.000000e+001
         vertex 6.678847e+000 3.759579e+000 1.000000e+001
      endloop
   endfacet
   facet normal 0.000000e+000 0.000000e+000 1.000000e+000
      outer loop
         vertex 1.000000e+001 0.000000e+000 1.000000e+001
         vertex 6.678847e+000 3.759579e+000 1.000000e+001
         vertex 6.647171e+000 3.357106e+000 1.000000e+001
      endloop
   endfacet
   facet normal 0.000000e+000 0.000000e+000 1.000000e+000
      outer loop
         vertex 1.659190e+000 4.554615e+000 1.000000e+001
         vertex 1.813686e+000 4.927600e+000 1.000000e+001
         vertex 0.000000e+000 1.000000e+001 1.000000e+001
      endloop
   endfacet
   facet normal 0.000000e+000 0.000000e+000 1.000000e+000
      outer loop
         vertex 0.000000e+000 1.000000e+001 1.000000e+001
         vertex 1.813686e+000 4.927600e+000 1.000000e+001
         vertex 2.024627e+000 5.271826e+000 1.000000e+001
      endloop
   endfacet
   facet normal 0.000000e+000 0.000000e+000 1.000000e+000
      outer loop
         vertex 1.659190e+000 2.964543e+000 1.000000e+001
         vertex 1.564944e+000 3.357106e+000 1.000000e+001
         vertex 0.000000e+000 0.000000e+000 1.000000e+001
      endloop
   endfacet
   facet normal 0.000000e+000 0.000000e+000 1.000000e+000
      outer loop
         vertex 0.000000e+000 0.000000e+000 1.000000e+001
         vertex 1.564944e+000 3.357106e+000 1.000000e+001
         vertex 1.533269e+000 3.759579e+000 1.000000e+001
      endloop
   endfacet
   facet normal 0.000000e+000 0.000000e+000 1.000000e+000
      outer loop
         vertex 0.000000e+000 0.000000e+000 1.000000e+001
         vertex 1.533269e+000 3.759579e+000 1.000000e+001
         vertex 0.000000e+000 1.000000e+001 1.000000e+001
      endloop
   endfacet
   facet normal 0.000000e+000 0.000000e+000 1.000000e+000
      outer loop
         vertex 0.000000e+000 1.000000e+001 1.000000e+001
         vertex 1.533269e+000 3.759579e+000 1.000000e+001
         vertex 1.564944e+000 4.162052e+000 1.000000e+001
      endloop
   endfacet
   facet normal 0.000000e+000 0.000000e+000 1.000000e+000
      outer loop
         vertex 0.000000e+000 1.000000e+001 1.000000e+001
         vertex 1.564944e+000 4.162052e+000 1.000000e+001
         vertex 1.659190e+000 4.554615e+000 1.000000e+001
      endloop
   endfacet
   facet normal 0.000000e+000 0.000000e+000 1.000000e+000
      outer loop
         vertex 2.024627e+000 5.271826e+000 1.000000e+001
         vertex 2.286821e+000 5.578815e+000 1.000000e+001
         vertex 0.000000e+000 1.000000e+001 1.000000e+001
      endloop
   endfacet
   facet normal 0.000000e+000 0.000000e+000 1.000000e+000
      outer loop
         vertex 0.000000e+000 1.000000e+001 1.000000e+001
         vertex 2.286821e+000 5.578815e+000 1.000000e+001
         vertex 2.593810e+000 5.841009e+000 1.000000e+001
      endloop
   endfacet
   facet normal 0.000000e+000 0.000000e+000 1.000000e+000
      outer loop
         vertex 0.000000e+000 1.000000e+001 1.000000e+001
         vertex 2.593810e+000 5.841009e+000 1.000000e+001
         vertex 2.938036e+000 6.051950e+000 1.000000e+001
      endloop
   endfacet
   facet normal 1.000000e+000 0.000000e+000 0.000000e+000
      outer loop
         vertex 1.000000e+001 1.000000e+001 0.000000e+000
         vertex 1.000000e+001 1.000000e+001 1.000000e+001
         vertex 1.000000e+001 0.000000e+000 0.000000e+000
      endloop
   endfacet
   facet normal 1.000000e+000 0.000000e+000 0.000000e+000
      outer loop
         vertex 1.000000e+001 0.000000e+000 0.000000e+000
         vertex 1.000000e+001 1.000000e+001 1.000000e+001
         vertex 1.000000e+001 0.000000e+000 1.000000e+001
      endloop
   endfacet
   facet normal 0.000000e+000 0.000000e+000 -1.000000e+000
      outer loop
         vertex 0.000000e+000 1.000000e+001 0.000000e+000
         vertex 1.000000e+001 1.000000e+001 0.000000e+000
         vertex 0.000000e+000 0.000000e+000 0.000000e+000
      endloop
   endfacet
   facet normal 0.000000e+000 0.000000e+000 -1.000000e+000
      outer loop
         vertex 0.000000e+000 0.000000e+000 0.000000e+000
         vertex 1.000000e+001 1.000000e+001 0.000000e+000
         vertex 1.000000e+001 0.000000e+000 0.000000e+000
      endloop
   endfacet
   facet normal 0.000000e+000 1.000000e+000 0.000000e+000
      outer loop
         vertex 1.000000e+001 1.000000e+001 1.000000e+001
         vertex 1.000000e+001 1.000000e+001 0.000000e+000
         vertex 0.000000e+000 1.000000e+001 1.000000e+001
      endloop
   endfacet
   facet normal 0.000000e+000 1.000000e+000 0.000000e+000
      outer loop
         vertex 0.000000e+000 1.000000e+001 1.000000e+001
         vertex 1.000000e+001 1.000000e+001 0.000000e+000
         vertex 0.000000e+000 1.000000e+001 0.000000e+000
      endloop
   endfacet
   facet normal 0.000000e+000 -1.000000e+000 0.000000e+000
      outer loop
         vertex 1.000000e+001 0.000000e+000 0.000000e+000
         vertex 1.000000e+001 0.000000e+000 1.000000e+001
         vertex 0.000000e+000 0.000000e+000 0.000000e+000
      endloop
   endfacet
   facet normal 0.000000e+000 -1.000000e+000 0.000000e+000
      outer loop
         vertex 0.000000e+000 0.000000e+000 0.000000e+000
         vertex 1.000000e+001 0.000000e+000 1.000000e+001
         vertex 0.000000e+000 0.000000e+000 1.000000e+001
      endloop
   endfacet
   facet normal -9.986320e-001 5.228807e-002 0.000000e+000
      outer loop
         vertex 6.647171e+000 3.357106e+000 1.314124e+000
         vertex 6.678847e+000 3.759579e+000 1.000000e+001
         vertex 6.678847e+000 3.759579e+000 1.314124e+000
      endloop
   endfacet
   facet normal -9.986320e-001 -5.228807e-002 0.000000e+000
      outer loop
         vertex 6.678847e+000 3.759579e+000 1.314124e+000
         vertex 6.678847e+000 3.759579e+000 1.000000e+001
         vertex 6.647171e+000 4.162052e+000 1.000000e+001
      endloop
   endfacet
   facet normal -9.945168e-001 -1.045761e-001 0.000000e+000
      outer loop
         vertex 6.678847e+000 3.759579e+000 1.314124e+000
         vertex 6.647171e+000 4.162052e+000 1.000000e+001
         vertex 6.647171e+000 4.162052e+000 1.314124e+000
      endloop
   endfacet
   facet normal -9.781576e-001 -2.078648e-001 0.000000e+000
      outer loop
         vertex 6.647171e+000 4.162052e+000 1.314124e+000
         vertex 6.647171e+000 4.162052e+000 1.000000e+001
         vertex 6.552925e+000 4.554615e+000 1.000000e+001
      endloop
   endfacet
   facet normal -9.659134e-001 -2.588653e-001 0.000000e+000
      outer loop
         vertex 6.647171e+000 4.162052e+000 1.314124e+000
         vertex 6.552925e+000 4.554615e+000 1.000000e+001
         vertex 6.552925e+000 4.554615e+000 1.314124e+000
      endloop
   endfacet
   facet normal -9.335976e-001 -3.583232e-001 0.000000e+000
      outer loop
         vertex 6.552925e+000 4.554615e+000 1.314124e+000
         vertex 6.552925e+000 4.554615e+000 1.000000e+001
         vertex 6.398429e+000 4.927600e+000 1.000000e+001
      endloop
   endfacet
   facet normal -9.135259e-001 -4.067805e-001 0.000000e+000
      outer loop
         vertex 6.552925e+000 4.554615e+000 1.314124e+000
         vertex 6.398429e+000 4.927600e+000 1.000000e+001
         vertex 6.398429e+000 4.927600e+000 1.314124e+000
      endloop
   endfacet
   facet normal -8.660494e-001 -4.999584e-001 0.000000e+000
      outer loop
         vertex 6.398429e+000 4.927600e+000 1.314124e+000
         vertex 6.398429e+000 4.927600e+000 1.000000e+001
         vertex 6.187488e+000 5.271826e+000 1.000000e+001
      endloop
   endfacet
   facet normal -8.386444e-001 -5.446792e-001 0.000000e+000
      outer loop
         vertex 6.398429e+000 4.927600e+000 1.314124e+000
         vertex 6.187488e+000 5.271826e+000 1.000000e+001
         vertex 6.187488e+000 5.271826e+000 1.314124e+000
      endloop
   endfacet
   facet normal -7.771761e-001 -6.292831e-001 0.000000e+000
      outer loop
         vertex 6.187488e+000 5.271826e+000 1.314124e+000
         vertex 6.187488e+000 5.271826e+000 1.000000e+001
         vertex 5.925294e+000 5.578815e+000 1.000000e+001
      endloop
   endfacet
   facet normal -7.431127e-001 -6.691663e-001 0.000000e+000
      outer loop
         vertex 6.187488e+000 5.271826e+000 1.314124e+000
         vertex 5.925294e+000 5.578815e+000 1.000000e+001
         vertex 5.925294e+000 5.578815e+000 1.314124e+000
      endloop
   endfacet
   facet normal -6.691663e-001 -7.431127e-001 0.000000e+000
      outer loop
         vertex 5.925294e+000 5.578815e+000 1.314124e+000
         vertex 5.925294e+000 5.578815e+000 1.000000e+001
         vertex 5.618305e+000 5.841009e+000 1.000000e+001
      endloop
   endfacet
   facet normal -6.292831e-001 -7.771761e-001 0.000000e+000
      outer loop
         vertex 5.925294e+000 5.578815e+000 1.314124e+000
         vertex 5.618305e+000 5.841009e+000 1.000000e+001
         vertex 5.618305e+000 5.841009e+000 1.314124e+000
      endloop
   endfacet
   facet normal -5.446792e-001 -8.386444e-001 0.000000e+000
      outer loop
         vertex 5.618305e+000 5.841009e+000 1.314124e+000
         vertex 5.618305e+000 5.841009e+000 1.000000e+001
         vertex 5.274079e+000 6.051950e+000 1.000000e+001
      endloop
   endfacet
   facet normal -4.999584e-001 -8.660494e-001 0.000000e+000
      outer loop
         vertex 5.618305e+000 5.841009e+000 1.314124e+000
         vertex 5.274079e+000 6.051950e+000 1.000000e+001
         vertex 5.274079e+000 6.051950e+000 1.314124e+000
      endloop
   endfacet
   facet normal -4.067805e-001 -9.135259e-001 0.000000e+000
      outer loop
         vertex 5.274079e+000 6.051950e+000 1.314124e+000
         vertex 5.274079e+000 6.051950e+000 1.000000e+001
         vertex 4.901093e+000 6.206446e+000 1.000000e+001
      endloop
   endfacet
   facet normal -3.583232e-001 -9.335976e-001 0.000000e+000
      outer loop
         vertex 5.274079e+000 6.051950e+000 1.314124e+000
         vertex 4.901093e+000 6.206446e+000 1.000000e+001
         vertex 4.901093e+000 6.206446e+000 1.314124e+000
      endloop
   endfacet
   facet normal -2.588653e-001 -9.659134e-001 0.000000e+000
      outer loop
         vertex 4.901093e+000 6.206446e+000 1.314124e+000
         vertex 4.901093e+000 6.206446e+000 1.000000e+001
         vertex 4.508530e+000 6.300693e+000 1.000000e+001
      endloop
   endfacet
   facet normal -2.078648e-001 -9.781575e-001 0.000000e+000
      outer loop
         vertex 4.901093e+000 6.206446e+000 1.314124e+000
         vertex 4.508530e+000 6.300693e+000 1.000000e+001
         vertex 4.508530e+000 6.300693e+000 1.314124e+000
      endloop
   endfacet
   facet normal -1.045761e-001 -9.945168e-001 0.000000e+000
      outer loop
         vertex 4.508530e+000 6.300693e+000 1.314124e+000
         vertex 4.508530e+000 6.300693e+000 1.000000e+001
         vertex 4.106057e+000 6.332368e+000 1.000000e+001
      endloop
   endfacet
   facet normal -5.228807e-002 -9.986320e-001 0.000000e+000
      outer loop
         vertex 4.508530e+000 6.300693e+000 1.314124e+000
         vertex 4.106057e+000 6.332368e+000 1.000000e+001
         vertex 4.106057e+000 6.332368e+000 1.314124e+000
      endloop
   endfacet
   facet normal 5.228807e-002 -9.986320e-001 0.000000e+000
      outer loop
         vertex 4.106057e+000 6.332368e+000 1.314124e+000
         vertex 4.106057e+000 6.332368e+000 1.000000e+001
         vertex 3.703585e+000 6.300693e+000 1.000000e+001
      endloop
   endfacet
   facet normal 1.045761e-001 -9.945168e-001 0.000000e+000
      outer loop
         vertex 4.106057e+000 6.332368e+000 1.314124e+000
         vertex 3.703585e+000 6.300693e+000 1.000000e+001
         vertex 3.703585e+000 6.300693e+000 1.314124e+000
      endloop
   endfacet
   facet normal 2.078648e-001 -9.781576e-001 0.000000e+000
      outer loop
         vertex 3.703585e+000 6.300693e+000 1.314124e+000
         vertex 3.703585e+000 6.300693e+000 1.000000e+001
         vertex 3.311022e+000 6.206446e+000 1.000000e+001
      endloop
   endfacet
   facet normal 2.588653e-001 -9.659134e-001 0.000000e+000
      outer loop
         vertex 3.703585e+000 6.300693e+000 1.314124e+000
         vertex 3.311022e+000 6.206446e+000 1.000000e+001
         vertex 3.311022e+000 6.206446e+000 1.314124e+000
      endloop
   endfacet
   facet normal 3.583232e-001 -9.335976e-001 0.000000e+000
      outer loop
         vertex 3.311022e+000 6.206446e+000 1.314124e+000
         vertex 3.311022e+000 6.206446e+000 1.000000e+001
         vertex 2.938036e+000 6.051950e+000 1.000000e+001
      endloop
   endfacet
   facet normal 4.067805e-001 -9.135259e-001 0.000000e+000
      outer loop
         vertex 3.311022e+000 6.206446e+000 1.314124e+000
         vertex 2.938036e+000 6.051950e+000 1.000000e+001
         vertex 2.938036e+000 6.051950e+000 1.314124e+000
      endloop
   endfacet
   facet normal 4.999584e-001 -8.660494e-001 0.000000e+000
      outer loop
         vertex 2.938036e+000 6.051950e+000 1.314124e+000
         vertex 2.938036e+000 6.051950e+000 1.000000e+001
         vertex 2.593810e+000 5.841009e+000 1.000000e+001
      endloop
   endfacet
   facet normal 5.446792e-001 -8.386444e-001 0.000000e+000
      outer loop
         vertex 2.938036e+000 6.051950e+000 1.314124e+000
         vertex 2.593810e+000 5.841009e+000 1.000000e+001
         vertex 2.593810e+000 5.841009e+000 1.314124e+000
      endloop
   endfacet
   facet normal 6.292831e-001 -7.771761e-001 0.000000e+000
      outer loop
         vertex 2.593810e+000 5.841009e+000 1.314124e+000
         vertex 2.593810e+000 5.841009e+000 1.000000e+001
         vertex 2.286821e+000 5.578815e+000 1.000000e+001
      endloop
   endfacet
   facet normal 6.691663e-001 -7.431127e-001 0.000000e+000
      outer loop
         vertex 2.593810e+000 5.841009e+000 1.314124e+000
         vertex 2.286821e+000 5.578815e+000 1.000000e+001
         vertex 2.286821e+000 5.578815e+000 1.314124e+000
      endloop
   endfacet
   facet normal 7.431127e-001 -6.691663e-001 0.000000e+000
      outer loop
         vertex 2.286821e+000 5.578815e+000 1.314124e+000
         vertex 2.286821e+000 5.578815e+000 1.000000e+001
         vertex 2.024627e+000 5.271826e+000 1.000000e+001
      endloop
   endfacet
   facet normal 7.771761e-001 -6.292831e-001 0.000000e+000
      outer loop
         vertex 2.286821e+000 5.578815e+000 1.314124e+000
         vertex 2.024627e+000 5.271826e+000 1.000000e+001
         vertex 2.024627e+000 5.271826e+000 1.314124e+000
      endloop
   endfacet
   facet normal 8.386444e-001 -5.446792e-001 0.000000e+000
      outer loop
         vertex 2.024627e+000 5.271826e+000 1.314124e+000
         vertex 2.024627e+000 5.271826e+000 1.000000e+001
         vertex 1.813686e+000 4.927600e+000 1.000000e+001
      endloop
   endfacet
   facet normal 8.660494e-001 -4.999584e-001 0.000000e+000
      outer loop
         vertex 2.024627e+000 5.271826e+000 1.314124e+000
         vertex 1.813686e+000 4.927600e+000 1.000000e+001
         vertex 1.813686e+000 4.927600e+000 1.314124e+000
      endloop
   endfacet
   facet normal 9.135259e-001 -4.067805e-001 0.000000e+000
      outer loop
         vertex 1.813686e+000 4.927600e+000 1.314124e+000
         vertex 1.813686e+000 4.927600e+000 1.000000e+001
         vertex 1.659190e+000 4.554615e+000 1.000000e+001
      endloop
   endfacet
   facet normal 9.335976e-001 -3.583232e-001 0.000000e+000
      outer loop
         vertex 1.813686e+000 4.927600e+000 1.314124e+000
         vertex 1.659190e+000 4.554615e+000 1.000000e+001
         vertex 1.659190e+000 4.554615e+000 1.314124e+000
      endloop
   endfacet
   facet normal 9.659134e-001 -2.588653e-001 0.000000e+000
      outer loop
         vertex 1.659190e+000 4.554615e+000 1.314124e+000
         vertex 1.659190e+000 4.554615e+000 1.000000e+001
         vertex 1.564944e+000 4.162052e+000 1.000000e+001
      endloop
   endfacet
   facet normal 9.781575e-001 -2.078648e-001 0.000000e+000
      outer loop
         vertex 1.659190e+000 4.554615e+000 1.314124e+000
         vertex 1.564944e+000 4.162052e+000 1.000000e+001
         vertex 1.564944e+000 4.162052e+000 1.314124e+000
      endloop
   endfacet
   facet normal 9.945168e-001 -1.045761e-001 0.000000e+000
      outer loop
         vertex 1.564944e+000 4.162052e+000 1.314124e+000
         vertex 1.564944e+000 4.162052e+000 1.000000e+001
         vertex 1.533269e+000 3.759579e+000 1.000000e+001
      endloop
   endfacet
   facet normal 9.986320e-001 -5.228807e-002 0.000000e+000
      outer loop
         vertex 1.564944e+000 4.162052e+000 1.314124e+000
         vertex 1.533269e+000 3.759579e+000 1.000000e+001
         vertex 1.533269e+000 3.759579e+000 1.314124e+000
      endloop
   endfacet
   facet normal 9.986320e-001 5.228807e-002 0.000000e+000
      outer loop
         vertex 1.533269e+000 3.759579e+000 1.314124e+000
         vertex 1.533269e+000 3.759579e+000 1.000000e+001
         vertex 1.564944e+000 3.357106e+000 1.000000e+001
      endloop
   endfacet
   facet normal 9.945168e-001 1.045761e-001 0.000000e+000
      outer loop
         vertex 1.533269e+000 3.759579e+000 1.314124e+000
         vertex 1.564944e+000 3.357106e+000 1.000000e+001
         vertex 1.564944e+000 3.357106e+000 1.314124e+000
      endloop
   endfacet
   facet normal 9.781576e-001 2.078648e-001 0.000000e+000
      outer loop
         vertex 1.564944e+000 3.357106e+000 1.314124e+000
         vertex 1.564944e+000 3.357106e+000 1.000000e+001
         vertex 1.659190e+000 2.964543e+000 1.000000e+001
      endloop
   endfacet
   facet normal 9.659134e-001 2.588653e-001 0.000000e+000
      outer loop
         vertex 1.564944e+000 3.357106e+000 1.314124e+000
         vertex 1.659190e+000 2.964543e+000 1.000000e+001
         vertex 1.659190e+000 2.964543e+000 1.314124e+000
      endloop
   endfacet
   facet normal 9.335976e-001 3.583232e-001 0.000000e+000
      outer loop
         vertex 1.659190e+000 2.964543e+000 1.314124e+000
         vertex 1.659190e+000 2.964543e+000 1.000000e+001
         vertex 1.813686e+000 2.591557e+000 1.000000e+001
      endloop
   endfacet
   facet normal 9.135259e-001 4.067805e-001 0.000000e+000
      outer loop
         vertex 1.659190e+000 2.964543e+000 1.314124e+000
         vertex 1.813686e+000 2.591557e+000 1.000000e+001
         vertex 1.813686e+000 2.591557e+000 1.314124e+000
      endloop
   endfacet
   facet normal 8.660494e-001 4.999584e-001 0.000000e+000
      outer loop
         vertex 1.813686e+000 2.591557e+000 1.314124e+000
         vertex 1.813686e+000 2.591557e+000 1.000000e+001
         vertex 2.024627e+000 2.247331e+000 1.000000e+001
      endloop
   endfacet
   facet normal 8.386444e-001 5.446792e-001 0.000000e+000
      outer loop
         vertex 1.813686e+000 2.591557e+000 1.314124e+000
         vertex 2.024627e+000 2.247331e+000 1.000000e+001
         vertex 2.024627e+000 2.247331e+000 1.314124e+000
      endloop
   endfacet
   facet normal 7.771761e-001 6.292831e-001 0.000000e+000
      outer loop
         vertex 2.024627e+000 2.247331e+000 1.314124e+000
         vertex 2.024627e+000 2.247331e+000 1.000000e+001
         vertex 2.286821e+000 1.940342e+000 1.000000e+001
      endloop
   endfacet
   facet normal 7.431127e-001 6.691663e-001 0.000000e+000
      outer loop
         vertex 2.024627e+000 2.247331e+000 1.314124e+000
         vertex 2.286821e+000 1.940342e+000 1.000000e+001
         vertex 2.286821e+000 1.940342e+000 1.314124e+000
      endloop
   endfacet
   facet normal 6.691663e-001 7.431127e-001 0.000000e+000
      outer loop
         vertex 2.286821e+000 1.940342e+000 1.314124e+000
         vertex 2.286821e+000 1.940342e+000 1.000000e+001
         vertex 2.593810e+000 1.678149e+000 1.000000e+001
      endloop
   endfacet
   facet normal 6.292831e-001 7.771761e-001 0.000000e+000
      outer loop
         vertex 2.286821e+000 1.940342e+000 1.314124e+000
         vertex 2.593810e+000 1.678149e+000 1.000000e+001
         vertex 2.593810e+000 1.678149e+000 1.314124e+000
      endloop
   endfacet
   facet normal 5.446792e-001 8.386444e-001 0.000000e+000
      outer loop
         vertex 2.593810e+000 1.678149e+000 1.314124e+000
         vertex 2.593810e+000 1.678149e+000 1.000000e+001
         vertex 2.938036e+000 1.467207e+000 1.000000e+001
      endloop
   endfacet
   facet normal 4.999584e-001 8.660494e-001 0.000000e+000
      outer loop
         vertex 2.593810e+000 1.678149e+000 1.314124e+000
         vertex 2.938036e+000 1.467207e+000 1.000000e+001
         vertex 2.938036e+000 1.467207e+000 1.314124e+000
      endloop
   endfacet
   facet normal 4.067805e-001 9.135259e-001 0.000000e+000
      outer loop
         vertex 2.938036e+000 1.467207e+000 1.314124e+000
         vertex 2.938036e+000 1.467207e+000 1.000000e+001
         vertex 3.311022e+000 1.312711e+000 1.000000e+001
      endloop
   endfacet
   facet normal 3.583232e-001 9.335976e-001 0.000000e+000
      outer loop
         vertex 2.938036e+000 1.467207e+000 1.314124e+000
         vertex 3.311022e+000 1.312711e+000 1.000000e+001
         vertex 3.311022e+000 1.312711e+000 1.314124e+000
      endloop
   endfacet
   facet normal 2.588653e-001 9.659134e-001 0.000000e+000
      outer loop
         vertex 3.311022e+000 1.312711e+000 1.314124e+000
         vertex 3.311022e+000 1.312711e+000 1.000000e+001
         vertex 3.703585e+000 1.218465e+000 1.000000e+001
      endloop
   endfacet
   facet normal 2.078648e-001 9.781575e-001 0.000000e+000
      outer loop
         vertex 3.311022e+000 1.312711e+000 1.314124e+000
         vertex 3.703585e+000 1.218465e+000 1.000000e+001
         vertex 3.703585e+000 1.218465e+000 1.314124e+000
      endloop
   endfacet
   facet normal 1.045761e-001 9.945168e-001 0.000000e+000
      outer loop
         vertex 3.703585e+000 1.218465e+000 1.314124e+000
         vertex 3.703585e+000 1.218465e+000 1.000000e+001
         vertex 4.106057e+000 1.186790e+000 1.000000e+001
      endloop
   endfacet
   facet normal 5.228807e-002 9.986320e-001 0.000000e+000
      outer loop
         vertex 3.703585e+000 1.218465e+000 1.314124e+000
         vertex 4.106057e+000 1.186790e+000 1.000000e+001
         vertex 4.106057e+000 1.186790e+000 1.314124e+000
      endloop
   endfacet
   facet normal -5.228807e-002 9.986320e-001 0.000000e+000
      outer loop
         vertex 4.106057e+000 1.186790e+000 1.314124e+000
         vertex 4.106057e+000 1.186790e+000 1.000000e+001
         vertex 4.508530e+000 1.218465e+000 1.000000e+001
      endloop
   endfacet
   facet normal -1.045761e-001 9.945168e-001 0.000000e+000
      outer loop
         vertex 4.106057e+000 1.186790e+000 1.314124e+000
         vertex 4.508530e+000 1.218465e+000 1.000000e+001
         vertex 4.508530e+000 1.218465e+000 1.314124e+000
      endloop
   endfacet
   facet normal -2.078648e-001 9.781576e-001 0.000000e+000
      outer loop
         vertex 4.508530e+000 1.218465e+000 1.314124e+000
         vertex 4.508530e+000 1.218465e+000 1.000000e+001
         vertex 4.901093e+000 1.312711e+000 1.000000e+001
      endloop
   endfacet
   facet normal -2.588653e-001 9.659134e-001 0.000000e+000
      outer loop
         vertex 4.508530e+000 1.218465e+000 1.314124e+000
         vertex 4.901093e+000 1.312711e+000 1.000000e+001
         vertex 4.901093e+000 1.312711e+000 1.314124e+000
      endloop
   endfacet
   facet normal -3.583232e-001 9.335976e-001 0.000000e+000
      outer loop
         vertex 4.901093e+000 1.312711e+000 1.314124e+000
         vertex 4.901093e+000 1.312711e+000 1.000000e+001
         vertex 5.274079e+000 1.467207e+000 1.000000e+001
      endloop
   endfacet
   facet normal -4.067805e-001 9.135259e-001 0.000000e+000
      outer loop
         vertex 4.901093e+000 1.312711e+000 1.314124e+000
         vertex 5.274079e+000 1.467207e+000 1.000000e+001
         vertex 5.274079e+000 1.467207e+000 1.314124e+000
      endloop
   endfacet
   facet normal -4.999584e-001 8.660494e-001 0.000000e+000
      outer loop
         vertex 5.274079e+000 1.467207e+000 1.314124e+000
         vertex 5.274079e+000 1.467207e+000 1.000000e+001
         vertex 5.618305e+000 1.678149e+000 1.000000e+001
      endloop
   endfacet
   facet normal -5.446792e-001 8.386444e-001 0.000000e+000
      outer loop
         vertex 5.274079e+000 1.467207e+000 1.314124e+000
         vertex 5.618305e+000 1.678149e+000 1.000000e+001
         vertex 5.618305e+000 1.678149e+000 1.314124e+000
      endloop
   endfacet
   facet normal -6.292831e-001 7.771761e-001 0.000000e+000
      outer loop
         vertex 5.618305e+000 1.678149e+000 1.314124e+000
         vertex 5.618305e+000 1.678149e+000 1.000000e+001
         vertex 5.925294e+000 1.940342e+000 1.000000e+001
      endloop
   endfacet
   facet normal -6.691663e-001 7.431127e-001 0.000000e+000
      outer loop
         vertex 5.618305e+000 1.678149e+000 1.314124e+000
         vertex 5.925294e+000 1.940342e+000 1.000000e+001
         vertex 5.925294e+000 1.940342e+000 1.314124e+000
      endloop
   endfacet
   facet normal -7.431127e-001 6.691663e-001 0.000000e+000
      outer loop
         vertex 5.925294e+000 1.940342e+000 1.314124e+000
         vertex 5.925294e+000 1.940342e+000 1.000000e+001
         vertex 6.187488e+000 2.247331e+000 1.000000e+001
      endloop
   endfacet
   facet normal -7.771761e-001 6.292831e-001 0.000000e+000
      outer loop
         vertex 5.925294e+000 1.940342e+000 1.314124e+000
         vertex 6.187488e+000 2.247331e+000 1.000000e+001
         vertex 6.187488e+000 2.247331e+000 1.314124e+000
      endloop
   endfacet
   facet normal -8.386444e-001 5.446792e-001 0.000000e+000
      outer loop
         vertex 6.187488e+000 2.247331e+000 1.314124e+000
         vertex 6.187488e+000 2.247331e+000 1.000000e+001
         vertex 6.398429e+000 2.591557e+000 1.000000e+001
      endloop
   endfacet
   facet normal -8.660494e-001 4.999584e-001 0.000000e+000
      outer loop
         vertex 6.187488e+000 2.247331e+000 1.314124e+000
         vertex 6.398429e+000 2.591557e+000 1.000000e+001
         vertex 6.398429e+000 2.591557e+000 1.314124e+000
      endloop
   endfacet
   facet normal -9.135259e-001 4.067805e-001 0.000000e+000
      outer loop
         vertex 6.398429e+000 2.591557e+000 1.314124e+000
         vertex 6.398429e+000 2.591557e+000 1.000000e+001
         vertex 6.552925e+000 2.964543e+000 1.000000e+001
      endloop
   endfacet
   facet normal -9.335976e-001 3.583232e-001 0.000000e+000
      outer loop
         vertex 6.398429e+000 2.591557e+000 1.314124e+000
         vertex 6.552925e+000 2.964543e+000 1.000000e+001
         vertex 6.552925e+000 2.964543e+000 1.314124e+000
      endloop
   endfacet
   facet normal -9.659134e-001 2.588653e-001 0.000000e+000
      outer loop
         vertex 6.552925e+000 2.964543e+000 1.314124e+000
         vertex 6.552925e+000 2.964543e+000 1.000000e+001
         vertex 6.647171e+000 3.357106e+000 1.000000e+001
      endloop
   endfacet
   facet normal -9.781575e-001 2.078648e-001 0.000000e+000
      outer loop
         vertex 6.552925e+000 2.964543e+000 1.314124e+000
         vertex 6.647171e+000 3.357106e+000 1.000000e+001
         vertex 6.647171e+000 3.357106e+000 1.314124e+000
      endloop
   endfacet
   facet normal -9.945168e-001 1.045761e-001 0.000000e+000
      outer loop
         vertex 6.647171e+000 3.357106e+000 1.314124e+000
         vertex 6.647171e+000 3.357106e+000 1.000000e+001
         vertex 6.678847e+000 3.759579e+000 1.000000e+001
      endloop
   endfacet
   facet normal 0.000000e+000 0.000000e+000 1.000000e+000
      outer loop
         vertex 3.703585e+000 1.218465e+000 1.314124e+000
         vertex 6.647171e+000 3.357106e+000 1.314124e+000
         vertex 3.311022e+000 1.312711e+000 1.314124e+000
      endloop
   endfacet
   facet normal 0.000000e+000 0.000000e+000 1.000000e+000
      outer loop
         vertex 3.311022e+000 1.312711e+000 1.314124e+000
         vertex 6.647171e+000 3.357106e+000 1.314124e+000
         vertex 6.678847e+000 3.759579e+000 1.314124e+000
      endloop
   endfacet
   facet normal 0.000000e+000 0.000000e+000 1.000000e+000
      outer loop
         vertex 4.508530e+000 6.300693e+000 1.314124e+000
         vertex 4.106057e+000 6.332368e+000 1.314124e+000
         vertex 3.311022e+000 1.312711e+000 1.314124e+000
      endloop
   endfacet
   facet normal 0.000000e+000 0.000000e+000 1.000000e+000
      outer loop
         vertex 3.311022e+000 1.312711e+000 1.314124e+000
         vertex 4.106057e+000 6.332368e+000 1.314124e+000
         vertex 3.703585e+000 6.300693e+000 1.314124e+000
      endloop
   endfacet
   facet normal 0.000000e+000 0.000000e+000 1.000000e+000
      outer loop
         vertex 3.311022e+000 1.312711e+000 1.314124e+000
         vertex 3.703585e+000 6.300693e+000 1.314124e+000
         vertex 2.938036e+000 1.467207e+000 1.314124e+000
      endloop
   endfacet
   facet normal 0.000000e+000 0.000000e+000 1.000000e+000
      outer loop
         vertex 1.564944e+000 3.357106e+000 1.314124e+000
         vertex 3.703585e+000 6.300693e+000 1.314124e+000
         vertex 3.311022e+000 6.206446e+000 1.314124e+000
      endloop
   endfacet
   facet normal 0.000000e+000 0.000000e+000 1.000000e+000
      outer loop
         vertex 3.703585e+000 1.218465e+000 1.314124e+000
         vertex 4.106057e+000 1.186790e+000 1.314124e+000
         vertex 6.647171e+000 3.357106e+000 1.314124e+000
      endloop
   endfacet
   facet normal 0.000000e+000 0.000000e+000 1.000000e+000
      outer loop
         vertex 6.647171e+000 3.357106e+000 1.314124e+000
         vertex 4.106057e+000 1.186790e+000 1.314124e+000
         vertex 4.508530e+000 1.218465e+000 1.314124e+000
      endloop
   endfacet
   facet normal 0.000000e+000 0.000000e+000 1.000000e+000
      outer loop
         vertex 6.647171e+000 3.357106e+000 1.314124e+000
         vertex 4.508530e+000 1.218465e+000 1.314124e+000
         vertex 4.901093e+000 1.312711e+000 1.314124e+000
      endloop
   endfacet
   facet normal 0.000000e+000 0.000000e+000 1.000000e+000
      outer loop
         vertex 4.901093e+000 1.312711e+000 1.314124e+000
         vertex 5.274079e+000 1.467207e+000 1.314124e+000
         vertex 6.647171e+000 3.357106e+000 1.314124e+000
      endloop
   endfacet
   facet normal 0.000000e+000 0.000000e+000 1.000000e+000
      outer loop
         vertex 6.647171e+000 3.357106e+000 1.314124e+000
         vertex 5.274079e+000 1.467207e+000 1.314124e+000
         vertex 5.618305e+000 1.678149e+000 1.314124e+000
      endloop
   endfacet
   facet normal 0.000000e+000 0.000000e+000 1.000000e+000
      outer loop
         vertex 6.647171e+000 3.357106e+000 1.314124e+000
         vertex 5.618305e+000 1.678149e+000 1.314124e+000
         vertex 5.925294e+000 1.940342e+000 1.314124e+000
      endloop
   endfacet
   facet normal 0.000000e+000 0.000000e+000 1.000000e+000
      outer loop
         vertex 5.925294e+000 1.940342e+000 1.314124e+000
         vertex 6.187488e+000 2.247331e+000 1.314124e+000
         vertex 6.647171e+000 3.357106e+000 1.314124e+000
      endloop
   endfacet
   facet normal 0.000000e+000 0.000000e+000 1.000000e+000
      outer loop
         vertex 6.647171e+000 3.357106e+000 1.314124e+000
         vertex 6.187488e+000 2.247331e+000 1.314124e+000
         vertex 6.398429e+000 2.591557e+000 1.314124e+000
      endloop
   endfacet
   facet normal 0.000000e+000 0.000000e+000 1.000000e+000
      outer loop
         vertex 6.647171e+000 3.357106e+000 1.314124e+000
         vertex 6.398429e+000 2.591557e+000 1.314124e+000
         vertex 6.552925e+000 2.964543e+000 1.314124e+000
      endloop
   endfacet
   facet normal 0.000000e+000 0.000000e+000 1.000000e+000
      outer loop
         vertex 6.678847e+000 3.759579e+000 1.314124e+000
         vertex 6.647171e+000 4.162052e+000 1.314124e+000
         vertex 3.311022e+000 1.312711e+000 1.314124e+000
      endloop
   endfacet
   facet normal 0.000000e+000 0.000000e+000 1.000000e+000
      outer loop
         vertex 3.311022e+000 1.312711e+000 1.314124e+000
         vertex 6.647171e+000 4.162052e+000 1.314124e+000
         vertex 6.552925e+000 4.554615e+000 1.314124e+000
      endloop
   endfacet
   facet normal 0.000000e+000 0.000000e+000 1.000000e+000
      outer loop
         vertex 3.311022e+000 1.312711e+000 1.314124e+000
         vertex 6.552925e+000 4.554615e+000 1.314124e+000
         vertex 6.398429e+000 4.927600e+000 1.314124e+000
      endloop
   endfacet
   facet normal 0.000000e+000 0.000000e+000 1.000000e+000
      outer loop
         vertex 6.398429e+000 4.927600e+000 1.314124e+000
         vertex 6.187488e+000 5.271826e+000 1.314124e+000
         vertex 3.311022e+000 1.312711e+000 1.314124e+000
      endloop
   endfacet
   facet normal 0.000000e+000 0.000000e+000 1.000000e+000
      outer loop
         vertex 3.311022e+000 1.312711e+000 1.314124e+000
         vertex 6.187488e+000 5.271826e+000 1.314124e+000
         vertex 5.925294e+000 5.578815e+000 1.314124e+000
      endloop
   endfacet
   facet normal 0.000000e+000 0.000000e+000 1.000000e+000
      outer loop
         vertex 3.311022e+000 1.312711e+000 1.314124e+000
         vertex 5.925294e+000 5.578815e+000 1.314124e+000
         vertex 5.618305e+000 5.841009e+000 1.314124e+000
      endloop
   endfacet
   facet normal 0.000000e+000 0.000000e+000 1.000000e+000
      outer loop
         vertex 5.618305e+000 5.841009e+000 1.314124e+000
         vertex 5.274079e+000 6.051950e+000 1.314124e+000
         vertex 3.311022e+000 1.312711e+000 1.314124e+000
      endloop
   endfacet
   facet normal 0.000000e+000 0.000000e+000 1.000000e+000
      outer loop
         vertex 3.311022e+000 1.312711e+000 1.314124e+000
         vertex 5.274079e+000 6.051950e+000 1.314124e+000
         vertex 4.901093e+000 6.206446e+000 1.314124e+000
      endloop
   endfacet
   facet normal 0.000000e+000 0.000000e+000 1.000000e+000
      outer loop
         vertex 3.311022e+000 1.312711e+000 1.314124e+000
         vertex 4.901093e+000 6.206446e+000 1.314124e+000
         vertex 4.508530e+000 6.300693e+000 1.314124e+000
      endloop
   endfacet
   facet normal 0.000000e+000 0.000000e+000 1.000000e+000
      outer loop
         vertex 3.311022e+000 6.206446e+000 1.314124e+000
         vertex 2.938036e+000 6.051950e+000 1.314124e+000
         vertex 1.564944e+000 3.357106e+000 1.314124e+000
      endloop
   endfacet
   facet normal 0.000000e+000 0.000000e+000 1.000000e+000
      outer loop
         vertex 1.564944e+000 3.357106e+000 1.314124e+000
         vertex 2.938036e+000 6.051950e+000 1.314124e+000
         vertex 2.593810e+000 5.841009e+000 1.314124e+000
      endloop
   endfacet
   facet normal 0.000000e+000 0.000000e+000 1.000000e+000
      outer loop
         vertex 1.564944e+000 3.357106e+000 1.314124e+000
         vertex 2.593810e+000 5.841009e+000 1.314124e+000
         vertex 2.286821e+000 5.578815e+000 1.314124e+000
      endloop
   endfacet
   facet normal 0.000000e+000 0.000000e+000 1.000000e+000
      outer loop
         vertex 1.564944e+000 3.357106e+000 1.314124e+000
         vertex 1.659190e+000 2.964543e+000 1.314124e+000
         vertex 3.703585e+000 6.300693e+000 1.314124e+000
      endloop
   endfacet
   facet normal 0.000000e+000 0.000000e+000 1.000000e+000
      outer loop
         vertex 3.703585e+000 6.300693e+000 1.314124e+000
         vertex 1.659190e+000 2.964543e+000 1.314124e+000
         vertex 1.813686e+000 2.591557e+000 1.314124e+000
      endloop
   endfacet
   facet normal 0.000000e+000 0.000000e+000 1.000000e+000
      outer loop
         vertex 3.703585e+000 6.300693e+000 1.314124e+000
         vertex 1.813686e+000 2.591557e+000 1.314124e+000
         vertex 2.024627e+000 2.247331e+000 1.314124e+000
      endloop
   endfacet
   facet normal 0.000000e+000 0.000000e+000 1.000000e+000
      outer loop
         vertex 2.024627e+000 2.247331e+000 1.314124e+000
         vertex 2.286821e+000 1.940342e+000 1.314124e+000
         vertex 3.703585e+000 6.300693e+000 1.314124e+000
      endloop
   endfacet
   facet normal 0.000000e+000 0.000000e+000 1.000000e+000
      outer loop
         vertex 3.703585e+000 6.300693e+000 1.314124e+000
         vertex 2.286821e+000 1.940342e+000 1.314124e+000
         vertex 2.593810e+000 1.678149e+000 1.314124e+000
      endloop
   endfacet
   facet normal 0.000000e+000 0.000000e+000 1.000000e+000
      outer loop
         vertex 3.703585e+000 6.300693e+000 1.314124e+000
         vertex 2.593810e+000 1.678149e+000 1.314124e+000
         vertex 2.938036e+000 1.467207e+000 1.314124e+000
      endloop
   endfacet
   facet normal 0.000000e+000 0.000000e+000 1.000000e+000
      outer loop
         vertex 1.813686e+000 4.927600e+000 1.314124e+000
         vertex 1.659190e+000 4.554615e+000 1.314124e+000
         vertex 1.564944e+000 4.162052e+000 1.314124e+000
      endloop
   endfacet
   facet normal 0.000000e+000 0.000000e+000 1.000000e+000
      outer loop
         vertex 2.286821e+000 5.578815e+000 1.314124e+000
         vertex 2.024627e+000 5.271826e+000 1.314124e+000
         vertex 1.564944e+000 3.357106e+000 1.314124e+000
      endloop
   endfacet
   facet normal 0.000000e+000 0.000000e+000 1.000000e+000
      outer loop
         vertex 1.564944e+000 3.357106e+000 1.314124e+000
         vertex 2.024627e+000 5.271826e+000 1.314124e+000
         vertex 1.813686e+000 4.927600e+000 1.314124e+000
      endloop
   endfacet
   facet normal 0.000000e+000 0.000000e+000 1.000000e+000
      outer loop
         vertex 1.564944e+000 3.357106e+000 1.314124e+000
         vertex 1.813686e+000 4.927600e+000 1.314124e+000
         vertex 1.533269e+000 3.759579e+000 1.314124e+000
      endloop
   endfacet
   facet normal 0.000000e+000 0.000000e+000 1.000000e+000
      outer loop
         vertex 1.533269e+000 3.759579e+000 1.314124e+000
         vertex 1.813686e+000 4.927600e+000 1.314124e+000
         vertex 1.564944e+000 4.162052e+000 1.314124e+000
      endloop
   endfacet
endsolid