solid 2_358
   facet normal -1.000000e+000 0.000000e+000 0.000000e+000
      outer loop
         vertex 0.000000e+000 1.000000e+001 1.000000e+001
         vertex 0.000000e+000 1.000000e+001 0.000000e+000
         vertex 0.000000e+000 0.000000e+000 1.000000e+001
      endloop
   endfacet
   facet normal -1.000000e+000 0.000000e+000 0.000000e+000
      outer loop
         vertex 0.000000e+000 0.000000e+000 1.000000e+001
         vertex 0.000000e+000 1.000000e+001 0.000000e+000
         vertex 0.000000e+000 0.000000e+000 0.000000e+000
      endloop
   endfacet
   facet normal 0.000000e+000 0.000000e+000 1.000000e+000
      outer loop
         vertex 8.383130e+000 3.527345e+000 1.000000e+001
         vertex 8.222560e+000 3.054321e+000 1.000000e+001
         vertex 1.000000e+001 0.000000e+000 1.000000e+001
      endloop
   endfacet
   facet normal 0.000000e+000 0.000000e+000 1.000000e+000
      outer loop
         vertex 1.000000e+001 0.000000e+000 1.000000e+001
         vertex 6.155791e+000 9.875525e-001 1.000000e+001
         vertex 5.682766e+000 8.269823e-001 1.000000e+001
      endloop
   endfacet
   facet normal 0.000000e+000 0.000000e+000 1.000000e+000
      outer loop
         vertex 5.682766e+000 8.204511e+000 1.000000e+001
         vertex 6.155791e+000 8.043941e+000 1.000000e+001
         vertex 1.000000e+001 1.000000e+001 1.000000e+001
      endloop
   endfacet
   facet normal 0.000000e+000 0.000000e+000 1.000000e+000
      outer loop
         vertex 6.155791e+000 8.043941e+000 1.000000e+001
         vertex 6.603810e+000 7.823001e+000 1.000000e+001
         vertex 1.000000e+001 1.000000e+001 1.000000e+001
      endloop
   endfacet
   facet normal 0.000000e+000 0.000000e+000 1.000000e+000
      outer loop
         vertex 1.000000e+001 1.000000e+001 1.000000e+001
         vertex 6.603810e+000 7.823001e+000 1.000000e+001
         vertex 7.019158e+000 7.545475e+000 1.000000e+001
      endloop
   endfacet
   facet normal 0.000000e+000 0.000000e+000 1.000000e+000
      outer loop
         vertex 1.000000e+001 1.000000e+001 1.000000e+001
         vertex 7.019158e+000 7.545475e+000 1.000000e+001
         vertex 7.394728e+000 7.216109e+000 1.000000e+001
      endloop
   endfacet
   facet normal 0.000000e+000 0.000000e+000 1.000000e+000
      outer loop
         vertex 1.000000e+001 1.000000e+001 1.000000e+001
         vertex 8.222560e+000 5.977172e+000 1.000000e+001
         vertex 8.383130e+000 5.504148e+000 1.000000e+001
      endloop
   endfacet
   facet normal 0.000000e+000 0.000000e+000 1.000000e+000
      outer loop
         vertex 7.394728e+000 7.216109e+000 1.000000e+001
         vertex 7.724094e+000 6.840539e+000 1.000000e+001
         vertex 1.000000e+001 1.000000e+001 1.000000e+001
      endloop
   endfacet
   facet normal 0.000000e+000 0.000000e+000 1.000000e+000
      outer loop
         vertex 1.000000e+001 1.000000e+001 1.000000e+001
         vertex 7.724094e+000 6.840539e+000 1.000000e+001
         vertex 8.001621e+000 6.425191e+000 1.000000e+001
      endloop
   endfacet
   facet normal 0.000000e+000 0.000000e+000 1.000000e+000
      outer loop
         vertex 1.000000e+001 1.000000e+001 1.000000e+001
         vertex 8.001621e+000 6.425191e+000 1.000000e+001
         vertex 8.222560e+000 5.977172e+000 1.000000e+001
      endloop
   endfacet
   facet normal 0.000000e+000 0.000000e+000 1.000000e+000
      outer loop
         vertex 8.222560e+000 3.054321e+000 1.000000e+001
         vertex 8.001621e+000 2.606302e+000 1.000000e+001
         vertex 1.000000e+001 0.000000e+000 1.000000e+001
      endloop
   endfacet
   facet normal 0.000000e+000 0.000000e+000 1.000000e+000
      outer loop
         vertex 1.000000e+001 0.000000e+000 1.000000e+001
         vertex 8.001621e+000 2.606302e+000 1.000000e+001
         vertex 7.724094e+000 2.190953e+000 1.000000e+001
      endloop
   endfacet
   facet normal 0.000000e+000 0.000000e+000 1.000000e+000
      outer loop
         vertex 1.000000e+001 0.000000e+000 1.000000e+001
         vertex 7.724094e+000 2.190953e+000 1.000000e+001
         vertex 7.394728e+000 1.815384e+000 1.000000e+001
      endloop
   endfacet
   facet normal 0.000000e+000 0.000000e+000 1.000000e+000
      outer loop
         vertex 2.784921e+000 1.208491e+000 1.000000e+001
         vertex 0.000000e+000 0.000000e+000 1.000000e+001
         vertex 3.232940e+000 9.875525e-001 1.000000e+001
      endloop
   endfacet
   facet normal 0.000000e+000 0.000000e+000 1.000000e+000
      outer loop
         vertex 3.232940e+000 9.875525e-001 1.000000e+001
         vertex 0.000000e+000 0.000000e+000 1.000000e+001
         vertex 3.705964e+000 8.269823e-001 1.000000e+001
      endloop
   endfacet
   facet normal 0.000000e+000 0.000000e+000 1.000000e+000
      outer loop
         vertex 8.383130e+000 5.504148e+000 1.000000e+001
         vertex 8.480583e+000 5.014211e+000 1.000000e+001
         vertex 1.000000e+001 1.000000e+001 1.000000e+001
      endloop
   endfacet
   facet normal 0.000000e+000 0.000000e+000 1.000000e+000
      outer loop
         vertex 1.000000e+001 1.000000e+001 1.000000e+001
         vertex 8.480583e+000 5.014211e+000 1.000000e+001
         vertex 8.513255e+000 4.515746e+000 1.000000e+001
      endloop
   endfacet
   facet normal 0.000000e+000 0.000000e+000 1.000000e+000
      outer loop
         vertex 1.000000e+001 1.000000e+001 1.000000e+001
         vertex 8.513255e+000 4.515746e+000 1.000000e+001
         vertex 1.000000e+001 0.000000e+000 1.000000e+001
      endloop
   endfacet
   facet normal 0.000000e+000 0.000000e+000 1.000000e+000
      outer loop
         vertex 1.000000e+001 0.000000e+000 1.000000e+001
         vertex 8.513255e+000 4.515746e+000 1.000000e+001
         vertex 8.480583e+000 4.017282e+000 1.000000e+001
      endloop
   endfacet
   facet normal 0.000000e+000 0.000000e+000 1.000000e+000
      outer loop
         vertex 1.000000e+001 0.000000e+000 1.000000e+001
         vertex 8.480583e+000 4.017282e+000 1.000000e+001
         vertex 8.383130e+000 3.527345e+000 1.000000e+001
      endloop
   endfacet
   facet normal 0.000000e+000 0.000000e+000 1.000000e+000
      outer loop
         vertex 7.394728e+000 1.815384e+000 1.000000e+001
         vertex 7.019158e+000 1.486018e+000 1.000000e+001
         vertex 1.000000e+001 0.000000e+000 1.000000e+001
      endloop
   endfacet
   facet normal 0.000000e+000 0.000000e+000 1.000000e+000
      outer loop
         vertex 1.000000e+001 0.000000e+000 1.000000e+001
         vertex 7.019158e+000 1.486018e+000 1.000000e+001
         vertex 6.603810e+000 1.208491e+000 1.000000e+001
      endloop
   endfacet
   facet normal 0.000000e+000 0.000000e+000 1.000000e+000
      outer loop
         vertex 1.000000e+001 0.000000e+000 1.000000e+001
         vertex 6.603810e+000 1.208491e+000 1.000000e+001
         vertex 6.155791e+000 9.875525e-001 1.000000e+001
      endloop
   endfacet
   facet normal 0.000000e+000 0.000000e+000 1.000000e+000
      outer loop
         vertex 3.705964e+000 8.204511e+000 1.000000e+001
         vertex 4.195900e+000 8.301965e+000 1.000000e+001
         vertex 0.000000e+000 1.000000e+001 1.000000e+001
      endloop
   endfacet
   facet normal 0.000000e+000 0.000000e+000 1.000000e+000
      outer loop
         vertex 0.000000e+000 1.000000e+001 1.000000e+001
         vertex 4.195900e+000 8.301965e+000 1.000000e+001
         vertex 4.694366e+000 8.334636e+000 1.000000e+001
      endloop
   endfacet
   facet normal 0.000000e+000 0.000000e+000 1.000000e+000
      outer loop
         vertex 0.000000e+000 1.000000e+001 1.000000e+001
         vertex 4.694366e+000 8.334636e+000 1.000000e+001
         vertex 1.000000e+001 1.000000e+001 1.000000e+001
      endloop
   endfacet
   facet normal 0.000000e+000 0.000000e+000 1.000000e+000
      outer loop
         vertex 1.000000e+001 1.000000e+001 1.000000e+001
         vertex 4.694366e+000 8.334636e+000 1.000000e+001
         vertex 5.192830e+000 8.301965e+000 1.000000e+001
      endloop
   endfacet
   facet normal 0.000000e+000 0.000000e+000 1.000000e+000
      outer loop
         vertex 1.000000e+001 1.000000e+001 1.000000e+001
         vertex 5.192830e+000 8.301965e+000 1.000000e+001
         vertex 5.682766e+000 8.204511e+000 1.000000e+001
      endloop
   endfacet
   facet normal 0.000000e+000 0.000000e+000 1.000000e+000
      outer loop
         vertex 5.682766e+000 8.269823e-001 1.000000e+001
         vertex 5.192830e+000 7.295279e-001 1.000000e+001
         vertex 1.000000e+001 0.000000e+000 1.000000e+001
      endloop
   endfacet
   facet normal 0.000000e+000 0.000000e+000 1.000000e+000
      outer loop
         vertex 1.000000e+001 0.000000e+000 1.000000e+001
         vertex 5.192830e+000 7.295279e-001 1.000000e+001
         vertex 4.694366e+000 6.968567e-001 1.000000e+001
      endloop
   endfacet
   facet normal 0.000000e+000 0.000000e+000 1.000000e+000
      outer loop
         vertex 1.000000e+001 0.000000e+000 1.000000e+001
         vertex 4.694366e+000 6.968567e-001 1.000000e+001
         vertex 0.000000e+000 0.000000e+000 1.000000e+001
      endloop
   endfacet
   facet normal 0.000000e+000 0.000000e+000 1.000000e+000
      outer loop
         vertex 0.000000e+000 0.000000e+000 1.000000e+001
         vertex 4.694366e+000 6.968567e-001 1.000000e+001
         vertex 4.195900e+000 7.295279e-001 1.000000e+001
      endloop
   endfacet
   facet normal 0.000000e+000 0.000000e+000 1.000000e+000
      outer loop
         vertex 0.000000e+000 0.000000e+000 1.000000e+001
         vertex 4.195900e+000 7.295279e-001 1.000000e+001
         vertex 3.705964e+000 8.269823e-001 1.000000e+001
      endloop
   endfacet
   facet normal 0.000000e+000 0.000000e+000 1.000000e+000
      outer loop
         vertex 2.369573e+000 7.545475e+000 1.000000e+001
         vertex 2.784921e+000 7.823001e+000 1.000000e+001
         vertex 0.000000e+000 1.000000e+001 1.000000e+001
      endloop
   endfacet
   facet normal 0.000000e+000 0.000000e+000 1.000000e+000
      outer loop
         vertex 0.000000e+000 1.000000e+001 1.000000e+001
         vertex 2.784921e+000 7.823001e+000 1.000000e+001
         vertex 3.232940e+000 8.043941e+000 1.000000e+001
      endloop
   endfacet
   facet normal 0.000000e+000 0.000000e+000 1.000000e+000
      outer loop
         vertex 0.000000e+000 1.000000e+001 1.000000e+001
         vertex 3.232940e+000 8.043941e+000 1.000000e+001
         vertex 3.705964e+000 8.204511e+000 1.000000e+001
      endloop
   endfacet
   facet normal 0.000000e+000 0.000000e+000 1.000000e+000
      outer loop
         vertex 2.784921e+000 1.208491e+000 1.000000e+001
         vertex 2.369573e+000 1.486018e+000 1.000000e+001
         vertex 0.000000e+000 0.000000e+000 1.000000e+001
      endloop
   endfacet
   facet normal 0.000000e+000 0.000000e+000 1.000000e+000
      outer loop
         vertex 0.000000e+000 0.000000e+000 1.000000e+001
         vertex 2.369573e+000 1.486018e+000 1.000000e+001
         vertex 1.994003e+000 1.815384e+000 1.000000e+001
      endloop
   endfacet
   facet normal 0.000000e+000 0.000000e+000 1.000000e+000
      outer loop
         vertex 0.000000e+000 0.000000e+000 1.000000e+001
         vertex 1.994003e+000 1.815384e+000 1.000000e+001
         vertex 1.664636e+000 2.190953e+000 1.000000e+001
      endloop
   endfacet
   facet normal 0.000000e+000 0.000000e+000 1.000000e+000
      outer loop
         vertex 9.081469e-001 5.014211e+000 1.000000e+001
         vertex 0.000000e+000 1.000000e+001 1.000000e+001
         vertex 8.754758e-001 4.515746e+000 1.000000e+001
      endloop
   endfacet
   facet normal 0.000000e+000 0.000000e+000 1.000000e+000
      outer loop
         vertex 8.754758e-001 4.515746e+000 1.000000e+001
         vertex 0.000000e+000 1.000000e+001 1.000000e+001
         vertex 0.000000e+000 0.000000e+000 1.000000e+001
      endloop
   endfacet
   facet normal 0.000000e+000 0.000000e+000 1.000000e+000
      outer loop
         vertex 8.754758e-001 4.515746e+000 1.000000e+001
         vertex 0.000000e+000 0.000000e+000 1.000000e+001
         vertex 9.081469e-001 4.017282e+000 1.000000e+001
      endloop
   endfacet
   facet normal 0.000000e+000 0.000000e+000 1.000000e+000
      outer loop
         vertex 9.081469e-001 4.017282e+000 1.000000e+001
         vertex 0.000000e+000 0.000000e+000 1.000000e+001
         vertex 1.005601e+000 3.527345e+000 1.000000e+001
      endloop
   endfacet
   facet normal 0.000000e+000 0.000000e+000 1.000000e+000
      outer loop
         vertex 9.081469e-001 5.014211e+000 1.000000e+001
         vertex 1.005601e+000 5.504148e+000 1.000000e+001
         vertex 0.000000e+000 1.000000e+001 1.000000e+001
      endloop
   endfacet
   facet normal 0.000000e+000 0.000000e+000 1.000000e+000
      outer loop
         vertex 0.000000e+000 1.000000e+001 1.000000e+001
         vertex 1.005601e+000 5.504148e+000 1.000000e+001
         vertex 1.166171e+000 5.977172e+000 1.000000e+001
      endloop
   endfacet
   facet normal 0.000000e+000 0.000000e+000 1.000000e+000
      outer loop
         vertex 0.000000e+000 1.000000e+001 1.000000e+001
         vertex 1.166171e+000 5.977172e+000 1.000000e+001
         vertex 1.387110e+000 6.425191e+000 1.000000e+001
      endloop
   endfacet
   facet normal 0.000000e+000 0.000000e+000 1.000000e+000
      outer loop
         vertex 1.664636e+000 2.190953e+000 1.000000e+001
         vertex 1.387110e+000 2.606302e+000 1.000000e+001
         vertex 0.000000e+000 0.000000e+000 1.000000e+001
      endloop
   endfacet
   facet normal 0.000000e+000 0.000000e+000 1.000000e+000
      outer loop
         vertex 0.000000e+000 0.000000e+000 1.000000e+001
         vertex 1.387110e+000 2.606302e+000 1.000000e+001
         vertex 1.166171e+000 3.054321e+000 1.000000e+001
      endloop
   endfacet
   facet normal 0.000000e+000 0.000000e+000 1.000000e+000
      outer loop
         vertex 0.000000e+000 0.000000e+000 1.000000e+001
         vertex 1.166171e+000 3.054321e+000 1.000000e+001
         vertex 1.005601e+000 3.527345e+000 1.000000e+001
      endloop
   endfacet
   facet normal 0.000000e+000 0.000000e+000 1.000000e+000
      outer loop
         vertex 1.387110e+000 6.425191e+000 1.000000e+001
         vertex 1.664636e+000 6.840539e+000 1.000000e+001
         vertex 0.000000e+000 1.000000e+001 1.000000e+001
      endloop
   endfacet
   facet normal 0.000000e+000 0.000000e+000 1.000000e+000
      outer loop
         vertex 0.000000e+000 1.000000e+001 1.000000e+001
         vertex 1.664636e+000 6.840539e+000 1.000000e+001
         vertex 1.994003e+000 7.216109e+000 1.000000e+001
      endloop
   endfacet
   facet normal 0.000000e+000 0.000000e+000 1.000000e+000
      outer loop
         vertex 0.000000e+000 1.000000e+001 1.000000e+001
         vertex 1.994003e+000 7.216109e+000 1.000000e+001
         vertex 2.369573e+000 7.545475e+000 1.000000e+001
      endloop
   endfacet
   facet normal 1.000000e+000 0.000000e+000 0.000000e+000
      outer loop
         vertex 1.000000e+001 1.000000e+001 0.000000e+000
         vertex 1.000000e+001 1.000000e+001 1.000000e+001
         vertex 1.000000e+001 0.000000e+000 0.000000e+000
      endloop
   endfacet
   facet normal 1.000000e+000 0.000000e+000 0.000000e+000
      outer loop
         vertex 1.000000e+001 0.000000e+000 0.000000e+000
         vertex 1.000000e+001 1.000000e+001 1.000000e+001
         vertex 1.000000e+001 0.000000e+000 1.000000e+001
      endloop
   endfacet
   facet normal 0.000000e+000 0.000000e+000 -1.000000e+000
      outer loop
         vertex 0.000000e+000 1.000000e+001 0.000000e+000
         vertex 1.000000e+001 1.000000e+001 0.000000e+000
         vertex 0.000000e+000 0.000000e+000 0.000000e+000
      endloop
   endfacet
   facet normal 0.000000e+000 0.000000e+000 -1.000000e+000
      outer loop
         vertex 0.000000e+000 0.000000e+000 0.000000e+000
         vertex 1.000000e+001 1.000000e+001 0.000000e+000
         vertex 1.000000e+001 0.000000e+000 0.000000e+000
      endloop
   endfacet
   facet normal 0.000000e+000 1.000000e+000 0.000000e+000
      outer loop
         vertex 1.000000e+001 1.000000e+001 1.000000e+001
         vertex 1.000000e+001 1.000000e+001 0.000000e+000
         vertex 0.000000e+000 1.000000e+001 1.000000e+001
      endloop
   endfacet
   facet normal 0.000000e+000 1.000000e+000 0.000000e+000
      outer loop
         vertex 0.000000e+000 1.000000e+001 1.000000e+001
         vertex 1.000000e+001 1.000000e+001 0.000000e+000
         vertex 0.000000e+000 1.000000e+001 0.000000e+000
      endloop
   endfacet
   facet normal 0.000000e+000 -1.000000e+000 0.000000e+000
      outer loop
         vertex 1.000000e+001 0.000000e+000 0.000000e+000
         vertex 1.000000e+001 0.000000e+000 1.000000e+001
         vertex 0.000000e+000 0.000000e+000 0.000000e+000
      endloop
   endfacet
   facet normal 0.000000e+000 -1.000000e+000 0.000000e+000
      outer loop
         vertex 0.000000e+000 0.000000e+000 0.000000e+000
         vertex 1.000000e+001 0.000000e+000 1.000000e+001
         vertex 0.000000e+000 0.000000e+000 1.000000e+001
      endloop
   endfacet
   facet normal -9.990495e-001 4.359168e-002 0.000000e+000
      outer loop
         vertex 8.480583e+000 4.017282e+000 2.242356e+000
         vertex 8.513255e+000 4.515746e+000 1.000000e+001
         vertex 8.513255e+000 4.515746e+000 2.242356e+000
      endloop
   endfacet
   facet normal -9.990495e-001 -4.359168e-002 0.000000e+000
      outer loop
         vertex 8.513255e+000 4.515746e+000 2.242356e+000
         vertex 8.513255e+000 4.515746e+000 1.000000e+001
         vertex 8.480583e+000 5.014211e+000 1.000000e+001
      endloop
   endfacet
   facet normal -9.961922e-001 -8.718336e-002 0.000000e+000
      outer loop
         vertex 8.513255e+000 4.515746e+000 2.242356e+000
         vertex 8.480583e+000 5.014211e+000 1.000000e+001
         vertex 8.480583e+000 5.014211e+000 2.242356e+000
      endloop
   endfacet
   facet normal -9.848126e-001 -1.736209e-001 0.000000e+000
      outer loop
         vertex 8.480583e+000 5.014211e+000 2.242356e+000
         vertex 8.480583e+000 5.014211e+000 1.000000e+001
         vertex 8.383130e+000 5.504148e+000 1.000000e+001
      endloop
   endfacet
   facet normal -9.762900e-001 -2.164667e-001 0.000000e+000
      outer loop
         vertex 8.480583e+000 5.014211e+000 2.242356e+000
         vertex 8.383130e+000 5.504148e+000 1.000000e+001
         vertex 8.383130e+000 5.504148e+000 2.242356e+000
      endloop
   endfacet
   facet normal -9.537253e-001 -3.006794e-001 0.000000e+000
      outer loop
         vertex 8.383130e+000 5.504148e+000 2.242356e+000
         vertex 8.383130e+000 5.504148e+000 1.000000e+001
         vertex 8.222560e+000 5.977172e+000 1.000000e+001
      endloop
   endfacet
   facet normal -9.396831e-001 -3.420462e-001 0.000000e+000
      outer loop
         vertex 8.383130e+000 5.504148e+000 2.242356e+000
         vertex 8.222560e+000 5.977172e+000 1.000000e+001
         vertex 8.222560e+000 5.977172e+000 2.242356e+000
      endloop
   endfacet
   facet normal -9.063195e-001 -4.225931e-001 0.000000e+000
      outer loop
         vertex 8.222560e+000 5.977172e+000 2.242356e+000
         vertex 8.222560e+000 5.977172e+000 1.000000e+001
         vertex 8.001621e+000 6.425191e+000 1.000000e+001
      endloop
   endfacet
   facet normal -8.869980e-001 -4.617732e-001 0.000000e+000
      outer loop
         vertex 8.222560e+000 5.977172e+000 2.242356e+000
         vertex 8.001621e+000 6.425191e+000 1.000000e+001
         vertex 8.001621e+000 6.425191e+000 2.242356e+000
      endloop
   endfacet
   facet normal -8.434063e-001 -5.372763e-001 0.000000e+000
      outer loop
         vertex 8.001621e+000 6.425191e+000 2.242356e+000
         vertex 8.001621e+000 6.425191e+000 1.000000e+001
         vertex 7.724094e+000 6.840539e+000 1.000000e+001
      endloop
   endfacet
   facet normal -8.191361e-001 -5.735992e-001 0.000000e+000
      outer loop
         vertex 8.001621e+000 6.425191e+000 2.242356e+000
         vertex 7.724094e+000 6.840539e+000 1.000000e+001
         vertex 7.724094e+000 6.840539e+000 2.242356e+000
      endloop
   endfacet
   facet normal -7.660623e-001 -6.427664e-001 0.000000e+000
      outer loop
         vertex 7.724094e+000 6.840539e+000 2.242356e+000
         vertex 7.724094e+000 6.840539e+000 1.000000e+001
         vertex 7.394728e+000 7.216109e+000 1.000000e+001
      endloop
   endfacet
   facet normal -7.372586e-001 -6.756107e-001 0.000000e+000
      outer loop
         vertex 7.724094e+000 6.840539e+000 2.242356e+000
         vertex 7.394728e+000 7.216109e+000 1.000000e+001
         vertex 7.394728e+000 7.216109e+000 2.242356e+000
      endloop
   endfacet
   facet normal -6.756107e-001 -7.372586e-001 0.000000e+000
      outer loop
         vertex 7.394728e+000 7.216109e+000 2.242356e+000
         vertex 7.394728e+000 7.216109e+000 1.000000e+001
         vertex 7.019158e+000 7.545475e+000 1.000000e+001
      endloop
   endfacet
   facet normal -6.427664e-001 -7.660623e-001 0.000000e+000
      outer loop
         vertex 7.394728e+000 7.216109e+000 2.242356e+000
         vertex 7.019158e+000 7.545475e+000 1.000000e+001
         vertex 7.019158e+000 7.545475e+000 2.242356e+000
      endloop
   endfacet
   facet normal -5.735992e-001 -8.191361e-001 0.000000e+000
      outer loop
         vertex 7.019158e+000 7.545475e+000 2.242356e+000
         vertex 7.019158e+000 7.545475e+000 1.000000e+001
         vertex 6.603810e+000 7.823001e+000 1.000000e+001
      endloop
   endfacet
   facet normal -5.372762e-001 -8.434064e-001 0.000000e+000
      outer loop
         vertex 7.019158e+000 7.545475e+000 2.242356e+000
         vertex 6.603810e+000 7.823001e+000 1.000000e+001
         vertex 6.603810e+000 7.823001e+000 2.242356e+000
      endloop
   endfacet
   facet normal -4.617732e-001 -8.869980e-001 0.000000e+000
      outer loop
         vertex 6.603810e+000 7.823001e+000 2.242356e+000
         vertex 6.603810e+000 7.823001e+000 1.000000e+001
         vertex 6.155791e+000 8.043941e+000 1.000000e+001
      endloop
   endfacet
   facet normal -4.225931e-001 -9.063195e-001 0.000000e+000
      outer loop
         vertex 6.603810e+000 7.823001e+000 2.242356e+000
         vertex 6.155791e+000 8.043941e+000 1.000000e+001
         vertex 6.155791e+000 8.043941e+000 2.242356e+000
      endloop
   endfacet
   facet normal -3.420462e-001 -9.396831e-001 0.000000e+000
      outer loop
         vertex 6.155791e+000 8.043941e+000 2.242356e+000
         vertex 6.155791e+000 8.043941e+000 1.000000e+001
         vertex 5.682766e+000 8.204511e+000 1.000000e+001
      endloop
   endfacet
   facet normal -3.006794e-001 -9.537253e-001 0.000000e+000
      outer loop
         vertex 6.155791e+000 8.043941e+000 2.242356e+000
         vertex 5.682766e+000 8.204511e+000 1.000000e+001
         vertex 5.682766e+000 8.204511e+000 2.242356e+000
      endloop
   endfacet
   facet normal -2.164667e-001 -9.762900e-001 0.000000e+000
      outer loop
         vertex 5.682766e+000 8.204511e+000 2.242356e+000
         vertex 5.682766e+000 8.204511e+000 1.000000e+001
         vertex 5.192830e+000 8.301965e+000 1.000000e+001
      endloop
   endfacet
   facet normal -1.736209e-001 -9.848126e-001 0.000000e+000
      outer loop
         vertex 5.682766e+000 8.204511e+000 2.242356e+000
         vertex 5.192830e+000 8.301965e+000 1.000000e+001
         vertex 5.192830e+000 8.301965e+000 2.242356e+000
      endloop
   endfacet
   facet normal -8.718336e-002 -9.961922e-001 0.000000e+000
      outer loop
         vertex 5.192830e+000 8.301965e+000 2.242356e+000
         vertex 5.192830e+000 8.301965e+000 1.000000e+001
         vertex 4.694366e+000 8.334636e+000 1.000000e+001
      endloop
   endfacet
   facet normal -4.359168e-002 -9.990495e-001 0.000000e+000
      outer loop
         vertex 5.192830e+000 8.301965e+000 2.242356e+000
         vertex 4.694366e+000 8.334636e+000 1.000000e+001
         vertex 4.694366e+000 8.334636e+000 2.242356e+000
      endloop
   endfacet
   facet normal 4.359168e-002 -9.990495e-001 0.000000e+000
      outer loop
         vertex 4.694366e+000 8.334636e+000 2.242356e+000
         vertex 4.694366e+000 8.334636e+000 1.000000e+001
         vertex 4.195900e+000 8.301965e+000 1.000000e+001
      endloop
   endfacet
   facet normal 8.718336e-002 -9.961922e-001 0.000000e+000
      outer loop
         vertex 4.694366e+000 8.334636e+000 2.242356e+000
         vertex 4.195900e+000 8.301965e+000 1.000000e+001
         vertex 4.195900e+000 8.301965e+000 2.242356e+000
      endloop
   endfacet
   facet normal 1.736209e-001 -9.848126e-001 0.000000e+000
      outer loop
         vertex 4.195900e+000 8.301965e+000 2.242356e+000
         vertex 4.195900e+000 8.301965e+000 1.000000e+001
         vertex 3.705964e+000 8.204511e+000 1.000000e+001
      endloop
   endfacet
   facet normal 2.164667e-001 -9.762900e-001 0.000000e+000
      outer loop
         vertex 4.195900e+000 8.301965e+000 2.242356e+000
         vertex 3.705964e+000 8.204511e+000 1.000000e+001
         vertex 3.705964e+000 8.204511e+000 2.242356e+000
      endloop
   endfacet
   facet normal 3.006794e-001 -9.537253e-001 0.000000e+000
      outer loop
         vertex 3.705964e+000 8.204511e+000 2.242356e+000
         vertex 3.705964e+000 8.204511e+000 1.000000e+001
         vertex 3.232940e+000 8.043941e+000 1.000000e+001
      endloop
   endfacet
   facet normal 3.420462e-001 -9.396831e-001 0.000000e+000
      outer loop
         vertex 3.705964e+000 8.204511e+000 2.242356e+000
         vertex 3.232940e+000 8.043941e+000 1.000000e+001
         vertex 3.232940e+000 8.043941e+000 2.242356e+000
      endloop
   endfacet
   facet normal 4.225931e-001 -9.063195e-001 0.000000e+000
      outer loop
         vertex 3.232940e+000 8.043941e+000 2.242356e+000
         vertex 3.232940e+000 8.043941e+000 1.000000e+001
         vertex 2.784921e+000 7.823001e+000 1.000000e+001
      endloop
   endfacet
   facet normal 4.617732e-001 -8.869980e-001 0.000000e+000
      outer loop
         vertex 3.232940e+000 8.043941e+000 2.242356e+000
         vertex 2.784921e+000 7.823001e+000 1.000000e+001
         vertex 2.784921e+000 7.823001e+000 2.242356e+000
      endloop
   endfacet
   facet normal 5.372763e-001 -8.434063e-001 0.000000e+000
      outer loop
         vertex 2.784921e+000 7.823001e+000 2.242356e+000
         vertex 2.784921e+000 7.823001e+000 1.000000e+001
         vertex 2.369573e+000 7.545475e+000 1.000000e+001
      endloop
   endfacet
   facet normal 5.735992e-001 -8.191361e-001 0.000000e+000
      outer loop
         vertex 2.784921e+000 7.823001e+000 2.242356e+000
         vertex 2.369573e+000 7.545475e+000 1.000000e+001
         vertex 2.369573e+000 7.545475e+000 2.242356e+000
      endloop
   endfacet
   facet normal 6.427664e-001 -7.660623e-001 0.000000e+000
      outer loop
         vertex 2.369573e+000 7.545475e+000 2.242356e+000
         vertex 2.369573e+000 7.545475e+000 1.000000e+001
         vertex 1.994003e+000 7.216109e+000 1.000000e+001
      endloop
   endfacet
   facet normal 6.756107e-001 -7.372586e-001 0.000000e+000
      outer loop
         vertex 2.369573e+000 7.545475e+000 2.242356e+000
         vertex 1.994003e+000 7.216109e+000 1.000000e+001
         vertex 1.994003e+000 7.216109e+000 2.242356e+000
      endloop
   endfacet
   facet normal 7.372586e-001 -6.756107e-001 0.000000e+000
      outer loop
         vertex 1.994003e+000 7.216109e+000 2.242356e+000
         vertex 1.994003e+000 7.216109e+000 1.000000e+001
         vertex 1.664636e+000 6.840539e+000 1.000000e+001
      endloop
   endfacet
   facet normal 7.660623e-001 -6.427664e-001 0.000000e+000
      outer loop
         vertex 1.994003e+000 7.216109e+000 2.242356e+000
         vertex 1.664636e+000 6.840539e+000 1.000000e+001
         vertex 1.664636e+000 6.840539e+000 2.242356e+000
      endloop
   endfacet
   facet normal 8.191361e-001 -5.735992e-001 0.000000e+000
      outer loop
         vertex 1.664636e+000 6.840539e+000 2.242356e+000
         vertex 1.664636e+000 6.840539e+000 1.000000e+001
         vertex 1.387110e+000 6.425191e+000 1.000000e+001
      endloop
   endfacet
   facet normal 8.434064e-001 -5.372762e-001 0.000000e+000
      outer loop
         vertex 1.664636e+000 6.840539e+000 2.242356e+000
         vertex 1.387110e+000 6.425191e+000 1.000000e+001
         vertex 1.387110e+000 6.425191e+000 2.242356e+000
      endloop
   endfacet
   facet normal 8.869980e-001 -4.617732e-001 0.000000e+000
      outer loop
         vertex 1.387110e+000 6.425191e+000 2.242356e+000
         vertex 1.387110e+000 6.425191e+000 1.000000e+001
         vertex 1.166171e+000 5.977172e+000 1.000000e+001
      endloop
   endfacet
   facet normal 9.063195e-001 -4.225931e-001 0.000000e+000
      outer loop
         vertex 1.387110e+000 6.425191e+000 2.242356e+000
         vertex 1.166171e+000 5.977172e+000 1.000000e+001
         vertex 1.166171e+000 5.977172e+000 2.242356e+000
      endloop
   endfacet
   facet normal 9.396831e-001 -3.420462e-001 0.000000e+000
      outer loop
         vertex 1.166171e+000 5.977172e+000 2.242356e+000
         vertex 1.166171e+000 5.977172e+000 1.000000e+001
         vertex 1.005601e+000 5.504148e+000 1.000000e+001
      endloop
   endfacet
   facet normal 9.537253e-001 -3.006794e-001 0.000000e+000
      outer loop
         vertex 1.166171e+000 5.977172e+000 2.242356e+000
         vertex 1.005601e+000 5.504148e+000 1.000000e+001
         vertex 1.005601e+000 5.504148e+000 2.242356e+000
      endloop
   endfacet
   facet normal 9.762900e-001 -2.164667e-001 0.000000e+000
      outer loop
         vertex 1.005601e+000 5.504148e+000 2.242356e+000
         vertex 1.005601e+000 5.504148e+000 1.000000e+001
         vertex 9.081469e-001 5.014211e+000 1.000000e+001
      endloop
   endfacet
   facet normal 9.848126e-001 -1.736209e-001 0.000000e+000
      outer loop
         vertex 1.005601e+000 5.504148e+000 2.242356e+000
         vertex 9.081469e-001 5.014211e+000 1.000000e+001
         vertex 9.081469e-001 5.014211e+000 2.242356e+000
      endloop
   endfacet
   facet normal 9.961922e-001 -8.718336e-002 0.000000e+000
      outer loop
         vertex 9.081469e-001 5.014211e+000 2.242356e+000
         vertex 9.081469e-001 5.014211e+000 1.000000e+001
         vertex 8.754758e-001 4.515746e+000 1.000000e+001
      endloop
   endfacet
   facet normal 9.990495e-001 -4.359168e-002 0.000000e+000
      outer loop
         vertex 9.081469e-001 5.014211e+000 2.242356e+000
         vertex 8.754758e-001 4.515746e+000 1.000000e+001
         vertex 8.754758e-001 4.515746e+000 2.242356e+000
      endloop
   endfacet
   facet normal 9.990495e-001 4.359168e-002 0.000000e+000
      outer loop
         vertex 8.754758e-001 4.515746e+000 2.242356e+000
         vertex 8.754758e-001 4.515746e+000 1.000000e+001
         vertex 9.081469e-001 4.017282e+000 1.000000e+001
      endloop
   endfacet
   facet normal 9.961922e-001 8.718336e-002 0.000000e+000
      outer loop
         vertex 8.754758e-001 4.515746e+000 2.242356e+000
         vertex 9.081469e-001 4.017282e+000 1.000000e+001
         vertex 9.081469e-001 4.017282e+000 2.242356e+000
      endloop
   endfacet
   facet normal 9.848126e-001 1.736209e-001 0.000000e+000
      outer loop
         vertex 9.081469e-001 4.017282e+000 2.242356e+000
         vertex 9.081469e-001 4.017282e+000 1.000000e+001
         vertex 1.005601e+000 3.527345e+000 1.000000e+001
      endloop
   endfacet
   facet normal 9.762900e-001 2.164667e-001 0.000000e+000
      outer loop
         vertex 9.081469e-001 4.017282e+000 2.242356e+000
         vertex 1.005601e+000 3.527345e+000 1.000000e+001
         vertex 1.005601e+000 3.527345e+000 2.242356e+000
      endloop
   endfacet
   facet normal 9.537253e-001 3.006794e-001 0.000000e+000
      outer loop
         vertex 1.005601e+000 3.527345e+000 2.242356e+000
         vertex 1.005601e+000 3.527345e+000 1.000000e+001
         vertex 1.166171e+000 3.054321e+000 1.000000e+001
      endloop
   endfacet
   facet normal 9.396831e-001 3.420462e-001 0.000000e+000
      outer loop
         vertex 1.005601e+000 3.527345e+000 2.242356e+000
         vertex 1.166171e+000 3.054321e+000 1.000000e+001
         vertex 1.166171e+000 3.054321e+000 2.242356e+000
      endloop
   endfacet
   facet normal 9.063195e-001 4.225931e-001 0.000000e+000
      outer loop
         vertex 1.166171e+000 3.054321e+000 2.242356e+000
         vertex 1.166171e+000 3.054321e+000 1.000000e+001
         vertex 1.387110e+000 2.606302e+000 1.000000e+001
      endloop
   endfacet
   facet normal 8.869980e-001 4.617732e-001 0.000000e+000
      outer loop
         vertex 1.166171e+000 3.054321e+000 2.242356e+000
         vertex 1.387110e+000 2.606302e+000 1.000000e+001
         vertex 1.387110e+000 2.606302e+000 2.242356e+000
      endloop
   endfacet
   facet normal 8.434063e-001 5.372763e-001 0.000000e+000
      outer loop
         vertex 1.387110e+000 2.606302e+000 2.242356e+000
         vertex 1.387110e+000 2.606302e+000 1.000000e+001
         vertex 1.664636e+000 2.190953e+000 1.000000e+001
      endloop
   endfacet
   facet normal 8.191361e-001 5.735992e-001 0.000000e+000
      outer loop
         vertex 1.387110e+000 2.606302e+000 2.242356e+000
         vertex 1.664636e+000 2.190953e+000 1.000000e+001
         vertex 1.664636e+000 2.190953e+000 2.242356e+000
      endloop
   endfacet
   facet normal 7.660623e-001 6.427664e-001 0.000000e+000
      outer loop
         vertex 1.664636e+000 2.190953e+000 2.242356e+000
         vertex 1.664636e+000 2.190953e+000 1.000000e+001
         vertex 1.994003e+000 1.815384e+000 1.000000e+001
      endloop
   endfacet
   facet normal 7.372586e-001 6.756107e-001 0.000000e+000
      outer loop
         vertex 1.664636e+000 2.190953e+000 2.242356e+000
         vertex 1.994003e+000 1.815384e+000 1.000000e+001
         vertex 1.994003e+000 1.815384e+000 2.242356e+000
      endloop
   endfacet
   facet normal 6.756107e-001 7.372586e-001 0.000000e+000
      outer loop
         vertex 1.994003e+000 1.815384e+000 2.242356e+000
         vertex 1.994003e+000 1.815384e+000 1.000000e+001
         vertex 2.369573e+000 1.486018e+000 1.000000e+001
      endloop
   endfacet
   facet normal 6.427664e-001 7.660623e-001 0.000000e+000
      outer loop
         vertex 1.994003e+000 1.815384e+000 2.242356e+000
         vertex 2.369573e+000 1.486018e+000 1.000000e+001
         vertex 2.369573e+000 1.486018e+000 2.242356e+000
      endloop
   endfacet
   facet normal 5.735992e-001 8.191361e-001 0.000000e+000
      outer loop
         vertex 2.369573e+000 1.486018e+000 2.242356e+000
         vertex 2.369573e+000 1.486018e+000 1.000000e+001
         vertex 2.784921e+000 1.208491e+000 1.000000e+001
      endloop
   endfacet
   facet normal 5.372762e-001 8.434064e-001 0.000000e+000
      outer loop
         vertex 2.369573e+000 1.486018e+000 2.242356e+000
         vertex 2.784921e+000 1.208491e+000 1.000000e+001
         vertex 2.784921e+000 1.208491e+000 2.242356e+000
      endloop
   endfacet
   facet normal 4.617732e-001 8.869980e-001 0.000000e+000
      outer loop
         vertex 2.784921e+000 1.208491e+000 2.242356e+000
         vertex 2.784921e+000 1.208491e+000 1.000000e+001
         vertex 3.232940e+000 9.875525e-001 1.000000e+001
      endloop
   endfacet
   facet normal 4.225931e-001 9.063195e-001 0.000000e+000
      outer loop
         vertex 2.784921e+000 1.208491e+000 2.242356e+000
         vertex 3.232940e+000 9.875525e-001 1.000000e+001
         vertex 3.232940e+000 9.875525e-001 2.242356e+000
      endloop
   endfacet
   facet normal 3.420462e-001 9.396831e-001 0.000000e+000
      outer loop
         vertex 3.232940e+000 9.875525e-001 2.242356e+000
         vertex 3.232940e+000 9.875525e-001 1.000000e+001
         vertex 3.705964e+000 8.269823e-001 1.000000e+001
      endloop
   endfacet
   facet normal 3.006794e-001 9.537253e-001 0.000000e+000
      outer loop
         vertex 3.232940e+000 9.875525e-001 2.242356e+000
         vertex 3.705964e+000 8.269823e-001 1.000000e+001
         vertex 3.705964e+000 8.269823e-001 2.242356e+000
      endloop
   endfacet
   facet normal 2.164667e-001 9.762900e-001 0.000000e+000
      outer loop
         vertex 3.705964e+000 8.269823e-001 2.242356e+000
         vertex 3.705964e+000 8.269823e-001 1.000000e+001
         vertex 4.195900e+000 7.295279e-001 1.000000e+001
      endloop
   endfacet
   facet normal 1.736209e-001 9.848126e-001 0.000000e+000
      outer loop
         vertex 3.705964e+000 8.269823e-001 2.242356e+000
         vertex 4.195900e+000 7.295279e-001 1.000000e+001
         vertex 4.195900e+000 7.295279e-001 2.242356e+000
      endloop
   endfacet
   facet normal 8.718336e-002 9.961922e-001 0.000000e+000
      outer loop
         vertex 4.195900e+000 7.295279e-001 2.242356e+000
         vertex 4.195900e+000 7.295279e-001 1.000000e+001
         vertex 4.694366e+000 6.968567e-001 1.000000e+001
      endloop
   endfacet
   facet normal 4.359168e-002 9.990495e-001 0.000000e+000
      outer loop
         vertex 4.195900e+000 7.295279e-001 2.242356e+000
         vertex 4.694366e+000 6.968567e-001 1.000000e+001
         vertex 4.694366e+000 6.968567e-001 2.242356e+000
      endloop
   endfacet
   facet normal -4.359168e-002 9.990495e-001 0.000000e+000
      outer loop
         vertex 4.694366e+000 6.968567e-001 2.242356e+000
         vertex 4.694366e+000 6.968567e-001 1.000000e+001
         vertex 5.192830e+000 7.295279e-001 1.000000e+001
      endloop
   endfacet
   facet normal -8.718336e-002 9.961922e-001 0.000000e+000
      outer loop
         vertex 4.694366e+000 6.968567e-001 2.242356e+000
         vertex 5.192830e+000 7.295279e-001 1.000000e+001
         vertex 5.192830e+000 7.295279e-001 2.242356e+000
      endloop
   endfacet
   facet normal -1.736209e-001 9.848126e-001 0.000000e+000
      outer loop
         vertex 5.192830e+000 7.295279e-001 2.242356e+000
         vertex 5.192830e+000 7.295279e-001 1.000000e+001
         vertex 5.682766e+000 8.269823e-001 1.000000e+001
      endloop
   endfacet
   facet normal -2.164667e-001 9.762900e-001 0.000000e+000
      outer loop
         vertex 5.192830e+000 7.295279e-001 2.242356e+000
         vertex 5.682766e+000 8.269823e-001 1.000000e+001
         vertex 5.682766e+000 8.269823e-001 2.242356e+000
      endloop
   endfacet
   facet normal -3.006794e-001 9.537253e-001 0.000000e+000
      outer loop
         vertex 5.682766e+000 8.269823e-001 2.242356e+000
         vertex 5.682766e+000 8.269823e-001 1.000000e+001
         vertex 6.155791e+000 9.875525e-001 1.000000e+001
      endloop
   endfacet
   facet normal -3.420462e-001 9.396831e-001 0.000000e+000
      outer loop
         vertex 5.682766e+000 8.269823e-001 2.242356e+000
         vertex 6.155791e+000 9.875525e-001 1.000000e+001
         vertex 6.155791e+000 9.875525e-001 2.242356e+000
      endloop
   endfacet
   facet normal -4.225931e-001 9.063195e-001 0.000000e+000
      outer loop
         vertex 6.155791e+000 9.875525e-001 2.242356e+000
         vertex 6.155791e+000 9.875525e-001 1.000000e+001
         vertex 6.603810e+000 1.208491e+000 1.000000e+001
      endloop
   endfacet
   facet normal -4.617732e-001 8.869980e-001 0.000000e+000
      outer loop
         vertex 6.155791e+000 9.875525e-001 2.242356e+000
         vertex 6.603810e+000 1.208491e+000 1.000000e+001
         vertex 6.603810e+000 1.208491e+000 2.242356e+000
      endloop
   endfacet
   facet normal -5.372763e-001 8.434063e-001 0.000000e+000
      outer loop
         vertex 6.603810e+000 1.208491e+000 2.242356e+000
         vertex 6.603810e+000 1.208491e+000 1.000000e+001
         vertex 7.019158e+000 1.486018e+000 1.000000e+001
      endloop
   endfacet
   facet normal -5.735992e-001 8.191361e-001 0.000000e+000
      outer loop
         vertex 6.603810e+000 1.208491e+000 2.242356e+000
         vertex 7.019158e+000 1.486018e+000 1.000000e+001
         vertex 7.019158e+000 1.486018e+000 2.242356e+000
      endloop
   endfacet
   facet normal -6.427664e-001 7.660623e-001 0.000000e+000
      outer loop
         vertex 7.019158e+000 1.486018e+000 2.242356e+000
         vertex 7.019158e+000 1.486018e+000 1.000000e+001
         vertex 7.394728e+000 1.815384e+000 1.000000e+001
      endloop
   endfacet
   facet normal -6.756107e-001 7.372586e-001 0.000000e+000
      outer loop
         vertex 7.019158e+000 1.486018e+000 2.242356e+000
         vertex 7.394728e+000 1.815384e+000 1.000000e+001
         vertex 7.394728e+000 1.815384e+000 2.242356e+000
      endloop
   endfacet
   facet normal -7.372586e-001 6.756107e-001 0.000000e+000
      outer loop
         vertex 7.394728e+000 1.815384e+000 2.242356e+000
         vertex 7.394728e+000 1.815384e+000 1.000000e+001
         vertex 7.724094e+000 2.190953e+000 1.000000e+001
      endloop
   endfacet
   facet normal -7.660623e-001 6.427664e-001 0.000000e+000
      outer loop
         vertex 7.394728e+000 1.815384e+000 2.242356e+000
         vertex 7.724094e+000 2.190953e+000 1.000000e+001
         vertex 7.724094e+000 2.190953e+000 2.242356e+000
      endloop
   endfacet
   facet normal -8.191361e-001 5.735992e-001 0.000000e+000
      outer loop
         vertex 7.724094e+000 2.190953e+000 2.242356e+000
         vertex 7.724094e+000 2.190953e+000 1.000000e+001
         vertex 8.001621e+000 2.606302e+000 1.000000e+001
      endloop
   endfacet
   facet normal -8.434064e-001 5.372762e-001 0.000000e+000
      outer loop
         vertex 7.724094e+000 2.190953e+000 2.242356e+000
         vertex 8.001621e+000 2.606302e+000 1.000000e+001
         vertex 8.001621e+000 2.606302e+000 2.242356e+000
      endloop
   endfacet
   facet normal -8.869980e-001 4.617732e-001 0.000000e+000
      outer loop
         vertex 8.001621e+000 2.606302e+000 2.242356e+000
         vertex 8.001621e+000 2.606302e+000 1.000000e+001
         vertex 8.222560e+000 3.054321e+000 1.000000e+001
      endloop
   endfacet
   facet normal -9.063195e-001 4.225931e-001 0.000000e+000
      outer loop
         vertex 8.001621e+000 2.606302e+000 2.242356e+000
         vertex 8.222560e+000 3.054321e+000 1.000000e+001
         vertex 8.222560e+000 3.054321e+000 2.242356e+000
      endloop
   endfacet
   facet normal -9.396831e-001 3.420462e-001 0.000000e+000
      outer loop
         vertex 8.222560e+000 3.054321e+000 2.242356e+000
         vertex 8.222560e+000 3.054321e+000 1.000000e+001
         vertex 8.383130e+000 3.527345e+000 1.000000e+001
      endloop
   endfacet
   facet normal -9.537253e-001 3.006794e-001 0.000000e+000
      outer loop
         vertex 8.222560e+000 3.054321e+000 2.242356e+000
         vertex 8.383130e+000 3.527345e+000 1.000000e+001
         vertex 8.383130e+000 3.527345e+000 2.242356e+000
      endloop
   endfacet
   facet normal -9.762900e-001 2.164667e-001 0.000000e+000
      outer loop
         vertex 8.383130e+000 3.527345e+000 2.242356e+000
         vertex 8.383130e+000 3.527345e+000 1.000000e+001
         vertex 8.480583e+000 4.017282e+000 1.000000e+001
      endloop
   endfacet
   facet normal -9.848126e-001 1.736209e-001 0.000000e+000
      outer loop
         vertex 8.383130e+000 3.527345e+000 2.242356e+000
         vertex 8.480583e+000 4.017282e+000 1.000000e+001
         vertex 8.480583e+000 4.017282e+000 2.242356e+000
      endloop
   endfacet
   facet normal -9.961922e-001 8.718336e-002 0.000000e+000
      outer loop
         vertex 8.480583e+000 4.017282e+000 2.242356e+000
         vertex 8.480583e+000 4.017282e+000 1.000000e+001
         vertex 8.513255e+000 4.515746e+000 1.000000e+001
      endloop
   endfacet
   facet normal 0.000000e+000 0.000000e+000 1.000000e+000
      outer loop
         vertex 4.195900e+000 8.301965e+000 2.242356e+000
         vertex 3.705964e+000 8.204511e+000 2.242356e+000
         vertex 7.019158e+000 7.545475e+000 2.242356e+000
      endloop
   endfacet
   facet normal 0.000000e+000 0.000000e+000 1.000000e+000
      outer loop
         vertex 1.387110e+000 6.425191e+000 2.242356e+000
         vertex 1.166171e+000 5.977172e+000 2.242356e+000
         vertex 8.001621e+000 2.606302e+000 2.242356e+000
      endloop
   endfacet
   facet normal 0.000000e+000 0.000000e+000 1.000000e+000
      outer loop
         vertex 8.001621e+000 2.606302e+000 2.242356e+000
         vertex 1.166171e+000 5.977172e+000 2.242356e+000
         vertex 1.005601e+000 5.504148e+000 2.242356e+000
      endloop
   endfacet
   facet normal 0.000000e+000 0.000000e+000 1.000000e+000
      outer loop
         vertex 8.001621e+000 2.606302e+000 2.242356e+000
         vertex 1.005601e+000 5.504148e+000 2.242356e+000
         vertex 9.081469e-001 5.014211e+000 2.242356e+000
      endloop
   endfacet
   facet normal 0.000000e+000 0.000000e+000 1.000000e+000
      outer loop
         vertex 7.019158e+000 7.545475e+000 2.242356e+000
         vertex 1.387110e+000 6.425191e+000 2.242356e+000
         vertex 7.394728e+000 7.216109e+000 2.242356e+000
      endloop
   endfacet
   facet normal 0.000000e+000 0.000000e+000 1.000000e+000
      outer loop
         vertex 7.394728e+000 7.216109e+000 2.242356e+000
         vertex 1.387110e+000 6.425191e+000 2.242356e+000
         vertex 7.724094e+000 6.840539e+000 2.242356e+000
      endloop
   endfacet
   facet normal 0.000000e+000 0.000000e+000 1.000000e+000
      outer loop
         vertex 9.081469e-001 5.014211e+000 2.242356e+000
         vertex 8.754758e-001 4.515746e+000 2.242356e+000
         vertex 8.001621e+000 2.606302e+000 2.242356e+000
      endloop
   endfacet
   facet normal 0.000000e+000 0.000000e+000 1.000000e+000
      outer loop
         vertex 8.001621e+000 2.606302e+000 2.242356e+000
         vertex 8.754758e-001 4.515746e+000 2.242356e+000
         vertex 9.081469e-001 4.017282e+000 2.242356e+000
      endloop
   endfacet
   facet normal 0.000000e+000 0.000000e+000 1.000000e+000
      outer loop
         vertex 8.001621e+000 2.606302e+000 2.242356e+000
         vertex 9.081469e-001 4.017282e+000 2.242356e+000
         vertex 1.005601e+000 3.527345e+000 2.242356e+000
      endloop
   endfacet
   facet normal 0.000000e+000 0.000000e+000 1.000000e+000
      outer loop
         vertex 5.682766e+000 8.204511e+000 2.242356e+000
         vertex 7.019158e+000 7.545475e+000 2.242356e+000
         vertex 6.155791e+000 8.043941e+000 2.242356e+000
      endloop
   endfacet
   facet normal 0.000000e+000 0.000000e+000 1.000000e+000
      outer loop
         vertex 6.155791e+000 8.043941e+000 2.242356e+000
         vertex 7.019158e+000 7.545475e+000 2.242356e+000
         vertex 6.603810e+000 7.823001e+000 2.242356e+000
      endloop
   endfacet
   facet normal 0.000000e+000 0.000000e+000 1.000000e+000
      outer loop
         vertex 5.682766e+000 8.204511e+000 2.242356e+000
         vertex 5.192830e+000 8.301965e+000 2.242356e+000
         vertex 7.019158e+000 7.545475e+000 2.242356e+000
      endloop
   endfacet
   facet normal 0.000000e+000 0.000000e+000 1.000000e+000
      outer loop
         vertex 7.019158e+000 7.545475e+000 2.242356e+000
         vertex 5.192830e+000 8.301965e+000 2.242356e+000
         vertex 4.694366e+000 8.334636e+000 2.242356e+000
      endloop
   endfacet
   facet normal 0.000000e+000 0.000000e+000 1.000000e+000
      outer loop
         vertex 7.019158e+000 7.545475e+000 2.242356e+000
         vertex 4.694366e+000 8.334636e+000 2.242356e+000
         vertex 4.195900e+000 8.301965e+000 2.242356e+000
      endloop
   endfacet
   facet normal 0.000000e+000 0.000000e+000 1.000000e+000
      outer loop
         vertex 3.705964e+000 8.204511e+000 2.242356e+000
         vertex 3.232940e+000 8.043941e+000 2.242356e+000
         vertex 7.019158e+000 7.545475e+000 2.242356e+000
      endloop
   endfacet
   facet normal 0.000000e+000 0.000000e+000 1.000000e+000
      outer loop
         vertex 7.019158e+000 7.545475e+000 2.242356e+000
         vertex 3.232940e+000 8.043941e+000 2.242356e+000
         vertex 2.784921e+000 7.823001e+000 2.242356e+000
      endloop
   endfacet
   facet normal 0.000000e+000 0.000000e+000 1.000000e+000
      outer loop
         vertex 7.019158e+000 7.545475e+000 2.242356e+000
         vertex 2.784921e+000 7.823001e+000 2.242356e+000
         vertex 2.369573e+000 7.545475e+000 2.242356e+000
      endloop
   endfacet
   facet normal 0.000000e+000 0.000000e+000 1.000000e+000
      outer loop
         vertex 1.005601e+000 3.527345e+000 2.242356e+000
         vertex 1.166171e+000 3.054321e+000 2.242356e+000
         vertex 8.001621e+000 2.606302e+000 2.242356e+000
      endloop
   endfacet
   facet normal 0.000000e+000 0.000000e+000 1.000000e+000
      outer loop
         vertex 8.001621e+000 2.606302e+000 2.242356e+000
         vertex 1.166171e+000 3.054321e+000 2.242356e+000
         vertex 1.387110e+000 2.606302e+000 2.242356e+000
      endloop
   endfacet
   facet normal 0.000000e+000 0.000000e+000 1.000000e+000
      outer loop
         vertex 8.001621e+000 2.606302e+000 2.242356e+000
         vertex 1.387110e+000 2.606302e+000 2.242356e+000
         vertex 1.664636e+000 2.190953e+000 2.242356e+000
      endloop
   endfacet
   facet normal 0.000000e+000 0.000000e+000 1.000000e+000
      outer loop
         vertex 2.784921e+000 1.208491e+000 2.242356e+000
         vertex 3.232940e+000 9.875525e-001 2.242356e+000
         vertex 8.001621e+000 2.606302e+000 2.242356e+000
      endloop
   endfacet
   facet normal 0.000000e+000 0.000000e+000 1.000000e+000
      outer loop
         vertex 8.001621e+000 2.606302e+000 2.242356e+000
         vertex 3.232940e+000 9.875525e-001 2.242356e+000
         vertex 3.705964e+000 8.269823e-001 2.242356e+000
      endloop
   endfacet
   facet normal 0.000000e+000 0.000000e+000 1.000000e+000
      outer loop
         vertex 8.001621e+000 2.606302e+000 2.242356e+000
         vertex 3.705964e+000 8.269823e-001 2.242356e+000
         vertex 4.195900e+000 7.295279e-001 2.242356e+000
      endloop
   endfacet
   facet normal 0.000000e+000 0.000000e+000 1.000000e+000
      outer loop
         vertex 8.001621e+000 2.606302e+000 2.242356e+000
         vertex 8.222560e+000 3.054321e+000 2.242356e+000
         vertex 1.387110e+000 6.425191e+000 2.242356e+000
      endloop
   endfacet
   facet normal 0.000000e+000 0.000000e+000 1.000000e+000
      outer loop
         vertex 1.387110e+000 6.425191e+000 2.242356e+000
         vertex 8.222560e+000 3.054321e+000 2.242356e+000
         vertex 8.383130e+000 3.527345e+000 2.242356e+000
      endloop
   endfacet
   facet normal 0.000000e+000 0.000000e+000 1.000000e+000
      outer loop
         vertex 1.387110e+000 6.425191e+000 2.242356e+000
         vertex 8.383130e+000 3.527345e+000 2.242356e+000
         vertex 8.480583e+000 4.017282e+000 2.242356e+000
      endloop
   endfacet
   facet normal 0.000000e+000 0.000000e+000 1.000000e+000
      outer loop
         vertex 2.369573e+000 7.545475e+000 2.242356e+000
         vertex 1.994003e+000 7.216109e+000 2.242356e+000
         vertex 7.019158e+000 7.545475e+000 2.242356e+000
      endloop
   endfacet
   facet normal 0.000000e+000 0.000000e+000 1.000000e+000
      outer loop
         vertex 7.019158e+000 7.545475e+000 2.242356e+000
         vertex 1.994003e+000 7.216109e+000 2.242356e+000
         vertex 1.664636e+000 6.840539e+000 2.242356e+000
      endloop
   endfacet
   facet normal 0.000000e+000 0.000000e+000 1.000000e+000
      outer loop
         vertex 7.019158e+000 7.545475e+000 2.242356e+000
         vertex 1.664636e+000 6.840539e+000 2.242356e+000
         vertex 1.387110e+000 6.425191e+000 2.242356e+000
      endloop
   endfacet
   facet normal 0.000000e+000 0.000000e+000 1.000000e+000
      outer loop
         vertex 1.664636e+000 2.190953e+000 2.242356e+000
         vertex 1.994003e+000 1.815384e+000 2.242356e+000
         vertex 8.001621e+000 2.606302e+000 2.242356e+000
      endloop
   endfacet
   facet normal 0.000000e+000 0.000000e+000 1.000000e+000
      outer loop
         vertex 8.001621e+000 2.606302e+000 2.242356e+000
         vertex 1.994003e+000 1.815384e+000 2.242356e+000
         vertex 2.369573e+000 1.486018e+000 2.242356e+000
      endloop
   endfacet
   facet normal 0.000000e+000 0.000000e+000 1.000000e+000
      outer loop
         vertex 8.001621e+000 2.606302e+000 2.242356e+000
         vertex 2.369573e+000 1.486018e+000 2.242356e+000
         vertex 2.784921e+000 1.208491e+000 2.242356e+000
      endloop
   endfacet
   facet normal 0.000000e+000 0.000000e+000 1.000000e+000
      outer loop
         vertex 4.195900e+000 7.295279e-001 2.242356e+000
         vertex 4.694366e+000 6.968567e-001 2.242356e+000
         vertex 8.001621e+000 2.606302e+000 2.242356e+000
      endloop
   endfacet
   facet normal 0.000000e+000 0.000000e+000 1.000000e+000
      outer loop
         vertex 8.001621e+000 2.606302e+000 2.242356e+000
         vertex 4.694366e+000 6.968567e-001 2.242356e+000
         vertex 5.192830e+000 7.295279e-001 2.242356e+000
      endloop
   endfacet
   facet normal 0.000000e+000 0.000000e+000 1.000000e+000
      outer loop
         vertex 8.001621e+000 2.606302e+000 2.242356e+000
         vertex 5.192830e+000 7.295279e-001 2.242356e+000
         vertex 5.682766e+000 8.269823e-001 2.242356e+000
      endloop
   endfacet
   facet normal 0.000000e+000 0.000000e+000 1.000000e+000
      outer loop
         vertex 8.480583e+000 4.017282e+000 2.242356e+000
         vertex 8.513255e+000 4.515746e+000 2.242356e+000
         vertex 1.387110e+000 6.425191e+000 2.242356e+000
      endloop
   endfacet
   facet normal 0.000000e+000 0.000000e+000 1.000000e+000
      outer loop
         vertex 1.387110e+000 6.425191e+000 2.242356e+000
         vertex 8.513255e+000 4.515746e+000 2.242356e+000
         vertex 8.480583e+000 5.014211e+000 2.242356e+000
      endloop
   endfacet
   facet normal 0.000000e+000 0.000000e+000 1.000000e+000
      outer loop
         vertex 1.387110e+000 6.425191e+000 2.242356e+000
         vertex 8.480583e+000 5.014211e+000 2.242356e+000
         vertex 8.383130e+000 5.504148e+000 2.242356e+000
      endloop
   endfacet
   facet normal 0.000000e+000 0.000000e+000 1.000000e+000
      outer loop
         vertex 8.383130e+000 5.504148e+000 2.242356e+000
         vertex 8.222560e+000 5.977172e+000 2.242356e+000
         vertex 1.387110e+000 6.425191e+000 2.242356e+000
      endloop
   endfacet
   facet normal 0.000000e+000 0.000000e+000 1.000000e+000
      outer loop
         vertex 1.387110e+000 6.425191e+000 2.242356e+000
         vertex 8.222560e+000 5.977172e+000 2.242356e+000
         vertex 8.001621e+000 6.425191e+000 2.242356e+000
      endloop
   endfacet
   facet normal 0.000000e+000 0.000000e+000 1.000000e+000
      outer loop
         vertex 1.387110e+000 6.425191e+000 2.242356e+000
         vertex 8.001621e+000 6.425191e+000 2.242356e+000
         vertex 7.724094e+000 6.840539e+000 2.242356e+000
      endloop
   endfacet
   facet normal 0.000000e+000 0.000000e+000 1.000000e+000
      outer loop
         vertex 7.724094e+000 2.190953e+000 2.242356e+000
         vertex 8.001621e+000 2.606302e+000 2.242356e+000
         vertex 7.394728e+000 1.815384e+000 2.242356e+000
      endloop
   endfacet
   facet normal 0.000000e+000 0.000000e+000 1.000000e+000
      outer loop
         vertex 7.394728e+000 1.815384e+000 2.242356e+000
         vertex 8.001621e+000 2.606302e+000 2.242356e+000
         vertex 7.019158e+000 1.486018e+000 2.242356e+000
      endloop
   endfacet
   facet normal 0.000000e+000 0.000000e+000 1.000000e+000
      outer loop
         vertex 5.682766e+000 8.269823e-001 2.242356e+000
         vertex 6.155791e+000 9.875525e-001 2.242356e+000
         vertex 8.001621e+000 2.606302e+000 2.242356e+000
      endloop
   endfacet
   facet normal 0.000000e+000 0.000000e+000 1.000000e+000
      outer loop
         vertex 8.001621e+000 2.606302e+000 2.242356e+000
         vertex 6.155791e+000 9.875525e-001 2.242356e+000
         vertex 6.603810e+000 1.208491e+000 2.242356e+000
      endloop
   endfacet
   facet normal 0.000000e+000 0.000000e+000 1.000000e+000
      outer loop
         vertex 8.001621e+000 2.606302e+000 2.242356e+000
         vertex 6.603810e+000 1.208491e+000 2.242356e+000
         vertex 7.019158e+000 1.486018e+000 2.242356e+000
      endloop
   endfacet
endsolid