solid 2_351
   facet normal -1.000000e+000 0.000000e+000 0.000000e+000
      outer loop
         vertex 0.000000e+000 1.000000e+001 1.000000e+001
         vertex 0.000000e+000 1.000000e+001 0.000000e+000
         vertex 0.000000e+000 0.000000e+000 1.000000e+001
      endloop
   endfacet
   facet normal -1.000000e+000 0.000000e+000 0.000000e+000
      outer loop
         vertex 0.000000e+000 0.000000e+000 1.000000e+001
         vertex 0.000000e+000 1.000000e+001 0.000000e+000
         vertex 0.000000e+000 0.000000e+000 0.000000e+000
      endloop
   endfacet
   facet normal 0.000000e+000 0.000000e+000 1.000000e+000
      outer loop
         vertex 5.549512e+000 4.017786e+000 1.000000e+001
         vertex 5.213555e+000 3.927767e+000 1.000000e+001
         vertex 1.000000e+001 0.000000e+000 1.000000e+001
      endloop
   endfacet
   facet normal 0.000000e+000 0.000000e+000 1.000000e+000
      outer loop
         vertex 3.338559e+000 4.610209e+000 1.000000e+001
         vertex 3.139064e+000 4.895117e+000 1.000000e+001
         vertex 0.000000e+000 0.000000e+000 1.000000e+001
      endloop
   endfacet
   facet normal 0.000000e+000 0.000000e+000 1.000000e+000
      outer loop
         vertex 5.213555e+000 7.857797e+000 1.000000e+001
         vertex 1.000000e+001 1.000000e+001 1.000000e+001
         vertex 4.867070e+000 7.888110e+000 1.000000e+001
      endloop
   endfacet
   facet normal 0.000000e+000 0.000000e+000 1.000000e+000
      outer loop
         vertex 4.867070e+000 7.888110e+000 1.000000e+001
         vertex 1.000000e+001 1.000000e+001 1.000000e+001
         vertex 0.000000e+000 1.000000e+001 1.000000e+001
      endloop
   endfacet
   facet normal 0.000000e+000 0.000000e+000 1.000000e+000
      outer loop
         vertex 4.867070e+000 7.888110e+000 1.000000e+001
         vertex 0.000000e+000 1.000000e+001 1.000000e+001
         vertex 4.520585e+000 7.857797e+000 1.000000e+001
      endloop
   endfacet
   facet normal 0.000000e+000 0.000000e+000 1.000000e+000
      outer loop
         vertex 5.213555e+000 7.857797e+000 1.000000e+001
         vertex 5.549512e+000 7.767777e+000 1.000000e+001
         vertex 1.000000e+001 1.000000e+001 1.000000e+001
      endloop
   endfacet
   facet normal 0.000000e+000 0.000000e+000 1.000000e+000
      outer loop
         vertex 1.000000e+001 1.000000e+001 1.000000e+001
         vertex 5.549512e+000 7.767777e+000 1.000000e+001
         vertex 5.864734e+000 7.620787e+000 1.000000e+001
      endloop
   endfacet
   facet normal 0.000000e+000 0.000000e+000 1.000000e+000
      outer loop
         vertex 1.000000e+001 1.000000e+001 1.000000e+001
         vertex 5.864734e+000 7.620787e+000 1.000000e+001
         vertex 6.149642e+000 7.421292e+000 1.000000e+001
      endloop
   endfacet
   facet normal 0.000000e+000 0.000000e+000 1.000000e+000
      outer loop
         vertex 1.000000e+001 0.000000e+000 1.000000e+001
         vertex 5.213555e+000 3.927767e+000 1.000000e+001
         vertex 0.000000e+000 0.000000e+000 1.000000e+001
      endloop
   endfacet
   facet normal 0.000000e+000 0.000000e+000 1.000000e+000
      outer loop
         vertex 6.149642e+000 7.421292e+000 1.000000e+001
         vertex 6.395580e+000 7.175354e+000 1.000000e+001
         vertex 1.000000e+001 1.000000e+001 1.000000e+001
      endloop
   endfacet
   facet normal 0.000000e+000 0.000000e+000 1.000000e+000
      outer loop
         vertex 1.000000e+001 1.000000e+001 1.000000e+001
         vertex 6.395580e+000 7.175354e+000 1.000000e+001
         vertex 6.595075e+000 6.890446e+000 1.000000e+001
      endloop
   endfacet
   facet normal 0.000000e+000 0.000000e+000 1.000000e+000
      outer loop
         vertex 1.000000e+001 1.000000e+001 1.000000e+001
         vertex 6.595075e+000 6.890446e+000 1.000000e+001
         vertex 6.742065e+000 6.575224e+000 1.000000e+001
      endloop
   endfacet
   facet normal 0.000000e+000 0.000000e+000 1.000000e+000
      outer loop
         vertex 5.213555e+000 3.927767e+000 1.000000e+001
         vertex 4.867070e+000 3.897453e+000 1.000000e+001
         vertex 0.000000e+000 0.000000e+000 1.000000e+001
      endloop
   endfacet
   facet normal 0.000000e+000 0.000000e+000 1.000000e+000
      outer loop
         vertex 0.000000e+000 0.000000e+000 1.000000e+001
         vertex 4.867070e+000 3.897453e+000 1.000000e+001
         vertex 4.520585e+000 3.927767e+000 1.000000e+001
      endloop
   endfacet
   facet normal 0.000000e+000 0.000000e+000 1.000000e+000
      outer loop
         vertex 0.000000e+000 0.000000e+000 1.000000e+001
         vertex 4.520585e+000 3.927767e+000 1.000000e+001
         vertex 4.184627e+000 4.017786e+000 1.000000e+001
      endloop
   endfacet
   facet normal 0.000000e+000 0.000000e+000 1.000000e+000
      outer loop
         vertex 4.184627e+000 4.017786e+000 1.000000e+001
         vertex 3.869406e+000 4.164776e+000 1.000000e+001
         vertex 0.000000e+000 0.000000e+000 1.000000e+001
      endloop
   endfacet
   facet normal 0.000000e+000 0.000000e+000 1.000000e+000
      outer loop
         vertex 0.000000e+000 0.000000e+000 1.000000e+001
         vertex 3.869406e+000 4.164776e+000 1.000000e+001
         vertex 3.584497e+000 4.364271e+000 1.000000e+001
      endloop
   endfacet
   facet normal 0.000000e+000 0.000000e+000 1.000000e+000
      outer loop
         vertex 0.000000e+000 0.000000e+000 1.000000e+001
         vertex 3.584497e+000 4.364271e+000 1.000000e+001
         vertex 3.338559e+000 4.610209e+000 1.000000e+001
      endloop
   endfacet
   facet normal 0.000000e+000 0.000000e+000 1.000000e+000
      outer loop
         vertex 6.742065e+000 6.575224e+000 1.000000e+001
         vertex 6.832085e+000 6.239267e+000 1.000000e+001
         vertex 1.000000e+001 1.000000e+001 1.000000e+001
      endloop
   endfacet
   facet normal 0.000000e+000 0.000000e+000 1.000000e+000
      outer loop
         vertex 1.000000e+001 1.000000e+001 1.000000e+001
         vertex 6.832085e+000 6.239267e+000 1.000000e+001
         vertex 6.862398e+000 5.892782e+000 1.000000e+001
      endloop
   endfacet
   facet normal 0.000000e+000 0.000000e+000 1.000000e+000
      outer loop
         vertex 1.000000e+001 1.000000e+001 1.000000e+001
         vertex 6.862398e+000 5.892782e+000 1.000000e+001
         vertex 1.000000e+001 0.000000e+000 1.000000e+001
      endloop
   endfacet
   facet normal 0.000000e+000 0.000000e+000 1.000000e+000
      outer loop
         vertex 1.000000e+001 0.000000e+000 1.000000e+001
         vertex 6.862398e+000 5.892782e+000 1.000000e+001
         vertex 6.832085e+000 5.546297e+000 1.000000e+001
      endloop
   endfacet
   facet normal 0.000000e+000 0.000000e+000 1.000000e+000
      outer loop
         vertex 6.832085e+000 5.546297e+000 1.000000e+001
         vertex 6.742065e+000 5.210339e+000 1.000000e+001
         vertex 1.000000e+001 0.000000e+000 1.000000e+001
      endloop
   endfacet
   facet normal 0.000000e+000 0.000000e+000 1.000000e+000
      outer loop
         vertex 1.000000e+001 0.000000e+000 1.000000e+001
         vertex 6.742065e+000 5.210339e+000 1.000000e+001
         vertex 6.595075e+000 4.895117e+000 1.000000e+001
      endloop
   endfacet
   facet normal 0.000000e+000 0.000000e+000 1.000000e+000
      outer loop
         vertex 1.000000e+001 0.000000e+000 1.000000e+001
         vertex 6.595075e+000 4.895117e+000 1.000000e+001
         vertex 6.395580e+000 4.610209e+000 1.000000e+001
      endloop
   endfacet
   facet normal 0.000000e+000 0.000000e+000 1.000000e+000
      outer loop
         vertex 6.395580e+000 4.610209e+000 1.000000e+001
         vertex 6.149642e+000 4.364271e+000 1.000000e+001
         vertex 1.000000e+001 0.000000e+000 1.000000e+001
      endloop
   endfacet
   facet normal 0.000000e+000 0.000000e+000 1.000000e+000
      outer loop
         vertex 1.000000e+001 0.000000e+000 1.000000e+001
         vertex 6.149642e+000 4.364271e+000 1.000000e+001
         vertex 5.864734e+000 4.164776e+000 1.000000e+001
      endloop
   endfacet
   facet normal 0.000000e+000 0.000000e+000 1.000000e+000
      outer loop
         vertex 1.000000e+001 0.000000e+000 1.000000e+001
         vertex 5.864734e+000 4.164776e+000 1.000000e+001
         vertex 5.549512e+000 4.017786e+000 1.000000e+001
      endloop
   endfacet
   facet normal 0.000000e+000 0.000000e+000 1.000000e+000
      outer loop
         vertex 0.000000e+000 1.000000e+001 1.000000e+001
         vertex 2.902055e+000 6.239267e+000 1.000000e+001
         vertex 2.992074e+000 6.575224e+000 1.000000e+001
      endloop
   endfacet
   facet normal 0.000000e+000 0.000000e+000 1.000000e+000
      outer loop
         vertex 2.992074e+000 6.575224e+000 1.000000e+001
         vertex 3.139064e+000 6.890446e+000 1.000000e+001
         vertex 0.000000e+000 1.000000e+001 1.000000e+001
      endloop
   endfacet
   facet normal 0.000000e+000 0.000000e+000 1.000000e+000
      outer loop
         vertex 0.000000e+000 1.000000e+001 1.000000e+001
         vertex 3.139064e+000 6.890446e+000 1.000000e+001
         vertex 3.338559e+000 7.175354e+000 1.000000e+001
      endloop
   endfacet
   facet normal 0.000000e+000 0.000000e+000 1.000000e+000
      outer loop
         vertex 0.000000e+000 1.000000e+001 1.000000e+001
         vertex 3.338559e+000 7.175354e+000 1.000000e+001
         vertex 3.584497e+000 7.421292e+000 1.000000e+001
      endloop
   endfacet
   facet normal 0.000000e+000 0.000000e+000 1.000000e+000
      outer loop
         vertex 3.584497e+000 7.421292e+000 1.000000e+001
         vertex 3.869406e+000 7.620787e+000 1.000000e+001
         vertex 0.000000e+000 1.000000e+001 1.000000e+001
      endloop
   endfacet
   facet normal 0.000000e+000 0.000000e+000 1.000000e+000
      outer loop
         vertex 0.000000e+000 1.000000e+001 1.000000e+001
         vertex 3.869406e+000 7.620787e+000 1.000000e+001
         vertex 4.184627e+000 7.767777e+000 1.000000e+001
      endloop
   endfacet
   facet normal 0.000000e+000 0.000000e+000 1.000000e+000
      outer loop
         vertex 0.000000e+000 1.000000e+001 1.000000e+001
         vertex 4.184627e+000 7.767777e+000 1.000000e+001
         vertex 4.520585e+000 7.857797e+000 1.000000e+001
      endloop
   endfacet
   facet normal 0.000000e+000 0.000000e+000 1.000000e+000
      outer loop
         vertex 3.139064e+000 4.895117e+000 1.000000e+001
         vertex 2.992074e+000 5.210339e+000 1.000000e+001
         vertex 0.000000e+000 0.000000e+000 1.000000e+001
      endloop
   endfacet
   facet normal 0.000000e+000 0.000000e+000 1.000000e+000
      outer loop
         vertex 0.000000e+000 0.000000e+000 1.000000e+001
         vertex 2.992074e+000 5.210339e+000 1.000000e+001
         vertex 2.902055e+000 5.546297e+000 1.000000e+001
      endloop
   endfacet
   facet normal 0.000000e+000 0.000000e+000 1.000000e+000
      outer loop
         vertex 0.000000e+000 0.000000e+000 1.000000e+001
         vertex 2.902055e+000 5.546297e+000 1.000000e+001
         vertex 0.000000e+000 1.000000e+001 1.000000e+001
      endloop
   endfacet
   facet normal 0.000000e+000 0.000000e+000 1.000000e+000
      outer loop
         vertex 0.000000e+000 1.000000e+001 1.000000e+001
         vertex 2.902055e+000 5.546297e+000 1.000000e+001
         vertex 2.871741e+000 5.892782e+000 1.000000e+001
      endloop
   endfacet
   facet normal 0.000000e+000 0.000000e+000 1.000000e+000
      outer loop
         vertex 0.000000e+000 1.000000e+001 1.000000e+001
         vertex 2.871741e+000 5.892782e+000 1.000000e+001
         vertex 2.902055e+000 6.239267e+000 1.000000e+001
      endloop
   endfacet
   facet normal 1.000000e+000 0.000000e+000 0.000000e+000
      outer loop
         vertex 1.000000e+001 1.000000e+001 0.000000e+000
         vertex 1.000000e+001 1.000000e+001 1.000000e+001
         vertex 1.000000e+001 0.000000e+000 0.000000e+000
      endloop
   endfacet
   facet normal 1.000000e+000 0.000000e+000 0.000000e+000
      outer loop
         vertex 1.000000e+001 0.000000e+000 0.000000e+000
         vertex 1.000000e+001 1.000000e+001 1.000000e+001
         vertex 1.000000e+001 0.000000e+000 1.000000e+001
      endloop
   endfacet
   facet normal 0.000000e+000 0.000000e+000 -1.000000e+000
      outer loop
         vertex 0.000000e+000 1.000000e+001 0.000000e+000
         vertex 1.000000e+001 1.000000e+001 0.000000e+000
         vertex 0.000000e+000 0.000000e+000 0.000000e+000
      endloop
   endfacet
   facet normal 0.000000e+000 0.000000e+000 -1.000000e+000
      outer loop
         vertex 0.000000e+000 0.000000e+000 0.000000e+000
         vertex 1.000000e+001 1.000000e+001 0.000000e+000
         vertex 1.000000e+001 0.000000e+000 0.000000e+000
      endloop
   endfacet
   facet normal 0.000000e+000 1.000000e+000 0.000000e+000
      outer loop
         vertex 1.000000e+001 1.000000e+001 1.000000e+001
         vertex 1.000000e+001 1.000000e+001 0.000000e+000
         vertex 0.000000e+000 1.000000e+001 1.000000e+001
      endloop
   endfacet
   facet normal 0.000000e+000 1.000000e+000 0.000000e+000
      outer loop
         vertex 0.000000e+000 1.000000e+001 1.000000e+001
         vertex 1.000000e+001 1.000000e+001 0.000000e+000
         vertex 0.000000e+000 1.000000e+001 0.000000e+000
      endloop
   endfacet
   facet normal 0.000000e+000 -1.000000e+000 0.000000e+000
      outer loop
         vertex 1.000000e+001 0.000000e+000 0.000000e+000
         vertex 1.000000e+001 0.000000e+000 1.000000e+001
         vertex 0.000000e+000 0.000000e+000 0.000000e+000
      endloop
   endfacet
   facet normal 0.000000e+000 -1.000000e+000 0.000000e+000
      outer loop
         vertex 0.000000e+000 0.000000e+000 0.000000e+000
         vertex 1.000000e+001 0.000000e+000 1.000000e+001
         vertex 0.000000e+000 0.000000e+000 1.000000e+001
      endloop
   endfacet
   facet normal -9.983119e-001 5.807913e-002 0.000000e+000
      outer loop
         vertex 6.832085e+000 5.546297e+000 8.104171e+000
         vertex 6.862398e+000 5.892782e+000 1.000000e+001
         vertex 6.862398e+000 5.892782e+000 8.104171e+000
      endloop
   endfacet
   facet normal -9.983119e-001 -5.807913e-002 0.000000e+000
      outer loop
         vertex 6.862398e+000 5.892782e+000 8.104171e+000
         vertex 6.862398e+000 5.892782e+000 1.000000e+001
         vertex 6.832085e+000 6.239267e+000 1.000000e+001
      endloop
   endfacet
   facet normal -9.932307e-001 -1.161583e-001 0.000000e+000
      outer loop
         vertex 6.862398e+000 5.892782e+000 8.104171e+000
         vertex 6.832085e+000 6.239267e+000 1.000000e+001
         vertex 6.832085e+000 6.239267e+000 8.104171e+000
      endloop
   endfacet
   facet normal -9.730600e-001 -2.305519e-001 0.000000e+000
      outer loop
         vertex 6.832085e+000 6.239267e+000 8.104171e+000
         vertex 6.832085e+000 6.239267e+000 1.000000e+001
         vertex 6.742065e+000 6.575224e+000 1.000000e+001
      endloop
   endfacet
   facet normal -9.579706e-001 -2.868663e-001 0.000000e+000
      outer loop
         vertex 6.832085e+000 6.239267e+000 8.104171e+000
         vertex 6.742065e+000 6.575224e+000 1.000000e+001
         vertex 6.742065e+000 6.575224e+000 8.104171e+000
      endloop
   endfacet
   facet normal -9.182422e-001 -3.960194e-001 0.000000e+000
      outer loop
         vertex 6.742065e+000 6.575224e+000 8.104171e+000
         vertex 6.742065e+000 6.575224e+000 1.000000e+001
         vertex 6.595075e+000 6.890446e+000 1.000000e+001
      endloop
   endfacet
   facet normal -8.936031e-001 -4.488580e-001 0.000000e+000
      outer loop
         vertex 6.742065e+000 6.575224e+000 8.104171e+000
         vertex 6.595075e+000 6.890446e+000 1.000000e+001
         vertex 6.595075e+000 6.890446e+000 8.104171e+000
      endloop
   endfacet
   facet normal -8.355240e-001 -5.494540e-001 0.000000e+000
      outer loop
         vertex 6.595075e+000 6.890446e+000 8.104171e+000
         vertex 6.595075e+000 6.890446e+000 1.000000e+001
         vertex 6.395580e+000 7.175354e+000 1.000000e+001
      endloop
   endfacet
   facet normal -8.020838e-001 -5.972114e-001 0.000000e+000
      outer loop
         vertex 6.595075e+000 6.890446e+000 8.104171e+000
         vertex 6.395580e+000 7.175354e+000 1.000000e+001
         vertex 6.395580e+000 7.175354e+000 8.104171e+000
      endloop
   endfacet
   facet normal -7.274188e-001 -6.861938e-001 0.000000e+000
      outer loop
         vertex 6.395580e+000 7.175354e+000 8.104171e+000
         vertex 6.395580e+000 7.175354e+000 1.000000e+001
         vertex 6.149642e+000 7.421292e+000 1.000000e+001
      endloop
   endfacet
   facet normal -6.861938e-001 -7.274188e-001 0.000000e+000
      outer loop
         vertex 6.395580e+000 7.175354e+000 8.104171e+000
         vertex 6.149642e+000 7.421292e+000 1.000000e+001
         vertex 6.149642e+000 7.421292e+000 8.104171e+000
      endloop
   endfacet
   facet normal -5.972114e-001 -8.020838e-001 0.000000e+000
      outer loop
         vertex 6.149642e+000 7.421292e+000 8.104171e+000
         vertex 6.149642e+000 7.421292e+000 1.000000e+001
         vertex 5.864734e+000 7.620787e+000 1.000000e+001
      endloop
   endfacet
   facet normal -5.494540e-001 -8.355240e-001 0.000000e+000
      outer loop
         vertex 6.149642e+000 7.421292e+000 8.104171e+000
         vertex 5.864734e+000 7.620787e+000 1.000000e+001
         vertex 5.864734e+000 7.620787e+000 8.104171e+000
      endloop
   endfacet
   facet normal -4.488580e-001 -8.936031e-001 0.000000e+000
      outer loop
         vertex 5.864734e+000 7.620787e+000 8.104171e+000
         vertex 5.864734e+000 7.620787e+000 1.000000e+001
         vertex 5.549512e+000 7.767777e+000 1.000000e+001
      endloop
   endfacet
   facet normal -3.960194e-001 -9.182422e-001 0.000000e+000
      outer loop
         vertex 5.864734e+000 7.620787e+000 8.104171e+000
         vertex 5.549512e+000 7.767777e+000 1.000000e+001
         vertex 5.549512e+000 7.767777e+000 8.104171e+000
      endloop
   endfacet
   facet normal -2.868663e-001 -9.579706e-001 0.000000e+000
      outer loop
         vertex 5.549512e+000 7.767777e+000 8.104171e+000
         vertex 5.549512e+000 7.767777e+000 1.000000e+001
         vertex 5.213555e+000 7.857797e+000 1.000000e+001
      endloop
   endfacet
   facet normal -2.305519e-001 -9.730600e-001 0.000000e+000
      outer loop
         vertex 5.549512e+000 7.767777e+000 8.104171e+000
         vertex 5.213555e+000 7.857797e+000 1.000000e+001
         vertex 5.213555e+000 7.857797e+000 8.104171e+000
      endloop
   endfacet
   facet normal -1.161583e-001 -9.932307e-001 0.000000e+000
      outer loop
         vertex 5.213555e+000 7.857797e+000 8.104171e+000
         vertex 5.213555e+000 7.857797e+000 1.000000e+001
         vertex 4.867070e+000 7.888110e+000 1.000000e+001
      endloop
   endfacet
   facet normal -5.807913e-002 -9.983119e-001 0.000000e+000
      outer loop
         vertex 5.213555e+000 7.857797e+000 8.104171e+000
         vertex 4.867070e+000 7.888110e+000 1.000000e+001
         vertex 4.867070e+000 7.888110e+000 8.104171e+000
      endloop
   endfacet
   facet normal 5.807913e-002 -9.983119e-001 0.000000e+000
      outer loop
         vertex 4.867070e+000 7.888110e+000 8.104171e+000
         vertex 4.867070e+000 7.888110e+000 1.000000e+001
         vertex 4.520585e+000 7.857797e+000 1.000000e+001
      endloop
   endfacet
   facet normal 1.161583e-001 -9.932307e-001 0.000000e+000
      outer loop
         vertex 4.867070e+000 7.888110e+000 8.104171e+000
         vertex 4.520585e+000 7.857797e+000 1.000000e+001
         vertex 4.520585e+000 7.857797e+000 8.104171e+000
      endloop
   endfacet
   facet normal 2.305519e-001 -9.730600e-001 0.000000e+000
      outer loop
         vertex 4.520585e+000 7.857797e+000 8.104171e+000
         vertex 4.520585e+000 7.857797e+000 1.000000e+001
         vertex 4.184627e+000 7.767777e+000 1.000000e+001
      endloop
   endfacet
   facet normal 2.868663e-001 -9.579706e-001 0.000000e+000
      outer loop
         vertex 4.520585e+000 7.857797e+000 8.104171e+000
         vertex 4.184627e+000 7.767777e+000 1.000000e+001
         vertex 4.184627e+000 7.767777e+000 8.104171e+000
      endloop
   endfacet
   facet normal 3.960194e-001 -9.182422e-001 0.000000e+000
      outer loop
         vertex 4.184627e+000 7.767777e+000 8.104171e+000
         vertex 4.184627e+000 7.767777e+000 1.000000e+001
         vertex 3.869406e+000 7.620787e+000 1.000000e+001
      endloop
   endfacet
   facet normal 4.488580e-001 -8.936031e-001 0.000000e+000
      outer loop
         vertex 4.184627e+000 7.767777e+000 8.104171e+000
         vertex 3.869406e+000 7.620787e+000 1.000000e+001
         vertex 3.869406e+000 7.620787e+000 8.104171e+000
      endloop
   endfacet
   facet normal 5.494540e-001 -8.355240e-001 0.000000e+000
      outer loop
         vertex 3.869406e+000 7.620787e+000 8.104171e+000
         vertex 3.869406e+000 7.620787e+000 1.000000e+001
         vertex 3.584497e+000 7.421292e+000 1.000000e+001
      endloop
   endfacet
   facet normal 5.972114e-001 -8.020838e-001 0.000000e+000
      outer loop
         vertex 3.869406e+000 7.620787e+000 8.104171e+000
         vertex 3.584497e+000 7.421292e+000 1.000000e+001
         vertex 3.584497e+000 7.421292e+000 8.104171e+000
      endloop
   endfacet
   facet normal 6.861938e-001 -7.274188e-001 0.000000e+000
      outer loop
         vertex 3.584497e+000 7.421292e+000 8.104171e+000
         vertex 3.584497e+000 7.421292e+000 1.000000e+001
         vertex 3.338559e+000 7.175354e+000 1.000000e+001
      endloop
   endfacet
   facet normal 7.274188e-001 -6.861938e-001 0.000000e+000
      outer loop
         vertex 3.584497e+000 7.421292e+000 8.104171e+000
         vertex 3.338559e+000 7.175354e+000 1.000000e+001
         vertex 3.338559e+000 7.175354e+000 8.104171e+000
      endloop
   endfacet
   facet normal 8.020838e-001 -5.972114e-001 0.000000e+000
      outer loop
         vertex 3.338559e+000 7.175354e+000 8.104171e+000
         vertex 3.338559e+000 7.175354e+000 1.000000e+001
         vertex 3.139064e+000 6.890446e+000 1.000000e+001
      endloop
   endfacet
   facet normal 8.355240e-001 -5.494540e-001 0.000000e+000
      outer loop
         vertex 3.338559e+000 7.175354e+000 8.104171e+000
         vertex 3.139064e+000 6.890446e+000 1.000000e+001
         vertex 3.139064e+000 6.890446e+000 8.104171e+000
      endloop
   endfacet
   facet normal 8.936031e-001 -4.488580e-001 0.000000e+000
      outer loop
         vertex 3.139064e+000 6.890446e+000 8.104171e+000
         vertex 3.139064e+000 6.890446e+000 1.000000e+001
         vertex 2.992074e+000 6.575224e+000 1.000000e+001
      endloop
   endfacet
   facet normal 9.182422e-001 -3.960194e-001 0.000000e+000
      outer loop
         vertex 3.139064e+000 6.890446e+000 8.104171e+000
         vertex 2.992074e+000 6.575224e+000 1.000000e+001
         vertex 2.992074e+000 6.575224e+000 8.104171e+000
      endloop
   endfacet
   facet normal 9.579706e-001 -2.868663e-001 0.000000e+000
      outer loop
         vertex 2.992074e+000 6.575224e+000 8.104171e+000
         vertex 2.992074e+000 6.575224e+000 1.000000e+001
         vertex 2.902055e+000 6.239267e+000 1.000000e+001
      endloop
   endfacet
   facet normal 9.730600e-001 -2.305519e-001 0.000000e+000
      outer loop
         vertex 2.992074e+000 6.575224e+000 8.104171e+000
         vertex 2.902055e+000 6.239267e+000 1.000000e+001
         vertex 2.902055e+000 6.239267e+000 8.104171e+000
      endloop
   endfacet
   facet normal 9.932307e-001 -1.161583e-001 0.000000e+000
      outer loop
         vertex 2.902055e+000 6.239267e+000 8.104171e+000
         vertex 2.902055e+000 6.239267e+000 1.000000e+001
         vertex 2.871741e+000 5.892782e+000 1.000000e+001
      endloop
   endfacet
   facet normal 9.983119e-001 -5.807913e-002 0.000000e+000
      outer loop
         vertex 2.902055e+000 6.239267e+000 8.104171e+000
         vertex 2.871741e+000 5.892782e+000 1.000000e+001
         vertex 2.871741e+000 5.892782e+000 8.104171e+000
      endloop
   endfacet
   facet normal 9.983119e-001 5.807913e-002 0.000000e+000
      outer loop
         vertex 2.871741e+000 5.892782e+000 8.104171e+000
         vertex 2.871741e+000 5.892782e+000 1.000000e+001
         vertex 2.902055e+000 5.546297e+000 1.000000e+001
      endloop
   endfacet
   facet normal 9.932307e-001 1.161583e-001 0.000000e+000
      outer loop
         vertex 2.871741e+000 5.892782e+000 8.104171e+000
         vertex 2.902055e+000 5.546297e+000 1.000000e+001
         vertex 2.902055e+000 5.546297e+000 8.104171e+000
      endloop
   endfacet
   facet normal 9.730600e-001 2.305519e-001 0.000000e+000
      outer loop
         vertex 2.902055e+000 5.546297e+000 8.104171e+000
         vertex 2.902055e+000 5.546297e+000 1.000000e+001
         vertex 2.992074e+000 5.210339e+000 1.000000e+001
      endloop
   endfacet
   facet normal 9.579706e-001 2.868663e-001 0.000000e+000
      outer loop
         vertex 2.902055e+000 5.546297e+000 8.104171e+000
         vertex 2.992074e+000 5.210339e+000 1.000000e+001
         vertex 2.992074e+000 5.210339e+000 8.104171e+000
      endloop
   endfacet
   facet normal 9.182422e-001 3.960194e-001 0.000000e+000
      outer loop
         vertex 2.992074e+000 5.210339e+000 8.104171e+000
         vertex 2.992074e+000 5.210339e+000 1.000000e+001
         vertex 3.139064e+000 4.895117e+000 1.000000e+001
      endloop
   endfacet
   facet normal 8.936031e-001 4.488580e-001 0.000000e+000
      outer loop
         vertex 2.992074e+000 5.210339e+000 8.104171e+000
         vertex 3.139064e+000 4.895117e+000 1.000000e+001
         vertex 3.139064e+000 4.895117e+000 8.104171e+000
      endloop
   endfacet
   facet normal 8.355240e-001 5.494540e-001 0.000000e+000
      outer loop
         vertex 3.139064e+000 4.895117e+000 8.104171e+000
         vertex 3.139064e+000 4.895117e+000 1.000000e+001
         vertex 3.338559e+000 4.610209e+000 1.000000e+001
      endloop
   endfacet
   facet normal 8.020838e-001 5.972114e-001 0.000000e+000
      outer loop
         vertex 3.139064e+000 4.895117e+000 8.104171e+000
         vertex 3.338559e+000 4.610209e+000 1.000000e+001
         vertex 3.338559e+000 4.610209e+000 8.104171e+000
      endloop
   endfacet
   facet normal 7.274188e-001 6.861938e-001 0.000000e+000
      outer loop
         vertex 3.338559e+000 4.610209e+000 8.104171e+000
         vertex 3.338559e+000 4.610209e+000 1.000000e+001
         vertex 3.584497e+000 4.364271e+000 1.000000e+001
      endloop
   endfacet
   facet normal 6.861938e-001 7.274188e-001 0.000000e+000
      outer loop
         vertex 3.338559e+000 4.610209e+000 8.104171e+000
         vertex 3.584497e+000 4.364271e+000 1.000000e+001
         vertex 3.584497e+000 4.364271e+000 8.104171e+000
      endloop
   endfacet
   facet normal 5.972114e-001 8.020838e-001 0.000000e+000
      outer loop
         vertex 3.584497e+000 4.364271e+000 8.104171e+000
         vertex 3.584497e+000 4.364271e+000 1.000000e+001
         vertex 3.869406e+000 4.164776e+000 1.000000e+001
      endloop
   endfacet
   facet normal 5.494540e-001 8.355240e-001 0.000000e+000
      outer loop
         vertex 3.584497e+000 4.364271e+000 8.104171e+000
         vertex 3.869406e+000 4.164776e+000 1.000000e+001
         vertex 3.869406e+000 4.164776e+000 8.104171e+000
      endloop
   endfacet
   facet normal 4.488580e-001 8.936031e-001 0.000000e+000
      outer loop
         vertex 3.869406e+000 4.164776e+000 8.104171e+000
         vertex 3.869406e+000 4.164776e+000 1.000000e+001
         vertex 4.184627e+000 4.017786e+000 1.000000e+001
      endloop
   endfacet
   facet normal 3.960194e-001 9.182422e-001 0.000000e+000
      outer loop
         vertex 3.869406e+000 4.164776e+000 8.104171e+000
         vertex 4.184627e+000 4.017786e+000 1.000000e+001
         vertex 4.184627e+000 4.017786e+000 8.104171e+000
      endloop
   endfacet
   facet normal 2.868663e-001 9.579706e-001 0.000000e+000
      outer loop
         vertex 4.184627e+000 4.017786e+000 8.104171e+000
         vertex 4.184627e+000 4.017786e+000 1.000000e+001
         vertex 4.520585e+000 3.927767e+000 1.000000e+001
      endloop
   endfacet
   facet normal 2.305519e-001 9.730600e-001 0.000000e+000
      outer loop
         vertex 4.184627e+000 4.017786e+000 8.104171e+000
         vertex 4.520585e+000 3.927767e+000 1.000000e+001
         vertex 4.520585e+000 3.927767e+000 8.104171e+000
      endloop
   endfacet
   facet normal 1.161583e-001 9.932307e-001 0.000000e+000
      outer loop
         vertex 4.520585e+000 3.927767e+000 8.104171e+000
         vertex 4.520585e+000 3.927767e+000 1.000000e+001
         vertex 4.867070e+000 3.897453e+000 1.000000e+001
      endloop
   endfacet
   facet normal 5.807913e-002 9.983119e-001 0.000000e+000
      outer loop
         vertex 4.520585e+000 3.927767e+000 8.104171e+000
         vertex 4.867070e+000 3.897453e+000 1.000000e+001
         vertex 4.867070e+000 3.897453e+000 8.104171e+000
      endloop
   endfacet
   facet normal -5.807913e-002 9.983119e-001 0.000000e+000
      outer loop
         vertex 4.867070e+000 3.897453e+000 8.104171e+000
         vertex 4.867070e+000 3.897453e+000 1.000000e+001
         vertex 5.213555e+000 3.927767e+000 1.000000e+001
      endloop
   endfacet
   facet normal -1.161583e-001 9.932307e-001 0.000000e+000
      outer loop
         vertex 4.867070e+000 3.897453e+000 8.104171e+000
         vertex 5.213555e+000 3.927767e+000 1.000000e+001
         vertex 5.213555e+000 3.927767e+000 8.104171e+000
      endloop
   endfacet
   facet normal -2.305519e-001 9.730600e-001 0.000000e+000
      outer loop
         vertex 5.213555e+000 3.927767e+000 8.104171e+000
         vertex 5.213555e+000 3.927767e+000 1.000000e+001
         vertex 5.549512e+000 4.017786e+000 1.000000e+001
      endloop
   endfacet
   facet normal -2.868663e-001 9.579706e-001 0.000000e+000
      outer loop
         vertex 5.213555e+000 3.927767e+000 8.104171e+000
         vertex 5.549512e+000 4.017786e+000 1.000000e+001
         vertex 5.549512e+000 4.017786e+000 8.104171e+000
      endloop
   endfacet
   facet normal -3.960194e-001 9.182422e-001 0.000000e+000
      outer loop
         vertex 5.549512e+000 4.017786e+000 8.104171e+000
         vertex 5.549512e+000 4.017786e+000 1.000000e+001
         vertex 5.864734e+000 4.164776e+000 1.000000e+001
      endloop
   endfacet
   facet normal -4.488580e-001 8.936031e-001 0.000000e+000
      outer loop
         vertex 5.549512e+000 4.017786e+000 8.104171e+000
         vertex 5.864734e+000 4.164776e+000 1.000000e+001
         vertex 5.864734e+000 4.164776e+000 8.104171e+000
      endloop
   endfacet
   facet normal -5.494540e-001 8.355240e-001 0.000000e+000
      outer loop
         vertex 5.864734e+000 4.164776e+000 8.104171e+000
         vertex 5.864734e+000 4.164776e+000 1.000000e+001
         vertex 6.149642e+000 4.364271e+000 1.000000e+001
      endloop
   endfacet
   facet normal -5.972114e-001 8.020838e-001 0.000000e+000
      outer loop
         vertex 5.864734e+000 4.164776e+000 8.104171e+000
         vertex 6.149642e+000 4.364271e+000 1.000000e+001
         vertex 6.149642e+000 4.364271e+000 8.104171e+000
      endloop
   endfacet
   facet normal -6.861938e-001 7.274188e-001 0.000000e+000
      outer loop
         vertex 6.149642e+000 4.364271e+000 8.104171e+000
         vertex 6.149642e+000 4.364271e+000 1.000000e+001
         vertex 6.395580e+000 4.610209e+000 1.000000e+001
      endloop
   endfacet
   facet normal -7.274188e-001 6.861938e-001 0.000000e+000
      outer loop
         vertex 6.149642e+000 4.364271e+000 8.104171e+000
         vertex 6.395580e+000 4.610209e+000 1.000000e+001
         vertex 6.395580e+000 4.610209e+000 8.104171e+000
      endloop
   endfacet
   facet normal -8.020838e-001 5.972114e-001 0.000000e+000
      outer loop
         vertex 6.395580e+000 4.610209e+000 8.104171e+000
         vertex 6.395580e+000 4.610209e+000 1.000000e+001
         vertex 6.595075e+000 4.895117e+000 1.000000e+001
      endloop
   endfacet
   facet normal -8.355240e-001 5.494540e-001 0.000000e+000
      outer loop
         vertex 6.395580e+000 4.610209e+000 8.104171e+000
         vertex 6.595075e+000 4.895117e+000 1.000000e+001
         vertex 6.595075e+000 4.895117e+000 8.104171e+000
      endloop
   endfacet
   facet normal -8.936031e-001 4.488580e-001 0.000000e+000
      outer loop
         vertex 6.595075e+000 4.895117e+000 8.104171e+000
         vertex 6.595075e+000 4.895117e+000 1.000000e+001
         vertex 6.742065e+000 5.210339e+000 1.000000e+001
      endloop
   endfacet
   facet normal -9.182422e-001 3.960194e-001 0.000000e+000
      outer loop
         vertex 6.595075e+000 4.895117e+000 8.104171e+000
         vertex 6.742065e+000 5.210339e+000 1.000000e+001
         vertex 6.742065e+000 5.210339e+000 8.104171e+000
      endloop
   endfacet
   facet normal -9.579706e-001 2.868663e-001 0.000000e+000
      outer loop
         vertex 6.742065e+000 5.210339e+000 8.104171e+000
         vertex 6.742065e+000 5.210339e+000 1.000000e+001
         vertex 6.832085e+000 5.546297e+000 1.000000e+001
      endloop
   endfacet
   facet normal -9.730600e-001 2.305519e-001 0.000000e+000
      outer loop
         vertex 6.742065e+000 5.210339e+000 8.104171e+000
         vertex 6.832085e+000 5.546297e+000 1.000000e+001
         vertex 6.832085e+000 5.546297e+000 8.104171e+000
      endloop
   endfacet
   facet normal -9.932307e-001 1.161583e-001 0.000000e+000
      outer loop
         vertex 6.832085e+000 5.546297e+000 8.104171e+000
         vertex 6.832085e+000 5.546297e+000 1.000000e+001
         vertex 6.862398e+000 5.892782e+000 1.000000e+001
      endloop
   endfacet
   facet normal 0.000000e+000 0.000000e+000 1.000000e+000
      outer loop
         vertex 3.338559e+000 7.175354e+000 8.104171e+000
         vertex 3.139064e+000 6.890446e+000 8.104171e+000
         vertex 2.992074e+000 6.575224e+000 8.104171e+000
      endloop
   endfacet
   facet normal 0.000000e+000 0.000000e+000 1.000000e+000
      outer loop
         vertex 3.338559e+000 7.175354e+000 8.104171e+000
         vertex 2.992074e+000 6.575224e+000 8.104171e+000
         vertex 3.584497e+000 7.421292e+000 8.104171e+000
      endloop
   endfacet
   facet normal 0.000000e+000 0.000000e+000 1.000000e+000
      outer loop
         vertex 4.520585e+000 7.857797e+000 8.104171e+000
         vertex 2.992074e+000 5.210339e+000 8.104171e+000
         vertex 4.867070e+000 7.888110e+000 8.104171e+000
      endloop
   endfacet
   facet normal 0.000000e+000 0.000000e+000 1.000000e+000
      outer loop
         vertex 4.867070e+000 7.888110e+000 8.104171e+000
         vertex 2.992074e+000 5.210339e+000 8.104171e+000
         vertex 3.139064e+000 4.895117e+000 8.104171e+000
      endloop
   endfacet
   facet normal 0.000000e+000 0.000000e+000 1.000000e+000
      outer loop
         vertex 4.867070e+000 7.888110e+000 8.104171e+000
         vertex 3.139064e+000 4.895117e+000 8.104171e+000
         vertex 3.338559e+000 4.610209e+000 8.104171e+000
      endloop
   endfacet
   facet normal 0.000000e+000 0.000000e+000 1.000000e+000
      outer loop
         vertex 3.338559e+000 4.610209e+000 8.104171e+000
         vertex 3.584497e+000 4.364271e+000 8.104171e+000
         vertex 4.867070e+000 7.888110e+000 8.104171e+000
      endloop
   endfacet
   facet normal 0.000000e+000 0.000000e+000 1.000000e+000
      outer loop
         vertex 4.867070e+000 7.888110e+000 8.104171e+000
         vertex 3.584497e+000 4.364271e+000 8.104171e+000
         vertex 3.869406e+000 4.164776e+000 8.104171e+000
      endloop
   endfacet
   facet normal 0.000000e+000 0.000000e+000 1.000000e+000
      outer loop
         vertex 4.867070e+000 7.888110e+000 8.104171e+000
         vertex 3.869406e+000 4.164776e+000 8.104171e+000
         vertex 4.184627e+000 4.017786e+000 8.104171e+000
      endloop
   endfacet
   facet normal 0.000000e+000 0.000000e+000 1.000000e+000
      outer loop
         vertex 5.549512e+000 7.767777e+000 8.104171e+000
         vertex 5.213555e+000 7.857797e+000 8.104171e+000
         vertex 4.867070e+000 3.897453e+000 8.104171e+000
      endloop
   endfacet
   facet normal 0.000000e+000 0.000000e+000 1.000000e+000
      outer loop
         vertex 4.867070e+000 3.897453e+000 8.104171e+000
         vertex 5.213555e+000 7.857797e+000 8.104171e+000
         vertex 4.867070e+000 7.888110e+000 8.104171e+000
      endloop
   endfacet
   facet normal 0.000000e+000 0.000000e+000 1.000000e+000
      outer loop
         vertex 4.867070e+000 3.897453e+000 8.104171e+000
         vertex 4.867070e+000 7.888110e+000 8.104171e+000
         vertex 4.520585e+000 3.927767e+000 8.104171e+000
      endloop
   endfacet
   facet normal 0.000000e+000 0.000000e+000 1.000000e+000
      outer loop
         vertex 4.520585e+000 3.927767e+000 8.104171e+000
         vertex 4.867070e+000 7.888110e+000 8.104171e+000
         vertex 4.184627e+000 4.017786e+000 8.104171e+000
      endloop
   endfacet
   facet normal 0.000000e+000 0.000000e+000 1.000000e+000
      outer loop
         vertex 5.549512e+000 4.017786e+000 8.104171e+000
         vertex 6.395580e+000 7.175354e+000 8.104171e+000
         vertex 6.149642e+000 7.421292e+000 8.104171e+000
      endloop
   endfacet
   facet normal 0.000000e+000 0.000000e+000 1.000000e+000
      outer loop
         vertex 3.584497e+000 7.421292e+000 8.104171e+000
         vertex 2.992074e+000 6.575224e+000 8.104171e+000
         vertex 3.869406e+000 7.620787e+000 8.104171e+000
      endloop
   endfacet
   facet normal 0.000000e+000 0.000000e+000 1.000000e+000
      outer loop
         vertex 3.869406e+000 7.620787e+000 8.104171e+000
         vertex 2.992074e+000 6.575224e+000 8.104171e+000
         vertex 2.902055e+000 6.239267e+000 8.104171e+000
      endloop
   endfacet
   facet normal 0.000000e+000 0.000000e+000 1.000000e+000
      outer loop
         vertex 3.869406e+000 7.620787e+000 8.104171e+000
         vertex 2.902055e+000 6.239267e+000 8.104171e+000
         vertex 2.871741e+000 5.892782e+000 8.104171e+000
      endloop
   endfacet
   facet normal 0.000000e+000 0.000000e+000 1.000000e+000
      outer loop
         vertex 4.520585e+000 7.857797e+000 8.104171e+000
         vertex 4.184627e+000 7.767777e+000 8.104171e+000
         vertex 2.992074e+000 5.210339e+000 8.104171e+000
      endloop
   endfacet
   facet normal 0.000000e+000 0.000000e+000 1.000000e+000
      outer loop
         vertex 2.992074e+000 5.210339e+000 8.104171e+000
         vertex 4.184627e+000 7.767777e+000 8.104171e+000
         vertex 3.869406e+000 7.620787e+000 8.104171e+000
      endloop
   endfacet
   facet normal 0.000000e+000 0.000000e+000 1.000000e+000
      outer loop
         vertex 2.992074e+000 5.210339e+000 8.104171e+000
         vertex 3.869406e+000 7.620787e+000 8.104171e+000
         vertex 2.902055e+000 5.546297e+000 8.104171e+000
      endloop
   endfacet
   facet normal 0.000000e+000 0.000000e+000 1.000000e+000
      outer loop
         vertex 2.902055e+000 5.546297e+000 8.104171e+000
         vertex 3.869406e+000 7.620787e+000 8.104171e+000
         vertex 2.871741e+000 5.892782e+000 8.104171e+000
      endloop
   endfacet
   facet normal 0.000000e+000 0.000000e+000 1.000000e+000
      outer loop
         vertex 5.864734e+000 4.164776e+000 8.104171e+000
         vertex 6.742065e+000 6.575224e+000 8.104171e+000
         vertex 5.549512e+000 4.017786e+000 8.104171e+000
      endloop
   endfacet
   facet normal 0.000000e+000 0.000000e+000 1.000000e+000
      outer loop
         vertex 5.549512e+000 4.017786e+000 8.104171e+000
         vertex 6.742065e+000 6.575224e+000 8.104171e+000
         vertex 6.595075e+000 6.890446e+000 8.104171e+000
      endloop
   endfacet
   facet normal 0.000000e+000 0.000000e+000 1.000000e+000
      outer loop
         vertex 5.549512e+000 4.017786e+000 8.104171e+000
         vertex 6.595075e+000 6.890446e+000 8.104171e+000
         vertex 6.395580e+000 7.175354e+000 8.104171e+000
      endloop
   endfacet
   facet normal 0.000000e+000 0.000000e+000 1.000000e+000
      outer loop
         vertex 5.864734e+000 4.164776e+000 8.104171e+000
         vertex 6.149642e+000 4.364271e+000 8.104171e+000
         vertex 6.742065e+000 6.575224e+000 8.104171e+000
      endloop
   endfacet
   facet normal 0.000000e+000 0.000000e+000 1.000000e+000
      outer loop
         vertex 6.742065e+000 6.575224e+000 8.104171e+000
         vertex 6.149642e+000 4.364271e+000 8.104171e+000
         vertex 6.395580e+000 4.610209e+000 8.104171e+000
      endloop
   endfacet
   facet normal 0.000000e+000 0.000000e+000 1.000000e+000
      outer loop
         vertex 6.742065e+000 6.575224e+000 8.104171e+000
         vertex 6.395580e+000 4.610209e+000 8.104171e+000
         vertex 6.595075e+000 4.895117e+000 8.104171e+000
      endloop
   endfacet
   facet normal 0.000000e+000 0.000000e+000 1.000000e+000
      outer loop
         vertex 6.595075e+000 4.895117e+000 8.104171e+000
         vertex 6.742065e+000 5.210339e+000 8.104171e+000
         vertex 6.742065e+000 6.575224e+000 8.104171e+000
      endloop
   endfacet
   facet normal 0.000000e+000 0.000000e+000 1.000000e+000
      outer loop
         vertex 6.742065e+000 6.575224e+000 8.104171e+000
         vertex 6.742065e+000 5.210339e+000 8.104171e+000
         vertex 6.832085e+000 5.546297e+000 8.104171e+000
      endloop
   endfacet
   facet normal 0.000000e+000 0.000000e+000 1.000000e+000
      outer loop
         vertex 6.742065e+000 6.575224e+000 8.104171e+000
         vertex 6.832085e+000 5.546297e+000 8.104171e+000
         vertex 6.832085e+000 6.239267e+000 8.104171e+000
      endloop
   endfacet
   facet normal 0.000000e+000 0.000000e+000 1.000000e+000
      outer loop
         vertex 6.832085e+000 6.239267e+000 8.104171e+000
         vertex 6.832085e+000 5.546297e+000 8.104171e+000
         vertex 6.862398e+000 5.892782e+000 8.104171e+000
      endloop
   endfacet
   facet normal 0.000000e+000 0.000000e+000 1.000000e+000
      outer loop
         vertex 4.867070e+000 3.897453e+000 8.104171e+000
         vertex 5.213555e+000 3.927767e+000 8.104171e+000
         vertex 5.549512e+000 7.767777e+000 8.104171e+000
      endloop
   endfacet
   facet normal 0.000000e+000 0.000000e+000 1.000000e+000
      outer loop
         vertex 5.549512e+000 7.767777e+000 8.104171e+000
         vertex 5.213555e+000 3.927767e+000 8.104171e+000
         vertex 5.549512e+000 4.017786e+000 8.104171e+000
      endloop
   endfacet
   facet normal 0.000000e+000 0.000000e+000 1.000000e+000
      outer loop
         vertex 5.549512e+000 7.767777e+000 8.104171e+000
         vertex 5.549512e+000 4.017786e+000 8.104171e+000
         vertex 5.864734e+000 7.620787e+000 8.104171e+000
      endloop
   endfacet
   facet normal 0.000000e+000 0.000000e+000 1.000000e+000
      outer loop
         vertex 5.864734e+000 7.620787e+000 8.104171e+000
         vertex 5.549512e+000 4.017786e+000 8.104171e+000
         vertex 6.149642e+000 7.421292e+000 8.104171e+000
      endloop
   endfacet
endsolid