solid 2_499
   facet normal -1.000000e+000 0.000000e+000 0.000000e+000
      outer loop
         vertex 0.000000e+000 1.000000e+001 1.000000e+001
         vertex 0.000000e+000 1.000000e+001 0.000000e+000
         vertex 0.000000e+000 0.000000e+000 1.000000e+001
      endloop
   endfacet
   facet normal -1.000000e+000 0.000000e+000 0.000000e+000
      outer loop
         vertex 0.000000e+000 0.000000e+000 1.000000e+001
         vertex 0.000000e+000 1.000000e+001 0.000000e+000
         vertex 0.000000e+000 0.000000e+000 0.000000e+000
      endloop
   endfacet
   facet normal 0.000000e+000 0.000000e+000 1.000000e+000
      outer loop
         vertex 6.752388e+000 2.697442e+000 1.000000e+001
         vertex 6.657690e+000 2.302991e+000 1.000000e+001
         vertex 1.000000e+001 0.000000e+000 1.000000e+001
      endloop
   endfacet
   facet normal 0.000000e+000 0.000000e+000 1.000000e+000
      outer loop
         vertex 6.657690e+000 2.302991e+000 1.000000e+001
         vertex 6.502450e+000 1.928212e+000 1.000000e+001
         vertex 1.000000e+001 0.000000e+000 1.000000e+001
      endloop
   endfacet
   facet normal 0.000000e+000 0.000000e+000 1.000000e+000
      outer loop
         vertex 1.000000e+001 0.000000e+000 1.000000e+001
         vertex 6.502450e+000 1.928212e+000 1.000000e+001
         vertex 6.290494e+000 1.582331e+000 1.000000e+001
      endloop
   endfacet
   facet normal 0.000000e+000 0.000000e+000 1.000000e+000
      outer loop
         vertex 1.000000e+001 0.000000e+000 1.000000e+001
         vertex 6.290494e+000 1.582331e+000 1.000000e+001
         vertex 6.027040e+000 1.273866e+000 1.000000e+001
      endloop
   endfacet
   facet normal 0.000000e+000 0.000000e+000 1.000000e+000
      outer loop
         vertex 6.027040e+000 1.273866e+000 1.000000e+001
         vertex 5.718575e+000 1.010411e+000 1.000000e+001
         vertex 1.000000e+001 0.000000e+000 1.000000e+001
      endloop
   endfacet
   facet normal 0.000000e+000 0.000000e+000 1.000000e+000
      outer loop
         vertex 1.000000e+001 0.000000e+000 1.000000e+001
         vertex 5.718575e+000 1.010411e+000 1.000000e+001
         vertex 5.372694e+000 7.984552e-001 1.000000e+001
      endloop
   endfacet
   facet normal 0.000000e+000 0.000000e+000 1.000000e+000
      outer loop
         vertex 1.000000e+001 0.000000e+000 1.000000e+001
         vertex 5.372694e+000 7.984552e-001 1.000000e+001
         vertex 4.997914e+000 6.432165e-001 1.000000e+001
      endloop
   endfacet
   facet normal 0.000000e+000 0.000000e+000 1.000000e+000
      outer loop
         vertex 6.027040e+000 4.929834e+000 1.000000e+001
         vertex 6.290494e+000 4.621368e+000 1.000000e+001
         vertex 1.000000e+001 1.000000e+001 1.000000e+001
      endloop
   endfacet
   facet normal 0.000000e+000 0.000000e+000 1.000000e+000
      outer loop
         vertex 1.000000e+001 1.000000e+001 1.000000e+001
         vertex 6.290494e+000 4.621368e+000 1.000000e+001
         vertex 6.502450e+000 4.275488e+000 1.000000e+001
      endloop
   endfacet
   facet normal 0.000000e+000 0.000000e+000 1.000000e+000
      outer loop
         vertex 4.997914e+000 5.560483e+000 1.000000e+001
         vertex 5.372694e+000 5.405244e+000 1.000000e+001
         vertex 1.000000e+001 1.000000e+001 1.000000e+001
      endloop
   endfacet
   facet normal 0.000000e+000 0.000000e+000 1.000000e+000
      outer loop
         vertex 1.000000e+001 1.000000e+001 1.000000e+001
         vertex 5.372694e+000 5.405244e+000 1.000000e+001
         vertex 5.718575e+000 5.193288e+000 1.000000e+001
      endloop
   endfacet
   facet normal 0.000000e+000 0.000000e+000 1.000000e+000
      outer loop
         vertex 1.000000e+001 1.000000e+001 1.000000e+001
         vertex 5.718575e+000 5.193288e+000 1.000000e+001
         vertex 6.027040e+000 4.929834e+000 1.000000e+001
      endloop
   endfacet
   facet normal 0.000000e+000 0.000000e+000 1.000000e+000
      outer loop
         vertex 6.502450e+000 4.275488e+000 1.000000e+001
         vertex 6.657690e+000 3.900708e+000 1.000000e+001
         vertex 1.000000e+001 1.000000e+001 1.000000e+001
      endloop
   endfacet
   facet normal 0.000000e+000 0.000000e+000 1.000000e+000
      outer loop
         vertex 1.000000e+001 1.000000e+001 1.000000e+001
         vertex 6.657690e+000 3.900708e+000 1.000000e+001
         vertex 6.752388e+000 3.506258e+000 1.000000e+001
      endloop
   endfacet
   facet normal 0.000000e+000 0.000000e+000 1.000000e+000
      outer loop
         vertex 1.000000e+001 1.000000e+001 1.000000e+001
         vertex 6.752388e+000 3.506258e+000 1.000000e+001
         vertex 1.000000e+001 0.000000e+000 1.000000e+001
      endloop
   endfacet
   facet normal 0.000000e+000 0.000000e+000 1.000000e+000
      outer loop
         vertex 1.000000e+001 0.000000e+000 1.000000e+001
         vertex 6.752388e+000 3.506258e+000 1.000000e+001
         vertex 6.784216e+000 3.101850e+000 1.000000e+001
      endloop
   endfacet
   facet normal 0.000000e+000 0.000000e+000 1.000000e+000
      outer loop
         vertex 1.000000e+001 0.000000e+000 1.000000e+001
         vertex 6.784216e+000 3.101850e+000 1.000000e+001
         vertex 6.752388e+000 2.697442e+000 1.000000e+001
      endloop
   endfacet
   facet normal 0.000000e+000 0.000000e+000 1.000000e+000
      outer loop
         vertex 4.997914e+000 6.432165e-001 1.000000e+001
         vertex 4.603464e+000 5.485173e-001 1.000000e+001
         vertex 1.000000e+001 0.000000e+000 1.000000e+001
      endloop
   endfacet
   facet normal 0.000000e+000 0.000000e+000 1.000000e+000
      outer loop
         vertex 1.000000e+001 0.000000e+000 1.000000e+001
         vertex 4.603464e+000 5.485173e-001 1.000000e+001
         vertex 4.199056e+000 5.166897e-001 1.000000e+001
      endloop
   endfacet
   facet normal 0.000000e+000 0.000000e+000 1.000000e+000
      outer loop
         vertex 1.000000e+001 0.000000e+000 1.000000e+001
         vertex 4.199056e+000 5.166897e-001 1.000000e+001
         vertex 0.000000e+000 0.000000e+000 1.000000e+001
      endloop
   endfacet
   facet normal 0.000000e+000 0.000000e+000 1.000000e+000
      outer loop
         vertex 0.000000e+000 0.000000e+000 1.000000e+001
         vertex 4.199056e+000 5.166897e-001 1.000000e+001
         vertex 3.794648e+000 5.485173e-001 1.000000e+001
      endloop
   endfacet
   facet normal 0.000000e+000 0.000000e+000 1.000000e+000
      outer loop
         vertex 0.000000e+000 0.000000e+000 1.000000e+001
         vertex 3.794648e+000 5.485173e-001 1.000000e+001
         vertex 3.400198e+000 6.432165e-001 1.000000e+001
      endloop
   endfacet
   facet normal 0.000000e+000 0.000000e+000 1.000000e+000
      outer loop
         vertex 3.400198e+000 6.432165e-001 1.000000e+001
         vertex 3.025418e+000 7.984552e-001 1.000000e+001
         vertex 0.000000e+000 0.000000e+000 1.000000e+001
      endloop
   endfacet
   facet normal 0.000000e+000 0.000000e+000 1.000000e+000
      outer loop
         vertex 0.000000e+000 0.000000e+000 1.000000e+001
         vertex 3.025418e+000 7.984552e-001 1.000000e+001
         vertex 2.679537e+000 1.010411e+000 1.000000e+001
      endloop
   endfacet
   facet normal 0.000000e+000 0.000000e+000 1.000000e+000
      outer loop
         vertex 0.000000e+000 0.000000e+000 1.000000e+001
         vertex 2.679537e+000 1.010411e+000 1.000000e+001
         vertex 2.371072e+000 1.273866e+000 1.000000e+001
      endloop
   endfacet
   facet normal 0.000000e+000 0.000000e+000 1.000000e+000
      outer loop
         vertex 2.371072e+000 1.273866e+000 1.000000e+001
         vertex 2.107618e+000 1.582331e+000 1.000000e+001
         vertex 0.000000e+000 0.000000e+000 1.000000e+001
      endloop
   endfacet
   facet normal 0.000000e+000 0.000000e+000 1.000000e+000
      outer loop
         vertex 0.000000e+000 0.000000e+000 1.000000e+001
         vertex 2.107618e+000 1.582331e+000 1.000000e+001
         vertex 1.895661e+000 1.928212e+000 1.000000e+001
      endloop
   endfacet
   facet normal 0.000000e+000 0.000000e+000 1.000000e+000
      outer loop
         vertex 0.000000e+000 0.000000e+000 1.000000e+001
         vertex 1.895661e+000 1.928212e+000 1.000000e+001
         vertex 1.740423e+000 2.302991e+000 1.000000e+001
      endloop
   endfacet
   facet normal 0.000000e+000 0.000000e+000 1.000000e+000
      outer loop
         vertex 3.025418e+000 5.405244e+000 1.000000e+001
         vertex 3.400198e+000 5.560483e+000 1.000000e+001
         vertex 0.000000e+000 1.000000e+001 1.000000e+001
      endloop
   endfacet
   facet normal 0.000000e+000 0.000000e+000 1.000000e+000
      outer loop
         vertex 1.740423e+000 2.302991e+000 1.000000e+001
         vertex 1.645724e+000 2.697442e+000 1.000000e+001
         vertex 0.000000e+000 0.000000e+000 1.000000e+001
      endloop
   endfacet
   facet normal 0.000000e+000 0.000000e+000 1.000000e+000
      outer loop
         vertex 0.000000e+000 0.000000e+000 1.000000e+001
         vertex 1.645724e+000 2.697442e+000 1.000000e+001
         vertex 1.613896e+000 3.101850e+000 1.000000e+001
      endloop
   endfacet
   facet normal 0.000000e+000 0.000000e+000 1.000000e+000
      outer loop
         vertex 0.000000e+000 0.000000e+000 1.000000e+001
         vertex 1.613896e+000 3.101850e+000 1.000000e+001
         vertex 0.000000e+000 1.000000e+001 1.000000e+001
      endloop
   endfacet
   facet normal 0.000000e+000 0.000000e+000 1.000000e+000
      outer loop
         vertex 0.000000e+000 1.000000e+001 1.000000e+001
         vertex 1.613896e+000 3.101850e+000 1.000000e+001
         vertex 1.645724e+000 3.506258e+000 1.000000e+001
      endloop
   endfacet
   facet normal 0.000000e+000 0.000000e+000 1.000000e+000
      outer loop
         vertex 3.400198e+000 5.560483e+000 1.000000e+001
         vertex 3.794648e+000 5.655182e+000 1.000000e+001
         vertex 0.000000e+000 1.000000e+001 1.000000e+001
      endloop
   endfacet
   facet normal 0.000000e+000 0.000000e+000 1.000000e+000
      outer loop
         vertex 0.000000e+000 1.000000e+001 1.000000e+001
         vertex 3.794648e+000 5.655182e+000 1.000000e+001
         vertex 4.199056e+000 5.687009e+000 1.000000e+001
      endloop
   endfacet
   facet normal 0.000000e+000 0.000000e+000 1.000000e+000
      outer loop
         vertex 0.000000e+000 1.000000e+001 1.000000e+001
         vertex 4.199056e+000 5.687009e+000 1.000000e+001
         vertex 1.000000e+001 1.000000e+001 1.000000e+001
      endloop
   endfacet
   facet normal 0.000000e+000 0.000000e+000 1.000000e+000
      outer loop
         vertex 1.000000e+001 1.000000e+001 1.000000e+001
         vertex 4.199056e+000 5.687009e+000 1.000000e+001
         vertex 4.603464e+000 5.655182e+000 1.000000e+001
      endloop
   endfacet
   facet normal 0.000000e+000 0.000000e+000 1.000000e+000
      outer loop
         vertex 1.000000e+001 1.000000e+001 1.000000e+001
         vertex 4.603464e+000 5.655182e+000 1.000000e+001
         vertex 4.997914e+000 5.560483e+000 1.000000e+001
      endloop
   endfacet
   facet normal 0.000000e+000 0.000000e+000 1.000000e+000
      outer loop
         vertex 1.645724e+000 3.506258e+000 1.000000e+001
         vertex 1.740423e+000 3.900708e+000 1.000000e+001
         vertex 0.000000e+000 1.000000e+001 1.000000e+001
      endloop
   endfacet
   facet normal 0.000000e+000 0.000000e+000 1.000000e+000
      outer loop
         vertex 0.000000e+000 1.000000e+001 1.000000e+001
         vertex 1.740423e+000 3.900708e+000 1.000000e+001
         vertex 1.895661e+000 4.275488e+000 1.000000e+001
      endloop
   endfacet
   facet normal 0.000000e+000 0.000000e+000 1.000000e+000
      outer loop
         vertex 0.000000e+000 1.000000e+001 1.000000e+001
         vertex 1.895661e+000 4.275488e+000 1.000000e+001
         vertex 2.107618e+000 4.621368e+000 1.000000e+001
      endloop
   endfacet
   facet normal 0.000000e+000 0.000000e+000 1.000000e+000
      outer loop
         vertex 2.107618e+000 4.621368e+000 1.000000e+001
         vertex 2.371072e+000 4.929834e+000 1.000000e+001
         vertex 0.000000e+000 1.000000e+001 1.000000e+001
      endloop
   endfacet
   facet normal 0.000000e+000 0.000000e+000 1.000000e+000
      outer loop
         vertex 0.000000e+000 1.000000e+001 1.000000e+001
         vertex 2.371072e+000 4.929834e+000 1.000000e+001
         vertex 2.679537e+000 5.193288e+000 1.000000e+001
      endloop
   endfacet
   facet normal 0.000000e+000 0.000000e+000 1.000000e+000
      outer loop
         vertex 0.000000e+000 1.000000e+001 1.000000e+001
         vertex 2.679537e+000 5.193288e+000 1.000000e+001
         vertex 3.025418e+000 5.405244e+000 1.000000e+001
      endloop
   endfacet
   facet normal 1.000000e+000 0.000000e+000 0.000000e+000
      outer loop
         vertex 1.000000e+001 1.000000e+001 0.000000e+000
         vertex 1.000000e+001 1.000000e+001 1.000000e+001
         vertex 1.000000e+001 0.000000e+000 0.000000e+000
      endloop
   endfacet
   facet normal 1.000000e+000 0.000000e+000 0.000000e+000
      outer loop
         vertex 1.000000e+001 0.000000e+000 0.000000e+000
         vertex 1.000000e+001 1.000000e+001 1.000000e+001
         vertex 1.000000e+001 0.000000e+000 1.000000e+001
      endloop
   endfacet
   facet normal 0.000000e+000 0.000000e+000 -1.000000e+000
      outer loop
         vertex 0.000000e+000 1.000000e+001 0.000000e+000
         vertex 1.000000e+001 1.000000e+001 0.000000e+000
         vertex 0.000000e+000 0.000000e+000 0.000000e+000
      endloop
   endfacet
   facet normal 0.000000e+000 0.000000e+000 -1.000000e+000
      outer loop
         vertex 0.000000e+000 0.000000e+000 0.000000e+000
         vertex 1.000000e+001 1.000000e+001 0.000000e+000
         vertex 1.000000e+001 0.000000e+000 0.000000e+000
      endloop
   endfacet
   facet normal 0.000000e+000 1.000000e+000 0.000000e+000
      outer loop
         vertex 1.000000e+001 1.000000e+001 1.000000e+001
         vertex 1.000000e+001 1.000000e+001 0.000000e+000
         vertex 0.000000e+000 1.000000e+001 1.000000e+001
      endloop
   endfacet
   facet normal 0.000000e+000 1.000000e+000 0.000000e+000
      outer loop
         vertex 0.000000e+000 1.000000e+001 1.000000e+001
         vertex 1.000000e+001 1.000000e+001 0.000000e+000
         vertex 0.000000e+000 1.000000e+001 0.000000e+000
      endloop
   endfacet
   facet normal 0.000000e+000 -1.000000e+000 0.000000e+000
      outer loop
         vertex 1.000000e+001 0.000000e+000 0.000000e+000
         vertex 1.000000e+001 0.000000e+000 1.000000e+001
         vertex 0.000000e+000 0.000000e+000 0.000000e+000
      endloop
   endfacet
   facet normal 0.000000e+000 -1.000000e+000 0.000000e+000
      outer loop
         vertex 0.000000e+000 0.000000e+000 0.000000e+000
         vertex 1.000000e+001 0.000000e+000 1.000000e+001
         vertex 0.000000e+000 0.000000e+000 1.000000e+001
      endloop
   endfacet
   facet normal -9.986320e-001 5.228807e-002 0.000000e+000
      outer loop
         vertex 6.752388e+000 2.697442e+000 2.611090e+000
         vertex 6.784216e+000 3.101850e+000 1.000000e+001
         vertex 6.784216e+000 3.101850e+000 2.611090e+000
      endloop
   endfacet
   facet normal -9.986320e-001 -5.228807e-002 0.000000e+000
      outer loop
         vertex 6.784216e+000 3.101850e+000 2.611090e+000
         vertex 6.784216e+000 3.101850e+000 1.000000e+001
         vertex 6.752388e+000 3.506258e+000 1.000000e+001
      endloop
   endfacet
   facet normal -9.945168e-001 -1.045761e-001 0.000000e+000
      outer loop
         vertex 6.784216e+000 3.101850e+000 2.611090e+000
         vertex 6.752388e+000 3.506258e+000 1.000000e+001
         vertex 6.752388e+000 3.506258e+000 2.611090e+000
      endloop
   endfacet
   facet normal -9.781576e-001 -2.078648e-001 0.000000e+000
      outer loop
         vertex 6.752388e+000 3.506258e+000 2.611090e+000
         vertex 6.752388e+000 3.506258e+000 1.000000e+001
         vertex 6.657690e+000 3.900708e+000 1.000000e+001
      endloop
   endfacet
   facet normal -9.659134e-001 -2.588653e-001 0.000000e+000
      outer loop
         vertex 6.752388e+000 3.506258e+000 2.611090e+000
         vertex 6.657690e+000 3.900708e+000 1.000000e+001
         vertex 6.657690e+000 3.900708e+000 2.611090e+000
      endloop
   endfacet
   facet normal -9.335976e-001 -3.583232e-001 0.000000e+000
      outer loop
         vertex 6.657690e+000 3.900708e+000 2.611090e+000
         vertex 6.657690e+000 3.900708e+000 1.000000e+001
         vertex 6.502450e+000 4.275488e+000 1.000000e+001
      endloop
   endfacet
   facet normal -9.135259e-001 -4.067805e-001 0.000000e+000
      outer loop
         vertex 6.657690e+000 3.900708e+000 2.611090e+000
         vertex 6.502450e+000 4.275488e+000 1.000000e+001
         vertex 6.502450e+000 4.275488e+000 2.611090e+000
      endloop
   endfacet
   facet normal -8.660494e-001 -4.999584e-001 0.000000e+000
      outer loop
         vertex 6.502450e+000 4.275488e+000 2.611090e+000
         vertex 6.502450e+000 4.275488e+000 1.000000e+001
         vertex 6.290494e+000 4.621368e+000 1.000000e+001
      endloop
   endfacet
   facet normal -8.386444e-001 -5.446792e-001 0.000000e+000
      outer loop
         vertex 6.502450e+000 4.275488e+000 2.611090e+000
         vertex 6.290494e+000 4.621368e+000 1.000000e+001
         vertex 6.290494e+000 4.621368e+000 2.611090e+000
      endloop
   endfacet
   facet normal -7.771761e-001 -6.292831e-001 0.000000e+000
      outer loop
         vertex 6.290494e+000 4.621368e+000 2.611090e+000
         vertex 6.290494e+000 4.621368e+000 1.000000e+001
         vertex 6.027040e+000 4.929834e+000 1.000000e+001
      endloop
   endfacet
   facet normal -7.431127e-001 -6.691663e-001 0.000000e+000
      outer loop
         vertex 6.290494e+000 4.621368e+000 2.611090e+000
         vertex 6.027040e+000 4.929834e+000 1.000000e+001
         vertex 6.027040e+000 4.929834e+000 2.611090e+000
      endloop
   endfacet
   facet normal -6.691663e-001 -7.431127e-001 0.000000e+000
      outer loop
         vertex 6.027040e+000 4.929834e+000 2.611090e+000
         vertex 6.027040e+000 4.929834e+000 1.000000e+001
         vertex 5.718575e+000 5.193288e+000 1.000000e+001
      endloop
   endfacet
   facet normal -6.292831e-001 -7.771761e-001 0.000000e+000
      outer loop
         vertex 6.027040e+000 4.929834e+000 2.611090e+000
         vertex 5.718575e+000 5.193288e+000 1.000000e+001
         vertex 5.718575e+000 5.193288e+000 2.611090e+000
      endloop
   endfacet
   facet normal -5.446792e-001 -8.386444e-001 0.000000e+000
      outer loop
         vertex 5.718575e+000 5.193288e+000 2.611090e+000
         vertex 5.718575e+000 5.193288e+000 1.000000e+001
         vertex 5.372694e+000 5.405244e+000 1.000000e+001
      endloop
   endfacet
   facet normal -4.999584e-001 -8.660494e-001 0.000000e+000
      outer loop
         vertex 5.718575e+000 5.193288e+000 2.611090e+000
         vertex 5.372694e+000 5.405244e+000 1.000000e+001
         vertex 5.372694e+000 5.405244e+000 2.611090e+000
      endloop
   endfacet
   facet normal -4.067805e-001 -9.135259e-001 0.000000e+000
      outer loop
         vertex 5.372694e+000 5.405244e+000 2.611090e+000
         vertex 5.372694e+000 5.405244e+000 1.000000e+001
         vertex 4.997914e+000 5.560483e+000 1.000000e+001
      endloop
   endfacet
   facet normal -3.583232e-001 -9.335976e-001 0.000000e+000
      outer loop
         vertex 5.372694e+000 5.405244e+000 2.611090e+000
         vertex 4.997914e+000 5.560483e+000 1.000000e+001
         vertex 4.997914e+000 5.560483e+000 2.611090e+000
      endloop
   endfacet
   facet normal -2.588653e-001 -9.659134e-001 0.000000e+000
      outer loop
         vertex 4.997914e+000 5.560483e+000 2.611090e+000
         vertex 4.997914e+000 5.560483e+000 1.000000e+001
         vertex 4.603464e+000 5.655182e+000 1.000000e+001
      endloop
   endfacet
   facet normal -2.078648e-001 -9.781575e-001 0.000000e+000
      outer loop
         vertex 4.997914e+000 5.560483e+000 2.611090e+000
         vertex 4.603464e+000 5.655182e+000 1.000000e+001
         vertex 4.603464e+000 5.655182e+000 2.611090e+000
      endloop
   endfacet
   facet normal -1.045761e-001 -9.945168e-001 0.000000e+000
      outer loop
         vertex 4.603464e+000 5.655182e+000 2.611090e+000
         vertex 4.603464e+000 5.655182e+000 1.000000e+001
         vertex 4.199056e+000 5.687009e+000 1.000000e+001
      endloop
   endfacet
   facet normal -5.228807e-002 -9.986320e-001 0.000000e+000
      outer loop
         vertex 4.603464e+000 5.655182e+000 2.611090e+000
         vertex 4.199056e+000 5.687009e+000 1.000000e+001
         vertex 4.199056e+000 5.687009e+000 2.611090e+000
      endloop
   endfacet
   facet normal 5.228807e-002 -9.986320e-001 0.000000e+000
      outer loop
         vertex 4.199056e+000 5.687009e+000 2.611090e+000
         vertex 4.199056e+000 5.687009e+000 1.000000e+001
         vertex 3.794648e+000 5.655182e+000 1.000000e+001
      endloop
   endfacet
   facet normal 1.045761e-001 -9.945168e-001 0.000000e+000
      outer loop
         vertex 4.199056e+000 5.687009e+000 2.611090e+000
         vertex 3.794648e+000 5.655182e+000 1.000000e+001
         vertex 3.794648e+000 5.655182e+000 2.611090e+000
      endloop
   endfacet
   facet normal 2.078648e-001 -9.781576e-001 0.000000e+000
      outer loop
         vertex 3.794648e+000 5.655182e+000 2.611090e+000
         vertex 3.794648e+000 5.655182e+000 1.000000e+001
         vertex 3.400198e+000 5.560483e+000 1.000000e+001
      endloop
   endfacet
   facet normal 2.588653e-001 -9.659134e-001 0.000000e+000
      outer loop
         vertex 3.794648e+000 5.655182e+000 2.611090e+000
         vertex 3.400198e+000 5.560483e+000 1.000000e+001
         vertex 3.400198e+000 5.560483e+000 2.611090e+000
      endloop
   endfacet
   facet normal 3.583232e-001 -9.335976e-001 0.000000e+000
      outer loop
         vertex 3.400198e+000 5.560483e+000 2.611090e+000
         vertex 3.400198e+000 5.560483e+000 1.000000e+001
         vertex 3.025418e+000 5.405244e+000 1.000000e+001
      endloop
   endfacet
   facet normal 4.067805e-001 -9.135259e-001 0.000000e+000
      outer loop
         vertex 3.400198e+000 5.560483e+000 2.611090e+000
         vertex 3.025418e+000 5.405244e+000 1.000000e+001
         vertex 3.025418e+000 5.405244e+000 2.611090e+000
      endloop
   endfacet
   facet normal 4.999584e-001 -8.660494e-001 0.000000e+000
      outer loop
         vertex 3.025418e+000 5.405244e+000 2.611090e+000
         vertex 3.025418e+000 5.405244e+000 1.000000e+001
         vertex 2.679537e+000 5.193288e+000 1.000000e+001
      endloop
   endfacet
   facet normal 5.446792e-001 -8.386444e-001 0.000000e+000
      outer loop
         vertex 3.025418e+000 5.405244e+000 2.611090e+000
         vertex 2.679537e+000 5.193288e+000 1.000000e+001
         vertex 2.679537e+000 5.193288e+000 2.611090e+000
      endloop
   endfacet
   facet normal 6.292831e-001 -7.771761e-001 0.000000e+000
      outer loop
         vertex 2.679537e+000 5.193288e+000 2.611090e+000
         vertex 2.679537e+000 5.193288e+000 1.000000e+001
         vertex 2.371072e+000 4.929834e+000 1.000000e+001
      endloop
   endfacet
   facet normal 6.691663e-001 -7.431127e-001 0.000000e+000
      outer loop
         vertex 2.679537e+000 5.193288e+000 2.611090e+000
         vertex 2.371072e+000 4.929834e+000 1.000000e+001
         vertex 2.371072e+000 4.929834e+000 2.611090e+000
      endloop
   endfacet
   facet normal 7.431127e-001 -6.691663e-001 0.000000e+000
      outer loop
         vertex 2.371072e+000 4.929834e+000 2.611090e+000
         vertex 2.371072e+000 4.929834e+000 1.000000e+001
         vertex 2.107618e+000 4.621368e+000 1.000000e+001
      endloop
   endfacet
   facet normal 7.771761e-001 -6.292831e-001 0.000000e+000
      outer loop
         vertex 2.371072e+000 4.929834e+000 2.611090e+000
         vertex 2.107618e+000 4.621368e+000 1.000000e+001
         vertex 2.107618e+000 4.621368e+000 2.611090e+000
      endloop
   endfacet
   facet normal 8.386444e-001 -5.446792e-001 0.000000e+000
      outer loop
         vertex 2.107618e+000 4.621368e+000 2.611090e+000
         vertex 2.107618e+000 4.621368e+000 1.000000e+001
         vertex 1.895661e+000 4.275488e+000 1.000000e+001
      endloop
   endfacet
   facet normal 8.660494e-001 -4.999584e-001 0.000000e+000
      outer loop
         vertex 2.107618e+000 4.621368e+000 2.611090e+000
         vertex 1.895661e+000 4.275488e+000 1.000000e+001
         vertex 1.895661e+000 4.275488e+000 2.611090e+000
      endloop
   endfacet
   facet normal 9.135259e-001 -4.067805e-001 0.000000e+000
      outer loop
         vertex 1.895661e+000 4.275488e+000 2.611090e+000
         vertex 1.895661e+000 4.275488e+000 1.000000e+001
         vertex 1.740423e+000 3.900708e+000 1.000000e+001
      endloop
   endfacet
   facet normal 9.335976e-001 -3.583232e-001 0.000000e+000
      outer loop
         vertex 1.895661e+000 4.275488e+000 2.611090e+000
         vertex 1.740423e+000 3.900708e+000 1.000000e+001
         vertex 1.740423e+000 3.900708e+000 2.611090e+000
      endloop
   endfacet
   facet normal 9.659134e-001 -2.588653e-001 0.000000e+000
      outer loop
         vertex 1.740423e+000 3.900708e+000 2.611090e+000
         vertex 1.740423e+000 3.900708e+000 1.000000e+001
         vertex 1.645724e+000 3.506258e+000 1.000000e+001
      endloop
   endfacet
   facet normal 9.781575e-001 -2.078648e-001 0.000000e+000
      outer loop
         vertex 1.740423e+000 3.900708e+000 2.611090e+000
         vertex 1.645724e+000 3.506258e+000 1.000000e+001
         vertex 1.645724e+000 3.506258e+000 2.611090e+000
      endloop
   endfacet
   facet normal 9.945168e-001 -1.045761e-001 0.000000e+000
      outer loop
         vertex 1.645724e+000 3.506258e+000 2.611090e+000
         vertex 1.645724e+000 3.506258e+000 1.000000e+001
         vertex 1.613896e+000 3.101850e+000 1.000000e+001
      endloop
   endfacet
   facet normal 9.986320e-001 -5.228807e-002 0.000000e+000
      outer loop
         vertex 1.645724e+000 3.506258e+000 2.611090e+000
         vertex 1.613896e+000 3.101850e+000 1.000000e+001
         vertex 1.613896e+000 3.101850e+000 2.611090e+000
      endloop
   endfacet
   facet normal 9.986320e-001 5.228807e-002 0.000000e+000
      outer loop
         vertex 1.613896e+000 3.101850e+000 2.611090e+000
         vertex 1.613896e+000 3.101850e+000 1.000000e+001
         vertex 1.645724e+000 2.697442e+000 1.000000e+001
      endloop
   endfacet
   facet normal 9.945168e-001 1.045761e-001 0.000000e+000
      outer loop
         vertex 1.613896e+000 3.101850e+000 2.611090e+000
         vertex 1.645724e+000 2.697442e+000 1.000000e+001
         vertex 1.645724e+000 2.697442e+000 2.611090e+000
      endloop
   endfacet
   facet normal 9.781576e-001 2.078648e-001 0.000000e+000
      outer loop
         vertex 1.645724e+000 2.697442e+000 2.611090e+000
         vertex 1.645724e+000 2.697442e+000 1.000000e+001
         vertex 1.740423e+000 2.302991e+000 1.000000e+001
      endloop
   endfacet
   facet normal 9.659134e-001 2.588653e-001 0.000000e+000
      outer loop
         vertex 1.645724e+000 2.697442e+000 2.611090e+000
         vertex 1.740423e+000 2.302991e+000 1.000000e+001
         vertex 1.740423e+000 2.302991e+000 2.611090e+000
      endloop
   endfacet
   facet normal 9.335976e-001 3.583232e-001 0.000000e+000
      outer loop
         vertex 1.740423e+000 2.302991e+000 2.611090e+000
         vertex 1.740423e+000 2.302991e+000 1.000000e+001
         vertex 1.895661e+000 1.928212e+000 1.000000e+001
      endloop
   endfacet
   facet normal 9.135259e-001 4.067805e-001 0.000000e+000
      outer loop
         vertex 1.740423e+000 2.302991e+000 2.611090e+000
         vertex 1.895661e+000 1.928212e+000 1.000000e+001
         vertex 1.895661e+000 1.928212e+000 2.611090e+000
      endloop
   endfacet
   facet normal 8.660494e-001 4.999584e-001 0.000000e+000
      outer loop
         vertex 1.895661e+000 1.928212e+000 2.611090e+000
         vertex 1.895661e+000 1.928212e+000 1.000000e+001
         vertex 2.107618e+000 1.582331e+000 1.000000e+001
      endloop
   endfacet
   facet normal 8.386444e-001 5.446792e-001 0.000000e+000
      outer loop
         vertex 1.895661e+000 1.928212e+000 2.611090e+000
         vertex 2.107618e+000 1.582331e+000 1.000000e+001
         vertex 2.107618e+000 1.582331e+000 2.611090e+000
      endloop
   endfacet
   facet normal 7.771761e-001 6.292831e-001 0.000000e+000
      outer loop
         vertex 2.107618e+000 1.582331e+000 2.611090e+000
         vertex 2.107618e+000 1.582331e+000 1.000000e+001
         vertex 2.371072e+000 1.273866e+000 1.000000e+001
      endloop
   endfacet
   facet normal 7.431127e-001 6.691663e-001 0.000000e+000
      outer loop
         vertex 2.107618e+000 1.582331e+000 2.611090e+000
         vertex 2.371072e+000 1.273866e+000 1.000000e+001
         vertex 2.371072e+000 1.273866e+000 2.611090e+000
      endloop
   endfacet
   facet normal 6.691663e-001 7.431127e-001 0.000000e+000
      outer loop
         vertex 2.371072e+000 1.273866e+000 2.611090e+000
         vertex 2.371072e+000 1.273866e+000 1.000000e+001
         vertex 2.679537e+000 1.010411e+000 1.000000e+001
      endloop
   endfacet
   facet normal 6.292831e-001 7.771761e-001 0.000000e+000
      outer loop
         vertex 2.371072e+000 1.273866e+000 2.611090e+000
         vertex 2.679537e+000 1.010411e+000 1.000000e+001
         vertex 2.679537e+000 1.010411e+000 2.611090e+000
      endloop
   endfacet
   facet normal 5.446792e-001 8.386444e-001 0.000000e+000
      outer loop
         vertex 2.679537e+000 1.010411e+000 2.611090e+000
         vertex 2.679537e+000 1.010411e+000 1.000000e+001
         vertex 3.025418e+000 7.984552e-001 1.000000e+001
      endloop
   endfacet
   facet normal 4.999584e-001 8.660494e-001 0.000000e+000
      outer loop
         vertex 2.679537e+000 1.010411e+000 2.611090e+000
         vertex 3.025418e+000 7.984552e-001 1.000000e+001
         vertex 3.025418e+000 7.984552e-001 2.611090e+000
      endloop
   endfacet
   facet normal 4.067805e-001 9.135259e-001 0.000000e+000
      outer loop
         vertex 3.025418e+000 7.984552e-001 2.611090e+000
         vertex 3.025418e+000 7.984552e-001 1.000000e+001
         vertex 3.400198e+000 6.432165e-001 1.000000e+001
      endloop
   endfacet
   facet normal 3.583232e-001 9.335976e-001 0.000000e+000
      outer loop
         vertex 3.025418e+000 7.984552e-001 2.611090e+000
         vertex 3.400198e+000 6.432165e-001 1.000000e+001
         vertex 3.400198e+000 6.432165e-001 2.611090e+000
      endloop
   endfacet
   facet normal 2.588653e-001 9.659134e-001 0.000000e+000
      outer loop
         vertex 3.400198e+000 6.432165e-001 2.611090e+000
         vertex 3.400198e+000 6.432165e-001 1.000000e+001
         vertex 3.794648e+000 5.485173e-001 1.000000e+001
      endloop
   endfacet
   facet normal 2.078648e-001 9.781575e-001 0.000000e+000
      outer loop
         vertex 3.400198e+000 6.432165e-001 2.611090e+000
         vertex 3.794648e+000 5.485173e-001 1.000000e+001
         vertex 3.794648e+000 5.485173e-001 2.611090e+000
      endloop
   endfacet
   facet normal 1.045761e-001 9.945168e-001 0.000000e+000
      outer loop
         vertex 3.794648e+000 5.485173e-001 2.611090e+000
         vertex 3.794648e+000 5.485173e-001 1.000000e+001
         vertex 4.199056e+000 5.166897e-001 1.000000e+001
      endloop
   endfacet
   facet normal 5.228807e-002 9.986320e-001 0.000000e+000
      outer loop
         vertex 3.794648e+000 5.485173e-001 2.611090e+000
         vertex 4.199056e+000 5.166897e-001 1.000000e+001
         vertex 4.199056e+000 5.166897e-001 2.611090e+000
      endloop
   endfacet
   facet normal -5.228807e-002 9.986320e-001 0.000000e+000
      outer loop
         vertex 4.199056e+000 5.166897e-001 2.611090e+000
         vertex 4.199056e+000 5.166897e-001 1.000000e+001
         vertex 4.603464e+000 5.485173e-001 1.000000e+001
      endloop
   endfacet
   facet normal -1.045761e-001 9.945168e-001 0.000000e+000
      outer loop
         vertex 4.199056e+000 5.166897e-001 2.611090e+000
         vertex 4.603464e+000 5.485173e-001 1.000000e+001
         vertex 4.603464e+000 5.485173e-001 2.611090e+000
      endloop
   endfacet
   facet normal -2.078648e-001 9.781576e-001 0.000000e+000
      outer loop
         vertex 4.603464e+000 5.485173e-001 2.611090e+000
         vertex 4.603464e+000 5.485173e-001 1.000000e+001
         vertex 4.997914e+000 6.432165e-001 1.000000e+001
      endloop
   endfacet
   facet normal -2.588653e-001 9.659134e-001 0.000000e+000
      outer loop
         vertex 4.603464e+000 5.485173e-001 2.611090e+000
         vertex 4.997914e+000 6.432165e-001 1.000000e+001
         vertex 4.997914e+000 6.432165e-001 2.611090e+000
      endloop
   endfacet
   facet normal -3.583232e-001 9.335976e-001 0.000000e+000
      outer loop
         vertex 4.997914e+000 6.432165e-001 2.611090e+000
         vertex 4.997914e+000 6.432165e-001 1.000000e+001
         vertex 5.372694e+000 7.984552e-001 1.000000e+001
      endloop
   endfacet
   facet normal -4.067805e-001 9.135259e-001 0.000000e+000
      outer loop
         vertex 4.997914e+000 6.432165e-001 2.611090e+000
         vertex 5.372694e+000 7.984552e-001 1.000000e+001
         vertex 5.372694e+000 7.984552e-001 2.611090e+000
      endloop
   endfacet
   facet normal -4.999584e-001 8.660494e-001 0.000000e+000
      outer loop
         vertex 5.372694e+000 7.984552e-001 2.611090e+000
         vertex 5.372694e+000 7.984552e-001 1.000000e+001
         vertex 5.718575e+000 1.010411e+000 1.000000e+001
      endloop
   endfacet
   facet normal -5.446792e-001 8.386444e-001 0.000000e+000
      outer loop
         vertex 5.372694e+000 7.984552e-001 2.611090e+000
         vertex 5.718575e+000 1.010411e+000 1.000000e+001
         vertex 5.718575e+000 1.010411e+000 2.611090e+000
      endloop
   endfacet
   facet normal -6.292831e-001 7.771761e-001 0.000000e+000
      outer loop
         vertex 5.718575e+000 1.010411e+000 2.611090e+000
         vertex 5.718575e+000 1.010411e+000 1.000000e+001
         vertex 6.027040e+000 1.273866e+000 1.000000e+001
      endloop
   endfacet
   facet normal -6.691663e-001 7.431127e-001 0.000000e+000
      outer loop
         vertex 5.718575e+000 1.010411e+000 2.611090e+000
         vertex 6.027040e+000 1.273866e+000 1.000000e+001
         vertex 6.027040e+000 1.273866e+000 2.611090e+000
      endloop
   endfacet
   facet normal -7.431127e-001 6.691663e-001 0.000000e+000
      outer loop
         vertex 6.027040e+000 1.273866e+000 2.611090e+000
         vertex 6.027040e+000 1.273866e+000 1.000000e+001
         vertex 6.290494e+000 1.582331e+000 1.000000e+001
      endloop
   endfacet
   facet normal -7.771761e-001 6.292831e-001 0.000000e+000
      outer loop
         vertex 6.027040e+000 1.273866e+000 2.611090e+000
         vertex 6.290494e+000 1.582331e+000 1.000000e+001
         vertex 6.290494e+000 1.582331e+000 2.611090e+000
      endloop
   endfacet
   facet normal -8.386444e-001 5.446792e-001 0.000000e+000
      outer loop
         vertex 6.290494e+000 1.582331e+000 2.611090e+000
         vertex 6.290494e+000 1.582331e+000 1.000000e+001
         vertex 6.502450e+000 1.928212e+000 1.000000e+001
      endloop
   endfacet
   facet normal -8.660494e-001 4.999584e-001 0.000000e+000
      outer loop
         vertex 6.290494e+000 1.582331e+000 2.611090e+000
         vertex 6.502450e+000 1.928212e+000 1.000000e+001
         vertex 6.502450e+000 1.928212e+000 2.611090e+000
      endloop
   endfacet
   facet normal -9.135259e-001 4.067805e-001 0.000000e+000
      outer loop
         vertex 6.502450e+000 1.928212e+000 2.611090e+000
         vertex 6.502450e+000 1.928212e+000 1.000000e+001
         vertex 6.657690e+000 2.302991e+000 1.000000e+001
      endloop
   endfacet
   facet normal -9.335976e-001 3.583232e-001 0.000000e+000
      outer loop
         vertex 6.502450e+000 1.928212e+000 2.611090e+000
         vertex 6.657690e+000 2.302991e+000 1.000000e+001
         vertex 6.657690e+000 2.302991e+000 2.611090e+000
      endloop
   endfacet
   facet normal -9.659134e-001 2.588653e-001 0.000000e+000
      outer loop
         vertex 6.657690e+000 2.302991e+000 2.611090e+000
         vertex 6.657690e+000 2.302991e+000 1.000000e+001
         vertex 6.752388e+000 2.697442e+000 1.000000e+001
      endloop
   endfacet
   facet normal -9.781575e-001 2.078648e-001 0.000000e+000
      outer loop
         vertex 6.657690e+000 2.302991e+000 2.611090e+000
         vertex 6.752388e+000 2.697442e+000 1.000000e+001
         vertex 6.752388e+000 2.697442e+000 2.611090e+000
      endloop
   endfacet
   facet normal -9.945168e-001 1.045761e-001 0.000000e+000
      outer loop
         vertex 6.752388e+000 2.697442e+000 2.611090e+000
         vertex 6.752388e+000 2.697442e+000 1.000000e+001
         vertex 6.784216e+000 3.101850e+000 1.000000e+001
      endloop
   endfacet
   facet normal 0.000000e+000 0.000000e+000 1.000000e+000
      outer loop
         vertex 6.290494e+000 4.621368e+000 2.611090e+000
         vertex 6.027040e+000 4.929834e+000 2.611090e+000
         vertex 2.371072e+000 1.273866e+000 2.611090e+000
      endloop
   endfacet
   facet normal 0.000000e+000 0.000000e+000 1.000000e+000
      outer loop
         vertex 6.027040e+000 4.929834e+000 2.611090e+000
         vertex 5.718575e+000 5.193288e+000 2.611090e+000
         vertex 2.371072e+000 1.273866e+000 2.611090e+000
      endloop
   endfacet
   facet normal 0.000000e+000 0.000000e+000 1.000000e+000
      outer loop
         vertex 2.371072e+000 1.273866e+000 2.611090e+000
         vertex 5.718575e+000 5.193288e+000 2.611090e+000
         vertex 5.372694e+000 5.405244e+000 2.611090e+000
      endloop
   endfacet
   facet normal 0.000000e+000 0.000000e+000 1.000000e+000
      outer loop
         vertex 2.371072e+000 1.273866e+000 2.611090e+000
         vertex 5.372694e+000 5.405244e+000 2.611090e+000
         vertex 4.997914e+000 5.560483e+000 2.611090e+000
      endloop
   endfacet
   facet normal 0.000000e+000 0.000000e+000 1.000000e+000
      outer loop
         vertex 6.657690e+000 2.302991e+000 2.611090e+000
         vertex 2.371072e+000 1.273866e+000 2.611090e+000
         vertex 6.502450e+000 1.928212e+000 2.611090e+000
      endloop
   endfacet
   facet normal 0.000000e+000 0.000000e+000 1.000000e+000
      outer loop
         vertex 6.502450e+000 1.928212e+000 2.611090e+000
         vertex 2.371072e+000 1.273866e+000 2.611090e+000
         vertex 2.679537e+000 1.010411e+000 2.611090e+000
      endloop
   endfacet
   facet normal 0.000000e+000 0.000000e+000 1.000000e+000
      outer loop
         vertex 6.502450e+000 1.928212e+000 2.611090e+000
         vertex 2.679537e+000 1.010411e+000 2.611090e+000
         vertex 3.025418e+000 7.984552e-001 2.611090e+000
      endloop
   endfacet
   facet normal 0.000000e+000 0.000000e+000 1.000000e+000
      outer loop
         vertex 6.657690e+000 2.302991e+000 2.611090e+000
         vertex 6.752388e+000 2.697442e+000 2.611090e+000
         vertex 2.371072e+000 1.273866e+000 2.611090e+000
      endloop
   endfacet
   facet normal 0.000000e+000 0.000000e+000 1.000000e+000
      outer loop
         vertex 2.371072e+000 1.273866e+000 2.611090e+000
         vertex 6.752388e+000 2.697442e+000 2.611090e+000
         vertex 6.784216e+000 3.101850e+000 2.611090e+000
      endloop
   endfacet
   facet normal 0.000000e+000 0.000000e+000 1.000000e+000
      outer loop
         vertex 2.371072e+000 1.273866e+000 2.611090e+000
         vertex 6.784216e+000 3.101850e+000 2.611090e+000
         vertex 6.752388e+000 3.506258e+000 2.611090e+000
      endloop
   endfacet
   facet normal 0.000000e+000 0.000000e+000 1.000000e+000
      outer loop
         vertex 6.752388e+000 3.506258e+000 2.611090e+000
         vertex 6.657690e+000 3.900708e+000 2.611090e+000
         vertex 2.371072e+000 1.273866e+000 2.611090e+000
      endloop
   endfacet
   facet normal 0.000000e+000 0.000000e+000 1.000000e+000
      outer loop
         vertex 2.371072e+000 1.273866e+000 2.611090e+000
         vertex 6.657690e+000 3.900708e+000 2.611090e+000
         vertex 6.502450e+000 4.275488e+000 2.611090e+000
      endloop
   endfacet
   facet normal 0.000000e+000 0.000000e+000 1.000000e+000
      outer loop
         vertex 2.371072e+000 1.273866e+000 2.611090e+000
         vertex 6.502450e+000 4.275488e+000 2.611090e+000
         vertex 6.290494e+000 4.621368e+000 2.611090e+000
      endloop
   endfacet
   facet normal 0.000000e+000 0.000000e+000 1.000000e+000
      outer loop
         vertex 4.997914e+000 5.560483e+000 2.611090e+000
         vertex 4.603464e+000 5.655182e+000 2.611090e+000
         vertex 2.371072e+000 1.273866e+000 2.611090e+000
      endloop
   endfacet
   facet normal 0.000000e+000 0.000000e+000 1.000000e+000
      outer loop
         vertex 2.371072e+000 1.273866e+000 2.611090e+000
         vertex 4.603464e+000 5.655182e+000 2.611090e+000
         vertex 4.199056e+000 5.687009e+000 2.611090e+000
      endloop
   endfacet
   facet normal 0.000000e+000 0.000000e+000 1.000000e+000
      outer loop
         vertex 2.371072e+000 1.273866e+000 2.611090e+000
         vertex 4.199056e+000 5.687009e+000 2.611090e+000
         vertex 3.794648e+000 5.655182e+000 2.611090e+000
      endloop
   endfacet
   facet normal 0.000000e+000 0.000000e+000 1.000000e+000
      outer loop
         vertex 3.794648e+000 5.655182e+000 2.611090e+000
         vertex 3.400198e+000 5.560483e+000 2.611090e+000
         vertex 2.371072e+000 1.273866e+000 2.611090e+000
      endloop
   endfacet
   facet normal 0.000000e+000 0.000000e+000 1.000000e+000
      outer loop
         vertex 2.371072e+000 1.273866e+000 2.611090e+000
         vertex 3.400198e+000 5.560483e+000 2.611090e+000
         vertex 3.025418e+000 5.405244e+000 2.611090e+000
      endloop
   endfacet
   facet normal 0.000000e+000 0.000000e+000 1.000000e+000
      outer loop
         vertex 2.371072e+000 1.273866e+000 2.611090e+000
         vertex 3.025418e+000 5.405244e+000 2.611090e+000
         vertex 2.107618e+000 1.582331e+000 2.611090e+000
      endloop
   endfacet
   facet normal 0.000000e+000 0.000000e+000 1.000000e+000
      outer loop
         vertex 3.025418e+000 7.984552e-001 2.611090e+000
         vertex 3.400198e+000 6.432165e-001 2.611090e+000
         vertex 6.502450e+000 1.928212e+000 2.611090e+000
      endloop
   endfacet
   facet normal 0.000000e+000 0.000000e+000 1.000000e+000
      outer loop
         vertex 6.502450e+000 1.928212e+000 2.611090e+000
         vertex 3.400198e+000 6.432165e-001 2.611090e+000
         vertex 3.794648e+000 5.485173e-001 2.611090e+000
      endloop
   endfacet
   facet normal 0.000000e+000 0.000000e+000 1.000000e+000
      outer loop
         vertex 6.502450e+000 1.928212e+000 2.611090e+000
         vertex 3.794648e+000 5.485173e-001 2.611090e+000
         vertex 4.199056e+000 5.166897e-001 2.611090e+000
      endloop
   endfacet
   facet normal 0.000000e+000 0.000000e+000 1.000000e+000
      outer loop
         vertex 4.199056e+000 5.166897e-001 2.611090e+000
         vertex 4.603464e+000 5.485173e-001 2.611090e+000
         vertex 6.502450e+000 1.928212e+000 2.611090e+000
      endloop
   endfacet
   facet normal 0.000000e+000 0.000000e+000 1.000000e+000
      outer loop
         vertex 6.502450e+000 1.928212e+000 2.611090e+000
         vertex 4.603464e+000 5.485173e-001 2.611090e+000
         vertex 4.997914e+000 6.432165e-001 2.611090e+000
      endloop
   endfacet
   facet normal 0.000000e+000 0.000000e+000 1.000000e+000
      outer loop
         vertex 6.502450e+000 1.928212e+000 2.611090e+000
         vertex 4.997914e+000 6.432165e-001 2.611090e+000
         vertex 5.372694e+000 7.984552e-001 2.611090e+000
      endloop
   endfacet
   facet normal 0.000000e+000 0.000000e+000 1.000000e+000
      outer loop
         vertex 5.372694e+000 7.984552e-001 2.611090e+000
         vertex 5.718575e+000 1.010411e+000 2.611090e+000
         vertex 6.502450e+000 1.928212e+000 2.611090e+000
      endloop
   endfacet
   facet normal 0.000000e+000 0.000000e+000 1.000000e+000
      outer loop
         vertex 6.502450e+000 1.928212e+000 2.611090e+000
         vertex 5.718575e+000 1.010411e+000 2.611090e+000
         vertex 6.027040e+000 1.273866e+000 2.611090e+000
      endloop
   endfacet
   facet normal 0.000000e+000 0.000000e+000 1.000000e+000
      outer loop
         vertex 6.502450e+000 1.928212e+000 2.611090e+000
         vertex 6.027040e+000 1.273866e+000 2.611090e+000
         vertex 6.290494e+000 1.582331e+000 2.611090e+000
      endloop
   endfacet
   facet normal 0.000000e+000 0.000000e+000 1.000000e+000
      outer loop
         vertex 3.025418e+000 5.405244e+000 2.611090e+000
         vertex 2.679537e+000 5.193288e+000 2.611090e+000
         vertex 2.107618e+000 1.582331e+000 2.611090e+000
      endloop
   endfacet
   facet normal 0.000000e+000 0.000000e+000 1.000000e+000
      outer loop
         vertex 2.107618e+000 1.582331e+000 2.611090e+000
         vertex 2.679537e+000 5.193288e+000 2.611090e+000
         vertex 2.371072e+000 4.929834e+000 2.611090e+000
      endloop
   endfacet
   facet normal 0.000000e+000 0.000000e+000 1.000000e+000
      outer loop
         vertex 2.107618e+000 1.582331e+000 2.611090e+000
         vertex 2.371072e+000 4.929834e+000 2.611090e+000
         vertex 2.107618e+000 4.621368e+000 2.611090e+000
      endloop
   endfacet
   facet normal 0.000000e+000 0.000000e+000 1.000000e+000
      outer loop
         vertex 1.645724e+000 3.506258e+000 2.611090e+000
         vertex 1.613896e+000 3.101850e+000 2.611090e+000
         vertex 1.645724e+000 2.697442e+000 2.611090e+000
      endloop
   endfacet
   facet normal 0.000000e+000 0.000000e+000 1.000000e+000
      outer loop
         vertex 2.107618e+000 4.621368e+000 2.611090e+000
         vertex 1.895661e+000 4.275488e+000 2.611090e+000
         vertex 2.107618e+000 1.582331e+000 2.611090e+000
      endloop
   endfacet
   facet normal 0.000000e+000 0.000000e+000 1.000000e+000
      outer loop
         vertex 2.107618e+000 1.582331e+000 2.611090e+000
         vertex 1.895661e+000 4.275488e+000 2.611090e+000
         vertex 1.740423e+000 3.900708e+000 2.611090e+000
      endloop
   endfacet
   facet normal 0.000000e+000 0.000000e+000 1.000000e+000
      outer loop
         vertex 2.107618e+000 1.582331e+000 2.611090e+000
         vertex 1.740423e+000 3.900708e+000 2.611090e+000
         vertex 1.895661e+000 1.928212e+000 2.611090e+000
      endloop
   endfacet
   facet normal 0.000000e+000 0.000000e+000 1.000000e+000
      outer loop
         vertex 1.645724e+000 3.506258e+000 2.611090e+000
         vertex 1.645724e+000 2.697442e+000 2.611090e+000
         vertex 1.740423e+000 3.900708e+000 2.611090e+000
      endloop
   endfacet
   facet normal 0.000000e+000 0.000000e+000 1.000000e+000
      outer loop
         vertex 1.740423e+000 3.900708e+000 2.611090e+000
         vertex 1.645724e+000 2.697442e+000 2.611090e+000
         vertex 1.740423e+000 2.302991e+000 2.611090e+000
      endloop
   endfacet
   facet normal 0.000000e+000 0.000000e+000 1.000000e+000
      outer loop
         vertex 1.740423e+000 3.900708e+000 2.611090e+000
         vertex 1.740423e+000 2.302991e+000 2.611090e+000
         vertex 1.895661e+000 1.928212e+000 2.611090e+000
      endloop
   endfacet
endsolid