solid 2_519
   facet normal -1.000000e+000 0.000000e+000 0.000000e+000
      outer loop
         vertex 0.000000e+000 1.000000e+001 1.000000e+001
         vertex 0.000000e+000 1.000000e+001 0.000000e+000
         vertex 0.000000e+000 0.000000e+000 1.000000e+001
      endloop
   endfacet
   facet normal -1.000000e+000 0.000000e+000 0.000000e+000
      outer loop
         vertex 0.000000e+000 0.000000e+000 1.000000e+001
         vertex 0.000000e+000 1.000000e+001 0.000000e+000
         vertex 0.000000e+000 0.000000e+000 0.000000e+000
      endloop
   endfacet
   facet normal 0.000000e+000 0.000000e+000 1.000000e+000
      outer loop
         vertex 7.941059e+000 6.395209e+000 1.000000e+001
         vertex 8.037582e+000 6.024508e+000 1.000000e+001
         vertex 1.000000e+001 1.000000e+001 1.000000e+001
      endloop
   endfacet
   facet normal 0.000000e+000 0.000000e+000 1.000000e+000
      outer loop
         vertex 1.000000e+001 1.000000e+001 1.000000e+001
         vertex 8.037582e+000 6.024508e+000 1.000000e+001
         vertex 8.070067e+000 5.642827e+000 1.000000e+001
      endloop
   endfacet
   facet normal 0.000000e+000 0.000000e+000 1.000000e+000
      outer loop
         vertex 1.000000e+001 1.000000e+001 1.000000e+001
         vertex 8.070067e+000 5.642827e+000 1.000000e+001
         vertex 1.000000e+001 0.000000e+000 1.000000e+001
      endloop
   endfacet
   facet normal 0.000000e+000 0.000000e+000 1.000000e+000
      outer loop
         vertex 1.000000e+001 0.000000e+000 1.000000e+001
         vertex 8.070067e+000 5.642827e+000 1.000000e+001
         vertex 8.037582e+000 5.261146e+000 1.000000e+001
      endloop
   endfacet
   facet normal 0.000000e+000 0.000000e+000 1.000000e+000
      outer loop
         vertex 8.037582e+000 5.261146e+000 1.000000e+001
         vertex 7.941059e+000 4.890445e+000 1.000000e+001
         vertex 1.000000e+001 0.000000e+000 1.000000e+001
      endloop
   endfacet
   facet normal 0.000000e+000 0.000000e+000 1.000000e+000
      outer loop
         vertex 1.000000e+001 0.000000e+000 1.000000e+001
         vertex 7.941059e+000 4.890445e+000 1.000000e+001
         vertex 7.783276e+000 4.541389e+000 1.000000e+001
      endloop
   endfacet
   facet normal 0.000000e+000 0.000000e+000 1.000000e+000
      outer loop
         vertex 1.000000e+001 0.000000e+000 1.000000e+001
         vertex 7.783276e+000 4.541389e+000 1.000000e+001
         vertex 7.568771e+000 4.224019e+000 1.000000e+001
      endloop
   endfacet
   facet normal 0.000000e+000 0.000000e+000 1.000000e+000
      outer loop
         vertex 3.753640e+000 6.573089e+000 1.000000e+001
         vertex 3.940458e+000 6.907506e+000 1.000000e+001
         vertex 0.000000e+000 1.000000e+001 1.000000e+001
      endloop
   endfacet
   facet normal 0.000000e+000 0.000000e+000 1.000000e+000
      outer loop
         vertex 7.568771e+000 4.224019e+000 1.000000e+001
         vertex 7.303716e+000 3.947466e+000 1.000000e+001
         vertex 1.000000e+001 0.000000e+000 1.000000e+001
      endloop
   endfacet
   facet normal 0.000000e+000 0.000000e+000 1.000000e+000
      outer loop
         vertex 1.000000e+001 0.000000e+000 1.000000e+001
         vertex 7.303716e+000 3.947466e+000 1.000000e+001
         vertex 6.995736e+000 3.719685e+000 1.000000e+001
      endloop
   endfacet
   facet normal 0.000000e+000 0.000000e+000 1.000000e+000
      outer loop
         vertex 1.000000e+001 0.000000e+000 1.000000e+001
         vertex 6.995736e+000 3.719685e+000 1.000000e+001
         vertex 6.653691e+000 3.547230e+000 1.000000e+001
      endloop
   endfacet
   facet normal 0.000000e+000 0.000000e+000 1.000000e+000
      outer loop
         vertex 0.000000e+000 0.000000e+000 1.000000e+001
         vertex 5.150283e+000 3.483366e+000 1.000000e+001
         vertex 4.794845e+000 3.626193e+000 1.000000e+001
      endloop
   endfacet
   facet normal 0.000000e+000 0.000000e+000 1.000000e+000
      outer loop
         vertex 0.000000e+000 0.000000e+000 1.000000e+001
         vertex 3.940458e+000 4.378149e+000 1.000000e+001
         vertex 3.753640e+000 4.712566e+000 1.000000e+001
      endloop
   endfacet
   facet normal 0.000000e+000 0.000000e+000 1.000000e+000
      outer loop
         vertex 3.753640e+000 6.573089e+000 1.000000e+001
         vertex 0.000000e+000 1.000000e+001 1.000000e+001
         vertex 3.626028e+000 6.211908e+000 1.000000e+001
      endloop
   endfacet
   facet normal 0.000000e+000 0.000000e+000 1.000000e+000
      outer loop
         vertex 3.940458e+000 6.907506e+000 1.000000e+001
         vertex 4.181104e+000 7.205541e+000 1.000000e+001
         vertex 0.000000e+000 1.000000e+001 1.000000e+001
      endloop
   endfacet
   facet normal 0.000000e+000 0.000000e+000 1.000000e+000
      outer loop
         vertex 0.000000e+000 1.000000e+001 1.000000e+001
         vertex 4.181104e+000 7.205541e+000 1.000000e+001
         vertex 4.468657e+000 7.458620e+000 1.000000e+001
      endloop
   endfacet
   facet normal 0.000000e+000 0.000000e+000 1.000000e+000
      outer loop
         vertex 0.000000e+000 1.000000e+001 1.000000e+001
         vertex 4.468657e+000 7.458620e+000 1.000000e+001
         vertex 4.794845e+000 7.659462e+000 1.000000e+001
      endloop
   endfacet
   facet normal 0.000000e+000 0.000000e+000 1.000000e+000
      outer loop
         vertex 4.794845e+000 3.626193e+000 1.000000e+001
         vertex 4.468657e+000 3.827034e+000 1.000000e+001
         vertex 0.000000e+000 0.000000e+000 1.000000e+001
      endloop
   endfacet
   facet normal 0.000000e+000 0.000000e+000 1.000000e+000
      outer loop
         vertex 0.000000e+000 0.000000e+000 1.000000e+001
         vertex 4.468657e+000 3.827034e+000 1.000000e+001
         vertex 4.181104e+000 4.080113e+000 1.000000e+001
      endloop
   endfacet
   facet normal 0.000000e+000 0.000000e+000 1.000000e+000
      outer loop
         vertex 0.000000e+000 0.000000e+000 1.000000e+001
         vertex 4.181104e+000 4.080113e+000 1.000000e+001
         vertex 3.940458e+000 4.378149e+000 1.000000e+001
      endloop
   endfacet
   facet normal 0.000000e+000 0.000000e+000 1.000000e+000
      outer loop
         vertex 3.753640e+000 4.712566e+000 1.000000e+001
         vertex 3.626028e+000 5.073745e+000 1.000000e+001
         vertex 0.000000e+000 0.000000e+000 1.000000e+001
      endloop
   endfacet
   facet normal 0.000000e+000 0.000000e+000 1.000000e+000
      outer loop
         vertex 0.000000e+000 0.000000e+000 1.000000e+001
         vertex 3.626028e+000 5.073745e+000 1.000000e+001
         vertex 3.561290e+000 5.451296e+000 1.000000e+001
      endloop
   endfacet
   facet normal 0.000000e+000 0.000000e+000 1.000000e+000
      outer loop
         vertex 0.000000e+000 0.000000e+000 1.000000e+001
         vertex 3.561290e+000 5.451296e+000 1.000000e+001
         vertex 0.000000e+000 1.000000e+001 1.000000e+001
      endloop
   endfacet
   facet normal 0.000000e+000 0.000000e+000 1.000000e+000
      outer loop
         vertex 0.000000e+000 1.000000e+001 1.000000e+001
         vertex 3.561290e+000 5.451296e+000 1.000000e+001
         vertex 3.561290e+000 5.834358e+000 1.000000e+001
      endloop
   endfacet
   facet normal 0.000000e+000 0.000000e+000 1.000000e+000
      outer loop
         vertex 0.000000e+000 1.000000e+001 1.000000e+001
         vertex 3.561290e+000 5.834358e+000 1.000000e+001
         vertex 3.626028e+000 6.211908e+000 1.000000e+001
      endloop
   endfacet
   facet normal 0.000000e+000 0.000000e+000 1.000000e+000
      outer loop
         vertex 6.287421e+000 7.850594e+000 1.000000e+001
         vertex 6.653691e+000 7.738424e+000 1.000000e+001
         vertex 1.000000e+001 1.000000e+001 1.000000e+001
      endloop
   endfacet
   facet normal 0.000000e+000 0.000000e+000 1.000000e+000
      outer loop
         vertex 1.000000e+001 1.000000e+001 1.000000e+001
         vertex 6.653691e+000 7.738424e+000 1.000000e+001
         vertex 6.995736e+000 7.565969e+000 1.000000e+001
      endloop
   endfacet
   facet normal 0.000000e+000 0.000000e+000 1.000000e+000
      outer loop
         vertex 1.000000e+001 1.000000e+001 1.000000e+001
         vertex 6.995736e+000 7.565969e+000 1.000000e+001
         vertex 7.303716e+000 7.338188e+000 1.000000e+001
      endloop
   endfacet
   facet normal 0.000000e+000 0.000000e+000 1.000000e+000
      outer loop
         vertex 6.653691e+000 3.547230e+000 1.000000e+001
         vertex 6.287421e+000 3.435061e+000 1.000000e+001
         vertex 1.000000e+001 0.000000e+000 1.000000e+001
      endloop
   endfacet
   facet normal 0.000000e+000 0.000000e+000 1.000000e+000
      outer loop
         vertex 1.000000e+001 0.000000e+000 1.000000e+001
         vertex 6.287421e+000 3.435061e+000 1.000000e+001
         vertex 5.907463e+000 3.386405e+000 1.000000e+001
      endloop
   endfacet
   facet normal 0.000000e+000 0.000000e+000 1.000000e+000
      outer loop
         vertex 1.000000e+001 0.000000e+000 1.000000e+001
         vertex 5.907463e+000 3.386405e+000 1.000000e+001
         vertex 0.000000e+000 0.000000e+000 1.000000e+001
      endloop
   endfacet
   facet normal 0.000000e+000 0.000000e+000 1.000000e+000
      outer loop
         vertex 0.000000e+000 0.000000e+000 1.000000e+001
         vertex 5.907463e+000 3.386405e+000 1.000000e+001
         vertex 5.524746e+000 3.402663e+000 1.000000e+001
      endloop
   endfacet
   facet normal 0.000000e+000 0.000000e+000 1.000000e+000
      outer loop
         vertex 0.000000e+000 0.000000e+000 1.000000e+001
         vertex 5.524746e+000 3.402663e+000 1.000000e+001
         vertex 5.150283e+000 3.483366e+000 1.000000e+001
      endloop
   endfacet
   facet normal 0.000000e+000 0.000000e+000 1.000000e+000
      outer loop
         vertex 4.794845e+000 7.659462e+000 1.000000e+001
         vertex 5.150283e+000 7.802289e+000 1.000000e+001
         vertex 0.000000e+000 1.000000e+001 1.000000e+001
      endloop
   endfacet
   facet normal 0.000000e+000 0.000000e+000 1.000000e+000
      outer loop
         vertex 0.000000e+000 1.000000e+001 1.000000e+001
         vertex 5.150283e+000 7.802289e+000 1.000000e+001
         vertex 5.524746e+000 7.882992e+000 1.000000e+001
      endloop
   endfacet
   facet normal 0.000000e+000 0.000000e+000 1.000000e+000
      outer loop
         vertex 0.000000e+000 1.000000e+001 1.000000e+001
         vertex 5.524746e+000 7.882992e+000 1.000000e+001
         vertex 1.000000e+001 1.000000e+001 1.000000e+001
      endloop
   endfacet
   facet normal 0.000000e+000 0.000000e+000 1.000000e+000
      outer loop
         vertex 1.000000e+001 1.000000e+001 1.000000e+001
         vertex 5.524746e+000 7.882992e+000 1.000000e+001
         vertex 5.907463e+000 7.899249e+000 1.000000e+001
      endloop
   endfacet
   facet normal 0.000000e+000 0.000000e+000 1.000000e+000
      outer loop
         vertex 1.000000e+001 1.000000e+001 1.000000e+001
         vertex 5.907463e+000 7.899249e+000 1.000000e+001
         vertex 6.287421e+000 7.850594e+000 1.000000e+001
      endloop
   endfacet
   facet normal 0.000000e+000 0.000000e+000 1.000000e+000
      outer loop
         vertex 7.303716e+000 7.338188e+000 1.000000e+001
         vertex 7.568771e+000 7.061635e+000 1.000000e+001
         vertex 1.000000e+001 1.000000e+001 1.000000e+001
      endloop
   endfacet
   facet normal 0.000000e+000 0.000000e+000 1.000000e+000
      outer loop
         vertex 1.000000e+001 1.000000e+001 1.000000e+001
         vertex 7.568771e+000 7.061635e+000 1.000000e+001
         vertex 7.783276e+000 6.744265e+000 1.000000e+001
      endloop
   endfacet
   facet normal 0.000000e+000 0.000000e+000 1.000000e+000
      outer loop
         vertex 1.000000e+001 1.000000e+001 1.000000e+001
         vertex 7.783276e+000 6.744265e+000 1.000000e+001
         vertex 7.941059e+000 6.395209e+000 1.000000e+001
      endloop
   endfacet
   facet normal 1.000000e+000 0.000000e+000 0.000000e+000
      outer loop
         vertex 1.000000e+001 1.000000e+001 0.000000e+000
         vertex 1.000000e+001 1.000000e+001 1.000000e+001
         vertex 1.000000e+001 0.000000e+000 0.000000e+000
      endloop
   endfacet
   facet normal 1.000000e+000 0.000000e+000 0.000000e+000
      outer loop
         vertex 1.000000e+001 0.000000e+000 0.000000e+000
         vertex 1.000000e+001 1.000000e+001 1.000000e+001
         vertex 1.000000e+001 0.000000e+000 1.000000e+001
      endloop
   endfacet
   facet normal 0.000000e+000 0.000000e+000 -1.000000e+000
      outer loop
         vertex 0.000000e+000 1.000000e+001 0.000000e+000
         vertex 1.000000e+001 1.000000e+001 0.000000e+000
         vertex 0.000000e+000 0.000000e+000 0.000000e+000
      endloop
   endfacet
   facet normal 0.000000e+000 0.000000e+000 -1.000000e+000
      outer loop
         vertex 0.000000e+000 0.000000e+000 0.000000e+000
         vertex 1.000000e+001 1.000000e+001 0.000000e+000
         vertex 1.000000e+001 0.000000e+000 0.000000e+000
      endloop
   endfacet
   facet normal 0.000000e+000 1.000000e+000 0.000000e+000
      outer loop
         vertex 1.000000e+001 1.000000e+001 1.000000e+001
         vertex 1.000000e+001 1.000000e+001 0.000000e+000
         vertex 0.000000e+000 1.000000e+001 1.000000e+001
      endloop
   endfacet
   facet normal 0.000000e+000 1.000000e+000 0.000000e+000
      outer loop
         vertex 0.000000e+000 1.000000e+001 1.000000e+001
         vertex 1.000000e+001 1.000000e+001 0.000000e+000
         vertex 0.000000e+000 1.000000e+001 0.000000e+000
      endloop
   endfacet
   facet normal 0.000000e+000 -1.000000e+000 0.000000e+000
      outer loop
         vertex 1.000000e+001 0.000000e+000 0.000000e+000
         vertex 1.000000e+001 0.000000e+000 1.000000e+001
         vertex 0.000000e+000 0.000000e+000 0.000000e+000
      endloop
   endfacet
   facet normal 0.000000e+000 -1.000000e+000 0.000000e+000
      outer loop
         vertex 0.000000e+000 0.000000e+000 0.000000e+000
         vertex 1.000000e+001 0.000000e+000 1.000000e+001
         vertex 0.000000e+000 0.000000e+000 1.000000e+001
      endloop
   endfacet
   facet normal -9.984018e-001 5.651454e-002 0.000000e+000
      outer loop
         vertex 8.037582e+000 5.261146e+000 5.377532e+000
         vertex 8.070067e+000 5.642827e+000 1.000000e+001
         vertex 8.070067e+000 5.642827e+000 5.377532e+000
      endloop
   endfacet
   facet normal -9.984018e-001 -5.651454e-002 0.000000e+000
      outer loop
         vertex 8.070067e+000 5.642827e+000 5.377532e+000
         vertex 8.070067e+000 5.642827e+000 1.000000e+001
         vertex 8.037582e+000 6.024508e+000 1.000000e+001
      endloop
   endfacet
   facet normal -9.935917e-001 -1.130291e-001 0.000000e+000
      outer loop
         vertex 8.070067e+000 5.642827e+000 5.377532e+000
         vertex 8.037582e+000 6.024508e+000 1.000000e+001
         vertex 8.037582e+000 6.024508e+000 5.377532e+000
      endloop
   endfacet
   facet normal -9.744897e-001 -2.244324e-001 0.000000e+000
      outer loop
         vertex 8.037582e+000 6.024508e+000 5.377532e+000
         vertex 8.037582e+000 6.024508e+000 1.000000e+001
         vertex 7.941059e+000 6.395209e+000 1.000000e+001
      endloop
   endfacet
   facet normal -9.601977e-001 -2.793211e-001 0.000000e+000
      outer loop
         vertex 8.037582e+000 6.024508e+000 5.377532e+000
         vertex 7.941059e+000 6.395209e+000 1.000000e+001
         vertex 7.941059e+000 6.395209e+000 5.377532e+000
      endloop
   endfacet
   facet normal -9.225433e-001 -3.858936e-001 0.000000e+000
      outer loop
         vertex 7.941059e+000 6.395209e+000 5.377532e+000
         vertex 7.941059e+000 6.395209e+000 1.000000e+001
         vertex 7.783276e+000 6.744265e+000 1.000000e+001
      endloop
   endfacet
   facet normal -8.991807e-001 -4.375775e-001 0.000000e+000
      outer loop
         vertex 7.941059e+000 6.395209e+000 5.377532e+000
         vertex 7.783276e+000 6.744265e+000 1.000000e+001
         vertex 7.783276e+000 6.744265e+000 5.377532e+000
      endloop
   endfacet
   facet normal -8.440570e-001 -5.362535e-001 0.000000e+000
      outer loop
         vertex 7.783276e+000 6.744265e+000 5.377532e+000
         vertex 7.783276e+000 6.744265e+000 1.000000e+001
         vertex 7.568771e+000 7.061635e+000 1.000000e+001
      endloop
   endfacet
   facet normal -8.122959e-001 -5.832456e-001 0.000000e+000
      outer loop
         vertex 7.783276e+000 6.744265e+000 5.377532e+000
         vertex 7.568771e+000 7.061635e+000 1.000000e+001
         vertex 7.568771e+000 7.061635e+000 5.377532e+000
      endloop
   endfacet
   facet normal -7.412888e-001 -6.711863e-001 0.000000e+000
      outer loop
         vertex 7.568771e+000 7.061635e+000 5.377532e+000
         vertex 7.568771e+000 7.061635e+000 1.000000e+001
         vertex 7.303716e+000 7.338188e+000 1.000000e+001
      endloop
   endfacet
   facet normal -7.020428e-001 -7.121348e-001 0.000000e+000
      outer loop
         vertex 7.568771e+000 7.061635e+000 5.377532e+000
         vertex 7.303716e+000 7.338188e+000 1.000000e+001
         vertex 7.303716e+000 7.338188e+000 5.377532e+000
      endloop
   endfacet
   facet normal -6.171949e-001 -7.868103e-001 0.000000e+000
      outer loop
         vertex 7.303716e+000 7.338188e+000 5.377532e+000
         vertex 7.303716e+000 7.338188e+000 1.000000e+001
         vertex 6.995736e+000 7.565969e+000 1.000000e+001
      endloop
   endfacet
   facet normal -5.715931e-001 -8.205372e-001 0.000000e+000
      outer loop
         vertex 7.303716e+000 7.338188e+000 5.377532e+000
         vertex 6.995736e+000 7.565969e+000 1.000000e+001
         vertex 6.995736e+000 7.565969e+000 5.377532e+000
      endloop
   endfacet
   facet normal -4.753455e-001 -8.797992e-001 0.000000e+000
      outer loop
         vertex 6.995736e+000 7.565969e+000 5.377532e+000
         vertex 6.995736e+000 7.565969e+000 1.000000e+001
         vertex 6.653691e+000 7.738424e+000 1.000000e+001
      endloop
   endfacet
   facet normal -4.246998e-001 -9.053342e-001 0.000000e+000
      outer loop
         vertex 6.995736e+000 7.565969e+000 5.377532e+000
         vertex 6.653691e+000 7.738424e+000 1.000000e+001
         vertex 6.653691e+000 7.738424e+000 5.377532e+000
      endloop
   endfacet
   facet normal -3.198213e-001 -9.474779e-001 0.000000e+000
      outer loop
         vertex 6.653691e+000 7.738424e+000 5.377532e+000
         vertex 6.653691e+000 7.738424e+000 1.000000e+001
         vertex 6.287421e+000 7.850594e+000 1.000000e+001
      endloop
   endfacet
   facet normal -2.655886e-001 -9.640865e-001 0.000000e+000
      outer loop
         vertex 6.653691e+000 7.738424e+000 5.377532e+000
         vertex 6.287421e+000 7.850594e+000 1.000000e+001
         vertex 6.287421e+000 7.850594e+000 5.377532e+000
      endloop
   endfacet
   facet normal -1.550965e-001 -9.878993e-001 0.000000e+000
      outer loop
         vertex 6.287421e+000 7.850594e+000 5.377532e+000
         vertex 6.287421e+000 7.850594e+000 1.000000e+001
         vertex 5.907463e+000 7.899249e+000 1.000000e+001
      endloop
   endfacet
   facet normal -9.883699e-002 -9.951036e-001 0.000000e+000
      outer loop
         vertex 6.287421e+000 7.850594e+000 5.377532e+000
         vertex 5.907463e+000 7.899249e+000 1.000000e+001
         vertex 5.907463e+000 7.899249e+000 5.377532e+000
      endloop
   endfacet
   facet normal 1.409025e-002 -9.999007e-001 0.000000e+000
      outer loop
         vertex 5.907463e+000 7.899249e+000 5.377532e+000
         vertex 5.907463e+000 7.899249e+000 1.000000e+001
         vertex 5.524746e+000 7.882992e+000 1.000000e+001
      endloop
   endfacet
   facet normal 7.075802e-002 -9.974935e-001 0.000000e+000
      outer loop
         vertex 5.907463e+000 7.899249e+000 5.377532e+000
         vertex 5.524746e+000 7.882992e+000 1.000000e+001
         vertex 5.524746e+000 7.882992e+000 5.377532e+000
      endloop
   endfacet
   facet normal 1.828716e-001 -9.831368e-001 0.000000e+000
      outer loop
         vertex 5.524746e+000 7.882992e+000 5.377532e+000
         vertex 5.524746e+000 7.882992e+000 1.000000e+001
         vertex 5.150283e+000 7.802289e+000 1.000000e+001
      endloop
   endfacet
   facet normal 2.383175e-001 -9.711873e-001 0.000000e+000
      outer loop
         vertex 5.524746e+000 7.882992e+000 5.377532e+000
         vertex 5.150283e+000 7.802289e+000 1.000000e+001
         vertex 5.150283e+000 7.802289e+000 5.377532e+000
      endloop
   endfacet
   facet normal 3.463921e-001 -9.380898e-001 0.000000e+000
      outer loop
         vertex 5.150283e+000 7.802289e+000 5.377532e+000
         vertex 5.150283e+000 7.802289e+000 1.000000e+001
         vertex 4.794845e+000 7.659462e+000 1.000000e+001
      endloop
   endfacet
   facet normal 3.990209e-001 -9.169418e-001 0.000000e+000
      outer loop
         vertex 5.150283e+000 7.802289e+000 5.377532e+000
         vertex 4.794845e+000 7.659462e+000 1.000000e+001
         vertex 4.794845e+000 7.659462e+000 5.377532e+000
      endloop
   endfacet
   facet normal 4.999475e-001 -8.660557e-001 0.000000e+000
      outer loop
         vertex 4.794845e+000 7.659462e+000 5.377532e+000
         vertex 4.794845e+000 7.659462e+000 1.000000e+001
         vertex 4.468657e+000 7.458620e+000 1.000000e+001
      endloop
   endfacet
   facet normal 5.482453e-001 -8.363176e-001 0.000000e+000
      outer loop
         vertex 4.794845e+000 7.659462e+000 5.377532e+000
         vertex 4.468657e+000 7.458620e+000 1.000000e+001
         vertex 4.468657e+000 7.458620e+000 5.377532e+000
      endloop
   endfacet
   facet normal 6.391203e-001 -7.691067e-001 0.000000e+000
      outer loop
         vertex 4.468657e+000 7.458620e+000 5.377532e+000
         vertex 4.468657e+000 7.458620e+000 1.000000e+001
         vertex 4.181104e+000 7.205541e+000 1.000000e+001
      endloop
   endfacet
   facet normal 6.816977e-001 -7.316340e-001 0.000000e+000
      outer loop
         vertex 4.468657e+000 7.458620e+000 5.377532e+000
         vertex 4.181104e+000 7.205541e+000 1.000000e+001
         vertex 4.181104e+000 7.205541e+000 5.377532e+000
      endloop
   endfacet
   facet normal 7.599069e-001 -6.500320e-001 0.000000e+000
      outer loop
         vertex 4.181104e+000 7.205541e+000 5.377532e+000
         vertex 4.181104e+000 7.205541e+000 1.000000e+001
         vertex 3.940458e+000 6.907506e+000 1.000000e+001
      endloop
   endfacet
   facet normal 7.955388e-001 -6.059027e-001 0.000000e+000
      outer loop
         vertex 4.181104e+000 7.205541e+000 5.377532e+000
         vertex 3.940458e+000 6.907506e+000 1.000000e+001
         vertex 3.940458e+000 6.907506e+000 5.377532e+000
      endloop
   endfacet
   facet normal 8.588322e-001 -5.122570e-001 0.000000e+000
      outer loop
         vertex 3.940458e+000 6.907506e+000 5.377532e+000
         vertex 3.940458e+000 6.907506e+000 1.000000e+001
         vertex 3.753640e+000 6.573089e+000 1.000000e+001
      endloop
   endfacet
   facet normal 8.864937e-001 -4.627406e-001 0.000000e+000
      outer loop
         vertex 3.940458e+000 6.907506e+000 5.377532e+000
         vertex 3.753640e+000 6.573089e+000 1.000000e+001
         vertex 3.753640e+000 6.573089e+000 5.377532e+000
      endloop
   endfacet
   facet normal 9.330506e-001 -3.597453e-001 0.000000e+000
      outer loop
         vertex 3.753640e+000 6.573089e+000 5.377532e+000
         vertex 3.753640e+000 6.573089e+000 1.000000e+001
         vertex 3.626028e+000 6.211908e+000 1.000000e+001
      endloop
   endfacet
   facet normal 9.519458e-001 -3.062663e-001 0.000000e+000
      outer loop
         vertex 3.753640e+000 6.573089e+000 5.377532e+000
         vertex 3.626028e+000 6.211908e+000 1.000000e+001
         vertex 3.626028e+000 6.211908e+000 5.377532e+000
      endloop
   endfacet
   facet normal 9.804267e-001 -1.968844e-001 0.000000e+000
      outer loop
         vertex 3.626028e+000 6.211908e+000 5.377532e+000
         vertex 3.626028e+000 6.211908e+000 1.000000e+001
         vertex 3.561290e+000 5.834358e+000 1.000000e+001
      endloop
   endfacet
   facet normal 9.900123e-001 -1.409813e-001 0.000000e+000
      outer loop
         vertex 3.626028e+000 6.211908e+000 5.377532e+000
         vertex 3.561290e+000 5.834358e+000 1.000000e+001
         vertex 3.561290e+000 5.834358e+000 5.377532e+000
      endloop
   endfacet
   facet normal 9.995977e-001 -2.835944e-002 0.000000e+000
      outer loop
         vertex 3.561290e+000 5.834358e+000 5.377532e+000
         vertex 3.561290e+000 5.834358e+000 1.000000e+001
         vertex 3.561290e+000 5.451296e+000 1.000000e+001
      endloop
   endfacet
   facet normal 9.995977e-001 2.835944e-002 0.000000e+000
      outer loop
         vertex 3.561290e+000 5.834358e+000 5.377532e+000
         vertex 3.561290e+000 5.451296e+000 1.000000e+001
         vertex 3.561290e+000 5.451296e+000 5.377532e+000
      endloop
   endfacet
   facet normal 9.900123e-001 1.409813e-001 0.000000e+000
      outer loop
         vertex 3.561290e+000 5.451296e+000 5.377532e+000
         vertex 3.561290e+000 5.451296e+000 1.000000e+001
         vertex 3.626028e+000 5.073745e+000 1.000000e+001
      endloop
   endfacet
   facet normal 9.804267e-001 1.968844e-001 0.000000e+000
      outer loop
         vertex 3.561290e+000 5.451296e+000 5.377532e+000
         vertex 3.626028e+000 5.073745e+000 1.000000e+001
         vertex 3.626028e+000 5.073745e+000 5.377532e+000
      endloop
   endfacet
   facet normal 9.519458e-001 3.062663e-001 0.000000e+000
      outer loop
         vertex 3.626028e+000 5.073745e+000 5.377532e+000
         vertex 3.626028e+000 5.073745e+000 1.000000e+001
         vertex 3.753640e+000 4.712566e+000 1.000000e+001
      endloop
   endfacet
   facet normal 9.330506e-001 3.597453e-001 0.000000e+000
      outer loop
         vertex 3.626028e+000 5.073745e+000 5.377532e+000
         vertex 3.753640e+000 4.712566e+000 1.000000e+001
         vertex 3.753640e+000 4.712566e+000 5.377532e+000
      endloop
   endfacet
   facet normal 8.864937e-001 4.627406e-001 0.000000e+000
      outer loop
         vertex 3.753640e+000 4.712566e+000 5.377532e+000
         vertex 3.753640e+000 4.712566e+000 1.000000e+001
         vertex 3.940458e+000 4.378149e+000 1.000000e+001
      endloop
   endfacet
   facet normal 8.588322e-001 5.122570e-001 0.000000e+000
      outer loop
         vertex 3.753640e+000 4.712566e+000 5.377532e+000
         vertex 3.940458e+000 4.378149e+000 1.000000e+001
         vertex 3.940458e+000 4.378149e+000 5.377532e+000
      endloop
   endfacet
   facet normal 7.955388e-001 6.059027e-001 0.000000e+000
      outer loop
         vertex 3.940458e+000 4.378149e+000 5.377532e+000
         vertex 3.940458e+000 4.378149e+000 1.000000e+001
         vertex 4.181104e+000 4.080113e+000 1.000000e+001
      endloop
   endfacet
   facet normal 7.599069e-001 6.500320e-001 0.000000e+000
      outer loop
         vertex 3.940458e+000 4.378149e+000 5.377532e+000
         vertex 4.181104e+000 4.080113e+000 1.000000e+001
         vertex 4.181104e+000 4.080113e+000 5.377532e+000
      endloop
   endfacet
   facet normal 6.816977e-001 7.316340e-001 0.000000e+000
      outer loop
         vertex 4.181104e+000 4.080113e+000 5.377532e+000
         vertex 4.181104e+000 4.080113e+000 1.000000e+001
         vertex 4.468657e+000 3.827034e+000 1.000000e+001
      endloop
   endfacet
   facet normal 6.391203e-001 7.691067e-001 0.000000e+000
      outer loop
         vertex 4.181104e+000 4.080113e+000 5.377532e+000
         vertex 4.468657e+000 3.827034e+000 1.000000e+001
         vertex 4.468657e+000 3.827034e+000 5.377532e+000
      endloop
   endfacet
   facet normal 5.482453e-001 8.363176e-001 0.000000e+000
      outer loop
         vertex 4.468657e+000 3.827034e+000 5.377532e+000
         vertex 4.468657e+000 3.827034e+000 1.000000e+001
         vertex 4.794845e+000 3.626193e+000 1.000000e+001
      endloop
   endfacet
   facet normal 4.999475e-001 8.660557e-001 0.000000e+000
      outer loop
         vertex 4.468657e+000 3.827034e+000 5.377532e+000
         vertex 4.794845e+000 3.626193e+000 1.000000e+001
         vertex 4.794845e+000 3.626193e+000 5.377532e+000
      endloop
   endfacet
   facet normal 3.990209e-001 9.169418e-001 0.000000e+000
      outer loop
         vertex 4.794845e+000 3.626193e+000 5.377532e+000
         vertex 4.794845e+000 3.626193e+000 1.000000e+001
         vertex 5.150283e+000 3.483366e+000 1.000000e+001
      endloop
   endfacet
   facet normal 3.463921e-001 9.380898e-001 0.000000e+000
      outer loop
         vertex 4.794845e+000 3.626193e+000 5.377532e+000
         vertex 5.150283e+000 3.483366e+000 1.000000e+001
         vertex 5.150283e+000 3.483366e+000 5.377532e+000
      endloop
   endfacet
   facet normal 2.383175e-001 9.711873e-001 0.000000e+000
      outer loop
         vertex 5.150283e+000 3.483366e+000 5.377532e+000
         vertex 5.150283e+000 3.483366e+000 1.000000e+001
         vertex 5.524746e+000 3.402663e+000 1.000000e+001
      endloop
   endfacet
   facet normal 1.828716e-001 9.831368e-001 0.000000e+000
      outer loop
         vertex 5.150283e+000 3.483366e+000 5.377532e+000
         vertex 5.524746e+000 3.402663e+000 1.000000e+001
         vertex 5.524746e+000 3.402663e+000 5.377532e+000
      endloop
   endfacet
   facet normal 7.075802e-002 9.974935e-001 0.000000e+000
      outer loop
         vertex 5.524746e+000 3.402663e+000 5.377532e+000
         vertex 5.524746e+000 3.402663e+000 1.000000e+001
         vertex 5.907463e+000 3.386405e+000 1.000000e+001
      endloop
   endfacet
   facet normal 1.409025e-002 9.999007e-001 0.000000e+000
      outer loop
         vertex 5.524746e+000 3.402663e+000 5.377532e+000
         vertex 5.907463e+000 3.386405e+000 1.000000e+001
         vertex 5.907463e+000 3.386405e+000 5.377532e+000
      endloop
   endfacet
   facet normal -9.883699e-002 9.951036e-001 0.000000e+000
      outer loop
         vertex 5.907463e+000 3.386405e+000 5.377532e+000
         vertex 5.907463e+000 3.386405e+000 1.000000e+001
         vertex 6.287421e+000 3.435061e+000 1.000000e+001
      endloop
   endfacet
   facet normal -1.550965e-001 9.878993e-001 0.000000e+000
      outer loop
         vertex 5.907463e+000 3.386405e+000 5.377532e+000
         vertex 6.287421e+000 3.435061e+000 1.000000e+001
         vertex 6.287421e+000 3.435061e+000 5.377532e+000
      endloop
   endfacet
   facet normal -2.655886e-001 9.640865e-001 0.000000e+000
      outer loop
         vertex 6.287421e+000 3.435061e+000 5.377532e+000
         vertex 6.287421e+000 3.435061e+000 1.000000e+001
         vertex 6.653691e+000 3.547230e+000 1.000000e+001
      endloop
   endfacet
   facet normal -3.198213e-001 9.474779e-001 0.000000e+000
      outer loop
         vertex 6.287421e+000 3.435061e+000 5.377532e+000
         vertex 6.653691e+000 3.547230e+000 1.000000e+001
         vertex 6.653691e+000 3.547230e+000 5.377532e+000
      endloop
   endfacet
   facet normal -4.246998e-001 9.053342e-001 0.000000e+000
      outer loop
         vertex 6.653691e+000 3.547230e+000 5.377532e+000
         vertex 6.653691e+000 3.547230e+000 1.000000e+001
         vertex 6.995736e+000 3.719685e+000 1.000000e+001
      endloop
   endfacet
   facet normal -4.753455e-001 8.797992e-001 0.000000e+000
      outer loop
         vertex 6.653691e+000 3.547230e+000 5.377532e+000
         vertex 6.995736e+000 3.719685e+000 1.000000e+001
         vertex 6.995736e+000 3.719685e+000 5.377532e+000
      endloop
   endfacet
   facet normal -5.715931e-001 8.205372e-001 0.000000e+000
      outer loop
         vertex 6.995736e+000 3.719685e+000 5.377532e+000
         vertex 6.995736e+000 3.719685e+000 1.000000e+001
         vertex 7.303716e+000 3.947466e+000 1.000000e+001
      endloop
   endfacet
   facet normal -6.171949e-001 7.868103e-001 0.000000e+000
      outer loop
         vertex 6.995736e+000 3.719685e+000 5.377532e+000
         vertex 7.303716e+000 3.947466e+000 1.000000e+001
         vertex 7.303716e+000 3.947466e+000 5.377532e+000
      endloop
   endfacet
   facet normal -7.020428e-001 7.121348e-001 0.000000e+000
      outer loop
         vertex 7.303716e+000 3.947466e+000 5.377532e+000
         vertex 7.303716e+000 3.947466e+000 1.000000e+001
         vertex 7.568771e+000 4.224019e+000 1.000000e+001
      endloop
   endfacet
   facet normal -7.412888e-001 6.711863e-001 0.000000e+000
      outer loop
         vertex 7.303716e+000 3.947466e+000 5.377532e+000
         vertex 7.568771e+000 4.224019e+000 1.000000e+001
         vertex 7.568771e+000 4.224019e+000 5.377532e+000
      endloop
   endfacet
   facet normal -8.122959e-001 5.832456e-001 0.000000e+000
      outer loop
         vertex 7.568771e+000 4.224019e+000 5.377532e+000
         vertex 7.568771e+000 4.224019e+000 1.000000e+001
         vertex 7.783276e+000 4.541389e+000 1.000000e+001
      endloop
   endfacet
   facet normal -8.440570e-001 5.362535e-001 0.000000e+000
      outer loop
         vertex 7.568771e+000 4.224019e+000 5.377532e+000
         vertex 7.783276e+000 4.541389e+000 1.000000e+001
         vertex 7.783276e+000 4.541389e+000 5.377532e+000
      endloop
   endfacet
   facet normal -8.991807e-001 4.375775e-001 0.000000e+000
      outer loop
         vertex 7.783276e+000 4.541389e+000 5.377532e+000
         vertex 7.783276e+000 4.541389e+000 1.000000e+001
         vertex 7.941059e+000 4.890445e+000 1.000000e+001
      endloop
   endfacet
   facet normal -9.225433e-001 3.858936e-001 0.000000e+000
      outer loop
         vertex 7.783276e+000 4.541389e+000 5.377532e+000
         vertex 7.941059e+000 4.890445e+000 1.000000e+001
         vertex 7.941059e+000 4.890445e+000 5.377532e+000
      endloop
   endfacet
   facet normal -9.601977e-001 2.793211e-001 0.000000e+000
      outer loop
         vertex 7.941059e+000 4.890445e+000 5.377532e+000
         vertex 7.941059e+000 4.890445e+000 1.000000e+001
         vertex 8.037582e+000 5.261146e+000 1.000000e+001
      endloop
   endfacet
   facet normal -9.744897e-001 2.244324e-001 0.000000e+000
      outer loop
         vertex 7.941059e+000 4.890445e+000 5.377532e+000
         vertex 8.037582e+000 5.261146e+000 1.000000e+001
         vertex 8.037582e+000 5.261146e+000 5.377532e+000
      endloop
   endfacet
   facet normal -9.935917e-001 1.130291e-001 0.000000e+000
      outer loop
         vertex 8.037582e+000 5.261146e+000 5.377532e+000
         vertex 8.037582e+000 5.261146e+000 1.000000e+001
         vertex 8.070067e+000 5.642827e+000 1.000000e+001
      endloop
   endfacet
   facet normal 0.000000e+000 0.000000e+000 1.000000e+000
      outer loop
         vertex 7.568771e+000 4.224019e+000 5.377532e+000
         vertex 3.561290e+000 5.834358e+000 5.377532e+000
         vertex 3.561290e+000 5.451296e+000 5.377532e+000
      endloop
   endfacet
   facet normal 0.000000e+000 0.000000e+000 1.000000e+000
      outer loop
         vertex 7.568771e+000 4.224019e+000 5.377532e+000
         vertex 7.783276e+000 4.541389e+000 5.377532e+000
         vertex 3.561290e+000 5.834358e+000 5.377532e+000
      endloop
   endfacet
   facet normal 0.000000e+000 0.000000e+000 1.000000e+000
      outer loop
         vertex 3.561290e+000 5.834358e+000 5.377532e+000
         vertex 7.783276e+000 4.541389e+000 5.377532e+000
         vertex 7.941059e+000 4.890445e+000 5.377532e+000
      endloop
   endfacet
   facet normal 0.000000e+000 0.000000e+000 1.000000e+000
      outer loop
         vertex 3.561290e+000 5.834358e+000 5.377532e+000
         vertex 7.941059e+000 4.890445e+000 5.377532e+000
         vertex 8.037582e+000 5.261146e+000 5.377532e+000
      endloop
   endfacet
   facet normal 0.000000e+000 0.000000e+000 1.000000e+000
      outer loop
         vertex 3.561290e+000 5.451296e+000 5.377532e+000
         vertex 3.626028e+000 5.073745e+000 5.377532e+000
         vertex 7.568771e+000 4.224019e+000 5.377532e+000
      endloop
   endfacet
   facet normal 0.000000e+000 0.000000e+000 1.000000e+000
      outer loop
         vertex 7.568771e+000 4.224019e+000 5.377532e+000
         vertex 3.626028e+000 5.073745e+000 5.377532e+000
         vertex 3.753640e+000 4.712566e+000 5.377532e+000
      endloop
   endfacet
   facet normal 0.000000e+000 0.000000e+000 1.000000e+000
      outer loop
         vertex 7.568771e+000 4.224019e+000 5.377532e+000
         vertex 3.753640e+000 4.712566e+000 5.377532e+000
         vertex 3.940458e+000 4.378149e+000 5.377532e+000
      endloop
   endfacet
   facet normal 0.000000e+000 0.000000e+000 1.000000e+000
      outer loop
         vertex 8.037582e+000 5.261146e+000 5.377532e+000
         vertex 8.070067e+000 5.642827e+000 5.377532e+000
         vertex 3.561290e+000 5.834358e+000 5.377532e+000
      endloop
   endfacet
   facet normal 0.000000e+000 0.000000e+000 1.000000e+000
      outer loop
         vertex 3.561290e+000 5.834358e+000 5.377532e+000
         vertex 8.070067e+000 5.642827e+000 5.377532e+000
         vertex 8.037582e+000 6.024508e+000 5.377532e+000
      endloop
   endfacet
   facet normal 0.000000e+000 0.000000e+000 1.000000e+000
      outer loop
         vertex 3.561290e+000 5.834358e+000 5.377532e+000
         vertex 8.037582e+000 6.024508e+000 5.377532e+000
         vertex 7.941059e+000 6.395209e+000 5.377532e+000
      endloop
   endfacet
   facet normal 0.000000e+000 0.000000e+000 1.000000e+000
      outer loop
         vertex 7.568771e+000 4.224019e+000 5.377532e+000
         vertex 4.794845e+000 3.626193e+000 5.377532e+000
         vertex 7.303716e+000 3.947466e+000 5.377532e+000
      endloop
   endfacet
   facet normal 0.000000e+000 0.000000e+000 1.000000e+000
      outer loop
         vertex 7.303716e+000 3.947466e+000 5.377532e+000
         vertex 4.794845e+000 3.626193e+000 5.377532e+000
         vertex 6.995736e+000 3.719685e+000 5.377532e+000
      endloop
   endfacet
   facet normal 0.000000e+000 0.000000e+000 1.000000e+000
      outer loop
         vertex 3.940458e+000 4.378149e+000 5.377532e+000
         vertex 4.181104e+000 4.080113e+000 5.377532e+000
         vertex 7.568771e+000 4.224019e+000 5.377532e+000
      endloop
   endfacet
   facet normal 0.000000e+000 0.000000e+000 1.000000e+000
      outer loop
         vertex 7.568771e+000 4.224019e+000 5.377532e+000
         vertex 4.181104e+000 4.080113e+000 5.377532e+000
         vertex 4.468657e+000 3.827034e+000 5.377532e+000
      endloop
   endfacet
   facet normal 0.000000e+000 0.000000e+000 1.000000e+000
      outer loop
         vertex 7.568771e+000 4.224019e+000 5.377532e+000
         vertex 4.468657e+000 3.827034e+000 5.377532e+000
         vertex 4.794845e+000 3.626193e+000 5.377532e+000
      endloop
   endfacet
   facet normal 0.000000e+000 0.000000e+000 1.000000e+000
      outer loop
         vertex 5.524746e+000 3.402663e+000 5.377532e+000
         vertex 5.907463e+000 3.386405e+000 5.377532e+000
         vertex 6.287421e+000 3.435061e+000 5.377532e+000
      endloop
   endfacet
   facet normal 0.000000e+000 0.000000e+000 1.000000e+000
      outer loop
         vertex 7.941059e+000 6.395209e+000 5.377532e+000
         vertex 7.783276e+000 6.744265e+000 5.377532e+000
         vertex 3.561290e+000 5.834358e+000 5.377532e+000
      endloop
   endfacet
   facet normal 0.000000e+000 0.000000e+000 1.000000e+000
      outer loop
         vertex 3.561290e+000 5.834358e+000 5.377532e+000
         vertex 7.783276e+000 6.744265e+000 5.377532e+000
         vertex 7.568771e+000 7.061635e+000 5.377532e+000
      endloop
   endfacet
   facet normal 0.000000e+000 0.000000e+000 1.000000e+000
      outer loop
         vertex 3.561290e+000 5.834358e+000 5.377532e+000
         vertex 7.568771e+000 7.061635e+000 5.377532e+000
         vertex 3.626028e+000 6.211908e+000 5.377532e+000
      endloop
   endfacet
   facet normal 0.000000e+000 0.000000e+000 1.000000e+000
      outer loop
         vertex 3.626028e+000 6.211908e+000 5.377532e+000
         vertex 7.568771e+000 7.061635e+000 5.377532e+000
         vertex 7.303716e+000 7.338188e+000 5.377532e+000
      endloop
   endfacet
   facet normal 0.000000e+000 0.000000e+000 1.000000e+000
      outer loop
         vertex 3.626028e+000 6.211908e+000 5.377532e+000
         vertex 7.303716e+000 7.338188e+000 5.377532e+000
         vertex 6.995736e+000 7.565969e+000 5.377532e+000
      endloop
   endfacet
   facet normal 0.000000e+000 0.000000e+000 1.000000e+000
      outer loop
         vertex 5.907463e+000 7.899249e+000 5.377532e+000
         vertex 5.524746e+000 7.882992e+000 5.377532e+000
         vertex 3.626028e+000 6.211908e+000 5.377532e+000
      endloop
   endfacet
   facet normal 0.000000e+000 0.000000e+000 1.000000e+000
      outer loop
         vertex 3.626028e+000 6.211908e+000 5.377532e+000
         vertex 5.524746e+000 7.882992e+000 5.377532e+000
         vertex 5.150283e+000 7.802289e+000 5.377532e+000
      endloop
   endfacet
   facet normal 0.000000e+000 0.000000e+000 1.000000e+000
      outer loop
         vertex 3.626028e+000 6.211908e+000 5.377532e+000
         vertex 5.150283e+000 7.802289e+000 5.377532e+000
         vertex 4.794845e+000 7.659462e+000 5.377532e+000
      endloop
   endfacet
   facet normal 0.000000e+000 0.000000e+000 1.000000e+000
      outer loop
         vertex 4.794845e+000 7.659462e+000 5.377532e+000
         vertex 4.468657e+000 7.458620e+000 5.377532e+000
         vertex 3.626028e+000 6.211908e+000 5.377532e+000
      endloop
   endfacet
   facet normal 0.000000e+000 0.000000e+000 1.000000e+000
      outer loop
         vertex 3.626028e+000 6.211908e+000 5.377532e+000
         vertex 4.468657e+000 7.458620e+000 5.377532e+000
         vertex 4.181104e+000 7.205541e+000 5.377532e+000
      endloop
   endfacet
   facet normal 0.000000e+000 0.000000e+000 1.000000e+000
      outer loop
         vertex 3.626028e+000 6.211908e+000 5.377532e+000
         vertex 4.181104e+000 7.205541e+000 5.377532e+000
         vertex 3.753640e+000 6.573089e+000 5.377532e+000
      endloop
   endfacet
   facet normal 0.000000e+000 0.000000e+000 1.000000e+000
      outer loop
         vertex 3.753640e+000 6.573089e+000 5.377532e+000
         vertex 4.181104e+000 7.205541e+000 5.377532e+000
         vertex 3.940458e+000 6.907506e+000 5.377532e+000
      endloop
   endfacet
   facet normal 0.000000e+000 0.000000e+000 1.000000e+000
      outer loop
         vertex 4.794845e+000 3.626193e+000 5.377532e+000
         vertex 5.150283e+000 3.483366e+000 5.377532e+000
         vertex 6.995736e+000 3.719685e+000 5.377532e+000
      endloop
   endfacet
   facet normal 0.000000e+000 0.000000e+000 1.000000e+000
      outer loop
         vertex 6.995736e+000 3.719685e+000 5.377532e+000
         vertex 5.150283e+000 3.483366e+000 5.377532e+000
         vertex 5.524746e+000 3.402663e+000 5.377532e+000
      endloop
   endfacet
   facet normal 0.000000e+000 0.000000e+000 1.000000e+000
      outer loop
         vertex 6.995736e+000 3.719685e+000 5.377532e+000
         vertex 5.524746e+000 3.402663e+000 5.377532e+000
         vertex 6.653691e+000 3.547230e+000 5.377532e+000
      endloop
   endfacet
   facet normal 0.000000e+000 0.000000e+000 1.000000e+000
      outer loop
         vertex 6.653691e+000 3.547230e+000 5.377532e+000
         vertex 5.524746e+000 3.402663e+000 5.377532e+000
         vertex 6.287421e+000 3.435061e+000 5.377532e+000
      endloop
   endfacet
   facet normal 0.000000e+000 0.000000e+000 1.000000e+000
      outer loop
         vertex 6.995736e+000 7.565969e+000 5.377532e+000
         vertex 6.653691e+000 7.738424e+000 5.377532e+000
         vertex 3.626028e+000 6.211908e+000 5.377532e+000
      endloop
   endfacet
   facet normal 0.000000e+000 0.000000e+000 1.000000e+000
      outer loop
         vertex 3.626028e+000 6.211908e+000 5.377532e+000
         vertex 6.653691e+000 7.738424e+000 5.377532e+000
         vertex 6.287421e+000 7.850594e+000 5.377532e+000
      endloop
   endfacet
   facet normal 0.000000e+000 0.000000e+000 1.000000e+000
      outer loop
         vertex 3.626028e+000 6.211908e+000 5.377532e+000
         vertex 6.287421e+000 7.850594e+000 5.377532e+000
         vertex 5.907463e+000 7.899249e+000 5.377532e+000
      endloop
   endfacet
endsolid