solid 2_675
   facet normal -1.000000e+000 0.000000e+000 0.000000e+000
      outer loop
         vertex 0.000000e+000 1.000000e+001 1.000000e+001
         vertex 0.000000e+000 1.000000e+001 0.000000e+000
         vertex 0.000000e+000 0.000000e+000 1.000000e+001
      endloop
   endfacet
   facet normal -1.000000e+000 0.000000e+000 0.000000e+000
      outer loop
         vertex 0.000000e+000 0.000000e+000 1.000000e+001
         vertex 0.000000e+000 1.000000e+001 0.000000e+000
         vertex 0.000000e+000 0.000000e+000 0.000000e+000
      endloop
   endfacet
   facet normal 0.000000e+000 0.000000e+000 1.000000e+000
      outer loop
         vertex 7.363051e+000 4.737703e+000 1.000000e+001
         vertex 7.145608e+000 4.393844e+000 1.000000e+001
         vertex 1.000000e+001 0.000000e+000 1.000000e+001
      endloop
   endfacet
   facet normal 0.000000e+000 0.000000e+000 1.000000e+000
      outer loop
         vertex 5.827940e+000 8.340740e+000 1.000000e+001
         vertex 6.208344e+000 8.196472e+000 1.000000e+001
         vertex 1.000000e+001 1.000000e+001 1.000000e+001
      endloop
   endfacet
   facet normal 0.000000e+000 0.000000e+000 1.000000e+000
      outer loop
         vertex 1.000000e+001 1.000000e+001 1.000000e+001
         vertex 6.208344e+000 8.196472e+000 1.000000e+001
         vertex 6.560680e+000 7.993051e+000 1.000000e+001
      endloop
   endfacet
   facet normal 0.000000e+000 0.000000e+000 1.000000e+000
      outer loop
         vertex 1.000000e+001 1.000000e+001 1.000000e+001
         vertex 6.560680e+000 7.993051e+000 1.000000e+001
         vertex 6.875822e+000 7.735745e+000 1.000000e+001
      endloop
   endfacet
   facet normal 0.000000e+000 0.000000e+000 1.000000e+000
      outer loop
         vertex 6.875822e+000 7.735745e+000 1.000000e+001
         vertex 7.145608e+000 7.431220e+000 1.000000e+001
         vertex 1.000000e+001 1.000000e+001 1.000000e+001
      endloop
   endfacet
   facet normal 0.000000e+000 0.000000e+000 1.000000e+000
      outer loop
         vertex 1.000000e+001 1.000000e+001 1.000000e+001
         vertex 7.145608e+000 7.431220e+000 1.000000e+001
         vertex 7.363051e+000 7.087361e+000 1.000000e+001
      endloop
   endfacet
   facet normal 0.000000e+000 0.000000e+000 1.000000e+000
      outer loop
         vertex 1.000000e+001 1.000000e+001 1.000000e+001
         vertex 7.363051e+000 7.087361e+000 1.000000e+001
         vertex 7.522520e+000 6.713075e+000 1.000000e+001
      endloop
   endfacet
   facet normal 0.000000e+000 0.000000e+000 1.000000e+000
      outer loop
         vertex 7.363051e+000 4.737703e+000 1.000000e+001
         vertex 1.000000e+001 0.000000e+000 1.000000e+001
         vertex 7.522520e+000 5.111989e+000 1.000000e+001
      endloop
   endfacet
   facet normal 0.000000e+000 0.000000e+000 1.000000e+000
      outer loop
         vertex 7.522520e+000 6.713075e+000 1.000000e+001
         vertex 7.619884e+000 6.318055e+000 1.000000e+001
         vertex 1.000000e+001 1.000000e+001 1.000000e+001
      endloop
   endfacet
   facet normal 0.000000e+000 0.000000e+000 1.000000e+000
      outer loop
         vertex 1.000000e+001 1.000000e+001 1.000000e+001
         vertex 7.619884e+000 6.318055e+000 1.000000e+001
         vertex 7.652621e+000 5.912532e+000 1.000000e+001
      endloop
   endfacet
   facet normal 0.000000e+000 0.000000e+000 1.000000e+000
      outer loop
         vertex 1.000000e+001 1.000000e+001 1.000000e+001
         vertex 7.652621e+000 5.912532e+000 1.000000e+001
         vertex 1.000000e+001 0.000000e+000 1.000000e+001
      endloop
   endfacet
   facet normal 0.000000e+000 0.000000e+000 1.000000e+000
      outer loop
         vertex 1.000000e+001 0.000000e+000 1.000000e+001
         vertex 7.652621e+000 5.912532e+000 1.000000e+001
         vertex 7.619884e+000 5.507009e+000 1.000000e+001
      endloop
   endfacet
   facet normal 0.000000e+000 0.000000e+000 1.000000e+000
      outer loop
         vertex 1.000000e+001 0.000000e+000 1.000000e+001
         vertex 7.619884e+000 5.507009e+000 1.000000e+001
         vertex 7.522520e+000 5.111989e+000 1.000000e+001
      endloop
   endfacet
   facet normal 0.000000e+000 0.000000e+000 1.000000e+000
      outer loop
         vertex 2.670041e+000 6.517526e+000 1.000000e+001
         vertex 2.798875e+000 6.903431e+000 1.000000e+001
         vertex 0.000000e+000 1.000000e+001 1.000000e+001
      endloop
   endfacet
   facet normal 0.000000e+000 0.000000e+000 1.000000e+000
      outer loop
         vertex 3.525767e+000 7.870749e+000 1.000000e+001
         vertex 3.860591e+000 8.101861e+000 1.000000e+001
         vertex 0.000000e+000 1.000000e+001 1.000000e+001
      endloop
   endfacet
   facet normal 0.000000e+000 0.000000e+000 1.000000e+000
      outer loop
         vertex 0.000000e+000 1.000000e+001 1.000000e+001
         vertex 3.860591e+000 8.101861e+000 1.000000e+001
         vertex 4.228153e+000 8.276271e+000 1.000000e+001
      endloop
   endfacet
   facet normal 0.000000e+000 0.000000e+000 1.000000e+000
      outer loop
         vertex 7.145608e+000 4.393844e+000 1.000000e+001
         vertex 6.875822e+000 4.089318e+000 1.000000e+001
         vertex 1.000000e+001 0.000000e+000 1.000000e+001
      endloop
   endfacet
   facet normal 0.000000e+000 0.000000e+000 1.000000e+000
      outer loop
         vertex 1.000000e+001 0.000000e+000 1.000000e+001
         vertex 6.875822e+000 4.089318e+000 1.000000e+001
         vertex 6.560680e+000 3.832012e+000 1.000000e+001
      endloop
   endfacet
   facet normal 0.000000e+000 0.000000e+000 1.000000e+000
      outer loop
         vertex 1.000000e+001 0.000000e+000 1.000000e+001
         vertex 6.560680e+000 3.832012e+000 1.000000e+001
         vertex 6.208344e+000 3.628591e+000 1.000000e+001
      endloop
   endfacet
   facet normal 0.000000e+000 0.000000e+000 1.000000e+000
      outer loop
         vertex 4.618932e+000 3.435602e+000 1.000000e+001
         vertex 4.228153e+000 3.548792e+000 1.000000e+001
         vertex 0.000000e+000 0.000000e+000 1.000000e+001
      endloop
   endfacet
   facet normal 0.000000e+000 0.000000e+000 1.000000e+000
      outer loop
         vertex 0.000000e+000 0.000000e+000 1.000000e+001
         vertex 4.228153e+000 3.548792e+000 1.000000e+001
         vertex 3.860591e+000 3.723202e+000 1.000000e+001
      endloop
   endfacet
   facet normal 0.000000e+000 0.000000e+000 1.000000e+000
      outer loop
         vertex 0.000000e+000 0.000000e+000 1.000000e+001
         vertex 3.860591e+000 3.723202e+000 1.000000e+001
         vertex 3.525767e+000 3.954315e+000 1.000000e+001
      endloop
   endfacet
   facet normal 0.000000e+000 0.000000e+000 1.000000e+000
      outer loop
         vertex 2.798875e+000 6.903431e+000 1.000000e+001
         vertex 2.987944e+000 7.263671e+000 1.000000e+001
         vertex 0.000000e+000 1.000000e+001 1.000000e+001
      endloop
   endfacet
   facet normal 0.000000e+000 0.000000e+000 1.000000e+000
      outer loop
         vertex 0.000000e+000 1.000000e+001 1.000000e+001
         vertex 2.987944e+000 7.263671e+000 1.000000e+001
         vertex 3.232351e+000 7.588919e+000 1.000000e+001
      endloop
   endfacet
   facet normal 0.000000e+000 0.000000e+000 1.000000e+000
      outer loop
         vertex 0.000000e+000 1.000000e+001 1.000000e+001
         vertex 3.232351e+000 7.588919e+000 1.000000e+001
         vertex 3.525767e+000 7.870749e+000 1.000000e+001
      endloop
   endfacet
   facet normal 0.000000e+000 0.000000e+000 1.000000e+000
      outer loop
         vertex 4.228153e+000 8.276271e+000 1.000000e+001
         vertex 4.618932e+000 8.389462e+000 1.000000e+001
         vertex 0.000000e+000 1.000000e+001 1.000000e+001
      endloop
   endfacet
   facet normal 0.000000e+000 0.000000e+000 1.000000e+000
      outer loop
         vertex 0.000000e+000 1.000000e+001 1.000000e+001
         vertex 4.618932e+000 8.389462e+000 1.000000e+001
         vertex 5.022808e+000 8.438501e+000 1.000000e+001
      endloop
   endfacet
   facet normal 0.000000e+000 0.000000e+000 1.000000e+000
      outer loop
         vertex 0.000000e+000 1.000000e+001 1.000000e+001
         vertex 5.022808e+000 8.438501e+000 1.000000e+001
         vertex 1.000000e+001 1.000000e+001 1.000000e+001
      endloop
   endfacet
   facet normal 0.000000e+000 0.000000e+000 1.000000e+000
      outer loop
         vertex 1.000000e+001 1.000000e+001 1.000000e+001
         vertex 5.022808e+000 8.438501e+000 1.000000e+001
         vertex 5.429320e+000 8.422119e+000 1.000000e+001
      endloop
   endfacet
   facet normal 0.000000e+000 0.000000e+000 1.000000e+000
      outer loop
         vertex 1.000000e+001 1.000000e+001 1.000000e+001
         vertex 5.429320e+000 8.422119e+000 1.000000e+001
         vertex 5.827940e+000 8.340740e+000 1.000000e+001
      endloop
   endfacet
   facet normal 0.000000e+000 0.000000e+000 1.000000e+000
      outer loop
         vertex 6.208344e+000 3.628591e+000 1.000000e+001
         vertex 5.827940e+000 3.484323e+000 1.000000e+001
         vertex 1.000000e+001 0.000000e+000 1.000000e+001
      endloop
   endfacet
   facet normal 0.000000e+000 0.000000e+000 1.000000e+000
      outer loop
         vertex 1.000000e+001 0.000000e+000 1.000000e+001
         vertex 5.827940e+000 3.484323e+000 1.000000e+001
         vertex 5.429320e+000 3.402944e+000 1.000000e+001
      endloop
   endfacet
   facet normal 0.000000e+000 0.000000e+000 1.000000e+000
      outer loop
         vertex 1.000000e+001 0.000000e+000 1.000000e+001
         vertex 5.429320e+000 3.402944e+000 1.000000e+001
         vertex 0.000000e+000 0.000000e+000 1.000000e+001
      endloop
   endfacet
   facet normal 0.000000e+000 0.000000e+000 1.000000e+000
      outer loop
         vertex 0.000000e+000 0.000000e+000 1.000000e+001
         vertex 5.429320e+000 3.402944e+000 1.000000e+001
         vertex 5.022808e+000 3.386562e+000 1.000000e+001
      endloop
   endfacet
   facet normal 0.000000e+000 0.000000e+000 1.000000e+000
      outer loop
         vertex 0.000000e+000 0.000000e+000 1.000000e+001
         vertex 5.022808e+000 3.386562e+000 1.000000e+001
         vertex 4.618932e+000 3.435602e+000 1.000000e+001
      endloop
   endfacet
   facet normal 0.000000e+000 0.000000e+000 1.000000e+000
      outer loop
         vertex 3.525767e+000 3.954315e+000 1.000000e+001
         vertex 3.232351e+000 4.236145e+000 1.000000e+001
         vertex 0.000000e+000 0.000000e+000 1.000000e+001
      endloop
   endfacet
   facet normal 0.000000e+000 0.000000e+000 1.000000e+000
      outer loop
         vertex 0.000000e+000 0.000000e+000 1.000000e+001
         vertex 3.232351e+000 4.236145e+000 1.000000e+001
         vertex 2.987944e+000 4.561392e+000 1.000000e+001
      endloop
   endfacet
   facet normal 0.000000e+000 0.000000e+000 1.000000e+000
      outer loop
         vertex 0.000000e+000 0.000000e+000 1.000000e+001
         vertex 2.987944e+000 4.561392e+000 1.000000e+001
         vertex 2.798875e+000 4.921632e+000 1.000000e+001
      endloop
   endfacet
   facet normal 0.000000e+000 0.000000e+000 1.000000e+000
      outer loop
         vertex 2.798875e+000 4.921632e+000 1.000000e+001
         vertex 2.670041e+000 5.307537e+000 1.000000e+001
         vertex 0.000000e+000 0.000000e+000 1.000000e+001
      endloop
   endfacet
   facet normal 0.000000e+000 0.000000e+000 1.000000e+000
      outer loop
         vertex 0.000000e+000 0.000000e+000 1.000000e+001
         vertex 2.670041e+000 5.307537e+000 1.000000e+001
         vertex 2.604779e+000 5.709111e+000 1.000000e+001
      endloop
   endfacet
   facet normal 0.000000e+000 0.000000e+000 1.000000e+000
      outer loop
         vertex 0.000000e+000 0.000000e+000 1.000000e+001
         vertex 2.604779e+000 5.709111e+000 1.000000e+001
         vertex 0.000000e+000 1.000000e+001 1.000000e+001
      endloop
   endfacet
   facet normal 0.000000e+000 0.000000e+000 1.000000e+000
      outer loop
         vertex 0.000000e+000 1.000000e+001 1.000000e+001
         vertex 2.604779e+000 5.709111e+000 1.000000e+001
         vertex 2.604779e+000 6.115953e+000 1.000000e+001
      endloop
   endfacet
   facet normal 0.000000e+000 0.000000e+000 1.000000e+000
      outer loop
         vertex 0.000000e+000 1.000000e+001 1.000000e+001
         vertex 2.604779e+000 6.115953e+000 1.000000e+001
         vertex 2.670041e+000 6.517526e+000 1.000000e+001
      endloop
   endfacet
   facet normal 1.000000e+000 0.000000e+000 0.000000e+000
      outer loop
         vertex 1.000000e+001 1.000000e+001 0.000000e+000
         vertex 1.000000e+001 1.000000e+001 1.000000e+001
         vertex 1.000000e+001 0.000000e+000 0.000000e+000
      endloop
   endfacet
   facet normal 1.000000e+000 0.000000e+000 0.000000e+000
      outer loop
         vertex 1.000000e+001 0.000000e+000 0.000000e+000
         vertex 1.000000e+001 1.000000e+001 1.000000e+001
         vertex 1.000000e+001 0.000000e+000 1.000000e+001
      endloop
   endfacet
   facet normal 0.000000e+000 0.000000e+000 -1.000000e+000
      outer loop
         vertex 0.000000e+000 1.000000e+001 0.000000e+000
         vertex 1.000000e+001 1.000000e+001 0.000000e+000
         vertex 0.000000e+000 0.000000e+000 0.000000e+000
      endloop
   endfacet
   facet normal 0.000000e+000 0.000000e+000 -1.000000e+000
      outer loop
         vertex 0.000000e+000 0.000000e+000 0.000000e+000
         vertex 1.000000e+001 1.000000e+001 0.000000e+000
         vertex 1.000000e+001 0.000000e+000 0.000000e+000
      endloop
   endfacet
   facet normal 0.000000e+000 1.000000e+000 0.000000e+000
      outer loop
         vertex 1.000000e+001 1.000000e+001 1.000000e+001
         vertex 1.000000e+001 1.000000e+001 0.000000e+000
         vertex 0.000000e+000 1.000000e+001 1.000000e+001
      endloop
   endfacet
   facet normal 0.000000e+000 1.000000e+000 0.000000e+000
      outer loop
         vertex 0.000000e+000 1.000000e+001 1.000000e+001
         vertex 1.000000e+001 1.000000e+001 0.000000e+000
         vertex 0.000000e+000 1.000000e+001 0.000000e+000
      endloop
   endfacet
   facet normal 0.000000e+000 -1.000000e+000 0.000000e+000
      outer loop
         vertex 1.000000e+001 0.000000e+000 0.000000e+000
         vertex 1.000000e+001 0.000000e+000 1.000000e+001
         vertex 0.000000e+000 0.000000e+000 0.000000e+000
      endloop
   endfacet
   facet normal 0.000000e+000 -1.000000e+000 0.000000e+000
      outer loop
         vertex 0.000000e+000 0.000000e+000 0.000000e+000
         vertex 1.000000e+001 0.000000e+000 1.000000e+001
         vertex 0.000000e+000 0.000000e+000 1.000000e+001
      endloop
   endfacet
   facet normal -9.985611e-001 5.362497e-002 0.000000e+000
      outer loop
         vertex 7.619884e+000 5.507009e+000 6.840735e+000
         vertex 7.652621e+000 5.912532e+000 1.000000e+001
         vertex 7.652621e+000 5.912532e+000 6.840735e+000
      endloop
   endfacet
   facet normal -9.985611e-001 -5.362497e-002 0.000000e+000
      outer loop
         vertex 7.652621e+000 5.912532e+000 6.840735e+000
         vertex 7.652621e+000 5.912532e+000 1.000000e+001
         vertex 7.619884e+000 6.318055e+000 1.000000e+001
      endloop
   endfacet
   facet normal -9.942321e-001 -1.072499e-001 0.000000e+000
      outer loop
         vertex 7.652621e+000 5.912532e+000 6.840735e+000
         vertex 7.619884e+000 6.318055e+000 1.000000e+001
         vertex 7.619884e+000 6.318055e+000 6.840735e+000
      endloop
   endfacet
   facet normal -9.770280e-001 -2.131110e-001 0.000000e+000
      outer loop
         vertex 7.619884e+000 6.318055e+000 6.840735e+000
         vertex 7.619884e+000 6.318055e+000 1.000000e+001
         vertex 7.522520e+000 6.713075e+000 1.000000e+001
      endloop
   endfacet
   facet normal -9.641529e-001 -2.653471e-001 0.000000e+000
      outer loop
         vertex 7.619884e+000 6.318055e+000 6.840735e+000
         vertex 7.522520e+000 6.713075e+000 1.000000e+001
         vertex 7.522520e+000 6.713075e+000 6.840735e+000
      endloop
   endfacet
   facet normal -9.301903e-001 -3.670776e-001 0.000000e+000
      outer loop
         vertex 7.522520e+000 6.713075e+000 6.840735e+000
         vertex 7.522520e+000 6.713075e+000 1.000000e+001
         vertex 7.363051e+000 7.087361e+000 1.000000e+001
      endloop
   endfacet
   facet normal -9.091028e-001 -4.165719e-001 0.000000e+000
      outer loop
         vertex 7.522520e+000 6.713075e+000 6.840735e+000
         vertex 7.363051e+000 7.087361e+000 1.000000e+001
         vertex 7.363051e+000 7.087361e+000 6.840735e+000
      endloop
   endfacet
   facet normal -8.592612e-001 -5.115370e-001 0.000000e+000
      outer loop
         vertex 7.363051e+000 7.087361e+000 6.840735e+000
         vertex 7.363051e+000 7.087361e+000 1.000000e+001
         vertex 7.145608e+000 7.431220e+000 1.000000e+001
      endloop
   endfacet
   facet normal -8.305073e-001 -5.570078e-001 0.000000e+000
      outer loop
         vertex 7.363051e+000 7.087361e+000 6.840735e+000
         vertex 7.145608e+000 7.431220e+000 1.000000e+001
         vertex 7.145608e+000 7.431220e+000 6.840735e+000
      endloop
   endfacet
   facet normal -7.660777e-001 -6.427480e-001 0.000000e+000
      outer loop
         vertex 7.145608e+000 7.431220e+000 6.840735e+000
         vertex 7.145608e+000 7.431220e+000 1.000000e+001
         vertex 6.875822e+000 7.735745e+000 1.000000e+001
      endloop
   endfacet
   facet normal -7.304021e-001 -6.830174e-001 0.000000e+000
      outer loop
         vertex 7.145608e+000 7.431220e+000 6.840735e+000
         vertex 6.875822e+000 7.735745e+000 1.000000e+001
         vertex 6.875822e+000 7.735745e+000 6.840735e+000
      endloop
   endfacet
   facet normal -6.530532e-001 -7.573121e-001 0.000000e+000
      outer loop
         vertex 6.875822e+000 7.735745e+000 6.840735e+000
         vertex 6.875822e+000 7.735745e+000 1.000000e+001
         vertex 6.560680e+000 7.993051e+000 1.000000e+001
      endloop
   endfacet
   facet normal -6.113799e-001 -7.913373e-001 0.000000e+000
      outer loop
         vertex 6.875822e+000 7.735745e+000 6.840735e+000
         vertex 6.560680e+000 7.993051e+000 1.000000e+001
         vertex 6.560680e+000 7.993051e+000 6.840735e+000
      endloop
   endfacet
   facet normal -5.231149e-001 -8.522622e-001 0.000000e+000
      outer loop
         vertex 6.560680e+000 7.993051e+000 6.840735e+000
         vertex 6.560680e+000 7.993051e+000 1.000000e+001
         vertex 6.208344e+000 8.196472e+000 1.000000e+001
      endloop
   endfacet
   facet normal -4.765233e-001 -8.791618e-001 0.000000e+000
      outer loop
         vertex 6.560680e+000 7.993051e+000 6.840735e+000
         vertex 6.208344e+000 8.196472e+000 1.000000e+001
         vertex 6.208344e+000 8.196472e+000 6.840735e+000
      endloop
   endfacet
   facet normal -3.796283e-001 -9.251391e-001 0.000000e+000
      outer loop
         vertex 6.208344e+000 8.196472e+000 6.840735e+000
         vertex 6.208344e+000 8.196472e+000 1.000000e+001
         vertex 5.827940e+000 8.340740e+000 1.000000e+001
      endloop
   endfacet
   facet normal -3.293249e-001 -9.442167e-001 0.000000e+000
      outer loop
         vertex 6.208344e+000 8.196472e+000 6.840735e+000
         vertex 5.827940e+000 8.340740e+000 1.000000e+001
         vertex 5.827940e+000 8.340740e+000 6.840735e+000
      endloop
   endfacet
   facet normal -2.263094e-001 -9.740555e-001 0.000000e+000
      outer loop
         vertex 5.827940e+000 8.340740e+000 6.840735e+000
         vertex 5.827940e+000 8.340740e+000 1.000000e+001
         vertex 5.429320e+000 8.422119e+000 1.000000e+001
      endloop
   endfacet
   facet normal -1.735972e-001 -9.848167e-001 0.000000e+000
      outer loop
         vertex 5.827940e+000 8.340740e+000 6.840735e+000
         vertex 5.429320e+000 8.422119e+000 1.000000e+001
         vertex 5.429320e+000 8.422119e+000 6.840735e+000
      endloop
   endfacet
   facet normal -6.712926e-002 -9.977443e-001 0.000000e+000
      outer loop
         vertex 5.429320e+000 8.422119e+000 6.840735e+000
         vertex 5.429320e+000 8.422119e+000 1.000000e+001
         vertex 5.022808e+000 8.438501e+000 1.000000e+001
      endloop
   endfacet
   facet normal -1.337347e-002 -9.999106e-001 0.000000e+000
      outer loop
         vertex 5.429320e+000 8.422119e+000 6.840735e+000
         vertex 5.022808e+000 8.438501e+000 1.000000e+001
         vertex 5.022808e+000 8.438501e+000 6.840735e+000
      endloop
   endfacet
   facet normal 9.378947e-002 -9.955921e-001 0.000000e+000
      outer loop
         vertex 5.022808e+000 8.438501e+000 6.840735e+000
         vertex 5.022808e+000 8.438501e+000 1.000000e+001
         vertex 4.618932e+000 8.389462e+000 1.000000e+001
      endloop
   endfacet
   facet normal 1.471967e-001 -9.891073e-001 0.000000e+000
      outer loop
         vertex 5.022808e+000 8.438501e+000 6.840735e+000
         vertex 4.618932e+000 8.389462e+000 1.000000e+001
         vertex 4.618932e+000 8.389462e+000 6.840735e+000
      endloop
   endfacet
   facet normal 2.522791e-001 -9.676545e-001 0.000000e+000
      outer loop
         vertex 4.618932e+000 8.389462e+000 6.840735e+000
         vertex 4.618932e+000 8.389462e+000 1.000000e+001
         vertex 4.228153e+000 8.276271e+000 1.000000e+001
      endloop
   endfacet
   facet normal 3.039545e-001 -9.526865e-001 0.000000e+000
      outer loop
         vertex 4.618932e+000 8.389462e+000 6.840735e+000
         vertex 4.228153e+000 8.276271e+000 1.000000e+001
         vertex 4.228153e+000 8.276271e+000 6.840735e+000
      endloop
   endfacet
   facet normal 4.042349e-001 -9.146552e-001 0.000000e+000
      outer loop
         vertex 4.228153e+000 8.276271e+000 6.840735e+000
         vertex 4.228153e+000 8.276271e+000 1.000000e+001
         vertex 3.860591e+000 8.101861e+000 1.000000e+001
      endloop
   endfacet
   facet normal 4.528400e-001 -8.915918e-001 0.000000e+000
      outer loop
         vertex 4.228153e+000 8.276271e+000 6.840735e+000
         vertex 3.860591e+000 8.101861e+000 1.000000e+001
         vertex 3.860591e+000 8.101861e+000 6.840735e+000
      endloop
   endfacet
   facet normal 5.457212e-001 -8.379669e-001 0.000000e+000
      outer loop
         vertex 3.860591e+000 8.101861e+000 6.840735e+000
         vertex 3.860591e+000 8.101861e+000 1.000000e+001
         vertex 3.525767e+000 7.870749e+000 1.000000e+001
      endloop
   endfacet
   facet normal 5.899972e-001 -8.074053e-001 0.000000e+000
      outer loop
         vertex 3.860591e+000 8.101861e+000 6.840735e+000
         vertex 3.525767e+000 7.870749e+000 1.000000e+001
         vertex 3.525767e+000 7.870749e+000 6.840735e+000
      endloop
   endfacet
   facet normal 6.730735e-001 -7.395756e-001 0.000000e+000
      outer loop
         vertex 3.525767e+000 7.870749e+000 6.840735e+000
         vertex 3.525767e+000 7.870749e+000 1.000000e+001
         vertex 3.232351e+000 7.588919e+000 1.000000e+001
      endloop
   endfacet
   facet normal 7.118738e-001 -7.023074e-001 0.000000e+000
      outer loop
         vertex 3.525767e+000 7.870749e+000 6.840735e+000
         vertex 3.232351e+000 7.588919e+000 1.000000e+001
         vertex 3.232351e+000 7.588919e+000 6.840735e+000
      endloop
   endfacet
   facet normal 7.829937e-001 -6.220297e-001 0.000000e+000
      outer loop
         vertex 3.232351e+000 7.588919e+000 6.840735e+000
         vertex 3.232351e+000 7.588919e+000 1.000000e+001
         vertex 2.987944e+000 7.263671e+000 1.000000e+001
      endloop
   endfacet
   facet normal 8.153133e-001 -5.790201e-001 0.000000e+000
      outer loop
         vertex 3.232351e+000 7.588919e+000 6.840735e+000
         vertex 2.987944e+000 7.263671e+000 1.000000e+001
         vertex 2.987944e+000 7.263671e+000 6.840735e+000
      endloop
   endfacet
   facet normal 8.726347e-001 -4.883735e-001 0.000000e+000
      outer loop
         vertex 2.987944e+000 7.263671e+000 6.840735e+000
         vertex 2.987944e+000 7.263671e+000 1.000000e+001
         vertex 2.798875e+000 6.903431e+000 1.000000e+001
      endloop
   endfacet
   facet normal 8.976365e-001 -4.407364e-001 0.000000e+000
      outer loop
         vertex 2.987944e+000 7.263671e+000 6.840735e+000
         vertex 2.798875e+000 6.903431e+000 1.000000e+001
         vertex 2.798875e+000 6.903431e+000 6.840735e+000
      endloop
   endfacet
   facet normal 9.396749e-001 -3.420688e-001 0.000000e+000
      outer loop
         vertex 2.798875e+000 6.903431e+000 6.840735e+000
         vertex 2.798875e+000 6.903431e+000 1.000000e+001
         vertex 2.670041e+000 6.517526e+000 1.000000e+001
      endloop
   endfacet
   facet normal 9.567115e-001 -2.910380e-001 0.000000e+000
      outer loop
         vertex 2.798875e+000 6.903431e+000 6.840735e+000
         vertex 2.670041e+000 6.517526e+000 1.000000e+001
         vertex 2.670041e+000 6.517526e+000 6.840735e+000
      endloop
   endfacet
   facet normal 9.823781e-001 -1.869046e-001 0.000000e+000
      outer loop
         vertex 2.670041e+000 6.517526e+000 6.840735e+000
         vertex 2.670041e+000 6.517526e+000 1.000000e+001
         vertex 2.604779e+000 6.115953e+000 1.000000e+001
      endloop
   endfacet
   facet normal 9.910081e-001 -1.338019e-001 0.000000e+000
      outer loop
         vertex 2.670041e+000 6.517526e+000 6.840735e+000
         vertex 2.604779e+000 6.115953e+000 1.000000e+001
         vertex 2.604779e+000 6.115953e+000 6.840735e+000
      endloop
   endfacet
   facet normal 9.996382e-001 -2.689971e-002 0.000000e+000
      outer loop
         vertex 2.604779e+000 6.115953e+000 6.840735e+000
         vertex 2.604779e+000 6.115953e+000 1.000000e+001
         vertex 2.604779e+000 5.709111e+000 1.000000e+001
      endloop
   endfacet
   facet normal 9.996382e-001 2.689971e-002 0.000000e+000
      outer loop
         vertex 2.604779e+000 6.115953e+000 6.840735e+000
         vertex 2.604779e+000 5.709111e+000 1.000000e+001
         vertex 2.604779e+000 5.709111e+000 6.840735e+000
      endloop
   endfacet
   facet normal 9.910081e-001 1.338019e-001 0.000000e+000
      outer loop
         vertex 2.604779e+000 5.709111e+000 6.840735e+000
         vertex 2.604779e+000 5.709111e+000 1.000000e+001
         vertex 2.670041e+000 5.307537e+000 1.000000e+001
      endloop
   endfacet
   facet normal 9.823781e-001 1.869046e-001 0.000000e+000
      outer loop
         vertex 2.604779e+000 5.709111e+000 6.840735e+000
         vertex 2.670041e+000 5.307537e+000 1.000000e+001
         vertex 2.670041e+000 5.307537e+000 6.840735e+000
      endloop
   endfacet
   facet normal 9.567115e-001 2.910380e-001 0.000000e+000
      outer loop
         vertex 2.670041e+000 5.307537e+000 6.840735e+000
         vertex 2.670041e+000 5.307537e+000 1.000000e+001
         vertex 2.798875e+000 4.921632e+000 1.000000e+001
      endloop
   endfacet
   facet normal 9.396749e-001 3.420688e-001 0.000000e+000
      outer loop
         vertex 2.670041e+000 5.307537e+000 6.840735e+000
         vertex 2.798875e+000 4.921632e+000 1.000000e+001
         vertex 2.798875e+000 4.921632e+000 6.840735e+000
      endloop
   endfacet
   facet normal 8.976365e-001 4.407365e-001 0.000000e+000
      outer loop
         vertex 2.798875e+000 4.921632e+000 6.840735e+000
         vertex 2.798875e+000 4.921632e+000 1.000000e+001
         vertex 2.987944e+000 4.561392e+000 1.000000e+001
      endloop
   endfacet
   facet normal 8.726347e-001 4.883736e-001 0.000000e+000
      outer loop
         vertex 2.798875e+000 4.921632e+000 6.840735e+000
         vertex 2.987944e+000 4.561392e+000 1.000000e+001
         vertex 2.987944e+000 4.561392e+000 6.840735e+000
      endloop
   endfacet
   facet normal 8.153133e-001 5.790201e-001 0.000000e+000
      outer loop
         vertex 2.987944e+000 4.561392e+000 6.840735e+000
         vertex 2.987944e+000 4.561392e+000 1.000000e+001
         vertex 3.232351e+000 4.236145e+000 1.000000e+001
      endloop
   endfacet
   facet normal 7.829937e-001 6.220297e-001 0.000000e+000
      outer loop
         vertex 2.987944e+000 4.561392e+000 6.840735e+000
         vertex 3.232351e+000 4.236145e+000 1.000000e+001
         vertex 3.232351e+000 4.236145e+000 6.840735e+000
      endloop
   endfacet
   facet normal 7.118738e-001 7.023074e-001 0.000000e+000
      outer loop
         vertex 3.232351e+000 4.236145e+000 6.840735e+000
         vertex 3.232351e+000 4.236145e+000 1.000000e+001
         vertex 3.525767e+000 3.954315e+000 1.000000e+001
      endloop
   endfacet
   facet normal 6.730735e-001 7.395756e-001 0.000000e+000
      outer loop
         vertex 3.232351e+000 4.236145e+000 6.840735e+000
         vertex 3.525767e+000 3.954315e+000 1.000000e+001
         vertex 3.525767e+000 3.954315e+000 6.840735e+000
      endloop
   endfacet
   facet normal 5.899972e-001 8.074053e-001 0.000000e+000
      outer loop
         vertex 3.525767e+000 3.954315e+000 6.840735e+000
         vertex 3.525767e+000 3.954315e+000 1.000000e+001
         vertex 3.860591e+000 3.723202e+000 1.000000e+001
      endloop
   endfacet
   facet normal 5.457212e-001 8.379669e-001 0.000000e+000
      outer loop
         vertex 3.525767e+000 3.954315e+000 6.840735e+000
         vertex 3.860591e+000 3.723202e+000 1.000000e+001
         vertex 3.860591e+000 3.723202e+000 6.840735e+000
      endloop
   endfacet
   facet normal 4.528400e-001 8.915918e-001 0.000000e+000
      outer loop
         vertex 3.860591e+000 3.723202e+000 6.840735e+000
         vertex 3.860591e+000 3.723202e+000 1.000000e+001
         vertex 4.228153e+000 3.548792e+000 1.000000e+001
      endloop
   endfacet
   facet normal 4.042349e-001 9.146552e-001 0.000000e+000
      outer loop
         vertex 3.860591e+000 3.723202e+000 6.840735e+000
         vertex 4.228153e+000 3.548792e+000 1.000000e+001
         vertex 4.228153e+000 3.548792e+000 6.840735e+000
      endloop
   endfacet
   facet normal 3.039545e-001 9.526865e-001 0.000000e+000
      outer loop
         vertex 4.228153e+000 3.548792e+000 6.840735e+000
         vertex 4.228153e+000 3.548792e+000 1.000000e+001
         vertex 4.618932e+000 3.435602e+000 1.000000e+001
      endloop
   endfacet
   facet normal 2.522791e-001 9.676545e-001 0.000000e+000
      outer loop
         vertex 4.228153e+000 3.548792e+000 6.840735e+000
         vertex 4.618932e+000 3.435602e+000 1.000000e+001
         vertex 4.618932e+000 3.435602e+000 6.840735e+000
      endloop
   endfacet
   facet normal 1.471967e-001 9.891073e-001 0.000000e+000
      outer loop
         vertex 4.618932e+000 3.435602e+000 6.840735e+000
         vertex 4.618932e+000 3.435602e+000 1.000000e+001
         vertex 5.022808e+000 3.386562e+000 1.000000e+001
      endloop
   endfacet
   facet normal 9.378949e-002 9.955921e-001 0.000000e+000
      outer loop
         vertex 4.618932e+000 3.435602e+000 6.840735e+000
         vertex 5.022808e+000 3.386562e+000 1.000000e+001
         vertex 5.022808e+000 3.386562e+000 6.840735e+000
      endloop
   endfacet
   facet normal -1.337347e-002 9.999106e-001 0.000000e+000
      outer loop
         vertex 5.022808e+000 3.386562e+000 6.840735e+000
         vertex 5.022808e+000 3.386562e+000 1.000000e+001
         vertex 5.429320e+000 3.402944e+000 1.000000e+001
      endloop
   endfacet
   facet normal -6.712926e-002 9.977443e-001 0.000000e+000
      outer loop
         vertex 5.022808e+000 3.386562e+000 6.840735e+000
         vertex 5.429320e+000 3.402944e+000 1.000000e+001
         vertex 5.429320e+000 3.402944e+000 6.840735e+000
      endloop
   endfacet
   facet normal -1.735972e-001 9.848167e-001 0.000000e+000
      outer loop
         vertex 5.429320e+000 3.402944e+000 6.840735e+000
         vertex 5.429320e+000 3.402944e+000 1.000000e+001
         vertex 5.827940e+000 3.484323e+000 1.000000e+001
      endloop
   endfacet
   facet normal -2.263094e-001 9.740555e-001 0.000000e+000
      outer loop
         vertex 5.429320e+000 3.402944e+000 6.840735e+000
         vertex 5.827940e+000 3.484323e+000 1.000000e+001
         vertex 5.827940e+000 3.484323e+000 6.840735e+000
      endloop
   endfacet
   facet normal -3.293249e-001 9.442167e-001 0.000000e+000
      outer loop
         vertex 5.827940e+000 3.484323e+000 6.840735e+000
         vertex 5.827940e+000 3.484323e+000 1.000000e+001
         vertex 6.208344e+000 3.628591e+000 1.000000e+001
      endloop
   endfacet
   facet normal -3.796282e-001 9.251391e-001 0.000000e+000
      outer loop
         vertex 5.827940e+000 3.484323e+000 6.840735e+000
         vertex 6.208344e+000 3.628591e+000 1.000000e+001
         vertex 6.208344e+000 3.628591e+000 6.840735e+000
      endloop
   endfacet
   facet normal -4.765233e-001 8.791618e-001 0.000000e+000
      outer loop
         vertex 6.208344e+000 3.628591e+000 6.840735e+000
         vertex 6.208344e+000 3.628591e+000 1.000000e+001
         vertex 6.560680e+000 3.832012e+000 1.000000e+001
      endloop
   endfacet
   facet normal -5.231149e-001 8.522622e-001 0.000000e+000
      outer loop
         vertex 6.208344e+000 3.628591e+000 6.840735e+000
         vertex 6.560680e+000 3.832012e+000 1.000000e+001
         vertex 6.560680e+000 3.832012e+000 6.840735e+000
      endloop
   endfacet
   facet normal -6.113799e-001 7.913373e-001 0.000000e+000
      outer loop
         vertex 6.560680e+000 3.832012e+000 6.840735e+000
         vertex 6.560680e+000 3.832012e+000 1.000000e+001
         vertex 6.875822e+000 4.089318e+000 1.000000e+001
      endloop
   endfacet
   facet normal -6.530532e-001 7.573121e-001 0.000000e+000
      outer loop
         vertex 6.560680e+000 3.832012e+000 6.840735e+000
         vertex 6.875822e+000 4.089318e+000 1.000000e+001
         vertex 6.875822e+000 4.089318e+000 6.840735e+000
      endloop
   endfacet
   facet normal -7.304021e-001 6.830174e-001 0.000000e+000
      outer loop
         vertex 6.875822e+000 4.089318e+000 6.840735e+000
         vertex 6.875822e+000 4.089318e+000 1.000000e+001
         vertex 7.145608e+000 4.393844e+000 1.000000e+001
      endloop
   endfacet
   facet normal -7.660777e-001 6.427480e-001 0.000000e+000
      outer loop
         vertex 6.875822e+000 4.089318e+000 6.840735e+000
         vertex 7.145608e+000 4.393844e+000 1.000000e+001
         vertex 7.145608e+000 4.393844e+000 6.840735e+000
      endloop
   endfacet
   facet normal -8.305073e-001 5.570078e-001 0.000000e+000
      outer loop
         vertex 7.145608e+000 4.393844e+000 6.840735e+000
         vertex 7.145608e+000 4.393844e+000 1.000000e+001
         vertex 7.363051e+000 4.737703e+000 1.000000e+001
      endloop
   endfacet
   facet normal -8.592612e-001 5.115370e-001 0.000000e+000
      outer loop
         vertex 7.145608e+000 4.393844e+000 6.840735e+000
         vertex 7.363051e+000 4.737703e+000 1.000000e+001
         vertex 7.363051e+000 4.737703e+000 6.840735e+000
      endloop
   endfacet
   facet normal -9.091027e-001 4.165719e-001 0.000000e+000
      outer loop
         vertex 7.363051e+000 4.737703e+000 6.840735e+000
         vertex 7.363051e+000 4.737703e+000 1.000000e+001
         vertex 7.522520e+000 5.111989e+000 1.000000e+001
      endloop
   endfacet
   facet normal -9.301903e-001 3.670776e-001 0.000000e+000
      outer loop
         vertex 7.363051e+000 4.737703e+000 6.840735e+000
         vertex 7.522520e+000 5.111989e+000 1.000000e+001
         vertex 7.522520e+000 5.111989e+000 6.840735e+000
      endloop
   endfacet
   facet normal -9.641529e-001 2.653471e-001 0.000000e+000
      outer loop
         vertex 7.522520e+000 5.111989e+000 6.840735e+000
         vertex 7.522520e+000 5.111989e+000 1.000000e+001
         vertex 7.619884e+000 5.507009e+000 1.000000e+001
      endloop
   endfacet
   facet normal -9.770280e-001 2.131110e-001 0.000000e+000
      outer loop
         vertex 7.522520e+000 5.111989e+000 6.840735e+000
         vertex 7.619884e+000 5.507009e+000 1.000000e+001
         vertex 7.619884e+000 5.507009e+000 6.840735e+000
      endloop
   endfacet
   facet normal -9.942321e-001 1.072499e-001 0.000000e+000
      outer loop
         vertex 7.619884e+000 5.507009e+000 6.840735e+000
         vertex 7.619884e+000 5.507009e+000 1.000000e+001
         vertex 7.652621e+000 5.912532e+000 1.000000e+001
      endloop
   endfacet
   facet normal 0.000000e+000 0.000000e+000 1.000000e+000
      outer loop
         vertex 5.827940e+000 8.340740e+000 6.840735e+000
         vertex 5.429320e+000 8.422119e+000 6.840735e+000
         vertex 3.860591e+000 3.723202e+000 6.840735e+000
      endloop
   endfacet
   facet normal 0.000000e+000 0.000000e+000 1.000000e+000
      outer loop
         vertex 4.618932e+000 3.435602e+000 6.840735e+000
         vertex 5.022808e+000 3.386562e+000 6.840735e+000
         vertex 7.522520e+000 5.111989e+000 6.840735e+000
      endloop
   endfacet
   facet normal 0.000000e+000 0.000000e+000 1.000000e+000
      outer loop
         vertex 4.618932e+000 3.435602e+000 6.840735e+000
         vertex 7.522520e+000 5.111989e+000 6.840735e+000
         vertex 4.228153e+000 3.548792e+000 6.840735e+000
      endloop
   endfacet
   facet normal 0.000000e+000 0.000000e+000 1.000000e+000
      outer loop
         vertex 5.022808e+000 3.386562e+000 6.840735e+000
         vertex 5.429320e+000 3.402944e+000 6.840735e+000
         vertex 7.522520e+000 5.111989e+000 6.840735e+000
      endloop
   endfacet
   facet normal 0.000000e+000 0.000000e+000 1.000000e+000
      outer loop
         vertex 7.522520e+000 5.111989e+000 6.840735e+000
         vertex 5.429320e+000 3.402944e+000 6.840735e+000
         vertex 5.827940e+000 3.484323e+000 6.840735e+000
      endloop
   endfacet
   facet normal 0.000000e+000 0.000000e+000 1.000000e+000
      outer loop
         vertex 7.522520e+000 5.111989e+000 6.840735e+000
         vertex 5.827940e+000 3.484323e+000 6.840735e+000
         vertex 6.208344e+000 3.628591e+000 6.840735e+000
      endloop
   endfacet
   facet normal 0.000000e+000 0.000000e+000 1.000000e+000
      outer loop
         vertex 7.652621e+000 5.912532e+000 6.840735e+000
         vertex 7.619884e+000 6.318055e+000 6.840735e+000
         vertex 3.860591e+000 3.723202e+000 6.840735e+000
      endloop
   endfacet
   facet normal 0.000000e+000 0.000000e+000 1.000000e+000
      outer loop
         vertex 3.860591e+000 3.723202e+000 6.840735e+000
         vertex 7.619884e+000 6.318055e+000 6.840735e+000
         vertex 7.522520e+000 6.713075e+000 6.840735e+000
      endloop
   endfacet
   facet normal 0.000000e+000 0.000000e+000 1.000000e+000
      outer loop
         vertex 7.522520e+000 6.713075e+000 6.840735e+000
         vertex 7.363051e+000 7.087361e+000 6.840735e+000
         vertex 3.860591e+000 3.723202e+000 6.840735e+000
      endloop
   endfacet
   facet normal 0.000000e+000 0.000000e+000 1.000000e+000
      outer loop
         vertex 3.860591e+000 3.723202e+000 6.840735e+000
         vertex 7.363051e+000 7.087361e+000 6.840735e+000
         vertex 7.145608e+000 7.431220e+000 6.840735e+000
      endloop
   endfacet
   facet normal 0.000000e+000 0.000000e+000 1.000000e+000
      outer loop
         vertex 3.860591e+000 3.723202e+000 6.840735e+000
         vertex 7.145608e+000 7.431220e+000 6.840735e+000
         vertex 6.875822e+000 7.735745e+000 6.840735e+000
      endloop
   endfacet
   facet normal 0.000000e+000 0.000000e+000 1.000000e+000
      outer loop
         vertex 6.875822e+000 7.735745e+000 6.840735e+000
         vertex 6.560680e+000 7.993051e+000 6.840735e+000
         vertex 3.860591e+000 3.723202e+000 6.840735e+000
      endloop
   endfacet
   facet normal 0.000000e+000 0.000000e+000 1.000000e+000
      outer loop
         vertex 3.860591e+000 3.723202e+000 6.840735e+000
         vertex 6.560680e+000 7.993051e+000 6.840735e+000
         vertex 6.208344e+000 8.196472e+000 6.840735e+000
      endloop
   endfacet
   facet normal 0.000000e+000 0.000000e+000 1.000000e+000
      outer loop
         vertex 3.860591e+000 3.723202e+000 6.840735e+000
         vertex 6.208344e+000 8.196472e+000 6.840735e+000
         vertex 5.827940e+000 8.340740e+000 6.840735e+000
      endloop
   endfacet
   facet normal 0.000000e+000 0.000000e+000 1.000000e+000
      outer loop
         vertex 5.429320e+000 8.422119e+000 6.840735e+000
         vertex 5.022808e+000 8.438501e+000 6.840735e+000
         vertex 3.860591e+000 3.723202e+000 6.840735e+000
      endloop
   endfacet
   facet normal 0.000000e+000 0.000000e+000 1.000000e+000
      outer loop
         vertex 3.860591e+000 3.723202e+000 6.840735e+000
         vertex 5.022808e+000 8.438501e+000 6.840735e+000
         vertex 4.618932e+000 8.389462e+000 6.840735e+000
      endloop
   endfacet
   facet normal 0.000000e+000 0.000000e+000 1.000000e+000
      outer loop
         vertex 3.860591e+000 3.723202e+000 6.840735e+000
         vertex 4.618932e+000 8.389462e+000 6.840735e+000
         vertex 4.228153e+000 8.276271e+000 6.840735e+000
      endloop
   endfacet
   facet normal 0.000000e+000 0.000000e+000 1.000000e+000
      outer loop
         vertex 4.228153e+000 8.276271e+000 6.840735e+000
         vertex 3.860591e+000 8.101861e+000 6.840735e+000
         vertex 3.860591e+000 3.723202e+000 6.840735e+000
      endloop
   endfacet
   facet normal 0.000000e+000 0.000000e+000 1.000000e+000
      outer loop
         vertex 3.860591e+000 3.723202e+000 6.840735e+000
         vertex 3.860591e+000 8.101861e+000 6.840735e+000
         vertex 3.525767e+000 7.870749e+000 6.840735e+000
      endloop
   endfacet
   facet normal 0.000000e+000 0.000000e+000 1.000000e+000
      outer loop
         vertex 3.860591e+000 3.723202e+000 6.840735e+000
         vertex 3.525767e+000 7.870749e+000 6.840735e+000
         vertex 3.232351e+000 7.588919e+000 6.840735e+000
      endloop
   endfacet
   facet normal 0.000000e+000 0.000000e+000 1.000000e+000
      outer loop
         vertex 7.145608e+000 4.393844e+000 6.840735e+000
         vertex 7.363051e+000 4.737703e+000 6.840735e+000
         vertex 6.875822e+000 4.089318e+000 6.840735e+000
      endloop
   endfacet
   facet normal 0.000000e+000 0.000000e+000 1.000000e+000
      outer loop
         vertex 6.875822e+000 4.089318e+000 6.840735e+000
         vertex 7.363051e+000 4.737703e+000 6.840735e+000
         vertex 7.522520e+000 5.111989e+000 6.840735e+000
      endloop
   endfacet
   facet normal 0.000000e+000 0.000000e+000 1.000000e+000
      outer loop
         vertex 6.875822e+000 4.089318e+000 6.840735e+000
         vertex 7.522520e+000 5.111989e+000 6.840735e+000
         vertex 6.560680e+000 3.832012e+000 6.840735e+000
      endloop
   endfacet
   facet normal 0.000000e+000 0.000000e+000 1.000000e+000
      outer loop
         vertex 6.560680e+000 3.832012e+000 6.840735e+000
         vertex 7.522520e+000 5.111989e+000 6.840735e+000
         vertex 6.208344e+000 3.628591e+000 6.840735e+000
      endloop
   endfacet
   facet normal 0.000000e+000 0.000000e+000 1.000000e+000
      outer loop
         vertex 4.228153e+000 3.548792e+000 6.840735e+000
         vertex 7.522520e+000 5.111989e+000 6.840735e+000
         vertex 3.860591e+000 3.723202e+000 6.840735e+000
      endloop
   endfacet
   facet normal 0.000000e+000 0.000000e+000 1.000000e+000
      outer loop
         vertex 3.860591e+000 3.723202e+000 6.840735e+000
         vertex 7.522520e+000 5.111989e+000 6.840735e+000
         vertex 7.619884e+000 5.507009e+000 6.840735e+000
      endloop
   endfacet
   facet normal 0.000000e+000 0.000000e+000 1.000000e+000
      outer loop
         vertex 3.860591e+000 3.723202e+000 6.840735e+000
         vertex 7.619884e+000 5.507009e+000 6.840735e+000
         vertex 7.652621e+000 5.912532e+000 6.840735e+000
      endloop
   endfacet
   facet normal 0.000000e+000 0.000000e+000 1.000000e+000
      outer loop
         vertex 3.232351e+000 7.588919e+000 6.840735e+000
         vertex 2.987944e+000 7.263671e+000 6.840735e+000
         vertex 3.860591e+000 3.723202e+000 6.840735e+000
      endloop
   endfacet
   facet normal 0.000000e+000 0.000000e+000 1.000000e+000
      outer loop
         vertex 3.860591e+000 3.723202e+000 6.840735e+000
         vertex 2.987944e+000 7.263671e+000 6.840735e+000
         vertex 2.798875e+000 6.903431e+000 6.840735e+000
      endloop
   endfacet
   facet normal 0.000000e+000 0.000000e+000 1.000000e+000
      outer loop
         vertex 3.860591e+000 3.723202e+000 6.840735e+000
         vertex 2.798875e+000 6.903431e+000 6.840735e+000
         vertex 2.670041e+000 6.517526e+000 6.840735e+000
      endloop
   endfacet
   facet normal 0.000000e+000 0.000000e+000 1.000000e+000
      outer loop
         vertex 2.987944e+000 4.561392e+000 6.840735e+000
         vertex 2.670041e+000 6.517526e+000 6.840735e+000
         vertex 2.604779e+000 6.115953e+000 6.840735e+000
      endloop
   endfacet
   facet normal 0.000000e+000 0.000000e+000 1.000000e+000
      outer loop
         vertex 2.987944e+000 4.561392e+000 6.840735e+000
         vertex 3.232351e+000 4.236145e+000 6.840735e+000
         vertex 2.670041e+000 6.517526e+000 6.840735e+000
      endloop
   endfacet
   facet normal 0.000000e+000 0.000000e+000 1.000000e+000
      outer loop
         vertex 2.670041e+000 6.517526e+000 6.840735e+000
         vertex 3.232351e+000 4.236145e+000 6.840735e+000
         vertex 3.525767e+000 3.954315e+000 6.840735e+000
      endloop
   endfacet
   facet normal 0.000000e+000 0.000000e+000 1.000000e+000
      outer loop
         vertex 2.670041e+000 6.517526e+000 6.840735e+000
         vertex 3.525767e+000 3.954315e+000 6.840735e+000
         vertex 3.860591e+000 3.723202e+000 6.840735e+000
      endloop
   endfacet
   facet normal 0.000000e+000 0.000000e+000 1.000000e+000
      outer loop
         vertex 2.604779e+000 6.115953e+000 6.840735e+000
         vertex 2.604779e+000 5.709111e+000 6.840735e+000
         vertex 2.987944e+000 4.561392e+000 6.840735e+000
      endloop
   endfacet
   facet normal 0.000000e+000 0.000000e+000 1.000000e+000
      outer loop
         vertex 2.987944e+000 4.561392e+000 6.840735e+000
         vertex 2.604779e+000 5.709111e+000 6.840735e+000
         vertex 2.670041e+000 5.307537e+000 6.840735e+000
      endloop
   endfacet
   facet normal 0.000000e+000 0.000000e+000 1.000000e+000
      outer loop
         vertex 2.987944e+000 4.561392e+000 6.840735e+000
         vertex 2.670041e+000 5.307537e+000 6.840735e+000
         vertex 2.798875e+000 4.921632e+000 6.840735e+000
      endloop
   endfacet
endsolid