solid 2_720
   facet normal -1.000000e+000 0.000000e+000 0.000000e+000
      outer loop
         vertex 0.000000e+000 1.000000e+001 1.000000e+001
         vertex 0.000000e+000 1.000000e+001 0.000000e+000
         vertex 0.000000e+000 0.000000e+000 1.000000e+001
      endloop
   endfacet
   facet normal -1.000000e+000 0.000000e+000 0.000000e+000
      outer loop
         vertex 0.000000e+000 0.000000e+000 1.000000e+001
         vertex 0.000000e+000 1.000000e+001 0.000000e+000
         vertex 0.000000e+000 0.000000e+000 0.000000e+000
      endloop
   endfacet
   facet normal 0.000000e+000 0.000000e+000 1.000000e+000
      outer loop
         vertex 1.000000e+001 0.000000e+000 1.000000e+001
         vertex 5.577511e+000 3.553475e+000 1.000000e+001
         vertex 5.544487e+000 3.154936e+000 1.000000e+001
      endloop
   endfacet
   facet normal 0.000000e+000 0.000000e+000 1.000000e+000
      outer loop
         vertex 5.544487e+000 3.154936e+000 1.000000e+001
         vertex 5.446316e+000 2.767268e+000 1.000000e+001
         vertex 1.000000e+001 0.000000e+000 1.000000e+001
      endloop
   endfacet
   facet normal 0.000000e+000 0.000000e+000 1.000000e+000
      outer loop
         vertex 1.000000e+001 0.000000e+000 1.000000e+001
         vertex 5.446316e+000 2.767268e+000 1.000000e+001
         vertex 5.285676e+000 2.401045e+000 1.000000e+001
      endloop
   endfacet
   facet normal 0.000000e+000 0.000000e+000 1.000000e+000
      outer loop
         vertex 1.000000e+001 0.000000e+000 1.000000e+001
         vertex 5.285676e+000 2.401045e+000 1.000000e+001
         vertex 5.066949e+000 2.066258e+000 1.000000e+001
      endloop
   endfacet
   facet normal 0.000000e+000 0.000000e+000 1.000000e+000
      outer loop
         vertex 5.066949e+000 2.066258e+000 1.000000e+001
         vertex 4.796100e+000 1.772039e+000 1.000000e+001
         vertex 1.000000e+001 0.000000e+000 1.000000e+001
      endloop
   endfacet
   facet normal 0.000000e+000 0.000000e+000 1.000000e+000
      outer loop
         vertex 1.000000e+001 0.000000e+000 1.000000e+001
         vertex 4.796100e+000 1.772039e+000 1.000000e+001
         vertex 4.480519e+000 1.526412e+000 1.000000e+001
      endloop
   endfacet
   facet normal 0.000000e+000 0.000000e+000 1.000000e+000
      outer loop
         vertex 1.000000e+001 0.000000e+000 1.000000e+001
         vertex 4.480519e+000 1.526412e+000 1.000000e+001
         vertex 4.128813e+000 1.336078e+000 1.000000e+001
      endloop
   endfacet
   facet normal 0.000000e+000 0.000000e+000 1.000000e+000
      outer loop
         vertex 4.128813e+000 1.336078e+000 1.000000e+001
         vertex 3.750576e+000 1.206229e+000 1.000000e+001
         vertex 1.000000e+001 0.000000e+000 1.000000e+001
      endloop
   endfacet
   facet normal 0.000000e+000 0.000000e+000 1.000000e+000
      outer loop
         vertex 1.000000e+001 0.000000e+000 1.000000e+001
         vertex 3.750576e+000 1.206229e+000 1.000000e+001
         vertex 3.356125e+000 1.140407e+000 1.000000e+001
      endloop
   endfacet
   facet normal 0.000000e+000 0.000000e+000 1.000000e+000
      outer loop
         vertex 1.000000e+001 0.000000e+000 1.000000e+001
         vertex 3.356125e+000 1.140407e+000 1.000000e+001
         vertex 0.000000e+000 0.000000e+000 1.000000e+001
      endloop
   endfacet
   facet normal 0.000000e+000 0.000000e+000 1.000000e+000
      outer loop
         vertex 0.000000e+000 0.000000e+000 1.000000e+001
         vertex 3.356125e+000 1.140407e+000 1.000000e+001
         vertex 2.956220e+000 1.140407e+000 1.000000e+001
      endloop
   endfacet
   facet normal 0.000000e+000 0.000000e+000 1.000000e+000
      outer loop
         vertex 0.000000e+000 0.000000e+000 1.000000e+001
         vertex 2.956220e+000 1.140407e+000 1.000000e+001
         vertex 2.561769e+000 1.206229e+000 1.000000e+001
      endloop
   endfacet
   facet normal 0.000000e+000 0.000000e+000 1.000000e+000
      outer loop
         vertex 2.561769e+000 1.206229e+000 1.000000e+001
         vertex 2.183532e+000 1.336078e+000 1.000000e+001
         vertex 0.000000e+000 0.000000e+000 1.000000e+001
      endloop
   endfacet
   facet normal 0.000000e+000 0.000000e+000 1.000000e+000
      outer loop
         vertex 0.000000e+000 0.000000e+000 1.000000e+001
         vertex 2.183532e+000 1.336078e+000 1.000000e+001
         vertex 1.831826e+000 1.526412e+000 1.000000e+001
      endloop
   endfacet
   facet normal 0.000000e+000 0.000000e+000 1.000000e+000
      outer loop
         vertex 0.000000e+000 0.000000e+000 1.000000e+001
         vertex 1.831826e+000 1.526412e+000 1.000000e+001
         vertex 1.516245e+000 1.772039e+000 1.000000e+001
      endloop
   endfacet
   facet normal 0.000000e+000 0.000000e+000 1.000000e+000
      outer loop
         vertex 4.128813e+000 5.770872e+000 1.000000e+001
         vertex 4.480519e+000 5.580538e+000 1.000000e+001
         vertex 1.000000e+001 1.000000e+001 1.000000e+001
      endloop
   endfacet
   facet normal 0.000000e+000 0.000000e+000 1.000000e+000
      outer loop
         vertex 1.000000e+001 1.000000e+001 1.000000e+001
         vertex 4.480519e+000 5.580538e+000 1.000000e+001
         vertex 4.796100e+000 5.334912e+000 1.000000e+001
      endloop
   endfacet
   facet normal 0.000000e+000 0.000000e+000 1.000000e+000
      outer loop
         vertex 5.577511e+000 3.553475e+000 1.000000e+001
         vertex 1.000000e+001 0.000000e+000 1.000000e+001
         vertex 5.544487e+000 3.952014e+000 1.000000e+001
      endloop
   endfacet
   facet normal 0.000000e+000 0.000000e+000 1.000000e+000
      outer loop
         vertex 5.544487e+000 3.952014e+000 1.000000e+001
         vertex 1.000000e+001 0.000000e+000 1.000000e+001
         vertex 1.000000e+001 1.000000e+001 1.000000e+001
      endloop
   endfacet
   facet normal 0.000000e+000 0.000000e+000 1.000000e+000
      outer loop
         vertex 5.544487e+000 3.952014e+000 1.000000e+001
         vertex 1.000000e+001 1.000000e+001 1.000000e+001
         vertex 5.446316e+000 4.339683e+000 1.000000e+001
      endloop
   endfacet
   facet normal 0.000000e+000 0.000000e+000 1.000000e+000
      outer loop
         vertex 1.516245e+000 1.772039e+000 1.000000e+001
         vertex 1.245396e+000 2.066258e+000 1.000000e+001
         vertex 0.000000e+000 0.000000e+000 1.000000e+001
      endloop
   endfacet
   facet normal 0.000000e+000 0.000000e+000 1.000000e+000
      outer loop
         vertex 0.000000e+000 0.000000e+000 1.000000e+001
         vertex 1.245396e+000 2.066258e+000 1.000000e+001
         vertex 1.026669e+000 2.401045e+000 1.000000e+001
      endloop
   endfacet
   facet normal 0.000000e+000 0.000000e+000 1.000000e+000
      outer loop
         vertex 0.000000e+000 0.000000e+000 1.000000e+001
         vertex 1.026669e+000 2.401045e+000 1.000000e+001
         vertex 8.660289e-001 2.767268e+000 1.000000e+001
      endloop
   endfacet
   facet normal 0.000000e+000 0.000000e+000 1.000000e+000
      outer loop
         vertex 2.561769e+000 5.900722e+000 1.000000e+001
         vertex 2.956220e+000 5.966544e+000 1.000000e+001
         vertex 0.000000e+000 1.000000e+001 1.000000e+001
      endloop
   endfacet
   facet normal 0.000000e+000 0.000000e+000 1.000000e+000
      outer loop
         vertex 0.000000e+000 1.000000e+001 1.000000e+001
         vertex 2.956220e+000 5.966544e+000 1.000000e+001
         vertex 3.356125e+000 5.966544e+000 1.000000e+001
      endloop
   endfacet
   facet normal 0.000000e+000 0.000000e+000 1.000000e+000
      outer loop
         vertex 0.000000e+000 1.000000e+001 1.000000e+001
         vertex 3.356125e+000 5.966544e+000 1.000000e+001
         vertex 1.000000e+001 1.000000e+001 1.000000e+001
      endloop
   endfacet
   facet normal 0.000000e+000 0.000000e+000 1.000000e+000
      outer loop
         vertex 1.000000e+001 1.000000e+001 1.000000e+001
         vertex 3.356125e+000 5.966544e+000 1.000000e+001
         vertex 3.750576e+000 5.900722e+000 1.000000e+001
      endloop
   endfacet
   facet normal 0.000000e+000 0.000000e+000 1.000000e+000
      outer loop
         vertex 1.000000e+001 1.000000e+001 1.000000e+001
         vertex 3.750576e+000 5.900722e+000 1.000000e+001
         vertex 4.128813e+000 5.770872e+000 1.000000e+001
      endloop
   endfacet
   facet normal 0.000000e+000 0.000000e+000 1.000000e+000
      outer loop
         vertex 4.796100e+000 5.334912e+000 1.000000e+001
         vertex 5.066949e+000 5.040692e+000 1.000000e+001
         vertex 1.000000e+001 1.000000e+001 1.000000e+001
      endloop
   endfacet
   facet normal 0.000000e+000 0.000000e+000 1.000000e+000
      outer loop
         vertex 1.000000e+001 1.000000e+001 1.000000e+001
         vertex 5.066949e+000 5.040692e+000 1.000000e+001
         vertex 5.285676e+000 4.705905e+000 1.000000e+001
      endloop
   endfacet
   facet normal 0.000000e+000 0.000000e+000 1.000000e+000
      outer loop
         vertex 1.000000e+001 1.000000e+001 1.000000e+001
         vertex 5.285676e+000 4.705905e+000 1.000000e+001
         vertex 5.446316e+000 4.339683e+000 1.000000e+001
      endloop
   endfacet
   facet normal 0.000000e+000 0.000000e+000 1.000000e+000
      outer loop
         vertex 8.660289e-001 4.339683e+000 1.000000e+001
         vertex 1.026669e+000 4.705905e+000 1.000000e+001
         vertex 0.000000e+000 1.000000e+001 1.000000e+001
      endloop
   endfacet
   facet normal 0.000000e+000 0.000000e+000 1.000000e+000
      outer loop
         vertex 0.000000e+000 1.000000e+001 1.000000e+001
         vertex 1.026669e+000 4.705905e+000 1.000000e+001
         vertex 1.245396e+000 5.040692e+000 1.000000e+001
      endloop
   endfacet
   facet normal 0.000000e+000 0.000000e+000 1.000000e+000
      outer loop
         vertex 0.000000e+000 1.000000e+001 1.000000e+001
         vertex 1.245396e+000 5.040692e+000 1.000000e+001
         vertex 1.516245e+000 5.334912e+000 1.000000e+001
      endloop
   endfacet
   facet normal 0.000000e+000 0.000000e+000 1.000000e+000
      outer loop
         vertex 1.516245e+000 5.334912e+000 1.000000e+001
         vertex 1.831826e+000 5.580538e+000 1.000000e+001
         vertex 0.000000e+000 1.000000e+001 1.000000e+001
      endloop
   endfacet
   facet normal 0.000000e+000 0.000000e+000 1.000000e+000
      outer loop
         vertex 0.000000e+000 1.000000e+001 1.000000e+001
         vertex 1.831826e+000 5.580538e+000 1.000000e+001
         vertex 2.183532e+000 5.770872e+000 1.000000e+001
      endloop
   endfacet
   facet normal 0.000000e+000 0.000000e+000 1.000000e+000
      outer loop
         vertex 0.000000e+000 1.000000e+001 1.000000e+001
         vertex 2.183532e+000 5.770872e+000 1.000000e+001
         vertex 2.561769e+000 5.900722e+000 1.000000e+001
      endloop
   endfacet
   facet normal 0.000000e+000 0.000000e+000 1.000000e+000
      outer loop
         vertex 8.660289e-001 2.767268e+000 1.000000e+001
         vertex 7.678580e-001 3.154936e+000 1.000000e+001
         vertex 0.000000e+000 0.000000e+000 1.000000e+001
      endloop
   endfacet
   facet normal 0.000000e+000 0.000000e+000 1.000000e+000
      outer loop
         vertex 0.000000e+000 0.000000e+000 1.000000e+001
         vertex 7.678580e-001 3.154936e+000 1.000000e+001
         vertex 7.348341e-001 3.553475e+000 1.000000e+001
      endloop
   endfacet
   facet normal 0.000000e+000 0.000000e+000 1.000000e+000
      outer loop
         vertex 0.000000e+000 0.000000e+000 1.000000e+001
         vertex 7.348341e-001 3.553475e+000 1.000000e+001
         vertex 0.000000e+000 1.000000e+001 1.000000e+001
      endloop
   endfacet
   facet normal 0.000000e+000 0.000000e+000 1.000000e+000
      outer loop
         vertex 0.000000e+000 1.000000e+001 1.000000e+001
         vertex 7.348341e-001 3.553475e+000 1.000000e+001
         vertex 7.678580e-001 3.952014e+000 1.000000e+001
      endloop
   endfacet
   facet normal 0.000000e+000 0.000000e+000 1.000000e+000
      outer loop
         vertex 0.000000e+000 1.000000e+001 1.000000e+001
         vertex 7.678580e-001 3.952014e+000 1.000000e+001
         vertex 8.660289e-001 4.339683e+000 1.000000e+001
      endloop
   endfacet
   facet normal 1.000000e+000 0.000000e+000 0.000000e+000
      outer loop
         vertex 1.000000e+001 1.000000e+001 0.000000e+000
         vertex 1.000000e+001 1.000000e+001 1.000000e+001
         vertex 1.000000e+001 0.000000e+000 0.000000e+000
      endloop
   endfacet
   facet normal 1.000000e+000 0.000000e+000 0.000000e+000
      outer loop
         vertex 1.000000e+001 0.000000e+000 0.000000e+000
         vertex 1.000000e+001 1.000000e+001 1.000000e+001
         vertex 1.000000e+001 0.000000e+000 1.000000e+001
      endloop
   endfacet
   facet normal 0.000000e+000 0.000000e+000 -1.000000e+000
      outer loop
         vertex 0.000000e+000 1.000000e+001 0.000000e+000
         vertex 1.000000e+001 1.000000e+001 0.000000e+000
         vertex 0.000000e+000 0.000000e+000 0.000000e+000
      endloop
   endfacet
   facet normal 0.000000e+000 0.000000e+000 -1.000000e+000
      outer loop
         vertex 0.000000e+000 0.000000e+000 0.000000e+000
         vertex 1.000000e+001 1.000000e+001 0.000000e+000
         vertex 1.000000e+001 0.000000e+000 0.000000e+000
      endloop
   endfacet
   facet normal 0.000000e+000 1.000000e+000 0.000000e+000
      outer loop
         vertex 1.000000e+001 1.000000e+001 1.000000e+001
         vertex 1.000000e+001 1.000000e+001 0.000000e+000
         vertex 0.000000e+000 1.000000e+001 1.000000e+001
      endloop
   endfacet
   facet normal 0.000000e+000 1.000000e+000 0.000000e+000
      outer loop
         vertex 0.000000e+000 1.000000e+001 1.000000e+001
         vertex 1.000000e+001 1.000000e+001 0.000000e+000
         vertex 0.000000e+000 1.000000e+001 0.000000e+000
      endloop
   endfacet
   facet normal 0.000000e+000 -1.000000e+000 0.000000e+000
      outer loop
         vertex 1.000000e+001 0.000000e+000 0.000000e+000
         vertex 1.000000e+001 0.000000e+000 1.000000e+001
         vertex 0.000000e+000 0.000000e+000 0.000000e+000
      endloop
   endfacet
   facet normal 0.000000e+000 -1.000000e+000 0.000000e+000
      outer loop
         vertex 0.000000e+000 0.000000e+000 0.000000e+000
         vertex 1.000000e+001 0.000000e+000 1.000000e+001
         vertex 0.000000e+000 0.000000e+000 1.000000e+001
      endloop
   endfacet
   facet normal -9.984846e-001 5.503191e-002 0.000000e+000
      outer loop
         vertex 5.544487e+000 3.154936e+000 6.825711e+000
         vertex 5.577511e+000 3.553475e+000 1.000000e+001
         vertex 5.577511e+000 3.553475e+000 6.825711e+000
      endloop
   endfacet
   facet normal -9.984846e-001 -5.503191e-002 0.000000e+000
      outer loop
         vertex 5.577511e+000 3.553475e+000 6.825711e+000
         vertex 5.577511e+000 3.553475e+000 1.000000e+001
         vertex 5.544487e+000 3.952014e+000 1.000000e+001
      endloop
   endfacet
   facet normal -9.939246e-001 -1.100638e-001 0.000000e+000
      outer loop
         vertex 5.577511e+000 3.553475e+000 6.825711e+000
         vertex 5.544487e+000 3.952014e+000 1.000000e+001
         vertex 5.544487e+000 3.952014e+000 6.825711e+000
      endloop
   endfacet
   facet normal -9.758086e-001 -2.186265e-001 0.000000e+000
      outer loop
         vertex 5.544487e+000 3.952014e+000 6.825711e+000
         vertex 5.544487e+000 3.952014e+000 1.000000e+001
         vertex 5.446316e+000 4.339683e+000 1.000000e+001
      endloop
   endfacet
   facet normal -9.622528e-001 -2.721573e-001 0.000000e+000
      outer loop
         vertex 5.544487e+000 3.952014e+000 6.825711e+000
         vertex 5.446316e+000 4.339683e+000 1.000000e+001
         vertex 5.446316e+000 4.339683e+000 6.825711e+000
      endloop
   endfacet
   facet normal -9.265151e-001 -3.762575e-001 0.000000e+000
      outer loop
         vertex 5.446316e+000 4.339683e+000 6.825711e+000
         vertex 5.446316e+000 4.339683e+000 1.000000e+001
         vertex 5.285676e+000 4.705905e+000 1.000000e+001
      endloop
   endfacet
   facet normal -9.043333e-001 -4.268270e-001 0.000000e+000
      outer loop
         vertex 5.446316e+000 4.339683e+000 6.825711e+000
         vertex 5.285676e+000 4.705905e+000 1.000000e+001
         vertex 5.285676e+000 4.705905e+000 6.825711e+000
      endloop
   endfacet
   facet normal -8.519487e-001 -5.236253e-001 0.000000e+000
      outer loop
         vertex 5.285676e+000 4.705905e+000 6.825711e+000
         vertex 5.285676e+000 4.705905e+000 1.000000e+001
         vertex 5.066949e+000 5.040692e+000 1.000000e+001
      endloop
   endfacet
   facet normal -8.217459e-001 -5.698540e-001 0.000000e+000
      outer loop
         vertex 5.285676e+000 4.705905e+000 6.825711e+000
         vertex 5.066949e+000 5.040692e+000 1.000000e+001
         vertex 5.066949e+000 5.040692e+000 6.825711e+000
      endloop
   endfacet
   facet normal -7.541434e-001 -6.567098e-001 0.000000e+000
      outer loop
         vertex 5.066949e+000 5.040692e+000 6.825711e+000
         vertex 5.066949e+000 5.040692e+000 1.000000e+001
         vertex 4.796100e+000 5.334912e+000 1.000000e+001
      endloop
   endfacet
   facet normal -7.167435e-001 -6.973369e-001 0.000000e+000
      outer loop
         vertex 5.066949e+000 5.040692e+000 6.825711e+000
         vertex 4.796100e+000 5.334912e+000 1.000000e+001
         vertex 4.796100e+000 5.334912e+000 6.825711e+000
      endloop
   endfacet
   facet normal -6.357669e-001 -7.718811e-001 0.000000e+000
      outer loop
         vertex 4.796100e+000 5.334912e+000 6.825711e+000
         vertex 4.796100e+000 5.334912e+000 1.000000e+001
         vertex 4.480519e+000 5.580538e+000 1.000000e+001
      endloop
   endfacet
   facet normal -5.921901e-001 -8.057982e-001 0.000000e+000
      outer loop
         vertex 4.796100e+000 5.334912e+000 6.825711e+000
         vertex 4.480519e+000 5.580538e+000 1.000000e+001
         vertex 4.480519e+000 5.580538e+000 6.825711e+000
      endloop
   endfacet
   facet normal -5.000484e-001 -8.659974e-001 0.000000e+000
      outer loop
         vertex 4.480519e+000 5.580538e+000 6.825711e+000
         vertex 4.480519e+000 5.580538e+000 1.000000e+001
         vertex 4.128813e+000 5.770872e+000 1.000000e+001
      endloop
   endfacet
   facet normal -4.514834e-001 -8.922795e-001 0.000000e+000
      outer loop
         vertex 4.480519e+000 5.580538e+000 6.825711e+000
         vertex 4.128813e+000 5.770872e+000 1.000000e+001
         vertex 4.128813e+000 5.770872e+000 6.825711e+000
      endloop
   endfacet
   facet normal -3.506899e-001 -9.364916e-001 0.000000e+000
      outer loop
         vertex 4.128813e+000 5.770872e+000 6.825711e+000
         vertex 4.128813e+000 5.770872e+000 1.000000e+001
         vertex 3.750576e+000 5.900722e+000 1.000000e+001
      endloop
   endfacet
   facet normal -2.984614e-001 -9.544217e-001 0.000000e+000
      outer loop
         vertex 4.128813e+000 5.770872e+000 6.825711e+000
         vertex 3.750576e+000 5.900722e+000 1.000000e+001
         vertex 3.750576e+000 5.900722e+000 6.825711e+000
      endloop
   endfacet
   facet normal -1.917655e-001 -9.814408e-001 0.000000e+000
      outer loop
         vertex 3.750576e+000 5.900722e+000 6.825711e+000
         vertex 3.750576e+000 5.900722e+000 1.000000e+001
         vertex 3.356125e+000 5.966544e+000 1.000000e+001
      endloop
   endfacet
   facet normal -1.372982e-001 -9.905298e-001 0.000000e+000
      outer loop
         vertex 3.750576e+000 5.900722e+000 6.825711e+000
         vertex 3.356125e+000 5.966544e+000 1.000000e+001
         vertex 3.356125e+000 5.966544e+000 6.825711e+000
      endloop
   endfacet
   facet normal -2.761026e-002 -9.996188e-001 0.000000e+000
      outer loop
         vertex 3.356125e+000 5.966544e+000 6.825711e+000
         vertex 3.356125e+000 5.966544e+000 1.000000e+001
         vertex 2.956220e+000 5.966544e+000 1.000000e+001
      endloop
   endfacet
   facet normal 2.761026e-002 -9.996188e-001 0.000000e+000
      outer loop
         vertex 3.356125e+000 5.966544e+000 6.825711e+000
         vertex 2.956220e+000 5.966544e+000 1.000000e+001
         vertex 2.956220e+000 5.966544e+000 6.825711e+000
      endloop
   endfacet
   facet normal 1.372982e-001 -9.905298e-001 0.000000e+000
      outer loop
         vertex 2.956220e+000 5.966544e+000 6.825711e+000
         vertex 2.956220e+000 5.966544e+000 1.000000e+001
         vertex 2.561769e+000 5.900722e+000 1.000000e+001
      endloop
   endfacet
   facet normal 1.917655e-001 -9.814408e-001 0.000000e+000
      outer loop
         vertex 2.956220e+000 5.966544e+000 6.825711e+000
         vertex 2.561769e+000 5.900722e+000 1.000000e+001
         vertex 2.561769e+000 5.900722e+000 6.825711e+000
      endloop
   endfacet
   facet normal 2.984614e-001 -9.544217e-001 0.000000e+000
      outer loop
         vertex 2.561769e+000 5.900722e+000 6.825711e+000
         vertex 2.561769e+000 5.900722e+000 1.000000e+001
         vertex 2.183532e+000 5.770872e+000 1.000000e+001
      endloop
   endfacet
   facet normal 3.506899e-001 -9.364916e-001 0.000000e+000
      outer loop
         vertex 2.561769e+000 5.900722e+000 6.825711e+000
         vertex 2.183532e+000 5.770872e+000 1.000000e+001
         vertex 2.183532e+000 5.770872e+000 6.825711e+000
      endloop
   endfacet
   facet normal 4.514834e-001 -8.922795e-001 0.000000e+000
      outer loop
         vertex 2.183532e+000 5.770872e+000 6.825711e+000
         vertex 2.183532e+000 5.770872e+000 1.000000e+001
         vertex 1.831826e+000 5.580538e+000 1.000000e+001
      endloop
   endfacet
   facet normal 5.000484e-001 -8.659974e-001 0.000000e+000
      outer loop
         vertex 2.183532e+000 5.770872e+000 6.825711e+000
         vertex 1.831826e+000 5.580538e+000 1.000000e+001
         vertex 1.831826e+000 5.580538e+000 6.825711e+000
      endloop
   endfacet
   facet normal 5.921901e-001 -8.057982e-001 0.000000e+000
      outer loop
         vertex 1.831826e+000 5.580538e+000 6.825711e+000
         vertex 1.831826e+000 5.580538e+000 1.000000e+001
         vertex 1.516245e+000 5.334912e+000 1.000000e+001
      endloop
   endfacet
   facet normal 6.357669e-001 -7.718811e-001 0.000000e+000
      outer loop
         vertex 1.831826e+000 5.580538e+000 6.825711e+000
         vertex 1.516245e+000 5.334912e+000 1.000000e+001
         vertex 1.516245e+000 5.334912e+000 6.825711e+000
      endloop
   endfacet
   facet normal 7.167435e-001 -6.973369e-001 0.000000e+000
      outer loop
         vertex 1.516245e+000 5.334912e+000 6.825711e+000
         vertex 1.516245e+000 5.334912e+000 1.000000e+001
         vertex 1.245396e+000 5.040692e+000 1.000000e+001
      endloop
   endfacet
   facet normal 7.541434e-001 -6.567098e-001 0.000000e+000
      outer loop
         vertex 1.516245e+000 5.334912e+000 6.825711e+000
         vertex 1.245396e+000 5.040692e+000 1.000000e+001
         vertex 1.245396e+000 5.040692e+000 6.825711e+000
      endloop
   endfacet
   facet normal 8.217459e-001 -5.698540e-001 0.000000e+000
      outer loop
         vertex 1.245396e+000 5.040692e+000 6.825711e+000
         vertex 1.245396e+000 5.040692e+000 1.000000e+001
         vertex 1.026669e+000 4.705905e+000 1.000000e+001
      endloop
   endfacet
   facet normal 8.519487e-001 -5.236253e-001 0.000000e+000
      outer loop
         vertex 1.245396e+000 5.040692e+000 6.825711e+000
         vertex 1.026669e+000 4.705905e+000 1.000000e+001
         vertex 1.026669e+000 4.705905e+000 6.825711e+000
      endloop
   endfacet
   facet normal 9.043333e-001 -4.268270e-001 0.000000e+000
      outer loop
         vertex 1.026669e+000 4.705905e+000 6.825711e+000
         vertex 1.026669e+000 4.705905e+000 1.000000e+001
         vertex 8.660289e-001 4.339683e+000 1.000000e+001
      endloop
   endfacet
   facet normal 9.265151e-001 -3.762575e-001 0.000000e+000
      outer loop
         vertex 1.026669e+000 4.705905e+000 6.825711e+000
         vertex 8.660289e-001 4.339683e+000 1.000000e+001
         vertex 8.660289e-001 4.339683e+000 6.825711e+000
      endloop
   endfacet
   facet normal 9.622528e-001 -2.721573e-001 0.000000e+000
      outer loop
         vertex 8.660289e-001 4.339683e+000 6.825711e+000
         vertex 8.660289e-001 4.339683e+000 1.000000e+001
         vertex 7.678580e-001 3.952014e+000 1.000000e+001
      endloop
   endfacet
   facet normal 9.758086e-001 -2.186265e-001 0.000000e+000
      outer loop
         vertex 8.660289e-001 4.339683e+000 6.825711e+000
         vertex 7.678580e-001 3.952014e+000 1.000000e+001
         vertex 7.678580e-001 3.952014e+000 6.825711e+000
      endloop
   endfacet
   facet normal 9.939246e-001 -1.100638e-001 0.000000e+000
      outer loop
         vertex 7.678580e-001 3.952014e+000 6.825711e+000
         vertex 7.678580e-001 3.952014e+000 1.000000e+001
         vertex 7.348341e-001 3.553475e+000 1.000000e+001
      endloop
   endfacet
   facet normal 9.984846e-001 -5.503191e-002 0.000000e+000
      outer loop
         vertex 7.678580e-001 3.952014e+000 6.825711e+000
         vertex 7.348341e-001 3.553475e+000 1.000000e+001
         vertex 7.348341e-001 3.553475e+000 6.825711e+000
      endloop
   endfacet
   facet normal 9.984846e-001 5.503191e-002 0.000000e+000
      outer loop
         vertex 7.348341e-001 3.553475e+000 6.825711e+000
         vertex 7.348341e-001 3.553475e+000 1.000000e+001
         vertex 7.678580e-001 3.154936e+000 1.000000e+001
      endloop
   endfacet
   facet normal 9.939246e-001 1.100638e-001 0.000000e+000
      outer loop
         vertex 7.348341e-001 3.553475e+000 6.825711e+000
         vertex 7.678580e-001 3.154936e+000 1.000000e+001
         vertex 7.678580e-001 3.154936e+000 6.825711e+000
      endloop
   endfacet
   facet normal 9.758086e-001 2.186265e-001 0.000000e+000
      outer loop
         vertex 7.678580e-001 3.154936e+000 6.825711e+000
         vertex 7.678580e-001 3.154936e+000 1.000000e+001
         vertex 8.660289e-001 2.767268e+000 1.000000e+001
      endloop
   endfacet
   facet normal 9.622528e-001 2.721573e-001 0.000000e+000
      outer loop
         vertex 7.678580e-001 3.154936e+000 6.825711e+000
         vertex 8.660289e-001 2.767268e+000 1.000000e+001
         vertex 8.660289e-001 2.767268e+000 6.825711e+000
      endloop
   endfacet
   facet normal 9.265151e-001 3.762575e-001 0.000000e+000
      outer loop
         vertex 8.660289e-001 2.767268e+000 6.825711e+000
         vertex 8.660289e-001 2.767268e+000 1.000000e+001
         vertex 1.026669e+000 2.401045e+000 1.000000e+001
      endloop
   endfacet
   facet normal 9.043333e-001 4.268270e-001 0.000000e+000
      outer loop
         vertex 8.660289e-001 2.767268e+000 6.825711e+000
         vertex 1.026669e+000 2.401045e+000 1.000000e+001
         vertex 1.026669e+000 2.401045e+000 6.825711e+000
      endloop
   endfacet
   facet normal 8.519487e-001 5.236253e-001 0.000000e+000
      outer loop
         vertex 1.026669e+000 2.401045e+000 6.825711e+000
         vertex 1.026669e+000 2.401045e+000 1.000000e+001
         vertex 1.245396e+000 2.066258e+000 1.000000e+001
      endloop
   endfacet
   facet normal 8.217459e-001 5.698540e-001 0.000000e+000
      outer loop
         vertex 1.026669e+000 2.401045e+000 6.825711e+000
         vertex 1.245396e+000 2.066258e+000 1.000000e+001
         vertex 1.245396e+000 2.066258e+000 6.825711e+000
      endloop
   endfacet
   facet normal 7.541434e-001 6.567098e-001 0.000000e+000
      outer loop
         vertex 1.245396e+000 2.066258e+000 6.825711e+000
         vertex 1.245396e+000 2.066258e+000 1.000000e+001
         vertex 1.516245e+000 1.772039e+000 1.000000e+001
      endloop
   endfacet
   facet normal 7.167435e-001 6.973369e-001 0.000000e+000
      outer loop
         vertex 1.245396e+000 2.066258e+000 6.825711e+000
         vertex 1.516245e+000 1.772039e+000 1.000000e+001
         vertex 1.516245e+000 1.772039e+000 6.825711e+000
      endloop
   endfacet
   facet normal 6.357669e-001 7.718811e-001 0.000000e+000
      outer loop
         vertex 1.516245e+000 1.772039e+000 6.825711e+000
         vertex 1.516245e+000 1.772039e+000 1.000000e+001
         vertex 1.831826e+000 1.526412e+000 1.000000e+001
      endloop
   endfacet
   facet normal 5.921901e-001 8.057982e-001 0.000000e+000
      outer loop
         vertex 1.516245e+000 1.772039e+000 6.825711e+000
         vertex 1.831826e+000 1.526412e+000 1.000000e+001
         vertex 1.831826e+000 1.526412e+000 6.825711e+000
      endloop
   endfacet
   facet normal 5.000484e-001 8.659974e-001 0.000000e+000
      outer loop
         vertex 1.831826e+000 1.526412e+000 6.825711e+000
         vertex 1.831826e+000 1.526412e+000 1.000000e+001
         vertex 2.183532e+000 1.336078e+000 1.000000e+001
      endloop
   endfacet
   facet normal 4.514834e-001 8.922795e-001 0.000000e+000
      outer loop
         vertex 1.831826e+000 1.526412e+000 6.825711e+000
         vertex 2.183532e+000 1.336078e+000 1.000000e+001
         vertex 2.183532e+000 1.336078e+000 6.825711e+000
      endloop
   endfacet
   facet normal 3.506899e-001 9.364916e-001 0.000000e+000
      outer loop
         vertex 2.183532e+000 1.336078e+000 6.825711e+000
         vertex 2.183532e+000 1.336078e+000 1.000000e+001
         vertex 2.561769e+000 1.206229e+000 1.000000e+001
      endloop
   endfacet
   facet normal 2.984614e-001 9.544217e-001 0.000000e+000
      outer loop
         vertex 2.183532e+000 1.336078e+000 6.825711e+000
         vertex 2.561769e+000 1.206229e+000 1.000000e+001
         vertex 2.561769e+000 1.206229e+000 6.825711e+000
      endloop
   endfacet
   facet normal 1.917655e-001 9.814408e-001 0.000000e+000
      outer loop
         vertex 2.561769e+000 1.206229e+000 6.825711e+000
         vertex 2.561769e+000 1.206229e+000 1.000000e+001
         vertex 2.956220e+000 1.140407e+000 1.000000e+001
      endloop
   endfacet
   facet normal 1.372982e-001 9.905298e-001 0.000000e+000
      outer loop
         vertex 2.561769e+000 1.206229e+000 6.825711e+000
         vertex 2.956220e+000 1.140407e+000 1.000000e+001
         vertex 2.956220e+000 1.140407e+000 6.825711e+000
      endloop
   endfacet
   facet normal 2.761026e-002 9.996188e-001 0.000000e+000
      outer loop
         vertex 2.956220e+000 1.140407e+000 6.825711e+000
         vertex 2.956220e+000 1.140407e+000 1.000000e+001
         vertex 3.356125e+000 1.140407e+000 1.000000e+001
      endloop
   endfacet
   facet normal -2.761026e-002 9.996188e-001 0.000000e+000
      outer loop
         vertex 2.956220e+000 1.140407e+000 6.825711e+000
         vertex 3.356125e+000 1.140407e+000 1.000000e+001
         vertex 3.356125e+000 1.140407e+000 6.825711e+000
      endloop
   endfacet
   facet normal -1.372982e-001 9.905298e-001 0.000000e+000
      outer loop
         vertex 3.356125e+000 1.140407e+000 6.825711e+000
         vertex 3.356125e+000 1.140407e+000 1.000000e+001
         vertex 3.750576e+000 1.206229e+000 1.000000e+001
      endloop
   endfacet
   facet normal -1.917655e-001 9.814408e-001 0.000000e+000
      outer loop
         vertex 3.356125e+000 1.140407e+000 6.825711e+000
         vertex 3.750576e+000 1.206229e+000 1.000000e+001
         vertex 3.750576e+000 1.206229e+000 6.825711e+000
      endloop
   endfacet
   facet normal -2.984614e-001 9.544217e-001 0.000000e+000
      outer loop
         vertex 3.750576e+000 1.206229e+000 6.825711e+000
         vertex 3.750576e+000 1.206229e+000 1.000000e+001
         vertex 4.128813e+000 1.336078e+000 1.000000e+001
      endloop
   endfacet
   facet normal -3.506899e-001 9.364916e-001 0.000000e+000
      outer loop
         vertex 3.750576e+000 1.206229e+000 6.825711e+000
         vertex 4.128813e+000 1.336078e+000 1.000000e+001
         vertex 4.128813e+000 1.336078e+000 6.825711e+000
      endloop
   endfacet
   facet normal -4.514834e-001 8.922795e-001 0.000000e+000
      outer loop
         vertex 4.128813e+000 1.336078e+000 6.825711e+000
         vertex 4.128813e+000 1.336078e+000 1.000000e+001
         vertex 4.480519e+000 1.526412e+000 1.000000e+001
      endloop
   endfacet
   facet normal -5.000484e-001 8.659974e-001 0.000000e+000
      outer loop
         vertex 4.128813e+000 1.336078e+000 6.825711e+000
         vertex 4.480519e+000 1.526412e+000 1.000000e+001
         vertex 4.480519e+000 1.526412e+000 6.825711e+000
      endloop
   endfacet
   facet normal -5.921901e-001 8.057982e-001 0.000000e+000
      outer loop
         vertex 4.480519e+000 1.526412e+000 6.825711e+000
         vertex 4.480519e+000 1.526412e+000 1.000000e+001
         vertex 4.796100e+000 1.772039e+000 1.000000e+001
      endloop
   endfacet
   facet normal -6.357669e-001 7.718811e-001 0.000000e+000
      outer loop
         vertex 4.480519e+000 1.526412e+000 6.825711e+000
         vertex 4.796100e+000 1.772039e+000 1.000000e+001
         vertex 4.796100e+000 1.772039e+000 6.825711e+000
      endloop
   endfacet
   facet normal -7.167435e-001 6.973369e-001 0.000000e+000
      outer loop
         vertex 4.796100e+000 1.772039e+000 6.825711e+000
         vertex 4.796100e+000 1.772039e+000 1.000000e+001
         vertex 5.066949e+000 2.066258e+000 1.000000e+001
      endloop
   endfacet
   facet normal -7.541434e-001 6.567098e-001 0.000000e+000
      outer loop
         vertex 4.796100e+000 1.772039e+000 6.825711e+000
         vertex 5.066949e+000 2.066258e+000 1.000000e+001
         vertex 5.066949e+000 2.066258e+000 6.825711e+000
      endloop
   endfacet
   facet normal -8.217459e-001 5.698540e-001 0.000000e+000
      outer loop
         vertex 5.066949e+000 2.066258e+000 6.825711e+000
         vertex 5.066949e+000 2.066258e+000 1.000000e+001
         vertex 5.285676e+000 2.401045e+000 1.000000e+001
      endloop
   endfacet
   facet normal -8.519487e-001 5.236253e-001 0.000000e+000
      outer loop
         vertex 5.066949e+000 2.066258e+000 6.825711e+000
         vertex 5.285676e+000 2.401045e+000 1.000000e+001
         vertex 5.285676e+000 2.401045e+000 6.825711e+000
      endloop
   endfacet
   facet normal -9.043333e-001 4.268270e-001 0.000000e+000
      outer loop
         vertex 5.285676e+000 2.401045e+000 6.825711e+000
         vertex 5.285676e+000 2.401045e+000 1.000000e+001
         vertex 5.446316e+000 2.767268e+000 1.000000e+001
      endloop
   endfacet
   facet normal -9.265151e-001 3.762575e-001 0.000000e+000
      outer loop
         vertex 5.285676e+000 2.401045e+000 6.825711e+000
         vertex 5.446316e+000 2.767268e+000 1.000000e+001
         vertex 5.446316e+000 2.767268e+000 6.825711e+000
      endloop
   endfacet
   facet normal -9.622528e-001 2.721573e-001 0.000000e+000
      outer loop
         vertex 5.446316e+000 2.767268e+000 6.825711e+000
         vertex 5.446316e+000 2.767268e+000 1.000000e+001
         vertex 5.544487e+000 3.154936e+000 1.000000e+001
      endloop
   endfacet
   facet normal -9.758086e-001 2.186265e-001 0.000000e+000
      outer loop
         vertex 5.446316e+000 2.767268e+000 6.825711e+000
         vertex 5.544487e+000 3.154936e+000 1.000000e+001
         vertex 5.544487e+000 3.154936e+000 6.825711e+000
      endloop
   endfacet
   facet normal -9.939246e-001 1.100638e-001 0.000000e+000
      outer loop
         vertex 5.544487e+000 3.154936e+000 6.825711e+000
         vertex 5.544487e+000 3.154936e+000 1.000000e+001
         vertex 5.577511e+000 3.553475e+000 1.000000e+001
      endloop
   endfacet
   facet normal 0.000000e+000 0.000000e+000 1.000000e+000
      outer loop
         vertex 5.285676e+000 2.401045e+000 6.825711e+000
         vertex 5.446316e+000 2.767268e+000 6.825711e+000
         vertex 2.183532e+000 1.336078e+000 6.825711e+000
      endloop
   endfacet
   facet normal 0.000000e+000 0.000000e+000 1.000000e+000
      outer loop
         vertex 5.446316e+000 2.767268e+000 6.825711e+000
         vertex 5.544487e+000 3.154936e+000 6.825711e+000
         vertex 2.183532e+000 1.336078e+000 6.825711e+000
      endloop
   endfacet
   facet normal 0.000000e+000 0.000000e+000 1.000000e+000
      outer loop
         vertex 2.183532e+000 1.336078e+000 6.825711e+000
         vertex 5.544487e+000 3.154936e+000 6.825711e+000
         vertex 5.577511e+000 3.553475e+000 6.825711e+000
      endloop
   endfacet
   facet normal 0.000000e+000 0.000000e+000 1.000000e+000
      outer loop
         vertex 2.183532e+000 1.336078e+000 6.825711e+000
         vertex 5.577511e+000 3.553475e+000 6.825711e+000
         vertex 5.544487e+000 3.952014e+000 6.825711e+000
      endloop
   endfacet
   facet normal 0.000000e+000 0.000000e+000 1.000000e+000
      outer loop
         vertex 2.183532e+000 1.336078e+000 6.825711e+000
         vertex 5.066949e+000 5.040692e+000 6.825711e+000
         vertex 4.796100e+000 5.334912e+000 6.825711e+000
      endloop
   endfacet
   facet normal 0.000000e+000 0.000000e+000 1.000000e+000
      outer loop
         vertex 3.750576e+000 5.900722e+000 6.825711e+000
         vertex 3.356125e+000 5.966544e+000 6.825711e+000
         vertex 2.183532e+000 1.336078e+000 6.825711e+000
      endloop
   endfacet
   facet normal 0.000000e+000 0.000000e+000 1.000000e+000
      outer loop
         vertex 2.183532e+000 1.336078e+000 6.825711e+000
         vertex 3.356125e+000 5.966544e+000 6.825711e+000
         vertex 2.956220e+000 5.966544e+000 6.825711e+000
      endloop
   endfacet
   facet normal 0.000000e+000 0.000000e+000 1.000000e+000
      outer loop
         vertex 2.183532e+000 1.336078e+000 6.825711e+000
         vertex 2.956220e+000 5.966544e+000 6.825711e+000
         vertex 2.561769e+000 5.900722e+000 6.825711e+000
      endloop
   endfacet
   facet normal 0.000000e+000 0.000000e+000 1.000000e+000
      outer loop
         vertex 5.285676e+000 2.401045e+000 6.825711e+000
         vertex 2.183532e+000 1.336078e+000 6.825711e+000
         vertex 5.066949e+000 2.066258e+000 6.825711e+000
      endloop
   endfacet
   facet normal 0.000000e+000 0.000000e+000 1.000000e+000
      outer loop
         vertex 5.066949e+000 2.066258e+000 6.825711e+000
         vertex 2.183532e+000 1.336078e+000 6.825711e+000
         vertex 2.561769e+000 1.206229e+000 6.825711e+000
      endloop
   endfacet
   facet normal 0.000000e+000 0.000000e+000 1.000000e+000
      outer loop
         vertex 5.066949e+000 2.066258e+000 6.825711e+000
         vertex 2.561769e+000 1.206229e+000 6.825711e+000
         vertex 2.956220e+000 1.140407e+000 6.825711e+000
      endloop
   endfacet
   facet normal 0.000000e+000 0.000000e+000 1.000000e+000
      outer loop
         vertex 3.750576e+000 1.206229e+000 6.825711e+000
         vertex 4.128813e+000 1.336078e+000 6.825711e+000
         vertex 4.480519e+000 1.526412e+000 6.825711e+000
      endloop
   endfacet
   facet normal 0.000000e+000 0.000000e+000 1.000000e+000
      outer loop
         vertex 5.544487e+000 3.952014e+000 6.825711e+000
         vertex 5.446316e+000 4.339683e+000 6.825711e+000
         vertex 2.183532e+000 1.336078e+000 6.825711e+000
      endloop
   endfacet
   facet normal 0.000000e+000 0.000000e+000 1.000000e+000
      outer loop
         vertex 2.183532e+000 1.336078e+000 6.825711e+000
         vertex 5.446316e+000 4.339683e+000 6.825711e+000
         vertex 5.285676e+000 4.705905e+000 6.825711e+000
      endloop
   endfacet
   facet normal 0.000000e+000 0.000000e+000 1.000000e+000
      outer loop
         vertex 2.183532e+000 1.336078e+000 6.825711e+000
         vertex 5.285676e+000 4.705905e+000 6.825711e+000
         vertex 5.066949e+000 5.040692e+000 6.825711e+000
      endloop
   endfacet
   facet normal 0.000000e+000 0.000000e+000 1.000000e+000
      outer loop
         vertex 4.796100e+000 5.334912e+000 6.825711e+000
         vertex 4.480519e+000 5.580538e+000 6.825711e+000
         vertex 2.183532e+000 1.336078e+000 6.825711e+000
      endloop
   endfacet
   facet normal 0.000000e+000 0.000000e+000 1.000000e+000
      outer loop
         vertex 2.183532e+000 1.336078e+000 6.825711e+000
         vertex 4.480519e+000 5.580538e+000 6.825711e+000
         vertex 4.128813e+000 5.770872e+000 6.825711e+000
      endloop
   endfacet
   facet normal 0.000000e+000 0.000000e+000 1.000000e+000
      outer loop
         vertex 2.183532e+000 1.336078e+000 6.825711e+000
         vertex 4.128813e+000 5.770872e+000 6.825711e+000
         vertex 3.750576e+000 5.900722e+000 6.825711e+000
      endloop
   endfacet
   facet normal 0.000000e+000 0.000000e+000 1.000000e+000
      outer loop
         vertex 2.561769e+000 5.900722e+000 6.825711e+000
         vertex 2.183532e+000 5.770872e+000 6.825711e+000
         vertex 2.183532e+000 1.336078e+000 6.825711e+000
      endloop
   endfacet
   facet normal 0.000000e+000 0.000000e+000 1.000000e+000
      outer loop
         vertex 2.183532e+000 1.336078e+000 6.825711e+000
         vertex 2.183532e+000 5.770872e+000 6.825711e+000
         vertex 1.831826e+000 5.580538e+000 6.825711e+000
      endloop
   endfacet
   facet normal 0.000000e+000 0.000000e+000 1.000000e+000
      outer loop
         vertex 2.183532e+000 1.336078e+000 6.825711e+000
         vertex 1.831826e+000 5.580538e+000 6.825711e+000
         vertex 1.516245e+000 5.334912e+000 6.825711e+000
      endloop
   endfacet
   facet normal 0.000000e+000 0.000000e+000 1.000000e+000
      outer loop
         vertex 1.516245e+000 5.334912e+000 6.825711e+000
         vertex 1.245396e+000 5.040692e+000 6.825711e+000
         vertex 2.183532e+000 1.336078e+000 6.825711e+000
      endloop
   endfacet
   facet normal 0.000000e+000 0.000000e+000 1.000000e+000
      outer loop
         vertex 2.183532e+000 1.336078e+000 6.825711e+000
         vertex 1.245396e+000 5.040692e+000 6.825711e+000
         vertex 1.026669e+000 4.705905e+000 6.825711e+000
      endloop
   endfacet
   facet normal 0.000000e+000 0.000000e+000 1.000000e+000
      outer loop
         vertex 2.183532e+000 1.336078e+000 6.825711e+000
         vertex 1.026669e+000 4.705905e+000 6.825711e+000
         vertex 8.660289e-001 4.339683e+000 6.825711e+000
      endloop
   endfacet
   facet normal 0.000000e+000 0.000000e+000 1.000000e+000
      outer loop
         vertex 2.956220e+000 1.140407e+000 6.825711e+000
         vertex 3.356125e+000 1.140407e+000 6.825711e+000
         vertex 5.066949e+000 2.066258e+000 6.825711e+000
      endloop
   endfacet
   facet normal 0.000000e+000 0.000000e+000 1.000000e+000
      outer loop
         vertex 5.066949e+000 2.066258e+000 6.825711e+000
         vertex 3.356125e+000 1.140407e+000 6.825711e+000
         vertex 3.750576e+000 1.206229e+000 6.825711e+000
      endloop
   endfacet
   facet normal 0.000000e+000 0.000000e+000 1.000000e+000
      outer loop
         vertex 5.066949e+000 2.066258e+000 6.825711e+000
         vertex 3.750576e+000 1.206229e+000 6.825711e+000
         vertex 4.796100e+000 1.772039e+000 6.825711e+000
      endloop
   endfacet
   facet normal 0.000000e+000 0.000000e+000 1.000000e+000
      outer loop
         vertex 4.796100e+000 1.772039e+000 6.825711e+000
         vertex 3.750576e+000 1.206229e+000 6.825711e+000
         vertex 4.480519e+000 1.526412e+000 6.825711e+000
      endloop
   endfacet
   facet normal 0.000000e+000 0.000000e+000 1.000000e+000
      outer loop
         vertex 1.026669e+000 2.401045e+000 6.825711e+000
         vertex 1.245396e+000 2.066258e+000 6.825711e+000
         vertex 1.516245e+000 1.772039e+000 6.825711e+000
      endloop
   endfacet
   facet normal 0.000000e+000 0.000000e+000 1.000000e+000
      outer loop
         vertex 8.660289e-001 4.339683e+000 6.825711e+000
         vertex 7.678580e-001 3.952014e+000 6.825711e+000
         vertex 2.183532e+000 1.336078e+000 6.825711e+000
      endloop
   endfacet
   facet normal 0.000000e+000 0.000000e+000 1.000000e+000
      outer loop
         vertex 2.183532e+000 1.336078e+000 6.825711e+000
         vertex 7.678580e-001 3.952014e+000 6.825711e+000
         vertex 7.348341e-001 3.553475e+000 6.825711e+000
      endloop
   endfacet
   facet normal 0.000000e+000 0.000000e+000 1.000000e+000
      outer loop
         vertex 2.183532e+000 1.336078e+000 6.825711e+000
         vertex 7.348341e-001 3.553475e+000 6.825711e+000
         vertex 7.678580e-001 3.154936e+000 6.825711e+000
      endloop
   endfacet
   facet normal 0.000000e+000 0.000000e+000 1.000000e+000
      outer loop
         vertex 7.678580e-001 3.154936e+000 6.825711e+000
         vertex 8.660289e-001 2.767268e+000 6.825711e+000
         vertex 2.183532e+000 1.336078e+000 6.825711e+000
      endloop
   endfacet
   facet normal 0.000000e+000 0.000000e+000 1.000000e+000
      outer loop
         vertex 2.183532e+000 1.336078e+000 6.825711e+000
         vertex 8.660289e-001 2.767268e+000 6.825711e+000
         vertex 1.026669e+000 2.401045e+000 6.825711e+000
      endloop
   endfacet
   facet normal 0.000000e+000 0.000000e+000 1.000000e+000
      outer loop
         vertex 2.183532e+000 1.336078e+000 6.825711e+000
         vertex 1.026669e+000 2.401045e+000 6.825711e+000
         vertex 1.831826e+000 1.526412e+000 6.825711e+000
      endloop
   endfacet
   facet normal 0.000000e+000 0.000000e+000 1.000000e+000
      outer loop
         vertex 1.831826e+000 1.526412e+000 6.825711e+000
         vertex 1.026669e+000 2.401045e+000 6.825711e+000
         vertex 1.516245e+000 1.772039e+000 6.825711e+000
      endloop
   endfacet
endsolid