solid 2_750
   facet normal -1.000000e+000 0.000000e+000 0.000000e+000
      outer loop
         vertex 0.000000e+000 1.000000e+001 1.000000e+001
         vertex 0.000000e+000 1.000000e+001 0.000000e+000
         vertex 0.000000e+000 0.000000e+000 1.000000e+001
      endloop
   endfacet
   facet normal -1.000000e+000 0.000000e+000 0.000000e+000
      outer loop
         vertex 0.000000e+000 0.000000e+000 1.000000e+001
         vertex 0.000000e+000 1.000000e+001 0.000000e+000
         vertex 0.000000e+000 0.000000e+000 0.000000e+000
      endloop
   endfacet
   facet normal 0.000000e+000 0.000000e+000 1.000000e+000
      outer loop
         vertex 7.746094e+000 4.039104e+000 1.000000e+001
         vertex 7.382433e+000 3.914259e+000 1.000000e+001
         vertex 1.000000e+001 0.000000e+000 1.000000e+001
      endloop
   endfacet
   facet normal 0.000000e+000 0.000000e+000 1.000000e+000
      outer loop
         vertex 0.000000e+000 0.000000e+000 1.000000e+001
         vertex 5.875778e+000 4.039104e+000 1.000000e+001
         vertex 5.537626e+000 4.222104e+000 1.000000e+001
      endloop
   endfacet
   facet normal 0.000000e+000 0.000000e+000 1.000000e+000
      outer loop
         vertex 5.537626e+000 8.119997e+000 1.000000e+001
         vertex 5.875778e+000 8.302996e+000 1.000000e+001
         vertex 0.000000e+000 1.000000e+001 1.000000e+001
      endloop
   endfacet
   facet normal 0.000000e+000 0.000000e+000 1.000000e+000
      outer loop
         vertex 9.107212e+000 5.787869e+000 1.000000e+001
         vertex 1.000000e+001 0.000000e+000 1.000000e+001
         vertex 9.138964e+000 6.171050e+000 1.000000e+001
      endloop
   endfacet
   facet normal 0.000000e+000 0.000000e+000 1.000000e+000
      outer loop
         vertex 9.138964e+000 6.171050e+000 1.000000e+001
         vertex 1.000000e+001 0.000000e+000 1.000000e+001
         vertex 1.000000e+001 1.000000e+001 1.000000e+001
      endloop
   endfacet
   facet normal 0.000000e+000 0.000000e+000 1.000000e+000
      outer loop
         vertex 9.107212e+000 5.787869e+000 1.000000e+001
         vertex 9.012825e+000 5.415141e+000 1.000000e+001
         vertex 1.000000e+001 0.000000e+000 1.000000e+001
      endloop
   endfacet
   facet normal 0.000000e+000 0.000000e+000 1.000000e+000
      outer loop
         vertex 1.000000e+001 0.000000e+000 1.000000e+001
         vertex 9.012825e+000 5.415141e+000 1.000000e+001
         vertex 8.858376e+000 5.063031e+000 1.000000e+001
      endloop
   endfacet
   facet normal 0.000000e+000 0.000000e+000 1.000000e+000
      outer loop
         vertex 1.000000e+001 0.000000e+000 1.000000e+001
         vertex 8.858376e+000 5.063031e+000 1.000000e+001
         vertex 8.648077e+000 4.741146e+000 1.000000e+001
      endloop
   endfacet
   facet normal 0.000000e+000 0.000000e+000 1.000000e+000
      outer loop
         vertex 7.382433e+000 3.914259e+000 1.000000e+001
         vertex 7.003183e+000 3.850974e+000 1.000000e+001
         vertex 1.000000e+001 0.000000e+000 1.000000e+001
      endloop
   endfacet
   facet normal 0.000000e+000 0.000000e+000 1.000000e+000
      outer loop
         vertex 1.000000e+001 0.000000e+000 1.000000e+001
         vertex 7.003183e+000 3.850974e+000 1.000000e+001
         vertex 6.618689e+000 3.850974e+000 1.000000e+001
      endloop
   endfacet
   facet normal 0.000000e+000 0.000000e+000 1.000000e+000
      outer loop
         vertex 1.000000e+001 0.000000e+000 1.000000e+001
         vertex 6.618689e+000 3.850974e+000 1.000000e+001
         vertex 0.000000e+000 0.000000e+000 1.000000e+001
      endloop
   endfacet
   facet normal 0.000000e+000 0.000000e+000 1.000000e+000
      outer loop
         vertex 0.000000e+000 0.000000e+000 1.000000e+001
         vertex 6.618689e+000 3.850974e+000 1.000000e+001
         vertex 6.239439e+000 3.914259e+000 1.000000e+001
      endloop
   endfacet
   facet normal 0.000000e+000 0.000000e+000 1.000000e+000
      outer loop
         vertex 0.000000e+000 0.000000e+000 1.000000e+001
         vertex 6.239439e+000 3.914259e+000 1.000000e+001
         vertex 5.875778e+000 4.039104e+000 1.000000e+001
      endloop
   endfacet
   facet normal 0.000000e+000 0.000000e+000 1.000000e+000
      outer loop
         vertex 5.537626e+000 4.222104e+000 1.000000e+001
         vertex 5.234206e+000 4.458264e+000 1.000000e+001
         vertex 0.000000e+000 0.000000e+000 1.000000e+001
      endloop
   endfacet
   facet normal 0.000000e+000 0.000000e+000 1.000000e+000
      outer loop
         vertex 0.000000e+000 0.000000e+000 1.000000e+001
         vertex 5.234206e+000 4.458264e+000 1.000000e+001
         vertex 4.973795e+000 4.741146e+000 1.000000e+001
      endloop
   endfacet
   facet normal 0.000000e+000 0.000000e+000 1.000000e+000
      outer loop
         vertex 0.000000e+000 0.000000e+000 1.000000e+001
         vertex 4.973795e+000 4.741146e+000 1.000000e+001
         vertex 4.763497e+000 5.063031e+000 1.000000e+001
      endloop
   endfacet
   facet normal 0.000000e+000 0.000000e+000 1.000000e+000
      outer loop
         vertex 8.648077e+000 4.741146e+000 1.000000e+001
         vertex 8.387666e+000 4.458264e+000 1.000000e+001
         vertex 1.000000e+001 0.000000e+000 1.000000e+001
      endloop
   endfacet
   facet normal 0.000000e+000 0.000000e+000 1.000000e+000
      outer loop
         vertex 1.000000e+001 0.000000e+000 1.000000e+001
         vertex 8.387666e+000 4.458264e+000 1.000000e+001
         vertex 8.084247e+000 4.222104e+000 1.000000e+001
      endloop
   endfacet
   facet normal 0.000000e+000 0.000000e+000 1.000000e+000
      outer loop
         vertex 1.000000e+001 0.000000e+000 1.000000e+001
         vertex 8.084247e+000 4.222104e+000 1.000000e+001
         vertex 7.746094e+000 4.039104e+000 1.000000e+001
      endloop
   endfacet
   facet normal 0.000000e+000 0.000000e+000 1.000000e+000
      outer loop
         vertex 4.482909e+000 6.171050e+000 1.000000e+001
         vertex 0.000000e+000 1.000000e+001 1.000000e+001
         vertex 4.514660e+000 5.787869e+000 1.000000e+001
      endloop
   endfacet
   facet normal 0.000000e+000 0.000000e+000 1.000000e+000
      outer loop
         vertex 4.514660e+000 5.787869e+000 1.000000e+001
         vertex 0.000000e+000 1.000000e+001 1.000000e+001
         vertex 0.000000e+000 0.000000e+000 1.000000e+001
      endloop
   endfacet
   facet normal 0.000000e+000 0.000000e+000 1.000000e+000
      outer loop
         vertex 4.514660e+000 5.787869e+000 1.000000e+001
         vertex 0.000000e+000 0.000000e+000 1.000000e+001
         vertex 4.609047e+000 5.415141e+000 1.000000e+001
      endloop
   endfacet
   facet normal 0.000000e+000 0.000000e+000 1.000000e+000
      outer loop
         vertex 4.609047e+000 5.415141e+000 1.000000e+001
         vertex 0.000000e+000 0.000000e+000 1.000000e+001
         vertex 4.763497e+000 5.063031e+000 1.000000e+001
      endloop
   endfacet
   facet normal 0.000000e+000 0.000000e+000 1.000000e+000
      outer loop
         vertex 4.482909e+000 6.171050e+000 1.000000e+001
         vertex 4.514660e+000 6.554231e+000 1.000000e+001
         vertex 0.000000e+000 1.000000e+001 1.000000e+001
      endloop
   endfacet
   facet normal 0.000000e+000 0.000000e+000 1.000000e+000
      outer loop
         vertex 0.000000e+000 1.000000e+001 1.000000e+001
         vertex 4.514660e+000 6.554231e+000 1.000000e+001
         vertex 4.609047e+000 6.926960e+000 1.000000e+001
      endloop
   endfacet
   facet normal 0.000000e+000 0.000000e+000 1.000000e+000
      outer loop
         vertex 0.000000e+000 1.000000e+001 1.000000e+001
         vertex 4.609047e+000 6.926960e+000 1.000000e+001
         vertex 4.763497e+000 7.279068e+000 1.000000e+001
      endloop
   endfacet
   facet normal 0.000000e+000 0.000000e+000 1.000000e+000
      outer loop
         vertex 4.763497e+000 7.279068e+000 1.000000e+001
         vertex 4.973795e+000 7.600954e+000 1.000000e+001
         vertex 0.000000e+000 1.000000e+001 1.000000e+001
      endloop
   endfacet
   facet normal 0.000000e+000 0.000000e+000 1.000000e+000
      outer loop
         vertex 0.000000e+000 1.000000e+001 1.000000e+001
         vertex 4.973795e+000 7.600954e+000 1.000000e+001
         vertex 5.234206e+000 7.883836e+000 1.000000e+001
      endloop
   endfacet
   facet normal 0.000000e+000 0.000000e+000 1.000000e+000
      outer loop
         vertex 0.000000e+000 1.000000e+001 1.000000e+001
         vertex 5.234206e+000 7.883836e+000 1.000000e+001
         vertex 5.537626e+000 8.119997e+000 1.000000e+001
      endloop
   endfacet
   facet normal 0.000000e+000 0.000000e+000 1.000000e+000
      outer loop
         vertex 5.875778e+000 8.302996e+000 1.000000e+001
         vertex 6.239439e+000 8.427840e+000 1.000000e+001
         vertex 0.000000e+000 1.000000e+001 1.000000e+001
      endloop
   endfacet
   facet normal 0.000000e+000 0.000000e+000 1.000000e+000
      outer loop
         vertex 0.000000e+000 1.000000e+001 1.000000e+001
         vertex 6.239439e+000 8.427840e+000 1.000000e+001
         vertex 6.618689e+000 8.491127e+000 1.000000e+001
      endloop
   endfacet
   facet normal 0.000000e+000 0.000000e+000 1.000000e+000
      outer loop
         vertex 0.000000e+000 1.000000e+001 1.000000e+001
         vertex 6.618689e+000 8.491127e+000 1.000000e+001
         vertex 1.000000e+001 1.000000e+001 1.000000e+001
      endloop
   endfacet
   facet normal 0.000000e+000 0.000000e+000 1.000000e+000
      outer loop
         vertex 1.000000e+001 1.000000e+001 1.000000e+001
         vertex 6.618689e+000 8.491127e+000 1.000000e+001
         vertex 7.003183e+000 8.491127e+000 1.000000e+001
      endloop
   endfacet
   facet normal 0.000000e+000 0.000000e+000 1.000000e+000
      outer loop
         vertex 7.003183e+000 8.491127e+000 1.000000e+001
         vertex 7.382433e+000 8.427840e+000 1.000000e+001
         vertex 1.000000e+001 1.000000e+001 1.000000e+001
      endloop
   endfacet
   facet normal 0.000000e+000 0.000000e+000 1.000000e+000
      outer loop
         vertex 1.000000e+001 1.000000e+001 1.000000e+001
         vertex 7.382433e+000 8.427840e+000 1.000000e+001
         vertex 7.746094e+000 8.302996e+000 1.000000e+001
      endloop
   endfacet
   facet normal 0.000000e+000 0.000000e+000 1.000000e+000
      outer loop
         vertex 1.000000e+001 1.000000e+001 1.000000e+001
         vertex 7.746094e+000 8.302996e+000 1.000000e+001
         vertex 8.084247e+000 8.119997e+000 1.000000e+001
      endloop
   endfacet
   facet normal 0.000000e+000 0.000000e+000 1.000000e+000
      outer loop
         vertex 8.858376e+000 7.279068e+000 1.000000e+001
         vertex 9.012825e+000 6.926960e+000 1.000000e+001
         vertex 1.000000e+001 1.000000e+001 1.000000e+001
      endloop
   endfacet
   facet normal 0.000000e+000 0.000000e+000 1.000000e+000
      outer loop
         vertex 1.000000e+001 1.000000e+001 1.000000e+001
         vertex 9.012825e+000 6.926960e+000 1.000000e+001
         vertex 9.107212e+000 6.554231e+000 1.000000e+001
      endloop
   endfacet
   facet normal 0.000000e+000 0.000000e+000 1.000000e+000
      outer loop
         vertex 1.000000e+001 1.000000e+001 1.000000e+001
         vertex 9.107212e+000 6.554231e+000 1.000000e+001
         vertex 9.138964e+000 6.171050e+000 1.000000e+001
      endloop
   endfacet
   facet normal 0.000000e+000 0.000000e+000 1.000000e+000
      outer loop
         vertex 8.084247e+000 8.119997e+000 1.000000e+001
         vertex 8.387666e+000 7.883836e+000 1.000000e+001
         vertex 1.000000e+001 1.000000e+001 1.000000e+001
      endloop
   endfacet
   facet normal 0.000000e+000 0.000000e+000 1.000000e+000
      outer loop
         vertex 1.000000e+001 1.000000e+001 1.000000e+001
         vertex 8.387666e+000 7.883836e+000 1.000000e+001
         vertex 8.648077e+000 7.600954e+000 1.000000e+001
      endloop
   endfacet
   facet normal 0.000000e+000 0.000000e+000 1.000000e+000
      outer loop
         vertex 1.000000e+001 1.000000e+001 1.000000e+001
         vertex 8.648077e+000 7.600954e+000 1.000000e+001
         vertex 8.858376e+000 7.279068e+000 1.000000e+001
      endloop
   endfacet
   facet normal 1.000000e+000 0.000000e+000 0.000000e+000
      outer loop
         vertex 1.000000e+001 1.000000e+001 0.000000e+000
         vertex 1.000000e+001 1.000000e+001 1.000000e+001
         vertex 1.000000e+001 0.000000e+000 0.000000e+000
      endloop
   endfacet
   facet normal 1.000000e+000 0.000000e+000 0.000000e+000
      outer loop
         vertex 1.000000e+001 0.000000e+000 0.000000e+000
         vertex 1.000000e+001 1.000000e+001 1.000000e+001
         vertex 1.000000e+001 0.000000e+000 1.000000e+001
      endloop
   endfacet
   facet normal 0.000000e+000 0.000000e+000 -1.000000e+000
      outer loop
         vertex 0.000000e+000 1.000000e+001 0.000000e+000
         vertex 1.000000e+001 1.000000e+001 0.000000e+000
         vertex 0.000000e+000 0.000000e+000 0.000000e+000
      endloop
   endfacet
   facet normal 0.000000e+000 0.000000e+000 -1.000000e+000
      outer loop
         vertex 0.000000e+000 0.000000e+000 0.000000e+000
         vertex 1.000000e+001 1.000000e+001 0.000000e+000
         vertex 1.000000e+001 0.000000e+000 0.000000e+000
      endloop
   endfacet
   facet normal 0.000000e+000 1.000000e+000 0.000000e+000
      outer loop
         vertex 1.000000e+001 1.000000e+001 1.000000e+001
         vertex 1.000000e+001 1.000000e+001 0.000000e+000
         vertex 0.000000e+000 1.000000e+001 1.000000e+001
      endloop
   endfacet
   facet normal 0.000000e+000 1.000000e+000 0.000000e+000
      outer loop
         vertex 0.000000e+000 1.000000e+001 1.000000e+001
         vertex 1.000000e+001 1.000000e+001 0.000000e+000
         vertex 0.000000e+000 1.000000e+001 0.000000e+000
      endloop
   endfacet
   facet normal 0.000000e+000 -1.000000e+000 0.000000e+000
      outer loop
         vertex 1.000000e+001 0.000000e+000 0.000000e+000
         vertex 1.000000e+001 0.000000e+000 1.000000e+001
         vertex 0.000000e+000 0.000000e+000 0.000000e+000
      endloop
   endfacet
   facet normal 0.000000e+000 -1.000000e+000 0.000000e+000
      outer loop
         vertex 0.000000e+000 0.000000e+000 0.000000e+000
         vertex 1.000000e+001 0.000000e+000 1.000000e+001
         vertex 0.000000e+000 0.000000e+000 1.000000e+001
      endloop
   endfacet
   facet normal -9.984846e-001 5.503191e-002 0.000000e+000
      outer loop
         vertex 9.107212e+000 5.787869e+000 6.415925e+000
         vertex 9.138964e+000 6.171050e+000 1.000000e+001
         vertex 9.138964e+000 6.171050e+000 6.415925e+000
      endloop
   endfacet
   facet normal -9.984846e-001 -5.503191e-002 0.000000e+000
      outer loop
         vertex 9.138964e+000 6.171050e+000 6.415925e+000
         vertex 9.138964e+000 6.171050e+000 1.000000e+001
         vertex 9.107212e+000 6.554231e+000 1.000000e+001
      endloop
   endfacet
   facet normal -9.939246e-001 -1.100638e-001 0.000000e+000
      outer loop
         vertex 9.138964e+000 6.171050e+000 6.415925e+000
         vertex 9.107212e+000 6.554231e+000 1.000000e+001
         vertex 9.107212e+000 6.554231e+000 6.415925e+000
      endloop
   endfacet
   facet normal -9.758086e-001 -2.186265e-001 0.000000e+000
      outer loop
         vertex 9.107212e+000 6.554231e+000 6.415925e+000
         vertex 9.107212e+000 6.554231e+000 1.000000e+001
         vertex 9.012825e+000 6.926960e+000 1.000000e+001
      endloop
   endfacet
   facet normal -9.622528e-001 -2.721573e-001 0.000000e+000
      outer loop
         vertex 9.107212e+000 6.554231e+000 6.415925e+000
         vertex 9.012825e+000 6.926960e+000 1.000000e+001
         vertex 9.012825e+000 6.926960e+000 6.415925e+000
      endloop
   endfacet
   facet normal -9.265151e-001 -3.762575e-001 0.000000e+000
      outer loop
         vertex 9.012825e+000 6.926960e+000 6.415925e+000
         vertex 9.012825e+000 6.926960e+000 1.000000e+001
         vertex 8.858376e+000 7.279068e+000 1.000000e+001
      endloop
   endfacet
   facet normal -9.043333e-001 -4.268270e-001 0.000000e+000
      outer loop
         vertex 9.012825e+000 6.926960e+000 6.415925e+000
         vertex 8.858376e+000 7.279068e+000 1.000000e+001
         vertex 8.858376e+000 7.279068e+000 6.415925e+000
      endloop
   endfacet
   facet normal -8.519487e-001 -5.236253e-001 0.000000e+000
      outer loop
         vertex 8.858376e+000 7.279068e+000 6.415925e+000
         vertex 8.858376e+000 7.279068e+000 1.000000e+001
         vertex 8.648077e+000 7.600954e+000 1.000000e+001
      endloop
   endfacet
   facet normal -8.217459e-001 -5.698540e-001 0.000000e+000
      outer loop
         vertex 8.858376e+000 7.279068e+000 6.415925e+000
         vertex 8.648077e+000 7.600954e+000 1.000000e+001
         vertex 8.648077e+000 7.600954e+000 6.415925e+000
      endloop
   endfacet
   facet normal -7.541434e-001 -6.567098e-001 0.000000e+000
      outer loop
         vertex 8.648077e+000 7.600954e+000 6.415925e+000
         vertex 8.648077e+000 7.600954e+000 1.000000e+001
         vertex 8.387666e+000 7.883836e+000 1.000000e+001
      endloop
   endfacet
   facet normal -7.167435e-001 -6.973369e-001 0.000000e+000
      outer loop
         vertex 8.648077e+000 7.600954e+000 6.415925e+000
         vertex 8.387666e+000 7.883836e+000 1.000000e+001
         vertex 8.387666e+000 7.883836e+000 6.415925e+000
      endloop
   endfacet
   facet normal -6.357669e-001 -7.718811e-001 0.000000e+000
      outer loop
         vertex 8.387666e+000 7.883836e+000 6.415925e+000
         vertex 8.387666e+000 7.883836e+000 1.000000e+001
         vertex 8.084247e+000 8.119997e+000 1.000000e+001
      endloop
   endfacet
   facet normal -5.921901e-001 -8.057982e-001 0.000000e+000
      outer loop
         vertex 8.387666e+000 7.883836e+000 6.415925e+000
         vertex 8.084247e+000 8.119997e+000 1.000000e+001
         vertex 8.084247e+000 8.119997e+000 6.415925e+000
      endloop
   endfacet
   facet normal -5.000484e-001 -8.659974e-001 0.000000e+000
      outer loop
         vertex 8.084247e+000 8.119997e+000 6.415925e+000
         vertex 8.084247e+000 8.119997e+000 1.000000e+001
         vertex 7.746094e+000 8.302996e+000 1.000000e+001
      endloop
   endfacet
   facet normal -4.514834e-001 -8.922795e-001 0.000000e+000
      outer loop
         vertex 8.084247e+000 8.119997e+000 6.415925e+000
         vertex 7.746094e+000 8.302996e+000 1.000000e+001
         vertex 7.746094e+000 8.302996e+000 6.415925e+000
      endloop
   endfacet
   facet normal -3.506899e-001 -9.364916e-001 0.000000e+000
      outer loop
         vertex 7.746094e+000 8.302996e+000 6.415925e+000
         vertex 7.746094e+000 8.302996e+000 1.000000e+001
         vertex 7.382433e+000 8.427840e+000 1.000000e+001
      endloop
   endfacet
   facet normal -2.984614e-001 -9.544217e-001 0.000000e+000
      outer loop
         vertex 7.746094e+000 8.302996e+000 6.415925e+000
         vertex 7.382433e+000 8.427840e+000 1.000000e+001
         vertex 7.382433e+000 8.427840e+000 6.415925e+000
      endloop
   endfacet
   facet normal -1.917655e-001 -9.814408e-001 0.000000e+000
      outer loop
         vertex 7.382433e+000 8.427840e+000 6.415925e+000
         vertex 7.382433e+000 8.427840e+000 1.000000e+001
         vertex 7.003183e+000 8.491127e+000 1.000000e+001
      endloop
   endfacet
   facet normal -1.372982e-001 -9.905298e-001 0.000000e+000
      outer loop
         vertex 7.382433e+000 8.427840e+000 6.415925e+000
         vertex 7.003183e+000 8.491127e+000 1.000000e+001
         vertex 7.003183e+000 8.491127e+000 6.415925e+000
      endloop
   endfacet
   facet normal -2.761026e-002 -9.996188e-001 0.000000e+000
      outer loop
         vertex 7.003183e+000 8.491127e+000 6.415925e+000
         vertex 7.003183e+000 8.491127e+000 1.000000e+001
         vertex 6.618689e+000 8.491127e+000 1.000000e+001
      endloop
   endfacet
   facet normal 2.761026e-002 -9.996188e-001 0.000000e+000
      outer loop
         vertex 7.003183e+000 8.491127e+000 6.415925e+000
         vertex 6.618689e+000 8.491127e+000 1.000000e+001
         vertex 6.618689e+000 8.491127e+000 6.415925e+000
      endloop
   endfacet
   facet normal 1.372982e-001 -9.905298e-001 0.000000e+000
      outer loop
         vertex 6.618689e+000 8.491127e+000 6.415925e+000
         vertex 6.618689e+000 8.491127e+000 1.000000e+001
         vertex 6.239439e+000 8.427840e+000 1.000000e+001
      endloop
   endfacet
   facet normal 1.917655e-001 -9.814408e-001 0.000000e+000
      outer loop
         vertex 6.618689e+000 8.491127e+000 6.415925e+000
         vertex 6.239439e+000 8.427840e+000 1.000000e+001
         vertex 6.239439e+000 8.427840e+000 6.415925e+000
      endloop
   endfacet
   facet normal 2.984614e-001 -9.544217e-001 0.000000e+000
      outer loop
         vertex 6.239439e+000 8.427840e+000 6.415925e+000
         vertex 6.239439e+000 8.427840e+000 1.000000e+001
         vertex 5.875778e+000 8.302996e+000 1.000000e+001
      endloop
   endfacet
   facet normal 3.506899e-001 -9.364916e-001 0.000000e+000
      outer loop
         vertex 6.239439e+000 8.427840e+000 6.415925e+000
         vertex 5.875778e+000 8.302996e+000 1.000000e+001
         vertex 5.875778e+000 8.302996e+000 6.415925e+000
      endloop
   endfacet
   facet normal 4.514834e-001 -8.922795e-001 0.000000e+000
      outer loop
         vertex 5.875778e+000 8.302996e+000 6.415925e+000
         vertex 5.875778e+000 8.302996e+000 1.000000e+001
         vertex 5.537626e+000 8.119997e+000 1.000000e+001
      endloop
   endfacet
   facet normal 5.000484e-001 -8.659974e-001 0.000000e+000
      outer loop
         vertex 5.875778e+000 8.302996e+000 6.415925e+000
         vertex 5.537626e+000 8.119997e+000 1.000000e+001
         vertex 5.537626e+000 8.119997e+000 6.415925e+000
      endloop
   endfacet
   facet normal 5.921901e-001 -8.057982e-001 0.000000e+000
      outer loop
         vertex 5.537626e+000 8.119997e+000 6.415925e+000
         vertex 5.537626e+000 8.119997e+000 1.000000e+001
         vertex 5.234206e+000 7.883836e+000 1.000000e+001
      endloop
   endfacet
   facet normal 6.357669e-001 -7.718811e-001 0.000000e+000
      outer loop
         vertex 5.537626e+000 8.119997e+000 6.415925e+000
         vertex 5.234206e+000 7.883836e+000 1.000000e+001
         vertex 5.234206e+000 7.883836e+000 6.415925e+000
      endloop
   endfacet
   facet normal 7.167435e-001 -6.973369e-001 0.000000e+000
      outer loop
         vertex 5.234206e+000 7.883836e+000 6.415925e+000
         vertex 5.234206e+000 7.883836e+000 1.000000e+001
         vertex 4.973795e+000 7.600954e+000 1.000000e+001
      endloop
   endfacet
   facet normal 7.541434e-001 -6.567098e-001 0.000000e+000
      outer loop
         vertex 5.234206e+000 7.883836e+000 6.415925e+000
         vertex 4.973795e+000 7.600954e+000 1.000000e+001
         vertex 4.973795e+000 7.600954e+000 6.415925e+000
      endloop
   endfacet
   facet normal 8.217459e-001 -5.698540e-001 0.000000e+000
      outer loop
         vertex 4.973795e+000 7.600954e+000 6.415925e+000
         vertex 4.973795e+000 7.600954e+000 1.000000e+001
         vertex 4.763497e+000 7.279068e+000 1.000000e+001
      endloop
   endfacet
   facet normal 8.519487e-001 -5.236253e-001 0.000000e+000
      outer loop
         vertex 4.973795e+000 7.600954e+000 6.415925e+000
         vertex 4.763497e+000 7.279068e+000 1.000000e+001
         vertex 4.763497e+000 7.279068e+000 6.415925e+000
      endloop
   endfacet
   facet normal 9.043333e-001 -4.268270e-001 0.000000e+000
      outer loop
         vertex 4.763497e+000 7.279068e+000 6.415925e+000
         vertex 4.763497e+000 7.279068e+000 1.000000e+001
         vertex 4.609047e+000 6.926960e+000 1.000000e+001
      endloop
   endfacet
   facet normal 9.265151e-001 -3.762575e-001 0.000000e+000
      outer loop
         vertex 4.763497e+000 7.279068e+000 6.415925e+000
         vertex 4.609047e+000 6.926960e+000 1.000000e+001
         vertex 4.609047e+000 6.926960e+000 6.415925e+000
      endloop
   endfacet
   facet normal 9.622528e-001 -2.721573e-001 0.000000e+000
      outer loop
         vertex 4.609047e+000 6.926960e+000 6.415925e+000
         vertex 4.609047e+000 6.926960e+000 1.000000e+001
         vertex 4.514660e+000 6.554231e+000 1.000000e+001
      endloop
   endfacet
   facet normal 9.758086e-001 -2.186265e-001 0.000000e+000
      outer loop
         vertex 4.609047e+000 6.926960e+000 6.415925e+000
         vertex 4.514660e+000 6.554231e+000 1.000000e+001
         vertex 4.514660e+000 6.554231e+000 6.415925e+000
      endloop
   endfacet
   facet normal 9.939246e-001 -1.100638e-001 0.000000e+000
      outer loop
         vertex 4.514660e+000 6.554231e+000 6.415925e+000
         vertex 4.514660e+000 6.554231e+000 1.000000e+001
         vertex 4.482909e+000 6.171050e+000 1.000000e+001
      endloop
   endfacet
   facet normal 9.984846e-001 -5.503191e-002 0.000000e+000
      outer loop
         vertex 4.514660e+000 6.554231e+000 6.415925e+000
         vertex 4.482909e+000 6.171050e+000 1.000000e+001
         vertex 4.482909e+000 6.171050e+000 6.415925e+000
      endloop
   endfacet
   facet normal 9.984846e-001 5.503191e-002 0.000000e+000
      outer loop
         vertex 4.482909e+000 6.171050e+000 6.415925e+000
         vertex 4.482909e+000 6.171050e+000 1.000000e+001
         vertex 4.514660e+000 5.787869e+000 1.000000e+001
      endloop
   endfacet
   facet normal 9.939246e-001 1.100638e-001 0.000000e+000
      outer loop
         vertex 4.482909e+000 6.171050e+000 6.415925e+000
         vertex 4.514660e+000 5.787869e+000 1.000000e+001
         vertex 4.514660e+000 5.787869e+000 6.415925e+000
      endloop
   endfacet
   facet normal 9.758086e-001 2.186265e-001 0.000000e+000
      outer loop
         vertex 4.514660e+000 5.787869e+000 6.415925e+000
         vertex 4.514660e+000 5.787869e+000 1.000000e+001
         vertex 4.609047e+000 5.415141e+000 1.000000e+001
      endloop
   endfacet
   facet normal 9.622528e-001 2.721573e-001 0.000000e+000
      outer loop
         vertex 4.514660e+000 5.787869e+000 6.415925e+000
         vertex 4.609047e+000 5.415141e+000 1.000000e+001
         vertex 4.609047e+000 5.415141e+000 6.415925e+000
      endloop
   endfacet
   facet normal 9.265151e-001 3.762575e-001 0.000000e+000
      outer loop
         vertex 4.609047e+000 5.415141e+000 6.415925e+000
         vertex 4.609047e+000 5.415141e+000 1.000000e+001
         vertex 4.763497e+000 5.063031e+000 1.000000e+001
      endloop
   endfacet
   facet normal 9.043333e-001 4.268270e-001 0.000000e+000
      outer loop
         vertex 4.609047e+000 5.415141e+000 6.415925e+000
         vertex 4.763497e+000 5.063031e+000 1.000000e+001
         vertex 4.763497e+000 5.063031e+000 6.415925e+000
      endloop
   endfacet
   facet normal 8.519487e-001 5.236253e-001 0.000000e+000
      outer loop
         vertex 4.763497e+000 5.063031e+000 6.415925e+000
         vertex 4.763497e+000 5.063031e+000 1.000000e+001
         vertex 4.973795e+000 4.741146e+000 1.000000e+001
      endloop
   endfacet
   facet normal 8.217459e-001 5.698540e-001 0.000000e+000
      outer loop
         vertex 4.763497e+000 5.063031e+000 6.415925e+000
         vertex 4.973795e+000 4.741146e+000 1.000000e+001
         vertex 4.973795e+000 4.741146e+000 6.415925e+000
      endloop
   endfacet
   facet normal 7.541434e-001 6.567098e-001 0.000000e+000
      outer loop
         vertex 4.973795e+000 4.741146e+000 6.415925e+000
         vertex 4.973795e+000 4.741146e+000 1.000000e+001
         vertex 5.234206e+000 4.458264e+000 1.000000e+001
      endloop
   endfacet
   facet normal 7.167435e-001 6.973369e-001 0.000000e+000
      outer loop
         vertex 4.973795e+000 4.741146e+000 6.415925e+000
         vertex 5.234206e+000 4.458264e+000 1.000000e+001
         vertex 5.234206e+000 4.458264e+000 6.415925e+000
      endloop
   endfacet
   facet normal 6.357669e-001 7.718811e-001 0.000000e+000
      outer loop
         vertex 5.234206e+000 4.458264e+000 6.415925e+000
         vertex 5.234206e+000 4.458264e+000 1.000000e+001
         vertex 5.537626e+000 4.222104e+000 1.000000e+001
      endloop
   endfacet
   facet normal 5.921901e-001 8.057982e-001 0.000000e+000
      outer loop
         vertex 5.234206e+000 4.458264e+000 6.415925e+000
         vertex 5.537626e+000 4.222104e+000 1.000000e+001
         vertex 5.537626e+000 4.222104e+000 6.415925e+000
      endloop
   endfacet
   facet normal 5.000484e-001 8.659974e-001 0.000000e+000
      outer loop
         vertex 5.537626e+000 4.222104e+000 6.415925e+000
         vertex 5.537626e+000 4.222104e+000 1.000000e+001
         vertex 5.875778e+000 4.039104e+000 1.000000e+001
      endloop
   endfacet
   facet normal 4.514834e-001 8.922795e-001 0.000000e+000
      outer loop
         vertex 5.537626e+000 4.222104e+000 6.415925e+000
         vertex 5.875778e+000 4.039104e+000 1.000000e+001
         vertex 5.875778e+000 4.039104e+000 6.415925e+000
      endloop
   endfacet
   facet normal 3.506899e-001 9.364916e-001 0.000000e+000
      outer loop
         vertex 5.875778e+000 4.039104e+000 6.415925e+000
         vertex 5.875778e+000 4.039104e+000 1.000000e+001
         vertex 6.239439e+000 3.914259e+000 1.000000e+001
      endloop
   endfacet
   facet normal 2.984614e-001 9.544217e-001 0.000000e+000
      outer loop
         vertex 5.875778e+000 4.039104e+000 6.415925e+000
         vertex 6.239439e+000 3.914259e+000 1.000000e+001
         vertex 6.239439e+000 3.914259e+000 6.415925e+000
      endloop
   endfacet
   facet normal 1.917655e-001 9.814408e-001 0.000000e+000
      outer loop
         vertex 6.239439e+000 3.914259e+000 6.415925e+000
         vertex 6.239439e+000 3.914259e+000 1.000000e+001
         vertex 6.618689e+000 3.850974e+000 1.000000e+001
      endloop
   endfacet
   facet normal 1.372982e-001 9.905298e-001 0.000000e+000
      outer loop
         vertex 6.239439e+000 3.914259e+000 6.415925e+000
         vertex 6.618689e+000 3.850974e+000 1.000000e+001
         vertex 6.618689e+000 3.850974e+000 6.415925e+000
      endloop
   endfacet
   facet normal 2.761026e-002 9.996188e-001 0.000000e+000
      outer loop
         vertex 6.618689e+000 3.850974e+000 6.415925e+000
         vertex 6.618689e+000 3.850974e+000 1.000000e+001
         vertex 7.003183e+000 3.850974e+000 1.000000e+001
      endloop
   endfacet
   facet normal -2.761026e-002 9.996188e-001 0.000000e+000
      outer loop
         vertex 6.618689e+000 3.850974e+000 6.415925e+000
         vertex 7.003183e+000 3.850974e+000 1.000000e+001
         vertex 7.003183e+000 3.850974e+000 6.415925e+000
      endloop
   endfacet
   facet normal -1.372982e-001 9.905298e-001 0.000000e+000
      outer loop
         vertex 7.003183e+000 3.850974e+000 6.415925e+000
         vertex 7.003183e+000 3.850974e+000 1.000000e+001
         vertex 7.382433e+000 3.914259e+000 1.000000e+001
      endloop
   endfacet
   facet normal -1.917655e-001 9.814408e-001 0.000000e+000
      outer loop
         vertex 7.003183e+000 3.850974e+000 6.415925e+000
         vertex 7.382433e+000 3.914259e+000 1.000000e+001
         vertex 7.382433e+000 3.914259e+000 6.415925e+000
      endloop
   endfacet
   facet normal -2.984614e-001 9.544217e-001 0.000000e+000
      outer loop
         vertex 7.382433e+000 3.914259e+000 6.415925e+000
         vertex 7.382433e+000 3.914259e+000 1.000000e+001
         vertex 7.746094e+000 4.039104e+000 1.000000e+001
      endloop
   endfacet
   facet normal -3.506899e-001 9.364916e-001 0.000000e+000
      outer loop
         vertex 7.382433e+000 3.914259e+000 6.415925e+000
         vertex 7.746094e+000 4.039104e+000 1.000000e+001
         vertex 7.746094e+000 4.039104e+000 6.415925e+000
      endloop
   endfacet
   facet normal -4.514834e-001 8.922795e-001 0.000000e+000
      outer loop
         vertex 7.746094e+000 4.039104e+000 6.415925e+000
         vertex 7.746094e+000 4.039104e+000 1.000000e+001
         vertex 8.084247e+000 4.222104e+000 1.000000e+001
      endloop
   endfacet
   facet normal -5.000484e-001 8.659974e-001 0.000000e+000
      outer loop
         vertex 7.746094e+000 4.039104e+000 6.415925e+000
         vertex 8.084247e+000 4.222104e+000 1.000000e+001
         vertex 8.084247e+000 4.222104e+000 6.415925e+000
      endloop
   endfacet
   facet normal -5.921901e-001 8.057982e-001 0.000000e+000
      outer loop
         vertex 8.084247e+000 4.222104e+000 6.415925e+000
         vertex 8.084247e+000 4.222104e+000 1.000000e+001
         vertex 8.387666e+000 4.458264e+000 1.000000e+001
      endloop
   endfacet
   facet normal -6.357669e-001 7.718811e-001 0.000000e+000
      outer loop
         vertex 8.084247e+000 4.222104e+000 6.415925e+000
         vertex 8.387666e+000 4.458264e+000 1.000000e+001
         vertex 8.387666e+000 4.458264e+000 6.415925e+000
      endloop
   endfacet
   facet normal -7.167435e-001 6.973369e-001 0.000000e+000
      outer loop
         vertex 8.387666e+000 4.458264e+000 6.415925e+000
         vertex 8.387666e+000 4.458264e+000 1.000000e+001
         vertex 8.648077e+000 4.741146e+000 1.000000e+001
      endloop
   endfacet
   facet normal -7.541434e-001 6.567098e-001 0.000000e+000
      outer loop
         vertex 8.387666e+000 4.458264e+000 6.415925e+000
         vertex 8.648077e+000 4.741146e+000 1.000000e+001
         vertex 8.648077e+000 4.741146e+000 6.415925e+000
      endloop
   endfacet
   facet normal -8.217459e-001 5.698540e-001 0.000000e+000
      outer loop
         vertex 8.648077e+000 4.741146e+000 6.415925e+000
         vertex 8.648077e+000 4.741146e+000 1.000000e+001
         vertex 8.858376e+000 5.063031e+000 1.000000e+001
      endloop
   endfacet
   facet normal -8.519487e-001 5.236253e-001 0.000000e+000
      outer loop
         vertex 8.648077e+000 4.741146e+000 6.415925e+000
         vertex 8.858376e+000 5.063031e+000 1.000000e+001
         vertex 8.858376e+000 5.063031e+000 6.415925e+000
      endloop
   endfacet
   facet normal -9.043333e-001 4.268270e-001 0.000000e+000
      outer loop
         vertex 8.858376e+000 5.063031e+000 6.415925e+000
         vertex 8.858376e+000 5.063031e+000 1.000000e+001
         vertex 9.012825e+000 5.415141e+000 1.000000e+001
      endloop
   endfacet
   facet normal -9.265151e-001 3.762575e-001 0.000000e+000
      outer loop
         vertex 8.858376e+000 5.063031e+000 6.415925e+000
         vertex 9.012825e+000 5.415141e+000 1.000000e+001
         vertex 9.012825e+000 5.415141e+000 6.415925e+000
      endloop
   endfacet
   facet normal -9.622528e-001 2.721573e-001 0.000000e+000
      outer loop
         vertex 9.012825e+000 5.415141e+000 6.415925e+000
         vertex 9.012825e+000 5.415141e+000 1.000000e+001
         vertex 9.107212e+000 5.787869e+000 1.000000e+001
      endloop
   endfacet
   facet normal -9.758086e-001 2.186265e-001 0.000000e+000
      outer loop
         vertex 9.012825e+000 5.415141e+000 6.415925e+000
         vertex 9.107212e+000 5.787869e+000 1.000000e+001
         vertex 9.107212e+000 5.787869e+000 6.415925e+000
      endloop
   endfacet
   facet normal -9.939246e-001 1.100638e-001 0.000000e+000
      outer loop
         vertex 9.107212e+000 5.787869e+000 6.415925e+000
         vertex 9.107212e+000 5.787869e+000 1.000000e+001
         vertex 9.138964e+000 6.171050e+000 1.000000e+001
      endloop
   endfacet
   facet normal 0.000000e+000 0.000000e+000 1.000000e+000
      outer loop
         vertex 9.138964e+000 6.171050e+000 6.415925e+000
         vertex 9.107212e+000 6.554231e+000 6.415925e+000
         vertex 4.609047e+000 6.926960e+000 6.415925e+000
      endloop
   endfacet
   facet normal 0.000000e+000 0.000000e+000 1.000000e+000
      outer loop
         vertex 9.012825e+000 5.415141e+000 6.415925e+000
         vertex 4.514660e+000 6.554231e+000 6.415925e+000
         vertex 4.482909e+000 6.171050e+000 6.415925e+000
      endloop
   endfacet
   facet normal 0.000000e+000 0.000000e+000 1.000000e+000
      outer loop
         vertex 4.482909e+000 6.171050e+000 6.415925e+000
         vertex 4.514660e+000 5.787869e+000 6.415925e+000
         vertex 9.012825e+000 5.415141e+000 6.415925e+000
      endloop
   endfacet
   facet normal 0.000000e+000 0.000000e+000 1.000000e+000
      outer loop
         vertex 9.012825e+000 5.415141e+000 6.415925e+000
         vertex 4.514660e+000 5.787869e+000 6.415925e+000
         vertex 4.609047e+000 5.415141e+000 6.415925e+000
      endloop
   endfacet
   facet normal 0.000000e+000 0.000000e+000 1.000000e+000
      outer loop
         vertex 9.012825e+000 5.415141e+000 6.415925e+000
         vertex 4.609047e+000 5.415141e+000 6.415925e+000
         vertex 4.763497e+000 5.063031e+000 6.415925e+000
      endloop
   endfacet
   facet normal 0.000000e+000 0.000000e+000 1.000000e+000
      outer loop
         vertex 5.875778e+000 4.039104e+000 6.415925e+000
         vertex 6.239439e+000 3.914259e+000 6.415925e+000
         vertex 8.387666e+000 4.458264e+000 6.415925e+000
      endloop
   endfacet
   facet normal 0.000000e+000 0.000000e+000 1.000000e+000
      outer loop
         vertex 4.514660e+000 6.554231e+000 6.415925e+000
         vertex 9.012825e+000 5.415141e+000 6.415925e+000
         vertex 4.609047e+000 6.926960e+000 6.415925e+000
      endloop
   endfacet
   facet normal 0.000000e+000 0.000000e+000 1.000000e+000
      outer loop
         vertex 4.609047e+000 6.926960e+000 6.415925e+000
         vertex 9.012825e+000 5.415141e+000 6.415925e+000
         vertex 9.107212e+000 5.787869e+000 6.415925e+000
      endloop
   endfacet
   facet normal 0.000000e+000 0.000000e+000 1.000000e+000
      outer loop
         vertex 4.609047e+000 6.926960e+000 6.415925e+000
         vertex 9.107212e+000 5.787869e+000 6.415925e+000
         vertex 9.138964e+000 6.171050e+000 6.415925e+000
      endloop
   endfacet
   facet normal 0.000000e+000 0.000000e+000 1.000000e+000
      outer loop
         vertex 4.763497e+000 5.063031e+000 6.415925e+000
         vertex 4.973795e+000 4.741146e+000 6.415925e+000
         vertex 9.012825e+000 5.415141e+000 6.415925e+000
      endloop
   endfacet
   facet normal 0.000000e+000 0.000000e+000 1.000000e+000
      outer loop
         vertex 9.012825e+000 5.415141e+000 6.415925e+000
         vertex 4.973795e+000 4.741146e+000 6.415925e+000
         vertex 5.234206e+000 4.458264e+000 6.415925e+000
      endloop
   endfacet
   facet normal 0.000000e+000 0.000000e+000 1.000000e+000
      outer loop
         vertex 9.012825e+000 5.415141e+000 6.415925e+000
         vertex 5.234206e+000 4.458264e+000 6.415925e+000
         vertex 8.858376e+000 5.063031e+000 6.415925e+000
      endloop
   endfacet
   facet normal 0.000000e+000 0.000000e+000 1.000000e+000
      outer loop
         vertex 8.858376e+000 5.063031e+000 6.415925e+000
         vertex 5.234206e+000 4.458264e+000 6.415925e+000
         vertex 8.648077e+000 4.741146e+000 6.415925e+000
      endloop
   endfacet
   facet normal 0.000000e+000 0.000000e+000 1.000000e+000
      outer loop
         vertex 9.107212e+000 6.554231e+000 6.415925e+000
         vertex 9.012825e+000 6.926960e+000 6.415925e+000
         vertex 4.609047e+000 6.926960e+000 6.415925e+000
      endloop
   endfacet
   facet normal 0.000000e+000 0.000000e+000 1.000000e+000
      outer loop
         vertex 4.609047e+000 6.926960e+000 6.415925e+000
         vertex 9.012825e+000 6.926960e+000 6.415925e+000
         vertex 8.858376e+000 7.279068e+000 6.415925e+000
      endloop
   endfacet
   facet normal 0.000000e+000 0.000000e+000 1.000000e+000
      outer loop
         vertex 4.609047e+000 6.926960e+000 6.415925e+000
         vertex 8.858376e+000 7.279068e+000 6.415925e+000
         vertex 8.648077e+000 7.600954e+000 6.415925e+000
      endloop
   endfacet
   facet normal 0.000000e+000 0.000000e+000 1.000000e+000
      outer loop
         vertex 8.648077e+000 7.600954e+000 6.415925e+000
         vertex 8.387666e+000 7.883836e+000 6.415925e+000
         vertex 4.609047e+000 6.926960e+000 6.415925e+000
      endloop
   endfacet
   facet normal 0.000000e+000 0.000000e+000 1.000000e+000
      outer loop
         vertex 4.609047e+000 6.926960e+000 6.415925e+000
         vertex 8.387666e+000 7.883836e+000 6.415925e+000
         vertex 8.084247e+000 8.119997e+000 6.415925e+000
      endloop
   endfacet
   facet normal 0.000000e+000 0.000000e+000 1.000000e+000
      outer loop
         vertex 4.609047e+000 6.926960e+000 6.415925e+000
         vertex 8.084247e+000 8.119997e+000 6.415925e+000
         vertex 7.746094e+000 8.302996e+000 6.415925e+000
      endloop
   endfacet
   facet normal 0.000000e+000 0.000000e+000 1.000000e+000
      outer loop
         vertex 5.234206e+000 7.883836e+000 6.415925e+000
         vertex 4.973795e+000 7.600954e+000 6.415925e+000
         vertex 6.618689e+000 8.491127e+000 6.415925e+000
      endloop
   endfacet
   facet normal 0.000000e+000 0.000000e+000 1.000000e+000
      outer loop
         vertex 6.618689e+000 8.491127e+000 6.415925e+000
         vertex 4.973795e+000 7.600954e+000 6.415925e+000
         vertex 4.763497e+000 7.279068e+000 6.415925e+000
      endloop
   endfacet
   facet normal 0.000000e+000 0.000000e+000 1.000000e+000
      outer loop
         vertex 6.618689e+000 8.491127e+000 6.415925e+000
         vertex 4.763497e+000 7.279068e+000 6.415925e+000
         vertex 4.609047e+000 6.926960e+000 6.415925e+000
      endloop
   endfacet
   facet normal 0.000000e+000 0.000000e+000 1.000000e+000
      outer loop
         vertex 8.648077e+000 4.741146e+000 6.415925e+000
         vertex 5.234206e+000 4.458264e+000 6.415925e+000
         vertex 8.387666e+000 4.458264e+000 6.415925e+000
      endloop
   endfacet
   facet normal 0.000000e+000 0.000000e+000 1.000000e+000
      outer loop
         vertex 8.387666e+000 4.458264e+000 6.415925e+000
         vertex 5.234206e+000 4.458264e+000 6.415925e+000
         vertex 5.537626e+000 4.222104e+000 6.415925e+000
      endloop
   endfacet
   facet normal 0.000000e+000 0.000000e+000 1.000000e+000
      outer loop
         vertex 8.387666e+000 4.458264e+000 6.415925e+000
         vertex 5.537626e+000 4.222104e+000 6.415925e+000
         vertex 5.875778e+000 4.039104e+000 6.415925e+000
      endloop
   endfacet
   facet normal 0.000000e+000 0.000000e+000 1.000000e+000
      outer loop
         vertex 7.003183e+000 3.850974e+000 6.415925e+000
         vertex 7.382433e+000 3.914259e+000 6.415925e+000
         vertex 7.746094e+000 4.039104e+000 6.415925e+000
      endloop
   endfacet
   facet normal 0.000000e+000 0.000000e+000 1.000000e+000
      outer loop
         vertex 7.746094e+000 8.302996e+000 6.415925e+000
         vertex 7.382433e+000 8.427840e+000 6.415925e+000
         vertex 4.609047e+000 6.926960e+000 6.415925e+000
      endloop
   endfacet
   facet normal 0.000000e+000 0.000000e+000 1.000000e+000
      outer loop
         vertex 4.609047e+000 6.926960e+000 6.415925e+000
         vertex 7.382433e+000 8.427840e+000 6.415925e+000
         vertex 7.003183e+000 8.491127e+000 6.415925e+000
      endloop
   endfacet
   facet normal 0.000000e+000 0.000000e+000 1.000000e+000
      outer loop
         vertex 4.609047e+000 6.926960e+000 6.415925e+000
         vertex 7.003183e+000 8.491127e+000 6.415925e+000
         vertex 6.618689e+000 8.491127e+000 6.415925e+000
      endloop
   endfacet
   facet normal 0.000000e+000 0.000000e+000 1.000000e+000
      outer loop
         vertex 6.239439e+000 3.914259e+000 6.415925e+000
         vertex 6.618689e+000 3.850974e+000 6.415925e+000
         vertex 8.387666e+000 4.458264e+000 6.415925e+000
      endloop
   endfacet
   facet normal 0.000000e+000 0.000000e+000 1.000000e+000
      outer loop
         vertex 8.387666e+000 4.458264e+000 6.415925e+000
         vertex 6.618689e+000 3.850974e+000 6.415925e+000
         vertex 7.003183e+000 3.850974e+000 6.415925e+000
      endloop
   endfacet
   facet normal 0.000000e+000 0.000000e+000 1.000000e+000
      outer loop
         vertex 8.387666e+000 4.458264e+000 6.415925e+000
         vertex 7.003183e+000 3.850974e+000 6.415925e+000
         vertex 8.084247e+000 4.222104e+000 6.415925e+000
      endloop
   endfacet
   facet normal 0.000000e+000 0.000000e+000 1.000000e+000
      outer loop
         vertex 8.084247e+000 4.222104e+000 6.415925e+000
         vertex 7.003183e+000 3.850974e+000 6.415925e+000
         vertex 7.746094e+000 4.039104e+000 6.415925e+000
      endloop
   endfacet
   facet normal 0.000000e+000 0.000000e+000 1.000000e+000
      outer loop
         vertex 5.234206e+000 7.883836e+000 6.415925e+000
         vertex 6.618689e+000 8.491127e+000 6.415925e+000
         vertex 5.537626e+000 8.119997e+000 6.415925e+000
      endloop
   endfacet
   facet normal 0.000000e+000 0.000000e+000 1.000000e+000
      outer loop
         vertex 5.537626e+000 8.119997e+000 6.415925e+000
         vertex 6.618689e+000 8.491127e+000 6.415925e+000
         vertex 6.239439e+000 8.427840e+000 6.415925e+000
      endloop
   endfacet
   facet normal 0.000000e+000 0.000000e+000 1.000000e+000
      outer loop
         vertex 5.537626e+000 8.119997e+000 6.415925e+000
         vertex 6.239439e+000 8.427840e+000 6.415925e+000
         vertex 5.875778e+000 8.302996e+000 6.415925e+000
      endloop
   endfacet
endsolid