solid 3_473
   facet normal -1.000000e+000 0.000000e+000 0.000000e+000
      outer loop
         vertex 0.000000e+000 1.000000e+001 1.000000e+001
         vertex 0.000000e+000 1.000000e+001 0.000000e+000
         vertex 0.000000e+000 0.000000e+000 1.000000e+001
      endloop
   endfacet
   facet normal -1.000000e+000 0.000000e+000 0.000000e+000
      outer loop
         vertex 0.000000e+000 0.000000e+000 1.000000e+001
         vertex 0.000000e+000 1.000000e+001 0.000000e+000
         vertex 0.000000e+000 0.000000e+000 0.000000e+000
      endloop
   endfacet
   facet normal 0.000000e+000 0.000000e+000 1.000000e+000
      outer loop
         vertex 4.897511e+000 8.052283e+000 1.000000e+001
         vertex 0.000000e+000 1.000000e+001 1.000000e+001
         vertex 7.166582e-001 8.108330e-001 1.000000e+001
      endloop
   endfacet
   facet normal 0.000000e+000 0.000000e+000 1.000000e+000
      outer loop
         vertex 7.166582e-001 8.108330e-001 1.000000e+001
         vertex 0.000000e+000 1.000000e+001 1.000000e+001
         vertex 0.000000e+000 0.000000e+000 1.000000e+001
      endloop
   endfacet
   facet normal 0.000000e+000 0.000000e+000 1.000000e+000
      outer loop
         vertex 7.166582e-001 8.108330e-001 1.000000e+001
         vertex 0.000000e+000 0.000000e+000 1.000000e+001
         vertex 9.078364e+000 8.108330e-001 1.000000e+001
      endloop
   endfacet
   facet normal 0.000000e+000 0.000000e+000 1.000000e+000
      outer loop
         vertex 9.078364e+000 8.108330e-001 1.000000e+001
         vertex 0.000000e+000 0.000000e+000 1.000000e+001
         vertex 1.000000e+001 0.000000e+000 1.000000e+001
      endloop
   endfacet
   facet normal 0.000000e+000 0.000000e+000 1.000000e+000
      outer loop
         vertex 9.078364e+000 8.108330e-001 1.000000e+001
         vertex 1.000000e+001 0.000000e+000 1.000000e+001
         vertex 4.897511e+000 8.052283e+000 1.000000e+001
      endloop
   endfacet
   facet normal 0.000000e+000 0.000000e+000 1.000000e+000
      outer loop
         vertex 4.897511e+000 8.052283e+000 1.000000e+001
         vertex 1.000000e+001 0.000000e+000 1.000000e+001
         vertex 1.000000e+001 1.000000e+001 1.000000e+001
      endloop
   endfacet
   facet normal 0.000000e+000 0.000000e+000 1.000000e+000
      outer loop
         vertex 4.897511e+000 8.052283e+000 1.000000e+001
         vertex 1.000000e+001 1.000000e+001 1.000000e+001
         vertex 0.000000e+000 1.000000e+001 1.000000e+001
      endloop
   endfacet
   facet normal 1.000000e+000 0.000000e+000 0.000000e+000
      outer loop
         vertex 1.000000e+001 1.000000e+001 0.000000e+000
         vertex 1.000000e+001 1.000000e+001 1.000000e+001
         vertex 1.000000e+001 0.000000e+000 0.000000e+000
      endloop
   endfacet
   facet normal 1.000000e+000 0.000000e+000 0.000000e+000
      outer loop
         vertex 1.000000e+001 0.000000e+000 0.000000e+000
         vertex 1.000000e+001 1.000000e+001 1.000000e+001
         vertex 1.000000e+001 0.000000e+000 1.000000e+001
      endloop
   endfacet
   facet normal 0.000000e+000 0.000000e+000 -1.000000e+000
      outer loop
         vertex 1.000000e+001 0.000000e+000 0.000000e+000
         vertex 0.000000e+000 0.000000e+000 0.000000e+000
         vertex 7.166582e-001 8.108330e-001 0.000000e+000
      endloop
   endfacet
   facet normal 0.000000e+000 0.000000e+000 -1.000000e+000
      outer loop
         vertex 7.166582e-001 8.108330e-001 0.000000e+000
         vertex 0.000000e+000 0.000000e+000 0.000000e+000
         vertex 0.000000e+000 1.000000e+001 0.000000e+000
      endloop
   endfacet
   facet normal 0.000000e+000 0.000000e+000 -1.000000e+000
      outer loop
         vertex 7.166582e-001 8.108330e-001 0.000000e+000
         vertex 0.000000e+000 1.000000e+001 0.000000e+000
         vertex 4.897511e+000 8.052283e+000 0.000000e+000
      endloop
   endfacet
   facet normal 0.000000e+000 0.000000e+000 -1.000000e+000
      outer loop
         vertex 4.897511e+000 8.052283e+000 0.000000e+000
         vertex 0.000000e+000 1.000000e+001 0.000000e+000
         vertex 1.000000e+001 1.000000e+001 0.000000e+000
      endloop
   endfacet
   facet normal 0.000000e+000 0.000000e+000 -1.000000e+000
      outer loop
         vertex 4.897511e+000 8.052283e+000 0.000000e+000
         vertex 1.000000e+001 1.000000e+001 0.000000e+000
         vertex 9.078364e+000 8.108330e-001 0.000000e+000
      endloop
   endfacet
   facet normal 0.000000e+000 0.000000e+000 -1.000000e+000
      outer loop
         vertex 9.078364e+000 8.108330e-001 0.000000e+000
         vertex 1.000000e+001 1.000000e+001 0.000000e+000
         vertex 1.000000e+001 0.000000e+000 0.000000e+000
      endloop
   endfacet
   facet normal 0.000000e+000 0.000000e+000 -1.000000e+000
      outer loop
         vertex 9.078364e+000 8.108330e-001 0.000000e+000
         vertex 1.000000e+001 0.000000e+000 0.000000e+000
         vertex 7.166582e-001 8.108330e-001 0.000000e+000
      endloop
   endfacet
   facet normal 0.000000e+000 1.000000e+000 0.000000e+000
      outer loop
         vertex 1.000000e+001 1.000000e+001 1.000000e+001
         vertex 1.000000e+001 1.000000e+001 0.000000e+000
         vertex 0.000000e+000 1.000000e+001 1.000000e+001
      endloop
   endfacet
   facet normal 0.000000e+000 1.000000e+000 0.000000e+000
      outer loop
         vertex 0.000000e+000 1.000000e+001 1.000000e+001
         vertex 1.000000e+001 1.000000e+001 0.000000e+000
         vertex 0.000000e+000 1.000000e+001 0.000000e+000
      endloop
   endfacet
   facet normal 0.000000e+000 -1.000000e+000 0.000000e+000
      outer loop
         vertex 1.000000e+001 0.000000e+000 0.000000e+000
         vertex 1.000000e+001 0.000000e+000 1.000000e+001
         vertex 0.000000e+000 0.000000e+000 0.000000e+000
      endloop
   endfacet
   facet normal 0.000000e+000 -1.000000e+000 0.000000e+000
      outer loop
         vertex 0.000000e+000 0.000000e+000 0.000000e+000
         vertex 1.000000e+001 0.000000e+000 1.000000e+001
         vertex 0.000000e+000 0.000000e+000 1.000000e+001
      endloop
   endfacet
   facet normal 8.660254e-001 -5.000000e-001 0.000000e+000
      outer loop
         vertex 7.166582e-001 8.108330e-001 0.000000e+000
         vertex 4.897511e+000 8.052283e+000 0.000000e+000
         vertex 7.166582e-001 8.108330e-001 1.000000e+001
      endloop
   endfacet
   facet normal 8.660254e-001 -5.000000e-001 0.000000e+000
      outer loop
         vertex 7.166582e-001 8.108330e-001 1.000000e+001
         vertex 4.897511e+000 8.052283e+000 0.000000e+000
         vertex 4.897511e+000 8.052283e+000 1.000000e+001
      endloop
   endfacet
   facet normal -8.660254e-001 -5.000000e-001 0.000000e+000
      outer loop
         vertex 4.897511e+000 8.052283e+000 0.000000e+000
         vertex 9.078364e+000 8.108330e-001 0.000000e+000
         vertex 4.897511e+000 8.052283e+000 1.000000e+001
      endloop
   endfacet
   facet normal -8.660254e-001 -5.000000e-001 0.000000e+000
      outer loop
         vertex 4.897511e+000 8.052283e+000 1.000000e+001
         vertex 9.078364e+000 8.108330e-001 0.000000e+000
         vertex 9.078364e+000 8.108330e-001 1.000000e+001
      endloop
   endfacet
   facet normal 0.000000e+000 1.000000e+000 0.000000e+000
      outer loop
         vertex 9.078364e+000 8.108330e-001 0.000000e+000
         vertex 7.166582e-001 8.108330e-001 0.000000e+000
         vertex 9.078364e+000 8.108330e-001 1.000000e+001
      endloop
   endfacet
   facet normal 0.000000e+000 1.000000e+000 0.000000e+000
      outer loop
         vertex 9.078364e+000 8.108330e-001 1.000000e+001
         vertex 7.166582e-001 8.108330e-001 0.000000e+000
         vertex 7.166582e-001 8.108330e-001 1.000000e+001
      endloop
   endfacet
endsolid