solid 3_486
   facet normal -1.000000e+000 0.000000e+000 0.000000e+000
      outer loop
         vertex 0.000000e+000 1.000000e+001 1.000000e+001
         vertex 0.000000e+000 1.000000e+001 0.000000e+000
         vertex 0.000000e+000 0.000000e+000 1.000000e+001
      endloop
   endfacet
   facet normal -1.000000e+000 0.000000e+000 0.000000e+000
      outer loop
         vertex 0.000000e+000 0.000000e+000 1.000000e+001
         vertex 0.000000e+000 1.000000e+001 0.000000e+000
         vertex 0.000000e+000 0.000000e+000 0.000000e+000
      endloop
   endfacet
   facet normal 0.000000e+000 0.000000e+000 1.000000e+000
      outer loop
         vertex 0.000000e+000 0.000000e+000 1.000000e+001
         vertex 1.000000e+001 0.000000e+000 1.000000e+001
         vertex 3.547515e+000 7.490218e+000 1.000000e+001
      endloop
   endfacet
   facet normal 0.000000e+000 0.000000e+000 1.000000e+000
      outer loop
         vertex 3.547515e+000 7.490218e+000 1.000000e+001
         vertex 1.000000e+001 0.000000e+000 1.000000e+001
         vertex 1.000000e+001 1.000000e+001 1.000000e+001
      endloop
   endfacet
   facet normal 0.000000e+000 0.000000e+000 1.000000e+000
      outer loop
         vertex 3.547515e+000 7.490218e+000 1.000000e+001
         vertex 1.000000e+001 1.000000e+001 1.000000e+001
         vertex 2.992571e+000 8.451409e+000 1.000000e+001
      endloop
   endfacet
   facet normal 0.000000e+000 0.000000e+000 1.000000e+000
      outer loop
         vertex 2.992571e+000 8.451409e+000 1.000000e+001
         vertex 1.000000e+001 1.000000e+001 1.000000e+001
         vertex 0.000000e+000 1.000000e+001 1.000000e+001
      endloop
   endfacet
   facet normal 0.000000e+000 0.000000e+000 1.000000e+000
      outer loop
         vertex 2.992571e+000 8.451409e+000 1.000000e+001
         vertex 0.000000e+000 1.000000e+001 1.000000e+001
         vertex 2.437626e+000 7.490218e+000 1.000000e+001
      endloop
   endfacet
   facet normal 0.000000e+000 0.000000e+000 1.000000e+000
      outer loop
         vertex 2.437626e+000 7.490218e+000 1.000000e+001
         vertex 0.000000e+000 1.000000e+001 1.000000e+001
         vertex 0.000000e+000 0.000000e+000 1.000000e+001
      endloop
   endfacet
   facet normal 0.000000e+000 0.000000e+000 1.000000e+000
      outer loop
         vertex 2.437626e+000 7.490218e+000 1.000000e+001
         vertex 0.000000e+000 0.000000e+000 1.000000e+001
         vertex 3.547515e+000 7.490218e+000 1.000000e+001
      endloop
   endfacet
   facet normal 1.000000e+000 0.000000e+000 0.000000e+000
      outer loop
         vertex 1.000000e+001 1.000000e+001 0.000000e+000
         vertex 1.000000e+001 1.000000e+001 1.000000e+001
         vertex 1.000000e+001 0.000000e+000 0.000000e+000
      endloop
   endfacet
   facet normal 1.000000e+000 0.000000e+000 0.000000e+000
      outer loop
         vertex 1.000000e+001 0.000000e+000 0.000000e+000
         vertex 1.000000e+001 1.000000e+001 1.000000e+001
         vertex 1.000000e+001 0.000000e+000 1.000000e+001
      endloop
   endfacet
   facet normal 0.000000e+000 0.000000e+000 -1.000000e+000
      outer loop
         vertex 1.000000e+001 0.000000e+000 0.000000e+000
         vertex 0.000000e+000 0.000000e+000 0.000000e+000
         vertex 2.437626e+000 7.490218e+000 0.000000e+000
      endloop
   endfacet
   facet normal 0.000000e+000 0.000000e+000 -1.000000e+000
      outer loop
         vertex 2.437626e+000 7.490218e+000 0.000000e+000
         vertex 0.000000e+000 0.000000e+000 0.000000e+000
         vertex 0.000000e+000 1.000000e+001 0.000000e+000
      endloop
   endfacet
   facet normal 0.000000e+000 0.000000e+000 -1.000000e+000
      outer loop
         vertex 2.437626e+000 7.490218e+000 0.000000e+000
         vertex 0.000000e+000 1.000000e+001 0.000000e+000
         vertex 2.992571e+000 8.451409e+000 0.000000e+000
      endloop
   endfacet
   facet normal 0.000000e+000 0.000000e+000 -1.000000e+000
      outer loop
         vertex 2.992571e+000 8.451409e+000 0.000000e+000
         vertex 0.000000e+000 1.000000e+001 0.000000e+000
         vertex 1.000000e+001 1.000000e+001 0.000000e+000
      endloop
   endfacet
   facet normal 0.000000e+000 0.000000e+000 -1.000000e+000
      outer loop
         vertex 2.992571e+000 8.451409e+000 0.000000e+000
         vertex 1.000000e+001 1.000000e+001 0.000000e+000
         vertex 3.547515e+000 7.490218e+000 0.000000e+000
      endloop
   endfacet
   facet normal 0.000000e+000 0.000000e+000 -1.000000e+000
      outer loop
         vertex 3.547515e+000 7.490218e+000 0.000000e+000
         vertex 1.000000e+001 1.000000e+001 0.000000e+000
         vertex 1.000000e+001 0.000000e+000 0.000000e+000
      endloop
   endfacet
   facet normal 0.000000e+000 0.000000e+000 -1.000000e+000
      outer loop
         vertex 3.547515e+000 7.490218e+000 0.000000e+000
         vertex 1.000000e+001 0.000000e+000 0.000000e+000
         vertex 2.437626e+000 7.490218e+000 0.000000e+000
      endloop
   endfacet
   facet normal 0.000000e+000 1.000000e+000 0.000000e+000
      outer loop
         vertex 1.000000e+001 1.000000e+001 1.000000e+001
         vertex 1.000000e+001 1.000000e+001 0.000000e+000
         vertex 0.000000e+000 1.000000e+001 1.000000e+001
      endloop
   endfacet
   facet normal 0.000000e+000 1.000000e+000 0.000000e+000
      outer loop
         vertex 0.000000e+000 1.000000e+001 1.000000e+001
         vertex 1.000000e+001 1.000000e+001 0.000000e+000
         vertex 0.000000e+000 1.000000e+001 0.000000e+000
      endloop
   endfacet
   facet normal 0.000000e+000 -1.000000e+000 0.000000e+000
      outer loop
         vertex 1.000000e+001 0.000000e+000 0.000000e+000
         vertex 1.000000e+001 0.000000e+000 1.000000e+001
         vertex 0.000000e+000 0.000000e+000 0.000000e+000
      endloop
   endfacet
   facet normal 0.000000e+000 -1.000000e+000 0.000000e+000
      outer loop
         vertex 0.000000e+000 0.000000e+000 0.000000e+000
         vertex 1.000000e+001 0.000000e+000 1.000000e+001
         vertex 0.000000e+000 0.000000e+000 1.000000e+001
      endloop
   endfacet
   facet normal 8.660254e-001 -5.000000e-001 0.000000e+000
      outer loop
         vertex 2.437626e+000 7.490218e+000 0.000000e+000
         vertex 2.992571e+000 8.451409e+000 0.000000e+000
         vertex 2.437626e+000 7.490218e+000 1.000000e+001
      endloop
   endfacet
   facet normal 8.660254e-001 -5.000000e-001 0.000000e+000
      outer loop
         vertex 2.437626e+000 7.490218e+000 1.000000e+001
         vertex 2.992571e+000 8.451409e+000 0.000000e+000
         vertex 2.992571e+000 8.451409e+000 1.000000e+001
      endloop
   endfacet
   facet normal -8.660254e-001 -5.000000e-001 0.000000e+000
      outer loop
         vertex 2.992571e+000 8.451409e+000 0.000000e+000
         vertex 3.547515e+000 7.490218e+000 0.000000e+000
         vertex 2.992571e+000 8.451409e+000 1.000000e+001
      endloop
   endfacet
   facet normal -8.660254e-001 -5.000000e-001 0.000000e+000
      outer loop
         vertex 2.992571e+000 8.451409e+000 1.000000e+001
         vertex 3.547515e+000 7.490218e+000 0.000000e+000
         vertex 3.547515e+000 7.490218e+000 1.000000e+001
      endloop
   endfacet
   facet normal 0.000000e+000 1.000000e+000 0.000000e+000
      outer loop
         vertex 3.547515e+000 7.490218e+000 0.000000e+000
         vertex 2.437626e+000 7.490218e+000 0.000000e+000
         vertex 3.547515e+000 7.490218e+000 1.000000e+001
      endloop
   endfacet
   facet normal 0.000000e+000 1.000000e+000 0.000000e+000
      outer loop
         vertex 3.547515e+000 7.490218e+000 1.000000e+001
         vertex 2.437626e+000 7.490218e+000 0.000000e+000
         vertex 2.437626e+000 7.490218e+000 1.000000e+001
      endloop
   endfacet
endsolid