solid 3_719
   facet normal -1.000000e+000 0.000000e+000 0.000000e+000
      outer loop
         vertex 0.000000e+000 1.000000e+001 1.000000e+001
         vertex 0.000000e+000 1.000000e+001 0.000000e+000
         vertex 0.000000e+000 0.000000e+000 1.000000e+001
      endloop
   endfacet
   facet normal -1.000000e+000 0.000000e+000 0.000000e+000
      outer loop
         vertex 0.000000e+000 0.000000e+000 1.000000e+001
         vertex 0.000000e+000 1.000000e+001 0.000000e+000
         vertex 0.000000e+000 0.000000e+000 0.000000e+000
      endloop
   endfacet
   facet normal 0.000000e+000 0.000000e+000 1.000000e+000
      outer loop
         vertex 0.000000e+000 0.000000e+000 1.000000e+001
         vertex 1.000000e+001 0.000000e+000 1.000000e+001
         vertex 8.867023e+000 1.624460e+000 1.000000e+001
      endloop
   endfacet
   facet normal 0.000000e+000 0.000000e+000 1.000000e+000
      outer loop
         vertex 8.867023e+000 1.624460e+000 1.000000e+001
         vertex 1.000000e+001 0.000000e+000 1.000000e+001
         vertex 1.000000e+001 1.000000e+001 1.000000e+001
      endloop
   endfacet
   facet normal 0.000000e+000 0.000000e+000 1.000000e+000
      outer loop
         vertex 8.867023e+000 1.624460e+000 1.000000e+001
         vertex 1.000000e+001 1.000000e+001 1.000000e+001
         vertex 6.282018e+000 6.101821e+000 1.000000e+001
      endloop
   endfacet
   facet normal 0.000000e+000 0.000000e+000 1.000000e+000
      outer loop
         vertex 6.282018e+000 6.101821e+000 1.000000e+001
         vertex 1.000000e+001 1.000000e+001 1.000000e+001
         vertex 0.000000e+000 1.000000e+001 1.000000e+001
      endloop
   endfacet
   facet normal 0.000000e+000 0.000000e+000 1.000000e+000
      outer loop
         vertex 6.282018e+000 6.101821e+000 1.000000e+001
         vertex 0.000000e+000 1.000000e+001 1.000000e+001
         vertex 3.697012e+000 1.624460e+000 1.000000e+001
      endloop
   endfacet
   facet normal 0.000000e+000 0.000000e+000 1.000000e+000
      outer loop
         vertex 3.697012e+000 1.624460e+000 1.000000e+001
         vertex 0.000000e+000 1.000000e+001 1.000000e+001
         vertex 0.000000e+000 0.000000e+000 1.000000e+001
      endloop
   endfacet
   facet normal 0.000000e+000 0.000000e+000 1.000000e+000
      outer loop
         vertex 3.697012e+000 1.624460e+000 1.000000e+001
         vertex 0.000000e+000 0.000000e+000 1.000000e+001
         vertex 8.867023e+000 1.624460e+000 1.000000e+001
      endloop
   endfacet
   facet normal 1.000000e+000 0.000000e+000 0.000000e+000
      outer loop
         vertex 1.000000e+001 1.000000e+001 0.000000e+000
         vertex 1.000000e+001 1.000000e+001 1.000000e+001
         vertex 1.000000e+001 0.000000e+000 0.000000e+000
      endloop
   endfacet
   facet normal 1.000000e+000 0.000000e+000 0.000000e+000
      outer loop
         vertex 1.000000e+001 0.000000e+000 0.000000e+000
         vertex 1.000000e+001 1.000000e+001 1.000000e+001
         vertex 1.000000e+001 0.000000e+000 1.000000e+001
      endloop
   endfacet
   facet normal 0.000000e+000 0.000000e+000 -1.000000e+000
      outer loop
         vertex 6.282018e+000 6.101821e+000 0.000000e+000
         vertex 1.000000e+001 1.000000e+001 0.000000e+000
         vertex 8.867023e+000 1.624460e+000 0.000000e+000
      endloop
   endfacet
   facet normal 0.000000e+000 0.000000e+000 -1.000000e+000
      outer loop
         vertex 8.867023e+000 1.624460e+000 0.000000e+000
         vertex 1.000000e+001 1.000000e+001 0.000000e+000
         vertex 1.000000e+001 0.000000e+000 0.000000e+000
      endloop
   endfacet
   facet normal 0.000000e+000 0.000000e+000 -1.000000e+000
      outer loop
         vertex 8.867023e+000 1.624460e+000 0.000000e+000
         vertex 1.000000e+001 0.000000e+000 0.000000e+000
         vertex 3.697012e+000 1.624460e+000 0.000000e+000
      endloop
   endfacet
   facet normal 0.000000e+000 0.000000e+000 -1.000000e+000
      outer loop
         vertex 3.697012e+000 1.624460e+000 0.000000e+000
         vertex 1.000000e+001 0.000000e+000 0.000000e+000
         vertex 0.000000e+000 0.000000e+000 0.000000e+000
      endloop
   endfacet
   facet normal 0.000000e+000 0.000000e+000 -1.000000e+000
      outer loop
         vertex 3.697012e+000 1.624460e+000 0.000000e+000
         vertex 0.000000e+000 0.000000e+000 0.000000e+000
         vertex 6.282018e+000 6.101821e+000 0.000000e+000
      endloop
   endfacet
   facet normal 0.000000e+000 0.000000e+000 -1.000000e+000
      outer loop
         vertex 6.282018e+000 6.101821e+000 0.000000e+000
         vertex 0.000000e+000 0.000000e+000 0.000000e+000
         vertex 0.000000e+000 1.000000e+001 0.000000e+000
      endloop
   endfacet
   facet normal 0.000000e+000 0.000000e+000 -1.000000e+000
      outer loop
         vertex 6.282018e+000 6.101821e+000 0.000000e+000
         vertex 0.000000e+000 1.000000e+001 0.000000e+000
         vertex 1.000000e+001 1.000000e+001 0.000000e+000
      endloop
   endfacet
   facet normal 0.000000e+000 1.000000e+000 0.000000e+000
      outer loop
         vertex 1.000000e+001 1.000000e+001 1.000000e+001
         vertex 1.000000e+001 1.000000e+001 0.000000e+000
         vertex 0.000000e+000 1.000000e+001 1.000000e+001
      endloop
   endfacet
   facet normal 0.000000e+000 1.000000e+000 0.000000e+000
      outer loop
         vertex 0.000000e+000 1.000000e+001 1.000000e+001
         vertex 1.000000e+001 1.000000e+001 0.000000e+000
         vertex 0.000000e+000 1.000000e+001 0.000000e+000
      endloop
   endfacet
   facet normal 0.000000e+000 -1.000000e+000 0.000000e+000
      outer loop
         vertex 1.000000e+001 0.000000e+000 0.000000e+000
         vertex 1.000000e+001 0.000000e+000 1.000000e+001
         vertex 0.000000e+000 0.000000e+000 0.000000e+000
      endloop
   endfacet
   facet normal 0.000000e+000 -1.000000e+000 0.000000e+000
      outer loop
         vertex 0.000000e+000 0.000000e+000 0.000000e+000
         vertex 1.000000e+001 0.000000e+000 1.000000e+001
         vertex 0.000000e+000 0.000000e+000 1.000000e+001
      endloop
   endfacet
   facet normal 8.660254e-001 -5.000000e-001 0.000000e+000
      outer loop
         vertex 3.697012e+000 1.624460e+000 0.000000e+000
         vertex 6.282018e+000 6.101821e+000 0.000000e+000
         vertex 3.697012e+000 1.624460e+000 1.000000e+001
      endloop
   endfacet
   facet normal 8.660254e-001 -5.000000e-001 0.000000e+000
      outer loop
         vertex 3.697012e+000 1.624460e+000 1.000000e+001
         vertex 6.282018e+000 6.101821e+000 0.000000e+000
         vertex 6.282018e+000 6.101821e+000 1.000000e+001
      endloop
   endfacet
   facet normal -8.660254e-001 -5.000000e-001 0.000000e+000
      outer loop
         vertex 6.282018e+000 6.101821e+000 0.000000e+000
         vertex 8.867023e+000 1.624460e+000 0.000000e+000
         vertex 6.282018e+000 6.101821e+000 1.000000e+001
      endloop
   endfacet
   facet normal -8.660254e-001 -5.000000e-001 0.000000e+000
      outer loop
         vertex 6.282018e+000 6.101821e+000 1.000000e+001
         vertex 8.867023e+000 1.624460e+000 0.000000e+000
         vertex 8.867023e+000 1.624460e+000 1.000000e+001
      endloop
   endfacet
   facet normal 0.000000e+000 1.000000e+000 0.000000e+000
      outer loop
         vertex 8.867023e+000 1.624460e+000 0.000000e+000
         vertex 3.697012e+000 1.624460e+000 0.000000e+000
         vertex 8.867023e+000 1.624460e+000 1.000000e+001
      endloop
   endfacet
   facet normal 0.000000e+000 1.000000e+000 0.000000e+000
      outer loop
         vertex 8.867023e+000 1.624460e+000 1.000000e+001
         vertex 3.697012e+000 1.624460e+000 0.000000e+000
         vertex 3.697012e+000 1.624460e+000 1.000000e+001
      endloop
   endfacet
endsolid