solid 21_241
   facet normal -1.000000e+000 0.000000e+000 0.000000e+000
      outer loop
         vertex 0.000000e+000 6.905588e+000 1.000000e+001
         vertex 0.000000e+000 1.000000e+001 1.000000e+001
         vertex 0.000000e+000 6.905588e+000 2.018645e+000
      endloop
   endfacet
   facet normal -1.000000e+000 0.000000e+000 0.000000e+000
      outer loop
         vertex 0.000000e+000 6.905588e+000 2.018645e+000
         vertex 0.000000e+000 1.000000e+001 1.000000e+001
         vertex 0.000000e+000 1.000000e+001 0.000000e+000
      endloop
   endfacet
   facet normal -1.000000e+000 0.000000e+000 0.000000e+000
      outer loop
         vertex 0.000000e+000 6.905588e+000 2.018645e+000
         vertex 0.000000e+000 1.000000e+001 0.000000e+000
         vertex 0.000000e+000 3.094412e+000 2.018645e+000
      endloop
   endfacet
   facet normal -1.000000e+000 0.000000e+000 0.000000e+000
      outer loop
         vertex 0.000000e+000 3.094412e+000 2.018645e+000
         vertex 0.000000e+000 1.000000e+001 0.000000e+000
         vertex 0.000000e+000 0.000000e+000 0.000000e+000
      endloop
   endfacet
   facet normal -1.000000e+000 0.000000e+000 0.000000e+000
      outer loop
         vertex 0.000000e+000 3.094412e+000 2.018645e+000
         vertex 0.000000e+000 0.000000e+000 0.000000e+000
         vertex 0.000000e+000 3.094412e+000 1.000000e+001
      endloop
   endfacet
   facet normal -1.000000e+000 0.000000e+000 0.000000e+000
      outer loop
         vertex 0.000000e+000 3.094412e+000 1.000000e+001
         vertex 0.000000e+000 0.000000e+000 0.000000e+000
         vertex 0.000000e+000 0.000000e+000 1.000000e+001
      endloop
   endfacet
   facet normal 0.000000e+000 0.000000e+000 1.000000e+000
      outer loop
         vertex 2.176753e-001 3.113456e+000 1.000000e+001
         vertex 0.000000e+000 3.094412e+000 1.000000e+001
         vertex 0.000000e+000 0.000000e+000 1.000000e+001
      endloop
   endfacet
   facet normal 0.000000e+000 0.000000e+000 1.000000e+000
      outer loop
         vertex 8.057613e-001 3.387685e+000 1.000000e+001
         vertex 6.267710e-001 3.262355e+000 1.000000e+001
         vertex 1.000000e+001 0.000000e+000 1.000000e+001
      endloop
   endfacet
   facet normal 0.000000e+000 0.000000e+000 1.000000e+000
      outer loop
         vertex 1.000000e+001 0.000000e+000 1.000000e+001
         vertex 6.267710e-001 3.262355e+000 1.000000e+001
         vertex 0.000000e+000 0.000000e+000 1.000000e+001
      endloop
   endfacet
   facet normal 0.000000e+000 0.000000e+000 1.000000e+000
      outer loop
         vertex 0.000000e+000 0.000000e+000 1.000000e+001
         vertex 6.267710e-001 3.262355e+000 1.000000e+001
         vertex 4.287366e-001 3.170010e+000 1.000000e+001
      endloop
   endfacet
   facet normal 0.000000e+000 0.000000e+000 1.000000e+000
      outer loop
         vertex 0.000000e+000 0.000000e+000 1.000000e+001
         vertex 4.287366e-001 3.170010e+000 1.000000e+001
         vertex 2.176753e-001 3.113456e+000 1.000000e+001
      endloop
   endfacet
   facet normal 0.000000e+000 0.000000e+000 1.000000e+000
      outer loop
         vertex 7.675731e-017 6.905588e+000 1.000000e+001
         vertex 2.176753e-001 6.886544e+000 1.000000e+001
         vertex 0.000000e+000 1.000000e+001 1.000000e+001
      endloop
   endfacet
   facet normal 0.000000e+000 0.000000e+000 1.000000e+000
      outer loop
         vertex 0.000000e+000 1.000000e+001 1.000000e+001
         vertex 2.176753e-001 6.886544e+000 1.000000e+001
         vertex 4.287366e-001 6.829990e+000 1.000000e+001
      endloop
   endfacet
   facet normal 0.000000e+000 0.000000e+000 1.000000e+000
      outer loop
         vertex 0.000000e+000 1.000000e+001 1.000000e+001
         vertex 4.287366e-001 6.829990e+000 1.000000e+001
         vertex 1.000000e+001 1.000000e+001 1.000000e+001
      endloop
   endfacet
   facet normal 0.000000e+000 0.000000e+000 1.000000e+000
      outer loop
         vertex 1.000000e+001 1.000000e+001 1.000000e+001
         vertex 4.287366e-001 6.829990e+000 1.000000e+001
         vertex 6.267710e-001 6.737645e+000 1.000000e+001
      endloop
   endfacet
   facet normal 0.000000e+000 0.000000e+000 1.000000e+000
      outer loop
         vertex 1.000000e+001 1.000000e+001 1.000000e+001
         vertex 6.267710e-001 6.737645e+000 1.000000e+001
         vertex 8.057613e-001 6.612315e+000 1.000000e+001
      endloop
   endfacet
   facet normal 0.000000e+000 0.000000e+000 1.000000e+000
      outer loop
         vertex 8.057613e-001 6.612315e+000 1.000000e+001
         vertex 9.602689e-001 6.457807e+000 1.000000e+001
         vertex 1.000000e+001 1.000000e+001 1.000000e+001
      endloop
   endfacet
   facet normal 0.000000e+000 0.000000e+000 1.000000e+000
      outer loop
         vertex 1.000000e+001 1.000000e+001 1.000000e+001
         vertex 9.602689e-001 6.457807e+000 1.000000e+001
         vertex 1.085599e+000 6.278817e+000 1.000000e+001
      endloop
   endfacet
   facet normal 0.000000e+000 0.000000e+000 1.000000e+000
      outer loop
         vertex 1.000000e+001 1.000000e+001 1.000000e+001
         vertex 1.085599e+000 6.278817e+000 1.000000e+001
         vertex 1.177944e+000 6.080782e+000 1.000000e+001
      endloop
   endfacet
   facet normal 0.000000e+000 0.000000e+000 1.000000e+000
      outer loop
         vertex 1.000000e+001 0.000000e+000 1.000000e+001
         vertex 1.234498e+000 4.130279e+000 1.000000e+001
         vertex 1.177944e+000 3.919218e+000 1.000000e+001
      endloop
   endfacet
   facet normal 0.000000e+000 0.000000e+000 1.000000e+000
      outer loop
         vertex 1.177944e+000 3.919218e+000 1.000000e+001
         vertex 1.085599e+000 3.721183e+000 1.000000e+001
         vertex 1.000000e+001 0.000000e+000 1.000000e+001
      endloop
   endfacet
   facet normal 0.000000e+000 0.000000e+000 1.000000e+000
      outer loop
         vertex 1.000000e+001 0.000000e+000 1.000000e+001
         vertex 1.085599e+000 3.721183e+000 1.000000e+001
         vertex 9.602689e-001 3.542193e+000 1.000000e+001
      endloop
   endfacet
   facet normal 0.000000e+000 0.000000e+000 1.000000e+000
      outer loop
         vertex 1.000000e+001 0.000000e+000 1.000000e+001
         vertex 9.602689e-001 3.542193e+000 1.000000e+001
         vertex 8.057613e-001 3.387685e+000 1.000000e+001
      endloop
   endfacet
   facet normal 0.000000e+000 0.000000e+000 1.000000e+000
      outer loop
         vertex 1.177944e+000 6.080782e+000 1.000000e+001
         vertex 1.234498e+000 5.869721e+000 1.000000e+001
         vertex 1.000000e+001 1.000000e+001 1.000000e+001
      endloop
   endfacet
   facet normal 0.000000e+000 0.000000e+000 1.000000e+000
      outer loop
         vertex 1.000000e+001 1.000000e+001 1.000000e+001
         vertex 1.234498e+000 5.869721e+000 1.000000e+001
         vertex 1.253542e+000 5.652046e+000 1.000000e+001
      endloop
   endfacet
   facet normal 0.000000e+000 0.000000e+000 1.000000e+000
      outer loop
         vertex 1.000000e+001 1.000000e+001 1.000000e+001
         vertex 1.253542e+000 5.652046e+000 1.000000e+001
         vertex 1.000000e+001 0.000000e+000 1.000000e+001
      endloop
   endfacet
   facet normal 0.000000e+000 0.000000e+000 1.000000e+000
      outer loop
         vertex 1.000000e+001 0.000000e+000 1.000000e+001
         vertex 1.253542e+000 5.652046e+000 1.000000e+001
         vertex 1.253542e+000 4.347954e+000 1.000000e+001
      endloop
   endfacet
   facet normal 0.000000e+000 0.000000e+000 1.000000e+000
      outer loop
         vertex 1.000000e+001 0.000000e+000 1.000000e+001
         vertex 1.253542e+000 4.347954e+000 1.000000e+001
         vertex 1.234498e+000 4.130279e+000 1.000000e+001
      endloop
   endfacet
   facet normal 1.000000e+000 0.000000e+000 0.000000e+000
      outer loop
         vertex 1.000000e+001 1.000000e+001 0.000000e+000
         vertex 1.000000e+001 1.000000e+001 1.000000e+001
         vertex 1.000000e+001 0.000000e+000 0.000000e+000
      endloop
   endfacet
   facet normal 1.000000e+000 0.000000e+000 0.000000e+000
      outer loop
         vertex 1.000000e+001 0.000000e+000 0.000000e+000
         vertex 1.000000e+001 1.000000e+001 1.000000e+001
         vertex 1.000000e+001 0.000000e+000 1.000000e+001
      endloop
   endfacet
   facet normal 0.000000e+000 0.000000e+000 -1.000000e+000
      outer loop
         vertex 0.000000e+000 1.000000e+001 0.000000e+000
         vertex 1.000000e+001 1.000000e+001 0.000000e+000
         vertex 0.000000e+000 0.000000e+000 0.000000e+000
      endloop
   endfacet
   facet normal 0.000000e+000 0.000000e+000 -1.000000e+000
      outer loop
         vertex 0.000000e+000 0.000000e+000 0.000000e+000
         vertex 1.000000e+001 1.000000e+001 0.000000e+000
         vertex 1.000000e+001 0.000000e+000 0.000000e+000
      endloop
   endfacet
   facet normal 0.000000e+000 1.000000e+000 0.000000e+000
      outer loop
         vertex 1.000000e+001 1.000000e+001 1.000000e+001
         vertex 1.000000e+001 1.000000e+001 0.000000e+000
         vertex 0.000000e+000 1.000000e+001 1.000000e+001
      endloop
   endfacet
   facet normal 0.000000e+000 1.000000e+000 0.000000e+000
      outer loop
         vertex 0.000000e+000 1.000000e+001 1.000000e+001
         vertex 1.000000e+001 1.000000e+001 0.000000e+000
         vertex 0.000000e+000 1.000000e+001 0.000000e+000
      endloop
   endfacet
   facet normal 0.000000e+000 -1.000000e+000 0.000000e+000
      outer loop
         vertex 1.000000e+001 0.000000e+000 0.000000e+000
         vertex 1.000000e+001 0.000000e+000 1.000000e+001
         vertex 0.000000e+000 0.000000e+000 0.000000e+000
      endloop
   endfacet
   facet normal 0.000000e+000 -1.000000e+000 0.000000e+000
      outer loop
         vertex 0.000000e+000 0.000000e+000 0.000000e+000
         vertex 1.000000e+001 0.000000e+000 1.000000e+001
         vertex 0.000000e+000 0.000000e+000 1.000000e+001
      endloop
   endfacet
   facet normal 0.000000e+000 0.000000e+000 1.000000e+000
      outer loop
         vertex 1.253542e+000 5.652046e+000 2.018645e+000
         vertex 7.675731e-017 6.905588e+000 2.018645e+000
         vertex 1.253542e+000 4.347954e+000 2.018645e+000
      endloop
   endfacet
   facet normal 0.000000e+000 0.000000e+000 1.000000e+000
      outer loop
         vertex 1.253542e+000 4.347954e+000 2.018645e+000
         vertex 7.675731e-017 6.905588e+000 2.018645e+000
         vertex -2.302719e-016 3.094412e+000 2.018645e+000
      endloop
   endfacet
   facet normal 0.000000e+000 0.000000e+000 1.000000e+000
      outer loop
         vertex 1.177944e+000 6.080782e+000 2.018645e+000
         vertex 1.085599e+000 6.278817e+000 2.018645e+000
         vertex 1.234498e+000 5.869721e+000 2.018645e+000
      endloop
   endfacet
   facet normal 0.000000e+000 0.000000e+000 1.000000e+000
      outer loop
         vertex 1.234498e+000 5.869721e+000 2.018645e+000
         vertex 1.085599e+000 6.278817e+000 2.018645e+000
         vertex 1.253542e+000 5.652046e+000 2.018645e+000
      endloop
   endfacet
   facet normal 0.000000e+000 0.000000e+000 1.000000e+000
      outer loop
         vertex 1.085599e+000 6.278817e+000 2.018645e+000
         vertex 9.602689e-001 6.457807e+000 2.018645e+000
         vertex 1.253542e+000 5.652046e+000 2.018645e+000
      endloop
   endfacet
   facet normal 0.000000e+000 0.000000e+000 1.000000e+000
      outer loop
         vertex 1.253542e+000 5.652046e+000 2.018645e+000
         vertex 9.602689e-001 6.457807e+000 2.018645e+000
         vertex 8.057613e-001 6.612315e+000 2.018645e+000
      endloop
   endfacet
   facet normal 0.000000e+000 0.000000e+000 1.000000e+000
      outer loop
         vertex 1.253542e+000 5.652046e+000 2.018645e+000
         vertex 8.057613e-001 6.612315e+000 2.018645e+000
         vertex 6.267710e-001 6.737645e+000 2.018645e+000
      endloop
   endfacet
   facet normal 0.000000e+000 0.000000e+000 1.000000e+000
      outer loop
         vertex 6.267710e-001 6.737645e+000 2.018645e+000
         vertex 4.287366e-001 6.829990e+000 2.018645e+000
         vertex 1.253542e+000 5.652046e+000 2.018645e+000
      endloop
   endfacet
   facet normal 0.000000e+000 0.000000e+000 1.000000e+000
      outer loop
         vertex 1.253542e+000 5.652046e+000 2.018645e+000
         vertex 4.287366e-001 6.829990e+000 2.018645e+000
         vertex 2.176753e-001 6.886544e+000 2.018645e+000
      endloop
   endfacet
   facet normal 0.000000e+000 0.000000e+000 1.000000e+000
      outer loop
         vertex 1.253542e+000 5.652046e+000 2.018645e+000
         vertex 2.176753e-001 6.886544e+000 2.018645e+000
         vertex 7.675731e-017 6.905588e+000 2.018645e+000
      endloop
   endfacet
   facet normal 0.000000e+000 0.000000e+000 1.000000e+000
      outer loop
         vertex 4.287366e-001 3.170010e+000 2.018645e+000
         vertex 6.267710e-001 3.262355e+000 2.018645e+000
         vertex 8.057613e-001 3.387685e+000 2.018645e+000
      endloop
   endfacet
   facet normal 0.000000e+000 0.000000e+000 1.000000e+000
      outer loop
         vertex 8.057613e-001 3.387685e+000 2.018645e+000
         vertex 9.602689e-001 3.542193e+000 2.018645e+000
         vertex 4.287366e-001 3.170010e+000 2.018645e+000
      endloop
   endfacet
   facet normal 0.000000e+000 0.000000e+000 1.000000e+000
      outer loop
         vertex 4.287366e-001 3.170010e+000 2.018645e+000
         vertex 9.602689e-001 3.542193e+000 2.018645e+000
         vertex 1.085599e+000 3.721183e+000 2.018645e+000
      endloop
   endfacet
   facet normal 0.000000e+000 0.000000e+000 1.000000e+000
      outer loop
         vertex 4.287366e-001 3.170010e+000 2.018645e+000
         vertex 1.085599e+000 3.721183e+000 2.018645e+000
         vertex 1.177944e+000 3.919218e+000 2.018645e+000
      endloop
   endfacet
   facet normal 0.000000e+000 0.000000e+000 1.000000e+000
      outer loop
         vertex -2.302719e-016 3.094412e+000 2.018645e+000
         vertex 2.176753e-001 3.113456e+000 2.018645e+000
         vertex 1.253542e+000 4.347954e+000 2.018645e+000
      endloop
   endfacet
   facet normal 0.000000e+000 0.000000e+000 1.000000e+000
      outer loop
         vertex 1.253542e+000 4.347954e+000 2.018645e+000
         vertex 2.176753e-001 3.113456e+000 2.018645e+000
         vertex 4.287366e-001 3.170010e+000 2.018645e+000
      endloop
   endfacet
   facet normal 0.000000e+000 0.000000e+000 1.000000e+000
      outer loop
         vertex 1.253542e+000 4.347954e+000 2.018645e+000
         vertex 4.287366e-001 3.170010e+000 2.018645e+000
         vertex 1.234498e+000 4.130279e+000 2.018645e+000
      endloop
   endfacet
   facet normal 0.000000e+000 0.000000e+000 1.000000e+000
      outer loop
         vertex 1.234498e+000 4.130279e+000 2.018645e+000
         vertex 4.287366e-001 3.170010e+000 2.018645e+000
         vertex 1.177944e+000 3.919218e+000 2.018645e+000
      endloop
   endfacet
   facet normal -5.807913e-002 9.983119e-001 0.000000e+000
      outer loop
         vertex -2.302719e-016 3.094412e+000 2.018645e+000
         vertex -2.302719e-016 3.094412e+000 1.000000e+001
         vertex 2.176753e-001 3.113456e+000 1.000000e+001
      endloop
   endfacet
   facet normal -1.161583e-001 9.932307e-001 0.000000e+000
      outer loop
         vertex -2.302719e-016 3.094412e+000 2.018645e+000
         vertex 2.176753e-001 3.113456e+000 1.000000e+001
         vertex 2.176753e-001 3.113456e+000 2.018645e+000
      endloop
   endfacet
   facet normal -2.305519e-001 9.730600e-001 0.000000e+000
      outer loop
         vertex 2.176753e-001 3.113456e+000 2.018645e+000
         vertex 2.176753e-001 3.113456e+000 1.000000e+001
         vertex 4.287366e-001 3.170010e+000 1.000000e+001
      endloop
   endfacet
   facet normal -2.868663e-001 9.579706e-001 0.000000e+000
      outer loop
         vertex 2.176753e-001 3.113456e+000 2.018645e+000
         vertex 4.287366e-001 3.170010e+000 1.000000e+001
         vertex 4.287366e-001 3.170010e+000 2.018645e+000
      endloop
   endfacet
   facet normal -3.960194e-001 9.182422e-001 0.000000e+000
      outer loop
         vertex 4.287366e-001 3.170010e+000 2.018645e+000
         vertex 4.287366e-001 3.170010e+000 1.000000e+001
         vertex 6.267710e-001 3.262355e+000 1.000000e+001
      endloop
   endfacet
   facet normal -4.488580e-001 8.936031e-001 0.000000e+000
      outer loop
         vertex 4.287366e-001 3.170010e+000 2.018645e+000
         vertex 6.267710e-001 3.262355e+000 1.000000e+001
         vertex 6.267710e-001 3.262355e+000 2.018645e+000
      endloop
   endfacet
   facet normal -5.494540e-001 8.355240e-001 0.000000e+000
      outer loop
         vertex 6.267710e-001 3.262355e+000 2.018645e+000
         vertex 6.267710e-001 3.262355e+000 1.000000e+001
         vertex 8.057613e-001 3.387685e+000 1.000000e+001
      endloop
   endfacet
   facet normal -5.972114e-001 8.020838e-001 0.000000e+000
      outer loop
         vertex 6.267710e-001 3.262355e+000 2.018645e+000
         vertex 8.057613e-001 3.387685e+000 1.000000e+001
         vertex 8.057613e-001 3.387685e+000 2.018645e+000
      endloop
   endfacet
   facet normal -6.861938e-001 7.274188e-001 0.000000e+000
      outer loop
         vertex 8.057613e-001 3.387685e+000 2.018645e+000
         vertex 8.057613e-001 3.387685e+000 1.000000e+001
         vertex 9.602689e-001 3.542193e+000 1.000000e+001
      endloop
   endfacet
   facet normal -7.274188e-001 6.861938e-001 0.000000e+000
      outer loop
         vertex 8.057613e-001 3.387685e+000 2.018645e+000
         vertex 9.602689e-001 3.542193e+000 1.000000e+001
         vertex 9.602689e-001 3.542193e+000 2.018645e+000
      endloop
   endfacet
   facet normal -8.020838e-001 5.972114e-001 0.000000e+000
      outer loop
         vertex 9.602689e-001 3.542193e+000 2.018645e+000
         vertex 9.602689e-001 3.542193e+000 1.000000e+001
         vertex 1.085599e+000 3.721183e+000 1.000000e+001
      endloop
   endfacet
   facet normal -8.355240e-001 5.494540e-001 0.000000e+000
      outer loop
         vertex 9.602689e-001 3.542193e+000 2.018645e+000
         vertex 1.085599e+000 3.721183e+000 1.000000e+001
         vertex 1.085599e+000 3.721183e+000 2.018645e+000
      endloop
   endfacet
   facet normal -8.936031e-001 4.488580e-001 0.000000e+000
      outer loop
         vertex 1.085599e+000 3.721183e+000 2.018645e+000
         vertex 1.085599e+000 3.721183e+000 1.000000e+001
         vertex 1.177944e+000 3.919218e+000 1.000000e+001
      endloop
   endfacet
   facet normal -9.182422e-001 3.960194e-001 0.000000e+000
      outer loop
         vertex 1.085599e+000 3.721183e+000 2.018645e+000
         vertex 1.177944e+000 3.919218e+000 1.000000e+001
         vertex 1.177944e+000 3.919218e+000 2.018645e+000
      endloop
   endfacet
   facet normal -9.579706e-001 2.868663e-001 0.000000e+000
      outer loop
         vertex 1.177944e+000 3.919218e+000 2.018645e+000
         vertex 1.177944e+000 3.919218e+000 1.000000e+001
         vertex 1.234498e+000 4.130279e+000 1.000000e+001
      endloop
   endfacet
   facet normal -9.730600e-001 2.305519e-001 0.000000e+000
      outer loop
         vertex 1.177944e+000 3.919218e+000 2.018645e+000
         vertex 1.234498e+000 4.130279e+000 1.000000e+001
         vertex 1.234498e+000 4.130279e+000 2.018645e+000
      endloop
   endfacet
   facet normal -9.932307e-001 1.161583e-001 0.000000e+000
      outer loop
         vertex 1.234498e+000 4.130279e+000 2.018645e+000
         vertex 1.234498e+000 4.130279e+000 1.000000e+001
         vertex 1.253542e+000 4.347954e+000 1.000000e+001
      endloop
   endfacet
   facet normal -9.983119e-001 5.807913e-002 0.000000e+000
      outer loop
         vertex 1.234498e+000 4.130279e+000 2.018645e+000
         vertex 1.253542e+000 4.347954e+000 1.000000e+001
         vertex 1.253542e+000 4.347954e+000 2.018645e+000
      endloop
   endfacet
   facet normal -9.983119e-001 -5.807913e-002 0.000000e+000
      outer loop
         vertex 1.253542e+000 5.652046e+000 2.018645e+000
         vertex 1.253542e+000 5.652046e+000 1.000000e+001
         vertex 1.234498e+000 5.869721e+000 1.000000e+001
      endloop
   endfacet
   facet normal -9.932307e-001 -1.161583e-001 0.000000e+000
      outer loop
         vertex 1.253542e+000 5.652046e+000 2.018645e+000
         vertex 1.234498e+000 5.869721e+000 1.000000e+001
         vertex 1.234498e+000 5.869721e+000 2.018645e+000
      endloop
   endfacet
   facet normal -9.730600e-001 -2.305519e-001 0.000000e+000
      outer loop
         vertex 1.234498e+000 5.869721e+000 2.018645e+000
         vertex 1.234498e+000 5.869721e+000 1.000000e+001
         vertex 1.177944e+000 6.080782e+000 1.000000e+001
      endloop
   endfacet
   facet normal -9.579706e-001 -2.868663e-001 0.000000e+000
      outer loop
         vertex 1.234498e+000 5.869721e+000 2.018645e+000
         vertex 1.177944e+000 6.080782e+000 1.000000e+001
         vertex 1.177944e+000 6.080782e+000 2.018645e+000
      endloop
   endfacet
   facet normal -9.182422e-001 -3.960194e-001 0.000000e+000
      outer loop
         vertex 1.177944e+000 6.080782e+000 2.018645e+000
         vertex 1.177944e+000 6.080782e+000 1.000000e+001
         vertex 1.085599e+000 6.278817e+000 1.000000e+001
      endloop
   endfacet
   facet normal -8.936031e-001 -4.488580e-001 0.000000e+000
      outer loop
         vertex 1.177944e+000 6.080782e+000 2.018645e+000
         vertex 1.085599e+000 6.278817e+000 1.000000e+001
         vertex 1.085599e+000 6.278817e+000 2.018645e+000
      endloop
   endfacet
   facet normal -8.355240e-001 -5.494540e-001 0.000000e+000
      outer loop
         vertex 1.085599e+000 6.278817e+000 2.018645e+000
         vertex 1.085599e+000 6.278817e+000 1.000000e+001
         vertex 9.602689e-001 6.457807e+000 1.000000e+001
      endloop
   endfacet
   facet normal -8.020838e-001 -5.972114e-001 0.000000e+000
      outer loop
         vertex 1.085599e+000 6.278817e+000 2.018645e+000
         vertex 9.602689e-001 6.457807e+000 1.000000e+001
         vertex 9.602689e-001 6.457807e+000 2.018645e+000
      endloop
   endfacet
   facet normal -7.274188e-001 -6.861938e-001 0.000000e+000
      outer loop
         vertex 9.602689e-001 6.457807e+000 2.018645e+000
         vertex 9.602689e-001 6.457807e+000 1.000000e+001
         vertex 8.057613e-001 6.612315e+000 1.000000e+001
      endloop
   endfacet
   facet normal -6.861938e-001 -7.274188e-001 0.000000e+000
      outer loop
         vertex 9.602689e-001 6.457807e+000 2.018645e+000
         vertex 8.057613e-001 6.612315e+000 1.000000e+001
         vertex 8.057613e-001 6.612315e+000 2.018645e+000
      endloop
   endfacet
   facet normal -5.972114e-001 -8.020838e-001 0.000000e+000
      outer loop
         vertex 8.057613e-001 6.612315e+000 2.018645e+000
         vertex 8.057613e-001 6.612315e+000 1.000000e+001
         vertex 6.267710e-001 6.737645e+000 1.000000e+001
      endloop
   endfacet
   facet normal -5.494540e-001 -8.355240e-001 0.000000e+000
      outer loop
         vertex 8.057613e-001 6.612315e+000 2.018645e+000
         vertex 6.267710e-001 6.737645e+000 1.000000e+001
         vertex 6.267710e-001 6.737645e+000 2.018645e+000
      endloop
   endfacet
   facet normal -4.488580e-001 -8.936031e-001 0.000000e+000
      outer loop
         vertex 6.267710e-001 6.737645e+000 2.018645e+000
         vertex 6.267710e-001 6.737645e+000 1.000000e+001
         vertex 4.287366e-001 6.829990e+000 1.000000e+001
      endloop
   endfacet
   facet normal -3.960194e-001 -9.182422e-001 0.000000e+000
      outer loop
         vertex 6.267710e-001 6.737645e+000 2.018645e+000
         vertex 4.287366e-001 6.829990e+000 1.000000e+001
         vertex 4.287366e-001 6.829990e+000 2.018645e+000
      endloop
   endfacet
   facet normal -2.868663e-001 -9.579706e-001 0.000000e+000
      outer loop
         vertex 4.287366e-001 6.829990e+000 2.018645e+000
         vertex 4.287366e-001 6.829990e+000 1.000000e+001
         vertex 2.176753e-001 6.886544e+000 1.000000e+001
      endloop
   endfacet
   facet normal -2.305519e-001 -9.730600e-001 0.000000e+000
      outer loop
         vertex 4.287366e-001 6.829990e+000 2.018645e+000
         vertex 2.176753e-001 6.886544e+000 1.000000e+001
         vertex 2.176753e-001 6.886544e+000 2.018645e+000
      endloop
   endfacet
   facet normal -1.161583e-001 -9.932307e-001 0.000000e+000
      outer loop
         vertex 2.176753e-001 6.886544e+000 2.018645e+000
         vertex 2.176753e-001 6.886544e+000 1.000000e+001
         vertex 7.675731e-017 6.905588e+000 1.000000e+001
      endloop
   endfacet
   facet normal -5.807913e-002 -9.983119e-001 0.000000e+000
      outer loop
         vertex 2.176753e-001 6.886544e+000 2.018645e+000
         vertex 7.675731e-017 6.905588e+000 1.000000e+001
         vertex 7.675731e-017 6.905588e+000 2.018645e+000
      endloop
   endfacet
   facet normal -1.000000e+000 0.000000e+000 0.000000e+000
      outer loop
         vertex 1.253542e+000 5.652046e+000 2.018645e+000
         vertex 1.253542e+000 4.347954e+000 2.018645e+000
         vertex 1.253542e+000 5.652046e+000 1.000000e+001
      endloop
   endfacet
   facet normal -1.000000e+000 0.000000e+000 0.000000e+000
      outer loop
         vertex 1.253542e+000 5.652046e+000 1.000000e+001
         vertex 1.253542e+000 4.347954e+000 2.018645e+000
         vertex 1.253542e+000 4.347954e+000 1.000000e+001
      endloop
   endfacet
endsolid