solid 21_286
   facet normal -1.000000e+000 0.000000e+000 0.000000e+000
      outer loop
         vertex 0.000000e+000 1.000000e+001 1.000000e+001
         vertex 0.000000e+000 1.000000e+001 0.000000e+000
         vertex 0.000000e+000 0.000000e+000 1.000000e+001
      endloop
   endfacet
   facet normal -1.000000e+000 0.000000e+000 0.000000e+000
      outer loop
         vertex 0.000000e+000 0.000000e+000 1.000000e+001
         vertex 0.000000e+000 1.000000e+001 0.000000e+000
         vertex 0.000000e+000 0.000000e+000 0.000000e+000
      endloop
   endfacet
   facet normal 0.000000e+000 0.000000e+000 1.000000e+000
      outer loop
         vertex 6.775060e+000 1.218134e+000 1.000000e+001
         vertex 6.979851e+000 1.122638e+000 1.000000e+001
         vertex 1.000000e+001 1.000000e+001 1.000000e+001
      endloop
   endfacet
   facet normal 0.000000e+000 0.000000e+000 1.000000e+000
      outer loop
         vertex 0.000000e+000 0.000000e+000 1.000000e+001
         vertex 2.371994e+000 0.000000e+000 1.000000e+001
         vertex 2.391688e+000 2.251020e-001 1.000000e+001
      endloop
   endfacet
   facet normal 0.000000e+000 0.000000e+000 1.000000e+000
      outer loop
         vertex 6.775060e+000 1.218134e+000 1.000000e+001
         vertex 1.000000e+001 1.000000e+001 1.000000e+001
         vertex 6.556798e+000 1.276617e+000 1.000000e+001
      endloop
   endfacet
   facet normal 0.000000e+000 0.000000e+000 1.000000e+000
      outer loop
         vertex 2.391688e+000 2.251020e-001 1.000000e+001
         vertex 2.450171e+000 4.433644e-001 1.000000e+001
         vertex 0.000000e+000 0.000000e+000 1.000000e+001
      endloop
   endfacet
   facet normal 0.000000e+000 0.000000e+000 1.000000e+000
      outer loop
         vertex 0.000000e+000 0.000000e+000 1.000000e+001
         vertex 2.450171e+000 4.433644e-001 1.000000e+001
         vertex 2.545667e+000 6.481553e-001 1.000000e+001
      endloop
   endfacet
   facet normal 0.000000e+000 0.000000e+000 1.000000e+000
      outer loop
         vertex 0.000000e+000 0.000000e+000 1.000000e+001
         vertex 2.545667e+000 6.481553e-001 1.000000e+001
         vertex 0.000000e+000 1.000000e+001 1.000000e+001
      endloop
   endfacet
   facet normal 0.000000e+000 0.000000e+000 1.000000e+000
      outer loop
         vertex 0.000000e+000 1.000000e+001 1.000000e+001
         vertex 2.545667e+000 6.481553e-001 1.000000e+001
         vertex 2.675273e+000 8.332524e-001 1.000000e+001
      endloop
   endfacet
   facet normal 0.000000e+000 0.000000e+000 1.000000e+000
      outer loop
         vertex 2.675273e+000 8.332524e-001 1.000000e+001
         vertex 2.835052e+000 9.930316e-001 1.000000e+001
         vertex 0.000000e+000 1.000000e+001 1.000000e+001
      endloop
   endfacet
   facet normal 0.000000e+000 0.000000e+000 1.000000e+000
      outer loop
         vertex 0.000000e+000 1.000000e+001 1.000000e+001
         vertex 2.835052e+000 9.930316e-001 1.000000e+001
         vertex 3.020149e+000 1.122638e+000 1.000000e+001
      endloop
   endfacet
   facet normal 0.000000e+000 0.000000e+000 1.000000e+000
      outer loop
         vertex 0.000000e+000 1.000000e+001 1.000000e+001
         vertex 3.020149e+000 1.122638e+000 1.000000e+001
         vertex 3.224940e+000 1.218134e+000 1.000000e+001
      endloop
   endfacet
   facet normal 0.000000e+000 0.000000e+000 1.000000e+000
      outer loop
         vertex 7.628006e+000 0.000000e+000 1.000000e+001
         vertex 1.000000e+001 0.000000e+000 1.000000e+001
         vertex 7.608312e+000 2.251020e-001 1.000000e+001
      endloop
   endfacet
   facet normal 0.000000e+000 0.000000e+000 1.000000e+000
      outer loop
         vertex 7.608312e+000 2.251020e-001 1.000000e+001
         vertex 1.000000e+001 0.000000e+000 1.000000e+001
         vertex 7.549829e+000 4.433644e-001 1.000000e+001
      endloop
   endfacet
   facet normal 0.000000e+000 0.000000e+000 1.000000e+000
      outer loop
         vertex 6.979851e+000 1.122638e+000 1.000000e+001
         vertex 7.164948e+000 9.930316e-001 1.000000e+001
         vertex 1.000000e+001 1.000000e+001 1.000000e+001
      endloop
   endfacet
   facet normal 0.000000e+000 0.000000e+000 1.000000e+000
      outer loop
         vertex 1.000000e+001 1.000000e+001 1.000000e+001
         vertex 7.164948e+000 9.930316e-001 1.000000e+001
         vertex 7.324727e+000 8.332524e-001 1.000000e+001
      endloop
   endfacet
   facet normal 0.000000e+000 0.000000e+000 1.000000e+000
      outer loop
         vertex 1.000000e+001 1.000000e+001 1.000000e+001
         vertex 7.324727e+000 8.332524e-001 1.000000e+001
         vertex 1.000000e+001 0.000000e+000 1.000000e+001
      endloop
   endfacet
   facet normal 0.000000e+000 0.000000e+000 1.000000e+000
      outer loop
         vertex 1.000000e+001 0.000000e+000 1.000000e+001
         vertex 7.324727e+000 8.332524e-001 1.000000e+001
         vertex 7.454333e+000 6.481553e-001 1.000000e+001
      endloop
   endfacet
   facet normal 0.000000e+000 0.000000e+000 1.000000e+000
      outer loop
         vertex 1.000000e+001 0.000000e+000 1.000000e+001
         vertex 7.454333e+000 6.481553e-001 1.000000e+001
         vertex 7.549829e+000 4.433644e-001 1.000000e+001
      endloop
   endfacet
   facet normal 0.000000e+000 0.000000e+000 1.000000e+000
      outer loop
         vertex 3.224940e+000 1.218134e+000 1.000000e+001
         vertex 3.443203e+000 1.276617e+000 1.000000e+001
         vertex 0.000000e+000 1.000000e+001 1.000000e+001
      endloop
   endfacet
   facet normal 0.000000e+000 0.000000e+000 1.000000e+000
      outer loop
         vertex 0.000000e+000 1.000000e+001 1.000000e+001
         vertex 3.443203e+000 1.276617e+000 1.000000e+001
         vertex 3.668304e+000 1.296311e+000 1.000000e+001
      endloop
   endfacet
   facet normal 0.000000e+000 0.000000e+000 1.000000e+000
      outer loop
         vertex 0.000000e+000 1.000000e+001 1.000000e+001
         vertex 3.668304e+000 1.296311e+000 1.000000e+001
         vertex 1.000000e+001 1.000000e+001 1.000000e+001
      endloop
   endfacet
   facet normal 0.000000e+000 0.000000e+000 1.000000e+000
      outer loop
         vertex 1.000000e+001 1.000000e+001 1.000000e+001
         vertex 3.668304e+000 1.296311e+000 1.000000e+001
         vertex 6.331695e+000 1.296311e+000 1.000000e+001
      endloop
   endfacet
   facet normal 0.000000e+000 0.000000e+000 1.000000e+000
      outer loop
         vertex 1.000000e+001 1.000000e+001 1.000000e+001
         vertex 6.331695e+000 1.296311e+000 1.000000e+001
         vertex 6.556798e+000 1.276617e+000 1.000000e+001
      endloop
   endfacet
   facet normal 1.000000e+000 0.000000e+000 0.000000e+000
      outer loop
         vertex 1.000000e+001 1.000000e+001 0.000000e+000
         vertex 1.000000e+001 1.000000e+001 1.000000e+001
         vertex 1.000000e+001 0.000000e+000 0.000000e+000
      endloop
   endfacet
   facet normal 1.000000e+000 0.000000e+000 0.000000e+000
      outer loop
         vertex 1.000000e+001 0.000000e+000 0.000000e+000
         vertex 1.000000e+001 1.000000e+001 1.000000e+001
         vertex 1.000000e+001 0.000000e+000 1.000000e+001
      endloop
   endfacet
   facet normal 0.000000e+000 0.000000e+000 -1.000000e+000
      outer loop
         vertex 0.000000e+000 1.000000e+001 0.000000e+000
         vertex 1.000000e+001 1.000000e+001 0.000000e+000
         vertex 0.000000e+000 0.000000e+000 0.000000e+000
      endloop
   endfacet
   facet normal 0.000000e+000 0.000000e+000 -1.000000e+000
      outer loop
         vertex 0.000000e+000 0.000000e+000 0.000000e+000
         vertex 1.000000e+001 1.000000e+001 0.000000e+000
         vertex 1.000000e+001 0.000000e+000 0.000000e+000
      endloop
   endfacet
   facet normal 0.000000e+000 1.000000e+000 0.000000e+000
      outer loop
         vertex 1.000000e+001 1.000000e+001 1.000000e+001
         vertex 1.000000e+001 1.000000e+001 0.000000e+000
         vertex 0.000000e+000 1.000000e+001 1.000000e+001
      endloop
   endfacet
   facet normal 0.000000e+000 1.000000e+000 0.000000e+000
      outer loop
         vertex 0.000000e+000 1.000000e+001 1.000000e+001
         vertex 1.000000e+001 1.000000e+001 0.000000e+000
         vertex 0.000000e+000 1.000000e+001 0.000000e+000
      endloop
   endfacet
   facet normal 0.000000e+000 -1.000000e+000 0.000000e+000
      outer loop
         vertex 1.000000e+001 0.000000e+000 1.000000e+001
         vertex 7.628006e+000 0.000000e+000 1.000000e+001
         vertex 7.628006e+000 0.000000e+000 8.048758e+000
      endloop
   endfacet
   facet normal 0.000000e+000 -1.000000e+000 0.000000e+000
      outer loop
         vertex 2.371994e+000 0.000000e+000 1.000000e+001
         vertex 0.000000e+000 0.000000e+000 1.000000e+001
         vertex 2.371994e+000 0.000000e+000 8.048758e+000
      endloop
   endfacet
   facet normal 0.000000e+000 -1.000000e+000 0.000000e+000
      outer loop
         vertex 2.371994e+000 0.000000e+000 8.048758e+000
         vertex 0.000000e+000 0.000000e+000 1.000000e+001
         vertex 0.000000e+000 0.000000e+000 0.000000e+000
      endloop
   endfacet
   facet normal 0.000000e+000 -1.000000e+000 0.000000e+000
      outer loop
         vertex 2.371994e+000 0.000000e+000 8.048758e+000
         vertex 0.000000e+000 0.000000e+000 0.000000e+000
         vertex 7.628006e+000 0.000000e+000 8.048758e+000
      endloop
   endfacet
   facet normal 0.000000e+000 -1.000000e+000 0.000000e+000
      outer loop
         vertex 7.628006e+000 0.000000e+000 8.048758e+000
         vertex 0.000000e+000 0.000000e+000 0.000000e+000
         vertex 1.000000e+001 0.000000e+000 0.000000e+000
      endloop
   endfacet
   facet normal 0.000000e+000 -1.000000e+000 0.000000e+000
      outer loop
         vertex 7.628006e+000 0.000000e+000 8.048758e+000
         vertex 1.000000e+001 0.000000e+000 0.000000e+000
         vertex 1.000000e+001 0.000000e+000 1.000000e+001
      endloop
   endfacet
   facet normal 5.807913e-002 -9.983119e-001 0.000000e+000
      outer loop
         vertex 3.668304e+000 1.296311e+000 8.048758e+000
         vertex 3.668304e+000 1.296311e+000 1.000000e+001
         vertex 3.443203e+000 1.276617e+000 1.000000e+001
      endloop
   endfacet
   facet normal 1.161583e-001 -9.932307e-001 0.000000e+000
      outer loop
         vertex 3.668304e+000 1.296311e+000 8.048758e+000
         vertex 3.443203e+000 1.276617e+000 1.000000e+001
         vertex 3.443203e+000 1.276617e+000 8.048758e+000
      endloop
   endfacet
   facet normal 2.305519e-001 -9.730600e-001 0.000000e+000
      outer loop
         vertex 3.443203e+000 1.276617e+000 8.048758e+000
         vertex 3.443203e+000 1.276617e+000 1.000000e+001
         vertex 3.224940e+000 1.218134e+000 1.000000e+001
      endloop
   endfacet
   facet normal 2.868663e-001 -9.579706e-001 0.000000e+000
      outer loop
         vertex 3.443203e+000 1.276617e+000 8.048758e+000
         vertex 3.224940e+000 1.218134e+000 1.000000e+001
         vertex 3.224940e+000 1.218134e+000 8.048758e+000
      endloop
   endfacet
   facet normal 3.960194e-001 -9.182422e-001 0.000000e+000
      outer loop
         vertex 3.224940e+000 1.218134e+000 8.048758e+000
         vertex 3.224940e+000 1.218134e+000 1.000000e+001
         vertex 3.020149e+000 1.122638e+000 1.000000e+001
      endloop
   endfacet
   facet normal 4.488580e-001 -8.936031e-001 0.000000e+000
      outer loop
         vertex 3.224940e+000 1.218134e+000 8.048758e+000
         vertex 3.020149e+000 1.122638e+000 1.000000e+001
         vertex 3.020149e+000 1.122638e+000 8.048758e+000
      endloop
   endfacet
   facet normal 5.494540e-001 -8.355240e-001 0.000000e+000
      outer loop
         vertex 3.020149e+000 1.122638e+000 8.048758e+000
         vertex 3.020149e+000 1.122638e+000 1.000000e+001
         vertex 2.835052e+000 9.930316e-001 1.000000e+001
      endloop
   endfacet
   facet normal 5.972114e-001 -8.020838e-001 0.000000e+000
      outer loop
         vertex 3.020149e+000 1.122638e+000 8.048758e+000
         vertex 2.835052e+000 9.930316e-001 1.000000e+001
         vertex 2.835052e+000 9.930316e-001 8.048758e+000
      endloop
   endfacet
   facet normal 6.861938e-001 -7.274188e-001 0.000000e+000
      outer loop
         vertex 2.835052e+000 9.930316e-001 8.048758e+000
         vertex 2.835052e+000 9.930316e-001 1.000000e+001
         vertex 2.675273e+000 8.332524e-001 1.000000e+001
      endloop
   endfacet
   facet normal 7.274188e-001 -6.861938e-001 0.000000e+000
      outer loop
         vertex 2.835052e+000 9.930316e-001 8.048758e+000
         vertex 2.675273e+000 8.332524e-001 1.000000e+001
         vertex 2.675273e+000 8.332524e-001 8.048758e+000
      endloop
   endfacet
   facet normal 8.020838e-001 -5.972114e-001 0.000000e+000
      outer loop
         vertex 2.675273e+000 8.332524e-001 8.048758e+000
         vertex 2.675273e+000 8.332524e-001 1.000000e+001
         vertex 2.545667e+000 6.481553e-001 1.000000e+001
      endloop
   endfacet
   facet normal 8.355240e-001 -5.494540e-001 0.000000e+000
      outer loop
         vertex 2.675273e+000 8.332524e-001 8.048758e+000
         vertex 2.545667e+000 6.481553e-001 1.000000e+001
         vertex 2.545667e+000 6.481553e-001 8.048758e+000
      endloop
   endfacet
   facet normal 8.936031e-001 -4.488580e-001 0.000000e+000
      outer loop
         vertex 2.545667e+000 6.481553e-001 8.048758e+000
         vertex 2.545667e+000 6.481553e-001 1.000000e+001
         vertex 2.450171e+000 4.433644e-001 1.000000e+001
      endloop
   endfacet
   facet normal 9.182422e-001 -3.960194e-001 0.000000e+000
      outer loop
         vertex 2.545667e+000 6.481553e-001 8.048758e+000
         vertex 2.450171e+000 4.433644e-001 1.000000e+001
         vertex 2.450171e+000 4.433644e-001 8.048758e+000
      endloop
   endfacet
   facet normal 9.579706e-001 -2.868663e-001 0.000000e+000
      outer loop
         vertex 2.450171e+000 4.433644e-001 8.048758e+000
         vertex 2.450171e+000 4.433644e-001 1.000000e+001
         vertex 2.391688e+000 2.251020e-001 1.000000e+001
      endloop
   endfacet
   facet normal 9.730600e-001 -2.305519e-001 0.000000e+000
      outer loop
         vertex 2.450171e+000 4.433644e-001 8.048758e+000
         vertex 2.391688e+000 2.251020e-001 1.000000e+001
         vertex 2.391688e+000 2.251020e-001 8.048758e+000
      endloop
   endfacet
   facet normal 9.932307e-001 -1.161583e-001 0.000000e+000
      outer loop
         vertex 2.391688e+000 2.251020e-001 8.048758e+000
         vertex 2.391688e+000 2.251020e-001 1.000000e+001
         vertex 2.371994e+000 1.587523e-016 1.000000e+001
      endloop
   endfacet
   facet normal 9.983119e-001 -5.807913e-002 0.000000e+000
      outer loop
         vertex 2.391688e+000 2.251020e-001 8.048758e+000
         vertex 2.371994e+000 1.587523e-016 1.000000e+001
         vertex 2.371994e+000 1.587523e-016 8.048758e+000
      endloop
   endfacet
   facet normal 0.000000e+000 -1.000000e+000 0.000000e+000
      outer loop
         vertex 3.668304e+000 1.296311e+000 8.048758e+000
         vertex 6.331695e+000 1.296311e+000 8.048758e+000
         vertex 3.668304e+000 1.296311e+000 1.000000e+001
      endloop
   endfacet
   facet normal 0.000000e+000 -1.000000e+000 0.000000e+000
      outer loop
         vertex 3.668304e+000 1.296311e+000 1.000000e+001
         vertex 6.331695e+000 1.296311e+000 8.048758e+000
         vertex 6.331695e+000 1.296311e+000 1.000000e+001
      endloop
   endfacet
   facet normal -9.983119e-001 -5.807913e-002 0.000000e+000
      outer loop
         vertex 7.628006e+000 0.000000e+000 8.048758e+000
         vertex 7.628006e+000 0.000000e+000 1.000000e+001
         vertex 7.608312e+000 2.251020e-001 1.000000e+001
      endloop
   endfacet
   facet normal -9.932307e-001 -1.161583e-001 0.000000e+000
      outer loop
         vertex 7.628006e+000 0.000000e+000 8.048758e+000
         vertex 7.608312e+000 2.251020e-001 1.000000e+001
         vertex 7.608312e+000 2.251020e-001 8.048758e+000
      endloop
   endfacet
   facet normal -9.730600e-001 -2.305519e-001 0.000000e+000
      outer loop
         vertex 7.608312e+000 2.251020e-001 8.048758e+000
         vertex 7.608312e+000 2.251020e-001 1.000000e+001
         vertex 7.549829e+000 4.433644e-001 1.000000e+001
      endloop
   endfacet
   facet normal -9.579706e-001 -2.868663e-001 0.000000e+000
      outer loop
         vertex 7.608312e+000 2.251020e-001 8.048758e+000
         vertex 7.549829e+000 4.433644e-001 1.000000e+001
         vertex 7.549829e+000 4.433644e-001 8.048758e+000
      endloop
   endfacet
   facet normal -9.182422e-001 -3.960194e-001 0.000000e+000
      outer loop
         vertex 7.549829e+000 4.433644e-001 8.048758e+000
         vertex 7.549829e+000 4.433644e-001 1.000000e+001
         vertex 7.454333e+000 6.481553e-001 1.000000e+001
      endloop
   endfacet
   facet normal -8.936031e-001 -4.488580e-001 0.000000e+000
      outer loop
         vertex 7.549829e+000 4.433644e-001 8.048758e+000
         vertex 7.454333e+000 6.481553e-001 1.000000e+001
         vertex 7.454333e+000 6.481553e-001 8.048758e+000
      endloop
   endfacet
   facet normal -8.355240e-001 -5.494540e-001 0.000000e+000
      outer loop
         vertex 7.454333e+000 6.481553e-001 8.048758e+000
         vertex 7.454333e+000 6.481553e-001 1.000000e+001
         vertex 7.324727e+000 8.332524e-001 1.000000e+001
      endloop
   endfacet
   facet normal -8.020838e-001 -5.972114e-001 0.000000e+000
      outer loop
         vertex 7.454333e+000 6.481553e-001 8.048758e+000
         vertex 7.324727e+000 8.332524e-001 1.000000e+001
         vertex 7.324727e+000 8.332524e-001 8.048758e+000
      endloop
   endfacet
   facet normal -7.274188e-001 -6.861938e-001 0.000000e+000
      outer loop
         vertex 7.324727e+000 8.332524e-001 8.048758e+000
         vertex 7.324727e+000 8.332524e-001 1.000000e+001
         vertex 7.164948e+000 9.930316e-001 1.000000e+001
      endloop
   endfacet
   facet normal -6.861938e-001 -7.274188e-001 0.000000e+000
      outer loop
         vertex 7.324727e+000 8.332524e-001 8.048758e+000
         vertex 7.164948e+000 9.930316e-001 1.000000e+001
         vertex 7.164948e+000 9.930316e-001 8.048758e+000
      endloop
   endfacet
   facet normal -5.972114e-001 -8.020838e-001 0.000000e+000
      outer loop
         vertex 7.164948e+000 9.930316e-001 8.048758e+000
         vertex 7.164948e+000 9.930316e-001 1.000000e+001
         vertex 6.979851e+000 1.122638e+000 1.000000e+001
      endloop
   endfacet
   facet normal -5.494540e-001 -8.355240e-001 0.000000e+000
      outer loop
         vertex 7.164948e+000 9.930316e-001 8.048758e+000
         vertex 6.979851e+000 1.122638e+000 1.000000e+001
         vertex 6.979851e+000 1.122638e+000 8.048758e+000
      endloop
   endfacet
   facet normal -4.488580e-001 -8.936031e-001 0.000000e+000
      outer loop
         vertex 6.979851e+000 1.122638e+000 8.048758e+000
         vertex 6.979851e+000 1.122638e+000 1.000000e+001
         vertex 6.775060e+000 1.218134e+000 1.000000e+001
      endloop
   endfacet
   facet normal -3.960194e-001 -9.182422e-001 0.000000e+000
      outer loop
         vertex 6.979851e+000 1.122638e+000 8.048758e+000
         vertex 6.775060e+000 1.218134e+000 1.000000e+001
         vertex 6.775060e+000 1.218134e+000 8.048758e+000
      endloop
   endfacet
   facet normal -2.868663e-001 -9.579706e-001 0.000000e+000
      outer loop
         vertex 6.775060e+000 1.218134e+000 8.048758e+000
         vertex 6.775060e+000 1.218134e+000 1.000000e+001
         vertex 6.556798e+000 1.276617e+000 1.000000e+001
      endloop
   endfacet
   facet normal -2.305519e-001 -9.730600e-001 0.000000e+000
      outer loop
         vertex 6.775060e+000 1.218134e+000 8.048758e+000
         vertex 6.556798e+000 1.276617e+000 1.000000e+001
         vertex 6.556798e+000 1.276617e+000 8.048758e+000
      endloop
   endfacet
   facet normal -1.161583e-001 -9.932307e-001 0.000000e+000
      outer loop
         vertex 6.556798e+000 1.276617e+000 8.048758e+000
         vertex 6.556798e+000 1.276617e+000 1.000000e+001
         vertex 6.331695e+000 1.296311e+000 1.000000e+001
      endloop
   endfacet
   facet normal -5.807913e-002 -9.983119e-001 0.000000e+000
      outer loop
         vertex 6.556798e+000 1.276617e+000 8.048758e+000
         vertex 6.331695e+000 1.296311e+000 1.000000e+001
         vertex 6.331695e+000 1.296311e+000 8.048758e+000
      endloop
   endfacet
   facet normal 0.000000e+000 0.000000e+000 1.000000e+000
      outer loop
         vertex 2.545667e+000 6.481553e-001 8.048758e+000
         vertex 2.450171e+000 4.433644e-001 8.048758e+000
         vertex 3.443203e+000 1.276617e+000 8.048758e+000
      endloop
   endfacet
   facet normal 0.000000e+000 0.000000e+000 1.000000e+000
      outer loop
         vertex 3.443203e+000 1.276617e+000 8.048758e+000
         vertex 2.450171e+000 4.433644e-001 8.048758e+000
         vertex 2.391688e+000 2.251020e-001 8.048758e+000
      endloop
   endfacet
   facet normal 0.000000e+000 0.000000e+000 1.000000e+000
      outer loop
         vertex 3.443203e+000 1.276617e+000 8.048758e+000
         vertex 2.391688e+000 2.251020e-001 8.048758e+000
         vertex 3.668304e+000 1.296311e+000 8.048758e+000
      endloop
   endfacet
   facet normal 0.000000e+000 0.000000e+000 1.000000e+000
      outer loop
         vertex 3.668304e+000 1.296311e+000 8.048758e+000
         vertex 2.391688e+000 2.251020e-001 8.048758e+000
         vertex 2.371994e+000 0.000000e+000 8.048758e+000
      endloop
   endfacet
   facet normal 0.000000e+000 0.000000e+000 1.000000e+000
      outer loop
         vertex 3.668304e+000 1.296311e+000 8.048758e+000
         vertex 2.371994e+000 0.000000e+000 8.048758e+000
         vertex 6.331695e+000 1.296311e+000 8.048758e+000
      endloop
   endfacet
   facet normal 0.000000e+000 0.000000e+000 1.000000e+000
      outer loop
         vertex 6.331695e+000 1.296311e+000 8.048758e+000
         vertex 2.371994e+000 0.000000e+000 8.048758e+000
         vertex 7.628006e+000 0.000000e+000 8.048758e+000
      endloop
   endfacet
   facet normal 0.000000e+000 0.000000e+000 1.000000e+000
      outer loop
         vertex 6.331695e+000 1.296311e+000 8.048758e+000
         vertex 7.628006e+000 0.000000e+000 8.048758e+000
         vertex 7.608312e+000 2.251020e-001 8.048758e+000
      endloop
   endfacet
   facet normal 0.000000e+000 0.000000e+000 1.000000e+000
      outer loop
         vertex 7.608312e+000 2.251020e-001 8.048758e+000
         vertex 7.549829e+000 4.433644e-001 8.048758e+000
         vertex 6.331695e+000 1.296311e+000 8.048758e+000
      endloop
   endfacet
   facet normal 0.000000e+000 0.000000e+000 1.000000e+000
      outer loop
         vertex 6.331695e+000 1.296311e+000 8.048758e+000
         vertex 7.549829e+000 4.433644e-001 8.048758e+000
         vertex 7.454333e+000 6.481553e-001 8.048758e+000
      endloop
   endfacet
   facet normal 0.000000e+000 0.000000e+000 1.000000e+000
      outer loop
         vertex 6.331695e+000 1.296311e+000 8.048758e+000
         vertex 7.454333e+000 6.481553e-001 8.048758e+000
         vertex 7.324727e+000 8.332524e-001 8.048758e+000
      endloop
   endfacet
   facet normal 0.000000e+000 0.000000e+000 1.000000e+000
      outer loop
         vertex 3.224940e+000 1.218134e+000 8.048758e+000
         vertex 3.020149e+000 1.122638e+000 8.048758e+000
         vertex 2.835052e+000 9.930316e-001 8.048758e+000
      endloop
   endfacet
   facet normal 0.000000e+000 0.000000e+000 1.000000e+000
      outer loop
         vertex 7.324727e+000 8.332524e-001 8.048758e+000
         vertex 7.164948e+000 9.930316e-001 8.048758e+000
         vertex 6.331695e+000 1.296311e+000 8.048758e+000
      endloop
   endfacet
   facet normal 0.000000e+000 0.000000e+000 1.000000e+000
      outer loop
         vertex 6.331695e+000 1.296311e+000 8.048758e+000
         vertex 7.164948e+000 9.930316e-001 8.048758e+000
         vertex 6.979851e+000 1.122638e+000 8.048758e+000
      endloop
   endfacet
   facet normal 0.000000e+000 0.000000e+000 1.000000e+000
      outer loop
         vertex 6.331695e+000 1.296311e+000 8.048758e+000
         vertex 6.979851e+000 1.122638e+000 8.048758e+000
         vertex 6.556798e+000 1.276617e+000 8.048758e+000
      endloop
   endfacet
   facet normal 0.000000e+000 0.000000e+000 1.000000e+000
      outer loop
         vertex 6.556798e+000 1.276617e+000 8.048758e+000
         vertex 6.979851e+000 1.122638e+000 8.048758e+000
         vertex 6.775060e+000 1.218134e+000 8.048758e+000
      endloop
   endfacet
   facet normal 0.000000e+000 0.000000e+000 1.000000e+000
      outer loop
         vertex 3.224940e+000 1.218134e+000 8.048758e+000
         vertex 2.835052e+000 9.930316e-001 8.048758e+000
         vertex 3.443203e+000 1.276617e+000 8.048758e+000
      endloop
   endfacet
   facet normal 0.000000e+000 0.000000e+000 1.000000e+000
      outer loop
         vertex 3.443203e+000 1.276617e+000 8.048758e+000
         vertex 2.835052e+000 9.930316e-001 8.048758e+000
         vertex 2.675273e+000 8.332524e-001 8.048758e+000
      endloop
   endfacet
   facet normal 0.000000e+000 0.000000e+000 1.000000e+000
      outer loop
         vertex 3.443203e+000 1.276617e+000 8.048758e+000
         vertex 2.675273e+000 8.332524e-001 8.048758e+000
         vertex 2.545667e+000 6.481553e-001 8.048758e+000
      endloop
   endfacet
endsolid