solid 21_305
   facet normal -1.000000e+000 0.000000e+000 0.000000e+000
      outer loop
         vertex 0.000000e+000 1.000000e+001 1.000000e+001
         vertex 0.000000e+000 1.000000e+001 0.000000e+000
         vertex 0.000000e+000 0.000000e+000 1.000000e+001
      endloop
   endfacet
   facet normal -1.000000e+000 0.000000e+000 0.000000e+000
      outer loop
         vertex 0.000000e+000 0.000000e+000 1.000000e+001
         vertex 0.000000e+000 1.000000e+001 0.000000e+000
         vertex 0.000000e+000 0.000000e+000 0.000000e+000
      endloop
   endfacet
   facet normal 0.000000e+000 0.000000e+000 1.000000e+000
      outer loop
         vertex 6.835966e+000 2.164733e-001 1.000000e+001
         vertex 6.854904e+000 0.000000e+000 1.000000e+001
         vertex 1.000000e+001 0.000000e+000 1.000000e+001
      endloop
   endfacet
   facet normal 0.000000e+000 0.000000e+000 1.000000e+000
      outer loop
         vertex 3.436749e+000 8.013119e-001 1.000000e+001
         vertex 3.590404e+000 9.549663e-001 1.000000e+001
         vertex 0.000000e+000 1.000000e+001 1.000000e+001
      endloop
   endfacet
   facet normal 0.000000e+000 0.000000e+000 1.000000e+000
      outer loop
         vertex 0.000000e+000 1.000000e+001 1.000000e+001
         vertex 3.590404e+000 9.549663e-001 1.000000e+001
         vertex 3.768406e+000 1.079605e+000 1.000000e+001
      endloop
   endfacet
   facet normal 0.000000e+000 0.000000e+000 1.000000e+000
      outer loop
         vertex 0.000000e+000 1.000000e+001 1.000000e+001
         vertex 3.768406e+000 1.079605e+000 1.000000e+001
         vertex 3.965347e+000 1.171440e+000 1.000000e+001
      endloop
   endfacet
   facet normal 0.000000e+000 0.000000e+000 1.000000e+000
      outer loop
         vertex 5.824758e+000 1.227681e+000 1.000000e+001
         vertex 6.034654e+000 1.171440e+000 1.000000e+001
         vertex 1.000000e+001 1.000000e+001 1.000000e+001
      endloop
   endfacet
   facet normal 0.000000e+000 0.000000e+000 1.000000e+000
      outer loop
         vertex 1.000000e+001 1.000000e+001 1.000000e+001
         vertex 6.034654e+000 1.171440e+000 1.000000e+001
         vertex 6.231595e+000 1.079605e+000 1.000000e+001
      endloop
   endfacet
   facet normal 0.000000e+000 0.000000e+000 1.000000e+000
      outer loop
         vertex 1.000000e+001 1.000000e+001 1.000000e+001
         vertex 6.231595e+000 1.079605e+000 1.000000e+001
         vertex 6.409596e+000 9.549663e-001 1.000000e+001
      endloop
   endfacet
   facet normal 0.000000e+000 0.000000e+000 1.000000e+000
      outer loop
         vertex 3.145096e+000 0.000000e+000 1.000000e+001
         vertex 3.164035e+000 2.164733e-001 1.000000e+001
         vertex 0.000000e+000 0.000000e+000 1.000000e+001
      endloop
   endfacet
   facet normal 0.000000e+000 0.000000e+000 1.000000e+000
      outer loop
         vertex 0.000000e+000 0.000000e+000 1.000000e+001
         vertex 3.164035e+000 2.164733e-001 1.000000e+001
         vertex 3.220276e+000 4.263691e-001 1.000000e+001
      endloop
   endfacet
   facet normal 0.000000e+000 0.000000e+000 1.000000e+000
      outer loop
         vertex 0.000000e+000 0.000000e+000 1.000000e+001
         vertex 3.220276e+000 4.263691e-001 1.000000e+001
         vertex 0.000000e+000 1.000000e+001 1.000000e+001
      endloop
   endfacet
   facet normal 0.000000e+000 0.000000e+000 1.000000e+000
      outer loop
         vertex 0.000000e+000 1.000000e+001 1.000000e+001
         vertex 3.220276e+000 4.263691e-001 1.000000e+001
         vertex 3.312111e+000 6.233100e-001 1.000000e+001
      endloop
   endfacet
   facet normal 0.000000e+000 0.000000e+000 1.000000e+000
      outer loop
         vertex 0.000000e+000 1.000000e+001 1.000000e+001
         vertex 3.312111e+000 6.233100e-001 1.000000e+001
         vertex 3.436749e+000 8.013119e-001 1.000000e+001
      endloop
   endfacet
   facet normal 0.000000e+000 0.000000e+000 1.000000e+000
      outer loop
         vertex 6.409596e+000 9.549663e-001 1.000000e+001
         vertex 6.563251e+000 8.013119e-001 1.000000e+001
         vertex 1.000000e+001 1.000000e+001 1.000000e+001
      endloop
   endfacet
   facet normal 0.000000e+000 0.000000e+000 1.000000e+000
      outer loop
         vertex 1.000000e+001 1.000000e+001 1.000000e+001
         vertex 6.563251e+000 8.013119e-001 1.000000e+001
         vertex 6.687889e+000 6.233100e-001 1.000000e+001
      endloop
   endfacet
   facet normal 0.000000e+000 0.000000e+000 1.000000e+000
      outer loop
         vertex 1.000000e+001 1.000000e+001 1.000000e+001
         vertex 6.687889e+000 6.233100e-001 1.000000e+001
         vertex 1.000000e+001 0.000000e+000 1.000000e+001
      endloop
   endfacet
   facet normal 0.000000e+000 0.000000e+000 1.000000e+000
      outer loop
         vertex 1.000000e+001 0.000000e+000 1.000000e+001
         vertex 6.687889e+000 6.233100e-001 1.000000e+001
         vertex 6.779724e+000 4.263691e-001 1.000000e+001
      endloop
   endfacet
   facet normal 0.000000e+000 0.000000e+000 1.000000e+000
      outer loop
         vertex 1.000000e+001 0.000000e+000 1.000000e+001
         vertex 6.779724e+000 4.263691e-001 1.000000e+001
         vertex 6.835966e+000 2.164733e-001 1.000000e+001
      endloop
   endfacet
   facet normal 0.000000e+000 0.000000e+000 1.000000e+000
      outer loop
         vertex 3.965347e+000 1.171440e+000 1.000000e+001
         vertex 4.175242e+000 1.227681e+000 1.000000e+001
         vertex 0.000000e+000 1.000000e+001 1.000000e+001
      endloop
   endfacet
   facet normal 0.000000e+000 0.000000e+000 1.000000e+000
      outer loop
         vertex 0.000000e+000 1.000000e+001 1.000000e+001
         vertex 4.175242e+000 1.227681e+000 1.000000e+001
         vertex 4.391716e+000 1.246620e+000 1.000000e+001
      endloop
   endfacet
   facet normal 0.000000e+000 0.000000e+000 1.000000e+000
      outer loop
         vertex 0.000000e+000 1.000000e+001 1.000000e+001
         vertex 4.391716e+000 1.246620e+000 1.000000e+001
         vertex 1.000000e+001 1.000000e+001 1.000000e+001
      endloop
   endfacet
   facet normal 0.000000e+000 0.000000e+000 1.000000e+000
      outer loop
         vertex 1.000000e+001 1.000000e+001 1.000000e+001
         vertex 4.391716e+000 1.246620e+000 1.000000e+001
         vertex 5.608284e+000 1.246620e+000 1.000000e+001
      endloop
   endfacet
   facet normal 0.000000e+000 0.000000e+000 1.000000e+000
      outer loop
         vertex 1.000000e+001 1.000000e+001 1.000000e+001
         vertex 5.608284e+000 1.246620e+000 1.000000e+001
         vertex 5.824758e+000 1.227681e+000 1.000000e+001
      endloop
   endfacet
   facet normal 1.000000e+000 0.000000e+000 0.000000e+000
      outer loop
         vertex 1.000000e+001 1.000000e+001 0.000000e+000
         vertex 1.000000e+001 1.000000e+001 1.000000e+001
         vertex 1.000000e+001 0.000000e+000 0.000000e+000
      endloop
   endfacet
   facet normal 1.000000e+000 0.000000e+000 0.000000e+000
      outer loop
         vertex 1.000000e+001 0.000000e+000 0.000000e+000
         vertex 1.000000e+001 1.000000e+001 1.000000e+001
         vertex 1.000000e+001 0.000000e+000 1.000000e+001
      endloop
   endfacet
   facet normal 0.000000e+000 0.000000e+000 -1.000000e+000
      outer loop
         vertex 0.000000e+000 1.000000e+001 0.000000e+000
         vertex 1.000000e+001 1.000000e+001 0.000000e+000
         vertex 0.000000e+000 0.000000e+000 0.000000e+000
      endloop
   endfacet
   facet normal 0.000000e+000 0.000000e+000 -1.000000e+000
      outer loop
         vertex 0.000000e+000 0.000000e+000 0.000000e+000
         vertex 1.000000e+001 1.000000e+001 0.000000e+000
         vertex 1.000000e+001 0.000000e+000 0.000000e+000
      endloop
   endfacet
   facet normal 0.000000e+000 1.000000e+000 0.000000e+000
      outer loop
         vertex 1.000000e+001 1.000000e+001 1.000000e+001
         vertex 1.000000e+001 1.000000e+001 0.000000e+000
         vertex 0.000000e+000 1.000000e+001 1.000000e+001
      endloop
   endfacet
   facet normal 0.000000e+000 1.000000e+000 0.000000e+000
      outer loop
         vertex 0.000000e+000 1.000000e+001 1.000000e+001
         vertex 1.000000e+001 1.000000e+001 0.000000e+000
         vertex 0.000000e+000 1.000000e+001 0.000000e+000
      endloop
   endfacet
   facet normal 0.000000e+000 -1.000000e+000 0.000000e+000
      outer loop
         vertex 3.145096e+000 0.000000e+000 1.000000e+001
         vertex 0.000000e+000 0.000000e+000 1.000000e+001
         vertex 3.145096e+000 0.000000e+000 7.247388e+000
      endloop
   endfacet
   facet normal 0.000000e+000 -1.000000e+000 0.000000e+000
      outer loop
         vertex 3.145096e+000 0.000000e+000 7.247388e+000
         vertex 0.000000e+000 0.000000e+000 1.000000e+001
         vertex 0.000000e+000 0.000000e+000 0.000000e+000
      endloop
   endfacet
   facet normal 0.000000e+000 -1.000000e+000 0.000000e+000
      outer loop
         vertex 3.145096e+000 0.000000e+000 7.247388e+000
         vertex 0.000000e+000 0.000000e+000 0.000000e+000
         vertex 6.854904e+000 0.000000e+000 7.247388e+000
      endloop
   endfacet
   facet normal 0.000000e+000 -1.000000e+000 0.000000e+000
      outer loop
         vertex 6.854904e+000 0.000000e+000 7.247388e+000
         vertex 0.000000e+000 0.000000e+000 0.000000e+000
         vertex 1.000000e+001 0.000000e+000 0.000000e+000
      endloop
   endfacet
   facet normal 0.000000e+000 -1.000000e+000 0.000000e+000
      outer loop
         vertex 6.854904e+000 0.000000e+000 7.247388e+000
         vertex 1.000000e+001 0.000000e+000 0.000000e+000
         vertex 6.854904e+000 0.000000e+000 1.000000e+001
      endloop
   endfacet
   facet normal 0.000000e+000 -1.000000e+000 0.000000e+000
      outer loop
         vertex 6.854904e+000 0.000000e+000 1.000000e+001
         vertex 1.000000e+001 0.000000e+000 0.000000e+000
         vertex 1.000000e+001 0.000000e+000 1.000000e+001
      endloop
   endfacet
   facet normal 5.807913e-002 -9.983119e-001 0.000000e+000
      outer loop
         vertex 4.391716e+000 1.246620e+000 7.247388e+000
         vertex 4.391716e+000 1.246620e+000 1.000000e+001
         vertex 4.175242e+000 1.227681e+000 1.000000e+001
      endloop
   endfacet
   facet normal 1.161583e-001 -9.932307e-001 0.000000e+000
      outer loop
         vertex 4.391716e+000 1.246620e+000 7.247388e+000
         vertex 4.175242e+000 1.227681e+000 1.000000e+001
         vertex 4.175242e+000 1.227681e+000 7.247388e+000
      endloop
   endfacet
   facet normal 2.305519e-001 -9.730600e-001 0.000000e+000
      outer loop
         vertex 4.175242e+000 1.227681e+000 7.247388e+000
         vertex 4.175242e+000 1.227681e+000 1.000000e+001
         vertex 3.965347e+000 1.171440e+000 1.000000e+001
      endloop
   endfacet
   facet normal 2.868663e-001 -9.579706e-001 0.000000e+000
      outer loop
         vertex 4.175242e+000 1.227681e+000 7.247388e+000
         vertex 3.965347e+000 1.171440e+000 1.000000e+001
         vertex 3.965347e+000 1.171440e+000 7.247388e+000
      endloop
   endfacet
   facet normal 3.960194e-001 -9.182422e-001 0.000000e+000
      outer loop
         vertex 3.965347e+000 1.171440e+000 7.247388e+000
         vertex 3.965347e+000 1.171440e+000 1.000000e+001
         vertex 3.768406e+000 1.079605e+000 1.000000e+001
      endloop
   endfacet
   facet normal 4.488580e-001 -8.936031e-001 0.000000e+000
      outer loop
         vertex 3.965347e+000 1.171440e+000 7.247388e+000
         vertex 3.768406e+000 1.079605e+000 1.000000e+001
         vertex 3.768406e+000 1.079605e+000 7.247388e+000
      endloop
   endfacet
   facet normal 5.494540e-001 -8.355240e-001 0.000000e+000
      outer loop
         vertex 3.768406e+000 1.079605e+000 7.247388e+000
         vertex 3.768406e+000 1.079605e+000 1.000000e+001
         vertex 3.590404e+000 9.549663e-001 1.000000e+001
      endloop
   endfacet
   facet normal 5.972114e-001 -8.020838e-001 0.000000e+000
      outer loop
         vertex 3.768406e+000 1.079605e+000 7.247388e+000
         vertex 3.590404e+000 9.549663e-001 1.000000e+001
         vertex 3.590404e+000 9.549663e-001 7.247388e+000
      endloop
   endfacet
   facet normal 6.861938e-001 -7.274188e-001 0.000000e+000
      outer loop
         vertex 3.590404e+000 9.549663e-001 7.247388e+000
         vertex 3.590404e+000 9.549663e-001 1.000000e+001
         vertex 3.436749e+000 8.013119e-001 1.000000e+001
      endloop
   endfacet
   facet normal 7.274188e-001 -6.861938e-001 0.000000e+000
      outer loop
         vertex 3.590404e+000 9.549663e-001 7.247388e+000
         vertex 3.436749e+000 8.013119e-001 1.000000e+001
         vertex 3.436749e+000 8.013119e-001 7.247388e+000
      endloop
   endfacet
   facet normal 8.020838e-001 -5.972114e-001 0.000000e+000
      outer loop
         vertex 3.436749e+000 8.013119e-001 7.247388e+000
         vertex 3.436749e+000 8.013119e-001 1.000000e+001
         vertex 3.312111e+000 6.233100e-001 1.000000e+001
      endloop
   endfacet
   facet normal 8.355240e-001 -5.494540e-001 0.000000e+000
      outer loop
         vertex 3.436749e+000 8.013119e-001 7.247388e+000
         vertex 3.312111e+000 6.233100e-001 1.000000e+001
         vertex 3.312111e+000 6.233100e-001 7.247388e+000
      endloop
   endfacet
   facet normal 8.936031e-001 -4.488580e-001 0.000000e+000
      outer loop
         vertex 3.312111e+000 6.233100e-001 7.247388e+000
         vertex 3.312111e+000 6.233100e-001 1.000000e+001
         vertex 3.220276e+000 4.263691e-001 1.000000e+001
      endloop
   endfacet
   facet normal 9.182422e-001 -3.960194e-001 0.000000e+000
      outer loop
         vertex 3.312111e+000 6.233100e-001 7.247388e+000
         vertex 3.220276e+000 4.263691e-001 1.000000e+001
         vertex 3.220276e+000 4.263691e-001 7.247388e+000
      endloop
   endfacet
   facet normal 9.579706e-001 -2.868663e-001 0.000000e+000
      outer loop
         vertex 3.220276e+000 4.263691e-001 7.247388e+000
         vertex 3.220276e+000 4.263691e-001 1.000000e+001
         vertex 3.164035e+000 2.164733e-001 1.000000e+001
      endloop
   endfacet
   facet normal 9.730600e-001 -2.305519e-001 0.000000e+000
      outer loop
         vertex 3.220276e+000 4.263691e-001 7.247388e+000
         vertex 3.164035e+000 2.164733e-001 1.000000e+001
         vertex 3.164035e+000 2.164733e-001 7.247388e+000
      endloop
   endfacet
   facet normal 9.932307e-001 -1.161583e-001 0.000000e+000
      outer loop
         vertex 3.164035e+000 2.164733e-001 7.247388e+000
         vertex 3.164035e+000 2.164733e-001 1.000000e+001
         vertex 3.145096e+000 1.526669e-016 1.000000e+001
      endloop
   endfacet
   facet normal 9.983119e-001 -5.807913e-002 0.000000e+000
      outer loop
         vertex 3.164035e+000 2.164733e-001 7.247388e+000
         vertex 3.145096e+000 1.526669e-016 1.000000e+001
         vertex 3.145096e+000 1.526669e-016 7.247388e+000
      endloop
   endfacet
   facet normal 0.000000e+000 -1.000000e+000 0.000000e+000
      outer loop
         vertex 4.391716e+000 1.246620e+000 7.247388e+000
         vertex 5.608284e+000 1.246620e+000 7.247388e+000
         vertex 4.391716e+000 1.246620e+000 1.000000e+001
      endloop
   endfacet
   facet normal 0.000000e+000 -1.000000e+000 0.000000e+000
      outer loop
         vertex 4.391716e+000 1.246620e+000 1.000000e+001
         vertex 5.608284e+000 1.246620e+000 7.247388e+000
         vertex 5.608284e+000 1.246620e+000 1.000000e+001
      endloop
   endfacet
   facet normal -9.983119e-001 -5.807913e-002 0.000000e+000
      outer loop
         vertex 6.854904e+000 0.000000e+000 7.247388e+000
         vertex 6.854904e+000 0.000000e+000 1.000000e+001
         vertex 6.835966e+000 2.164733e-001 1.000000e+001
      endloop
   endfacet
   facet normal -9.932307e-001 -1.161583e-001 0.000000e+000
      outer loop
         vertex 6.854904e+000 0.000000e+000 7.247388e+000
         vertex 6.835966e+000 2.164733e-001 1.000000e+001
         vertex 6.835966e+000 2.164733e-001 7.247388e+000
      endloop
   endfacet
   facet normal -9.730600e-001 -2.305519e-001 0.000000e+000
      outer loop
         vertex 6.835966e+000 2.164733e-001 7.247388e+000
         vertex 6.835966e+000 2.164733e-001 1.000000e+001
         vertex 6.779724e+000 4.263691e-001 1.000000e+001
      endloop
   endfacet
   facet normal -9.579706e-001 -2.868663e-001 0.000000e+000
      outer loop
         vertex 6.835966e+000 2.164733e-001 7.247388e+000
         vertex 6.779724e+000 4.263691e-001 1.000000e+001
         vertex 6.779724e+000 4.263691e-001 7.247388e+000
      endloop
   endfacet
   facet normal -9.182422e-001 -3.960194e-001 0.000000e+000
      outer loop
         vertex 6.779724e+000 4.263691e-001 7.247388e+000
         vertex 6.779724e+000 4.263691e-001 1.000000e+001
         vertex 6.687889e+000 6.233100e-001 1.000000e+001
      endloop
   endfacet
   facet normal -8.936031e-001 -4.488580e-001 0.000000e+000
      outer loop
         vertex 6.779724e+000 4.263691e-001 7.247388e+000
         vertex 6.687889e+000 6.233100e-001 1.000000e+001
         vertex 6.687889e+000 6.233100e-001 7.247388e+000
      endloop
   endfacet
   facet normal -8.355240e-001 -5.494540e-001 0.000000e+000
      outer loop
         vertex 6.687889e+000 6.233100e-001 7.247388e+000
         vertex 6.687889e+000 6.233100e-001 1.000000e+001
         vertex 6.563251e+000 8.013119e-001 1.000000e+001
      endloop
   endfacet
   facet normal -8.020838e-001 -5.972114e-001 0.000000e+000
      outer loop
         vertex 6.687889e+000 6.233100e-001 7.247388e+000
         vertex 6.563251e+000 8.013119e-001 1.000000e+001
         vertex 6.563251e+000 8.013119e-001 7.247388e+000
      endloop
   endfacet
   facet normal -7.274188e-001 -6.861938e-001 0.000000e+000
      outer loop
         vertex 6.563251e+000 8.013119e-001 7.247388e+000
         vertex 6.563251e+000 8.013119e-001 1.000000e+001
         vertex 6.409596e+000 9.549663e-001 1.000000e+001
      endloop
   endfacet
   facet normal -6.861938e-001 -7.274188e-001 0.000000e+000
      outer loop
         vertex 6.563251e+000 8.013119e-001 7.247388e+000
         vertex 6.409596e+000 9.549663e-001 1.000000e+001
         vertex 6.409596e+000 9.549663e-001 7.247388e+000
      endloop
   endfacet
   facet normal -5.972114e-001 -8.020838e-001 0.000000e+000
      outer loop
         vertex 6.409596e+000 9.549663e-001 7.247388e+000
         vertex 6.409596e+000 9.549663e-001 1.000000e+001
         vertex 6.231595e+000 1.079605e+000 1.000000e+001
      endloop
   endfacet
   facet normal -5.494540e-001 -8.355240e-001 0.000000e+000
      outer loop
         vertex 6.409596e+000 9.549663e-001 7.247388e+000
         vertex 6.231595e+000 1.079605e+000 1.000000e+001
         vertex 6.231595e+000 1.079605e+000 7.247388e+000
      endloop
   endfacet
   facet normal -4.488580e-001 -8.936031e-001 0.000000e+000
      outer loop
         vertex 6.231595e+000 1.079605e+000 7.247388e+000
         vertex 6.231595e+000 1.079605e+000 1.000000e+001
         vertex 6.034654e+000 1.171440e+000 1.000000e+001
      endloop
   endfacet
   facet normal -3.960194e-001 -9.182422e-001 0.000000e+000
      outer loop
         vertex 6.231595e+000 1.079605e+000 7.247388e+000
         vertex 6.034654e+000 1.171440e+000 1.000000e+001
         vertex 6.034654e+000 1.171440e+000 7.247388e+000
      endloop
   endfacet
   facet normal -2.868663e-001 -9.579706e-001 0.000000e+000
      outer loop
         vertex 6.034654e+000 1.171440e+000 7.247388e+000
         vertex 6.034654e+000 1.171440e+000 1.000000e+001
         vertex 5.824758e+000 1.227681e+000 1.000000e+001
      endloop
   endfacet
   facet normal -2.305519e-001 -9.730600e-001 0.000000e+000
      outer loop
         vertex 6.034654e+000 1.171440e+000 7.247388e+000
         vertex 5.824758e+000 1.227681e+000 1.000000e+001
         vertex 5.824758e+000 1.227681e+000 7.247388e+000
      endloop
   endfacet
   facet normal -1.161583e-001 -9.932307e-001 0.000000e+000
      outer loop
         vertex 5.824758e+000 1.227681e+000 7.247388e+000
         vertex 5.824758e+000 1.227681e+000 1.000000e+001
         vertex 5.608284e+000 1.246620e+000 1.000000e+001
      endloop
   endfacet
   facet normal -5.807913e-002 -9.983119e-001 0.000000e+000
      outer loop
         vertex 5.824758e+000 1.227681e+000 7.247388e+000
         vertex 5.608284e+000 1.246620e+000 1.000000e+001
         vertex 5.608284e+000 1.246620e+000 7.247388e+000
      endloop
   endfacet
   facet normal 0.000000e+000 0.000000e+000 1.000000e+000
      outer loop
         vertex 3.145096e+000 0.000000e+000 7.247388e+000
         vertex 6.854904e+000 0.000000e+000 7.247388e+000
         vertex 5.608284e+000 1.246620e+000 7.247388e+000
      endloop
   endfacet
   facet normal 0.000000e+000 0.000000e+000 1.000000e+000
      outer loop
         vertex 5.608284e+000 1.246620e+000 7.247388e+000
         vertex 6.854904e+000 0.000000e+000 7.247388e+000
         vertex 6.835966e+000 2.164733e-001 7.247388e+000
      endloop
   endfacet
   facet normal 0.000000e+000 0.000000e+000 1.000000e+000
      outer loop
         vertex 6.835966e+000 2.164733e-001 7.247388e+000
         vertex 6.779724e+000 4.263691e-001 7.247388e+000
         vertex 5.608284e+000 1.246620e+000 7.247388e+000
      endloop
   endfacet
   facet normal 0.000000e+000 0.000000e+000 1.000000e+000
      outer loop
         vertex 5.608284e+000 1.246620e+000 7.247388e+000
         vertex 6.779724e+000 4.263691e-001 7.247388e+000
         vertex 6.687889e+000 6.233100e-001 7.247388e+000
      endloop
   endfacet
   facet normal 0.000000e+000 0.000000e+000 1.000000e+000
      outer loop
         vertex 5.608284e+000 1.246620e+000 7.247388e+000
         vertex 6.687889e+000 6.233100e-001 7.247388e+000
         vertex 5.824758e+000 1.227681e+000 7.247388e+000
      endloop
   endfacet
   facet normal 0.000000e+000 0.000000e+000 1.000000e+000
      outer loop
         vertex 6.687889e+000 6.233100e-001 7.247388e+000
         vertex 6.563251e+000 8.013119e-001 7.247388e+000
         vertex 5.824758e+000 1.227681e+000 7.247388e+000
      endloop
   endfacet
   facet normal 0.000000e+000 0.000000e+000 1.000000e+000
      outer loop
         vertex 5.824758e+000 1.227681e+000 7.247388e+000
         vertex 6.563251e+000 8.013119e-001 7.247388e+000
         vertex 6.409596e+000 9.549663e-001 7.247388e+000
      endloop
   endfacet
   facet normal 0.000000e+000 0.000000e+000 1.000000e+000
      outer loop
         vertex 5.824758e+000 1.227681e+000 7.247388e+000
         vertex 6.409596e+000 9.549663e-001 7.247388e+000
         vertex 6.034654e+000 1.171440e+000 7.247388e+000
      endloop
   endfacet
   facet normal 0.000000e+000 0.000000e+000 1.000000e+000
      outer loop
         vertex 6.034654e+000 1.171440e+000 7.247388e+000
         vertex 6.409596e+000 9.549663e-001 7.247388e+000
         vertex 6.231595e+000 1.079605e+000 7.247388e+000
      endloop
   endfacet
   facet normal 0.000000e+000 0.000000e+000 1.000000e+000
      outer loop
         vertex 5.608284e+000 1.246620e+000 7.247388e+000
         vertex 4.391716e+000 1.246620e+000 7.247388e+000
         vertex 3.145096e+000 0.000000e+000 7.247388e+000
      endloop
   endfacet
   facet normal 0.000000e+000 0.000000e+000 1.000000e+000
      outer loop
         vertex 3.145096e+000 0.000000e+000 7.247388e+000
         vertex 4.391716e+000 1.246620e+000 7.247388e+000
         vertex 4.175242e+000 1.227681e+000 7.247388e+000
      endloop
   endfacet
   facet normal 0.000000e+000 0.000000e+000 1.000000e+000
      outer loop
         vertex 3.145096e+000 0.000000e+000 7.247388e+000
         vertex 4.175242e+000 1.227681e+000 7.247388e+000
         vertex 3.965347e+000 1.171440e+000 7.247388e+000
      endloop
   endfacet
   facet normal 0.000000e+000 0.000000e+000 1.000000e+000
      outer loop
         vertex 3.436749e+000 8.013119e-001 7.247388e+000
         vertex 3.312111e+000 6.233100e-001 7.247388e+000
         vertex 3.145096e+000 0.000000e+000 7.247388e+000
      endloop
   endfacet
   facet normal 0.000000e+000 0.000000e+000 1.000000e+000
      outer loop
         vertex 3.145096e+000 0.000000e+000 7.247388e+000
         vertex 3.312111e+000 6.233100e-001 7.247388e+000
         vertex 3.220276e+000 4.263691e-001 7.247388e+000
      endloop
   endfacet
   facet normal 0.000000e+000 0.000000e+000 1.000000e+000
      outer loop
         vertex 3.145096e+000 0.000000e+000 7.247388e+000
         vertex 3.220276e+000 4.263691e-001 7.247388e+000
         vertex 3.164035e+000 2.164733e-001 7.247388e+000
      endloop
   endfacet
   facet normal 0.000000e+000 0.000000e+000 1.000000e+000
      outer loop
         vertex 3.965347e+000 1.171440e+000 7.247388e+000
         vertex 3.768406e+000 1.079605e+000 7.247388e+000
         vertex 3.145096e+000 0.000000e+000 7.247388e+000
      endloop
   endfacet
   facet normal 0.000000e+000 0.000000e+000 1.000000e+000
      outer loop
         vertex 3.145096e+000 0.000000e+000 7.247388e+000
         vertex 3.768406e+000 1.079605e+000 7.247388e+000
         vertex 3.590404e+000 9.549663e-001 7.247388e+000
      endloop
   endfacet
   facet normal 0.000000e+000 0.000000e+000 1.000000e+000
      outer loop
         vertex 3.145096e+000 0.000000e+000 7.247388e+000
         vertex 3.590404e+000 9.549663e-001 7.247388e+000
         vertex 3.436749e+000 8.013119e-001 7.247388e+000
      endloop
   endfacet
endsolid