solid 21_438
   facet normal -1.000000e+000 0.000000e+000 0.000000e+000
      outer loop
         vertex 0.000000e+000 1.000000e+001 1.000000e+001
         vertex 0.000000e+000 1.000000e+001 0.000000e+000
         vertex 0.000000e+000 0.000000e+000 1.000000e+001
      endloop
   endfacet
   facet normal -1.000000e+000 0.000000e+000 0.000000e+000
      outer loop
         vertex 0.000000e+000 0.000000e+000 1.000000e+001
         vertex 0.000000e+000 1.000000e+001 0.000000e+000
         vertex 0.000000e+000 0.000000e+000 0.000000e+000
      endloop
   endfacet
   facet normal 0.000000e+000 0.000000e+000 1.000000e+000
      outer loop
         vertex 7.471535e+000 3.401935e-001 1.000000e+001
         vertex 7.501298e+000 0.000000e+000 1.000000e+001
         vertex 1.000000e+001 0.000000e+000 1.000000e+001
      endloop
   endfacet
   facet normal 0.000000e+000 0.000000e+000 1.000000e+000
      outer loop
         vertex 2.957043e+000 1.259283e+000 1.000000e+001
         vertex 3.198515e+000 1.500755e+000 1.000000e+001
         vertex 0.000000e+000 1.000000e+001 1.000000e+001
      endloop
   endfacet
   facet normal 0.000000e+000 0.000000e+000 1.000000e+000
      outer loop
         vertex 0.000000e+000 1.000000e+001 1.000000e+001
         vertex 3.198515e+000 1.500755e+000 1.000000e+001
         vertex 3.478250e+000 1.696627e+000 1.000000e+001
      endloop
   endfacet
   facet normal 0.000000e+000 0.000000e+000 1.000000e+000
      outer loop
         vertex 0.000000e+000 1.000000e+001 1.000000e+001
         vertex 3.478250e+000 1.696627e+000 1.000000e+001
         vertex 3.787747e+000 1.840948e+000 1.000000e+001
      endloop
   endfacet
   facet normal 0.000000e+000 0.000000e+000 1.000000e+000
      outer loop
         vertex 2.498702e+000 0.000000e+000 1.000000e+001
         vertex 2.528465e+000 3.401935e-001 1.000000e+001
         vertex 0.000000e+000 0.000000e+000 1.000000e+001
      endloop
   endfacet
   facet normal 0.000000e+000 0.000000e+000 1.000000e+000
      outer loop
         vertex 0.000000e+000 0.000000e+000 1.000000e+001
         vertex 2.528465e+000 3.401935e-001 1.000000e+001
         vertex 2.616849e+000 6.700503e-001 1.000000e+001
      endloop
   endfacet
   facet normal 0.000000e+000 0.000000e+000 1.000000e+000
      outer loop
         vertex 0.000000e+000 0.000000e+000 1.000000e+001
         vertex 2.616849e+000 6.700503e-001 1.000000e+001
         vertex 0.000000e+000 1.000000e+001 1.000000e+001
      endloop
   endfacet
   facet normal 0.000000e+000 0.000000e+000 1.000000e+000
      outer loop
         vertex 0.000000e+000 1.000000e+001 1.000000e+001
         vertex 2.616849e+000 6.700503e-001 1.000000e+001
         vertex 2.761171e+000 9.795480e-001 1.000000e+001
      endloop
   endfacet
   facet normal 0.000000e+000 0.000000e+000 1.000000e+000
      outer loop
         vertex 0.000000e+000 1.000000e+001 1.000000e+001
         vertex 2.761171e+000 9.795480e-001 1.000000e+001
         vertex 2.957043e+000 1.259283e+000 1.000000e+001
      endloop
   endfacet
   facet normal 0.000000e+000 0.000000e+000 1.000000e+000
      outer loop
         vertex 5.882396e+000 1.929333e+000 1.000000e+001
         vertex 6.212253e+000 1.840948e+000 1.000000e+001
         vertex 1.000000e+001 1.000000e+001 1.000000e+001
      endloop
   endfacet
   facet normal 0.000000e+000 0.000000e+000 1.000000e+000
      outer loop
         vertex 1.000000e+001 1.000000e+001 1.000000e+001
         vertex 6.212253e+000 1.840948e+000 1.000000e+001
         vertex 6.521750e+000 1.696627e+000 1.000000e+001
      endloop
   endfacet
   facet normal 0.000000e+000 0.000000e+000 1.000000e+000
      outer loop
         vertex 1.000000e+001 1.000000e+001 1.000000e+001
         vertex 6.521750e+000 1.696627e+000 1.000000e+001
         vertex 6.801485e+000 1.500755e+000 1.000000e+001
      endloop
   endfacet
   facet normal 0.000000e+000 0.000000e+000 1.000000e+000
      outer loop
         vertex 6.801485e+000 1.500755e+000 1.000000e+001
         vertex 7.042957e+000 1.259283e+000 1.000000e+001
         vertex 1.000000e+001 1.000000e+001 1.000000e+001
      endloop
   endfacet
   facet normal 0.000000e+000 0.000000e+000 1.000000e+000
      outer loop
         vertex 1.000000e+001 1.000000e+001 1.000000e+001
         vertex 7.042957e+000 1.259283e+000 1.000000e+001
         vertex 7.238830e+000 9.795480e-001 1.000000e+001
      endloop
   endfacet
   facet normal 0.000000e+000 0.000000e+000 1.000000e+000
      outer loop
         vertex 1.000000e+001 1.000000e+001 1.000000e+001
         vertex 7.238830e+000 9.795480e-001 1.000000e+001
         vertex 1.000000e+001 0.000000e+000 1.000000e+001
      endloop
   endfacet
   facet normal 0.000000e+000 0.000000e+000 1.000000e+000
      outer loop
         vertex 1.000000e+001 0.000000e+000 1.000000e+001
         vertex 7.238830e+000 9.795480e-001 1.000000e+001
         vertex 7.383151e+000 6.700503e-001 1.000000e+001
      endloop
   endfacet
   facet normal 0.000000e+000 0.000000e+000 1.000000e+000
      outer loop
         vertex 1.000000e+001 0.000000e+000 1.000000e+001
         vertex 7.383151e+000 6.700503e-001 1.000000e+001
         vertex 7.471535e+000 3.401935e-001 1.000000e+001
      endloop
   endfacet
   facet normal 0.000000e+000 0.000000e+000 1.000000e+000
      outer loop
         vertex 3.787747e+000 1.840948e+000 1.000000e+001
         vertex 4.117604e+000 1.929333e+000 1.000000e+001
         vertex 0.000000e+000 1.000000e+001 1.000000e+001
      endloop
   endfacet
   facet normal 0.000000e+000 0.000000e+000 1.000000e+000
      outer loop
         vertex 0.000000e+000 1.000000e+001 1.000000e+001
         vertex 4.117604e+000 1.929333e+000 1.000000e+001
         vertex 4.457798e+000 1.959096e+000 1.000000e+001
      endloop
   endfacet
   facet normal 0.000000e+000 0.000000e+000 1.000000e+000
      outer loop
         vertex 0.000000e+000 1.000000e+001 1.000000e+001
         vertex 4.457798e+000 1.959096e+000 1.000000e+001
         vertex 1.000000e+001 1.000000e+001 1.000000e+001
      endloop
   endfacet
   facet normal 0.000000e+000 0.000000e+000 1.000000e+000
      outer loop
         vertex 1.000000e+001 1.000000e+001 1.000000e+001
         vertex 4.457798e+000 1.959096e+000 1.000000e+001
         vertex 5.542202e+000 1.959096e+000 1.000000e+001
      endloop
   endfacet
   facet normal 0.000000e+000 0.000000e+000 1.000000e+000
      outer loop
         vertex 1.000000e+001 1.000000e+001 1.000000e+001
         vertex 5.542202e+000 1.959096e+000 1.000000e+001
         vertex 5.882396e+000 1.929333e+000 1.000000e+001
      endloop
   endfacet
   facet normal 1.000000e+000 0.000000e+000 0.000000e+000
      outer loop
         vertex 1.000000e+001 1.000000e+001 0.000000e+000
         vertex 1.000000e+001 1.000000e+001 1.000000e+001
         vertex 1.000000e+001 0.000000e+000 0.000000e+000
      endloop
   endfacet
   facet normal 1.000000e+000 0.000000e+000 0.000000e+000
      outer loop
         vertex 1.000000e+001 0.000000e+000 0.000000e+000
         vertex 1.000000e+001 1.000000e+001 1.000000e+001
         vertex 1.000000e+001 0.000000e+000 1.000000e+001
      endloop
   endfacet
   facet normal 0.000000e+000 0.000000e+000 -1.000000e+000
      outer loop
         vertex 0.000000e+000 1.000000e+001 0.000000e+000
         vertex 1.000000e+001 1.000000e+001 0.000000e+000
         vertex 0.000000e+000 0.000000e+000 0.000000e+000
      endloop
   endfacet
   facet normal 0.000000e+000 0.000000e+000 -1.000000e+000
      outer loop
         vertex 0.000000e+000 0.000000e+000 0.000000e+000
         vertex 1.000000e+001 1.000000e+001 0.000000e+000
         vertex 1.000000e+001 0.000000e+000 0.000000e+000
      endloop
   endfacet
   facet normal 0.000000e+000 1.000000e+000 0.000000e+000
      outer loop
         vertex 1.000000e+001 1.000000e+001 1.000000e+001
         vertex 1.000000e+001 1.000000e+001 0.000000e+000
         vertex 0.000000e+000 1.000000e+001 1.000000e+001
      endloop
   endfacet
   facet normal 0.000000e+000 1.000000e+000 0.000000e+000
      outer loop
         vertex 0.000000e+000 1.000000e+001 1.000000e+001
         vertex 1.000000e+001 1.000000e+001 0.000000e+000
         vertex 0.000000e+000 1.000000e+001 0.000000e+000
      endloop
   endfacet
   facet normal 0.000000e+000 -1.000000e+000 0.000000e+000
      outer loop
         vertex 1.000000e+001 0.000000e+000 1.000000e+001
         vertex 7.501298e+000 0.000000e+000 1.000000e+001
         vertex 7.501298e+000 0.000000e+000 8.258502e+000
      endloop
   endfacet
   facet normal 0.000000e+000 -1.000000e+000 0.000000e+000
      outer loop
         vertex 2.498702e+000 0.000000e+000 1.000000e+001
         vertex 0.000000e+000 0.000000e+000 1.000000e+001
         vertex 2.498702e+000 0.000000e+000 8.258502e+000
      endloop
   endfacet
   facet normal 0.000000e+000 -1.000000e+000 0.000000e+000
      outer loop
         vertex 2.498702e+000 0.000000e+000 8.258502e+000
         vertex 0.000000e+000 0.000000e+000 1.000000e+001
         vertex 0.000000e+000 0.000000e+000 0.000000e+000
      endloop
   endfacet
   facet normal 0.000000e+000 -1.000000e+000 0.000000e+000
      outer loop
         vertex 2.498702e+000 0.000000e+000 8.258502e+000
         vertex 0.000000e+000 0.000000e+000 0.000000e+000
         vertex 7.501298e+000 0.000000e+000 8.258502e+000
      endloop
   endfacet
   facet normal 0.000000e+000 -1.000000e+000 0.000000e+000
      outer loop
         vertex 7.501298e+000 0.000000e+000 8.258502e+000
         vertex 0.000000e+000 0.000000e+000 0.000000e+000
         vertex 1.000000e+001 0.000000e+000 0.000000e+000
      endloop
   endfacet
   facet normal 0.000000e+000 -1.000000e+000 0.000000e+000
      outer loop
         vertex 7.501298e+000 0.000000e+000 8.258502e+000
         vertex 1.000000e+001 0.000000e+000 0.000000e+000
         vertex 1.000000e+001 0.000000e+000 1.000000e+001
      endloop
   endfacet
   facet normal 5.807913e-002 -9.983119e-001 0.000000e+000
      outer loop
         vertex 4.457798e+000 1.959096e+000 8.258502e+000
         vertex 4.457798e+000 1.959096e+000 1.000000e+001
         vertex 4.117604e+000 1.929333e+000 1.000000e+001
      endloop
   endfacet
   facet normal 1.161583e-001 -9.932307e-001 0.000000e+000
      outer loop
         vertex 4.457798e+000 1.959096e+000 8.258502e+000
         vertex 4.117604e+000 1.929333e+000 1.000000e+001
         vertex 4.117604e+000 1.929333e+000 8.258502e+000
      endloop
   endfacet
   facet normal 2.305519e-001 -9.730600e-001 0.000000e+000
      outer loop
         vertex 4.117604e+000 1.929333e+000 8.258502e+000
         vertex 4.117604e+000 1.929333e+000 1.000000e+001
         vertex 3.787747e+000 1.840948e+000 1.000000e+001
      endloop
   endfacet
   facet normal 2.868663e-001 -9.579706e-001 0.000000e+000
      outer loop
         vertex 4.117604e+000 1.929333e+000 8.258502e+000
         vertex 3.787747e+000 1.840948e+000 1.000000e+001
         vertex 3.787747e+000 1.840948e+000 8.258502e+000
      endloop
   endfacet
   facet normal 3.960194e-001 -9.182422e-001 0.000000e+000
      outer loop
         vertex 3.787747e+000 1.840948e+000 8.258502e+000
         vertex 3.787747e+000 1.840948e+000 1.000000e+001
         vertex 3.478250e+000 1.696627e+000 1.000000e+001
      endloop
   endfacet
   facet normal 4.488580e-001 -8.936031e-001 0.000000e+000
      outer loop
         vertex 3.787747e+000 1.840948e+000 8.258502e+000
         vertex 3.478250e+000 1.696627e+000 1.000000e+001
         vertex 3.478250e+000 1.696627e+000 8.258502e+000
      endloop
   endfacet
   facet normal 5.494540e-001 -8.355240e-001 0.000000e+000
      outer loop
         vertex 3.478250e+000 1.696627e+000 8.258502e+000
         vertex 3.478250e+000 1.696627e+000 1.000000e+001
         vertex 3.198515e+000 1.500755e+000 1.000000e+001
      endloop
   endfacet
   facet normal 5.972114e-001 -8.020838e-001 0.000000e+000
      outer loop
         vertex 3.478250e+000 1.696627e+000 8.258502e+000
         vertex 3.198515e+000 1.500755e+000 1.000000e+001
         vertex 3.198515e+000 1.500755e+000 8.258502e+000
      endloop
   endfacet
   facet normal 6.861938e-001 -7.274188e-001 0.000000e+000
      outer loop
         vertex 3.198515e+000 1.500755e+000 8.258502e+000
         vertex 3.198515e+000 1.500755e+000 1.000000e+001
         vertex 2.957043e+000 1.259283e+000 1.000000e+001
      endloop
   endfacet
   facet normal 7.274188e-001 -6.861938e-001 0.000000e+000
      outer loop
         vertex 3.198515e+000 1.500755e+000 8.258502e+000
         vertex 2.957043e+000 1.259283e+000 1.000000e+001
         vertex 2.957043e+000 1.259283e+000 8.258502e+000
      endloop
   endfacet
   facet normal 8.020838e-001 -5.972114e-001 0.000000e+000
      outer loop
         vertex 2.957043e+000 1.259283e+000 8.258502e+000
         vertex 2.957043e+000 1.259283e+000 1.000000e+001
         vertex 2.761171e+000 9.795480e-001 1.000000e+001
      endloop
   endfacet
   facet normal 8.355240e-001 -5.494540e-001 0.000000e+000
      outer loop
         vertex 2.957043e+000 1.259283e+000 8.258502e+000
         vertex 2.761171e+000 9.795480e-001 1.000000e+001
         vertex 2.761171e+000 9.795480e-001 8.258502e+000
      endloop
   endfacet
   facet normal 8.936031e-001 -4.488580e-001 0.000000e+000
      outer loop
         vertex 2.761171e+000 9.795480e-001 8.258502e+000
         vertex 2.761171e+000 9.795480e-001 1.000000e+001
         vertex 2.616849e+000 6.700503e-001 1.000000e+001
      endloop
   endfacet
   facet normal 9.182422e-001 -3.960194e-001 0.000000e+000
      outer loop
         vertex 2.761171e+000 9.795480e-001 8.258502e+000
         vertex 2.616849e+000 6.700503e-001 1.000000e+001
         vertex 2.616849e+000 6.700503e-001 8.258502e+000
      endloop
   endfacet
   facet normal 9.579706e-001 -2.868663e-001 0.000000e+000
      outer loop
         vertex 2.616849e+000 6.700503e-001 8.258502e+000
         vertex 2.616849e+000 6.700503e-001 1.000000e+001
         vertex 2.528465e+000 3.401935e-001 1.000000e+001
      endloop
   endfacet
   facet normal 9.730600e-001 -2.305519e-001 0.000000e+000
      outer loop
         vertex 2.616849e+000 6.700503e-001 8.258502e+000
         vertex 2.528465e+000 3.401935e-001 1.000000e+001
         vertex 2.528465e+000 3.401935e-001 8.258502e+000
      endloop
   endfacet
   facet normal 9.932307e-001 -1.161583e-001 0.000000e+000
      outer loop
         vertex 2.528465e+000 3.401935e-001 8.258502e+000
         vertex 2.528465e+000 3.401935e-001 1.000000e+001
         vertex 2.498702e+000 2.399201e-016 1.000000e+001
      endloop
   endfacet
   facet normal 9.983119e-001 -5.807913e-002 0.000000e+000
      outer loop
         vertex 2.528465e+000 3.401935e-001 8.258502e+000
         vertex 2.498702e+000 2.399201e-016 1.000000e+001
         vertex 2.498702e+000 2.399201e-016 8.258502e+000
      endloop
   endfacet
   facet normal 0.000000e+000 -1.000000e+000 0.000000e+000
      outer loop
         vertex 4.457798e+000 1.959096e+000 8.258502e+000
         vertex 5.542202e+000 1.959096e+000 8.258502e+000
         vertex 4.457798e+000 1.959096e+000 1.000000e+001
      endloop
   endfacet
   facet normal 0.000000e+000 -1.000000e+000 0.000000e+000
      outer loop
         vertex 4.457798e+000 1.959096e+000 1.000000e+001
         vertex 5.542202e+000 1.959096e+000 8.258502e+000
         vertex 5.542202e+000 1.959096e+000 1.000000e+001
      endloop
   endfacet
   facet normal -9.983119e-001 -5.807913e-002 0.000000e+000
      outer loop
         vertex 7.501298e+000 0.000000e+000 8.258502e+000
         vertex 7.501298e+000 0.000000e+000 1.000000e+001
         vertex 7.471535e+000 3.401935e-001 1.000000e+001
      endloop
   endfacet
   facet normal -9.932307e-001 -1.161583e-001 0.000000e+000
      outer loop
         vertex 7.501298e+000 0.000000e+000 8.258502e+000
         vertex 7.471535e+000 3.401935e-001 1.000000e+001
         vertex 7.471535e+000 3.401935e-001 8.258502e+000
      endloop
   endfacet
   facet normal -9.730600e-001 -2.305519e-001 0.000000e+000
      outer loop
         vertex 7.471535e+000 3.401935e-001 8.258502e+000
         vertex 7.471535e+000 3.401935e-001 1.000000e+001
         vertex 7.383151e+000 6.700503e-001 1.000000e+001
      endloop
   endfacet
   facet normal -9.579706e-001 -2.868663e-001 0.000000e+000
      outer loop
         vertex 7.471535e+000 3.401935e-001 8.258502e+000
         vertex 7.383151e+000 6.700503e-001 1.000000e+001
         vertex 7.383151e+000 6.700503e-001 8.258502e+000
      endloop
   endfacet
   facet normal -9.182422e-001 -3.960194e-001 0.000000e+000
      outer loop
         vertex 7.383151e+000 6.700503e-001 8.258502e+000
         vertex 7.383151e+000 6.700503e-001 1.000000e+001
         vertex 7.238830e+000 9.795480e-001 1.000000e+001
      endloop
   endfacet
   facet normal -8.936031e-001 -4.488580e-001 0.000000e+000
      outer loop
         vertex 7.383151e+000 6.700503e-001 8.258502e+000
         vertex 7.238830e+000 9.795480e-001 1.000000e+001
         vertex 7.238830e+000 9.795480e-001 8.258502e+000
      endloop
   endfacet
   facet normal -8.355240e-001 -5.494540e-001 0.000000e+000
      outer loop
         vertex 7.238830e+000 9.795480e-001 8.258502e+000
         vertex 7.238830e+000 9.795480e-001 1.000000e+001
         vertex 7.042957e+000 1.259283e+000 1.000000e+001
      endloop
   endfacet
   facet normal -8.020838e-001 -5.972114e-001 0.000000e+000
      outer loop
         vertex 7.238830e+000 9.795480e-001 8.258502e+000
         vertex 7.042957e+000 1.259283e+000 1.000000e+001
         vertex 7.042957e+000 1.259283e+000 8.258502e+000
      endloop
   endfacet
   facet normal -7.274188e-001 -6.861938e-001 0.000000e+000
      outer loop
         vertex 7.042957e+000 1.259283e+000 8.258502e+000
         vertex 7.042957e+000 1.259283e+000 1.000000e+001
         vertex 6.801485e+000 1.500755e+000 1.000000e+001
      endloop
   endfacet
   facet normal -6.861938e-001 -7.274188e-001 0.000000e+000
      outer loop
         vertex 7.042957e+000 1.259283e+000 8.258502e+000
         vertex 6.801485e+000 1.500755e+000 1.000000e+001
         vertex 6.801485e+000 1.500755e+000 8.258502e+000
      endloop
   endfacet
   facet normal -5.972114e-001 -8.020838e-001 0.000000e+000
      outer loop
         vertex 6.801485e+000 1.500755e+000 8.258502e+000
         vertex 6.801485e+000 1.500755e+000 1.000000e+001
         vertex 6.521750e+000 1.696627e+000 1.000000e+001
      endloop
   endfacet
   facet normal -5.494540e-001 -8.355240e-001 0.000000e+000
      outer loop
         vertex 6.801485e+000 1.500755e+000 8.258502e+000
         vertex 6.521750e+000 1.696627e+000 1.000000e+001
         vertex 6.521750e+000 1.696627e+000 8.258502e+000
      endloop
   endfacet
   facet normal -4.488580e-001 -8.936031e-001 0.000000e+000
      outer loop
         vertex 6.521750e+000 1.696627e+000 8.258502e+000
         vertex 6.521750e+000 1.696627e+000 1.000000e+001
         vertex 6.212253e+000 1.840948e+000 1.000000e+001
      endloop
   endfacet
   facet normal -3.960194e-001 -9.182422e-001 0.000000e+000
      outer loop
         vertex 6.521750e+000 1.696627e+000 8.258502e+000
         vertex 6.212253e+000 1.840948e+000 1.000000e+001
         vertex 6.212253e+000 1.840948e+000 8.258502e+000
      endloop
   endfacet
   facet normal -2.868663e-001 -9.579706e-001 0.000000e+000
      outer loop
         vertex 6.212253e+000 1.840948e+000 8.258502e+000
         vertex 6.212253e+000 1.840948e+000 1.000000e+001
         vertex 5.882396e+000 1.929333e+000 1.000000e+001
      endloop
   endfacet
   facet normal -2.305519e-001 -9.730600e-001 0.000000e+000
      outer loop
         vertex 6.212253e+000 1.840948e+000 8.258502e+000
         vertex 5.882396e+000 1.929333e+000 1.000000e+001
         vertex 5.882396e+000 1.929333e+000 8.258502e+000
      endloop
   endfacet
   facet normal -1.161583e-001 -9.932307e-001 0.000000e+000
      outer loop
         vertex 5.882396e+000 1.929333e+000 8.258502e+000
         vertex 5.882396e+000 1.929333e+000 1.000000e+001
         vertex 5.542202e+000 1.959096e+000 1.000000e+001
      endloop
   endfacet
   facet normal -5.807913e-002 -9.983119e-001 0.000000e+000
      outer loop
         vertex 5.882396e+000 1.929333e+000 8.258502e+000
         vertex 5.542202e+000 1.959096e+000 1.000000e+001
         vertex 5.542202e+000 1.959096e+000 8.258502e+000
      endloop
   endfacet
   facet normal 0.000000e+000 0.000000e+000 1.000000e+000
      outer loop
         vertex 4.117604e+000 1.929333e+000 8.258502e+000
         vertex 2.528465e+000 3.401935e-001 8.258502e+000
         vertex 4.457798e+000 1.959096e+000 8.258502e+000
      endloop
   endfacet
   facet normal 0.000000e+000 0.000000e+000 1.000000e+000
      outer loop
         vertex 4.457798e+000 1.959096e+000 8.258502e+000
         vertex 2.528465e+000 3.401935e-001 8.258502e+000
         vertex 2.498702e+000 0.000000e+000 8.258502e+000
      endloop
   endfacet
   facet normal 0.000000e+000 0.000000e+000 1.000000e+000
      outer loop
         vertex 4.457798e+000 1.959096e+000 8.258502e+000
         vertex 2.498702e+000 0.000000e+000 8.258502e+000
         vertex 5.542202e+000 1.959096e+000 8.258502e+000
      endloop
   endfacet
   facet normal 0.000000e+000 0.000000e+000 1.000000e+000
      outer loop
         vertex 2.498702e+000 0.000000e+000 8.258502e+000
         vertex 7.501298e+000 0.000000e+000 8.258502e+000
         vertex 5.542202e+000 1.959096e+000 8.258502e+000
      endloop
   endfacet
   facet normal 0.000000e+000 0.000000e+000 1.000000e+000
      outer loop
         vertex 5.542202e+000 1.959096e+000 8.258502e+000
         vertex 7.501298e+000 0.000000e+000 8.258502e+000
         vertex 7.471535e+000 3.401935e-001 8.258502e+000
      endloop
   endfacet
   facet normal 0.000000e+000 0.000000e+000 1.000000e+000
      outer loop
         vertex 5.542202e+000 1.959096e+000 8.258502e+000
         vertex 7.471535e+000 3.401935e-001 8.258502e+000
         vertex 7.383151e+000 6.700503e-001 8.258502e+000
      endloop
   endfacet
   facet normal 0.000000e+000 0.000000e+000 1.000000e+000
      outer loop
         vertex 7.383151e+000 6.700503e-001 8.258502e+000
         vertex 7.238830e+000 9.795480e-001 8.258502e+000
         vertex 5.542202e+000 1.959096e+000 8.258502e+000
      endloop
   endfacet
   facet normal 0.000000e+000 0.000000e+000 1.000000e+000
      outer loop
         vertex 5.542202e+000 1.959096e+000 8.258502e+000
         vertex 7.238830e+000 9.795480e-001 8.258502e+000
         vertex 7.042957e+000 1.259283e+000 8.258502e+000
      endloop
   endfacet
   facet normal 0.000000e+000 0.000000e+000 1.000000e+000
      outer loop
         vertex 5.542202e+000 1.959096e+000 8.258502e+000
         vertex 7.042957e+000 1.259283e+000 8.258502e+000
         vertex 5.882396e+000 1.929333e+000 8.258502e+000
      endloop
   endfacet
   facet normal 0.000000e+000 0.000000e+000 1.000000e+000
      outer loop
         vertex 5.882396e+000 1.929333e+000 8.258502e+000
         vertex 7.042957e+000 1.259283e+000 8.258502e+000
         vertex 6.801485e+000 1.500755e+000 8.258502e+000
      endloop
   endfacet
   facet normal 0.000000e+000 0.000000e+000 1.000000e+000
      outer loop
         vertex 5.882396e+000 1.929333e+000 8.258502e+000
         vertex 6.801485e+000 1.500755e+000 8.258502e+000
         vertex 6.212253e+000 1.840948e+000 8.258502e+000
      endloop
   endfacet
   facet normal 0.000000e+000 0.000000e+000 1.000000e+000
      outer loop
         vertex 6.212253e+000 1.840948e+000 8.258502e+000
         vertex 6.801485e+000 1.500755e+000 8.258502e+000
         vertex 6.521750e+000 1.696627e+000 8.258502e+000
      endloop
   endfacet
   facet normal 0.000000e+000 0.000000e+000 1.000000e+000
      outer loop
         vertex 4.117604e+000 1.929333e+000 8.258502e+000
         vertex 3.787747e+000 1.840948e+000 8.258502e+000
         vertex 2.528465e+000 3.401935e-001 8.258502e+000
      endloop
   endfacet
   facet normal 0.000000e+000 0.000000e+000 1.000000e+000
      outer loop
         vertex 2.528465e+000 3.401935e-001 8.258502e+000
         vertex 3.787747e+000 1.840948e+000 8.258502e+000
         vertex 3.478250e+000 1.696627e+000 8.258502e+000
      endloop
   endfacet
   facet normal 0.000000e+000 0.000000e+000 1.000000e+000
      outer loop
         vertex 2.528465e+000 3.401935e-001 8.258502e+000
         vertex 3.478250e+000 1.696627e+000 8.258502e+000
         vertex 3.198515e+000 1.500755e+000 8.258502e+000
      endloop
   endfacet
   facet normal 0.000000e+000 0.000000e+000 1.000000e+000
      outer loop
         vertex 3.198515e+000 1.500755e+000 8.258502e+000
         vertex 2.957043e+000 1.259283e+000 8.258502e+000
         vertex 2.528465e+000 3.401935e-001 8.258502e+000
      endloop
   endfacet
   facet normal 0.000000e+000 0.000000e+000 1.000000e+000
      outer loop
         vertex 2.528465e+000 3.401935e-001 8.258502e+000
         vertex 2.957043e+000 1.259283e+000 8.258502e+000
         vertex 2.761171e+000 9.795480e-001 8.258502e+000
      endloop
   endfacet
   facet normal 0.000000e+000 0.000000e+000 1.000000e+000
      outer loop
         vertex 2.528465e+000 3.401935e-001 8.258502e+000
         vertex 2.761171e+000 9.795480e-001 8.258502e+000
         vertex 2.616849e+000 6.700503e-001 8.258502e+000
      endloop
   endfacet
endsolid