solid 21_56
   facet normal -1.000000e+000 0.000000e+000 0.000000e+000
      outer loop
         vertex 0.000000e+000 7.672300e+000 1.000000e+001
         vertex 0.000000e+000 1.000000e+001 1.000000e+001
         vertex 0.000000e+000 7.672300e+000 2.110635e+000
      endloop
   endfacet
   facet normal -1.000000e+000 0.000000e+000 0.000000e+000
      outer loop
         vertex 0.000000e+000 7.672300e+000 2.110635e+000
         vertex 0.000000e+000 1.000000e+001 1.000000e+001
         vertex 0.000000e+000 1.000000e+001 0.000000e+000
      endloop
   endfacet
   facet normal -1.000000e+000 0.000000e+000 0.000000e+000
      outer loop
         vertex 0.000000e+000 7.672300e+000 2.110635e+000
         vertex 0.000000e+000 1.000000e+001 0.000000e+000
         vertex 0.000000e+000 2.327700e+000 2.110635e+000
      endloop
   endfacet
   facet normal -1.000000e+000 0.000000e+000 0.000000e+000
      outer loop
         vertex 0.000000e+000 2.327700e+000 2.110635e+000
         vertex 0.000000e+000 1.000000e+001 0.000000e+000
         vertex 0.000000e+000 0.000000e+000 0.000000e+000
      endloop
   endfacet
   facet normal -1.000000e+000 0.000000e+000 0.000000e+000
      outer loop
         vertex 0.000000e+000 2.327700e+000 2.110635e+000
         vertex 0.000000e+000 0.000000e+000 0.000000e+000
         vertex 0.000000e+000 2.327700e+000 1.000000e+001
      endloop
   endfacet
   facet normal -1.000000e+000 0.000000e+000 0.000000e+000
      outer loop
         vertex 0.000000e+000 2.327700e+000 1.000000e+001
         vertex 0.000000e+000 0.000000e+000 0.000000e+000
         vertex 0.000000e+000 0.000000e+000 1.000000e+001
      endloop
   endfacet
   facet normal 0.000000e+000 0.000000e+000 1.000000e+000
      outer loop
         vertex 2.447329e-001 2.349111e+000 1.000000e+001
         vertex 0.000000e+000 2.327700e+000 1.000000e+001
         vertex 0.000000e+000 0.000000e+000 1.000000e+001
      endloop
   endfacet
   facet normal 0.000000e+000 0.000000e+000 1.000000e+000
      outer loop
         vertex 8.629846e-017 7.672300e+000 1.000000e+001
         vertex 2.447329e-001 7.650889e+000 1.000000e+001
         vertex 0.000000e+000 1.000000e+001 1.000000e+001
      endloop
   endfacet
   facet normal 0.000000e+000 0.000000e+000 1.000000e+000
      outer loop
         vertex 0.000000e+000 1.000000e+001 1.000000e+001
         vertex 2.447329e-001 7.650889e+000 1.000000e+001
         vertex 4.820298e-001 7.587305e+000 1.000000e+001
      endloop
   endfacet
   facet normal 0.000000e+000 0.000000e+000 1.000000e+000
      outer loop
         vertex 0.000000e+000 1.000000e+001 1.000000e+001
         vertex 4.820298e-001 7.587305e+000 1.000000e+001
         vertex 1.000000e+001 1.000000e+001 1.000000e+001
      endloop
   endfacet
   facet normal 0.000000e+000 0.000000e+000 1.000000e+000
      outer loop
         vertex 1.000000e+001 1.000000e+001 1.000000e+001
         vertex 4.820298e-001 7.587305e+000 1.000000e+001
         vertex 7.046804e-001 7.483482e+000 1.000000e+001
      endloop
   endfacet
   facet normal 0.000000e+000 0.000000e+000 1.000000e+000
      outer loop
         vertex 1.000000e+001 1.000000e+001 1.000000e+001
         vertex 7.046804e-001 7.483482e+000 1.000000e+001
         vertex 9.059197e-001 7.342572e+000 1.000000e+001
      endloop
   endfacet
   facet normal 0.000000e+000 0.000000e+000 1.000000e+000
      outer loop
         vertex 1.079633e+000 2.831141e+000 1.000000e+001
         vertex 9.059197e-001 2.657428e+000 1.000000e+001
         vertex 1.000000e+001 0.000000e+000 1.000000e+001
      endloop
   endfacet
   facet normal 0.000000e+000 0.000000e+000 1.000000e+000
      outer loop
         vertex 1.000000e+001 0.000000e+000 1.000000e+001
         vertex 9.059197e-001 2.657428e+000 1.000000e+001
         vertex 7.046804e-001 2.516518e+000 1.000000e+001
      endloop
   endfacet
   facet normal 0.000000e+000 0.000000e+000 1.000000e+000
      outer loop
         vertex 1.000000e+001 0.000000e+000 1.000000e+001
         vertex 7.046804e-001 2.516518e+000 1.000000e+001
         vertex 0.000000e+000 0.000000e+000 1.000000e+001
      endloop
   endfacet
   facet normal 0.000000e+000 0.000000e+000 1.000000e+000
      outer loop
         vertex 0.000000e+000 0.000000e+000 1.000000e+001
         vertex 7.046804e-001 2.516518e+000 1.000000e+001
         vertex 4.820298e-001 2.412694e+000 1.000000e+001
      endloop
   endfacet
   facet normal 0.000000e+000 0.000000e+000 1.000000e+000
      outer loop
         vertex 0.000000e+000 0.000000e+000 1.000000e+001
         vertex 4.820298e-001 2.412694e+000 1.000000e+001
         vertex 2.447329e-001 2.349111e+000 1.000000e+001
      endloop
   endfacet
   facet normal 0.000000e+000 0.000000e+000 1.000000e+000
      outer loop
         vertex 9.059197e-001 7.342572e+000 1.000000e+001
         vertex 1.079633e+000 7.168859e+000 1.000000e+001
         vertex 1.000000e+001 1.000000e+001 1.000000e+001
      endloop
   endfacet
   facet normal 0.000000e+000 0.000000e+000 1.000000e+000
      outer loop
         vertex 1.000000e+001 1.000000e+001 1.000000e+001
         vertex 1.079633e+000 7.168859e+000 1.000000e+001
         vertex 1.220542e+000 6.967620e+000 1.000000e+001
      endloop
   endfacet
   facet normal 0.000000e+000 0.000000e+000 1.000000e+000
      outer loop
         vertex 1.000000e+001 1.000000e+001 1.000000e+001
         vertex 1.220542e+000 6.967620e+000 1.000000e+001
         vertex 1.324366e+000 6.744969e+000 1.000000e+001
      endloop
   endfacet
   facet normal 0.000000e+000 0.000000e+000 1.000000e+000
      outer loop
         vertex 1.387949e+000 3.492328e+000 1.000000e+001
         vertex 1.324366e+000 3.255031e+000 1.000000e+001
         vertex 1.000000e+001 0.000000e+000 1.000000e+001
      endloop
   endfacet
   facet normal 0.000000e+000 0.000000e+000 1.000000e+000
      outer loop
         vertex 1.000000e+001 0.000000e+000 1.000000e+001
         vertex 1.324366e+000 3.255031e+000 1.000000e+001
         vertex 1.220542e+000 3.032380e+000 1.000000e+001
      endloop
   endfacet
   facet normal 0.000000e+000 0.000000e+000 1.000000e+000
      outer loop
         vertex 1.000000e+001 0.000000e+000 1.000000e+001
         vertex 1.220542e+000 3.032380e+000 1.000000e+001
         vertex 1.079633e+000 2.831141e+000 1.000000e+001
      endloop
   endfacet
   facet normal 0.000000e+000 0.000000e+000 1.000000e+000
      outer loop
         vertex 1.324366e+000 6.744969e+000 1.000000e+001
         vertex 1.387949e+000 6.507672e+000 1.000000e+001
         vertex 1.000000e+001 1.000000e+001 1.000000e+001
      endloop
   endfacet
   facet normal 0.000000e+000 0.000000e+000 1.000000e+000
      outer loop
         vertex 1.000000e+001 1.000000e+001 1.000000e+001
         vertex 1.387949e+000 6.507672e+000 1.000000e+001
         vertex 1.409361e+000 6.262939e+000 1.000000e+001
      endloop
   endfacet
   facet normal 0.000000e+000 0.000000e+000 1.000000e+000
      outer loop
         vertex 1.000000e+001 1.000000e+001 1.000000e+001
         vertex 1.409361e+000 6.262939e+000 1.000000e+001
         vertex 1.000000e+001 0.000000e+000 1.000000e+001
      endloop
   endfacet
   facet normal 0.000000e+000 0.000000e+000 1.000000e+000
      outer loop
         vertex 1.000000e+001 0.000000e+000 1.000000e+001
         vertex 1.409361e+000 6.262939e+000 1.000000e+001
         vertex 1.409361e+000 3.737060e+000 1.000000e+001
      endloop
   endfacet
   facet normal 0.000000e+000 0.000000e+000 1.000000e+000
      outer loop
         vertex 1.000000e+001 0.000000e+000 1.000000e+001
         vertex 1.409361e+000 3.737060e+000 1.000000e+001
         vertex 1.387949e+000 3.492328e+000 1.000000e+001
      endloop
   endfacet
   facet normal 1.000000e+000 0.000000e+000 0.000000e+000
      outer loop
         vertex 1.000000e+001 1.000000e+001 0.000000e+000
         vertex 1.000000e+001 1.000000e+001 1.000000e+001
         vertex 1.000000e+001 0.000000e+000 0.000000e+000
      endloop
   endfacet
   facet normal 1.000000e+000 0.000000e+000 0.000000e+000
      outer loop
         vertex 1.000000e+001 0.000000e+000 0.000000e+000
         vertex 1.000000e+001 1.000000e+001 1.000000e+001
         vertex 1.000000e+001 0.000000e+000 1.000000e+001
      endloop
   endfacet
   facet normal 0.000000e+000 0.000000e+000 -1.000000e+000
      outer loop
         vertex 0.000000e+000 1.000000e+001 0.000000e+000
         vertex 1.000000e+001 1.000000e+001 0.000000e+000
         vertex 0.000000e+000 0.000000e+000 0.000000e+000
      endloop
   endfacet
   facet normal 0.000000e+000 0.000000e+000 -1.000000e+000
      outer loop
         vertex 0.000000e+000 0.000000e+000 0.000000e+000
         vertex 1.000000e+001 1.000000e+001 0.000000e+000
         vertex 1.000000e+001 0.000000e+000 0.000000e+000
      endloop
   endfacet
   facet normal 0.000000e+000 1.000000e+000 0.000000e+000
      outer loop
         vertex 1.000000e+001 1.000000e+001 1.000000e+001
         vertex 1.000000e+001 1.000000e+001 0.000000e+000
         vertex 0.000000e+000 1.000000e+001 1.000000e+001
      endloop
   endfacet
   facet normal 0.000000e+000 1.000000e+000 0.000000e+000
      outer loop
         vertex 0.000000e+000 1.000000e+001 1.000000e+001
         vertex 1.000000e+001 1.000000e+001 0.000000e+000
         vertex 0.000000e+000 1.000000e+001 0.000000e+000
      endloop
   endfacet
   facet normal 0.000000e+000 -1.000000e+000 0.000000e+000
      outer loop
         vertex 1.000000e+001 0.000000e+000 0.000000e+000
         vertex 1.000000e+001 0.000000e+000 1.000000e+001
         vertex 0.000000e+000 0.000000e+000 0.000000e+000
      endloop
   endfacet
   facet normal 0.000000e+000 -1.000000e+000 0.000000e+000
      outer loop
         vertex 0.000000e+000 0.000000e+000 0.000000e+000
         vertex 1.000000e+001 0.000000e+000 1.000000e+001
         vertex 0.000000e+000 0.000000e+000 1.000000e+001
      endloop
   endfacet
   facet normal 0.000000e+000 0.000000e+000 1.000000e+000
      outer loop
         vertex -2.588954e-016 2.327700e+000 2.110635e+000
         vertex 1.409361e+000 3.737060e+000 2.110635e+000
         vertex 8.629846e-017 7.672300e+000 2.110635e+000
      endloop
   endfacet
   facet normal 0.000000e+000 0.000000e+000 1.000000e+000
      outer loop
         vertex 8.629846e-017 7.672300e+000 2.110635e+000
         vertex 1.409361e+000 3.737060e+000 2.110635e+000
         vertex 1.409361e+000 6.262939e+000 2.110635e+000
      endloop
   endfacet
   facet normal 0.000000e+000 0.000000e+000 1.000000e+000
      outer loop
         vertex 8.629846e-017 7.672300e+000 2.110635e+000
         vertex 1.409361e+000 6.262939e+000 2.110635e+000
         vertex 2.447329e-001 7.650889e+000 2.110635e+000
      endloop
   endfacet
   facet normal 0.000000e+000 0.000000e+000 1.000000e+000
      outer loop
         vertex 1.387949e+000 6.507672e+000 2.110635e+000
         vertex 1.324366e+000 6.744969e+000 2.110635e+000
         vertex 7.046804e-001 7.483482e+000 2.110635e+000
      endloop
   endfacet
   facet normal 0.000000e+000 0.000000e+000 1.000000e+000
      outer loop
         vertex 1.387949e+000 6.507672e+000 2.110635e+000
         vertex 7.046804e-001 7.483482e+000 2.110635e+000
         vertex 1.409361e+000 6.262939e+000 2.110635e+000
      endloop
   endfacet
   facet normal 0.000000e+000 0.000000e+000 1.000000e+000
      outer loop
         vertex 1.409361e+000 6.262939e+000 2.110635e+000
         vertex 7.046804e-001 7.483482e+000 2.110635e+000
         vertex 4.820298e-001 7.587305e+000 2.110635e+000
      endloop
   endfacet
   facet normal 0.000000e+000 0.000000e+000 1.000000e+000
      outer loop
         vertex 1.409361e+000 6.262939e+000 2.110635e+000
         vertex 4.820298e-001 7.587305e+000 2.110635e+000
         vertex 2.447329e-001 7.650889e+000 2.110635e+000
      endloop
   endfacet
   facet normal 0.000000e+000 0.000000e+000 1.000000e+000
      outer loop
         vertex -2.588954e-016 2.327700e+000 2.110635e+000
         vertex 2.447329e-001 2.349111e+000 2.110635e+000
         vertex 1.409361e+000 3.737060e+000 2.110635e+000
      endloop
   endfacet
   facet normal 0.000000e+000 0.000000e+000 1.000000e+000
      outer loop
         vertex 1.409361e+000 3.737060e+000 2.110635e+000
         vertex 2.447329e-001 2.349111e+000 2.110635e+000
         vertex 4.820298e-001 2.412694e+000 2.110635e+000
      endloop
   endfacet
   facet normal 0.000000e+000 0.000000e+000 1.000000e+000
      outer loop
         vertex 1.409361e+000 3.737060e+000 2.110635e+000
         vertex 4.820298e-001 2.412694e+000 2.110635e+000
         vertex 7.046804e-001 2.516518e+000 2.110635e+000
      endloop
   endfacet
   facet normal 0.000000e+000 0.000000e+000 1.000000e+000
      outer loop
         vertex 1.079633e+000 2.831141e+000 2.110635e+000
         vertex 1.220542e+000 3.032380e+000 2.110635e+000
         vertex 1.324366e+000 3.255031e+000 2.110635e+000
      endloop
   endfacet
   facet normal 0.000000e+000 0.000000e+000 1.000000e+000
      outer loop
         vertex 1.324366e+000 6.744969e+000 2.110635e+000
         vertex 1.220542e+000 6.967620e+000 2.110635e+000
         vertex 7.046804e-001 7.483482e+000 2.110635e+000
      endloop
   endfacet
   facet normal 0.000000e+000 0.000000e+000 1.000000e+000
      outer loop
         vertex 7.046804e-001 7.483482e+000 2.110635e+000
         vertex 1.220542e+000 6.967620e+000 2.110635e+000
         vertex 1.079633e+000 7.168859e+000 2.110635e+000
      endloop
   endfacet
   facet normal 0.000000e+000 0.000000e+000 1.000000e+000
      outer loop
         vertex 7.046804e-001 7.483482e+000 2.110635e+000
         vertex 1.079633e+000 7.168859e+000 2.110635e+000
         vertex 9.059197e-001 7.342572e+000 2.110635e+000
      endloop
   endfacet
   facet normal 0.000000e+000 0.000000e+000 1.000000e+000
      outer loop
         vertex 7.046804e-001 2.516518e+000 2.110635e+000
         vertex 9.059197e-001 2.657428e+000 2.110635e+000
         vertex 1.409361e+000 3.737060e+000 2.110635e+000
      endloop
   endfacet
   facet normal 0.000000e+000 0.000000e+000 1.000000e+000
      outer loop
         vertex 1.409361e+000 3.737060e+000 2.110635e+000
         vertex 9.059197e-001 2.657428e+000 2.110635e+000
         vertex 1.079633e+000 2.831141e+000 2.110635e+000
      endloop
   endfacet
   facet normal 0.000000e+000 0.000000e+000 1.000000e+000
      outer loop
         vertex 1.409361e+000 3.737060e+000 2.110635e+000
         vertex 1.079633e+000 2.831141e+000 2.110635e+000
         vertex 1.387949e+000 3.492328e+000 2.110635e+000
      endloop
   endfacet
   facet normal 0.000000e+000 0.000000e+000 1.000000e+000
      outer loop
         vertex 1.387949e+000 3.492328e+000 2.110635e+000
         vertex 1.079633e+000 2.831141e+000 2.110635e+000
         vertex 1.324366e+000 3.255031e+000 2.110635e+000
      endloop
   endfacet
   facet normal -5.807913e-002 9.983119e-001 0.000000e+000
      outer loop
         vertex -2.588954e-016 2.327700e+000 2.110635e+000
         vertex -2.588954e-016 2.327700e+000 1.000000e+001
         vertex 2.447329e-001 2.349111e+000 1.000000e+001
      endloop
   endfacet
   facet normal -1.161583e-001 9.932307e-001 0.000000e+000
      outer loop
         vertex -2.588954e-016 2.327700e+000 2.110635e+000
         vertex 2.447329e-001 2.349111e+000 1.000000e+001
         vertex 2.447329e-001 2.349111e+000 2.110635e+000
      endloop
   endfacet
   facet normal -2.305519e-001 9.730600e-001 0.000000e+000
      outer loop
         vertex 2.447329e-001 2.349111e+000 2.110635e+000
         vertex 2.447329e-001 2.349111e+000 1.000000e+001
         vertex 4.820298e-001 2.412694e+000 1.000000e+001
      endloop
   endfacet
   facet normal -2.868663e-001 9.579706e-001 0.000000e+000
      outer loop
         vertex 2.447329e-001 2.349111e+000 2.110635e+000
         vertex 4.820298e-001 2.412694e+000 1.000000e+001
         vertex 4.820298e-001 2.412694e+000 2.110635e+000
      endloop
   endfacet
   facet normal -3.960194e-001 9.182422e-001 0.000000e+000
      outer loop
         vertex 4.820298e-001 2.412694e+000 2.110635e+000
         vertex 4.820298e-001 2.412694e+000 1.000000e+001
         vertex 7.046804e-001 2.516518e+000 1.000000e+001
      endloop
   endfacet
   facet normal -4.488580e-001 8.936031e-001 0.000000e+000
      outer loop
         vertex 4.820298e-001 2.412694e+000 2.110635e+000
         vertex 7.046804e-001 2.516518e+000 1.000000e+001
         vertex 7.046804e-001 2.516518e+000 2.110635e+000
      endloop
   endfacet
   facet normal -5.494540e-001 8.355240e-001 0.000000e+000
      outer loop
         vertex 7.046804e-001 2.516518e+000 2.110635e+000
         vertex 7.046804e-001 2.516518e+000 1.000000e+001
         vertex 9.059197e-001 2.657428e+000 1.000000e+001
      endloop
   endfacet
   facet normal -5.972114e-001 8.020838e-001 0.000000e+000
      outer loop
         vertex 7.046804e-001 2.516518e+000 2.110635e+000
         vertex 9.059197e-001 2.657428e+000 1.000000e+001
         vertex 9.059197e-001 2.657428e+000 2.110635e+000
      endloop
   endfacet
   facet normal -6.861938e-001 7.274188e-001 0.000000e+000
      outer loop
         vertex 9.059197e-001 2.657428e+000 2.110635e+000
         vertex 9.059197e-001 2.657428e+000 1.000000e+001
         vertex 1.079633e+000 2.831141e+000 1.000000e+001
      endloop
   endfacet
   facet normal -7.274188e-001 6.861938e-001 0.000000e+000
      outer loop
         vertex 9.059197e-001 2.657428e+000 2.110635e+000
         vertex 1.079633e+000 2.831141e+000 1.000000e+001
         vertex 1.079633e+000 2.831141e+000 2.110635e+000
      endloop
   endfacet
   facet normal -8.020838e-001 5.972114e-001 0.000000e+000
      outer loop
         vertex 1.079633e+000 2.831141e+000 2.110635e+000
         vertex 1.079633e+000 2.831141e+000 1.000000e+001
         vertex 1.220542e+000 3.032380e+000 1.000000e+001
      endloop
   endfacet
   facet normal -8.355240e-001 5.494540e-001 0.000000e+000
      outer loop
         vertex 1.079633e+000 2.831141e+000 2.110635e+000
         vertex 1.220542e+000 3.032380e+000 1.000000e+001
         vertex 1.220542e+000 3.032380e+000 2.110635e+000
      endloop
   endfacet
   facet normal -8.936031e-001 4.488580e-001 0.000000e+000
      outer loop
         vertex 1.220542e+000 3.032380e+000 2.110635e+000
         vertex 1.220542e+000 3.032380e+000 1.000000e+001
         vertex 1.324366e+000 3.255031e+000 1.000000e+001
      endloop
   endfacet
   facet normal -9.182422e-001 3.960194e-001 0.000000e+000
      outer loop
         vertex 1.220542e+000 3.032380e+000 2.110635e+000
         vertex 1.324366e+000 3.255031e+000 1.000000e+001
         vertex 1.324366e+000 3.255031e+000 2.110635e+000
      endloop
   endfacet
   facet normal -9.579706e-001 2.868663e-001 0.000000e+000
      outer loop
         vertex 1.324366e+000 3.255031e+000 2.110635e+000
         vertex 1.324366e+000 3.255031e+000 1.000000e+001
         vertex 1.387949e+000 3.492328e+000 1.000000e+001
      endloop
   endfacet
   facet normal -9.730600e-001 2.305519e-001 0.000000e+000
      outer loop
         vertex 1.324366e+000 3.255031e+000 2.110635e+000
         vertex 1.387949e+000 3.492328e+000 1.000000e+001
         vertex 1.387949e+000 3.492328e+000 2.110635e+000
      endloop
   endfacet
   facet normal -9.932307e-001 1.161583e-001 0.000000e+000
      outer loop
         vertex 1.387949e+000 3.492328e+000 2.110635e+000
         vertex 1.387949e+000 3.492328e+000 1.000000e+001
         vertex 1.409361e+000 3.737060e+000 1.000000e+001
      endloop
   endfacet
   facet normal -9.983119e-001 5.807913e-002 0.000000e+000
      outer loop
         vertex 1.387949e+000 3.492328e+000 2.110635e+000
         vertex 1.409361e+000 3.737060e+000 1.000000e+001
         vertex 1.409361e+000 3.737060e+000 2.110635e+000
      endloop
   endfacet
   facet normal -9.983119e-001 -5.807913e-002 0.000000e+000
      outer loop
         vertex 1.409361e+000 6.262939e+000 2.110635e+000
         vertex 1.409361e+000 6.262939e+000 1.000000e+001
         vertex 1.387949e+000 6.507672e+000 1.000000e+001
      endloop
   endfacet
   facet normal -9.932307e-001 -1.161583e-001 0.000000e+000
      outer loop
         vertex 1.409361e+000 6.262939e+000 2.110635e+000
         vertex 1.387949e+000 6.507672e+000 1.000000e+001
         vertex 1.387949e+000 6.507672e+000 2.110635e+000
      endloop
   endfacet
   facet normal -9.730600e-001 -2.305519e-001 0.000000e+000
      outer loop
         vertex 1.387949e+000 6.507672e+000 2.110635e+000
         vertex 1.387949e+000 6.507672e+000 1.000000e+001
         vertex 1.324366e+000 6.744969e+000 1.000000e+001
      endloop
   endfacet
   facet normal -9.579706e-001 -2.868663e-001 0.000000e+000
      outer loop
         vertex 1.387949e+000 6.507672e+000 2.110635e+000
         vertex 1.324366e+000 6.744969e+000 1.000000e+001
         vertex 1.324366e+000 6.744969e+000 2.110635e+000
      endloop
   endfacet
   facet normal -9.182422e-001 -3.960194e-001 0.000000e+000
      outer loop
         vertex 1.324366e+000 6.744969e+000 2.110635e+000
         vertex 1.324366e+000 6.744969e+000 1.000000e+001
         vertex 1.220542e+000 6.967620e+000 1.000000e+001
      endloop
   endfacet
   facet normal -8.936031e-001 -4.488580e-001 0.000000e+000
      outer loop
         vertex 1.324366e+000 6.744969e+000 2.110635e+000
         vertex 1.220542e+000 6.967620e+000 1.000000e+001
         vertex 1.220542e+000 6.967620e+000 2.110635e+000
      endloop
   endfacet
   facet normal -8.355240e-001 -5.494540e-001 0.000000e+000
      outer loop
         vertex 1.220542e+000 6.967620e+000 2.110635e+000
         vertex 1.220542e+000 6.967620e+000 1.000000e+001
         vertex 1.079633e+000 7.168859e+000 1.000000e+001
      endloop
   endfacet
   facet normal -8.020838e-001 -5.972114e-001 0.000000e+000
      outer loop
         vertex 1.220542e+000 6.967620e+000 2.110635e+000
         vertex 1.079633e+000 7.168859e+000 1.000000e+001
         vertex 1.079633e+000 7.168859e+000 2.110635e+000
      endloop
   endfacet
   facet normal -7.274188e-001 -6.861938e-001 0.000000e+000
      outer loop
         vertex 1.079633e+000 7.168859e+000 2.110635e+000
         vertex 1.079633e+000 7.168859e+000 1.000000e+001
         vertex 9.059197e-001 7.342572e+000 1.000000e+001
      endloop
   endfacet
   facet normal -6.861938e-001 -7.274188e-001 0.000000e+000
      outer loop
         vertex 1.079633e+000 7.168859e+000 2.110635e+000
         vertex 9.059197e-001 7.342572e+000 1.000000e+001
         vertex 9.059197e-001 7.342572e+000 2.110635e+000
      endloop
   endfacet
   facet normal -5.972114e-001 -8.020838e-001 0.000000e+000
      outer loop
         vertex 9.059197e-001 7.342572e+000 2.110635e+000
         vertex 9.059197e-001 7.342572e+000 1.000000e+001
         vertex 7.046804e-001 7.483482e+000 1.000000e+001
      endloop
   endfacet
   facet normal -5.494540e-001 -8.355240e-001 0.000000e+000
      outer loop
         vertex 9.059197e-001 7.342572e+000 2.110635e+000
         vertex 7.046804e-001 7.483482e+000 1.000000e+001
         vertex 7.046804e-001 7.483482e+000 2.110635e+000
      endloop
   endfacet
   facet normal -4.488580e-001 -8.936031e-001 0.000000e+000
      outer loop
         vertex 7.046804e-001 7.483482e+000 2.110635e+000
         vertex 7.046804e-001 7.483482e+000 1.000000e+001
         vertex 4.820298e-001 7.587305e+000 1.000000e+001
      endloop
   endfacet
   facet normal -3.960194e-001 -9.182422e-001 0.000000e+000
      outer loop
         vertex 7.046804e-001 7.483482e+000 2.110635e+000
         vertex 4.820298e-001 7.587305e+000 1.000000e+001
         vertex 4.820298e-001 7.587305e+000 2.110635e+000
      endloop
   endfacet
   facet normal -2.868663e-001 -9.579706e-001 0.000000e+000
      outer loop
         vertex 4.820298e-001 7.587305e+000 2.110635e+000
         vertex 4.820298e-001 7.587305e+000 1.000000e+001
         vertex 2.447329e-001 7.650889e+000 1.000000e+001
      endloop
   endfacet
   facet normal -2.305519e-001 -9.730600e-001 0.000000e+000
      outer loop
         vertex 4.820298e-001 7.587305e+000 2.110635e+000
         vertex 2.447329e-001 7.650889e+000 1.000000e+001
         vertex 2.447329e-001 7.650889e+000 2.110635e+000
      endloop
   endfacet
   facet normal -1.161583e-001 -9.932307e-001 0.000000e+000
      outer loop
         vertex 2.447329e-001 7.650889e+000 2.110635e+000
         vertex 2.447329e-001 7.650889e+000 1.000000e+001
         vertex 8.629846e-017 7.672300e+000 1.000000e+001
      endloop
   endfacet
   facet normal -5.807913e-002 -9.983119e-001 0.000000e+000
      outer loop
         vertex 2.447329e-001 7.650889e+000 2.110635e+000
         vertex 8.629846e-017 7.672300e+000 1.000000e+001
         vertex 8.629846e-017 7.672300e+000 2.110635e+000
      endloop
   endfacet
   facet normal -1.000000e+000 0.000000e+000 0.000000e+000
      outer loop
         vertex 1.409361e+000 6.262939e+000 2.110635e+000
         vertex 1.409361e+000 3.737060e+000 2.110635e+000
         vertex 1.409361e+000 6.262939e+000 1.000000e+001
      endloop
   endfacet
   facet normal -1.000000e+000 0.000000e+000 0.000000e+000
      outer loop
         vertex 1.409361e+000 6.262939e+000 1.000000e+001
         vertex 1.409361e+000 3.737060e+000 2.110635e+000
         vertex 1.409361e+000 3.737060e+000 1.000000e+001
      endloop
   endfacet
endsolid