solid 21_518
   facet normal -1.000000e+000 0.000000e+000 0.000000e+000
      outer loop
         vertex 0.000000e+000 1.000000e+001 1.000000e+001
         vertex 0.000000e+000 1.000000e+001 0.000000e+000
         vertex 0.000000e+000 0.000000e+000 1.000000e+001
      endloop
   endfacet
   facet normal -1.000000e+000 0.000000e+000 0.000000e+000
      outer loop
         vertex 0.000000e+000 0.000000e+000 1.000000e+001
         vertex 0.000000e+000 1.000000e+001 0.000000e+000
         vertex 0.000000e+000 0.000000e+000 0.000000e+000
      endloop
   endfacet
   facet normal 0.000000e+000 0.000000e+000 1.000000e+000
      outer loop
         vertex 1.000000e+001 1.000000e+001 1.000000e+001
         vertex 7.211164e+000 1.000000e+001 1.000000e+001
         vertex 7.197417e+000 9.842874e+000 1.000000e+001
      endloop
   endfacet
   facet normal 0.000000e+000 0.000000e+000 1.000000e+000
      outer loop
         vertex 6.887939e+000 9.306842e+000 1.000000e+001
         vertex 6.758737e+000 9.216372e+000 1.000000e+001
         vertex 1.000000e+001 0.000000e+000 1.000000e+001
      endloop
   endfacet
   facet normal 0.000000e+000 0.000000e+000 1.000000e+000
      outer loop
         vertex 1.000000e+001 0.000000e+000 1.000000e+001
         vertex 6.758737e+000 9.216372e+000 1.000000e+001
         vertex 6.615788e+000 9.149715e+000 1.000000e+001
      endloop
   endfacet
   facet normal 0.000000e+000 0.000000e+000 1.000000e+000
      outer loop
         vertex 7.197417e+000 9.842874e+000 1.000000e+001
         vertex 7.156595e+000 9.690521e+000 1.000000e+001
         vertex 1.000000e+001 1.000000e+001 1.000000e+001
      endloop
   endfacet
   facet normal 0.000000e+000 0.000000e+000 1.000000e+000
      outer loop
         vertex 1.000000e+001 1.000000e+001 1.000000e+001
         vertex 7.156595e+000 9.690521e+000 1.000000e+001
         vertex 7.089937e+000 9.547572e+000 1.000000e+001
      endloop
   endfacet
   facet normal 0.000000e+000 0.000000e+000 1.000000e+000
      outer loop
         vertex 1.000000e+001 1.000000e+001 1.000000e+001
         vertex 7.089937e+000 9.547572e+000 1.000000e+001
         vertex 1.000000e+001 0.000000e+000 1.000000e+001
      endloop
   endfacet
   facet normal 0.000000e+000 0.000000e+000 1.000000e+000
      outer loop
         vertex 1.000000e+001 0.000000e+000 1.000000e+001
         vertex 7.089937e+000 9.547572e+000 1.000000e+001
         vertex 6.999468e+000 9.418371e+000 1.000000e+001
      endloop
   endfacet
   facet normal 0.000000e+000 0.000000e+000 1.000000e+000
      outer loop
         vertex 1.000000e+001 0.000000e+000 1.000000e+001
         vertex 6.999468e+000 9.418371e+000 1.000000e+001
         vertex 6.887939e+000 9.306842e+000 1.000000e+001
      endloop
   endfacet
   facet normal 0.000000e+000 0.000000e+000 1.000000e+000
      outer loop
         vertex 6.615788e+000 9.149715e+000 1.000000e+001
         vertex 6.463437e+000 9.108892e+000 1.000000e+001
         vertex 1.000000e+001 0.000000e+000 1.000000e+001
      endloop
   endfacet
   facet normal 0.000000e+000 0.000000e+000 1.000000e+000
      outer loop
         vertex 1.000000e+001 0.000000e+000 1.000000e+001
         vertex 6.463437e+000 9.108892e+000 1.000000e+001
         vertex 6.306310e+000 9.095145e+000 1.000000e+001
      endloop
   endfacet
   facet normal 0.000000e+000 0.000000e+000 1.000000e+000
      outer loop
         vertex 1.000000e+001 0.000000e+000 1.000000e+001
         vertex 6.306310e+000 9.095145e+000 1.000000e+001
         vertex 0.000000e+000 0.000000e+000 1.000000e+001
      endloop
   endfacet
   facet normal 0.000000e+000 0.000000e+000 1.000000e+000
      outer loop
         vertex 0.000000e+000 0.000000e+000 1.000000e+001
         vertex 6.306310e+000 9.095145e+000 1.000000e+001
         vertex 3.693690e+000 9.095145e+000 1.000000e+001
      endloop
   endfacet
   facet normal 0.000000e+000 0.000000e+000 1.000000e+000
      outer loop
         vertex 3.693690e+000 9.095145e+000 1.000000e+001
         vertex 3.536564e+000 9.108892e+000 1.000000e+001
         vertex 0.000000e+000 0.000000e+000 1.000000e+001
      endloop
   endfacet
   facet normal 0.000000e+000 0.000000e+000 1.000000e+000
      outer loop
         vertex 0.000000e+000 0.000000e+000 1.000000e+001
         vertex 3.536564e+000 9.108892e+000 1.000000e+001
         vertex 3.384212e+000 9.149715e+000 1.000000e+001
      endloop
   endfacet
   facet normal 0.000000e+000 0.000000e+000 1.000000e+000
      outer loop
         vertex 0.000000e+000 0.000000e+000 1.000000e+001
         vertex 3.384212e+000 9.149715e+000 1.000000e+001
         vertex 3.241263e+000 9.216372e+000 1.000000e+001
      endloop
   endfacet
   facet normal 0.000000e+000 0.000000e+000 1.000000e+000
      outer loop
         vertex 2.788836e+000 1.000000e+001 1.000000e+001
         vertex 0.000000e+000 1.000000e+001 1.000000e+001
         vertex 2.802583e+000 9.842874e+000 1.000000e+001
      endloop
   endfacet
   facet normal 0.000000e+000 0.000000e+000 1.000000e+000
      outer loop
         vertex 2.802583e+000 9.842874e+000 1.000000e+001
         vertex 0.000000e+000 1.000000e+001 1.000000e+001
         vertex 2.843405e+000 9.690521e+000 1.000000e+001
      endloop
   endfacet
   facet normal 0.000000e+000 0.000000e+000 1.000000e+000
      outer loop
         vertex 3.241263e+000 9.216372e+000 1.000000e+001
         vertex 3.112061e+000 9.306842e+000 1.000000e+001
         vertex 0.000000e+000 0.000000e+000 1.000000e+001
      endloop
   endfacet
   facet normal 0.000000e+000 0.000000e+000 1.000000e+000
      outer loop
         vertex 0.000000e+000 0.000000e+000 1.000000e+001
         vertex 3.112061e+000 9.306842e+000 1.000000e+001
         vertex 3.000531e+000 9.418371e+000 1.000000e+001
      endloop
   endfacet
   facet normal 0.000000e+000 0.000000e+000 1.000000e+000
      outer loop
         vertex 0.000000e+000 0.000000e+000 1.000000e+001
         vertex 3.000531e+000 9.418371e+000 1.000000e+001
         vertex 0.000000e+000 1.000000e+001 1.000000e+001
      endloop
   endfacet
   facet normal 0.000000e+000 0.000000e+000 1.000000e+000
      outer loop
         vertex 0.000000e+000 1.000000e+001 1.000000e+001
         vertex 3.000531e+000 9.418371e+000 1.000000e+001
         vertex 2.910063e+000 9.547572e+000 1.000000e+001
      endloop
   endfacet
   facet normal 0.000000e+000 0.000000e+000 1.000000e+000
      outer loop
         vertex 0.000000e+000 1.000000e+001 1.000000e+001
         vertex 2.910063e+000 9.547572e+000 1.000000e+001
         vertex 2.843405e+000 9.690521e+000 1.000000e+001
      endloop
   endfacet
   facet normal 1.000000e+000 0.000000e+000 0.000000e+000
      outer loop
         vertex 1.000000e+001 1.000000e+001 0.000000e+000
         vertex 1.000000e+001 1.000000e+001 1.000000e+001
         vertex 1.000000e+001 0.000000e+000 0.000000e+000
      endloop
   endfacet
   facet normal 1.000000e+000 0.000000e+000 0.000000e+000
      outer loop
         vertex 1.000000e+001 0.000000e+000 0.000000e+000
         vertex 1.000000e+001 1.000000e+001 1.000000e+001
         vertex 1.000000e+001 0.000000e+000 1.000000e+001
      endloop
   endfacet
   facet normal 0.000000e+000 0.000000e+000 -1.000000e+000
      outer loop
         vertex 0.000000e+000 1.000000e+001 0.000000e+000
         vertex 1.000000e+001 1.000000e+001 0.000000e+000
         vertex 0.000000e+000 0.000000e+000 0.000000e+000
      endloop
   endfacet
   facet normal 0.000000e+000 0.000000e+000 -1.000000e+000
      outer loop
         vertex 0.000000e+000 0.000000e+000 0.000000e+000
         vertex 1.000000e+001 1.000000e+001 0.000000e+000
         vertex 1.000000e+001 0.000000e+000 0.000000e+000
      endloop
   endfacet
   facet normal 0.000000e+000 1.000000e+000 0.000000e+000
      outer loop
         vertex 7.211164e+000 1.000000e+001 1.000000e+001
         vertex 1.000000e+001 1.000000e+001 1.000000e+001
         vertex 7.211164e+000 1.000000e+001 1.563276e+000
      endloop
   endfacet
   facet normal 0.000000e+000 1.000000e+000 0.000000e+000
      outer loop
         vertex 7.211164e+000 1.000000e+001 1.563276e+000
         vertex 1.000000e+001 1.000000e+001 1.000000e+001
         vertex 1.000000e+001 1.000000e+001 0.000000e+000
      endloop
   endfacet
   facet normal 0.000000e+000 1.000000e+000 0.000000e+000
      outer loop
         vertex 7.211164e+000 1.000000e+001 1.563276e+000
         vertex 1.000000e+001 1.000000e+001 0.000000e+000
         vertex 2.788836e+000 1.000000e+001 1.563276e+000
      endloop
   endfacet
   facet normal 0.000000e+000 1.000000e+000 0.000000e+000
      outer loop
         vertex 2.788836e+000 1.000000e+001 1.563276e+000
         vertex 1.000000e+001 1.000000e+001 0.000000e+000
         vertex 0.000000e+000 1.000000e+001 0.000000e+000
      endloop
   endfacet
   facet normal 0.000000e+000 1.000000e+000 0.000000e+000
      outer loop
         vertex 2.788836e+000 1.000000e+001 1.563276e+000
         vertex 0.000000e+000 1.000000e+001 0.000000e+000
         vertex 2.788836e+000 1.000000e+001 1.000000e+001
      endloop
   endfacet
   facet normal 0.000000e+000 1.000000e+000 0.000000e+000
      outer loop
         vertex 2.788836e+000 1.000000e+001 1.000000e+001
         vertex 0.000000e+000 1.000000e+001 0.000000e+000
         vertex 0.000000e+000 1.000000e+001 1.000000e+001
      endloop
   endfacet
   facet normal 0.000000e+000 -1.000000e+000 0.000000e+000
      outer loop
         vertex 1.000000e+001 0.000000e+000 0.000000e+000
         vertex 1.000000e+001 0.000000e+000 1.000000e+001
         vertex 0.000000e+000 0.000000e+000 0.000000e+000
      endloop
   endfacet
   facet normal 0.000000e+000 -1.000000e+000 0.000000e+000
      outer loop
         vertex 0.000000e+000 0.000000e+000 0.000000e+000
         vertex 1.000000e+001 0.000000e+000 1.000000e+001
         vertex 0.000000e+000 0.000000e+000 1.000000e+001
      endloop
   endfacet
   facet normal 9.983119e-001 5.807913e-002 0.000000e+000
      outer loop
         vertex 2.788836e+000 1.000000e+001 1.563276e+000
         vertex 2.788836e+000 1.000000e+001 1.000000e+001
         vertex 2.802583e+000 9.842874e+000 1.000000e+001
      endloop
   endfacet
   facet normal 9.932307e-001 1.161583e-001 0.000000e+000
      outer loop
         vertex 2.788836e+000 1.000000e+001 1.563276e+000
         vertex 2.802583e+000 9.842874e+000 1.000000e+001
         vertex 2.802583e+000 9.842874e+000 1.563276e+000
      endloop
   endfacet
   facet normal 9.730600e-001 2.305519e-001 0.000000e+000
      outer loop
         vertex 2.802583e+000 9.842874e+000 1.563276e+000
         vertex 2.802583e+000 9.842874e+000 1.000000e+001
         vertex 2.843405e+000 9.690521e+000 1.000000e+001
      endloop
   endfacet
   facet normal 9.579706e-001 2.868663e-001 0.000000e+000
      outer loop
         vertex 2.802583e+000 9.842874e+000 1.563276e+000
         vertex 2.843405e+000 9.690521e+000 1.000000e+001
         vertex 2.843405e+000 9.690521e+000 1.563276e+000
      endloop
   endfacet
   facet normal 9.182422e-001 3.960194e-001 0.000000e+000
      outer loop
         vertex 2.843405e+000 9.690521e+000 1.563276e+000
         vertex 2.843405e+000 9.690521e+000 1.000000e+001
         vertex 2.910063e+000 9.547572e+000 1.000000e+001
      endloop
   endfacet
   facet normal 8.936031e-001 4.488580e-001 0.000000e+000
      outer loop
         vertex 2.843405e+000 9.690521e+000 1.563276e+000
         vertex 2.910063e+000 9.547572e+000 1.000000e+001
         vertex 2.910063e+000 9.547572e+000 1.563276e+000
      endloop
   endfacet
   facet normal 8.355240e-001 5.494540e-001 0.000000e+000
      outer loop
         vertex 2.910063e+000 9.547572e+000 1.563276e+000
         vertex 2.910063e+000 9.547572e+000 1.000000e+001
         vertex 3.000531e+000 9.418371e+000 1.000000e+001
      endloop
   endfacet
   facet normal 8.020838e-001 5.972114e-001 0.000000e+000
      outer loop
         vertex 2.910063e+000 9.547572e+000 1.563276e+000
         vertex 3.000531e+000 9.418371e+000 1.000000e+001
         vertex 3.000531e+000 9.418371e+000 1.563276e+000
      endloop
   endfacet
   facet normal 7.274188e-001 6.861938e-001 0.000000e+000
      outer loop
         vertex 3.000531e+000 9.418371e+000 1.563276e+000
         vertex 3.000531e+000 9.418371e+000 1.000000e+001
         vertex 3.112061e+000 9.306842e+000 1.000000e+001
      endloop
   endfacet
   facet normal 6.861938e-001 7.274188e-001 0.000000e+000
      outer loop
         vertex 3.000531e+000 9.418371e+000 1.563276e+000
         vertex 3.112061e+000 9.306842e+000 1.000000e+001
         vertex 3.112061e+000 9.306842e+000 1.563276e+000
      endloop
   endfacet
   facet normal 5.972114e-001 8.020838e-001 0.000000e+000
      outer loop
         vertex 3.112061e+000 9.306842e+000 1.563276e+000
         vertex 3.112061e+000 9.306842e+000 1.000000e+001
         vertex 3.241263e+000 9.216372e+000 1.000000e+001
      endloop
   endfacet
   facet normal 5.494540e-001 8.355240e-001 0.000000e+000
      outer loop
         vertex 3.112061e+000 9.306842e+000 1.563276e+000
         vertex 3.241263e+000 9.216372e+000 1.000000e+001
         vertex 3.241263e+000 9.216372e+000 1.563276e+000
      endloop
   endfacet
   facet normal 4.488580e-001 8.936031e-001 0.000000e+000
      outer loop
         vertex 3.241263e+000 9.216372e+000 1.563276e+000
         vertex 3.241263e+000 9.216372e+000 1.000000e+001
         vertex 3.384212e+000 9.149715e+000 1.000000e+001
      endloop
   endfacet
   facet normal 3.960194e-001 9.182422e-001 0.000000e+000
      outer loop
         vertex 3.241263e+000 9.216372e+000 1.563276e+000
         vertex 3.384212e+000 9.149715e+000 1.000000e+001
         vertex 3.384212e+000 9.149715e+000 1.563276e+000
      endloop
   endfacet
   facet normal 2.868663e-001 9.579706e-001 0.000000e+000
      outer loop
         vertex 3.384212e+000 9.149715e+000 1.563276e+000
         vertex 3.384212e+000 9.149715e+000 1.000000e+001
         vertex 3.536564e+000 9.108892e+000 1.000000e+001
      endloop
   endfacet
   facet normal 2.305519e-001 9.730600e-001 0.000000e+000
      outer loop
         vertex 3.384212e+000 9.149715e+000 1.563276e+000
         vertex 3.536564e+000 9.108892e+000 1.000000e+001
         vertex 3.536564e+000 9.108892e+000 1.563276e+000
      endloop
   endfacet
   facet normal 1.161583e-001 9.932307e-001 0.000000e+000
      outer loop
         vertex 3.536564e+000 9.108892e+000 1.563276e+000
         vertex 3.536564e+000 9.108892e+000 1.000000e+001
         vertex 3.693690e+000 9.095145e+000 1.000000e+001
      endloop
   endfacet
   facet normal 5.807913e-002 9.983119e-001 0.000000e+000
      outer loop
         vertex 3.536564e+000 9.108892e+000 1.563276e+000
         vertex 3.693690e+000 9.095145e+000 1.000000e+001
         vertex 3.693690e+000 9.095145e+000 1.563276e+000
      endloop
   endfacet
   facet normal -5.807913e-002 9.983119e-001 0.000000e+000
      outer loop
         vertex 6.306310e+000 9.095145e+000 1.563276e+000
         vertex 6.306310e+000 9.095145e+000 1.000000e+001
         vertex 6.463437e+000 9.108892e+000 1.000000e+001
      endloop
   endfacet
   facet normal -1.161583e-001 9.932307e-001 0.000000e+000
      outer loop
         vertex 6.306310e+000 9.095145e+000 1.563276e+000
         vertex 6.463437e+000 9.108892e+000 1.000000e+001
         vertex 6.463437e+000 9.108892e+000 1.563276e+000
      endloop
   endfacet
   facet normal -2.305519e-001 9.730600e-001 0.000000e+000
      outer loop
         vertex 6.463437e+000 9.108892e+000 1.563276e+000
         vertex 6.463437e+000 9.108892e+000 1.000000e+001
         vertex 6.615788e+000 9.149715e+000 1.000000e+001
      endloop
   endfacet
   facet normal -2.868663e-001 9.579706e-001 0.000000e+000
      outer loop
         vertex 6.463437e+000 9.108892e+000 1.563276e+000
         vertex 6.615788e+000 9.149715e+000 1.000000e+001
         vertex 6.615788e+000 9.149715e+000 1.563276e+000
      endloop
   endfacet
   facet normal -3.960194e-001 9.182422e-001 0.000000e+000
      outer loop
         vertex 6.615788e+000 9.149715e+000 1.563276e+000
         vertex 6.615788e+000 9.149715e+000 1.000000e+001
         vertex 6.758737e+000 9.216372e+000 1.000000e+001
      endloop
   endfacet
   facet normal -4.488580e-001 8.936031e-001 0.000000e+000
      outer loop
         vertex 6.615788e+000 9.149715e+000 1.563276e+000
         vertex 6.758737e+000 9.216372e+000 1.000000e+001
         vertex 6.758737e+000 9.216372e+000 1.563276e+000
      endloop
   endfacet
   facet normal -5.494540e-001 8.355240e-001 0.000000e+000
      outer loop
         vertex 6.758737e+000 9.216372e+000 1.563276e+000
         vertex 6.758737e+000 9.216372e+000 1.000000e+001
         vertex 6.887939e+000 9.306842e+000 1.000000e+001
      endloop
   endfacet
   facet normal -5.972114e-001 8.020838e-001 0.000000e+000
      outer loop
         vertex 6.758737e+000 9.216372e+000 1.563276e+000
         vertex 6.887939e+000 9.306842e+000 1.000000e+001
         vertex 6.887939e+000 9.306842e+000 1.563276e+000
      endloop
   endfacet
   facet normal -6.861938e-001 7.274188e-001 0.000000e+000
      outer loop
         vertex 6.887939e+000 9.306842e+000 1.563276e+000
         vertex 6.887939e+000 9.306842e+000 1.000000e+001
         vertex 6.999468e+000 9.418371e+000 1.000000e+001
      endloop
   endfacet
   facet normal -7.274188e-001 6.861938e-001 0.000000e+000
      outer loop
         vertex 6.887939e+000 9.306842e+000 1.563276e+000
         vertex 6.999468e+000 9.418371e+000 1.000000e+001
         vertex 6.999468e+000 9.418371e+000 1.563276e+000
      endloop
   endfacet
   facet normal -8.020838e-001 5.972114e-001 0.000000e+000
      outer loop
         vertex 6.999468e+000 9.418371e+000 1.563276e+000
         vertex 6.999468e+000 9.418371e+000 1.000000e+001
         vertex 7.089937e+000 9.547572e+000 1.000000e+001
      endloop
   endfacet
   facet normal -8.355240e-001 5.494540e-001 0.000000e+000
      outer loop
         vertex 6.999468e+000 9.418371e+000 1.563276e+000
         vertex 7.089937e+000 9.547572e+000 1.000000e+001
         vertex 7.089937e+000 9.547572e+000 1.563276e+000
      endloop
   endfacet
   facet normal -8.936031e-001 4.488580e-001 0.000000e+000
      outer loop
         vertex 7.089937e+000 9.547572e+000 1.563276e+000
         vertex 7.089937e+000 9.547572e+000 1.000000e+001
         vertex 7.156595e+000 9.690521e+000 1.000000e+001
      endloop
   endfacet
   facet normal -9.182422e-001 3.960194e-001 0.000000e+000
      outer loop
         vertex 7.089937e+000 9.547572e+000 1.563276e+000
         vertex 7.156595e+000 9.690521e+000 1.000000e+001
         vertex 7.156595e+000 9.690521e+000 1.563276e+000
      endloop
   endfacet
   facet normal -9.579706e-001 2.868663e-001 0.000000e+000
      outer loop
         vertex 7.156595e+000 9.690521e+000 1.563276e+000
         vertex 7.156595e+000 9.690521e+000 1.000000e+001
         vertex 7.197417e+000 9.842874e+000 1.000000e+001
      endloop
   endfacet
   facet normal -9.730600e-001 2.305519e-001 0.000000e+000
      outer loop
         vertex 7.156595e+000 9.690521e+000 1.563276e+000
         vertex 7.197417e+000 9.842874e+000 1.000000e+001
         vertex 7.197417e+000 9.842874e+000 1.563276e+000
      endloop
   endfacet
   facet normal -9.932307e-001 1.161583e-001 0.000000e+000
      outer loop
         vertex 7.197417e+000 9.842874e+000 1.563276e+000
         vertex 7.197417e+000 9.842874e+000 1.000000e+001
         vertex 7.211164e+000 1.000000e+001 1.000000e+001
      endloop
   endfacet
   facet normal -9.983119e-001 5.807913e-002 0.000000e+000
      outer loop
         vertex 7.197417e+000 9.842874e+000 1.563276e+000
         vertex 7.211164e+000 1.000000e+001 1.000000e+001
         vertex 7.211164e+000 1.000000e+001 1.563276e+000
      endloop
   endfacet
   facet normal 0.000000e+000 0.000000e+000 1.000000e+000
      outer loop
         vertex 7.156595e+000 9.690521e+000 1.563276e+000
         vertex 6.306310e+000 9.095145e+000 1.563276e+000
         vertex 7.089937e+000 9.547572e+000 1.563276e+000
      endloop
   endfacet
   facet normal 0.000000e+000 0.000000e+000 1.000000e+000
      outer loop
         vertex 7.089937e+000 9.547572e+000 1.563276e+000
         vertex 6.306310e+000 9.095145e+000 1.563276e+000
         vertex 6.463437e+000 9.108892e+000 1.563276e+000
      endloop
   endfacet
   facet normal 0.000000e+000 0.000000e+000 1.000000e+000
      outer loop
         vertex 7.089937e+000 9.547572e+000 1.563276e+000
         vertex 6.463437e+000 9.108892e+000 1.563276e+000
         vertex 6.615788e+000 9.149715e+000 1.563276e+000
      endloop
   endfacet
   facet normal 0.000000e+000 0.000000e+000 1.000000e+000
      outer loop
         vertex 7.156595e+000 9.690521e+000 1.563276e+000
         vertex 7.197417e+000 9.842874e+000 1.563276e+000
         vertex 6.306310e+000 9.095145e+000 1.563276e+000
      endloop
   endfacet
   facet normal 0.000000e+000 0.000000e+000 1.000000e+000
      outer loop
         vertex 6.306310e+000 9.095145e+000 1.563276e+000
         vertex 7.197417e+000 9.842874e+000 1.563276e+000
         vertex 7.211164e+000 1.000000e+001 1.563276e+000
      endloop
   endfacet
   facet normal 0.000000e+000 0.000000e+000 1.000000e+000
      outer loop
         vertex 6.306310e+000 9.095145e+000 1.563276e+000
         vertex 7.211164e+000 1.000000e+001 1.563276e+000
         vertex 3.693690e+000 9.095145e+000 1.563276e+000
      endloop
   endfacet
   facet normal 0.000000e+000 0.000000e+000 1.000000e+000
      outer loop
         vertex 3.693690e+000 9.095145e+000 1.563276e+000
         vertex 7.211164e+000 1.000000e+001 1.563276e+000
         vertex 2.788836e+000 1.000000e+001 1.563276e+000
      endloop
   endfacet
   facet normal 0.000000e+000 0.000000e+000 1.000000e+000
      outer loop
         vertex 3.693690e+000 9.095145e+000 1.563276e+000
         vertex 2.788836e+000 1.000000e+001 1.563276e+000
         vertex 3.536564e+000 9.108892e+000 1.563276e+000
      endloop
   endfacet
   facet normal 0.000000e+000 0.000000e+000 1.000000e+000
      outer loop
         vertex 3.000531e+000 9.418371e+000 1.563276e+000
         vertex 2.802583e+000 9.842874e+000 1.563276e+000
         vertex 2.910063e+000 9.547572e+000 1.563276e+000
      endloop
   endfacet
   facet normal 0.000000e+000 0.000000e+000 1.000000e+000
      outer loop
         vertex 2.910063e+000 9.547572e+000 1.563276e+000
         vertex 2.802583e+000 9.842874e+000 1.563276e+000
         vertex 2.843405e+000 9.690521e+000 1.563276e+000
      endloop
   endfacet
   facet normal 0.000000e+000 0.000000e+000 1.000000e+000
      outer loop
         vertex 3.000531e+000 9.418371e+000 1.563276e+000
         vertex 3.112061e+000 9.306842e+000 1.563276e+000
         vertex 2.802583e+000 9.842874e+000 1.563276e+000
      endloop
   endfacet
   facet normal 0.000000e+000 0.000000e+000 1.000000e+000
      outer loop
         vertex 2.802583e+000 9.842874e+000 1.563276e+000
         vertex 3.112061e+000 9.306842e+000 1.563276e+000
         vertex 3.241263e+000 9.216372e+000 1.563276e+000
      endloop
   endfacet
   facet normal 0.000000e+000 0.000000e+000 1.000000e+000
      outer loop
         vertex 2.802583e+000 9.842874e+000 1.563276e+000
         vertex 3.241263e+000 9.216372e+000 1.563276e+000
         vertex 2.788836e+000 1.000000e+001 1.563276e+000
      endloop
   endfacet
   facet normal 0.000000e+000 0.000000e+000 1.000000e+000
      outer loop
         vertex 2.788836e+000 1.000000e+001 1.563276e+000
         vertex 3.241263e+000 9.216372e+000 1.563276e+000
         vertex 3.384212e+000 9.149715e+000 1.563276e+000
      endloop
   endfacet
   facet normal 0.000000e+000 0.000000e+000 1.000000e+000
      outer loop
         vertex 2.788836e+000 1.000000e+001 1.563276e+000
         vertex 3.384212e+000 9.149715e+000 1.563276e+000
         vertex 3.536564e+000 9.108892e+000 1.563276e+000
      endloop
   endfacet
   facet normal 0.000000e+000 0.000000e+000 1.000000e+000
      outer loop
         vertex 6.615788e+000 9.149715e+000 1.563276e+000
         vertex 6.758737e+000 9.216372e+000 1.563276e+000
         vertex 7.089937e+000 9.547572e+000 1.563276e+000
      endloop
   endfacet
   facet normal 0.000000e+000 0.000000e+000 1.000000e+000
      outer loop
         vertex 7.089937e+000 9.547572e+000 1.563276e+000
         vertex 6.758737e+000 9.216372e+000 1.563276e+000
         vertex 6.887939e+000 9.306842e+000 1.563276e+000
      endloop
   endfacet
   facet normal 0.000000e+000 0.000000e+000 1.000000e+000
      outer loop
         vertex 7.089937e+000 9.547572e+000 1.563276e+000
         vertex 6.887939e+000 9.306842e+000 1.563276e+000
         vertex 6.999468e+000 9.418371e+000 1.563276e+000
      endloop
   endfacet
   facet normal 0.000000e+000 1.000000e+000 0.000000e+000
      outer loop
         vertex 6.306310e+000 9.095145e+000 1.563276e+000
         vertex 3.693690e+000 9.095145e+000 1.563276e+000
         vertex 6.306310e+000 9.095145e+000 1.000000e+001
      endloop
   endfacet
   facet normal 0.000000e+000 1.000000e+000 0.000000e+000
      outer loop
         vertex 6.306310e+000 9.095145e+000 1.000000e+001
         vertex 3.693690e+000 9.095145e+000 1.563276e+000
         vertex 3.693690e+000 9.095145e+000 1.000000e+001
      endloop
   endfacet
endsolid