solid 21_644
   facet normal -1.000000e+000 0.000000e+000 0.000000e+000
      outer loop
         vertex 0.000000e+000 1.000000e+001 1.000000e+001
         vertex 0.000000e+000 1.000000e+001 0.000000e+000
         vertex 0.000000e+000 0.000000e+000 1.000000e+001
      endloop
   endfacet
   facet normal -1.000000e+000 0.000000e+000 0.000000e+000
      outer loop
         vertex 0.000000e+000 0.000000e+000 1.000000e+001
         vertex 0.000000e+000 1.000000e+001 0.000000e+000
         vertex 0.000000e+000 0.000000e+000 0.000000e+000
      endloop
   endfacet
   facet normal 0.000000e+000 0.000000e+000 1.000000e+000
      outer loop
         vertex 1.000000e+001 1.000000e+001 1.000000e+001
         vertex 6.995821e+000 1.000000e+001 1.000000e+001
         vertex 6.984244e+000 9.867664e+000 1.000000e+001
      endloop
   endfacet
   facet normal 0.000000e+000 0.000000e+000 1.000000e+000
      outer loop
         vertex 6.723593e+000 9.416205e+000 1.000000e+001
         vertex 6.614777e+000 9.340012e+000 1.000000e+001
         vertex 1.000000e+001 0.000000e+000 1.000000e+001
      endloop
   endfacet
   facet normal 0.000000e+000 0.000000e+000 1.000000e+000
      outer loop
         vertex 1.000000e+001 0.000000e+000 1.000000e+001
         vertex 6.614777e+000 9.340012e+000 1.000000e+001
         vertex 6.494382e+000 9.283871e+000 1.000000e+001
      endloop
   endfacet
   facet normal 0.000000e+000 0.000000e+000 1.000000e+000
      outer loop
         vertex 6.494382e+000 9.283871e+000 1.000000e+001
         vertex 6.366067e+000 9.249489e+000 1.000000e+001
         vertex 1.000000e+001 0.000000e+000 1.000000e+001
      endloop
   endfacet
   facet normal 0.000000e+000 0.000000e+000 1.000000e+000
      outer loop
         vertex 1.000000e+001 0.000000e+000 1.000000e+001
         vertex 6.366067e+000 9.249489e+000 1.000000e+001
         vertex 6.233732e+000 9.237910e+000 1.000000e+001
      endloop
   endfacet
   facet normal 0.000000e+000 0.000000e+000 1.000000e+000
      outer loop
         vertex 1.000000e+001 0.000000e+000 1.000000e+001
         vertex 6.233732e+000 9.237910e+000 1.000000e+001
         vertex 0.000000e+000 0.000000e+000 1.000000e+001
      endloop
   endfacet
   facet normal 0.000000e+000 0.000000e+000 1.000000e+000
      outer loop
         vertex 0.000000e+000 0.000000e+000 1.000000e+001
         vertex 6.233732e+000 9.237910e+000 1.000000e+001
         vertex 3.766268e+000 9.237910e+000 1.000000e+001
      endloop
   endfacet
   facet normal 0.000000e+000 0.000000e+000 1.000000e+000
      outer loop
         vertex 3.766268e+000 9.237910e+000 1.000000e+001
         vertex 3.633933e+000 9.249489e+000 1.000000e+001
         vertex 0.000000e+000 0.000000e+000 1.000000e+001
      endloop
   endfacet
   facet normal 0.000000e+000 0.000000e+000 1.000000e+000
      outer loop
         vertex 0.000000e+000 0.000000e+000 1.000000e+001
         vertex 3.633933e+000 9.249489e+000 1.000000e+001
         vertex 3.505618e+000 9.283871e+000 1.000000e+001
      endloop
   endfacet
   facet normal 0.000000e+000 0.000000e+000 1.000000e+000
      outer loop
         vertex 0.000000e+000 0.000000e+000 1.000000e+001
         vertex 3.505618e+000 9.283871e+000 1.000000e+001
         vertex 3.385223e+000 9.340012e+000 1.000000e+001
      endloop
   endfacet
   facet normal 0.000000e+000 0.000000e+000 1.000000e+000
      outer loop
         vertex 6.984244e+000 9.867664e+000 1.000000e+001
         vertex 6.949862e+000 9.739350e+000 1.000000e+001
         vertex 1.000000e+001 1.000000e+001 1.000000e+001
      endloop
   endfacet
   facet normal 0.000000e+000 0.000000e+000 1.000000e+000
      outer loop
         vertex 1.000000e+001 1.000000e+001 1.000000e+001
         vertex 6.949862e+000 9.739350e+000 1.000000e+001
         vertex 6.893721e+000 9.618956e+000 1.000000e+001
      endloop
   endfacet
   facet normal 0.000000e+000 0.000000e+000 1.000000e+000
      outer loop
         vertex 1.000000e+001 1.000000e+001 1.000000e+001
         vertex 6.893721e+000 9.618956e+000 1.000000e+001
         vertex 1.000000e+001 0.000000e+000 1.000000e+001
      endloop
   endfacet
   facet normal 0.000000e+000 0.000000e+000 1.000000e+000
      outer loop
         vertex 1.000000e+001 0.000000e+000 1.000000e+001
         vertex 6.893721e+000 9.618956e+000 1.000000e+001
         vertex 6.817526e+000 9.510139e+000 1.000000e+001
      endloop
   endfacet
   facet normal 0.000000e+000 0.000000e+000 1.000000e+000
      outer loop
         vertex 1.000000e+001 0.000000e+000 1.000000e+001
         vertex 6.817526e+000 9.510139e+000 1.000000e+001
         vertex 6.723593e+000 9.416205e+000 1.000000e+001
      endloop
   endfacet
   facet normal 0.000000e+000 0.000000e+000 1.000000e+000
      outer loop
         vertex 3.106279e+000 9.618956e+000 1.000000e+001
         vertex 0.000000e+000 1.000000e+001 1.000000e+001
         vertex 3.182474e+000 9.510139e+000 1.000000e+001
      endloop
   endfacet
   facet normal 0.000000e+000 0.000000e+000 1.000000e+000
      outer loop
         vertex 3.182474e+000 9.510139e+000 1.000000e+001
         vertex 0.000000e+000 1.000000e+001 1.000000e+001
         vertex 0.000000e+000 0.000000e+000 1.000000e+001
      endloop
   endfacet
   facet normal 0.000000e+000 0.000000e+000 1.000000e+000
      outer loop
         vertex 3.182474e+000 9.510139e+000 1.000000e+001
         vertex 0.000000e+000 0.000000e+000 1.000000e+001
         vertex 3.276407e+000 9.416205e+000 1.000000e+001
      endloop
   endfacet
   facet normal 0.000000e+000 0.000000e+000 1.000000e+000
      outer loop
         vertex 3.276407e+000 9.416205e+000 1.000000e+001
         vertex 0.000000e+000 0.000000e+000 1.000000e+001
         vertex 3.385223e+000 9.340012e+000 1.000000e+001
      endloop
   endfacet
   facet normal 0.000000e+000 0.000000e+000 1.000000e+000
      outer loop
         vertex 3.106279e+000 9.618956e+000 1.000000e+001
         vertex 3.050138e+000 9.739350e+000 1.000000e+001
         vertex 0.000000e+000 1.000000e+001 1.000000e+001
      endloop
   endfacet
   facet normal 0.000000e+000 0.000000e+000 1.000000e+000
      outer loop
         vertex 0.000000e+000 1.000000e+001 1.000000e+001
         vertex 3.050138e+000 9.739350e+000 1.000000e+001
         vertex 3.015757e+000 9.867664e+000 1.000000e+001
      endloop
   endfacet
   facet normal 0.000000e+000 0.000000e+000 1.000000e+000
      outer loop
         vertex 0.000000e+000 1.000000e+001 1.000000e+001
         vertex 3.015757e+000 9.867664e+000 1.000000e+001
         vertex 3.004179e+000 1.000000e+001 1.000000e+001
      endloop
   endfacet
   facet normal 1.000000e+000 0.000000e+000 0.000000e+000
      outer loop
         vertex 1.000000e+001 1.000000e+001 0.000000e+000
         vertex 1.000000e+001 1.000000e+001 1.000000e+001
         vertex 1.000000e+001 0.000000e+000 0.000000e+000
      endloop
   endfacet
   facet normal 1.000000e+000 0.000000e+000 0.000000e+000
      outer loop
         vertex 1.000000e+001 0.000000e+000 0.000000e+000
         vertex 1.000000e+001 1.000000e+001 1.000000e+001
         vertex 1.000000e+001 0.000000e+000 1.000000e+001
      endloop
   endfacet
   facet normal 0.000000e+000 0.000000e+000 -1.000000e+000
      outer loop
         vertex 0.000000e+000 1.000000e+001 0.000000e+000
         vertex 1.000000e+001 1.000000e+001 0.000000e+000
         vertex 0.000000e+000 0.000000e+000 0.000000e+000
      endloop
   endfacet
   facet normal 0.000000e+000 0.000000e+000 -1.000000e+000
      outer loop
         vertex 0.000000e+000 0.000000e+000 0.000000e+000
         vertex 1.000000e+001 1.000000e+001 0.000000e+000
         vertex 1.000000e+001 0.000000e+000 0.000000e+000
      endloop
   endfacet
   facet normal 0.000000e+000 1.000000e+000 0.000000e+000
      outer loop
         vertex 6.995821e+000 1.000000e+001 1.000000e+001
         vertex 1.000000e+001 1.000000e+001 1.000000e+001
         vertex 6.995821e+000 1.000000e+001 6.265599e+000
      endloop
   endfacet
   facet normal 0.000000e+000 1.000000e+000 0.000000e+000
      outer loop
         vertex 6.995821e+000 1.000000e+001 6.265599e+000
         vertex 1.000000e+001 1.000000e+001 1.000000e+001
         vertex 1.000000e+001 1.000000e+001 0.000000e+000
      endloop
   endfacet
   facet normal 0.000000e+000 1.000000e+000 0.000000e+000
      outer loop
         vertex 6.995821e+000 1.000000e+001 6.265599e+000
         vertex 1.000000e+001 1.000000e+001 0.000000e+000
         vertex 3.004179e+000 1.000000e+001 6.265599e+000
      endloop
   endfacet
   facet normal 0.000000e+000 1.000000e+000 0.000000e+000
      outer loop
         vertex 3.004179e+000 1.000000e+001 6.265599e+000
         vertex 1.000000e+001 1.000000e+001 0.000000e+000
         vertex 0.000000e+000 1.000000e+001 0.000000e+000
      endloop
   endfacet
   facet normal 0.000000e+000 1.000000e+000 0.000000e+000
      outer loop
         vertex 3.004179e+000 1.000000e+001 6.265599e+000
         vertex 0.000000e+000 1.000000e+001 0.000000e+000
         vertex 3.004179e+000 1.000000e+001 1.000000e+001
      endloop
   endfacet
   facet normal 0.000000e+000 1.000000e+000 0.000000e+000
      outer loop
         vertex 3.004179e+000 1.000000e+001 1.000000e+001
         vertex 0.000000e+000 1.000000e+001 0.000000e+000
         vertex 0.000000e+000 1.000000e+001 1.000000e+001
      endloop
   endfacet
   facet normal 0.000000e+000 -1.000000e+000 0.000000e+000
      outer loop
         vertex 1.000000e+001 0.000000e+000 0.000000e+000
         vertex 1.000000e+001 0.000000e+000 1.000000e+001
         vertex 0.000000e+000 0.000000e+000 0.000000e+000
      endloop
   endfacet
   facet normal 0.000000e+000 -1.000000e+000 0.000000e+000
      outer loop
         vertex 0.000000e+000 0.000000e+000 0.000000e+000
         vertex 1.000000e+001 0.000000e+000 1.000000e+001
         vertex 0.000000e+000 0.000000e+000 1.000000e+001
      endloop
   endfacet
   facet normal 9.983119e-001 5.807913e-002 0.000000e+000
      outer loop
         vertex 3.004179e+000 1.000000e+001 6.265599e+000
         vertex 3.004179e+000 1.000000e+001 1.000000e+001
         vertex 3.015757e+000 9.867664e+000 1.000000e+001
      endloop
   endfacet
   facet normal 9.932307e-001 1.161583e-001 0.000000e+000
      outer loop
         vertex 3.004179e+000 1.000000e+001 6.265599e+000
         vertex 3.015757e+000 9.867664e+000 1.000000e+001
         vertex 3.015757e+000 9.867664e+000 6.265599e+000
      endloop
   endfacet
   facet normal 9.730600e-001 2.305519e-001 0.000000e+000
      outer loop
         vertex 3.015757e+000 9.867664e+000 6.265599e+000
         vertex 3.015757e+000 9.867664e+000 1.000000e+001
         vertex 3.050138e+000 9.739350e+000 1.000000e+001
      endloop
   endfacet
   facet normal 9.579706e-001 2.868663e-001 0.000000e+000
      outer loop
         vertex 3.015757e+000 9.867664e+000 6.265599e+000
         vertex 3.050138e+000 9.739350e+000 1.000000e+001
         vertex 3.050138e+000 9.739350e+000 6.265599e+000
      endloop
   endfacet
   facet normal 9.182422e-001 3.960194e-001 0.000000e+000
      outer loop
         vertex 3.050138e+000 9.739350e+000 6.265599e+000
         vertex 3.050138e+000 9.739350e+000 1.000000e+001
         vertex 3.106279e+000 9.618956e+000 1.000000e+001
      endloop
   endfacet
   facet normal 8.936031e-001 4.488580e-001 0.000000e+000
      outer loop
         vertex 3.050138e+000 9.739350e+000 6.265599e+000
         vertex 3.106279e+000 9.618956e+000 1.000000e+001
         vertex 3.106279e+000 9.618956e+000 6.265599e+000
      endloop
   endfacet
   facet normal 8.355240e-001 5.494540e-001 0.000000e+000
      outer loop
         vertex 3.106279e+000 9.618956e+000 6.265599e+000
         vertex 3.106279e+000 9.618956e+000 1.000000e+001
         vertex 3.182474e+000 9.510139e+000 1.000000e+001
      endloop
   endfacet
   facet normal 8.020838e-001 5.972114e-001 0.000000e+000
      outer loop
         vertex 3.106279e+000 9.618956e+000 6.265599e+000
         vertex 3.182474e+000 9.510139e+000 1.000000e+001
         vertex 3.182474e+000 9.510139e+000 6.265599e+000
      endloop
   endfacet
   facet normal 7.274188e-001 6.861938e-001 0.000000e+000
      outer loop
         vertex 3.182474e+000 9.510139e+000 6.265599e+000
         vertex 3.182474e+000 9.510139e+000 1.000000e+001
         vertex 3.276407e+000 9.416205e+000 1.000000e+001
      endloop
   endfacet
   facet normal 6.861938e-001 7.274188e-001 0.000000e+000
      outer loop
         vertex 3.182474e+000 9.510139e+000 6.265599e+000
         vertex 3.276407e+000 9.416205e+000 1.000000e+001
         vertex 3.276407e+000 9.416205e+000 6.265599e+000
      endloop
   endfacet
   facet normal 5.972114e-001 8.020838e-001 0.000000e+000
      outer loop
         vertex 3.276407e+000 9.416205e+000 6.265599e+000
         vertex 3.276407e+000 9.416205e+000 1.000000e+001
         vertex 3.385223e+000 9.340012e+000 1.000000e+001
      endloop
   endfacet
   facet normal 5.494540e-001 8.355240e-001 0.000000e+000
      outer loop
         vertex 3.276407e+000 9.416205e+000 6.265599e+000
         vertex 3.385223e+000 9.340012e+000 1.000000e+001
         vertex 3.385223e+000 9.340012e+000 6.265599e+000
      endloop
   endfacet
   facet normal 4.488580e-001 8.936031e-001 0.000000e+000
      outer loop
         vertex 3.385223e+000 9.340012e+000 6.265599e+000
         vertex 3.385223e+000 9.340012e+000 1.000000e+001
         vertex 3.505618e+000 9.283871e+000 1.000000e+001
      endloop
   endfacet
   facet normal 3.960194e-001 9.182422e-001 0.000000e+000
      outer loop
         vertex 3.385223e+000 9.340012e+000 6.265599e+000
         vertex 3.505618e+000 9.283871e+000 1.000000e+001
         vertex 3.505618e+000 9.283871e+000 6.265599e+000
      endloop
   endfacet
   facet normal 2.868663e-001 9.579706e-001 0.000000e+000
      outer loop
         vertex 3.505618e+000 9.283871e+000 6.265599e+000
         vertex 3.505618e+000 9.283871e+000 1.000000e+001
         vertex 3.633933e+000 9.249489e+000 1.000000e+001
      endloop
   endfacet
   facet normal 2.305519e-001 9.730600e-001 0.000000e+000
      outer loop
         vertex 3.505618e+000 9.283871e+000 6.265599e+000
         vertex 3.633933e+000 9.249489e+000 1.000000e+001
         vertex 3.633933e+000 9.249489e+000 6.265599e+000
      endloop
   endfacet
   facet normal 1.161583e-001 9.932307e-001 0.000000e+000
      outer loop
         vertex 3.633933e+000 9.249489e+000 6.265599e+000
         vertex 3.633933e+000 9.249489e+000 1.000000e+001
         vertex 3.766268e+000 9.237910e+000 1.000000e+001
      endloop
   endfacet
   facet normal 5.807913e-002 9.983119e-001 0.000000e+000
      outer loop
         vertex 3.633933e+000 9.249489e+000 6.265599e+000
         vertex 3.766268e+000 9.237910e+000 1.000000e+001
         vertex 3.766268e+000 9.237910e+000 6.265599e+000
      endloop
   endfacet
   facet normal -5.807913e-002 9.983119e-001 0.000000e+000
      outer loop
         vertex 6.233732e+000 9.237910e+000 6.265599e+000
         vertex 6.233732e+000 9.237910e+000 1.000000e+001
         vertex 6.366067e+000 9.249489e+000 1.000000e+001
      endloop
   endfacet
   facet normal -1.161583e-001 9.932307e-001 0.000000e+000
      outer loop
         vertex 6.233732e+000 9.237910e+000 6.265599e+000
         vertex 6.366067e+000 9.249489e+000 1.000000e+001
         vertex 6.366067e+000 9.249489e+000 6.265599e+000
      endloop
   endfacet
   facet normal -2.305519e-001 9.730600e-001 0.000000e+000
      outer loop
         vertex 6.366067e+000 9.249489e+000 6.265599e+000
         vertex 6.366067e+000 9.249489e+000 1.000000e+001
         vertex 6.494382e+000 9.283871e+000 1.000000e+001
      endloop
   endfacet
   facet normal -2.868663e-001 9.579706e-001 0.000000e+000
      outer loop
         vertex 6.366067e+000 9.249489e+000 6.265599e+000
         vertex 6.494382e+000 9.283871e+000 1.000000e+001
         vertex 6.494382e+000 9.283871e+000 6.265599e+000
      endloop
   endfacet
   facet normal -3.960194e-001 9.182422e-001 0.000000e+000
      outer loop
         vertex 6.494382e+000 9.283871e+000 6.265599e+000
         vertex 6.494382e+000 9.283871e+000 1.000000e+001
         vertex 6.614777e+000 9.340012e+000 1.000000e+001
      endloop
   endfacet
   facet normal -4.488580e-001 8.936031e-001 0.000000e+000
      outer loop
         vertex 6.494382e+000 9.283871e+000 6.265599e+000
         vertex 6.614777e+000 9.340012e+000 1.000000e+001
         vertex 6.614777e+000 9.340012e+000 6.265599e+000
      endloop
   endfacet
   facet normal -5.494540e-001 8.355240e-001 0.000000e+000
      outer loop
         vertex 6.614777e+000 9.340012e+000 6.265599e+000
         vertex 6.614777e+000 9.340012e+000 1.000000e+001
         vertex 6.723593e+000 9.416205e+000 1.000000e+001
      endloop
   endfacet
   facet normal -5.972114e-001 8.020838e-001 0.000000e+000
      outer loop
         vertex 6.614777e+000 9.340012e+000 6.265599e+000
         vertex 6.723593e+000 9.416205e+000 1.000000e+001
         vertex 6.723593e+000 9.416205e+000 6.265599e+000
      endloop
   endfacet
   facet normal -6.861938e-001 7.274188e-001 0.000000e+000
      outer loop
         vertex 6.723593e+000 9.416205e+000 6.265599e+000
         vertex 6.723593e+000 9.416205e+000 1.000000e+001
         vertex 6.817526e+000 9.510139e+000 1.000000e+001
      endloop
   endfacet
   facet normal -7.274188e-001 6.861938e-001 0.000000e+000
      outer loop
         vertex 6.723593e+000 9.416205e+000 6.265599e+000
         vertex 6.817526e+000 9.510139e+000 1.000000e+001
         vertex 6.817526e+000 9.510139e+000 6.265599e+000
      endloop
   endfacet
   facet normal -8.020838e-001 5.972114e-001 0.000000e+000
      outer loop
         vertex 6.817526e+000 9.510139e+000 6.265599e+000
         vertex 6.817526e+000 9.510139e+000 1.000000e+001
         vertex 6.893721e+000 9.618956e+000 1.000000e+001
      endloop
   endfacet
   facet normal -8.355240e-001 5.494540e-001 0.000000e+000
      outer loop
         vertex 6.817526e+000 9.510139e+000 6.265599e+000
         vertex 6.893721e+000 9.618956e+000 1.000000e+001
         vertex 6.893721e+000 9.618956e+000 6.265599e+000
      endloop
   endfacet
   facet normal -8.936031e-001 4.488580e-001 0.000000e+000
      outer loop
         vertex 6.893721e+000 9.618956e+000 6.265599e+000
         vertex 6.893721e+000 9.618956e+000 1.000000e+001
         vertex 6.949862e+000 9.739350e+000 1.000000e+001
      endloop
   endfacet
   facet normal -9.182422e-001 3.960194e-001 0.000000e+000
      outer loop
         vertex 6.893721e+000 9.618956e+000 6.265599e+000
         vertex 6.949862e+000 9.739350e+000 1.000000e+001
         vertex 6.949862e+000 9.739350e+000 6.265599e+000
      endloop
   endfacet
   facet normal -9.579706e-001 2.868663e-001 0.000000e+000
      outer loop
         vertex 6.949862e+000 9.739350e+000 6.265599e+000
         vertex 6.949862e+000 9.739350e+000 1.000000e+001
         vertex 6.984244e+000 9.867664e+000 1.000000e+001
      endloop
   endfacet
   facet normal -9.730600e-001 2.305519e-001 0.000000e+000
      outer loop
         vertex 6.949862e+000 9.739350e+000 6.265599e+000
         vertex 6.984244e+000 9.867664e+000 1.000000e+001
         vertex 6.984244e+000 9.867664e+000 6.265599e+000
      endloop
   endfacet
   facet normal -9.932307e-001 1.161583e-001 0.000000e+000
      outer loop
         vertex 6.984244e+000 9.867664e+000 6.265599e+000
         vertex 6.984244e+000 9.867664e+000 1.000000e+001
         vertex 6.995821e+000 1.000000e+001 1.000000e+001
      endloop
   endfacet
   facet normal -9.983119e-001 5.807913e-002 0.000000e+000
      outer loop
         vertex 6.984244e+000 9.867664e+000 6.265599e+000
         vertex 6.995821e+000 1.000000e+001 1.000000e+001
         vertex 6.995821e+000 1.000000e+001 6.265599e+000
      endloop
   endfacet
   facet normal 0.000000e+000 0.000000e+000 1.000000e+000
      outer loop
         vertex 3.766268e+000 9.237910e+000 6.265599e+000
         vertex 6.233732e+000 9.237910e+000 6.265599e+000
         vertex 6.995821e+000 1.000000e+001 6.265599e+000
      endloop
   endfacet
   facet normal 0.000000e+000 0.000000e+000 1.000000e+000
      outer loop
         vertex 6.995821e+000 1.000000e+001 6.265599e+000
         vertex 3.004179e+000 1.000000e+001 6.265599e+000
         vertex 3.766268e+000 9.237910e+000 6.265599e+000
      endloop
   endfacet
   facet normal 0.000000e+000 0.000000e+000 1.000000e+000
      outer loop
         vertex 3.766268e+000 9.237910e+000 6.265599e+000
         vertex 3.004179e+000 1.000000e+001 6.265599e+000
         vertex 3.015757e+000 9.867664e+000 6.265599e+000
      endloop
   endfacet
   facet normal 0.000000e+000 0.000000e+000 1.000000e+000
      outer loop
         vertex 3.766268e+000 9.237910e+000 6.265599e+000
         vertex 3.015757e+000 9.867664e+000 6.265599e+000
         vertex 3.050138e+000 9.739350e+000 6.265599e+000
      endloop
   endfacet
   facet normal 0.000000e+000 0.000000e+000 1.000000e+000
      outer loop
         vertex 3.276407e+000 9.416205e+000 6.265599e+000
         vertex 3.385223e+000 9.340012e+000 6.265599e+000
         vertex 3.766268e+000 9.237910e+000 6.265599e+000
      endloop
   endfacet
   facet normal 0.000000e+000 0.000000e+000 1.000000e+000
      outer loop
         vertex 3.766268e+000 9.237910e+000 6.265599e+000
         vertex 3.385223e+000 9.340012e+000 6.265599e+000
         vertex 3.505618e+000 9.283871e+000 6.265599e+000
      endloop
   endfacet
   facet normal 0.000000e+000 0.000000e+000 1.000000e+000
      outer loop
         vertex 3.766268e+000 9.237910e+000 6.265599e+000
         vertex 3.505618e+000 9.283871e+000 6.265599e+000
         vertex 3.633933e+000 9.249489e+000 6.265599e+000
      endloop
   endfacet
   facet normal 0.000000e+000 0.000000e+000 1.000000e+000
      outer loop
         vertex 3.050138e+000 9.739350e+000 6.265599e+000
         vertex 3.106279e+000 9.618956e+000 6.265599e+000
         vertex 3.766268e+000 9.237910e+000 6.265599e+000
      endloop
   endfacet
   facet normal 0.000000e+000 0.000000e+000 1.000000e+000
      outer loop
         vertex 3.766268e+000 9.237910e+000 6.265599e+000
         vertex 3.106279e+000 9.618956e+000 6.265599e+000
         vertex 3.182474e+000 9.510139e+000 6.265599e+000
      endloop
   endfacet
   facet normal 0.000000e+000 0.000000e+000 1.000000e+000
      outer loop
         vertex 3.766268e+000 9.237910e+000 6.265599e+000
         vertex 3.182474e+000 9.510139e+000 6.265599e+000
         vertex 3.276407e+000 9.416205e+000 6.265599e+000
      endloop
   endfacet
   facet normal 0.000000e+000 0.000000e+000 1.000000e+000
      outer loop
         vertex 6.233732e+000 9.237910e+000 6.265599e+000
         vertex 6.366067e+000 9.249489e+000 6.265599e+000
         vertex 6.995821e+000 1.000000e+001 6.265599e+000
      endloop
   endfacet
   facet normal 0.000000e+000 0.000000e+000 1.000000e+000
      outer loop
         vertex 6.995821e+000 1.000000e+001 6.265599e+000
         vertex 6.366067e+000 9.249489e+000 6.265599e+000
         vertex 6.494382e+000 9.283871e+000 6.265599e+000
      endloop
   endfacet
   facet normal 0.000000e+000 0.000000e+000 1.000000e+000
      outer loop
         vertex 6.995821e+000 1.000000e+001 6.265599e+000
         vertex 6.494382e+000 9.283871e+000 6.265599e+000
         vertex 6.614777e+000 9.340012e+000 6.265599e+000
      endloop
   endfacet
   facet normal 0.000000e+000 0.000000e+000 1.000000e+000
      outer loop
         vertex 6.614777e+000 9.340012e+000 6.265599e+000
         vertex 6.723593e+000 9.416205e+000 6.265599e+000
         vertex 6.995821e+000 1.000000e+001 6.265599e+000
      endloop
   endfacet
   facet normal 0.000000e+000 0.000000e+000 1.000000e+000
      outer loop
         vertex 6.995821e+000 1.000000e+001 6.265599e+000
         vertex 6.723593e+000 9.416205e+000 6.265599e+000
         vertex 6.817526e+000 9.510139e+000 6.265599e+000
      endloop
   endfacet
   facet normal 0.000000e+000 0.000000e+000 1.000000e+000
      outer loop
         vertex 6.995821e+000 1.000000e+001 6.265599e+000
         vertex 6.817526e+000 9.510139e+000 6.265599e+000
         vertex 6.984244e+000 9.867664e+000 6.265599e+000
      endloop
   endfacet
   facet normal 0.000000e+000 0.000000e+000 1.000000e+000
      outer loop
         vertex 6.984244e+000 9.867664e+000 6.265599e+000
         vertex 6.817526e+000 9.510139e+000 6.265599e+000
         vertex 6.893721e+000 9.618956e+000 6.265599e+000
      endloop
   endfacet
   facet normal 0.000000e+000 0.000000e+000 1.000000e+000
      outer loop
         vertex 6.984244e+000 9.867664e+000 6.265599e+000
         vertex 6.893721e+000 9.618956e+000 6.265599e+000
         vertex 6.949862e+000 9.739350e+000 6.265599e+000
      endloop
   endfacet
   facet normal 0.000000e+000 1.000000e+000 0.000000e+000
      outer loop
         vertex 6.233732e+000 9.237910e+000 6.265599e+000
         vertex 3.766268e+000 9.237910e+000 6.265599e+000
         vertex 6.233732e+000 9.237910e+000 1.000000e+001
      endloop
   endfacet
   facet normal 0.000000e+000 1.000000e+000 0.000000e+000
      outer loop
         vertex 6.233732e+000 9.237910e+000 1.000000e+001
         vertex 3.766268e+000 9.237910e+000 6.265599e+000
         vertex 3.766268e+000 9.237910e+000 1.000000e+001
      endloop
   endfacet
endsolid