solid 21_601
   facet normal -1.000000e+000 0.000000e+000 0.000000e+000
      outer loop
         vertex 0.000000e+000 1.000000e+001 1.000000e+001
         vertex 0.000000e+000 1.000000e+001 0.000000e+000
         vertex 0.000000e+000 0.000000e+000 1.000000e+001
      endloop
   endfacet
   facet normal -1.000000e+000 0.000000e+000 0.000000e+000
      outer loop
         vertex 0.000000e+000 0.000000e+000 1.000000e+001
         vertex 0.000000e+000 1.000000e+001 0.000000e+000
         vertex 0.000000e+000 0.000000e+000 0.000000e+000
      endloop
   endfacet
   facet normal 0.000000e+000 0.000000e+000 1.000000e+000
      outer loop
         vertex 2.697045e+000 9.892673e+000 1.000000e+001
         vertex 2.687655e+000 1.000000e+001 1.000000e+001
         vertex 0.000000e+000 1.000000e+001 1.000000e+001
      endloop
   endfacet
   facet normal 0.000000e+000 0.000000e+000 1.000000e+000
      outer loop
         vertex 1.000000e+001 1.000000e+001 1.000000e+001
         vertex 7.312346e+000 1.000000e+001 1.000000e+001
         vertex 7.302955e+000 9.892673e+000 1.000000e+001
      endloop
   endfacet
   facet normal 0.000000e+000 0.000000e+000 1.000000e+000
      outer loop
         vertex 7.167743e+000 9.602709e+000 1.000000e+001
         vertex 1.000000e+001 0.000000e+000 1.000000e+001
         vertex 7.229539e+000 9.690962e+000 1.000000e+001
      endloop
   endfacet
   facet normal 0.000000e+000 0.000000e+000 1.000000e+000
      outer loop
         vertex 7.229539e+000 9.690962e+000 1.000000e+001
         vertex 1.000000e+001 0.000000e+000 1.000000e+001
         vertex 1.000000e+001 1.000000e+001 1.000000e+001
      endloop
   endfacet
   facet normal 0.000000e+000 0.000000e+000 1.000000e+000
      outer loop
         vertex 7.229539e+000 9.690962e+000 1.000000e+001
         vertex 1.000000e+001 1.000000e+001 1.000000e+001
         vertex 7.275071e+000 9.788606e+000 1.000000e+001
      endloop
   endfacet
   facet normal 0.000000e+000 0.000000e+000 1.000000e+000
      outer loop
         vertex 7.275071e+000 9.788606e+000 1.000000e+001
         vertex 1.000000e+001 1.000000e+001 1.000000e+001
         vertex 7.302955e+000 9.892673e+000 1.000000e+001
      endloop
   endfacet
   facet normal 0.000000e+000 0.000000e+000 1.000000e+000
      outer loop
         vertex 2.697045e+000 9.892673e+000 1.000000e+001
         vertex 0.000000e+000 1.000000e+001 1.000000e+001
         vertex 2.724929e+000 9.788606e+000 1.000000e+001
      endloop
   endfacet
   facet normal 0.000000e+000 0.000000e+000 1.000000e+000
      outer loop
         vertex 7.167743e+000 9.602709e+000 1.000000e+001
         vertex 7.091561e+000 9.526526e+000 1.000000e+001
         vertex 1.000000e+001 0.000000e+000 1.000000e+001
      endloop
   endfacet
   facet normal 0.000000e+000 0.000000e+000 1.000000e+000
      outer loop
         vertex 1.000000e+001 0.000000e+000 1.000000e+001
         vertex 7.091561e+000 9.526526e+000 1.000000e+001
         vertex 7.003308e+000 9.464730e+000 1.000000e+001
      endloop
   endfacet
   facet normal 0.000000e+000 0.000000e+000 1.000000e+000
      outer loop
         vertex 1.000000e+001 0.000000e+000 1.000000e+001
         vertex 7.003308e+000 9.464730e+000 1.000000e+001
         vertex 6.905664e+000 9.419199e+000 1.000000e+001
      endloop
   endfacet
   facet normal 0.000000e+000 0.000000e+000 1.000000e+000
      outer loop
         vertex 2.996692e+000 9.464730e+000 1.000000e+001
         vertex 0.000000e+000 0.000000e+000 1.000000e+001
         vertex 3.094336e+000 9.419199e+000 1.000000e+001
      endloop
   endfacet
   facet normal 0.000000e+000 0.000000e+000 1.000000e+000
      outer loop
         vertex 3.094336e+000 9.419199e+000 1.000000e+001
         vertex 0.000000e+000 0.000000e+000 1.000000e+001
         vertex 3.198402e+000 9.391315e+000 1.000000e+001
      endloop
   endfacet
   facet normal 0.000000e+000 0.000000e+000 1.000000e+000
      outer loop
         vertex 6.905664e+000 9.419199e+000 1.000000e+001
         vertex 6.801597e+000 9.391315e+000 1.000000e+001
         vertex 1.000000e+001 0.000000e+000 1.000000e+001
      endloop
   endfacet
   facet normal 0.000000e+000 0.000000e+000 1.000000e+000
      outer loop
         vertex 1.000000e+001 0.000000e+000 1.000000e+001
         vertex 6.801597e+000 9.391315e+000 1.000000e+001
         vertex 6.694270e+000 9.381925e+000 1.000000e+001
      endloop
   endfacet
   facet normal 0.000000e+000 0.000000e+000 1.000000e+000
      outer loop
         vertex 1.000000e+001 0.000000e+000 1.000000e+001
         vertex 6.694270e+000 9.381925e+000 1.000000e+001
         vertex 0.000000e+000 0.000000e+000 1.000000e+001
      endloop
   endfacet
   facet normal 0.000000e+000 0.000000e+000 1.000000e+000
      outer loop
         vertex 0.000000e+000 0.000000e+000 1.000000e+001
         vertex 6.694270e+000 9.381925e+000 1.000000e+001
         vertex 3.305730e+000 9.381925e+000 1.000000e+001
      endloop
   endfacet
   facet normal 0.000000e+000 0.000000e+000 1.000000e+000
      outer loop
         vertex 0.000000e+000 0.000000e+000 1.000000e+001
         vertex 3.305730e+000 9.381925e+000 1.000000e+001
         vertex 3.198402e+000 9.391315e+000 1.000000e+001
      endloop
   endfacet
   facet normal 0.000000e+000 0.000000e+000 1.000000e+000
      outer loop
         vertex 2.996692e+000 9.464730e+000 1.000000e+001
         vertex 2.908439e+000 9.526526e+000 1.000000e+001
         vertex 0.000000e+000 0.000000e+000 1.000000e+001
      endloop
   endfacet
   facet normal 0.000000e+000 0.000000e+000 1.000000e+000
      outer loop
         vertex 0.000000e+000 0.000000e+000 1.000000e+001
         vertex 2.908439e+000 9.526526e+000 1.000000e+001
         vertex 2.832257e+000 9.602709e+000 1.000000e+001
      endloop
   endfacet
   facet normal 0.000000e+000 0.000000e+000 1.000000e+000
      outer loop
         vertex 0.000000e+000 0.000000e+000 1.000000e+001
         vertex 2.832257e+000 9.602709e+000 1.000000e+001
         vertex 0.000000e+000 1.000000e+001 1.000000e+001
      endloop
   endfacet
   facet normal 0.000000e+000 0.000000e+000 1.000000e+000
      outer loop
         vertex 0.000000e+000 1.000000e+001 1.000000e+001
         vertex 2.832257e+000 9.602709e+000 1.000000e+001
         vertex 2.770461e+000 9.690962e+000 1.000000e+001
      endloop
   endfacet
   facet normal 0.000000e+000 0.000000e+000 1.000000e+000
      outer loop
         vertex 0.000000e+000 1.000000e+001 1.000000e+001
         vertex 2.770461e+000 9.690962e+000 1.000000e+001
         vertex 2.724929e+000 9.788606e+000 1.000000e+001
      endloop
   endfacet
   facet normal 1.000000e+000 0.000000e+000 0.000000e+000
      outer loop
         vertex 1.000000e+001 1.000000e+001 0.000000e+000
         vertex 1.000000e+001 1.000000e+001 1.000000e+001
         vertex 1.000000e+001 0.000000e+000 0.000000e+000
      endloop
   endfacet
   facet normal 1.000000e+000 0.000000e+000 0.000000e+000
      outer loop
         vertex 1.000000e+001 0.000000e+000 0.000000e+000
         vertex 1.000000e+001 1.000000e+001 1.000000e+001
         vertex 1.000000e+001 0.000000e+000 1.000000e+001
      endloop
   endfacet
   facet normal 0.000000e+000 0.000000e+000 -1.000000e+000
      outer loop
         vertex 0.000000e+000 1.000000e+001 0.000000e+000
         vertex 1.000000e+001 1.000000e+001 0.000000e+000
         vertex 0.000000e+000 0.000000e+000 0.000000e+000
      endloop
   endfacet
   facet normal 0.000000e+000 0.000000e+000 -1.000000e+000
      outer loop
         vertex 0.000000e+000 0.000000e+000 0.000000e+000
         vertex 1.000000e+001 1.000000e+001 0.000000e+000
         vertex 1.000000e+001 0.000000e+000 0.000000e+000
      endloop
   endfacet
   facet normal 0.000000e+000 1.000000e+000 0.000000e+000
      outer loop
         vertex 7.312346e+000 1.000000e+001 1.000000e+001
         vertex 1.000000e+001 1.000000e+001 1.000000e+001
         vertex 7.312346e+000 1.000000e+001 5.368691e+000
      endloop
   endfacet
   facet normal 0.000000e+000 1.000000e+000 0.000000e+000
      outer loop
         vertex 7.312346e+000 1.000000e+001 5.368691e+000
         vertex 1.000000e+001 1.000000e+001 1.000000e+001
         vertex 1.000000e+001 1.000000e+001 0.000000e+000
      endloop
   endfacet
   facet normal 0.000000e+000 1.000000e+000 0.000000e+000
      outer loop
         vertex 7.312346e+000 1.000000e+001 5.368691e+000
         vertex 1.000000e+001 1.000000e+001 0.000000e+000
         vertex 2.687655e+000 1.000000e+001 5.368691e+000
      endloop
   endfacet
   facet normal 0.000000e+000 1.000000e+000 0.000000e+000
      outer loop
         vertex 2.687655e+000 1.000000e+001 5.368691e+000
         vertex 1.000000e+001 1.000000e+001 0.000000e+000
         vertex 0.000000e+000 1.000000e+001 0.000000e+000
      endloop
   endfacet
   facet normal 0.000000e+000 1.000000e+000 0.000000e+000
      outer loop
         vertex 2.687655e+000 1.000000e+001 5.368691e+000
         vertex 0.000000e+000 1.000000e+001 0.000000e+000
         vertex 2.687655e+000 1.000000e+001 1.000000e+001
      endloop
   endfacet
   facet normal 0.000000e+000 1.000000e+000 0.000000e+000
      outer loop
         vertex 2.687655e+000 1.000000e+001 1.000000e+001
         vertex 0.000000e+000 1.000000e+001 0.000000e+000
         vertex 0.000000e+000 1.000000e+001 1.000000e+001
      endloop
   endfacet
   facet normal 0.000000e+000 -1.000000e+000 0.000000e+000
      outer loop
         vertex 1.000000e+001 0.000000e+000 0.000000e+000
         vertex 1.000000e+001 0.000000e+000 1.000000e+001
         vertex 0.000000e+000 0.000000e+000 0.000000e+000
      endloop
   endfacet
   facet normal 0.000000e+000 -1.000000e+000 0.000000e+000
      outer loop
         vertex 0.000000e+000 0.000000e+000 0.000000e+000
         vertex 1.000000e+001 0.000000e+000 1.000000e+001
         vertex 0.000000e+000 0.000000e+000 1.000000e+001
      endloop
   endfacet
   facet normal 9.983119e-001 5.807913e-002 0.000000e+000
      outer loop
         vertex 2.687655e+000 1.000000e+001 5.368691e+000
         vertex 2.687655e+000 1.000000e+001 1.000000e+001
         vertex 2.697045e+000 9.892673e+000 1.000000e+001
      endloop
   endfacet
   facet normal 9.932307e-001 1.161583e-001 0.000000e+000
      outer loop
         vertex 2.687655e+000 1.000000e+001 5.368691e+000
         vertex 2.697045e+000 9.892673e+000 1.000000e+001
         vertex 2.697045e+000 9.892673e+000 5.368691e+000
      endloop
   endfacet
   facet normal 9.730600e-001 2.305519e-001 0.000000e+000
      outer loop
         vertex 2.697045e+000 9.892673e+000 5.368691e+000
         vertex 2.697045e+000 9.892673e+000 1.000000e+001
         vertex 2.724929e+000 9.788606e+000 1.000000e+001
      endloop
   endfacet
   facet normal 9.579706e-001 2.868663e-001 0.000000e+000
      outer loop
         vertex 2.697045e+000 9.892673e+000 5.368691e+000
         vertex 2.724929e+000 9.788606e+000 1.000000e+001
         vertex 2.724929e+000 9.788606e+000 5.368691e+000
      endloop
   endfacet
   facet normal 9.182422e-001 3.960194e-001 0.000000e+000
      outer loop
         vertex 2.724929e+000 9.788606e+000 5.368691e+000
         vertex 2.724929e+000 9.788606e+000 1.000000e+001
         vertex 2.770461e+000 9.690962e+000 1.000000e+001
      endloop
   endfacet
   facet normal 8.936031e-001 4.488580e-001 0.000000e+000
      outer loop
         vertex 2.724929e+000 9.788606e+000 5.368691e+000
         vertex 2.770461e+000 9.690962e+000 1.000000e+001
         vertex 2.770461e+000 9.690962e+000 5.368691e+000
      endloop
   endfacet
   facet normal 8.355240e-001 5.494540e-001 0.000000e+000
      outer loop
         vertex 2.770461e+000 9.690962e+000 5.368691e+000
         vertex 2.770461e+000 9.690962e+000 1.000000e+001
         vertex 2.832257e+000 9.602709e+000 1.000000e+001
      endloop
   endfacet
   facet normal 8.020838e-001 5.972114e-001 0.000000e+000
      outer loop
         vertex 2.770461e+000 9.690962e+000 5.368691e+000
         vertex 2.832257e+000 9.602709e+000 1.000000e+001
         vertex 2.832257e+000 9.602709e+000 5.368691e+000
      endloop
   endfacet
   facet normal 7.274188e-001 6.861938e-001 0.000000e+000
      outer loop
         vertex 2.832257e+000 9.602709e+000 5.368691e+000
         vertex 2.832257e+000 9.602709e+000 1.000000e+001
         vertex 2.908439e+000 9.526526e+000 1.000000e+001
      endloop
   endfacet
   facet normal 6.861938e-001 7.274188e-001 0.000000e+000
      outer loop
         vertex 2.832257e+000 9.602709e+000 5.368691e+000
         vertex 2.908439e+000 9.526526e+000 1.000000e+001
         vertex 2.908439e+000 9.526526e+000 5.368691e+000
      endloop
   endfacet
   facet normal 5.972114e-001 8.020838e-001 0.000000e+000
      outer loop
         vertex 2.908439e+000 9.526526e+000 5.368691e+000
         vertex 2.908439e+000 9.526526e+000 1.000000e+001
         vertex 2.996692e+000 9.464730e+000 1.000000e+001
      endloop
   endfacet
   facet normal 5.494540e-001 8.355240e-001 0.000000e+000
      outer loop
         vertex 2.908439e+000 9.526526e+000 5.368691e+000
         vertex 2.996692e+000 9.464730e+000 1.000000e+001
         vertex 2.996692e+000 9.464730e+000 5.368691e+000
      endloop
   endfacet
   facet normal 4.488580e-001 8.936031e-001 0.000000e+000
      outer loop
         vertex 2.996692e+000 9.464730e+000 5.368691e+000
         vertex 2.996692e+000 9.464730e+000 1.000000e+001
         vertex 3.094336e+000 9.419199e+000 1.000000e+001
      endloop
   endfacet
   facet normal 3.960194e-001 9.182422e-001 0.000000e+000
      outer loop
         vertex 2.996692e+000 9.464730e+000 5.368691e+000
         vertex 3.094336e+000 9.419199e+000 1.000000e+001
         vertex 3.094336e+000 9.419199e+000 5.368691e+000
      endloop
   endfacet
   facet normal 2.868663e-001 9.579706e-001 0.000000e+000
      outer loop
         vertex 3.094336e+000 9.419199e+000 5.368691e+000
         vertex 3.094336e+000 9.419199e+000 1.000000e+001
         vertex 3.198402e+000 9.391315e+000 1.000000e+001
      endloop
   endfacet
   facet normal 2.305519e-001 9.730600e-001 0.000000e+000
      outer loop
         vertex 3.094336e+000 9.419199e+000 5.368691e+000
         vertex 3.198402e+000 9.391315e+000 1.000000e+001
         vertex 3.198402e+000 9.391315e+000 5.368691e+000
      endloop
   endfacet
   facet normal 1.161583e-001 9.932307e-001 0.000000e+000
      outer loop
         vertex 3.198402e+000 9.391315e+000 5.368691e+000
         vertex 3.198402e+000 9.391315e+000 1.000000e+001
         vertex 3.305730e+000 9.381925e+000 1.000000e+001
      endloop
   endfacet
   facet normal 5.807913e-002 9.983119e-001 0.000000e+000
      outer loop
         vertex 3.198402e+000 9.391315e+000 5.368691e+000
         vertex 3.305730e+000 9.381925e+000 1.000000e+001
         vertex 3.305730e+000 9.381925e+000 5.368691e+000
      endloop
   endfacet
   facet normal -5.807913e-002 9.983119e-001 0.000000e+000
      outer loop
         vertex 6.694270e+000 9.381925e+000 5.368691e+000
         vertex 6.694270e+000 9.381925e+000 1.000000e+001
         vertex 6.801597e+000 9.391315e+000 1.000000e+001
      endloop
   endfacet
   facet normal -1.161583e-001 9.932307e-001 0.000000e+000
      outer loop
         vertex 6.694270e+000 9.381925e+000 5.368691e+000
         vertex 6.801597e+000 9.391315e+000 1.000000e+001
         vertex 6.801597e+000 9.391315e+000 5.368691e+000
      endloop
   endfacet
   facet normal -2.305519e-001 9.730600e-001 0.000000e+000
      outer loop
         vertex 6.801597e+000 9.391315e+000 5.368691e+000
         vertex 6.801597e+000 9.391315e+000 1.000000e+001
         vertex 6.905664e+000 9.419199e+000 1.000000e+001
      endloop
   endfacet
   facet normal -2.868663e-001 9.579706e-001 0.000000e+000
      outer loop
         vertex 6.801597e+000 9.391315e+000 5.368691e+000
         vertex 6.905664e+000 9.419199e+000 1.000000e+001
         vertex 6.905664e+000 9.419199e+000 5.368691e+000
      endloop
   endfacet
   facet normal -3.960194e-001 9.182422e-001 0.000000e+000
      outer loop
         vertex 6.905664e+000 9.419199e+000 5.368691e+000
         vertex 6.905664e+000 9.419199e+000 1.000000e+001
         vertex 7.003308e+000 9.464730e+000 1.000000e+001
      endloop
   endfacet
   facet normal -4.488580e-001 8.936031e-001 0.000000e+000
      outer loop
         vertex 6.905664e+000 9.419199e+000 5.368691e+000
         vertex 7.003308e+000 9.464730e+000 1.000000e+001
         vertex 7.003308e+000 9.464730e+000 5.368691e+000
      endloop
   endfacet
   facet normal -5.494540e-001 8.355240e-001 0.000000e+000
      outer loop
         vertex 7.003308e+000 9.464730e+000 5.368691e+000
         vertex 7.003308e+000 9.464730e+000 1.000000e+001
         vertex 7.091561e+000 9.526526e+000 1.000000e+001
      endloop
   endfacet
   facet normal -5.972114e-001 8.020838e-001 0.000000e+000
      outer loop
         vertex 7.003308e+000 9.464730e+000 5.368691e+000
         vertex 7.091561e+000 9.526526e+000 1.000000e+001
         vertex 7.091561e+000 9.526526e+000 5.368691e+000
      endloop
   endfacet
   facet normal -6.861938e-001 7.274188e-001 0.000000e+000
      outer loop
         vertex 7.091561e+000 9.526526e+000 5.368691e+000
         vertex 7.091561e+000 9.526526e+000 1.000000e+001
         vertex 7.167743e+000 9.602709e+000 1.000000e+001
      endloop
   endfacet
   facet normal -7.274188e-001 6.861938e-001 0.000000e+000
      outer loop
         vertex 7.091561e+000 9.526526e+000 5.368691e+000
         vertex 7.167743e+000 9.602709e+000 1.000000e+001
         vertex 7.167743e+000 9.602709e+000 5.368691e+000
      endloop
   endfacet
   facet normal -8.020838e-001 5.972114e-001 0.000000e+000
      outer loop
         vertex 7.167743e+000 9.602709e+000 5.368691e+000
         vertex 7.167743e+000 9.602709e+000 1.000000e+001
         vertex 7.229539e+000 9.690962e+000 1.000000e+001
      endloop
   endfacet
   facet normal -8.355240e-001 5.494540e-001 0.000000e+000
      outer loop
         vertex 7.167743e+000 9.602709e+000 5.368691e+000
         vertex 7.229539e+000 9.690962e+000 1.000000e+001
         vertex 7.229539e+000 9.690962e+000 5.368691e+000
      endloop
   endfacet
   facet normal -8.936031e-001 4.488580e-001 0.000000e+000
      outer loop
         vertex 7.229539e+000 9.690962e+000 5.368691e+000
         vertex 7.229539e+000 9.690962e+000 1.000000e+001
         vertex 7.275071e+000 9.788606e+000 1.000000e+001
      endloop
   endfacet
   facet normal -9.182422e-001 3.960194e-001 0.000000e+000
      outer loop
         vertex 7.229539e+000 9.690962e+000 5.368691e+000
         vertex 7.275071e+000 9.788606e+000 1.000000e+001
         vertex 7.275071e+000 9.788606e+000 5.368691e+000
      endloop
   endfacet
   facet normal -9.579706e-001 2.868663e-001 0.000000e+000
      outer loop
         vertex 7.275071e+000 9.788606e+000 5.368691e+000
         vertex 7.275071e+000 9.788606e+000 1.000000e+001
         vertex 7.302955e+000 9.892673e+000 1.000000e+001
      endloop
   endfacet
   facet normal -9.730600e-001 2.305519e-001 0.000000e+000
      outer loop
         vertex 7.275071e+000 9.788606e+000 5.368691e+000
         vertex 7.302955e+000 9.892673e+000 1.000000e+001
         vertex 7.302955e+000 9.892673e+000 5.368691e+000
      endloop
   endfacet
   facet normal -9.932307e-001 1.161583e-001 0.000000e+000
      outer loop
         vertex 7.302955e+000 9.892673e+000 5.368691e+000
         vertex 7.302955e+000 9.892673e+000 1.000000e+001
         vertex 7.312346e+000 1.000000e+001 1.000000e+001
      endloop
   endfacet
   facet normal -9.983119e-001 5.807913e-002 0.000000e+000
      outer loop
         vertex 7.302955e+000 9.892673e+000 5.368691e+000
         vertex 7.312346e+000 1.000000e+001 1.000000e+001
         vertex 7.312346e+000 1.000000e+001 5.368691e+000
      endloop
   endfacet
   facet normal 0.000000e+000 0.000000e+000 1.000000e+000
      outer loop
         vertex 6.694270e+000 9.381925e+000 5.368691e+000
         vertex 7.312346e+000 1.000000e+001 5.368691e+000
         vertex 3.305730e+000 9.381925e+000 5.368691e+000
      endloop
   endfacet
   facet normal 0.000000e+000 0.000000e+000 1.000000e+000
      outer loop
         vertex 3.305730e+000 9.381925e+000 5.368691e+000
         vertex 7.312346e+000 1.000000e+001 5.368691e+000
         vertex 2.687655e+000 1.000000e+001 5.368691e+000
      endloop
   endfacet
   facet normal 0.000000e+000 0.000000e+000 1.000000e+000
      outer loop
         vertex 3.305730e+000 9.381925e+000 5.368691e+000
         vertex 2.687655e+000 1.000000e+001 5.368691e+000
         vertex 3.198402e+000 9.391315e+000 5.368691e+000
      endloop
   endfacet
   facet normal 0.000000e+000 0.000000e+000 1.000000e+000
      outer loop
         vertex 3.198402e+000 9.391315e+000 5.368691e+000
         vertex 2.687655e+000 1.000000e+001 5.368691e+000
         vertex 3.094336e+000 9.419199e+000 5.368691e+000
      endloop
   endfacet
   facet normal 0.000000e+000 0.000000e+000 1.000000e+000
      outer loop
         vertex 3.094336e+000 9.419199e+000 5.368691e+000
         vertex 2.687655e+000 1.000000e+001 5.368691e+000
         vertex 2.697045e+000 9.892673e+000 5.368691e+000
      endloop
   endfacet
   facet normal 0.000000e+000 0.000000e+000 1.000000e+000
      outer loop
         vertex 3.094336e+000 9.419199e+000 5.368691e+000
         vertex 2.697045e+000 9.892673e+000 5.368691e+000
         vertex 2.724929e+000 9.788606e+000 5.368691e+000
      endloop
   endfacet
   facet normal 0.000000e+000 0.000000e+000 1.000000e+000
      outer loop
         vertex 2.724929e+000 9.788606e+000 5.368691e+000
         vertex 2.770461e+000 9.690962e+000 5.368691e+000
         vertex 3.094336e+000 9.419199e+000 5.368691e+000
      endloop
   endfacet
   facet normal 0.000000e+000 0.000000e+000 1.000000e+000
      outer loop
         vertex 3.094336e+000 9.419199e+000 5.368691e+000
         vertex 2.770461e+000 9.690962e+000 5.368691e+000
         vertex 2.832257e+000 9.602709e+000 5.368691e+000
      endloop
   endfacet
   facet normal 0.000000e+000 0.000000e+000 1.000000e+000
      outer loop
         vertex 3.094336e+000 9.419199e+000 5.368691e+000
         vertex 2.832257e+000 9.602709e+000 5.368691e+000
         vertex 2.996692e+000 9.464730e+000 5.368691e+000
      endloop
   endfacet
   facet normal 0.000000e+000 0.000000e+000 1.000000e+000
      outer loop
         vertex 2.996692e+000 9.464730e+000 5.368691e+000
         vertex 2.832257e+000 9.602709e+000 5.368691e+000
         vertex 2.908439e+000 9.526526e+000 5.368691e+000
      endloop
   endfacet
   facet normal 0.000000e+000 0.000000e+000 1.000000e+000
      outer loop
         vertex 6.694270e+000 9.381925e+000 5.368691e+000
         vertex 6.801597e+000 9.391315e+000 5.368691e+000
         vertex 7.312346e+000 1.000000e+001 5.368691e+000
      endloop
   endfacet
   facet normal 0.000000e+000 0.000000e+000 1.000000e+000
      outer loop
         vertex 7.312346e+000 1.000000e+001 5.368691e+000
         vertex 6.801597e+000 9.391315e+000 5.368691e+000
         vertex 6.905664e+000 9.419199e+000 5.368691e+000
      endloop
   endfacet
   facet normal 0.000000e+000 0.000000e+000 1.000000e+000
      outer loop
         vertex 7.312346e+000 1.000000e+001 5.368691e+000
         vertex 6.905664e+000 9.419199e+000 5.368691e+000
         vertex 7.302955e+000 9.892673e+000 5.368691e+000
      endloop
   endfacet
   facet normal 0.000000e+000 0.000000e+000 1.000000e+000
      outer loop
         vertex 7.302955e+000 9.892673e+000 5.368691e+000
         vertex 6.905664e+000 9.419199e+000 5.368691e+000
         vertex 7.003308e+000 9.464730e+000 5.368691e+000
      endloop
   endfacet
   facet normal 0.000000e+000 0.000000e+000 1.000000e+000
      outer loop
         vertex 7.302955e+000 9.892673e+000 5.368691e+000
         vertex 7.003308e+000 9.464730e+000 5.368691e+000
         vertex 7.091561e+000 9.526526e+000 5.368691e+000
      endloop
   endfacet
   facet normal 0.000000e+000 0.000000e+000 1.000000e+000
      outer loop
         vertex 7.091561e+000 9.526526e+000 5.368691e+000
         vertex 7.167743e+000 9.602709e+000 5.368691e+000
         vertex 7.302955e+000 9.892673e+000 5.368691e+000
      endloop
   endfacet
   facet normal 0.000000e+000 0.000000e+000 1.000000e+000
      outer loop
         vertex 7.302955e+000 9.892673e+000 5.368691e+000
         vertex 7.167743e+000 9.602709e+000 5.368691e+000
         vertex 7.229539e+000 9.690962e+000 5.368691e+000
      endloop
   endfacet
   facet normal 0.000000e+000 0.000000e+000 1.000000e+000
      outer loop
         vertex 7.302955e+000 9.892673e+000 5.368691e+000
         vertex 7.229539e+000 9.690962e+000 5.368691e+000
         vertex 7.275071e+000 9.788606e+000 5.368691e+000
      endloop
   endfacet
   facet normal 0.000000e+000 1.000000e+000 0.000000e+000
      outer loop
         vertex 6.694270e+000 9.381925e+000 5.368691e+000
         vertex 3.305730e+000 9.381925e+000 5.368691e+000
         vertex 6.694270e+000 9.381925e+000 1.000000e+001
      endloop
   endfacet
   facet normal 0.000000e+000 1.000000e+000 0.000000e+000
      outer loop
         vertex 6.694270e+000 9.381925e+000 1.000000e+001
         vertex 3.305730e+000 9.381925e+000 5.368691e+000
         vertex 3.305730e+000 9.381925e+000 1.000000e+001
      endloop
   endfacet
endsolid