solid 21_81
   facet normal -1.000000e+000 0.000000e+000 0.000000e+000
      outer loop
         vertex 0.000000e+000 7.185602e+000 1.000000e+001
         vertex 0.000000e+000 1.000000e+001 1.000000e+001
         vertex 0.000000e+000 7.185602e+000 4.091567e+000
      endloop
   endfacet
   facet normal -1.000000e+000 0.000000e+000 0.000000e+000
      outer loop
         vertex 0.000000e+000 7.185602e+000 4.091567e+000
         vertex 0.000000e+000 1.000000e+001 1.000000e+001
         vertex 0.000000e+000 1.000000e+001 0.000000e+000
      endloop
   endfacet
   facet normal -1.000000e+000 0.000000e+000 0.000000e+000
      outer loop
         vertex 0.000000e+000 7.185602e+000 4.091567e+000
         vertex 0.000000e+000 1.000000e+001 0.000000e+000
         vertex 0.000000e+000 2.814398e+000 4.091567e+000
      endloop
   endfacet
   facet normal -1.000000e+000 0.000000e+000 0.000000e+000
      outer loop
         vertex 0.000000e+000 2.814398e+000 4.091567e+000
         vertex 0.000000e+000 1.000000e+001 0.000000e+000
         vertex 0.000000e+000 0.000000e+000 0.000000e+000
      endloop
   endfacet
   facet normal -1.000000e+000 0.000000e+000 0.000000e+000
      outer loop
         vertex 0.000000e+000 2.814398e+000 4.091567e+000
         vertex 0.000000e+000 0.000000e+000 0.000000e+000
         vertex 0.000000e+000 2.814398e+000 1.000000e+001
      endloop
   endfacet
   facet normal -1.000000e+000 0.000000e+000 0.000000e+000
      outer loop
         vertex 0.000000e+000 2.814398e+000 1.000000e+001
         vertex 0.000000e+000 0.000000e+000 0.000000e+000
         vertex 0.000000e+000 0.000000e+000 1.000000e+001
      endloop
   endfacet
   facet normal 0.000000e+000 0.000000e+000 1.000000e+000
      outer loop
         vertex 0.000000e+000 1.000000e+001 1.000000e+001
         vertex 5.334338e-017 7.185602e+000 1.000000e+001
         vertex 1.512759e-001 7.172368e+000 1.000000e+001
      endloop
   endfacet
   facet normal 0.000000e+000 0.000000e+000 1.000000e+000
      outer loop
         vertex 8.579285e-001 3.534285e+000 1.000000e+001
         vertex 8.186259e-001 3.387606e+000 1.000000e+001
         vertex 1.000000e+001 0.000000e+000 1.000000e+001
      endloop
   endfacet
   facet normal 0.000000e+000 0.000000e+000 1.000000e+000
      outer loop
         vertex 0.000000e+000 2.814398e+000 1.000000e+001
         vertex 0.000000e+000 0.000000e+000 1.000000e+001
         vertex 1.512759e-001 2.827633e+000 1.000000e+001
      endloop
   endfacet
   facet normal 0.000000e+000 0.000000e+000 1.000000e+000
      outer loop
         vertex 1.512759e-001 2.827633e+000 1.000000e+001
         vertex 0.000000e+000 0.000000e+000 1.000000e+001
         vertex 2.979555e-001 2.866935e+000 1.000000e+001
      endloop
   endfacet
   facet normal 0.000000e+000 0.000000e+000 1.000000e+000
      outer loop
         vertex 1.000000e+001 0.000000e+000 1.000000e+001
         vertex 5.599731e-001 3.018211e+000 1.000000e+001
         vertex 0.000000e+000 0.000000e+000 1.000000e+001
      endloop
   endfacet
   facet normal 0.000000e+000 0.000000e+000 1.000000e+000
      outer loop
         vertex 0.000000e+000 0.000000e+000 1.000000e+001
         vertex 5.599731e-001 3.018211e+000 1.000000e+001
         vertex 4.355817e-001 2.931112e+000 1.000000e+001
      endloop
   endfacet
   facet normal 0.000000e+000 0.000000e+000 1.000000e+000
      outer loop
         vertex 0.000000e+000 0.000000e+000 1.000000e+001
         vertex 4.355817e-001 2.931112e+000 1.000000e+001
         vertex 2.979555e-001 2.866935e+000 1.000000e+001
      endloop
   endfacet
   facet normal 0.000000e+000 0.000000e+000 1.000000e+000
      outer loop
         vertex 5.599731e-001 6.981789e+000 1.000000e+001
         vertex 1.000000e+001 1.000000e+001 1.000000e+001
         vertex 4.355817e-001 7.068888e+000 1.000000e+001
      endloop
   endfacet
   facet normal 0.000000e+000 0.000000e+000 1.000000e+000
      outer loop
         vertex 4.355817e-001 7.068888e+000 1.000000e+001
         vertex 1.000000e+001 1.000000e+001 1.000000e+001
         vertex 0.000000e+000 1.000000e+001 1.000000e+001
      endloop
   endfacet
   facet normal 0.000000e+000 0.000000e+000 1.000000e+000
      outer loop
         vertex 4.355817e-001 7.068888e+000 1.000000e+001
         vertex 0.000000e+000 1.000000e+001 1.000000e+001
         vertex 2.979555e-001 7.133065e+000 1.000000e+001
      endloop
   endfacet
   facet normal 0.000000e+000 0.000000e+000 1.000000e+000
      outer loop
         vertex 2.979555e-001 7.133065e+000 1.000000e+001
         vertex 0.000000e+000 1.000000e+001 1.000000e+001
         vertex 1.512759e-001 7.172368e+000 1.000000e+001
      endloop
   endfacet
   facet normal 0.000000e+000 0.000000e+000 1.000000e+000
      outer loop
         vertex 5.599731e-001 6.981789e+000 1.000000e+001
         vertex 6.673499e-001 6.874412e+000 1.000000e+001
         vertex 1.000000e+001 1.000000e+001 1.000000e+001
      endloop
   endfacet
   facet normal 0.000000e+000 0.000000e+000 1.000000e+000
      outer loop
         vertex 1.000000e+001 1.000000e+001 1.000000e+001
         vertex 6.673499e-001 6.874412e+000 1.000000e+001
         vertex 7.544497e-001 6.750021e+000 1.000000e+001
      endloop
   endfacet
   facet normal 0.000000e+000 0.000000e+000 1.000000e+000
      outer loop
         vertex 1.000000e+001 1.000000e+001 1.000000e+001
         vertex 7.544497e-001 6.750021e+000 1.000000e+001
         vertex 8.186259e-001 6.612394e+000 1.000000e+001
      endloop
   endfacet
   facet normal 0.000000e+000 0.000000e+000 1.000000e+000
      outer loop
         vertex 8.186259e-001 3.387606e+000 1.000000e+001
         vertex 7.544497e-001 3.249979e+000 1.000000e+001
         vertex 1.000000e+001 0.000000e+000 1.000000e+001
      endloop
   endfacet
   facet normal 0.000000e+000 0.000000e+000 1.000000e+000
      outer loop
         vertex 1.000000e+001 0.000000e+000 1.000000e+001
         vertex 7.544497e-001 3.249979e+000 1.000000e+001
         vertex 6.673499e-001 3.125588e+000 1.000000e+001
      endloop
   endfacet
   facet normal 0.000000e+000 0.000000e+000 1.000000e+000
      outer loop
         vertex 1.000000e+001 0.000000e+000 1.000000e+001
         vertex 6.673499e-001 3.125588e+000 1.000000e+001
         vertex 5.599731e-001 3.018211e+000 1.000000e+001
      endloop
   endfacet
   facet normal 0.000000e+000 0.000000e+000 1.000000e+000
      outer loop
         vertex 8.186259e-001 6.612394e+000 1.000000e+001
         vertex 8.579285e-001 6.465715e+000 1.000000e+001
         vertex 1.000000e+001 1.000000e+001 1.000000e+001
      endloop
   endfacet
   facet normal 0.000000e+000 0.000000e+000 1.000000e+000
      outer loop
         vertex 1.000000e+001 1.000000e+001 1.000000e+001
         vertex 8.579285e-001 6.465715e+000 1.000000e+001
         vertex 8.711634e-001 6.314439e+000 1.000000e+001
      endloop
   endfacet
   facet normal 0.000000e+000 0.000000e+000 1.000000e+000
      outer loop
         vertex 1.000000e+001 1.000000e+001 1.000000e+001
         vertex 8.711634e-001 6.314439e+000 1.000000e+001
         vertex 1.000000e+001 0.000000e+000 1.000000e+001
      endloop
   endfacet
   facet normal 0.000000e+000 0.000000e+000 1.000000e+000
      outer loop
         vertex 1.000000e+001 0.000000e+000 1.000000e+001
         vertex 8.711634e-001 6.314439e+000 1.000000e+001
         vertex 8.711634e-001 3.685561e+000 1.000000e+001
      endloop
   endfacet
   facet normal 0.000000e+000 0.000000e+000 1.000000e+000
      outer loop
         vertex 1.000000e+001 0.000000e+000 1.000000e+001
         vertex 8.711634e-001 3.685561e+000 1.000000e+001
         vertex 8.579285e-001 3.534285e+000 1.000000e+001
      endloop
   endfacet
   facet normal 1.000000e+000 0.000000e+000 0.000000e+000
      outer loop
         vertex 1.000000e+001 1.000000e+001 0.000000e+000
         vertex 1.000000e+001 1.000000e+001 1.000000e+001
         vertex 1.000000e+001 0.000000e+000 0.000000e+000
      endloop
   endfacet
   facet normal 1.000000e+000 0.000000e+000 0.000000e+000
      outer loop
         vertex 1.000000e+001 0.000000e+000 0.000000e+000
         vertex 1.000000e+001 1.000000e+001 1.000000e+001
         vertex 1.000000e+001 0.000000e+000 1.000000e+001
      endloop
   endfacet
   facet normal 0.000000e+000 0.000000e+000 -1.000000e+000
      outer loop
         vertex 0.000000e+000 1.000000e+001 0.000000e+000
         vertex 1.000000e+001 1.000000e+001 0.000000e+000
         vertex 0.000000e+000 0.000000e+000 0.000000e+000
      endloop
   endfacet
   facet normal 0.000000e+000 0.000000e+000 -1.000000e+000
      outer loop
         vertex 0.000000e+000 0.000000e+000 0.000000e+000
         vertex 1.000000e+001 1.000000e+001 0.000000e+000
         vertex 1.000000e+001 0.000000e+000 0.000000e+000
      endloop
   endfacet
   facet normal 0.000000e+000 1.000000e+000 0.000000e+000
      outer loop
         vertex 1.000000e+001 1.000000e+001 1.000000e+001
         vertex 1.000000e+001 1.000000e+001 0.000000e+000
         vertex 0.000000e+000 1.000000e+001 1.000000e+001
      endloop
   endfacet
   facet normal 0.000000e+000 1.000000e+000 0.000000e+000
      outer loop
         vertex 0.000000e+000 1.000000e+001 1.000000e+001
         vertex 1.000000e+001 1.000000e+001 0.000000e+000
         vertex 0.000000e+000 1.000000e+001 0.000000e+000
      endloop
   endfacet
   facet normal 0.000000e+000 -1.000000e+000 0.000000e+000
      outer loop
         vertex 1.000000e+001 0.000000e+000 0.000000e+000
         vertex 1.000000e+001 0.000000e+000 1.000000e+001
         vertex 0.000000e+000 0.000000e+000 0.000000e+000
      endloop
   endfacet
   facet normal 0.000000e+000 -1.000000e+000 0.000000e+000
      outer loop
         vertex 0.000000e+000 0.000000e+000 0.000000e+000
         vertex 1.000000e+001 0.000000e+000 1.000000e+001
         vertex 0.000000e+000 0.000000e+000 1.000000e+001
      endloop
   endfacet
   facet normal 0.000000e+000 0.000000e+000 1.000000e+000
      outer loop
         vertex 8.711634e-001 3.685561e+000 4.091567e+000
         vertex 8.711634e-001 6.314439e+000 4.091567e+000
         vertex 5.334338e-017 7.185602e+000 4.091567e+000
      endloop
   endfacet
   facet normal 0.000000e+000 0.000000e+000 1.000000e+000
      outer loop
         vertex 5.334338e-017 7.185602e+000 4.091567e+000
         vertex -1.600301e-016 2.814398e+000 4.091567e+000
         vertex 8.711634e-001 3.685561e+000 4.091567e+000
      endloop
   endfacet
   facet normal 0.000000e+000 0.000000e+000 1.000000e+000
      outer loop
         vertex 8.711634e-001 3.685561e+000 4.091567e+000
         vertex -1.600301e-016 2.814398e+000 4.091567e+000
         vertex 1.512759e-001 2.827633e+000 4.091567e+000
      endloop
   endfacet
   facet normal 0.000000e+000 0.000000e+000 1.000000e+000
      outer loop
         vertex 8.711634e-001 3.685561e+000 4.091567e+000
         vertex 1.512759e-001 2.827633e+000 4.091567e+000
         vertex 2.979555e-001 2.866935e+000 4.091567e+000
      endloop
   endfacet
   facet normal 0.000000e+000 0.000000e+000 1.000000e+000
      outer loop
         vertex 2.979555e-001 2.866935e+000 4.091567e+000
         vertex 4.355817e-001 2.931112e+000 4.091567e+000
         vertex 8.711634e-001 3.685561e+000 4.091567e+000
      endloop
   endfacet
   facet normal 0.000000e+000 0.000000e+000 1.000000e+000
      outer loop
         vertex 8.711634e-001 3.685561e+000 4.091567e+000
         vertex 4.355817e-001 2.931112e+000 4.091567e+000
         vertex 5.599731e-001 3.018211e+000 4.091567e+000
      endloop
   endfacet
   facet normal 0.000000e+000 0.000000e+000 1.000000e+000
      outer loop
         vertex 8.711634e-001 3.685561e+000 4.091567e+000
         vertex 5.599731e-001 3.018211e+000 4.091567e+000
         vertex 6.673499e-001 3.125588e+000 4.091567e+000
      endloop
   endfacet
   facet normal 0.000000e+000 0.000000e+000 1.000000e+000
      outer loop
         vertex 5.599731e-001 6.981789e+000 4.091567e+000
         vertex 4.355817e-001 7.068888e+000 4.091567e+000
         vertex 8.711634e-001 6.314439e+000 4.091567e+000
      endloop
   endfacet
   facet normal 0.000000e+000 0.000000e+000 1.000000e+000
      outer loop
         vertex 6.673499e-001 3.125588e+000 4.091567e+000
         vertex 7.544497e-001 3.249979e+000 4.091567e+000
         vertex 8.711634e-001 3.685561e+000 4.091567e+000
      endloop
   endfacet
   facet normal 0.000000e+000 0.000000e+000 1.000000e+000
      outer loop
         vertex 8.711634e-001 3.685561e+000 4.091567e+000
         vertex 7.544497e-001 3.249979e+000 4.091567e+000
         vertex 8.186259e-001 3.387606e+000 4.091567e+000
      endloop
   endfacet
   facet normal 0.000000e+000 0.000000e+000 1.000000e+000
      outer loop
         vertex 8.711634e-001 3.685561e+000 4.091567e+000
         vertex 8.186259e-001 3.387606e+000 4.091567e+000
         vertex 8.579285e-001 3.534285e+000 4.091567e+000
      endloop
   endfacet
   facet normal 0.000000e+000 0.000000e+000 1.000000e+000
      outer loop
         vertex 4.355817e-001 7.068888e+000 4.091567e+000
         vertex 2.979555e-001 7.133065e+000 4.091567e+000
         vertex 8.711634e-001 6.314439e+000 4.091567e+000
      endloop
   endfacet
   facet normal 0.000000e+000 0.000000e+000 1.000000e+000
      outer loop
         vertex 8.711634e-001 6.314439e+000 4.091567e+000
         vertex 2.979555e-001 7.133065e+000 4.091567e+000
         vertex 1.512759e-001 7.172368e+000 4.091567e+000
      endloop
   endfacet
   facet normal 0.000000e+000 0.000000e+000 1.000000e+000
      outer loop
         vertex 8.711634e-001 6.314439e+000 4.091567e+000
         vertex 1.512759e-001 7.172368e+000 4.091567e+000
         vertex 5.334338e-017 7.185602e+000 4.091567e+000
      endloop
   endfacet
   facet normal 0.000000e+000 0.000000e+000 1.000000e+000
      outer loop
         vertex 8.579285e-001 6.465715e+000 4.091567e+000
         vertex 8.186259e-001 6.612394e+000 4.091567e+000
         vertex 7.544497e-001 6.750021e+000 4.091567e+000
      endloop
   endfacet
   facet normal 0.000000e+000 0.000000e+000 1.000000e+000
      outer loop
         vertex 8.579285e-001 6.465715e+000 4.091567e+000
         vertex 7.544497e-001 6.750021e+000 4.091567e+000
         vertex 8.711634e-001 6.314439e+000 4.091567e+000
      endloop
   endfacet
   facet normal 0.000000e+000 0.000000e+000 1.000000e+000
      outer loop
         vertex 8.711634e-001 6.314439e+000 4.091567e+000
         vertex 7.544497e-001 6.750021e+000 4.091567e+000
         vertex 6.673499e-001 6.874412e+000 4.091567e+000
      endloop
   endfacet
   facet normal 0.000000e+000 0.000000e+000 1.000000e+000
      outer loop
         vertex 8.711634e-001 6.314439e+000 4.091567e+000
         vertex 6.673499e-001 6.874412e+000 4.091567e+000
         vertex 5.599731e-001 6.981789e+000 4.091567e+000
      endloop
   endfacet
   facet normal -5.807913e-002 9.983119e-001 0.000000e+000
      outer loop
         vertex -1.600301e-016 2.814398e+000 4.091567e+000
         vertex -1.600301e-016 2.814398e+000 1.000000e+001
         vertex 1.512759e-001 2.827633e+000 1.000000e+001
      endloop
   endfacet
   facet normal -1.161583e-001 9.932307e-001 0.000000e+000
      outer loop
         vertex -1.600301e-016 2.814398e+000 4.091567e+000
         vertex 1.512759e-001 2.827633e+000 1.000000e+001
         vertex 1.512759e-001 2.827633e+000 4.091567e+000
      endloop
   endfacet
   facet normal -2.305519e-001 9.730600e-001 0.000000e+000
      outer loop
         vertex 1.512759e-001 2.827633e+000 4.091567e+000
         vertex 1.512759e-001 2.827633e+000 1.000000e+001
         vertex 2.979555e-001 2.866935e+000 1.000000e+001
      endloop
   endfacet
   facet normal -2.868663e-001 9.579706e-001 0.000000e+000
      outer loop
         vertex 1.512759e-001 2.827633e+000 4.091567e+000
         vertex 2.979555e-001 2.866935e+000 1.000000e+001
         vertex 2.979555e-001 2.866935e+000 4.091567e+000
      endloop
   endfacet
   facet normal -3.960194e-001 9.182422e-001 0.000000e+000
      outer loop
         vertex 2.979555e-001 2.866935e+000 4.091567e+000
         vertex 2.979555e-001 2.866935e+000 1.000000e+001
         vertex 4.355817e-001 2.931112e+000 1.000000e+001
      endloop
   endfacet
   facet normal -4.488580e-001 8.936031e-001 0.000000e+000
      outer loop
         vertex 2.979555e-001 2.866935e+000 4.091567e+000
         vertex 4.355817e-001 2.931112e+000 1.000000e+001
         vertex 4.355817e-001 2.931112e+000 4.091567e+000
      endloop
   endfacet
   facet normal -5.494540e-001 8.355240e-001 0.000000e+000
      outer loop
         vertex 4.355817e-001 2.931112e+000 4.091567e+000
         vertex 4.355817e-001 2.931112e+000 1.000000e+001
         vertex 5.599731e-001 3.018211e+000 1.000000e+001
      endloop
   endfacet
   facet normal -5.972114e-001 8.020838e-001 0.000000e+000
      outer loop
         vertex 4.355817e-001 2.931112e+000 4.091567e+000
         vertex 5.599731e-001 3.018211e+000 1.000000e+001
         vertex 5.599731e-001 3.018211e+000 4.091567e+000
      endloop
   endfacet
   facet normal -6.861938e-001 7.274188e-001 0.000000e+000
      outer loop
         vertex 5.599731e-001 3.018211e+000 4.091567e+000
         vertex 5.599731e-001 3.018211e+000 1.000000e+001
         vertex 6.673499e-001 3.125588e+000 1.000000e+001
      endloop
   endfacet
   facet normal -7.274188e-001 6.861938e-001 0.000000e+000
      outer loop
         vertex 5.599731e-001 3.018211e+000 4.091567e+000
         vertex 6.673499e-001 3.125588e+000 1.000000e+001
         vertex 6.673499e-001 3.125588e+000 4.091567e+000
      endloop
   endfacet
   facet normal -8.020838e-001 5.972114e-001 0.000000e+000
      outer loop
         vertex 6.673499e-001 3.125588e+000 4.091567e+000
         vertex 6.673499e-001 3.125588e+000 1.000000e+001
         vertex 7.544497e-001 3.249979e+000 1.000000e+001
      endloop
   endfacet
   facet normal -8.355240e-001 5.494540e-001 0.000000e+000
      outer loop
         vertex 6.673499e-001 3.125588e+000 4.091567e+000
         vertex 7.544497e-001 3.249979e+000 1.000000e+001
         vertex 7.544497e-001 3.249979e+000 4.091567e+000
      endloop
   endfacet
   facet normal -8.936031e-001 4.488580e-001 0.000000e+000
      outer loop
         vertex 7.544497e-001 3.249979e+000 4.091567e+000
         vertex 7.544497e-001 3.249979e+000 1.000000e+001
         vertex 8.186259e-001 3.387606e+000 1.000000e+001
      endloop
   endfacet
   facet normal -9.182422e-001 3.960194e-001 0.000000e+000
      outer loop
         vertex 7.544497e-001 3.249979e+000 4.091567e+000
         vertex 8.186259e-001 3.387606e+000 1.000000e+001
         vertex 8.186259e-001 3.387606e+000 4.091567e+000
      endloop
   endfacet
   facet normal -9.579706e-001 2.868663e-001 0.000000e+000
      outer loop
         vertex 8.186259e-001 3.387606e+000 4.091567e+000
         vertex 8.186259e-001 3.387606e+000 1.000000e+001
         vertex 8.579285e-001 3.534285e+000 1.000000e+001
      endloop
   endfacet
   facet normal -9.730600e-001 2.305519e-001 0.000000e+000
      outer loop
         vertex 8.186259e-001 3.387606e+000 4.091567e+000
         vertex 8.579285e-001 3.534285e+000 1.000000e+001
         vertex 8.579285e-001 3.534285e+000 4.091567e+000
      endloop
   endfacet
   facet normal -9.932307e-001 1.161583e-001 0.000000e+000
      outer loop
         vertex 8.579285e-001 3.534285e+000 4.091567e+000
         vertex 8.579285e-001 3.534285e+000 1.000000e+001
         vertex 8.711634e-001 3.685561e+000 1.000000e+001
      endloop
   endfacet
   facet normal -9.983119e-001 5.807913e-002 0.000000e+000
      outer loop
         vertex 8.579285e-001 3.534285e+000 4.091567e+000
         vertex 8.711634e-001 3.685561e+000 1.000000e+001
         vertex 8.711634e-001 3.685561e+000 4.091567e+000
      endloop
   endfacet
   facet normal -9.983119e-001 -5.807913e-002 0.000000e+000
      outer loop
         vertex 8.711634e-001 6.314439e+000 4.091567e+000
         vertex 8.711634e-001 6.314439e+000 1.000000e+001
         vertex 8.579285e-001 6.465715e+000 1.000000e+001
      endloop
   endfacet
   facet normal -9.932307e-001 -1.161583e-001 0.000000e+000
      outer loop
         vertex 8.711634e-001 6.314439e+000 4.091567e+000
         vertex 8.579285e-001 6.465715e+000 1.000000e+001
         vertex 8.579285e-001 6.465715e+000 4.091567e+000
      endloop
   endfacet
   facet normal -9.730600e-001 -2.305519e-001 0.000000e+000
      outer loop
         vertex 8.579285e-001 6.465715e+000 4.091567e+000
         vertex 8.579285e-001 6.465715e+000 1.000000e+001
         vertex 8.186259e-001 6.612394e+000 1.000000e+001
      endloop
   endfacet
   facet normal -9.579706e-001 -2.868663e-001 0.000000e+000
      outer loop
         vertex 8.579285e-001 6.465715e+000 4.091567e+000
         vertex 8.186259e-001 6.612394e+000 1.000000e+001
         vertex 8.186259e-001 6.612394e+000 4.091567e+000
      endloop
   endfacet
   facet normal -9.182422e-001 -3.960194e-001 0.000000e+000
      outer loop
         vertex 8.186259e-001 6.612394e+000 4.091567e+000
         vertex 8.186259e-001 6.612394e+000 1.000000e+001
         vertex 7.544497e-001 6.750021e+000 1.000000e+001
      endloop
   endfacet
   facet normal -8.936031e-001 -4.488580e-001 0.000000e+000
      outer loop
         vertex 8.186259e-001 6.612394e+000 4.091567e+000
         vertex 7.544497e-001 6.750021e+000 1.000000e+001
         vertex 7.544497e-001 6.750021e+000 4.091567e+000
      endloop
   endfacet
   facet normal -8.355240e-001 -5.494540e-001 0.000000e+000
      outer loop
         vertex 7.544497e-001 6.750021e+000 4.091567e+000
         vertex 7.544497e-001 6.750021e+000 1.000000e+001
         vertex 6.673499e-001 6.874412e+000 1.000000e+001
      endloop
   endfacet
   facet normal -8.020838e-001 -5.972114e-001 0.000000e+000
      outer loop
         vertex 7.544497e-001 6.750021e+000 4.091567e+000
         vertex 6.673499e-001 6.874412e+000 1.000000e+001
         vertex 6.673499e-001 6.874412e+000 4.091567e+000
      endloop
   endfacet
   facet normal -7.274188e-001 -6.861938e-001 0.000000e+000
      outer loop
         vertex 6.673499e-001 6.874412e+000 4.091567e+000
         vertex 6.673499e-001 6.874412e+000 1.000000e+001
         vertex 5.599731e-001 6.981789e+000 1.000000e+001
      endloop
   endfacet
   facet normal -6.861938e-001 -7.274188e-001 0.000000e+000
      outer loop
         vertex 6.673499e-001 6.874412e+000 4.091567e+000
         vertex 5.599731e-001 6.981789e+000 1.000000e+001
         vertex 5.599731e-001 6.981789e+000 4.091567e+000
      endloop
   endfacet
   facet normal -5.972114e-001 -8.020838e-001 0.000000e+000
      outer loop
         vertex 5.599731e-001 6.981789e+000 4.091567e+000
         vertex 5.599731e-001 6.981789e+000 1.000000e+001
         vertex 4.355817e-001 7.068888e+000 1.000000e+001
      endloop
   endfacet
   facet normal -5.494540e-001 -8.355240e-001 0.000000e+000
      outer loop
         vertex 5.599731e-001 6.981789e+000 4.091567e+000
         vertex 4.355817e-001 7.068888e+000 1.000000e+001
         vertex 4.355817e-001 7.068888e+000 4.091567e+000
      endloop
   endfacet
   facet normal -4.488580e-001 -8.936031e-001 0.000000e+000
      outer loop
         vertex 4.355817e-001 7.068888e+000 4.091567e+000
         vertex 4.355817e-001 7.068888e+000 1.000000e+001
         vertex 2.979555e-001 7.133065e+000 1.000000e+001
      endloop
   endfacet
   facet normal -3.960194e-001 -9.182422e-001 0.000000e+000
      outer loop
         vertex 4.355817e-001 7.068888e+000 4.091567e+000
         vertex 2.979555e-001 7.133065e+000 1.000000e+001
         vertex 2.979555e-001 7.133065e+000 4.091567e+000
      endloop
   endfacet
   facet normal -2.868663e-001 -9.579706e-001 0.000000e+000
      outer loop
         vertex 2.979555e-001 7.133065e+000 4.091567e+000
         vertex 2.979555e-001 7.133065e+000 1.000000e+001
         vertex 1.512759e-001 7.172368e+000 1.000000e+001
      endloop
   endfacet
   facet normal -2.305519e-001 -9.730600e-001 0.000000e+000
      outer loop
         vertex 2.979555e-001 7.133065e+000 4.091567e+000
         vertex 1.512759e-001 7.172368e+000 1.000000e+001
         vertex 1.512759e-001 7.172368e+000 4.091567e+000
      endloop
   endfacet
   facet normal -1.161583e-001 -9.932307e-001 0.000000e+000
      outer loop
         vertex 1.512759e-001 7.172368e+000 4.091567e+000
         vertex 1.512759e-001 7.172368e+000 1.000000e+001
         vertex 5.334338e-017 7.185602e+000 1.000000e+001
      endloop
   endfacet
   facet normal -5.807913e-002 -9.983119e-001 0.000000e+000
      outer loop
         vertex 1.512759e-001 7.172368e+000 4.091567e+000
         vertex 5.334338e-017 7.185602e+000 1.000000e+001
         vertex 5.334338e-017 7.185602e+000 4.091567e+000
      endloop
   endfacet
   facet normal -1.000000e+000 0.000000e+000 0.000000e+000
      outer loop
         vertex 8.711634e-001 6.314439e+000 4.091567e+000
         vertex 8.711634e-001 3.685561e+000 4.091567e+000
         vertex 8.711634e-001 6.314439e+000 1.000000e+001
      endloop
   endfacet
   facet normal -1.000000e+000 0.000000e+000 0.000000e+000
      outer loop
         vertex 8.711634e-001 6.314439e+000 1.000000e+001
         vertex 8.711634e-001 3.685561e+000 4.091567e+000
         vertex 8.711634e-001 3.685561e+000 1.000000e+001
      endloop
   endfacet
endsolid