solid 21_937
   facet normal -1.000000e+000 0.000000e+000 0.000000e+000
      outer loop
         vertex 0.000000e+000 1.000000e+001 1.000000e+001
         vertex 0.000000e+000 1.000000e+001 0.000000e+000
         vertex 0.000000e+000 0.000000e+000 1.000000e+001
      endloop
   endfacet
   facet normal -1.000000e+000 0.000000e+000 0.000000e+000
      outer loop
         vertex 0.000000e+000 0.000000e+000 1.000000e+001
         vertex 0.000000e+000 1.000000e+001 0.000000e+000
         vertex 0.000000e+000 0.000000e+000 0.000000e+000
      endloop
   endfacet
   facet normal 0.000000e+000 0.000000e+000 1.000000e+000
      outer loop
         vertex 9.810885e+000 8.106183e+000 1.000000e+001
         vertex 1.000000e+001 8.122728e+000 1.000000e+001
         vertex 1.000000e+001 1.000000e+001 1.000000e+001
      endloop
   endfacet
   facet normal 0.000000e+000 0.000000e+000 1.000000e+000
      outer loop
         vertex 1.000000e+001 0.000000e+000 1.000000e+001
         vertex 1.000000e+001 1.877271e+000 1.000000e+001
         vertex 9.810885e+000 1.893817e+000 1.000000e+001
      endloop
   endfacet
   facet normal 0.000000e+000 0.000000e+000 1.000000e+000
      outer loop
         vertex 9.810885e+000 8.106183e+000 1.000000e+001
         vertex 1.000000e+001 1.000000e+001 1.000000e+001
         vertex 9.627518e+000 8.057050e+000 1.000000e+001
      endloop
   endfacet
   facet normal 0.000000e+000 0.000000e+000 1.000000e+000
      outer loop
         vertex 9.165728e+000 2.266299e+000 1.000000e+001
         vertex 9.056841e+000 2.421804e+000 1.000000e+001
         vertex 0.000000e+000 0.000000e+000 1.000000e+001
      endloop
   endfacet
   facet normal 0.000000e+000 0.000000e+000 1.000000e+000
      outer loop
         vertex 0.000000e+000 0.000000e+000 1.000000e+001
         vertex 9.056841e+000 2.421804e+000 1.000000e+001
         vertex 8.976613e+000 2.593855e+000 1.000000e+001
      endloop
   endfacet
   facet normal 0.000000e+000 0.000000e+000 1.000000e+000
      outer loop
         vertex 9.056841e+000 7.578196e+000 1.000000e+001
         vertex 0.000000e+000 1.000000e+001 1.000000e+001
         vertex 8.976613e+000 7.406145e+000 1.000000e+001
      endloop
   endfacet
   facet normal 0.000000e+000 0.000000e+000 1.000000e+000
      outer loop
         vertex 8.976613e+000 7.406145e+000 1.000000e+001
         vertex 0.000000e+000 1.000000e+001 1.000000e+001
         vertex 8.927480e+000 7.222777e+000 1.000000e+001
      endloop
   endfacet
   facet normal 0.000000e+000 0.000000e+000 1.000000e+000
      outer loop
         vertex 9.810885e+000 1.893817e+000 1.000000e+001
         vertex 9.627518e+000 1.942950e+000 1.000000e+001
         vertex 1.000000e+001 0.000000e+000 1.000000e+001
      endloop
   endfacet
   facet normal 0.000000e+000 0.000000e+000 1.000000e+000
      outer loop
         vertex 1.000000e+001 0.000000e+000 1.000000e+001
         vertex 9.627518e+000 1.942950e+000 1.000000e+001
         vertex 9.455466e+000 2.023179e+000 1.000000e+001
      endloop
   endfacet
   facet normal 0.000000e+000 0.000000e+000 1.000000e+000
      outer loop
         vertex 1.000000e+001 0.000000e+000 1.000000e+001
         vertex 9.455466e+000 2.023179e+000 1.000000e+001
         vertex 0.000000e+000 0.000000e+000 1.000000e+001
      endloop
   endfacet
   facet normal 0.000000e+000 0.000000e+000 1.000000e+000
      outer loop
         vertex 0.000000e+000 0.000000e+000 1.000000e+001
         vertex 9.455466e+000 2.023179e+000 1.000000e+001
         vertex 9.299962e+000 2.132064e+000 1.000000e+001
      endloop
   endfacet
   facet normal 0.000000e+000 0.000000e+000 1.000000e+000
      outer loop
         vertex 0.000000e+000 0.000000e+000 1.000000e+001
         vertex 9.299962e+000 2.132064e+000 1.000000e+001
         vertex 9.165728e+000 2.266299e+000 1.000000e+001
      endloop
   endfacet
   facet normal 0.000000e+000 0.000000e+000 1.000000e+000
      outer loop
         vertex 9.056841e+000 7.578196e+000 1.000000e+001
         vertex 9.165728e+000 7.733701e+000 1.000000e+001
         vertex 0.000000e+000 1.000000e+001 1.000000e+001
      endloop
   endfacet
   facet normal 0.000000e+000 0.000000e+000 1.000000e+000
      outer loop
         vertex 0.000000e+000 1.000000e+001 1.000000e+001
         vertex 9.165728e+000 7.733701e+000 1.000000e+001
         vertex 9.299962e+000 7.867935e+000 1.000000e+001
      endloop
   endfacet
   facet normal 0.000000e+000 0.000000e+000 1.000000e+000
      outer loop
         vertex 0.000000e+000 1.000000e+001 1.000000e+001
         vertex 9.299962e+000 7.867935e+000 1.000000e+001
         vertex 1.000000e+001 1.000000e+001 1.000000e+001
      endloop
   endfacet
   facet normal 0.000000e+000 0.000000e+000 1.000000e+000
      outer loop
         vertex 1.000000e+001 1.000000e+001 1.000000e+001
         vertex 9.299962e+000 7.867935e+000 1.000000e+001
         vertex 9.455466e+000 7.976821e+000 1.000000e+001
      endloop
   endfacet
   facet normal 0.000000e+000 0.000000e+000 1.000000e+000
      outer loop
         vertex 1.000000e+001 1.000000e+001 1.000000e+001
         vertex 9.455466e+000 7.976821e+000 1.000000e+001
         vertex 9.627518e+000 8.057050e+000 1.000000e+001
      endloop
   endfacet
   facet normal 0.000000e+000 0.000000e+000 1.000000e+000
      outer loop
         vertex 8.976613e+000 2.593855e+000 1.000000e+001
         vertex 8.927480e+000 2.777223e+000 1.000000e+001
         vertex 0.000000e+000 0.000000e+000 1.000000e+001
      endloop
   endfacet
   facet normal 0.000000e+000 0.000000e+000 1.000000e+000
      outer loop
         vertex 0.000000e+000 0.000000e+000 1.000000e+001
         vertex 8.927480e+000 2.777223e+000 1.000000e+001
         vertex 8.910934e+000 2.966337e+000 1.000000e+001
      endloop
   endfacet
   facet normal 0.000000e+000 0.000000e+000 1.000000e+000
      outer loop
         vertex 0.000000e+000 0.000000e+000 1.000000e+001
         vertex 8.910934e+000 2.966337e+000 1.000000e+001
         vertex 0.000000e+000 1.000000e+001 1.000000e+001
      endloop
   endfacet
   facet normal 0.000000e+000 0.000000e+000 1.000000e+000
      outer loop
         vertex 0.000000e+000 1.000000e+001 1.000000e+001
         vertex 8.910934e+000 2.966337e+000 1.000000e+001
         vertex 8.910934e+000 7.033663e+000 1.000000e+001
      endloop
   endfacet
   facet normal 0.000000e+000 0.000000e+000 1.000000e+000
      outer loop
         vertex 0.000000e+000 1.000000e+001 1.000000e+001
         vertex 8.910934e+000 7.033663e+000 1.000000e+001
         vertex 8.927480e+000 7.222777e+000 1.000000e+001
      endloop
   endfacet
   facet normal 1.000000e+000 0.000000e+000 0.000000e+000
      outer loop
         vertex 1.000000e+001 1.000000e+001 1.000000e+001
         vertex 1.000000e+001 8.122728e+000 1.000000e+001
         vertex 1.000000e+001 8.122728e+000 6.642013e+000
      endloop
   endfacet
   facet normal 1.000000e+000 0.000000e+000 0.000000e+000
      outer loop
         vertex 1.000000e+001 1.877271e+000 1.000000e+001
         vertex 1.000000e+001 0.000000e+000 1.000000e+001
         vertex 1.000000e+001 1.877271e+000 6.642013e+000
      endloop
   endfacet
   facet normal 1.000000e+000 0.000000e+000 0.000000e+000
      outer loop
         vertex 1.000000e+001 1.877271e+000 6.642013e+000
         vertex 1.000000e+001 0.000000e+000 1.000000e+001
         vertex 1.000000e+001 0.000000e+000 0.000000e+000
      endloop
   endfacet
   facet normal 1.000000e+000 0.000000e+000 0.000000e+000
      outer loop
         vertex 1.000000e+001 1.877271e+000 6.642013e+000
         vertex 1.000000e+001 0.000000e+000 0.000000e+000
         vertex 1.000000e+001 8.122728e+000 6.642013e+000
      endloop
   endfacet
   facet normal 1.000000e+000 0.000000e+000 0.000000e+000
      outer loop
         vertex 1.000000e+001 8.122728e+000 6.642013e+000
         vertex 1.000000e+001 0.000000e+000 0.000000e+000
         vertex 1.000000e+001 1.000000e+001 0.000000e+000
      endloop
   endfacet
   facet normal 1.000000e+000 0.000000e+000 0.000000e+000
      outer loop
         vertex 1.000000e+001 8.122728e+000 6.642013e+000
         vertex 1.000000e+001 1.000000e+001 0.000000e+000
         vertex 1.000000e+001 1.000000e+001 1.000000e+001
      endloop
   endfacet
   facet normal 0.000000e+000 0.000000e+000 -1.000000e+000
      outer loop
         vertex 0.000000e+000 1.000000e+001 0.000000e+000
         vertex 1.000000e+001 1.000000e+001 0.000000e+000
         vertex 0.000000e+000 0.000000e+000 0.000000e+000
      endloop
   endfacet
   facet normal 0.000000e+000 0.000000e+000 -1.000000e+000
      outer loop
         vertex 0.000000e+000 0.000000e+000 0.000000e+000
         vertex 1.000000e+001 1.000000e+001 0.000000e+000
         vertex 1.000000e+001 0.000000e+000 0.000000e+000
      endloop
   endfacet
   facet normal 0.000000e+000 1.000000e+000 0.000000e+000
      outer loop
         vertex 1.000000e+001 1.000000e+001 1.000000e+001
         vertex 1.000000e+001 1.000000e+001 0.000000e+000
         vertex 0.000000e+000 1.000000e+001 1.000000e+001
      endloop
   endfacet
   facet normal 0.000000e+000 1.000000e+000 0.000000e+000
      outer loop
         vertex 0.000000e+000 1.000000e+001 1.000000e+001
         vertex 1.000000e+001 1.000000e+001 0.000000e+000
         vertex 0.000000e+000 1.000000e+001 0.000000e+000
      endloop
   endfacet
   facet normal 0.000000e+000 -1.000000e+000 0.000000e+000
      outer loop
         vertex 1.000000e+001 0.000000e+000 0.000000e+000
         vertex 1.000000e+001 0.000000e+000 1.000000e+001
         vertex 0.000000e+000 0.000000e+000 0.000000e+000
      endloop
   endfacet
   facet normal 0.000000e+000 -1.000000e+000 0.000000e+000
      outer loop
         vertex 0.000000e+000 0.000000e+000 0.000000e+000
         vertex 1.000000e+001 0.000000e+000 1.000000e+001
         vertex 0.000000e+000 0.000000e+000 1.000000e+001
      endloop
   endfacet
   facet normal 9.983119e-001 5.807913e-002 0.000000e+000
      outer loop
         vertex 8.910934e+000 2.966337e+000 6.642013e+000
         vertex 8.910934e+000 2.966337e+000 1.000000e+001
         vertex 8.927480e+000 2.777223e+000 1.000000e+001
      endloop
   endfacet
   facet normal 9.932307e-001 1.161583e-001 0.000000e+000
      outer loop
         vertex 8.910934e+000 2.966337e+000 6.642013e+000
         vertex 8.927480e+000 2.777223e+000 1.000000e+001
         vertex 8.927480e+000 2.777223e+000 6.642013e+000
      endloop
   endfacet
   facet normal 9.730600e-001 2.305519e-001 0.000000e+000
      outer loop
         vertex 8.927480e+000 2.777223e+000 6.642013e+000
         vertex 8.927480e+000 2.777223e+000 1.000000e+001
         vertex 8.976613e+000 2.593855e+000 1.000000e+001
      endloop
   endfacet
   facet normal 9.579706e-001 2.868663e-001 0.000000e+000
      outer loop
         vertex 8.927480e+000 2.777223e+000 6.642013e+000
         vertex 8.976613e+000 2.593855e+000 1.000000e+001
         vertex 8.976613e+000 2.593855e+000 6.642013e+000
      endloop
   endfacet
   facet normal 9.182422e-001 3.960194e-001 0.000000e+000
      outer loop
         vertex 8.976613e+000 2.593855e+000 6.642013e+000
         vertex 8.976613e+000 2.593855e+000 1.000000e+001
         vertex 9.056841e+000 2.421804e+000 1.000000e+001
      endloop
   endfacet
   facet normal 8.936031e-001 4.488580e-001 0.000000e+000
      outer loop
         vertex 8.976613e+000 2.593855e+000 6.642013e+000
         vertex 9.056841e+000 2.421804e+000 1.000000e+001
         vertex 9.056841e+000 2.421804e+000 6.642013e+000
      endloop
   endfacet
   facet normal 8.355240e-001 5.494540e-001 0.000000e+000
      outer loop
         vertex 9.056841e+000 2.421804e+000 6.642013e+000
         vertex 9.056841e+000 2.421804e+000 1.000000e+001
         vertex 9.165728e+000 2.266299e+000 1.000000e+001
      endloop
   endfacet
   facet normal 8.020838e-001 5.972114e-001 0.000000e+000
      outer loop
         vertex 9.056841e+000 2.421804e+000 6.642013e+000
         vertex 9.165728e+000 2.266299e+000 1.000000e+001
         vertex 9.165728e+000 2.266299e+000 6.642013e+000
      endloop
   endfacet
   facet normal 7.274188e-001 6.861938e-001 0.000000e+000
      outer loop
         vertex 9.165728e+000 2.266299e+000 6.642013e+000
         vertex 9.165728e+000 2.266299e+000 1.000000e+001
         vertex 9.299962e+000 2.132064e+000 1.000000e+001
      endloop
   endfacet
   facet normal 6.861938e-001 7.274188e-001 0.000000e+000
      outer loop
         vertex 9.165728e+000 2.266299e+000 6.642013e+000
         vertex 9.299962e+000 2.132064e+000 1.000000e+001
         vertex 9.299962e+000 2.132064e+000 6.642013e+000
      endloop
   endfacet
   facet normal 5.972114e-001 8.020838e-001 0.000000e+000
      outer loop
         vertex 9.299962e+000 2.132064e+000 6.642013e+000
         vertex 9.299962e+000 2.132064e+000 1.000000e+001
         vertex 9.455466e+000 2.023179e+000 1.000000e+001
      endloop
   endfacet
   facet normal 5.494540e-001 8.355240e-001 0.000000e+000
      outer loop
         vertex 9.299962e+000 2.132064e+000 6.642013e+000
         vertex 9.455466e+000 2.023179e+000 1.000000e+001
         vertex 9.455466e+000 2.023179e+000 6.642013e+000
      endloop
   endfacet
   facet normal 4.488580e-001 8.936031e-001 0.000000e+000
      outer loop
         vertex 9.455466e+000 2.023179e+000 6.642013e+000
         vertex 9.455466e+000 2.023179e+000 1.000000e+001
         vertex 9.627518e+000 1.942950e+000 1.000000e+001
      endloop
   endfacet
   facet normal 3.960194e-001 9.182422e-001 0.000000e+000
      outer loop
         vertex 9.455466e+000 2.023179e+000 6.642013e+000
         vertex 9.627518e+000 1.942950e+000 1.000000e+001
         vertex 9.627518e+000 1.942950e+000 6.642013e+000
      endloop
   endfacet
   facet normal 2.868663e-001 9.579706e-001 0.000000e+000
      outer loop
         vertex 9.627518e+000 1.942950e+000 6.642013e+000
         vertex 9.627518e+000 1.942950e+000 1.000000e+001
         vertex 9.810885e+000 1.893817e+000 1.000000e+001
      endloop
   endfacet
   facet normal 2.305519e-001 9.730600e-001 0.000000e+000
      outer loop
         vertex 9.627518e+000 1.942950e+000 6.642013e+000
         vertex 9.810885e+000 1.893817e+000 1.000000e+001
         vertex 9.810885e+000 1.893817e+000 6.642013e+000
      endloop
   endfacet
   facet normal 1.161583e-001 9.932307e-001 0.000000e+000
      outer loop
         vertex 9.810885e+000 1.893817e+000 6.642013e+000
         vertex 9.810885e+000 1.893817e+000 1.000000e+001
         vertex 1.000000e+001 1.877271e+000 1.000000e+001
      endloop
   endfacet
   facet normal 5.807913e-002 9.983119e-001 0.000000e+000
      outer loop
         vertex 9.810885e+000 1.893817e+000 6.642013e+000
         vertex 1.000000e+001 1.877271e+000 1.000000e+001
         vertex 1.000000e+001 1.877271e+000 6.642013e+000
      endloop
   endfacet
   facet normal 5.807913e-002 -9.983119e-001 0.000000e+000
      outer loop
         vertex 1.000000e+001 8.122728e+000 6.642013e+000
         vertex 1.000000e+001 8.122728e+000 1.000000e+001
         vertex 9.810885e+000 8.106183e+000 1.000000e+001
      endloop
   endfacet
   facet normal 1.161583e-001 -9.932307e-001 0.000000e+000
      outer loop
         vertex 1.000000e+001 8.122728e+000 6.642013e+000
         vertex 9.810885e+000 8.106183e+000 1.000000e+001
         vertex 9.810885e+000 8.106183e+000 6.642013e+000
      endloop
   endfacet
   facet normal 2.305519e-001 -9.730600e-001 0.000000e+000
      outer loop
         vertex 9.810885e+000 8.106183e+000 6.642013e+000
         vertex 9.810885e+000 8.106183e+000 1.000000e+001
         vertex 9.627518e+000 8.057050e+000 1.000000e+001
      endloop
   endfacet
   facet normal 2.868663e-001 -9.579706e-001 0.000000e+000
      outer loop
         vertex 9.810885e+000 8.106183e+000 6.642013e+000
         vertex 9.627518e+000 8.057050e+000 1.000000e+001
         vertex 9.627518e+000 8.057050e+000 6.642013e+000
      endloop
   endfacet
   facet normal 3.960194e-001 -9.182422e-001 0.000000e+000
      outer loop
         vertex 9.627518e+000 8.057050e+000 6.642013e+000
         vertex 9.627518e+000 8.057050e+000 1.000000e+001
         vertex 9.455466e+000 7.976821e+000 1.000000e+001
      endloop
   endfacet
   facet normal 4.488580e-001 -8.936031e-001 0.000000e+000
      outer loop
         vertex 9.627518e+000 8.057050e+000 6.642013e+000
         vertex 9.455466e+000 7.976821e+000 1.000000e+001
         vertex 9.455466e+000 7.976821e+000 6.642013e+000
      endloop
   endfacet
   facet normal 5.494540e-001 -8.355240e-001 0.000000e+000
      outer loop
         vertex 9.455466e+000 7.976821e+000 6.642013e+000
         vertex 9.455466e+000 7.976821e+000 1.000000e+001
         vertex 9.299962e+000 7.867935e+000 1.000000e+001
      endloop
   endfacet
   facet normal 5.972114e-001 -8.020838e-001 0.000000e+000
      outer loop
         vertex 9.455466e+000 7.976821e+000 6.642013e+000
         vertex 9.299962e+000 7.867935e+000 1.000000e+001
         vertex 9.299962e+000 7.867935e+000 6.642013e+000
      endloop
   endfacet
   facet normal 6.861938e-001 -7.274188e-001 0.000000e+000
      outer loop
         vertex 9.299962e+000 7.867935e+000 6.642013e+000
         vertex 9.299962e+000 7.867935e+000 1.000000e+001
         vertex 9.165728e+000 7.733701e+000 1.000000e+001
      endloop
   endfacet
   facet normal 7.274188e-001 -6.861938e-001 0.000000e+000
      outer loop
         vertex 9.299962e+000 7.867935e+000 6.642013e+000
         vertex 9.165728e+000 7.733701e+000 1.000000e+001
         vertex 9.165728e+000 7.733701e+000 6.642013e+000
      endloop
   endfacet
   facet normal 8.020838e-001 -5.972114e-001 0.000000e+000
      outer loop
         vertex 9.165728e+000 7.733701e+000 6.642013e+000
         vertex 9.165728e+000 7.733701e+000 1.000000e+001
         vertex 9.056841e+000 7.578196e+000 1.000000e+001
      endloop
   endfacet
   facet normal 8.355240e-001 -5.494540e-001 0.000000e+000
      outer loop
         vertex 9.165728e+000 7.733701e+000 6.642013e+000
         vertex 9.056841e+000 7.578196e+000 1.000000e+001
         vertex 9.056841e+000 7.578196e+000 6.642013e+000
      endloop
   endfacet
   facet normal 8.936031e-001 -4.488580e-001 0.000000e+000
      outer loop
         vertex 9.056841e+000 7.578196e+000 6.642013e+000
         vertex 9.056841e+000 7.578196e+000 1.000000e+001
         vertex 8.976613e+000 7.406145e+000 1.000000e+001
      endloop
   endfacet
   facet normal 9.182422e-001 -3.960194e-001 0.000000e+000
      outer loop
         vertex 9.056841e+000 7.578196e+000 6.642013e+000
         vertex 8.976613e+000 7.406145e+000 1.000000e+001
         vertex 8.976613e+000 7.406145e+000 6.642013e+000
      endloop
   endfacet
   facet normal 9.579706e-001 -2.868663e-001 0.000000e+000
      outer loop
         vertex 8.976613e+000 7.406145e+000 6.642013e+000
         vertex 8.976613e+000 7.406145e+000 1.000000e+001
         vertex 8.927480e+000 7.222777e+000 1.000000e+001
      endloop
   endfacet
   facet normal 9.730600e-001 -2.305519e-001 0.000000e+000
      outer loop
         vertex 8.976613e+000 7.406145e+000 6.642013e+000
         vertex 8.927480e+000 7.222777e+000 1.000000e+001
         vertex 8.927480e+000 7.222777e+000 6.642013e+000
      endloop
   endfacet
   facet normal 9.932307e-001 -1.161583e-001 0.000000e+000
      outer loop
         vertex 8.927480e+000 7.222777e+000 6.642013e+000
         vertex 8.927480e+000 7.222777e+000 1.000000e+001
         vertex 8.910934e+000 7.033663e+000 1.000000e+001
      endloop
   endfacet
   facet normal 9.983119e-001 -5.807913e-002 0.000000e+000
      outer loop
         vertex 8.927480e+000 7.222777e+000 6.642013e+000
         vertex 8.910934e+000 7.033663e+000 1.000000e+001
         vertex 8.910934e+000 7.033663e+000 6.642013e+000
      endloop
   endfacet
   facet normal 0.000000e+000 0.000000e+000 1.000000e+000
      outer loop
         vertex 1.000000e+001 8.122728e+000 6.642013e+000
         vertex 9.810885e+000 8.106183e+000 6.642013e+000
         vertex 8.910934e+000 7.033663e+000 6.642013e+000
      endloop
   endfacet
   facet normal 0.000000e+000 0.000000e+000 1.000000e+000
      outer loop
         vertex 8.910934e+000 7.033663e+000 6.642013e+000
         vertex 9.810885e+000 8.106183e+000 6.642013e+000
         vertex 9.627518e+000 8.057050e+000 6.642013e+000
      endloop
   endfacet
   facet normal 0.000000e+000 0.000000e+000 1.000000e+000
      outer loop
         vertex 8.910934e+000 7.033663e+000 6.642013e+000
         vertex 9.627518e+000 8.057050e+000 6.642013e+000
         vertex 8.927480e+000 7.222777e+000 6.642013e+000
      endloop
   endfacet
   facet normal 0.000000e+000 0.000000e+000 1.000000e+000
      outer loop
         vertex 8.927480e+000 2.777223e+000 6.642013e+000
         vertex 8.976613e+000 2.593855e+000 6.642013e+000
         vertex 1.000000e+001 1.877271e+000 6.642013e+000
      endloop
   endfacet
   facet normal 0.000000e+000 0.000000e+000 1.000000e+000
      outer loop
         vertex 1.000000e+001 8.122728e+000 6.642013e+000
         vertex 8.910934e+000 7.033663e+000 6.642013e+000
         vertex 1.000000e+001 1.877271e+000 6.642013e+000
      endloop
   endfacet
   facet normal 0.000000e+000 0.000000e+000 1.000000e+000
      outer loop
         vertex 1.000000e+001 1.877271e+000 6.642013e+000
         vertex 8.910934e+000 7.033663e+000 6.642013e+000
         vertex 8.910934e+000 2.966337e+000 6.642013e+000
      endloop
   endfacet
   facet normal 0.000000e+000 0.000000e+000 1.000000e+000
      outer loop
         vertex 1.000000e+001 1.877271e+000 6.642013e+000
         vertex 8.910934e+000 2.966337e+000 6.642013e+000
         vertex 8.927480e+000 2.777223e+000 6.642013e+000
      endloop
   endfacet
   facet normal 0.000000e+000 0.000000e+000 1.000000e+000
      outer loop
         vertex 8.927480e+000 7.222777e+000 6.642013e+000
         vertex 9.627518e+000 8.057050e+000 6.642013e+000
         vertex 8.976613e+000 7.406145e+000 6.642013e+000
      endloop
   endfacet
   facet normal 0.000000e+000 0.000000e+000 1.000000e+000
      outer loop
         vertex 8.976613e+000 7.406145e+000 6.642013e+000
         vertex 9.627518e+000 8.057050e+000 6.642013e+000
         vertex 9.455466e+000 7.976821e+000 6.642013e+000
      endloop
   endfacet
   facet normal 0.000000e+000 0.000000e+000 1.000000e+000
      outer loop
         vertex 8.976613e+000 7.406145e+000 6.642013e+000
         vertex 9.455466e+000 7.976821e+000 6.642013e+000
         vertex 9.056841e+000 7.578196e+000 6.642013e+000
      endloop
   endfacet
   facet normal 0.000000e+000 0.000000e+000 1.000000e+000
      outer loop
         vertex 9.056841e+000 7.578196e+000 6.642013e+000
         vertex 9.455466e+000 7.976821e+000 6.642013e+000
         vertex 9.299962e+000 7.867935e+000 6.642013e+000
      endloop
   endfacet
   facet normal 0.000000e+000 0.000000e+000 1.000000e+000
      outer loop
         vertex 9.056841e+000 7.578196e+000 6.642013e+000
         vertex 9.299962e+000 7.867935e+000 6.642013e+000
         vertex 9.165728e+000 7.733701e+000 6.642013e+000
      endloop
   endfacet
   facet normal 0.000000e+000 0.000000e+000 1.000000e+000
      outer loop
         vertex 9.455466e+000 2.023179e+000 6.642013e+000
         vertex 9.627518e+000 1.942950e+000 6.642013e+000
         vertex 9.299962e+000 2.132064e+000 6.642013e+000
      endloop
   endfacet
   facet normal 0.000000e+000 0.000000e+000 1.000000e+000
      outer loop
         vertex 9.299962e+000 2.132064e+000 6.642013e+000
         vertex 9.627518e+000 1.942950e+000 6.642013e+000
         vertex 9.165728e+000 2.266299e+000 6.642013e+000
      endloop
   endfacet
   facet normal 0.000000e+000 0.000000e+000 1.000000e+000
      outer loop
         vertex 8.976613e+000 2.593855e+000 6.642013e+000
         vertex 9.056841e+000 2.421804e+000 6.642013e+000
         vertex 1.000000e+001 1.877271e+000 6.642013e+000
      endloop
   endfacet
   facet normal 0.000000e+000 0.000000e+000 1.000000e+000
      outer loop
         vertex 1.000000e+001 1.877271e+000 6.642013e+000
         vertex 9.056841e+000 2.421804e+000 6.642013e+000
         vertex 9.165728e+000 2.266299e+000 6.642013e+000
      endloop
   endfacet
   facet normal 0.000000e+000 0.000000e+000 1.000000e+000
      outer loop
         vertex 1.000000e+001 1.877271e+000 6.642013e+000
         vertex 9.165728e+000 2.266299e+000 6.642013e+000
         vertex 9.810885e+000 1.893817e+000 6.642013e+000
      endloop
   endfacet
   facet normal 0.000000e+000 0.000000e+000 1.000000e+000
      outer loop
         vertex 9.810885e+000 1.893817e+000 6.642013e+000
         vertex 9.165728e+000 2.266299e+000 6.642013e+000
         vertex 9.627518e+000 1.942950e+000 6.642013e+000
      endloop
   endfacet
   facet normal 1.000000e+000 0.000000e+000 0.000000e+000
      outer loop
         vertex 8.910934e+000 2.966337e+000 6.642013e+000
         vertex 8.910934e+000 7.033663e+000 6.642013e+000
         vertex 8.910934e+000 2.966337e+000 1.000000e+001
      endloop
   endfacet
   facet normal 1.000000e+000 0.000000e+000 0.000000e+000
      outer loop
         vertex 8.910934e+000 2.966337e+000 1.000000e+001
         vertex 8.910934e+000 7.033663e+000 6.642013e+000
         vertex 8.910934e+000 7.033663e+000 1.000000e+001
      endloop
   endfacet
endsolid