solid 16_47
   facet normal -1.000000e+000 0.000000e+000 0.000000e+000
      outer loop
         vertex 0.000000e+000 1.000000e+001 3.957681e+000
         vertex 0.000000e+000 1.000000e+001 0.000000e+000
         vertex 0.000000e+000 5.813454e+000 3.957681e+000
      endloop
   endfacet
   facet normal -1.000000e+000 0.000000e+000 0.000000e+000
      outer loop
         vertex 0.000000e+000 5.813454e+000 3.957681e+000
         vertex 0.000000e+000 1.000000e+001 0.000000e+000
         vertex 0.000000e+000 0.000000e+000 0.000000e+000
      endloop
   endfacet
   facet normal -1.000000e+000 0.000000e+000 0.000000e+000
      outer loop
         vertex 0.000000e+000 5.813454e+000 3.957681e+000
         vertex 0.000000e+000 0.000000e+000 0.000000e+000
         vertex 0.000000e+000 5.813454e+000 1.000000e+001
      endloop
   endfacet
   facet normal -1.000000e+000 0.000000e+000 0.000000e+000
      outer loop
         vertex 0.000000e+000 5.813454e+000 1.000000e+001
         vertex 0.000000e+000 0.000000e+000 0.000000e+000
         vertex 0.000000e+000 0.000000e+000 1.000000e+001
      endloop
   endfacet
   facet normal 0.000000e+000 0.000000e+000 1.000000e+000
      outer loop
         vertex 0.000000e+000 5.813454e+000 1.000000e+001
         vertex 0.000000e+000 0.000000e+000 1.000000e+001
         vertex 5.000000e+000 1.788850e+000 1.000000e+001
      endloop
   endfacet
   facet normal 0.000000e+000 0.000000e+000 1.000000e+000
      outer loop
         vertex 5.000000e+000 1.788850e+000 1.000000e+001
         vertex 0.000000e+000 0.000000e+000 1.000000e+001
         vertex 1.000000e+001 0.000000e+000 1.000000e+001
      endloop
   endfacet
   facet normal 0.000000e+000 0.000000e+000 1.000000e+000
      outer loop
         vertex 5.000000e+000 1.788850e+000 1.000000e+001
         vertex 1.000000e+001 0.000000e+000 1.000000e+001
         vertex 1.000000e+001 5.813454e+000 1.000000e+001
      endloop
   endfacet
   facet normal 1.000000e+000 0.000000e+000 0.000000e+000
      outer loop
         vertex 1.000000e+001 5.813454e+000 1.000000e+001
         vertex 1.000000e+001 0.000000e+000 1.000000e+001
         vertex 1.000000e+001 5.813454e+000 3.957681e+000
      endloop
   endfacet
   facet normal 1.000000e+000 0.000000e+000 0.000000e+000
      outer loop
         vertex 1.000000e+001 5.813454e+000 3.957681e+000
         vertex 1.000000e+001 0.000000e+000 1.000000e+001
         vertex 1.000000e+001 0.000000e+000 0.000000e+000
      endloop
   endfacet
   facet normal 1.000000e+000 0.000000e+000 0.000000e+000
      outer loop
         vertex 1.000000e+001 5.813454e+000 3.957681e+000
         vertex 1.000000e+001 0.000000e+000 0.000000e+000
         vertex 1.000000e+001 1.000000e+001 3.957681e+000
      endloop
   endfacet
   facet normal 1.000000e+000 0.000000e+000 0.000000e+000
      outer loop
         vertex 1.000000e+001 1.000000e+001 3.957681e+000
         vertex 1.000000e+001 0.000000e+000 0.000000e+000
         vertex 1.000000e+001 1.000000e+001 0.000000e+000
      endloop
   endfacet
   facet normal 0.000000e+000 0.000000e+000 -1.000000e+000
      outer loop
         vertex 0.000000e+000 1.000000e+001 0.000000e+000
         vertex 1.000000e+001 1.000000e+001 0.000000e+000
         vertex 0.000000e+000 0.000000e+000 0.000000e+000
      endloop
   endfacet
   facet normal 0.000000e+000 0.000000e+000 -1.000000e+000
      outer loop
         vertex 0.000000e+000 0.000000e+000 0.000000e+000
         vertex 1.000000e+001 1.000000e+001 0.000000e+000
         vertex 1.000000e+001 0.000000e+000 0.000000e+000
      endloop
   endfacet
   facet normal 0.000000e+000 1.000000e+000 0.000000e+000
      outer loop
         vertex 1.000000e+001 1.000000e+001 3.957681e+000
         vertex 1.000000e+001 1.000000e+001 0.000000e+000
         vertex 0.000000e+000 1.000000e+001 3.957681e+000
      endloop
   endfacet
   facet normal 0.000000e+000 1.000000e+000 0.000000e+000
      outer loop
         vertex 0.000000e+000 1.000000e+001 3.957681e+000
         vertex 1.000000e+001 1.000000e+001 0.000000e+000
         vertex 0.000000e+000 1.000000e+001 0.000000e+000
      endloop
   endfacet
   facet normal 0.000000e+000 -1.000000e+000 0.000000e+000
      outer loop
         vertex 1.000000e+001 0.000000e+000 0.000000e+000
         vertex 1.000000e+001 0.000000e+000 1.000000e+001
         vertex 0.000000e+000 0.000000e+000 0.000000e+000
      endloop
   endfacet
   facet normal 0.000000e+000 -1.000000e+000 0.000000e+000
      outer loop
         vertex 0.000000e+000 0.000000e+000 0.000000e+000
         vertex 1.000000e+001 0.000000e+000 1.000000e+001
         vertex 0.000000e+000 0.000000e+000 1.000000e+001
      endloop
   endfacet
   facet normal -6.270297e-001 7.789954e-001 0.000000e+000
      outer loop
         vertex 1.000000e+001 5.813454e+000 3.957681e+000
         vertex 5.000000e+000 1.788850e+000 3.957681e+000
         vertex 1.000000e+001 5.813454e+000 1.000000e+001
      endloop
   endfacet
   facet normal -6.270297e-001 7.789954e-001 0.000000e+000
      outer loop
         vertex 1.000000e+001 5.813454e+000 1.000000e+001
         vertex 5.000000e+000 1.788850e+000 3.957681e+000
         vertex 5.000000e+000 1.788850e+000 1.000000e+001
      endloop
   endfacet
   facet normal 6.270297e-001 7.789954e-001 0.000000e+000
      outer loop
         vertex 5.000000e+000 1.788850e+000 3.957681e+000
         vertex 0.000000e+000 5.813454e+000 3.957681e+000
         vertex 5.000000e+000 1.788850e+000 1.000000e+001
      endloop
   endfacet
   facet normal 6.270297e-001 7.789954e-001 0.000000e+000
      outer loop
         vertex 5.000000e+000 1.788850e+000 1.000000e+001
         vertex 0.000000e+000 5.813454e+000 3.957681e+000
         vertex 0.000000e+000 5.813454e+000 1.000000e+001
      endloop
   endfacet
   facet normal 0.000000e+000 0.000000e+000 1.000000e+000
      outer loop
         vertex 5.000000e+000 1.788850e+000 3.957681e+000
         vertex 1.000000e+001 5.813454e+000 3.957681e+000
         vertex 0.000000e+000 5.813454e+000 3.957681e+000
      endloop
   endfacet
   facet normal 0.000000e+000 0.000000e+000 1.000000e+000
      outer loop
         vertex 0.000000e+000 5.813454e+000 3.957681e+000
         vertex 1.000000e+001 5.813454e+000 3.957681e+000
         vertex 1.000000e+001 1.000000e+001 3.957681e+000
      endloop
   endfacet
   facet normal 0.000000e+000 0.000000e+000 1.000000e+000
      outer loop
         vertex 0.000000e+000 5.813454e+000 3.957681e+000
         vertex 1.000000e+001 1.000000e+001 3.957681e+000
         vertex 0.000000e+000 1.000000e+001 3.957681e+000
      endloop
   endfacet
endsolid