solid 16_809
   facet normal -1.000000e+000 0.000000e+000 0.000000e+000
      outer loop
         vertex 0.000000e+000 1.000000e+001 1.000000e+001
         vertex 0.000000e+000 1.000000e+001 0.000000e+000
         vertex 0.000000e+000 0.000000e+000 1.000000e+001
      endloop
   endfacet
   facet normal -1.000000e+000 0.000000e+000 0.000000e+000
      outer loop
         vertex 0.000000e+000 0.000000e+000 1.000000e+001
         vertex 0.000000e+000 1.000000e+001 0.000000e+000
         vertex 0.000000e+000 0.000000e+000 0.000000e+000
      endloop
   endfacet
   facet normal 0.000000e+000 0.000000e+000 1.000000e+000
      outer loop
         vertex 7.639301e+000 5.000000e+000 1.000000e+001
         vertex 2.942378e+000 1.000000e+001 1.000000e+001
         vertex 2.942378e+000 0.000000e+000 1.000000e+001
      endloop
   endfacet
   facet normal 0.000000e+000 0.000000e+000 1.000000e+000
      outer loop
         vertex 2.942378e+000 0.000000e+000 1.000000e+001
         vertex 2.942378e+000 1.000000e+001 1.000000e+001
         vertex 0.000000e+000 1.000000e+001 1.000000e+001
      endloop
   endfacet
   facet normal 0.000000e+000 0.000000e+000 1.000000e+000
      outer loop
         vertex 2.942378e+000 0.000000e+000 1.000000e+001
         vertex 0.000000e+000 1.000000e+001 1.000000e+001
         vertex 0.000000e+000 0.000000e+000 1.000000e+001
      endloop
   endfacet
   facet normal 1.000000e+000 0.000000e+000 0.000000e+000
      outer loop
         vertex 1.000000e+001 0.000000e+000 2.985214e+000
         vertex 1.000000e+001 0.000000e+000 0.000000e+000
         vertex 1.000000e+001 1.000000e+001 2.985214e+000
      endloop
   endfacet
   facet normal 1.000000e+000 0.000000e+000 0.000000e+000
      outer loop
         vertex 1.000000e+001 1.000000e+001 2.985214e+000
         vertex 1.000000e+001 0.000000e+000 0.000000e+000
         vertex 1.000000e+001 1.000000e+001 0.000000e+000
      endloop
   endfacet
   facet normal 0.000000e+000 0.000000e+000 -1.000000e+000
      outer loop
         vertex 0.000000e+000 1.000000e+001 0.000000e+000
         vertex 1.000000e+001 1.000000e+001 0.000000e+000
         vertex 0.000000e+000 0.000000e+000 0.000000e+000
      endloop
   endfacet
   facet normal 0.000000e+000 0.000000e+000 -1.000000e+000
      outer loop
         vertex 0.000000e+000 0.000000e+000 0.000000e+000
         vertex 1.000000e+001 1.000000e+001 0.000000e+000
         vertex 1.000000e+001 0.000000e+000 0.000000e+000
      endloop
   endfacet
   facet normal 0.000000e+000 1.000000e+000 0.000000e+000
      outer loop
         vertex 1.000000e+001 1.000000e+001 2.985214e+000
         vertex 1.000000e+001 1.000000e+001 0.000000e+000
         vertex 2.942378e+000 1.000000e+001 2.985214e+000
      endloop
   endfacet
   facet normal 0.000000e+000 1.000000e+000 0.000000e+000
      outer loop
         vertex 2.942378e+000 1.000000e+001 2.985214e+000
         vertex 1.000000e+001 1.000000e+001 0.000000e+000
         vertex 0.000000e+000 1.000000e+001 0.000000e+000
      endloop
   endfacet
   facet normal 0.000000e+000 1.000000e+000 0.000000e+000
      outer loop
         vertex 2.942378e+000 1.000000e+001 2.985214e+000
         vertex 0.000000e+000 1.000000e+001 0.000000e+000
         vertex 2.942378e+000 1.000000e+001 1.000000e+001
      endloop
   endfacet
   facet normal 0.000000e+000 1.000000e+000 0.000000e+000
      outer loop
         vertex 2.942378e+000 1.000000e+001 1.000000e+001
         vertex 0.000000e+000 1.000000e+001 0.000000e+000
         vertex 0.000000e+000 1.000000e+001 1.000000e+001
      endloop
   endfacet
   facet normal 0.000000e+000 -1.000000e+000 0.000000e+000
      outer loop
         vertex 2.942378e+000 0.000000e+000 1.000000e+001
         vertex 0.000000e+000 0.000000e+000 1.000000e+001
         vertex 2.942378e+000 0.000000e+000 2.985214e+000
      endloop
   endfacet
   facet normal 0.000000e+000 -1.000000e+000 0.000000e+000
      outer loop
         vertex 2.942378e+000 0.000000e+000 2.985214e+000
         vertex 0.000000e+000 0.000000e+000 1.000000e+001
         vertex 0.000000e+000 0.000000e+000 0.000000e+000
      endloop
   endfacet
   facet normal 0.000000e+000 -1.000000e+000 0.000000e+000
      outer loop
         vertex 2.942378e+000 0.000000e+000 2.985214e+000
         vertex 0.000000e+000 0.000000e+000 0.000000e+000
         vertex 1.000000e+001 0.000000e+000 2.985214e+000
      endloop
   endfacet
   facet normal 0.000000e+000 -1.000000e+000 0.000000e+000
      outer loop
         vertex 1.000000e+001 0.000000e+000 2.985214e+000
         vertex 0.000000e+000 0.000000e+000 0.000000e+000
         vertex 1.000000e+001 0.000000e+000 0.000000e+000
      endloop
   endfacet
   facet normal 7.288515e-001 -6.846718e-001 0.000000e+000
      outer loop
         vertex 2.942378e+000 0.000000e+000 2.985214e+000
         vertex 7.639301e+000 5.000000e+000 2.985214e+000
         vertex 2.942378e+000 0.000000e+000 1.000000e+001
      endloop
   endfacet
   facet normal 7.288515e-001 -6.846718e-001 0.000000e+000
      outer loop
         vertex 2.942378e+000 0.000000e+000 1.000000e+001
         vertex 7.639301e+000 5.000000e+000 2.985214e+000
         vertex 7.639301e+000 5.000000e+000 1.000000e+001
      endloop
   endfacet
   facet normal 7.288515e-001 6.846718e-001 0.000000e+000
      outer loop
         vertex 7.639301e+000 5.000000e+000 2.985214e+000
         vertex 2.942378e+000 1.000000e+001 2.985214e+000
         vertex 7.639301e+000 5.000000e+000 1.000000e+001
      endloop
   endfacet
   facet normal 7.288515e-001 6.846718e-001 0.000000e+000
      outer loop
         vertex 7.639301e+000 5.000000e+000 1.000000e+001
         vertex 2.942378e+000 1.000000e+001 2.985214e+000
         vertex 2.942378e+000 1.000000e+001 1.000000e+001
      endloop
   endfacet
   facet normal 0.000000e+000 0.000000e+000 1.000000e+000
      outer loop
         vertex 2.942378e+000 0.000000e+000 2.985214e+000
         vertex 1.000000e+001 0.000000e+000 2.985214e+000
         vertex 7.639301e+000 5.000000e+000 2.985214e+000
      endloop
   endfacet
   facet normal 0.000000e+000 0.000000e+000 1.000000e+000
      outer loop
         vertex 7.639301e+000 5.000000e+000 2.985214e+000
         vertex 1.000000e+001 0.000000e+000 2.985214e+000
         vertex 1.000000e+001 1.000000e+001 2.985214e+000
      endloop
   endfacet
   facet normal 0.000000e+000 0.000000e+000 1.000000e+000
      outer loop
         vertex 7.639301e+000 5.000000e+000 2.985214e+000
         vertex 1.000000e+001 1.000000e+001 2.985214e+000
         vertex 2.942378e+000 1.000000e+001 2.985214e+000
      endloop
   endfacet
endsolid