solid 20_14
   facet normal -1.000000e+000 0.000000e+000 0.000000e+000
      outer loop
         vertex 0.000000e+000 1.000000e+001 1.000000e+001
         vertex 0.000000e+000 1.000000e+001 0.000000e+000
         vertex 0.000000e+000 0.000000e+000 1.000000e+001
      endloop
   endfacet
   facet normal -1.000000e+000 0.000000e+000 0.000000e+000
      outer loop
         vertex 0.000000e+000 0.000000e+000 1.000000e+001
         vertex 0.000000e+000 1.000000e+001 0.000000e+000
         vertex 0.000000e+000 0.000000e+000 0.000000e+000
      endloop
   endfacet
   facet normal 0.000000e+000 0.000000e+000 1.000000e+000
      outer loop
         vertex 4.139329e+000 1.078554e+000 1.000000e+001
         vertex 3.827711e+000 1.223864e+000 1.000000e+001
         vertex 0.000000e+000 0.000000e+000 1.000000e+001
      endloop
   endfacet
   facet normal 0.000000e+000 0.000000e+000 1.000000e+000
      outer loop
         vertex 0.000000e+000 0.000000e+000 1.000000e+001
         vertex 3.827711e+000 1.223864e+000 1.000000e+001
         vertex 3.546061e+000 1.421078e+000 1.000000e+001
      endloop
   endfacet
   facet normal 0.000000e+000 0.000000e+000 1.000000e+000
      outer loop
         vertex 3.546061e+000 1.421078e+000 1.000000e+001
         vertex 3.302934e+000 1.664204e+000 1.000000e+001
         vertex 0.000000e+000 0.000000e+000 1.000000e+001
      endloop
   endfacet
   facet normal 0.000000e+000 0.000000e+000 1.000000e+000
      outer loop
         vertex 0.000000e+000 0.000000e+000 1.000000e+001
         vertex 3.302934e+000 1.664204e+000 1.000000e+001
         vertex 3.105720e+000 1.945855e+000 1.000000e+001
      endloop
   endfacet
   facet normal 0.000000e+000 0.000000e+000 1.000000e+000
      outer loop
         vertex 0.000000e+000 0.000000e+000 1.000000e+001
         vertex 3.105720e+000 1.945855e+000 1.000000e+001
         vertex 2.960411e+000 2.257473e+000 1.000000e+001
      endloop
   endfacet
   facet normal 0.000000e+000 0.000000e+000 1.000000e+000
      outer loop
         vertex 6.756519e+000 2.589589e+000 1.000000e+001
         vertex 6.667529e+000 2.257473e+000 1.000000e+001
         vertex 1.000000e+001 0.000000e+000 1.000000e+001
      endloop
   endfacet
   facet normal 0.000000e+000 0.000000e+000 1.000000e+000
      outer loop
         vertex 1.000000e+001 0.000000e+000 1.000000e+001
         vertex 6.667529e+000 2.257473e+000 1.000000e+001
         vertex 6.522219e+000 1.945855e+000 1.000000e+001
      endloop
   endfacet
   facet normal 0.000000e+000 0.000000e+000 1.000000e+000
      outer loop
         vertex 1.000000e+001 0.000000e+000 1.000000e+001
         vertex 6.522219e+000 1.945855e+000 1.000000e+001
         vertex 6.325005e+000 1.664204e+000 1.000000e+001
      endloop
   endfacet
   facet normal 0.000000e+000 0.000000e+000 1.000000e+000
      outer loop
         vertex 6.325005e+000 1.664204e+000 1.000000e+001
         vertex 6.081879e+000 1.421078e+000 1.000000e+001
         vertex 1.000000e+001 0.000000e+000 1.000000e+001
      endloop
   endfacet
   facet normal 0.000000e+000 0.000000e+000 1.000000e+000
      outer loop
         vertex 1.000000e+001 0.000000e+000 1.000000e+001
         vertex 6.081879e+000 1.421078e+000 1.000000e+001
         vertex 5.800228e+000 1.223864e+000 1.000000e+001
      endloop
   endfacet
   facet normal 0.000000e+000 0.000000e+000 1.000000e+000
      outer loop
         vertex 1.000000e+001 0.000000e+000 1.000000e+001
         vertex 5.800228e+000 1.223864e+000 1.000000e+001
         vertex 5.488610e+000 1.078554e+000 1.000000e+001
      endloop
   endfacet
   facet normal 0.000000e+000 0.000000e+000 1.000000e+000
      outer loop
         vertex 5.488610e+000 1.078554e+000 1.000000e+001
         vertex 5.156493e+000 9.895641e-001 1.000000e+001
         vertex 1.000000e+001 0.000000e+000 1.000000e+001
      endloop
   endfacet
   facet normal 0.000000e+000 0.000000e+000 1.000000e+000
      outer loop
         vertex 1.000000e+001 0.000000e+000 1.000000e+001
         vertex 5.156493e+000 9.895641e-001 1.000000e+001
         vertex 4.813970e+000 9.595971e-001 1.000000e+001
      endloop
   endfacet
   facet normal 0.000000e+000 0.000000e+000 1.000000e+000
      outer loop
         vertex 1.000000e+001 0.000000e+000 1.000000e+001
         vertex 4.813970e+000 9.595971e-001 1.000000e+001
         vertex 0.000000e+000 0.000000e+000 1.000000e+001
      endloop
   endfacet
   facet normal 0.000000e+000 0.000000e+000 1.000000e+000
      outer loop
         vertex 0.000000e+000 0.000000e+000 1.000000e+001
         vertex 4.813970e+000 9.595971e-001 1.000000e+001
         vertex 4.471446e+000 9.895641e-001 1.000000e+001
      endloop
   endfacet
   facet normal 0.000000e+000 0.000000e+000 1.000000e+000
      outer loop
         vertex 0.000000e+000 0.000000e+000 1.000000e+001
         vertex 4.471446e+000 9.895641e-001 1.000000e+001
         vertex 4.139329e+000 1.078554e+000 1.000000e+001
      endloop
   endfacet
   facet normal 0.000000e+000 0.000000e+000 1.000000e+000
      outer loop
         vertex 1.000000e+001 1.000000e+001 1.000000e+001
         vertex 6.786486e+000 1.000000e+001 1.000000e+001
         vertex 1.000000e+001 0.000000e+000 1.000000e+001
      endloop
   endfacet
   facet normal 0.000000e+000 0.000000e+000 1.000000e+000
      outer loop
         vertex 1.000000e+001 0.000000e+000 1.000000e+001
         vertex 6.786486e+000 1.000000e+001 1.000000e+001
         vertex 6.786486e+000 2.932113e+000 1.000000e+001
      endloop
   endfacet
   facet normal 0.000000e+000 0.000000e+000 1.000000e+000
      outer loop
         vertex 1.000000e+001 0.000000e+000 1.000000e+001
         vertex 6.786486e+000 2.932113e+000 1.000000e+001
         vertex 6.756519e+000 2.589589e+000 1.000000e+001
      endloop
   endfacet
   facet normal 0.000000e+000 0.000000e+000 1.000000e+000
      outer loop
         vertex 2.841453e+000 1.000000e+001 1.000000e+001
         vertex 0.000000e+000 1.000000e+001 1.000000e+001
         vertex 2.841453e+000 2.932113e+000 1.000000e+001
      endloop
   endfacet
   facet normal 0.000000e+000 0.000000e+000 1.000000e+000
      outer loop
         vertex 2.841453e+000 2.932113e+000 1.000000e+001
         vertex 0.000000e+000 1.000000e+001 1.000000e+001
         vertex 0.000000e+000 0.000000e+000 1.000000e+001
      endloop
   endfacet
   facet normal 0.000000e+000 0.000000e+000 1.000000e+000
      outer loop
         vertex 2.841453e+000 2.932113e+000 1.000000e+001
         vertex 0.000000e+000 0.000000e+000 1.000000e+001
         vertex 2.871420e+000 2.589589e+000 1.000000e+001
      endloop
   endfacet
   facet normal 0.000000e+000 0.000000e+000 1.000000e+000
      outer loop
         vertex 2.871420e+000 2.589589e+000 1.000000e+001
         vertex 0.000000e+000 0.000000e+000 1.000000e+001
         vertex 2.960411e+000 2.257473e+000 1.000000e+001
      endloop
   endfacet
   facet normal 1.000000e+000 0.000000e+000 0.000000e+000
      outer loop
         vertex 1.000000e+001 1.000000e+001 0.000000e+000
         vertex 1.000000e+001 1.000000e+001 1.000000e+001
         vertex 1.000000e+001 0.000000e+000 0.000000e+000
      endloop
   endfacet
   facet normal 1.000000e+000 0.000000e+000 0.000000e+000
      outer loop
         vertex 1.000000e+001 0.000000e+000 0.000000e+000
         vertex 1.000000e+001 1.000000e+001 1.000000e+001
         vertex 1.000000e+001 0.000000e+000 1.000000e+001
      endloop
   endfacet
   facet normal 0.000000e+000 0.000000e+000 -1.000000e+000
      outer loop
         vertex 0.000000e+000 1.000000e+001 0.000000e+000
         vertex 1.000000e+001 1.000000e+001 0.000000e+000
         vertex 0.000000e+000 0.000000e+000 0.000000e+000
      endloop
   endfacet
   facet normal 0.000000e+000 0.000000e+000 -1.000000e+000
      outer loop
         vertex 0.000000e+000 0.000000e+000 0.000000e+000
         vertex 1.000000e+001 1.000000e+001 0.000000e+000
         vertex 1.000000e+001 0.000000e+000 0.000000e+000
      endloop
   endfacet
   facet normal 0.000000e+000 1.000000e+000 0.000000e+000
      outer loop
         vertex 6.786486e+000 1.000000e+001 1.000000e+001
         vertex 1.000000e+001 1.000000e+001 1.000000e+001
         vertex 6.786486e+000 1.000000e+001 3.876313e+000
      endloop
   endfacet
   facet normal 0.000000e+000 1.000000e+000 0.000000e+000
      outer loop
         vertex 6.786486e+000 1.000000e+001 3.876313e+000
         vertex 1.000000e+001 1.000000e+001 1.000000e+001
         vertex 1.000000e+001 1.000000e+001 0.000000e+000
      endloop
   endfacet
   facet normal 0.000000e+000 1.000000e+000 0.000000e+000
      outer loop
         vertex 6.786486e+000 1.000000e+001 3.876313e+000
         vertex 1.000000e+001 1.000000e+001 0.000000e+000
         vertex 2.841453e+000 1.000000e+001 3.876313e+000
      endloop
   endfacet
   facet normal 0.000000e+000 1.000000e+000 0.000000e+000
      outer loop
         vertex 2.841453e+000 1.000000e+001 3.876313e+000
         vertex 1.000000e+001 1.000000e+001 0.000000e+000
         vertex 0.000000e+000 1.000000e+001 0.000000e+000
      endloop
   endfacet
   facet normal 0.000000e+000 1.000000e+000 0.000000e+000
      outer loop
         vertex 2.841453e+000 1.000000e+001 3.876313e+000
         vertex 0.000000e+000 1.000000e+001 0.000000e+000
         vertex 2.841453e+000 1.000000e+001 1.000000e+001
      endloop
   endfacet
   facet normal 0.000000e+000 1.000000e+000 0.000000e+000
      outer loop
         vertex 2.841453e+000 1.000000e+001 1.000000e+001
         vertex 0.000000e+000 1.000000e+001 0.000000e+000
         vertex 0.000000e+000 1.000000e+001 1.000000e+001
      endloop
   endfacet
   facet normal 0.000000e+000 -1.000000e+000 0.000000e+000
      outer loop
         vertex 1.000000e+001 0.000000e+000 0.000000e+000
         vertex 1.000000e+001 0.000000e+000 1.000000e+001
         vertex 0.000000e+000 0.000000e+000 0.000000e+000
      endloop
   endfacet
   facet normal 0.000000e+000 -1.000000e+000 0.000000e+000
      outer loop
         vertex 0.000000e+000 0.000000e+000 0.000000e+000
         vertex 1.000000e+001 0.000000e+000 1.000000e+001
         vertex 0.000000e+000 0.000000e+000 1.000000e+001
      endloop
   endfacet
   facet normal 0.000000e+000 0.000000e+000 1.000000e+000
      outer loop
         vertex 6.786486e+000 1.000000e+001 3.876313e+000
         vertex 2.841453e+000 1.000000e+001 3.876313e+000
         vertex 6.786486e+000 2.932113e+000 3.876313e+000
      endloop
   endfacet
   facet normal 0.000000e+000 0.000000e+000 1.000000e+000
      outer loop
         vertex 6.786486e+000 2.932113e+000 3.876313e+000
         vertex 2.841453e+000 1.000000e+001 3.876313e+000
         vertex 2.841453e+000 2.932113e+000 3.876313e+000
      endloop
   endfacet
   facet normal 0.000000e+000 0.000000e+000 1.000000e+000
      outer loop
         vertex 4.471446e+000 9.895641e-001 3.876313e+000
         vertex 4.813970e+000 9.595971e-001 3.876313e+000
         vertex 2.841453e+000 2.932113e+000 3.876313e+000
      endloop
   endfacet
   facet normal 0.000000e+000 0.000000e+000 1.000000e+000
      outer loop
         vertex 3.546061e+000 1.421078e+000 3.876313e+000
         vertex 2.841453e+000 2.932113e+000 3.876313e+000
         vertex 2.871420e+000 2.589589e+000 3.876313e+000
      endloop
   endfacet
   facet normal 0.000000e+000 0.000000e+000 1.000000e+000
      outer loop
         vertex 3.546061e+000 1.421078e+000 3.876313e+000
         vertex 3.827711e+000 1.223864e+000 3.876313e+000
         vertex 2.841453e+000 2.932113e+000 3.876313e+000
      endloop
   endfacet
   facet normal 0.000000e+000 0.000000e+000 1.000000e+000
      outer loop
         vertex 2.841453e+000 2.932113e+000 3.876313e+000
         vertex 3.827711e+000 1.223864e+000 3.876313e+000
         vertex 4.139329e+000 1.078554e+000 3.876313e+000
      endloop
   endfacet
   facet normal 0.000000e+000 0.000000e+000 1.000000e+000
      outer loop
         vertex 2.841453e+000 2.932113e+000 3.876313e+000
         vertex 4.139329e+000 1.078554e+000 3.876313e+000
         vertex 4.471446e+000 9.895641e-001 3.876313e+000
      endloop
   endfacet
   facet normal 0.000000e+000 0.000000e+000 1.000000e+000
      outer loop
         vertex 4.813970e+000 9.595971e-001 3.876313e+000
         vertex 5.156493e+000 9.895641e-001 3.876313e+000
         vertex 2.841453e+000 2.932113e+000 3.876313e+000
      endloop
   endfacet
   facet normal 0.000000e+000 0.000000e+000 1.000000e+000
      outer loop
         vertex 2.841453e+000 2.932113e+000 3.876313e+000
         vertex 5.156493e+000 9.895641e-001 3.876313e+000
         vertex 5.488610e+000 1.078554e+000 3.876313e+000
      endloop
   endfacet
   facet normal 0.000000e+000 0.000000e+000 1.000000e+000
      outer loop
         vertex 2.841453e+000 2.932113e+000 3.876313e+000
         vertex 5.488610e+000 1.078554e+000 3.876313e+000
         vertex 5.800228e+000 1.223864e+000 3.876313e+000
      endloop
   endfacet
   facet normal 0.000000e+000 0.000000e+000 1.000000e+000
      outer loop
         vertex 6.522219e+000 1.945855e+000 3.876313e+000
         vertex 6.667529e+000 2.257473e+000 3.876313e+000
         vertex 2.841453e+000 2.932113e+000 3.876313e+000
      endloop
   endfacet
   facet normal 0.000000e+000 0.000000e+000 1.000000e+000
      outer loop
         vertex 2.841453e+000 2.932113e+000 3.876313e+000
         vertex 6.667529e+000 2.257473e+000 3.876313e+000
         vertex 6.756519e+000 2.589589e+000 3.876313e+000
      endloop
   endfacet
   facet normal 0.000000e+000 0.000000e+000 1.000000e+000
      outer loop
         vertex 2.841453e+000 2.932113e+000 3.876313e+000
         vertex 6.756519e+000 2.589589e+000 3.876313e+000
         vertex 6.786486e+000 2.932113e+000 3.876313e+000
      endloop
   endfacet
   facet normal 0.000000e+000 0.000000e+000 1.000000e+000
      outer loop
         vertex 2.871420e+000 2.589589e+000 3.876313e+000
         vertex 2.960411e+000 2.257473e+000 3.876313e+000
         vertex 3.546061e+000 1.421078e+000 3.876313e+000
      endloop
   endfacet
   facet normal 0.000000e+000 0.000000e+000 1.000000e+000
      outer loop
         vertex 3.546061e+000 1.421078e+000 3.876313e+000
         vertex 2.960411e+000 2.257473e+000 3.876313e+000
         vertex 3.105720e+000 1.945855e+000 3.876313e+000
      endloop
   endfacet
   facet normal 0.000000e+000 0.000000e+000 1.000000e+000
      outer loop
         vertex 3.546061e+000 1.421078e+000 3.876313e+000
         vertex 3.105720e+000 1.945855e+000 3.876313e+000
         vertex 3.302934e+000 1.664204e+000 3.876313e+000
      endloop
   endfacet
   facet normal 0.000000e+000 0.000000e+000 1.000000e+000
      outer loop
         vertex 5.800228e+000 1.223864e+000 3.876313e+000
         vertex 6.081879e+000 1.421078e+000 3.876313e+000
         vertex 2.841453e+000 2.932113e+000 3.876313e+000
      endloop
   endfacet
   facet normal 0.000000e+000 0.000000e+000 1.000000e+000
      outer loop
         vertex 2.841453e+000 2.932113e+000 3.876313e+000
         vertex 6.081879e+000 1.421078e+000 3.876313e+000
         vertex 6.325005e+000 1.664204e+000 3.876313e+000
      endloop
   endfacet
   facet normal 0.000000e+000 0.000000e+000 1.000000e+000
      outer loop
         vertex 2.841453e+000 2.932113e+000 3.876313e+000
         vertex 6.325005e+000 1.664204e+000 3.876313e+000
         vertex 6.522219e+000 1.945855e+000 3.876313e+000
      endloop
   endfacet
   facet normal -1.000000e+000 0.000000e+000 0.000000e+000
      outer loop
         vertex 6.786486e+000 1.000000e+001 3.876313e+000
         vertex 6.786486e+000 2.932113e+000 3.876313e+000
         vertex 6.786486e+000 1.000000e+001 1.000000e+001
      endloop
   endfacet
   facet normal -1.000000e+000 0.000000e+000 0.000000e+000
      outer loop
         vertex 6.786486e+000 1.000000e+001 1.000000e+001
         vertex 6.786486e+000 2.932113e+000 3.876313e+000
         vertex 6.786486e+000 2.932113e+000 1.000000e+001
      endloop
   endfacet
   facet normal 9.983119e-001 5.807913e-002 0.000000e+000
      outer loop
         vertex 2.841453e+000 2.932113e+000 3.876313e+000
         vertex 2.841453e+000 2.932113e+000 1.000000e+001
         vertex 2.871420e+000 2.589589e+000 1.000000e+001
      endloop
   endfacet
   facet normal 9.932307e-001 1.161583e-001 0.000000e+000
      outer loop
         vertex 2.841453e+000 2.932113e+000 3.876313e+000
         vertex 2.871420e+000 2.589589e+000 1.000000e+001
         vertex 2.871420e+000 2.589589e+000 3.876313e+000
      endloop
   endfacet
   facet normal 9.730600e-001 2.305519e-001 0.000000e+000
      outer loop
         vertex 2.871420e+000 2.589589e+000 3.876313e+000
         vertex 2.871420e+000 2.589589e+000 1.000000e+001
         vertex 2.960411e+000 2.257473e+000 1.000000e+001
      endloop
   endfacet
   facet normal 9.579706e-001 2.868663e-001 0.000000e+000
      outer loop
         vertex 2.871420e+000 2.589589e+000 3.876313e+000
         vertex 2.960411e+000 2.257473e+000 1.000000e+001
         vertex 2.960411e+000 2.257473e+000 3.876313e+000
      endloop
   endfacet
   facet normal 9.182422e-001 3.960194e-001 0.000000e+000
      outer loop
         vertex 2.960411e+000 2.257473e+000 3.876313e+000
         vertex 2.960411e+000 2.257473e+000 1.000000e+001
         vertex 3.105720e+000 1.945855e+000 1.000000e+001
      endloop
   endfacet
   facet normal 8.936031e-001 4.488580e-001 0.000000e+000
      outer loop
         vertex 2.960411e+000 2.257473e+000 3.876313e+000
         vertex 3.105720e+000 1.945855e+000 1.000000e+001
         vertex 3.105720e+000 1.945855e+000 3.876313e+000
      endloop
   endfacet
   facet normal 8.355240e-001 5.494540e-001 0.000000e+000
      outer loop
         vertex 3.105720e+000 1.945855e+000 3.876313e+000
         vertex 3.105720e+000 1.945855e+000 1.000000e+001
         vertex 3.302934e+000 1.664204e+000 1.000000e+001
      endloop
   endfacet
   facet normal 8.020838e-001 5.972114e-001 0.000000e+000
      outer loop
         vertex 3.105720e+000 1.945855e+000 3.876313e+000
         vertex 3.302934e+000 1.664204e+000 1.000000e+001
         vertex 3.302934e+000 1.664204e+000 3.876313e+000
      endloop
   endfacet
   facet normal 7.274188e-001 6.861938e-001 0.000000e+000
      outer loop
         vertex 3.302934e+000 1.664204e+000 3.876313e+000
         vertex 3.302934e+000 1.664204e+000 1.000000e+001
         vertex 3.546061e+000 1.421078e+000 1.000000e+001
      endloop
   endfacet
   facet normal 6.861938e-001 7.274188e-001 0.000000e+000
      outer loop
         vertex 3.302934e+000 1.664204e+000 3.876313e+000
         vertex 3.546061e+000 1.421078e+000 1.000000e+001
         vertex 3.546061e+000 1.421078e+000 3.876313e+000
      endloop
   endfacet
   facet normal 5.972114e-001 8.020838e-001 0.000000e+000
      outer loop
         vertex 3.546061e+000 1.421078e+000 3.876313e+000
         vertex 3.546061e+000 1.421078e+000 1.000000e+001
         vertex 3.827711e+000 1.223864e+000 1.000000e+001
      endloop
   endfacet
   facet normal 5.494540e-001 8.355240e-001 0.000000e+000
      outer loop
         vertex 3.546061e+000 1.421078e+000 3.876313e+000
         vertex 3.827711e+000 1.223864e+000 1.000000e+001
         vertex 3.827711e+000 1.223864e+000 3.876313e+000
      endloop
   endfacet
   facet normal 4.488580e-001 8.936031e-001 0.000000e+000
      outer loop
         vertex 3.827711e+000 1.223864e+000 3.876313e+000
         vertex 3.827711e+000 1.223864e+000 1.000000e+001
         vertex 4.139329e+000 1.078554e+000 1.000000e+001
      endloop
   endfacet
   facet normal 3.960194e-001 9.182422e-001 0.000000e+000
      outer loop
         vertex 3.827711e+000 1.223864e+000 3.876313e+000
         vertex 4.139329e+000 1.078554e+000 1.000000e+001
         vertex 4.139329e+000 1.078554e+000 3.876313e+000
      endloop
   endfacet
   facet normal 2.868663e-001 9.579706e-001 0.000000e+000
      outer loop
         vertex 4.139329e+000 1.078554e+000 3.876313e+000
         vertex 4.139329e+000 1.078554e+000 1.000000e+001
         vertex 4.471446e+000 9.895641e-001 1.000000e+001
      endloop
   endfacet
   facet normal 2.305519e-001 9.730600e-001 0.000000e+000
      outer loop
         vertex 4.139329e+000 1.078554e+000 3.876313e+000
         vertex 4.471446e+000 9.895641e-001 1.000000e+001
         vertex 4.471446e+000 9.895641e-001 3.876313e+000
      endloop
   endfacet
   facet normal 1.161583e-001 9.932307e-001 0.000000e+000
      outer loop
         vertex 4.471446e+000 9.895641e-001 3.876313e+000
         vertex 4.471446e+000 9.895641e-001 1.000000e+001
         vertex 4.813970e+000 9.595971e-001 1.000000e+001
      endloop
   endfacet
   facet normal 5.807913e-002 9.983119e-001 0.000000e+000
      outer loop
         vertex 4.471446e+000 9.895641e-001 3.876313e+000
         vertex 4.813970e+000 9.595971e-001 1.000000e+001
         vertex 4.813970e+000 9.595971e-001 3.876313e+000
      endloop
   endfacet
   facet normal -5.807913e-002 9.983119e-001 0.000000e+000
      outer loop
         vertex 4.813970e+000 9.595971e-001 3.876313e+000
         vertex 4.813970e+000 9.595971e-001 1.000000e+001
         vertex 5.156493e+000 9.895641e-001 1.000000e+001
      endloop
   endfacet
   facet normal -1.161583e-001 9.932307e-001 0.000000e+000
      outer loop
         vertex 4.813970e+000 9.595971e-001 3.876313e+000
         vertex 5.156493e+000 9.895641e-001 1.000000e+001
         vertex 5.156493e+000 9.895641e-001 3.876313e+000
      endloop
   endfacet
   facet normal -2.305519e-001 9.730600e-001 0.000000e+000
      outer loop
         vertex 5.156493e+000 9.895641e-001 3.876313e+000
         vertex 5.156493e+000 9.895641e-001 1.000000e+001
         vertex 5.488610e+000 1.078554e+000 1.000000e+001
      endloop
   endfacet
   facet normal -2.868663e-001 9.579706e-001 0.000000e+000
      outer loop
         vertex 5.156493e+000 9.895641e-001 3.876313e+000
         vertex 5.488610e+000 1.078554e+000 1.000000e+001
         vertex 5.488610e+000 1.078554e+000 3.876313e+000
      endloop
   endfacet
   facet normal -3.960194e-001 9.182422e-001 0.000000e+000
      outer loop
         vertex 5.488610e+000 1.078554e+000 3.876313e+000
         vertex 5.488610e+000 1.078554e+000 1.000000e+001
         vertex 5.800228e+000 1.223864e+000 1.000000e+001
      endloop
   endfacet
   facet normal -4.488580e-001 8.936031e-001 0.000000e+000
      outer loop
         vertex 5.488610e+000 1.078554e+000 3.876313e+000
         vertex 5.800228e+000 1.223864e+000 1.000000e+001
         vertex 5.800228e+000 1.223864e+000 3.876313e+000
      endloop
   endfacet
   facet normal -5.494540e-001 8.355240e-001 0.000000e+000
      outer loop
         vertex 5.800228e+000 1.223864e+000 3.876313e+000
         vertex 5.800228e+000 1.223864e+000 1.000000e+001
         vertex 6.081879e+000 1.421078e+000 1.000000e+001
      endloop
   endfacet
   facet normal -5.972114e-001 8.020838e-001 0.000000e+000
      outer loop
         vertex 5.800228e+000 1.223864e+000 3.876313e+000
         vertex 6.081879e+000 1.421078e+000 1.000000e+001
         vertex 6.081879e+000 1.421078e+000 3.876313e+000
      endloop
   endfacet
   facet normal -6.861938e-001 7.274188e-001 0.000000e+000
      outer loop
         vertex 6.081879e+000 1.421078e+000 3.876313e+000
         vertex 6.081879e+000 1.421078e+000 1.000000e+001
         vertex 6.325005e+000 1.664204e+000 1.000000e+001
      endloop
   endfacet
   facet normal -7.274188e-001 6.861938e-001 0.000000e+000
      outer loop
         vertex 6.081879e+000 1.421078e+000 3.876313e+000
         vertex 6.325005e+000 1.664204e+000 1.000000e+001
         vertex 6.325005e+000 1.664204e+000 3.876313e+000
      endloop
   endfacet
   facet normal -8.020838e-001 5.972114e-001 0.000000e+000
      outer loop
         vertex 6.325005e+000 1.664204e+000 3.876313e+000
         vertex 6.325005e+000 1.664204e+000 1.000000e+001
         vertex 6.522219e+000 1.945855e+000 1.000000e+001
      endloop
   endfacet
   facet normal -8.355240e-001 5.494540e-001 0.000000e+000
      outer loop
         vertex 6.325005e+000 1.664204e+000 3.876313e+000
         vertex 6.522219e+000 1.945855e+000 1.000000e+001
         vertex 6.522219e+000 1.945855e+000 3.876313e+000
      endloop
   endfacet
   facet normal -8.936031e-001 4.488580e-001 0.000000e+000
      outer loop
         vertex 6.522219e+000 1.945855e+000 3.876313e+000
         vertex 6.522219e+000 1.945855e+000 1.000000e+001
         vertex 6.667529e+000 2.257473e+000 1.000000e+001
      endloop
   endfacet
   facet normal -9.182422e-001 3.960194e-001 0.000000e+000
      outer loop
         vertex 6.522219e+000 1.945855e+000 3.876313e+000
         vertex 6.667529e+000 2.257473e+000 1.000000e+001
         vertex 6.667529e+000 2.257473e+000 3.876313e+000
      endloop
   endfacet
   facet normal -9.579706e-001 2.868663e-001 0.000000e+000
      outer loop
         vertex 6.667529e+000 2.257473e+000 3.876313e+000
         vertex 6.667529e+000 2.257473e+000 1.000000e+001
         vertex 6.756519e+000 2.589589e+000 1.000000e+001
      endloop
   endfacet
   facet normal -9.730600e-001 2.305519e-001 0.000000e+000
      outer loop
         vertex 6.667529e+000 2.257473e+000 3.876313e+000
         vertex 6.756519e+000 2.589589e+000 1.000000e+001
         vertex 6.756519e+000 2.589589e+000 3.876313e+000
      endloop
   endfacet
   facet normal -9.932307e-001 1.161583e-001 0.000000e+000
      outer loop
         vertex 6.756519e+000 2.589589e+000 3.876313e+000
         vertex 6.756519e+000 2.589589e+000 1.000000e+001
         vertex 6.786486e+000 2.932113e+000 1.000000e+001
      endloop
   endfacet
   facet normal -9.983119e-001 5.807913e-002 0.000000e+000
      outer loop
         vertex 6.756519e+000 2.589589e+000 3.876313e+000
         vertex 6.786486e+000 2.932113e+000 1.000000e+001
         vertex 6.786486e+000 2.932113e+000 3.876313e+000
      endloop
   endfacet
   facet normal 1.000000e+000 0.000000e+000 0.000000e+000
      outer loop
         vertex 2.841453e+000 2.932113e+000 3.876313e+000
         vertex 2.841453e+000 1.000000e+001 3.876313e+000
         vertex 2.841453e+000 2.932113e+000 1.000000e+001
      endloop
   endfacet
   facet normal 1.000000e+000 0.000000e+000 0.000000e+000
      outer loop
         vertex 2.841453e+000 2.932113e+000 1.000000e+001
         vertex 2.841453e+000 1.000000e+001 3.876313e+000
         vertex 2.841453e+000 1.000000e+001 1.000000e+001
      endloop
   endfacet
endsolid