solid 20_227
   facet normal -1.000000e+000 0.000000e+000 0.000000e+000
      outer loop
         vertex 0.000000e+000 1.000000e+001 1.000000e+001
         vertex 0.000000e+000 1.000000e+001 0.000000e+000
         vertex 0.000000e+000 0.000000e+000 1.000000e+001
      endloop
   endfacet
   facet normal -1.000000e+000 0.000000e+000 0.000000e+000
      outer loop
         vertex 0.000000e+000 0.000000e+000 1.000000e+001
         vertex 0.000000e+000 1.000000e+001 0.000000e+000
         vertex 0.000000e+000 0.000000e+000 0.000000e+000
      endloop
   endfacet
   facet normal 0.000000e+000 0.000000e+000 1.000000e+000
      outer loop
         vertex 8.779701e+000 3.120445e+000 1.000000e+001
         vertex 8.519843e+000 2.731541e+000 1.000000e+001
         vertex 1.000000e+001 0.000000e+000 1.000000e+001
      endloop
   endfacet
   facet normal 0.000000e+000 0.000000e+000 1.000000e+000
      outer loop
         vertex 3.154572e+000 2.379883e+000 1.000000e+001
         vertex 2.846176e+000 2.731541e+000 1.000000e+001
         vertex 0.000000e+000 0.000000e+000 1.000000e+001
      endloop
   endfacet
   facet normal 0.000000e+000 0.000000e+000 1.000000e+000
      outer loop
         vertex 2.846176e+000 2.731541e+000 1.000000e+001
         vertex 2.586319e+000 3.120445e+000 1.000000e+001
         vertex 0.000000e+000 0.000000e+000 1.000000e+001
      endloop
   endfacet
   facet normal 0.000000e+000 0.000000e+000 1.000000e+000
      outer loop
         vertex 0.000000e+000 0.000000e+000 1.000000e+001
         vertex 2.586319e+000 3.120445e+000 1.000000e+001
         vertex 2.379447e+000 3.539940e+000 1.000000e+001
      endloop
   endfacet
   facet normal 0.000000e+000 0.000000e+000 1.000000e+000
      outer loop
         vertex 0.000000e+000 0.000000e+000 1.000000e+001
         vertex 2.379447e+000 3.539940e+000 1.000000e+001
         vertex 2.229100e+000 3.982848e+000 1.000000e+001
      endloop
   endfacet
   facet normal 0.000000e+000 0.000000e+000 1.000000e+000
      outer loop
         vertex 9.228169e+000 4.441591e+000 1.000000e+001
         vertex 9.136920e+000 3.982848e+000 1.000000e+001
         vertex 1.000000e+001 0.000000e+000 1.000000e+001
      endloop
   endfacet
   facet normal 0.000000e+000 0.000000e+000 1.000000e+000
      outer loop
         vertex 1.000000e+001 0.000000e+000 1.000000e+001
         vertex 9.136920e+000 3.982848e+000 1.000000e+001
         vertex 8.986572e+000 3.539940e+000 1.000000e+001
      endloop
   endfacet
   facet normal 0.000000e+000 0.000000e+000 1.000000e+000
      outer loop
         vertex 1.000000e+001 0.000000e+000 1.000000e+001
         vertex 8.986572e+000 3.539940e+000 1.000000e+001
         vertex 8.779701e+000 3.120445e+000 1.000000e+001
      endloop
   endfacet
   facet normal 0.000000e+000 0.000000e+000 1.000000e+000
      outer loop
         vertex 6.608482e+000 1.454411e+000 1.000000e+001
         vertex 1.000000e+001 0.000000e+000 1.000000e+001
         vertex 7.051390e+000 1.604758e+000 1.000000e+001
      endloop
   endfacet
   facet normal 0.000000e+000 0.000000e+000 1.000000e+000
      outer loop
         vertex 7.051390e+000 1.604758e+000 1.000000e+001
         vertex 1.000000e+001 0.000000e+000 1.000000e+001
         vertex 7.470885e+000 1.811630e+000 1.000000e+001
      endloop
   endfacet
   facet normal 0.000000e+000 0.000000e+000 1.000000e+000
      outer loop
         vertex 4.757537e+000 1.454411e+000 1.000000e+001
         vertex 4.314629e+000 1.604758e+000 1.000000e+001
         vertex 0.000000e+000 0.000000e+000 1.000000e+001
      endloop
   endfacet
   facet normal 0.000000e+000 0.000000e+000 1.000000e+000
      outer loop
         vertex 2.107259e+000 1.000000e+001 1.000000e+001
         vertex 0.000000e+000 1.000000e+001 1.000000e+001
         vertex 2.107259e+000 4.908320e+000 1.000000e+001
      endloop
   endfacet
   facet normal 0.000000e+000 0.000000e+000 1.000000e+000
      outer loop
         vertex 2.107259e+000 4.908320e+000 1.000000e+001
         vertex 0.000000e+000 1.000000e+001 1.000000e+001
         vertex 0.000000e+000 0.000000e+000 1.000000e+001
      endloop
   endfacet
   facet normal 0.000000e+000 0.000000e+000 1.000000e+000
      outer loop
         vertex 2.107259e+000 4.908320e+000 1.000000e+001
         vertex 0.000000e+000 0.000000e+000 1.000000e+001
         vertex 2.137850e+000 4.441591e+000 1.000000e+001
      endloop
   endfacet
   facet normal 0.000000e+000 0.000000e+000 1.000000e+000
      outer loop
         vertex 2.137850e+000 4.441591e+000 1.000000e+001
         vertex 0.000000e+000 0.000000e+000 1.000000e+001
         vertex 2.229100e+000 3.982848e+000 1.000000e+001
      endloop
   endfacet
   facet normal 0.000000e+000 0.000000e+000 1.000000e+000
      outer loop
         vertex 9.228169e+000 4.441591e+000 1.000000e+001
         vertex 1.000000e+001 0.000000e+000 1.000000e+001
         vertex 9.258760e+000 4.908320e+000 1.000000e+001
      endloop
   endfacet
   facet normal 0.000000e+000 0.000000e+000 1.000000e+000
      outer loop
         vertex 9.258760e+000 4.908320e+000 1.000000e+001
         vertex 1.000000e+001 0.000000e+000 1.000000e+001
         vertex 1.000000e+001 1.000000e+001 1.000000e+001
      endloop
   endfacet
   facet normal 0.000000e+000 0.000000e+000 1.000000e+000
      outer loop
         vertex 9.258760e+000 4.908320e+000 1.000000e+001
         vertex 1.000000e+001 1.000000e+001 1.000000e+001
         vertex 9.258760e+000 1.000000e+001 1.000000e+001
      endloop
   endfacet
   facet normal 0.000000e+000 0.000000e+000 1.000000e+000
      outer loop
         vertex 8.519843e+000 2.731541e+000 1.000000e+001
         vertex 8.211447e+000 2.379883e+000 1.000000e+001
         vertex 1.000000e+001 0.000000e+000 1.000000e+001
      endloop
   endfacet
   facet normal 0.000000e+000 0.000000e+000 1.000000e+000
      outer loop
         vertex 1.000000e+001 0.000000e+000 1.000000e+001
         vertex 8.211447e+000 2.379883e+000 1.000000e+001
         vertex 7.859789e+000 2.071487e+000 1.000000e+001
      endloop
   endfacet
   facet normal 0.000000e+000 0.000000e+000 1.000000e+000
      outer loop
         vertex 1.000000e+001 0.000000e+000 1.000000e+001
         vertex 7.859789e+000 2.071487e+000 1.000000e+001
         vertex 7.470885e+000 1.811630e+000 1.000000e+001
      endloop
   endfacet
   facet normal 0.000000e+000 0.000000e+000 1.000000e+000
      outer loop
         vertex 6.608482e+000 1.454411e+000 1.000000e+001
         vertex 6.149739e+000 1.363161e+000 1.000000e+001
         vertex 1.000000e+001 0.000000e+000 1.000000e+001
      endloop
   endfacet
   facet normal 0.000000e+000 0.000000e+000 1.000000e+000
      outer loop
         vertex 1.000000e+001 0.000000e+000 1.000000e+001
         vertex 6.149739e+000 1.363161e+000 1.000000e+001
         vertex 5.683010e+000 1.332570e+000 1.000000e+001
      endloop
   endfacet
   facet normal 0.000000e+000 0.000000e+000 1.000000e+000
      outer loop
         vertex 1.000000e+001 0.000000e+000 1.000000e+001
         vertex 5.683010e+000 1.332570e+000 1.000000e+001
         vertex 0.000000e+000 0.000000e+000 1.000000e+001
      endloop
   endfacet
   facet normal 0.000000e+000 0.000000e+000 1.000000e+000
      outer loop
         vertex 0.000000e+000 0.000000e+000 1.000000e+001
         vertex 5.683010e+000 1.332570e+000 1.000000e+001
         vertex 5.216280e+000 1.363161e+000 1.000000e+001
      endloop
   endfacet
   facet normal 0.000000e+000 0.000000e+000 1.000000e+000
      outer loop
         vertex 0.000000e+000 0.000000e+000 1.000000e+001
         vertex 5.216280e+000 1.363161e+000 1.000000e+001
         vertex 4.757537e+000 1.454411e+000 1.000000e+001
      endloop
   endfacet
   facet normal 0.000000e+000 0.000000e+000 1.000000e+000
      outer loop
         vertex 4.314629e+000 1.604758e+000 1.000000e+001
         vertex 3.895134e+000 1.811630e+000 1.000000e+001
         vertex 0.000000e+000 0.000000e+000 1.000000e+001
      endloop
   endfacet
   facet normal 0.000000e+000 0.000000e+000 1.000000e+000
      outer loop
         vertex 0.000000e+000 0.000000e+000 1.000000e+001
         vertex 3.895134e+000 1.811630e+000 1.000000e+001
         vertex 3.506231e+000 2.071487e+000 1.000000e+001
      endloop
   endfacet
   facet normal 0.000000e+000 0.000000e+000 1.000000e+000
      outer loop
         vertex 0.000000e+000 0.000000e+000 1.000000e+001
         vertex 3.506231e+000 2.071487e+000 1.000000e+001
         vertex 3.154572e+000 2.379883e+000 1.000000e+001
      endloop
   endfacet
   facet normal 1.000000e+000 0.000000e+000 0.000000e+000
      outer loop
         vertex 1.000000e+001 1.000000e+001 0.000000e+000
         vertex 1.000000e+001 1.000000e+001 1.000000e+001
         vertex 1.000000e+001 0.000000e+000 0.000000e+000
      endloop
   endfacet
   facet normal 1.000000e+000 0.000000e+000 0.000000e+000
      outer loop
         vertex 1.000000e+001 0.000000e+000 0.000000e+000
         vertex 1.000000e+001 1.000000e+001 1.000000e+001
         vertex 1.000000e+001 0.000000e+000 1.000000e+001
      endloop
   endfacet
   facet normal 0.000000e+000 0.000000e+000 -1.000000e+000
      outer loop
         vertex 0.000000e+000 1.000000e+001 0.000000e+000
         vertex 1.000000e+001 1.000000e+001 0.000000e+000
         vertex 0.000000e+000 0.000000e+000 0.000000e+000
      endloop
   endfacet
   facet normal 0.000000e+000 0.000000e+000 -1.000000e+000
      outer loop
         vertex 0.000000e+000 0.000000e+000 0.000000e+000
         vertex 1.000000e+001 1.000000e+001 0.000000e+000
         vertex 1.000000e+001 0.000000e+000 0.000000e+000
      endloop
   endfacet
   facet normal 0.000000e+000 1.000000e+000 0.000000e+000
      outer loop
         vertex 9.258760e+000 1.000000e+001 1.000000e+001
         vertex 1.000000e+001 1.000000e+001 1.000000e+001
         vertex 9.258760e+000 1.000000e+001 6.038855e+000
      endloop
   endfacet
   facet normal 0.000000e+000 1.000000e+000 0.000000e+000
      outer loop
         vertex 9.258760e+000 1.000000e+001 6.038855e+000
         vertex 1.000000e+001 1.000000e+001 1.000000e+001
         vertex 1.000000e+001 1.000000e+001 0.000000e+000
      endloop
   endfacet
   facet normal 0.000000e+000 1.000000e+000 0.000000e+000
      outer loop
         vertex 9.258760e+000 1.000000e+001 6.038855e+000
         vertex 1.000000e+001 1.000000e+001 0.000000e+000
         vertex 2.107259e+000 1.000000e+001 6.038855e+000
      endloop
   endfacet
   facet normal 0.000000e+000 1.000000e+000 0.000000e+000
      outer loop
         vertex 2.107259e+000 1.000000e+001 6.038855e+000
         vertex 1.000000e+001 1.000000e+001 0.000000e+000
         vertex 0.000000e+000 1.000000e+001 0.000000e+000
      endloop
   endfacet
   facet normal 0.000000e+000 1.000000e+000 0.000000e+000
      outer loop
         vertex 2.107259e+000 1.000000e+001 6.038855e+000
         vertex 0.000000e+000 1.000000e+001 0.000000e+000
         vertex 2.107259e+000 1.000000e+001 1.000000e+001
      endloop
   endfacet
   facet normal 0.000000e+000 1.000000e+000 0.000000e+000
      outer loop
         vertex 2.107259e+000 1.000000e+001 1.000000e+001
         vertex 0.000000e+000 1.000000e+001 0.000000e+000
         vertex 0.000000e+000 1.000000e+001 1.000000e+001
      endloop
   endfacet
   facet normal 0.000000e+000 -1.000000e+000 0.000000e+000
      outer loop
         vertex 1.000000e+001 0.000000e+000 0.000000e+000
         vertex 1.000000e+001 0.000000e+000 1.000000e+001
         vertex 0.000000e+000 0.000000e+000 0.000000e+000
      endloop
   endfacet
   facet normal 0.000000e+000 -1.000000e+000 0.000000e+000
      outer loop
         vertex 0.000000e+000 0.000000e+000 0.000000e+000
         vertex 1.000000e+001 0.000000e+000 1.000000e+001
         vertex 0.000000e+000 0.000000e+000 1.000000e+001
      endloop
   endfacet
   facet normal 0.000000e+000 0.000000e+000 1.000000e+000
      outer loop
         vertex 8.986572e+000 3.539940e+000 6.038855e+000
         vertex 9.136920e+000 3.982848e+000 6.038855e+000
         vertex 2.107259e+000 4.908320e+000 6.038855e+000
      endloop
   endfacet
   facet normal 0.000000e+000 0.000000e+000 1.000000e+000
      outer loop
         vertex 2.229100e+000 3.982848e+000 6.038855e+000
         vertex 2.379447e+000 3.539940e+000 6.038855e+000
         vertex 8.779701e+000 3.120445e+000 6.038855e+000
      endloop
   endfacet
   facet normal 0.000000e+000 0.000000e+000 1.000000e+000
      outer loop
         vertex 9.258760e+000 1.000000e+001 6.038855e+000
         vertex 2.107259e+000 1.000000e+001 6.038855e+000
         vertex 9.258760e+000 4.908320e+000 6.038855e+000
      endloop
   endfacet
   facet normal 0.000000e+000 0.000000e+000 1.000000e+000
      outer loop
         vertex 9.258760e+000 4.908320e+000 6.038855e+000
         vertex 2.107259e+000 1.000000e+001 6.038855e+000
         vertex 2.107259e+000 4.908320e+000 6.038855e+000
      endloop
   endfacet
   facet normal 0.000000e+000 0.000000e+000 1.000000e+000
      outer loop
         vertex 9.258760e+000 4.908320e+000 6.038855e+000
         vertex 2.107259e+000 4.908320e+000 6.038855e+000
         vertex 9.228169e+000 4.441591e+000 6.038855e+000
      endloop
   endfacet
   facet normal 0.000000e+000 0.000000e+000 1.000000e+000
      outer loop
         vertex 9.228169e+000 4.441591e+000 6.038855e+000
         vertex 2.107259e+000 4.908320e+000 6.038855e+000
         vertex 9.136920e+000 3.982848e+000 6.038855e+000
      endloop
   endfacet
   facet normal 0.000000e+000 0.000000e+000 1.000000e+000
      outer loop
         vertex 8.986572e+000 3.539940e+000 6.038855e+000
         vertex 2.107259e+000 4.908320e+000 6.038855e+000
         vertex 8.779701e+000 3.120445e+000 6.038855e+000
      endloop
   endfacet
   facet normal 0.000000e+000 0.000000e+000 1.000000e+000
      outer loop
         vertex 8.779701e+000 3.120445e+000 6.038855e+000
         vertex 2.107259e+000 4.908320e+000 6.038855e+000
         vertex 2.137850e+000 4.441591e+000 6.038855e+000
      endloop
   endfacet
   facet normal 0.000000e+000 0.000000e+000 1.000000e+000
      outer loop
         vertex 8.779701e+000 3.120445e+000 6.038855e+000
         vertex 2.137850e+000 4.441591e+000 6.038855e+000
         vertex 2.229100e+000 3.982848e+000 6.038855e+000
      endloop
   endfacet
   facet normal 0.000000e+000 0.000000e+000 1.000000e+000
      outer loop
         vertex 4.757537e+000 1.454411e+000 6.038855e+000
         vertex 5.216280e+000 1.363161e+000 6.038855e+000
         vertex 5.683010e+000 1.332570e+000 6.038855e+000
      endloop
   endfacet
   facet normal 0.000000e+000 0.000000e+000 1.000000e+000
      outer loop
         vertex 7.051390e+000 1.604758e+000 6.038855e+000
         vertex 3.895134e+000 1.811630e+000 6.038855e+000
         vertex 6.608482e+000 1.454411e+000 6.038855e+000
      endloop
   endfacet
   facet normal 0.000000e+000 0.000000e+000 1.000000e+000
      outer loop
         vertex 6.608482e+000 1.454411e+000 6.038855e+000
         vertex 3.895134e+000 1.811630e+000 6.038855e+000
         vertex 6.149739e+000 1.363161e+000 6.038855e+000
      endloop
   endfacet
   facet normal 0.000000e+000 0.000000e+000 1.000000e+000
      outer loop
         vertex 3.154572e+000 2.379883e+000 6.038855e+000
         vertex 3.506231e+000 2.071487e+000 6.038855e+000
         vertex 8.779701e+000 3.120445e+000 6.038855e+000
      endloop
   endfacet
   facet normal 0.000000e+000 0.000000e+000 1.000000e+000
      outer loop
         vertex 8.779701e+000 3.120445e+000 6.038855e+000
         vertex 3.506231e+000 2.071487e+000 6.038855e+000
         vertex 3.895134e+000 1.811630e+000 6.038855e+000
      endloop
   endfacet
   facet normal 0.000000e+000 0.000000e+000 1.000000e+000
      outer loop
         vertex 8.779701e+000 3.120445e+000 6.038855e+000
         vertex 3.895134e+000 1.811630e+000 6.038855e+000
         vertex 8.519843e+000 2.731541e+000 6.038855e+000
      endloop
   endfacet
   facet normal 0.000000e+000 0.000000e+000 1.000000e+000
      outer loop
         vertex 8.519843e+000 2.731541e+000 6.038855e+000
         vertex 3.895134e+000 1.811630e+000 6.038855e+000
         vertex 8.211447e+000 2.379883e+000 6.038855e+000
      endloop
   endfacet
   facet normal 0.000000e+000 0.000000e+000 1.000000e+000
      outer loop
         vertex 2.379447e+000 3.539940e+000 6.038855e+000
         vertex 2.586319e+000 3.120445e+000 6.038855e+000
         vertex 8.779701e+000 3.120445e+000 6.038855e+000
      endloop
   endfacet
   facet normal 0.000000e+000 0.000000e+000 1.000000e+000
      outer loop
         vertex 8.779701e+000 3.120445e+000 6.038855e+000
         vertex 2.586319e+000 3.120445e+000 6.038855e+000
         vertex 2.846176e+000 2.731541e+000 6.038855e+000
      endloop
   endfacet
   facet normal 0.000000e+000 0.000000e+000 1.000000e+000
      outer loop
         vertex 8.779701e+000 3.120445e+000 6.038855e+000
         vertex 2.846176e+000 2.731541e+000 6.038855e+000
         vertex 3.154572e+000 2.379883e+000 6.038855e+000
      endloop
   endfacet
   facet normal 0.000000e+000 0.000000e+000 1.000000e+000
      outer loop
         vertex 7.051390e+000 1.604758e+000 6.038855e+000
         vertex 7.470885e+000 1.811630e+000 6.038855e+000
         vertex 3.895134e+000 1.811630e+000 6.038855e+000
      endloop
   endfacet
   facet normal 0.000000e+000 0.000000e+000 1.000000e+000
      outer loop
         vertex 3.895134e+000 1.811630e+000 6.038855e+000
         vertex 7.470885e+000 1.811630e+000 6.038855e+000
         vertex 7.859789e+000 2.071487e+000 6.038855e+000
      endloop
   endfacet
   facet normal 0.000000e+000 0.000000e+000 1.000000e+000
      outer loop
         vertex 3.895134e+000 1.811630e+000 6.038855e+000
         vertex 7.859789e+000 2.071487e+000 6.038855e+000
         vertex 8.211447e+000 2.379883e+000 6.038855e+000
      endloop
   endfacet
   facet normal 0.000000e+000 0.000000e+000 1.000000e+000
      outer loop
         vertex 6.149739e+000 1.363161e+000 6.038855e+000
         vertex 3.895134e+000 1.811630e+000 6.038855e+000
         vertex 5.683010e+000 1.332570e+000 6.038855e+000
      endloop
   endfacet
   facet normal 0.000000e+000 0.000000e+000 1.000000e+000
      outer loop
         vertex 5.683010e+000 1.332570e+000 6.038855e+000
         vertex 3.895134e+000 1.811630e+000 6.038855e+000
         vertex 4.314629e+000 1.604758e+000 6.038855e+000
      endloop
   endfacet
   facet normal 0.000000e+000 0.000000e+000 1.000000e+000
      outer loop
         vertex 5.683010e+000 1.332570e+000 6.038855e+000
         vertex 4.314629e+000 1.604758e+000 6.038855e+000
         vertex 4.757537e+000 1.454411e+000 6.038855e+000
      endloop
   endfacet
   facet normal -1.000000e+000 0.000000e+000 0.000000e+000
      outer loop
         vertex 9.258760e+000 1.000000e+001 6.038855e+000
         vertex 9.258760e+000 4.908320e+000 6.038855e+000
         vertex 9.258760e+000 1.000000e+001 1.000000e+001
      endloop
   endfacet
   facet normal -1.000000e+000 0.000000e+000 0.000000e+000
      outer loop
         vertex 9.258760e+000 1.000000e+001 1.000000e+001
         vertex 9.258760e+000 4.908320e+000 6.038855e+000
         vertex 9.258760e+000 4.908320e+000 1.000000e+001
      endloop
   endfacet
   facet normal 9.990495e-001 4.359168e-002 0.000000e+000
      outer loop
         vertex 2.107259e+000 4.908320e+000 6.038855e+000
         vertex 2.107259e+000 4.908320e+000 1.000000e+001
         vertex 2.137850e+000 4.441591e+000 1.000000e+001
      endloop
   endfacet
   facet normal 9.961922e-001 8.718336e-002 0.000000e+000
      outer loop
         vertex 2.107259e+000 4.908320e+000 6.038855e+000
         vertex 2.137850e+000 4.441591e+000 1.000000e+001
         vertex 2.137850e+000 4.441591e+000 6.038855e+000
      endloop
   endfacet
   facet normal 9.848126e-001 1.736209e-001 0.000000e+000
      outer loop
         vertex 2.137850e+000 4.441591e+000 6.038855e+000
         vertex 2.137850e+000 4.441591e+000 1.000000e+001
         vertex 2.229100e+000 3.982848e+000 1.000000e+001
      endloop
   endfacet
   facet normal 9.762900e-001 2.164667e-001 0.000000e+000
      outer loop
         vertex 2.137850e+000 4.441591e+000 6.038855e+000
         vertex 2.229100e+000 3.982848e+000 1.000000e+001
         vertex 2.229100e+000 3.982848e+000 6.038855e+000
      endloop
   endfacet
   facet normal 9.537253e-001 3.006794e-001 0.000000e+000
      outer loop
         vertex 2.229100e+000 3.982848e+000 6.038855e+000
         vertex 2.229100e+000 3.982848e+000 1.000000e+001
         vertex 2.379447e+000 3.539940e+000 1.000000e+001
      endloop
   endfacet
   facet normal 9.396831e-001 3.420462e-001 0.000000e+000
      outer loop
         vertex 2.229100e+000 3.982848e+000 6.038855e+000
         vertex 2.379447e+000 3.539940e+000 1.000000e+001
         vertex 2.379447e+000 3.539940e+000 6.038855e+000
      endloop
   endfacet
   facet normal 9.063195e-001 4.225931e-001 0.000000e+000
      outer loop
         vertex 2.379447e+000 3.539940e+000 6.038855e+000
         vertex 2.379447e+000 3.539940e+000 1.000000e+001
         vertex 2.586319e+000 3.120445e+000 1.000000e+001
      endloop
   endfacet
   facet normal 8.869980e-001 4.617732e-001 0.000000e+000
      outer loop
         vertex 2.379447e+000 3.539940e+000 6.038855e+000
         vertex 2.586319e+000 3.120445e+000 1.000000e+001
         vertex 2.586319e+000 3.120445e+000 6.038855e+000
      endloop
   endfacet
   facet normal 8.434063e-001 5.372763e-001 0.000000e+000
      outer loop
         vertex 2.586319e+000 3.120445e+000 6.038855e+000
         vertex 2.586319e+000 3.120445e+000 1.000000e+001
         vertex 2.846176e+000 2.731541e+000 1.000000e+001
      endloop
   endfacet
   facet normal 8.191361e-001 5.735992e-001 0.000000e+000
      outer loop
         vertex 2.586319e+000 3.120445e+000 6.038855e+000
         vertex 2.846176e+000 2.731541e+000 1.000000e+001
         vertex 2.846176e+000 2.731541e+000 6.038855e+000
      endloop
   endfacet
   facet normal 7.660623e-001 6.427664e-001 0.000000e+000
      outer loop
         vertex 2.846176e+000 2.731541e+000 6.038855e+000
         vertex 2.846176e+000 2.731541e+000 1.000000e+001
         vertex 3.154572e+000 2.379883e+000 1.000000e+001
      endloop
   endfacet
   facet normal 7.372586e-001 6.756107e-001 0.000000e+000
      outer loop
         vertex 2.846176e+000 2.731541e+000 6.038855e+000
         vertex 3.154572e+000 2.379883e+000 1.000000e+001
         vertex 3.154572e+000 2.379883e+000 6.038855e+000
      endloop
   endfacet
   facet normal 6.756107e-001 7.372586e-001 0.000000e+000
      outer loop
         vertex 3.154572e+000 2.379883e+000 6.038855e+000
         vertex 3.154572e+000 2.379883e+000 1.000000e+001
         vertex 3.506231e+000 2.071487e+000 1.000000e+001
      endloop
   endfacet
   facet normal 6.427664e-001 7.660623e-001 0.000000e+000
      outer loop
         vertex 3.154572e+000 2.379883e+000 6.038855e+000
         vertex 3.506231e+000 2.071487e+000 1.000000e+001
         vertex 3.506231e+000 2.071487e+000 6.038855e+000
      endloop
   endfacet
   facet normal 5.735992e-001 8.191361e-001 0.000000e+000
      outer loop
         vertex 3.506231e+000 2.071487e+000 6.038855e+000
         vertex 3.506231e+000 2.071487e+000 1.000000e+001
         vertex 3.895134e+000 1.811630e+000 1.000000e+001
      endloop
   endfacet
   facet normal 5.372762e-001 8.434064e-001 0.000000e+000
      outer loop
         vertex 3.506231e+000 2.071487e+000 6.038855e+000
         vertex 3.895134e+000 1.811630e+000 1.000000e+001
         vertex 3.895134e+000 1.811630e+000 6.038855e+000
      endloop
   endfacet
   facet normal 4.617732e-001 8.869980e-001 0.000000e+000
      outer loop
         vertex 3.895134e+000 1.811630e+000 6.038855e+000
         vertex 3.895134e+000 1.811630e+000 1.000000e+001
         vertex 4.314629e+000 1.604758e+000 1.000000e+001
      endloop
   endfacet
   facet normal 4.225931e-001 9.063195e-001 0.000000e+000
      outer loop
         vertex 3.895134e+000 1.811630e+000 6.038855e+000
         vertex 4.314629e+000 1.604758e+000 1.000000e+001
         vertex 4.314629e+000 1.604758e+000 6.038855e+000
      endloop
   endfacet
   facet normal 3.420462e-001 9.396831e-001 0.000000e+000
      outer loop
         vertex 4.314629e+000 1.604758e+000 6.038855e+000
         vertex 4.314629e+000 1.604758e+000 1.000000e+001
         vertex 4.757537e+000 1.454411e+000 1.000000e+001
      endloop
   endfacet
   facet normal 3.006794e-001 9.537253e-001 0.000000e+000
      outer loop
         vertex 4.314629e+000 1.604758e+000 6.038855e+000
         vertex 4.757537e+000 1.454411e+000 1.000000e+001
         vertex 4.757537e+000 1.454411e+000 6.038855e+000
      endloop
   endfacet
   facet normal 2.164667e-001 9.762900e-001 0.000000e+000
      outer loop
         vertex 4.757537e+000 1.454411e+000 6.038855e+000
         vertex 4.757537e+000 1.454411e+000 1.000000e+001
         vertex 5.216280e+000 1.363161e+000 1.000000e+001
      endloop
   endfacet
   facet normal 1.736209e-001 9.848126e-001 0.000000e+000
      outer loop
         vertex 4.757537e+000 1.454411e+000 6.038855e+000
         vertex 5.216280e+000 1.363161e+000 1.000000e+001
         vertex 5.216280e+000 1.363161e+000 6.038855e+000
      endloop
   endfacet
   facet normal 8.718336e-002 9.961922e-001 0.000000e+000
      outer loop
         vertex 5.216280e+000 1.363161e+000 6.038855e+000
         vertex 5.216280e+000 1.363161e+000 1.000000e+001
         vertex 5.683010e+000 1.332570e+000 1.000000e+001
      endloop
   endfacet
   facet normal 4.359168e-002 9.990495e-001 0.000000e+000
      outer loop
         vertex 5.216280e+000 1.363161e+000 6.038855e+000
         vertex 5.683010e+000 1.332570e+000 1.000000e+001
         vertex 5.683010e+000 1.332570e+000 6.038855e+000
      endloop
   endfacet
   facet normal -4.359168e-002 9.990495e-001 0.000000e+000
      outer loop
         vertex 5.683010e+000 1.332570e+000 6.038855e+000
         vertex 5.683010e+000 1.332570e+000 1.000000e+001
         vertex 6.149739e+000 1.363161e+000 1.000000e+001
      endloop
   endfacet
   facet normal -8.718336e-002 9.961922e-001 0.000000e+000
      outer loop
         vertex 5.683010e+000 1.332570e+000 6.038855e+000
         vertex 6.149739e+000 1.363161e+000 1.000000e+001
         vertex 6.149739e+000 1.363161e+000 6.038855e+000
      endloop
   endfacet
   facet normal -1.736209e-001 9.848126e-001 0.000000e+000
      outer loop
         vertex 6.149739e+000 1.363161e+000 6.038855e+000
         vertex 6.149739e+000 1.363161e+000 1.000000e+001
         vertex 6.608482e+000 1.454411e+000 1.000000e+001
      endloop
   endfacet
   facet normal -2.164667e-001 9.762900e-001 0.000000e+000
      outer loop
         vertex 6.149739e+000 1.363161e+000 6.038855e+000
         vertex 6.608482e+000 1.454411e+000 1.000000e+001
         vertex 6.608482e+000 1.454411e+000 6.038855e+000
      endloop
   endfacet
   facet normal -3.006794e-001 9.537253e-001 0.000000e+000
      outer loop
         vertex 6.608482e+000 1.454411e+000 6.038855e+000
         vertex 6.608482e+000 1.454411e+000 1.000000e+001
         vertex 7.051390e+000 1.604758e+000 1.000000e+001
      endloop
   endfacet
   facet normal -3.420462e-001 9.396831e-001 0.000000e+000
      outer loop
         vertex 6.608482e+000 1.454411e+000 6.038855e+000
         vertex 7.051390e+000 1.604758e+000 1.000000e+001
         vertex 7.051390e+000 1.604758e+000 6.038855e+000
      endloop
   endfacet
   facet normal -4.225931e-001 9.063195e-001 0.000000e+000
      outer loop
         vertex 7.051390e+000 1.604758e+000 6.038855e+000
         vertex 7.051390e+000 1.604758e+000 1.000000e+001
         vertex 7.470885e+000 1.811630e+000 1.000000e+001
      endloop
   endfacet
   facet normal -4.617732e-001 8.869980e-001 0.000000e+000
      outer loop
         vertex 7.051390e+000 1.604758e+000 6.038855e+000
         vertex 7.470885e+000 1.811630e+000 1.000000e+001
         vertex 7.470885e+000 1.811630e+000 6.038855e+000
      endloop
   endfacet
   facet normal -5.372763e-001 8.434063e-001 0.000000e+000
      outer loop
         vertex 7.470885e+000 1.811630e+000 6.038855e+000
         vertex 7.470885e+000 1.811630e+000 1.000000e+001
         vertex 7.859789e+000 2.071487e+000 1.000000e+001
      endloop
   endfacet
   facet normal -5.735992e-001 8.191361e-001 0.000000e+000
      outer loop
         vertex 7.470885e+000 1.811630e+000 6.038855e+000
         vertex 7.859789e+000 2.071487e+000 1.000000e+001
         vertex 7.859789e+000 2.071487e+000 6.038855e+000
      endloop
   endfacet
   facet normal -6.427664e-001 7.660623e-001 0.000000e+000
      outer loop
         vertex 7.859789e+000 2.071487e+000 6.038855e+000
         vertex 7.859789e+000 2.071487e+000 1.000000e+001
         vertex 8.211447e+000 2.379883e+000 1.000000e+001
      endloop
   endfacet
   facet normal -6.756107e-001 7.372586e-001 0.000000e+000
      outer loop
         vertex 7.859789e+000 2.071487e+000 6.038855e+000
         vertex 8.211447e+000 2.379883e+000 1.000000e+001
         vertex 8.211447e+000 2.379883e+000 6.038855e+000
      endloop
   endfacet
   facet normal -7.372586e-001 6.756107e-001 0.000000e+000
      outer loop
         vertex 8.211447e+000 2.379883e+000 6.038855e+000
         vertex 8.211447e+000 2.379883e+000 1.000000e+001
         vertex 8.519843e+000 2.731541e+000 1.000000e+001
      endloop
   endfacet
   facet normal -7.660623e-001 6.427664e-001 0.000000e+000
      outer loop
         vertex 8.211447e+000 2.379883e+000 6.038855e+000
         vertex 8.519843e+000 2.731541e+000 1.000000e+001
         vertex 8.519843e+000 2.731541e+000 6.038855e+000
      endloop
   endfacet
   facet normal -8.191361e-001 5.735992e-001 0.000000e+000
      outer loop
         vertex 8.519843e+000 2.731541e+000 6.038855e+000
         vertex 8.519843e+000 2.731541e+000 1.000000e+001
         vertex 8.779701e+000 3.120445e+000 1.000000e+001
      endloop
   endfacet
   facet normal -8.434064e-001 5.372762e-001 0.000000e+000
      outer loop
         vertex 8.519843e+000 2.731541e+000 6.038855e+000
         vertex 8.779701e+000 3.120445e+000 1.000000e+001
         vertex 8.779701e+000 3.120445e+000 6.038855e+000
      endloop
   endfacet
   facet normal -8.869980e-001 4.617732e-001 0.000000e+000
      outer loop
         vertex 8.779701e+000 3.120445e+000 6.038855e+000
         vertex 8.779701e+000 3.120445e+000 1.000000e+001
         vertex 8.986572e+000 3.539940e+000 1.000000e+001
      endloop
   endfacet
   facet normal -9.063195e-001 4.225931e-001 0.000000e+000
      outer loop
         vertex 8.779701e+000 3.120445e+000 6.038855e+000
         vertex 8.986572e+000 3.539940e+000 1.000000e+001
         vertex 8.986572e+000 3.539940e+000 6.038855e+000
      endloop
   endfacet
   facet normal -9.396831e-001 3.420462e-001 0.000000e+000
      outer loop
         vertex 8.986572e+000 3.539940e+000 6.038855e+000
         vertex 8.986572e+000 3.539940e+000 1.000000e+001
         vertex 9.136920e+000 3.982848e+000 1.000000e+001
      endloop
   endfacet
   facet normal -9.537253e-001 3.006794e-001 0.000000e+000
      outer loop
         vertex 8.986572e+000 3.539940e+000 6.038855e+000
         vertex 9.136920e+000 3.982848e+000 1.000000e+001
         vertex 9.136920e+000 3.982848e+000 6.038855e+000
      endloop
   endfacet
   facet normal -9.762900e-001 2.164667e-001 0.000000e+000
      outer loop
         vertex 9.136920e+000 3.982848e+000 6.038855e+000
         vertex 9.136920e+000 3.982848e+000 1.000000e+001
         vertex 9.228169e+000 4.441591e+000 1.000000e+001
      endloop
   endfacet
   facet normal -9.848126e-001 1.736209e-001 0.000000e+000
      outer loop
         vertex 9.136920e+000 3.982848e+000 6.038855e+000
         vertex 9.228169e+000 4.441591e+000 1.000000e+001
         vertex 9.228169e+000 4.441591e+000 6.038855e+000
      endloop
   endfacet
   facet normal -9.961922e-001 8.718336e-002 0.000000e+000
      outer loop
         vertex 9.228169e+000 4.441591e+000 6.038855e+000
         vertex 9.228169e+000 4.441591e+000 1.000000e+001
         vertex 9.258760e+000 4.908320e+000 1.000000e+001
      endloop
   endfacet
   facet normal -9.990495e-001 4.359168e-002 0.000000e+000
      outer loop
         vertex 9.228169e+000 4.441591e+000 6.038855e+000
         vertex 9.258760e+000 4.908320e+000 1.000000e+001
         vertex 9.258760e+000 4.908320e+000 6.038855e+000
      endloop
   endfacet
   facet normal 1.000000e+000 0.000000e+000 0.000000e+000
      outer loop
         vertex 2.107259e+000 4.908320e+000 6.038855e+000
         vertex 2.107259e+000 1.000000e+001 6.038855e+000
         vertex 2.107259e+000 4.908320e+000 1.000000e+001
      endloop
   endfacet
   facet normal 1.000000e+000 0.000000e+000 0.000000e+000
      outer loop
         vertex 2.107259e+000 4.908320e+000 1.000000e+001
         vertex 2.107259e+000 1.000000e+001 6.038855e+000
         vertex 2.107259e+000 1.000000e+001 1.000000e+001
      endloop
   endfacet
endsolid