solid 20_322
   facet normal -1.000000e+000 0.000000e+000 0.000000e+000
      outer loop
         vertex 0.000000e+000 1.000000e+001 1.000000e+001
         vertex 0.000000e+000 1.000000e+001 0.000000e+000
         vertex 0.000000e+000 0.000000e+000 1.000000e+001
      endloop
   endfacet
   facet normal -1.000000e+000 0.000000e+000 0.000000e+000
      outer loop
         vertex 0.000000e+000 0.000000e+000 1.000000e+001
         vertex 0.000000e+000 1.000000e+001 0.000000e+000
         vertex 0.000000e+000 0.000000e+000 0.000000e+000
      endloop
   endfacet
   facet normal 0.000000e+000 0.000000e+000 1.000000e+000
      outer loop
         vertex 7.990344e+000 4.802992e+000 1.000000e+001
         vertex 8.141092e+000 4.439055e+000 1.000000e+001
         vertex 1.000000e+001 1.000000e+001 1.000000e+001
      endloop
   endfacet
   facet normal 0.000000e+000 0.000000e+000 1.000000e+000
      outer loop
         vertex 1.000000e+001 1.000000e+001 1.000000e+001
         vertex 8.141092e+000 4.439055e+000 1.000000e+001
         vertex 8.233051e+000 4.056015e+000 1.000000e+001
      endloop
   endfacet
   facet normal 0.000000e+000 0.000000e+000 1.000000e+000
      outer loop
         vertex 1.000000e+001 1.000000e+001 1.000000e+001
         vertex 8.233051e+000 4.056015e+000 1.000000e+001
         vertex 1.000000e+001 0.000000e+000 1.000000e+001
      endloop
   endfacet
   facet normal 0.000000e+000 0.000000e+000 1.000000e+000
      outer loop
         vertex 1.000000e+001 0.000000e+000 1.000000e+001
         vertex 8.233051e+000 4.056015e+000 1.000000e+001
         vertex 8.263959e+000 3.663306e+000 1.000000e+001
      endloop
   endfacet
   facet normal 0.000000e+000 0.000000e+000 1.000000e+000
      outer loop
         vertex 1.000000e+001 0.000000e+000 1.000000e+001
         vertex 8.263959e+000 3.663306e+000 1.000000e+001
         vertex 8.263959e+000 0.000000e+000 1.000000e+001
      endloop
   endfacet
   facet normal 0.000000e+000 0.000000e+000 1.000000e+000
      outer loop
         vertex 0.000000e+000 0.000000e+000 1.000000e+001
         vertex 3.243208e+000 0.000000e+000 1.000000e+001
         vertex 3.243208e+000 3.663306e+000 1.000000e+001
      endloop
   endfacet
   facet normal 0.000000e+000 0.000000e+000 1.000000e+000
      outer loop
         vertex 0.000000e+000 1.000000e+001 1.000000e+001
         vertex 5.360874e+000 6.142775e+000 1.000000e+001
         vertex 1.000000e+001 1.000000e+001 1.000000e+001
      endloop
   endfacet
   facet normal 0.000000e+000 0.000000e+000 1.000000e+000
      outer loop
         vertex 1.000000e+001 1.000000e+001 1.000000e+001
         vertex 5.360874e+000 6.142775e+000 1.000000e+001
         vertex 5.753583e+000 6.173681e+000 1.000000e+001
      endloop
   endfacet
   facet normal 0.000000e+000 0.000000e+000 1.000000e+000
      outer loop
         vertex 1.000000e+001 1.000000e+001 1.000000e+001
         vertex 5.753583e+000 6.173681e+000 1.000000e+001
         vertex 6.146292e+000 6.142775e+000 1.000000e+001
      endloop
   endfacet
   facet normal 0.000000e+000 0.000000e+000 1.000000e+000
      outer loop
         vertex 0.000000e+000 0.000000e+000 1.000000e+001
         vertex 3.243208e+000 3.663306e+000 1.000000e+001
         vertex 0.000000e+000 1.000000e+001 1.000000e+001
      endloop
   endfacet
   facet normal 0.000000e+000 0.000000e+000 1.000000e+000
      outer loop
         vertex 6.146292e+000 6.142775e+000 1.000000e+001
         vertex 6.529332e+000 6.050815e+000 1.000000e+001
         vertex 1.000000e+001 1.000000e+001 1.000000e+001
      endloop
   endfacet
   facet normal 0.000000e+000 0.000000e+000 1.000000e+000
      outer loop
         vertex 1.000000e+001 1.000000e+001 1.000000e+001
         vertex 6.529332e+000 6.050815e+000 1.000000e+001
         vertex 6.893270e+000 5.900067e+000 1.000000e+001
      endloop
   endfacet
   facet normal 0.000000e+000 0.000000e+000 1.000000e+000
      outer loop
         vertex 1.000000e+001 1.000000e+001 1.000000e+001
         vertex 6.893270e+000 5.900067e+000 1.000000e+001
         vertex 7.229145e+000 5.694242e+000 1.000000e+001
      endloop
   endfacet
   facet normal 0.000000e+000 0.000000e+000 1.000000e+000
      outer loop
         vertex 3.243208e+000 3.663306e+000 1.000000e+001
         vertex 3.274115e+000 4.056015e+000 1.000000e+001
         vertex 0.000000e+000 1.000000e+001 1.000000e+001
      endloop
   endfacet
   facet normal 0.000000e+000 0.000000e+000 1.000000e+000
      outer loop
         vertex 0.000000e+000 1.000000e+001 1.000000e+001
         vertex 3.274115e+000 4.056015e+000 1.000000e+001
         vertex 3.366074e+000 4.439055e+000 1.000000e+001
      endloop
   endfacet
   facet normal 0.000000e+000 0.000000e+000 1.000000e+000
      outer loop
         vertex 0.000000e+000 1.000000e+001 1.000000e+001
         vertex 3.366074e+000 4.439055e+000 1.000000e+001
         vertex 3.516822e+000 4.802992e+000 1.000000e+001
      endloop
   endfacet
   facet normal 0.000000e+000 0.000000e+000 1.000000e+000
      outer loop
         vertex 3.516822e+000 4.802992e+000 1.000000e+001
         vertex 3.722647e+000 5.138868e+000 1.000000e+001
         vertex 0.000000e+000 1.000000e+001 1.000000e+001
      endloop
   endfacet
   facet normal 0.000000e+000 0.000000e+000 1.000000e+000
      outer loop
         vertex 0.000000e+000 1.000000e+001 1.000000e+001
         vertex 3.722647e+000 5.138868e+000 1.000000e+001
         vertex 3.978480e+000 5.438410e+000 1.000000e+001
      endloop
   endfacet
   facet normal 0.000000e+000 0.000000e+000 1.000000e+000
      outer loop
         vertex 0.000000e+000 1.000000e+001 1.000000e+001
         vertex 3.978480e+000 5.438410e+000 1.000000e+001
         vertex 4.278021e+000 5.694242e+000 1.000000e+001
      endloop
   endfacet
   facet normal 0.000000e+000 0.000000e+000 1.000000e+000
      outer loop
         vertex 7.229145e+000 5.694242e+000 1.000000e+001
         vertex 7.528687e+000 5.438410e+000 1.000000e+001
         vertex 1.000000e+001 1.000000e+001 1.000000e+001
      endloop
   endfacet
   facet normal 0.000000e+000 0.000000e+000 1.000000e+000
      outer loop
         vertex 1.000000e+001 1.000000e+001 1.000000e+001
         vertex 7.528687e+000 5.438410e+000 1.000000e+001
         vertex 7.784519e+000 5.138868e+000 1.000000e+001
      endloop
   endfacet
   facet normal 0.000000e+000 0.000000e+000 1.000000e+000
      outer loop
         vertex 1.000000e+001 1.000000e+001 1.000000e+001
         vertex 7.784519e+000 5.138868e+000 1.000000e+001
         vertex 7.990344e+000 4.802992e+000 1.000000e+001
      endloop
   endfacet
   facet normal 0.000000e+000 0.000000e+000 1.000000e+000
      outer loop
         vertex 4.278021e+000 5.694242e+000 1.000000e+001
         vertex 4.613896e+000 5.900067e+000 1.000000e+001
         vertex 0.000000e+000 1.000000e+001 1.000000e+001
      endloop
   endfacet
   facet normal 0.000000e+000 0.000000e+000 1.000000e+000
      outer loop
         vertex 0.000000e+000 1.000000e+001 1.000000e+001
         vertex 4.613896e+000 5.900067e+000 1.000000e+001
         vertex 4.977834e+000 6.050815e+000 1.000000e+001
      endloop
   endfacet
   facet normal 0.000000e+000 0.000000e+000 1.000000e+000
      outer loop
         vertex 0.000000e+000 1.000000e+001 1.000000e+001
         vertex 4.977834e+000 6.050815e+000 1.000000e+001
         vertex 5.360874e+000 6.142775e+000 1.000000e+001
      endloop
   endfacet
   facet normal 1.000000e+000 0.000000e+000 0.000000e+000
      outer loop
         vertex 1.000000e+001 1.000000e+001 0.000000e+000
         vertex 1.000000e+001 1.000000e+001 1.000000e+001
         vertex 1.000000e+001 0.000000e+000 0.000000e+000
      endloop
   endfacet
   facet normal 1.000000e+000 0.000000e+000 0.000000e+000
      outer loop
         vertex 1.000000e+001 0.000000e+000 0.000000e+000
         vertex 1.000000e+001 1.000000e+001 1.000000e+001
         vertex 1.000000e+001 0.000000e+000 1.000000e+001
      endloop
   endfacet
   facet normal 0.000000e+000 0.000000e+000 -1.000000e+000
      outer loop
         vertex 0.000000e+000 1.000000e+001 0.000000e+000
         vertex 1.000000e+001 1.000000e+001 0.000000e+000
         vertex 0.000000e+000 0.000000e+000 0.000000e+000
      endloop
   endfacet
   facet normal 0.000000e+000 0.000000e+000 -1.000000e+000
      outer loop
         vertex 0.000000e+000 0.000000e+000 0.000000e+000
         vertex 1.000000e+001 1.000000e+001 0.000000e+000
         vertex 1.000000e+001 0.000000e+000 0.000000e+000
      endloop
   endfacet
   facet normal 0.000000e+000 1.000000e+000 0.000000e+000
      outer loop
         vertex 1.000000e+001 1.000000e+001 1.000000e+001
         vertex 1.000000e+001 1.000000e+001 0.000000e+000
         vertex 0.000000e+000 1.000000e+001 1.000000e+001
      endloop
   endfacet
   facet normal 0.000000e+000 1.000000e+000 0.000000e+000
      outer loop
         vertex 0.000000e+000 1.000000e+001 1.000000e+001
         vertex 1.000000e+001 1.000000e+001 0.000000e+000
         vertex 0.000000e+000 1.000000e+001 0.000000e+000
      endloop
   endfacet
   facet normal 0.000000e+000 -1.000000e+000 0.000000e+000
      outer loop
         vertex 1.000000e+001 0.000000e+000 1.000000e+001
         vertex 8.263959e+000 0.000000e+000 1.000000e+001
         vertex 8.263959e+000 0.000000e+000 6.533978e+000
      endloop
   endfacet
   facet normal 0.000000e+000 -1.000000e+000 0.000000e+000
      outer loop
         vertex 3.243208e+000 0.000000e+000 1.000000e+001
         vertex 0.000000e+000 0.000000e+000 1.000000e+001
         vertex 3.243208e+000 0.000000e+000 6.533978e+000
      endloop
   endfacet
   facet normal 0.000000e+000 -1.000000e+000 0.000000e+000
      outer loop
         vertex 3.243208e+000 0.000000e+000 6.533978e+000
         vertex 0.000000e+000 0.000000e+000 1.000000e+001
         vertex 0.000000e+000 0.000000e+000 0.000000e+000
      endloop
   endfacet
   facet normal 0.000000e+000 -1.000000e+000 0.000000e+000
      outer loop
         vertex 3.243208e+000 0.000000e+000 6.533978e+000
         vertex 0.000000e+000 0.000000e+000 0.000000e+000
         vertex 8.263959e+000 0.000000e+000 6.533978e+000
      endloop
   endfacet
   facet normal 0.000000e+000 -1.000000e+000 0.000000e+000
      outer loop
         vertex 8.263959e+000 0.000000e+000 6.533978e+000
         vertex 0.000000e+000 0.000000e+000 0.000000e+000
         vertex 1.000000e+001 0.000000e+000 0.000000e+000
      endloop
   endfacet
   facet normal 0.000000e+000 -1.000000e+000 0.000000e+000
      outer loop
         vertex 8.263959e+000 0.000000e+000 6.533978e+000
         vertex 1.000000e+001 0.000000e+000 0.000000e+000
         vertex 1.000000e+001 0.000000e+000 1.000000e+001
      endloop
   endfacet
   facet normal 1.000000e+000 0.000000e+000 0.000000e+000
      outer loop
         vertex 3.243208e+000 0.000000e+000 6.533978e+000
         vertex 3.243208e+000 3.663306e+000 6.533978e+000
         vertex 3.243208e+000 0.000000e+000 1.000000e+001
      endloop
   endfacet
   facet normal 1.000000e+000 0.000000e+000 0.000000e+000
      outer loop
         vertex 3.243208e+000 0.000000e+000 1.000000e+001
         vertex 3.243208e+000 3.663306e+000 6.533978e+000
         vertex 3.243208e+000 3.663306e+000 1.000000e+001
      endloop
   endfacet
   facet normal -9.986320e-001 -5.228807e-002 0.000000e+000
      outer loop
         vertex 8.263959e+000 3.663306e+000 6.533978e+000
         vertex 8.263959e+000 3.663306e+000 1.000000e+001
         vertex 8.233051e+000 4.056015e+000 1.000000e+001
      endloop
   endfacet
   facet normal -9.945168e-001 -1.045761e-001 0.000000e+000
      outer loop
         vertex 8.263959e+000 3.663306e+000 6.533978e+000
         vertex 8.233051e+000 4.056015e+000 1.000000e+001
         vertex 8.233051e+000 4.056015e+000 6.533978e+000
      endloop
   endfacet
   facet normal -9.781576e-001 -2.078648e-001 0.000000e+000
      outer loop
         vertex 8.233051e+000 4.056015e+000 6.533978e+000
         vertex 8.233051e+000 4.056015e+000 1.000000e+001
         vertex 8.141092e+000 4.439055e+000 1.000000e+001
      endloop
   endfacet
   facet normal -9.659134e-001 -2.588653e-001 0.000000e+000
      outer loop
         vertex 8.233051e+000 4.056015e+000 6.533978e+000
         vertex 8.141092e+000 4.439055e+000 1.000000e+001
         vertex 8.141092e+000 4.439055e+000 6.533978e+000
      endloop
   endfacet
   facet normal -9.335976e-001 -3.583232e-001 0.000000e+000
      outer loop
         vertex 8.141092e+000 4.439055e+000 6.533978e+000
         vertex 8.141092e+000 4.439055e+000 1.000000e+001
         vertex 7.990344e+000 4.802992e+000 1.000000e+001
      endloop
   endfacet
   facet normal -9.135259e-001 -4.067805e-001 0.000000e+000
      outer loop
         vertex 8.141092e+000 4.439055e+000 6.533978e+000
         vertex 7.990344e+000 4.802992e+000 1.000000e+001
         vertex 7.990344e+000 4.802992e+000 6.533978e+000
      endloop
   endfacet
   facet normal -8.660494e-001 -4.999584e-001 0.000000e+000
      outer loop
         vertex 7.990344e+000 4.802992e+000 6.533978e+000
         vertex 7.990344e+000 4.802992e+000 1.000000e+001
         vertex 7.784519e+000 5.138868e+000 1.000000e+001
      endloop
   endfacet
   facet normal -8.386444e-001 -5.446792e-001 0.000000e+000
      outer loop
         vertex 7.990344e+000 4.802992e+000 6.533978e+000
         vertex 7.784519e+000 5.138868e+000 1.000000e+001
         vertex 7.784519e+000 5.138868e+000 6.533978e+000
      endloop
   endfacet
   facet normal -7.771761e-001 -6.292831e-001 0.000000e+000
      outer loop
         vertex 7.784519e+000 5.138868e+000 6.533978e+000
         vertex 7.784519e+000 5.138868e+000 1.000000e+001
         vertex 7.528687e+000 5.438410e+000 1.000000e+001
      endloop
   endfacet
   facet normal -7.431127e-001 -6.691663e-001 0.000000e+000
      outer loop
         vertex 7.784519e+000 5.138868e+000 6.533978e+000
         vertex 7.528687e+000 5.438410e+000 1.000000e+001
         vertex 7.528687e+000 5.438410e+000 6.533978e+000
      endloop
   endfacet
   facet normal -6.691663e-001 -7.431127e-001 0.000000e+000
      outer loop
         vertex 7.528687e+000 5.438410e+000 6.533978e+000
         vertex 7.528687e+000 5.438410e+000 1.000000e+001
         vertex 7.229145e+000 5.694242e+000 1.000000e+001
      endloop
   endfacet
   facet normal -6.292831e-001 -7.771761e-001 0.000000e+000
      outer loop
         vertex 7.528687e+000 5.438410e+000 6.533978e+000
         vertex 7.229145e+000 5.694242e+000 1.000000e+001
         vertex 7.229145e+000 5.694242e+000 6.533978e+000
      endloop
   endfacet
   facet normal -5.446792e-001 -8.386444e-001 0.000000e+000
      outer loop
         vertex 7.229145e+000 5.694242e+000 6.533978e+000
         vertex 7.229145e+000 5.694242e+000 1.000000e+001
         vertex 6.893270e+000 5.900067e+000 1.000000e+001
      endloop
   endfacet
   facet normal -4.999584e-001 -8.660494e-001 0.000000e+000
      outer loop
         vertex 7.229145e+000 5.694242e+000 6.533978e+000
         vertex 6.893270e+000 5.900067e+000 1.000000e+001
         vertex 6.893270e+000 5.900067e+000 6.533978e+000
      endloop
   endfacet
   facet normal -4.067805e-001 -9.135259e-001 0.000000e+000
      outer loop
         vertex 6.893270e+000 5.900067e+000 6.533978e+000
         vertex 6.893270e+000 5.900067e+000 1.000000e+001
         vertex 6.529332e+000 6.050815e+000 1.000000e+001
      endloop
   endfacet
   facet normal -3.583232e-001 -9.335976e-001 0.000000e+000
      outer loop
         vertex 6.893270e+000 5.900067e+000 6.533978e+000
         vertex 6.529332e+000 6.050815e+000 1.000000e+001
         vertex 6.529332e+000 6.050815e+000 6.533978e+000
      endloop
   endfacet
   facet normal -2.588653e-001 -9.659134e-001 0.000000e+000
      outer loop
         vertex 6.529332e+000 6.050815e+000 6.533978e+000
         vertex 6.529332e+000 6.050815e+000 1.000000e+001
         vertex 6.146292e+000 6.142775e+000 1.000000e+001
      endloop
   endfacet
   facet normal -2.078648e-001 -9.781575e-001 0.000000e+000
      outer loop
         vertex 6.529332e+000 6.050815e+000 6.533978e+000
         vertex 6.146292e+000 6.142775e+000 1.000000e+001
         vertex 6.146292e+000 6.142775e+000 6.533978e+000
      endloop
   endfacet
   facet normal -1.045761e-001 -9.945168e-001 0.000000e+000
      outer loop
         vertex 6.146292e+000 6.142775e+000 6.533978e+000
         vertex 6.146292e+000 6.142775e+000 1.000000e+001
         vertex 5.753583e+000 6.173681e+000 1.000000e+001
      endloop
   endfacet
   facet normal -5.228807e-002 -9.986320e-001 0.000000e+000
      outer loop
         vertex 6.146292e+000 6.142775e+000 6.533978e+000
         vertex 5.753583e+000 6.173681e+000 1.000000e+001
         vertex 5.753583e+000 6.173681e+000 6.533978e+000
      endloop
   endfacet
   facet normal 5.228807e-002 -9.986320e-001 0.000000e+000
      outer loop
         vertex 5.753583e+000 6.173681e+000 6.533978e+000
         vertex 5.753583e+000 6.173681e+000 1.000000e+001
         vertex 5.360874e+000 6.142775e+000 1.000000e+001
      endloop
   endfacet
   facet normal 1.045761e-001 -9.945168e-001 0.000000e+000
      outer loop
         vertex 5.753583e+000 6.173681e+000 6.533978e+000
         vertex 5.360874e+000 6.142775e+000 1.000000e+001
         vertex 5.360874e+000 6.142775e+000 6.533978e+000
      endloop
   endfacet
   facet normal 2.078648e-001 -9.781576e-001 0.000000e+000
      outer loop
         vertex 5.360874e+000 6.142775e+000 6.533978e+000
         vertex 5.360874e+000 6.142775e+000 1.000000e+001
         vertex 4.977834e+000 6.050815e+000 1.000000e+001
      endloop
   endfacet
   facet normal 2.588653e-001 -9.659134e-001 0.000000e+000
      outer loop
         vertex 5.360874e+000 6.142775e+000 6.533978e+000
         vertex 4.977834e+000 6.050815e+000 1.000000e+001
         vertex 4.977834e+000 6.050815e+000 6.533978e+000
      endloop
   endfacet
   facet normal 3.583232e-001 -9.335976e-001 0.000000e+000
      outer loop
         vertex 4.977834e+000 6.050815e+000 6.533978e+000
         vertex 4.977834e+000 6.050815e+000 1.000000e+001
         vertex 4.613896e+000 5.900067e+000 1.000000e+001
      endloop
   endfacet
   facet normal 4.067805e-001 -9.135259e-001 0.000000e+000
      outer loop
         vertex 4.977834e+000 6.050815e+000 6.533978e+000
         vertex 4.613896e+000 5.900067e+000 1.000000e+001
         vertex 4.613896e+000 5.900067e+000 6.533978e+000
      endloop
   endfacet
   facet normal 4.999584e-001 -8.660494e-001 0.000000e+000
      outer loop
         vertex 4.613896e+000 5.900067e+000 6.533978e+000
         vertex 4.613896e+000 5.900067e+000 1.000000e+001
         vertex 4.278021e+000 5.694242e+000 1.000000e+001
      endloop
   endfacet
   facet normal 5.446792e-001 -8.386444e-001 0.000000e+000
      outer loop
         vertex 4.613896e+000 5.900067e+000 6.533978e+000
         vertex 4.278021e+000 5.694242e+000 1.000000e+001
         vertex 4.278021e+000 5.694242e+000 6.533978e+000
      endloop
   endfacet
   facet normal 6.292831e-001 -7.771761e-001 0.000000e+000
      outer loop
         vertex 4.278021e+000 5.694242e+000 6.533978e+000
         vertex 4.278021e+000 5.694242e+000 1.000000e+001
         vertex 3.978480e+000 5.438410e+000 1.000000e+001
      endloop
   endfacet
   facet normal 6.691663e-001 -7.431127e-001 0.000000e+000
      outer loop
         vertex 4.278021e+000 5.694242e+000 6.533978e+000
         vertex 3.978480e+000 5.438410e+000 1.000000e+001
         vertex 3.978480e+000 5.438410e+000 6.533978e+000
      endloop
   endfacet
   facet normal 7.431127e-001 -6.691663e-001 0.000000e+000
      outer loop
         vertex 3.978480e+000 5.438410e+000 6.533978e+000
         vertex 3.978480e+000 5.438410e+000 1.000000e+001
         vertex 3.722647e+000 5.138868e+000 1.000000e+001
      endloop
   endfacet
   facet normal 7.771761e-001 -6.292831e-001 0.000000e+000
      outer loop
         vertex 3.978480e+000 5.438410e+000 6.533978e+000
         vertex 3.722647e+000 5.138868e+000 1.000000e+001
         vertex 3.722647e+000 5.138868e+000 6.533978e+000
      endloop
   endfacet
   facet normal 8.386444e-001 -5.446792e-001 0.000000e+000
      outer loop
         vertex 3.722647e+000 5.138868e+000 6.533978e+000
         vertex 3.722647e+000 5.138868e+000 1.000000e+001
         vertex 3.516822e+000 4.802992e+000 1.000000e+001
      endloop
   endfacet
   facet normal 8.660494e-001 -4.999584e-001 0.000000e+000
      outer loop
         vertex 3.722647e+000 5.138868e+000 6.533978e+000
         vertex 3.516822e+000 4.802992e+000 1.000000e+001
         vertex 3.516822e+000 4.802992e+000 6.533978e+000
      endloop
   endfacet
   facet normal 9.135259e-001 -4.067805e-001 0.000000e+000
      outer loop
         vertex 3.516822e+000 4.802992e+000 6.533978e+000
         vertex 3.516822e+000 4.802992e+000 1.000000e+001
         vertex 3.366074e+000 4.439055e+000 1.000000e+001
      endloop
   endfacet
   facet normal 9.335976e-001 -3.583232e-001 0.000000e+000
      outer loop
         vertex 3.516822e+000 4.802992e+000 6.533978e+000
         vertex 3.366074e+000 4.439055e+000 1.000000e+001
         vertex 3.366074e+000 4.439055e+000 6.533978e+000
      endloop
   endfacet
   facet normal 9.659134e-001 -2.588653e-001 0.000000e+000
      outer loop
         vertex 3.366074e+000 4.439055e+000 6.533978e+000
         vertex 3.366074e+000 4.439055e+000 1.000000e+001
         vertex 3.274115e+000 4.056015e+000 1.000000e+001
      endloop
   endfacet
   facet normal 9.781575e-001 -2.078648e-001 0.000000e+000
      outer loop
         vertex 3.366074e+000 4.439055e+000 6.533978e+000
         vertex 3.274115e+000 4.056015e+000 1.000000e+001
         vertex 3.274115e+000 4.056015e+000 6.533978e+000
      endloop
   endfacet
   facet normal 9.945168e-001 -1.045761e-001 0.000000e+000
      outer loop
         vertex 3.274115e+000 4.056015e+000 6.533978e+000
         vertex 3.274115e+000 4.056015e+000 1.000000e+001
         vertex 3.243208e+000 3.663306e+000 1.000000e+001
      endloop
   endfacet
   facet normal 9.986320e-001 -5.228807e-002 0.000000e+000
      outer loop
         vertex 3.274115e+000 4.056015e+000 6.533978e+000
         vertex 3.243208e+000 3.663306e+000 1.000000e+001
         vertex 3.243208e+000 3.663306e+000 6.533978e+000
      endloop
   endfacet
   facet normal -1.000000e+000 0.000000e+000 0.000000e+000
      outer loop
         vertex 8.263959e+000 3.663306e+000 6.533978e+000
         vertex 8.263959e+000 0.000000e+000 6.533978e+000
         vertex 8.263959e+000 3.663306e+000 1.000000e+001
      endloop
   endfacet
   facet normal -1.000000e+000 0.000000e+000 0.000000e+000
      outer loop
         vertex 8.263959e+000 3.663306e+000 1.000000e+001
         vertex 8.263959e+000 0.000000e+000 6.533978e+000
         vertex 8.263959e+000 0.000000e+000 1.000000e+001
      endloop
   endfacet
   facet normal 0.000000e+000 0.000000e+000 1.000000e+000
      outer loop
         vertex 3.243208e+000 3.663306e+000 6.533978e+000
         vertex 3.243208e+000 0.000000e+000 6.533978e+000
         vertex 8.263959e+000 0.000000e+000 6.533978e+000
      endloop
   endfacet
   facet normal 0.000000e+000 0.000000e+000 1.000000e+000
      outer loop
         vertex 8.263959e+000 0.000000e+000 6.533978e+000
         vertex 8.263959e+000 3.663306e+000 6.533978e+000
         vertex 3.243208e+000 3.663306e+000 6.533978e+000
      endloop
   endfacet
   facet normal 0.000000e+000 0.000000e+000 1.000000e+000
      outer loop
         vertex 3.243208e+000 3.663306e+000 6.533978e+000
         vertex 8.263959e+000 3.663306e+000 6.533978e+000
         vertex 8.233051e+000 4.056015e+000 6.533978e+000
      endloop
   endfacet
   facet normal 0.000000e+000 0.000000e+000 1.000000e+000
      outer loop
         vertex 3.243208e+000 3.663306e+000 6.533978e+000
         vertex 8.233051e+000 4.056015e+000 6.533978e+000
         vertex 8.141092e+000 4.439055e+000 6.533978e+000
      endloop
   endfacet
   facet normal 0.000000e+000 0.000000e+000 1.000000e+000
      outer loop
         vertex 8.141092e+000 4.439055e+000 6.533978e+000
         vertex 7.990344e+000 4.802992e+000 6.533978e+000
         vertex 3.243208e+000 3.663306e+000 6.533978e+000
      endloop
   endfacet
   facet normal 0.000000e+000 0.000000e+000 1.000000e+000
      outer loop
         vertex 3.243208e+000 3.663306e+000 6.533978e+000
         vertex 7.990344e+000 4.802992e+000 6.533978e+000
         vertex 7.784519e+000 5.138868e+000 6.533978e+000
      endloop
   endfacet
   facet normal 0.000000e+000 0.000000e+000 1.000000e+000
      outer loop
         vertex 3.243208e+000 3.663306e+000 6.533978e+000
         vertex 7.784519e+000 5.138868e+000 6.533978e+000
         vertex 7.528687e+000 5.438410e+000 6.533978e+000
      endloop
   endfacet
   facet normal 0.000000e+000 0.000000e+000 1.000000e+000
      outer loop
         vertex 7.528687e+000 5.438410e+000 6.533978e+000
         vertex 7.229145e+000 5.694242e+000 6.533978e+000
         vertex 3.243208e+000 3.663306e+000 6.533978e+000
      endloop
   endfacet
   facet normal 0.000000e+000 0.000000e+000 1.000000e+000
      outer loop
         vertex 3.243208e+000 3.663306e+000 6.533978e+000
         vertex 7.229145e+000 5.694242e+000 6.533978e+000
         vertex 6.893270e+000 5.900067e+000 6.533978e+000
      endloop
   endfacet
   facet normal 0.000000e+000 0.000000e+000 1.000000e+000
      outer loop
         vertex 3.243208e+000 3.663306e+000 6.533978e+000
         vertex 6.893270e+000 5.900067e+000 6.533978e+000
         vertex 6.529332e+000 6.050815e+000 6.533978e+000
      endloop
   endfacet
   facet normal 0.000000e+000 0.000000e+000 1.000000e+000
      outer loop
         vertex 6.529332e+000 6.050815e+000 6.533978e+000
         vertex 6.146292e+000 6.142775e+000 6.533978e+000
         vertex 3.243208e+000 3.663306e+000 6.533978e+000
      endloop
   endfacet
   facet normal 0.000000e+000 0.000000e+000 1.000000e+000
      outer loop
         vertex 3.243208e+000 3.663306e+000 6.533978e+000
         vertex 6.146292e+000 6.142775e+000 6.533978e+000
         vertex 5.753583e+000 6.173681e+000 6.533978e+000
      endloop
   endfacet
   facet normal 0.000000e+000 0.000000e+000 1.000000e+000
      outer loop
         vertex 3.243208e+000 3.663306e+000 6.533978e+000
         vertex 5.753583e+000 6.173681e+000 6.533978e+000
         vertex 5.360874e+000 6.142775e+000 6.533978e+000
      endloop
   endfacet
   facet normal 0.000000e+000 0.000000e+000 1.000000e+000
      outer loop
         vertex 4.613896e+000 5.900067e+000 6.533978e+000
         vertex 3.516822e+000 4.802992e+000 6.533978e+000
         vertex 3.366074e+000 4.439055e+000 6.533978e+000
      endloop
   endfacet
   facet normal 0.000000e+000 0.000000e+000 1.000000e+000
      outer loop
         vertex 4.613896e+000 5.900067e+000 6.533978e+000
         vertex 4.278021e+000 5.694242e+000 6.533978e+000
         vertex 3.516822e+000 4.802992e+000 6.533978e+000
      endloop
   endfacet
   facet normal 0.000000e+000 0.000000e+000 1.000000e+000
      outer loop
         vertex 3.516822e+000 4.802992e+000 6.533978e+000
         vertex 4.278021e+000 5.694242e+000 6.533978e+000
         vertex 3.978480e+000 5.438410e+000 6.533978e+000
      endloop
   endfacet
   facet normal 0.000000e+000 0.000000e+000 1.000000e+000
      outer loop
         vertex 3.516822e+000 4.802992e+000 6.533978e+000
         vertex 3.978480e+000 5.438410e+000 6.533978e+000
         vertex 3.722647e+000 5.138868e+000 6.533978e+000
      endloop
   endfacet
   facet normal 0.000000e+000 0.000000e+000 1.000000e+000
      outer loop
         vertex 5.360874e+000 6.142775e+000 6.533978e+000
         vertex 4.977834e+000 6.050815e+000 6.533978e+000
         vertex 3.243208e+000 3.663306e+000 6.533978e+000
      endloop
   endfacet
   facet normal 0.000000e+000 0.000000e+000 1.000000e+000
      outer loop
         vertex 3.243208e+000 3.663306e+000 6.533978e+000
         vertex 4.977834e+000 6.050815e+000 6.533978e+000
         vertex 4.613896e+000 5.900067e+000 6.533978e+000
      endloop
   endfacet
   facet normal 0.000000e+000 0.000000e+000 1.000000e+000
      outer loop
         vertex 3.243208e+000 3.663306e+000 6.533978e+000
         vertex 4.613896e+000 5.900067e+000 6.533978e+000
         vertex 3.274115e+000 4.056015e+000 6.533978e+000
      endloop
   endfacet
   facet normal 0.000000e+000 0.000000e+000 1.000000e+000
      outer loop
         vertex 3.274115e+000 4.056015e+000 6.533978e+000
         vertex 4.613896e+000 5.900067e+000 6.533978e+000
         vertex 3.366074e+000 4.439055e+000 6.533978e+000
      endloop
   endfacet
endsolid