solid 20_585
   facet normal -1.000000e+000 0.000000e+000 0.000000e+000
      outer loop
         vertex 0.000000e+000 6.729634e+000 1.000000e+001
         vertex 0.000000e+000 1.000000e+001 1.000000e+001
         vertex 0.000000e+000 6.729634e+000 1.750552e+000
      endloop
   endfacet
   facet normal -1.000000e+000 0.000000e+000 0.000000e+000
      outer loop
         vertex 0.000000e+000 6.729634e+000 1.750552e+000
         vertex 0.000000e+000 1.000000e+001 1.000000e+001
         vertex 0.000000e+000 1.000000e+001 0.000000e+000
      endloop
   endfacet
   facet normal -1.000000e+000 0.000000e+000 0.000000e+000
      outer loop
         vertex 0.000000e+000 6.729634e+000 1.750552e+000
         vertex 0.000000e+000 1.000000e+001 0.000000e+000
         vertex 0.000000e+000 2.108632e+000 1.750552e+000
      endloop
   endfacet
   facet normal -1.000000e+000 0.000000e+000 0.000000e+000
      outer loop
         vertex 0.000000e+000 2.108632e+000 1.750552e+000
         vertex 0.000000e+000 1.000000e+001 0.000000e+000
         vertex 0.000000e+000 0.000000e+000 0.000000e+000
      endloop
   endfacet
   facet normal -1.000000e+000 0.000000e+000 0.000000e+000
      outer loop
         vertex 0.000000e+000 2.108632e+000 1.750552e+000
         vertex 0.000000e+000 0.000000e+000 0.000000e+000
         vertex 0.000000e+000 2.108632e+000 1.000000e+001
      endloop
   endfacet
   facet normal -1.000000e+000 0.000000e+000 0.000000e+000
      outer loop
         vertex 0.000000e+000 2.108632e+000 1.000000e+001
         vertex 0.000000e+000 0.000000e+000 0.000000e+000
         vertex 0.000000e+000 0.000000e+000 1.000000e+001
      endloop
   endfacet
   facet normal 0.000000e+000 0.000000e+000 1.000000e+000
      outer loop
         vertex 1.000000e+001 0.000000e+000 1.000000e+001
         vertex 7.957204e+000 2.387108e+000 1.000000e+001
         vertex 7.607746e+000 2.233821e+000 1.000000e+001
      endloop
   endfacet
   facet normal 0.000000e+000 0.000000e+000 1.000000e+000
      outer loop
         vertex 1.000000e+001 1.000000e+001 1.000000e+001
         vertex 8.791801e+000 5.682857e+000 1.000000e+001
         vertex 8.973422e+000 5.347251e+000 1.000000e+001
      endloop
   endfacet
   facet normal 0.000000e+000 0.000000e+000 1.000000e+000
      outer loop
         vertex 0.000000e+000 1.000000e+001 1.000000e+001
         vertex 0.000000e+000 6.729634e+000 1.000000e+001
         vertex 1.000000e+001 1.000000e+001 1.000000e+001
      endloop
   endfacet
   facet normal 0.000000e+000 0.000000e+000 1.000000e+000
      outer loop
         vertex 1.000000e+001 1.000000e+001 1.000000e+001
         vertex 0.000000e+000 6.729634e+000 1.000000e+001
         vertex 6.857527e+000 6.729634e+000 1.000000e+001
      endloop
   endfacet
   facet normal 0.000000e+000 0.000000e+000 1.000000e+000
      outer loop
         vertex 0.000000e+000 2.108632e+000 1.000000e+001
         vertex 0.000000e+000 0.000000e+000 1.000000e+001
         vertex 6.857527e+000 2.108632e+000 1.000000e+001
      endloop
   endfacet
   facet normal 0.000000e+000 0.000000e+000 1.000000e+000
      outer loop
         vertex 6.857527e+000 2.108632e+000 1.000000e+001
         vertex 0.000000e+000 0.000000e+000 1.000000e+001
         vertex 1.000000e+001 0.000000e+000 1.000000e+001
      endloop
   endfacet
   facet normal 0.000000e+000 0.000000e+000 1.000000e+000
      outer loop
         vertex 6.857527e+000 2.108632e+000 1.000000e+001
         vertex 1.000000e+001 0.000000e+000 1.000000e+001
         vertex 7.237823e+000 2.140144e+000 1.000000e+001
      endloop
   endfacet
   facet normal 0.000000e+000 0.000000e+000 1.000000e+000
      outer loop
         vertex 7.237823e+000 2.140144e+000 1.000000e+001
         vertex 1.000000e+001 0.000000e+000 1.000000e+001
         vertex 7.607746e+000 2.233821e+000 1.000000e+001
      endloop
   endfacet
   facet normal 0.000000e+000 0.000000e+000 1.000000e+000
      outer loop
         vertex 6.857527e+000 6.729634e+000 1.000000e+001
         vertex 7.237823e+000 6.698122e+000 1.000000e+001
         vertex 1.000000e+001 1.000000e+001 1.000000e+001
      endloop
   endfacet
   facet normal 0.000000e+000 0.000000e+000 1.000000e+000
      outer loop
         vertex 1.000000e+001 1.000000e+001 1.000000e+001
         vertex 7.237823e+000 6.698122e+000 1.000000e+001
         vertex 7.607746e+000 6.604445e+000 1.000000e+001
      endloop
   endfacet
   facet normal 0.000000e+000 0.000000e+000 1.000000e+000
      outer loop
         vertex 1.000000e+001 1.000000e+001 1.000000e+001
         vertex 7.607746e+000 6.604445e+000 1.000000e+001
         vertex 7.957204e+000 6.451159e+000 1.000000e+001
      endloop
   endfacet
   facet normal 0.000000e+000 0.000000e+000 1.000000e+000
      outer loop
         vertex 9.097327e+000 3.851938e+000 1.000000e+001
         vertex 8.973422e+000 3.491015e+000 1.000000e+001
         vertex 1.000000e+001 0.000000e+000 1.000000e+001
      endloop
   endfacet
   facet normal 0.000000e+000 0.000000e+000 1.000000e+000
      outer loop
         vertex 1.000000e+001 0.000000e+000 1.000000e+001
         vertex 8.973422e+000 3.491015e+000 1.000000e+001
         vertex 8.791801e+000 3.155408e+000 1.000000e+001
      endloop
   endfacet
   facet normal 0.000000e+000 0.000000e+000 1.000000e+000
      outer loop
         vertex 7.957204e+000 6.451159e+000 1.000000e+001
         vertex 8.276667e+000 6.242444e+000 1.000000e+001
         vertex 1.000000e+001 1.000000e+001 1.000000e+001
      endloop
   endfacet
   facet normal 0.000000e+000 0.000000e+000 1.000000e+000
      outer loop
         vertex 1.000000e+001 1.000000e+001 1.000000e+001
         vertex 8.276667e+000 6.242444e+000 1.000000e+001
         vertex 8.557419e+000 5.983993e+000 1.000000e+001
      endloop
   endfacet
   facet normal 0.000000e+000 0.000000e+000 1.000000e+000
      outer loop
         vertex 1.000000e+001 1.000000e+001 1.000000e+001
         vertex 8.557419e+000 5.983993e+000 1.000000e+001
         vertex 8.791801e+000 5.682857e+000 1.000000e+001
      endloop
   endfacet
   facet normal 0.000000e+000 0.000000e+000 1.000000e+000
      outer loop
         vertex 8.973422e+000 5.347251e+000 1.000000e+001
         vertex 9.097327e+000 4.986328e+000 1.000000e+001
         vertex 1.000000e+001 1.000000e+001 1.000000e+001
      endloop
   endfacet
   facet normal 0.000000e+000 0.000000e+000 1.000000e+000
      outer loop
         vertex 1.000000e+001 1.000000e+001 1.000000e+001
         vertex 9.097327e+000 4.986328e+000 1.000000e+001
         vertex 9.160137e+000 4.609932e+000 1.000000e+001
      endloop
   endfacet
   facet normal 0.000000e+000 0.000000e+000 1.000000e+000
      outer loop
         vertex 1.000000e+001 1.000000e+001 1.000000e+001
         vertex 9.160137e+000 4.609932e+000 1.000000e+001
         vertex 1.000000e+001 0.000000e+000 1.000000e+001
      endloop
   endfacet
   facet normal 0.000000e+000 0.000000e+000 1.000000e+000
      outer loop
         vertex 1.000000e+001 0.000000e+000 1.000000e+001
         vertex 9.160137e+000 4.609932e+000 1.000000e+001
         vertex 9.160137e+000 4.228333e+000 1.000000e+001
      endloop
   endfacet
   facet normal 0.000000e+000 0.000000e+000 1.000000e+000
      outer loop
         vertex 1.000000e+001 0.000000e+000 1.000000e+001
         vertex 9.160137e+000 4.228333e+000 1.000000e+001
         vertex 9.097327e+000 3.851938e+000 1.000000e+001
      endloop
   endfacet
   facet normal 0.000000e+000 0.000000e+000 1.000000e+000
      outer loop
         vertex 8.791801e+000 3.155408e+000 1.000000e+001
         vertex 8.557419e+000 2.854273e+000 1.000000e+001
         vertex 1.000000e+001 0.000000e+000 1.000000e+001
      endloop
   endfacet
   facet normal 0.000000e+000 0.000000e+000 1.000000e+000
      outer loop
         vertex 1.000000e+001 0.000000e+000 1.000000e+001
         vertex 8.557419e+000 2.854273e+000 1.000000e+001
         vertex 8.276667e+000 2.595823e+000 1.000000e+001
      endloop
   endfacet
   facet normal 0.000000e+000 0.000000e+000 1.000000e+000
      outer loop
         vertex 1.000000e+001 0.000000e+000 1.000000e+001
         vertex 8.276667e+000 2.595823e+000 1.000000e+001
         vertex 7.957204e+000 2.387108e+000 1.000000e+001
      endloop
   endfacet
   facet normal 1.000000e+000 0.000000e+000 0.000000e+000
      outer loop
         vertex 1.000000e+001 1.000000e+001 0.000000e+000
         vertex 1.000000e+001 1.000000e+001 1.000000e+001
         vertex 1.000000e+001 0.000000e+000 0.000000e+000
      endloop
   endfacet
   facet normal 1.000000e+000 0.000000e+000 0.000000e+000
      outer loop
         vertex 1.000000e+001 0.000000e+000 0.000000e+000
         vertex 1.000000e+001 1.000000e+001 1.000000e+001
         vertex 1.000000e+001 0.000000e+000 1.000000e+001
      endloop
   endfacet
   facet normal 0.000000e+000 0.000000e+000 -1.000000e+000
      outer loop
         vertex 0.000000e+000 1.000000e+001 0.000000e+000
         vertex 1.000000e+001 1.000000e+001 0.000000e+000
         vertex 0.000000e+000 0.000000e+000 0.000000e+000
      endloop
   endfacet
   facet normal 0.000000e+000 0.000000e+000 -1.000000e+000
      outer loop
         vertex 0.000000e+000 0.000000e+000 0.000000e+000
         vertex 1.000000e+001 1.000000e+001 0.000000e+000
         vertex 1.000000e+001 0.000000e+000 0.000000e+000
      endloop
   endfacet
   facet normal 0.000000e+000 1.000000e+000 0.000000e+000
      outer loop
         vertex 1.000000e+001 1.000000e+001 1.000000e+001
         vertex 1.000000e+001 1.000000e+001 0.000000e+000
         vertex 0.000000e+000 1.000000e+001 1.000000e+001
      endloop
   endfacet
   facet normal 0.000000e+000 1.000000e+000 0.000000e+000
      outer loop
         vertex 0.000000e+000 1.000000e+001 1.000000e+001
         vertex 1.000000e+001 1.000000e+001 0.000000e+000
         vertex 0.000000e+000 1.000000e+001 0.000000e+000
      endloop
   endfacet
   facet normal 0.000000e+000 -1.000000e+000 0.000000e+000
      outer loop
         vertex 1.000000e+001 0.000000e+000 0.000000e+000
         vertex 1.000000e+001 0.000000e+000 1.000000e+001
         vertex 0.000000e+000 0.000000e+000 0.000000e+000
      endloop
   endfacet
   facet normal 0.000000e+000 -1.000000e+000 0.000000e+000
      outer loop
         vertex 0.000000e+000 0.000000e+000 0.000000e+000
         vertex 1.000000e+001 0.000000e+000 1.000000e+001
         vertex 0.000000e+000 0.000000e+000 1.000000e+001
      endloop
   endfacet
   facet normal 0.000000e+000 0.000000e+000 1.000000e+000
      outer loop
         vertex 0.000000e+000 6.729634e+000 1.750552e+000
         vertex 0.000000e+000 2.108632e+000 1.750552e+000
         vertex 6.857527e+000 6.729634e+000 1.750552e+000
      endloop
   endfacet
   facet normal 0.000000e+000 0.000000e+000 1.000000e+000
      outer loop
         vertex 6.857527e+000 6.729634e+000 1.750552e+000
         vertex 0.000000e+000 2.108632e+000 1.750552e+000
         vertex 6.857527e+000 2.108632e+000 1.750552e+000
      endloop
   endfacet
   facet normal 0.000000e+000 0.000000e+000 1.000000e+000
      outer loop
         vertex 6.857527e+000 2.108632e+000 1.750552e+000
         vertex 7.237823e+000 2.140144e+000 1.750552e+000
         vertex 6.857527e+000 6.729634e+000 1.750552e+000
      endloop
   endfacet
   facet normal 0.000000e+000 0.000000e+000 1.000000e+000
      outer loop
         vertex 6.857527e+000 6.729634e+000 1.750552e+000
         vertex 7.237823e+000 2.140144e+000 1.750552e+000
         vertex 7.607746e+000 2.233821e+000 1.750552e+000
      endloop
   endfacet
   facet normal 0.000000e+000 0.000000e+000 1.000000e+000
      outer loop
         vertex 6.857527e+000 6.729634e+000 1.750552e+000
         vertex 7.607746e+000 2.233821e+000 1.750552e+000
         vertex 7.957204e+000 2.387108e+000 1.750552e+000
      endloop
   endfacet
   facet normal 0.000000e+000 0.000000e+000 1.000000e+000
      outer loop
         vertex 7.957204e+000 2.387108e+000 1.750552e+000
         vertex 8.276667e+000 2.595823e+000 1.750552e+000
         vertex 6.857527e+000 6.729634e+000 1.750552e+000
      endloop
   endfacet
   facet normal 0.000000e+000 0.000000e+000 1.000000e+000
      outer loop
         vertex 6.857527e+000 6.729634e+000 1.750552e+000
         vertex 8.276667e+000 2.595823e+000 1.750552e+000
         vertex 8.557419e+000 2.854273e+000 1.750552e+000
      endloop
   endfacet
   facet normal 0.000000e+000 0.000000e+000 1.000000e+000
      outer loop
         vertex 6.857527e+000 6.729634e+000 1.750552e+000
         vertex 8.557419e+000 2.854273e+000 1.750552e+000
         vertex 8.791801e+000 3.155408e+000 1.750552e+000
      endloop
   endfacet
   facet normal 0.000000e+000 0.000000e+000 1.000000e+000
      outer loop
         vertex 8.791801e+000 5.682857e+000 1.750552e+000
         vertex 8.557419e+000 5.983993e+000 1.750552e+000
         vertex 8.973422e+000 5.347251e+000 1.750552e+000
      endloop
   endfacet
   facet normal 0.000000e+000 0.000000e+000 1.000000e+000
      outer loop
         vertex 8.973422e+000 5.347251e+000 1.750552e+000
         vertex 8.557419e+000 5.983993e+000 1.750552e+000
         vertex 8.276667e+000 6.242444e+000 1.750552e+000
      endloop
   endfacet
   facet normal 0.000000e+000 0.000000e+000 1.000000e+000
      outer loop
         vertex 8.973422e+000 5.347251e+000 1.750552e+000
         vertex 8.276667e+000 6.242444e+000 1.750552e+000
         vertex 9.097327e+000 4.986328e+000 1.750552e+000
      endloop
   endfacet
   facet normal 0.000000e+000 0.000000e+000 1.000000e+000
      outer loop
         vertex 9.097327e+000 4.986328e+000 1.750552e+000
         vertex 8.276667e+000 6.242444e+000 1.750552e+000
         vertex 7.957204e+000 6.451159e+000 1.750552e+000
      endloop
   endfacet
   facet normal 0.000000e+000 0.000000e+000 1.000000e+000
      outer loop
         vertex 9.097327e+000 4.986328e+000 1.750552e+000
         vertex 7.957204e+000 6.451159e+000 1.750552e+000
         vertex 7.607746e+000 6.604445e+000 1.750552e+000
      endloop
   endfacet
   facet normal 0.000000e+000 0.000000e+000 1.000000e+000
      outer loop
         vertex 9.160137e+000 4.228333e+000 1.750552e+000
         vertex 9.160137e+000 4.609932e+000 1.750552e+000
         vertex 6.857527e+000 6.729634e+000 1.750552e+000
      endloop
   endfacet
   facet normal 0.000000e+000 0.000000e+000 1.000000e+000
      outer loop
         vertex 6.857527e+000 6.729634e+000 1.750552e+000
         vertex 9.160137e+000 4.609932e+000 1.750552e+000
         vertex 9.097327e+000 4.986328e+000 1.750552e+000
      endloop
   endfacet
   facet normal 0.000000e+000 0.000000e+000 1.000000e+000
      outer loop
         vertex 6.857527e+000 6.729634e+000 1.750552e+000
         vertex 9.097327e+000 4.986328e+000 1.750552e+000
         vertex 7.237823e+000 6.698122e+000 1.750552e+000
      endloop
   endfacet
   facet normal 0.000000e+000 0.000000e+000 1.000000e+000
      outer loop
         vertex 7.237823e+000 6.698122e+000 1.750552e+000
         vertex 9.097327e+000 4.986328e+000 1.750552e+000
         vertex 7.607746e+000 6.604445e+000 1.750552e+000
      endloop
   endfacet
   facet normal 0.000000e+000 0.000000e+000 1.000000e+000
      outer loop
         vertex 8.791801e+000 3.155408e+000 1.750552e+000
         vertex 8.973422e+000 3.491015e+000 1.750552e+000
         vertex 6.857527e+000 6.729634e+000 1.750552e+000
      endloop
   endfacet
   facet normal 0.000000e+000 0.000000e+000 1.000000e+000
      outer loop
         vertex 6.857527e+000 6.729634e+000 1.750552e+000
         vertex 8.973422e+000 3.491015e+000 1.750552e+000
         vertex 9.097327e+000 3.851938e+000 1.750552e+000
      endloop
   endfacet
   facet normal 0.000000e+000 0.000000e+000 1.000000e+000
      outer loop
         vertex 6.857527e+000 6.729634e+000 1.750552e+000
         vertex 9.097327e+000 3.851938e+000 1.750552e+000
         vertex 9.160137e+000 4.228333e+000 1.750552e+000
      endloop
   endfacet
   facet normal 0.000000e+000 -1.000000e+000 0.000000e+000
      outer loop
         vertex 0.000000e+000 6.729634e+000 1.750552e+000
         vertex 6.857527e+000 6.729634e+000 1.750552e+000
         vertex 0.000000e+000 6.729634e+000 1.000000e+001
      endloop
   endfacet
   facet normal 0.000000e+000 -1.000000e+000 0.000000e+000
      outer loop
         vertex 0.000000e+000 6.729634e+000 1.000000e+001
         vertex 6.857527e+000 6.729634e+000 1.750552e+000
         vertex 6.857527e+000 6.729634e+000 1.000000e+001
      endloop
   endfacet
   facet normal -5.503191e-002 9.984846e-001 0.000000e+000
      outer loop
         vertex 6.857527e+000 2.108632e+000 1.750552e+000
         vertex 6.857527e+000 2.108632e+000 1.000000e+001
         vertex 7.237823e+000 2.140144e+000 1.000000e+001
      endloop
   endfacet
   facet normal -1.100638e-001 9.939246e-001 0.000000e+000
      outer loop
         vertex 6.857527e+000 2.108632e+000 1.750552e+000
         vertex 7.237823e+000 2.140144e+000 1.000000e+001
         vertex 7.237823e+000 2.140144e+000 1.750552e+000
      endloop
   endfacet
   facet normal -2.186265e-001 9.758086e-001 0.000000e+000
      outer loop
         vertex 7.237823e+000 2.140144e+000 1.750552e+000
         vertex 7.237823e+000 2.140144e+000 1.000000e+001
         vertex 7.607746e+000 2.233821e+000 1.000000e+001
      endloop
   endfacet
   facet normal -2.721573e-001 9.622528e-001 0.000000e+000
      outer loop
         vertex 7.237823e+000 2.140144e+000 1.750552e+000
         vertex 7.607746e+000 2.233821e+000 1.000000e+001
         vertex 7.607746e+000 2.233821e+000 1.750552e+000
      endloop
   endfacet
   facet normal -3.762575e-001 9.265151e-001 0.000000e+000
      outer loop
         vertex 7.607746e+000 2.233821e+000 1.750552e+000
         vertex 7.607746e+000 2.233821e+000 1.000000e+001
         vertex 7.957204e+000 2.387108e+000 1.000000e+001
      endloop
   endfacet
   facet normal -4.268270e-001 9.043333e-001 0.000000e+000
      outer loop
         vertex 7.607746e+000 2.233821e+000 1.750552e+000
         vertex 7.957204e+000 2.387108e+000 1.000000e+001
         vertex 7.957204e+000 2.387108e+000 1.750552e+000
      endloop
   endfacet
   facet normal -5.236253e-001 8.519487e-001 0.000000e+000
      outer loop
         vertex 7.957204e+000 2.387108e+000 1.750552e+000
         vertex 7.957204e+000 2.387108e+000 1.000000e+001
         vertex 8.276667e+000 2.595823e+000 1.000000e+001
      endloop
   endfacet
   facet normal -5.698540e-001 8.217459e-001 0.000000e+000
      outer loop
         vertex 7.957204e+000 2.387108e+000 1.750552e+000
         vertex 8.276667e+000 2.595823e+000 1.000000e+001
         vertex 8.276667e+000 2.595823e+000 1.750552e+000
      endloop
   endfacet
   facet normal -6.567098e-001 7.541434e-001 0.000000e+000
      outer loop
         vertex 8.276667e+000 2.595823e+000 1.750552e+000
         vertex 8.276667e+000 2.595823e+000 1.000000e+001
         vertex 8.557419e+000 2.854273e+000 1.000000e+001
      endloop
   endfacet
   facet normal -6.973369e-001 7.167435e-001 0.000000e+000
      outer loop
         vertex 8.276667e+000 2.595823e+000 1.750552e+000
         vertex 8.557419e+000 2.854273e+000 1.000000e+001
         vertex 8.557419e+000 2.854273e+000 1.750552e+000
      endloop
   endfacet
   facet normal -7.718811e-001 6.357669e-001 0.000000e+000
      outer loop
         vertex 8.557419e+000 2.854273e+000 1.750552e+000
         vertex 8.557419e+000 2.854273e+000 1.000000e+001
         vertex 8.791801e+000 3.155408e+000 1.000000e+001
      endloop
   endfacet
   facet normal -8.057982e-001 5.921901e-001 0.000000e+000
      outer loop
         vertex 8.557419e+000 2.854273e+000 1.750552e+000
         vertex 8.791801e+000 3.155408e+000 1.000000e+001
         vertex 8.791801e+000 3.155408e+000 1.750552e+000
      endloop
   endfacet
   facet normal -8.659974e-001 5.000484e-001 0.000000e+000
      outer loop
         vertex 8.791801e+000 3.155408e+000 1.750552e+000
         vertex 8.791801e+000 3.155408e+000 1.000000e+001
         vertex 8.973422e+000 3.491015e+000 1.000000e+001
      endloop
   endfacet
   facet normal -8.922795e-001 4.514834e-001 0.000000e+000
      outer loop
         vertex 8.791801e+000 3.155408e+000 1.750552e+000
         vertex 8.973422e+000 3.491015e+000 1.000000e+001
         vertex 8.973422e+000 3.491015e+000 1.750552e+000
      endloop
   endfacet
   facet normal -9.364916e-001 3.506899e-001 0.000000e+000
      outer loop
         vertex 8.973422e+000 3.491015e+000 1.750552e+000
         vertex 8.973422e+000 3.491015e+000 1.000000e+001
         vertex 9.097327e+000 3.851938e+000 1.000000e+001
      endloop
   endfacet
   facet normal -9.544217e-001 2.984614e-001 0.000000e+000
      outer loop
         vertex 8.973422e+000 3.491015e+000 1.750552e+000
         vertex 9.097327e+000 3.851938e+000 1.000000e+001
         vertex 9.097327e+000 3.851938e+000 1.750552e+000
      endloop
   endfacet
   facet normal -9.814408e-001 1.917655e-001 0.000000e+000
      outer loop
         vertex 9.097327e+000 3.851938e+000 1.750552e+000
         vertex 9.097327e+000 3.851938e+000 1.000000e+001
         vertex 9.160137e+000 4.228333e+000 1.000000e+001
      endloop
   endfacet
   facet normal -9.905298e-001 1.372982e-001 0.000000e+000
      outer loop
         vertex 9.097327e+000 3.851938e+000 1.750552e+000
         vertex 9.160137e+000 4.228333e+000 1.000000e+001
         vertex 9.160137e+000 4.228333e+000 1.750552e+000
      endloop
   endfacet
   facet normal -9.996188e-001 2.761026e-002 0.000000e+000
      outer loop
         vertex 9.160137e+000 4.228333e+000 1.750552e+000
         vertex 9.160137e+000 4.228333e+000 1.000000e+001
         vertex 9.160137e+000 4.609932e+000 1.000000e+001
      endloop
   endfacet
   facet normal -9.996188e-001 -2.761026e-002 0.000000e+000
      outer loop
         vertex 9.160137e+000 4.228333e+000 1.750552e+000
         vertex 9.160137e+000 4.609932e+000 1.000000e+001
         vertex 9.160137e+000 4.609932e+000 1.750552e+000
      endloop
   endfacet
   facet normal -9.905298e-001 -1.372982e-001 0.000000e+000
      outer loop
         vertex 9.160137e+000 4.609932e+000 1.750552e+000
         vertex 9.160137e+000 4.609932e+000 1.000000e+001
         vertex 9.097327e+000 4.986328e+000 1.000000e+001
      endloop
   endfacet
   facet normal -9.814408e-001 -1.917655e-001 0.000000e+000
      outer loop
         vertex 9.160137e+000 4.609932e+000 1.750552e+000
         vertex 9.097327e+000 4.986328e+000 1.000000e+001
         vertex 9.097327e+000 4.986328e+000 1.750552e+000
      endloop
   endfacet
   facet normal -9.544217e-001 -2.984614e-001 0.000000e+000
      outer loop
         vertex 9.097327e+000 4.986328e+000 1.750552e+000
         vertex 9.097327e+000 4.986328e+000 1.000000e+001
         vertex 8.973422e+000 5.347251e+000 1.000000e+001
      endloop
   endfacet
   facet normal -9.364916e-001 -3.506899e-001 0.000000e+000
      outer loop
         vertex 9.097327e+000 4.986328e+000 1.750552e+000
         vertex 8.973422e+000 5.347251e+000 1.000000e+001
         vertex 8.973422e+000 5.347251e+000 1.750552e+000
      endloop
   endfacet
   facet normal -8.922795e-001 -4.514834e-001 0.000000e+000
      outer loop
         vertex 8.973422e+000 5.347251e+000 1.750552e+000
         vertex 8.973422e+000 5.347251e+000 1.000000e+001
         vertex 8.791801e+000 5.682857e+000 1.000000e+001
      endloop
   endfacet
   facet normal -8.659974e-001 -5.000484e-001 0.000000e+000
      outer loop
         vertex 8.973422e+000 5.347251e+000 1.750552e+000
         vertex 8.791801e+000 5.682857e+000 1.000000e+001
         vertex 8.791801e+000 5.682857e+000 1.750552e+000
      endloop
   endfacet
   facet normal -8.057982e-001 -5.921901e-001 0.000000e+000
      outer loop
         vertex 8.791801e+000 5.682857e+000 1.750552e+000
         vertex 8.791801e+000 5.682857e+000 1.000000e+001
         vertex 8.557419e+000 5.983993e+000 1.000000e+001
      endloop
   endfacet
   facet normal -7.718811e-001 -6.357669e-001 0.000000e+000
      outer loop
         vertex 8.791801e+000 5.682857e+000 1.750552e+000
         vertex 8.557419e+000 5.983993e+000 1.000000e+001
         vertex 8.557419e+000 5.983993e+000 1.750552e+000
      endloop
   endfacet
   facet normal -6.973369e-001 -7.167435e-001 0.000000e+000
      outer loop
         vertex 8.557419e+000 5.983993e+000 1.750552e+000
         vertex 8.557419e+000 5.983993e+000 1.000000e+001
         vertex 8.276667e+000 6.242444e+000 1.000000e+001
      endloop
   endfacet
   facet normal -6.567098e-001 -7.541434e-001 0.000000e+000
      outer loop
         vertex 8.557419e+000 5.983993e+000 1.750552e+000
         vertex 8.276667e+000 6.242444e+000 1.000000e+001
         vertex 8.276667e+000 6.242444e+000 1.750552e+000
      endloop
   endfacet
   facet normal -5.698540e-001 -8.217459e-001 0.000000e+000
      outer loop
         vertex 8.276667e+000 6.242444e+000 1.750552e+000
         vertex 8.276667e+000 6.242444e+000 1.000000e+001
         vertex 7.957204e+000 6.451159e+000 1.000000e+001
      endloop
   endfacet
   facet normal -5.236253e-001 -8.519487e-001 0.000000e+000
      outer loop
         vertex 8.276667e+000 6.242444e+000 1.750552e+000
         vertex 7.957204e+000 6.451159e+000 1.000000e+001
         vertex 7.957204e+000 6.451159e+000 1.750552e+000
      endloop
   endfacet
   facet normal -4.268270e-001 -9.043333e-001 0.000000e+000
      outer loop
         vertex 7.957204e+000 6.451159e+000 1.750552e+000
         vertex 7.957204e+000 6.451159e+000 1.000000e+001
         vertex 7.607746e+000 6.604445e+000 1.000000e+001
      endloop
   endfacet
   facet normal -3.762575e-001 -9.265151e-001 0.000000e+000
      outer loop
         vertex 7.957204e+000 6.451159e+000 1.750552e+000
         vertex 7.607746e+000 6.604445e+000 1.000000e+001
         vertex 7.607746e+000 6.604445e+000 1.750552e+000
      endloop
   endfacet
   facet normal -2.721573e-001 -9.622528e-001 0.000000e+000
      outer loop
         vertex 7.607746e+000 6.604445e+000 1.750552e+000
         vertex 7.607746e+000 6.604445e+000 1.000000e+001
         vertex 7.237823e+000 6.698122e+000 1.000000e+001
      endloop
   endfacet
   facet normal -2.186265e-001 -9.758086e-001 0.000000e+000
      outer loop
         vertex 7.607746e+000 6.604445e+000 1.750552e+000
         vertex 7.237823e+000 6.698122e+000 1.000000e+001
         vertex 7.237823e+000 6.698122e+000 1.750552e+000
      endloop
   endfacet
   facet normal -1.100638e-001 -9.939246e-001 0.000000e+000
      outer loop
         vertex 7.237823e+000 6.698122e+000 1.750552e+000
         vertex 7.237823e+000 6.698122e+000 1.000000e+001
         vertex 6.857527e+000 6.729634e+000 1.000000e+001
      endloop
   endfacet
   facet normal -5.503191e-002 -9.984846e-001 0.000000e+000
      outer loop
         vertex 7.237823e+000 6.698122e+000 1.750552e+000
         vertex 6.857527e+000 6.729634e+000 1.000000e+001
         vertex 6.857527e+000 6.729634e+000 1.750552e+000
      endloop
   endfacet
   facet normal 0.000000e+000 1.000000e+000 0.000000e+000
      outer loop
         vertex 6.857527e+000 2.108632e+000 1.750552e+000
         vertex 0.000000e+000 2.108632e+000 1.750552e+000
         vertex 6.857527e+000 2.108632e+000 1.000000e+001
      endloop
   endfacet
   facet normal 0.000000e+000 1.000000e+000 0.000000e+000
      outer loop
         vertex 6.857527e+000 2.108632e+000 1.000000e+001
         vertex 0.000000e+000 2.108632e+000 1.750552e+000
         vertex 0.000000e+000 2.108632e+000 1.000000e+001
      endloop
   endfacet
endsolid