solid 20_769
   facet normal -1.000000e+000 0.000000e+000 0.000000e+000
      outer loop
         vertex 0.000000e+000 1.000000e+001 1.000000e+001
         vertex 0.000000e+000 1.000000e+001 0.000000e+000
         vertex 0.000000e+000 0.000000e+000 1.000000e+001
      endloop
   endfacet
   facet normal -1.000000e+000 0.000000e+000 0.000000e+000
      outer loop
         vertex 0.000000e+000 0.000000e+000 1.000000e+001
         vertex 0.000000e+000 1.000000e+001 0.000000e+000
         vertex 0.000000e+000 0.000000e+000 0.000000e+000
      endloop
   endfacet
   facet normal 0.000000e+000 0.000000e+000 1.000000e+000
      outer loop
         vertex 1.000000e+001 9.365398e+000 1.000000e+001
         vertex 1.000000e+001 1.000000e+001 1.000000e+001
         vertex 3.247968e+000 9.365398e+000 1.000000e+001
      endloop
   endfacet
   facet normal 0.000000e+000 0.000000e+000 1.000000e+000
      outer loop
         vertex 3.247968e+000 9.365398e+000 1.000000e+001
         vertex 1.000000e+001 1.000000e+001 1.000000e+001
         vertex 0.000000e+000 1.000000e+001 1.000000e+001
      endloop
   endfacet
   facet normal 0.000000e+000 0.000000e+000 1.000000e+000
      outer loop
         vertex 3.247968e+000 9.365398e+000 1.000000e+001
         vertex 0.000000e+000 1.000000e+001 1.000000e+001
         vertex 3.082345e+000 9.350908e+000 1.000000e+001
      endloop
   endfacet
   facet normal 0.000000e+000 0.000000e+000 1.000000e+000
      outer loop
         vertex 3.082345e+000 9.350908e+000 1.000000e+001
         vertex 0.000000e+000 1.000000e+001 1.000000e+001
         vertex 2.921754e+000 9.307878e+000 1.000000e+001
      endloop
   endfacet
   facet normal 0.000000e+000 0.000000e+000 1.000000e+000
      outer loop
         vertex 2.294181e+000 8.411612e+000 1.000000e+001
         vertex 2.308671e+000 8.577235e+000 1.000000e+001
         vertex 0.000000e+000 1.000000e+001 1.000000e+001
      endloop
   endfacet
   facet normal 0.000000e+000 0.000000e+000 1.000000e+000
      outer loop
         vertex 3.082345e+000 7.472314e+000 1.000000e+001
         vertex 2.921754e+000 7.515345e+000 1.000000e+001
         vertex 0.000000e+000 0.000000e+000 1.000000e+001
      endloop
   endfacet
   facet normal 0.000000e+000 0.000000e+000 1.000000e+000
      outer loop
         vertex 2.921754e+000 7.515345e+000 1.000000e+001
         vertex 2.771075e+000 7.585608e+000 1.000000e+001
         vertex 0.000000e+000 0.000000e+000 1.000000e+001
      endloop
   endfacet
   facet normal 0.000000e+000 0.000000e+000 1.000000e+000
      outer loop
         vertex 0.000000e+000 0.000000e+000 1.000000e+001
         vertex 2.771075e+000 7.585608e+000 1.000000e+001
         vertex 2.634886e+000 7.680968e+000 1.000000e+001
      endloop
   endfacet
   facet normal 0.000000e+000 0.000000e+000 1.000000e+000
      outer loop
         vertex 0.000000e+000 0.000000e+000 1.000000e+001
         vertex 2.634886e+000 7.680968e+000 1.000000e+001
         vertex 2.517325e+000 7.798529e+000 1.000000e+001
      endloop
   endfacet
   facet normal 0.000000e+000 0.000000e+000 1.000000e+000
      outer loop
         vertex 2.517325e+000 9.024693e+000 1.000000e+001
         vertex 2.634886e+000 9.142255e+000 1.000000e+001
         vertex 0.000000e+000 1.000000e+001 1.000000e+001
      endloop
   endfacet
   facet normal 0.000000e+000 0.000000e+000 1.000000e+000
      outer loop
         vertex 0.000000e+000 1.000000e+001 1.000000e+001
         vertex 2.634886e+000 9.142255e+000 1.000000e+001
         vertex 2.771075e+000 9.237616e+000 1.000000e+001
      endloop
   endfacet
   facet normal 0.000000e+000 0.000000e+000 1.000000e+000
      outer loop
         vertex 0.000000e+000 1.000000e+001 1.000000e+001
         vertex 2.771075e+000 9.237616e+000 1.000000e+001
         vertex 2.921754e+000 9.307878e+000 1.000000e+001
      endloop
   endfacet
   facet normal 0.000000e+000 0.000000e+000 1.000000e+000
      outer loop
         vertex 2.517325e+000 7.798529e+000 1.000000e+001
         vertex 2.421964e+000 7.934719e+000 1.000000e+001
         vertex 0.000000e+000 0.000000e+000 1.000000e+001
      endloop
   endfacet
   facet normal 0.000000e+000 0.000000e+000 1.000000e+000
      outer loop
         vertex 0.000000e+000 0.000000e+000 1.000000e+001
         vertex 2.421964e+000 7.934719e+000 1.000000e+001
         vertex 2.351701e+000 8.085397e+000 1.000000e+001
      endloop
   endfacet
   facet normal 0.000000e+000 0.000000e+000 1.000000e+000
      outer loop
         vertex 0.000000e+000 0.000000e+000 1.000000e+001
         vertex 2.351701e+000 8.085397e+000 1.000000e+001
         vertex 0.000000e+000 1.000000e+001 1.000000e+001
      endloop
   endfacet
   facet normal 0.000000e+000 0.000000e+000 1.000000e+000
      outer loop
         vertex 0.000000e+000 1.000000e+001 1.000000e+001
         vertex 2.351701e+000 8.085397e+000 1.000000e+001
         vertex 2.308671e+000 8.245988e+000 1.000000e+001
      endloop
   endfacet
   facet normal 0.000000e+000 0.000000e+000 1.000000e+000
      outer loop
         vertex 0.000000e+000 1.000000e+001 1.000000e+001
         vertex 2.308671e+000 8.245988e+000 1.000000e+001
         vertex 2.294181e+000 8.411612e+000 1.000000e+001
      endloop
   endfacet
   facet normal 0.000000e+000 0.000000e+000 1.000000e+000
      outer loop
         vertex 2.308671e+000 8.577235e+000 1.000000e+001
         vertex 2.351701e+000 8.737825e+000 1.000000e+001
         vertex 0.000000e+000 1.000000e+001 1.000000e+001
      endloop
   endfacet
   facet normal 0.000000e+000 0.000000e+000 1.000000e+000
      outer loop
         vertex 0.000000e+000 1.000000e+001 1.000000e+001
         vertex 2.351701e+000 8.737825e+000 1.000000e+001
         vertex 2.421964e+000 8.888505e+000 1.000000e+001
      endloop
   endfacet
   facet normal 0.000000e+000 0.000000e+000 1.000000e+000
      outer loop
         vertex 0.000000e+000 1.000000e+001 1.000000e+001
         vertex 2.421964e+000 8.888505e+000 1.000000e+001
         vertex 2.517325e+000 9.024693e+000 1.000000e+001
      endloop
   endfacet
   facet normal 0.000000e+000 0.000000e+000 1.000000e+000
      outer loop
         vertex 1.000000e+001 0.000000e+000 1.000000e+001
         vertex 1.000000e+001 7.457824e+000 1.000000e+001
         vertex 0.000000e+000 0.000000e+000 1.000000e+001
      endloop
   endfacet
   facet normal 0.000000e+000 0.000000e+000 1.000000e+000
      outer loop
         vertex 0.000000e+000 0.000000e+000 1.000000e+001
         vertex 1.000000e+001 7.457824e+000 1.000000e+001
         vertex 3.247968e+000 7.457824e+000 1.000000e+001
      endloop
   endfacet
   facet normal 0.000000e+000 0.000000e+000 1.000000e+000
      outer loop
         vertex 0.000000e+000 0.000000e+000 1.000000e+001
         vertex 3.247968e+000 7.457824e+000 1.000000e+001
         vertex 3.082345e+000 7.472314e+000 1.000000e+001
      endloop
   endfacet
   facet normal 1.000000e+000 0.000000e+000 0.000000e+000
      outer loop
         vertex 1.000000e+001 1.000000e+001 1.000000e+001
         vertex 1.000000e+001 9.365398e+000 1.000000e+001
         vertex 1.000000e+001 9.365398e+000 8.046576e+000
      endloop
   endfacet
   facet normal 1.000000e+000 0.000000e+000 0.000000e+000
      outer loop
         vertex 1.000000e+001 7.457824e+000 1.000000e+001
         vertex 1.000000e+001 0.000000e+000 1.000000e+001
         vertex 1.000000e+001 7.457824e+000 8.046576e+000
      endloop
   endfacet
   facet normal 1.000000e+000 0.000000e+000 0.000000e+000
      outer loop
         vertex 1.000000e+001 7.457824e+000 8.046576e+000
         vertex 1.000000e+001 0.000000e+000 1.000000e+001
         vertex 1.000000e+001 0.000000e+000 0.000000e+000
      endloop
   endfacet
   facet normal 1.000000e+000 0.000000e+000 0.000000e+000
      outer loop
         vertex 1.000000e+001 7.457824e+000 8.046576e+000
         vertex 1.000000e+001 0.000000e+000 0.000000e+000
         vertex 1.000000e+001 9.365398e+000 8.046576e+000
      endloop
   endfacet
   facet normal 1.000000e+000 0.000000e+000 0.000000e+000
      outer loop
         vertex 1.000000e+001 9.365398e+000 8.046576e+000
         vertex 1.000000e+001 0.000000e+000 0.000000e+000
         vertex 1.000000e+001 1.000000e+001 0.000000e+000
      endloop
   endfacet
   facet normal 1.000000e+000 0.000000e+000 0.000000e+000
      outer loop
         vertex 1.000000e+001 9.365398e+000 8.046576e+000
         vertex 1.000000e+001 1.000000e+001 0.000000e+000
         vertex 1.000000e+001 1.000000e+001 1.000000e+001
      endloop
   endfacet
   facet normal 0.000000e+000 0.000000e+000 -1.000000e+000
      outer loop
         vertex 0.000000e+000 1.000000e+001 0.000000e+000
         vertex 1.000000e+001 1.000000e+001 0.000000e+000
         vertex 0.000000e+000 0.000000e+000 0.000000e+000
      endloop
   endfacet
   facet normal 0.000000e+000 0.000000e+000 -1.000000e+000
      outer loop
         vertex 0.000000e+000 0.000000e+000 0.000000e+000
         vertex 1.000000e+001 1.000000e+001 0.000000e+000
         vertex 1.000000e+001 0.000000e+000 0.000000e+000
      endloop
   endfacet
   facet normal 0.000000e+000 1.000000e+000 0.000000e+000
      outer loop
         vertex 1.000000e+001 1.000000e+001 1.000000e+001
         vertex 1.000000e+001 1.000000e+001 0.000000e+000
         vertex 0.000000e+000 1.000000e+001 1.000000e+001
      endloop
   endfacet
   facet normal 0.000000e+000 1.000000e+000 0.000000e+000
      outer loop
         vertex 0.000000e+000 1.000000e+001 1.000000e+001
         vertex 1.000000e+001 1.000000e+001 0.000000e+000
         vertex 0.000000e+000 1.000000e+001 0.000000e+000
      endloop
   endfacet
   facet normal 0.000000e+000 -1.000000e+000 0.000000e+000
      outer loop
         vertex 1.000000e+001 0.000000e+000 0.000000e+000
         vertex 1.000000e+001 0.000000e+000 1.000000e+001
         vertex 0.000000e+000 0.000000e+000 0.000000e+000
      endloop
   endfacet
   facet normal 0.000000e+000 -1.000000e+000 0.000000e+000
      outer loop
         vertex 0.000000e+000 0.000000e+000 0.000000e+000
         vertex 1.000000e+001 0.000000e+000 1.000000e+001
         vertex 0.000000e+000 0.000000e+000 1.000000e+001
      endloop
   endfacet
   facet normal 0.000000e+000 0.000000e+000 1.000000e+000
      outer loop
         vertex 1.000000e+001 7.457824e+000 8.046576e+000
         vertex 1.000000e+001 9.365398e+000 8.046576e+000
         vertex 3.247968e+000 7.457824e+000 8.046576e+000
      endloop
   endfacet
   facet normal 0.000000e+000 0.000000e+000 1.000000e+000
      outer loop
         vertex 3.247968e+000 7.457824e+000 8.046576e+000
         vertex 1.000000e+001 9.365398e+000 8.046576e+000
         vertex 3.247968e+000 9.365398e+000 8.046576e+000
      endloop
   endfacet
   facet normal 0.000000e+000 0.000000e+000 1.000000e+000
      outer loop
         vertex 3.247968e+000 7.457824e+000 8.046576e+000
         vertex 3.247968e+000 9.365398e+000 8.046576e+000
         vertex 3.082345e+000 9.350908e+000 8.046576e+000
      endloop
   endfacet
   facet normal 0.000000e+000 0.000000e+000 1.000000e+000
      outer loop
         vertex 2.351701e+000 8.737825e+000 8.046576e+000
         vertex 2.308671e+000 8.577235e+000 8.046576e+000
         vertex 3.247968e+000 7.457824e+000 8.046576e+000
      endloop
   endfacet
   facet normal 0.000000e+000 0.000000e+000 1.000000e+000
      outer loop
         vertex 2.308671e+000 8.577235e+000 8.046576e+000
         vertex 2.294181e+000 8.411612e+000 8.046576e+000
         vertex 3.247968e+000 7.457824e+000 8.046576e+000
      endloop
   endfacet
   facet normal 0.000000e+000 0.000000e+000 1.000000e+000
      outer loop
         vertex 3.247968e+000 7.457824e+000 8.046576e+000
         vertex 2.294181e+000 8.411612e+000 8.046576e+000
         vertex 2.308671e+000 8.245988e+000 8.046576e+000
      endloop
   endfacet
   facet normal 0.000000e+000 0.000000e+000 1.000000e+000
      outer loop
         vertex 3.247968e+000 7.457824e+000 8.046576e+000
         vertex 2.308671e+000 8.245988e+000 8.046576e+000
         vertex 2.351701e+000 8.085397e+000 8.046576e+000
      endloop
   endfacet
   facet normal 0.000000e+000 0.000000e+000 1.000000e+000
      outer loop
         vertex 2.771075e+000 7.585608e+000 8.046576e+000
         vertex 2.921754e+000 7.515345e+000 8.046576e+000
         vertex 3.082345e+000 7.472314e+000 8.046576e+000
      endloop
   endfacet
   facet normal 0.000000e+000 0.000000e+000 1.000000e+000
      outer loop
         vertex 3.082345e+000 9.350908e+000 8.046576e+000
         vertex 2.921754e+000 9.307878e+000 8.046576e+000
         vertex 3.247968e+000 7.457824e+000 8.046576e+000
      endloop
   endfacet
   facet normal 0.000000e+000 0.000000e+000 1.000000e+000
      outer loop
         vertex 3.247968e+000 7.457824e+000 8.046576e+000
         vertex 2.921754e+000 9.307878e+000 8.046576e+000
         vertex 2.771075e+000 9.237616e+000 8.046576e+000
      endloop
   endfacet
   facet normal 0.000000e+000 0.000000e+000 1.000000e+000
      outer loop
         vertex 3.247968e+000 7.457824e+000 8.046576e+000
         vertex 2.771075e+000 9.237616e+000 8.046576e+000
         vertex 2.634886e+000 9.142255e+000 8.046576e+000
      endloop
   endfacet
   facet normal 0.000000e+000 0.000000e+000 1.000000e+000
      outer loop
         vertex 2.634886e+000 9.142255e+000 8.046576e+000
         vertex 2.517325e+000 9.024693e+000 8.046576e+000
         vertex 3.247968e+000 7.457824e+000 8.046576e+000
      endloop
   endfacet
   facet normal 0.000000e+000 0.000000e+000 1.000000e+000
      outer loop
         vertex 3.247968e+000 7.457824e+000 8.046576e+000
         vertex 2.517325e+000 9.024693e+000 8.046576e+000
         vertex 2.421964e+000 8.888505e+000 8.046576e+000
      endloop
   endfacet
   facet normal 0.000000e+000 0.000000e+000 1.000000e+000
      outer loop
         vertex 3.247968e+000 7.457824e+000 8.046576e+000
         vertex 2.421964e+000 8.888505e+000 8.046576e+000
         vertex 2.351701e+000 8.737825e+000 8.046576e+000
      endloop
   endfacet
   facet normal 0.000000e+000 0.000000e+000 1.000000e+000
      outer loop
         vertex 2.351701e+000 8.085397e+000 8.046576e+000
         vertex 2.421964e+000 7.934719e+000 8.046576e+000
         vertex 3.247968e+000 7.457824e+000 8.046576e+000
      endloop
   endfacet
   facet normal 0.000000e+000 0.000000e+000 1.000000e+000
      outer loop
         vertex 3.247968e+000 7.457824e+000 8.046576e+000
         vertex 2.421964e+000 7.934719e+000 8.046576e+000
         vertex 2.517325e+000 7.798529e+000 8.046576e+000
      endloop
   endfacet
   facet normal 0.000000e+000 0.000000e+000 1.000000e+000
      outer loop
         vertex 3.247968e+000 7.457824e+000 8.046576e+000
         vertex 2.517325e+000 7.798529e+000 8.046576e+000
         vertex 3.082345e+000 7.472314e+000 8.046576e+000
      endloop
   endfacet
   facet normal 0.000000e+000 0.000000e+000 1.000000e+000
      outer loop
         vertex 3.082345e+000 7.472314e+000 8.046576e+000
         vertex 2.517325e+000 7.798529e+000 8.046576e+000
         vertex 2.634886e+000 7.680968e+000 8.046576e+000
      endloop
   endfacet
   facet normal 0.000000e+000 0.000000e+000 1.000000e+000
      outer loop
         vertex 3.082345e+000 7.472314e+000 8.046576e+000
         vertex 2.634886e+000 7.680968e+000 8.046576e+000
         vertex 2.771075e+000 7.585608e+000 8.046576e+000
      endloop
   endfacet
   facet normal 0.000000e+000 1.000000e+000 0.000000e+000
      outer loop
         vertex 1.000000e+001 7.457824e+000 8.046576e+000
         vertex 3.247968e+000 7.457824e+000 8.046576e+000
         vertex 1.000000e+001 7.457824e+000 1.000000e+001
      endloop
   endfacet
   facet normal 0.000000e+000 1.000000e+000 0.000000e+000
      outer loop
         vertex 1.000000e+001 7.457824e+000 1.000000e+001
         vertex 3.247968e+000 7.457824e+000 8.046576e+000
         vertex 3.247968e+000 7.457824e+000 1.000000e+001
      endloop
   endfacet
   facet normal 5.807913e-002 -9.983119e-001 0.000000e+000
      outer loop
         vertex 3.247968e+000 9.365398e+000 8.046576e+000
         vertex 3.247968e+000 9.365398e+000 1.000000e+001
         vertex 3.082345e+000 9.350908e+000 1.000000e+001
      endloop
   endfacet
   facet normal 1.161583e-001 -9.932307e-001 0.000000e+000
      outer loop
         vertex 3.247968e+000 9.365398e+000 8.046576e+000
         vertex 3.082345e+000 9.350908e+000 1.000000e+001
         vertex 3.082345e+000 9.350908e+000 8.046576e+000
      endloop
   endfacet
   facet normal 2.305519e-001 -9.730600e-001 0.000000e+000
      outer loop
         vertex 3.082345e+000 9.350908e+000 8.046576e+000
         vertex 3.082345e+000 9.350908e+000 1.000000e+001
         vertex 2.921754e+000 9.307878e+000 1.000000e+001
      endloop
   endfacet
   facet normal 2.868663e-001 -9.579706e-001 0.000000e+000
      outer loop
         vertex 3.082345e+000 9.350908e+000 8.046576e+000
         vertex 2.921754e+000 9.307878e+000 1.000000e+001
         vertex 2.921754e+000 9.307878e+000 8.046576e+000
      endloop
   endfacet
   facet normal 3.960194e-001 -9.182422e-001 0.000000e+000
      outer loop
         vertex 2.921754e+000 9.307878e+000 8.046576e+000
         vertex 2.921754e+000 9.307878e+000 1.000000e+001
         vertex 2.771075e+000 9.237616e+000 1.000000e+001
      endloop
   endfacet
   facet normal 4.488580e-001 -8.936031e-001 0.000000e+000
      outer loop
         vertex 2.921754e+000 9.307878e+000 8.046576e+000
         vertex 2.771075e+000 9.237616e+000 1.000000e+001
         vertex 2.771075e+000 9.237616e+000 8.046576e+000
      endloop
   endfacet
   facet normal 5.494540e-001 -8.355240e-001 0.000000e+000
      outer loop
         vertex 2.771075e+000 9.237616e+000 8.046576e+000
         vertex 2.771075e+000 9.237616e+000 1.000000e+001
         vertex 2.634886e+000 9.142255e+000 1.000000e+001
      endloop
   endfacet
   facet normal 5.972114e-001 -8.020838e-001 0.000000e+000
      outer loop
         vertex 2.771075e+000 9.237616e+000 8.046576e+000
         vertex 2.634886e+000 9.142255e+000 1.000000e+001
         vertex 2.634886e+000 9.142255e+000 8.046576e+000
      endloop
   endfacet
   facet normal 6.861938e-001 -7.274188e-001 0.000000e+000
      outer loop
         vertex 2.634886e+000 9.142255e+000 8.046576e+000
         vertex 2.634886e+000 9.142255e+000 1.000000e+001
         vertex 2.517325e+000 9.024693e+000 1.000000e+001
      endloop
   endfacet
   facet normal 7.274188e-001 -6.861938e-001 0.000000e+000
      outer loop
         vertex 2.634886e+000 9.142255e+000 8.046576e+000
         vertex 2.517325e+000 9.024693e+000 1.000000e+001
         vertex 2.517325e+000 9.024693e+000 8.046576e+000
      endloop
   endfacet
   facet normal 8.020838e-001 -5.972114e-001 0.000000e+000
      outer loop
         vertex 2.517325e+000 9.024693e+000 8.046576e+000
         vertex 2.517325e+000 9.024693e+000 1.000000e+001
         vertex 2.421964e+000 8.888505e+000 1.000000e+001
      endloop
   endfacet
   facet normal 8.355240e-001 -5.494540e-001 0.000000e+000
      outer loop
         vertex 2.517325e+000 9.024693e+000 8.046576e+000
         vertex 2.421964e+000 8.888505e+000 1.000000e+001
         vertex 2.421964e+000 8.888505e+000 8.046576e+000
      endloop
   endfacet
   facet normal 8.936031e-001 -4.488580e-001 0.000000e+000
      outer loop
         vertex 2.421964e+000 8.888505e+000 8.046576e+000
         vertex 2.421964e+000 8.888505e+000 1.000000e+001
         vertex 2.351701e+000 8.737825e+000 1.000000e+001
      endloop
   endfacet
   facet normal 9.182422e-001 -3.960194e-001 0.000000e+000
      outer loop
         vertex 2.421964e+000 8.888505e+000 8.046576e+000
         vertex 2.351701e+000 8.737825e+000 1.000000e+001
         vertex 2.351701e+000 8.737825e+000 8.046576e+000
      endloop
   endfacet
   facet normal 9.579706e-001 -2.868663e-001 0.000000e+000
      outer loop
         vertex 2.351701e+000 8.737825e+000 8.046576e+000
         vertex 2.351701e+000 8.737825e+000 1.000000e+001
         vertex 2.308671e+000 8.577235e+000 1.000000e+001
      endloop
   endfacet
   facet normal 9.730600e-001 -2.305519e-001 0.000000e+000
      outer loop
         vertex 2.351701e+000 8.737825e+000 8.046576e+000
         vertex 2.308671e+000 8.577235e+000 1.000000e+001
         vertex 2.308671e+000 8.577235e+000 8.046576e+000
      endloop
   endfacet
   facet normal 9.932307e-001 -1.161583e-001 0.000000e+000
      outer loop
         vertex 2.308671e+000 8.577235e+000 8.046576e+000
         vertex 2.308671e+000 8.577235e+000 1.000000e+001
         vertex 2.294181e+000 8.411612e+000 1.000000e+001
      endloop
   endfacet
   facet normal 9.983119e-001 -5.807913e-002 0.000000e+000
      outer loop
         vertex 2.308671e+000 8.577235e+000 8.046576e+000
         vertex 2.294181e+000 8.411612e+000 1.000000e+001
         vertex 2.294181e+000 8.411612e+000 8.046576e+000
      endloop
   endfacet
   facet normal 9.983119e-001 5.807913e-002 0.000000e+000
      outer loop
         vertex 2.294181e+000 8.411612e+000 8.046576e+000
         vertex 2.294181e+000 8.411612e+000 1.000000e+001
         vertex 2.308671e+000 8.245988e+000 1.000000e+001
      endloop
   endfacet
   facet normal 9.932307e-001 1.161583e-001 0.000000e+000
      outer loop
         vertex 2.294181e+000 8.411612e+000 8.046576e+000
         vertex 2.308671e+000 8.245988e+000 1.000000e+001
         vertex 2.308671e+000 8.245988e+000 8.046576e+000
      endloop
   endfacet
   facet normal 9.730600e-001 2.305519e-001 0.000000e+000
      outer loop
         vertex 2.308671e+000 8.245988e+000 8.046576e+000
         vertex 2.308671e+000 8.245988e+000 1.000000e+001
         vertex 2.351701e+000 8.085397e+000 1.000000e+001
      endloop
   endfacet
   facet normal 9.579706e-001 2.868663e-001 0.000000e+000
      outer loop
         vertex 2.308671e+000 8.245988e+000 8.046576e+000
         vertex 2.351701e+000 8.085397e+000 1.000000e+001
         vertex 2.351701e+000 8.085397e+000 8.046576e+000
      endloop
   endfacet
   facet normal 9.182422e-001 3.960194e-001 0.000000e+000
      outer loop
         vertex 2.351701e+000 8.085397e+000 8.046576e+000
         vertex 2.351701e+000 8.085397e+000 1.000000e+001
         vertex 2.421964e+000 7.934719e+000 1.000000e+001
      endloop
   endfacet
   facet normal 8.936031e-001 4.488580e-001 0.000000e+000
      outer loop
         vertex 2.351701e+000 8.085397e+000 8.046576e+000
         vertex 2.421964e+000 7.934719e+000 1.000000e+001
         vertex 2.421964e+000 7.934719e+000 8.046576e+000
      endloop
   endfacet
   facet normal 8.355240e-001 5.494540e-001 0.000000e+000
      outer loop
         vertex 2.421964e+000 7.934719e+000 8.046576e+000
         vertex 2.421964e+000 7.934719e+000 1.000000e+001
         vertex 2.517325e+000 7.798529e+000 1.000000e+001
      endloop
   endfacet
   facet normal 8.020838e-001 5.972114e-001 0.000000e+000
      outer loop
         vertex 2.421964e+000 7.934719e+000 8.046576e+000
         vertex 2.517325e+000 7.798529e+000 1.000000e+001
         vertex 2.517325e+000 7.798529e+000 8.046576e+000
      endloop
   endfacet
   facet normal 7.274188e-001 6.861938e-001 0.000000e+000
      outer loop
         vertex 2.517325e+000 7.798529e+000 8.046576e+000
         vertex 2.517325e+000 7.798529e+000 1.000000e+001
         vertex 2.634886e+000 7.680968e+000 1.000000e+001
      endloop
   endfacet
   facet normal 6.861938e-001 7.274188e-001 0.000000e+000
      outer loop
         vertex 2.517325e+000 7.798529e+000 8.046576e+000
         vertex 2.634886e+000 7.680968e+000 1.000000e+001
         vertex 2.634886e+000 7.680968e+000 8.046576e+000
      endloop
   endfacet
   facet normal 5.972114e-001 8.020838e-001 0.000000e+000
      outer loop
         vertex 2.634886e+000 7.680968e+000 8.046576e+000
         vertex 2.634886e+000 7.680968e+000 1.000000e+001
         vertex 2.771075e+000 7.585608e+000 1.000000e+001
      endloop
   endfacet
   facet normal 5.494540e-001 8.355240e-001 0.000000e+000
      outer loop
         vertex 2.634886e+000 7.680968e+000 8.046576e+000
         vertex 2.771075e+000 7.585608e+000 1.000000e+001
         vertex 2.771075e+000 7.585608e+000 8.046576e+000
      endloop
   endfacet
   facet normal 4.488580e-001 8.936031e-001 0.000000e+000
      outer loop
         vertex 2.771075e+000 7.585608e+000 8.046576e+000
         vertex 2.771075e+000 7.585608e+000 1.000000e+001
         vertex 2.921754e+000 7.515345e+000 1.000000e+001
      endloop
   endfacet
   facet normal 3.960194e-001 9.182422e-001 0.000000e+000
      outer loop
         vertex 2.771075e+000 7.585608e+000 8.046576e+000
         vertex 2.921754e+000 7.515345e+000 1.000000e+001
         vertex 2.921754e+000 7.515345e+000 8.046576e+000
      endloop
   endfacet
   facet normal 2.868663e-001 9.579706e-001 0.000000e+000
      outer loop
         vertex 2.921754e+000 7.515345e+000 8.046576e+000
         vertex 2.921754e+000 7.515345e+000 1.000000e+001
         vertex 3.082345e+000 7.472314e+000 1.000000e+001
      endloop
   endfacet
   facet normal 2.305519e-001 9.730600e-001 0.000000e+000
      outer loop
         vertex 2.921754e+000 7.515345e+000 8.046576e+000
         vertex 3.082345e+000 7.472314e+000 1.000000e+001
         vertex 3.082345e+000 7.472314e+000 8.046576e+000
      endloop
   endfacet
   facet normal 1.161583e-001 9.932307e-001 0.000000e+000
      outer loop
         vertex 3.082345e+000 7.472314e+000 8.046576e+000
         vertex 3.082345e+000 7.472314e+000 1.000000e+001
         vertex 3.247968e+000 7.457824e+000 1.000000e+001
      endloop
   endfacet
   facet normal 5.807913e-002 9.983119e-001 0.000000e+000
      outer loop
         vertex 3.082345e+000 7.472314e+000 8.046576e+000
         vertex 3.247968e+000 7.457824e+000 1.000000e+001
         vertex 3.247968e+000 7.457824e+000 8.046576e+000
      endloop
   endfacet
   facet normal 0.000000e+000 -1.000000e+000 0.000000e+000
      outer loop
         vertex 3.247968e+000 9.365398e+000 8.046576e+000
         vertex 1.000000e+001 9.365398e+000 8.046576e+000
         vertex 3.247968e+000 9.365398e+000 1.000000e+001
      endloop
   endfacet
   facet normal 0.000000e+000 -1.000000e+000 0.000000e+000
      outer loop
         vertex 3.247968e+000 9.365398e+000 1.000000e+001
         vertex 1.000000e+001 9.365398e+000 8.046576e+000
         vertex 1.000000e+001 9.365398e+000 1.000000e+001
      endloop
   endfacet
endsolid