solid 20_779
   facet normal -1.000000e+000 0.000000e+000 0.000000e+000
      outer loop
         vertex 0.000000e+000 1.000000e+001 1.000000e+001
         vertex 0.000000e+000 1.000000e+001 0.000000e+000
         vertex 0.000000e+000 0.000000e+000 1.000000e+001
      endloop
   endfacet
   facet normal -1.000000e+000 0.000000e+000 0.000000e+000
      outer loop
         vertex 0.000000e+000 0.000000e+000 1.000000e+001
         vertex 0.000000e+000 1.000000e+001 0.000000e+000
         vertex 0.000000e+000 0.000000e+000 0.000000e+000
      endloop
   endfacet
   facet normal 0.000000e+000 0.000000e+000 1.000000e+000
      outer loop
         vertex 7.470137e+000 7.275453e+000 1.000000e+001
         vertex 1.000000e+001 7.275453e+000 1.000000e+001
         vertex 1.000000e+001 1.000000e+001 1.000000e+001
      endloop
   endfacet
   facet normal 0.000000e+000 0.000000e+000 1.000000e+000
      outer loop
         vertex 5.558733e+000 2.405277e+000 1.000000e+001
         vertex 0.000000e+000 0.000000e+000 1.000000e+001
         vertex 5.887109e+000 2.143405e+000 1.000000e+001
      endloop
   endfacet
   facet normal 0.000000e+000 0.000000e+000 1.000000e+000
      outer loop
         vertex 5.887109e+000 2.143405e+000 1.000000e+001
         vertex 0.000000e+000 0.000000e+000 1.000000e+001
         vertex 6.250848e+000 1.933401e+000 1.000000e+001
      endloop
   endfacet
   facet normal 0.000000e+000 0.000000e+000 1.000000e+000
      outer loop
         vertex 1.000000e+001 1.655106e+000 1.000000e+001
         vertex 7.470137e+000 1.655106e+000 1.000000e+001
         vertex 1.000000e+001 0.000000e+000 1.000000e+001
      endloop
   endfacet
   facet normal 0.000000e+000 0.000000e+000 1.000000e+000
      outer loop
         vertex 1.000000e+001 0.000000e+000 1.000000e+001
         vertex 7.470137e+000 1.655106e+000 1.000000e+001
         vertex 7.051301e+000 1.686494e+000 1.000000e+001
      endloop
   endfacet
   facet normal 0.000000e+000 0.000000e+000 1.000000e+000
      outer loop
         vertex 1.000000e+001 0.000000e+000 1.000000e+001
         vertex 7.051301e+000 1.686494e+000 1.000000e+001
         vertex 0.000000e+000 0.000000e+000 1.000000e+001
      endloop
   endfacet
   facet normal 0.000000e+000 0.000000e+000 1.000000e+000
      outer loop
         vertex 0.000000e+000 0.000000e+000 1.000000e+001
         vertex 7.051301e+000 1.686494e+000 1.000000e+001
         vertex 6.641823e+000 1.779954e+000 1.000000e+001
      endloop
   endfacet
   facet normal 0.000000e+000 0.000000e+000 1.000000e+000
      outer loop
         vertex 0.000000e+000 0.000000e+000 1.000000e+001
         vertex 6.641823e+000 1.779954e+000 1.000000e+001
         vertex 6.250848e+000 1.933401e+000 1.000000e+001
      endloop
   endfacet
   facet normal 0.000000e+000 0.000000e+000 1.000000e+000
      outer loop
         vertex 5.558733e+000 2.405277e+000 1.000000e+001
         vertex 5.273054e+000 2.713165e+000 1.000000e+001
         vertex 0.000000e+000 0.000000e+000 1.000000e+001
      endloop
   endfacet
   facet normal 0.000000e+000 0.000000e+000 1.000000e+000
      outer loop
         vertex 0.000000e+000 0.000000e+000 1.000000e+001
         vertex 5.273054e+000 2.713165e+000 1.000000e+001
         vertex 5.036455e+000 3.060193e+000 1.000000e+001
      endloop
   endfacet
   facet normal 0.000000e+000 0.000000e+000 1.000000e+000
      outer loop
         vertex 0.000000e+000 0.000000e+000 1.000000e+001
         vertex 5.036455e+000 3.060193e+000 1.000000e+001
         vertex 4.854220e+000 3.438608e+000 1.000000e+001
      endloop
   endfacet
   facet normal 0.000000e+000 0.000000e+000 1.000000e+000
      outer loop
         vertex 5.036455e+000 5.870366e+000 1.000000e+001
         vertex 0.000000e+000 1.000000e+001 1.000000e+001
         vertex 4.854220e+000 5.491951e+000 1.000000e+001
      endloop
   endfacet
   facet normal 0.000000e+000 0.000000e+000 1.000000e+000
      outer loop
         vertex 4.854220e+000 5.491951e+000 1.000000e+001
         vertex 0.000000e+000 1.000000e+001 1.000000e+001
         vertex 4.730420e+000 5.090602e+000 1.000000e+001
      endloop
   endfacet
   facet normal 0.000000e+000 0.000000e+000 1.000000e+000
      outer loop
         vertex 4.854220e+000 3.438608e+000 1.000000e+001
         vertex 4.730420e+000 3.839957e+000 1.000000e+001
         vertex 0.000000e+000 0.000000e+000 1.000000e+001
      endloop
   endfacet
   facet normal 0.000000e+000 0.000000e+000 1.000000e+000
      outer loop
         vertex 0.000000e+000 0.000000e+000 1.000000e+001
         vertex 4.730420e+000 3.839957e+000 1.000000e+001
         vertex 4.667821e+000 4.255275e+000 1.000000e+001
      endloop
   endfacet
   facet normal 0.000000e+000 0.000000e+000 1.000000e+000
      outer loop
         vertex 0.000000e+000 0.000000e+000 1.000000e+001
         vertex 4.667821e+000 4.255275e+000 1.000000e+001
         vertex 0.000000e+000 1.000000e+001 1.000000e+001
      endloop
   endfacet
   facet normal 0.000000e+000 0.000000e+000 1.000000e+000
      outer loop
         vertex 0.000000e+000 1.000000e+001 1.000000e+001
         vertex 4.667821e+000 4.255275e+000 1.000000e+001
         vertex 4.667821e+000 4.675284e+000 1.000000e+001
      endloop
   endfacet
   facet normal 0.000000e+000 0.000000e+000 1.000000e+000
      outer loop
         vertex 0.000000e+000 1.000000e+001 1.000000e+001
         vertex 4.667821e+000 4.675284e+000 1.000000e+001
         vertex 4.730420e+000 5.090602e+000 1.000000e+001
      endloop
   endfacet
   facet normal 0.000000e+000 0.000000e+000 1.000000e+000
      outer loop
         vertex 5.036455e+000 5.870366e+000 1.000000e+001
         vertex 5.273054e+000 6.217394e+000 1.000000e+001
         vertex 0.000000e+000 1.000000e+001 1.000000e+001
      endloop
   endfacet
   facet normal 0.000000e+000 0.000000e+000 1.000000e+000
      outer loop
         vertex 0.000000e+000 1.000000e+001 1.000000e+001
         vertex 5.273054e+000 6.217394e+000 1.000000e+001
         vertex 5.558733e+000 6.525282e+000 1.000000e+001
      endloop
   endfacet
   facet normal 0.000000e+000 0.000000e+000 1.000000e+000
      outer loop
         vertex 0.000000e+000 1.000000e+001 1.000000e+001
         vertex 5.558733e+000 6.525282e+000 1.000000e+001
         vertex 5.887109e+000 6.787154e+000 1.000000e+001
      endloop
   endfacet
   facet normal 0.000000e+000 0.000000e+000 1.000000e+000
      outer loop
         vertex 5.887109e+000 6.787154e+000 1.000000e+001
         vertex 6.250848e+000 6.997158e+000 1.000000e+001
         vertex 0.000000e+000 1.000000e+001 1.000000e+001
      endloop
   endfacet
   facet normal 0.000000e+000 0.000000e+000 1.000000e+000
      outer loop
         vertex 0.000000e+000 1.000000e+001 1.000000e+001
         vertex 6.250848e+000 6.997158e+000 1.000000e+001
         vertex 6.641823e+000 7.150605e+000 1.000000e+001
      endloop
   endfacet
   facet normal 0.000000e+000 0.000000e+000 1.000000e+000
      outer loop
         vertex 0.000000e+000 1.000000e+001 1.000000e+001
         vertex 6.641823e+000 7.150605e+000 1.000000e+001
         vertex 1.000000e+001 1.000000e+001 1.000000e+001
      endloop
   endfacet
   facet normal 0.000000e+000 0.000000e+000 1.000000e+000
      outer loop
         vertex 1.000000e+001 1.000000e+001 1.000000e+001
         vertex 6.641823e+000 7.150605e+000 1.000000e+001
         vertex 7.051301e+000 7.244065e+000 1.000000e+001
      endloop
   endfacet
   facet normal 0.000000e+000 0.000000e+000 1.000000e+000
      outer loop
         vertex 1.000000e+001 1.000000e+001 1.000000e+001
         vertex 7.051301e+000 7.244065e+000 1.000000e+001
         vertex 7.470137e+000 7.275453e+000 1.000000e+001
      endloop
   endfacet
   facet normal 1.000000e+000 0.000000e+000 0.000000e+000
      outer loop
         vertex 1.000000e+001 1.655106e+000 1.000000e+001
         vertex 1.000000e+001 0.000000e+000 1.000000e+001
         vertex 1.000000e+001 1.655106e+000 6.123462e+000
      endloop
   endfacet
   facet normal 1.000000e+000 0.000000e+000 0.000000e+000
      outer loop
         vertex 1.000000e+001 1.655106e+000 6.123462e+000
         vertex 1.000000e+001 0.000000e+000 1.000000e+001
         vertex 1.000000e+001 0.000000e+000 0.000000e+000
      endloop
   endfacet
   facet normal 1.000000e+000 0.000000e+000 0.000000e+000
      outer loop
         vertex 1.000000e+001 1.655106e+000 6.123462e+000
         vertex 1.000000e+001 0.000000e+000 0.000000e+000
         vertex 1.000000e+001 7.275453e+000 6.123462e+000
      endloop
   endfacet
   facet normal 1.000000e+000 0.000000e+000 0.000000e+000
      outer loop
         vertex 1.000000e+001 7.275453e+000 6.123462e+000
         vertex 1.000000e+001 0.000000e+000 0.000000e+000
         vertex 1.000000e+001 1.000000e+001 0.000000e+000
      endloop
   endfacet
   facet normal 1.000000e+000 0.000000e+000 0.000000e+000
      outer loop
         vertex 1.000000e+001 7.275453e+000 6.123462e+000
         vertex 1.000000e+001 1.000000e+001 0.000000e+000
         vertex 1.000000e+001 7.275453e+000 1.000000e+001
      endloop
   endfacet
   facet normal 1.000000e+000 0.000000e+000 0.000000e+000
      outer loop
         vertex 1.000000e+001 7.275453e+000 1.000000e+001
         vertex 1.000000e+001 1.000000e+001 0.000000e+000
         vertex 1.000000e+001 1.000000e+001 1.000000e+001
      endloop
   endfacet
   facet normal 0.000000e+000 0.000000e+000 -1.000000e+000
      outer loop
         vertex 0.000000e+000 1.000000e+001 0.000000e+000
         vertex 1.000000e+001 1.000000e+001 0.000000e+000
         vertex 0.000000e+000 0.000000e+000 0.000000e+000
      endloop
   endfacet
   facet normal 0.000000e+000 0.000000e+000 -1.000000e+000
      outer loop
         vertex 0.000000e+000 0.000000e+000 0.000000e+000
         vertex 1.000000e+001 1.000000e+001 0.000000e+000
         vertex 1.000000e+001 0.000000e+000 0.000000e+000
      endloop
   endfacet
   facet normal 0.000000e+000 1.000000e+000 0.000000e+000
      outer loop
         vertex 1.000000e+001 1.000000e+001 1.000000e+001
         vertex 1.000000e+001 1.000000e+001 0.000000e+000
         vertex 0.000000e+000 1.000000e+001 1.000000e+001
      endloop
   endfacet
   facet normal 0.000000e+000 1.000000e+000 0.000000e+000
      outer loop
         vertex 0.000000e+000 1.000000e+001 1.000000e+001
         vertex 1.000000e+001 1.000000e+001 0.000000e+000
         vertex 0.000000e+000 1.000000e+001 0.000000e+000
      endloop
   endfacet
   facet normal 0.000000e+000 -1.000000e+000 0.000000e+000
      outer loop
         vertex 1.000000e+001 0.000000e+000 0.000000e+000
         vertex 1.000000e+001 0.000000e+000 1.000000e+001
         vertex 0.000000e+000 0.000000e+000 0.000000e+000
      endloop
   endfacet
   facet normal 0.000000e+000 -1.000000e+000 0.000000e+000
      outer loop
         vertex 0.000000e+000 0.000000e+000 0.000000e+000
         vertex 1.000000e+001 0.000000e+000 1.000000e+001
         vertex 0.000000e+000 0.000000e+000 1.000000e+001
      endloop
   endfacet
   facet normal 0.000000e+000 0.000000e+000 1.000000e+000
      outer loop
         vertex 1.000000e+001 1.655106e+000 6.123462e+000
         vertex 1.000000e+001 7.275453e+000 6.123462e+000
         vertex 7.470137e+000 1.655106e+000 6.123462e+000
      endloop
   endfacet
   facet normal 0.000000e+000 0.000000e+000 1.000000e+000
      outer loop
         vertex 7.470137e+000 1.655106e+000 6.123462e+000
         vertex 1.000000e+001 7.275453e+000 6.123462e+000
         vertex 7.470137e+000 7.275453e+000 6.123462e+000
      endloop
   endfacet
   facet normal 0.000000e+000 0.000000e+000 1.000000e+000
      outer loop
         vertex 7.470137e+000 1.655106e+000 6.123462e+000
         vertex 7.470137e+000 7.275453e+000 6.123462e+000
         vertex 7.051301e+000 1.686494e+000 6.123462e+000
      endloop
   endfacet
   facet normal 0.000000e+000 0.000000e+000 1.000000e+000
      outer loop
         vertex 5.036455e+000 3.060193e+000 6.123462e+000
         vertex 5.273054e+000 2.713165e+000 6.123462e+000
         vertex 6.641823e+000 7.150605e+000 6.123462e+000
      endloop
   endfacet
   facet normal 0.000000e+000 0.000000e+000 1.000000e+000
      outer loop
         vertex 6.641823e+000 7.150605e+000 6.123462e+000
         vertex 5.273054e+000 2.713165e+000 6.123462e+000
         vertex 7.051301e+000 7.244065e+000 6.123462e+000
      endloop
   endfacet
   facet normal 0.000000e+000 0.000000e+000 1.000000e+000
      outer loop
         vertex 5.036455e+000 5.870366e+000 6.123462e+000
         vertex 4.854220e+000 5.491951e+000 6.123462e+000
         vertex 6.641823e+000 7.150605e+000 6.123462e+000
      endloop
   endfacet
   facet normal 0.000000e+000 0.000000e+000 1.000000e+000
      outer loop
         vertex 7.051301e+000 7.244065e+000 6.123462e+000
         vertex 5.273054e+000 2.713165e+000 6.123462e+000
         vertex 7.470137e+000 7.275453e+000 6.123462e+000
      endloop
   endfacet
   facet normal 0.000000e+000 0.000000e+000 1.000000e+000
      outer loop
         vertex 7.470137e+000 7.275453e+000 6.123462e+000
         vertex 5.273054e+000 2.713165e+000 6.123462e+000
         vertex 5.558733e+000 2.405277e+000 6.123462e+000
      endloop
   endfacet
   facet normal 0.000000e+000 0.000000e+000 1.000000e+000
      outer loop
         vertex 7.470137e+000 7.275453e+000 6.123462e+000
         vertex 5.558733e+000 2.405277e+000 6.123462e+000
         vertex 5.887109e+000 2.143405e+000 6.123462e+000
      endloop
   endfacet
   facet normal 0.000000e+000 0.000000e+000 1.000000e+000
      outer loop
         vertex 6.250848e+000 6.997158e+000 6.123462e+000
         vertex 5.887109e+000 6.787154e+000 6.123462e+000
         vertex 5.558733e+000 6.525282e+000 6.123462e+000
      endloop
   endfacet
   facet normal 0.000000e+000 0.000000e+000 1.000000e+000
      outer loop
         vertex 4.854220e+000 5.491951e+000 6.123462e+000
         vertex 4.730420e+000 5.090602e+000 6.123462e+000
         vertex 6.641823e+000 7.150605e+000 6.123462e+000
      endloop
   endfacet
   facet normal 0.000000e+000 0.000000e+000 1.000000e+000
      outer loop
         vertex 6.641823e+000 7.150605e+000 6.123462e+000
         vertex 4.730420e+000 5.090602e+000 6.123462e+000
         vertex 4.667821e+000 4.675284e+000 6.123462e+000
      endloop
   endfacet
   facet normal 0.000000e+000 0.000000e+000 1.000000e+000
      outer loop
         vertex 6.641823e+000 7.150605e+000 6.123462e+000
         vertex 4.667821e+000 4.675284e+000 6.123462e+000
         vertex 4.667821e+000 4.255275e+000 6.123462e+000
      endloop
   endfacet
   facet normal 0.000000e+000 0.000000e+000 1.000000e+000
      outer loop
         vertex 5.887109e+000 2.143405e+000 6.123462e+000
         vertex 6.250848e+000 1.933401e+000 6.123462e+000
         vertex 7.470137e+000 7.275453e+000 6.123462e+000
      endloop
   endfacet
   facet normal 0.000000e+000 0.000000e+000 1.000000e+000
      outer loop
         vertex 7.470137e+000 7.275453e+000 6.123462e+000
         vertex 6.250848e+000 1.933401e+000 6.123462e+000
         vertex 6.641823e+000 1.779954e+000 6.123462e+000
      endloop
   endfacet
   facet normal 0.000000e+000 0.000000e+000 1.000000e+000
      outer loop
         vertex 7.470137e+000 7.275453e+000 6.123462e+000
         vertex 6.641823e+000 1.779954e+000 6.123462e+000
         vertex 7.051301e+000 1.686494e+000 6.123462e+000
      endloop
   endfacet
   facet normal 0.000000e+000 0.000000e+000 1.000000e+000
      outer loop
         vertex 4.667821e+000 4.255275e+000 6.123462e+000
         vertex 4.730420e+000 3.839957e+000 6.123462e+000
         vertex 6.641823e+000 7.150605e+000 6.123462e+000
      endloop
   endfacet
   facet normal 0.000000e+000 0.000000e+000 1.000000e+000
      outer loop
         vertex 6.641823e+000 7.150605e+000 6.123462e+000
         vertex 4.730420e+000 3.839957e+000 6.123462e+000
         vertex 4.854220e+000 3.438608e+000 6.123462e+000
      endloop
   endfacet
   facet normal 0.000000e+000 0.000000e+000 1.000000e+000
      outer loop
         vertex 6.641823e+000 7.150605e+000 6.123462e+000
         vertex 4.854220e+000 3.438608e+000 6.123462e+000
         vertex 5.036455e+000 3.060193e+000 6.123462e+000
      endloop
   endfacet
   facet normal 0.000000e+000 0.000000e+000 1.000000e+000
      outer loop
         vertex 6.250848e+000 6.997158e+000 6.123462e+000
         vertex 5.558733e+000 6.525282e+000 6.123462e+000
         vertex 6.641823e+000 7.150605e+000 6.123462e+000
      endloop
   endfacet
   facet normal 0.000000e+000 0.000000e+000 1.000000e+000
      outer loop
         vertex 6.641823e+000 7.150605e+000 6.123462e+000
         vertex 5.558733e+000 6.525282e+000 6.123462e+000
         vertex 5.273054e+000 6.217394e+000 6.123462e+000
      endloop
   endfacet
   facet normal 0.000000e+000 0.000000e+000 1.000000e+000
      outer loop
         vertex 6.641823e+000 7.150605e+000 6.123462e+000
         vertex 5.273054e+000 6.217394e+000 6.123462e+000
         vertex 5.036455e+000 5.870366e+000 6.123462e+000
      endloop
   endfacet
   facet normal 0.000000e+000 1.000000e+000 0.000000e+000
      outer loop
         vertex 1.000000e+001 1.655106e+000 6.123462e+000
         vertex 7.470137e+000 1.655106e+000 6.123462e+000
         vertex 1.000000e+001 1.655106e+000 1.000000e+001
      endloop
   endfacet
   facet normal 0.000000e+000 1.000000e+000 0.000000e+000
      outer loop
         vertex 1.000000e+001 1.655106e+000 1.000000e+001
         vertex 7.470137e+000 1.655106e+000 6.123462e+000
         vertex 7.470137e+000 1.655106e+000 1.000000e+001
      endloop
   endfacet
   facet normal 4.980453e-002 -9.987590e-001 0.000000e+000
      outer loop
         vertex 7.470137e+000 7.275453e+000 6.123462e+000
         vertex 7.470137e+000 7.275453e+000 1.000000e+001
         vertex 7.051301e+000 7.244065e+000 1.000000e+001
      endloop
   endfacet
   facet normal 9.960905e-002 -9.950266e-001 0.000000e+000
      outer loop
         vertex 7.470137e+000 7.275453e+000 6.123462e+000
         vertex 7.051301e+000 7.244065e+000 1.000000e+001
         vertex 7.051301e+000 7.244065e+000 6.123462e+000
      endloop
   endfacet
   facet normal 1.981055e-001 -9.801807e-001 0.000000e+000
      outer loop
         vertex 7.051301e+000 7.244065e+000 6.123462e+000
         vertex 7.051301e+000 7.244065e+000 1.000000e+001
         vertex 6.641823e+000 7.150605e+000 1.000000e+001
      endloop
   endfacet
   facet normal 2.467975e-001 -9.690670e-001 0.000000e+000
      outer loop
         vertex 7.051301e+000 7.244065e+000 6.123462e+000
         vertex 6.641823e+000 7.150605e+000 1.000000e+001
         vertex 6.641823e+000 7.150605e+000 6.123462e+000
      endloop
   endfacet
   facet normal 3.419812e-001 -9.397067e-001 0.000000e+000
      outer loop
         vertex 6.641823e+000 7.150605e+000 6.123462e+000
         vertex 6.641823e+000 7.150605e+000 1.000000e+001
         vertex 6.250848e+000 6.997158e+000 1.000000e+001
      endloop
   endfacet
   facet normal 3.884729e-001 -9.214601e-001 0.000000e+000
      outer loop
         vertex 6.641823e+000 7.150605e+000 6.123462e+000
         vertex 6.250848e+000 6.997158e+000 1.000000e+001
         vertex 6.250848e+000 6.997158e+000 6.123462e+000
      endloop
   endfacet
   facet normal 4.782176e-001 -8.782414e-001 0.000000e+000
      outer loop
         vertex 6.250848e+000 6.997158e+000 6.123462e+000
         vertex 6.250848e+000 6.997158e+000 1.000000e+001
         vertex 5.887109e+000 6.787154e+000 1.000000e+001
      endloop
   endfacet
   facet normal 5.214705e-001 -8.532693e-001 0.000000e+000
      outer loop
         vertex 6.250848e+000 6.997158e+000 6.123462e+000
         vertex 5.887109e+000 6.787154e+000 1.000000e+001
         vertex 5.887109e+000 6.787154e+000 6.123462e+000
      endloop
   endfacet
   facet normal 6.037714e-001 -7.971576e-001 0.000000e+000
      outer loop
         vertex 5.887109e+000 6.787154e+000 6.123462e+000
         vertex 5.887109e+000 6.787154e+000 1.000000e+001
         vertex 5.558733e+000 6.525282e+000 1.000000e+001
      endloop
   endfacet
   facet normal 6.428193e-001 -7.660179e-001 0.000000e+000
      outer loop
         vertex 5.887109e+000 6.787154e+000 6.123462e+000
         vertex 5.558733e+000 6.525282e+000 1.000000e+001
         vertex 5.558733e+000 6.525282e+000 6.123462e+000
      endloop
   endfacet
   facet normal 7.158380e-001 -6.982664e-001 0.000000e+000
      outer loop
         vertex 5.558733e+000 6.525282e+000 6.123462e+000
         vertex 5.558733e+000 6.525282e+000 1.000000e+001
         vertex 5.273054e+000 6.217394e+000 1.000000e+001
      endloop
   endfacet
   facet normal 7.498086e-001 -6.616548e-001 0.000000e+000
      outer loop
         vertex 5.558733e+000 6.525282e+000 6.123462e+000
         vertex 5.273054e+000 6.217394e+000 1.000000e+001
         vertex 5.273054e+000 6.217394e+000 6.123462e+000
      endloop
   endfacet
   facet normal 8.119138e-001 -5.837772e-001 0.000000e+000
      outer loop
         vertex 5.273054e+000 6.217394e+000 6.123462e+000
         vertex 5.273054e+000 6.217394e+000 1.000000e+001
         vertex 5.036455e+000 5.870366e+000 1.000000e+001
      endloop
   endfacet
   facet normal 8.400484e-001 -5.425115e-001 0.000000e+000
      outer loop
         vertex 5.273054e+000 6.217394e+000 6.123462e+000
         vertex 5.036455e+000 5.870366e+000 1.000000e+001
         vertex 5.036455e+000 5.870366e+000 6.123462e+000
      endloop
   endfacet
   facet normal 8.898529e-001 -4.562475e-001 0.000000e+000
      outer loop
         vertex 5.036455e+000 5.870366e+000 6.123462e+000
         vertex 5.036455e+000 5.870366e+000 1.000000e+001
         vertex 4.854220e+000 5.491951e+000 1.000000e+001
      endloop
   endfacet
   facet normal 9.115229e-001 -4.112494e-001 0.000000e+000
      outer loop
         vertex 5.036455e+000 5.870366e+000 6.123462e+000
         vertex 4.854220e+000 5.491951e+000 1.000000e+001
         vertex 4.854220e+000 5.491951e+000 6.123462e+000
      endloop
   endfacet
   facet normal 9.479141e-001 -3.185259e-001 0.000000e+000
      outer loop
         vertex 4.854220e+000 5.491951e+000 6.123462e+000
         vertex 4.854220e+000 5.491951e+000 1.000000e+001
         vertex 4.730420e+000 5.090602e+000 1.000000e+001
      endloop
   endfacet
   facet normal 9.626355e-001 -2.708006e-001 0.000000e+000
      outer loop
         vertex 4.854220e+000 5.491951e+000 6.123462e+000
         vertex 4.730420e+000 5.090602e+000 1.000000e+001
         vertex 4.730420e+000 5.090602e+000 6.123462e+000
      endloop
   endfacet
   facet normal 9.848005e-001 -1.736889e-001 0.000000e+000
      outer loop
         vertex 4.730420e+000 5.090602e+000 6.123462e+000
         vertex 4.730420e+000 5.090602e+000 1.000000e+001
         vertex 4.667821e+000 4.675284e+000 1.000000e+001
      endloop
   endfacet
   facet normal 9.922444e-001 -1.243026e-001 0.000000e+000
      outer loop
         vertex 4.730420e+000 5.090602e+000 6.123462e+000
         vertex 4.667821e+000 4.675284e+000 1.000000e+001
         vertex 4.667821e+000 4.675284e+000 6.123462e+000
      endloop
   endfacet
   facet normal 9.996881e-001 -2.497209e-002 0.000000e+000
      outer loop
         vertex 4.667821e+000 4.675284e+000 6.123462e+000
         vertex 4.667821e+000 4.675284e+000 1.000000e+001
         vertex 4.667821e+000 4.255275e+000 1.000000e+001
      endloop
   endfacet
   facet normal 9.996881e-001 2.497209e-002 0.000000e+000
      outer loop
         vertex 4.667821e+000 4.675284e+000 6.123462e+000
         vertex 4.667821e+000 4.255275e+000 1.000000e+001
         vertex 4.667821e+000 4.255275e+000 6.123462e+000
      endloop
   endfacet
   facet normal 9.922444e-001 1.243026e-001 0.000000e+000
      outer loop
         vertex 4.667821e+000 4.255275e+000 6.123462e+000
         vertex 4.667821e+000 4.255275e+000 1.000000e+001
         vertex 4.730420e+000 3.839957e+000 1.000000e+001
      endloop
   endfacet
   facet normal 9.848005e-001 1.736889e-001 0.000000e+000
      outer loop
         vertex 4.667821e+000 4.255275e+000 6.123462e+000
         vertex 4.730420e+000 3.839957e+000 1.000000e+001
         vertex 4.730420e+000 3.839957e+000 6.123462e+000
      endloop
   endfacet
   facet normal 9.626355e-001 2.708006e-001 0.000000e+000
      outer loop
         vertex 4.730420e+000 3.839957e+000 6.123462e+000
         vertex 4.730420e+000 3.839957e+000 1.000000e+001
         vertex 4.854220e+000 3.438608e+000 1.000000e+001
      endloop
   endfacet
   facet normal 9.479141e-001 3.185259e-001 0.000000e+000
      outer loop
         vertex 4.730420e+000 3.839957e+000 6.123462e+000
         vertex 4.854220e+000 3.438608e+000 1.000000e+001
         vertex 4.854220e+000 3.438608e+000 6.123462e+000
      endloop
   endfacet
   facet normal 9.115229e-001 4.112494e-001 0.000000e+000
      outer loop
         vertex 4.854220e+000 3.438608e+000 6.123462e+000
         vertex 4.854220e+000 3.438608e+000 1.000000e+001
         vertex 5.036455e+000 3.060193e+000 1.000000e+001
      endloop
   endfacet
   facet normal 8.898529e-001 4.562475e-001 0.000000e+000
      outer loop
         vertex 4.854220e+000 3.438608e+000 6.123462e+000
         vertex 5.036455e+000 3.060193e+000 1.000000e+001
         vertex 5.036455e+000 3.060193e+000 6.123462e+000
      endloop
   endfacet
   facet normal 8.400484e-001 5.425115e-001 0.000000e+000
      outer loop
         vertex 5.036455e+000 3.060193e+000 6.123462e+000
         vertex 5.036455e+000 3.060193e+000 1.000000e+001
         vertex 5.273054e+000 2.713165e+000 1.000000e+001
      endloop
   endfacet
   facet normal 8.119138e-001 5.837773e-001 0.000000e+000
      outer loop
         vertex 5.036455e+000 3.060193e+000 6.123462e+000
         vertex 5.273054e+000 2.713165e+000 1.000000e+001
         vertex 5.273054e+000 2.713165e+000 6.123462e+000
      endloop
   endfacet
   facet normal 7.498086e-001 6.616548e-001 0.000000e+000
      outer loop
         vertex 5.273054e+000 2.713165e+000 6.123462e+000
         vertex 5.273054e+000 2.713165e+000 1.000000e+001
         vertex 5.558733e+000 2.405277e+000 1.000000e+001
      endloop
   endfacet
   facet normal 7.158380e-001 6.982664e-001 0.000000e+000
      outer loop
         vertex 5.273054e+000 2.713165e+000 6.123462e+000
         vertex 5.558733e+000 2.405277e+000 1.000000e+001
         vertex 5.558733e+000 2.405277e+000 6.123462e+000
      endloop
   endfacet
   facet normal 6.428193e-001 7.660179e-001 0.000000e+000
      outer loop
         vertex 5.558733e+000 2.405277e+000 6.123462e+000
         vertex 5.558733e+000 2.405277e+000 1.000000e+001
         vertex 5.887109e+000 2.143405e+000 1.000000e+001
      endloop
   endfacet
   facet normal 6.037714e-001 7.971575e-001 0.000000e+000
      outer loop
         vertex 5.558733e+000 2.405277e+000 6.123462e+000
         vertex 5.887109e+000 2.143405e+000 1.000000e+001
         vertex 5.887109e+000 2.143405e+000 6.123462e+000
      endloop
   endfacet
   facet normal 5.214705e-001 8.532693e-001 0.000000e+000
      outer loop
         vertex 5.887109e+000 2.143405e+000 6.123462e+000
         vertex 5.887109e+000 2.143405e+000 1.000000e+001
         vertex 6.250848e+000 1.933401e+000 1.000000e+001
      endloop
   endfacet
   facet normal 4.782176e-001 8.782414e-001 0.000000e+000
      outer loop
         vertex 5.887109e+000 2.143405e+000 6.123462e+000
         vertex 6.250848e+000 1.933401e+000 1.000000e+001
         vertex 6.250848e+000 1.933401e+000 6.123462e+000
      endloop
   endfacet
   facet normal 3.884729e-001 9.214601e-001 0.000000e+000
      outer loop
         vertex 6.250848e+000 1.933401e+000 6.123462e+000
         vertex 6.250848e+000 1.933401e+000 1.000000e+001
         vertex 6.641823e+000 1.779954e+000 1.000000e+001
      endloop
   endfacet
   facet normal 3.419812e-001 9.397067e-001 0.000000e+000
      outer loop
         vertex 6.250848e+000 1.933401e+000 6.123462e+000
         vertex 6.641823e+000 1.779954e+000 1.000000e+001
         vertex 6.641823e+000 1.779954e+000 6.123462e+000
      endloop
   endfacet
   facet normal 2.467975e-001 9.690670e-001 0.000000e+000
      outer loop
         vertex 6.641823e+000 1.779954e+000 6.123462e+000
         vertex 6.641823e+000 1.779954e+000 1.000000e+001
         vertex 7.051301e+000 1.686494e+000 1.000000e+001
      endloop
   endfacet
   facet normal 1.981055e-001 9.801807e-001 0.000000e+000
      outer loop
         vertex 6.641823e+000 1.779954e+000 6.123462e+000
         vertex 7.051301e+000 1.686494e+000 1.000000e+001
         vertex 7.051301e+000 1.686494e+000 6.123462e+000
      endloop
   endfacet
   facet normal 9.960905e-002 9.950266e-001 0.000000e+000
      outer loop
         vertex 7.051301e+000 1.686494e+000 6.123462e+000
         vertex 7.051301e+000 1.686494e+000 1.000000e+001
         vertex 7.470137e+000 1.655106e+000 1.000000e+001
      endloop
   endfacet
   facet normal 4.980453e-002 9.987590e-001 0.000000e+000
      outer loop
         vertex 7.051301e+000 1.686494e+000 6.123462e+000
         vertex 7.470137e+000 1.655106e+000 1.000000e+001
         vertex 7.470137e+000 1.655106e+000 6.123462e+000
      endloop
   endfacet
   facet normal 0.000000e+000 -1.000000e+000 0.000000e+000
      outer loop
         vertex 7.470137e+000 7.275453e+000 6.123462e+000
         vertex 1.000000e+001 7.275453e+000 6.123462e+000
         vertex 7.470137e+000 7.275453e+000 1.000000e+001
      endloop
   endfacet
   facet normal 0.000000e+000 -1.000000e+000 0.000000e+000
      outer loop
         vertex 7.470137e+000 7.275453e+000 1.000000e+001
         vertex 1.000000e+001 7.275453e+000 6.123462e+000
         vertex 1.000000e+001 7.275453e+000 1.000000e+001
      endloop
   endfacet
endsolid