solid 20_939
   facet normal -1.000000e+000 0.000000e+000 0.000000e+000
      outer loop
         vertex 0.000000e+000 1.000000e+001 1.000000e+001
         vertex 0.000000e+000 1.000000e+001 0.000000e+000
         vertex 0.000000e+000 0.000000e+000 1.000000e+001
      endloop
   endfacet
   facet normal -1.000000e+000 0.000000e+000 0.000000e+000
      outer loop
         vertex 0.000000e+000 0.000000e+000 1.000000e+001
         vertex 0.000000e+000 1.000000e+001 0.000000e+000
         vertex 0.000000e+000 0.000000e+000 0.000000e+000
      endloop
   endfacet
   facet normal 0.000000e+000 0.000000e+000 1.000000e+000
      outer loop
         vertex 1.000000e+001 2.694112e+000 1.000000e+001
         vertex 8.152266e+000 2.694112e+000 1.000000e+001
         vertex 1.000000e+001 0.000000e+000 1.000000e+001
      endloop
   endfacet
   facet normal 0.000000e+000 0.000000e+000 1.000000e+000
      outer loop
         vertex 1.000000e+001 0.000000e+000 1.000000e+001
         vertex 8.152266e+000 2.694112e+000 1.000000e+001
         vertex 7.680490e+000 2.725034e+000 1.000000e+001
      endloop
   endfacet
   facet normal 0.000000e+000 0.000000e+000 1.000000e+000
      outer loop
         vertex 1.000000e+001 0.000000e+000 1.000000e+001
         vertex 7.680490e+000 2.725034e+000 1.000000e+001
         vertex 0.000000e+000 0.000000e+000 1.000000e+001
      endloop
   endfacet
   facet normal 0.000000e+000 0.000000e+000 1.000000e+000
      outer loop
         vertex 0.000000e+000 0.000000e+000 1.000000e+001
         vertex 7.680490e+000 2.725034e+000 1.000000e+001
         vertex 7.216788e+000 2.817270e+000 1.000000e+001
      endloop
   endfacet
   facet normal 0.000000e+000 0.000000e+000 1.000000e+000
      outer loop
         vertex 0.000000e+000 0.000000e+000 1.000000e+001
         vertex 7.216788e+000 2.817270e+000 1.000000e+001
         vertex 6.769093e+000 2.969242e+000 1.000000e+001
      endloop
   endfacet
   facet normal 0.000000e+000 0.000000e+000 1.000000e+000
      outer loop
         vertex 6.769093e+000 2.969242e+000 1.000000e+001
         vertex 6.345063e+000 3.178350e+000 1.000000e+001
         vertex 0.000000e+000 0.000000e+000 1.000000e+001
      endloop
   endfacet
   facet normal 0.000000e+000 0.000000e+000 1.000000e+000
      outer loop
         vertex 0.000000e+000 0.000000e+000 1.000000e+001
         vertex 6.345063e+000 3.178350e+000 1.000000e+001
         vertex 5.951955e+000 3.441016e+000 1.000000e+001
      endloop
   endfacet
   facet normal 0.000000e+000 0.000000e+000 1.000000e+000
      outer loop
         vertex 0.000000e+000 0.000000e+000 1.000000e+001
         vertex 5.951955e+000 3.441016e+000 1.000000e+001
         vertex 5.596496e+000 3.752746e+000 1.000000e+001
      endloop
   endfacet
   facet normal 0.000000e+000 0.000000e+000 1.000000e+000
      outer loop
         vertex 0.000000e+000 1.000000e+001 1.000000e+001
         vertex 4.568784e+000 6.780289e+000 1.000000e+001
         vertex 4.661019e+000 7.243991e+000 1.000000e+001
      endloop
   endfacet
   facet normal 0.000000e+000 0.000000e+000 1.000000e+000
      outer loop
         vertex 5.284766e+000 8.508823e+000 1.000000e+001
         vertex 5.596496e+000 8.864284e+000 1.000000e+001
         vertex 0.000000e+000 1.000000e+001 1.000000e+001
      endloop
   endfacet
   facet normal 0.000000e+000 0.000000e+000 1.000000e+000
      outer loop
         vertex 0.000000e+000 1.000000e+001 1.000000e+001
         vertex 5.596496e+000 8.864284e+000 1.000000e+001
         vertex 5.951955e+000 9.176014e+000 1.000000e+001
      endloop
   endfacet
   facet normal 0.000000e+000 0.000000e+000 1.000000e+000
      outer loop
         vertex 4.661019e+000 7.243991e+000 1.000000e+001
         vertex 4.812992e+000 7.691687e+000 1.000000e+001
         vertex 0.000000e+000 1.000000e+001 1.000000e+001
      endloop
   endfacet
   facet normal 0.000000e+000 0.000000e+000 1.000000e+000
      outer loop
         vertex 0.000000e+000 1.000000e+001 1.000000e+001
         vertex 4.812992e+000 7.691687e+000 1.000000e+001
         vertex 5.022099e+000 8.115716e+000 1.000000e+001
      endloop
   endfacet
   facet normal 0.000000e+000 0.000000e+000 1.000000e+000
      outer loop
         vertex 0.000000e+000 1.000000e+001 1.000000e+001
         vertex 5.022099e+000 8.115716e+000 1.000000e+001
         vertex 5.284766e+000 8.508823e+000 1.000000e+001
      endloop
   endfacet
   facet normal 0.000000e+000 0.000000e+000 1.000000e+000
      outer loop
         vertex 5.951955e+000 9.176014e+000 1.000000e+001
         vertex 6.345063e+000 9.438680e+000 1.000000e+001
         vertex 0.000000e+000 1.000000e+001 1.000000e+001
      endloop
   endfacet
   facet normal 0.000000e+000 0.000000e+000 1.000000e+000
      outer loop
         vertex 0.000000e+000 1.000000e+001 1.000000e+001
         vertex 6.345063e+000 9.438680e+000 1.000000e+001
         vertex 6.769093e+000 9.647787e+000 1.000000e+001
      endloop
   endfacet
   facet normal 0.000000e+000 0.000000e+000 1.000000e+000
      outer loop
         vertex 0.000000e+000 1.000000e+001 1.000000e+001
         vertex 6.769093e+000 9.647787e+000 1.000000e+001
         vertex 7.216788e+000 9.799760e+000 1.000000e+001
      endloop
   endfacet
   facet normal 0.000000e+000 0.000000e+000 1.000000e+000
      outer loop
         vertex 7.216788e+000 9.799760e+000 1.000000e+001
         vertex 7.680490e+000 9.891996e+000 1.000000e+001
         vertex 0.000000e+000 1.000000e+001 1.000000e+001
      endloop
   endfacet
   facet normal 0.000000e+000 0.000000e+000 1.000000e+000
      outer loop
         vertex 0.000000e+000 1.000000e+001 1.000000e+001
         vertex 7.680490e+000 9.891996e+000 1.000000e+001
         vertex 8.152266e+000 9.922918e+000 1.000000e+001
      endloop
   endfacet
   facet normal 0.000000e+000 0.000000e+000 1.000000e+000
      outer loop
         vertex 0.000000e+000 1.000000e+001 1.000000e+001
         vertex 8.152266e+000 9.922918e+000 1.000000e+001
         vertex 1.000000e+001 1.000000e+001 1.000000e+001
      endloop
   endfacet
   facet normal 0.000000e+000 0.000000e+000 1.000000e+000
      outer loop
         vertex 1.000000e+001 1.000000e+001 1.000000e+001
         vertex 8.152266e+000 9.922918e+000 1.000000e+001
         vertex 1.000000e+001 9.922918e+000 1.000000e+001
      endloop
   endfacet
   facet normal 0.000000e+000 0.000000e+000 1.000000e+000
      outer loop
         vertex 5.596496e+000 3.752746e+000 1.000000e+001
         vertex 5.284766e+000 4.108206e+000 1.000000e+001
         vertex 0.000000e+000 0.000000e+000 1.000000e+001
      endloop
   endfacet
   facet normal 0.000000e+000 0.000000e+000 1.000000e+000
      outer loop
         vertex 0.000000e+000 0.000000e+000 1.000000e+001
         vertex 5.284766e+000 4.108206e+000 1.000000e+001
         vertex 5.022099e+000 4.501313e+000 1.000000e+001
      endloop
   endfacet
   facet normal 0.000000e+000 0.000000e+000 1.000000e+000
      outer loop
         vertex 0.000000e+000 0.000000e+000 1.000000e+001
         vertex 5.022099e+000 4.501313e+000 1.000000e+001
         vertex 4.812992e+000 4.925343e+000 1.000000e+001
      endloop
   endfacet
   facet normal 0.000000e+000 0.000000e+000 1.000000e+000
      outer loop
         vertex 4.812992e+000 4.925343e+000 1.000000e+001
         vertex 4.661019e+000 5.373039e+000 1.000000e+001
         vertex 0.000000e+000 0.000000e+000 1.000000e+001
      endloop
   endfacet
   facet normal 0.000000e+000 0.000000e+000 1.000000e+000
      outer loop
         vertex 0.000000e+000 0.000000e+000 1.000000e+001
         vertex 4.661019e+000 5.373039e+000 1.000000e+001
         vertex 4.568784e+000 5.836740e+000 1.000000e+001
      endloop
   endfacet
   facet normal 0.000000e+000 0.000000e+000 1.000000e+000
      outer loop
         vertex 0.000000e+000 0.000000e+000 1.000000e+001
         vertex 4.568784e+000 5.836740e+000 1.000000e+001
         vertex 0.000000e+000 1.000000e+001 1.000000e+001
      endloop
   endfacet
   facet normal 0.000000e+000 0.000000e+000 1.000000e+000
      outer loop
         vertex 0.000000e+000 1.000000e+001 1.000000e+001
         vertex 4.568784e+000 5.836740e+000 1.000000e+001
         vertex 4.537862e+000 6.308515e+000 1.000000e+001
      endloop
   endfacet
   facet normal 0.000000e+000 0.000000e+000 1.000000e+000
      outer loop
         vertex 0.000000e+000 1.000000e+001 1.000000e+001
         vertex 4.537862e+000 6.308515e+000 1.000000e+001
         vertex 4.568784e+000 6.780289e+000 1.000000e+001
      endloop
   endfacet
   facet normal 1.000000e+000 0.000000e+000 0.000000e+000
      outer loop
         vertex 1.000000e+001 1.000000e+001 1.000000e+001
         vertex 1.000000e+001 9.922918e+000 1.000000e+001
         vertex 1.000000e+001 9.922918e+000 3.864367e+000
      endloop
   endfacet
   facet normal 1.000000e+000 0.000000e+000 0.000000e+000
      outer loop
         vertex 1.000000e+001 2.694112e+000 1.000000e+001
         vertex 1.000000e+001 0.000000e+000 1.000000e+001
         vertex 1.000000e+001 2.694112e+000 3.864367e+000
      endloop
   endfacet
   facet normal 1.000000e+000 0.000000e+000 0.000000e+000
      outer loop
         vertex 1.000000e+001 2.694112e+000 3.864367e+000
         vertex 1.000000e+001 0.000000e+000 1.000000e+001
         vertex 1.000000e+001 0.000000e+000 0.000000e+000
      endloop
   endfacet
   facet normal 1.000000e+000 0.000000e+000 0.000000e+000
      outer loop
         vertex 1.000000e+001 2.694112e+000 3.864367e+000
         vertex 1.000000e+001 0.000000e+000 0.000000e+000
         vertex 1.000000e+001 9.922918e+000 3.864367e+000
      endloop
   endfacet
   facet normal 1.000000e+000 0.000000e+000 0.000000e+000
      outer loop
         vertex 1.000000e+001 9.922918e+000 3.864367e+000
         vertex 1.000000e+001 0.000000e+000 0.000000e+000
         vertex 1.000000e+001 1.000000e+001 0.000000e+000
      endloop
   endfacet
   facet normal 1.000000e+000 0.000000e+000 0.000000e+000
      outer loop
         vertex 1.000000e+001 9.922918e+000 3.864367e+000
         vertex 1.000000e+001 1.000000e+001 0.000000e+000
         vertex 1.000000e+001 1.000000e+001 1.000000e+001
      endloop
   endfacet
   facet normal 0.000000e+000 0.000000e+000 -1.000000e+000
      outer loop
         vertex 0.000000e+000 1.000000e+001 0.000000e+000
         vertex 1.000000e+001 1.000000e+001 0.000000e+000
         vertex 0.000000e+000 0.000000e+000 0.000000e+000
      endloop
   endfacet
   facet normal 0.000000e+000 0.000000e+000 -1.000000e+000
      outer loop
         vertex 0.000000e+000 0.000000e+000 0.000000e+000
         vertex 1.000000e+001 1.000000e+001 0.000000e+000
         vertex 1.000000e+001 0.000000e+000 0.000000e+000
      endloop
   endfacet
   facet normal 0.000000e+000 1.000000e+000 0.000000e+000
      outer loop
         vertex 1.000000e+001 1.000000e+001 1.000000e+001
         vertex 1.000000e+001 1.000000e+001 0.000000e+000
         vertex 0.000000e+000 1.000000e+001 1.000000e+001
      endloop
   endfacet
   facet normal 0.000000e+000 1.000000e+000 0.000000e+000
      outer loop
         vertex 0.000000e+000 1.000000e+001 1.000000e+001
         vertex 1.000000e+001 1.000000e+001 0.000000e+000
         vertex 0.000000e+000 1.000000e+001 0.000000e+000
      endloop
   endfacet
   facet normal 0.000000e+000 -1.000000e+000 0.000000e+000
      outer loop
         vertex 1.000000e+001 0.000000e+000 0.000000e+000
         vertex 1.000000e+001 0.000000e+000 1.000000e+001
         vertex 0.000000e+000 0.000000e+000 0.000000e+000
      endloop
   endfacet
   facet normal 0.000000e+000 -1.000000e+000 0.000000e+000
      outer loop
         vertex 0.000000e+000 0.000000e+000 0.000000e+000
         vertex 1.000000e+001 0.000000e+000 1.000000e+001
         vertex 0.000000e+000 0.000000e+000 1.000000e+001
      endloop
   endfacet
   facet normal 0.000000e+000 0.000000e+000 1.000000e+000
      outer loop
         vertex 8.152266e+000 2.694112e+000 3.864367e+000
         vertex 1.000000e+001 2.694112e+000 3.864367e+000
         vertex 1.000000e+001 9.922918e+000 3.864367e+000
      endloop
   endfacet
   facet normal 0.000000e+000 0.000000e+000 1.000000e+000
      outer loop
         vertex 1.000000e+001 9.922918e+000 3.864367e+000
         vertex 8.152266e+000 9.922918e+000 3.864367e+000
         vertex 8.152266e+000 2.694112e+000 3.864367e+000
      endloop
   endfacet
   facet normal 0.000000e+000 0.000000e+000 1.000000e+000
      outer loop
         vertex 8.152266e+000 2.694112e+000 3.864367e+000
         vertex 8.152266e+000 9.922918e+000 3.864367e+000
         vertex 7.680490e+000 9.891996e+000 3.864367e+000
      endloop
   endfacet
   facet normal 0.000000e+000 0.000000e+000 1.000000e+000
      outer loop
         vertex 8.152266e+000 2.694112e+000 3.864367e+000
         vertex 7.680490e+000 9.891996e+000 3.864367e+000
         vertex 7.216788e+000 9.799760e+000 3.864367e+000
      endloop
   endfacet
   facet normal 0.000000e+000 0.000000e+000 1.000000e+000
      outer loop
         vertex 7.216788e+000 9.799760e+000 3.864367e+000
         vertex 6.769093e+000 9.647787e+000 3.864367e+000
         vertex 8.152266e+000 2.694112e+000 3.864367e+000
      endloop
   endfacet
   facet normal 0.000000e+000 0.000000e+000 1.000000e+000
      outer loop
         vertex 8.152266e+000 2.694112e+000 3.864367e+000
         vertex 6.769093e+000 9.647787e+000 3.864367e+000
         vertex 6.345063e+000 9.438680e+000 3.864367e+000
      endloop
   endfacet
   facet normal 0.000000e+000 0.000000e+000 1.000000e+000
      outer loop
         vertex 8.152266e+000 2.694112e+000 3.864367e+000
         vertex 6.345063e+000 9.438680e+000 3.864367e+000
         vertex 5.951955e+000 9.176014e+000 3.864367e+000
      endloop
   endfacet
   facet normal 0.000000e+000 0.000000e+000 1.000000e+000
      outer loop
         vertex 5.951955e+000 9.176014e+000 3.864367e+000
         vertex 5.596496e+000 8.864284e+000 3.864367e+000
         vertex 8.152266e+000 2.694112e+000 3.864367e+000
      endloop
   endfacet
   facet normal 0.000000e+000 0.000000e+000 1.000000e+000
      outer loop
         vertex 8.152266e+000 2.694112e+000 3.864367e+000
         vertex 5.596496e+000 8.864284e+000 3.864367e+000
         vertex 5.284766e+000 8.508823e+000 3.864367e+000
      endloop
   endfacet
   facet normal 0.000000e+000 0.000000e+000 1.000000e+000
      outer loop
         vertex 8.152266e+000 2.694112e+000 3.864367e+000
         vertex 5.284766e+000 8.508823e+000 3.864367e+000
         vertex 7.680490e+000 2.725034e+000 3.864367e+000
      endloop
   endfacet
   facet normal 0.000000e+000 0.000000e+000 1.000000e+000
      outer loop
         vertex 7.680490e+000 2.725034e+000 3.864367e+000
         vertex 5.284766e+000 8.508823e+000 3.864367e+000
         vertex 5.022099e+000 8.115716e+000 3.864367e+000
      endloop
   endfacet
   facet normal 0.000000e+000 0.000000e+000 1.000000e+000
      outer loop
         vertex 5.022099e+000 8.115716e+000 3.864367e+000
         vertex 4.812992e+000 7.691687e+000 3.864367e+000
         vertex 7.680490e+000 2.725034e+000 3.864367e+000
      endloop
   endfacet
   facet normal 0.000000e+000 0.000000e+000 1.000000e+000
      outer loop
         vertex 7.680490e+000 2.725034e+000 3.864367e+000
         vertex 4.812992e+000 7.691687e+000 3.864367e+000
         vertex 4.661019e+000 7.243991e+000 3.864367e+000
      endloop
   endfacet
   facet normal 0.000000e+000 0.000000e+000 1.000000e+000
      outer loop
         vertex 7.680490e+000 2.725034e+000 3.864367e+000
         vertex 4.661019e+000 7.243991e+000 3.864367e+000
         vertex 4.568784e+000 6.780289e+000 3.864367e+000
      endloop
   endfacet
   facet normal 0.000000e+000 0.000000e+000 1.000000e+000
      outer loop
         vertex 5.284766e+000 4.108206e+000 3.864367e+000
         vertex 5.596496e+000 3.752746e+000 3.864367e+000
         vertex 5.951955e+000 3.441016e+000 3.864367e+000
      endloop
   endfacet
   facet normal 0.000000e+000 0.000000e+000 1.000000e+000
      outer loop
         vertex 4.661019e+000 5.373039e+000 3.864367e+000
         vertex 4.812992e+000 4.925343e+000 3.864367e+000
         vertex 7.680490e+000 2.725034e+000 3.864367e+000
      endloop
   endfacet
   facet normal 0.000000e+000 0.000000e+000 1.000000e+000
      outer loop
         vertex 7.680490e+000 2.725034e+000 3.864367e+000
         vertex 4.812992e+000 4.925343e+000 3.864367e+000
         vertex 5.022099e+000 4.501313e+000 3.864367e+000
      endloop
   endfacet
   facet normal 0.000000e+000 0.000000e+000 1.000000e+000
      outer loop
         vertex 7.680490e+000 2.725034e+000 3.864367e+000
         vertex 5.022099e+000 4.501313e+000 3.864367e+000
         vertex 7.216788e+000 2.817270e+000 3.864367e+000
      endloop
   endfacet
   facet normal 0.000000e+000 0.000000e+000 1.000000e+000
      outer loop
         vertex 7.216788e+000 2.817270e+000 3.864367e+000
         vertex 5.022099e+000 4.501313e+000 3.864367e+000
         vertex 6.769093e+000 2.969242e+000 3.864367e+000
      endloop
   endfacet
   facet normal 0.000000e+000 0.000000e+000 1.000000e+000
      outer loop
         vertex 4.568784e+000 6.780289e+000 3.864367e+000
         vertex 4.537862e+000 6.308515e+000 3.864367e+000
         vertex 7.680490e+000 2.725034e+000 3.864367e+000
      endloop
   endfacet
   facet normal 0.000000e+000 0.000000e+000 1.000000e+000
      outer loop
         vertex 7.680490e+000 2.725034e+000 3.864367e+000
         vertex 4.537862e+000 6.308515e+000 3.864367e+000
         vertex 4.568784e+000 5.836740e+000 3.864367e+000
      endloop
   endfacet
   facet normal 0.000000e+000 0.000000e+000 1.000000e+000
      outer loop
         vertex 7.680490e+000 2.725034e+000 3.864367e+000
         vertex 4.568784e+000 5.836740e+000 3.864367e+000
         vertex 4.661019e+000 5.373039e+000 3.864367e+000
      endloop
   endfacet
   facet normal 0.000000e+000 0.000000e+000 1.000000e+000
      outer loop
         vertex 5.284766e+000 4.108206e+000 3.864367e+000
         vertex 5.951955e+000 3.441016e+000 3.864367e+000
         vertex 5.022099e+000 4.501313e+000 3.864367e+000
      endloop
   endfacet
   facet normal 0.000000e+000 0.000000e+000 1.000000e+000
      outer loop
         vertex 5.022099e+000 4.501313e+000 3.864367e+000
         vertex 5.951955e+000 3.441016e+000 3.864367e+000
         vertex 6.345063e+000 3.178350e+000 3.864367e+000
      endloop
   endfacet
   facet normal 0.000000e+000 0.000000e+000 1.000000e+000
      outer loop
         vertex 5.022099e+000 4.501313e+000 3.864367e+000
         vertex 6.345063e+000 3.178350e+000 3.864367e+000
         vertex 6.769093e+000 2.969242e+000 3.864367e+000
      endloop
   endfacet
   facet normal 0.000000e+000 1.000000e+000 0.000000e+000
      outer loop
         vertex 1.000000e+001 2.694112e+000 3.864367e+000
         vertex 8.152266e+000 2.694112e+000 3.864367e+000
         vertex 1.000000e+001 2.694112e+000 1.000000e+001
      endloop
   endfacet
   facet normal 0.000000e+000 1.000000e+000 0.000000e+000
      outer loop
         vertex 1.000000e+001 2.694112e+000 1.000000e+001
         vertex 8.152266e+000 2.694112e+000 3.864367e+000
         vertex 8.152266e+000 2.694112e+000 1.000000e+001
      endloop
   endfacet
   facet normal 4.359168e-002 -9.990495e-001 0.000000e+000
      outer loop
         vertex 8.152266e+000 9.922918e+000 3.864367e+000
         vertex 8.152266e+000 9.922918e+000 1.000000e+001
         vertex 7.680490e+000 9.891996e+000 1.000000e+001
      endloop
   endfacet
   facet normal 8.718336e-002 -9.961922e-001 0.000000e+000
      outer loop
         vertex 8.152266e+000 9.922918e+000 3.864367e+000
         vertex 7.680490e+000 9.891996e+000 1.000000e+001
         vertex 7.680490e+000 9.891996e+000 3.864367e+000
      endloop
   endfacet
   facet normal 1.736209e-001 -9.848126e-001 0.000000e+000
      outer loop
         vertex 7.680490e+000 9.891996e+000 3.864367e+000
         vertex 7.680490e+000 9.891996e+000 1.000000e+001
         vertex 7.216788e+000 9.799760e+000 1.000000e+001
      endloop
   endfacet
   facet normal 2.164667e-001 -9.762900e-001 0.000000e+000
      outer loop
         vertex 7.680490e+000 9.891996e+000 3.864367e+000
         vertex 7.216788e+000 9.799760e+000 1.000000e+001
         vertex 7.216788e+000 9.799760e+000 3.864367e+000
      endloop
   endfacet
   facet normal 3.006794e-001 -9.537253e-001 0.000000e+000
      outer loop
         vertex 7.216788e+000 9.799760e+000 3.864367e+000
         vertex 7.216788e+000 9.799760e+000 1.000000e+001
         vertex 6.769093e+000 9.647787e+000 1.000000e+001
      endloop
   endfacet
   facet normal 3.420462e-001 -9.396831e-001 0.000000e+000
      outer loop
         vertex 7.216788e+000 9.799760e+000 3.864367e+000
         vertex 6.769093e+000 9.647787e+000 1.000000e+001
         vertex 6.769093e+000 9.647787e+000 3.864367e+000
      endloop
   endfacet
   facet normal 4.225931e-001 -9.063195e-001 0.000000e+000
      outer loop
         vertex 6.769093e+000 9.647787e+000 3.864367e+000
         vertex 6.769093e+000 9.647787e+000 1.000000e+001
         vertex 6.345063e+000 9.438680e+000 1.000000e+001
      endloop
   endfacet
   facet normal 4.617732e-001 -8.869980e-001 0.000000e+000
      outer loop
         vertex 6.769093e+000 9.647787e+000 3.864367e+000
         vertex 6.345063e+000 9.438680e+000 1.000000e+001
         vertex 6.345063e+000 9.438680e+000 3.864367e+000
      endloop
   endfacet
   facet normal 5.372763e-001 -8.434063e-001 0.000000e+000
      outer loop
         vertex 6.345063e+000 9.438680e+000 3.864367e+000
         vertex 6.345063e+000 9.438680e+000 1.000000e+001
         vertex 5.951955e+000 9.176014e+000 1.000000e+001
      endloop
   endfacet
   facet normal 5.735992e-001 -8.191361e-001 0.000000e+000
      outer loop
         vertex 6.345063e+000 9.438680e+000 3.864367e+000
         vertex 5.951955e+000 9.176014e+000 1.000000e+001
         vertex 5.951955e+000 9.176014e+000 3.864367e+000
      endloop
   endfacet
   facet normal 6.427664e-001 -7.660623e-001 0.000000e+000
      outer loop
         vertex 5.951955e+000 9.176014e+000 3.864367e+000
         vertex 5.951955e+000 9.176014e+000 1.000000e+001
         vertex 5.596496e+000 8.864284e+000 1.000000e+001
      endloop
   endfacet
   facet normal 6.756107e-001 -7.372586e-001 0.000000e+000
      outer loop
         vertex 5.951955e+000 9.176014e+000 3.864367e+000
         vertex 5.596496e+000 8.864284e+000 1.000000e+001
         vertex 5.596496e+000 8.864284e+000 3.864367e+000
      endloop
   endfacet
   facet normal 7.372586e-001 -6.756107e-001 0.000000e+000
      outer loop
         vertex 5.596496e+000 8.864284e+000 3.864367e+000
         vertex 5.596496e+000 8.864284e+000 1.000000e+001
         vertex 5.284766e+000 8.508823e+000 1.000000e+001
      endloop
   endfacet
   facet normal 7.660623e-001 -6.427664e-001 0.000000e+000
      outer loop
         vertex 5.596496e+000 8.864284e+000 3.864367e+000
         vertex 5.284766e+000 8.508823e+000 1.000000e+001
         vertex 5.284766e+000 8.508823e+000 3.864367e+000
      endloop
   endfacet
   facet normal 8.191361e-001 -5.735992e-001 0.000000e+000
      outer loop
         vertex 5.284766e+000 8.508823e+000 3.864367e+000
         vertex 5.284766e+000 8.508823e+000 1.000000e+001
         vertex 5.022099e+000 8.115716e+000 1.000000e+001
      endloop
   endfacet
   facet normal 8.434064e-001 -5.372762e-001 0.000000e+000
      outer loop
         vertex 5.284766e+000 8.508823e+000 3.864367e+000
         vertex 5.022099e+000 8.115716e+000 1.000000e+001
         vertex 5.022099e+000 8.115716e+000 3.864367e+000
      endloop
   endfacet
   facet normal 8.869980e-001 -4.617732e-001 0.000000e+000
      outer loop
         vertex 5.022099e+000 8.115716e+000 3.864367e+000
         vertex 5.022099e+000 8.115716e+000 1.000000e+001
         vertex 4.812992e+000 7.691687e+000 1.000000e+001
      endloop
   endfacet
   facet normal 9.063195e-001 -4.225931e-001 0.000000e+000
      outer loop
         vertex 5.022099e+000 8.115716e+000 3.864367e+000
         vertex 4.812992e+000 7.691687e+000 1.000000e+001
         vertex 4.812992e+000 7.691687e+000 3.864367e+000
      endloop
   endfacet
   facet normal 9.396831e-001 -3.420462e-001 0.000000e+000
      outer loop
         vertex 4.812992e+000 7.691687e+000 3.864367e+000
         vertex 4.812992e+000 7.691687e+000 1.000000e+001
         vertex 4.661019e+000 7.243991e+000 1.000000e+001
      endloop
   endfacet
   facet normal 9.537253e-001 -3.006794e-001 0.000000e+000
      outer loop
         vertex 4.812992e+000 7.691687e+000 3.864367e+000
         vertex 4.661019e+000 7.243991e+000 1.000000e+001
         vertex 4.661019e+000 7.243991e+000 3.864367e+000
      endloop
   endfacet
   facet normal 9.762900e-001 -2.164667e-001 0.000000e+000
      outer loop
         vertex 4.661019e+000 7.243991e+000 3.864367e+000
         vertex 4.661019e+000 7.243991e+000 1.000000e+001
         vertex 4.568784e+000 6.780289e+000 1.000000e+001
      endloop
   endfacet
   facet normal 9.848126e-001 -1.736209e-001 0.000000e+000
      outer loop
         vertex 4.661019e+000 7.243991e+000 3.864367e+000
         vertex 4.568784e+000 6.780289e+000 1.000000e+001
         vertex 4.568784e+000 6.780289e+000 3.864367e+000
      endloop
   endfacet
   facet normal 9.961922e-001 -8.718336e-002 0.000000e+000
      outer loop
         vertex 4.568784e+000 6.780289e+000 3.864367e+000
         vertex 4.568784e+000 6.780289e+000 1.000000e+001
         vertex 4.537862e+000 6.308515e+000 1.000000e+001
      endloop
   endfacet
   facet normal 9.990495e-001 -4.359168e-002 0.000000e+000
      outer loop
         vertex 4.568784e+000 6.780289e+000 3.864367e+000
         vertex 4.537862e+000 6.308515e+000 1.000000e+001
         vertex 4.537862e+000 6.308515e+000 3.864367e+000
      endloop
   endfacet
   facet normal 9.990495e-001 4.359168e-002 0.000000e+000
      outer loop
         vertex 4.537862e+000 6.308515e+000 3.864367e+000
         vertex 4.537862e+000 6.308515e+000 1.000000e+001
         vertex 4.568784e+000 5.836740e+000 1.000000e+001
      endloop
   endfacet
   facet normal 9.961922e-001 8.718336e-002 0.000000e+000
      outer loop
         vertex 4.537862e+000 6.308515e+000 3.864367e+000
         vertex 4.568784e+000 5.836740e+000 1.000000e+001
         vertex 4.568784e+000 5.836740e+000 3.864367e+000
      endloop
   endfacet
   facet normal 9.848126e-001 1.736209e-001 0.000000e+000
      outer loop
         vertex 4.568784e+000 5.836740e+000 3.864367e+000
         vertex 4.568784e+000 5.836740e+000 1.000000e+001
         vertex 4.661019e+000 5.373039e+000 1.000000e+001
      endloop
   endfacet
   facet normal 9.762900e-001 2.164667e-001 0.000000e+000
      outer loop
         vertex 4.568784e+000 5.836740e+000 3.864367e+000
         vertex 4.661019e+000 5.373039e+000 1.000000e+001
         vertex 4.661019e+000 5.373039e+000 3.864367e+000
      endloop
   endfacet
   facet normal 9.537253e-001 3.006794e-001 0.000000e+000
      outer loop
         vertex 4.661019e+000 5.373039e+000 3.864367e+000
         vertex 4.661019e+000 5.373039e+000 1.000000e+001
         vertex 4.812992e+000 4.925343e+000 1.000000e+001
      endloop
   endfacet
   facet normal 9.396831e-001 3.420462e-001 0.000000e+000
      outer loop
         vertex 4.661019e+000 5.373039e+000 3.864367e+000
         vertex 4.812992e+000 4.925343e+000 1.000000e+001
         vertex 4.812992e+000 4.925343e+000 3.864367e+000
      endloop
   endfacet
   facet normal 9.063195e-001 4.225931e-001 0.000000e+000
      outer loop
         vertex 4.812992e+000 4.925343e+000 3.864367e+000
         vertex 4.812992e+000 4.925343e+000 1.000000e+001
         vertex 5.022099e+000 4.501313e+000 1.000000e+001
      endloop
   endfacet
   facet normal 8.869980e-001 4.617732e-001 0.000000e+000
      outer loop
         vertex 4.812992e+000 4.925343e+000 3.864367e+000
         vertex 5.022099e+000 4.501313e+000 1.000000e+001
         vertex 5.022099e+000 4.501313e+000 3.864367e+000
      endloop
   endfacet
   facet normal 8.434063e-001 5.372763e-001 0.000000e+000
      outer loop
         vertex 5.022099e+000 4.501313e+000 3.864367e+000
         vertex 5.022099e+000 4.501313e+000 1.000000e+001
         vertex 5.284766e+000 4.108206e+000 1.000000e+001
      endloop
   endfacet
   facet normal 8.191361e-001 5.735992e-001 0.000000e+000
      outer loop
         vertex 5.022099e+000 4.501313e+000 3.864367e+000
         vertex 5.284766e+000 4.108206e+000 1.000000e+001
         vertex 5.284766e+000 4.108206e+000 3.864367e+000
      endloop
   endfacet
   facet normal 7.660623e-001 6.427664e-001 0.000000e+000
      outer loop
         vertex 5.284766e+000 4.108206e+000 3.864367e+000
         vertex 5.284766e+000 4.108206e+000 1.000000e+001
         vertex 5.596496e+000 3.752746e+000 1.000000e+001
      endloop
   endfacet
   facet normal 7.372586e-001 6.756107e-001 0.000000e+000
      outer loop
         vertex 5.284766e+000 4.108206e+000 3.864367e+000
         vertex 5.596496e+000 3.752746e+000 1.000000e+001
         vertex 5.596496e+000 3.752746e+000 3.864367e+000
      endloop
   endfacet
   facet normal 6.756107e-001 7.372586e-001 0.000000e+000
      outer loop
         vertex 5.596496e+000 3.752746e+000 3.864367e+000
         vertex 5.596496e+000 3.752746e+000 1.000000e+001
         vertex 5.951955e+000 3.441016e+000 1.000000e+001
      endloop
   endfacet
   facet normal 6.427664e-001 7.660623e-001 0.000000e+000
      outer loop
         vertex 5.596496e+000 3.752746e+000 3.864367e+000
         vertex 5.951955e+000 3.441016e+000 1.000000e+001
         vertex 5.951955e+000 3.441016e+000 3.864367e+000
      endloop
   endfacet
   facet normal 5.735992e-001 8.191361e-001 0.000000e+000
      outer loop
         vertex 5.951955e+000 3.441016e+000 3.864367e+000
         vertex 5.951955e+000 3.441016e+000 1.000000e+001
         vertex 6.345063e+000 3.178350e+000 1.000000e+001
      endloop
   endfacet
   facet normal 5.372762e-001 8.434064e-001 0.000000e+000
      outer loop
         vertex 5.951955e+000 3.441016e+000 3.864367e+000
         vertex 6.345063e+000 3.178350e+000 1.000000e+001
         vertex 6.345063e+000 3.178350e+000 3.864367e+000
      endloop
   endfacet
   facet normal 4.617732e-001 8.869980e-001 0.000000e+000
      outer loop
         vertex 6.345063e+000 3.178350e+000 3.864367e+000
         vertex 6.345063e+000 3.178350e+000 1.000000e+001
         vertex 6.769093e+000 2.969242e+000 1.000000e+001
      endloop
   endfacet
   facet normal 4.225931e-001 9.063195e-001 0.000000e+000
      outer loop
         vertex 6.345063e+000 3.178350e+000 3.864367e+000
         vertex 6.769093e+000 2.969242e+000 1.000000e+001
         vertex 6.769093e+000 2.969242e+000 3.864367e+000
      endloop
   endfacet
   facet normal 3.420462e-001 9.396831e-001 0.000000e+000
      outer loop
         vertex 6.769093e+000 2.969242e+000 3.864367e+000
         vertex 6.769093e+000 2.969242e+000 1.000000e+001
         vertex 7.216788e+000 2.817270e+000 1.000000e+001
      endloop
   endfacet
   facet normal 3.006794e-001 9.537253e-001 0.000000e+000
      outer loop
         vertex 6.769093e+000 2.969242e+000 3.864367e+000
         vertex 7.216788e+000 2.817270e+000 1.000000e+001
         vertex 7.216788e+000 2.817270e+000 3.864367e+000
      endloop
   endfacet
   facet normal 2.164667e-001 9.762900e-001 0.000000e+000
      outer loop
         vertex 7.216788e+000 2.817270e+000 3.864367e+000
         vertex 7.216788e+000 2.817270e+000 1.000000e+001
         vertex 7.680490e+000 2.725034e+000 1.000000e+001
      endloop
   endfacet
   facet normal 1.736209e-001 9.848126e-001 0.000000e+000
      outer loop
         vertex 7.216788e+000 2.817270e+000 3.864367e+000
         vertex 7.680490e+000 2.725034e+000 1.000000e+001
         vertex 7.680490e+000 2.725034e+000 3.864367e+000
      endloop
   endfacet
   facet normal 8.718336e-002 9.961922e-001 0.000000e+000
      outer loop
         vertex 7.680490e+000 2.725034e+000 3.864367e+000
         vertex 7.680490e+000 2.725034e+000 1.000000e+001
         vertex 8.152266e+000 2.694112e+000 1.000000e+001
      endloop
   endfacet
   facet normal 4.359168e-002 9.990495e-001 0.000000e+000
      outer loop
         vertex 7.680490e+000 2.725034e+000 3.864367e+000
         vertex 8.152266e+000 2.694112e+000 1.000000e+001
         vertex 8.152266e+000 2.694112e+000 3.864367e+000
      endloop
   endfacet
   facet normal 0.000000e+000 -1.000000e+000 0.000000e+000
      outer loop
         vertex 8.152266e+000 9.922918e+000 3.864367e+000
         vertex 1.000000e+001 9.922918e+000 3.864367e+000
         vertex 8.152266e+000 9.922918e+000 1.000000e+001
      endloop
   endfacet
   facet normal 0.000000e+000 -1.000000e+000 0.000000e+000
      outer loop
         vertex 8.152266e+000 9.922918e+000 1.000000e+001
         vertex 1.000000e+001 9.922918e+000 3.864367e+000
         vertex 1.000000e+001 9.922918e+000 1.000000e+001
      endloop
   endfacet
endsolid