solid 3_200
   facet normal -1.000000e+000 0.000000e+000 0.000000e+000
      outer loop
         vertex 0.000000e+000 1.000000e+001 1.000000e+001
         vertex 0.000000e+000 1.000000e+001 0.000000e+000
         vertex 0.000000e+000 0.000000e+000 1.000000e+001
      endloop
   endfacet
   facet normal -1.000000e+000 0.000000e+000 0.000000e+000
      outer loop
         vertex 0.000000e+000 0.000000e+000 1.000000e+001
         vertex 0.000000e+000 1.000000e+001 0.000000e+000
         vertex 0.000000e+000 0.000000e+000 0.000000e+000
      endloop
   endfacet
   facet normal 0.000000e+000 0.000000e+000 1.000000e+000
      outer loop
         vertex 4.177361e+000 8.219286e+000 1.000000e+001
         vertex 0.000000e+000 1.000000e+001 1.000000e+001
         vertex 3.709035e+000 8.060311e+000 1.000000e+001
      endloop
   endfacet
   facet normal 0.000000e+000 0.000000e+000 1.000000e+000
      outer loop
         vertex 3.709035e+000 8.060311e+000 1.000000e+001
         vertex 0.000000e+000 1.000000e+001 1.000000e+001
         vertex 3.265467e+000 7.841568e+000 1.000000e+001
      endloop
   endfacet
   facet normal 0.000000e+000 0.000000e+000 1.000000e+000
      outer loop
         vertex 4.177361e+000 8.219286e+000 1.000000e+001
         vertex 4.662429e+000 8.315772e+000 1.000000e+001
         vertex 0.000000e+000 1.000000e+001 1.000000e+001
      endloop
   endfacet
   facet normal 0.000000e+000 0.000000e+000 1.000000e+000
      outer loop
         vertex 0.000000e+000 1.000000e+001 1.000000e+001
         vertex 4.662429e+000 8.315772e+000 1.000000e+001
         vertex 5.155942e+000 8.348119e+000 1.000000e+001
      endloop
   endfacet
   facet normal 0.000000e+000 0.000000e+000 1.000000e+000
      outer loop
         vertex 0.000000e+000 1.000000e+001 1.000000e+001
         vertex 5.155942e+000 8.348119e+000 1.000000e+001
         vertex 1.000000e+001 1.000000e+001 1.000000e+001
      endloop
   endfacet
   facet normal 0.000000e+000 0.000000e+000 1.000000e+000
      outer loop
         vertex 1.000000e+001 1.000000e+001 1.000000e+001
         vertex 5.155942e+000 8.348119e+000 1.000000e+001
         vertex 5.649455e+000 8.315772e+000 1.000000e+001
      endloop
   endfacet
   facet normal 0.000000e+000 0.000000e+000 1.000000e+000
      outer loop
         vertex 1.000000e+001 1.000000e+001 1.000000e+001
         vertex 5.649455e+000 8.315772e+000 1.000000e+001
         vertex 6.134523e+000 8.219286e+000 1.000000e+001
      endloop
   endfacet
   facet normal 0.000000e+000 0.000000e+000 1.000000e+000
      outer loop
         vertex 1.000000e+001 1.000000e+001 1.000000e+001
         vertex 8.936892e+000 4.567169e+000 1.000000e+001
         vertex 1.000000e+001 0.000000e+000 1.000000e+001
      endloop
   endfacet
   facet normal 0.000000e+000 0.000000e+000 1.000000e+000
      outer loop
         vertex 1.000000e+001 0.000000e+000 1.000000e+001
         vertex 8.936892e+000 4.567169e+000 1.000000e+001
         vertex 8.904545e+000 4.073656e+000 1.000000e+001
      endloop
   endfacet
   facet normal 0.000000e+000 0.000000e+000 1.000000e+000
      outer loop
         vertex 7.457638e+000 1.567540e+000 1.000000e+001
         vertex 7.046417e+000 1.292771e+000 1.000000e+001
         vertex 1.000000e+001 0.000000e+000 1.000000e+001
      endloop
   endfacet
   facet normal 0.000000e+000 0.000000e+000 1.000000e+000
      outer loop
         vertex 1.000000e+001 0.000000e+000 1.000000e+001
         vertex 7.046417e+000 1.292771e+000 1.000000e+001
         vertex 6.602849e+000 1.074027e+000 1.000000e+001
      endloop
   endfacet
   facet normal 0.000000e+000 0.000000e+000 1.000000e+000
      outer loop
         vertex 1.000000e+001 0.000000e+000 1.000000e+001
         vertex 6.602849e+000 1.074027e+000 1.000000e+001
         vertex 6.134523e+000 9.150522e-001 1.000000e+001
      endloop
   endfacet
   facet normal 0.000000e+000 0.000000e+000 1.000000e+000
      outer loop
         vertex 1.000000e+001 1.000000e+001 1.000000e+001
         vertex 8.430341e+000 6.457644e+000 1.000000e+001
         vertex 8.649084e+000 6.014076e+000 1.000000e+001
      endloop
   endfacet
   facet normal 0.000000e+000 0.000000e+000 1.000000e+000
      outer loop
         vertex 8.904545e+000 4.073656e+000 1.000000e+001
         vertex 8.808059e+000 3.588587e+000 1.000000e+001
         vertex 1.000000e+001 0.000000e+000 1.000000e+001
      endloop
   endfacet
   facet normal 0.000000e+000 0.000000e+000 1.000000e+000
      outer loop
         vertex 1.000000e+001 0.000000e+000 1.000000e+001
         vertex 8.808059e+000 3.588587e+000 1.000000e+001
         vertex 8.649084e+000 3.120262e+000 1.000000e+001
      endloop
   endfacet
   facet normal 0.000000e+000 0.000000e+000 1.000000e+000
      outer loop
         vertex 1.000000e+001 0.000000e+000 1.000000e+001
         vertex 8.649084e+000 3.120262e+000 1.000000e+001
         vertex 8.430341e+000 2.676694e+000 1.000000e+001
      endloop
   endfacet
   facet normal 0.000000e+000 0.000000e+000 1.000000e+000
      outer loop
         vertex 8.430341e+000 2.676694e+000 1.000000e+001
         vertex 8.155570e+000 2.265473e+000 1.000000e+001
         vertex 1.000000e+001 0.000000e+000 1.000000e+001
      endloop
   endfacet
   facet normal 0.000000e+000 0.000000e+000 1.000000e+000
      outer loop
         vertex 1.000000e+001 0.000000e+000 1.000000e+001
         vertex 8.155570e+000 2.265473e+000 1.000000e+001
         vertex 7.829477e+000 1.893634e+000 1.000000e+001
      endloop
   endfacet
   facet normal 0.000000e+000 0.000000e+000 1.000000e+000
      outer loop
         vertex 1.000000e+001 0.000000e+000 1.000000e+001
         vertex 7.829477e+000 1.893634e+000 1.000000e+001
         vertex 7.457638e+000 1.567540e+000 1.000000e+001
      endloop
   endfacet
   facet normal 0.000000e+000 0.000000e+000 1.000000e+000
      outer loop
         vertex 4.662429e+000 8.185661e-001 1.000000e+001
         vertex 0.000000e+000 0.000000e+000 1.000000e+001
         vertex 5.155942e+000 7.862195e-001 1.000000e+001
      endloop
   endfacet
   facet normal 0.000000e+000 0.000000e+000 1.000000e+000
      outer loop
         vertex 5.155942e+000 7.862195e-001 1.000000e+001
         vertex 0.000000e+000 0.000000e+000 1.000000e+001
         vertex 1.000000e+001 0.000000e+000 1.000000e+001
      endloop
   endfacet
   facet normal 0.000000e+000 0.000000e+000 1.000000e+000
      outer loop
         vertex 5.155942e+000 7.862195e-001 1.000000e+001
         vertex 1.000000e+001 0.000000e+000 1.000000e+001
         vertex 5.649455e+000 8.185661e-001 1.000000e+001
      endloop
   endfacet
   facet normal 0.000000e+000 0.000000e+000 1.000000e+000
      outer loop
         vertex 5.649455e+000 8.185661e-001 1.000000e+001
         vertex 1.000000e+001 0.000000e+000 1.000000e+001
         vertex 6.134523e+000 9.150522e-001 1.000000e+001
      endloop
   endfacet
   facet normal 0.000000e+000 0.000000e+000 1.000000e+000
      outer loop
         vertex 6.134523e+000 8.219286e+000 1.000000e+001
         vertex 6.602849e+000 8.060311e+000 1.000000e+001
         vertex 1.000000e+001 1.000000e+001 1.000000e+001
      endloop
   endfacet
   facet normal 0.000000e+000 0.000000e+000 1.000000e+000
      outer loop
         vertex 1.000000e+001 1.000000e+001 1.000000e+001
         vertex 6.602849e+000 8.060311e+000 1.000000e+001
         vertex 7.046417e+000 7.841568e+000 1.000000e+001
      endloop
   endfacet
   facet normal 0.000000e+000 0.000000e+000 1.000000e+000
      outer loop
         vertex 1.000000e+001 1.000000e+001 1.000000e+001
         vertex 7.046417e+000 7.841568e+000 1.000000e+001
         vertex 7.457638e+000 7.566798e+000 1.000000e+001
      endloop
   endfacet
   facet normal 0.000000e+000 0.000000e+000 1.000000e+000
      outer loop
         vertex 8.649084e+000 6.014076e+000 1.000000e+001
         vertex 8.808059e+000 5.545751e+000 1.000000e+001
         vertex 1.000000e+001 1.000000e+001 1.000000e+001
      endloop
   endfacet
   facet normal 0.000000e+000 0.000000e+000 1.000000e+000
      outer loop
         vertex 1.000000e+001 1.000000e+001 1.000000e+001
         vertex 8.808059e+000 5.545751e+000 1.000000e+001
         vertex 8.904545e+000 5.060682e+000 1.000000e+001
      endloop
   endfacet
   facet normal 0.000000e+000 0.000000e+000 1.000000e+000
      outer loop
         vertex 1.000000e+001 1.000000e+001 1.000000e+001
         vertex 8.904545e+000 5.060682e+000 1.000000e+001
         vertex 8.936892e+000 4.567169e+000 1.000000e+001
      endloop
   endfacet
   facet normal 0.000000e+000 0.000000e+000 1.000000e+000
      outer loop
         vertex 4.662429e+000 8.185661e-001 1.000000e+001
         vertex 4.177361e+000 9.150522e-001 1.000000e+001
         vertex 0.000000e+000 0.000000e+000 1.000000e+001
      endloop
   endfacet
   facet normal 0.000000e+000 0.000000e+000 1.000000e+000
      outer loop
         vertex 0.000000e+000 0.000000e+000 1.000000e+001
         vertex 4.177361e+000 9.150522e-001 1.000000e+001
         vertex 3.709035e+000 1.074027e+000 1.000000e+001
      endloop
   endfacet
   facet normal 0.000000e+000 0.000000e+000 1.000000e+000
      outer loop
         vertex 0.000000e+000 0.000000e+000 1.000000e+001
         vertex 3.709035e+000 1.074027e+000 1.000000e+001
         vertex 3.265467e+000 1.292771e+000 1.000000e+001
      endloop
   endfacet
   facet normal 0.000000e+000 0.000000e+000 1.000000e+000
      outer loop
         vertex 3.265467e+000 1.292771e+000 1.000000e+001
         vertex 2.854246e+000 1.567540e+000 1.000000e+001
         vertex 0.000000e+000 0.000000e+000 1.000000e+001
      endloop
   endfacet
   facet normal 0.000000e+000 0.000000e+000 1.000000e+000
      outer loop
         vertex 0.000000e+000 0.000000e+000 1.000000e+001
         vertex 2.854246e+000 1.567540e+000 1.000000e+001
         vertex 2.482407e+000 1.893634e+000 1.000000e+001
      endloop
   endfacet
   facet normal 0.000000e+000 0.000000e+000 1.000000e+000
      outer loop
         vertex 0.000000e+000 0.000000e+000 1.000000e+001
         vertex 2.482407e+000 1.893634e+000 1.000000e+001
         vertex 2.156313e+000 2.265473e+000 1.000000e+001
      endloop
   endfacet
   facet normal 0.000000e+000 0.000000e+000 1.000000e+000
      outer loop
         vertex 2.156313e+000 6.868865e+000 1.000000e+001
         vertex 2.482407e+000 7.240704e+000 1.000000e+001
         vertex 0.000000e+000 1.000000e+001 1.000000e+001
      endloop
   endfacet
   facet normal 0.000000e+000 0.000000e+000 1.000000e+000
      outer loop
         vertex 0.000000e+000 1.000000e+001 1.000000e+001
         vertex 2.482407e+000 7.240704e+000 1.000000e+001
         vertex 2.854246e+000 7.566798e+000 1.000000e+001
      endloop
   endfacet
   facet normal 0.000000e+000 0.000000e+000 1.000000e+000
      outer loop
         vertex 0.000000e+000 1.000000e+001 1.000000e+001
         vertex 2.854246e+000 7.566798e+000 1.000000e+001
         vertex 3.265467e+000 7.841568e+000 1.000000e+001
      endloop
   endfacet
   facet normal 0.000000e+000 0.000000e+000 1.000000e+000
      outer loop
         vertex 7.457638e+000 7.566798e+000 1.000000e+001
         vertex 7.829477e+000 7.240704e+000 1.000000e+001
         vertex 1.000000e+001 1.000000e+001 1.000000e+001
      endloop
   endfacet
   facet normal 0.000000e+000 0.000000e+000 1.000000e+000
      outer loop
         vertex 1.000000e+001 1.000000e+001 1.000000e+001
         vertex 7.829477e+000 7.240704e+000 1.000000e+001
         vertex 8.155570e+000 6.868865e+000 1.000000e+001
      endloop
   endfacet
   facet normal 0.000000e+000 0.000000e+000 1.000000e+000
      outer loop
         vertex 1.000000e+001 1.000000e+001 1.000000e+001
         vertex 8.155570e+000 6.868865e+000 1.000000e+001
         vertex 8.430341e+000 6.457644e+000 1.000000e+001
      endloop
   endfacet
   facet normal 0.000000e+000 0.000000e+000 1.000000e+000
      outer loop
         vertex 2.156313e+000 2.265473e+000 1.000000e+001
         vertex 1.881544e+000 2.676694e+000 1.000000e+001
         vertex 0.000000e+000 0.000000e+000 1.000000e+001
      endloop
   endfacet
   facet normal 0.000000e+000 0.000000e+000 1.000000e+000
      outer loop
         vertex 0.000000e+000 0.000000e+000 1.000000e+001
         vertex 1.881544e+000 2.676694e+000 1.000000e+001
         vertex 1.662800e+000 3.120262e+000 1.000000e+001
      endloop
   endfacet
   facet normal 0.000000e+000 0.000000e+000 1.000000e+000
      outer loop
         vertex 0.000000e+000 0.000000e+000 1.000000e+001
         vertex 1.662800e+000 3.120262e+000 1.000000e+001
         vertex 1.503825e+000 3.588587e+000 1.000000e+001
      endloop
   endfacet
   facet normal 0.000000e+000 0.000000e+000 1.000000e+000
      outer loop
         vertex 1.503825e+000 3.588587e+000 1.000000e+001
         vertex 1.407339e+000 4.073656e+000 1.000000e+001
         vertex 0.000000e+000 0.000000e+000 1.000000e+001
      endloop
   endfacet
   facet normal 0.000000e+000 0.000000e+000 1.000000e+000
      outer loop
         vertex 0.000000e+000 0.000000e+000 1.000000e+001
         vertex 1.407339e+000 4.073656e+000 1.000000e+001
         vertex 1.374993e+000 4.567169e+000 1.000000e+001
      endloop
   endfacet
   facet normal 0.000000e+000 0.000000e+000 1.000000e+000
      outer loop
         vertex 0.000000e+000 0.000000e+000 1.000000e+001
         vertex 1.374993e+000 4.567169e+000 1.000000e+001
         vertex 0.000000e+000 1.000000e+001 1.000000e+001
      endloop
   endfacet
   facet normal 0.000000e+000 0.000000e+000 1.000000e+000
      outer loop
         vertex 0.000000e+000 1.000000e+001 1.000000e+001
         vertex 1.374993e+000 4.567169e+000 1.000000e+001
         vertex 1.407339e+000 5.060682e+000 1.000000e+001
      endloop
   endfacet
   facet normal 0.000000e+000 0.000000e+000 1.000000e+000
      outer loop
         vertex 0.000000e+000 1.000000e+001 1.000000e+001
         vertex 1.407339e+000 5.060682e+000 1.000000e+001
         vertex 1.503825e+000 5.545751e+000 1.000000e+001
      endloop
   endfacet
   facet normal 0.000000e+000 0.000000e+000 1.000000e+000
      outer loop
         vertex 1.503825e+000 5.545751e+000 1.000000e+001
         vertex 1.662800e+000 6.014076e+000 1.000000e+001
         vertex 0.000000e+000 1.000000e+001 1.000000e+001
      endloop
   endfacet
   facet normal 0.000000e+000 0.000000e+000 1.000000e+000
      outer loop
         vertex 0.000000e+000 1.000000e+001 1.000000e+001
         vertex 1.662800e+000 6.014076e+000 1.000000e+001
         vertex 1.881544e+000 6.457644e+000 1.000000e+001
      endloop
   endfacet
   facet normal 0.000000e+000 0.000000e+000 1.000000e+000
      outer loop
         vertex 0.000000e+000 1.000000e+001 1.000000e+001
         vertex 1.881544e+000 6.457644e+000 1.000000e+001
         vertex 2.156313e+000 6.868865e+000 1.000000e+001
      endloop
   endfacet
   facet normal 1.000000e+000 0.000000e+000 0.000000e+000
      outer loop
         vertex 1.000000e+001 1.000000e+001 0.000000e+000
         vertex 1.000000e+001 1.000000e+001 1.000000e+001
         vertex 1.000000e+001 0.000000e+000 0.000000e+000
      endloop
   endfacet
   facet normal 1.000000e+000 0.000000e+000 0.000000e+000
      outer loop
         vertex 1.000000e+001 0.000000e+000 0.000000e+000
         vertex 1.000000e+001 1.000000e+001 1.000000e+001
         vertex 1.000000e+001 0.000000e+000 1.000000e+001
      endloop
   endfacet
   facet normal 0.000000e+000 0.000000e+000 -1.000000e+000
      outer loop
         vertex 4.662429e+000 8.315772e+000 0.000000e+000
         vertex 4.177361e+000 8.219286e+000 0.000000e+000
         vertex 0.000000e+000 1.000000e+001 0.000000e+000
      endloop
   endfacet
   facet normal 0.000000e+000 0.000000e+000 -1.000000e+000
      outer loop
         vertex 6.134523e+000 9.150522e-001 0.000000e+000
         vertex 6.602849e+000 1.074027e+000 0.000000e+000
         vertex 1.000000e+001 0.000000e+000 0.000000e+000
      endloop
   endfacet
   facet normal 0.000000e+000 0.000000e+000 -1.000000e+000
      outer loop
         vertex 4.662429e+000 8.315772e+000 0.000000e+000
         vertex 0.000000e+000 1.000000e+001 0.000000e+000
         vertex 5.155942e+000 8.348119e+000 0.000000e+000
      endloop
   endfacet
   facet normal 0.000000e+000 0.000000e+000 -1.000000e+000
      outer loop
         vertex 5.155942e+000 8.348119e+000 0.000000e+000
         vertex 0.000000e+000 1.000000e+001 0.000000e+000
         vertex 1.000000e+001 1.000000e+001 0.000000e+000
      endloop
   endfacet
   facet normal 0.000000e+000 0.000000e+000 -1.000000e+000
      outer loop
         vertex 5.155942e+000 8.348119e+000 0.000000e+000
         vertex 1.000000e+001 1.000000e+001 0.000000e+000
         vertex 5.649455e+000 8.315772e+000 0.000000e+000
      endloop
   endfacet
   facet normal 0.000000e+000 0.000000e+000 -1.000000e+000
      outer loop
         vertex 0.000000e+000 0.000000e+000 0.000000e+000
         vertex 3.709035e+000 1.074027e+000 0.000000e+000
         vertex 4.177361e+000 9.150522e-001 0.000000e+000
      endloop
   endfacet
   facet normal 0.000000e+000 0.000000e+000 -1.000000e+000
      outer loop
         vertex 4.177361e+000 9.150522e-001 0.000000e+000
         vertex 4.662429e+000 8.185661e-001 0.000000e+000
         vertex 0.000000e+000 0.000000e+000 0.000000e+000
      endloop
   endfacet
   facet normal 0.000000e+000 0.000000e+000 -1.000000e+000
      outer loop
         vertex 0.000000e+000 0.000000e+000 0.000000e+000
         vertex 4.662429e+000 8.185661e-001 0.000000e+000
         vertex 5.155942e+000 7.862195e-001 0.000000e+000
      endloop
   endfacet
   facet normal 0.000000e+000 0.000000e+000 -1.000000e+000
      outer loop
         vertex 0.000000e+000 0.000000e+000 0.000000e+000
         vertex 5.155942e+000 7.862195e-001 0.000000e+000
         vertex 1.000000e+001 0.000000e+000 0.000000e+000
      endloop
   endfacet
   facet normal 0.000000e+000 0.000000e+000 -1.000000e+000
      outer loop
         vertex 1.000000e+001 0.000000e+000 0.000000e+000
         vertex 5.155942e+000 7.862195e-001 0.000000e+000
         vertex 5.649455e+000 8.185661e-001 0.000000e+000
      endloop
   endfacet
   facet normal 0.000000e+000 0.000000e+000 -1.000000e+000
      outer loop
         vertex 1.000000e+001 0.000000e+000 0.000000e+000
         vertex 5.649455e+000 8.185661e-001 0.000000e+000
         vertex 6.134523e+000 9.150522e-001 0.000000e+000
      endloop
   endfacet
   facet normal 0.000000e+000 0.000000e+000 -1.000000e+000
      outer loop
         vertex 7.046417e+000 7.841568e+000 0.000000e+000
         vertex 6.602849e+000 8.060311e+000 0.000000e+000
         vertex 1.000000e+001 1.000000e+001 0.000000e+000
      endloop
   endfacet
   facet normal 0.000000e+000 0.000000e+000 -1.000000e+000
      outer loop
         vertex 1.000000e+001 1.000000e+001 0.000000e+000
         vertex 6.602849e+000 8.060311e+000 0.000000e+000
         vertex 6.134523e+000 8.219286e+000 0.000000e+000
      endloop
   endfacet
   facet normal 0.000000e+000 0.000000e+000 -1.000000e+000
      outer loop
         vertex 1.000000e+001 1.000000e+001 0.000000e+000
         vertex 6.134523e+000 8.219286e+000 0.000000e+000
         vertex 5.649455e+000 8.315772e+000 0.000000e+000
      endloop
   endfacet
   facet normal 0.000000e+000 0.000000e+000 -1.000000e+000
      outer loop
         vertex 4.177361e+000 8.219286e+000 0.000000e+000
         vertex 3.709035e+000 8.060311e+000 0.000000e+000
         vertex 0.000000e+000 1.000000e+001 0.000000e+000
      endloop
   endfacet
   facet normal 0.000000e+000 0.000000e+000 -1.000000e+000
      outer loop
         vertex 0.000000e+000 1.000000e+001 0.000000e+000
         vertex 3.709035e+000 8.060311e+000 0.000000e+000
         vertex 3.265467e+000 7.841568e+000 0.000000e+000
      endloop
   endfacet
   facet normal 0.000000e+000 0.000000e+000 -1.000000e+000
      outer loop
         vertex 0.000000e+000 1.000000e+001 0.000000e+000
         vertex 3.265467e+000 7.841568e+000 0.000000e+000
         vertex 2.854246e+000 7.566798e+000 0.000000e+000
      endloop
   endfacet
   facet normal 0.000000e+000 0.000000e+000 -1.000000e+000
      outer loop
         vertex 1.503825e+000 5.545751e+000 0.000000e+000
         vertex 0.000000e+000 1.000000e+001 0.000000e+000
         vertex 1.662800e+000 6.014076e+000 0.000000e+000
      endloop
   endfacet
   facet normal 0.000000e+000 0.000000e+000 -1.000000e+000
      outer loop
         vertex 1.662800e+000 6.014076e+000 0.000000e+000
         vertex 0.000000e+000 1.000000e+001 0.000000e+000
         vertex 1.881544e+000 6.457644e+000 0.000000e+000
      endloop
   endfacet
   facet normal 0.000000e+000 0.000000e+000 -1.000000e+000
      outer loop
         vertex 0.000000e+000 0.000000e+000 0.000000e+000
         vertex 1.503825e+000 3.588587e+000 0.000000e+000
         vertex 1.662800e+000 3.120262e+000 0.000000e+000
      endloop
   endfacet
   facet normal 0.000000e+000 0.000000e+000 -1.000000e+000
      outer loop
         vertex 6.602849e+000 1.074027e+000 0.000000e+000
         vertex 7.046417e+000 1.292771e+000 0.000000e+000
         vertex 1.000000e+001 0.000000e+000 0.000000e+000
      endloop
   endfacet
   facet normal 0.000000e+000 0.000000e+000 -1.000000e+000
      outer loop
         vertex 1.000000e+001 0.000000e+000 0.000000e+000
         vertex 7.046417e+000 1.292771e+000 0.000000e+000
         vertex 7.457638e+000 1.567540e+000 0.000000e+000
      endloop
   endfacet
   facet normal 0.000000e+000 0.000000e+000 -1.000000e+000
      outer loop
         vertex 1.000000e+001 0.000000e+000 0.000000e+000
         vertex 7.457638e+000 1.567540e+000 0.000000e+000
         vertex 7.829477e+000 1.893634e+000 0.000000e+000
      endloop
   endfacet
   facet normal 0.000000e+000 0.000000e+000 -1.000000e+000
      outer loop
         vertex 8.808059e+000 5.545751e+000 0.000000e+000
         vertex 8.649084e+000 6.014076e+000 0.000000e+000
         vertex 1.000000e+001 1.000000e+001 0.000000e+000
      endloop
   endfacet
   facet normal 0.000000e+000 0.000000e+000 -1.000000e+000
      outer loop
         vertex 1.000000e+001 1.000000e+001 0.000000e+000
         vertex 8.649084e+000 6.014076e+000 0.000000e+000
         vertex 8.430341e+000 6.457644e+000 0.000000e+000
      endloop
   endfacet
   facet normal 0.000000e+000 0.000000e+000 -1.000000e+000
      outer loop
         vertex 1.000000e+001 1.000000e+001 0.000000e+000
         vertex 8.430341e+000 6.457644e+000 0.000000e+000
         vertex 8.155570e+000 6.868865e+000 0.000000e+000
      endloop
   endfacet
   facet normal 0.000000e+000 0.000000e+000 -1.000000e+000
      outer loop
         vertex 2.854246e+000 7.566798e+000 0.000000e+000
         vertex 2.482407e+000 7.240704e+000 0.000000e+000
         vertex 0.000000e+000 1.000000e+001 0.000000e+000
      endloop
   endfacet
   facet normal 0.000000e+000 0.000000e+000 -1.000000e+000
      outer loop
         vertex 0.000000e+000 1.000000e+001 0.000000e+000
         vertex 2.482407e+000 7.240704e+000 0.000000e+000
         vertex 2.156313e+000 6.868865e+000 0.000000e+000
      endloop
   endfacet
   facet normal 0.000000e+000 0.000000e+000 -1.000000e+000
      outer loop
         vertex 0.000000e+000 1.000000e+001 0.000000e+000
         vertex 2.156313e+000 6.868865e+000 0.000000e+000
         vertex 1.881544e+000 6.457644e+000 0.000000e+000
      endloop
   endfacet
   facet normal 0.000000e+000 0.000000e+000 -1.000000e+000
      outer loop
         vertex 1.503825e+000 5.545751e+000 0.000000e+000
         vertex 1.407339e+000 5.060682e+000 0.000000e+000
         vertex 0.000000e+000 1.000000e+001 0.000000e+000
      endloop
   endfacet
   facet normal 0.000000e+000 0.000000e+000 -1.000000e+000
      outer loop
         vertex 0.000000e+000 1.000000e+001 0.000000e+000
         vertex 1.407339e+000 5.060682e+000 0.000000e+000
         vertex 1.374993e+000 4.567169e+000 0.000000e+000
      endloop
   endfacet
   facet normal 0.000000e+000 0.000000e+000 -1.000000e+000
      outer loop
         vertex 0.000000e+000 1.000000e+001 0.000000e+000
         vertex 1.374993e+000 4.567169e+000 0.000000e+000
         vertex 0.000000e+000 0.000000e+000 0.000000e+000
      endloop
   endfacet
   facet normal 0.000000e+000 0.000000e+000 -1.000000e+000
      outer loop
         vertex 0.000000e+000 0.000000e+000 0.000000e+000
         vertex 1.374993e+000 4.567169e+000 0.000000e+000
         vertex 1.407339e+000 4.073656e+000 0.000000e+000
      endloop
   endfacet
   facet normal 0.000000e+000 0.000000e+000 -1.000000e+000
      outer loop
         vertex 0.000000e+000 0.000000e+000 0.000000e+000
         vertex 1.407339e+000 4.073656e+000 0.000000e+000
         vertex 1.503825e+000 3.588587e+000 0.000000e+000
      endloop
   endfacet
   facet normal 0.000000e+000 0.000000e+000 -1.000000e+000
      outer loop
         vertex 1.662800e+000 3.120262e+000 0.000000e+000
         vertex 1.881544e+000 2.676694e+000 0.000000e+000
         vertex 0.000000e+000 0.000000e+000 0.000000e+000
      endloop
   endfacet
   facet normal 0.000000e+000 0.000000e+000 -1.000000e+000
      outer loop
         vertex 0.000000e+000 0.000000e+000 0.000000e+000
         vertex 1.881544e+000 2.676694e+000 0.000000e+000
         vertex 2.156313e+000 2.265473e+000 0.000000e+000
      endloop
   endfacet
   facet normal 0.000000e+000 0.000000e+000 -1.000000e+000
      outer loop
         vertex 0.000000e+000 0.000000e+000 0.000000e+000
         vertex 2.156313e+000 2.265473e+000 0.000000e+000
         vertex 2.482407e+000 1.893634e+000 0.000000e+000
      endloop
   endfacet
   facet normal 0.000000e+000 0.000000e+000 -1.000000e+000
      outer loop
         vertex 7.829477e+000 1.893634e+000 0.000000e+000
         vertex 8.155570e+000 2.265473e+000 0.000000e+000
         vertex 1.000000e+001 0.000000e+000 0.000000e+000
      endloop
   endfacet
   facet normal 0.000000e+000 0.000000e+000 -1.000000e+000
      outer loop
         vertex 1.000000e+001 0.000000e+000 0.000000e+000
         vertex 8.155570e+000 2.265473e+000 0.000000e+000
         vertex 8.430341e+000 2.676694e+000 0.000000e+000
      endloop
   endfacet
   facet normal 0.000000e+000 0.000000e+000 -1.000000e+000
      outer loop
         vertex 1.000000e+001 0.000000e+000 0.000000e+000
         vertex 8.430341e+000 2.676694e+000 0.000000e+000
         vertex 8.649084e+000 3.120262e+000 0.000000e+000
      endloop
   endfacet
   facet normal 0.000000e+000 0.000000e+000 -1.000000e+000
      outer loop
         vertex 1.000000e+001 0.000000e+000 0.000000e+000
         vertex 8.936892e+000 4.567169e+000 0.000000e+000
         vertex 1.000000e+001 1.000000e+001 0.000000e+000
      endloop
   endfacet
   facet normal 0.000000e+000 0.000000e+000 -1.000000e+000
      outer loop
         vertex 1.000000e+001 1.000000e+001 0.000000e+000
         vertex 8.936892e+000 4.567169e+000 0.000000e+000
         vertex 8.904545e+000 5.060682e+000 0.000000e+000
      endloop
   endfacet
   facet normal 0.000000e+000 0.000000e+000 -1.000000e+000
      outer loop
         vertex 1.000000e+001 1.000000e+001 0.000000e+000
         vertex 8.904545e+000 5.060682e+000 0.000000e+000
         vertex 8.808059e+000 5.545751e+000 0.000000e+000
      endloop
   endfacet
   facet normal 0.000000e+000 0.000000e+000 -1.000000e+000
      outer loop
         vertex 8.155570e+000 6.868865e+000 0.000000e+000
         vertex 7.829477e+000 7.240704e+000 0.000000e+000
         vertex 1.000000e+001 1.000000e+001 0.000000e+000
      endloop
   endfacet
   facet normal 0.000000e+000 0.000000e+000 -1.000000e+000
      outer loop
         vertex 1.000000e+001 1.000000e+001 0.000000e+000
         vertex 7.829477e+000 7.240704e+000 0.000000e+000
         vertex 7.457638e+000 7.566798e+000 0.000000e+000
      endloop
   endfacet
   facet normal 0.000000e+000 0.000000e+000 -1.000000e+000
      outer loop
         vertex 1.000000e+001 1.000000e+001 0.000000e+000
         vertex 7.457638e+000 7.566798e+000 0.000000e+000
         vertex 7.046417e+000 7.841568e+000 0.000000e+000
      endloop
   endfacet
   facet normal 0.000000e+000 0.000000e+000 -1.000000e+000
      outer loop
         vertex 2.482407e+000 1.893634e+000 0.000000e+000
         vertex 2.854246e+000 1.567540e+000 0.000000e+000
         vertex 0.000000e+000 0.000000e+000 0.000000e+000
      endloop
   endfacet
   facet normal 0.000000e+000 0.000000e+000 -1.000000e+000
      outer loop
         vertex 0.000000e+000 0.000000e+000 0.000000e+000
         vertex 2.854246e+000 1.567540e+000 0.000000e+000
         vertex 3.265467e+000 1.292771e+000 0.000000e+000
      endloop
   endfacet
   facet normal 0.000000e+000 0.000000e+000 -1.000000e+000
      outer loop
         vertex 0.000000e+000 0.000000e+000 0.000000e+000
         vertex 3.265467e+000 1.292771e+000 0.000000e+000
         vertex 3.709035e+000 1.074027e+000 0.000000e+000
      endloop
   endfacet
   facet normal 0.000000e+000 0.000000e+000 -1.000000e+000
      outer loop
         vertex 8.649084e+000 3.120262e+000 0.000000e+000
         vertex 8.808059e+000 3.588587e+000 0.000000e+000
         vertex 1.000000e+001 0.000000e+000 0.000000e+000
      endloop
   endfacet
   facet normal 0.000000e+000 0.000000e+000 -1.000000e+000
      outer loop
         vertex 1.000000e+001 0.000000e+000 0.000000e+000
         vertex 8.808059e+000 3.588587e+000 0.000000e+000
         vertex 8.904545e+000 4.073656e+000 0.000000e+000
      endloop
   endfacet
   facet normal 0.000000e+000 0.000000e+000 -1.000000e+000
      outer loop
         vertex 1.000000e+001 0.000000e+000 0.000000e+000
         vertex 8.904545e+000 4.073656e+000 0.000000e+000
         vertex 8.936892e+000 4.567169e+000 0.000000e+000
      endloop
   endfacet
   facet normal 0.000000e+000 1.000000e+000 0.000000e+000
      outer loop
         vertex 1.000000e+001 1.000000e+001 1.000000e+001
         vertex 1.000000e+001 1.000000e+001 0.000000e+000
         vertex 0.000000e+000 1.000000e+001 1.000000e+001
      endloop
   endfacet
   facet normal 0.000000e+000 1.000000e+000 0.000000e+000
      outer loop
         vertex 0.000000e+000 1.000000e+001 1.000000e+001
         vertex 1.000000e+001 1.000000e+001 0.000000e+000
         vertex 0.000000e+000 1.000000e+001 0.000000e+000
      endloop
   endfacet
   facet normal 0.000000e+000 -1.000000e+000 0.000000e+000
      outer loop
         vertex 1.000000e+001 0.000000e+000 0.000000e+000
         vertex 1.000000e+001 0.000000e+000 1.000000e+001
         vertex 0.000000e+000 0.000000e+000 0.000000e+000
      endloop
   endfacet
   facet normal 0.000000e+000 -1.000000e+000 0.000000e+000
      outer loop
         vertex 0.000000e+000 0.000000e+000 0.000000e+000
         vertex 1.000000e+001 0.000000e+000 1.000000e+001
         vertex 0.000000e+000 0.000000e+000 1.000000e+001
      endloop
   endfacet
   facet normal -9.990495e-001 4.359168e-002 0.000000e+000
      outer loop
         vertex 8.904545e+000 4.073656e+000 0.000000e+000
         vertex 8.936892e+000 4.567169e+000 1.000000e+001
         vertex 8.936892e+000 4.567169e+000 0.000000e+000
      endloop
   endfacet
   facet normal -9.990495e-001 -4.359168e-002 0.000000e+000
      outer loop
         vertex 8.936892e+000 4.567169e+000 0.000000e+000
         vertex 8.936892e+000 4.567169e+000 1.000000e+001
         vertex 8.904545e+000 5.060682e+000 1.000000e+001
      endloop
   endfacet
   facet normal -9.961922e-001 -8.718336e-002 0.000000e+000
      outer loop
         vertex 8.936892e+000 4.567169e+000 0.000000e+000
         vertex 8.904545e+000 5.060682e+000 1.000000e+001
         vertex 8.904545e+000 5.060682e+000 0.000000e+000
      endloop
   endfacet
   facet normal -9.848126e-001 -1.736209e-001 0.000000e+000
      outer loop
         vertex 8.904545e+000 5.060682e+000 0.000000e+000
         vertex 8.904545e+000 5.060682e+000 1.000000e+001
         vertex 8.808059e+000 5.545751e+000 1.000000e+001
      endloop
   endfacet
   facet normal -9.762900e-001 -2.164667e-001 0.000000e+000
      outer loop
         vertex 8.904545e+000 5.060682e+000 0.000000e+000
         vertex 8.808059e+000 5.545751e+000 1.000000e+001
         vertex 8.808059e+000 5.545751e+000 0.000000e+000
      endloop
   endfacet
   facet normal -9.537253e-001 -3.006794e-001 0.000000e+000
      outer loop
         vertex 8.808059e+000 5.545751e+000 0.000000e+000
         vertex 8.808059e+000 5.545751e+000 1.000000e+001
         vertex 8.649084e+000 6.014076e+000 1.000000e+001
      endloop
   endfacet
   facet normal -9.396831e-001 -3.420462e-001 0.000000e+000
      outer loop
         vertex 8.808059e+000 5.545751e+000 0.000000e+000
         vertex 8.649084e+000 6.014076e+000 1.000000e+001
         vertex 8.649084e+000 6.014076e+000 0.000000e+000
      endloop
   endfacet
   facet normal -9.063195e-001 -4.225931e-001 0.000000e+000
      outer loop
         vertex 8.649084e+000 6.014076e+000 0.000000e+000
         vertex 8.649084e+000 6.014076e+000 1.000000e+001
         vertex 8.430341e+000 6.457644e+000 1.000000e+001
      endloop
   endfacet
   facet normal -8.869980e-001 -4.617732e-001 0.000000e+000
      outer loop
         vertex 8.649084e+000 6.014076e+000 0.000000e+000
         vertex 8.430341e+000 6.457644e+000 1.000000e+001
         vertex 8.430341e+000 6.457644e+000 0.000000e+000
      endloop
   endfacet
   facet normal -8.434063e-001 -5.372763e-001 0.000000e+000
      outer loop
         vertex 8.430341e+000 6.457644e+000 0.000000e+000
         vertex 8.430341e+000 6.457644e+000 1.000000e+001
         vertex 8.155570e+000 6.868865e+000 1.000000e+001
      endloop
   endfacet
   facet normal -8.191361e-001 -5.735992e-001 0.000000e+000
      outer loop
         vertex 8.430341e+000 6.457644e+000 0.000000e+000
         vertex 8.155570e+000 6.868865e+000 1.000000e+001
         vertex 8.155570e+000 6.868865e+000 0.000000e+000
      endloop
   endfacet
   facet normal -7.660623e-001 -6.427664e-001 0.000000e+000
      outer loop
         vertex 8.155570e+000 6.868865e+000 0.000000e+000
         vertex 8.155570e+000 6.868865e+000 1.000000e+001
         vertex 7.829477e+000 7.240704e+000 1.000000e+001
      endloop
   endfacet
   facet normal -7.372586e-001 -6.756107e-001 0.000000e+000
      outer loop
         vertex 8.155570e+000 6.868865e+000 0.000000e+000
         vertex 7.829477e+000 7.240704e+000 1.000000e+001
         vertex 7.829477e+000 7.240704e+000 0.000000e+000
      endloop
   endfacet
   facet normal -6.756107e-001 -7.372586e-001 0.000000e+000
      outer loop
         vertex 7.829477e+000 7.240704e+000 0.000000e+000
         vertex 7.829477e+000 7.240704e+000 1.000000e+001
         vertex 7.457638e+000 7.566798e+000 1.000000e+001
      endloop
   endfacet
   facet normal -6.427664e-001 -7.660623e-001 0.000000e+000
      outer loop
         vertex 7.829477e+000 7.240704e+000 0.000000e+000
         vertex 7.457638e+000 7.566798e+000 1.000000e+001
         vertex 7.457638e+000 7.566798e+000 0.000000e+000
      endloop
   endfacet
   facet normal -5.735992e-001 -8.191361e-001 0.000000e+000
      outer loop
         vertex 7.457638e+000 7.566798e+000 0.000000e+000
         vertex 7.457638e+000 7.566798e+000 1.000000e+001
         vertex 7.046417e+000 7.841568e+000 1.000000e+001
      endloop
   endfacet
   facet normal -5.372762e-001 -8.434064e-001 0.000000e+000
      outer loop
         vertex 7.457638e+000 7.566798e+000 0.000000e+000
         vertex 7.046417e+000 7.841568e+000 1.000000e+001
         vertex 7.046417e+000 7.841568e+000 0.000000e+000
      endloop
   endfacet
   facet normal -4.617732e-001 -8.869980e-001 0.000000e+000
      outer loop
         vertex 7.046417e+000 7.841568e+000 0.000000e+000
         vertex 7.046417e+000 7.841568e+000 1.000000e+001
         vertex 6.602849e+000 8.060311e+000 1.000000e+001
      endloop
   endfacet
   facet normal -4.225931e-001 -9.063195e-001 0.000000e+000
      outer loop
         vertex 7.046417e+000 7.841568e+000 0.000000e+000
         vertex 6.602849e+000 8.060311e+000 1.000000e+001
         vertex 6.602849e+000 8.060311e+000 0.000000e+000
      endloop
   endfacet
   facet normal -3.420462e-001 -9.396831e-001 0.000000e+000
      outer loop
         vertex 6.602849e+000 8.060311e+000 0.000000e+000
         vertex 6.602849e+000 8.060311e+000 1.000000e+001
         vertex 6.134523e+000 8.219286e+000 1.000000e+001
      endloop
   endfacet
   facet normal -3.006794e-001 -9.537253e-001 0.000000e+000
      outer loop
         vertex 6.602849e+000 8.060311e+000 0.000000e+000
         vertex 6.134523e+000 8.219286e+000 1.000000e+001
         vertex 6.134523e+000 8.219286e+000 0.000000e+000
      endloop
   endfacet
   facet normal -2.164667e-001 -9.762900e-001 0.000000e+000
      outer loop
         vertex 6.134523e+000 8.219286e+000 0.000000e+000
         vertex 6.134523e+000 8.219286e+000 1.000000e+001
         vertex 5.649455e+000 8.315772e+000 1.000000e+001
      endloop
   endfacet
   facet normal -1.736209e-001 -9.848126e-001 0.000000e+000
      outer loop
         vertex 6.134523e+000 8.219286e+000 0.000000e+000
         vertex 5.649455e+000 8.315772e+000 1.000000e+001
         vertex 5.649455e+000 8.315772e+000 0.000000e+000
      endloop
   endfacet
   facet normal -8.718336e-002 -9.961922e-001 0.000000e+000
      outer loop
         vertex 5.649455e+000 8.315772e+000 0.000000e+000
         vertex 5.649455e+000 8.315772e+000 1.000000e+001
         vertex 5.155942e+000 8.348119e+000 1.000000e+001
      endloop
   endfacet
   facet normal -4.359168e-002 -9.990495e-001 0.000000e+000
      outer loop
         vertex 5.649455e+000 8.315772e+000 0.000000e+000
         vertex 5.155942e+000 8.348119e+000 1.000000e+001
         vertex 5.155942e+000 8.348119e+000 0.000000e+000
      endloop
   endfacet
   facet normal 4.359168e-002 -9.990495e-001 0.000000e+000
      outer loop
         vertex 5.155942e+000 8.348119e+000 0.000000e+000
         vertex 5.155942e+000 8.348119e+000 1.000000e+001
         vertex 4.662429e+000 8.315772e+000 1.000000e+001
      endloop
   endfacet
   facet normal 8.718336e-002 -9.961922e-001 0.000000e+000
      outer loop
         vertex 5.155942e+000 8.348119e+000 0.000000e+000
         vertex 4.662429e+000 8.315772e+000 1.000000e+001
         vertex 4.662429e+000 8.315772e+000 0.000000e+000
      endloop
   endfacet
   facet normal 1.736209e-001 -9.848126e-001 0.000000e+000
      outer loop
         vertex 4.662429e+000 8.315772e+000 0.000000e+000
         vertex 4.662429e+000 8.315772e+000 1.000000e+001
         vertex 4.177361e+000 8.219286e+000 1.000000e+001
      endloop
   endfacet
   facet normal 2.164667e-001 -9.762900e-001 0.000000e+000
      outer loop
         vertex 4.662429e+000 8.315772e+000 0.000000e+000
         vertex 4.177361e+000 8.219286e+000 1.000000e+001
         vertex 4.177361e+000 8.219286e+000 0.000000e+000
      endloop
   endfacet
   facet normal 3.006794e-001 -9.537253e-001 0.000000e+000
      outer loop
         vertex 4.177361e+000 8.219286e+000 0.000000e+000
         vertex 4.177361e+000 8.219286e+000 1.000000e+001
         vertex 3.709035e+000 8.060311e+000 1.000000e+001
      endloop
   endfacet
   facet normal 3.420462e-001 -9.396831e-001 0.000000e+000
      outer loop
         vertex 4.177361e+000 8.219286e+000 0.000000e+000
         vertex 3.709035e+000 8.060311e+000 1.000000e+001
         vertex 3.709035e+000 8.060311e+000 0.000000e+000
      endloop
   endfacet
   facet normal 4.225931e-001 -9.063195e-001 0.000000e+000
      outer loop
         vertex 3.709035e+000 8.060311e+000 0.000000e+000
         vertex 3.709035e+000 8.060311e+000 1.000000e+001
         vertex 3.265467e+000 7.841568e+000 1.000000e+001
      endloop
   endfacet
   facet normal 4.617732e-001 -8.869980e-001 0.000000e+000
      outer loop
         vertex 3.709035e+000 8.060311e+000 0.000000e+000
         vertex 3.265467e+000 7.841568e+000 1.000000e+001
         vertex 3.265467e+000 7.841568e+000 0.000000e+000
      endloop
   endfacet
   facet normal 5.372763e-001 -8.434063e-001 0.000000e+000
      outer loop
         vertex 3.265467e+000 7.841568e+000 0.000000e+000
         vertex 3.265467e+000 7.841568e+000 1.000000e+001
         vertex 2.854246e+000 7.566798e+000 1.000000e+001
      endloop
   endfacet
   facet normal 5.735992e-001 -8.191361e-001 0.000000e+000
      outer loop
         vertex 3.265467e+000 7.841568e+000 0.000000e+000
         vertex 2.854246e+000 7.566798e+000 1.000000e+001
         vertex 2.854246e+000 7.566798e+000 0.000000e+000
      endloop
   endfacet
   facet normal 6.427664e-001 -7.660623e-001 0.000000e+000
      outer loop
         vertex 2.854246e+000 7.566798e+000 0.000000e+000
         vertex 2.854246e+000 7.566798e+000 1.000000e+001
         vertex 2.482407e+000 7.240704e+000 1.000000e+001
      endloop
   endfacet
   facet normal 6.756107e-001 -7.372586e-001 0.000000e+000
      outer loop
         vertex 2.854246e+000 7.566798e+000 0.000000e+000
         vertex 2.482407e+000 7.240704e+000 1.000000e+001
         vertex 2.482407e+000 7.240704e+000 0.000000e+000
      endloop
   endfacet
   facet normal 7.372586e-001 -6.756107e-001 0.000000e+000
      outer loop
         vertex 2.482407e+000 7.240704e+000 0.000000e+000
         vertex 2.482407e+000 7.240704e+000 1.000000e+001
         vertex 2.156313e+000 6.868865e+000 1.000000e+001
      endloop
   endfacet
   facet normal 7.660623e-001 -6.427664e-001 0.000000e+000
      outer loop
         vertex 2.482407e+000 7.240704e+000 0.000000e+000
         vertex 2.156313e+000 6.868865e+000 1.000000e+001
         vertex 2.156313e+000 6.868865e+000 0.000000e+000
      endloop
   endfacet
   facet normal 8.191361e-001 -5.735992e-001 0.000000e+000
      outer loop
         vertex 2.156313e+000 6.868865e+000 0.000000e+000
         vertex 2.156313e+000 6.868865e+000 1.000000e+001
         vertex 1.881544e+000 6.457644e+000 1.000000e+001
      endloop
   endfacet
   facet normal 8.434064e-001 -5.372762e-001 0.000000e+000
      outer loop
         vertex 2.156313e+000 6.868865e+000 0.000000e+000
         vertex 1.881544e+000 6.457644e+000 1.000000e+001
         vertex 1.881544e+000 6.457644e+000 0.000000e+000
      endloop
   endfacet
   facet normal 8.869980e-001 -4.617732e-001 0.000000e+000
      outer loop
         vertex 1.881544e+000 6.457644e+000 0.000000e+000
         vertex 1.881544e+000 6.457644e+000 1.000000e+001
         vertex 1.662800e+000 6.014076e+000 1.000000e+001
      endloop
   endfacet
   facet normal 9.063195e-001 -4.225931e-001 0.000000e+000
      outer loop
         vertex 1.881544e+000 6.457644e+000 0.000000e+000
         vertex 1.662800e+000 6.014076e+000 1.000000e+001
         vertex 1.662800e+000 6.014076e+000 0.000000e+000
      endloop
   endfacet
   facet normal 9.396831e-001 -3.420462e-001 0.000000e+000
      outer loop
         vertex 1.662800e+000 6.014076e+000 0.000000e+000
         vertex 1.662800e+000 6.014076e+000 1.000000e+001
         vertex 1.503825e+000 5.545751e+000 1.000000e+001
      endloop
   endfacet
   facet normal 9.537253e-001 -3.006794e-001 0.000000e+000
      outer loop
         vertex 1.662800e+000 6.014076e+000 0.000000e+000
         vertex 1.503825e+000 5.545751e+000 1.000000e+001
         vertex 1.503825e+000 5.545751e+000 0.000000e+000
      endloop
   endfacet
   facet normal 9.762900e-001 -2.164667e-001 0.000000e+000
      outer loop
         vertex 1.503825e+000 5.545751e+000 0.000000e+000
         vertex 1.503825e+000 5.545751e+000 1.000000e+001
         vertex 1.407339e+000 5.060682e+000 1.000000e+001
      endloop
   endfacet
   facet normal 9.848126e-001 -1.736209e-001 0.000000e+000
      outer loop
         vertex 1.503825e+000 5.545751e+000 0.000000e+000
         vertex 1.407339e+000 5.060682e+000 1.000000e+001
         vertex 1.407339e+000 5.060682e+000 0.000000e+000
      endloop
   endfacet
   facet normal 9.961922e-001 -8.718336e-002 0.000000e+000
      outer loop
         vertex 1.407339e+000 5.060682e+000 0.000000e+000
         vertex 1.407339e+000 5.060682e+000 1.000000e+001
         vertex 1.374993e+000 4.567169e+000 1.000000e+001
      endloop
   endfacet
   facet normal 9.990495e-001 -4.359168e-002 0.000000e+000
      outer loop
         vertex 1.407339e+000 5.060682e+000 0.000000e+000
         vertex 1.374993e+000 4.567169e+000 1.000000e+001
         vertex 1.374993e+000 4.567169e+000 0.000000e+000
      endloop
   endfacet
   facet normal 9.990495e-001 4.359168e-002 0.000000e+000
      outer loop
         vertex 1.374993e+000 4.567169e+000 0.000000e+000
         vertex 1.374993e+000 4.567169e+000 1.000000e+001
         vertex 1.407339e+000 4.073656e+000 1.000000e+001
      endloop
   endfacet
   facet normal 9.961922e-001 8.718336e-002 0.000000e+000
      outer loop
         vertex 1.374993e+000 4.567169e+000 0.000000e+000
         vertex 1.407339e+000 4.073656e+000 1.000000e+001
         vertex 1.407339e+000 4.073656e+000 0.000000e+000
      endloop
   endfacet
   facet normal 9.848126e-001 1.736209e-001 0.000000e+000
      outer loop
         vertex 1.407339e+000 4.073656e+000 0.000000e+000
         vertex 1.407339e+000 4.073656e+000 1.000000e+001
         vertex 1.503825e+000 3.588587e+000 1.000000e+001
      endloop
   endfacet
   facet normal 9.762900e-001 2.164667e-001 0.000000e+000
      outer loop
         vertex 1.407339e+000 4.073656e+000 0.000000e+000
         vertex 1.503825e+000 3.588587e+000 1.000000e+001
         vertex 1.503825e+000 3.588587e+000 0.000000e+000
      endloop
   endfacet
   facet normal 9.537253e-001 3.006794e-001 0.000000e+000
      outer loop
         vertex 1.503825e+000 3.588587e+000 0.000000e+000
         vertex 1.503825e+000 3.588587e+000 1.000000e+001
         vertex 1.662800e+000 3.120262e+000 1.000000e+001
      endloop
   endfacet
   facet normal 9.396831e-001 3.420462e-001 0.000000e+000
      outer loop
         vertex 1.503825e+000 3.588587e+000 0.000000e+000
         vertex 1.662800e+000 3.120262e+000 1.000000e+001
         vertex 1.662800e+000 3.120262e+000 0.000000e+000
      endloop
   endfacet
   facet normal 9.063195e-001 4.225931e-001 0.000000e+000
      outer loop
         vertex 1.662800e+000 3.120262e+000 0.000000e+000
         vertex 1.662800e+000 3.120262e+000 1.000000e+001
         vertex 1.881544e+000 2.676694e+000 1.000000e+001
      endloop
   endfacet
   facet normal 8.869980e-001 4.617732e-001 0.000000e+000
      outer loop
         vertex 1.662800e+000 3.120262e+000 0.000000e+000
         vertex 1.881544e+000 2.676694e+000 1.000000e+001
         vertex 1.881544e+000 2.676694e+000 0.000000e+000
      endloop
   endfacet
   facet normal 8.434063e-001 5.372763e-001 0.000000e+000
      outer loop
         vertex 1.881544e+000 2.676694e+000 0.000000e+000
         vertex 1.881544e+000 2.676694e+000 1.000000e+001
         vertex 2.156313e+000 2.265473e+000 1.000000e+001
      endloop
   endfacet
   facet normal 8.191361e-001 5.735992e-001 0.000000e+000
      outer loop
         vertex 1.881544e+000 2.676694e+000 0.000000e+000
         vertex 2.156313e+000 2.265473e+000 1.000000e+001
         vertex 2.156313e+000 2.265473e+000 0.000000e+000
      endloop
   endfacet
   facet normal 7.660623e-001 6.427664e-001 0.000000e+000
      outer loop
         vertex 2.156313e+000 2.265473e+000 0.000000e+000
         vertex 2.156313e+000 2.265473e+000 1.000000e+001
         vertex 2.482407e+000 1.893634e+000 1.000000e+001
      endloop
   endfacet
   facet normal 7.372586e-001 6.756107e-001 0.000000e+000
      outer loop
         vertex 2.156313e+000 2.265473e+000 0.000000e+000
         vertex 2.482407e+000 1.893634e+000 1.000000e+001
         vertex 2.482407e+000 1.893634e+000 0.000000e+000
      endloop
   endfacet
   facet normal 6.756107e-001 7.372586e-001 0.000000e+000
      outer loop
         vertex 2.482407e+000 1.893634e+000 0.000000e+000
         vertex 2.482407e+000 1.893634e+000 1.000000e+001
         vertex 2.854246e+000 1.567540e+000 1.000000e+001
      endloop
   endfacet
   facet normal 6.427664e-001 7.660623e-001 0.000000e+000
      outer loop
         vertex 2.482407e+000 1.893634e+000 0.000000e+000
         vertex 2.854246e+000 1.567540e+000 1.000000e+001
         vertex 2.854246e+000 1.567540e+000 0.000000e+000
      endloop
   endfacet
   facet normal 5.735992e-001 8.191361e-001 0.000000e+000
      outer loop
         vertex 2.854246e+000 1.567540e+000 0.000000e+000
         vertex 2.854246e+000 1.567540e+000 1.000000e+001
         vertex 3.265467e+000 1.292771e+000 1.000000e+001
      endloop
   endfacet
   facet normal 5.372762e-001 8.434064e-001 0.000000e+000
      outer loop
         vertex 2.854246e+000 1.567540e+000 0.000000e+000
         vertex 3.265467e+000 1.292771e+000 1.000000e+001
         vertex 3.265467e+000 1.292771e+000 0.000000e+000
      endloop
   endfacet
   facet normal 4.617732e-001 8.869980e-001 0.000000e+000
      outer loop
         vertex 3.265467e+000 1.292771e+000 0.000000e+000
         vertex 3.265467e+000 1.292771e+000 1.000000e+001
         vertex 3.709035e+000 1.074027e+000 1.000000e+001
      endloop
   endfacet
   facet normal 4.225931e-001 9.063195e-001 0.000000e+000
      outer loop
         vertex 3.265467e+000 1.292771e+000 0.000000e+000
         vertex 3.709035e+000 1.074027e+000 1.000000e+001
         vertex 3.709035e+000 1.074027e+000 0.000000e+000
      endloop
   endfacet
   facet normal 3.420462e-001 9.396831e-001 0.000000e+000
      outer loop
         vertex 3.709035e+000 1.074027e+000 0.000000e+000
         vertex 3.709035e+000 1.074027e+000 1.000000e+001
         vertex 4.177361e+000 9.150522e-001 1.000000e+001
      endloop
   endfacet
   facet normal 3.006794e-001 9.537253e-001 0.000000e+000
      outer loop
         vertex 3.709035e+000 1.074027e+000 0.000000e+000
         vertex 4.177361e+000 9.150522e-001 1.000000e+001
         vertex 4.177361e+000 9.150522e-001 0.000000e+000
      endloop
   endfacet
   facet normal 2.164667e-001 9.762900e-001 0.000000e+000
      outer loop
         vertex 4.177361e+000 9.150522e-001 0.000000e+000
         vertex 4.177361e+000 9.150522e-001 1.000000e+001
         vertex 4.662429e+000 8.185661e-001 1.000000e+001
      endloop
   endfacet
   facet normal 1.736209e-001 9.848126e-001 0.000000e+000
      outer loop
         vertex 4.177361e+000 9.150522e-001 0.000000e+000
         vertex 4.662429e+000 8.185661e-001 1.000000e+001
         vertex 4.662429e+000 8.185661e-001 0.000000e+000
      endloop
   endfacet
   facet normal 8.718336e-002 9.961922e-001 0.000000e+000
      outer loop
         vertex 4.662429e+000 8.185661e-001 0.000000e+000
         vertex 4.662429e+000 8.185661e-001 1.000000e+001
         vertex 5.155942e+000 7.862195e-001 1.000000e+001
      endloop
   endfacet
   facet normal 4.359168e-002 9.990495e-001 0.000000e+000
      outer loop
         vertex 4.662429e+000 8.185661e-001 0.000000e+000
         vertex 5.155942e+000 7.862195e-001 1.000000e+001
         vertex 5.155942e+000 7.862195e-001 0.000000e+000
      endloop
   endfacet
   facet normal -4.359168e-002 9.990495e-001 0.000000e+000
      outer loop
         vertex 5.155942e+000 7.862195e-001 0.000000e+000
         vertex 5.155942e+000 7.862195e-001 1.000000e+001
         vertex 5.649455e+000 8.185661e-001 1.000000e+001
      endloop
   endfacet
   facet normal -8.718336e-002 9.961922e-001 0.000000e+000
      outer loop
         vertex 5.155942e+000 7.862195e-001 0.000000e+000
         vertex 5.649455e+000 8.185661e-001 1.000000e+001
         vertex 5.649455e+000 8.185661e-001 0.000000e+000
      endloop
   endfacet
   facet normal -1.736209e-001 9.848126e-001 0.000000e+000
      outer loop
         vertex 5.649455e+000 8.185661e-001 0.000000e+000
         vertex 5.649455e+000 8.185661e-001 1.000000e+001
         vertex 6.134523e+000 9.150522e-001 1.000000e+001
      endloop
   endfacet
   facet normal -2.164667e-001 9.762900e-001 0.000000e+000
      outer loop
         vertex 5.649455e+000 8.185661e-001 0.000000e+000
         vertex 6.134523e+000 9.150522e-001 1.000000e+001
         vertex 6.134523e+000 9.150522e-001 0.000000e+000
      endloop
   endfacet
   facet normal -3.006794e-001 9.537253e-001 0.000000e+000
      outer loop
         vertex 6.134523e+000 9.150522e-001 0.000000e+000
         vertex 6.134523e+000 9.150522e-001 1.000000e+001
         vertex 6.602849e+000 1.074027e+000 1.000000e+001
      endloop
   endfacet
   facet normal -3.420462e-001 9.396831e-001 0.000000e+000
      outer loop
         vertex 6.134523e+000 9.150522e-001 0.000000e+000
         vertex 6.602849e+000 1.074027e+000 1.000000e+001
         vertex 6.602849e+000 1.074027e+000 0.000000e+000
      endloop
   endfacet
   facet normal -4.225931e-001 9.063195e-001 0.000000e+000
      outer loop
         vertex 6.602849e+000 1.074027e+000 0.000000e+000
         vertex 6.602849e+000 1.074027e+000 1.000000e+001
         vertex 7.046417e+000 1.292771e+000 1.000000e+001
      endloop
   endfacet
   facet normal -4.617732e-001 8.869980e-001 0.000000e+000
      outer loop
         vertex 6.602849e+000 1.074027e+000 0.000000e+000
         vertex 7.046417e+000 1.292771e+000 1.000000e+001
         vertex 7.046417e+000 1.292771e+000 0.000000e+000
      endloop
   endfacet
   facet normal -5.372763e-001 8.434063e-001 0.000000e+000
      outer loop
         vertex 7.046417e+000 1.292771e+000 0.000000e+000
         vertex 7.046417e+000 1.292771e+000 1.000000e+001
         vertex 7.457638e+000 1.567540e+000 1.000000e+001
      endloop
   endfacet
   facet normal -5.735992e-001 8.191361e-001 0.000000e+000
      outer loop
         vertex 7.046417e+000 1.292771e+000 0.000000e+000
         vertex 7.457638e+000 1.567540e+000 1.000000e+001
         vertex 7.457638e+000 1.567540e+000 0.000000e+000
      endloop
   endfacet
   facet normal -6.427664e-001 7.660623e-001 0.000000e+000
      outer loop
         vertex 7.457638e+000 1.567540e+000 0.000000e+000
         vertex 7.457638e+000 1.567540e+000 1.000000e+001
         vertex 7.829477e+000 1.893634e+000 1.000000e+001
      endloop
   endfacet
   facet normal -6.756107e-001 7.372586e-001 0.000000e+000
      outer loop
         vertex 7.457638e+000 1.567540e+000 0.000000e+000
         vertex 7.829477e+000 1.893634e+000 1.000000e+001
         vertex 7.829477e+000 1.893634e+000 0.000000e+000
      endloop
   endfacet
   facet normal -7.372586e-001 6.756107e-001 0.000000e+000
      outer loop
         vertex 7.829477e+000 1.893634e+000 0.000000e+000
         vertex 7.829477e+000 1.893634e+000 1.000000e+001
         vertex 8.155570e+000 2.265473e+000 1.000000e+001
      endloop
   endfacet
   facet normal -7.660623e-001 6.427664e-001 0.000000e+000
      outer loop
         vertex 7.829477e+000 1.893634e+000 0.000000e+000
         vertex 8.155570e+000 2.265473e+000 1.000000e+001
         vertex 8.155570e+000 2.265473e+000 0.000000e+000
      endloop
   endfacet
   facet normal -8.191361e-001 5.735992e-001 0.000000e+000
      outer loop
         vertex 8.155570e+000 2.265473e+000 0.000000e+000
         vertex 8.155570e+000 2.265473e+000 1.000000e+001
         vertex 8.430341e+000 2.676694e+000 1.000000e+001
      endloop
   endfacet
   facet normal -8.434064e-001 5.372762e-001 0.000000e+000
      outer loop
         vertex 8.155570e+000 2.265473e+000 0.000000e+000
         vertex 8.430341e+000 2.676694e+000 1.000000e+001
         vertex 8.430341e+000 2.676694e+000 0.000000e+000
      endloop
   endfacet
   facet normal -8.869980e-001 4.617732e-001 0.000000e+000
      outer loop
         vertex 8.430341e+000 2.676694e+000 0.000000e+000
         vertex 8.430341e+000 2.676694e+000 1.000000e+001
         vertex 8.649084e+000 3.120262e+000 1.000000e+001
      endloop
   endfacet
   facet normal -9.063195e-001 4.225931e-001 0.000000e+000
      outer loop
         vertex 8.430341e+000 2.676694e+000 0.000000e+000
         vertex 8.649084e+000 3.120262e+000 1.000000e+001
         vertex 8.649084e+000 3.120262e+000 0.000000e+000
      endloop
   endfacet
   facet normal -9.396831e-001 3.420462e-001 0.000000e+000
      outer loop
         vertex 8.649084e+000 3.120262e+000 0.000000e+000
         vertex 8.649084e+000 3.120262e+000 1.000000e+001
         vertex 8.808059e+000 3.588587e+000 1.000000e+001
      endloop
   endfacet
   facet normal -9.537253e-001 3.006794e-001 0.000000e+000
      outer loop
         vertex 8.649084e+000 3.120262e+000 0.000000e+000
         vertex 8.808059e+000 3.588587e+000 1.000000e+001
         vertex 8.808059e+000 3.588587e+000 0.000000e+000
      endloop
   endfacet
   facet normal -9.762900e-001 2.164667e-001 0.000000e+000
      outer loop
         vertex 8.808059e+000 3.588587e+000 0.000000e+000
         vertex 8.808059e+000 3.588587e+000 1.000000e+001
         vertex 8.904545e+000 4.073656e+000 1.000000e+001
      endloop
   endfacet
   facet normal -9.848126e-001 1.736209e-001 0.000000e+000
      outer loop
         vertex 8.808059e+000 3.588587e+000 0.000000e+000
         vertex 8.904545e+000 4.073656e+000 1.000000e+001
         vertex 8.904545e+000 4.073656e+000 0.000000e+000
      endloop
   endfacet
   facet normal -9.961922e-001 8.718336e-002 0.000000e+000
      outer loop
         vertex 8.904545e+000 4.073656e+000 0.000000e+000
         vertex 8.904545e+000 4.073656e+000 1.000000e+001
         vertex 8.936892e+000 4.567169e+000 1.000000e+001
      endloop
   endfacet
endsolid