solid 3_215
   facet normal -1.000000e+000 0.000000e+000 0.000000e+000
      outer loop
         vertex 0.000000e+000 1.000000e+001 1.000000e+001
         vertex 0.000000e+000 1.000000e+001 0.000000e+000
         vertex 0.000000e+000 0.000000e+000 1.000000e+001
      endloop
   endfacet
   facet normal -1.000000e+000 0.000000e+000 0.000000e+000
      outer loop
         vertex 0.000000e+000 0.000000e+000 1.000000e+001
         vertex 0.000000e+000 1.000000e+001 0.000000e+000
         vertex 0.000000e+000 0.000000e+000 0.000000e+000
      endloop
   endfacet
   facet normal 0.000000e+000 0.000000e+000 1.000000e+000
      outer loop
         vertex 6.102603e+000 4.860927e+000 1.000000e+001
         vertex 6.083332e+000 4.640652e+000 1.000000e+001
         vertex 1.000000e+001 0.000000e+000 1.000000e+001
      endloop
   endfacet
   facet normal 0.000000e+000 0.000000e+000 1.000000e+000
      outer loop
         vertex 1.000000e+001 0.000000e+000 1.000000e+001
         vertex 6.083332e+000 4.640652e+000 1.000000e+001
         vertex 6.026103e+000 4.427071e+000 1.000000e+001
      endloop
   endfacet
   facet normal 0.000000e+000 0.000000e+000 1.000000e+000
      outer loop
         vertex 1.000000e+001 0.000000e+000 1.000000e+001
         vertex 6.026103e+000 4.427071e+000 1.000000e+001
         vertex 5.932655e+000 4.226672e+000 1.000000e+001
      endloop
   endfacet
   facet normal 0.000000e+000 0.000000e+000 1.000000e+000
      outer loop
         vertex 6.102603e+000 4.860927e+000 1.000000e+001
         vertex 1.000000e+001 0.000000e+000 1.000000e+001
         vertex 6.083332e+000 5.081202e+000 1.000000e+001
      endloop
   endfacet
   facet normal 0.000000e+000 0.000000e+000 1.000000e+000
      outer loop
         vertex 6.083332e+000 5.081202e+000 1.000000e+001
         vertex 1.000000e+001 0.000000e+000 1.000000e+001
         vertex 1.000000e+001 1.000000e+001 1.000000e+001
      endloop
   endfacet
   facet normal 0.000000e+000 0.000000e+000 1.000000e+000
      outer loop
         vertex 6.083332e+000 5.081202e+000 1.000000e+001
         vertex 1.000000e+001 1.000000e+001 1.000000e+001
         vertex 6.026103e+000 5.294783e+000 1.000000e+001
      endloop
   endfacet
   facet normal 0.000000e+000 0.000000e+000 1.000000e+000
      outer loop
         vertex 5.932655e+000 4.226672e+000 1.000000e+001
         vertex 5.805828e+000 4.045544e+000 1.000000e+001
         vertex 1.000000e+001 0.000000e+000 1.000000e+001
      endloop
   endfacet
   facet normal 0.000000e+000 0.000000e+000 1.000000e+000
      outer loop
         vertex 1.000000e+001 0.000000e+000 1.000000e+001
         vertex 5.805828e+000 4.045544e+000 1.000000e+001
         vertex 5.649476e+000 3.889192e+000 1.000000e+001
      endloop
   endfacet
   facet normal 0.000000e+000 0.000000e+000 1.000000e+000
      outer loop
         vertex 1.000000e+001 0.000000e+000 1.000000e+001
         vertex 5.649476e+000 3.889192e+000 1.000000e+001
         vertex 5.468348e+000 3.762365e+000 1.000000e+001
      endloop
   endfacet
   facet normal 0.000000e+000 0.000000e+000 1.000000e+000
      outer loop
         vertex 5.468348e+000 3.762365e+000 1.000000e+001
         vertex 5.267949e+000 3.668917e+000 1.000000e+001
         vertex 1.000000e+001 0.000000e+000 1.000000e+001
      endloop
   endfacet
   facet normal 0.000000e+000 0.000000e+000 1.000000e+000
      outer loop
         vertex 1.000000e+001 0.000000e+000 1.000000e+001
         vertex 5.267949e+000 3.668917e+000 1.000000e+001
         vertex 5.054367e+000 3.611688e+000 1.000000e+001
      endloop
   endfacet
   facet normal 0.000000e+000 0.000000e+000 1.000000e+000
      outer loop
         vertex 1.000000e+001 0.000000e+000 1.000000e+001
         vertex 5.054367e+000 3.611688e+000 1.000000e+001
         vertex 0.000000e+000 0.000000e+000 1.000000e+001
      endloop
   endfacet
   facet normal 0.000000e+000 0.000000e+000 1.000000e+000
      outer loop
         vertex 0.000000e+000 0.000000e+000 1.000000e+001
         vertex 5.054367e+000 3.611688e+000 1.000000e+001
         vertex 4.834093e+000 3.592417e+000 1.000000e+001
      endloop
   endfacet
   facet normal 0.000000e+000 0.000000e+000 1.000000e+000
      outer loop
         vertex 0.000000e+000 0.000000e+000 1.000000e+001
         vertex 4.834093e+000 3.592417e+000 1.000000e+001
         vertex 4.613818e+000 3.611688e+000 1.000000e+001
      endloop
   endfacet
   facet normal 0.000000e+000 0.000000e+000 1.000000e+000
      outer loop
         vertex 4.613818e+000 3.611688e+000 1.000000e+001
         vertex 4.400237e+000 3.668917e+000 1.000000e+001
         vertex 0.000000e+000 0.000000e+000 1.000000e+001
      endloop
   endfacet
   facet normal 0.000000e+000 0.000000e+000 1.000000e+000
      outer loop
         vertex 0.000000e+000 0.000000e+000 1.000000e+001
         vertex 4.400237e+000 3.668917e+000 1.000000e+001
         vertex 4.199837e+000 3.762365e+000 1.000000e+001
      endloop
   endfacet
   facet normal 0.000000e+000 0.000000e+000 1.000000e+000
      outer loop
         vertex 0.000000e+000 0.000000e+000 1.000000e+001
         vertex 4.199837e+000 3.762365e+000 1.000000e+001
         vertex 4.018710e+000 3.889192e+000 1.000000e+001
      endloop
   endfacet
   facet normal 0.000000e+000 0.000000e+000 1.000000e+000
      outer loop
         vertex 4.018710e+000 5.832662e+000 1.000000e+001
         vertex 4.199837e+000 5.959489e+000 1.000000e+001
         vertex 0.000000e+000 1.000000e+001 1.000000e+001
      endloop
   endfacet
   facet normal 0.000000e+000 0.000000e+000 1.000000e+000
      outer loop
         vertex 0.000000e+000 1.000000e+001 1.000000e+001
         vertex 4.199837e+000 5.959489e+000 1.000000e+001
         vertex 4.400237e+000 6.052937e+000 1.000000e+001
      endloop
   endfacet
   facet normal 0.000000e+000 0.000000e+000 1.000000e+000
      outer loop
         vertex 4.400237e+000 6.052937e+000 1.000000e+001
         vertex 4.613818e+000 6.110166e+000 1.000000e+001
         vertex 0.000000e+000 1.000000e+001 1.000000e+001
      endloop
   endfacet
   facet normal 0.000000e+000 0.000000e+000 1.000000e+000
      outer loop
         vertex 0.000000e+000 1.000000e+001 1.000000e+001
         vertex 4.613818e+000 6.110166e+000 1.000000e+001
         vertex 4.834093e+000 6.129437e+000 1.000000e+001
      endloop
   endfacet
   facet normal 0.000000e+000 0.000000e+000 1.000000e+000
      outer loop
         vertex 0.000000e+000 1.000000e+001 1.000000e+001
         vertex 4.834093e+000 6.129437e+000 1.000000e+001
         vertex 1.000000e+001 1.000000e+001 1.000000e+001
      endloop
   endfacet
   facet normal 0.000000e+000 0.000000e+000 1.000000e+000
      outer loop
         vertex 1.000000e+001 1.000000e+001 1.000000e+001
         vertex 4.834093e+000 6.129437e+000 1.000000e+001
         vertex 5.054367e+000 6.110166e+000 1.000000e+001
      endloop
   endfacet
   facet normal 0.000000e+000 0.000000e+000 1.000000e+000
      outer loop
         vertex 5.054367e+000 6.110166e+000 1.000000e+001
         vertex 5.267949e+000 6.052937e+000 1.000000e+001
         vertex 1.000000e+001 1.000000e+001 1.000000e+001
      endloop
   endfacet
   facet normal 0.000000e+000 0.000000e+000 1.000000e+000
      outer loop
         vertex 1.000000e+001 1.000000e+001 1.000000e+001
         vertex 5.267949e+000 6.052937e+000 1.000000e+001
         vertex 5.468348e+000 5.959489e+000 1.000000e+001
      endloop
   endfacet
   facet normal 0.000000e+000 0.000000e+000 1.000000e+000
      outer loop
         vertex 1.000000e+001 1.000000e+001 1.000000e+001
         vertex 5.468348e+000 5.959489e+000 1.000000e+001
         vertex 5.649476e+000 5.832662e+000 1.000000e+001
      endloop
   endfacet
   facet normal 0.000000e+000 0.000000e+000 1.000000e+000
      outer loop
         vertex 5.649476e+000 5.832662e+000 1.000000e+001
         vertex 5.805828e+000 5.676310e+000 1.000000e+001
         vertex 1.000000e+001 1.000000e+001 1.000000e+001
      endloop
   endfacet
   facet normal 0.000000e+000 0.000000e+000 1.000000e+000
      outer loop
         vertex 1.000000e+001 1.000000e+001 1.000000e+001
         vertex 5.805828e+000 5.676310e+000 1.000000e+001
         vertex 5.932655e+000 5.495182e+000 1.000000e+001
      endloop
   endfacet
   facet normal 0.000000e+000 0.000000e+000 1.000000e+000
      outer loop
         vertex 1.000000e+001 1.000000e+001 1.000000e+001
         vertex 5.932655e+000 5.495182e+000 1.000000e+001
         vertex 6.026103e+000 5.294783e+000 1.000000e+001
      endloop
   endfacet
   facet normal 0.000000e+000 0.000000e+000 1.000000e+000
      outer loop
         vertex 4.018710e+000 3.889192e+000 1.000000e+001
         vertex 3.862357e+000 4.045544e+000 1.000000e+001
         vertex 0.000000e+000 0.000000e+000 1.000000e+001
      endloop
   endfacet
   facet normal 0.000000e+000 0.000000e+000 1.000000e+000
      outer loop
         vertex 0.000000e+000 0.000000e+000 1.000000e+001
         vertex 3.862357e+000 4.045544e+000 1.000000e+001
         vertex 3.735530e+000 4.226672e+000 1.000000e+001
      endloop
   endfacet
   facet normal 0.000000e+000 0.000000e+000 1.000000e+000
      outer loop
         vertex 0.000000e+000 0.000000e+000 1.000000e+001
         vertex 3.735530e+000 4.226672e+000 1.000000e+001
         vertex 3.642083e+000 4.427071e+000 1.000000e+001
      endloop
   endfacet
   facet normal 0.000000e+000 0.000000e+000 1.000000e+000
      outer loop
         vertex 3.642083e+000 5.294783e+000 1.000000e+001
         vertex 3.735530e+000 5.495182e+000 1.000000e+001
         vertex 0.000000e+000 1.000000e+001 1.000000e+001
      endloop
   endfacet
   facet normal 0.000000e+000 0.000000e+000 1.000000e+000
      outer loop
         vertex 0.000000e+000 1.000000e+001 1.000000e+001
         vertex 3.735530e+000 5.495182e+000 1.000000e+001
         vertex 3.862357e+000 5.676310e+000 1.000000e+001
      endloop
   endfacet
   facet normal 0.000000e+000 0.000000e+000 1.000000e+000
      outer loop
         vertex 0.000000e+000 1.000000e+001 1.000000e+001
         vertex 3.862357e+000 5.676310e+000 1.000000e+001
         vertex 4.018710e+000 5.832662e+000 1.000000e+001
      endloop
   endfacet
   facet normal 0.000000e+000 0.000000e+000 1.000000e+000
      outer loop
         vertex 3.642083e+000 4.427071e+000 1.000000e+001
         vertex 3.584854e+000 4.640652e+000 1.000000e+001
         vertex 0.000000e+000 0.000000e+000 1.000000e+001
      endloop
   endfacet
   facet normal 0.000000e+000 0.000000e+000 1.000000e+000
      outer loop
         vertex 0.000000e+000 0.000000e+000 1.000000e+001
         vertex 3.584854e+000 4.640652e+000 1.000000e+001
         vertex 3.565582e+000 4.860927e+000 1.000000e+001
      endloop
   endfacet
   facet normal 0.000000e+000 0.000000e+000 1.000000e+000
      outer loop
         vertex 0.000000e+000 0.000000e+000 1.000000e+001
         vertex 3.565582e+000 4.860927e+000 1.000000e+001
         vertex 0.000000e+000 1.000000e+001 1.000000e+001
      endloop
   endfacet
   facet normal 0.000000e+000 0.000000e+000 1.000000e+000
      outer loop
         vertex 0.000000e+000 1.000000e+001 1.000000e+001
         vertex 3.565582e+000 4.860927e+000 1.000000e+001
         vertex 3.584854e+000 5.081202e+000 1.000000e+001
      endloop
   endfacet
   facet normal 0.000000e+000 0.000000e+000 1.000000e+000
      outer loop
         vertex 0.000000e+000 1.000000e+001 1.000000e+001
         vertex 3.584854e+000 5.081202e+000 1.000000e+001
         vertex 3.642083e+000 5.294783e+000 1.000000e+001
      endloop
   endfacet
   facet normal 1.000000e+000 0.000000e+000 0.000000e+000
      outer loop
         vertex 1.000000e+001 1.000000e+001 0.000000e+000
         vertex 1.000000e+001 1.000000e+001 1.000000e+001
         vertex 1.000000e+001 0.000000e+000 0.000000e+000
      endloop
   endfacet
   facet normal 1.000000e+000 0.000000e+000 0.000000e+000
      outer loop
         vertex 1.000000e+001 0.000000e+000 0.000000e+000
         vertex 1.000000e+001 1.000000e+001 1.000000e+001
         vertex 1.000000e+001 0.000000e+000 1.000000e+001
      endloop
   endfacet
   facet normal 0.000000e+000 0.000000e+000 -1.000000e+000
      outer loop
         vertex 6.026103e+000 5.294783e+000 0.000000e+000
         vertex 5.932655e+000 5.495182e+000 0.000000e+000
         vertex 1.000000e+001 1.000000e+001 0.000000e+000
      endloop
   endfacet
   facet normal 0.000000e+000 0.000000e+000 -1.000000e+000
      outer loop
         vertex 5.468348e+000 3.762365e+000 0.000000e+000
         vertex 5.649476e+000 3.889192e+000 0.000000e+000
         vertex 1.000000e+001 0.000000e+000 0.000000e+000
      endloop
   endfacet
   facet normal 0.000000e+000 0.000000e+000 -1.000000e+000
      outer loop
         vertex 3.735530e+000 5.495182e+000 0.000000e+000
         vertex 3.642083e+000 5.294783e+000 0.000000e+000
         vertex 0.000000e+000 1.000000e+001 0.000000e+000
      endloop
   endfacet
   facet normal 0.000000e+000 0.000000e+000 -1.000000e+000
      outer loop
         vertex 0.000000e+000 1.000000e+001 0.000000e+000
         vertex 3.642083e+000 5.294783e+000 0.000000e+000
         vertex 3.584854e+000 5.081202e+000 0.000000e+000
      endloop
   endfacet
   facet normal 0.000000e+000 0.000000e+000 -1.000000e+000
      outer loop
         vertex 0.000000e+000 1.000000e+001 0.000000e+000
         vertex 3.584854e+000 5.081202e+000 0.000000e+000
         vertex 0.000000e+000 0.000000e+000 0.000000e+000
      endloop
   endfacet
   facet normal 0.000000e+000 0.000000e+000 -1.000000e+000
      outer loop
         vertex 0.000000e+000 0.000000e+000 0.000000e+000
         vertex 3.584854e+000 5.081202e+000 0.000000e+000
         vertex 3.565582e+000 4.860927e+000 0.000000e+000
      endloop
   endfacet
   facet normal 0.000000e+000 0.000000e+000 -1.000000e+000
      outer loop
         vertex 0.000000e+000 0.000000e+000 0.000000e+000
         vertex 3.565582e+000 4.860927e+000 0.000000e+000
         vertex 3.584854e+000 4.640652e+000 0.000000e+000
      endloop
   endfacet
   facet normal 0.000000e+000 0.000000e+000 -1.000000e+000
      outer loop
         vertex 3.862357e+000 4.045544e+000 0.000000e+000
         vertex 4.018710e+000 3.889192e+000 0.000000e+000
         vertex 0.000000e+000 0.000000e+000 0.000000e+000
      endloop
   endfacet
   facet normal 0.000000e+000 0.000000e+000 -1.000000e+000
      outer loop
         vertex 0.000000e+000 0.000000e+000 0.000000e+000
         vertex 4.018710e+000 3.889192e+000 0.000000e+000
         vertex 4.199837e+000 3.762365e+000 0.000000e+000
      endloop
   endfacet
   facet normal 0.000000e+000 0.000000e+000 -1.000000e+000
      outer loop
         vertex 0.000000e+000 0.000000e+000 0.000000e+000
         vertex 4.199837e+000 3.762365e+000 0.000000e+000
         vertex 4.400237e+000 3.668917e+000 0.000000e+000
      endloop
   endfacet
   facet normal 0.000000e+000 0.000000e+000 -1.000000e+000
      outer loop
         vertex 5.468348e+000 3.762365e+000 0.000000e+000
         vertex 1.000000e+001 0.000000e+000 0.000000e+000
         vertex 5.267949e+000 3.668917e+000 0.000000e+000
      endloop
   endfacet
   facet normal 0.000000e+000 0.000000e+000 -1.000000e+000
      outer loop
         vertex 4.613818e+000 6.110166e+000 0.000000e+000
         vertex 4.400237e+000 6.052937e+000 0.000000e+000
         vertex 0.000000e+000 1.000000e+001 0.000000e+000
      endloop
   endfacet
   facet normal 0.000000e+000 0.000000e+000 -1.000000e+000
      outer loop
         vertex 0.000000e+000 1.000000e+001 0.000000e+000
         vertex 4.400237e+000 6.052937e+000 0.000000e+000
         vertex 4.199837e+000 5.959489e+000 0.000000e+000
      endloop
   endfacet
   facet normal 0.000000e+000 0.000000e+000 -1.000000e+000
      outer loop
         vertex 3.584854e+000 4.640652e+000 0.000000e+000
         vertex 3.642083e+000 4.427071e+000 0.000000e+000
         vertex 0.000000e+000 0.000000e+000 0.000000e+000
      endloop
   endfacet
   facet normal 0.000000e+000 0.000000e+000 -1.000000e+000
      outer loop
         vertex 0.000000e+000 0.000000e+000 0.000000e+000
         vertex 3.642083e+000 4.427071e+000 0.000000e+000
         vertex 3.735530e+000 4.226672e+000 0.000000e+000
      endloop
   endfacet
   facet normal 0.000000e+000 0.000000e+000 -1.000000e+000
      outer loop
         vertex 0.000000e+000 0.000000e+000 0.000000e+000
         vertex 3.735530e+000 4.226672e+000 0.000000e+000
         vertex 3.862357e+000 4.045544e+000 0.000000e+000
      endloop
   endfacet
   facet normal 0.000000e+000 0.000000e+000 -1.000000e+000
      outer loop
         vertex 5.932655e+000 5.495182e+000 0.000000e+000
         vertex 5.805828e+000 5.676310e+000 0.000000e+000
         vertex 1.000000e+001 1.000000e+001 0.000000e+000
      endloop
   endfacet
   facet normal 0.000000e+000 0.000000e+000 -1.000000e+000
      outer loop
         vertex 1.000000e+001 1.000000e+001 0.000000e+000
         vertex 5.805828e+000 5.676310e+000 0.000000e+000
         vertex 5.649476e+000 5.832662e+000 0.000000e+000
      endloop
   endfacet
   facet normal 0.000000e+000 0.000000e+000 -1.000000e+000
      outer loop
         vertex 1.000000e+001 1.000000e+001 0.000000e+000
         vertex 5.649476e+000 5.832662e+000 0.000000e+000
         vertex 5.468348e+000 5.959489e+000 0.000000e+000
      endloop
   endfacet
   facet normal 0.000000e+000 0.000000e+000 -1.000000e+000
      outer loop
         vertex 5.468348e+000 5.959489e+000 0.000000e+000
         vertex 5.267949e+000 6.052937e+000 0.000000e+000
         vertex 1.000000e+001 1.000000e+001 0.000000e+000
      endloop
   endfacet
   facet normal 0.000000e+000 0.000000e+000 -1.000000e+000
      outer loop
         vertex 1.000000e+001 1.000000e+001 0.000000e+000
         vertex 5.267949e+000 6.052937e+000 0.000000e+000
         vertex 5.054367e+000 6.110166e+000 0.000000e+000
      endloop
   endfacet
   facet normal 0.000000e+000 0.000000e+000 -1.000000e+000
      outer loop
         vertex 1.000000e+001 1.000000e+001 0.000000e+000
         vertex 5.054367e+000 6.110166e+000 0.000000e+000
         vertex 0.000000e+000 1.000000e+001 0.000000e+000
      endloop
   endfacet
   facet normal 0.000000e+000 0.000000e+000 -1.000000e+000
      outer loop
         vertex 0.000000e+000 1.000000e+001 0.000000e+000
         vertex 5.054367e+000 6.110166e+000 0.000000e+000
         vertex 4.834093e+000 6.129437e+000 0.000000e+000
      endloop
   endfacet
   facet normal 0.000000e+000 0.000000e+000 -1.000000e+000
      outer loop
         vertex 0.000000e+000 1.000000e+001 0.000000e+000
         vertex 4.834093e+000 6.129437e+000 0.000000e+000
         vertex 4.613818e+000 6.110166e+000 0.000000e+000
      endloop
   endfacet
   facet normal 0.000000e+000 0.000000e+000 -1.000000e+000
      outer loop
         vertex 4.199837e+000 5.959489e+000 0.000000e+000
         vertex 4.018710e+000 5.832662e+000 0.000000e+000
         vertex 0.000000e+000 1.000000e+001 0.000000e+000
      endloop
   endfacet
   facet normal 0.000000e+000 0.000000e+000 -1.000000e+000
      outer loop
         vertex 0.000000e+000 1.000000e+001 0.000000e+000
         vertex 4.018710e+000 5.832662e+000 0.000000e+000
         vertex 3.862357e+000 5.676310e+000 0.000000e+000
      endloop
   endfacet
   facet normal 0.000000e+000 0.000000e+000 -1.000000e+000
      outer loop
         vertex 0.000000e+000 1.000000e+001 0.000000e+000
         vertex 3.862357e+000 5.676310e+000 0.000000e+000
         vertex 3.735530e+000 5.495182e+000 0.000000e+000
      endloop
   endfacet
   facet normal 0.000000e+000 0.000000e+000 -1.000000e+000
      outer loop
         vertex 4.400237e+000 3.668917e+000 0.000000e+000
         vertex 4.613818e+000 3.611688e+000 0.000000e+000
         vertex 0.000000e+000 0.000000e+000 0.000000e+000
      endloop
   endfacet
   facet normal 0.000000e+000 0.000000e+000 -1.000000e+000
      outer loop
         vertex 0.000000e+000 0.000000e+000 0.000000e+000
         vertex 4.613818e+000 3.611688e+000 0.000000e+000
         vertex 4.834093e+000 3.592417e+000 0.000000e+000
      endloop
   endfacet
   facet normal 0.000000e+000 0.000000e+000 -1.000000e+000
      outer loop
         vertex 0.000000e+000 0.000000e+000 0.000000e+000
         vertex 4.834093e+000 3.592417e+000 0.000000e+000
         vertex 1.000000e+001 0.000000e+000 0.000000e+000
      endloop
   endfacet
   facet normal 0.000000e+000 0.000000e+000 -1.000000e+000
      outer loop
         vertex 1.000000e+001 0.000000e+000 0.000000e+000
         vertex 4.834093e+000 3.592417e+000 0.000000e+000
         vertex 5.054367e+000 3.611688e+000 0.000000e+000
      endloop
   endfacet
   facet normal 0.000000e+000 0.000000e+000 -1.000000e+000
      outer loop
         vertex 1.000000e+001 0.000000e+000 0.000000e+000
         vertex 5.054367e+000 3.611688e+000 0.000000e+000
         vertex 5.267949e+000 3.668917e+000 0.000000e+000
      endloop
   endfacet
   facet normal 0.000000e+000 0.000000e+000 -1.000000e+000
      outer loop
         vertex 5.649476e+000 3.889192e+000 0.000000e+000
         vertex 5.805828e+000 4.045544e+000 0.000000e+000
         vertex 1.000000e+001 0.000000e+000 0.000000e+000
      endloop
   endfacet
   facet normal 0.000000e+000 0.000000e+000 -1.000000e+000
      outer loop
         vertex 1.000000e+001 0.000000e+000 0.000000e+000
         vertex 5.805828e+000 4.045544e+000 0.000000e+000
         vertex 5.932655e+000 4.226672e+000 0.000000e+000
      endloop
   endfacet
   facet normal 0.000000e+000 0.000000e+000 -1.000000e+000
      outer loop
         vertex 1.000000e+001 0.000000e+000 0.000000e+000
         vertex 5.932655e+000 4.226672e+000 0.000000e+000
         vertex 6.026103e+000 4.427071e+000 0.000000e+000
      endloop
   endfacet
   facet normal 0.000000e+000 0.000000e+000 -1.000000e+000
      outer loop
         vertex 6.026103e+000 4.427071e+000 0.000000e+000
         vertex 6.083332e+000 4.640652e+000 0.000000e+000
         vertex 1.000000e+001 0.000000e+000 0.000000e+000
      endloop
   endfacet
   facet normal 0.000000e+000 0.000000e+000 -1.000000e+000
      outer loop
         vertex 1.000000e+001 0.000000e+000 0.000000e+000
         vertex 6.083332e+000 4.640652e+000 0.000000e+000
         vertex 6.102603e+000 4.860927e+000 0.000000e+000
      endloop
   endfacet
   facet normal 0.000000e+000 0.000000e+000 -1.000000e+000
      outer loop
         vertex 1.000000e+001 0.000000e+000 0.000000e+000
         vertex 6.102603e+000 4.860927e+000 0.000000e+000
         vertex 1.000000e+001 1.000000e+001 0.000000e+000
      endloop
   endfacet
   facet normal 0.000000e+000 0.000000e+000 -1.000000e+000
      outer loop
         vertex 1.000000e+001 1.000000e+001 0.000000e+000
         vertex 6.102603e+000 4.860927e+000 0.000000e+000
         vertex 6.083332e+000 5.081202e+000 0.000000e+000
      endloop
   endfacet
   facet normal 0.000000e+000 0.000000e+000 -1.000000e+000
      outer loop
         vertex 1.000000e+001 1.000000e+001 0.000000e+000
         vertex 6.083332e+000 5.081202e+000 0.000000e+000
         vertex 6.026103e+000 5.294783e+000 0.000000e+000
      endloop
   endfacet
   facet normal 0.000000e+000 1.000000e+000 0.000000e+000
      outer loop
         vertex 1.000000e+001 1.000000e+001 1.000000e+001
         vertex 1.000000e+001 1.000000e+001 0.000000e+000
         vertex 0.000000e+000 1.000000e+001 1.000000e+001
      endloop
   endfacet
   facet normal 0.000000e+000 1.000000e+000 0.000000e+000
      outer loop
         vertex 0.000000e+000 1.000000e+001 1.000000e+001
         vertex 1.000000e+001 1.000000e+001 0.000000e+000
         vertex 0.000000e+000 1.000000e+001 0.000000e+000
      endloop
   endfacet
   facet normal 0.000000e+000 -1.000000e+000 0.000000e+000
      outer loop
         vertex 1.000000e+001 0.000000e+000 0.000000e+000
         vertex 1.000000e+001 0.000000e+000 1.000000e+001
         vertex 0.000000e+000 0.000000e+000 0.000000e+000
      endloop
   endfacet
   facet normal 0.000000e+000 -1.000000e+000 0.000000e+000
      outer loop
         vertex 0.000000e+000 0.000000e+000 0.000000e+000
         vertex 1.000000e+001 0.000000e+000 1.000000e+001
         vertex 0.000000e+000 0.000000e+000 1.000000e+001
      endloop
   endfacet
   facet normal -9.983119e-001 5.807913e-002 0.000000e+000
      outer loop
         vertex 6.083332e+000 4.640652e+000 0.000000e+000
         vertex 6.102603e+000 4.860927e+000 1.000000e+001
         vertex 6.102603e+000 4.860927e+000 0.000000e+000
      endloop
   endfacet
   facet normal -9.983119e-001 -5.807913e-002 0.000000e+000
      outer loop
         vertex 6.102603e+000 4.860927e+000 0.000000e+000
         vertex 6.102603e+000 4.860927e+000 1.000000e+001
         vertex 6.083332e+000 5.081202e+000 1.000000e+001
      endloop
   endfacet
   facet normal -9.932307e-001 -1.161583e-001 0.000000e+000
      outer loop
         vertex 6.102603e+000 4.860927e+000 0.000000e+000
         vertex 6.083332e+000 5.081202e+000 1.000000e+001
         vertex 6.083332e+000 5.081202e+000 0.000000e+000
      endloop
   endfacet
   facet normal -9.730600e-001 -2.305519e-001 0.000000e+000
      outer loop
         vertex 6.083332e+000 5.081202e+000 0.000000e+000
         vertex 6.083332e+000 5.081202e+000 1.000000e+001
         vertex 6.026103e+000 5.294783e+000 1.000000e+001
      endloop
   endfacet
   facet normal -9.579706e-001 -2.868663e-001 0.000000e+000
      outer loop
         vertex 6.083332e+000 5.081202e+000 0.000000e+000
         vertex 6.026103e+000 5.294783e+000 1.000000e+001
         vertex 6.026103e+000 5.294783e+000 0.000000e+000
      endloop
   endfacet
   facet normal -9.182422e-001 -3.960194e-001 0.000000e+000
      outer loop
         vertex 6.026103e+000 5.294783e+000 0.000000e+000
         vertex 6.026103e+000 5.294783e+000 1.000000e+001
         vertex 5.932655e+000 5.495182e+000 1.000000e+001
      endloop
   endfacet
   facet normal -8.936031e-001 -4.488580e-001 0.000000e+000
      outer loop
         vertex 6.026103e+000 5.294783e+000 0.000000e+000
         vertex 5.932655e+000 5.495182e+000 1.000000e+001
         vertex 5.932655e+000 5.495182e+000 0.000000e+000
      endloop
   endfacet
   facet normal -8.355240e-001 -5.494540e-001 0.000000e+000
      outer loop
         vertex 5.932655e+000 5.495182e+000 0.000000e+000
         vertex 5.932655e+000 5.495182e+000 1.000000e+001
         vertex 5.805828e+000 5.676310e+000 1.000000e+001
      endloop
   endfacet
   facet normal -8.020838e-001 -5.972114e-001 0.000000e+000
      outer loop
         vertex 5.932655e+000 5.495182e+000 0.000000e+000
         vertex 5.805828e+000 5.676310e+000 1.000000e+001
         vertex 5.805828e+000 5.676310e+000 0.000000e+000
      endloop
   endfacet
   facet normal -7.274188e-001 -6.861938e-001 0.000000e+000
      outer loop
         vertex 5.805828e+000 5.676310e+000 0.000000e+000
         vertex 5.805828e+000 5.676310e+000 1.000000e+001
         vertex 5.649476e+000 5.832662e+000 1.000000e+001
      endloop
   endfacet
   facet normal -6.861938e-001 -7.274188e-001 0.000000e+000
      outer loop
         vertex 5.805828e+000 5.676310e+000 0.000000e+000
         vertex 5.649476e+000 5.832662e+000 1.000000e+001
         vertex 5.649476e+000 5.832662e+000 0.000000e+000
      endloop
   endfacet
   facet normal -5.972114e-001 -8.020838e-001 0.000000e+000
      outer loop
         vertex 5.649476e+000 5.832662e+000 0.000000e+000
         vertex 5.649476e+000 5.832662e+000 1.000000e+001
         vertex 5.468348e+000 5.959489e+000 1.000000e+001
      endloop
   endfacet
   facet normal -5.494540e-001 -8.355240e-001 0.000000e+000
      outer loop
         vertex 5.649476e+000 5.832662e+000 0.000000e+000
         vertex 5.468348e+000 5.959489e+000 1.000000e+001
         vertex 5.468348e+000 5.959489e+000 0.000000e+000
      endloop
   endfacet
   facet normal -4.488580e-001 -8.936031e-001 0.000000e+000
      outer loop
         vertex 5.468348e+000 5.959489e+000 0.000000e+000
         vertex 5.468348e+000 5.959489e+000 1.000000e+001
         vertex 5.267949e+000 6.052937e+000 1.000000e+001
      endloop
   endfacet
   facet normal -3.960194e-001 -9.182422e-001 0.000000e+000
      outer loop
         vertex 5.468348e+000 5.959489e+000 0.000000e+000
         vertex 5.267949e+000 6.052937e+000 1.000000e+001
         vertex 5.267949e+000 6.052937e+000 0.000000e+000
      endloop
   endfacet
   facet normal -2.868663e-001 -9.579706e-001 0.000000e+000
      outer loop
         vertex 5.267949e+000 6.052937e+000 0.000000e+000
         vertex 5.267949e+000 6.052937e+000 1.000000e+001
         vertex 5.054367e+000 6.110166e+000 1.000000e+001
      endloop
   endfacet
   facet normal -2.305519e-001 -9.730600e-001 0.000000e+000
      outer loop
         vertex 5.267949e+000 6.052937e+000 0.000000e+000
         vertex 5.054367e+000 6.110166e+000 1.000000e+001
         vertex 5.054367e+000 6.110166e+000 0.000000e+000
      endloop
   endfacet
   facet normal -1.161583e-001 -9.932307e-001 0.000000e+000
      outer loop
         vertex 5.054367e+000 6.110166e+000 0.000000e+000
         vertex 5.054367e+000 6.110166e+000 1.000000e+001
         vertex 4.834093e+000 6.129437e+000 1.000000e+001
      endloop
   endfacet
   facet normal -5.807913e-002 -9.983119e-001 0.000000e+000
      outer loop
         vertex 5.054367e+000 6.110166e+000 0.000000e+000
         vertex 4.834093e+000 6.129437e+000 1.000000e+001
         vertex 4.834093e+000 6.129437e+000 0.000000e+000
      endloop
   endfacet
   facet normal 5.807913e-002 -9.983119e-001 0.000000e+000
      outer loop
         vertex 4.834093e+000 6.129437e+000 0.000000e+000
         vertex 4.834093e+000 6.129437e+000 1.000000e+001
         vertex 4.613818e+000 6.110166e+000 1.000000e+001
      endloop
   endfacet
   facet normal 1.161583e-001 -9.932307e-001 0.000000e+000
      outer loop
         vertex 4.834093e+000 6.129437e+000 0.000000e+000
         vertex 4.613818e+000 6.110166e+000 1.000000e+001
         vertex 4.613818e+000 6.110166e+000 0.000000e+000
      endloop
   endfacet
   facet normal 2.305519e-001 -9.730600e-001 0.000000e+000
      outer loop
         vertex 4.613818e+000 6.110166e+000 0.000000e+000
         vertex 4.613818e+000 6.110166e+000 1.000000e+001
         vertex 4.400237e+000 6.052937e+000 1.000000e+001
      endloop
   endfacet
   facet normal 2.868663e-001 -9.579706e-001 0.000000e+000
      outer loop
         vertex 4.613818e+000 6.110166e+000 0.000000e+000
         vertex 4.400237e+000 6.052937e+000 1.000000e+001
         vertex 4.400237e+000 6.052937e+000 0.000000e+000
      endloop
   endfacet
   facet normal 3.960194e-001 -9.182422e-001 0.000000e+000
      outer loop
         vertex 4.400237e+000 6.052937e+000 0.000000e+000
         vertex 4.400237e+000 6.052937e+000 1.000000e+001
         vertex 4.199837e+000 5.959489e+000 1.000000e+001
      endloop
   endfacet
   facet normal 4.488580e-001 -8.936031e-001 0.000000e+000
      outer loop
         vertex 4.400237e+000 6.052937e+000 0.000000e+000
         vertex 4.199837e+000 5.959489e+000 1.000000e+001
         vertex 4.199837e+000 5.959489e+000 0.000000e+000
      endloop
   endfacet
   facet normal 5.494540e-001 -8.355240e-001 0.000000e+000
      outer loop
         vertex 4.199837e+000 5.959489e+000 0.000000e+000
         vertex 4.199837e+000 5.959489e+000 1.000000e+001
         vertex 4.018710e+000 5.832662e+000 1.000000e+001
      endloop
   endfacet
   facet normal 5.972114e-001 -8.020838e-001 0.000000e+000
      outer loop
         vertex 4.199837e+000 5.959489e+000 0.000000e+000
         vertex 4.018710e+000 5.832662e+000 1.000000e+001
         vertex 4.018710e+000 5.832662e+000 0.000000e+000
      endloop
   endfacet
   facet normal 6.861938e-001 -7.274188e-001 0.000000e+000
      outer loop
         vertex 4.018710e+000 5.832662e+000 0.000000e+000
         vertex 4.018710e+000 5.832662e+000 1.000000e+001
         vertex 3.862357e+000 5.676310e+000 1.000000e+001
      endloop
   endfacet
   facet normal 7.274188e-001 -6.861938e-001 0.000000e+000
      outer loop
         vertex 4.018710e+000 5.832662e+000 0.000000e+000
         vertex 3.862357e+000 5.676310e+000 1.000000e+001
         vertex 3.862357e+000 5.676310e+000 0.000000e+000
      endloop
   endfacet
   facet normal 8.020838e-001 -5.972114e-001 0.000000e+000
      outer loop
         vertex 3.862357e+000 5.676310e+000 0.000000e+000
         vertex 3.862357e+000 5.676310e+000 1.000000e+001
         vertex 3.735530e+000 5.495182e+000 1.000000e+001
      endloop
   endfacet
   facet normal 8.355240e-001 -5.494540e-001 0.000000e+000
      outer loop
         vertex 3.862357e+000 5.676310e+000 0.000000e+000
         vertex 3.735530e+000 5.495182e+000 1.000000e+001
         vertex 3.735530e+000 5.495182e+000 0.000000e+000
      endloop
   endfacet
   facet normal 8.936031e-001 -4.488580e-001 0.000000e+000
      outer loop
         vertex 3.735530e+000 5.495182e+000 0.000000e+000
         vertex 3.735530e+000 5.495182e+000 1.000000e+001
         vertex 3.642083e+000 5.294783e+000 1.000000e+001
      endloop
   endfacet
   facet normal 9.182422e-001 -3.960194e-001 0.000000e+000
      outer loop
         vertex 3.735530e+000 5.495182e+000 0.000000e+000
         vertex 3.642083e+000 5.294783e+000 1.000000e+001
         vertex 3.642083e+000 5.294783e+000 0.000000e+000
      endloop
   endfacet
   facet normal 9.579706e-001 -2.868663e-001 0.000000e+000
      outer loop
         vertex 3.642083e+000 5.294783e+000 0.000000e+000
         vertex 3.642083e+000 5.294783e+000 1.000000e+001
         vertex 3.584854e+000 5.081202e+000 1.000000e+001
      endloop
   endfacet
   facet normal 9.730600e-001 -2.305519e-001 0.000000e+000
      outer loop
         vertex 3.642083e+000 5.294783e+000 0.000000e+000
         vertex 3.584854e+000 5.081202e+000 1.000000e+001
         vertex 3.584854e+000 5.081202e+000 0.000000e+000
      endloop
   endfacet
   facet normal 9.932307e-001 -1.161583e-001 0.000000e+000
      outer loop
         vertex 3.584854e+000 5.081202e+000 0.000000e+000
         vertex 3.584854e+000 5.081202e+000 1.000000e+001
         vertex 3.565582e+000 4.860927e+000 1.000000e+001
      endloop
   endfacet
   facet normal 9.983119e-001 -5.807913e-002 0.000000e+000
      outer loop
         vertex 3.584854e+000 5.081202e+000 0.000000e+000
         vertex 3.565582e+000 4.860927e+000 1.000000e+001
         vertex 3.565582e+000 4.860927e+000 0.000000e+000
      endloop
   endfacet
   facet normal 9.983119e-001 5.807913e-002 0.000000e+000
      outer loop
         vertex 3.565582e+000 4.860927e+000 0.000000e+000
         vertex 3.565582e+000 4.860927e+000 1.000000e+001
         vertex 3.584854e+000 4.640652e+000 1.000000e+001
      endloop
   endfacet
   facet normal 9.932307e-001 1.161583e-001 0.000000e+000
      outer loop
         vertex 3.565582e+000 4.860927e+000 0.000000e+000
         vertex 3.584854e+000 4.640652e+000 1.000000e+001
         vertex 3.584854e+000 4.640652e+000 0.000000e+000
      endloop
   endfacet
   facet normal 9.730600e-001 2.305519e-001 0.000000e+000
      outer loop
         vertex 3.584854e+000 4.640652e+000 0.000000e+000
         vertex 3.584854e+000 4.640652e+000 1.000000e+001
         vertex 3.642083e+000 4.427071e+000 1.000000e+001
      endloop
   endfacet
   facet normal 9.579706e-001 2.868663e-001 0.000000e+000
      outer loop
         vertex 3.584854e+000 4.640652e+000 0.000000e+000
         vertex 3.642083e+000 4.427071e+000 1.000000e+001
         vertex 3.642083e+000 4.427071e+000 0.000000e+000
      endloop
   endfacet
   facet normal 9.182422e-001 3.960194e-001 0.000000e+000
      outer loop
         vertex 3.642083e+000 4.427071e+000 0.000000e+000
         vertex 3.642083e+000 4.427071e+000 1.000000e+001
         vertex 3.735530e+000 4.226672e+000 1.000000e+001
      endloop
   endfacet
   facet normal 8.936031e-001 4.488580e-001 0.000000e+000
      outer loop
         vertex 3.642083e+000 4.427071e+000 0.000000e+000
         vertex 3.735530e+000 4.226672e+000 1.000000e+001
         vertex 3.735530e+000 4.226672e+000 0.000000e+000
      endloop
   endfacet
   facet normal 8.355240e-001 5.494540e-001 0.000000e+000
      outer loop
         vertex 3.735530e+000 4.226672e+000 0.000000e+000
         vertex 3.735530e+000 4.226672e+000 1.000000e+001
         vertex 3.862357e+000 4.045544e+000 1.000000e+001
      endloop
   endfacet
   facet normal 8.020838e-001 5.972114e-001 0.000000e+000
      outer loop
         vertex 3.735530e+000 4.226672e+000 0.000000e+000
         vertex 3.862357e+000 4.045544e+000 1.000000e+001
         vertex 3.862357e+000 4.045544e+000 0.000000e+000
      endloop
   endfacet
   facet normal 7.274188e-001 6.861938e-001 0.000000e+000
      outer loop
         vertex 3.862357e+000 4.045544e+000 0.000000e+000
         vertex 3.862357e+000 4.045544e+000 1.000000e+001
         vertex 4.018710e+000 3.889192e+000 1.000000e+001
      endloop
   endfacet
   facet normal 6.861938e-001 7.274188e-001 0.000000e+000
      outer loop
         vertex 3.862357e+000 4.045544e+000 0.000000e+000
         vertex 4.018710e+000 3.889192e+000 1.000000e+001
         vertex 4.018710e+000 3.889192e+000 0.000000e+000
      endloop
   endfacet
   facet normal 5.972114e-001 8.020838e-001 0.000000e+000
      outer loop
         vertex 4.018710e+000 3.889192e+000 0.000000e+000
         vertex 4.018710e+000 3.889192e+000 1.000000e+001
         vertex 4.199837e+000 3.762365e+000 1.000000e+001
      endloop
   endfacet
   facet normal 5.494540e-001 8.355240e-001 0.000000e+000
      outer loop
         vertex 4.018710e+000 3.889192e+000 0.000000e+000
         vertex 4.199837e+000 3.762365e+000 1.000000e+001
         vertex 4.199837e+000 3.762365e+000 0.000000e+000
      endloop
   endfacet
   facet normal 4.488580e-001 8.936031e-001 0.000000e+000
      outer loop
         vertex 4.199837e+000 3.762365e+000 0.000000e+000
         vertex 4.199837e+000 3.762365e+000 1.000000e+001
         vertex 4.400237e+000 3.668917e+000 1.000000e+001
      endloop
   endfacet
   facet normal 3.960194e-001 9.182422e-001 0.000000e+000
      outer loop
         vertex 4.199837e+000 3.762365e+000 0.000000e+000
         vertex 4.400237e+000 3.668917e+000 1.000000e+001
         vertex 4.400237e+000 3.668917e+000 0.000000e+000
      endloop
   endfacet
   facet normal 2.868663e-001 9.579706e-001 0.000000e+000
      outer loop
         vertex 4.400237e+000 3.668917e+000 0.000000e+000
         vertex 4.400237e+000 3.668917e+000 1.000000e+001
         vertex 4.613818e+000 3.611688e+000 1.000000e+001
      endloop
   endfacet
   facet normal 2.305519e-001 9.730600e-001 0.000000e+000
      outer loop
         vertex 4.400237e+000 3.668917e+000 0.000000e+000
         vertex 4.613818e+000 3.611688e+000 1.000000e+001
         vertex 4.613818e+000 3.611688e+000 0.000000e+000
      endloop
   endfacet
   facet normal 1.161583e-001 9.932307e-001 0.000000e+000
      outer loop
         vertex 4.613818e+000 3.611688e+000 0.000000e+000
         vertex 4.613818e+000 3.611688e+000 1.000000e+001
         vertex 4.834093e+000 3.592417e+000 1.000000e+001
      endloop
   endfacet
   facet normal 5.807913e-002 9.983119e-001 0.000000e+000
      outer loop
         vertex 4.613818e+000 3.611688e+000 0.000000e+000
         vertex 4.834093e+000 3.592417e+000 1.000000e+001
         vertex 4.834093e+000 3.592417e+000 0.000000e+000
      endloop
   endfacet
   facet normal -5.807913e-002 9.983119e-001 0.000000e+000
      outer loop
         vertex 4.834093e+000 3.592417e+000 0.000000e+000
         vertex 4.834093e+000 3.592417e+000 1.000000e+001
         vertex 5.054367e+000 3.611688e+000 1.000000e+001
      endloop
   endfacet
   facet normal -1.161583e-001 9.932307e-001 0.000000e+000
      outer loop
         vertex 4.834093e+000 3.592417e+000 0.000000e+000
         vertex 5.054367e+000 3.611688e+000 1.000000e+001
         vertex 5.054367e+000 3.611688e+000 0.000000e+000
      endloop
   endfacet
   facet normal -2.305519e-001 9.730600e-001 0.000000e+000
      outer loop
         vertex 5.054367e+000 3.611688e+000 0.000000e+000
         vertex 5.054367e+000 3.611688e+000 1.000000e+001
         vertex 5.267949e+000 3.668917e+000 1.000000e+001
      endloop
   endfacet
   facet normal -2.868663e-001 9.579706e-001 0.000000e+000
      outer loop
         vertex 5.054367e+000 3.611688e+000 0.000000e+000
         vertex 5.267949e+000 3.668917e+000 1.000000e+001
         vertex 5.267949e+000 3.668917e+000 0.000000e+000
      endloop
   endfacet
   facet normal -3.960194e-001 9.182422e-001 0.000000e+000
      outer loop
         vertex 5.267949e+000 3.668917e+000 0.000000e+000
         vertex 5.267949e+000 3.668917e+000 1.000000e+001
         vertex 5.468348e+000 3.762365e+000 1.000000e+001
      endloop
   endfacet
   facet normal -4.488580e-001 8.936031e-001 0.000000e+000
      outer loop
         vertex 5.267949e+000 3.668917e+000 0.000000e+000
         vertex 5.468348e+000 3.762365e+000 1.000000e+001
         vertex 5.468348e+000 3.762365e+000 0.000000e+000
      endloop
   endfacet
   facet normal -5.494540e-001 8.355240e-001 0.000000e+000
      outer loop
         vertex 5.468348e+000 3.762365e+000 0.000000e+000
         vertex 5.468348e+000 3.762365e+000 1.000000e+001
         vertex 5.649476e+000 3.889192e+000 1.000000e+001
      endloop
   endfacet
   facet normal -5.972114e-001 8.020838e-001 0.000000e+000
      outer loop
         vertex 5.468348e+000 3.762365e+000 0.000000e+000
         vertex 5.649476e+000 3.889192e+000 1.000000e+001
         vertex 5.649476e+000 3.889192e+000 0.000000e+000
      endloop
   endfacet
   facet normal -6.861938e-001 7.274188e-001 0.000000e+000
      outer loop
         vertex 5.649476e+000 3.889192e+000 0.000000e+000
         vertex 5.649476e+000 3.889192e+000 1.000000e+001
         vertex 5.805828e+000 4.045544e+000 1.000000e+001
      endloop
   endfacet
   facet normal -7.274188e-001 6.861938e-001 0.000000e+000
      outer loop
         vertex 5.649476e+000 3.889192e+000 0.000000e+000
         vertex 5.805828e+000 4.045544e+000 1.000000e+001
         vertex 5.805828e+000 4.045544e+000 0.000000e+000
      endloop
   endfacet
   facet normal -8.020838e-001 5.972114e-001 0.000000e+000
      outer loop
         vertex 5.805828e+000 4.045544e+000 0.000000e+000
         vertex 5.805828e+000 4.045544e+000 1.000000e+001
         vertex 5.932655e+000 4.226672e+000 1.000000e+001
      endloop
   endfacet
   facet normal -8.355240e-001 5.494540e-001 0.000000e+000
      outer loop
         vertex 5.805828e+000 4.045544e+000 0.000000e+000
         vertex 5.932655e+000 4.226672e+000 1.000000e+001
         vertex 5.932655e+000 4.226672e+000 0.000000e+000
      endloop
   endfacet
   facet normal -8.936031e-001 4.488580e-001 0.000000e+000
      outer loop
         vertex 5.932655e+000 4.226672e+000 0.000000e+000
         vertex 5.932655e+000 4.226672e+000 1.000000e+001
         vertex 6.026103e+000 4.427071e+000 1.000000e+001
      endloop
   endfacet
   facet normal -9.182422e-001 3.960194e-001 0.000000e+000
      outer loop
         vertex 5.932655e+000 4.226672e+000 0.000000e+000
         vertex 6.026103e+000 4.427071e+000 1.000000e+001
         vertex 6.026103e+000 4.427071e+000 0.000000e+000
      endloop
   endfacet
   facet normal -9.579706e-001 2.868663e-001 0.000000e+000
      outer loop
         vertex 6.026103e+000 4.427071e+000 0.000000e+000
         vertex 6.026103e+000 4.427071e+000 1.000000e+001
         vertex 6.083332e+000 4.640652e+000 1.000000e+001
      endloop
   endfacet
   facet normal -9.730600e-001 2.305519e-001 0.000000e+000
      outer loop
         vertex 6.026103e+000 4.427071e+000 0.000000e+000
         vertex 6.083332e+000 4.640652e+000 1.000000e+001
         vertex 6.083332e+000 4.640652e+000 0.000000e+000
      endloop
   endfacet
   facet normal -9.932307e-001 1.161583e-001 0.000000e+000
      outer loop
         vertex 6.083332e+000 4.640652e+000 0.000000e+000
         vertex 6.083332e+000 4.640652e+000 1.000000e+001
         vertex 6.102603e+000 4.860927e+000 1.000000e+001
      endloop
   endfacet
endsolid