solid 3_226
   facet normal -1.000000e+000 0.000000e+000 0.000000e+000
      outer loop
         vertex 0.000000e+000 1.000000e+001 1.000000e+001
         vertex 0.000000e+000 1.000000e+001 0.000000e+000
         vertex 0.000000e+000 0.000000e+000 1.000000e+001
      endloop
   endfacet
   facet normal -1.000000e+000 0.000000e+000 0.000000e+000
      outer loop
         vertex 0.000000e+000 0.000000e+000 1.000000e+001
         vertex 0.000000e+000 1.000000e+001 0.000000e+000
         vertex 0.000000e+000 0.000000e+000 0.000000e+000
      endloop
   endfacet
   facet normal 0.000000e+000 0.000000e+000 1.000000e+000
      outer loop
         vertex 3.895822e+000 6.716203e+000 1.000000e+001
         vertex 3.768910e+000 6.843115e+000 1.000000e+001
         vertex 0.000000e+000 0.000000e+000 1.000000e+001
      endloop
   endfacet
   facet normal 0.000000e+000 0.000000e+000 1.000000e+000
      outer loop
         vertex 5.449376e+000 6.990137e+000 1.000000e+001
         vertex 5.346430e+000 6.843115e+000 1.000000e+001
         vertex 1.000000e+001 0.000000e+000 1.000000e+001
      endloop
   endfacet
   facet normal 0.000000e+000 0.000000e+000 1.000000e+000
      outer loop
         vertex 1.000000e+001 0.000000e+000 1.000000e+001
         vertex 5.346430e+000 6.843115e+000 1.000000e+001
         vertex 5.219519e+000 6.716203e+000 1.000000e+001
      endloop
   endfacet
   facet normal 0.000000e+000 0.000000e+000 1.000000e+000
      outer loop
         vertex 4.378872e+000 6.490953e+000 1.000000e+001
         vertex 4.205508e+000 6.537406e+000 1.000000e+001
         vertex 0.000000e+000 0.000000e+000 1.000000e+001
      endloop
   endfacet
   facet normal 0.000000e+000 0.000000e+000 1.000000e+000
      outer loop
         vertex 0.000000e+000 0.000000e+000 1.000000e+001
         vertex 4.205508e+000 6.537406e+000 1.000000e+001
         vertex 4.042843e+000 6.613257e+000 1.000000e+001
      endloop
   endfacet
   facet normal 0.000000e+000 0.000000e+000 1.000000e+000
      outer loop
         vertex 0.000000e+000 0.000000e+000 1.000000e+001
         vertex 4.042843e+000 6.613257e+000 1.000000e+001
         vertex 3.895822e+000 6.716203e+000 1.000000e+001
      endloop
   endfacet
   facet normal 0.000000e+000 0.000000e+000 1.000000e+000
      outer loop
         vertex 0.000000e+000 1.000000e+001 1.000000e+001
         vertex 3.528017e+000 7.504963e+000 1.000000e+001
         vertex 3.543659e+000 7.683761e+000 1.000000e+001
      endloop
   endfacet
   facet normal 0.000000e+000 0.000000e+000 1.000000e+000
      outer loop
         vertex 5.571681e+000 7.683761e+000 1.000000e+001
         vertex 5.587324e+000 7.504963e+000 1.000000e+001
         vertex 1.000000e+001 1.000000e+001 1.000000e+001
      endloop
   endfacet
   facet normal 0.000000e+000 0.000000e+000 1.000000e+000
      outer loop
         vertex 1.000000e+001 1.000000e+001 1.000000e+001
         vertex 5.587324e+000 7.504963e+000 1.000000e+001
         vertex 5.571681e+000 7.326166e+000 1.000000e+001
      endloop
   endfacet
   facet normal 0.000000e+000 0.000000e+000 1.000000e+000
      outer loop
         vertex 1.000000e+001 1.000000e+001 1.000000e+001
         vertex 5.571681e+000 7.326166e+000 1.000000e+001
         vertex 1.000000e+001 0.000000e+000 1.000000e+001
      endloop
   endfacet
   facet normal 0.000000e+000 0.000000e+000 1.000000e+000
      outer loop
         vertex 1.000000e+001 0.000000e+000 1.000000e+001
         vertex 5.571681e+000 7.326166e+000 1.000000e+001
         vertex 5.525228e+000 7.152802e+000 1.000000e+001
      endloop
   endfacet
   facet normal 0.000000e+000 0.000000e+000 1.000000e+000
      outer loop
         vertex 1.000000e+001 0.000000e+000 1.000000e+001
         vertex 5.525228e+000 7.152802e+000 1.000000e+001
         vertex 5.449376e+000 6.990137e+000 1.000000e+001
      endloop
   endfacet
   facet normal 0.000000e+000 0.000000e+000 1.000000e+000
      outer loop
         vertex 1.000000e+001 0.000000e+000 1.000000e+001
         vertex 4.736467e+000 6.490953e+000 1.000000e+001
         vertex 0.000000e+000 0.000000e+000 1.000000e+001
      endloop
   endfacet
   facet normal 0.000000e+000 0.000000e+000 1.000000e+000
      outer loop
         vertex 0.000000e+000 0.000000e+000 1.000000e+001
         vertex 4.736467e+000 6.490953e+000 1.000000e+001
         vertex 4.557670e+000 6.475310e+000 1.000000e+001
      endloop
   endfacet
   facet normal 0.000000e+000 0.000000e+000 1.000000e+000
      outer loop
         vertex 0.000000e+000 0.000000e+000 1.000000e+001
         vertex 4.557670e+000 6.475310e+000 1.000000e+001
         vertex 4.378872e+000 6.490953e+000 1.000000e+001
      endloop
   endfacet
   facet normal 0.000000e+000 0.000000e+000 1.000000e+000
      outer loop
         vertex 3.768910e+000 6.843115e+000 1.000000e+001
         vertex 3.665964e+000 6.990137e+000 1.000000e+001
         vertex 0.000000e+000 0.000000e+000 1.000000e+001
      endloop
   endfacet
   facet normal 0.000000e+000 0.000000e+000 1.000000e+000
      outer loop
         vertex 0.000000e+000 0.000000e+000 1.000000e+001
         vertex 3.665964e+000 6.990137e+000 1.000000e+001
         vertex 3.590112e+000 7.152802e+000 1.000000e+001
      endloop
   endfacet
   facet normal 0.000000e+000 0.000000e+000 1.000000e+000
      outer loop
         vertex 0.000000e+000 0.000000e+000 1.000000e+001
         vertex 3.590112e+000 7.152802e+000 1.000000e+001
         vertex 0.000000e+000 1.000000e+001 1.000000e+001
      endloop
   endfacet
   facet normal 0.000000e+000 0.000000e+000 1.000000e+000
      outer loop
         vertex 0.000000e+000 1.000000e+001 1.000000e+001
         vertex 3.590112e+000 7.152802e+000 1.000000e+001
         vertex 3.543659e+000 7.326166e+000 1.000000e+001
      endloop
   endfacet
   facet normal 0.000000e+000 0.000000e+000 1.000000e+000
      outer loop
         vertex 0.000000e+000 1.000000e+001 1.000000e+001
         vertex 3.543659e+000 7.326166e+000 1.000000e+001
         vertex 3.528017e+000 7.504963e+000 1.000000e+001
      endloop
   endfacet
   facet normal 0.000000e+000 0.000000e+000 1.000000e+000
      outer loop
         vertex 5.219519e+000 6.716203e+000 1.000000e+001
         vertex 5.072497e+000 6.613257e+000 1.000000e+001
         vertex 1.000000e+001 0.000000e+000 1.000000e+001
      endloop
   endfacet
   facet normal 0.000000e+000 0.000000e+000 1.000000e+000
      outer loop
         vertex 1.000000e+001 0.000000e+000 1.000000e+001
         vertex 5.072497e+000 6.613257e+000 1.000000e+001
         vertex 4.909832e+000 6.537406e+000 1.000000e+001
      endloop
   endfacet
   facet normal 0.000000e+000 0.000000e+000 1.000000e+000
      outer loop
         vertex 1.000000e+001 0.000000e+000 1.000000e+001
         vertex 4.909832e+000 6.537406e+000 1.000000e+001
         vertex 4.736467e+000 6.490953e+000 1.000000e+001
      endloop
   endfacet
   facet normal 0.000000e+000 0.000000e+000 1.000000e+000
      outer loop
         vertex 3.543659e+000 7.683761e+000 1.000000e+001
         vertex 3.590112e+000 7.857125e+000 1.000000e+001
         vertex 0.000000e+000 1.000000e+001 1.000000e+001
      endloop
   endfacet
   facet normal 0.000000e+000 0.000000e+000 1.000000e+000
      outer loop
         vertex 0.000000e+000 1.000000e+001 1.000000e+001
         vertex 3.590112e+000 7.857125e+000 1.000000e+001
         vertex 3.665964e+000 8.019790e+000 1.000000e+001
      endloop
   endfacet
   facet normal 0.000000e+000 0.000000e+000 1.000000e+000
      outer loop
         vertex 0.000000e+000 1.000000e+001 1.000000e+001
         vertex 3.665964e+000 8.019790e+000 1.000000e+001
         vertex 3.768910e+000 8.166812e+000 1.000000e+001
      endloop
   endfacet
   facet normal 0.000000e+000 0.000000e+000 1.000000e+000
      outer loop
         vertex 3.768910e+000 8.166812e+000 1.000000e+001
         vertex 3.895822e+000 8.293724e+000 1.000000e+001
         vertex 0.000000e+000 1.000000e+001 1.000000e+001
      endloop
   endfacet
   facet normal 0.000000e+000 0.000000e+000 1.000000e+000
      outer loop
         vertex 0.000000e+000 1.000000e+001 1.000000e+001
         vertex 3.895822e+000 8.293724e+000 1.000000e+001
         vertex 4.042843e+000 8.396669e+000 1.000000e+001
      endloop
   endfacet
   facet normal 0.000000e+000 0.000000e+000 1.000000e+000
      outer loop
         vertex 0.000000e+000 1.000000e+001 1.000000e+001
         vertex 4.042843e+000 8.396669e+000 1.000000e+001
         vertex 4.205508e+000 8.472521e+000 1.000000e+001
      endloop
   endfacet
   facet normal 0.000000e+000 0.000000e+000 1.000000e+000
      outer loop
         vertex 4.205508e+000 8.472521e+000 1.000000e+001
         vertex 4.378872e+000 8.518974e+000 1.000000e+001
         vertex 0.000000e+000 1.000000e+001 1.000000e+001
      endloop
   endfacet
   facet normal 0.000000e+000 0.000000e+000 1.000000e+000
      outer loop
         vertex 0.000000e+000 1.000000e+001 1.000000e+001
         vertex 4.378872e+000 8.518974e+000 1.000000e+001
         vertex 4.557670e+000 8.534616e+000 1.000000e+001
      endloop
   endfacet
   facet normal 0.000000e+000 0.000000e+000 1.000000e+000
      outer loop
         vertex 0.000000e+000 1.000000e+001 1.000000e+001
         vertex 4.557670e+000 8.534616e+000 1.000000e+001
         vertex 1.000000e+001 1.000000e+001 1.000000e+001
      endloop
   endfacet
   facet normal 0.000000e+000 0.000000e+000 1.000000e+000
      outer loop
         vertex 1.000000e+001 1.000000e+001 1.000000e+001
         vertex 4.557670e+000 8.534616e+000 1.000000e+001
         vertex 4.736467e+000 8.518974e+000 1.000000e+001
      endloop
   endfacet
   facet normal 0.000000e+000 0.000000e+000 1.000000e+000
      outer loop
         vertex 1.000000e+001 1.000000e+001 1.000000e+001
         vertex 4.736467e+000 8.518974e+000 1.000000e+001
         vertex 4.909832e+000 8.472521e+000 1.000000e+001
      endloop
   endfacet
   facet normal 0.000000e+000 0.000000e+000 1.000000e+000
      outer loop
         vertex 4.909832e+000 8.472521e+000 1.000000e+001
         vertex 5.072497e+000 8.396669e+000 1.000000e+001
         vertex 1.000000e+001 1.000000e+001 1.000000e+001
      endloop
   endfacet
   facet normal 0.000000e+000 0.000000e+000 1.000000e+000
      outer loop
         vertex 1.000000e+001 1.000000e+001 1.000000e+001
         vertex 5.072497e+000 8.396669e+000 1.000000e+001
         vertex 5.219519e+000 8.293724e+000 1.000000e+001
      endloop
   endfacet
   facet normal 0.000000e+000 0.000000e+000 1.000000e+000
      outer loop
         vertex 1.000000e+001 1.000000e+001 1.000000e+001
         vertex 5.219519e+000 8.293724e+000 1.000000e+001
         vertex 5.346430e+000 8.166812e+000 1.000000e+001
      endloop
   endfacet
   facet normal 0.000000e+000 0.000000e+000 1.000000e+000
      outer loop
         vertex 5.346430e+000 8.166812e+000 1.000000e+001
         vertex 5.449376e+000 8.019790e+000 1.000000e+001
         vertex 1.000000e+001 1.000000e+001 1.000000e+001
      endloop
   endfacet
   facet normal 0.000000e+000 0.000000e+000 1.000000e+000
      outer loop
         vertex 1.000000e+001 1.000000e+001 1.000000e+001
         vertex 5.449376e+000 8.019790e+000 1.000000e+001
         vertex 5.525228e+000 7.857125e+000 1.000000e+001
      endloop
   endfacet
   facet normal 0.000000e+000 0.000000e+000 1.000000e+000
      outer loop
         vertex 1.000000e+001 1.000000e+001 1.000000e+001
         vertex 5.525228e+000 7.857125e+000 1.000000e+001
         vertex 5.571681e+000 7.683761e+000 1.000000e+001
      endloop
   endfacet
   facet normal 1.000000e+000 0.000000e+000 0.000000e+000
      outer loop
         vertex 1.000000e+001 1.000000e+001 0.000000e+000
         vertex 1.000000e+001 1.000000e+001 1.000000e+001
         vertex 1.000000e+001 0.000000e+000 0.000000e+000
      endloop
   endfacet
   facet normal 1.000000e+000 0.000000e+000 0.000000e+000
      outer loop
         vertex 1.000000e+001 0.000000e+000 0.000000e+000
         vertex 1.000000e+001 1.000000e+001 1.000000e+001
         vertex 1.000000e+001 0.000000e+000 1.000000e+001
      endloop
   endfacet
   facet normal 0.000000e+000 0.000000e+000 -1.000000e+000
      outer loop
         vertex 3.665964e+000 6.990137e+000 0.000000e+000
         vertex 3.768910e+000 6.843115e+000 0.000000e+000
         vertex 0.000000e+000 0.000000e+000 0.000000e+000
      endloop
   endfacet
   facet normal 0.000000e+000 0.000000e+000 -1.000000e+000
      outer loop
         vertex 3.768910e+000 6.843115e+000 0.000000e+000
         vertex 3.895822e+000 6.716203e+000 0.000000e+000
         vertex 0.000000e+000 0.000000e+000 0.000000e+000
      endloop
   endfacet
   facet normal 0.000000e+000 0.000000e+000 -1.000000e+000
      outer loop
         vertex 0.000000e+000 0.000000e+000 0.000000e+000
         vertex 3.895822e+000 6.716203e+000 0.000000e+000
         vertex 4.042843e+000 6.613257e+000 0.000000e+000
      endloop
   endfacet
   facet normal 0.000000e+000 0.000000e+000 -1.000000e+000
      outer loop
         vertex 0.000000e+000 0.000000e+000 0.000000e+000
         vertex 4.042843e+000 6.613257e+000 0.000000e+000
         vertex 4.205508e+000 6.537406e+000 0.000000e+000
      endloop
   endfacet
   facet normal 0.000000e+000 0.000000e+000 -1.000000e+000
      outer loop
         vertex 1.000000e+001 1.000000e+001 0.000000e+000
         vertex 4.736467e+000 8.518974e+000 0.000000e+000
         vertex 4.557670e+000 8.534616e+000 0.000000e+000
      endloop
   endfacet
   facet normal 0.000000e+000 0.000000e+000 -1.000000e+000
      outer loop
         vertex 3.543659e+000 7.683761e+000 0.000000e+000
         vertex 3.528017e+000 7.504963e+000 0.000000e+000
         vertex 0.000000e+000 1.000000e+001 0.000000e+000
      endloop
   endfacet
   facet normal 0.000000e+000 0.000000e+000 -1.000000e+000
      outer loop
         vertex 0.000000e+000 1.000000e+001 0.000000e+000
         vertex 3.528017e+000 7.504963e+000 0.000000e+000
         vertex 3.543659e+000 7.326166e+000 0.000000e+000
      endloop
   endfacet
   facet normal 0.000000e+000 0.000000e+000 -1.000000e+000
      outer loop
         vertex 0.000000e+000 1.000000e+001 0.000000e+000
         vertex 3.543659e+000 7.326166e+000 0.000000e+000
         vertex 0.000000e+000 0.000000e+000 0.000000e+000
      endloop
   endfacet
   facet normal 0.000000e+000 0.000000e+000 -1.000000e+000
      outer loop
         vertex 0.000000e+000 0.000000e+000 0.000000e+000
         vertex 3.543659e+000 7.326166e+000 0.000000e+000
         vertex 3.590112e+000 7.152802e+000 0.000000e+000
      endloop
   endfacet
   facet normal 0.000000e+000 0.000000e+000 -1.000000e+000
      outer loop
         vertex 0.000000e+000 0.000000e+000 0.000000e+000
         vertex 3.590112e+000 7.152802e+000 0.000000e+000
         vertex 3.665964e+000 6.990137e+000 0.000000e+000
      endloop
   endfacet
   facet normal 0.000000e+000 0.000000e+000 -1.000000e+000
      outer loop
         vertex 1.000000e+001 1.000000e+001 0.000000e+000
         vertex 4.557670e+000 8.534616e+000 0.000000e+000
         vertex 0.000000e+000 1.000000e+001 0.000000e+000
      endloop
   endfacet
   facet normal 0.000000e+000 0.000000e+000 -1.000000e+000
      outer loop
         vertex 0.000000e+000 1.000000e+001 0.000000e+000
         vertex 4.557670e+000 8.534616e+000 0.000000e+000
         vertex 4.378872e+000 8.518974e+000 0.000000e+000
      endloop
   endfacet
   facet normal 0.000000e+000 0.000000e+000 -1.000000e+000
      outer loop
         vertex 0.000000e+000 1.000000e+001 0.000000e+000
         vertex 4.378872e+000 8.518974e+000 0.000000e+000
         vertex 4.205508e+000 8.472521e+000 0.000000e+000
      endloop
   endfacet
   facet normal 0.000000e+000 0.000000e+000 -1.000000e+000
      outer loop
         vertex 4.205508e+000 8.472521e+000 0.000000e+000
         vertex 4.042843e+000 8.396669e+000 0.000000e+000
         vertex 0.000000e+000 1.000000e+001 0.000000e+000
      endloop
   endfacet
   facet normal 0.000000e+000 0.000000e+000 -1.000000e+000
      outer loop
         vertex 0.000000e+000 1.000000e+001 0.000000e+000
         vertex 4.042843e+000 8.396669e+000 0.000000e+000
         vertex 3.895822e+000 8.293724e+000 0.000000e+000
      endloop
   endfacet
   facet normal 0.000000e+000 0.000000e+000 -1.000000e+000
      outer loop
         vertex 0.000000e+000 1.000000e+001 0.000000e+000
         vertex 3.895822e+000 8.293724e+000 0.000000e+000
         vertex 3.768910e+000 8.166812e+000 0.000000e+000
      endloop
   endfacet
   facet normal 0.000000e+000 0.000000e+000 -1.000000e+000
      outer loop
         vertex 3.768910e+000 8.166812e+000 0.000000e+000
         vertex 3.665964e+000 8.019790e+000 0.000000e+000
         vertex 0.000000e+000 1.000000e+001 0.000000e+000
      endloop
   endfacet
   facet normal 0.000000e+000 0.000000e+000 -1.000000e+000
      outer loop
         vertex 0.000000e+000 1.000000e+001 0.000000e+000
         vertex 3.665964e+000 8.019790e+000 0.000000e+000
         vertex 3.590112e+000 7.857125e+000 0.000000e+000
      endloop
   endfacet
   facet normal 0.000000e+000 0.000000e+000 -1.000000e+000
      outer loop
         vertex 0.000000e+000 1.000000e+001 0.000000e+000
         vertex 3.590112e+000 7.857125e+000 0.000000e+000
         vertex 3.543659e+000 7.683761e+000 0.000000e+000
      endloop
   endfacet
   facet normal 0.000000e+000 0.000000e+000 -1.000000e+000
      outer loop
         vertex 4.205508e+000 6.537406e+000 0.000000e+000
         vertex 4.378872e+000 6.490953e+000 0.000000e+000
         vertex 0.000000e+000 0.000000e+000 0.000000e+000
      endloop
   endfacet
   facet normal 0.000000e+000 0.000000e+000 -1.000000e+000
      outer loop
         vertex 0.000000e+000 0.000000e+000 0.000000e+000
         vertex 4.378872e+000 6.490953e+000 0.000000e+000
         vertex 4.557670e+000 6.475310e+000 0.000000e+000
      endloop
   endfacet
   facet normal 0.000000e+000 0.000000e+000 -1.000000e+000
      outer loop
         vertex 0.000000e+000 0.000000e+000 0.000000e+000
         vertex 4.557670e+000 6.475310e+000 0.000000e+000
         vertex 1.000000e+001 0.000000e+000 0.000000e+000
      endloop
   endfacet
   facet normal 0.000000e+000 0.000000e+000 -1.000000e+000
      outer loop
         vertex 1.000000e+001 0.000000e+000 0.000000e+000
         vertex 4.557670e+000 6.475310e+000 0.000000e+000
         vertex 4.736467e+000 6.490953e+000 0.000000e+000
      endloop
   endfacet
   facet normal 0.000000e+000 0.000000e+000 -1.000000e+000
      outer loop
         vertex 1.000000e+001 0.000000e+000 0.000000e+000
         vertex 4.736467e+000 6.490953e+000 0.000000e+000
         vertex 4.909832e+000 6.537406e+000 0.000000e+000
      endloop
   endfacet
   facet normal 0.000000e+000 0.000000e+000 -1.000000e+000
      outer loop
         vertex 5.571681e+000 7.326166e+000 0.000000e+000
         vertex 1.000000e+001 1.000000e+001 0.000000e+000
         vertex 5.525228e+000 7.152802e+000 0.000000e+000
      endloop
   endfacet
   facet normal 0.000000e+000 0.000000e+000 -1.000000e+000
      outer loop
         vertex 5.525228e+000 7.152802e+000 0.000000e+000
         vertex 1.000000e+001 1.000000e+001 0.000000e+000
         vertex 1.000000e+001 0.000000e+000 0.000000e+000
      endloop
   endfacet
   facet normal 0.000000e+000 0.000000e+000 -1.000000e+000
      outer loop
         vertex 5.525228e+000 7.152802e+000 0.000000e+000
         vertex 1.000000e+001 0.000000e+000 0.000000e+000
         vertex 5.449376e+000 6.990137e+000 0.000000e+000
      endloop
   endfacet
   facet normal 0.000000e+000 0.000000e+000 -1.000000e+000
      outer loop
         vertex 5.449376e+000 6.990137e+000 0.000000e+000
         vertex 1.000000e+001 0.000000e+000 0.000000e+000
         vertex 5.346430e+000 6.843115e+000 0.000000e+000
      endloop
   endfacet
   facet normal 0.000000e+000 0.000000e+000 -1.000000e+000
      outer loop
         vertex 5.571681e+000 7.326166e+000 0.000000e+000
         vertex 5.587324e+000 7.504963e+000 0.000000e+000
         vertex 1.000000e+001 1.000000e+001 0.000000e+000
      endloop
   endfacet
   facet normal 0.000000e+000 0.000000e+000 -1.000000e+000
      outer loop
         vertex 1.000000e+001 1.000000e+001 0.000000e+000
         vertex 5.587324e+000 7.504963e+000 0.000000e+000
         vertex 5.571681e+000 7.683761e+000 0.000000e+000
      endloop
   endfacet
   facet normal 0.000000e+000 0.000000e+000 -1.000000e+000
      outer loop
         vertex 1.000000e+001 1.000000e+001 0.000000e+000
         vertex 5.571681e+000 7.683761e+000 0.000000e+000
         vertex 5.525228e+000 7.857125e+000 0.000000e+000
      endloop
   endfacet
   facet normal 0.000000e+000 0.000000e+000 -1.000000e+000
      outer loop
         vertex 4.909832e+000 6.537406e+000 0.000000e+000
         vertex 5.072497e+000 6.613257e+000 0.000000e+000
         vertex 1.000000e+001 0.000000e+000 0.000000e+000
      endloop
   endfacet
   facet normal 0.000000e+000 0.000000e+000 -1.000000e+000
      outer loop
         vertex 1.000000e+001 0.000000e+000 0.000000e+000
         vertex 5.072497e+000 6.613257e+000 0.000000e+000
         vertex 5.219519e+000 6.716203e+000 0.000000e+000
      endloop
   endfacet
   facet normal 0.000000e+000 0.000000e+000 -1.000000e+000
      outer loop
         vertex 1.000000e+001 0.000000e+000 0.000000e+000
         vertex 5.219519e+000 6.716203e+000 0.000000e+000
         vertex 5.346430e+000 6.843115e+000 0.000000e+000
      endloop
   endfacet
   facet normal 0.000000e+000 0.000000e+000 -1.000000e+000
      outer loop
         vertex 5.525228e+000 7.857125e+000 0.000000e+000
         vertex 5.449376e+000 8.019790e+000 0.000000e+000
         vertex 1.000000e+001 1.000000e+001 0.000000e+000
      endloop
   endfacet
   facet normal 0.000000e+000 0.000000e+000 -1.000000e+000
      outer loop
         vertex 1.000000e+001 1.000000e+001 0.000000e+000
         vertex 5.449376e+000 8.019790e+000 0.000000e+000
         vertex 5.346430e+000 8.166812e+000 0.000000e+000
      endloop
   endfacet
   facet normal 0.000000e+000 0.000000e+000 -1.000000e+000
      outer loop
         vertex 1.000000e+001 1.000000e+001 0.000000e+000
         vertex 5.346430e+000 8.166812e+000 0.000000e+000
         vertex 5.219519e+000 8.293724e+000 0.000000e+000
      endloop
   endfacet
   facet normal 0.000000e+000 0.000000e+000 -1.000000e+000
      outer loop
         vertex 5.219519e+000 8.293724e+000 0.000000e+000
         vertex 5.072497e+000 8.396669e+000 0.000000e+000
         vertex 1.000000e+001 1.000000e+001 0.000000e+000
      endloop
   endfacet
   facet normal 0.000000e+000 0.000000e+000 -1.000000e+000
      outer loop
         vertex 1.000000e+001 1.000000e+001 0.000000e+000
         vertex 5.072497e+000 8.396669e+000 0.000000e+000
         vertex 4.909832e+000 8.472521e+000 0.000000e+000
      endloop
   endfacet
   facet normal 0.000000e+000 0.000000e+000 -1.000000e+000
      outer loop
         vertex 1.000000e+001 1.000000e+001 0.000000e+000
         vertex 4.909832e+000 8.472521e+000 0.000000e+000
         vertex 4.736467e+000 8.518974e+000 0.000000e+000
      endloop
   endfacet
   facet normal 0.000000e+000 1.000000e+000 0.000000e+000
      outer loop
         vertex 1.000000e+001 1.000000e+001 1.000000e+001
         vertex 1.000000e+001 1.000000e+001 0.000000e+000
         vertex 0.000000e+000 1.000000e+001 1.000000e+001
      endloop
   endfacet
   facet normal 0.000000e+000 1.000000e+000 0.000000e+000
      outer loop
         vertex 0.000000e+000 1.000000e+001 1.000000e+001
         vertex 1.000000e+001 1.000000e+001 0.000000e+000
         vertex 0.000000e+000 1.000000e+001 0.000000e+000
      endloop
   endfacet
   facet normal 0.000000e+000 -1.000000e+000 0.000000e+000
      outer loop
         vertex 1.000000e+001 0.000000e+000 0.000000e+000
         vertex 1.000000e+001 0.000000e+000 1.000000e+001
         vertex 0.000000e+000 0.000000e+000 0.000000e+000
      endloop
   endfacet
   facet normal 0.000000e+000 -1.000000e+000 0.000000e+000
      outer loop
         vertex 0.000000e+000 0.000000e+000 0.000000e+000
         vertex 1.000000e+001 0.000000e+000 1.000000e+001
         vertex 0.000000e+000 0.000000e+000 1.000000e+001
      endloop
   endfacet
   facet normal -9.983119e-001 5.807913e-002 0.000000e+000
      outer loop
         vertex 5.571681e+000 7.326166e+000 0.000000e+000
         vertex 5.587324e+000 7.504963e+000 1.000000e+001
         vertex 5.587324e+000 7.504963e+000 0.000000e+000
      endloop
   endfacet
   facet normal -9.983119e-001 -5.807913e-002 0.000000e+000
      outer loop
         vertex 5.587324e+000 7.504963e+000 0.000000e+000
         vertex 5.587324e+000 7.504963e+000 1.000000e+001
         vertex 5.571681e+000 7.683761e+000 1.000000e+001
      endloop
   endfacet
   facet normal -9.932307e-001 -1.161583e-001 0.000000e+000
      outer loop
         vertex 5.587324e+000 7.504963e+000 0.000000e+000
         vertex 5.571681e+000 7.683761e+000 1.000000e+001
         vertex 5.571681e+000 7.683761e+000 0.000000e+000
      endloop
   endfacet
   facet normal -9.730600e-001 -2.305519e-001 0.000000e+000
      outer loop
         vertex 5.571681e+000 7.683761e+000 0.000000e+000
         vertex 5.571681e+000 7.683761e+000 1.000000e+001
         vertex 5.525228e+000 7.857125e+000 1.000000e+001
      endloop
   endfacet
   facet normal -9.579706e-001 -2.868663e-001 0.000000e+000
      outer loop
         vertex 5.571681e+000 7.683761e+000 0.000000e+000
         vertex 5.525228e+000 7.857125e+000 1.000000e+001
         vertex 5.525228e+000 7.857125e+000 0.000000e+000
      endloop
   endfacet
   facet normal -9.182422e-001 -3.960194e-001 0.000000e+000
      outer loop
         vertex 5.525228e+000 7.857125e+000 0.000000e+000
         vertex 5.525228e+000 7.857125e+000 1.000000e+001
         vertex 5.449376e+000 8.019790e+000 1.000000e+001
      endloop
   endfacet
   facet normal -8.936031e-001 -4.488580e-001 0.000000e+000
      outer loop
         vertex 5.525228e+000 7.857125e+000 0.000000e+000
         vertex 5.449376e+000 8.019790e+000 1.000000e+001
         vertex 5.449376e+000 8.019790e+000 0.000000e+000
      endloop
   endfacet
   facet normal -8.355240e-001 -5.494540e-001 0.000000e+000
      outer loop
         vertex 5.449376e+000 8.019790e+000 0.000000e+000
         vertex 5.449376e+000 8.019790e+000 1.000000e+001
         vertex 5.346430e+000 8.166812e+000 1.000000e+001
      endloop
   endfacet
   facet normal -8.020838e-001 -5.972114e-001 0.000000e+000
      outer loop
         vertex 5.449376e+000 8.019790e+000 0.000000e+000
         vertex 5.346430e+000 8.166812e+000 1.000000e+001
         vertex 5.346430e+000 8.166812e+000 0.000000e+000
      endloop
   endfacet
   facet normal -7.274188e-001 -6.861938e-001 0.000000e+000
      outer loop
         vertex 5.346430e+000 8.166812e+000 0.000000e+000
         vertex 5.346430e+000 8.166812e+000 1.000000e+001
         vertex 5.219519e+000 8.293724e+000 1.000000e+001
      endloop
   endfacet
   facet normal -6.861938e-001 -7.274188e-001 0.000000e+000
      outer loop
         vertex 5.346430e+000 8.166812e+000 0.000000e+000
         vertex 5.219519e+000 8.293724e+000 1.000000e+001
         vertex 5.219519e+000 8.293724e+000 0.000000e+000
      endloop
   endfacet
   facet normal -5.972114e-001 -8.020838e-001 0.000000e+000
      outer loop
         vertex 5.219519e+000 8.293724e+000 0.000000e+000
         vertex 5.219519e+000 8.293724e+000 1.000000e+001
         vertex 5.072497e+000 8.396669e+000 1.000000e+001
      endloop
   endfacet
   facet normal -5.494540e-001 -8.355240e-001 0.000000e+000
      outer loop
         vertex 5.219519e+000 8.293724e+000 0.000000e+000
         vertex 5.072497e+000 8.396669e+000 1.000000e+001
         vertex 5.072497e+000 8.396669e+000 0.000000e+000
      endloop
   endfacet
   facet normal -4.488580e-001 -8.936031e-001 0.000000e+000
      outer loop
         vertex 5.072497e+000 8.396669e+000 0.000000e+000
         vertex 5.072497e+000 8.396669e+000 1.000000e+001
         vertex 4.909832e+000 8.472521e+000 1.000000e+001
      endloop
   endfacet
   facet normal -3.960194e-001 -9.182422e-001 0.000000e+000
      outer loop
         vertex 5.072497e+000 8.396669e+000 0.000000e+000
         vertex 4.909832e+000 8.472521e+000 1.000000e+001
         vertex 4.909832e+000 8.472521e+000 0.000000e+000
      endloop
   endfacet
   facet normal -2.868663e-001 -9.579706e-001 0.000000e+000
      outer loop
         vertex 4.909832e+000 8.472521e+000 0.000000e+000
         vertex 4.909832e+000 8.472521e+000 1.000000e+001
         vertex 4.736467e+000 8.518974e+000 1.000000e+001
      endloop
   endfacet
   facet normal -2.305519e-001 -9.730600e-001 0.000000e+000
      outer loop
         vertex 4.909832e+000 8.472521e+000 0.000000e+000
         vertex 4.736467e+000 8.518974e+000 1.000000e+001
         vertex 4.736467e+000 8.518974e+000 0.000000e+000
      endloop
   endfacet
   facet normal -1.161583e-001 -9.932307e-001 0.000000e+000
      outer loop
         vertex 4.736467e+000 8.518974e+000 0.000000e+000
         vertex 4.736467e+000 8.518974e+000 1.000000e+001
         vertex 4.557670e+000 8.534616e+000 1.000000e+001
      endloop
   endfacet
   facet normal -5.807913e-002 -9.983119e-001 0.000000e+000
      outer loop
         vertex 4.736467e+000 8.518974e+000 0.000000e+000
         vertex 4.557670e+000 8.534616e+000 1.000000e+001
         vertex 4.557670e+000 8.534616e+000 0.000000e+000
      endloop
   endfacet
   facet normal 5.807913e-002 -9.983119e-001 0.000000e+000
      outer loop
         vertex 4.557670e+000 8.534616e+000 0.000000e+000
         vertex 4.557670e+000 8.534616e+000 1.000000e+001
         vertex 4.378872e+000 8.518974e+000 1.000000e+001
      endloop
   endfacet
   facet normal 1.161583e-001 -9.932307e-001 0.000000e+000
      outer loop
         vertex 4.557670e+000 8.534616e+000 0.000000e+000
         vertex 4.378872e+000 8.518974e+000 1.000000e+001
         vertex 4.378872e+000 8.518974e+000 0.000000e+000
      endloop
   endfacet
   facet normal 2.305519e-001 -9.730600e-001 0.000000e+000
      outer loop
         vertex 4.378872e+000 8.518974e+000 0.000000e+000
         vertex 4.378872e+000 8.518974e+000 1.000000e+001
         vertex 4.205508e+000 8.472521e+000 1.000000e+001
      endloop
   endfacet
   facet normal 2.868663e-001 -9.579706e-001 0.000000e+000
      outer loop
         vertex 4.378872e+000 8.518974e+000 0.000000e+000
         vertex 4.205508e+000 8.472521e+000 1.000000e+001
         vertex 4.205508e+000 8.472521e+000 0.000000e+000
      endloop
   endfacet
   facet normal 3.960194e-001 -9.182422e-001 0.000000e+000
      outer loop
         vertex 4.205508e+000 8.472521e+000 0.000000e+000
         vertex 4.205508e+000 8.472521e+000 1.000000e+001
         vertex 4.042843e+000 8.396669e+000 1.000000e+001
      endloop
   endfacet
   facet normal 4.488580e-001 -8.936031e-001 0.000000e+000
      outer loop
         vertex 4.205508e+000 8.472521e+000 0.000000e+000
         vertex 4.042843e+000 8.396669e+000 1.000000e+001
         vertex 4.042843e+000 8.396669e+000 0.000000e+000
      endloop
   endfacet
   facet normal 5.494540e-001 -8.355240e-001 0.000000e+000
      outer loop
         vertex 4.042843e+000 8.396669e+000 0.000000e+000
         vertex 4.042843e+000 8.396669e+000 1.000000e+001
         vertex 3.895822e+000 8.293724e+000 1.000000e+001
      endloop
   endfacet
   facet normal 5.972114e-001 -8.020838e-001 0.000000e+000
      outer loop
         vertex 4.042843e+000 8.396669e+000 0.000000e+000
         vertex 3.895822e+000 8.293724e+000 1.000000e+001
         vertex 3.895822e+000 8.293724e+000 0.000000e+000
      endloop
   endfacet
   facet normal 6.861938e-001 -7.274188e-001 0.000000e+000
      outer loop
         vertex 3.895822e+000 8.293724e+000 0.000000e+000
         vertex 3.895822e+000 8.293724e+000 1.000000e+001
         vertex 3.768910e+000 8.166812e+000 1.000000e+001
      endloop
   endfacet
   facet normal 7.274188e-001 -6.861938e-001 0.000000e+000
      outer loop
         vertex 3.895822e+000 8.293724e+000 0.000000e+000
         vertex 3.768910e+000 8.166812e+000 1.000000e+001
         vertex 3.768910e+000 8.166812e+000 0.000000e+000
      endloop
   endfacet
   facet normal 8.020838e-001 -5.972114e-001 0.000000e+000
      outer loop
         vertex 3.768910e+000 8.166812e+000 0.000000e+000
         vertex 3.768910e+000 8.166812e+000 1.000000e+001
         vertex 3.665964e+000 8.019790e+000 1.000000e+001
      endloop
   endfacet
   facet normal 8.355240e-001 -5.494540e-001 0.000000e+000
      outer loop
         vertex 3.768910e+000 8.166812e+000 0.000000e+000
         vertex 3.665964e+000 8.019790e+000 1.000000e+001
         vertex 3.665964e+000 8.019790e+000 0.000000e+000
      endloop
   endfacet
   facet normal 8.936031e-001 -4.488580e-001 0.000000e+000
      outer loop
         vertex 3.665964e+000 8.019790e+000 0.000000e+000
         vertex 3.665964e+000 8.019790e+000 1.000000e+001
         vertex 3.590112e+000 7.857125e+000 1.000000e+001
      endloop
   endfacet
   facet normal 9.182422e-001 -3.960194e-001 0.000000e+000
      outer loop
         vertex 3.665964e+000 8.019790e+000 0.000000e+000
         vertex 3.590112e+000 7.857125e+000 1.000000e+001
         vertex 3.590112e+000 7.857125e+000 0.000000e+000
      endloop
   endfacet
   facet normal 9.579706e-001 -2.868663e-001 0.000000e+000
      outer loop
         vertex 3.590112e+000 7.857125e+000 0.000000e+000
         vertex 3.590112e+000 7.857125e+000 1.000000e+001
         vertex 3.543659e+000 7.683761e+000 1.000000e+001
      endloop
   endfacet
   facet normal 9.730600e-001 -2.305519e-001 0.000000e+000
      outer loop
         vertex 3.590112e+000 7.857125e+000 0.000000e+000
         vertex 3.543659e+000 7.683761e+000 1.000000e+001
         vertex 3.543659e+000 7.683761e+000 0.000000e+000
      endloop
   endfacet
   facet normal 9.932307e-001 -1.161583e-001 0.000000e+000
      outer loop
         vertex 3.543659e+000 7.683761e+000 0.000000e+000
         vertex 3.543659e+000 7.683761e+000 1.000000e+001
         vertex 3.528017e+000 7.504963e+000 1.000000e+001
      endloop
   endfacet
   facet normal 9.983119e-001 -5.807913e-002 0.000000e+000
      outer loop
         vertex 3.543659e+000 7.683761e+000 0.000000e+000
         vertex 3.528017e+000 7.504963e+000 1.000000e+001
         vertex 3.528017e+000 7.504963e+000 0.000000e+000
      endloop
   endfacet
   facet normal 9.983119e-001 5.807913e-002 0.000000e+000
      outer loop
         vertex 3.528017e+000 7.504963e+000 0.000000e+000
         vertex 3.528017e+000 7.504963e+000 1.000000e+001
         vertex 3.543659e+000 7.326166e+000 1.000000e+001
      endloop
   endfacet
   facet normal 9.932307e-001 1.161583e-001 0.000000e+000
      outer loop
         vertex 3.528017e+000 7.504963e+000 0.000000e+000
         vertex 3.543659e+000 7.326166e+000 1.000000e+001
         vertex 3.543659e+000 7.326166e+000 0.000000e+000
      endloop
   endfacet
   facet normal 9.730600e-001 2.305519e-001 0.000000e+000
      outer loop
         vertex 3.543659e+000 7.326166e+000 0.000000e+000
         vertex 3.543659e+000 7.326166e+000 1.000000e+001
         vertex 3.590112e+000 7.152802e+000 1.000000e+001
      endloop
   endfacet
   facet normal 9.579706e-001 2.868663e-001 0.000000e+000
      outer loop
         vertex 3.543659e+000 7.326166e+000 0.000000e+000
         vertex 3.590112e+000 7.152802e+000 1.000000e+001
         vertex 3.590112e+000 7.152802e+000 0.000000e+000
      endloop
   endfacet
   facet normal 9.182422e-001 3.960194e-001 0.000000e+000
      outer loop
         vertex 3.590112e+000 7.152802e+000 0.000000e+000
         vertex 3.590112e+000 7.152802e+000 1.000000e+001
         vertex 3.665964e+000 6.990137e+000 1.000000e+001
      endloop
   endfacet
   facet normal 8.936031e-001 4.488580e-001 0.000000e+000
      outer loop
         vertex 3.590112e+000 7.152802e+000 0.000000e+000
         vertex 3.665964e+000 6.990137e+000 1.000000e+001
         vertex 3.665964e+000 6.990137e+000 0.000000e+000
      endloop
   endfacet
   facet normal 8.355240e-001 5.494540e-001 0.000000e+000
      outer loop
         vertex 3.665964e+000 6.990137e+000 0.000000e+000
         vertex 3.665964e+000 6.990137e+000 1.000000e+001
         vertex 3.768910e+000 6.843115e+000 1.000000e+001
      endloop
   endfacet
   facet normal 8.020838e-001 5.972114e-001 0.000000e+000
      outer loop
         vertex 3.665964e+000 6.990137e+000 0.000000e+000
         vertex 3.768910e+000 6.843115e+000 1.000000e+001
         vertex 3.768910e+000 6.843115e+000 0.000000e+000
      endloop
   endfacet
   facet normal 7.274188e-001 6.861938e-001 0.000000e+000
      outer loop
         vertex 3.768910e+000 6.843115e+000 0.000000e+000
         vertex 3.768910e+000 6.843115e+000 1.000000e+001
         vertex 3.895822e+000 6.716203e+000 1.000000e+001
      endloop
   endfacet
   facet normal 6.861938e-001 7.274188e-001 0.000000e+000
      outer loop
         vertex 3.768910e+000 6.843115e+000 0.000000e+000
         vertex 3.895822e+000 6.716203e+000 1.000000e+001
         vertex 3.895822e+000 6.716203e+000 0.000000e+000
      endloop
   endfacet
   facet normal 5.972114e-001 8.020838e-001 0.000000e+000
      outer loop
         vertex 3.895822e+000 6.716203e+000 0.000000e+000
         vertex 3.895822e+000 6.716203e+000 1.000000e+001
         vertex 4.042843e+000 6.613257e+000 1.000000e+001
      endloop
   endfacet
   facet normal 5.494540e-001 8.355240e-001 0.000000e+000
      outer loop
         vertex 3.895822e+000 6.716203e+000 0.000000e+000
         vertex 4.042843e+000 6.613257e+000 1.000000e+001
         vertex 4.042843e+000 6.613257e+000 0.000000e+000
      endloop
   endfacet
   facet normal 4.488580e-001 8.936031e-001 0.000000e+000
      outer loop
         vertex 4.042843e+000 6.613257e+000 0.000000e+000
         vertex 4.042843e+000 6.613257e+000 1.000000e+001
         vertex 4.205508e+000 6.537406e+000 1.000000e+001
      endloop
   endfacet
   facet normal 3.960194e-001 9.182422e-001 0.000000e+000
      outer loop
         vertex 4.042843e+000 6.613257e+000 0.000000e+000
         vertex 4.205508e+000 6.537406e+000 1.000000e+001
         vertex 4.205508e+000 6.537406e+000 0.000000e+000
      endloop
   endfacet
   facet normal 2.868663e-001 9.579706e-001 0.000000e+000
      outer loop
         vertex 4.205508e+000 6.537406e+000 0.000000e+000
         vertex 4.205508e+000 6.537406e+000 1.000000e+001
         vertex 4.378872e+000 6.490953e+000 1.000000e+001
      endloop
   endfacet
   facet normal 2.305519e-001 9.730600e-001 0.000000e+000
      outer loop
         vertex 4.205508e+000 6.537406e+000 0.000000e+000
         vertex 4.378872e+000 6.490953e+000 1.000000e+001
         vertex 4.378872e+000 6.490953e+000 0.000000e+000
      endloop
   endfacet
   facet normal 1.161583e-001 9.932307e-001 0.000000e+000
      outer loop
         vertex 4.378872e+000 6.490953e+000 0.000000e+000
         vertex 4.378872e+000 6.490953e+000 1.000000e+001
         vertex 4.557670e+000 6.475310e+000 1.000000e+001
      endloop
   endfacet
   facet normal 5.807913e-002 9.983119e-001 0.000000e+000
      outer loop
         vertex 4.378872e+000 6.490953e+000 0.000000e+000
         vertex 4.557670e+000 6.475310e+000 1.000000e+001
         vertex 4.557670e+000 6.475310e+000 0.000000e+000
      endloop
   endfacet
   facet normal -5.807913e-002 9.983119e-001 0.000000e+000
      outer loop
         vertex 4.557670e+000 6.475310e+000 0.000000e+000
         vertex 4.557670e+000 6.475310e+000 1.000000e+001
         vertex 4.736467e+000 6.490953e+000 1.000000e+001
      endloop
   endfacet
   facet normal -1.161583e-001 9.932307e-001 0.000000e+000
      outer loop
         vertex 4.557670e+000 6.475310e+000 0.000000e+000
         vertex 4.736467e+000 6.490953e+000 1.000000e+001
         vertex 4.736467e+000 6.490953e+000 0.000000e+000
      endloop
   endfacet
   facet normal -2.305519e-001 9.730600e-001 0.000000e+000
      outer loop
         vertex 4.736467e+000 6.490953e+000 0.000000e+000
         vertex 4.736467e+000 6.490953e+000 1.000000e+001
         vertex 4.909832e+000 6.537406e+000 1.000000e+001
      endloop
   endfacet
   facet normal -2.868663e-001 9.579706e-001 0.000000e+000
      outer loop
         vertex 4.736467e+000 6.490953e+000 0.000000e+000
         vertex 4.909832e+000 6.537406e+000 1.000000e+001
         vertex 4.909832e+000 6.537406e+000 0.000000e+000
      endloop
   endfacet
   facet normal -3.960194e-001 9.182422e-001 0.000000e+000
      outer loop
         vertex 4.909832e+000 6.537406e+000 0.000000e+000
         vertex 4.909832e+000 6.537406e+000 1.000000e+001
         vertex 5.072497e+000 6.613257e+000 1.000000e+001
      endloop
   endfacet
   facet normal -4.488580e-001 8.936031e-001 0.000000e+000
      outer loop
         vertex 4.909832e+000 6.537406e+000 0.000000e+000
         vertex 5.072497e+000 6.613257e+000 1.000000e+001
         vertex 5.072497e+000 6.613257e+000 0.000000e+000
      endloop
   endfacet
   facet normal -5.494540e-001 8.355240e-001 0.000000e+000
      outer loop
         vertex 5.072497e+000 6.613257e+000 0.000000e+000
         vertex 5.072497e+000 6.613257e+000 1.000000e+001
         vertex 5.219519e+000 6.716203e+000 1.000000e+001
      endloop
   endfacet
   facet normal -5.972114e-001 8.020838e-001 0.000000e+000
      outer loop
         vertex 5.072497e+000 6.613257e+000 0.000000e+000
         vertex 5.219519e+000 6.716203e+000 1.000000e+001
         vertex 5.219519e+000 6.716203e+000 0.000000e+000
      endloop
   endfacet
   facet normal -6.861938e-001 7.274188e-001 0.000000e+000
      outer loop
         vertex 5.219519e+000 6.716203e+000 0.000000e+000
         vertex 5.219519e+000 6.716203e+000 1.000000e+001
         vertex 5.346430e+000 6.843115e+000 1.000000e+001
      endloop
   endfacet
   facet normal -7.274188e-001 6.861938e-001 0.000000e+000
      outer loop
         vertex 5.219519e+000 6.716203e+000 0.000000e+000
         vertex 5.346430e+000 6.843115e+000 1.000000e+001
         vertex 5.346430e+000 6.843115e+000 0.000000e+000
      endloop
   endfacet
   facet normal -8.020838e-001 5.972114e-001 0.000000e+000
      outer loop
         vertex 5.346430e+000 6.843115e+000 0.000000e+000
         vertex 5.346430e+000 6.843115e+000 1.000000e+001
         vertex 5.449376e+000 6.990137e+000 1.000000e+001
      endloop
   endfacet
   facet normal -8.355240e-001 5.494540e-001 0.000000e+000
      outer loop
         vertex 5.346430e+000 6.843115e+000 0.000000e+000
         vertex 5.449376e+000 6.990137e+000 1.000000e+001
         vertex 5.449376e+000 6.990137e+000 0.000000e+000
      endloop
   endfacet
   facet normal -8.936031e-001 4.488580e-001 0.000000e+000
      outer loop
         vertex 5.449376e+000 6.990137e+000 0.000000e+000
         vertex 5.449376e+000 6.990137e+000 1.000000e+001
         vertex 5.525228e+000 7.152802e+000 1.000000e+001
      endloop
   endfacet
   facet normal -9.182422e-001 3.960194e-001 0.000000e+000
      outer loop
         vertex 5.449376e+000 6.990137e+000 0.000000e+000
         vertex 5.525228e+000 7.152802e+000 1.000000e+001
         vertex 5.525228e+000 7.152802e+000 0.000000e+000
      endloop
   endfacet
   facet normal -9.579706e-001 2.868663e-001 0.000000e+000
      outer loop
         vertex 5.525228e+000 7.152802e+000 0.000000e+000
         vertex 5.525228e+000 7.152802e+000 1.000000e+001
         vertex 5.571681e+000 7.326166e+000 1.000000e+001
      endloop
   endfacet
   facet normal -9.730600e-001 2.305519e-001 0.000000e+000
      outer loop
         vertex 5.525228e+000 7.152802e+000 0.000000e+000
         vertex 5.571681e+000 7.326166e+000 1.000000e+001
         vertex 5.571681e+000 7.326166e+000 0.000000e+000
      endloop
   endfacet
   facet normal -9.932307e-001 1.161583e-001 0.000000e+000
      outer loop
         vertex 5.571681e+000 7.326166e+000 0.000000e+000
         vertex 5.571681e+000 7.326166e+000 1.000000e+001
         vertex 5.587324e+000 7.504963e+000 1.000000e+001
      endloop
   endfacet
endsolid