solid 3_298
   facet normal -1.000000e+000 0.000000e+000 0.000000e+000
      outer loop
         vertex 0.000000e+000 1.000000e+001 1.000000e+001
         vertex 0.000000e+000 1.000000e+001 0.000000e+000
         vertex 0.000000e+000 0.000000e+000 1.000000e+001
      endloop
   endfacet
   facet normal -1.000000e+000 0.000000e+000 0.000000e+000
      outer loop
         vertex 0.000000e+000 0.000000e+000 1.000000e+001
         vertex 0.000000e+000 1.000000e+001 0.000000e+000
         vertex 0.000000e+000 0.000000e+000 0.000000e+000
      endloop
   endfacet
   facet normal 0.000000e+000 0.000000e+000 1.000000e+000
      outer loop
         vertex 7.975746e+000 4.771911e+000 1.000000e+001
         vertex 7.817466e+000 4.400413e+000 1.000000e+001
         vertex 1.000000e+001 0.000000e+000 1.000000e+001
      endloop
   endfacet
   facet normal 0.000000e+000 0.000000e+000 1.000000e+000
      outer loop
         vertex 1.000000e+001 0.000000e+000 1.000000e+001
         vertex 7.817466e+000 4.400413e+000 1.000000e+001
         vertex 7.601643e+000 4.059116e+000 1.000000e+001
      endloop
   endfacet
   facet normal 0.000000e+000 0.000000e+000 1.000000e+000
      outer loop
         vertex 1.000000e+001 0.000000e+000 1.000000e+001
         vertex 7.601643e+000 4.059116e+000 1.000000e+001
         vertex 7.333866e+000 3.756859e+000 1.000000e+001
      endloop
   endfacet
   facet normal 0.000000e+000 0.000000e+000 1.000000e+000
      outer loop
         vertex 3.717542e+000 7.230386e+000 1.000000e+001
         vertex 4.008771e+000 7.510116e+000 1.000000e+001
         vertex 0.000000e+000 1.000000e+001 1.000000e+001
      endloop
   endfacet
   facet normal 0.000000e+000 0.000000e+000 1.000000e+000
      outer loop
         vertex 0.000000e+000 1.000000e+001 1.000000e+001
         vertex 4.008771e+000 7.510116e+000 1.000000e+001
         vertex 4.341101e+000 7.739506e+000 1.000000e+001
      endloop
   endfacet
   facet normal 0.000000e+000 0.000000e+000 1.000000e+000
      outer loop
         vertex 0.000000e+000 1.000000e+001 1.000000e+001
         vertex 4.341101e+000 7.739506e+000 1.000000e+001
         vertex 4.705924e+000 7.912617e+000 1.000000e+001
      endloop
   endfacet
   facet normal 0.000000e+000 0.000000e+000 1.000000e+000
      outer loop
         vertex 7.975746e+000 6.361067e+000 1.000000e+001
         vertex 8.072385e+000 5.968990e+000 1.000000e+001
         vertex 1.000000e+001 1.000000e+001 1.000000e+001
      endloop
   endfacet
   facet normal 0.000000e+000 0.000000e+000 1.000000e+000
      outer loop
         vertex 1.000000e+001 1.000000e+001 1.000000e+001
         vertex 8.072385e+000 5.968990e+000 1.000000e+001
         vertex 8.104877e+000 5.566489e+000 1.000000e+001
      endloop
   endfacet
   facet normal 0.000000e+000 0.000000e+000 1.000000e+000
      outer loop
         vertex 1.000000e+001 1.000000e+001 1.000000e+001
         vertex 8.104877e+000 5.566489e+000 1.000000e+001
         vertex 1.000000e+001 0.000000e+000 1.000000e+001
      endloop
   endfacet
   facet normal 0.000000e+000 0.000000e+000 1.000000e+000
      outer loop
         vertex 1.000000e+001 0.000000e+000 1.000000e+001
         vertex 8.104877e+000 5.566489e+000 1.000000e+001
         vertex 8.072385e+000 5.163988e+000 1.000000e+001
      endloop
   endfacet
   facet normal 0.000000e+000 0.000000e+000 1.000000e+000
      outer loop
         vertex 1.000000e+001 0.000000e+000 1.000000e+001
         vertex 8.072385e+000 5.163988e+000 1.000000e+001
         vertex 7.975746e+000 4.771911e+000 1.000000e+001
      endloop
   endfacet
   facet normal 0.000000e+000 0.000000e+000 1.000000e+000
      outer loop
         vertex 7.333866e+000 3.756859e+000 1.000000e+001
         vertex 7.021072e+000 3.501471e+000 1.000000e+001
         vertex 1.000000e+001 0.000000e+000 1.000000e+001
      endloop
   endfacet
   facet normal 0.000000e+000 0.000000e+000 1.000000e+000
      outer loop
         vertex 1.000000e+001 0.000000e+000 1.000000e+001
         vertex 7.021072e+000 3.501471e+000 1.000000e+001
         vertex 6.671362e+000 3.299565e+000 1.000000e+001
      endloop
   endfacet
   facet normal 0.000000e+000 0.000000e+000 1.000000e+000
      outer loop
         vertex 1.000000e+001 0.000000e+000 1.000000e+001
         vertex 6.671362e+000 3.299565e+000 1.000000e+001
         vertex 6.293792e+000 3.156372e+000 1.000000e+001
      endloop
   endfacet
   facet normal 0.000000e+000 0.000000e+000 1.000000e+000
      outer loop
         vertex 4.008771e+000 3.622862e+000 1.000000e+001
         vertex 0.000000e+000 0.000000e+000 1.000000e+001
         vertex 4.341101e+000 3.393472e+000 1.000000e+001
      endloop
   endfacet
   facet normal 0.000000e+000 0.000000e+000 1.000000e+000
      outer loop
         vertex 4.341101e+000 3.393472e+000 1.000000e+001
         vertex 0.000000e+000 0.000000e+000 1.000000e+001
         vertex 4.705924e+000 3.220361e+000 1.000000e+001
      endloop
   endfacet
   facet normal 0.000000e+000 0.000000e+000 1.000000e+000
      outer loop
         vertex 4.008771e+000 3.622862e+000 1.000000e+001
         vertex 3.717542e+000 3.902592e+000 1.000000e+001
         vertex 0.000000e+000 0.000000e+000 1.000000e+001
      endloop
   endfacet
   facet normal 0.000000e+000 0.000000e+000 1.000000e+000
      outer loop
         vertex 0.000000e+000 0.000000e+000 1.000000e+001
         vertex 3.717542e+000 3.902592e+000 1.000000e+001
         vertex 3.474956e+000 4.225416e+000 1.000000e+001
      endloop
   endfacet
   facet normal 0.000000e+000 0.000000e+000 1.000000e+000
      outer loop
         vertex 0.000000e+000 0.000000e+000 1.000000e+001
         vertex 3.474956e+000 4.225416e+000 1.000000e+001
         vertex 3.287295e+000 4.582972e+000 1.000000e+001
      endloop
   endfacet
   facet normal 0.000000e+000 0.000000e+000 1.000000e+000
      outer loop
         vertex 3.287295e+000 4.582972e+000 1.000000e+001
         vertex 3.159421e+000 4.966002e+000 1.000000e+001
         vertex 0.000000e+000 0.000000e+000 1.000000e+001
      endloop
   endfacet
   facet normal 0.000000e+000 0.000000e+000 1.000000e+000
      outer loop
         vertex 0.000000e+000 0.000000e+000 1.000000e+001
         vertex 3.159421e+000 4.966002e+000 1.000000e+001
         vertex 3.094646e+000 5.364583e+000 1.000000e+001
      endloop
   endfacet
   facet normal 0.000000e+000 0.000000e+000 1.000000e+000
      outer loop
         vertex 0.000000e+000 0.000000e+000 1.000000e+001
         vertex 3.094646e+000 5.364583e+000 1.000000e+001
         vertex 0.000000e+000 1.000000e+001 1.000000e+001
      endloop
   endfacet
   facet normal 0.000000e+000 0.000000e+000 1.000000e+000
      outer loop
         vertex 0.000000e+000 1.000000e+001 1.000000e+001
         vertex 3.094646e+000 5.364583e+000 1.000000e+001
         vertex 3.094646e+000 5.768394e+000 1.000000e+001
      endloop
   endfacet
   facet normal 0.000000e+000 0.000000e+000 1.000000e+000
      outer loop
         vertex 0.000000e+000 1.000000e+001 1.000000e+001
         vertex 3.094646e+000 5.768394e+000 1.000000e+001
         vertex 3.159421e+000 6.166976e+000 1.000000e+001
      endloop
   endfacet
   facet normal 0.000000e+000 0.000000e+000 1.000000e+000
      outer loop
         vertex 4.705924e+000 7.912617e+000 1.000000e+001
         vertex 5.093792e+000 8.024964e+000 1.000000e+001
         vertex 0.000000e+000 1.000000e+001 1.000000e+001
      endloop
   endfacet
   facet normal 0.000000e+000 0.000000e+000 1.000000e+000
      outer loop
         vertex 0.000000e+000 1.000000e+001 1.000000e+001
         vertex 5.093792e+000 8.024964e+000 1.000000e+001
         vertex 5.494658e+000 8.073638e+000 1.000000e+001
      endloop
   endfacet
   facet normal 0.000000e+000 0.000000e+000 1.000000e+000
      outer loop
         vertex 0.000000e+000 1.000000e+001 1.000000e+001
         vertex 5.494658e+000 8.073638e+000 1.000000e+001
         vertex 1.000000e+001 1.000000e+001 1.000000e+001
      endloop
   endfacet
   facet normal 0.000000e+000 0.000000e+000 1.000000e+000
      outer loop
         vertex 1.000000e+001 1.000000e+001 1.000000e+001
         vertex 5.494658e+000 8.073638e+000 1.000000e+001
         vertex 5.898142e+000 8.057378e+000 1.000000e+001
      endloop
   endfacet
   facet normal 0.000000e+000 0.000000e+000 1.000000e+000
      outer loop
         vertex 1.000000e+001 1.000000e+001 1.000000e+001
         vertex 5.898142e+000 8.057378e+000 1.000000e+001
         vertex 6.293792e+000 7.976605e+000 1.000000e+001
      endloop
   endfacet
   facet normal 0.000000e+000 0.000000e+000 1.000000e+000
      outer loop
         vertex 6.293792e+000 7.976605e+000 1.000000e+001
         vertex 6.671362e+000 7.833413e+000 1.000000e+001
         vertex 1.000000e+001 1.000000e+001 1.000000e+001
      endloop
   endfacet
   facet normal 0.000000e+000 0.000000e+000 1.000000e+000
      outer loop
         vertex 1.000000e+001 1.000000e+001 1.000000e+001
         vertex 6.671362e+000 7.833413e+000 1.000000e+001
         vertex 7.021072e+000 7.631507e+000 1.000000e+001
      endloop
   endfacet
   facet normal 0.000000e+000 0.000000e+000 1.000000e+000
      outer loop
         vertex 1.000000e+001 1.000000e+001 1.000000e+001
         vertex 7.021072e+000 7.631507e+000 1.000000e+001
         vertex 7.333866e+000 7.376119e+000 1.000000e+001
      endloop
   endfacet
   facet normal 0.000000e+000 0.000000e+000 1.000000e+000
      outer loop
         vertex 6.293792e+000 3.156372e+000 1.000000e+001
         vertex 5.898142e+000 3.075599e+000 1.000000e+001
         vertex 1.000000e+001 0.000000e+000 1.000000e+001
      endloop
   endfacet
   facet normal 0.000000e+000 0.000000e+000 1.000000e+000
      outer loop
         vertex 1.000000e+001 0.000000e+000 1.000000e+001
         vertex 5.898142e+000 3.075599e+000 1.000000e+001
         vertex 5.494658e+000 3.059340e+000 1.000000e+001
      endloop
   endfacet
   facet normal 0.000000e+000 0.000000e+000 1.000000e+000
      outer loop
         vertex 1.000000e+001 0.000000e+000 1.000000e+001
         vertex 5.494658e+000 3.059340e+000 1.000000e+001
         vertex 0.000000e+000 0.000000e+000 1.000000e+001
      endloop
   endfacet
   facet normal 0.000000e+000 0.000000e+000 1.000000e+000
      outer loop
         vertex 0.000000e+000 0.000000e+000 1.000000e+001
         vertex 5.494658e+000 3.059340e+000 1.000000e+001
         vertex 5.093792e+000 3.108014e+000 1.000000e+001
      endloop
   endfacet
   facet normal 0.000000e+000 0.000000e+000 1.000000e+000
      outer loop
         vertex 0.000000e+000 0.000000e+000 1.000000e+001
         vertex 5.093792e+000 3.108014e+000 1.000000e+001
         vertex 4.705924e+000 3.220361e+000 1.000000e+001
      endloop
   endfacet
   facet normal 0.000000e+000 0.000000e+000 1.000000e+000
      outer loop
         vertex 7.333866e+000 7.376119e+000 1.000000e+001
         vertex 7.601643e+000 7.073862e+000 1.000000e+001
         vertex 1.000000e+001 1.000000e+001 1.000000e+001
      endloop
   endfacet
   facet normal 0.000000e+000 0.000000e+000 1.000000e+000
      outer loop
         vertex 1.000000e+001 1.000000e+001 1.000000e+001
         vertex 7.601643e+000 7.073862e+000 1.000000e+001
         vertex 7.817466e+000 6.732565e+000 1.000000e+001
      endloop
   endfacet
   facet normal 0.000000e+000 0.000000e+000 1.000000e+000
      outer loop
         vertex 1.000000e+001 1.000000e+001 1.000000e+001
         vertex 7.817466e+000 6.732565e+000 1.000000e+001
         vertex 7.975746e+000 6.361067e+000 1.000000e+001
      endloop
   endfacet
   facet normal 0.000000e+000 0.000000e+000 1.000000e+000
      outer loop
         vertex 3.159421e+000 6.166976e+000 1.000000e+001
         vertex 3.287295e+000 6.550005e+000 1.000000e+001
         vertex 0.000000e+000 1.000000e+001 1.000000e+001
      endloop
   endfacet
   facet normal 0.000000e+000 0.000000e+000 1.000000e+000
      outer loop
         vertex 0.000000e+000 1.000000e+001 1.000000e+001
         vertex 3.287295e+000 6.550005e+000 1.000000e+001
         vertex 3.474956e+000 6.907562e+000 1.000000e+001
      endloop
   endfacet
   facet normal 0.000000e+000 0.000000e+000 1.000000e+000
      outer loop
         vertex 0.000000e+000 1.000000e+001 1.000000e+001
         vertex 3.474956e+000 6.907562e+000 1.000000e+001
         vertex 3.717542e+000 7.230386e+000 1.000000e+001
      endloop
   endfacet
   facet normal 1.000000e+000 0.000000e+000 0.000000e+000
      outer loop
         vertex 1.000000e+001 1.000000e+001 0.000000e+000
         vertex 1.000000e+001 1.000000e+001 1.000000e+001
         vertex 1.000000e+001 0.000000e+000 0.000000e+000
      endloop
   endfacet
   facet normal 1.000000e+000 0.000000e+000 0.000000e+000
      outer loop
         vertex 1.000000e+001 0.000000e+000 0.000000e+000
         vertex 1.000000e+001 1.000000e+001 1.000000e+001
         vertex 1.000000e+001 0.000000e+000 1.000000e+001
      endloop
   endfacet
   facet normal 0.000000e+000 0.000000e+000 -1.000000e+000
      outer loop
         vertex 5.898142e+000 3.075599e+000 0.000000e+000
         vertex 6.293792e+000 3.156372e+000 0.000000e+000
         vertex 1.000000e+001 0.000000e+000 0.000000e+000
      endloop
   endfacet
   facet normal 0.000000e+000 0.000000e+000 -1.000000e+000
      outer loop
         vertex 0.000000e+000 1.000000e+001 0.000000e+000
         vertex 4.705924e+000 7.912617e+000 0.000000e+000
         vertex 4.341101e+000 7.739506e+000 0.000000e+000
      endloop
   endfacet
   facet normal 0.000000e+000 0.000000e+000 -1.000000e+000
      outer loop
         vertex 0.000000e+000 1.000000e+001 0.000000e+000
         vertex 3.094646e+000 5.768394e+000 0.000000e+000
         vertex 0.000000e+000 0.000000e+000 0.000000e+000
      endloop
   endfacet
   facet normal 0.000000e+000 0.000000e+000 -1.000000e+000
      outer loop
         vertex 0.000000e+000 0.000000e+000 0.000000e+000
         vertex 3.094646e+000 5.768394e+000 0.000000e+000
         vertex 3.094646e+000 5.364583e+000 0.000000e+000
      endloop
   endfacet
   facet normal 0.000000e+000 0.000000e+000 -1.000000e+000
      outer loop
         vertex 1.000000e+001 1.000000e+001 0.000000e+000
         vertex 5.494658e+000 8.073638e+000 0.000000e+000
         vertex 0.000000e+000 1.000000e+001 0.000000e+000
      endloop
   endfacet
   facet normal 0.000000e+000 0.000000e+000 -1.000000e+000
      outer loop
         vertex 0.000000e+000 1.000000e+001 0.000000e+000
         vertex 5.494658e+000 8.073638e+000 0.000000e+000
         vertex 5.093792e+000 8.024964e+000 0.000000e+000
      endloop
   endfacet
   facet normal 0.000000e+000 0.000000e+000 -1.000000e+000
      outer loop
         vertex 0.000000e+000 1.000000e+001 0.000000e+000
         vertex 5.093792e+000 8.024964e+000 0.000000e+000
         vertex 4.705924e+000 7.912617e+000 0.000000e+000
      endloop
   endfacet
   facet normal 0.000000e+000 0.000000e+000 -1.000000e+000
      outer loop
         vertex 3.094646e+000 5.364583e+000 0.000000e+000
         vertex 3.159421e+000 4.966002e+000 0.000000e+000
         vertex 0.000000e+000 0.000000e+000 0.000000e+000
      endloop
   endfacet
   facet normal 0.000000e+000 0.000000e+000 -1.000000e+000
      outer loop
         vertex 0.000000e+000 0.000000e+000 0.000000e+000
         vertex 3.159421e+000 4.966002e+000 0.000000e+000
         vertex 3.287295e+000 4.582972e+000 0.000000e+000
      endloop
   endfacet
   facet normal 0.000000e+000 0.000000e+000 -1.000000e+000
      outer loop
         vertex 0.000000e+000 0.000000e+000 0.000000e+000
         vertex 3.287295e+000 4.582972e+000 0.000000e+000
         vertex 3.474956e+000 4.225416e+000 0.000000e+000
      endloop
   endfacet
   facet normal 0.000000e+000 0.000000e+000 -1.000000e+000
      outer loop
         vertex 6.293792e+000 3.156372e+000 0.000000e+000
         vertex 6.671362e+000 3.299565e+000 0.000000e+000
         vertex 1.000000e+001 0.000000e+000 0.000000e+000
      endloop
   endfacet
   facet normal 0.000000e+000 0.000000e+000 -1.000000e+000
      outer loop
         vertex 1.000000e+001 0.000000e+000 0.000000e+000
         vertex 6.671362e+000 3.299565e+000 0.000000e+000
         vertex 7.021072e+000 3.501471e+000 0.000000e+000
      endloop
   endfacet
   facet normal 0.000000e+000 0.000000e+000 -1.000000e+000
      outer loop
         vertex 1.000000e+001 0.000000e+000 0.000000e+000
         vertex 7.021072e+000 3.501471e+000 0.000000e+000
         vertex 7.333866e+000 3.756859e+000 0.000000e+000
      endloop
   endfacet
   facet normal 0.000000e+000 0.000000e+000 -1.000000e+000
      outer loop
         vertex 8.104877e+000 5.566489e+000 0.000000e+000
         vertex 1.000000e+001 1.000000e+001 0.000000e+000
         vertex 8.072385e+000 5.163988e+000 0.000000e+000
      endloop
   endfacet
   facet normal 0.000000e+000 0.000000e+000 -1.000000e+000
      outer loop
         vertex 8.072385e+000 5.163988e+000 0.000000e+000
         vertex 1.000000e+001 1.000000e+001 0.000000e+000
         vertex 1.000000e+001 0.000000e+000 0.000000e+000
      endloop
   endfacet
   facet normal 0.000000e+000 0.000000e+000 -1.000000e+000
      outer loop
         vertex 8.072385e+000 5.163988e+000 0.000000e+000
         vertex 1.000000e+001 0.000000e+000 0.000000e+000
         vertex 7.975746e+000 4.771911e+000 0.000000e+000
      endloop
   endfacet
   facet normal 0.000000e+000 0.000000e+000 -1.000000e+000
      outer loop
         vertex 1.000000e+001 1.000000e+001 0.000000e+000
         vertex 7.021072e+000 7.631507e+000 0.000000e+000
         vertex 6.671362e+000 7.833413e+000 0.000000e+000
      endloop
   endfacet
   facet normal 0.000000e+000 0.000000e+000 -1.000000e+000
      outer loop
         vertex 4.341101e+000 7.739506e+000 0.000000e+000
         vertex 4.008771e+000 7.510116e+000 0.000000e+000
         vertex 0.000000e+000 1.000000e+001 0.000000e+000
      endloop
   endfacet
   facet normal 0.000000e+000 0.000000e+000 -1.000000e+000
      outer loop
         vertex 0.000000e+000 1.000000e+001 0.000000e+000
         vertex 4.008771e+000 7.510116e+000 0.000000e+000
         vertex 3.717542e+000 7.230386e+000 0.000000e+000
      endloop
   endfacet
   facet normal 0.000000e+000 0.000000e+000 -1.000000e+000
      outer loop
         vertex 0.000000e+000 1.000000e+001 0.000000e+000
         vertex 3.717542e+000 7.230386e+000 0.000000e+000
         vertex 3.474956e+000 6.907562e+000 0.000000e+000
      endloop
   endfacet
   facet normal 0.000000e+000 0.000000e+000 -1.000000e+000
      outer loop
         vertex 3.474956e+000 4.225416e+000 0.000000e+000
         vertex 3.717542e+000 3.902592e+000 0.000000e+000
         vertex 0.000000e+000 0.000000e+000 0.000000e+000
      endloop
   endfacet
   facet normal 0.000000e+000 0.000000e+000 -1.000000e+000
      outer loop
         vertex 0.000000e+000 0.000000e+000 0.000000e+000
         vertex 3.717542e+000 3.902592e+000 0.000000e+000
         vertex 4.008771e+000 3.622862e+000 0.000000e+000
      endloop
   endfacet
   facet normal 0.000000e+000 0.000000e+000 -1.000000e+000
      outer loop
         vertex 0.000000e+000 0.000000e+000 0.000000e+000
         vertex 4.008771e+000 3.622862e+000 0.000000e+000
         vertex 4.341101e+000 3.393472e+000 0.000000e+000
      endloop
   endfacet
   facet normal 0.000000e+000 0.000000e+000 -1.000000e+000
      outer loop
         vertex 4.341101e+000 3.393472e+000 0.000000e+000
         vertex 4.705924e+000 3.220361e+000 0.000000e+000
         vertex 0.000000e+000 0.000000e+000 0.000000e+000
      endloop
   endfacet
   facet normal 0.000000e+000 0.000000e+000 -1.000000e+000
      outer loop
         vertex 0.000000e+000 0.000000e+000 0.000000e+000
         vertex 4.705924e+000 3.220361e+000 0.000000e+000
         vertex 5.093792e+000 3.108014e+000 0.000000e+000
      endloop
   endfacet
   facet normal 0.000000e+000 0.000000e+000 -1.000000e+000
      outer loop
         vertex 0.000000e+000 0.000000e+000 0.000000e+000
         vertex 5.093792e+000 3.108014e+000 0.000000e+000
         vertex 1.000000e+001 0.000000e+000 0.000000e+000
      endloop
   endfacet
   facet normal 0.000000e+000 0.000000e+000 -1.000000e+000
      outer loop
         vertex 1.000000e+001 0.000000e+000 0.000000e+000
         vertex 5.093792e+000 3.108014e+000 0.000000e+000
         vertex 5.494658e+000 3.059340e+000 0.000000e+000
      endloop
   endfacet
   facet normal 0.000000e+000 0.000000e+000 -1.000000e+000
      outer loop
         vertex 1.000000e+001 0.000000e+000 0.000000e+000
         vertex 5.494658e+000 3.059340e+000 0.000000e+000
         vertex 5.898142e+000 3.075599e+000 0.000000e+000
      endloop
   endfacet
   facet normal 0.000000e+000 0.000000e+000 -1.000000e+000
      outer loop
         vertex 7.333866e+000 3.756859e+000 0.000000e+000
         vertex 7.601643e+000 4.059116e+000 0.000000e+000
         vertex 1.000000e+001 0.000000e+000 0.000000e+000
      endloop
   endfacet
   facet normal 0.000000e+000 0.000000e+000 -1.000000e+000
      outer loop
         vertex 1.000000e+001 0.000000e+000 0.000000e+000
         vertex 7.601643e+000 4.059116e+000 0.000000e+000
         vertex 7.817466e+000 4.400413e+000 0.000000e+000
      endloop
   endfacet
   facet normal 0.000000e+000 0.000000e+000 -1.000000e+000
      outer loop
         vertex 1.000000e+001 0.000000e+000 0.000000e+000
         vertex 7.817466e+000 4.400413e+000 0.000000e+000
         vertex 7.975746e+000 4.771911e+000 0.000000e+000
      endloop
   endfacet
   facet normal 0.000000e+000 0.000000e+000 -1.000000e+000
      outer loop
         vertex 8.104877e+000 5.566489e+000 0.000000e+000
         vertex 8.072385e+000 5.968990e+000 0.000000e+000
         vertex 1.000000e+001 1.000000e+001 0.000000e+000
      endloop
   endfacet
   facet normal 0.000000e+000 0.000000e+000 -1.000000e+000
      outer loop
         vertex 1.000000e+001 1.000000e+001 0.000000e+000
         vertex 8.072385e+000 5.968990e+000 0.000000e+000
         vertex 7.975746e+000 6.361067e+000 0.000000e+000
      endloop
   endfacet
   facet normal 0.000000e+000 0.000000e+000 -1.000000e+000
      outer loop
         vertex 1.000000e+001 1.000000e+001 0.000000e+000
         vertex 7.975746e+000 6.361067e+000 0.000000e+000
         vertex 7.817466e+000 6.732565e+000 0.000000e+000
      endloop
   endfacet
   facet normal 0.000000e+000 0.000000e+000 -1.000000e+000
      outer loop
         vertex 6.671362e+000 7.833413e+000 0.000000e+000
         vertex 6.293792e+000 7.976605e+000 0.000000e+000
         vertex 1.000000e+001 1.000000e+001 0.000000e+000
      endloop
   endfacet
   facet normal 0.000000e+000 0.000000e+000 -1.000000e+000
      outer loop
         vertex 1.000000e+001 1.000000e+001 0.000000e+000
         vertex 6.293792e+000 7.976605e+000 0.000000e+000
         vertex 5.898142e+000 8.057378e+000 0.000000e+000
      endloop
   endfacet
   facet normal 0.000000e+000 0.000000e+000 -1.000000e+000
      outer loop
         vertex 1.000000e+001 1.000000e+001 0.000000e+000
         vertex 5.898142e+000 8.057378e+000 0.000000e+000
         vertex 5.494658e+000 8.073638e+000 0.000000e+000
      endloop
   endfacet
   facet normal 0.000000e+000 0.000000e+000 -1.000000e+000
      outer loop
         vertex 3.474956e+000 6.907562e+000 0.000000e+000
         vertex 3.287295e+000 6.550005e+000 0.000000e+000
         vertex 0.000000e+000 1.000000e+001 0.000000e+000
      endloop
   endfacet
   facet normal 0.000000e+000 0.000000e+000 -1.000000e+000
      outer loop
         vertex 0.000000e+000 1.000000e+001 0.000000e+000
         vertex 3.287295e+000 6.550005e+000 0.000000e+000
         vertex 3.159421e+000 6.166976e+000 0.000000e+000
      endloop
   endfacet
   facet normal 0.000000e+000 0.000000e+000 -1.000000e+000
      outer loop
         vertex 0.000000e+000 1.000000e+001 0.000000e+000
         vertex 3.159421e+000 6.166976e+000 0.000000e+000
         vertex 3.094646e+000 5.768394e+000 0.000000e+000
      endloop
   endfacet
   facet normal 0.000000e+000 0.000000e+000 -1.000000e+000
      outer loop
         vertex 7.817466e+000 6.732565e+000 0.000000e+000
         vertex 7.601643e+000 7.073862e+000 0.000000e+000
         vertex 1.000000e+001 1.000000e+001 0.000000e+000
      endloop
   endfacet
   facet normal 0.000000e+000 0.000000e+000 -1.000000e+000
      outer loop
         vertex 1.000000e+001 1.000000e+001 0.000000e+000
         vertex 7.601643e+000 7.073862e+000 0.000000e+000
         vertex 7.333866e+000 7.376119e+000 0.000000e+000
      endloop
   endfacet
   facet normal 0.000000e+000 0.000000e+000 -1.000000e+000
      outer loop
         vertex 1.000000e+001 1.000000e+001 0.000000e+000
         vertex 7.333866e+000 7.376119e+000 0.000000e+000
         vertex 7.021072e+000 7.631507e+000 0.000000e+000
      endloop
   endfacet
   facet normal 0.000000e+000 1.000000e+000 0.000000e+000
      outer loop
         vertex 1.000000e+001 1.000000e+001 1.000000e+001
         vertex 1.000000e+001 1.000000e+001 0.000000e+000
         vertex 0.000000e+000 1.000000e+001 1.000000e+001
      endloop
   endfacet
   facet normal 0.000000e+000 1.000000e+000 0.000000e+000
      outer loop
         vertex 0.000000e+000 1.000000e+001 1.000000e+001
         vertex 1.000000e+001 1.000000e+001 0.000000e+000
         vertex 0.000000e+000 1.000000e+001 0.000000e+000
      endloop
   endfacet
   facet normal 0.000000e+000 -1.000000e+000 0.000000e+000
      outer loop
         vertex 1.000000e+001 0.000000e+000 0.000000e+000
         vertex 1.000000e+001 0.000000e+000 1.000000e+001
         vertex 0.000000e+000 0.000000e+000 0.000000e+000
      endloop
   endfacet
   facet normal 0.000000e+000 -1.000000e+000 0.000000e+000
      outer loop
         vertex 0.000000e+000 0.000000e+000 0.000000e+000
         vertex 1.000000e+001 0.000000e+000 1.000000e+001
         vertex 0.000000e+000 0.000000e+000 1.000000e+001
      endloop
   endfacet
   facet normal -9.985611e-001 5.362497e-002 0.000000e+000
      outer loop
         vertex 8.072385e+000 5.163988e+000 0.000000e+000
         vertex 8.104877e+000 5.566489e+000 1.000000e+001
         vertex 8.104877e+000 5.566489e+000 0.000000e+000
      endloop
   endfacet
   facet normal -9.985611e-001 -5.362497e-002 0.000000e+000
      outer loop
         vertex 8.104877e+000 5.566489e+000 0.000000e+000
         vertex 8.104877e+000 5.566489e+000 1.000000e+001
         vertex 8.072385e+000 5.968990e+000 1.000000e+001
      endloop
   endfacet
   facet normal -9.942321e-001 -1.072499e-001 0.000000e+000
      outer loop
         vertex 8.104877e+000 5.566489e+000 0.000000e+000
         vertex 8.072385e+000 5.968990e+000 1.000000e+001
         vertex 8.072385e+000 5.968990e+000 0.000000e+000
      endloop
   endfacet
   facet normal -9.770280e-001 -2.131110e-001 0.000000e+000
      outer loop
         vertex 8.072385e+000 5.968990e+000 0.000000e+000
         vertex 8.072385e+000 5.968990e+000 1.000000e+001
         vertex 7.975746e+000 6.361067e+000 1.000000e+001
      endloop
   endfacet
   facet normal -9.641529e-001 -2.653471e-001 0.000000e+000
      outer loop
         vertex 8.072385e+000 5.968990e+000 0.000000e+000
         vertex 7.975746e+000 6.361067e+000 1.000000e+001
         vertex 7.975746e+000 6.361067e+000 0.000000e+000
      endloop
   endfacet
   facet normal -9.301903e-001 -3.670776e-001 0.000000e+000
      outer loop
         vertex 7.975746e+000 6.361067e+000 0.000000e+000
         vertex 7.975746e+000 6.361067e+000 1.000000e+001
         vertex 7.817466e+000 6.732565e+000 1.000000e+001
      endloop
   endfacet
   facet normal -9.091028e-001 -4.165719e-001 0.000000e+000
      outer loop
         vertex 7.975746e+000 6.361067e+000 0.000000e+000
         vertex 7.817466e+000 6.732565e+000 1.000000e+001
         vertex 7.817466e+000 6.732565e+000 0.000000e+000
      endloop
   endfacet
   facet normal -8.592612e-001 -5.115370e-001 0.000000e+000
      outer loop
         vertex 7.817466e+000 6.732565e+000 0.000000e+000
         vertex 7.817466e+000 6.732565e+000 1.000000e+001
         vertex 7.601643e+000 7.073862e+000 1.000000e+001
      endloop
   endfacet
   facet normal -8.305073e-001 -5.570078e-001 0.000000e+000
      outer loop
         vertex 7.817466e+000 6.732565e+000 0.000000e+000
         vertex 7.601643e+000 7.073862e+000 1.000000e+001
         vertex 7.601643e+000 7.073862e+000 0.000000e+000
      endloop
   endfacet
   facet normal -7.660777e-001 -6.427480e-001 0.000000e+000
      outer loop
         vertex 7.601643e+000 7.073862e+000 0.000000e+000
         vertex 7.601643e+000 7.073862e+000 1.000000e+001
         vertex 7.333866e+000 7.376119e+000 1.000000e+001
      endloop
   endfacet
   facet normal -7.304021e-001 -6.830174e-001 0.000000e+000
      outer loop
         vertex 7.601643e+000 7.073862e+000 0.000000e+000
         vertex 7.333866e+000 7.376119e+000 1.000000e+001
         vertex 7.333866e+000 7.376119e+000 0.000000e+000
      endloop
   endfacet
   facet normal -6.530532e-001 -7.573121e-001 0.000000e+000
      outer loop
         vertex 7.333866e+000 7.376119e+000 0.000000e+000
         vertex 7.333866e+000 7.376119e+000 1.000000e+001
         vertex 7.021072e+000 7.631507e+000 1.000000e+001
      endloop
   endfacet
   facet normal -6.113799e-001 -7.913373e-001 0.000000e+000
      outer loop
         vertex 7.333866e+000 7.376119e+000 0.000000e+000
         vertex 7.021072e+000 7.631507e+000 1.000000e+001
         vertex 7.021072e+000 7.631507e+000 0.000000e+000
      endloop
   endfacet
   facet normal -5.231149e-001 -8.522622e-001 0.000000e+000
      outer loop
         vertex 7.021072e+000 7.631507e+000 0.000000e+000
         vertex 7.021072e+000 7.631507e+000 1.000000e+001
         vertex 6.671362e+000 7.833413e+000 1.000000e+001
      endloop
   endfacet
   facet normal -4.765233e-001 -8.791618e-001 0.000000e+000
      outer loop
         vertex 7.021072e+000 7.631507e+000 0.000000e+000
         vertex 6.671362e+000 7.833413e+000 1.000000e+001
         vertex 6.671362e+000 7.833413e+000 0.000000e+000
      endloop
   endfacet
   facet normal -3.796283e-001 -9.251391e-001 0.000000e+000
      outer loop
         vertex 6.671362e+000 7.833413e+000 0.000000e+000
         vertex 6.671362e+000 7.833413e+000 1.000000e+001
         vertex 6.293792e+000 7.976605e+000 1.000000e+001
      endloop
   endfacet
   facet normal -3.293249e-001 -9.442167e-001 0.000000e+000
      outer loop
         vertex 6.671362e+000 7.833413e+000 0.000000e+000
         vertex 6.293792e+000 7.976605e+000 1.000000e+001
         vertex 6.293792e+000 7.976605e+000 0.000000e+000
      endloop
   endfacet
   facet normal -2.263094e-001 -9.740555e-001 0.000000e+000
      outer loop
         vertex 6.293792e+000 7.976605e+000 0.000000e+000
         vertex 6.293792e+000 7.976605e+000 1.000000e+001
         vertex 5.898142e+000 8.057378e+000 1.000000e+001
      endloop
   endfacet
   facet normal -1.735972e-001 -9.848167e-001 0.000000e+000
      outer loop
         vertex 6.293792e+000 7.976605e+000 0.000000e+000
         vertex 5.898142e+000 8.057378e+000 1.000000e+001
         vertex 5.898142e+000 8.057378e+000 0.000000e+000
      endloop
   endfacet
   facet normal -6.712926e-002 -9.977443e-001 0.000000e+000
      outer loop
         vertex 5.898142e+000 8.057378e+000 0.000000e+000
         vertex 5.898142e+000 8.057378e+000 1.000000e+001
         vertex 5.494658e+000 8.073638e+000 1.000000e+001
      endloop
   endfacet
   facet normal -1.337347e-002 -9.999106e-001 0.000000e+000
      outer loop
         vertex 5.898142e+000 8.057378e+000 0.000000e+000
         vertex 5.494658e+000 8.073638e+000 1.000000e+001
         vertex 5.494658e+000 8.073638e+000 0.000000e+000
      endloop
   endfacet
   facet normal 9.378947e-002 -9.955921e-001 0.000000e+000
      outer loop
         vertex 5.494658e+000 8.073638e+000 0.000000e+000
         vertex 5.494658e+000 8.073638e+000 1.000000e+001
         vertex 5.093792e+000 8.024964e+000 1.000000e+001
      endloop
   endfacet
   facet normal 1.471967e-001 -9.891073e-001 0.000000e+000
      outer loop
         vertex 5.494658e+000 8.073638e+000 0.000000e+000
         vertex 5.093792e+000 8.024964e+000 1.000000e+001
         vertex 5.093792e+000 8.024964e+000 0.000000e+000
      endloop
   endfacet
   facet normal 2.522791e-001 -9.676545e-001 0.000000e+000
      outer loop
         vertex 5.093792e+000 8.024964e+000 0.000000e+000
         vertex 5.093792e+000 8.024964e+000 1.000000e+001
         vertex 4.705924e+000 7.912617e+000 1.000000e+001
      endloop
   endfacet
   facet normal 3.039545e-001 -9.526865e-001 0.000000e+000
      outer loop
         vertex 5.093792e+000 8.024964e+000 0.000000e+000
         vertex 4.705924e+000 7.912617e+000 1.000000e+001
         vertex 4.705924e+000 7.912617e+000 0.000000e+000
      endloop
   endfacet
   facet normal 4.042349e-001 -9.146552e-001 0.000000e+000
      outer loop
         vertex 4.705924e+000 7.912617e+000 0.000000e+000
         vertex 4.705924e+000 7.912617e+000 1.000000e+001
         vertex 4.341101e+000 7.739506e+000 1.000000e+001
      endloop
   endfacet
   facet normal 4.528400e-001 -8.915918e-001 0.000000e+000
      outer loop
         vertex 4.705924e+000 7.912617e+000 0.000000e+000
         vertex 4.341101e+000 7.739506e+000 1.000000e+001
         vertex 4.341101e+000 7.739506e+000 0.000000e+000
      endloop
   endfacet
   facet normal 5.457212e-001 -8.379669e-001 0.000000e+000
      outer loop
         vertex 4.341101e+000 7.739506e+000 0.000000e+000
         vertex 4.341101e+000 7.739506e+000 1.000000e+001
         vertex 4.008771e+000 7.510116e+000 1.000000e+001
      endloop
   endfacet
   facet normal 5.899972e-001 -8.074053e-001 0.000000e+000
      outer loop
         vertex 4.341101e+000 7.739506e+000 0.000000e+000
         vertex 4.008771e+000 7.510116e+000 1.000000e+001
         vertex 4.008771e+000 7.510116e+000 0.000000e+000
      endloop
   endfacet
   facet normal 6.730735e-001 -7.395756e-001 0.000000e+000
      outer loop
         vertex 4.008771e+000 7.510116e+000 0.000000e+000
         vertex 4.008771e+000 7.510116e+000 1.000000e+001
         vertex 3.717542e+000 7.230386e+000 1.000000e+001
      endloop
   endfacet
   facet normal 7.118738e-001 -7.023074e-001 0.000000e+000
      outer loop
         vertex 4.008771e+000 7.510116e+000 0.000000e+000
         vertex 3.717542e+000 7.230386e+000 1.000000e+001
         vertex 3.717542e+000 7.230386e+000 0.000000e+000
      endloop
   endfacet
   facet normal 7.829937e-001 -6.220297e-001 0.000000e+000
      outer loop
         vertex 3.717542e+000 7.230386e+000 0.000000e+000
         vertex 3.717542e+000 7.230386e+000 1.000000e+001
         vertex 3.474956e+000 6.907562e+000 1.000000e+001
      endloop
   endfacet
   facet normal 8.153133e-001 -5.790201e-001 0.000000e+000
      outer loop
         vertex 3.717542e+000 7.230386e+000 0.000000e+000
         vertex 3.474956e+000 6.907562e+000 1.000000e+001
         vertex 3.474956e+000 6.907562e+000 0.000000e+000
      endloop
   endfacet
   facet normal 8.726347e-001 -4.883735e-001 0.000000e+000
      outer loop
         vertex 3.474956e+000 6.907562e+000 0.000000e+000
         vertex 3.474956e+000 6.907562e+000 1.000000e+001
         vertex 3.287295e+000 6.550005e+000 1.000000e+001
      endloop
   endfacet
   facet normal 8.976365e-001 -4.407364e-001 0.000000e+000
      outer loop
         vertex 3.474956e+000 6.907562e+000 0.000000e+000
         vertex 3.287295e+000 6.550005e+000 1.000000e+001
         vertex 3.287295e+000 6.550005e+000 0.000000e+000
      endloop
   endfacet
   facet normal 9.396749e-001 -3.420688e-001 0.000000e+000
      outer loop
         vertex 3.287295e+000 6.550005e+000 0.000000e+000
         vertex 3.287295e+000 6.550005e+000 1.000000e+001
         vertex 3.159421e+000 6.166976e+000 1.000000e+001
      endloop
   endfacet
   facet normal 9.567115e-001 -2.910380e-001 0.000000e+000
      outer loop
         vertex 3.287295e+000 6.550005e+000 0.000000e+000
         vertex 3.159421e+000 6.166976e+000 1.000000e+001
         vertex 3.159421e+000 6.166976e+000 0.000000e+000
      endloop
   endfacet
   facet normal 9.823781e-001 -1.869046e-001 0.000000e+000
      outer loop
         vertex 3.159421e+000 6.166976e+000 0.000000e+000
         vertex 3.159421e+000 6.166976e+000 1.000000e+001
         vertex 3.094646e+000 5.768394e+000 1.000000e+001
      endloop
   endfacet
   facet normal 9.910081e-001 -1.338019e-001 0.000000e+000
      outer loop
         vertex 3.159421e+000 6.166976e+000 0.000000e+000
         vertex 3.094646e+000 5.768394e+000 1.000000e+001
         vertex 3.094646e+000 5.768394e+000 0.000000e+000
      endloop
   endfacet
   facet normal 9.996382e-001 -2.689971e-002 0.000000e+000
      outer loop
         vertex 3.094646e+000 5.768394e+000 0.000000e+000
         vertex 3.094646e+000 5.768394e+000 1.000000e+001
         vertex 3.094646e+000 5.364583e+000 1.000000e+001
      endloop
   endfacet
   facet normal 9.996382e-001 2.689971e-002 0.000000e+000
      outer loop
         vertex 3.094646e+000 5.768394e+000 0.000000e+000
         vertex 3.094646e+000 5.364583e+000 1.000000e+001
         vertex 3.094646e+000 5.364583e+000 0.000000e+000
      endloop
   endfacet
   facet normal 9.910081e-001 1.338019e-001 0.000000e+000
      outer loop
         vertex 3.094646e+000 5.364583e+000 0.000000e+000
         vertex 3.094646e+000 5.364583e+000 1.000000e+001
         vertex 3.159421e+000 4.966002e+000 1.000000e+001
      endloop
   endfacet
   facet normal 9.823781e-001 1.869046e-001 0.000000e+000
      outer loop
         vertex 3.094646e+000 5.364583e+000 0.000000e+000
         vertex 3.159421e+000 4.966002e+000 1.000000e+001
         vertex 3.159421e+000 4.966002e+000 0.000000e+000
      endloop
   endfacet
   facet normal 9.567115e-001 2.910380e-001 0.000000e+000
      outer loop
         vertex 3.159421e+000 4.966002e+000 0.000000e+000
         vertex 3.159421e+000 4.966002e+000 1.000000e+001
         vertex 3.287295e+000 4.582972e+000 1.000000e+001
      endloop
   endfacet
   facet normal 9.396749e-001 3.420688e-001 0.000000e+000
      outer loop
         vertex 3.159421e+000 4.966002e+000 0.000000e+000
         vertex 3.287295e+000 4.582972e+000 1.000000e+001
         vertex 3.287295e+000 4.582972e+000 0.000000e+000
      endloop
   endfacet
   facet normal 8.976365e-001 4.407365e-001 0.000000e+000
      outer loop
         vertex 3.287295e+000 4.582972e+000 0.000000e+000
         vertex 3.287295e+000 4.582972e+000 1.000000e+001
         vertex 3.474956e+000 4.225416e+000 1.000000e+001
      endloop
   endfacet
   facet normal 8.726347e-001 4.883736e-001 0.000000e+000
      outer loop
         vertex 3.287295e+000 4.582972e+000 0.000000e+000
         vertex 3.474956e+000 4.225416e+000 1.000000e+001
         vertex 3.474956e+000 4.225416e+000 0.000000e+000
      endloop
   endfacet
   facet normal 8.153133e-001 5.790201e-001 0.000000e+000
      outer loop
         vertex 3.474956e+000 4.225416e+000 0.000000e+000
         vertex 3.474956e+000 4.225416e+000 1.000000e+001
         vertex 3.717542e+000 3.902592e+000 1.000000e+001
      endloop
   endfacet
   facet normal 7.829937e-001 6.220297e-001 0.000000e+000
      outer loop
         vertex 3.474956e+000 4.225416e+000 0.000000e+000
         vertex 3.717542e+000 3.902592e+000 1.000000e+001
         vertex 3.717542e+000 3.902592e+000 0.000000e+000
      endloop
   endfacet
   facet normal 7.118738e-001 7.023074e-001 0.000000e+000
      outer loop
         vertex 3.717542e+000 3.902592e+000 0.000000e+000
         vertex 3.717542e+000 3.902592e+000 1.000000e+001
         vertex 4.008771e+000 3.622862e+000 1.000000e+001
      endloop
   endfacet
   facet normal 6.730735e-001 7.395756e-001 0.000000e+000
      outer loop
         vertex 3.717542e+000 3.902592e+000 0.000000e+000
         vertex 4.008771e+000 3.622862e+000 1.000000e+001
         vertex 4.008771e+000 3.622862e+000 0.000000e+000
      endloop
   endfacet
   facet normal 5.899972e-001 8.074053e-001 0.000000e+000
      outer loop
         vertex 4.008771e+000 3.622862e+000 0.000000e+000
         vertex 4.008771e+000 3.622862e+000 1.000000e+001
         vertex 4.341101e+000 3.393472e+000 1.000000e+001
      endloop
   endfacet
   facet normal 5.457212e-001 8.379669e-001 0.000000e+000
      outer loop
         vertex 4.008771e+000 3.622862e+000 0.000000e+000
         vertex 4.341101e+000 3.393472e+000 1.000000e+001
         vertex 4.341101e+000 3.393472e+000 0.000000e+000
      endloop
   endfacet
   facet normal 4.528400e-001 8.915918e-001 0.000000e+000
      outer loop
         vertex 4.341101e+000 3.393472e+000 0.000000e+000
         vertex 4.341101e+000 3.393472e+000 1.000000e+001
         vertex 4.705924e+000 3.220361e+000 1.000000e+001
      endloop
   endfacet
   facet normal 4.042349e-001 9.146552e-001 0.000000e+000
      outer loop
         vertex 4.341101e+000 3.393472e+000 0.000000e+000
         vertex 4.705924e+000 3.220361e+000 1.000000e+001
         vertex 4.705924e+000 3.220361e+000 0.000000e+000
      endloop
   endfacet
   facet normal 3.039545e-001 9.526865e-001 0.000000e+000
      outer loop
         vertex 4.705924e+000 3.220361e+000 0.000000e+000
         vertex 4.705924e+000 3.220361e+000 1.000000e+001
         vertex 5.093792e+000 3.108014e+000 1.000000e+001
      endloop
   endfacet
   facet normal 2.522791e-001 9.676545e-001 0.000000e+000
      outer loop
         vertex 4.705924e+000 3.220361e+000 0.000000e+000
         vertex 5.093792e+000 3.108014e+000 1.000000e+001
         vertex 5.093792e+000 3.108014e+000 0.000000e+000
      endloop
   endfacet
   facet normal 1.471967e-001 9.891073e-001 0.000000e+000
      outer loop
         vertex 5.093792e+000 3.108014e+000 0.000000e+000
         vertex 5.093792e+000 3.108014e+000 1.000000e+001
         vertex 5.494658e+000 3.059340e+000 1.000000e+001
      endloop
   endfacet
   facet normal 9.378949e-002 9.955921e-001 0.000000e+000
      outer loop
         vertex 5.093792e+000 3.108014e+000 0.000000e+000
         vertex 5.494658e+000 3.059340e+000 1.000000e+001
         vertex 5.494658e+000 3.059340e+000 0.000000e+000
      endloop
   endfacet
   facet normal -1.337347e-002 9.999106e-001 0.000000e+000
      outer loop
         vertex 5.494658e+000 3.059340e+000 0.000000e+000
         vertex 5.494658e+000 3.059340e+000 1.000000e+001
         vertex 5.898142e+000 3.075599e+000 1.000000e+001
      endloop
   endfacet
   facet normal -6.712926e-002 9.977443e-001 0.000000e+000
      outer loop
         vertex 5.494658e+000 3.059340e+000 0.000000e+000
         vertex 5.898142e+000 3.075599e+000 1.000000e+001
         vertex 5.898142e+000 3.075599e+000 0.000000e+000
      endloop
   endfacet
   facet normal -1.735972e-001 9.848167e-001 0.000000e+000
      outer loop
         vertex 5.898142e+000 3.075599e+000 0.000000e+000
         vertex 5.898142e+000 3.075599e+000 1.000000e+001
         vertex 6.293792e+000 3.156372e+000 1.000000e+001
      endloop
   endfacet
   facet normal -2.263094e-001 9.740555e-001 0.000000e+000
      outer loop
         vertex 5.898142e+000 3.075599e+000 0.000000e+000
         vertex 6.293792e+000 3.156372e+000 1.000000e+001
         vertex 6.293792e+000 3.156372e+000 0.000000e+000
      endloop
   endfacet
   facet normal -3.293249e-001 9.442167e-001 0.000000e+000
      outer loop
         vertex 6.293792e+000 3.156372e+000 0.000000e+000
         vertex 6.293792e+000 3.156372e+000 1.000000e+001
         vertex 6.671362e+000 3.299565e+000 1.000000e+001
      endloop
   endfacet
   facet normal -3.796282e-001 9.251391e-001 0.000000e+000
      outer loop
         vertex 6.293792e+000 3.156372e+000 0.000000e+000
         vertex 6.671362e+000 3.299565e+000 1.000000e+001
         vertex 6.671362e+000 3.299565e+000 0.000000e+000
      endloop
   endfacet
   facet normal -4.765233e-001 8.791618e-001 0.000000e+000
      outer loop
         vertex 6.671362e+000 3.299565e+000 0.000000e+000
         vertex 6.671362e+000 3.299565e+000 1.000000e+001
         vertex 7.021072e+000 3.501471e+000 1.000000e+001
      endloop
   endfacet
   facet normal -5.231149e-001 8.522622e-001 0.000000e+000
      outer loop
         vertex 6.671362e+000 3.299565e+000 0.000000e+000
         vertex 7.021072e+000 3.501471e+000 1.000000e+001
         vertex 7.021072e+000 3.501471e+000 0.000000e+000
      endloop
   endfacet
   facet normal -6.113799e-001 7.913373e-001 0.000000e+000
      outer loop
         vertex 7.021072e+000 3.501471e+000 0.000000e+000
         vertex 7.021072e+000 3.501471e+000 1.000000e+001
         vertex 7.333866e+000 3.756859e+000 1.000000e+001
      endloop
   endfacet
   facet normal -6.530532e-001 7.573121e-001 0.000000e+000
      outer loop
         vertex 7.021072e+000 3.501471e+000 0.000000e+000
         vertex 7.333866e+000 3.756859e+000 1.000000e+001
         vertex 7.333866e+000 3.756859e+000 0.000000e+000
      endloop
   endfacet
   facet normal -7.304021e-001 6.830174e-001 0.000000e+000
      outer loop
         vertex 7.333866e+000 3.756859e+000 0.000000e+000
         vertex 7.333866e+000 3.756859e+000 1.000000e+001
         vertex 7.601643e+000 4.059116e+000 1.000000e+001
      endloop
   endfacet
   facet normal -7.660777e-001 6.427480e-001 0.000000e+000
      outer loop
         vertex 7.333866e+000 3.756859e+000 0.000000e+000
         vertex 7.601643e+000 4.059116e+000 1.000000e+001
         vertex 7.601643e+000 4.059116e+000 0.000000e+000
      endloop
   endfacet
   facet normal -8.305073e-001 5.570078e-001 0.000000e+000
      outer loop
         vertex 7.601643e+000 4.059116e+000 0.000000e+000
         vertex 7.601643e+000 4.059116e+000 1.000000e+001
         vertex 7.817466e+000 4.400413e+000 1.000000e+001
      endloop
   endfacet
   facet normal -8.592612e-001 5.115370e-001 0.000000e+000
      outer loop
         vertex 7.601643e+000 4.059116e+000 0.000000e+000
         vertex 7.817466e+000 4.400413e+000 1.000000e+001
         vertex 7.817466e+000 4.400413e+000 0.000000e+000
      endloop
   endfacet
   facet normal -9.091027e-001 4.165719e-001 0.000000e+000
      outer loop
         vertex 7.817466e+000 4.400413e+000 0.000000e+000
         vertex 7.817466e+000 4.400413e+000 1.000000e+001
         vertex 7.975746e+000 4.771911e+000 1.000000e+001
      endloop
   endfacet
   facet normal -9.301903e-001 3.670776e-001 0.000000e+000
      outer loop
         vertex 7.817466e+000 4.400413e+000 0.000000e+000
         vertex 7.975746e+000 4.771911e+000 1.000000e+001
         vertex 7.975746e+000 4.771911e+000 0.000000e+000
      endloop
   endfacet
   facet normal -9.641529e-001 2.653471e-001 0.000000e+000
      outer loop
         vertex 7.975746e+000 4.771911e+000 0.000000e+000
         vertex 7.975746e+000 4.771911e+000 1.000000e+001
         vertex 8.072385e+000 5.163988e+000 1.000000e+001
      endloop
   endfacet
   facet normal -9.770280e-001 2.131110e-001 0.000000e+000
      outer loop
         vertex 7.975746e+000 4.771911e+000 0.000000e+000
         vertex 8.072385e+000 5.163988e+000 1.000000e+001
         vertex 8.072385e+000 5.163988e+000 0.000000e+000
      endloop
   endfacet
   facet normal -9.942321e-001 1.072499e-001 0.000000e+000
      outer loop
         vertex 8.072385e+000 5.163988e+000 0.000000e+000
         vertex 8.072385e+000 5.163988e+000 1.000000e+001
         vertex 8.104877e+000 5.566489e+000 1.000000e+001
      endloop
   endfacet
endsolid