solid 3_374
   facet normal -1.000000e+000 0.000000e+000 0.000000e+000
      outer loop
         vertex 0.000000e+000 1.000000e+001 1.000000e+001
         vertex 0.000000e+000 1.000000e+001 0.000000e+000
         vertex 0.000000e+000 0.000000e+000 1.000000e+001
      endloop
   endfacet
   facet normal -1.000000e+000 0.000000e+000 0.000000e+000
      outer loop
         vertex 0.000000e+000 0.000000e+000 1.000000e+001
         vertex 0.000000e+000 1.000000e+001 0.000000e+000
         vertex 0.000000e+000 0.000000e+000 0.000000e+000
      endloop
   endfacet
   facet normal 0.000000e+000 0.000000e+000 1.000000e+000
      outer loop
         vertex 0.000000e+000 1.000000e+001 1.000000e+001
         vertex 6.995818e+000 5.829880e+000 1.000000e+001
         vertex 7.052161e+000 6.040156e+000 1.000000e+001
      endloop
   endfacet
   facet normal 0.000000e+000 0.000000e+000 1.000000e+000
      outer loop
         vertex 9.399290e+000 5.185872e+000 1.000000e+001
         vertex 9.307288e+000 4.988573e+000 1.000000e+001
         vertex 1.000000e+001 0.000000e+000 1.000000e+001
      endloop
   endfacet
   facet normal 0.000000e+000 0.000000e+000 1.000000e+000
      outer loop
         vertex 1.000000e+001 0.000000e+000 1.000000e+001
         vertex 9.307288e+000 4.988573e+000 1.000000e+001
         vertex 9.182425e+000 4.810248e+000 1.000000e+001
      endloop
   endfacet
   facet normal 0.000000e+000 0.000000e+000 1.000000e+000
      outer loop
         vertex 1.000000e+001 0.000000e+000 1.000000e+001
         vertex 9.182425e+000 4.810248e+000 1.000000e+001
         vertex 9.028492e+000 4.656315e+000 1.000000e+001
      endloop
   endfacet
   facet normal 0.000000e+000 0.000000e+000 1.000000e+000
      outer loop
         vertex 9.028492e+000 4.656315e+000 1.000000e+001
         vertex 8.850166e+000 4.531451e+000 1.000000e+001
         vertex 1.000000e+001 0.000000e+000 1.000000e+001
      endloop
   endfacet
   facet normal 0.000000e+000 0.000000e+000 1.000000e+000
      outer loop
         vertex 1.000000e+001 0.000000e+000 1.000000e+001
         vertex 8.850166e+000 4.531451e+000 1.000000e+001
         vertex 8.652868e+000 4.439449e+000 1.000000e+001
      endloop
   endfacet
   facet normal 0.000000e+000 0.000000e+000 1.000000e+000
      outer loop
         vertex 1.000000e+001 0.000000e+000 1.000000e+001
         vertex 8.652868e+000 4.439449e+000 1.000000e+001
         vertex 8.442592e+000 4.383106e+000 1.000000e+001
      endloop
   endfacet
   facet normal 0.000000e+000 0.000000e+000 1.000000e+000
      outer loop
         vertex 7.601285e+000 4.531451e+000 1.000000e+001
         vertex 7.422960e+000 4.656315e+000 1.000000e+001
         vertex 0.000000e+000 0.000000e+000 1.000000e+001
      endloop
   endfacet
   facet normal 0.000000e+000 0.000000e+000 1.000000e+000
      outer loop
         vertex 0.000000e+000 0.000000e+000 1.000000e+001
         vertex 7.422960e+000 4.656315e+000 1.000000e+001
         vertex 7.269027e+000 4.810248e+000 1.000000e+001
      endloop
   endfacet
   facet normal 0.000000e+000 0.000000e+000 1.000000e+000
      outer loop
         vertex 0.000000e+000 0.000000e+000 1.000000e+001
         vertex 7.269027e+000 4.810248e+000 1.000000e+001
         vertex 7.144163e+000 4.988573e+000 1.000000e+001
      endloop
   endfacet
   facet normal 0.000000e+000 0.000000e+000 1.000000e+000
      outer loop
         vertex 7.144163e+000 4.988573e+000 1.000000e+001
         vertex 7.052161e+000 5.185872e+000 1.000000e+001
         vertex 0.000000e+000 0.000000e+000 1.000000e+001
      endloop
   endfacet
   facet normal 0.000000e+000 0.000000e+000 1.000000e+000
      outer loop
         vertex 0.000000e+000 0.000000e+000 1.000000e+001
         vertex 7.052161e+000 5.185872e+000 1.000000e+001
         vertex 6.995818e+000 5.396148e+000 1.000000e+001
      endloop
   endfacet
   facet normal 0.000000e+000 0.000000e+000 1.000000e+000
      outer loop
         vertex 0.000000e+000 0.000000e+000 1.000000e+001
         vertex 6.995818e+000 5.396148e+000 1.000000e+001
         vertex 0.000000e+000 1.000000e+001 1.000000e+001
      endloop
   endfacet
   facet normal 0.000000e+000 0.000000e+000 1.000000e+000
      outer loop
         vertex 0.000000e+000 1.000000e+001 1.000000e+001
         vertex 6.995818e+000 5.396148e+000 1.000000e+001
         vertex 6.976844e+000 5.613014e+000 1.000000e+001
      endloop
   endfacet
   facet normal 0.000000e+000 0.000000e+000 1.000000e+000
      outer loop
         vertex 0.000000e+000 1.000000e+001 1.000000e+001
         vertex 6.976844e+000 5.613014e+000 1.000000e+001
         vertex 6.995818e+000 5.829880e+000 1.000000e+001
      endloop
   endfacet
   facet normal 0.000000e+000 0.000000e+000 1.000000e+000
      outer loop
         vertex 8.225726e+000 6.861896e+000 1.000000e+001
         vertex 8.442592e+000 6.842922e+000 1.000000e+001
         vertex 1.000000e+001 1.000000e+001 1.000000e+001
      endloop
   endfacet
   facet normal 0.000000e+000 0.000000e+000 1.000000e+000
      outer loop
         vertex 1.000000e+001 1.000000e+001 1.000000e+001
         vertex 8.442592e+000 6.842922e+000 1.000000e+001
         vertex 8.652868e+000 6.786579e+000 1.000000e+001
      endloop
   endfacet
   facet normal 0.000000e+000 0.000000e+000 1.000000e+000
      outer loop
         vertex 1.000000e+001 1.000000e+001 1.000000e+001
         vertex 8.652868e+000 6.786579e+000 1.000000e+001
         vertex 8.850166e+000 6.694577e+000 1.000000e+001
      endloop
   endfacet
   facet normal 0.000000e+000 0.000000e+000 1.000000e+000
      outer loop
         vertex 1.000000e+001 1.000000e+001 1.000000e+001
         vertex 9.307288e+000 6.237455e+000 1.000000e+001
         vertex 9.399290e+000 6.040156e+000 1.000000e+001
      endloop
   endfacet
   facet normal 0.000000e+000 0.000000e+000 1.000000e+000
      outer loop
         vertex 8.442592e+000 4.383106e+000 1.000000e+001
         vertex 8.225726e+000 4.364132e+000 1.000000e+001
         vertex 1.000000e+001 0.000000e+000 1.000000e+001
      endloop
   endfacet
   facet normal 0.000000e+000 0.000000e+000 1.000000e+000
      outer loop
         vertex 1.000000e+001 0.000000e+000 1.000000e+001
         vertex 8.225726e+000 4.364132e+000 1.000000e+001
         vertex 8.008860e+000 4.383106e+000 1.000000e+001
      endloop
   endfacet
   facet normal 0.000000e+000 0.000000e+000 1.000000e+000
      outer loop
         vertex 1.000000e+001 0.000000e+000 1.000000e+001
         vertex 8.008860e+000 4.383106e+000 1.000000e+001
         vertex 0.000000e+000 0.000000e+000 1.000000e+001
      endloop
   endfacet
   facet normal 0.000000e+000 0.000000e+000 1.000000e+000
      outer loop
         vertex 0.000000e+000 0.000000e+000 1.000000e+001
         vertex 8.008860e+000 4.383106e+000 1.000000e+001
         vertex 7.798583e+000 4.439449e+000 1.000000e+001
      endloop
   endfacet
   facet normal 0.000000e+000 0.000000e+000 1.000000e+000
      outer loop
         vertex 0.000000e+000 0.000000e+000 1.000000e+001
         vertex 7.798583e+000 4.439449e+000 1.000000e+001
         vertex 7.601285e+000 4.531451e+000 1.000000e+001
      endloop
   endfacet
   facet normal 0.000000e+000 0.000000e+000 1.000000e+000
      outer loop
         vertex 8.850166e+000 6.694577e+000 1.000000e+001
         vertex 9.028492e+000 6.569713e+000 1.000000e+001
         vertex 1.000000e+001 1.000000e+001 1.000000e+001
      endloop
   endfacet
   facet normal 0.000000e+000 0.000000e+000 1.000000e+000
      outer loop
         vertex 1.000000e+001 1.000000e+001 1.000000e+001
         vertex 9.028492e+000 6.569713e+000 1.000000e+001
         vertex 9.182425e+000 6.415779e+000 1.000000e+001
      endloop
   endfacet
   facet normal 0.000000e+000 0.000000e+000 1.000000e+000
      outer loop
         vertex 1.000000e+001 1.000000e+001 1.000000e+001
         vertex 9.182425e+000 6.415779e+000 1.000000e+001
         vertex 9.307288e+000 6.237455e+000 1.000000e+001
      endloop
   endfacet
   facet normal 0.000000e+000 0.000000e+000 1.000000e+000
      outer loop
         vertex 9.399290e+000 6.040156e+000 1.000000e+001
         vertex 9.455634e+000 5.829880e+000 1.000000e+001
         vertex 1.000000e+001 1.000000e+001 1.000000e+001
      endloop
   endfacet
   facet normal 0.000000e+000 0.000000e+000 1.000000e+000
      outer loop
         vertex 1.000000e+001 1.000000e+001 1.000000e+001
         vertex 9.455634e+000 5.829880e+000 1.000000e+001
         vertex 9.474607e+000 5.613014e+000 1.000000e+001
      endloop
   endfacet
   facet normal 0.000000e+000 0.000000e+000 1.000000e+000
      outer loop
         vertex 1.000000e+001 1.000000e+001 1.000000e+001
         vertex 9.474607e+000 5.613014e+000 1.000000e+001
         vertex 1.000000e+001 0.000000e+000 1.000000e+001
      endloop
   endfacet
   facet normal 0.000000e+000 0.000000e+000 1.000000e+000
      outer loop
         vertex 1.000000e+001 0.000000e+000 1.000000e+001
         vertex 9.474607e+000 5.613014e+000 1.000000e+001
         vertex 9.455634e+000 5.396148e+000 1.000000e+001
      endloop
   endfacet
   facet normal 0.000000e+000 0.000000e+000 1.000000e+000
      outer loop
         vertex 1.000000e+001 0.000000e+000 1.000000e+001
         vertex 9.455634e+000 5.396148e+000 1.000000e+001
         vertex 9.399290e+000 5.185872e+000 1.000000e+001
      endloop
   endfacet
   facet normal 0.000000e+000 0.000000e+000 1.000000e+000
      outer loop
         vertex 7.052161e+000 6.040156e+000 1.000000e+001
         vertex 7.144163e+000 6.237455e+000 1.000000e+001
         vertex 0.000000e+000 1.000000e+001 1.000000e+001
      endloop
   endfacet
   facet normal 0.000000e+000 0.000000e+000 1.000000e+000
      outer loop
         vertex 0.000000e+000 1.000000e+001 1.000000e+001
         vertex 7.144163e+000 6.237455e+000 1.000000e+001
         vertex 7.269027e+000 6.415779e+000 1.000000e+001
      endloop
   endfacet
   facet normal 0.000000e+000 0.000000e+000 1.000000e+000
      outer loop
         vertex 0.000000e+000 1.000000e+001 1.000000e+001
         vertex 7.269027e+000 6.415779e+000 1.000000e+001
         vertex 7.422960e+000 6.569713e+000 1.000000e+001
      endloop
   endfacet
   facet normal 0.000000e+000 0.000000e+000 1.000000e+000
      outer loop
         vertex 7.422960e+000 6.569713e+000 1.000000e+001
         vertex 7.601285e+000 6.694577e+000 1.000000e+001
         vertex 0.000000e+000 1.000000e+001 1.000000e+001
      endloop
   endfacet
   facet normal 0.000000e+000 0.000000e+000 1.000000e+000
      outer loop
         vertex 0.000000e+000 1.000000e+001 1.000000e+001
         vertex 7.601285e+000 6.694577e+000 1.000000e+001
         vertex 7.798583e+000 6.786579e+000 1.000000e+001
      endloop
   endfacet
   facet normal 0.000000e+000 0.000000e+000 1.000000e+000
      outer loop
         vertex 0.000000e+000 1.000000e+001 1.000000e+001
         vertex 7.798583e+000 6.786579e+000 1.000000e+001
         vertex 1.000000e+001 1.000000e+001 1.000000e+001
      endloop
   endfacet
   facet normal 0.000000e+000 0.000000e+000 1.000000e+000
      outer loop
         vertex 1.000000e+001 1.000000e+001 1.000000e+001
         vertex 7.798583e+000 6.786579e+000 1.000000e+001
         vertex 8.008860e+000 6.842922e+000 1.000000e+001
      endloop
   endfacet
   facet normal 0.000000e+000 0.000000e+000 1.000000e+000
      outer loop
         vertex 1.000000e+001 1.000000e+001 1.000000e+001
         vertex 8.008860e+000 6.842922e+000 1.000000e+001
         vertex 8.225726e+000 6.861896e+000 1.000000e+001
      endloop
   endfacet
   facet normal 1.000000e+000 0.000000e+000 0.000000e+000
      outer loop
         vertex 1.000000e+001 1.000000e+001 0.000000e+000
         vertex 1.000000e+001 1.000000e+001 1.000000e+001
         vertex 1.000000e+001 0.000000e+000 0.000000e+000
      endloop
   endfacet
   facet normal 1.000000e+000 0.000000e+000 0.000000e+000
      outer loop
         vertex 1.000000e+001 0.000000e+000 0.000000e+000
         vertex 1.000000e+001 1.000000e+001 1.000000e+001
         vertex 1.000000e+001 0.000000e+000 1.000000e+001
      endloop
   endfacet
   facet normal 0.000000e+000 0.000000e+000 -1.000000e+000
      outer loop
         vertex 1.000000e+001 0.000000e+000 0.000000e+000
         vertex 9.307288e+000 4.988573e+000 0.000000e+000
         vertex 9.399290e+000 5.185872e+000 0.000000e+000
      endloop
   endfacet
   facet normal 0.000000e+000 0.000000e+000 -1.000000e+000
      outer loop
         vertex 7.052161e+000 6.040156e+000 0.000000e+000
         vertex 6.995818e+000 5.829880e+000 0.000000e+000
         vertex 0.000000e+000 1.000000e+001 0.000000e+000
      endloop
   endfacet
   facet normal 0.000000e+000 0.000000e+000 -1.000000e+000
      outer loop
         vertex 0.000000e+000 1.000000e+001 0.000000e+000
         vertex 6.995818e+000 5.829880e+000 0.000000e+000
         vertex 6.976844e+000 5.613014e+000 0.000000e+000
      endloop
   endfacet
   facet normal 0.000000e+000 0.000000e+000 -1.000000e+000
      outer loop
         vertex 0.000000e+000 1.000000e+001 0.000000e+000
         vertex 6.976844e+000 5.613014e+000 0.000000e+000
         vertex 0.000000e+000 0.000000e+000 0.000000e+000
      endloop
   endfacet
   facet normal 0.000000e+000 0.000000e+000 -1.000000e+000
      outer loop
         vertex 0.000000e+000 0.000000e+000 0.000000e+000
         vertex 6.976844e+000 5.613014e+000 0.000000e+000
         vertex 6.995818e+000 5.396148e+000 0.000000e+000
      endloop
   endfacet
   facet normal 0.000000e+000 0.000000e+000 -1.000000e+000
      outer loop
         vertex 0.000000e+000 0.000000e+000 0.000000e+000
         vertex 6.995818e+000 5.396148e+000 0.000000e+000
         vertex 7.052161e+000 5.185872e+000 0.000000e+000
      endloop
   endfacet
   facet normal 0.000000e+000 0.000000e+000 -1.000000e+000
      outer loop
         vertex 8.652868e+000 6.786579e+000 0.000000e+000
         vertex 8.442592e+000 6.842922e+000 0.000000e+000
         vertex 1.000000e+001 1.000000e+001 0.000000e+000
      endloop
   endfacet
   facet normal 0.000000e+000 0.000000e+000 -1.000000e+000
      outer loop
         vertex 7.052161e+000 5.185872e+000 0.000000e+000
         vertex 7.144163e+000 4.988573e+000 0.000000e+000
         vertex 0.000000e+000 0.000000e+000 0.000000e+000
      endloop
   endfacet
   facet normal 0.000000e+000 0.000000e+000 -1.000000e+000
      outer loop
         vertex 0.000000e+000 0.000000e+000 0.000000e+000
         vertex 7.144163e+000 4.988573e+000 0.000000e+000
         vertex 7.269027e+000 4.810248e+000 0.000000e+000
      endloop
   endfacet
   facet normal 0.000000e+000 0.000000e+000 -1.000000e+000
      outer loop
         vertex 0.000000e+000 0.000000e+000 0.000000e+000
         vertex 7.269027e+000 4.810248e+000 0.000000e+000
         vertex 7.422960e+000 4.656315e+000 0.000000e+000
      endloop
   endfacet
   facet normal 0.000000e+000 0.000000e+000 -1.000000e+000
      outer loop
         vertex 8.225726e+000 4.364132e+000 0.000000e+000
         vertex 8.442592e+000 4.383106e+000 0.000000e+000
         vertex 1.000000e+001 0.000000e+000 0.000000e+000
      endloop
   endfacet
   facet normal 0.000000e+000 0.000000e+000 -1.000000e+000
      outer loop
         vertex 1.000000e+001 0.000000e+000 0.000000e+000
         vertex 8.442592e+000 4.383106e+000 0.000000e+000
         vertex 8.652868e+000 4.439449e+000 0.000000e+000
      endloop
   endfacet
   facet normal 0.000000e+000 0.000000e+000 -1.000000e+000
      outer loop
         vertex 1.000000e+001 0.000000e+000 0.000000e+000
         vertex 8.652868e+000 4.439449e+000 0.000000e+000
         vertex 8.850166e+000 4.531451e+000 0.000000e+000
      endloop
   endfacet
   facet normal 0.000000e+000 0.000000e+000 -1.000000e+000
      outer loop
         vertex 8.850166e+000 4.531451e+000 0.000000e+000
         vertex 9.028492e+000 4.656315e+000 0.000000e+000
         vertex 1.000000e+001 0.000000e+000 0.000000e+000
      endloop
   endfacet
   facet normal 0.000000e+000 0.000000e+000 -1.000000e+000
      outer loop
         vertex 1.000000e+001 0.000000e+000 0.000000e+000
         vertex 9.028492e+000 4.656315e+000 0.000000e+000
         vertex 9.182425e+000 4.810248e+000 0.000000e+000
      endloop
   endfacet
   facet normal 0.000000e+000 0.000000e+000 -1.000000e+000
      outer loop
         vertex 1.000000e+001 0.000000e+000 0.000000e+000
         vertex 9.182425e+000 4.810248e+000 0.000000e+000
         vertex 9.307288e+000 4.988573e+000 0.000000e+000
      endloop
   endfacet
   facet normal 0.000000e+000 0.000000e+000 -1.000000e+000
      outer loop
         vertex 9.399290e+000 6.040156e+000 0.000000e+000
         vertex 9.307288e+000 6.237455e+000 0.000000e+000
         vertex 1.000000e+001 1.000000e+001 0.000000e+000
      endloop
   endfacet
   facet normal 0.000000e+000 0.000000e+000 -1.000000e+000
      outer loop
         vertex 1.000000e+001 1.000000e+001 0.000000e+000
         vertex 9.307288e+000 6.237455e+000 0.000000e+000
         vertex 9.182425e+000 6.415779e+000 0.000000e+000
      endloop
   endfacet
   facet normal 0.000000e+000 0.000000e+000 -1.000000e+000
      outer loop
         vertex 9.399290e+000 5.185872e+000 0.000000e+000
         vertex 9.455634e+000 5.396148e+000 0.000000e+000
         vertex 1.000000e+001 0.000000e+000 0.000000e+000
      endloop
   endfacet
   facet normal 0.000000e+000 0.000000e+000 -1.000000e+000
      outer loop
         vertex 1.000000e+001 0.000000e+000 0.000000e+000
         vertex 9.455634e+000 5.396148e+000 0.000000e+000
         vertex 9.474607e+000 5.613014e+000 0.000000e+000
      endloop
   endfacet
   facet normal 0.000000e+000 0.000000e+000 -1.000000e+000
      outer loop
         vertex 1.000000e+001 0.000000e+000 0.000000e+000
         vertex 9.474607e+000 5.613014e+000 0.000000e+000
         vertex 1.000000e+001 1.000000e+001 0.000000e+000
      endloop
   endfacet
   facet normal 0.000000e+000 0.000000e+000 -1.000000e+000
      outer loop
         vertex 1.000000e+001 1.000000e+001 0.000000e+000
         vertex 9.474607e+000 5.613014e+000 0.000000e+000
         vertex 9.455634e+000 5.829880e+000 0.000000e+000
      endloop
   endfacet
   facet normal 0.000000e+000 0.000000e+000 -1.000000e+000
      outer loop
         vertex 1.000000e+001 1.000000e+001 0.000000e+000
         vertex 9.455634e+000 5.829880e+000 0.000000e+000
         vertex 9.399290e+000 6.040156e+000 0.000000e+000
      endloop
   endfacet
   facet normal 0.000000e+000 0.000000e+000 -1.000000e+000
      outer loop
         vertex 9.182425e+000 6.415779e+000 0.000000e+000
         vertex 9.028492e+000 6.569713e+000 0.000000e+000
         vertex 1.000000e+001 1.000000e+001 0.000000e+000
      endloop
   endfacet
   facet normal 0.000000e+000 0.000000e+000 -1.000000e+000
      outer loop
         vertex 1.000000e+001 1.000000e+001 0.000000e+000
         vertex 9.028492e+000 6.569713e+000 0.000000e+000
         vertex 8.850166e+000 6.694577e+000 0.000000e+000
      endloop
   endfacet
   facet normal 0.000000e+000 0.000000e+000 -1.000000e+000
      outer loop
         vertex 1.000000e+001 1.000000e+001 0.000000e+000
         vertex 8.850166e+000 6.694577e+000 0.000000e+000
         vertex 8.652868e+000 6.786579e+000 0.000000e+000
      endloop
   endfacet
   facet normal 0.000000e+000 0.000000e+000 -1.000000e+000
      outer loop
         vertex 7.601285e+000 6.694577e+000 0.000000e+000
         vertex 7.422960e+000 6.569713e+000 0.000000e+000
         vertex 0.000000e+000 1.000000e+001 0.000000e+000
      endloop
   endfacet
   facet normal 0.000000e+000 0.000000e+000 -1.000000e+000
      outer loop
         vertex 7.422960e+000 4.656315e+000 0.000000e+000
         vertex 7.601285e+000 4.531451e+000 0.000000e+000
         vertex 0.000000e+000 0.000000e+000 0.000000e+000
      endloop
   endfacet
   facet normal 0.000000e+000 0.000000e+000 -1.000000e+000
      outer loop
         vertex 0.000000e+000 0.000000e+000 0.000000e+000
         vertex 7.601285e+000 4.531451e+000 0.000000e+000
         vertex 7.798583e+000 4.439449e+000 0.000000e+000
      endloop
   endfacet
   facet normal 0.000000e+000 0.000000e+000 -1.000000e+000
      outer loop
         vertex 0.000000e+000 0.000000e+000 0.000000e+000
         vertex 7.798583e+000 4.439449e+000 0.000000e+000
         vertex 1.000000e+001 0.000000e+000 0.000000e+000
      endloop
   endfacet
   facet normal 0.000000e+000 0.000000e+000 -1.000000e+000
      outer loop
         vertex 1.000000e+001 0.000000e+000 0.000000e+000
         vertex 7.798583e+000 4.439449e+000 0.000000e+000
         vertex 8.008860e+000 4.383106e+000 0.000000e+000
      endloop
   endfacet
   facet normal 0.000000e+000 0.000000e+000 -1.000000e+000
      outer loop
         vertex 1.000000e+001 0.000000e+000 0.000000e+000
         vertex 8.008860e+000 4.383106e+000 0.000000e+000
         vertex 8.225726e+000 4.364132e+000 0.000000e+000
      endloop
   endfacet
   facet normal 0.000000e+000 0.000000e+000 -1.000000e+000
      outer loop
         vertex 7.422960e+000 6.569713e+000 0.000000e+000
         vertex 7.269027e+000 6.415779e+000 0.000000e+000
         vertex 0.000000e+000 1.000000e+001 0.000000e+000
      endloop
   endfacet
   facet normal 0.000000e+000 0.000000e+000 -1.000000e+000
      outer loop
         vertex 0.000000e+000 1.000000e+001 0.000000e+000
         vertex 7.269027e+000 6.415779e+000 0.000000e+000
         vertex 7.144163e+000 6.237455e+000 0.000000e+000
      endloop
   endfacet
   facet normal 0.000000e+000 0.000000e+000 -1.000000e+000
      outer loop
         vertex 0.000000e+000 1.000000e+001 0.000000e+000
         vertex 7.144163e+000 6.237455e+000 0.000000e+000
         vertex 7.052161e+000 6.040156e+000 0.000000e+000
      endloop
   endfacet
   facet normal 0.000000e+000 0.000000e+000 -1.000000e+000
      outer loop
         vertex 8.442592e+000 6.842922e+000 0.000000e+000
         vertex 8.225726e+000 6.861896e+000 0.000000e+000
         vertex 1.000000e+001 1.000000e+001 0.000000e+000
      endloop
   endfacet
   facet normal 0.000000e+000 0.000000e+000 -1.000000e+000
      outer loop
         vertex 1.000000e+001 1.000000e+001 0.000000e+000
         vertex 8.225726e+000 6.861896e+000 0.000000e+000
         vertex 8.008860e+000 6.842922e+000 0.000000e+000
      endloop
   endfacet
   facet normal 0.000000e+000 0.000000e+000 -1.000000e+000
      outer loop
         vertex 1.000000e+001 1.000000e+001 0.000000e+000
         vertex 8.008860e+000 6.842922e+000 0.000000e+000
         vertex 0.000000e+000 1.000000e+001 0.000000e+000
      endloop
   endfacet
   facet normal 0.000000e+000 0.000000e+000 -1.000000e+000
      outer loop
         vertex 0.000000e+000 1.000000e+001 0.000000e+000
         vertex 8.008860e+000 6.842922e+000 0.000000e+000
         vertex 7.798583e+000 6.786579e+000 0.000000e+000
      endloop
   endfacet
   facet normal 0.000000e+000 0.000000e+000 -1.000000e+000
      outer loop
         vertex 0.000000e+000 1.000000e+001 0.000000e+000
         vertex 7.798583e+000 6.786579e+000 0.000000e+000
         vertex 7.601285e+000 6.694577e+000 0.000000e+000
      endloop
   endfacet
   facet normal 0.000000e+000 1.000000e+000 0.000000e+000
      outer loop
         vertex 1.000000e+001 1.000000e+001 1.000000e+001
         vertex 1.000000e+001 1.000000e+001 0.000000e+000
         vertex 0.000000e+000 1.000000e+001 1.000000e+001
      endloop
   endfacet
   facet normal 0.000000e+000 1.000000e+000 0.000000e+000
      outer loop
         vertex 0.000000e+000 1.000000e+001 1.000000e+001
         vertex 1.000000e+001 1.000000e+001 0.000000e+000
         vertex 0.000000e+000 1.000000e+001 0.000000e+000
      endloop
   endfacet
   facet normal 0.000000e+000 -1.000000e+000 0.000000e+000
      outer loop
         vertex 1.000000e+001 0.000000e+000 0.000000e+000
         vertex 1.000000e+001 0.000000e+000 1.000000e+001
         vertex 0.000000e+000 0.000000e+000 0.000000e+000
      endloop
   endfacet
   facet normal 0.000000e+000 -1.000000e+000 0.000000e+000
      outer loop
         vertex 0.000000e+000 0.000000e+000 0.000000e+000
         vertex 1.000000e+001 0.000000e+000 1.000000e+001
         vertex 0.000000e+000 0.000000e+000 1.000000e+001
      endloop
   endfacet
   facet normal -9.983119e-001 5.807913e-002 0.000000e+000
      outer loop
         vertex 9.455634e+000 5.396148e+000 0.000000e+000
         vertex 9.474607e+000 5.613014e+000 1.000000e+001
         vertex 9.474607e+000 5.613014e+000 0.000000e+000
      endloop
   endfacet
   facet normal -9.983119e-001 -5.807913e-002 0.000000e+000
      outer loop
         vertex 9.474607e+000 5.613014e+000 0.000000e+000
         vertex 9.474607e+000 5.613014e+000 1.000000e+001
         vertex 9.455634e+000 5.829880e+000 1.000000e+001
      endloop
   endfacet
   facet normal -9.932307e-001 -1.161583e-001 0.000000e+000
      outer loop
         vertex 9.474607e+000 5.613014e+000 0.000000e+000
         vertex 9.455634e+000 5.829880e+000 1.000000e+001
         vertex 9.455634e+000 5.829880e+000 0.000000e+000
      endloop
   endfacet
   facet normal -9.730600e-001 -2.305519e-001 0.000000e+000
      outer loop
         vertex 9.455634e+000 5.829880e+000 0.000000e+000
         vertex 9.455634e+000 5.829880e+000 1.000000e+001
         vertex 9.399290e+000 6.040156e+000 1.000000e+001
      endloop
   endfacet
   facet normal -9.579706e-001 -2.868663e-001 0.000000e+000
      outer loop
         vertex 9.455634e+000 5.829880e+000 0.000000e+000
         vertex 9.399290e+000 6.040156e+000 1.000000e+001
         vertex 9.399290e+000 6.040156e+000 0.000000e+000
      endloop
   endfacet
   facet normal -9.182422e-001 -3.960194e-001 0.000000e+000
      outer loop
         vertex 9.399290e+000 6.040156e+000 0.000000e+000
         vertex 9.399290e+000 6.040156e+000 1.000000e+001
         vertex 9.307288e+000 6.237455e+000 1.000000e+001
      endloop
   endfacet
   facet normal -8.936031e-001 -4.488580e-001 0.000000e+000
      outer loop
         vertex 9.399290e+000 6.040156e+000 0.000000e+000
         vertex 9.307288e+000 6.237455e+000 1.000000e+001
         vertex 9.307288e+000 6.237455e+000 0.000000e+000
      endloop
   endfacet
   facet normal -8.355240e-001 -5.494540e-001 0.000000e+000
      outer loop
         vertex 9.307288e+000 6.237455e+000 0.000000e+000
         vertex 9.307288e+000 6.237455e+000 1.000000e+001
         vertex 9.182425e+000 6.415779e+000 1.000000e+001
      endloop
   endfacet
   facet normal -8.020838e-001 -5.972114e-001 0.000000e+000
      outer loop
         vertex 9.307288e+000 6.237455e+000 0.000000e+000
         vertex 9.182425e+000 6.415779e+000 1.000000e+001
         vertex 9.182425e+000 6.415779e+000 0.000000e+000
      endloop
   endfacet
   facet normal -7.274188e-001 -6.861938e-001 0.000000e+000
      outer loop
         vertex 9.182425e+000 6.415779e+000 0.000000e+000
         vertex 9.182425e+000 6.415779e+000 1.000000e+001
         vertex 9.028492e+000 6.569713e+000 1.000000e+001
      endloop
   endfacet
   facet normal -6.861938e-001 -7.274188e-001 0.000000e+000
      outer loop
         vertex 9.182425e+000 6.415779e+000 0.000000e+000
         vertex 9.028492e+000 6.569713e+000 1.000000e+001
         vertex 9.028492e+000 6.569713e+000 0.000000e+000
      endloop
   endfacet
   facet normal -5.972114e-001 -8.020838e-001 0.000000e+000
      outer loop
         vertex 9.028492e+000 6.569713e+000 0.000000e+000
         vertex 9.028492e+000 6.569713e+000 1.000000e+001
         vertex 8.850166e+000 6.694577e+000 1.000000e+001
      endloop
   endfacet
   facet normal -5.494540e-001 -8.355240e-001 0.000000e+000
      outer loop
         vertex 9.028492e+000 6.569713e+000 0.000000e+000
         vertex 8.850166e+000 6.694577e+000 1.000000e+001
         vertex 8.850166e+000 6.694577e+000 0.000000e+000
      endloop
   endfacet
   facet normal -4.488580e-001 -8.936031e-001 0.000000e+000
      outer loop
         vertex 8.850166e+000 6.694577e+000 0.000000e+000
         vertex 8.850166e+000 6.694577e+000 1.000000e+001
         vertex 8.652868e+000 6.786579e+000 1.000000e+001
      endloop
   endfacet
   facet normal -3.960194e-001 -9.182422e-001 0.000000e+000
      outer loop
         vertex 8.850166e+000 6.694577e+000 0.000000e+000
         vertex 8.652868e+000 6.786579e+000 1.000000e+001
         vertex 8.652868e+000 6.786579e+000 0.000000e+000
      endloop
   endfacet
   facet normal -2.868663e-001 -9.579706e-001 0.000000e+000
      outer loop
         vertex 8.652868e+000 6.786579e+000 0.000000e+000
         vertex 8.652868e+000 6.786579e+000 1.000000e+001
         vertex 8.442592e+000 6.842922e+000 1.000000e+001
      endloop
   endfacet
   facet normal -2.305519e-001 -9.730600e-001 0.000000e+000
      outer loop
         vertex 8.652868e+000 6.786579e+000 0.000000e+000
         vertex 8.442592e+000 6.842922e+000 1.000000e+001
         vertex 8.442592e+000 6.842922e+000 0.000000e+000
      endloop
   endfacet
   facet normal -1.161583e-001 -9.932307e-001 0.000000e+000
      outer loop
         vertex 8.442592e+000 6.842922e+000 0.000000e+000
         vertex 8.442592e+000 6.842922e+000 1.000000e+001
         vertex 8.225726e+000 6.861896e+000 1.000000e+001
      endloop
   endfacet
   facet normal -5.807913e-002 -9.983119e-001 0.000000e+000
      outer loop
         vertex 8.442592e+000 6.842922e+000 0.000000e+000
         vertex 8.225726e+000 6.861896e+000 1.000000e+001
         vertex 8.225726e+000 6.861896e+000 0.000000e+000
      endloop
   endfacet
   facet normal 5.807913e-002 -9.983119e-001 0.000000e+000
      outer loop
         vertex 8.225726e+000 6.861896e+000 0.000000e+000
         vertex 8.225726e+000 6.861896e+000 1.000000e+001
         vertex 8.008860e+000 6.842922e+000 1.000000e+001
      endloop
   endfacet
   facet normal 1.161583e-001 -9.932307e-001 0.000000e+000
      outer loop
         vertex 8.225726e+000 6.861896e+000 0.000000e+000
         vertex 8.008860e+000 6.842922e+000 1.000000e+001
         vertex 8.008860e+000 6.842922e+000 0.000000e+000
      endloop
   endfacet
   facet normal 2.305519e-001 -9.730600e-001 0.000000e+000
      outer loop
         vertex 8.008860e+000 6.842922e+000 0.000000e+000
         vertex 8.008860e+000 6.842922e+000 1.000000e+001
         vertex 7.798583e+000 6.786579e+000 1.000000e+001
      endloop
   endfacet
   facet normal 2.868663e-001 -9.579706e-001 0.000000e+000
      outer loop
         vertex 8.008860e+000 6.842922e+000 0.000000e+000
         vertex 7.798583e+000 6.786579e+000 1.000000e+001
         vertex 7.798583e+000 6.786579e+000 0.000000e+000
      endloop
   endfacet
   facet normal 3.960194e-001 -9.182422e-001 0.000000e+000
      outer loop
         vertex 7.798583e+000 6.786579e+000 0.000000e+000
         vertex 7.798583e+000 6.786579e+000 1.000000e+001
         vertex 7.601285e+000 6.694577e+000 1.000000e+001
      endloop
   endfacet
   facet normal 4.488580e-001 -8.936031e-001 0.000000e+000
      outer loop
         vertex 7.798583e+000 6.786579e+000 0.000000e+000
         vertex 7.601285e+000 6.694577e+000 1.000000e+001
         vertex 7.601285e+000 6.694577e+000 0.000000e+000
      endloop
   endfacet
   facet normal 5.494540e-001 -8.355240e-001 0.000000e+000
      outer loop
         vertex 7.601285e+000 6.694577e+000 0.000000e+000
         vertex 7.601285e+000 6.694577e+000 1.000000e+001
         vertex 7.422960e+000 6.569713e+000 1.000000e+001
      endloop
   endfacet
   facet normal 5.972114e-001 -8.020838e-001 0.000000e+000
      outer loop
         vertex 7.601285e+000 6.694577e+000 0.000000e+000
         vertex 7.422960e+000 6.569713e+000 1.000000e+001
         vertex 7.422960e+000 6.569713e+000 0.000000e+000
      endloop
   endfacet
   facet normal 6.861938e-001 -7.274188e-001 0.000000e+000
      outer loop
         vertex 7.422960e+000 6.569713e+000 0.000000e+000
         vertex 7.422960e+000 6.569713e+000 1.000000e+001
         vertex 7.269027e+000 6.415779e+000 1.000000e+001
      endloop
   endfacet
   facet normal 7.274188e-001 -6.861938e-001 0.000000e+000
      outer loop
         vertex 7.422960e+000 6.569713e+000 0.000000e+000
         vertex 7.269027e+000 6.415779e+000 1.000000e+001
         vertex 7.269027e+000 6.415779e+000 0.000000e+000
      endloop
   endfacet
   facet normal 8.020838e-001 -5.972114e-001 0.000000e+000
      outer loop
         vertex 7.269027e+000 6.415779e+000 0.000000e+000
         vertex 7.269027e+000 6.415779e+000 1.000000e+001
         vertex 7.144163e+000 6.237455e+000 1.000000e+001
      endloop
   endfacet
   facet normal 8.355240e-001 -5.494540e-001 0.000000e+000
      outer loop
         vertex 7.269027e+000 6.415779e+000 0.000000e+000
         vertex 7.144163e+000 6.237455e+000 1.000000e+001
         vertex 7.144163e+000 6.237455e+000 0.000000e+000
      endloop
   endfacet
   facet normal 8.936031e-001 -4.488580e-001 0.000000e+000
      outer loop
         vertex 7.144163e+000 6.237455e+000 0.000000e+000
         vertex 7.144163e+000 6.237455e+000 1.000000e+001
         vertex 7.052161e+000 6.040156e+000 1.000000e+001
      endloop
   endfacet
   facet normal 9.182422e-001 -3.960194e-001 0.000000e+000
      outer loop
         vertex 7.144163e+000 6.237455e+000 0.000000e+000
         vertex 7.052161e+000 6.040156e+000 1.000000e+001
         vertex 7.052161e+000 6.040156e+000 0.000000e+000
      endloop
   endfacet
   facet normal 9.579706e-001 -2.868663e-001 0.000000e+000
      outer loop
         vertex 7.052161e+000 6.040156e+000 0.000000e+000
         vertex 7.052161e+000 6.040156e+000 1.000000e+001
         vertex 6.995818e+000 5.829880e+000 1.000000e+001
      endloop
   endfacet
   facet normal 9.730600e-001 -2.305519e-001 0.000000e+000
      outer loop
         vertex 7.052161e+000 6.040156e+000 0.000000e+000
         vertex 6.995818e+000 5.829880e+000 1.000000e+001
         vertex 6.995818e+000 5.829880e+000 0.000000e+000
      endloop
   endfacet
   facet normal 9.932307e-001 -1.161583e-001 0.000000e+000
      outer loop
         vertex 6.995818e+000 5.829880e+000 0.000000e+000
         vertex 6.995818e+000 5.829880e+000 1.000000e+001
         vertex 6.976844e+000 5.613014e+000 1.000000e+001
      endloop
   endfacet
   facet normal 9.983119e-001 -5.807913e-002 0.000000e+000
      outer loop
         vertex 6.995818e+000 5.829880e+000 0.000000e+000
         vertex 6.976844e+000 5.613014e+000 1.000000e+001
         vertex 6.976844e+000 5.613014e+000 0.000000e+000
      endloop
   endfacet
   facet normal 9.983119e-001 5.807913e-002 0.000000e+000
      outer loop
         vertex 6.976844e+000 5.613014e+000 0.000000e+000
         vertex 6.976844e+000 5.613014e+000 1.000000e+001
         vertex 6.995818e+000 5.396148e+000 1.000000e+001
      endloop
   endfacet
   facet normal 9.932307e-001 1.161583e-001 0.000000e+000
      outer loop
         vertex 6.976844e+000 5.613014e+000 0.000000e+000
         vertex 6.995818e+000 5.396148e+000 1.000000e+001
         vertex 6.995818e+000 5.396148e+000 0.000000e+000
      endloop
   endfacet
   facet normal 9.730600e-001 2.305519e-001 0.000000e+000
      outer loop
         vertex 6.995818e+000 5.396148e+000 0.000000e+000
         vertex 6.995818e+000 5.396148e+000 1.000000e+001
         vertex 7.052161e+000 5.185872e+000 1.000000e+001
      endloop
   endfacet
   facet normal 9.579706e-001 2.868663e-001 0.000000e+000
      outer loop
         vertex 6.995818e+000 5.396148e+000 0.000000e+000
         vertex 7.052161e+000 5.185872e+000 1.000000e+001
         vertex 7.052161e+000 5.185872e+000 0.000000e+000
      endloop
   endfacet
   facet normal 9.182422e-001 3.960194e-001 0.000000e+000
      outer loop
         vertex 7.052161e+000 5.185872e+000 0.000000e+000
         vertex 7.052161e+000 5.185872e+000 1.000000e+001
         vertex 7.144163e+000 4.988573e+000 1.000000e+001
      endloop
   endfacet
   facet normal 8.936031e-001 4.488580e-001 0.000000e+000
      outer loop
         vertex 7.052161e+000 5.185872e+000 0.000000e+000
         vertex 7.144163e+000 4.988573e+000 1.000000e+001
         vertex 7.144163e+000 4.988573e+000 0.000000e+000
      endloop
   endfacet
   facet normal 8.355240e-001 5.494540e-001 0.000000e+000
      outer loop
         vertex 7.144163e+000 4.988573e+000 0.000000e+000
         vertex 7.144163e+000 4.988573e+000 1.000000e+001
         vertex 7.269027e+000 4.810248e+000 1.000000e+001
      endloop
   endfacet
   facet normal 8.020838e-001 5.972114e-001 0.000000e+000
      outer loop
         vertex 7.144163e+000 4.988573e+000 0.000000e+000
         vertex 7.269027e+000 4.810248e+000 1.000000e+001
         vertex 7.269027e+000 4.810248e+000 0.000000e+000
      endloop
   endfacet
   facet normal 7.274188e-001 6.861938e-001 0.000000e+000
      outer loop
         vertex 7.269027e+000 4.810248e+000 0.000000e+000
         vertex 7.269027e+000 4.810248e+000 1.000000e+001
         vertex 7.422960e+000 4.656315e+000 1.000000e+001
      endloop
   endfacet
   facet normal 6.861938e-001 7.274188e-001 0.000000e+000
      outer loop
         vertex 7.269027e+000 4.810248e+000 0.000000e+000
         vertex 7.422960e+000 4.656315e+000 1.000000e+001
         vertex 7.422960e+000 4.656315e+000 0.000000e+000
      endloop
   endfacet
   facet normal 5.972114e-001 8.020838e-001 0.000000e+000
      outer loop
         vertex 7.422960e+000 4.656315e+000 0.000000e+000
         vertex 7.422960e+000 4.656315e+000 1.000000e+001
         vertex 7.601285e+000 4.531451e+000 1.000000e+001
      endloop
   endfacet
   facet normal 5.494540e-001 8.355240e-001 0.000000e+000
      outer loop
         vertex 7.422960e+000 4.656315e+000 0.000000e+000
         vertex 7.601285e+000 4.531451e+000 1.000000e+001
         vertex 7.601285e+000 4.531451e+000 0.000000e+000
      endloop
   endfacet
   facet normal 4.488580e-001 8.936031e-001 0.000000e+000
      outer loop
         vertex 7.601285e+000 4.531451e+000 0.000000e+000
         vertex 7.601285e+000 4.531451e+000 1.000000e+001
         vertex 7.798583e+000 4.439449e+000 1.000000e+001
      endloop
   endfacet
   facet normal 3.960194e-001 9.182422e-001 0.000000e+000
      outer loop
         vertex 7.601285e+000 4.531451e+000 0.000000e+000
         vertex 7.798583e+000 4.439449e+000 1.000000e+001
         vertex 7.798583e+000 4.439449e+000 0.000000e+000
      endloop
   endfacet
   facet normal 2.868663e-001 9.579706e-001 0.000000e+000
      outer loop
         vertex 7.798583e+000 4.439449e+000 0.000000e+000
         vertex 7.798583e+000 4.439449e+000 1.000000e+001
         vertex 8.008860e+000 4.383106e+000 1.000000e+001
      endloop
   endfacet
   facet normal 2.305519e-001 9.730600e-001 0.000000e+000
      outer loop
         vertex 7.798583e+000 4.439449e+000 0.000000e+000
         vertex 8.008860e+000 4.383106e+000 1.000000e+001
         vertex 8.008860e+000 4.383106e+000 0.000000e+000
      endloop
   endfacet
   facet normal 1.161583e-001 9.932307e-001 0.000000e+000
      outer loop
         vertex 8.008860e+000 4.383106e+000 0.000000e+000
         vertex 8.008860e+000 4.383106e+000 1.000000e+001
         vertex 8.225726e+000 4.364132e+000 1.000000e+001
      endloop
   endfacet
   facet normal 5.807913e-002 9.983119e-001 0.000000e+000
      outer loop
         vertex 8.008860e+000 4.383106e+000 0.000000e+000
         vertex 8.225726e+000 4.364132e+000 1.000000e+001
         vertex 8.225726e+000 4.364132e+000 0.000000e+000
      endloop
   endfacet
   facet normal -5.807913e-002 9.983119e-001 0.000000e+000
      outer loop
         vertex 8.225726e+000 4.364132e+000 0.000000e+000
         vertex 8.225726e+000 4.364132e+000 1.000000e+001
         vertex 8.442592e+000 4.383106e+000 1.000000e+001
      endloop
   endfacet
   facet normal -1.161583e-001 9.932307e-001 0.000000e+000
      outer loop
         vertex 8.225726e+000 4.364132e+000 0.000000e+000
         vertex 8.442592e+000 4.383106e+000 1.000000e+001
         vertex 8.442592e+000 4.383106e+000 0.000000e+000
      endloop
   endfacet
   facet normal -2.305519e-001 9.730600e-001 0.000000e+000
      outer loop
         vertex 8.442592e+000 4.383106e+000 0.000000e+000
         vertex 8.442592e+000 4.383106e+000 1.000000e+001
         vertex 8.652868e+000 4.439449e+000 1.000000e+001
      endloop
   endfacet
   facet normal -2.868663e-001 9.579706e-001 0.000000e+000
      outer loop
         vertex 8.442592e+000 4.383106e+000 0.000000e+000
         vertex 8.652868e+000 4.439449e+000 1.000000e+001
         vertex 8.652868e+000 4.439449e+000 0.000000e+000
      endloop
   endfacet
   facet normal -3.960194e-001 9.182422e-001 0.000000e+000
      outer loop
         vertex 8.652868e+000 4.439449e+000 0.000000e+000
         vertex 8.652868e+000 4.439449e+000 1.000000e+001
         vertex 8.850166e+000 4.531451e+000 1.000000e+001
      endloop
   endfacet
   facet normal -4.488580e-001 8.936031e-001 0.000000e+000
      outer loop
         vertex 8.652868e+000 4.439449e+000 0.000000e+000
         vertex 8.850166e+000 4.531451e+000 1.000000e+001
         vertex 8.850166e+000 4.531451e+000 0.000000e+000
      endloop
   endfacet
   facet normal -5.494540e-001 8.355240e-001 0.000000e+000
      outer loop
         vertex 8.850166e+000 4.531451e+000 0.000000e+000
         vertex 8.850166e+000 4.531451e+000 1.000000e+001
         vertex 9.028492e+000 4.656315e+000 1.000000e+001
      endloop
   endfacet
   facet normal -5.972114e-001 8.020838e-001 0.000000e+000
      outer loop
         vertex 8.850166e+000 4.531451e+000 0.000000e+000
         vertex 9.028492e+000 4.656315e+000 1.000000e+001
         vertex 9.028492e+000 4.656315e+000 0.000000e+000
      endloop
   endfacet
   facet normal -6.861938e-001 7.274188e-001 0.000000e+000
      outer loop
         vertex 9.028492e+000 4.656315e+000 0.000000e+000
         vertex 9.028492e+000 4.656315e+000 1.000000e+001
         vertex 9.182425e+000 4.810248e+000 1.000000e+001
      endloop
   endfacet
   facet normal -7.274188e-001 6.861938e-001 0.000000e+000
      outer loop
         vertex 9.028492e+000 4.656315e+000 0.000000e+000
         vertex 9.182425e+000 4.810248e+000 1.000000e+001
         vertex 9.182425e+000 4.810248e+000 0.000000e+000
      endloop
   endfacet
   facet normal -8.020838e-001 5.972114e-001 0.000000e+000
      outer loop
         vertex 9.182425e+000 4.810248e+000 0.000000e+000
         vertex 9.182425e+000 4.810248e+000 1.000000e+001
         vertex 9.307288e+000 4.988573e+000 1.000000e+001
      endloop
   endfacet
   facet normal -8.355240e-001 5.494540e-001 0.000000e+000
      outer loop
         vertex 9.182425e+000 4.810248e+000 0.000000e+000
         vertex 9.307288e+000 4.988573e+000 1.000000e+001
         vertex 9.307288e+000 4.988573e+000 0.000000e+000
      endloop
   endfacet
   facet normal -8.936031e-001 4.488580e-001 0.000000e+000
      outer loop
         vertex 9.307288e+000 4.988573e+000 0.000000e+000
         vertex 9.307288e+000 4.988573e+000 1.000000e+001
         vertex 9.399290e+000 5.185872e+000 1.000000e+001
      endloop
   endfacet
   facet normal -9.182422e-001 3.960194e-001 0.000000e+000
      outer loop
         vertex 9.307288e+000 4.988573e+000 0.000000e+000
         vertex 9.399290e+000 5.185872e+000 1.000000e+001
         vertex 9.399290e+000 5.185872e+000 0.000000e+000
      endloop
   endfacet
   facet normal -9.579706e-001 2.868663e-001 0.000000e+000
      outer loop
         vertex 9.399290e+000 5.185872e+000 0.000000e+000
         vertex 9.399290e+000 5.185872e+000 1.000000e+001
         vertex 9.455634e+000 5.396148e+000 1.000000e+001
      endloop
   endfacet
   facet normal -9.730600e-001 2.305519e-001 0.000000e+000
      outer loop
         vertex 9.399290e+000 5.185872e+000 0.000000e+000
         vertex 9.455634e+000 5.396148e+000 1.000000e+001
         vertex 9.455634e+000 5.396148e+000 0.000000e+000
      endloop
   endfacet
   facet normal -9.932307e-001 1.161583e-001 0.000000e+000
      outer loop
         vertex 9.455634e+000 5.396148e+000 0.000000e+000
         vertex 9.455634e+000 5.396148e+000 1.000000e+001
         vertex 9.474607e+000 5.613014e+000 1.000000e+001
      endloop
   endfacet
endsolid