solid 3_385
   facet normal -1.000000e+000 0.000000e+000 0.000000e+000
      outer loop
         vertex 0.000000e+000 1.000000e+001 1.000000e+001
         vertex 0.000000e+000 1.000000e+001 0.000000e+000
         vertex 0.000000e+000 0.000000e+000 1.000000e+001
      endloop
   endfacet
   facet normal -1.000000e+000 0.000000e+000 0.000000e+000
      outer loop
         vertex 0.000000e+000 0.000000e+000 1.000000e+001
         vertex 0.000000e+000 1.000000e+001 0.000000e+000
         vertex 0.000000e+000 0.000000e+000 0.000000e+000
      endloop
   endfacet
   facet normal 0.000000e+000 0.000000e+000 1.000000e+000
      outer loop
         vertex 8.221181e+000 3.610060e+000 1.000000e+001
         vertex 8.065285e+000 3.202454e+000 1.000000e+001
         vertex 1.000000e+001 0.000000e+000 1.000000e+001
      endloop
   endfacet
   facet normal 0.000000e+000 0.000000e+000 1.000000e+000
      outer loop
         vertex 7.270818e+000 6.768932e+000 1.000000e+001
         vertex 7.584985e+000 6.466037e+000 1.000000e+001
         vertex 1.000000e+001 1.000000e+001 1.000000e+001
      endloop
   endfacet
   facet normal 0.000000e+000 0.000000e+000 1.000000e+000
      outer loop
         vertex 8.065285e+000 3.202454e+000 1.000000e+001
         vertex 7.851702e+000 2.821890e+000 1.000000e+001
         vertex 1.000000e+001 0.000000e+000 1.000000e+001
      endloop
   endfacet
   facet normal 0.000000e+000 0.000000e+000 1.000000e+000
      outer loop
         vertex 1.000000e+001 0.000000e+000 1.000000e+001
         vertex 7.851702e+000 2.821890e+000 1.000000e+001
         vertex 7.584985e+000 2.476480e+000 1.000000e+001
      endloop
   endfacet
   facet normal 0.000000e+000 0.000000e+000 1.000000e+000
      outer loop
         vertex 1.000000e+001 0.000000e+000 1.000000e+001
         vertex 7.584985e+000 2.476480e+000 1.000000e+001
         vertex 7.270818e+000 2.173585e+000 1.000000e+001
      endloop
   endfacet
   facet normal 0.000000e+000 0.000000e+000 1.000000e+000
      outer loop
         vertex 7.270818e+000 2.173585e+000 1.000000e+001
         vertex 6.915897e+000 1.919661e+000 1.000000e+001
         vertex 1.000000e+001 0.000000e+000 1.000000e+001
      endloop
   endfacet
   facet normal 0.000000e+000 0.000000e+000 1.000000e+000
      outer loop
         vertex 1.000000e+001 0.000000e+000 1.000000e+001
         vertex 6.915897e+000 1.919661e+000 1.000000e+001
         vertex 6.527787e+000 1.720119e+000 1.000000e+001
      endloop
   endfacet
   facet normal 0.000000e+000 0.000000e+000 1.000000e+000
      outer loop
         vertex 1.000000e+001 0.000000e+000 1.000000e+001
         vertex 6.527787e+000 1.720119e+000 1.000000e+001
         vertex 6.114759e+000 1.579214e+000 1.000000e+001
      endloop
   endfacet
   facet normal 0.000000e+000 0.000000e+000 1.000000e+000
      outer loop
         vertex 7.584985e+000 6.466037e+000 1.000000e+001
         vertex 7.851702e+000 6.120626e+000 1.000000e+001
         vertex 1.000000e+001 1.000000e+001 1.000000e+001
      endloop
   endfacet
   facet normal 0.000000e+000 0.000000e+000 1.000000e+000
      outer loop
         vertex 1.000000e+001 1.000000e+001 1.000000e+001
         vertex 7.851702e+000 6.120626e+000 1.000000e+001
         vertex 8.065285e+000 5.740063e+000 1.000000e+001
      endloop
   endfacet
   facet normal 0.000000e+000 0.000000e+000 1.000000e+000
      outer loop
         vertex 1.000000e+001 1.000000e+001 1.000000e+001
         vertex 8.065285e+000 5.740063e+000 1.000000e+001
         vertex 8.221181e+000 5.332457e+000 1.000000e+001
      endloop
   endfacet
   facet normal 0.000000e+000 0.000000e+000 1.000000e+000
      outer loop
         vertex 8.221181e+000 5.332457e+000 1.000000e+001
         vertex 8.316068e+000 4.906496e+000 1.000000e+001
         vertex 1.000000e+001 1.000000e+001 1.000000e+001
      endloop
   endfacet
   facet normal 0.000000e+000 0.000000e+000 1.000000e+000
      outer loop
         vertex 1.000000e+001 1.000000e+001 1.000000e+001
         vertex 8.316068e+000 4.906496e+000 1.000000e+001
         vertex 8.347923e+000 4.471258e+000 1.000000e+001
      endloop
   endfacet
   facet normal 0.000000e+000 0.000000e+000 1.000000e+000
      outer loop
         vertex 1.000000e+001 1.000000e+001 1.000000e+001
         vertex 8.347923e+000 4.471258e+000 1.000000e+001
         vertex 1.000000e+001 0.000000e+000 1.000000e+001
      endloop
   endfacet
   facet normal 0.000000e+000 0.000000e+000 1.000000e+000
      outer loop
         vertex 1.000000e+001 0.000000e+000 1.000000e+001
         vertex 8.347923e+000 4.471258e+000 1.000000e+001
         vertex 8.316068e+000 4.036021e+000 1.000000e+001
      endloop
   endfacet
   facet normal 0.000000e+000 0.000000e+000 1.000000e+000
      outer loop
         vertex 1.000000e+001 0.000000e+000 1.000000e+001
         vertex 8.316068e+000 4.036021e+000 1.000000e+001
         vertex 8.221181e+000 3.610060e+000 1.000000e+001
      endloop
   endfacet
   facet normal 0.000000e+000 0.000000e+000 1.000000e+000
      outer loop
         vertex 6.114759e+000 1.579214e+000 1.000000e+001
         vertex 5.685617e+000 1.499947e+000 1.000000e+001
         vertex 1.000000e+001 0.000000e+000 1.000000e+001
      endloop
   endfacet
   facet normal 0.000000e+000 0.000000e+000 1.000000e+000
      outer loop
         vertex 1.000000e+001 0.000000e+000 1.000000e+001
         vertex 5.685617e+000 1.499947e+000 1.000000e+001
         vertex 5.249506e+000 1.484009e+000 1.000000e+001
      endloop
   endfacet
   facet normal 0.000000e+000 0.000000e+000 1.000000e+000
      outer loop
         vertex 1.000000e+001 0.000000e+000 1.000000e+001
         vertex 5.249506e+000 1.484009e+000 1.000000e+001
         vertex 0.000000e+000 0.000000e+000 1.000000e+001
      endloop
   endfacet
   facet normal 0.000000e+000 0.000000e+000 1.000000e+000
      outer loop
         vertex 0.000000e+000 0.000000e+000 1.000000e+001
         vertex 5.249506e+000 1.484009e+000 1.000000e+001
         vertex 4.815723e+000 1.531739e+000 1.000000e+001
      endloop
   endfacet
   facet normal 0.000000e+000 0.000000e+000 1.000000e+000
      outer loop
         vertex 0.000000e+000 0.000000e+000 1.000000e+001
         vertex 4.815723e+000 1.531739e+000 1.000000e+001
         vertex 4.393511e+000 1.642119e+000 1.000000e+001
      endloop
   endfacet
   facet normal 0.000000e+000 0.000000e+000 1.000000e+000
      outer loop
         vertex 3.991871e+000 7.129719e+000 1.000000e+001
         vertex 4.393511e+000 7.300397e+000 1.000000e+001
         vertex 0.000000e+000 1.000000e+001 1.000000e+001
      endloop
   endfacet
   facet normal 0.000000e+000 0.000000e+000 1.000000e+000
      outer loop
         vertex 4.393511e+000 1.642119e+000 1.000000e+001
         vertex 3.991871e+000 1.812798e+000 1.000000e+001
         vertex 0.000000e+000 0.000000e+000 1.000000e+001
      endloop
   endfacet
   facet normal 0.000000e+000 0.000000e+000 1.000000e+000
      outer loop
         vertex 0.000000e+000 0.000000e+000 1.000000e+001
         vertex 3.991871e+000 1.812798e+000 1.000000e+001
         vertex 3.619361e+000 2.040137e+000 1.000000e+001
      endloop
   endfacet
   facet normal 0.000000e+000 0.000000e+000 1.000000e+000
      outer loop
         vertex 0.000000e+000 0.000000e+000 1.000000e+001
         vertex 3.619361e+000 2.040137e+000 1.000000e+001
         vertex 3.283923e+000 2.319291e+000 1.000000e+001
      endloop
   endfacet
   facet normal 0.000000e+000 0.000000e+000 1.000000e+000
      outer loop
         vertex 3.283923e+000 2.319291e+000 1.000000e+001
         vertex 2.992704e+000 2.644311e+000 1.000000e+001
         vertex 0.000000e+000 0.000000e+000 1.000000e+001
      endloop
   endfacet
   facet normal 0.000000e+000 0.000000e+000 1.000000e+000
      outer loop
         vertex 0.000000e+000 0.000000e+000 1.000000e+001
         vertex 2.992704e+000 2.644311e+000 1.000000e+001
         vertex 2.751911e+000 3.008269e+000 1.000000e+001
      endloop
   endfacet
   facet normal 0.000000e+000 0.000000e+000 1.000000e+000
      outer loop
         vertex 0.000000e+000 0.000000e+000 1.000000e+001
         vertex 2.751911e+000 3.008269e+000 1.000000e+001
         vertex 2.566678e+000 3.403408e+000 1.000000e+001
      endloop
   endfacet
   facet normal 0.000000e+000 0.000000e+000 1.000000e+000
      outer loop
         vertex 2.440951e+000 5.121210e+000 1.000000e+001
         vertex 2.566678e+000 5.539109e+000 1.000000e+001
         vertex 0.000000e+000 1.000000e+001 1.000000e+001
      endloop
   endfacet
   facet normal 0.000000e+000 0.000000e+000 1.000000e+000
      outer loop
         vertex 0.000000e+000 1.000000e+001 1.000000e+001
         vertex 2.566678e+000 5.539109e+000 1.000000e+001
         vertex 2.751911e+000 5.934248e+000 1.000000e+001
      endloop
   endfacet
   facet normal 0.000000e+000 0.000000e+000 1.000000e+000
      outer loop
         vertex 0.000000e+000 1.000000e+001 1.000000e+001
         vertex 2.751911e+000 5.934248e+000 1.000000e+001
         vertex 2.992704e+000 6.298205e+000 1.000000e+001
      endloop
   endfacet
   facet normal 0.000000e+000 0.000000e+000 1.000000e+000
      outer loop
         vertex 2.992704e+000 6.298205e+000 1.000000e+001
         vertex 3.283923e+000 6.623225e+000 1.000000e+001
         vertex 0.000000e+000 1.000000e+001 1.000000e+001
      endloop
   endfacet
   facet normal 0.000000e+000 0.000000e+000 1.000000e+000
      outer loop
         vertex 0.000000e+000 1.000000e+001 1.000000e+001
         vertex 3.283923e+000 6.623225e+000 1.000000e+001
         vertex 3.619361e+000 6.902380e+000 1.000000e+001
      endloop
   endfacet
   facet normal 0.000000e+000 0.000000e+000 1.000000e+000
      outer loop
         vertex 0.000000e+000 1.000000e+001 1.000000e+001
         vertex 3.619361e+000 6.902380e+000 1.000000e+001
         vertex 3.991871e+000 7.129719e+000 1.000000e+001
      endloop
   endfacet
   facet normal 0.000000e+000 0.000000e+000 1.000000e+000
      outer loop
         vertex 6.114759e+000 7.363303e+000 1.000000e+001
         vertex 6.527787e+000 7.222397e+000 1.000000e+001
         vertex 1.000000e+001 1.000000e+001 1.000000e+001
      endloop
   endfacet
   facet normal 0.000000e+000 0.000000e+000 1.000000e+000
      outer loop
         vertex 1.000000e+001 1.000000e+001 1.000000e+001
         vertex 6.527787e+000 7.222397e+000 1.000000e+001
         vertex 6.915897e+000 7.022856e+000 1.000000e+001
      endloop
   endfacet
   facet normal 0.000000e+000 0.000000e+000 1.000000e+000
      outer loop
         vertex 1.000000e+001 1.000000e+001 1.000000e+001
         vertex 6.915897e+000 7.022856e+000 1.000000e+001
         vertex 7.270818e+000 6.768932e+000 1.000000e+001
      endloop
   endfacet
   facet normal 0.000000e+000 0.000000e+000 1.000000e+000
      outer loop
         vertex 2.566678e+000 3.403408e+000 1.000000e+001
         vertex 2.440951e+000 3.821307e+000 1.000000e+001
         vertex 0.000000e+000 0.000000e+000 1.000000e+001
      endloop
   endfacet
   facet normal 0.000000e+000 0.000000e+000 1.000000e+000
      outer loop
         vertex 0.000000e+000 0.000000e+000 1.000000e+001
         vertex 2.440951e+000 3.821307e+000 1.000000e+001
         vertex 2.377410e+000 4.253057e+000 1.000000e+001
      endloop
   endfacet
   facet normal 0.000000e+000 0.000000e+000 1.000000e+000
      outer loop
         vertex 0.000000e+000 0.000000e+000 1.000000e+001
         vertex 2.377410e+000 4.253057e+000 1.000000e+001
         vertex 0.000000e+000 1.000000e+001 1.000000e+001
      endloop
   endfacet
   facet normal 0.000000e+000 0.000000e+000 1.000000e+000
      outer loop
         vertex 0.000000e+000 1.000000e+001 1.000000e+001
         vertex 2.377410e+000 4.253057e+000 1.000000e+001
         vertex 2.377410e+000 4.689459e+000 1.000000e+001
      endloop
   endfacet
   facet normal 0.000000e+000 0.000000e+000 1.000000e+000
      outer loop
         vertex 0.000000e+000 1.000000e+001 1.000000e+001
         vertex 2.377410e+000 4.689459e+000 1.000000e+001
         vertex 2.440951e+000 5.121210e+000 1.000000e+001
      endloop
   endfacet
   facet normal 0.000000e+000 0.000000e+000 1.000000e+000
      outer loop
         vertex 4.393511e+000 7.300397e+000 1.000000e+001
         vertex 4.815723e+000 7.410778e+000 1.000000e+001
         vertex 0.000000e+000 1.000000e+001 1.000000e+001
      endloop
   endfacet
   facet normal 0.000000e+000 0.000000e+000 1.000000e+000
      outer loop
         vertex 0.000000e+000 1.000000e+001 1.000000e+001
         vertex 4.815723e+000 7.410778e+000 1.000000e+001
         vertex 5.249506e+000 7.458508e+000 1.000000e+001
      endloop
   endfacet
   facet normal 0.000000e+000 0.000000e+000 1.000000e+000
      outer loop
         vertex 0.000000e+000 1.000000e+001 1.000000e+001
         vertex 5.249506e+000 7.458508e+000 1.000000e+001
         vertex 1.000000e+001 1.000000e+001 1.000000e+001
      endloop
   endfacet
   facet normal 0.000000e+000 0.000000e+000 1.000000e+000
      outer loop
         vertex 1.000000e+001 1.000000e+001 1.000000e+001
         vertex 5.249506e+000 7.458508e+000 1.000000e+001
         vertex 5.685617e+000 7.442569e+000 1.000000e+001
      endloop
   endfacet
   facet normal 0.000000e+000 0.000000e+000 1.000000e+000
      outer loop
         vertex 1.000000e+001 1.000000e+001 1.000000e+001
         vertex 5.685617e+000 7.442569e+000 1.000000e+001
         vertex 6.114759e+000 7.363303e+000 1.000000e+001
      endloop
   endfacet
   facet normal 1.000000e+000 0.000000e+000 0.000000e+000
      outer loop
         vertex 1.000000e+001 1.000000e+001 0.000000e+000
         vertex 1.000000e+001 1.000000e+001 1.000000e+001
         vertex 1.000000e+001 0.000000e+000 0.000000e+000
      endloop
   endfacet
   facet normal 1.000000e+000 0.000000e+000 0.000000e+000
      outer loop
         vertex 1.000000e+001 0.000000e+000 0.000000e+000
         vertex 1.000000e+001 1.000000e+001 1.000000e+001
         vertex 1.000000e+001 0.000000e+000 1.000000e+001
      endloop
   endfacet
   facet normal 0.000000e+000 0.000000e+000 -1.000000e+000
      outer loop
         vertex 6.114759e+000 1.579214e+000 0.000000e+000
         vertex 6.527787e+000 1.720119e+000 0.000000e+000
         vertex 1.000000e+001 0.000000e+000 0.000000e+000
      endloop
   endfacet
   facet normal 0.000000e+000 0.000000e+000 -1.000000e+000
      outer loop
         vertex 6.527787e+000 1.720119e+000 0.000000e+000
         vertex 6.915897e+000 1.919661e+000 0.000000e+000
         vertex 1.000000e+001 0.000000e+000 0.000000e+000
      endloop
   endfacet
   facet normal 0.000000e+000 0.000000e+000 -1.000000e+000
      outer loop
         vertex 1.000000e+001 0.000000e+000 0.000000e+000
         vertex 6.915897e+000 1.919661e+000 0.000000e+000
         vertex 7.270818e+000 2.173585e+000 0.000000e+000
      endloop
   endfacet
   facet normal 0.000000e+000 0.000000e+000 -1.000000e+000
      outer loop
         vertex 1.000000e+001 0.000000e+000 0.000000e+000
         vertex 7.270818e+000 2.173585e+000 0.000000e+000
         vertex 7.584985e+000 2.476480e+000 0.000000e+000
      endloop
   endfacet
   facet normal 0.000000e+000 0.000000e+000 -1.000000e+000
      outer loop
         vertex 0.000000e+000 0.000000e+000 0.000000e+000
         vertex 3.991871e+000 1.812798e+000 0.000000e+000
         vertex 4.393511e+000 1.642119e+000 0.000000e+000
      endloop
   endfacet
   facet normal 0.000000e+000 0.000000e+000 -1.000000e+000
      outer loop
         vertex 2.440951e+000 3.821307e+000 0.000000e+000
         vertex 2.566678e+000 3.403408e+000 0.000000e+000
         vertex 0.000000e+000 0.000000e+000 0.000000e+000
      endloop
   endfacet
   facet normal 0.000000e+000 0.000000e+000 -1.000000e+000
      outer loop
         vertex 0.000000e+000 0.000000e+000 0.000000e+000
         vertex 2.566678e+000 3.403408e+000 0.000000e+000
         vertex 2.751911e+000 3.008269e+000 0.000000e+000
      endloop
   endfacet
   facet normal 0.000000e+000 0.000000e+000 -1.000000e+000
      outer loop
         vertex 0.000000e+000 0.000000e+000 0.000000e+000
         vertex 2.751911e+000 3.008269e+000 0.000000e+000
         vertex 2.992704e+000 2.644311e+000 0.000000e+000
      endloop
   endfacet
   facet normal 0.000000e+000 0.000000e+000 -1.000000e+000
      outer loop
         vertex 2.992704e+000 2.644311e+000 0.000000e+000
         vertex 3.283923e+000 2.319291e+000 0.000000e+000
         vertex 0.000000e+000 0.000000e+000 0.000000e+000
      endloop
   endfacet
   facet normal 0.000000e+000 0.000000e+000 -1.000000e+000
      outer loop
         vertex 0.000000e+000 0.000000e+000 0.000000e+000
         vertex 3.283923e+000 2.319291e+000 0.000000e+000
         vertex 3.619361e+000 2.040137e+000 0.000000e+000
      endloop
   endfacet
   facet normal 0.000000e+000 0.000000e+000 -1.000000e+000
      outer loop
         vertex 0.000000e+000 0.000000e+000 0.000000e+000
         vertex 3.619361e+000 2.040137e+000 0.000000e+000
         vertex 3.991871e+000 1.812798e+000 0.000000e+000
      endloop
   endfacet
   facet normal 0.000000e+000 0.000000e+000 -1.000000e+000
      outer loop
         vertex 4.393511e+000 1.642119e+000 0.000000e+000
         vertex 4.815723e+000 1.531739e+000 0.000000e+000
         vertex 0.000000e+000 0.000000e+000 0.000000e+000
      endloop
   endfacet
   facet normal 0.000000e+000 0.000000e+000 -1.000000e+000
      outer loop
         vertex 0.000000e+000 0.000000e+000 0.000000e+000
         vertex 4.815723e+000 1.531739e+000 0.000000e+000
         vertex 5.249506e+000 1.484009e+000 0.000000e+000
      endloop
   endfacet
   facet normal 0.000000e+000 0.000000e+000 -1.000000e+000
      outer loop
         vertex 0.000000e+000 0.000000e+000 0.000000e+000
         vertex 5.249506e+000 1.484009e+000 0.000000e+000
         vertex 1.000000e+001 0.000000e+000 0.000000e+000
      endloop
   endfacet
   facet normal 0.000000e+000 0.000000e+000 -1.000000e+000
      outer loop
         vertex 1.000000e+001 0.000000e+000 0.000000e+000
         vertex 5.249506e+000 1.484009e+000 0.000000e+000
         vertex 5.685617e+000 1.499947e+000 0.000000e+000
      endloop
   endfacet
   facet normal 0.000000e+000 0.000000e+000 -1.000000e+000
      outer loop
         vertex 1.000000e+001 0.000000e+000 0.000000e+000
         vertex 5.685617e+000 1.499947e+000 0.000000e+000
         vertex 6.114759e+000 1.579214e+000 0.000000e+000
      endloop
   endfacet
   facet normal 0.000000e+000 0.000000e+000 -1.000000e+000
      outer loop
         vertex 7.584985e+000 2.476480e+000 0.000000e+000
         vertex 7.851702e+000 2.821890e+000 0.000000e+000
         vertex 1.000000e+001 0.000000e+000 0.000000e+000
      endloop
   endfacet
   facet normal 0.000000e+000 0.000000e+000 -1.000000e+000
      outer loop
         vertex 1.000000e+001 0.000000e+000 0.000000e+000
         vertex 7.851702e+000 2.821890e+000 0.000000e+000
         vertex 8.065285e+000 3.202454e+000 0.000000e+000
      endloop
   endfacet
   facet normal 0.000000e+000 0.000000e+000 -1.000000e+000
      outer loop
         vertex 1.000000e+001 0.000000e+000 0.000000e+000
         vertex 8.065285e+000 3.202454e+000 0.000000e+000
         vertex 8.221181e+000 3.610060e+000 0.000000e+000
      endloop
   endfacet
   facet normal 0.000000e+000 0.000000e+000 -1.000000e+000
      outer loop
         vertex 8.221181e+000 5.332457e+000 0.000000e+000
         vertex 8.065285e+000 5.740063e+000 0.000000e+000
         vertex 1.000000e+001 1.000000e+001 0.000000e+000
      endloop
   endfacet
   facet normal 0.000000e+000 0.000000e+000 -1.000000e+000
      outer loop
         vertex 1.000000e+001 1.000000e+001 0.000000e+000
         vertex 8.065285e+000 5.740063e+000 0.000000e+000
         vertex 7.851702e+000 6.120626e+000 0.000000e+000
      endloop
   endfacet
   facet normal 0.000000e+000 0.000000e+000 -1.000000e+000
      outer loop
         vertex 1.000000e+001 1.000000e+001 0.000000e+000
         vertex 7.851702e+000 6.120626e+000 0.000000e+000
         vertex 7.584985e+000 6.466037e+000 0.000000e+000
      endloop
   endfacet
   facet normal 0.000000e+000 0.000000e+000 -1.000000e+000
      outer loop
         vertex 0.000000e+000 1.000000e+001 0.000000e+000
         vertex 2.751911e+000 5.934248e+000 0.000000e+000
         vertex 2.566678e+000 5.539109e+000 0.000000e+000
      endloop
   endfacet
   facet normal 0.000000e+000 0.000000e+000 -1.000000e+000
      outer loop
         vertex 8.221181e+000 3.610060e+000 0.000000e+000
         vertex 8.316068e+000 4.036021e+000 0.000000e+000
         vertex 1.000000e+001 0.000000e+000 0.000000e+000
      endloop
   endfacet
   facet normal 0.000000e+000 0.000000e+000 -1.000000e+000
      outer loop
         vertex 1.000000e+001 0.000000e+000 0.000000e+000
         vertex 8.316068e+000 4.036021e+000 0.000000e+000
         vertex 8.347923e+000 4.471258e+000 0.000000e+000
      endloop
   endfacet
   facet normal 0.000000e+000 0.000000e+000 -1.000000e+000
      outer loop
         vertex 1.000000e+001 0.000000e+000 0.000000e+000
         vertex 8.347923e+000 4.471258e+000 0.000000e+000
         vertex 1.000000e+001 1.000000e+001 0.000000e+000
      endloop
   endfacet
   facet normal 0.000000e+000 0.000000e+000 -1.000000e+000
      outer loop
         vertex 1.000000e+001 1.000000e+001 0.000000e+000
         vertex 8.347923e+000 4.471258e+000 0.000000e+000
         vertex 8.316068e+000 4.906496e+000 0.000000e+000
      endloop
   endfacet
   facet normal 0.000000e+000 0.000000e+000 -1.000000e+000
      outer loop
         vertex 1.000000e+001 1.000000e+001 0.000000e+000
         vertex 8.316068e+000 4.906496e+000 0.000000e+000
         vertex 8.221181e+000 5.332457e+000 0.000000e+000
      endloop
   endfacet
   facet normal 0.000000e+000 0.000000e+000 -1.000000e+000
      outer loop
         vertex 7.584985e+000 6.466037e+000 0.000000e+000
         vertex 7.270818e+000 6.768932e+000 0.000000e+000
         vertex 1.000000e+001 1.000000e+001 0.000000e+000
      endloop
   endfacet
   facet normal 0.000000e+000 0.000000e+000 -1.000000e+000
      outer loop
         vertex 1.000000e+001 1.000000e+001 0.000000e+000
         vertex 7.270818e+000 6.768932e+000 0.000000e+000
         vertex 6.915897e+000 7.022856e+000 0.000000e+000
      endloop
   endfacet
   facet normal 0.000000e+000 0.000000e+000 -1.000000e+000
      outer loop
         vertex 1.000000e+001 1.000000e+001 0.000000e+000
         vertex 6.915897e+000 7.022856e+000 0.000000e+000
         vertex 6.527787e+000 7.222397e+000 0.000000e+000
      endloop
   endfacet
   facet normal 0.000000e+000 0.000000e+000 -1.000000e+000
      outer loop
         vertex 4.815723e+000 7.410778e+000 0.000000e+000
         vertex 4.393511e+000 7.300397e+000 0.000000e+000
         vertex 0.000000e+000 1.000000e+001 0.000000e+000
      endloop
   endfacet
   facet normal 0.000000e+000 0.000000e+000 -1.000000e+000
      outer loop
         vertex 0.000000e+000 1.000000e+001 0.000000e+000
         vertex 4.393511e+000 7.300397e+000 0.000000e+000
         vertex 3.991871e+000 7.129719e+000 0.000000e+000
      endloop
   endfacet
   facet normal 0.000000e+000 0.000000e+000 -1.000000e+000
      outer loop
         vertex 0.000000e+000 1.000000e+001 0.000000e+000
         vertex 3.991871e+000 7.129719e+000 0.000000e+000
         vertex 3.619361e+000 6.902380e+000 0.000000e+000
      endloop
   endfacet
   facet normal 0.000000e+000 0.000000e+000 -1.000000e+000
      outer loop
         vertex 3.619361e+000 6.902380e+000 0.000000e+000
         vertex 3.283923e+000 6.623225e+000 0.000000e+000
         vertex 0.000000e+000 1.000000e+001 0.000000e+000
      endloop
   endfacet
   facet normal 0.000000e+000 0.000000e+000 -1.000000e+000
      outer loop
         vertex 0.000000e+000 1.000000e+001 0.000000e+000
         vertex 3.283923e+000 6.623225e+000 0.000000e+000
         vertex 2.992704e+000 6.298205e+000 0.000000e+000
      endloop
   endfacet
   facet normal 0.000000e+000 0.000000e+000 -1.000000e+000
      outer loop
         vertex 0.000000e+000 1.000000e+001 0.000000e+000
         vertex 2.992704e+000 6.298205e+000 0.000000e+000
         vertex 2.751911e+000 5.934248e+000 0.000000e+000
      endloop
   endfacet
   facet normal 0.000000e+000 0.000000e+000 -1.000000e+000
      outer loop
         vertex 6.527787e+000 7.222397e+000 0.000000e+000
         vertex 6.114759e+000 7.363303e+000 0.000000e+000
         vertex 1.000000e+001 1.000000e+001 0.000000e+000
      endloop
   endfacet
   facet normal 0.000000e+000 0.000000e+000 -1.000000e+000
      outer loop
         vertex 1.000000e+001 1.000000e+001 0.000000e+000
         vertex 6.114759e+000 7.363303e+000 0.000000e+000
         vertex 5.685617e+000 7.442569e+000 0.000000e+000
      endloop
   endfacet
   facet normal 0.000000e+000 0.000000e+000 -1.000000e+000
      outer loop
         vertex 1.000000e+001 1.000000e+001 0.000000e+000
         vertex 5.685617e+000 7.442569e+000 0.000000e+000
         vertex 0.000000e+000 1.000000e+001 0.000000e+000
      endloop
   endfacet
   facet normal 0.000000e+000 0.000000e+000 -1.000000e+000
      outer loop
         vertex 0.000000e+000 1.000000e+001 0.000000e+000
         vertex 5.685617e+000 7.442569e+000 0.000000e+000
         vertex 5.249506e+000 7.458508e+000 0.000000e+000
      endloop
   endfacet
   facet normal 0.000000e+000 0.000000e+000 -1.000000e+000
      outer loop
         vertex 0.000000e+000 1.000000e+001 0.000000e+000
         vertex 5.249506e+000 7.458508e+000 0.000000e+000
         vertex 4.815723e+000 7.410778e+000 0.000000e+000
      endloop
   endfacet
   facet normal 0.000000e+000 0.000000e+000 -1.000000e+000
      outer loop
         vertex 2.566678e+000 5.539109e+000 0.000000e+000
         vertex 2.440951e+000 5.121210e+000 0.000000e+000
         vertex 0.000000e+000 1.000000e+001 0.000000e+000
      endloop
   endfacet
   facet normal 0.000000e+000 0.000000e+000 -1.000000e+000
      outer loop
         vertex 0.000000e+000 1.000000e+001 0.000000e+000
         vertex 2.440951e+000 5.121210e+000 0.000000e+000
         vertex 2.377410e+000 4.689459e+000 0.000000e+000
      endloop
   endfacet
   facet normal 0.000000e+000 0.000000e+000 -1.000000e+000
      outer loop
         vertex 0.000000e+000 1.000000e+001 0.000000e+000
         vertex 2.377410e+000 4.689459e+000 0.000000e+000
         vertex 0.000000e+000 0.000000e+000 0.000000e+000
      endloop
   endfacet
   facet normal 0.000000e+000 0.000000e+000 -1.000000e+000
      outer loop
         vertex 0.000000e+000 0.000000e+000 0.000000e+000
         vertex 2.377410e+000 4.689459e+000 0.000000e+000
         vertex 2.377410e+000 4.253057e+000 0.000000e+000
      endloop
   endfacet
   facet normal 0.000000e+000 0.000000e+000 -1.000000e+000
      outer loop
         vertex 0.000000e+000 0.000000e+000 0.000000e+000
         vertex 2.377410e+000 4.253057e+000 0.000000e+000
         vertex 2.440951e+000 3.821307e+000 0.000000e+000
      endloop
   endfacet
   facet normal 0.000000e+000 1.000000e+000 0.000000e+000
      outer loop
         vertex 1.000000e+001 1.000000e+001 1.000000e+001
         vertex 1.000000e+001 1.000000e+001 0.000000e+000
         vertex 0.000000e+000 1.000000e+001 1.000000e+001
      endloop
   endfacet
   facet normal 0.000000e+000 1.000000e+000 0.000000e+000
      outer loop
         vertex 0.000000e+000 1.000000e+001 1.000000e+001
         vertex 1.000000e+001 1.000000e+001 0.000000e+000
         vertex 0.000000e+000 1.000000e+001 0.000000e+000
      endloop
   endfacet
   facet normal 0.000000e+000 -1.000000e+000 0.000000e+000
      outer loop
         vertex 1.000000e+001 0.000000e+000 0.000000e+000
         vertex 1.000000e+001 0.000000e+000 1.000000e+001
         vertex 0.000000e+000 0.000000e+000 0.000000e+000
      endloop
   endfacet
   facet normal 0.000000e+000 -1.000000e+000 0.000000e+000
      outer loop
         vertex 0.000000e+000 0.000000e+000 0.000000e+000
         vertex 1.000000e+001 0.000000e+000 1.000000e+001
         vertex 0.000000e+000 0.000000e+000 1.000000e+001
      endloop
   endfacet
   facet normal -9.988160e-001 4.864907e-002 0.000000e+000
      outer loop
         vertex 8.316068e+000 4.036021e+000 0.000000e+000
         vertex 8.347923e+000 4.471258e+000 1.000000e+001
         vertex 8.347923e+000 4.471258e+000 0.000000e+000
      endloop
   endfacet
   facet normal -9.988160e-001 -4.864907e-002 0.000000e+000
      outer loop
         vertex 8.347923e+000 4.471258e+000 0.000000e+000
         vertex 8.347923e+000 4.471258e+000 1.000000e+001
         vertex 8.316068e+000 4.906496e+000 1.000000e+001
      endloop
   endfacet
   facet normal -9.952553e-001 -9.729814e-002 0.000000e+000
      outer loop
         vertex 8.347923e+000 4.471258e+000 0.000000e+000
         vertex 8.316068e+000 4.906496e+000 1.000000e+001
         vertex 8.316068e+000 4.906496e+000 0.000000e+000
      endloop
   endfacet
   facet normal -9.810886e-001 -1.935594e-001 0.000000e+000
      outer loop
         vertex 8.316068e+000 4.906496e+000 0.000000e+000
         vertex 8.316068e+000 4.906496e+000 1.000000e+001
         vertex 8.221181e+000 5.332457e+000 1.000000e+001
      endloop
   endfacet
   facet normal -9.704825e-001 -2.411716e-001 0.000000e+000
      outer loop
         vertex 8.316068e+000 4.906496e+000 0.000000e+000
         vertex 8.221181e+000 5.332457e+000 1.000000e+001
         vertex 8.221181e+000 5.332457e+000 0.000000e+000
      endloop
   endfacet
   facet normal -9.424510e-001 -3.343444e-001 0.000000e+000
      outer loop
         vertex 8.221181e+000 5.332457e+000 0.000000e+000
         vertex 8.221181e+000 5.332457e+000 1.000000e+001
         vertex 8.065285e+000 5.740063e+000 1.000000e+001
      endloop
   endfacet
   facet normal -9.250256e-001 -3.799049e-001 0.000000e+000
      outer loop
         vertex 8.221181e+000 5.332457e+000 0.000000e+000
         vertex 8.065285e+000 5.740063e+000 1.000000e+001
         vertex 8.065285e+000 5.740063e+000 0.000000e+000
      endloop
   endfacet
   facet normal -8.837267e-001 -4.680033e-001 0.000000e+000
      outer loop
         vertex 8.065285e+000 5.740063e+000 0.000000e+000
         vertex 8.065285e+000 5.740063e+000 1.000000e+001
         vertex 7.851702e+000 6.120626e+000 1.000000e+001
      endloop
   endfacet
   facet normal -8.598533e-001 -5.105412e-001 0.000000e+000
      outer loop
         vertex 8.065285e+000 5.740063e+000 0.000000e+000
         vertex 7.851702e+000 6.120626e+000 1.000000e+001
         vertex 7.851702e+000 6.120626e+000 0.000000e+000
      endloop
   endfacet
   facet normal -8.061674e-001 -5.916876e-001 0.000000e+000
      outer loop
         vertex 7.851702e+000 6.120626e+000 0.000000e+000
         vertex 7.851702e+000 6.120626e+000 1.000000e+001
         vertex 7.584985e+000 6.466037e+000 1.000000e+001
      endloop
   endfacet
   facet normal -7.763547e-001 -6.302962e-001 0.000000e+000
      outer loop
         vertex 7.851702e+000 6.120626e+000 0.000000e+000
         vertex 7.584985e+000 6.466037e+000 1.000000e+001
         vertex 7.584985e+000 6.466037e+000 0.000000e+000
      endloop
   endfacet
   facet normal -7.114259e-001 -7.027611e-001 0.000000e+000
      outer loop
         vertex 7.584985e+000 6.466037e+000 0.000000e+000
         vertex 7.584985e+000 6.466037e+000 1.000000e+001
         vertex 7.270818e+000 6.768932e+000 1.000000e+001
      endloop
   endfacet
   facet normal -6.763095e-001 -7.366175e-001 0.000000e+000
      outer loop
         vertex 7.584985e+000 6.466037e+000 0.000000e+000
         vertex 7.270818e+000 6.768932e+000 1.000000e+001
         vertex 7.270818e+000 6.768932e+000 0.000000e+000
      endloop
   endfacet
   facet normal -6.015216e-001 -7.988565e-001 0.000000e+000
      outer loop
         vertex 7.270818e+000 6.768932e+000 0.000000e+000
         vertex 7.270818e+000 6.768932e+000 1.000000e+001
         vertex 6.915897e+000 7.022856e+000 1.000000e+001
      endloop
   endfacet
   facet normal -5.618500e-001 -8.272392e-001 0.000000e+000
      outer loop
         vertex 7.270818e+000 6.768932e+000 0.000000e+000
         vertex 6.915897e+000 7.022856e+000 1.000000e+001
         vertex 6.915897e+000 7.022856e+000 0.000000e+000
      endloop
   endfacet
   facet normal -4.787970e-001 -8.779256e-001 0.000000e+000
      outer loop
         vertex 6.915897e+000 7.022856e+000 0.000000e+000
         vertex 6.915897e+000 7.022856e+000 1.000000e+001
         vertex 6.527787e+000 7.222397e+000 1.000000e+001
      endloop
   endfacet
   facet normal -4.354156e-001 -9.002295e-001 0.000000e+000
      outer loop
         vertex 6.915897e+000 7.022856e+000 0.000000e+000
         vertex 6.527787e+000 7.222397e+000 1.000000e+001
         vertex 6.527787e+000 7.222397e+000 0.000000e+000
      endloop
   endfacet
   facet normal -3.458677e-001 -9.382833e-001 0.000000e+000
      outer loop
         vertex 6.527787e+000 7.222397e+000 0.000000e+000
         vertex 6.527787e+000 7.222397e+000 1.000000e+001
         vertex 6.114759e+000 7.363303e+000 1.000000e+001
      endloop
   endfacet
   facet normal -2.997011e-001 -9.540332e-001 0.000000e+000
      outer loop
         vertex 6.527787e+000 7.222397e+000 0.000000e+000
         vertex 6.114759e+000 7.363303e+000 1.000000e+001
         vertex 6.114759e+000 7.363303e+000 0.000000e+000
      endloop
   endfacet
   facet normal -2.055667e-001 -9.786431e-001 0.000000e+000
      outer loop
         vertex 6.114759e+000 7.363303e+000 0.000000e+000
         vertex 6.114759e+000 7.363303e+000 1.000000e+001
         vertex 5.685617e+000 7.442569e+000 1.000000e+001
      endloop
   endfacet
   facet normal -1.575989e-001 -9.875032e-001 0.000000e+000
      outer loop
         vertex 6.114759e+000 7.363303e+000 0.000000e+000
         vertex 5.685617e+000 7.442569e+000 1.000000e+001
         vertex 5.685617e+000 7.442569e+000 0.000000e+000
      endloop
   endfacet
   facet normal -6.088449e-002 -9.981448e-001 0.000000e+000
      outer loop
         vertex 5.685617e+000 7.442569e+000 0.000000e+000
         vertex 5.685617e+000 7.442569e+000 1.000000e+001
         vertex 5.249506e+000 7.458508e+000 1.000000e+001
      endloop
   endfacet
   facet normal -1.213783e-002 -9.999263e-001 0.000000e+000
      outer loop
         vertex 5.685617e+000 7.442569e+000 0.000000e+000
         vertex 5.249506e+000 7.458508e+000 1.000000e+001
         vertex 5.249506e+000 7.458508e+000 0.000000e+000
      endloop
   endfacet
   facet normal 8.509539e-002 -9.963728e-001 0.000000e+000
      outer loop
         vertex 5.249506e+000 7.458508e+000 0.000000e+000
         vertex 5.249506e+000 7.458508e+000 1.000000e+001
         vertex 4.815723e+000 7.410778e+000 1.000000e+001
      endloop
   endfacet
   facet normal 1.335820e-001 -9.910377e-001 0.000000e+000
      outer loop
         vertex 5.249506e+000 7.458508e+000 0.000000e+000
         vertex 4.815723e+000 7.410778e+000 1.000000e+001
         vertex 4.815723e+000 7.410778e+000 0.000000e+000
      endloop
   endfacet
   facet normal 2.292616e-001 -9.733648e-001 0.000000e+000
      outer loop
         vertex 4.815723e+000 7.410778e+000 0.000000e+000
         vertex 4.815723e+000 7.410778e+000 1.000000e+001
         vertex 4.393511e+000 7.300397e+000 1.000000e+001
      endloop
   endfacet
   facet normal 2.764547e-001 -9.610270e-001 0.000000e+000
      outer loop
         vertex 4.815723e+000 7.410778e+000 0.000000e+000
         vertex 4.393511e+000 7.300397e+000 1.000000e+001
         vertex 4.393511e+000 7.300397e+000 0.000000e+000
      endloop
   endfacet
   facet normal 3.685415e-001 -9.296113e-001 0.000000e+000
      outer loop
         vertex 4.393511e+000 7.300397e+000 0.000000e+000
         vertex 4.393511e+000 7.300397e+000 1.000000e+001
         vertex 3.991871e+000 7.129719e+000 1.000000e+001
      endloop
   endfacet
   facet normal 4.134352e-001 -9.105335e-001 0.000000e+000
      outer loop
         vertex 4.393511e+000 7.300397e+000 0.000000e+000
         vertex 3.991871e+000 7.129719e+000 1.000000e+001
         vertex 3.991871e+000 7.129719e+000 0.000000e+000
      endloop
   endfacet
   facet normal 4.999666e-001 -8.660447e-001 0.000000e+000
      outer loop
         vertex 3.991871e+000 7.129719e+000 0.000000e+000
         vertex 3.991871e+000 7.129719e+000 1.000000e+001
         vertex 3.619361e+000 6.902380e+000 1.000000e+001
      endloop
   endfacet
   facet normal 5.416042e-001 -8.406336e-001 0.000000e+000
      outer loop
         vertex 3.991871e+000 7.129719e+000 0.000000e+000
         vertex 3.619361e+000 6.902380e+000 1.000000e+001
         vertex 3.619361e+000 6.902380e+000 0.000000e+000
      endloop
   endfacet
   facet normal 6.207358e-001 -7.840198e-001 0.000000e+000
      outer loop
         vertex 3.619361e+000 6.902380e+000 0.000000e+000
         vertex 3.619361e+000 6.902380e+000 1.000000e+001
         vertex 3.283923e+000 6.623225e+000 1.000000e+001
      endloop
   endfacet
   facet normal 6.582298e-001 -7.528171e-001 0.000000e+000
      outer loop
         vertex 3.619361e+000 6.902380e+000 0.000000e+000
         vertex 3.283923e+000 6.623225e+000 1.000000e+001
         vertex 3.283923e+000 6.623225e+000 0.000000e+000
      endloop
   endfacet
   facet normal 7.282751e-001 -6.852850e-001 0.000000e+000
      outer loop
         vertex 3.283923e+000 6.623225e+000 0.000000e+000
         vertex 3.283923e+000 6.623225e+000 1.000000e+001
         vertex 2.992704e+000 6.298205e+000 1.000000e+001
      endloop
   endfacet
   facet normal 7.608263e-001 -6.489556e-001 0.000000e+000
      outer loop
         vertex 3.283923e+000 6.623225e+000 0.000000e+000
         vertex 2.992704e+000 6.298205e+000 1.000000e+001
         vertex 2.992704e+000 6.298205e+000 0.000000e+000
      endloop
   endfacet
   facet normal 8.202924e-001 -5.719445e-001 0.000000e+000
      outer loop
         vertex 2.992704e+000 6.298205e+000 0.000000e+000
         vertex 2.992704e+000 6.298205e+000 1.000000e+001
         vertex 2.751911e+000 5.934248e+000 1.000000e+001
      endloop
   endfacet
   facet normal 8.472071e-001 -5.312628e-001 0.000000e+000
      outer loop
         vertex 2.992704e+000 6.298205e+000 0.000000e+000
         vertex 2.751911e+000 5.934248e+000 1.000000e+001
         vertex 2.751911e+000 5.934248e+000 0.000000e+000
      endloop
   endfacet
   facet normal 8.948265e-001 -4.464140e-001 0.000000e+000
      outer loop
         vertex 2.751911e+000 5.934248e+000 0.000000e+000
         vertex 2.751911e+000 5.934248e+000 1.000000e+001
         vertex 2.566678e+000 5.539109e+000 1.000000e+001
      endloop
   endfacet
   facet normal 9.155312e-001 -4.022469e-001 0.000000e+000
      outer loop
         vertex 2.751911e+000 5.934248e+000 0.000000e+000
         vertex 2.566678e+000 5.539109e+000 1.000000e+001
         vertex 2.566678e+000 5.539109e+000 0.000000e+000
      endloop
   endfacet
   facet normal 9.502891e-001 -3.113689e-001 0.000000e+000
      outer loop
         vertex 2.566678e+000 5.539109e+000 0.000000e+000
         vertex 2.566678e+000 5.539109e+000 1.000000e+001
         vertex 2.440951e+000 5.121210e+000 1.000000e+001
      endloop
   endfacet
   facet normal 9.643424e-001 -2.646579e-001 0.000000e+000
      outer loop
         vertex 2.566678e+000 5.539109e+000 0.000000e+000
         vertex 2.440951e+000 5.121210e+000 1.000000e+001
         vertex 2.440951e+000 5.121210e+000 0.000000e+000
      endloop
   endfacet
   facet normal 9.854979e-001 -1.696875e-001 0.000000e+000
      outer loop
         vertex 2.440951e+000 5.121210e+000 0.000000e+000
         vertex 2.440951e+000 5.121210e+000 1.000000e+001
         vertex 2.377410e+000 4.689459e+000 1.000000e+001
      endloop
   endfacet
   facet normal 9.926003e-001 -1.214282e-001 0.000000e+000
      outer loop
         vertex 2.440951e+000 5.121210e+000 0.000000e+000
         vertex 2.377410e+000 4.689459e+000 1.000000e+001
         vertex 2.377410e+000 4.689459e+000 0.000000e+000
      endloop
   endfacet
   facet normal 9.997025e-001 -2.438960e-002 0.000000e+000
      outer loop
         vertex 2.377410e+000 4.689459e+000 0.000000e+000
         vertex 2.377410e+000 4.689459e+000 1.000000e+001
         vertex 2.377410e+000 4.253057e+000 1.000000e+001
      endloop
   endfacet
   facet normal 9.997025e-001 2.438960e-002 0.000000e+000
      outer loop
         vertex 2.377410e+000 4.689459e+000 0.000000e+000
         vertex 2.377410e+000 4.253057e+000 1.000000e+001
         vertex 2.377410e+000 4.253057e+000 0.000000e+000
      endloop
   endfacet
   facet normal 9.926003e-001 1.214282e-001 0.000000e+000
      outer loop
         vertex 2.377410e+000 4.253057e+000 0.000000e+000
         vertex 2.377410e+000 4.253057e+000 1.000000e+001
         vertex 2.440951e+000 3.821307e+000 1.000000e+001
      endloop
   endfacet
   facet normal 9.854979e-001 1.696875e-001 0.000000e+000
      outer loop
         vertex 2.377410e+000 4.253057e+000 0.000000e+000
         vertex 2.440951e+000 3.821307e+000 1.000000e+001
         vertex 2.440951e+000 3.821307e+000 0.000000e+000
      endloop
   endfacet
   facet normal 9.643424e-001 2.646579e-001 0.000000e+000
      outer loop
         vertex 2.440951e+000 3.821307e+000 0.000000e+000
         vertex 2.440951e+000 3.821307e+000 1.000000e+001
         vertex 2.566678e+000 3.403408e+000 1.000000e+001
      endloop
   endfacet
   facet normal 9.502891e-001 3.113689e-001 0.000000e+000
      outer loop
         vertex 2.440951e+000 3.821307e+000 0.000000e+000
         vertex 2.566678e+000 3.403408e+000 1.000000e+001
         vertex 2.566678e+000 3.403408e+000 0.000000e+000
      endloop
   endfacet
   facet normal 9.155312e-001 4.022469e-001 0.000000e+000
      outer loop
         vertex 2.566678e+000 3.403408e+000 0.000000e+000
         vertex 2.566678e+000 3.403408e+000 1.000000e+001
         vertex 2.751911e+000 3.008269e+000 1.000000e+001
      endloop
   endfacet
   facet normal 8.948265e-001 4.464140e-001 0.000000e+000
      outer loop
         vertex 2.566678e+000 3.403408e+000 0.000000e+000
         vertex 2.751911e+000 3.008269e+000 1.000000e+001
         vertex 2.751911e+000 3.008269e+000 0.000000e+000
      endloop
   endfacet
   facet normal 8.472071e-001 5.312628e-001 0.000000e+000
      outer loop
         vertex 2.751911e+000 3.008269e+000 0.000000e+000
         vertex 2.751911e+000 3.008269e+000 1.000000e+001
         vertex 2.992704e+000 2.644311e+000 1.000000e+001
      endloop
   endfacet
   facet normal 8.202924e-001 5.719445e-001 0.000000e+000
      outer loop
         vertex 2.751911e+000 3.008269e+000 0.000000e+000
         vertex 2.992704e+000 2.644311e+000 1.000000e+001
         vertex 2.992704e+000 2.644311e+000 0.000000e+000
      endloop
   endfacet
   facet normal 7.608263e-001 6.489556e-001 0.000000e+000
      outer loop
         vertex 2.992704e+000 2.644311e+000 0.000000e+000
         vertex 2.992704e+000 2.644311e+000 1.000000e+001
         vertex 3.283923e+000 2.319291e+000 1.000000e+001
      endloop
   endfacet
   facet normal 7.282749e-001 6.852850e-001 0.000000e+000
      outer loop
         vertex 2.992704e+000 2.644311e+000 0.000000e+000
         vertex 3.283923e+000 2.319291e+000 1.000000e+001
         vertex 3.283923e+000 2.319291e+000 0.000000e+000
      endloop
   endfacet
   facet normal 6.582298e-001 7.528171e-001 0.000000e+000
      outer loop
         vertex 3.283923e+000 2.319291e+000 0.000000e+000
         vertex 3.283923e+000 2.319291e+000 1.000000e+001
         vertex 3.619361e+000 2.040137e+000 1.000000e+001
      endloop
   endfacet
   facet normal 6.207358e-001 7.840198e-001 0.000000e+000
      outer loop
         vertex 3.283923e+000 2.319291e+000 0.000000e+000
         vertex 3.619361e+000 2.040137e+000 1.000000e+001
         vertex 3.619361e+000 2.040137e+000 0.000000e+000
      endloop
   endfacet
   facet normal 5.416042e-001 8.406336e-001 0.000000e+000
      outer loop
         vertex 3.619361e+000 2.040137e+000 0.000000e+000
         vertex 3.619361e+000 2.040137e+000 1.000000e+001
         vertex 3.991871e+000 1.812798e+000 1.000000e+001
      endloop
   endfacet
   facet normal 4.999666e-001 8.660447e-001 0.000000e+000
      outer loop
         vertex 3.619361e+000 2.040137e+000 0.000000e+000
         vertex 3.991871e+000 1.812798e+000 1.000000e+001
         vertex 3.991871e+000 1.812798e+000 0.000000e+000
      endloop
   endfacet
   facet normal 4.134352e-001 9.105335e-001 0.000000e+000
      outer loop
         vertex 3.991871e+000 1.812798e+000 0.000000e+000
         vertex 3.991871e+000 1.812798e+000 1.000000e+001
         vertex 4.393511e+000 1.642119e+000 1.000000e+001
      endloop
   endfacet
   facet normal 3.685415e-001 9.296113e-001 0.000000e+000
      outer loop
         vertex 3.991871e+000 1.812798e+000 0.000000e+000
         vertex 4.393511e+000 1.642119e+000 1.000000e+001
         vertex 4.393511e+000 1.642119e+000 0.000000e+000
      endloop
   endfacet
   facet normal 2.764547e-001 9.610270e-001 0.000000e+000
      outer loop
         vertex 4.393511e+000 1.642119e+000 0.000000e+000
         vertex 4.393511e+000 1.642119e+000 1.000000e+001
         vertex 4.815723e+000 1.531739e+000 1.000000e+001
      endloop
   endfacet
   facet normal 2.292616e-001 9.733649e-001 0.000000e+000
      outer loop
         vertex 4.393511e+000 1.642119e+000 0.000000e+000
         vertex 4.815723e+000 1.531739e+000 1.000000e+001
         vertex 4.815723e+000 1.531739e+000 0.000000e+000
      endloop
   endfacet
   facet normal 1.335820e-001 9.910377e-001 0.000000e+000
      outer loop
         vertex 4.815723e+000 1.531739e+000 0.000000e+000
         vertex 4.815723e+000 1.531739e+000 1.000000e+001
         vertex 5.249506e+000 1.484009e+000 1.000000e+001
      endloop
   endfacet
   facet normal 8.509539e-002 9.963728e-001 0.000000e+000
      outer loop
         vertex 4.815723e+000 1.531739e+000 0.000000e+000
         vertex 5.249506e+000 1.484009e+000 1.000000e+001
         vertex 5.249506e+000 1.484009e+000 0.000000e+000
      endloop
   endfacet
   facet normal -1.213783e-002 9.999263e-001 0.000000e+000
      outer loop
         vertex 5.249506e+000 1.484009e+000 0.000000e+000
         vertex 5.249506e+000 1.484009e+000 1.000000e+001
         vertex 5.685617e+000 1.499947e+000 1.000000e+001
      endloop
   endfacet
   facet normal -6.088449e-002 9.981448e-001 0.000000e+000
      outer loop
         vertex 5.249506e+000 1.484009e+000 0.000000e+000
         vertex 5.685617e+000 1.499947e+000 1.000000e+001
         vertex 5.685617e+000 1.499947e+000 0.000000e+000
      endloop
   endfacet
   facet normal -1.575989e-001 9.875032e-001 0.000000e+000
      outer loop
         vertex 5.685617e+000 1.499947e+000 0.000000e+000
         vertex 5.685617e+000 1.499947e+000 1.000000e+001
         vertex 6.114759e+000 1.579214e+000 1.000000e+001
      endloop
   endfacet
   facet normal -2.055667e-001 9.786431e-001 0.000000e+000
      outer loop
         vertex 5.685617e+000 1.499947e+000 0.000000e+000
         vertex 6.114759e+000 1.579214e+000 1.000000e+001
         vertex 6.114759e+000 1.579214e+000 0.000000e+000
      endloop
   endfacet
   facet normal -2.997011e-001 9.540332e-001 0.000000e+000
      outer loop
         vertex 6.114759e+000 1.579214e+000 0.000000e+000
         vertex 6.114759e+000 1.579214e+000 1.000000e+001
         vertex 6.527787e+000 1.720119e+000 1.000000e+001
      endloop
   endfacet
   facet normal -3.458676e-001 9.382833e-001 0.000000e+000
      outer loop
         vertex 6.114759e+000 1.579214e+000 0.000000e+000
         vertex 6.527787e+000 1.720119e+000 1.000000e+001
         vertex 6.527787e+000 1.720119e+000 0.000000e+000
      endloop
   endfacet
   facet normal -4.354156e-001 9.002295e-001 0.000000e+000
      outer loop
         vertex 6.527787e+000 1.720119e+000 0.000000e+000
         vertex 6.527787e+000 1.720119e+000 1.000000e+001
         vertex 6.915897e+000 1.919661e+000 1.000000e+001
      endloop
   endfacet
   facet normal -4.787970e-001 8.779256e-001 0.000000e+000
      outer loop
         vertex 6.527787e+000 1.720119e+000 0.000000e+000
         vertex 6.915897e+000 1.919661e+000 1.000000e+001
         vertex 6.915897e+000 1.919661e+000 0.000000e+000
      endloop
   endfacet
   facet normal -5.618500e-001 8.272392e-001 0.000000e+000
      outer loop
         vertex 6.915897e+000 1.919661e+000 0.000000e+000
         vertex 6.915897e+000 1.919661e+000 1.000000e+001
         vertex 7.270818e+000 2.173585e+000 1.000000e+001
      endloop
   endfacet
   facet normal -6.015216e-001 7.988565e-001 0.000000e+000
      outer loop
         vertex 6.915897e+000 1.919661e+000 0.000000e+000
         vertex 7.270818e+000 2.173585e+000 1.000000e+001
         vertex 7.270818e+000 2.173585e+000 0.000000e+000
      endloop
   endfacet
   facet normal -6.763095e-001 7.366175e-001 0.000000e+000
      outer loop
         vertex 7.270818e+000 2.173585e+000 0.000000e+000
         vertex 7.270818e+000 2.173585e+000 1.000000e+001
         vertex 7.584985e+000 2.476480e+000 1.000000e+001
      endloop
   endfacet
   facet normal -7.114259e-001 7.027611e-001 0.000000e+000
      outer loop
         vertex 7.270818e+000 2.173585e+000 0.000000e+000
         vertex 7.584985e+000 2.476480e+000 1.000000e+001
         vertex 7.584985e+000 2.476480e+000 0.000000e+000
      endloop
   endfacet
   facet normal -7.763547e-001 6.302962e-001 0.000000e+000
      outer loop
         vertex 7.584985e+000 2.476480e+000 0.000000e+000
         vertex 7.584985e+000 2.476480e+000 1.000000e+001
         vertex 7.851702e+000 2.821890e+000 1.000000e+001
      endloop
   endfacet
   facet normal -8.061673e-001 5.916877e-001 0.000000e+000
      outer loop
         vertex 7.584985e+000 2.476480e+000 0.000000e+000
         vertex 7.851702e+000 2.821890e+000 1.000000e+001
         vertex 7.851702e+000 2.821890e+000 0.000000e+000
      endloop
   endfacet
   facet normal -8.598533e-001 5.105412e-001 0.000000e+000
      outer loop
         vertex 7.851702e+000 2.821890e+000 0.000000e+000
         vertex 7.851702e+000 2.821890e+000 1.000000e+001
         vertex 8.065285e+000 3.202454e+000 1.000000e+001
      endloop
   endfacet
   facet normal -8.837267e-001 4.680033e-001 0.000000e+000
      outer loop
         vertex 7.851702e+000 2.821890e+000 0.000000e+000
         vertex 8.065285e+000 3.202454e+000 1.000000e+001
         vertex 8.065285e+000 3.202454e+000 0.000000e+000
      endloop
   endfacet
   facet normal -9.250256e-001 3.799049e-001 0.000000e+000
      outer loop
         vertex 8.065285e+000 3.202454e+000 0.000000e+000
         vertex 8.065285e+000 3.202454e+000 1.000000e+001
         vertex 8.221181e+000 3.610060e+000 1.000000e+001
      endloop
   endfacet
   facet normal -9.424510e-001 3.343444e-001 0.000000e+000
      outer loop
         vertex 8.065285e+000 3.202454e+000 0.000000e+000
         vertex 8.221181e+000 3.610060e+000 1.000000e+001
         vertex 8.221181e+000 3.610060e+000 0.000000e+000
      endloop
   endfacet
   facet normal -9.704825e-001 2.411716e-001 0.000000e+000
      outer loop
         vertex 8.221181e+000 3.610060e+000 0.000000e+000
         vertex 8.221181e+000 3.610060e+000 1.000000e+001
         vertex 8.316068e+000 4.036021e+000 1.000000e+001
      endloop
   endfacet
   facet normal -9.810886e-001 1.935594e-001 0.000000e+000
      outer loop
         vertex 8.221181e+000 3.610060e+000 0.000000e+000
         vertex 8.316068e+000 4.036021e+000 1.000000e+001
         vertex 8.316068e+000 4.036021e+000 0.000000e+000
      endloop
   endfacet
   facet normal -9.952553e-001 9.729814e-002 0.000000e+000
      outer loop
         vertex 8.316068e+000 4.036021e+000 0.000000e+000
         vertex 8.316068e+000 4.036021e+000 1.000000e+001
         vertex 8.347923e+000 4.471258e+000 1.000000e+001
      endloop
   endfacet
endsolid