solid 3_398
   facet normal -1.000000e+000 0.000000e+000 0.000000e+000
      outer loop
         vertex 0.000000e+000 1.000000e+001 1.000000e+001
         vertex 0.000000e+000 1.000000e+001 0.000000e+000
         vertex 0.000000e+000 0.000000e+000 1.000000e+001
      endloop
   endfacet
   facet normal -1.000000e+000 0.000000e+000 0.000000e+000
      outer loop
         vertex 0.000000e+000 0.000000e+000 1.000000e+001
         vertex 0.000000e+000 1.000000e+001 0.000000e+000
         vertex 0.000000e+000 0.000000e+000 0.000000e+000
      endloop
   endfacet
   facet normal 0.000000e+000 0.000000e+000 1.000000e+000
      outer loop
         vertex 6.990396e+000 2.036510e+000 1.000000e+001
         vertex 1.000000e+001 0.000000e+000 1.000000e+001
         vertex 7.362554e+000 2.351150e+000 1.000000e+001
      endloop
   endfacet
   facet normal 0.000000e+000 0.000000e+000 1.000000e+000
      outer loop
         vertex 7.362554e+000 2.351150e+000 1.000000e+001
         vertex 1.000000e+001 0.000000e+000 1.000000e+001
         vertex 7.689453e+000 2.712586e+000 1.000000e+001
      endloop
   endfacet
   facet normal 0.000000e+000 0.000000e+000 1.000000e+000
      outer loop
         vertex 8.344914e+000 4.009701e+000 1.000000e+001
         vertex 8.185056e+000 3.549327e+000 1.000000e+001
         vertex 1.000000e+001 0.000000e+000 1.000000e+001
      endloop
   endfacet
   facet normal 0.000000e+000 0.000000e+000 1.000000e+000
      outer loop
         vertex 1.000000e+001 0.000000e+000 1.000000e+001
         vertex 8.185056e+000 3.549327e+000 1.000000e+001
         vertex 7.965261e+000 3.114368e+000 1.000000e+001
      endloop
   endfacet
   facet normal 0.000000e+000 0.000000e+000 1.000000e+000
      outer loop
         vertex 1.000000e+001 0.000000e+000 1.000000e+001
         vertex 7.965261e+000 3.114368e+000 1.000000e+001
         vertex 7.689453e+000 2.712586e+000 1.000000e+001
      endloop
   endfacet
   facet normal 0.000000e+000 0.000000e+000 1.000000e+000
      outer loop
         vertex 6.990396e+000 2.036510e+000 1.000000e+001
         vertex 6.579622e+000 1.774282e+000 1.000000e+001
         vertex 1.000000e+001 0.000000e+000 1.000000e+001
      endloop
   endfacet
   facet normal 0.000000e+000 0.000000e+000 1.000000e+000
      outer loop
         vertex 1.000000e+001 0.000000e+000 1.000000e+001
         vertex 6.579622e+000 1.774282e+000 1.000000e+001
         vertex 6.137561e+000 1.569144e+000 1.000000e+001
      endloop
   endfacet
   facet normal 0.000000e+000 0.000000e+000 1.000000e+000
      outer loop
         vertex 1.000000e+001 0.000000e+000 1.000000e+001
         vertex 6.137561e+000 1.569144e+000 1.000000e+001
         vertex 5.672103e+000 1.424757e+000 1.000000e+001
      endloop
   endfacet
   facet normal 0.000000e+000 0.000000e+000 1.000000e+000
      outer loop
         vertex 5.672103e+000 1.424757e+000 1.000000e+001
         vertex 5.191553e+000 1.343699e+000 1.000000e+001
         vertex 1.000000e+001 0.000000e+000 1.000000e+001
      endloop
   endfacet
   facet normal 0.000000e+000 0.000000e+000 1.000000e+000
      outer loop
         vertex 1.000000e+001 0.000000e+000 1.000000e+001
         vertex 5.191553e+000 1.343699e+000 1.000000e+001
         vertex 4.704485e+000 1.327414e+000 1.000000e+001
      endloop
   endfacet
   facet normal 0.000000e+000 0.000000e+000 1.000000e+000
      outer loop
         vertex 1.000000e+001 0.000000e+000 1.000000e+001
         vertex 4.704485e+000 1.327414e+000 1.000000e+001
         vertex 0.000000e+000 0.000000e+000 1.000000e+001
      endloop
   endfacet
   facet normal 0.000000e+000 0.000000e+000 1.000000e+000
      outer loop
         vertex 0.000000e+000 0.000000e+000 1.000000e+001
         vertex 4.704485e+000 1.327414e+000 1.000000e+001
         vertex 4.219594e+000 1.376195e+000 1.000000e+001
      endloop
   endfacet
   facet normal 0.000000e+000 0.000000e+000 1.000000e+000
      outer loop
         vertex 0.000000e+000 1.000000e+001 1.000000e+001
         vertex 3.290756e+000 8.282727e+000 1.000000e+001
         vertex 3.745531e+000 8.457880e+000 1.000000e+001
      endloop
   endfacet
   facet normal 0.000000e+000 0.000000e+000 1.000000e+000
      outer loop
         vertex 3.745531e+000 8.457880e+000 1.000000e+001
         vertex 4.219594e+000 8.570855e+000 1.000000e+001
         vertex 0.000000e+000 1.000000e+001 1.000000e+001
      endloop
   endfacet
   facet normal 0.000000e+000 0.000000e+000 1.000000e+000
      outer loop
         vertex 0.000000e+000 1.000000e+001 1.000000e+001
         vertex 4.219594e+000 8.570855e+000 1.000000e+001
         vertex 4.704485e+000 8.619637e+000 1.000000e+001
      endloop
   endfacet
   facet normal 0.000000e+000 0.000000e+000 1.000000e+000
      outer loop
         vertex 0.000000e+000 1.000000e+001 1.000000e+001
         vertex 4.704485e+000 8.619637e+000 1.000000e+001
         vertex 1.000000e+001 1.000000e+001 1.000000e+001
      endloop
   endfacet
   facet normal 0.000000e+000 0.000000e+000 1.000000e+000
      outer loop
         vertex 1.000000e+001 1.000000e+001 1.000000e+001
         vertex 4.704485e+000 8.619637e+000 1.000000e+001
         vertex 5.191553e+000 8.603352e+000 1.000000e+001
      endloop
   endfacet
   facet normal 0.000000e+000 0.000000e+000 1.000000e+000
      outer loop
         vertex 1.000000e+001 1.000000e+001 1.000000e+001
         vertex 5.191553e+000 8.603352e+000 1.000000e+001
         vertex 5.672103e+000 8.522292e+000 1.000000e+001
      endloop
   endfacet
   facet normal 0.000000e+000 0.000000e+000 1.000000e+000
      outer loop
         vertex 5.672103e+000 8.522292e+000 1.000000e+001
         vertex 6.137561e+000 8.377906e+000 1.000000e+001
         vertex 1.000000e+001 1.000000e+001 1.000000e+001
      endloop
   endfacet
   facet normal 0.000000e+000 0.000000e+000 1.000000e+000
      outer loop
         vertex 1.000000e+001 1.000000e+001 1.000000e+001
         vertex 6.137561e+000 8.377906e+000 1.000000e+001
         vertex 6.579622e+000 8.172769e+000 1.000000e+001
      endloop
   endfacet
   facet normal 0.000000e+000 0.000000e+000 1.000000e+000
      outer loop
         vertex 1.000000e+001 1.000000e+001 1.000000e+001
         vertex 6.579622e+000 8.172769e+000 1.000000e+001
         vertex 6.990396e+000 7.910540e+000 1.000000e+001
      endloop
   endfacet
   facet normal 0.000000e+000 0.000000e+000 1.000000e+000
      outer loop
         vertex 7.965261e+000 6.832682e+000 1.000000e+001
         vertex 8.185056e+000 6.397723e+000 1.000000e+001
         vertex 1.000000e+001 1.000000e+001 1.000000e+001
      endloop
   endfacet
   facet normal 0.000000e+000 0.000000e+000 1.000000e+000
      outer loop
         vertex 1.000000e+001 1.000000e+001 1.000000e+001
         vertex 8.185056e+000 6.397723e+000 1.000000e+001
         vertex 8.344914e+000 5.937349e+000 1.000000e+001
      endloop
   endfacet
   facet normal 0.000000e+000 0.000000e+000 1.000000e+000
      outer loop
         vertex 8.344914e+000 5.937349e+000 1.000000e+001
         vertex 8.441985e+000 5.459775e+000 1.000000e+001
         vertex 1.000000e+001 1.000000e+001 1.000000e+001
      endloop
   endfacet
   facet normal 0.000000e+000 0.000000e+000 1.000000e+000
      outer loop
         vertex 1.000000e+001 1.000000e+001 1.000000e+001
         vertex 8.441985e+000 5.459775e+000 1.000000e+001
         vertex 8.474536e+000 4.973525e+000 1.000000e+001
      endloop
   endfacet
   facet normal 0.000000e+000 0.000000e+000 1.000000e+000
      outer loop
         vertex 1.000000e+001 1.000000e+001 1.000000e+001
         vertex 8.474536e+000 4.973525e+000 1.000000e+001
         vertex 1.000000e+001 0.000000e+000 1.000000e+001
      endloop
   endfacet
   facet normal 0.000000e+000 0.000000e+000 1.000000e+000
      outer loop
         vertex 1.000000e+001 0.000000e+000 1.000000e+001
         vertex 8.474536e+000 4.973525e+000 1.000000e+001
         vertex 8.441985e+000 4.487275e+000 1.000000e+001
      endloop
   endfacet
   facet normal 0.000000e+000 0.000000e+000 1.000000e+000
      outer loop
         vertex 1.000000e+001 0.000000e+000 1.000000e+001
         vertex 8.441985e+000 4.487275e+000 1.000000e+001
         vertex 8.344914e+000 4.009701e+000 1.000000e+001
      endloop
   endfacet
   facet normal 0.000000e+000 0.000000e+000 1.000000e+000
      outer loop
         vertex 4.219594e+000 1.376195e+000 1.000000e+001
         vertex 3.745531e+000 1.489170e+000 1.000000e+001
         vertex 0.000000e+000 0.000000e+000 1.000000e+001
      endloop
   endfacet
   facet normal 0.000000e+000 0.000000e+000 1.000000e+000
      outer loop
         vertex 0.000000e+000 0.000000e+000 1.000000e+001
         vertex 3.745531e+000 1.489170e+000 1.000000e+001
         vertex 3.290756e+000 1.664323e+000 1.000000e+001
      endloop
   endfacet
   facet normal 0.000000e+000 0.000000e+000 1.000000e+000
      outer loop
         vertex 0.000000e+000 0.000000e+000 1.000000e+001
         vertex 3.290756e+000 1.664323e+000 1.000000e+001
         vertex 2.863384e+000 1.898529e+000 1.000000e+001
      endloop
   endfacet
   facet normal 0.000000e+000 0.000000e+000 1.000000e+000
      outer loop
         vertex 6.990396e+000 7.910540e+000 1.000000e+001
         vertex 7.362554e+000 7.595901e+000 1.000000e+001
         vertex 1.000000e+001 1.000000e+001 1.000000e+001
      endloop
   endfacet
   facet normal 0.000000e+000 0.000000e+000 1.000000e+000
      outer loop
         vertex 1.000000e+001 1.000000e+001 1.000000e+001
         vertex 7.362554e+000 7.595901e+000 1.000000e+001
         vertex 7.689453e+000 7.234464e+000 1.000000e+001
      endloop
   endfacet
   facet normal 0.000000e+000 0.000000e+000 1.000000e+000
      outer loop
         vertex 1.000000e+001 1.000000e+001 1.000000e+001
         vertex 7.689453e+000 7.234464e+000 1.000000e+001
         vertex 7.965261e+000 6.832682e+000 1.000000e+001
      endloop
   endfacet
   facet normal 0.000000e+000 0.000000e+000 1.000000e+000
      outer loop
         vertex 2.863384e+000 1.898529e+000 1.000000e+001
         vertex 2.471042e+000 2.187609e+000 1.000000e+001
         vertex 0.000000e+000 0.000000e+000 1.000000e+001
      endloop
   endfacet
   facet normal 0.000000e+000 0.000000e+000 1.000000e+000
      outer loop
         vertex 0.000000e+000 0.000000e+000 1.000000e+001
         vertex 2.471042e+000 2.187609e+000 1.000000e+001
         vertex 2.120732e+000 2.526403e+000 1.000000e+001
      endloop
   endfacet
   facet normal 0.000000e+000 0.000000e+000 1.000000e+000
      outer loop
         vertex 0.000000e+000 0.000000e+000 1.000000e+001
         vertex 2.120732e+000 2.526403e+000 1.000000e+001
         vertex 1.818704e+000 2.908866e+000 1.000000e+001
      endloop
   endfacet
   facet normal 0.000000e+000 0.000000e+000 1.000000e+000
      outer loop
         vertex 1.818704e+000 2.908866e+000 1.000000e+001
         vertex 1.570347e+000 3.328173e+000 1.000000e+001
         vertex 0.000000e+000 0.000000e+000 1.000000e+001
      endloop
   endfacet
   facet normal 0.000000e+000 0.000000e+000 1.000000e+000
      outer loop
         vertex 0.000000e+000 0.000000e+000 1.000000e+001
         vertex 1.570347e+000 3.328173e+000 1.000000e+001
         vertex 1.380096e+000 3.776842e+000 1.000000e+001
      endloop
   endfacet
   facet normal 0.000000e+000 0.000000e+000 1.000000e+000
      outer loop
         vertex 0.000000e+000 0.000000e+000 1.000000e+001
         vertex 1.380096e+000 3.776842e+000 1.000000e+001
         vertex 1.251343e+000 4.246865e+000 1.000000e+001
      endloop
   endfacet
   facet normal 0.000000e+000 0.000000e+000 1.000000e+000
      outer loop
         vertex 1.251343e+000 4.246865e+000 1.000000e+001
         vertex 1.186387e+000 4.729856e+000 1.000000e+001
         vertex 0.000000e+000 0.000000e+000 1.000000e+001
      endloop
   endfacet
   facet normal 0.000000e+000 0.000000e+000 1.000000e+000
      outer loop
         vertex 0.000000e+000 0.000000e+000 1.000000e+001
         vertex 1.186387e+000 4.729856e+000 1.000000e+001
         vertex 1.186387e+000 5.217195e+000 1.000000e+001
      endloop
   endfacet
   facet normal 0.000000e+000 0.000000e+000 1.000000e+000
      outer loop
         vertex 0.000000e+000 0.000000e+000 1.000000e+001
         vertex 1.186387e+000 5.217195e+000 1.000000e+001
         vertex 0.000000e+000 1.000000e+001 1.000000e+001
      endloop
   endfacet
   facet normal 0.000000e+000 0.000000e+000 1.000000e+000
      outer loop
         vertex 0.000000e+000 1.000000e+001 1.000000e+001
         vertex 1.186387e+000 5.217195e+000 1.000000e+001
         vertex 1.251343e+000 5.700185e+000 1.000000e+001
      endloop
   endfacet
   facet normal 0.000000e+000 0.000000e+000 1.000000e+000
      outer loop
         vertex 0.000000e+000 1.000000e+001 1.000000e+001
         vertex 1.251343e+000 5.700185e+000 1.000000e+001
         vertex 1.380096e+000 6.170208e+000 1.000000e+001
      endloop
   endfacet
   facet normal 0.000000e+000 0.000000e+000 1.000000e+000
      outer loop
         vertex 1.380096e+000 6.170208e+000 1.000000e+001
         vertex 1.570347e+000 6.618877e+000 1.000000e+001
         vertex 0.000000e+000 1.000000e+001 1.000000e+001
      endloop
   endfacet
   facet normal 0.000000e+000 0.000000e+000 1.000000e+000
      outer loop
         vertex 0.000000e+000 1.000000e+001 1.000000e+001
         vertex 1.570347e+000 6.618877e+000 1.000000e+001
         vertex 1.818704e+000 7.038184e+000 1.000000e+001
      endloop
   endfacet
   facet normal 0.000000e+000 0.000000e+000 1.000000e+000
      outer loop
         vertex 0.000000e+000 1.000000e+001 1.000000e+001
         vertex 1.818704e+000 7.038184e+000 1.000000e+001
         vertex 2.120732e+000 7.420647e+000 1.000000e+001
      endloop
   endfacet
   facet normal 0.000000e+000 0.000000e+000 1.000000e+000
      outer loop
         vertex 2.120732e+000 7.420647e+000 1.000000e+001
         vertex 2.471042e+000 7.759442e+000 1.000000e+001
         vertex 0.000000e+000 1.000000e+001 1.000000e+001
      endloop
   endfacet
   facet normal 0.000000e+000 0.000000e+000 1.000000e+000
      outer loop
         vertex 0.000000e+000 1.000000e+001 1.000000e+001
         vertex 2.471042e+000 7.759442e+000 1.000000e+001
         vertex 2.863384e+000 8.048521e+000 1.000000e+001
      endloop
   endfacet
   facet normal 0.000000e+000 0.000000e+000 1.000000e+000
      outer loop
         vertex 0.000000e+000 1.000000e+001 1.000000e+001
         vertex 2.863384e+000 8.048521e+000 1.000000e+001
         vertex 3.290756e+000 8.282727e+000 1.000000e+001
      endloop
   endfacet
   facet normal 1.000000e+000 0.000000e+000 0.000000e+000
      outer loop
         vertex 1.000000e+001 1.000000e+001 0.000000e+000
         vertex 1.000000e+001 1.000000e+001 1.000000e+001
         vertex 1.000000e+001 0.000000e+000 0.000000e+000
      endloop
   endfacet
   facet normal 1.000000e+000 0.000000e+000 0.000000e+000
      outer loop
         vertex 1.000000e+001 0.000000e+000 0.000000e+000
         vertex 1.000000e+001 1.000000e+001 1.000000e+001
         vertex 1.000000e+001 0.000000e+000 1.000000e+001
      endloop
   endfacet
   facet normal 0.000000e+000 0.000000e+000 -1.000000e+000
      outer loop
         vertex 1.251343e+000 4.246865e+000 0.000000e+000
         vertex 1.380096e+000 3.776842e+000 0.000000e+000
         vertex 0.000000e+000 0.000000e+000 0.000000e+000
      endloop
   endfacet
   facet normal 0.000000e+000 0.000000e+000 -1.000000e+000
      outer loop
         vertex 0.000000e+000 0.000000e+000 0.000000e+000
         vertex 1.380096e+000 3.776842e+000 0.000000e+000
         vertex 1.570347e+000 3.328173e+000 0.000000e+000
      endloop
   endfacet
   facet normal 0.000000e+000 0.000000e+000 -1.000000e+000
      outer loop
         vertex 1.570347e+000 3.328173e+000 0.000000e+000
         vertex 1.818704e+000 2.908866e+000 0.000000e+000
         vertex 0.000000e+000 0.000000e+000 0.000000e+000
      endloop
   endfacet
   facet normal 0.000000e+000 0.000000e+000 -1.000000e+000
      outer loop
         vertex 0.000000e+000 0.000000e+000 0.000000e+000
         vertex 1.818704e+000 2.908866e+000 0.000000e+000
         vertex 2.120732e+000 2.526403e+000 0.000000e+000
      endloop
   endfacet
   facet normal 0.000000e+000 0.000000e+000 -1.000000e+000
      outer loop
         vertex 0.000000e+000 0.000000e+000 0.000000e+000
         vertex 2.120732e+000 2.526403e+000 0.000000e+000
         vertex 2.471042e+000 2.187609e+000 0.000000e+000
      endloop
   endfacet
   facet normal 0.000000e+000 0.000000e+000 -1.000000e+000
      outer loop
         vertex 2.471042e+000 2.187609e+000 0.000000e+000
         vertex 2.863384e+000 1.898529e+000 0.000000e+000
         vertex 0.000000e+000 0.000000e+000 0.000000e+000
      endloop
   endfacet
   facet normal 0.000000e+000 0.000000e+000 -1.000000e+000
      outer loop
         vertex 0.000000e+000 0.000000e+000 0.000000e+000
         vertex 2.863384e+000 1.898529e+000 0.000000e+000
         vertex 3.290756e+000 1.664323e+000 0.000000e+000
      endloop
   endfacet
   facet normal 0.000000e+000 0.000000e+000 -1.000000e+000
      outer loop
         vertex 0.000000e+000 0.000000e+000 0.000000e+000
         vertex 3.290756e+000 1.664323e+000 0.000000e+000
         vertex 3.745531e+000 1.489170e+000 0.000000e+000
      endloop
   endfacet
   facet normal 0.000000e+000 0.000000e+000 -1.000000e+000
      outer loop
         vertex 5.672103e+000 1.424757e+000 0.000000e+000
         vertex 6.137561e+000 1.569144e+000 0.000000e+000
         vertex 1.000000e+001 0.000000e+000 0.000000e+000
      endloop
   endfacet
   facet normal 0.000000e+000 0.000000e+000 -1.000000e+000
      outer loop
         vertex 6.137561e+000 1.569144e+000 0.000000e+000
         vertex 6.579622e+000 1.774282e+000 0.000000e+000
         vertex 1.000000e+001 0.000000e+000 0.000000e+000
      endloop
   endfacet
   facet normal 0.000000e+000 0.000000e+000 -1.000000e+000
      outer loop
         vertex 1.000000e+001 0.000000e+000 0.000000e+000
         vertex 6.579622e+000 1.774282e+000 0.000000e+000
         vertex 6.990396e+000 2.036510e+000 0.000000e+000
      endloop
   endfacet
   facet normal 0.000000e+000 0.000000e+000 -1.000000e+000
      outer loop
         vertex 1.000000e+001 0.000000e+000 0.000000e+000
         vertex 6.990396e+000 2.036510e+000 0.000000e+000
         vertex 7.362554e+000 2.351150e+000 0.000000e+000
      endloop
   endfacet
   facet normal 0.000000e+000 0.000000e+000 -1.000000e+000
      outer loop
         vertex 3.745531e+000 1.489170e+000 0.000000e+000
         vertex 4.219594e+000 1.376195e+000 0.000000e+000
         vertex 0.000000e+000 0.000000e+000 0.000000e+000
      endloop
   endfacet
   facet normal 0.000000e+000 0.000000e+000 -1.000000e+000
      outer loop
         vertex 0.000000e+000 0.000000e+000 0.000000e+000
         vertex 4.219594e+000 1.376195e+000 0.000000e+000
         vertex 4.704485e+000 1.327414e+000 0.000000e+000
      endloop
   endfacet
   facet normal 0.000000e+000 0.000000e+000 -1.000000e+000
      outer loop
         vertex 0.000000e+000 0.000000e+000 0.000000e+000
         vertex 4.704485e+000 1.327414e+000 0.000000e+000
         vertex 1.000000e+001 0.000000e+000 0.000000e+000
      endloop
   endfacet
   facet normal 0.000000e+000 0.000000e+000 -1.000000e+000
      outer loop
         vertex 1.000000e+001 0.000000e+000 0.000000e+000
         vertex 4.704485e+000 1.327414e+000 0.000000e+000
         vertex 5.191553e+000 1.343699e+000 0.000000e+000
      endloop
   endfacet
   facet normal 0.000000e+000 0.000000e+000 -1.000000e+000
      outer loop
         vertex 1.000000e+001 0.000000e+000 0.000000e+000
         vertex 5.191553e+000 1.343699e+000 0.000000e+000
         vertex 5.672103e+000 1.424757e+000 0.000000e+000
      endloop
   endfacet
   facet normal 0.000000e+000 0.000000e+000 -1.000000e+000
      outer loop
         vertex 7.362554e+000 2.351150e+000 0.000000e+000
         vertex 7.689453e+000 2.712586e+000 0.000000e+000
         vertex 1.000000e+001 0.000000e+000 0.000000e+000
      endloop
   endfacet
   facet normal 0.000000e+000 0.000000e+000 -1.000000e+000
      outer loop
         vertex 1.000000e+001 0.000000e+000 0.000000e+000
         vertex 7.689453e+000 2.712586e+000 0.000000e+000
         vertex 7.965261e+000 3.114368e+000 0.000000e+000
      endloop
   endfacet
   facet normal 0.000000e+000 0.000000e+000 -1.000000e+000
      outer loop
         vertex 1.000000e+001 0.000000e+000 0.000000e+000
         vertex 7.965261e+000 3.114368e+000 0.000000e+000
         vertex 8.185056e+000 3.549327e+000 0.000000e+000
      endloop
   endfacet
   facet normal 0.000000e+000 0.000000e+000 -1.000000e+000
      outer loop
         vertex 1.000000e+001 0.000000e+000 0.000000e+000
         vertex 8.474536e+000 4.973525e+000 0.000000e+000
         vertex 1.000000e+001 1.000000e+001 0.000000e+000
      endloop
   endfacet
   facet normal 0.000000e+000 0.000000e+000 -1.000000e+000
      outer loop
         vertex 1.000000e+001 1.000000e+001 0.000000e+000
         vertex 8.474536e+000 4.973525e+000 0.000000e+000
         vertex 8.441985e+000 5.459775e+000 0.000000e+000
      endloop
   endfacet
   facet normal 0.000000e+000 0.000000e+000 -1.000000e+000
      outer loop
         vertex 1.000000e+001 1.000000e+001 0.000000e+000
         vertex 8.441985e+000 5.459775e+000 0.000000e+000
         vertex 8.344914e+000 5.937349e+000 0.000000e+000
      endloop
   endfacet
   facet normal 0.000000e+000 0.000000e+000 -1.000000e+000
      outer loop
         vertex 8.344914e+000 5.937349e+000 0.000000e+000
         vertex 8.185056e+000 6.397723e+000 0.000000e+000
         vertex 1.000000e+001 1.000000e+001 0.000000e+000
      endloop
   endfacet
   facet normal 0.000000e+000 0.000000e+000 -1.000000e+000
      outer loop
         vertex 1.000000e+001 1.000000e+001 0.000000e+000
         vertex 8.185056e+000 6.397723e+000 0.000000e+000
         vertex 7.965261e+000 6.832682e+000 0.000000e+000
      endloop
   endfacet
   facet normal 0.000000e+000 0.000000e+000 -1.000000e+000
      outer loop
         vertex 1.000000e+001 1.000000e+001 0.000000e+000
         vertex 7.965261e+000 6.832682e+000 0.000000e+000
         vertex 7.689453e+000 7.234464e+000 0.000000e+000
      endloop
   endfacet
   facet normal 0.000000e+000 0.000000e+000 -1.000000e+000
      outer loop
         vertex 6.579622e+000 8.172769e+000 0.000000e+000
         vertex 6.137561e+000 8.377906e+000 0.000000e+000
         vertex 1.000000e+001 1.000000e+001 0.000000e+000
      endloop
   endfacet
   facet normal 0.000000e+000 0.000000e+000 -1.000000e+000
      outer loop
         vertex 1.000000e+001 1.000000e+001 0.000000e+000
         vertex 6.137561e+000 8.377906e+000 0.000000e+000
         vertex 5.672103e+000 8.522292e+000 0.000000e+000
      endloop
   endfacet
   facet normal 0.000000e+000 0.000000e+000 -1.000000e+000
      outer loop
         vertex 3.745531e+000 8.457880e+000 0.000000e+000
         vertex 3.290756e+000 8.282727e+000 0.000000e+000
         vertex 0.000000e+000 1.000000e+001 0.000000e+000
      endloop
   endfacet
   facet normal 0.000000e+000 0.000000e+000 -1.000000e+000
      outer loop
         vertex 8.185056e+000 3.549327e+000 0.000000e+000
         vertex 8.344914e+000 4.009701e+000 0.000000e+000
         vertex 1.000000e+001 0.000000e+000 0.000000e+000
      endloop
   endfacet
   facet normal 0.000000e+000 0.000000e+000 -1.000000e+000
      outer loop
         vertex 1.000000e+001 0.000000e+000 0.000000e+000
         vertex 8.344914e+000 4.009701e+000 0.000000e+000
         vertex 8.441985e+000 4.487275e+000 0.000000e+000
      endloop
   endfacet
   facet normal 0.000000e+000 0.000000e+000 -1.000000e+000
      outer loop
         vertex 1.000000e+001 0.000000e+000 0.000000e+000
         vertex 8.441985e+000 4.487275e+000 0.000000e+000
         vertex 8.474536e+000 4.973525e+000 0.000000e+000
      endloop
   endfacet
   facet normal 0.000000e+000 0.000000e+000 -1.000000e+000
      outer loop
         vertex 7.689453e+000 7.234464e+000 0.000000e+000
         vertex 7.362554e+000 7.595901e+000 0.000000e+000
         vertex 1.000000e+001 1.000000e+001 0.000000e+000
      endloop
   endfacet
   facet normal 0.000000e+000 0.000000e+000 -1.000000e+000
      outer loop
         vertex 1.000000e+001 1.000000e+001 0.000000e+000
         vertex 7.362554e+000 7.595901e+000 0.000000e+000
         vertex 6.990396e+000 7.910540e+000 0.000000e+000
      endloop
   endfacet
   facet normal 0.000000e+000 0.000000e+000 -1.000000e+000
      outer loop
         vertex 1.000000e+001 1.000000e+001 0.000000e+000
         vertex 6.990396e+000 7.910540e+000 0.000000e+000
         vertex 6.579622e+000 8.172769e+000 0.000000e+000
      endloop
   endfacet
   facet normal 0.000000e+000 0.000000e+000 -1.000000e+000
      outer loop
         vertex 5.672103e+000 8.522292e+000 0.000000e+000
         vertex 5.191553e+000 8.603352e+000 0.000000e+000
         vertex 1.000000e+001 1.000000e+001 0.000000e+000
      endloop
   endfacet
   facet normal 0.000000e+000 0.000000e+000 -1.000000e+000
      outer loop
         vertex 1.000000e+001 1.000000e+001 0.000000e+000
         vertex 5.191553e+000 8.603352e+000 0.000000e+000
         vertex 4.704485e+000 8.619637e+000 0.000000e+000
      endloop
   endfacet
   facet normal 0.000000e+000 0.000000e+000 -1.000000e+000
      outer loop
         vertex 1.000000e+001 1.000000e+001 0.000000e+000
         vertex 4.704485e+000 8.619637e+000 0.000000e+000
         vertex 0.000000e+000 1.000000e+001 0.000000e+000
      endloop
   endfacet
   facet normal 0.000000e+000 0.000000e+000 -1.000000e+000
      outer loop
         vertex 0.000000e+000 1.000000e+001 0.000000e+000
         vertex 4.704485e+000 8.619637e+000 0.000000e+000
         vertex 4.219594e+000 8.570855e+000 0.000000e+000
      endloop
   endfacet
   facet normal 0.000000e+000 0.000000e+000 -1.000000e+000
      outer loop
         vertex 0.000000e+000 1.000000e+001 0.000000e+000
         vertex 4.219594e+000 8.570855e+000 0.000000e+000
         vertex 3.745531e+000 8.457880e+000 0.000000e+000
      endloop
   endfacet
   facet normal 0.000000e+000 0.000000e+000 -1.000000e+000
      outer loop
         vertex 3.290756e+000 8.282727e+000 0.000000e+000
         vertex 2.863384e+000 8.048521e+000 0.000000e+000
         vertex 0.000000e+000 1.000000e+001 0.000000e+000
      endloop
   endfacet
   facet normal 0.000000e+000 0.000000e+000 -1.000000e+000
      outer loop
         vertex 0.000000e+000 1.000000e+001 0.000000e+000
         vertex 2.863384e+000 8.048521e+000 0.000000e+000
         vertex 2.471042e+000 7.759442e+000 0.000000e+000
      endloop
   endfacet
   facet normal 0.000000e+000 0.000000e+000 -1.000000e+000
      outer loop
         vertex 0.000000e+000 1.000000e+001 0.000000e+000
         vertex 2.471042e+000 7.759442e+000 0.000000e+000
         vertex 2.120732e+000 7.420647e+000 0.000000e+000
      endloop
   endfacet
   facet normal 0.000000e+000 0.000000e+000 -1.000000e+000
      outer loop
         vertex 2.120732e+000 7.420647e+000 0.000000e+000
         vertex 1.818704e+000 7.038184e+000 0.000000e+000
         vertex 0.000000e+000 1.000000e+001 0.000000e+000
      endloop
   endfacet
   facet normal 0.000000e+000 0.000000e+000 -1.000000e+000
      outer loop
         vertex 0.000000e+000 1.000000e+001 0.000000e+000
         vertex 1.818704e+000 7.038184e+000 0.000000e+000
         vertex 1.570347e+000 6.618877e+000 0.000000e+000
      endloop
   endfacet
   facet normal 0.000000e+000 0.000000e+000 -1.000000e+000
      outer loop
         vertex 0.000000e+000 1.000000e+001 0.000000e+000
         vertex 1.570347e+000 6.618877e+000 0.000000e+000
         vertex 1.380096e+000 6.170208e+000 0.000000e+000
      endloop
   endfacet
   facet normal 0.000000e+000 0.000000e+000 -1.000000e+000
      outer loop
         vertex 1.380096e+000 6.170208e+000 0.000000e+000
         vertex 1.251343e+000 5.700185e+000 0.000000e+000
         vertex 0.000000e+000 1.000000e+001 0.000000e+000
      endloop
   endfacet
   facet normal 0.000000e+000 0.000000e+000 -1.000000e+000
      outer loop
         vertex 0.000000e+000 1.000000e+001 0.000000e+000
         vertex 1.251343e+000 5.700185e+000 0.000000e+000
         vertex 1.186387e+000 5.217195e+000 0.000000e+000
      endloop
   endfacet
   facet normal 0.000000e+000 0.000000e+000 -1.000000e+000
      outer loop
         vertex 0.000000e+000 1.000000e+001 0.000000e+000
         vertex 1.186387e+000 5.217195e+000 0.000000e+000
         vertex 0.000000e+000 0.000000e+000 0.000000e+000
      endloop
   endfacet
   facet normal 0.000000e+000 0.000000e+000 -1.000000e+000
      outer loop
         vertex 0.000000e+000 0.000000e+000 0.000000e+000
         vertex 1.186387e+000 5.217195e+000 0.000000e+000
         vertex 1.186387e+000 4.729856e+000 0.000000e+000
      endloop
   endfacet
   facet normal 0.000000e+000 0.000000e+000 -1.000000e+000
      outer loop
         vertex 0.000000e+000 0.000000e+000 0.000000e+000
         vertex 1.186387e+000 4.729856e+000 0.000000e+000
         vertex 1.251343e+000 4.246865e+000 0.000000e+000
      endloop
   endfacet
   facet normal 0.000000e+000 1.000000e+000 0.000000e+000
      outer loop
         vertex 1.000000e+001 1.000000e+001 1.000000e+001
         vertex 1.000000e+001 1.000000e+001 0.000000e+000
         vertex 0.000000e+000 1.000000e+001 1.000000e+001
      endloop
   endfacet
   facet normal 0.000000e+000 1.000000e+000 0.000000e+000
      outer loop
         vertex 0.000000e+000 1.000000e+001 1.000000e+001
         vertex 1.000000e+001 1.000000e+001 0.000000e+000
         vertex 0.000000e+000 1.000000e+001 0.000000e+000
      endloop
   endfacet
   facet normal 0.000000e+000 -1.000000e+000 0.000000e+000
      outer loop
         vertex 1.000000e+001 0.000000e+000 0.000000e+000
         vertex 1.000000e+001 0.000000e+000 1.000000e+001
         vertex 0.000000e+000 0.000000e+000 0.000000e+000
      endloop
   endfacet
   facet normal 0.000000e+000 -1.000000e+000 0.000000e+000
      outer loop
         vertex 0.000000e+000 0.000000e+000 0.000000e+000
         vertex 1.000000e+001 0.000000e+000 1.000000e+001
         vertex 0.000000e+000 0.000000e+000 1.000000e+001
      endloop
   endfacet
   facet normal -9.990087e-001 4.451735e-002 0.000000e+000
      outer loop
         vertex 8.441985e+000 4.487275e+000 0.000000e+000
         vertex 8.474536e+000 4.973525e+000 1.000000e+001
         vertex 8.474536e+000 4.973525e+000 0.000000e+000
      endloop
   endfacet
   facet normal -9.990087e-001 -4.451735e-002 0.000000e+000
      outer loop
         vertex 8.474536e+000 4.973525e+000 0.000000e+000
         vertex 8.474536e+000 4.973525e+000 1.000000e+001
         vertex 8.441985e+000 5.459775e+000 1.000000e+001
      endloop
   endfacet
   facet normal -9.960285e-001 -8.903468e-002 0.000000e+000
      outer loop
         vertex 8.474536e+000 4.973525e+000 0.000000e+000
         vertex 8.441985e+000 5.459775e+000 1.000000e+001
         vertex 8.441985e+000 5.459775e+000 0.000000e+000
      endloop
   endfacet
   facet normal -9.841614e-001 -1.772750e-001 0.000000e+000
      outer loop
         vertex 8.441985e+000 5.459775e+000 0.000000e+000
         vertex 8.441985e+000 5.459775e+000 1.000000e+001
         vertex 8.344914e+000 5.937349e+000 1.000000e+001
      endloop
   endfacet
   facet normal -9.752743e-001 -2.209979e-001 0.000000e+000
      outer loop
         vertex 8.441985e+000 5.459775e+000 0.000000e+000
         vertex 8.344914e+000 5.937349e+000 1.000000e+001
         vertex 8.344914e+000 5.937349e+000 0.000000e+000
      endloop
   endfacet
   facet normal -9.517517e-001 -3.068691e-001 0.000000e+000
      outer loop
         vertex 8.344914e+000 5.937349e+000 0.000000e+000
         vertex 8.344914e+000 5.937349e+000 1.000000e+001
         vertex 8.185056e+000 6.397723e+000 1.000000e+001
      endloop
   endfacet
   facet normal -9.371163e-001 -3.490174e-001 0.000000e+000
      outer loop
         vertex 8.344914e+000 5.937349e+000 0.000000e+000
         vertex 8.185056e+000 6.397723e+000 1.000000e+001
         vertex 8.185056e+000 6.397723e+000 0.000000e+000
      endloop
   endfacet
   facet normal -9.023581e-001 -4.309871e-001 0.000000e+000
      outer loop
         vertex 8.185056e+000 6.397723e+000 0.000000e+000
         vertex 8.185056e+000 6.397723e+000 1.000000e+001
         vertex 7.965261e+000 6.832682e+000 1.000000e+001
      endloop
   endfacet
   facet normal -8.822354e-001 -4.708086e-001 0.000000e+000
      outer loop
         vertex 8.185056e+000 6.397723e+000 0.000000e+000
         vertex 7.965261e+000 6.832682e+000 1.000000e+001
         vertex 7.965261e+000 6.832682e+000 0.000000e+000
      endloop
   endfacet
   facet normal -8.368618e-001 -5.474142e-001 0.000000e+000
      outer loop
         vertex 7.965261e+000 6.832682e+000 0.000000e+000
         vertex 7.965261e+000 6.832682e+000 1.000000e+001
         vertex 7.689453e+000 7.234464e+000 1.000000e+001
      endloop
   endfacet
   facet normal -8.116109e-001 -5.841983e-001 0.000000e+000
      outer loop
         vertex 7.965261e+000 6.832682e+000 0.000000e+000
         vertex 7.689453e+000 7.234464e+000 1.000000e+001
         vertex 7.689453e+000 7.234464e+000 0.000000e+000
      endloop
   endfacet
   facet normal -7.564318e-001 -6.540726e-001 0.000000e+000
      outer loop
         vertex 7.689453e+000 7.234464e+000 0.000000e+000
         vertex 7.689453e+000 7.234464e+000 1.000000e+001
         vertex 7.362554e+000 7.595901e+000 1.000000e+001
      endloop
   endfacet
   facet normal -7.265033e-001 -6.871629e-001 0.000000e+000
      outer loop
         vertex 7.689453e+000 7.234464e+000 0.000000e+000
         vertex 7.362554e+000 7.595901e+000 1.000000e+001
         vertex 7.362554e+000 7.595901e+000 0.000000e+000
      endloop
   endfacet
   facet normal -6.625031e-001 -7.490591e-001 0.000000e+000
      outer loop
         vertex 7.362554e+000 7.595901e+000 0.000000e+000
         vertex 7.362554e+000 7.595901e+000 1.000000e+001
         vertex 6.990396e+000 7.910540e+000 1.000000e+001
      endloop
   endfacet
   facet normal -6.284313e-001 -7.778651e-001 0.000000e+000
      outer loop
         vertex 7.362554e+000 7.595901e+000 0.000000e+000
         vertex 6.990396e+000 7.910540e+000 1.000000e+001
         vertex 6.990396e+000 7.910540e+000 0.000000e+000
      endloop
   endfacet
   facet normal -5.567521e-001 -8.306787e-001 0.000000e+000
      outer loop
         vertex 6.990396e+000 7.910540e+000 0.000000e+000
         vertex 6.990396e+000 7.910540e+000 1.000000e+001
         vertex 6.579622e+000 8.172769e+000 1.000000e+001
      endloop
   endfacet
   facet normal -5.191448e-001 -8.546863e-001 0.000000e+000
      outer loop
         vertex 6.990396e+000 7.910540e+000 0.000000e+000
         vertex 6.579622e+000 8.172769e+000 1.000000e+001
         vertex 6.579622e+000 8.172769e+000 0.000000e+000
      endloop
   endfacet
   facet normal -4.410658e-001 -8.974748e-001 0.000000e+000
      outer loop
         vertex 6.579622e+000 8.172769e+000 0.000000e+000
         vertex 6.579622e+000 8.172769e+000 1.000000e+001
         vertex 6.137561e+000 8.377906e+000 1.000000e+001
      endloop
   endfacet
   facet normal -4.005942e-001 -9.162556e-001 0.000000e+000
      outer loop
         vertex 6.579622e+000 8.172769e+000 0.000000e+000
         vertex 6.137561e+000 8.377906e+000 1.000000e+001
         vertex 6.137561e+000 8.377906e+000 0.000000e+000
      endloop
   endfacet
   facet normal -3.175088e-001 -9.482554e-001 0.000000e+000
      outer loop
         vertex 6.137561e+000 8.377906e+000 0.000000e+000
         vertex 6.137561e+000 8.377906e+000 1.000000e+001
         vertex 5.672103e+000 8.522292e+000 1.000000e+001
      endloop
   endfacet
   facet normal -2.748950e-001 -9.614743e-001 0.000000e+000
      outer loop
         vertex 6.137561e+000 8.377906e+000 0.000000e+000
         vertex 5.672103e+000 8.522292e+000 1.000000e+001
         vertex 5.672103e+000 8.522292e+000 0.000000e+000
      endloop
   endfacet
   facet normal -1.882857e-001 -9.821143e-001 0.000000e+000
      outer loop
         vertex 5.672103e+000 8.522292e+000 0.000000e+000
         vertex 5.672103e+000 8.522292e+000 1.000000e+001
         vertex 5.191553e+000 8.603352e+000 1.000000e+001
      endloop
   endfacet
   facet normal -1.442902e-001 -9.895355e-001 0.000000e+000
      outer loop
         vertex 5.672103e+000 8.522292e+000 0.000000e+000
         vertex 5.191553e+000 8.603352e+000 1.000000e+001
         vertex 5.191553e+000 8.603352e+000 0.000000e+000
      endloop
   endfacet
   facet normal -5.570269e-002 -9.984474e-001 0.000000e+000
      outer loop
         vertex 5.191553e+000 8.603352e+000 0.000000e+000
         vertex 5.191553e+000 8.603352e+000 1.000000e+001
         vertex 4.704485e+000 8.619637e+000 1.000000e+001
      endloop
   endfacet
   facet normal -1.111063e-002 -9.999383e-001 0.000000e+000
      outer loop
         vertex 5.191553e+000 8.603352e+000 0.000000e+000
         vertex 4.704485e+000 8.619637e+000 1.000000e+001
         vertex 4.704485e+000 8.619637e+000 0.000000e+000
      endloop
   endfacet
   facet normal 7.787433e-002 -9.969632e-001 0.000000e+000
      outer loop
         vertex 4.704485e+000 8.619637e+000 0.000000e+000
         vertex 4.704485e+000 8.619637e+000 1.000000e+001
         vertex 4.219594e+000 8.570855e+000 1.000000e+001
      endloop
   endfacet
   facet normal 1.222672e-001 -9.924972e-001 0.000000e+000
      outer loop
         vertex 4.704485e+000 8.619637e+000 0.000000e+000
         vertex 4.219594e+000 8.570855e+000 1.000000e+001
         vertex 4.219594e+000 8.570855e+000 0.000000e+000
      endloop
   endfacet
   facet normal 2.100617e-001 -9.776881e-001 0.000000e+000
      outer loop
         vertex 4.219594e+000 8.570855e+000 0.000000e+000
         vertex 4.219594e+000 8.570855e+000 1.000000e+001
         vertex 3.745531e+000 8.457880e+000 1.000000e+001
      endloop
   endfacet
   facet normal 2.534632e-001 -9.673451e-001 0.000000e+000
      outer loop
         vertex 4.219594e+000 8.570855e+000 0.000000e+000
         vertex 3.745531e+000 8.457880e+000 1.000000e+001
         vertex 3.745531e+000 8.457880e+000 0.000000e+000
      endloop
   endfacet
   facet normal 3.385005e-001 -9.409662e-001 0.000000e+000
      outer loop
         vertex 3.745531e+000 8.457880e+000 0.000000e+000
         vertex 3.745531e+000 8.457880e+000 1.000000e+001
         vertex 3.290756e+000 8.282727e+000 1.000000e+001
      endloop
   endfacet
   facet normal 3.801362e-001 -9.249305e-001 0.000000e+000
      outer loop
         vertex 3.745531e+000 8.457880e+000 0.000000e+000
         vertex 3.290756e+000 8.282727e+000 1.000000e+001
         vertex 3.290756e+000 8.282727e+000 0.000000e+000
      endloop
   endfacet
   facet normal 4.608988e-001 -8.874527e-001 0.000000e+000
      outer loop
         vertex 3.290756e+000 8.282727e+000 0.000000e+000
         vertex 3.290756e+000 8.282727e+000 1.000000e+001
         vertex 2.863384e+000 8.048521e+000 1.000000e+001
      endloop
   endfacet
   facet normal 5.000256e-001 -8.660106e-001 0.000000e+000
      outer loop
         vertex 3.290756e+000 8.282727e+000 0.000000e+000
         vertex 2.863384e+000 8.048521e+000 1.000000e+001
         vertex 2.863384e+000 8.048521e+000 0.000000e+000
      endloop
   endfacet
   facet normal 5.750722e-001 -8.181027e-001 0.000000e+000
      outer loop
         vertex 2.863384e+000 8.048521e+000 0.000000e+000
         vertex 2.863384e+000 8.048521e+000 1.000000e+001
         vertex 2.471042e+000 7.759442e+000 1.000000e+001
      endloop
   endfacet
   facet normal 6.109920e-001 -7.916368e-001 0.000000e+000
      outer loop
         vertex 2.863384e+000 8.048521e+000 0.000000e+000
         vertex 2.471042e+000 7.759442e+000 1.000000e+001
         vertex 2.471042e+000 7.759442e+000 0.000000e+000
      endloop
   endfacet
   facet normal 6.789836e-001 -7.341534e-001 0.000000e+000
      outer loop
         vertex 2.471042e+000 7.759442e+000 0.000000e+000
         vertex 2.471042e+000 7.759442e+000 1.000000e+001
         vertex 2.120732e+000 7.420647e+000 1.000000e+001
      endloop
   endfacet
   facet normal 7.110553e-001 -7.031361e-001 0.000000e+000
      outer loop
         vertex 2.471042e+000 7.759442e+000 0.000000e+000
         vertex 2.120732e+000 7.420647e+000 1.000000e+001
         vertex 2.120732e+000 7.420647e+000 0.000000e+000
      endloop
   endfacet
   facet normal 7.707784e-001 -6.371033e-001 0.000000e+000
      outer loop
         vertex 2.120732e+000 7.420647e+000 0.000000e+000
         vertex 2.120732e+000 7.420647e+000 1.000000e+001
         vertex 1.818704e+000 7.038184e+000 1.000000e+001
      endloop
   endfacet
   facet normal 7.984298e-001 -6.020879e-001 0.000000e+000
      outer loop
         vertex 2.120732e+000 7.420647e+000 0.000000e+000
         vertex 1.818704e+000 7.038184e+000 1.000000e+001
         vertex 1.818704e+000 7.038184e+000 0.000000e+000
      endloop
   endfacet
   facet normal 8.488187e-001 -5.286841e-001 0.000000e+000
      outer loop
         vertex 1.818704e+000 7.038184e+000 0.000000e+000
         vertex 1.818704e+000 7.038184e+000 1.000000e+001
         vertex 1.570347e+000 6.618877e+000 1.000000e+001
      endloop
   endfacet
   facet normal 8.715562e-001 -4.902956e-001 0.000000e+000
      outer loop
         vertex 1.818704e+000 7.038184e+000 0.000000e+000
         vertex 1.570347e+000 6.618877e+000 1.000000e+001
         vertex 1.570347e+000 6.618877e+000 0.000000e+000
      endloop
   endfacet
   facet normal 9.117118e-001 -4.108304e-001 0.000000e+000
      outer loop
         vertex 1.570347e+000 6.618877e+000 0.000000e+000
         vertex 1.570347e+000 6.618877e+000 1.000000e+001
         vertex 1.380096e+000 6.170208e+000 1.000000e+001
      endloop
   endfacet
   facet normal 9.291298e-001 -3.697538e-001 0.000000e+000
      outer loop
         vertex 1.570347e+000 6.618877e+000 0.000000e+000
         vertex 1.380096e+000 6.170208e+000 1.000000e+001
         vertex 1.380096e+000 6.170208e+000 0.000000e+000
      endloop
   endfacet
   facet normal 9.583354e-001 -2.856455e-001 0.000000e+000
      outer loop
         vertex 1.380096e+000 6.170208e+000 0.000000e+000
         vertex 1.380096e+000 6.170208e+000 1.000000e+001
         vertex 1.251343e+000 5.700185e+000 1.000000e+001
      endloop
   endfacet
   facet normal 9.701230e-001 -2.426138e-001 0.000000e+000
      outer loop
         vertex 1.380096e+000 6.170208e+000 0.000000e+000
         vertex 1.251343e+000 5.700185e+000 1.000000e+001
         vertex 1.251343e+000 5.700185e+000 0.000000e+000
      endloop
   endfacet
   facet normal 9.878575e-001 -1.553632e-001 0.000000e+000
      outer loop
         vertex 1.251343e+000 5.700185e+000 0.000000e+000
         vertex 1.251343e+000 5.700185e+000 1.000000e+001
         vertex 1.186387e+000 5.217195e+000 1.000000e+001
      endloop
   endfacet
   facet normal 9.938043e-001 -1.111444e-001 0.000000e+000
      outer loop
         vertex 1.251343e+000 5.700185e+000 0.000000e+000
         vertex 1.186387e+000 5.217195e+000 1.000000e+001
         vertex 1.186387e+000 5.217195e+000 0.000000e+000
      endloop
   endfacet
   facet normal 9.997512e-001 -2.230849e-002 0.000000e+000
      outer loop
         vertex 1.186387e+000 5.217195e+000 0.000000e+000
         vertex 1.186387e+000 5.217195e+000 1.000000e+001
         vertex 1.186387e+000 4.729856e+000 1.000000e+001
      endloop
   endfacet
   facet normal 9.997512e-001 2.230849e-002 0.000000e+000
      outer loop
         vertex 1.186387e+000 5.217195e+000 0.000000e+000
         vertex 1.186387e+000 4.729856e+000 1.000000e+001
         vertex 1.186387e+000 4.729856e+000 0.000000e+000
      endloop
   endfacet
   facet normal 9.938043e-001 1.111443e-001 0.000000e+000
      outer loop
         vertex 1.186387e+000 4.729856e+000 0.000000e+000
         vertex 1.186387e+000 4.729856e+000 1.000000e+001
         vertex 1.251343e+000 4.246865e+000 1.000000e+001
      endloop
   endfacet
   facet normal 9.878575e-001 1.553632e-001 0.000000e+000
      outer loop
         vertex 1.186387e+000 4.729856e+000 0.000000e+000
         vertex 1.251343e+000 4.246865e+000 1.000000e+001
         vertex 1.251343e+000 4.246865e+000 0.000000e+000
      endloop
   endfacet
   facet normal 9.701230e-001 2.426138e-001 0.000000e+000
      outer loop
         vertex 1.251343e+000 4.246865e+000 0.000000e+000
         vertex 1.251343e+000 4.246865e+000 1.000000e+001
         vertex 1.380096e+000 3.776842e+000 1.000000e+001
      endloop
   endfacet
   facet normal 9.583354e-001 2.856455e-001 0.000000e+000
      outer loop
         vertex 1.251343e+000 4.246865e+000 0.000000e+000
         vertex 1.380096e+000 3.776842e+000 1.000000e+001
         vertex 1.380096e+000 3.776842e+000 0.000000e+000
      endloop
   endfacet
   facet normal 9.291298e-001 3.697538e-001 0.000000e+000
      outer loop
         vertex 1.380096e+000 3.776842e+000 0.000000e+000
         vertex 1.380096e+000 3.776842e+000 1.000000e+001
         vertex 1.570347e+000 3.328173e+000 1.000000e+001
      endloop
   endfacet
   facet normal 9.117118e-001 4.108304e-001 0.000000e+000
      outer loop
         vertex 1.380096e+000 3.776842e+000 0.000000e+000
         vertex 1.570347e+000 3.328173e+000 1.000000e+001
         vertex 1.570347e+000 3.328173e+000 0.000000e+000
      endloop
   endfacet
   facet normal 8.715562e-001 4.902956e-001 0.000000e+000
      outer loop
         vertex 1.570347e+000 3.328173e+000 0.000000e+000
         vertex 1.570347e+000 3.328173e+000 1.000000e+001
         vertex 1.818704e+000 2.908866e+000 1.000000e+001
      endloop
   endfacet
   facet normal 8.488187e-001 5.286841e-001 0.000000e+000
      outer loop
         vertex 1.570347e+000 3.328173e+000 0.000000e+000
         vertex 1.818704e+000 2.908866e+000 1.000000e+001
         vertex 1.818704e+000 2.908866e+000 0.000000e+000
      endloop
   endfacet
   facet normal 7.984298e-001 6.020879e-001 0.000000e+000
      outer loop
         vertex 1.818704e+000 2.908866e+000 0.000000e+000
         vertex 1.818704e+000 2.908866e+000 1.000000e+001
         vertex 2.120732e+000 2.526403e+000 1.000000e+001
      endloop
   endfacet
   facet normal 7.707784e-001 6.371033e-001 0.000000e+000
      outer loop
         vertex 1.818704e+000 2.908866e+000 0.000000e+000
         vertex 2.120732e+000 2.526403e+000 1.000000e+001
         vertex 2.120732e+000 2.526403e+000 0.000000e+000
      endloop
   endfacet
   facet normal 7.110553e-001 7.031361e-001 0.000000e+000
      outer loop
         vertex 2.120732e+000 2.526403e+000 0.000000e+000
         vertex 2.120732e+000 2.526403e+000 1.000000e+001
         vertex 2.471042e+000 2.187609e+000 1.000000e+001
      endloop
   endfacet
   facet normal 6.789836e-001 7.341534e-001 0.000000e+000
      outer loop
         vertex 2.120732e+000 2.526403e+000 0.000000e+000
         vertex 2.471042e+000 2.187609e+000 1.000000e+001
         vertex 2.471042e+000 2.187609e+000 0.000000e+000
      endloop
   endfacet
   facet normal 6.109920e-001 7.916368e-001 0.000000e+000
      outer loop
         vertex 2.471042e+000 2.187609e+000 0.000000e+000
         vertex 2.471042e+000 2.187609e+000 1.000000e+001
         vertex 2.863384e+000 1.898529e+000 1.000000e+001
      endloop
   endfacet
   facet normal 5.750722e-001 8.181027e-001 0.000000e+000
      outer loop
         vertex 2.471042e+000 2.187609e+000 0.000000e+000
         vertex 2.863384e+000 1.898529e+000 1.000000e+001
         vertex 2.863384e+000 1.898529e+000 0.000000e+000
      endloop
   endfacet
   facet normal 5.000256e-001 8.660106e-001 0.000000e+000
      outer loop
         vertex 2.863384e+000 1.898529e+000 0.000000e+000
         vertex 2.863384e+000 1.898529e+000 1.000000e+001
         vertex 3.290756e+000 1.664323e+000 1.000000e+001
      endloop
   endfacet
   facet normal 4.608988e-001 8.874527e-001 0.000000e+000
      outer loop
         vertex 2.863384e+000 1.898529e+000 0.000000e+000
         vertex 3.290756e+000 1.664323e+000 1.000000e+001
         vertex 3.290756e+000 1.664323e+000 0.000000e+000
      endloop
   endfacet
   facet normal 3.801362e-001 9.249305e-001 0.000000e+000
      outer loop
         vertex 3.290756e+000 1.664323e+000 0.000000e+000
         vertex 3.290756e+000 1.664323e+000 1.000000e+001
         vertex 3.745531e+000 1.489170e+000 1.000000e+001
      endloop
   endfacet
   facet normal 3.385005e-001 9.409662e-001 0.000000e+000
      outer loop
         vertex 3.290756e+000 1.664323e+000 0.000000e+000
         vertex 3.745531e+000 1.489170e+000 1.000000e+001
         vertex 3.745531e+000 1.489170e+000 0.000000e+000
      endloop
   endfacet
   facet normal 2.534632e-001 9.673451e-001 0.000000e+000
      outer loop
         vertex 3.745531e+000 1.489170e+000 0.000000e+000
         vertex 3.745531e+000 1.489170e+000 1.000000e+001
         vertex 4.219594e+000 1.376195e+000 1.000000e+001
      endloop
   endfacet
   facet normal 2.100617e-001 9.776881e-001 0.000000e+000
      outer loop
         vertex 3.745531e+000 1.489170e+000 0.000000e+000
         vertex 4.219594e+000 1.376195e+000 1.000000e+001
         vertex 4.219594e+000 1.376195e+000 0.000000e+000
      endloop
   endfacet
   facet normal 1.222672e-001 9.924972e-001 0.000000e+000
      outer loop
         vertex 4.219594e+000 1.376195e+000 0.000000e+000
         vertex 4.219594e+000 1.376195e+000 1.000000e+001
         vertex 4.704485e+000 1.327414e+000 1.000000e+001
      endloop
   endfacet
   facet normal 7.787433e-002 9.969632e-001 0.000000e+000
      outer loop
         vertex 4.219594e+000 1.376195e+000 0.000000e+000
         vertex 4.704485e+000 1.327414e+000 1.000000e+001
         vertex 4.704485e+000 1.327414e+000 0.000000e+000
      endloop
   endfacet
   facet normal -1.111063e-002 9.999383e-001 0.000000e+000
      outer loop
         vertex 4.704485e+000 1.327414e+000 0.000000e+000
         vertex 4.704485e+000 1.327414e+000 1.000000e+001
         vertex 5.191553e+000 1.343699e+000 1.000000e+001
      endloop
   endfacet
   facet normal -5.570269e-002 9.984474e-001 0.000000e+000
      outer loop
         vertex 4.704485e+000 1.327414e+000 0.000000e+000
         vertex 5.191553e+000 1.343699e+000 1.000000e+001
         vertex 5.191553e+000 1.343699e+000 0.000000e+000
      endloop
   endfacet
   facet normal -1.442902e-001 9.895355e-001 0.000000e+000
      outer loop
         vertex 5.191553e+000 1.343699e+000 0.000000e+000
         vertex 5.191553e+000 1.343699e+000 1.000000e+001
         vertex 5.672103e+000 1.424757e+000 1.000000e+001
      endloop
   endfacet
   facet normal -1.882857e-001 9.821143e-001 0.000000e+000
      outer loop
         vertex 5.191553e+000 1.343699e+000 0.000000e+000
         vertex 5.672103e+000 1.424757e+000 1.000000e+001
         vertex 5.672103e+000 1.424757e+000 0.000000e+000
      endloop
   endfacet
   facet normal -2.748950e-001 9.614743e-001 0.000000e+000
      outer loop
         vertex 5.672103e+000 1.424757e+000 0.000000e+000
         vertex 5.672103e+000 1.424757e+000 1.000000e+001
         vertex 6.137561e+000 1.569144e+000 1.000000e+001
      endloop
   endfacet
   facet normal -3.175088e-001 9.482554e-001 0.000000e+000
      outer loop
         vertex 5.672103e+000 1.424757e+000 0.000000e+000
         vertex 6.137561e+000 1.569144e+000 1.000000e+001
         vertex 6.137561e+000 1.569144e+000 0.000000e+000
      endloop
   endfacet
   facet normal -4.005942e-001 9.162556e-001 0.000000e+000
      outer loop
         vertex 6.137561e+000 1.569144e+000 0.000000e+000
         vertex 6.137561e+000 1.569144e+000 1.000000e+001
         vertex 6.579622e+000 1.774282e+000 1.000000e+001
      endloop
   endfacet
   facet normal -4.410658e-001 8.974748e-001 0.000000e+000
      outer loop
         vertex 6.137561e+000 1.569144e+000 0.000000e+000
         vertex 6.579622e+000 1.774282e+000 1.000000e+001
         vertex 6.579622e+000 1.774282e+000 0.000000e+000
      endloop
   endfacet
   facet normal -5.191448e-001 8.546863e-001 0.000000e+000
      outer loop
         vertex 6.579622e+000 1.774282e+000 0.000000e+000
         vertex 6.579622e+000 1.774282e+000 1.000000e+001
         vertex 6.990396e+000 2.036510e+000 1.000000e+001
      endloop
   endfacet
   facet normal -5.567521e-001 8.306787e-001 0.000000e+000
      outer loop
         vertex 6.579622e+000 1.774282e+000 0.000000e+000
         vertex 6.990396e+000 2.036510e+000 1.000000e+001
         vertex 6.990396e+000 2.036510e+000 0.000000e+000
      endloop
   endfacet
   facet normal -6.284313e-001 7.778651e-001 0.000000e+000
      outer loop
         vertex 6.990396e+000 2.036510e+000 0.000000e+000
         vertex 6.990396e+000 2.036510e+000 1.000000e+001
         vertex 7.362554e+000 2.351150e+000 1.000000e+001
      endloop
   endfacet
   facet normal -6.625032e-001 7.490591e-001 0.000000e+000
      outer loop
         vertex 6.990396e+000 2.036510e+000 0.000000e+000
         vertex 7.362554e+000 2.351150e+000 1.000000e+001
         vertex 7.362554e+000 2.351150e+000 0.000000e+000
      endloop
   endfacet
   facet normal -7.265033e-001 6.871629e-001 0.000000e+000
      outer loop
         vertex 7.362554e+000 2.351150e+000 0.000000e+000
         vertex 7.362554e+000 2.351150e+000 1.000000e+001
         vertex 7.689453e+000 2.712586e+000 1.000000e+001
      endloop
   endfacet
   facet normal -7.564318e-001 6.540726e-001 0.000000e+000
      outer loop
         vertex 7.362554e+000 2.351150e+000 0.000000e+000
         vertex 7.689453e+000 2.712586e+000 1.000000e+001
         vertex 7.689453e+000 2.712586e+000 0.000000e+000
      endloop
   endfacet
   facet normal -8.116109e-001 5.841983e-001 0.000000e+000
      outer loop
         vertex 7.689453e+000 2.712586e+000 0.000000e+000
         vertex 7.689453e+000 2.712586e+000 1.000000e+001
         vertex 7.965261e+000 3.114368e+000 1.000000e+001
      endloop
   endfacet
   facet normal -8.368618e-001 5.474142e-001 0.000000e+000
      outer loop
         vertex 7.689453e+000 2.712586e+000 0.000000e+000
         vertex 7.965261e+000 3.114368e+000 1.000000e+001
         vertex 7.965261e+000 3.114368e+000 0.000000e+000
      endloop
   endfacet
   facet normal -8.822354e-001 4.708086e-001 0.000000e+000
      outer loop
         vertex 7.965261e+000 3.114368e+000 0.000000e+000
         vertex 7.965261e+000 3.114368e+000 1.000000e+001
         vertex 8.185056e+000 3.549327e+000 1.000000e+001
      endloop
   endfacet
   facet normal -9.023581e-001 4.309871e-001 0.000000e+000
      outer loop
         vertex 7.965261e+000 3.114368e+000 0.000000e+000
         vertex 8.185056e+000 3.549327e+000 1.000000e+001
         vertex 8.185056e+000 3.549327e+000 0.000000e+000
      endloop
   endfacet
   facet normal -9.371163e-001 3.490174e-001 0.000000e+000
      outer loop
         vertex 8.185056e+000 3.549327e+000 0.000000e+000
         vertex 8.185056e+000 3.549327e+000 1.000000e+001
         vertex 8.344914e+000 4.009701e+000 1.000000e+001
      endloop
   endfacet
   facet normal -9.517517e-001 3.068691e-001 0.000000e+000
      outer loop
         vertex 8.185056e+000 3.549327e+000 0.000000e+000
         vertex 8.344914e+000 4.009701e+000 1.000000e+001
         vertex 8.344914e+000 4.009701e+000 0.000000e+000
      endloop
   endfacet
   facet normal -9.752743e-001 2.209979e-001 0.000000e+000
      outer loop
         vertex 8.344914e+000 4.009701e+000 0.000000e+000
         vertex 8.344914e+000 4.009701e+000 1.000000e+001
         vertex 8.441985e+000 4.487275e+000 1.000000e+001
      endloop
   endfacet
   facet normal -9.841614e-001 1.772750e-001 0.000000e+000
      outer loop
         vertex 8.344914e+000 4.009701e+000 0.000000e+000
         vertex 8.441985e+000 4.487275e+000 1.000000e+001
         vertex 8.441985e+000 4.487275e+000 0.000000e+000
      endloop
   endfacet
   facet normal -9.960285e-001 8.903468e-002 0.000000e+000
      outer loop
         vertex 8.441985e+000 4.487275e+000 0.000000e+000
         vertex 8.441985e+000 4.487275e+000 1.000000e+001
         vertex 8.474536e+000 4.973525e+000 1.000000e+001
      endloop
   endfacet
endsolid