solid 3_407
   facet normal -1.000000e+000 0.000000e+000 0.000000e+000
      outer loop
         vertex 0.000000e+000 1.000000e+001 1.000000e+001
         vertex 0.000000e+000 1.000000e+001 0.000000e+000
         vertex 0.000000e+000 0.000000e+000 1.000000e+001
      endloop
   endfacet
   facet normal -1.000000e+000 0.000000e+000 0.000000e+000
      outer loop
         vertex 0.000000e+000 0.000000e+000 1.000000e+001
         vertex 0.000000e+000 1.000000e+001 0.000000e+000
         vertex 0.000000e+000 0.000000e+000 0.000000e+000
      endloop
   endfacet
   facet normal 0.000000e+000 0.000000e+000 1.000000e+000
      outer loop
         vertex 1.000000e+001 1.000000e+001 1.000000e+001
         vertex 6.325459e+000 6.368309e+000 1.000000e+001
         vertex 1.000000e+001 0.000000e+000 1.000000e+001
      endloop
   endfacet
   facet normal 0.000000e+000 0.000000e+000 1.000000e+000
      outer loop
         vertex 1.000000e+001 0.000000e+000 1.000000e+001
         vertex 6.325459e+000 6.368309e+000 1.000000e+001
         vertex 6.309223e+000 6.182730e+000 1.000000e+001
      endloop
   endfacet
   facet normal 0.000000e+000 0.000000e+000 1.000000e+000
      outer loop
         vertex 6.309223e+000 6.182730e+000 1.000000e+001
         vertex 6.261008e+000 6.002790e+000 1.000000e+001
         vertex 1.000000e+001 0.000000e+000 1.000000e+001
      endloop
   endfacet
   facet normal 0.000000e+000 0.000000e+000 1.000000e+000
      outer loop
         vertex 1.000000e+001 0.000000e+000 1.000000e+001
         vertex 6.261008e+000 6.002790e+000 1.000000e+001
         vertex 6.182280e+000 5.833955e+000 1.000000e+001
      endloop
   endfacet
   facet normal 0.000000e+000 0.000000e+000 1.000000e+000
      outer loop
         vertex 1.000000e+001 0.000000e+000 1.000000e+001
         vertex 6.182280e+000 5.833955e+000 1.000000e+001
         vertex 6.075429e+000 5.681357e+000 1.000000e+001
      endloop
   endfacet
   facet normal 0.000000e+000 0.000000e+000 1.000000e+000
      outer loop
         vertex 6.075429e+000 5.681357e+000 1.000000e+001
         vertex 5.943704e+000 5.549632e+000 1.000000e+001
         vertex 1.000000e+001 0.000000e+000 1.000000e+001
      endloop
   endfacet
   facet normal 0.000000e+000 0.000000e+000 1.000000e+000
      outer loop
         vertex 1.000000e+001 0.000000e+000 1.000000e+001
         vertex 5.943704e+000 5.549632e+000 1.000000e+001
         vertex 5.791105e+000 5.442781e+000 1.000000e+001
      endloop
   endfacet
   facet normal 0.000000e+000 0.000000e+000 1.000000e+000
      outer loop
         vertex 1.000000e+001 0.000000e+000 1.000000e+001
         vertex 5.791105e+000 5.442781e+000 1.000000e+001
         vertex 5.622271e+000 5.364052e+000 1.000000e+001
      endloop
   endfacet
   facet normal 0.000000e+000 0.000000e+000 1.000000e+000
      outer loop
         vertex 4.188044e+000 6.368309e+000 1.000000e+001
         vertex 0.000000e+000 1.000000e+001 1.000000e+001
         vertex 4.204280e+000 6.182730e+000 1.000000e+001
      endloop
   endfacet
   facet normal 0.000000e+000 0.000000e+000 1.000000e+000
      outer loop
         vertex 4.204280e+000 6.182730e+000 1.000000e+001
         vertex 0.000000e+000 1.000000e+001 1.000000e+001
         vertex 0.000000e+000 0.000000e+000 1.000000e+001
      endloop
   endfacet
   facet normal 0.000000e+000 0.000000e+000 1.000000e+000
      outer loop
         vertex 4.188044e+000 6.368309e+000 1.000000e+001
         vertex 4.204280e+000 6.553888e+000 1.000000e+001
         vertex 0.000000e+000 1.000000e+001 1.000000e+001
      endloop
   endfacet
   facet normal 0.000000e+000 0.000000e+000 1.000000e+000
      outer loop
         vertex 0.000000e+000 1.000000e+001 1.000000e+001
         vertex 4.204280e+000 6.553888e+000 1.000000e+001
         vertex 4.252494e+000 6.733829e+000 1.000000e+001
      endloop
   endfacet
   facet normal 0.000000e+000 0.000000e+000 1.000000e+000
      outer loop
         vertex 0.000000e+000 1.000000e+001 1.000000e+001
         vertex 4.252494e+000 6.733829e+000 1.000000e+001
         vertex 4.331223e+000 6.902664e+000 1.000000e+001
      endloop
   endfacet
   facet normal 0.000000e+000 0.000000e+000 1.000000e+000
      outer loop
         vertex 4.331223e+000 6.902664e+000 1.000000e+001
         vertex 4.438074e+000 7.055262e+000 1.000000e+001
         vertex 0.000000e+000 1.000000e+001 1.000000e+001
      endloop
   endfacet
   facet normal 0.000000e+000 0.000000e+000 1.000000e+000
      outer loop
         vertex 0.000000e+000 1.000000e+001 1.000000e+001
         vertex 4.438074e+000 7.055262e+000 1.000000e+001
         vertex 4.569799e+000 7.186987e+000 1.000000e+001
      endloop
   endfacet
   facet normal 0.000000e+000 0.000000e+000 1.000000e+000
      outer loop
         vertex 0.000000e+000 1.000000e+001 1.000000e+001
         vertex 4.569799e+000 7.186987e+000 1.000000e+001
         vertex 4.722397e+000 7.293838e+000 1.000000e+001
      endloop
   endfacet
   facet normal 0.000000e+000 0.000000e+000 1.000000e+000
      outer loop
         vertex 5.622271e+000 5.364052e+000 1.000000e+001
         vertex 5.442331e+000 5.315837e+000 1.000000e+001
         vertex 1.000000e+001 0.000000e+000 1.000000e+001
      endloop
   endfacet
   facet normal 0.000000e+000 0.000000e+000 1.000000e+000
      outer loop
         vertex 1.000000e+001 0.000000e+000 1.000000e+001
         vertex 5.442331e+000 5.315837e+000 1.000000e+001
         vertex 5.256752e+000 5.299601e+000 1.000000e+001
      endloop
   endfacet
   facet normal 0.000000e+000 0.000000e+000 1.000000e+000
      outer loop
         vertex 1.000000e+001 0.000000e+000 1.000000e+001
         vertex 5.256752e+000 5.299601e+000 1.000000e+001
         vertex 0.000000e+000 0.000000e+000 1.000000e+001
      endloop
   endfacet
   facet normal 0.000000e+000 0.000000e+000 1.000000e+000
      outer loop
         vertex 0.000000e+000 0.000000e+000 1.000000e+001
         vertex 5.256752e+000 5.299601e+000 1.000000e+001
         vertex 5.071173e+000 5.315837e+000 1.000000e+001
      endloop
   endfacet
   facet normal 0.000000e+000 0.000000e+000 1.000000e+000
      outer loop
         vertex 0.000000e+000 0.000000e+000 1.000000e+001
         vertex 5.071173e+000 5.315837e+000 1.000000e+001
         vertex 4.891232e+000 5.364052e+000 1.000000e+001
      endloop
   endfacet
   facet normal 0.000000e+000 0.000000e+000 1.000000e+000
      outer loop
         vertex 4.891232e+000 5.364052e+000 1.000000e+001
         vertex 4.722397e+000 5.442781e+000 1.000000e+001
         vertex 0.000000e+000 0.000000e+000 1.000000e+001
      endloop
   endfacet
   facet normal 0.000000e+000 0.000000e+000 1.000000e+000
      outer loop
         vertex 0.000000e+000 0.000000e+000 1.000000e+001
         vertex 4.722397e+000 5.442781e+000 1.000000e+001
         vertex 4.569799e+000 5.549632e+000 1.000000e+001
      endloop
   endfacet
   facet normal 0.000000e+000 0.000000e+000 1.000000e+000
      outer loop
         vertex 0.000000e+000 0.000000e+000 1.000000e+001
         vertex 4.569799e+000 5.549632e+000 1.000000e+001
         vertex 4.438074e+000 5.681357e+000 1.000000e+001
      endloop
   endfacet
   facet normal 0.000000e+000 0.000000e+000 1.000000e+000
      outer loop
         vertex 4.438074e+000 5.681357e+000 1.000000e+001
         vertex 4.331223e+000 5.833955e+000 1.000000e+001
         vertex 0.000000e+000 0.000000e+000 1.000000e+001
      endloop
   endfacet
   facet normal 0.000000e+000 0.000000e+000 1.000000e+000
      outer loop
         vertex 0.000000e+000 0.000000e+000 1.000000e+001
         vertex 4.331223e+000 5.833955e+000 1.000000e+001
         vertex 4.252494e+000 6.002790e+000 1.000000e+001
      endloop
   endfacet
   facet normal 0.000000e+000 0.000000e+000 1.000000e+000
      outer loop
         vertex 0.000000e+000 0.000000e+000 1.000000e+001
         vertex 4.252494e+000 6.002790e+000 1.000000e+001
         vertex 4.204280e+000 6.182730e+000 1.000000e+001
      endloop
   endfacet
   facet normal 0.000000e+000 0.000000e+000 1.000000e+000
      outer loop
         vertex 5.256752e+000 7.437017e+000 1.000000e+001
         vertex 1.000000e+001 1.000000e+001 1.000000e+001
         vertex 5.071173e+000 7.420781e+000 1.000000e+001
      endloop
   endfacet
   facet normal 0.000000e+000 0.000000e+000 1.000000e+000
      outer loop
         vertex 5.071173e+000 7.420781e+000 1.000000e+001
         vertex 1.000000e+001 1.000000e+001 1.000000e+001
         vertex 0.000000e+000 1.000000e+001 1.000000e+001
      endloop
   endfacet
   facet normal 0.000000e+000 0.000000e+000 1.000000e+000
      outer loop
         vertex 5.071173e+000 7.420781e+000 1.000000e+001
         vertex 0.000000e+000 1.000000e+001 1.000000e+001
         vertex 4.891232e+000 7.372567e+000 1.000000e+001
      endloop
   endfacet
   facet normal 0.000000e+000 0.000000e+000 1.000000e+000
      outer loop
         vertex 4.891232e+000 7.372567e+000 1.000000e+001
         vertex 0.000000e+000 1.000000e+001 1.000000e+001
         vertex 4.722397e+000 7.293838e+000 1.000000e+001
      endloop
   endfacet
   facet normal 0.000000e+000 0.000000e+000 1.000000e+000
      outer loop
         vertex 5.256752e+000 7.437017e+000 1.000000e+001
         vertex 5.442331e+000 7.420781e+000 1.000000e+001
         vertex 1.000000e+001 1.000000e+001 1.000000e+001
      endloop
   endfacet
   facet normal 0.000000e+000 0.000000e+000 1.000000e+000
      outer loop
         vertex 1.000000e+001 1.000000e+001 1.000000e+001
         vertex 5.442331e+000 7.420781e+000 1.000000e+001
         vertex 5.622271e+000 7.372567e+000 1.000000e+001
      endloop
   endfacet
   facet normal 0.000000e+000 0.000000e+000 1.000000e+000
      outer loop
         vertex 1.000000e+001 1.000000e+001 1.000000e+001
         vertex 5.622271e+000 7.372567e+000 1.000000e+001
         vertex 5.791105e+000 7.293838e+000 1.000000e+001
      endloop
   endfacet
   facet normal 0.000000e+000 0.000000e+000 1.000000e+000
      outer loop
         vertex 5.791105e+000 7.293838e+000 1.000000e+001
         vertex 5.943704e+000 7.186987e+000 1.000000e+001
         vertex 1.000000e+001 1.000000e+001 1.000000e+001
      endloop
   endfacet
   facet normal 0.000000e+000 0.000000e+000 1.000000e+000
      outer loop
         vertex 1.000000e+001 1.000000e+001 1.000000e+001
         vertex 5.943704e+000 7.186987e+000 1.000000e+001
         vertex 6.075429e+000 7.055262e+000 1.000000e+001
      endloop
   endfacet
   facet normal 0.000000e+000 0.000000e+000 1.000000e+000
      outer loop
         vertex 1.000000e+001 1.000000e+001 1.000000e+001
         vertex 6.075429e+000 7.055262e+000 1.000000e+001
         vertex 6.182280e+000 6.902664e+000 1.000000e+001
      endloop
   endfacet
   facet normal 0.000000e+000 0.000000e+000 1.000000e+000
      outer loop
         vertex 6.182280e+000 6.902664e+000 1.000000e+001
         vertex 6.261008e+000 6.733829e+000 1.000000e+001
         vertex 1.000000e+001 1.000000e+001 1.000000e+001
      endloop
   endfacet
   facet normal 0.000000e+000 0.000000e+000 1.000000e+000
      outer loop
         vertex 1.000000e+001 1.000000e+001 1.000000e+001
         vertex 6.261008e+000 6.733829e+000 1.000000e+001
         vertex 6.309223e+000 6.553888e+000 1.000000e+001
      endloop
   endfacet
   facet normal 0.000000e+000 0.000000e+000 1.000000e+000
      outer loop
         vertex 1.000000e+001 1.000000e+001 1.000000e+001
         vertex 6.309223e+000 6.553888e+000 1.000000e+001
         vertex 6.325459e+000 6.368309e+000 1.000000e+001
      endloop
   endfacet
   facet normal 1.000000e+000 0.000000e+000 0.000000e+000
      outer loop
         vertex 1.000000e+001 1.000000e+001 0.000000e+000
         vertex 1.000000e+001 1.000000e+001 1.000000e+001
         vertex 1.000000e+001 0.000000e+000 0.000000e+000
      endloop
   endfacet
   facet normal 1.000000e+000 0.000000e+000 0.000000e+000
      outer loop
         vertex 1.000000e+001 0.000000e+000 0.000000e+000
         vertex 1.000000e+001 1.000000e+001 1.000000e+001
         vertex 1.000000e+001 0.000000e+000 1.000000e+001
      endloop
   endfacet
   facet normal 0.000000e+000 0.000000e+000 -1.000000e+000
      outer loop
         vertex 0.000000e+000 0.000000e+000 0.000000e+000
         vertex 0.000000e+000 1.000000e+001 0.000000e+000
         vertex 4.188044e+000 6.368309e+000 0.000000e+000
      endloop
   endfacet
   facet normal 0.000000e+000 0.000000e+000 -1.000000e+000
      outer loop
         vertex 5.442331e+000 5.315837e+000 0.000000e+000
         vertex 5.622271e+000 5.364052e+000 0.000000e+000
         vertex 1.000000e+001 0.000000e+000 0.000000e+000
      endloop
   endfacet
   facet normal 0.000000e+000 0.000000e+000 -1.000000e+000
      outer loop
         vertex 4.891232e+000 7.372567e+000 0.000000e+000
         vertex 4.722397e+000 7.293838e+000 0.000000e+000
         vertex 0.000000e+000 1.000000e+001 0.000000e+000
      endloop
   endfacet
   facet normal 0.000000e+000 0.000000e+000 -1.000000e+000
      outer loop
         vertex 5.622271e+000 5.364052e+000 0.000000e+000
         vertex 5.791105e+000 5.442781e+000 0.000000e+000
         vertex 1.000000e+001 0.000000e+000 0.000000e+000
      endloop
   endfacet
   facet normal 0.000000e+000 0.000000e+000 -1.000000e+000
      outer loop
         vertex 1.000000e+001 0.000000e+000 0.000000e+000
         vertex 5.791105e+000 5.442781e+000 0.000000e+000
         vertex 5.943704e+000 5.549632e+000 0.000000e+000
      endloop
   endfacet
   facet normal 0.000000e+000 0.000000e+000 -1.000000e+000
      outer loop
         vertex 1.000000e+001 0.000000e+000 0.000000e+000
         vertex 5.943704e+000 5.549632e+000 0.000000e+000
         vertex 6.075429e+000 5.681357e+000 0.000000e+000
      endloop
   endfacet
   facet normal 0.000000e+000 0.000000e+000 -1.000000e+000
      outer loop
         vertex 1.000000e+001 0.000000e+000 0.000000e+000
         vertex 6.309223e+000 6.182730e+000 0.000000e+000
         vertex 1.000000e+001 1.000000e+001 0.000000e+000
      endloop
   endfacet
   facet normal 0.000000e+000 0.000000e+000 -1.000000e+000
      outer loop
         vertex 1.000000e+001 1.000000e+001 0.000000e+000
         vertex 6.309223e+000 6.182730e+000 0.000000e+000
         vertex 6.325459e+000 6.368309e+000 0.000000e+000
      endloop
   endfacet
   facet normal 0.000000e+000 0.000000e+000 -1.000000e+000
      outer loop
         vertex 1.000000e+001 1.000000e+001 0.000000e+000
         vertex 6.325459e+000 6.368309e+000 0.000000e+000
         vertex 6.309223e+000 6.553888e+000 0.000000e+000
      endloop
   endfacet
   facet normal 0.000000e+000 0.000000e+000 -1.000000e+000
      outer loop
         vertex 6.309223e+000 6.553888e+000 0.000000e+000
         vertex 6.261008e+000 6.733829e+000 0.000000e+000
         vertex 1.000000e+001 1.000000e+001 0.000000e+000
      endloop
   endfacet
   facet normal 0.000000e+000 0.000000e+000 -1.000000e+000
      outer loop
         vertex 1.000000e+001 1.000000e+001 0.000000e+000
         vertex 6.261008e+000 6.733829e+000 0.000000e+000
         vertex 6.182280e+000 6.902664e+000 0.000000e+000
      endloop
   endfacet
   facet normal 0.000000e+000 0.000000e+000 -1.000000e+000
      outer loop
         vertex 1.000000e+001 1.000000e+001 0.000000e+000
         vertex 6.182280e+000 6.902664e+000 0.000000e+000
         vertex 6.075429e+000 7.055262e+000 0.000000e+000
      endloop
   endfacet
   facet normal 0.000000e+000 0.000000e+000 -1.000000e+000
      outer loop
         vertex 4.188044e+000 6.368309e+000 0.000000e+000
         vertex 4.204280e+000 6.182730e+000 0.000000e+000
         vertex 0.000000e+000 0.000000e+000 0.000000e+000
      endloop
   endfacet
   facet normal 0.000000e+000 0.000000e+000 -1.000000e+000
      outer loop
         vertex 0.000000e+000 0.000000e+000 0.000000e+000
         vertex 4.204280e+000 6.182730e+000 0.000000e+000
         vertex 4.252494e+000 6.002790e+000 0.000000e+000
      endloop
   endfacet
   facet normal 0.000000e+000 0.000000e+000 -1.000000e+000
      outer loop
         vertex 0.000000e+000 0.000000e+000 0.000000e+000
         vertex 4.252494e+000 6.002790e+000 0.000000e+000
         vertex 4.331223e+000 5.833955e+000 0.000000e+000
      endloop
   endfacet
   facet normal 0.000000e+000 0.000000e+000 -1.000000e+000
      outer loop
         vertex 6.075429e+000 5.681357e+000 0.000000e+000
         vertex 6.182280e+000 5.833955e+000 0.000000e+000
         vertex 1.000000e+001 0.000000e+000 0.000000e+000
      endloop
   endfacet
   facet normal 0.000000e+000 0.000000e+000 -1.000000e+000
      outer loop
         vertex 1.000000e+001 0.000000e+000 0.000000e+000
         vertex 6.182280e+000 5.833955e+000 0.000000e+000
         vertex 6.261008e+000 6.002790e+000 0.000000e+000
      endloop
   endfacet
   facet normal 0.000000e+000 0.000000e+000 -1.000000e+000
      outer loop
         vertex 1.000000e+001 0.000000e+000 0.000000e+000
         vertex 6.261008e+000 6.002790e+000 0.000000e+000
         vertex 6.309223e+000 6.182730e+000 0.000000e+000
      endloop
   endfacet
   facet normal 0.000000e+000 0.000000e+000 -1.000000e+000
      outer loop
         vertex 6.075429e+000 7.055262e+000 0.000000e+000
         vertex 5.943704e+000 7.186987e+000 0.000000e+000
         vertex 1.000000e+001 1.000000e+001 0.000000e+000
      endloop
   endfacet
   facet normal 0.000000e+000 0.000000e+000 -1.000000e+000
      outer loop
         vertex 1.000000e+001 1.000000e+001 0.000000e+000
         vertex 5.943704e+000 7.186987e+000 0.000000e+000
         vertex 5.791105e+000 7.293838e+000 0.000000e+000
      endloop
   endfacet
   facet normal 0.000000e+000 0.000000e+000 -1.000000e+000
      outer loop
         vertex 1.000000e+001 1.000000e+001 0.000000e+000
         vertex 5.791105e+000 7.293838e+000 0.000000e+000
         vertex 5.622271e+000 7.372567e+000 0.000000e+000
      endloop
   endfacet
   facet normal 0.000000e+000 0.000000e+000 -1.000000e+000
      outer loop
         vertex 5.622271e+000 7.372567e+000 0.000000e+000
         vertex 5.442331e+000 7.420781e+000 0.000000e+000
         vertex 1.000000e+001 1.000000e+001 0.000000e+000
      endloop
   endfacet
   facet normal 0.000000e+000 0.000000e+000 -1.000000e+000
      outer loop
         vertex 1.000000e+001 1.000000e+001 0.000000e+000
         vertex 5.442331e+000 7.420781e+000 0.000000e+000
         vertex 5.256752e+000 7.437017e+000 0.000000e+000
      endloop
   endfacet
   facet normal 0.000000e+000 0.000000e+000 -1.000000e+000
      outer loop
         vertex 1.000000e+001 1.000000e+001 0.000000e+000
         vertex 5.256752e+000 7.437017e+000 0.000000e+000
         vertex 0.000000e+000 1.000000e+001 0.000000e+000
      endloop
   endfacet
   facet normal 0.000000e+000 0.000000e+000 -1.000000e+000
      outer loop
         vertex 0.000000e+000 1.000000e+001 0.000000e+000
         vertex 5.256752e+000 7.437017e+000 0.000000e+000
         vertex 5.071173e+000 7.420781e+000 0.000000e+000
      endloop
   endfacet
   facet normal 0.000000e+000 0.000000e+000 -1.000000e+000
      outer loop
         vertex 0.000000e+000 1.000000e+001 0.000000e+000
         vertex 5.071173e+000 7.420781e+000 0.000000e+000
         vertex 4.891232e+000 7.372567e+000 0.000000e+000
      endloop
   endfacet
   facet normal 0.000000e+000 0.000000e+000 -1.000000e+000
      outer loop
         vertex 4.722397e+000 7.293838e+000 0.000000e+000
         vertex 4.569799e+000 7.186987e+000 0.000000e+000
         vertex 0.000000e+000 1.000000e+001 0.000000e+000
      endloop
   endfacet
   facet normal 0.000000e+000 0.000000e+000 -1.000000e+000
      outer loop
         vertex 0.000000e+000 1.000000e+001 0.000000e+000
         vertex 4.569799e+000 7.186987e+000 0.000000e+000
         vertex 4.438074e+000 7.055262e+000 0.000000e+000
      endloop
   endfacet
   facet normal 0.000000e+000 0.000000e+000 -1.000000e+000
      outer loop
         vertex 0.000000e+000 1.000000e+001 0.000000e+000
         vertex 4.438074e+000 7.055262e+000 0.000000e+000
         vertex 4.331223e+000 6.902664e+000 0.000000e+000
      endloop
   endfacet
   facet normal 0.000000e+000 0.000000e+000 -1.000000e+000
      outer loop
         vertex 4.331223e+000 6.902664e+000 0.000000e+000
         vertex 4.252494e+000 6.733829e+000 0.000000e+000
         vertex 0.000000e+000 1.000000e+001 0.000000e+000
      endloop
   endfacet
   facet normal 0.000000e+000 0.000000e+000 -1.000000e+000
      outer loop
         vertex 0.000000e+000 1.000000e+001 0.000000e+000
         vertex 4.252494e+000 6.733829e+000 0.000000e+000
         vertex 4.204280e+000 6.553888e+000 0.000000e+000
      endloop
   endfacet
   facet normal 0.000000e+000 0.000000e+000 -1.000000e+000
      outer loop
         vertex 0.000000e+000 1.000000e+001 0.000000e+000
         vertex 4.204280e+000 6.553888e+000 0.000000e+000
         vertex 4.188044e+000 6.368309e+000 0.000000e+000
      endloop
   endfacet
   facet normal 0.000000e+000 0.000000e+000 -1.000000e+000
      outer loop
         vertex 4.331223e+000 5.833955e+000 0.000000e+000
         vertex 4.438074e+000 5.681357e+000 0.000000e+000
         vertex 0.000000e+000 0.000000e+000 0.000000e+000
      endloop
   endfacet
   facet normal 0.000000e+000 0.000000e+000 -1.000000e+000
      outer loop
         vertex 0.000000e+000 0.000000e+000 0.000000e+000
         vertex 4.438074e+000 5.681357e+000 0.000000e+000
         vertex 4.569799e+000 5.549632e+000 0.000000e+000
      endloop
   endfacet
   facet normal 0.000000e+000 0.000000e+000 -1.000000e+000
      outer loop
         vertex 0.000000e+000 0.000000e+000 0.000000e+000
         vertex 4.569799e+000 5.549632e+000 0.000000e+000
         vertex 4.722397e+000 5.442781e+000 0.000000e+000
      endloop
   endfacet
   facet normal 0.000000e+000 0.000000e+000 -1.000000e+000
      outer loop
         vertex 4.722397e+000 5.442781e+000 0.000000e+000
         vertex 4.891232e+000 5.364052e+000 0.000000e+000
         vertex 0.000000e+000 0.000000e+000 0.000000e+000
      endloop
   endfacet
   facet normal 0.000000e+000 0.000000e+000 -1.000000e+000
      outer loop
         vertex 0.000000e+000 0.000000e+000 0.000000e+000
         vertex 4.891232e+000 5.364052e+000 0.000000e+000
         vertex 5.071173e+000 5.315837e+000 0.000000e+000
      endloop
   endfacet
   facet normal 0.000000e+000 0.000000e+000 -1.000000e+000
      outer loop
         vertex 0.000000e+000 0.000000e+000 0.000000e+000
         vertex 5.071173e+000 5.315837e+000 0.000000e+000
         vertex 1.000000e+001 0.000000e+000 0.000000e+000
      endloop
   endfacet
   facet normal 0.000000e+000 0.000000e+000 -1.000000e+000
      outer loop
         vertex 1.000000e+001 0.000000e+000 0.000000e+000
         vertex 5.071173e+000 5.315837e+000 0.000000e+000
         vertex 5.256752e+000 5.299601e+000 0.000000e+000
      endloop
   endfacet
   facet normal 0.000000e+000 0.000000e+000 -1.000000e+000
      outer loop
         vertex 1.000000e+001 0.000000e+000 0.000000e+000
         vertex 5.256752e+000 5.299601e+000 0.000000e+000
         vertex 5.442331e+000 5.315837e+000 0.000000e+000
      endloop
   endfacet
   facet normal 0.000000e+000 1.000000e+000 0.000000e+000
      outer loop
         vertex 1.000000e+001 1.000000e+001 1.000000e+001
         vertex 1.000000e+001 1.000000e+001 0.000000e+000
         vertex 0.000000e+000 1.000000e+001 1.000000e+001
      endloop
   endfacet
   facet normal 0.000000e+000 1.000000e+000 0.000000e+000
      outer loop
         vertex 0.000000e+000 1.000000e+001 1.000000e+001
         vertex 1.000000e+001 1.000000e+001 0.000000e+000
         vertex 0.000000e+000 1.000000e+001 0.000000e+000
      endloop
   endfacet
   facet normal 0.000000e+000 -1.000000e+000 0.000000e+000
      outer loop
         vertex 1.000000e+001 0.000000e+000 0.000000e+000
         vertex 1.000000e+001 0.000000e+000 1.000000e+001
         vertex 0.000000e+000 0.000000e+000 0.000000e+000
      endloop
   endfacet
   facet normal 0.000000e+000 -1.000000e+000 0.000000e+000
      outer loop
         vertex 0.000000e+000 0.000000e+000 0.000000e+000
         vertex 1.000000e+001 0.000000e+000 1.000000e+001
         vertex 0.000000e+000 0.000000e+000 1.000000e+001
      endloop
   endfacet
   facet normal -9.983119e-001 5.807913e-002 0.000000e+000
      outer loop
         vertex 6.309223e+000 6.182730e+000 0.000000e+000
         vertex 6.325459e+000 6.368309e+000 1.000000e+001
         vertex 6.325459e+000 6.368309e+000 0.000000e+000
      endloop
   endfacet
   facet normal -9.983119e-001 -5.807913e-002 0.000000e+000
      outer loop
         vertex 6.325459e+000 6.368309e+000 0.000000e+000
         vertex 6.325459e+000 6.368309e+000 1.000000e+001
         vertex 6.309223e+000 6.553888e+000 1.000000e+001
      endloop
   endfacet
   facet normal -9.932307e-001 -1.161583e-001 0.000000e+000
      outer loop
         vertex 6.325459e+000 6.368309e+000 0.000000e+000
         vertex 6.309223e+000 6.553888e+000 1.000000e+001
         vertex 6.309223e+000 6.553888e+000 0.000000e+000
      endloop
   endfacet
   facet normal -9.730600e-001 -2.305519e-001 0.000000e+000
      outer loop
         vertex 6.309223e+000 6.553888e+000 0.000000e+000
         vertex 6.309223e+000 6.553888e+000 1.000000e+001
         vertex 6.261008e+000 6.733829e+000 1.000000e+001
      endloop
   endfacet
   facet normal -9.579706e-001 -2.868663e-001 0.000000e+000
      outer loop
         vertex 6.309223e+000 6.553888e+000 0.000000e+000
         vertex 6.261008e+000 6.733829e+000 1.000000e+001
         vertex 6.261008e+000 6.733829e+000 0.000000e+000
      endloop
   endfacet
   facet normal -9.182422e-001 -3.960194e-001 0.000000e+000
      outer loop
         vertex 6.261008e+000 6.733829e+000 0.000000e+000
         vertex 6.261008e+000 6.733829e+000 1.000000e+001
         vertex 6.182280e+000 6.902664e+000 1.000000e+001
      endloop
   endfacet
   facet normal -8.936031e-001 -4.488580e-001 0.000000e+000
      outer loop
         vertex 6.261008e+000 6.733829e+000 0.000000e+000
         vertex 6.182280e+000 6.902664e+000 1.000000e+001
         vertex 6.182280e+000 6.902664e+000 0.000000e+000
      endloop
   endfacet
   facet normal -8.355240e-001 -5.494540e-001 0.000000e+000
      outer loop
         vertex 6.182280e+000 6.902664e+000 0.000000e+000
         vertex 6.182280e+000 6.902664e+000 1.000000e+001
         vertex 6.075429e+000 7.055262e+000 1.000000e+001
      endloop
   endfacet
   facet normal -8.020838e-001 -5.972114e-001 0.000000e+000
      outer loop
         vertex 6.182280e+000 6.902664e+000 0.000000e+000
         vertex 6.075429e+000 7.055262e+000 1.000000e+001
         vertex 6.075429e+000 7.055262e+000 0.000000e+000
      endloop
   endfacet
   facet normal -7.274188e-001 -6.861938e-001 0.000000e+000
      outer loop
         vertex 6.075429e+000 7.055262e+000 0.000000e+000
         vertex 6.075429e+000 7.055262e+000 1.000000e+001
         vertex 5.943704e+000 7.186987e+000 1.000000e+001
      endloop
   endfacet
   facet normal -6.861938e-001 -7.274188e-001 0.000000e+000
      outer loop
         vertex 6.075429e+000 7.055262e+000 0.000000e+000
         vertex 5.943704e+000 7.186987e+000 1.000000e+001
         vertex 5.943704e+000 7.186987e+000 0.000000e+000
      endloop
   endfacet
   facet normal -5.972114e-001 -8.020838e-001 0.000000e+000
      outer loop
         vertex 5.943704e+000 7.186987e+000 0.000000e+000
         vertex 5.943704e+000 7.186987e+000 1.000000e+001
         vertex 5.791105e+000 7.293838e+000 1.000000e+001
      endloop
   endfacet
   facet normal -5.494540e-001 -8.355240e-001 0.000000e+000
      outer loop
         vertex 5.943704e+000 7.186987e+000 0.000000e+000
         vertex 5.791105e+000 7.293838e+000 1.000000e+001
         vertex 5.791105e+000 7.293838e+000 0.000000e+000
      endloop
   endfacet
   facet normal -4.488580e-001 -8.936031e-001 0.000000e+000
      outer loop
         vertex 5.791105e+000 7.293838e+000 0.000000e+000
         vertex 5.791105e+000 7.293838e+000 1.000000e+001
         vertex 5.622271e+000 7.372567e+000 1.000000e+001
      endloop
   endfacet
   facet normal -3.960194e-001 -9.182422e-001 0.000000e+000
      outer loop
         vertex 5.791105e+000 7.293838e+000 0.000000e+000
         vertex 5.622271e+000 7.372567e+000 1.000000e+001
         vertex 5.622271e+000 7.372567e+000 0.000000e+000
      endloop
   endfacet
   facet normal -2.868663e-001 -9.579706e-001 0.000000e+000
      outer loop
         vertex 5.622271e+000 7.372567e+000 0.000000e+000
         vertex 5.622271e+000 7.372567e+000 1.000000e+001
         vertex 5.442331e+000 7.420781e+000 1.000000e+001
      endloop
   endfacet
   facet normal -2.305519e-001 -9.730600e-001 0.000000e+000
      outer loop
         vertex 5.622271e+000 7.372567e+000 0.000000e+000
         vertex 5.442331e+000 7.420781e+000 1.000000e+001
         vertex 5.442331e+000 7.420781e+000 0.000000e+000
      endloop
   endfacet
   facet normal -1.161583e-001 -9.932307e-001 0.000000e+000
      outer loop
         vertex 5.442331e+000 7.420781e+000 0.000000e+000
         vertex 5.442331e+000 7.420781e+000 1.000000e+001
         vertex 5.256752e+000 7.437017e+000 1.000000e+001
      endloop
   endfacet
   facet normal -5.807913e-002 -9.983119e-001 0.000000e+000
      outer loop
         vertex 5.442331e+000 7.420781e+000 0.000000e+000
         vertex 5.256752e+000 7.437017e+000 1.000000e+001
         vertex 5.256752e+000 7.437017e+000 0.000000e+000
      endloop
   endfacet
   facet normal 5.807913e-002 -9.983119e-001 0.000000e+000
      outer loop
         vertex 5.256752e+000 7.437017e+000 0.000000e+000
         vertex 5.256752e+000 7.437017e+000 1.000000e+001
         vertex 5.071173e+000 7.420781e+000 1.000000e+001
      endloop
   endfacet
   facet normal 1.161583e-001 -9.932307e-001 0.000000e+000
      outer loop
         vertex 5.256752e+000 7.437017e+000 0.000000e+000
         vertex 5.071173e+000 7.420781e+000 1.000000e+001
         vertex 5.071173e+000 7.420781e+000 0.000000e+000
      endloop
   endfacet
   facet normal 2.305519e-001 -9.730600e-001 0.000000e+000
      outer loop
         vertex 5.071173e+000 7.420781e+000 0.000000e+000
         vertex 5.071173e+000 7.420781e+000 1.000000e+001
         vertex 4.891232e+000 7.372567e+000 1.000000e+001
      endloop
   endfacet
   facet normal 2.868663e-001 -9.579706e-001 0.000000e+000
      outer loop
         vertex 5.071173e+000 7.420781e+000 0.000000e+000
         vertex 4.891232e+000 7.372567e+000 1.000000e+001
         vertex 4.891232e+000 7.372567e+000 0.000000e+000
      endloop
   endfacet
   facet normal 3.960194e-001 -9.182422e-001 0.000000e+000
      outer loop
         vertex 4.891232e+000 7.372567e+000 0.000000e+000
         vertex 4.891232e+000 7.372567e+000 1.000000e+001
         vertex 4.722397e+000 7.293838e+000 1.000000e+001
      endloop
   endfacet
   facet normal 4.488580e-001 -8.936031e-001 0.000000e+000
      outer loop
         vertex 4.891232e+000 7.372567e+000 0.000000e+000
         vertex 4.722397e+000 7.293838e+000 1.000000e+001
         vertex 4.722397e+000 7.293838e+000 0.000000e+000
      endloop
   endfacet
   facet normal 5.494540e-001 -8.355240e-001 0.000000e+000
      outer loop
         vertex 4.722397e+000 7.293838e+000 0.000000e+000
         vertex 4.722397e+000 7.293838e+000 1.000000e+001
         vertex 4.569799e+000 7.186987e+000 1.000000e+001
      endloop
   endfacet
   facet normal 5.972114e-001 -8.020838e-001 0.000000e+000
      outer loop
         vertex 4.722397e+000 7.293838e+000 0.000000e+000
         vertex 4.569799e+000 7.186987e+000 1.000000e+001
         vertex 4.569799e+000 7.186987e+000 0.000000e+000
      endloop
   endfacet
   facet normal 6.861938e-001 -7.274188e-001 0.000000e+000
      outer loop
         vertex 4.569799e+000 7.186987e+000 0.000000e+000
         vertex 4.569799e+000 7.186987e+000 1.000000e+001
         vertex 4.438074e+000 7.055262e+000 1.000000e+001
      endloop
   endfacet
   facet normal 7.274188e-001 -6.861938e-001 0.000000e+000
      outer loop
         vertex 4.569799e+000 7.186987e+000 0.000000e+000
         vertex 4.438074e+000 7.055262e+000 1.000000e+001
         vertex 4.438074e+000 7.055262e+000 0.000000e+000
      endloop
   endfacet
   facet normal 8.020838e-001 -5.972114e-001 0.000000e+000
      outer loop
         vertex 4.438074e+000 7.055262e+000 0.000000e+000
         vertex 4.438074e+000 7.055262e+000 1.000000e+001
         vertex 4.331223e+000 6.902664e+000 1.000000e+001
      endloop
   endfacet
   facet normal 8.355240e-001 -5.494540e-001 0.000000e+000
      outer loop
         vertex 4.438074e+000 7.055262e+000 0.000000e+000
         vertex 4.331223e+000 6.902664e+000 1.000000e+001
         vertex 4.331223e+000 6.902664e+000 0.000000e+000
      endloop
   endfacet
   facet normal 8.936031e-001 -4.488580e-001 0.000000e+000
      outer loop
         vertex 4.331223e+000 6.902664e+000 0.000000e+000
         vertex 4.331223e+000 6.902664e+000 1.000000e+001
         vertex 4.252494e+000 6.733829e+000 1.000000e+001
      endloop
   endfacet
   facet normal 9.182422e-001 -3.960194e-001 0.000000e+000
      outer loop
         vertex 4.331223e+000 6.902664e+000 0.000000e+000
         vertex 4.252494e+000 6.733829e+000 1.000000e+001
         vertex 4.252494e+000 6.733829e+000 0.000000e+000
      endloop
   endfacet
   facet normal 9.579706e-001 -2.868663e-001 0.000000e+000
      outer loop
         vertex 4.252494e+000 6.733829e+000 0.000000e+000
         vertex 4.252494e+000 6.733829e+000 1.000000e+001
         vertex 4.204280e+000 6.553888e+000 1.000000e+001
      endloop
   endfacet
   facet normal 9.730600e-001 -2.305519e-001 0.000000e+000
      outer loop
         vertex 4.252494e+000 6.733829e+000 0.000000e+000
         vertex 4.204280e+000 6.553888e+000 1.000000e+001
         vertex 4.204280e+000 6.553888e+000 0.000000e+000
      endloop
   endfacet
   facet normal 9.932307e-001 -1.161583e-001 0.000000e+000
      outer loop
         vertex 4.204280e+000 6.553888e+000 0.000000e+000
         vertex 4.204280e+000 6.553888e+000 1.000000e+001
         vertex 4.188044e+000 6.368309e+000 1.000000e+001
      endloop
   endfacet
   facet normal 9.983119e-001 -5.807913e-002 0.000000e+000
      outer loop
         vertex 4.204280e+000 6.553888e+000 0.000000e+000
         vertex 4.188044e+000 6.368309e+000 1.000000e+001
         vertex 4.188044e+000 6.368309e+000 0.000000e+000
      endloop
   endfacet
   facet normal 9.983119e-001 5.807913e-002 0.000000e+000
      outer loop
         vertex 4.188044e+000 6.368309e+000 0.000000e+000
         vertex 4.188044e+000 6.368309e+000 1.000000e+001
         vertex 4.204280e+000 6.182730e+000 1.000000e+001
      endloop
   endfacet
   facet normal 9.932307e-001 1.161583e-001 0.000000e+000
      outer loop
         vertex 4.188044e+000 6.368309e+000 0.000000e+000
         vertex 4.204280e+000 6.182730e+000 1.000000e+001
         vertex 4.204280e+000 6.182730e+000 0.000000e+000
      endloop
   endfacet
   facet normal 9.730600e-001 2.305519e-001 0.000000e+000
      outer loop
         vertex 4.204280e+000 6.182730e+000 0.000000e+000
         vertex 4.204280e+000 6.182730e+000 1.000000e+001
         vertex 4.252494e+000 6.002790e+000 1.000000e+001
      endloop
   endfacet
   facet normal 9.579706e-001 2.868663e-001 0.000000e+000
      outer loop
         vertex 4.204280e+000 6.182730e+000 0.000000e+000
         vertex 4.252494e+000 6.002790e+000 1.000000e+001
         vertex 4.252494e+000 6.002790e+000 0.000000e+000
      endloop
   endfacet
   facet normal 9.182422e-001 3.960194e-001 0.000000e+000
      outer loop
         vertex 4.252494e+000 6.002790e+000 0.000000e+000
         vertex 4.252494e+000 6.002790e+000 1.000000e+001
         vertex 4.331223e+000 5.833955e+000 1.000000e+001
      endloop
   endfacet
   facet normal 8.936031e-001 4.488580e-001 0.000000e+000
      outer loop
         vertex 4.252494e+000 6.002790e+000 0.000000e+000
         vertex 4.331223e+000 5.833955e+000 1.000000e+001
         vertex 4.331223e+000 5.833955e+000 0.000000e+000
      endloop
   endfacet
   facet normal 8.355240e-001 5.494540e-001 0.000000e+000
      outer loop
         vertex 4.331223e+000 5.833955e+000 0.000000e+000
         vertex 4.331223e+000 5.833955e+000 1.000000e+001
         vertex 4.438074e+000 5.681357e+000 1.000000e+001
      endloop
   endfacet
   facet normal 8.020838e-001 5.972114e-001 0.000000e+000
      outer loop
         vertex 4.331223e+000 5.833955e+000 0.000000e+000
         vertex 4.438074e+000 5.681357e+000 1.000000e+001
         vertex 4.438074e+000 5.681357e+000 0.000000e+000
      endloop
   endfacet
   facet normal 7.274188e-001 6.861938e-001 0.000000e+000
      outer loop
         vertex 4.438074e+000 5.681357e+000 0.000000e+000
         vertex 4.438074e+000 5.681357e+000 1.000000e+001
         vertex 4.569799e+000 5.549632e+000 1.000000e+001
      endloop
   endfacet
   facet normal 6.861938e-001 7.274188e-001 0.000000e+000
      outer loop
         vertex 4.438074e+000 5.681357e+000 0.000000e+000
         vertex 4.569799e+000 5.549632e+000 1.000000e+001
         vertex 4.569799e+000 5.549632e+000 0.000000e+000
      endloop
   endfacet
   facet normal 5.972114e-001 8.020838e-001 0.000000e+000
      outer loop
         vertex 4.569799e+000 5.549632e+000 0.000000e+000
         vertex 4.569799e+000 5.549632e+000 1.000000e+001
         vertex 4.722397e+000 5.442781e+000 1.000000e+001
      endloop
   endfacet
   facet normal 5.494540e-001 8.355240e-001 0.000000e+000
      outer loop
         vertex 4.569799e+000 5.549632e+000 0.000000e+000
         vertex 4.722397e+000 5.442781e+000 1.000000e+001
         vertex 4.722397e+000 5.442781e+000 0.000000e+000
      endloop
   endfacet
   facet normal 4.488580e-001 8.936031e-001 0.000000e+000
      outer loop
         vertex 4.722397e+000 5.442781e+000 0.000000e+000
         vertex 4.722397e+000 5.442781e+000 1.000000e+001
         vertex 4.891232e+000 5.364052e+000 1.000000e+001
      endloop
   endfacet
   facet normal 3.960194e-001 9.182422e-001 0.000000e+000
      outer loop
         vertex 4.722397e+000 5.442781e+000 0.000000e+000
         vertex 4.891232e+000 5.364052e+000 1.000000e+001
         vertex 4.891232e+000 5.364052e+000 0.000000e+000
      endloop
   endfacet
   facet normal 2.868663e-001 9.579706e-001 0.000000e+000
      outer loop
         vertex 4.891232e+000 5.364052e+000 0.000000e+000
         vertex 4.891232e+000 5.364052e+000 1.000000e+001
         vertex 5.071173e+000 5.315837e+000 1.000000e+001
      endloop
   endfacet
   facet normal 2.305519e-001 9.730600e-001 0.000000e+000
      outer loop
         vertex 4.891232e+000 5.364052e+000 0.000000e+000
         vertex 5.071173e+000 5.315837e+000 1.000000e+001
         vertex 5.071173e+000 5.315837e+000 0.000000e+000
      endloop
   endfacet
   facet normal 1.161583e-001 9.932307e-001 0.000000e+000
      outer loop
         vertex 5.071173e+000 5.315837e+000 0.000000e+000
         vertex 5.071173e+000 5.315837e+000 1.000000e+001
         vertex 5.256752e+000 5.299601e+000 1.000000e+001
      endloop
   endfacet
   facet normal 5.807913e-002 9.983119e-001 0.000000e+000
      outer loop
         vertex 5.071173e+000 5.315837e+000 0.000000e+000
         vertex 5.256752e+000 5.299601e+000 1.000000e+001
         vertex 5.256752e+000 5.299601e+000 0.000000e+000
      endloop
   endfacet
   facet normal -5.807913e-002 9.983119e-001 0.000000e+000
      outer loop
         vertex 5.256752e+000 5.299601e+000 0.000000e+000
         vertex 5.256752e+000 5.299601e+000 1.000000e+001
         vertex 5.442331e+000 5.315837e+000 1.000000e+001
      endloop
   endfacet
   facet normal -1.161583e-001 9.932307e-001 0.000000e+000
      outer loop
         vertex 5.256752e+000 5.299601e+000 0.000000e+000
         vertex 5.442331e+000 5.315837e+000 1.000000e+001
         vertex 5.442331e+000 5.315837e+000 0.000000e+000
      endloop
   endfacet
   facet normal -2.305519e-001 9.730600e-001 0.000000e+000
      outer loop
         vertex 5.442331e+000 5.315837e+000 0.000000e+000
         vertex 5.442331e+000 5.315837e+000 1.000000e+001
         vertex 5.622271e+000 5.364052e+000 1.000000e+001
      endloop
   endfacet
   facet normal -2.868663e-001 9.579706e-001 0.000000e+000
      outer loop
         vertex 5.442331e+000 5.315837e+000 0.000000e+000
         vertex 5.622271e+000 5.364052e+000 1.000000e+001
         vertex 5.622271e+000 5.364052e+000 0.000000e+000
      endloop
   endfacet
   facet normal -3.960194e-001 9.182422e-001 0.000000e+000
      outer loop
         vertex 5.622271e+000 5.364052e+000 0.000000e+000
         vertex 5.622271e+000 5.364052e+000 1.000000e+001
         vertex 5.791105e+000 5.442781e+000 1.000000e+001
      endloop
   endfacet
   facet normal -4.488580e-001 8.936031e-001 0.000000e+000
      outer loop
         vertex 5.622271e+000 5.364052e+000 0.000000e+000
         vertex 5.791105e+000 5.442781e+000 1.000000e+001
         vertex 5.791105e+000 5.442781e+000 0.000000e+000
      endloop
   endfacet
   facet normal -5.494540e-001 8.355240e-001 0.000000e+000
      outer loop
         vertex 5.791105e+000 5.442781e+000 0.000000e+000
         vertex 5.791105e+000 5.442781e+000 1.000000e+001
         vertex 5.943704e+000 5.549632e+000 1.000000e+001
      endloop
   endfacet
   facet normal -5.972114e-001 8.020838e-001 0.000000e+000
      outer loop
         vertex 5.791105e+000 5.442781e+000 0.000000e+000
         vertex 5.943704e+000 5.549632e+000 1.000000e+001
         vertex 5.943704e+000 5.549632e+000 0.000000e+000
      endloop
   endfacet
   facet normal -6.861938e-001 7.274188e-001 0.000000e+000
      outer loop
         vertex 5.943704e+000 5.549632e+000 0.000000e+000
         vertex 5.943704e+000 5.549632e+000 1.000000e+001
         vertex 6.075429e+000 5.681357e+000 1.000000e+001
      endloop
   endfacet
   facet normal -7.274188e-001 6.861938e-001 0.000000e+000
      outer loop
         vertex 5.943704e+000 5.549632e+000 0.000000e+000
         vertex 6.075429e+000 5.681357e+000 1.000000e+001
         vertex 6.075429e+000 5.681357e+000 0.000000e+000
      endloop
   endfacet
   facet normal -8.020838e-001 5.972114e-001 0.000000e+000
      outer loop
         vertex 6.075429e+000 5.681357e+000 0.000000e+000
         vertex 6.075429e+000 5.681357e+000 1.000000e+001
         vertex 6.182280e+000 5.833955e+000 1.000000e+001
      endloop
   endfacet
   facet normal -8.355240e-001 5.494540e-001 0.000000e+000
      outer loop
         vertex 6.075429e+000 5.681357e+000 0.000000e+000
         vertex 6.182280e+000 5.833955e+000 1.000000e+001
         vertex 6.182280e+000 5.833955e+000 0.000000e+000
      endloop
   endfacet
   facet normal -8.936031e-001 4.488580e-001 0.000000e+000
      outer loop
         vertex 6.182280e+000 5.833955e+000 0.000000e+000
         vertex 6.182280e+000 5.833955e+000 1.000000e+001
         vertex 6.261008e+000 6.002790e+000 1.000000e+001
      endloop
   endfacet
   facet normal -9.182422e-001 3.960194e-001 0.000000e+000
      outer loop
         vertex 6.182280e+000 5.833955e+000 0.000000e+000
         vertex 6.261008e+000 6.002790e+000 1.000000e+001
         vertex 6.261008e+000 6.002790e+000 0.000000e+000
      endloop
   endfacet
   facet normal -9.579706e-001 2.868663e-001 0.000000e+000
      outer loop
         vertex 6.261008e+000 6.002790e+000 0.000000e+000
         vertex 6.261008e+000 6.002790e+000 1.000000e+001
         vertex 6.309223e+000 6.182730e+000 1.000000e+001
      endloop
   endfacet
   facet normal -9.730600e-001 2.305519e-001 0.000000e+000
      outer loop
         vertex 6.261008e+000 6.002790e+000 0.000000e+000
         vertex 6.309223e+000 6.182730e+000 1.000000e+001
         vertex 6.309223e+000 6.182730e+000 0.000000e+000
      endloop
   endfacet
   facet normal -9.932307e-001 1.161583e-001 0.000000e+000
      outer loop
         vertex 6.309223e+000 6.182730e+000 0.000000e+000
         vertex 6.309223e+000 6.182730e+000 1.000000e+001
         vertex 6.325459e+000 6.368309e+000 1.000000e+001
      endloop
   endfacet
endsolid