solid 3_564
   facet normal -1.000000e+000 0.000000e+000 0.000000e+000
      outer loop
         vertex 0.000000e+000 1.000000e+001 1.000000e+001
         vertex 0.000000e+000 1.000000e+001 0.000000e+000
         vertex 0.000000e+000 0.000000e+000 1.000000e+001
      endloop
   endfacet
   facet normal -1.000000e+000 0.000000e+000 0.000000e+000
      outer loop
         vertex 0.000000e+000 0.000000e+000 1.000000e+001
         vertex 0.000000e+000 1.000000e+001 0.000000e+000
         vertex 0.000000e+000 0.000000e+000 0.000000e+000
      endloop
   endfacet
   facet normal 0.000000e+000 0.000000e+000 1.000000e+000
      outer loop
         vertex 9.036479e+000 3.245838e+000 1.000000e+001
         vertex 8.874946e+000 2.834258e+000 1.000000e+001
         vertex 1.000000e+001 0.000000e+000 1.000000e+001
      endloop
   endfacet
   facet normal 0.000000e+000 0.000000e+000 1.000000e+000
      outer loop
         vertex 1.000000e+001 0.000000e+000 1.000000e+001
         vertex 8.874946e+000 2.834258e+000 1.000000e+001
         vertex 8.653873e+000 2.451351e+000 1.000000e+001
      endloop
   endfacet
   facet normal 0.000000e+000 0.000000e+000 1.000000e+000
      outer loop
         vertex 1.000000e+001 0.000000e+000 1.000000e+001
         vertex 8.653873e+000 2.451351e+000 1.000000e+001
         vertex 8.378202e+000 2.105669e+000 1.000000e+001
      endloop
   endfacet
   facet normal 0.000000e+000 0.000000e+000 1.000000e+000
      outer loop
         vertex 5.551361e+000 1.233704e+000 1.000000e+001
         vertex 0.000000e+000 0.000000e+000 1.000000e+001
         vertex 5.988566e+000 1.167806e+000 1.000000e+001
      endloop
   endfacet
   facet normal 0.000000e+000 0.000000e+000 1.000000e+000
      outer loop
         vertex 5.988566e+000 1.167806e+000 1.000000e+001
         vertex 0.000000e+000 0.000000e+000 1.000000e+001
         vertex 1.000000e+001 0.000000e+000 1.000000e+001
      endloop
   endfacet
   facet normal 0.000000e+000 0.000000e+000 1.000000e+000
      outer loop
         vertex 8.378202e+000 2.105669e+000 1.000000e+001
         vertex 8.054088e+000 1.804935e+000 1.000000e+001
         vertex 1.000000e+001 0.000000e+000 1.000000e+001
      endloop
   endfacet
   facet normal 0.000000e+000 0.000000e+000 1.000000e+000
      outer loop
         vertex 1.000000e+001 0.000000e+000 1.000000e+001
         vertex 8.054088e+000 1.804935e+000 1.000000e+001
         vertex 7.688772e+000 1.555867e+000 1.000000e+001
      endloop
   endfacet
   facet normal 0.000000e+000 0.000000e+000 1.000000e+000
      outer loop
         vertex 1.000000e+001 0.000000e+000 1.000000e+001
         vertex 7.688772e+000 1.555867e+000 1.000000e+001
         vertex 7.290414e+000 1.364028e+000 1.000000e+001
      endloop
   endfacet
   facet normal 0.000000e+000 0.000000e+000 1.000000e+000
      outer loop
         vertex 5.551361e+000 1.233704e+000 1.000000e+001
         vertex 5.128860e+000 1.364028e+000 1.000000e+001
         vertex 0.000000e+000 0.000000e+000 1.000000e+001
      endloop
   endfacet
   facet normal 0.000000e+000 0.000000e+000 1.000000e+000
      outer loop
         vertex 0.000000e+000 0.000000e+000 1.000000e+001
         vertex 5.128860e+000 1.364028e+000 1.000000e+001
         vertex 4.730503e+000 1.555867e+000 1.000000e+001
      endloop
   endfacet
   facet normal 0.000000e+000 0.000000e+000 1.000000e+000
      outer loop
         vertex 0.000000e+000 0.000000e+000 1.000000e+001
         vertex 4.730503e+000 1.555867e+000 1.000000e+001
         vertex 4.365187e+000 1.804935e+000 1.000000e+001
      endloop
   endfacet
   facet normal 0.000000e+000 0.000000e+000 1.000000e+000
      outer loop
         vertex 7.290414e+000 1.364028e+000 1.000000e+001
         vertex 6.867914e+000 1.233704e+000 1.000000e+001
         vertex 1.000000e+001 0.000000e+000 1.000000e+001
      endloop
   endfacet
   facet normal 0.000000e+000 0.000000e+000 1.000000e+000
      outer loop
         vertex 1.000000e+001 0.000000e+000 1.000000e+001
         vertex 6.867914e+000 1.233704e+000 1.000000e+001
         vertex 6.430709e+000 1.167806e+000 1.000000e+001
      endloop
   endfacet
   facet normal 0.000000e+000 0.000000e+000 1.000000e+000
      outer loop
         vertex 1.000000e+001 0.000000e+000 1.000000e+001
         vertex 6.430709e+000 1.167806e+000 1.000000e+001
         vertex 5.988566e+000 1.167806e+000 1.000000e+001
      endloop
   endfacet
   facet normal 0.000000e+000 0.000000e+000 1.000000e+000
      outer loop
         vertex 8.653873e+000 5.784255e+000 1.000000e+001
         vertex 8.874946e+000 5.401347e+000 1.000000e+001
         vertex 1.000000e+001 1.000000e+001 1.000000e+001
      endloop
   endfacet
   facet normal 0.000000e+000 0.000000e+000 1.000000e+000
      outer loop
         vertex 1.000000e+001 1.000000e+001 1.000000e+001
         vertex 8.874946e+000 5.401347e+000 1.000000e+001
         vertex 9.036479e+000 4.989768e+000 1.000000e+001
      endloop
   endfacet
   facet normal 0.000000e+000 0.000000e+000 1.000000e+000
      outer loop
         vertex 9.036479e+000 4.989768e+000 1.000000e+001
         vertex 9.134865e+000 4.558710e+000 1.000000e+001
         vertex 1.000000e+001 1.000000e+001 1.000000e+001
      endloop
   endfacet
   facet normal 0.000000e+000 0.000000e+000 1.000000e+000
      outer loop
         vertex 1.000000e+001 1.000000e+001 1.000000e+001
         vertex 9.134865e+000 4.558710e+000 1.000000e+001
         vertex 9.167906e+000 4.117803e+000 1.000000e+001
      endloop
   endfacet
   facet normal 0.000000e+000 0.000000e+000 1.000000e+000
      outer loop
         vertex 1.000000e+001 1.000000e+001 1.000000e+001
         vertex 9.167906e+000 4.117803e+000 1.000000e+001
         vertex 1.000000e+001 0.000000e+000 1.000000e+001
      endloop
   endfacet
   facet normal 0.000000e+000 0.000000e+000 1.000000e+000
      outer loop
         vertex 1.000000e+001 0.000000e+000 1.000000e+001
         vertex 9.167906e+000 4.117803e+000 1.000000e+001
         vertex 9.134865e+000 3.676896e+000 1.000000e+001
      endloop
   endfacet
   facet normal 0.000000e+000 0.000000e+000 1.000000e+000
      outer loop
         vertex 1.000000e+001 0.000000e+000 1.000000e+001
         vertex 9.134865e+000 3.676896e+000 1.000000e+001
         vertex 9.036479e+000 3.245838e+000 1.000000e+001
      endloop
   endfacet
   facet normal 0.000000e+000 0.000000e+000 1.000000e+000
      outer loop
         vertex 7.688772e+000 6.679739e+000 1.000000e+001
         vertex 8.054088e+000 6.430671e+000 1.000000e+001
         vertex 1.000000e+001 1.000000e+001 1.000000e+001
      endloop
   endfacet
   facet normal 0.000000e+000 0.000000e+000 1.000000e+000
      outer loop
         vertex 1.000000e+001 1.000000e+001 1.000000e+001
         vertex 8.054088e+000 6.430671e+000 1.000000e+001
         vertex 8.378202e+000 6.129936e+000 1.000000e+001
      endloop
   endfacet
   facet normal 0.000000e+000 0.000000e+000 1.000000e+000
      outer loop
         vertex 1.000000e+001 1.000000e+001 1.000000e+001
         vertex 8.378202e+000 6.129936e+000 1.000000e+001
         vertex 8.653873e+000 5.784255e+000 1.000000e+001
      endloop
   endfacet
   facet normal 0.000000e+000 0.000000e+000 1.000000e+000
      outer loop
         vertex 0.000000e+000 0.000000e+000 1.000000e+001
         vertex 3.544329e+000 2.834258e+000 1.000000e+001
         vertex 3.382797e+000 3.245838e+000 1.000000e+001
      endloop
   endfacet
   facet normal 0.000000e+000 0.000000e+000 1.000000e+000
      outer loop
         vertex 6.430709e+000 7.067800e+000 1.000000e+001
         vertex 6.867914e+000 7.001902e+000 1.000000e+001
         vertex 1.000000e+001 1.000000e+001 1.000000e+001
      endloop
   endfacet
   facet normal 0.000000e+000 0.000000e+000 1.000000e+000
      outer loop
         vertex 1.000000e+001 1.000000e+001 1.000000e+001
         vertex 6.867914e+000 7.001902e+000 1.000000e+001
         vertex 7.290414e+000 6.871577e+000 1.000000e+001
      endloop
   endfacet
   facet normal 0.000000e+000 0.000000e+000 1.000000e+000
      outer loop
         vertex 1.000000e+001 1.000000e+001 1.000000e+001
         vertex 7.290414e+000 6.871577e+000 1.000000e+001
         vertex 7.688772e+000 6.679739e+000 1.000000e+001
      endloop
   endfacet
   facet normal 0.000000e+000 0.000000e+000 1.000000e+000
      outer loop
         vertex 4.365187e+000 1.804935e+000 1.000000e+001
         vertex 4.041073e+000 2.105669e+000 1.000000e+001
         vertex 0.000000e+000 0.000000e+000 1.000000e+001
      endloop
   endfacet
   facet normal 0.000000e+000 0.000000e+000 1.000000e+000
      outer loop
         vertex 0.000000e+000 0.000000e+000 1.000000e+001
         vertex 4.041073e+000 2.105669e+000 1.000000e+001
         vertex 3.765401e+000 2.451351e+000 1.000000e+001
      endloop
   endfacet
   facet normal 0.000000e+000 0.000000e+000 1.000000e+000
      outer loop
         vertex 0.000000e+000 0.000000e+000 1.000000e+001
         vertex 3.765401e+000 2.451351e+000 1.000000e+001
         vertex 3.544329e+000 2.834258e+000 1.000000e+001
      endloop
   endfacet
   facet normal 0.000000e+000 0.000000e+000 1.000000e+000
      outer loop
         vertex 3.284410e+000 4.558710e+000 1.000000e+001
         vertex 0.000000e+000 1.000000e+001 1.000000e+001
         vertex 3.251369e+000 4.117803e+000 1.000000e+001
      endloop
   endfacet
   facet normal 0.000000e+000 0.000000e+000 1.000000e+000
      outer loop
         vertex 3.251369e+000 4.117803e+000 1.000000e+001
         vertex 0.000000e+000 1.000000e+001 1.000000e+001
         vertex 0.000000e+000 0.000000e+000 1.000000e+001
      endloop
   endfacet
   facet normal 0.000000e+000 0.000000e+000 1.000000e+000
      outer loop
         vertex 3.251369e+000 4.117803e+000 1.000000e+001
         vertex 0.000000e+000 0.000000e+000 1.000000e+001
         vertex 3.284410e+000 3.676896e+000 1.000000e+001
      endloop
   endfacet
   facet normal 0.000000e+000 0.000000e+000 1.000000e+000
      outer loop
         vertex 3.284410e+000 3.676896e+000 1.000000e+001
         vertex 0.000000e+000 0.000000e+000 1.000000e+001
         vertex 3.382797e+000 3.245838e+000 1.000000e+001
      endloop
   endfacet
   facet normal 0.000000e+000 0.000000e+000 1.000000e+000
      outer loop
         vertex 4.730503e+000 6.679739e+000 1.000000e+001
         vertex 5.128860e+000 6.871577e+000 1.000000e+001
         vertex 0.000000e+000 1.000000e+001 1.000000e+001
      endloop
   endfacet
   facet normal 0.000000e+000 0.000000e+000 1.000000e+000
      outer loop
         vertex 0.000000e+000 1.000000e+001 1.000000e+001
         vertex 5.128860e+000 6.871577e+000 1.000000e+001
         vertex 5.551361e+000 7.001902e+000 1.000000e+001
      endloop
   endfacet
   facet normal 0.000000e+000 0.000000e+000 1.000000e+000
      outer loop
         vertex 0.000000e+000 1.000000e+001 1.000000e+001
         vertex 5.551361e+000 7.001902e+000 1.000000e+001
         vertex 1.000000e+001 1.000000e+001 1.000000e+001
      endloop
   endfacet
   facet normal 0.000000e+000 0.000000e+000 1.000000e+000
      outer loop
         vertex 1.000000e+001 1.000000e+001 1.000000e+001
         vertex 5.551361e+000 7.001902e+000 1.000000e+001
         vertex 5.988566e+000 7.067800e+000 1.000000e+001
      endloop
   endfacet
   facet normal 0.000000e+000 0.000000e+000 1.000000e+000
      outer loop
         vertex 1.000000e+001 1.000000e+001 1.000000e+001
         vertex 5.988566e+000 7.067800e+000 1.000000e+001
         vertex 6.430709e+000 7.067800e+000 1.000000e+001
      endloop
   endfacet
   facet normal 0.000000e+000 0.000000e+000 1.000000e+000
      outer loop
         vertex 3.284410e+000 4.558710e+000 1.000000e+001
         vertex 3.382797e+000 4.989768e+000 1.000000e+001
         vertex 0.000000e+000 1.000000e+001 1.000000e+001
      endloop
   endfacet
   facet normal 0.000000e+000 0.000000e+000 1.000000e+000
      outer loop
         vertex 0.000000e+000 1.000000e+001 1.000000e+001
         vertex 3.382797e+000 4.989768e+000 1.000000e+001
         vertex 3.544329e+000 5.401347e+000 1.000000e+001
      endloop
   endfacet
   facet normal 0.000000e+000 0.000000e+000 1.000000e+000
      outer loop
         vertex 0.000000e+000 1.000000e+001 1.000000e+001
         vertex 3.544329e+000 5.401347e+000 1.000000e+001
         vertex 3.765401e+000 5.784255e+000 1.000000e+001
      endloop
   endfacet
   facet normal 0.000000e+000 0.000000e+000 1.000000e+000
      outer loop
         vertex 3.765401e+000 5.784255e+000 1.000000e+001
         vertex 4.041073e+000 6.129936e+000 1.000000e+001
         vertex 0.000000e+000 1.000000e+001 1.000000e+001
      endloop
   endfacet
   facet normal 0.000000e+000 0.000000e+000 1.000000e+000
      outer loop
         vertex 0.000000e+000 1.000000e+001 1.000000e+001
         vertex 4.041073e+000 6.129936e+000 1.000000e+001
         vertex 4.365187e+000 6.430671e+000 1.000000e+001
      endloop
   endfacet
   facet normal 0.000000e+000 0.000000e+000 1.000000e+000
      outer loop
         vertex 0.000000e+000 1.000000e+001 1.000000e+001
         vertex 4.365187e+000 6.430671e+000 1.000000e+001
         vertex 4.730503e+000 6.679739e+000 1.000000e+001
      endloop
   endfacet
   facet normal 1.000000e+000 0.000000e+000 0.000000e+000
      outer loop
         vertex 1.000000e+001 1.000000e+001 0.000000e+000
         vertex 1.000000e+001 1.000000e+001 1.000000e+001
         vertex 1.000000e+001 0.000000e+000 0.000000e+000
      endloop
   endfacet
   facet normal 1.000000e+000 0.000000e+000 0.000000e+000
      outer loop
         vertex 1.000000e+001 0.000000e+000 0.000000e+000
         vertex 1.000000e+001 1.000000e+001 1.000000e+001
         vertex 1.000000e+001 0.000000e+000 1.000000e+001
      endloop
   endfacet
   facet normal 0.000000e+000 0.000000e+000 -1.000000e+000
      outer loop
         vertex 4.730503e+000 1.555867e+000 0.000000e+000
         vertex 5.128860e+000 1.364028e+000 0.000000e+000
         vertex 0.000000e+000 0.000000e+000 0.000000e+000
      endloop
   endfacet
   facet normal 0.000000e+000 0.000000e+000 -1.000000e+000
      outer loop
         vertex 8.653873e+000 2.451351e+000 0.000000e+000
         vertex 8.874946e+000 2.834258e+000 0.000000e+000
         vertex 1.000000e+001 0.000000e+000 0.000000e+000
      endloop
   endfacet
   facet normal 0.000000e+000 0.000000e+000 -1.000000e+000
      outer loop
         vertex 0.000000e+000 0.000000e+000 0.000000e+000
         vertex 3.251369e+000 4.117803e+000 0.000000e+000
         vertex 3.284410e+000 3.676896e+000 0.000000e+000
      endloop
   endfacet
   facet normal 0.000000e+000 0.000000e+000 -1.000000e+000
      outer loop
         vertex 7.290414e+000 1.364028e+000 0.000000e+000
         vertex 7.688772e+000 1.555867e+000 0.000000e+000
         vertex 1.000000e+001 0.000000e+000 0.000000e+000
      endloop
   endfacet
   facet normal 0.000000e+000 0.000000e+000 -1.000000e+000
      outer loop
         vertex 9.036479e+000 4.989768e+000 0.000000e+000
         vertex 8.874946e+000 5.401347e+000 0.000000e+000
         vertex 1.000000e+001 1.000000e+001 0.000000e+000
      endloop
   endfacet
   facet normal 0.000000e+000 0.000000e+000 -1.000000e+000
      outer loop
         vertex 7.290414e+000 1.364028e+000 0.000000e+000
         vertex 1.000000e+001 0.000000e+000 0.000000e+000
         vertex 6.867914e+000 1.233704e+000 0.000000e+000
      endloop
   endfacet
   facet normal 0.000000e+000 0.000000e+000 -1.000000e+000
      outer loop
         vertex 7.688772e+000 1.555867e+000 0.000000e+000
         vertex 8.054088e+000 1.804935e+000 0.000000e+000
         vertex 1.000000e+001 0.000000e+000 0.000000e+000
      endloop
   endfacet
   facet normal 0.000000e+000 0.000000e+000 -1.000000e+000
      outer loop
         vertex 1.000000e+001 0.000000e+000 0.000000e+000
         vertex 8.054088e+000 1.804935e+000 0.000000e+000
         vertex 8.378202e+000 2.105669e+000 0.000000e+000
      endloop
   endfacet
   facet normal 0.000000e+000 0.000000e+000 -1.000000e+000
      outer loop
         vertex 1.000000e+001 0.000000e+000 0.000000e+000
         vertex 8.378202e+000 2.105669e+000 0.000000e+000
         vertex 8.653873e+000 2.451351e+000 0.000000e+000
      endloop
   endfacet
   facet normal 0.000000e+000 0.000000e+000 -1.000000e+000
      outer loop
         vertex 3.284410e+000 3.676896e+000 0.000000e+000
         vertex 3.382797e+000 3.245838e+000 0.000000e+000
         vertex 0.000000e+000 0.000000e+000 0.000000e+000
      endloop
   endfacet
   facet normal 0.000000e+000 0.000000e+000 -1.000000e+000
      outer loop
         vertex 0.000000e+000 0.000000e+000 0.000000e+000
         vertex 3.382797e+000 3.245838e+000 0.000000e+000
         vertex 3.544329e+000 2.834258e+000 0.000000e+000
      endloop
   endfacet
   facet normal 0.000000e+000 0.000000e+000 -1.000000e+000
      outer loop
         vertex 0.000000e+000 0.000000e+000 0.000000e+000
         vertex 3.544329e+000 2.834258e+000 0.000000e+000
         vertex 3.765401e+000 2.451351e+000 0.000000e+000
      endloop
   endfacet
   facet normal 0.000000e+000 0.000000e+000 -1.000000e+000
      outer loop
         vertex 5.128860e+000 1.364028e+000 0.000000e+000
         vertex 5.551361e+000 1.233704e+000 0.000000e+000
         vertex 0.000000e+000 0.000000e+000 0.000000e+000
      endloop
   endfacet
   facet normal 0.000000e+000 0.000000e+000 -1.000000e+000
      outer loop
         vertex 0.000000e+000 0.000000e+000 0.000000e+000
         vertex 5.551361e+000 1.233704e+000 0.000000e+000
         vertex 5.988566e+000 1.167806e+000 0.000000e+000
      endloop
   endfacet
   facet normal 0.000000e+000 0.000000e+000 -1.000000e+000
      outer loop
         vertex 0.000000e+000 0.000000e+000 0.000000e+000
         vertex 5.988566e+000 1.167806e+000 0.000000e+000
         vertex 1.000000e+001 0.000000e+000 0.000000e+000
      endloop
   endfacet
   facet normal 0.000000e+000 0.000000e+000 -1.000000e+000
      outer loop
         vertex 1.000000e+001 0.000000e+000 0.000000e+000
         vertex 5.988566e+000 1.167806e+000 0.000000e+000
         vertex 6.430709e+000 1.167806e+000 0.000000e+000
      endloop
   endfacet
   facet normal 0.000000e+000 0.000000e+000 -1.000000e+000
      outer loop
         vertex 1.000000e+001 0.000000e+000 0.000000e+000
         vertex 6.430709e+000 1.167806e+000 0.000000e+000
         vertex 6.867914e+000 1.233704e+000 0.000000e+000
      endloop
   endfacet
   facet normal 0.000000e+000 0.000000e+000 -1.000000e+000
      outer loop
         vertex 8.874946e+000 5.401347e+000 0.000000e+000
         vertex 8.653873e+000 5.784255e+000 0.000000e+000
         vertex 1.000000e+001 1.000000e+001 0.000000e+000
      endloop
   endfacet
   facet normal 0.000000e+000 0.000000e+000 -1.000000e+000
      outer loop
         vertex 1.000000e+001 1.000000e+001 0.000000e+000
         vertex 8.653873e+000 5.784255e+000 0.000000e+000
         vertex 8.378202e+000 6.129936e+000 0.000000e+000
      endloop
   endfacet
   facet normal 0.000000e+000 0.000000e+000 -1.000000e+000
      outer loop
         vertex 1.000000e+001 1.000000e+001 0.000000e+000
         vertex 8.378202e+000 6.129936e+000 0.000000e+000
         vertex 8.054088e+000 6.430671e+000 0.000000e+000
      endloop
   endfacet
   facet normal 0.000000e+000 0.000000e+000 -1.000000e+000
      outer loop
         vertex 3.765401e+000 2.451351e+000 0.000000e+000
         vertex 4.041073e+000 2.105669e+000 0.000000e+000
         vertex 0.000000e+000 0.000000e+000 0.000000e+000
      endloop
   endfacet
   facet normal 0.000000e+000 0.000000e+000 -1.000000e+000
      outer loop
         vertex 0.000000e+000 0.000000e+000 0.000000e+000
         vertex 4.041073e+000 2.105669e+000 0.000000e+000
         vertex 4.365187e+000 1.804935e+000 0.000000e+000
      endloop
   endfacet
   facet normal 0.000000e+000 0.000000e+000 -1.000000e+000
      outer loop
         vertex 0.000000e+000 0.000000e+000 0.000000e+000
         vertex 4.365187e+000 1.804935e+000 0.000000e+000
         vertex 4.730503e+000 1.555867e+000 0.000000e+000
      endloop
   endfacet
   facet normal 0.000000e+000 0.000000e+000 -1.000000e+000
      outer loop
         vertex 1.000000e+001 0.000000e+000 0.000000e+000
         vertex 9.167906e+000 4.117803e+000 0.000000e+000
         vertex 1.000000e+001 1.000000e+001 0.000000e+000
      endloop
   endfacet
   facet normal 0.000000e+000 0.000000e+000 -1.000000e+000
      outer loop
         vertex 1.000000e+001 1.000000e+001 0.000000e+000
         vertex 9.167906e+000 4.117803e+000 0.000000e+000
         vertex 9.134865e+000 4.558710e+000 0.000000e+000
      endloop
   endfacet
   facet normal 0.000000e+000 0.000000e+000 -1.000000e+000
      outer loop
         vertex 1.000000e+001 1.000000e+001 0.000000e+000
         vertex 9.134865e+000 4.558710e+000 0.000000e+000
         vertex 9.036479e+000 4.989768e+000 0.000000e+000
      endloop
   endfacet
   facet normal 0.000000e+000 0.000000e+000 -1.000000e+000
      outer loop
         vertex 8.054088e+000 6.430671e+000 0.000000e+000
         vertex 7.688772e+000 6.679739e+000 0.000000e+000
         vertex 1.000000e+001 1.000000e+001 0.000000e+000
      endloop
   endfacet
   facet normal 0.000000e+000 0.000000e+000 -1.000000e+000
      outer loop
         vertex 1.000000e+001 1.000000e+001 0.000000e+000
         vertex 7.688772e+000 6.679739e+000 0.000000e+000
         vertex 7.290414e+000 6.871577e+000 0.000000e+000
      endloop
   endfacet
   facet normal 0.000000e+000 0.000000e+000 -1.000000e+000
      outer loop
         vertex 1.000000e+001 1.000000e+001 0.000000e+000
         vertex 7.290414e+000 6.871577e+000 0.000000e+000
         vertex 6.867914e+000 7.001902e+000 0.000000e+000
      endloop
   endfacet
   facet normal 0.000000e+000 0.000000e+000 -1.000000e+000
      outer loop
         vertex 3.251369e+000 4.117803e+000 0.000000e+000
         vertex 0.000000e+000 0.000000e+000 0.000000e+000
         vertex 3.284410e+000 4.558710e+000 0.000000e+000
      endloop
   endfacet
   facet normal 0.000000e+000 0.000000e+000 -1.000000e+000
      outer loop
         vertex 3.284410e+000 4.558710e+000 0.000000e+000
         vertex 0.000000e+000 0.000000e+000 0.000000e+000
         vertex 0.000000e+000 1.000000e+001 0.000000e+000
      endloop
   endfacet
   facet normal 0.000000e+000 0.000000e+000 -1.000000e+000
      outer loop
         vertex 3.284410e+000 4.558710e+000 0.000000e+000
         vertex 0.000000e+000 1.000000e+001 0.000000e+000
         vertex 3.382797e+000 4.989768e+000 0.000000e+000
      endloop
   endfacet
   facet normal 0.000000e+000 0.000000e+000 -1.000000e+000
      outer loop
         vertex 8.874946e+000 2.834258e+000 0.000000e+000
         vertex 9.036479e+000 3.245838e+000 0.000000e+000
         vertex 1.000000e+001 0.000000e+000 0.000000e+000
      endloop
   endfacet
   facet normal 0.000000e+000 0.000000e+000 -1.000000e+000
      outer loop
         vertex 1.000000e+001 0.000000e+000 0.000000e+000
         vertex 9.036479e+000 3.245838e+000 0.000000e+000
         vertex 9.134865e+000 3.676896e+000 0.000000e+000
      endloop
   endfacet
   facet normal 0.000000e+000 0.000000e+000 -1.000000e+000
      outer loop
         vertex 1.000000e+001 0.000000e+000 0.000000e+000
         vertex 9.134865e+000 3.676896e+000 0.000000e+000
         vertex 9.167906e+000 4.117803e+000 0.000000e+000
      endloop
   endfacet
   facet normal 0.000000e+000 0.000000e+000 -1.000000e+000
      outer loop
         vertex 5.128860e+000 6.871577e+000 0.000000e+000
         vertex 4.730503e+000 6.679739e+000 0.000000e+000
         vertex 0.000000e+000 1.000000e+001 0.000000e+000
      endloop
   endfacet
   facet normal 0.000000e+000 0.000000e+000 -1.000000e+000
      outer loop
         vertex 0.000000e+000 1.000000e+001 0.000000e+000
         vertex 4.730503e+000 6.679739e+000 0.000000e+000
         vertex 4.365187e+000 6.430671e+000 0.000000e+000
      endloop
   endfacet
   facet normal 0.000000e+000 0.000000e+000 -1.000000e+000
      outer loop
         vertex 0.000000e+000 1.000000e+001 0.000000e+000
         vertex 4.365187e+000 6.430671e+000 0.000000e+000
         vertex 4.041073e+000 6.129936e+000 0.000000e+000
      endloop
   endfacet
   facet normal 0.000000e+000 0.000000e+000 -1.000000e+000
      outer loop
         vertex 6.867914e+000 7.001902e+000 0.000000e+000
         vertex 6.430709e+000 7.067800e+000 0.000000e+000
         vertex 1.000000e+001 1.000000e+001 0.000000e+000
      endloop
   endfacet
   facet normal 0.000000e+000 0.000000e+000 -1.000000e+000
      outer loop
         vertex 1.000000e+001 1.000000e+001 0.000000e+000
         vertex 6.430709e+000 7.067800e+000 0.000000e+000
         vertex 5.988566e+000 7.067800e+000 0.000000e+000
      endloop
   endfacet
   facet normal 0.000000e+000 0.000000e+000 -1.000000e+000
      outer loop
         vertex 1.000000e+001 1.000000e+001 0.000000e+000
         vertex 5.988566e+000 7.067800e+000 0.000000e+000
         vertex 0.000000e+000 1.000000e+001 0.000000e+000
      endloop
   endfacet
   facet normal 0.000000e+000 0.000000e+000 -1.000000e+000
      outer loop
         vertex 0.000000e+000 1.000000e+001 0.000000e+000
         vertex 5.988566e+000 7.067800e+000 0.000000e+000
         vertex 5.551361e+000 7.001902e+000 0.000000e+000
      endloop
   endfacet
   facet normal 0.000000e+000 0.000000e+000 -1.000000e+000
      outer loop
         vertex 0.000000e+000 1.000000e+001 0.000000e+000
         vertex 5.551361e+000 7.001902e+000 0.000000e+000
         vertex 5.128860e+000 6.871577e+000 0.000000e+000
      endloop
   endfacet
   facet normal 0.000000e+000 0.000000e+000 -1.000000e+000
      outer loop
         vertex 4.041073e+000 6.129936e+000 0.000000e+000
         vertex 3.765401e+000 5.784255e+000 0.000000e+000
         vertex 0.000000e+000 1.000000e+001 0.000000e+000
      endloop
   endfacet
   facet normal 0.000000e+000 0.000000e+000 -1.000000e+000
      outer loop
         vertex 0.000000e+000 1.000000e+001 0.000000e+000
         vertex 3.765401e+000 5.784255e+000 0.000000e+000
         vertex 3.544329e+000 5.401347e+000 0.000000e+000
      endloop
   endfacet
   facet normal 0.000000e+000 0.000000e+000 -1.000000e+000
      outer loop
         vertex 0.000000e+000 1.000000e+001 0.000000e+000
         vertex 3.544329e+000 5.401347e+000 0.000000e+000
         vertex 3.382797e+000 4.989768e+000 0.000000e+000
      endloop
   endfacet
   facet normal 0.000000e+000 1.000000e+000 0.000000e+000
      outer loop
         vertex 1.000000e+001 1.000000e+001 1.000000e+001
         vertex 1.000000e+001 1.000000e+001 0.000000e+000
         vertex 0.000000e+000 1.000000e+001 1.000000e+001
      endloop
   endfacet
   facet normal 0.000000e+000 1.000000e+000 0.000000e+000
      outer loop
         vertex 0.000000e+000 1.000000e+001 1.000000e+001
         vertex 1.000000e+001 1.000000e+001 0.000000e+000
         vertex 0.000000e+000 1.000000e+001 0.000000e+000
      endloop
   endfacet
   facet normal 0.000000e+000 -1.000000e+000 0.000000e+000
      outer loop
         vertex 1.000000e+001 0.000000e+000 0.000000e+000
         vertex 1.000000e+001 0.000000e+000 1.000000e+001
         vertex 0.000000e+000 0.000000e+000 0.000000e+000
      endloop
   endfacet
   facet normal 0.000000e+000 -1.000000e+000 0.000000e+000
      outer loop
         vertex 0.000000e+000 0.000000e+000 0.000000e+000
         vertex 1.000000e+001 0.000000e+000 1.000000e+001
         vertex 0.000000e+000 0.000000e+000 1.000000e+001
      endloop
   endfacet
   facet normal -9.987590e-001 4.980453e-002 0.000000e+000
      outer loop
         vertex 9.134865e+000 3.676896e+000 0.000000e+000
         vertex 9.167906e+000 4.117803e+000 1.000000e+001
         vertex 9.167906e+000 4.117803e+000 0.000000e+000
      endloop
   endfacet
   facet normal -9.987590e-001 -4.980453e-002 0.000000e+000
      outer loop
         vertex 9.167906e+000 4.117803e+000 0.000000e+000
         vertex 9.167906e+000 4.117803e+000 1.000000e+001
         vertex 9.134865e+000 4.558710e+000 1.000000e+001
      endloop
   endfacet
   facet normal -9.950266e-001 -9.960905e-002 0.000000e+000
      outer loop
         vertex 9.167906e+000 4.117803e+000 0.000000e+000
         vertex 9.134865e+000 4.558710e+000 1.000000e+001
         vertex 9.134865e+000 4.558710e+000 0.000000e+000
      endloop
   endfacet
   facet normal -9.801807e-001 -1.981055e-001 0.000000e+000
      outer loop
         vertex 9.134865e+000 4.558710e+000 0.000000e+000
         vertex 9.134865e+000 4.558710e+000 1.000000e+001
         vertex 9.036479e+000 4.989768e+000 1.000000e+001
      endloop
   endfacet
   facet normal -9.690670e-001 -2.467975e-001 0.000000e+000
      outer loop
         vertex 9.134865e+000 4.558710e+000 0.000000e+000
         vertex 9.036479e+000 4.989768e+000 1.000000e+001
         vertex 9.036479e+000 4.989768e+000 0.000000e+000
      endloop
   endfacet
   facet normal -9.397067e-001 -3.419812e-001 0.000000e+000
      outer loop
         vertex 9.036479e+000 4.989768e+000 0.000000e+000
         vertex 9.036479e+000 4.989768e+000 1.000000e+001
         vertex 8.874946e+000 5.401347e+000 1.000000e+001
      endloop
   endfacet
   facet normal -9.214601e-001 -3.884729e-001 0.000000e+000
      outer loop
         vertex 9.036479e+000 4.989768e+000 0.000000e+000
         vertex 8.874946e+000 5.401347e+000 1.000000e+001
         vertex 8.874946e+000 5.401347e+000 0.000000e+000
      endloop
   endfacet
   facet normal -8.782414e-001 -4.782176e-001 0.000000e+000
      outer loop
         vertex 8.874946e+000 5.401347e+000 0.000000e+000
         vertex 8.874946e+000 5.401347e+000 1.000000e+001
         vertex 8.653873e+000 5.784255e+000 1.000000e+001
      endloop
   endfacet
   facet normal -8.532693e-001 -5.214705e-001 0.000000e+000
      outer loop
         vertex 8.874946e+000 5.401347e+000 0.000000e+000
         vertex 8.653873e+000 5.784255e+000 1.000000e+001
         vertex 8.653873e+000 5.784255e+000 0.000000e+000
      endloop
   endfacet
   facet normal -7.971576e-001 -6.037714e-001 0.000000e+000
      outer loop
         vertex 8.653873e+000 5.784255e+000 0.000000e+000
         vertex 8.653873e+000 5.784255e+000 1.000000e+001
         vertex 8.378202e+000 6.129936e+000 1.000000e+001
      endloop
   endfacet
   facet normal -7.660179e-001 -6.428193e-001 0.000000e+000
      outer loop
         vertex 8.653873e+000 5.784255e+000 0.000000e+000
         vertex 8.378202e+000 6.129936e+000 1.000000e+001
         vertex 8.378202e+000 6.129936e+000 0.000000e+000
      endloop
   endfacet
   facet normal -6.982664e-001 -7.158380e-001 0.000000e+000
      outer loop
         vertex 8.378202e+000 6.129936e+000 0.000000e+000
         vertex 8.378202e+000 6.129936e+000 1.000000e+001
         vertex 8.054088e+000 6.430671e+000 1.000000e+001
      endloop
   endfacet
   facet normal -6.616548e-001 -7.498086e-001 0.000000e+000
      outer loop
         vertex 8.378202e+000 6.129936e+000 0.000000e+000
         vertex 8.054088e+000 6.430671e+000 1.000000e+001
         vertex 8.054088e+000 6.430671e+000 0.000000e+000
      endloop
   endfacet
   facet normal -5.837772e-001 -8.119138e-001 0.000000e+000
      outer loop
         vertex 8.054088e+000 6.430671e+000 0.000000e+000
         vertex 8.054088e+000 6.430671e+000 1.000000e+001
         vertex 7.688772e+000 6.679739e+000 1.000000e+001
      endloop
   endfacet
   facet normal -5.425115e-001 -8.400484e-001 0.000000e+000
      outer loop
         vertex 8.054088e+000 6.430671e+000 0.000000e+000
         vertex 7.688772e+000 6.679739e+000 1.000000e+001
         vertex 7.688772e+000 6.679739e+000 0.000000e+000
      endloop
   endfacet
   facet normal -4.562475e-001 -8.898529e-001 0.000000e+000
      outer loop
         vertex 7.688772e+000 6.679739e+000 0.000000e+000
         vertex 7.688772e+000 6.679739e+000 1.000000e+001
         vertex 7.290414e+000 6.871577e+000 1.000000e+001
      endloop
   endfacet
   facet normal -4.112494e-001 -9.115229e-001 0.000000e+000
      outer loop
         vertex 7.688772e+000 6.679739e+000 0.000000e+000
         vertex 7.290414e+000 6.871577e+000 1.000000e+001
         vertex 7.290414e+000 6.871577e+000 0.000000e+000
      endloop
   endfacet
   facet normal -3.185259e-001 -9.479141e-001 0.000000e+000
      outer loop
         vertex 7.290414e+000 6.871577e+000 0.000000e+000
         vertex 7.290414e+000 6.871577e+000 1.000000e+001
         vertex 6.867914e+000 7.001902e+000 1.000000e+001
      endloop
   endfacet
   facet normal -2.708006e-001 -9.626355e-001 0.000000e+000
      outer loop
         vertex 7.290414e+000 6.871577e+000 0.000000e+000
         vertex 6.867914e+000 7.001902e+000 1.000000e+001
         vertex 6.867914e+000 7.001902e+000 0.000000e+000
      endloop
   endfacet
   facet normal -1.736889e-001 -9.848005e-001 0.000000e+000
      outer loop
         vertex 6.867914e+000 7.001902e+000 0.000000e+000
         vertex 6.867914e+000 7.001902e+000 1.000000e+001
         vertex 6.430709e+000 7.067800e+000 1.000000e+001
      endloop
   endfacet
   facet normal -1.243026e-001 -9.922444e-001 0.000000e+000
      outer loop
         vertex 6.867914e+000 7.001902e+000 0.000000e+000
         vertex 6.430709e+000 7.067800e+000 1.000000e+001
         vertex 6.430709e+000 7.067800e+000 0.000000e+000
      endloop
   endfacet
   facet normal -2.497209e-002 -9.996881e-001 0.000000e+000
      outer loop
         vertex 6.430709e+000 7.067800e+000 0.000000e+000
         vertex 6.430709e+000 7.067800e+000 1.000000e+001
         vertex 5.988566e+000 7.067800e+000 1.000000e+001
      endloop
   endfacet
   facet normal 2.497209e-002 -9.996881e-001 0.000000e+000
      outer loop
         vertex 6.430709e+000 7.067800e+000 0.000000e+000
         vertex 5.988566e+000 7.067800e+000 1.000000e+001
         vertex 5.988566e+000 7.067800e+000 0.000000e+000
      endloop
   endfacet
   facet normal 1.243026e-001 -9.922444e-001 0.000000e+000
      outer loop
         vertex 5.988566e+000 7.067800e+000 0.000000e+000
         vertex 5.988566e+000 7.067800e+000 1.000000e+001
         vertex 5.551361e+000 7.001902e+000 1.000000e+001
      endloop
   endfacet
   facet normal 1.736889e-001 -9.848005e-001 0.000000e+000
      outer loop
         vertex 5.988566e+000 7.067800e+000 0.000000e+000
         vertex 5.551361e+000 7.001902e+000 1.000000e+001
         vertex 5.551361e+000 7.001902e+000 0.000000e+000
      endloop
   endfacet
   facet normal 2.708006e-001 -9.626355e-001 0.000000e+000
      outer loop
         vertex 5.551361e+000 7.001902e+000 0.000000e+000
         vertex 5.551361e+000 7.001902e+000 1.000000e+001
         vertex 5.128860e+000 6.871577e+000 1.000000e+001
      endloop
   endfacet
   facet normal 3.185259e-001 -9.479141e-001 0.000000e+000
      outer loop
         vertex 5.551361e+000 7.001902e+000 0.000000e+000
         vertex 5.128860e+000 6.871577e+000 1.000000e+001
         vertex 5.128860e+000 6.871577e+000 0.000000e+000
      endloop
   endfacet
   facet normal 4.112494e-001 -9.115229e-001 0.000000e+000
      outer loop
         vertex 5.128860e+000 6.871577e+000 0.000000e+000
         vertex 5.128860e+000 6.871577e+000 1.000000e+001
         vertex 4.730503e+000 6.679739e+000 1.000000e+001
      endloop
   endfacet
   facet normal 4.562475e-001 -8.898529e-001 0.000000e+000
      outer loop
         vertex 5.128860e+000 6.871577e+000 0.000000e+000
         vertex 4.730503e+000 6.679739e+000 1.000000e+001
         vertex 4.730503e+000 6.679739e+000 0.000000e+000
      endloop
   endfacet
   facet normal 5.425115e-001 -8.400484e-001 0.000000e+000
      outer loop
         vertex 4.730503e+000 6.679739e+000 0.000000e+000
         vertex 4.730503e+000 6.679739e+000 1.000000e+001
         vertex 4.365187e+000 6.430671e+000 1.000000e+001
      endloop
   endfacet
   facet normal 5.837773e-001 -8.119138e-001 0.000000e+000
      outer loop
         vertex 4.730503e+000 6.679739e+000 0.000000e+000
         vertex 4.365187e+000 6.430671e+000 1.000000e+001
         vertex 4.365187e+000 6.430671e+000 0.000000e+000
      endloop
   endfacet
   facet normal 6.616548e-001 -7.498086e-001 0.000000e+000
      outer loop
         vertex 4.365187e+000 6.430671e+000 0.000000e+000
         vertex 4.365187e+000 6.430671e+000 1.000000e+001
         vertex 4.041073e+000 6.129936e+000 1.000000e+001
      endloop
   endfacet
   facet normal 6.982664e-001 -7.158380e-001 0.000000e+000
      outer loop
         vertex 4.365187e+000 6.430671e+000 0.000000e+000
         vertex 4.041073e+000 6.129936e+000 1.000000e+001
         vertex 4.041073e+000 6.129936e+000 0.000000e+000
      endloop
   endfacet
   facet normal 7.660179e-001 -6.428193e-001 0.000000e+000
      outer loop
         vertex 4.041073e+000 6.129936e+000 0.000000e+000
         vertex 4.041073e+000 6.129936e+000 1.000000e+001
         vertex 3.765401e+000 5.784255e+000 1.000000e+001
      endloop
   endfacet
   facet normal 7.971575e-001 -6.037714e-001 0.000000e+000
      outer loop
         vertex 4.041073e+000 6.129936e+000 0.000000e+000
         vertex 3.765401e+000 5.784255e+000 1.000000e+001
         vertex 3.765401e+000 5.784255e+000 0.000000e+000
      endloop
   endfacet
   facet normal 8.532693e-001 -5.214705e-001 0.000000e+000
      outer loop
         vertex 3.765401e+000 5.784255e+000 0.000000e+000
         vertex 3.765401e+000 5.784255e+000 1.000000e+001
         vertex 3.544329e+000 5.401347e+000 1.000000e+001
      endloop
   endfacet
   facet normal 8.782414e-001 -4.782176e-001 0.000000e+000
      outer loop
         vertex 3.765401e+000 5.784255e+000 0.000000e+000
         vertex 3.544329e+000 5.401347e+000 1.000000e+001
         vertex 3.544329e+000 5.401347e+000 0.000000e+000
      endloop
   endfacet
   facet normal 9.214601e-001 -3.884729e-001 0.000000e+000
      outer loop
         vertex 3.544329e+000 5.401347e+000 0.000000e+000
         vertex 3.544329e+000 5.401347e+000 1.000000e+001
         vertex 3.382797e+000 4.989768e+000 1.000000e+001
      endloop
   endfacet
   facet normal 9.397067e-001 -3.419812e-001 0.000000e+000
      outer loop
         vertex 3.544329e+000 5.401347e+000 0.000000e+000
         vertex 3.382797e+000 4.989768e+000 1.000000e+001
         vertex 3.382797e+000 4.989768e+000 0.000000e+000
      endloop
   endfacet
   facet normal 9.690670e-001 -2.467975e-001 0.000000e+000
      outer loop
         vertex 3.382797e+000 4.989768e+000 0.000000e+000
         vertex 3.382797e+000 4.989768e+000 1.000000e+001
         vertex 3.284410e+000 4.558710e+000 1.000000e+001
      endloop
   endfacet
   facet normal 9.801807e-001 -1.981055e-001 0.000000e+000
      outer loop
         vertex 3.382797e+000 4.989768e+000 0.000000e+000
         vertex 3.284410e+000 4.558710e+000 1.000000e+001
         vertex 3.284410e+000 4.558710e+000 0.000000e+000
      endloop
   endfacet
   facet normal 9.950266e-001 -9.960905e-002 0.000000e+000
      outer loop
         vertex 3.284410e+000 4.558710e+000 0.000000e+000
         vertex 3.284410e+000 4.558710e+000 1.000000e+001
         vertex 3.251369e+000 4.117803e+000 1.000000e+001
      endloop
   endfacet
   facet normal 9.987590e-001 -4.980453e-002 0.000000e+000
      outer loop
         vertex 3.284410e+000 4.558710e+000 0.000000e+000
         vertex 3.251369e+000 4.117803e+000 1.000000e+001
         vertex 3.251369e+000 4.117803e+000 0.000000e+000
      endloop
   endfacet
   facet normal 9.987590e-001 4.980453e-002 0.000000e+000
      outer loop
         vertex 3.251369e+000 4.117803e+000 0.000000e+000
         vertex 3.251369e+000 4.117803e+000 1.000000e+001
         vertex 3.284410e+000 3.676896e+000 1.000000e+001
      endloop
   endfacet
   facet normal 9.950266e-001 9.960905e-002 0.000000e+000
      outer loop
         vertex 3.251369e+000 4.117803e+000 0.000000e+000
         vertex 3.284410e+000 3.676896e+000 1.000000e+001
         vertex 3.284410e+000 3.676896e+000 0.000000e+000
      endloop
   endfacet
   facet normal 9.801807e-001 1.981055e-001 0.000000e+000
      outer loop
         vertex 3.284410e+000 3.676896e+000 0.000000e+000
         vertex 3.284410e+000 3.676896e+000 1.000000e+001
         vertex 3.382797e+000 3.245838e+000 1.000000e+001
      endloop
   endfacet
   facet normal 9.690670e-001 2.467975e-001 0.000000e+000
      outer loop
         vertex 3.284410e+000 3.676896e+000 0.000000e+000
         vertex 3.382797e+000 3.245838e+000 1.000000e+001
         vertex 3.382797e+000 3.245838e+000 0.000000e+000
      endloop
   endfacet
   facet normal 9.397067e-001 3.419812e-001 0.000000e+000
      outer loop
         vertex 3.382797e+000 3.245838e+000 0.000000e+000
         vertex 3.382797e+000 3.245838e+000 1.000000e+001
         vertex 3.544329e+000 2.834258e+000 1.000000e+001
      endloop
   endfacet
   facet normal 9.214601e-001 3.884729e-001 0.000000e+000
      outer loop
         vertex 3.382797e+000 3.245838e+000 0.000000e+000
         vertex 3.544329e+000 2.834258e+000 1.000000e+001
         vertex 3.544329e+000 2.834258e+000 0.000000e+000
      endloop
   endfacet
   facet normal 8.782414e-001 4.782176e-001 0.000000e+000
      outer loop
         vertex 3.544329e+000 2.834258e+000 0.000000e+000
         vertex 3.544329e+000 2.834258e+000 1.000000e+001
         vertex 3.765401e+000 2.451351e+000 1.000000e+001
      endloop
   endfacet
   facet normal 8.532693e-001 5.214705e-001 0.000000e+000
      outer loop
         vertex 3.544329e+000 2.834258e+000 0.000000e+000
         vertex 3.765401e+000 2.451351e+000 1.000000e+001
         vertex 3.765401e+000 2.451351e+000 0.000000e+000
      endloop
   endfacet
   facet normal 7.971576e-001 6.037714e-001 0.000000e+000
      outer loop
         vertex 3.765401e+000 2.451351e+000 0.000000e+000
         vertex 3.765401e+000 2.451351e+000 1.000000e+001
         vertex 4.041073e+000 2.105669e+000 1.000000e+001
      endloop
   endfacet
   facet normal 7.660179e-001 6.428193e-001 0.000000e+000
      outer loop
         vertex 3.765401e+000 2.451351e+000 0.000000e+000
         vertex 4.041073e+000 2.105669e+000 1.000000e+001
         vertex 4.041073e+000 2.105669e+000 0.000000e+000
      endloop
   endfacet
   facet normal 6.982664e-001 7.158380e-001 0.000000e+000
      outer loop
         vertex 4.041073e+000 2.105669e+000 0.000000e+000
         vertex 4.041073e+000 2.105669e+000 1.000000e+001
         vertex 4.365187e+000 1.804935e+000 1.000000e+001
      endloop
   endfacet
   facet normal 6.616548e-001 7.498086e-001 0.000000e+000
      outer loop
         vertex 4.041073e+000 2.105669e+000 0.000000e+000
         vertex 4.365187e+000 1.804935e+000 1.000000e+001
         vertex 4.365187e+000 1.804935e+000 0.000000e+000
      endloop
   endfacet
   facet normal 5.837772e-001 8.119138e-001 0.000000e+000
      outer loop
         vertex 4.365187e+000 1.804935e+000 0.000000e+000
         vertex 4.365187e+000 1.804935e+000 1.000000e+001
         vertex 4.730503e+000 1.555867e+000 1.000000e+001
      endloop
   endfacet
   facet normal 5.425115e-001 8.400484e-001 0.000000e+000
      outer loop
         vertex 4.365187e+000 1.804935e+000 0.000000e+000
         vertex 4.730503e+000 1.555867e+000 1.000000e+001
         vertex 4.730503e+000 1.555867e+000 0.000000e+000
      endloop
   endfacet
   facet normal 4.562475e-001 8.898529e-001 0.000000e+000
      outer loop
         vertex 4.730503e+000 1.555867e+000 0.000000e+000
         vertex 4.730503e+000 1.555867e+000 1.000000e+001
         vertex 5.128860e+000 1.364028e+000 1.000000e+001
      endloop
   endfacet
   facet normal 4.112494e-001 9.115229e-001 0.000000e+000
      outer loop
         vertex 4.730503e+000 1.555867e+000 0.000000e+000
         vertex 5.128860e+000 1.364028e+000 1.000000e+001
         vertex 5.128860e+000 1.364028e+000 0.000000e+000
      endloop
   endfacet
   facet normal 3.185259e-001 9.479141e-001 0.000000e+000
      outer loop
         vertex 5.128860e+000 1.364028e+000 0.000000e+000
         vertex 5.128860e+000 1.364028e+000 1.000000e+001
         vertex 5.551361e+000 1.233704e+000 1.000000e+001
      endloop
   endfacet
   facet normal 2.708006e-001 9.626355e-001 0.000000e+000
      outer loop
         vertex 5.128860e+000 1.364028e+000 0.000000e+000
         vertex 5.551361e+000 1.233704e+000 1.000000e+001
         vertex 5.551361e+000 1.233704e+000 0.000000e+000
      endloop
   endfacet
   facet normal 1.736889e-001 9.848005e-001 0.000000e+000
      outer loop
         vertex 5.551361e+000 1.233704e+000 0.000000e+000
         vertex 5.551361e+000 1.233704e+000 1.000000e+001
         vertex 5.988566e+000 1.167806e+000 1.000000e+001
      endloop
   endfacet
   facet normal 1.243026e-001 9.922444e-001 0.000000e+000
      outer loop
         vertex 5.551361e+000 1.233704e+000 0.000000e+000
         vertex 5.988566e+000 1.167806e+000 1.000000e+001
         vertex 5.988566e+000 1.167806e+000 0.000000e+000
      endloop
   endfacet
   facet normal 2.497209e-002 9.996881e-001 0.000000e+000
      outer loop
         vertex 5.988566e+000 1.167806e+000 0.000000e+000
         vertex 5.988566e+000 1.167806e+000 1.000000e+001
         vertex 6.430709e+000 1.167806e+000 1.000000e+001
      endloop
   endfacet
   facet normal -2.497209e-002 9.996881e-001 0.000000e+000
      outer loop
         vertex 5.988566e+000 1.167806e+000 0.000000e+000
         vertex 6.430709e+000 1.167806e+000 1.000000e+001
         vertex 6.430709e+000 1.167806e+000 0.000000e+000
      endloop
   endfacet
   facet normal -1.243026e-001 9.922444e-001 0.000000e+000
      outer loop
         vertex 6.430709e+000 1.167806e+000 0.000000e+000
         vertex 6.430709e+000 1.167806e+000 1.000000e+001
         vertex 6.867914e+000 1.233704e+000 1.000000e+001
      endloop
   endfacet
   facet normal -1.736889e-001 9.848005e-001 0.000000e+000
      outer loop
         vertex 6.430709e+000 1.167806e+000 0.000000e+000
         vertex 6.867914e+000 1.233704e+000 1.000000e+001
         vertex 6.867914e+000 1.233704e+000 0.000000e+000
      endloop
   endfacet
   facet normal -2.708006e-001 9.626355e-001 0.000000e+000
      outer loop
         vertex 6.867914e+000 1.233704e+000 0.000000e+000
         vertex 6.867914e+000 1.233704e+000 1.000000e+001
         vertex 7.290414e+000 1.364028e+000 1.000000e+001
      endloop
   endfacet
   facet normal -3.185259e-001 9.479141e-001 0.000000e+000
      outer loop
         vertex 6.867914e+000 1.233704e+000 0.000000e+000
         vertex 7.290414e+000 1.364028e+000 1.000000e+001
         vertex 7.290414e+000 1.364028e+000 0.000000e+000
      endloop
   endfacet
   facet normal -4.112494e-001 9.115229e-001 0.000000e+000
      outer loop
         vertex 7.290414e+000 1.364028e+000 0.000000e+000
         vertex 7.290414e+000 1.364028e+000 1.000000e+001
         vertex 7.688772e+000 1.555867e+000 1.000000e+001
      endloop
   endfacet
   facet normal -4.562475e-001 8.898529e-001 0.000000e+000
      outer loop
         vertex 7.290414e+000 1.364028e+000 0.000000e+000
         vertex 7.688772e+000 1.555867e+000 1.000000e+001
         vertex 7.688772e+000 1.555867e+000 0.000000e+000
      endloop
   endfacet
   facet normal -5.425115e-001 8.400484e-001 0.000000e+000
      outer loop
         vertex 7.688772e+000 1.555867e+000 0.000000e+000
         vertex 7.688772e+000 1.555867e+000 1.000000e+001
         vertex 8.054088e+000 1.804935e+000 1.000000e+001
      endloop
   endfacet
   facet normal -5.837773e-001 8.119138e-001 0.000000e+000
      outer loop
         vertex 7.688772e+000 1.555867e+000 0.000000e+000
         vertex 8.054088e+000 1.804935e+000 1.000000e+001
         vertex 8.054088e+000 1.804935e+000 0.000000e+000
      endloop
   endfacet
   facet normal -6.616548e-001 7.498086e-001 0.000000e+000
      outer loop
         vertex 8.054088e+000 1.804935e+000 0.000000e+000
         vertex 8.054088e+000 1.804935e+000 1.000000e+001
         vertex 8.378202e+000 2.105669e+000 1.000000e+001
      endloop
   endfacet
   facet normal -6.982664e-001 7.158380e-001 0.000000e+000
      outer loop
         vertex 8.054088e+000 1.804935e+000 0.000000e+000
         vertex 8.378202e+000 2.105669e+000 1.000000e+001
         vertex 8.378202e+000 2.105669e+000 0.000000e+000
      endloop
   endfacet
   facet normal -7.660179e-001 6.428193e-001 0.000000e+000
      outer loop
         vertex 8.378202e+000 2.105669e+000 0.000000e+000
         vertex 8.378202e+000 2.105669e+000 1.000000e+001
         vertex 8.653873e+000 2.451351e+000 1.000000e+001
      endloop
   endfacet
   facet normal -7.971575e-001 6.037714e-001 0.000000e+000
      outer loop
         vertex 8.378202e+000 2.105669e+000 0.000000e+000
         vertex 8.653873e+000 2.451351e+000 1.000000e+001
         vertex 8.653873e+000 2.451351e+000 0.000000e+000
      endloop
   endfacet
   facet normal -8.532693e-001 5.214705e-001 0.000000e+000
      outer loop
         vertex 8.653873e+000 2.451351e+000 0.000000e+000
         vertex 8.653873e+000 2.451351e+000 1.000000e+001
         vertex 8.874946e+000 2.834258e+000 1.000000e+001
      endloop
   endfacet
   facet normal -8.782414e-001 4.782176e-001 0.000000e+000
      outer loop
         vertex 8.653873e+000 2.451351e+000 0.000000e+000
         vertex 8.874946e+000 2.834258e+000 1.000000e+001
         vertex 8.874946e+000 2.834258e+000 0.000000e+000
      endloop
   endfacet
   facet normal -9.214601e-001 3.884729e-001 0.000000e+000
      outer loop
         vertex 8.874946e+000 2.834258e+000 0.000000e+000
         vertex 8.874946e+000 2.834258e+000 1.000000e+001
         vertex 9.036479e+000 3.245838e+000 1.000000e+001
      endloop
   endfacet
   facet normal -9.397067e-001 3.419812e-001 0.000000e+000
      outer loop
         vertex 8.874946e+000 2.834258e+000 0.000000e+000
         vertex 9.036479e+000 3.245838e+000 1.000000e+001
         vertex 9.036479e+000 3.245838e+000 0.000000e+000
      endloop
   endfacet
   facet normal -9.690670e-001 2.467975e-001 0.000000e+000
      outer loop
         vertex 9.036479e+000 3.245838e+000 0.000000e+000
         vertex 9.036479e+000 3.245838e+000 1.000000e+001
         vertex 9.134865e+000 3.676896e+000 1.000000e+001
      endloop
   endfacet
   facet normal -9.801807e-001 1.981055e-001 0.000000e+000
      outer loop
         vertex 9.036479e+000 3.245838e+000 0.000000e+000
         vertex 9.134865e+000 3.676896e+000 1.000000e+001
         vertex 9.134865e+000 3.676896e+000 0.000000e+000
      endloop
   endfacet
   facet normal -9.950266e-001 9.960905e-002 0.000000e+000
      outer loop
         vertex 9.134865e+000 3.676896e+000 0.000000e+000
         vertex 9.134865e+000 3.676896e+000 1.000000e+001
         vertex 9.167906e+000 4.117803e+000 1.000000e+001
      endloop
   endfacet
endsolid