solid 3_607
   facet normal -1.000000e+000 0.000000e+000 0.000000e+000
      outer loop
         vertex 0.000000e+000 1.000000e+001 1.000000e+001
         vertex 0.000000e+000 1.000000e+001 0.000000e+000
         vertex 0.000000e+000 0.000000e+000 1.000000e+001
      endloop
   endfacet
   facet normal -1.000000e+000 0.000000e+000 0.000000e+000
      outer loop
         vertex 0.000000e+000 0.000000e+000 1.000000e+001
         vertex 0.000000e+000 1.000000e+001 0.000000e+000
         vertex 0.000000e+000 0.000000e+000 0.000000e+000
      endloop
   endfacet
   facet normal 0.000000e+000 0.000000e+000 1.000000e+000
      outer loop
         vertex 7.437713e+000 3.455904e+000 1.000000e+001
         vertex 1.000000e+001 0.000000e+000 1.000000e+001
         vertex 7.537441e+000 3.669772e+000 1.000000e+001
      endloop
   endfacet
   facet normal 0.000000e+000 0.000000e+000 1.000000e+000
      outer loop
         vertex 7.537441e+000 3.669772e+000 1.000000e+001
         vertex 1.000000e+001 0.000000e+000 1.000000e+001
         vertex 7.598516e+000 3.897709e+000 1.000000e+001
      endloop
   endfacet
   facet normal 0.000000e+000 0.000000e+000 1.000000e+000
      outer loop
         vertex 1.000000e+001 0.000000e+000 1.000000e+001
         vertex 6.942200e+000 2.960391e+000 1.000000e+001
         vertex 6.728332e+000 2.860662e+000 1.000000e+001
      endloop
   endfacet
   facet normal 0.000000e+000 0.000000e+000 1.000000e+000
      outer loop
         vertex 7.437713e+000 3.455904e+000 1.000000e+001
         vertex 7.302361e+000 3.262603e+000 1.000000e+001
         vertex 1.000000e+001 0.000000e+000 1.000000e+001
      endloop
   endfacet
   facet normal 0.000000e+000 0.000000e+000 1.000000e+000
      outer loop
         vertex 1.000000e+001 0.000000e+000 1.000000e+001
         vertex 7.302361e+000 3.262603e+000 1.000000e+001
         vertex 7.135500e+000 3.095742e+000 1.000000e+001
      endloop
   endfacet
   facet normal 0.000000e+000 0.000000e+000 1.000000e+000
      outer loop
         vertex 1.000000e+001 0.000000e+000 1.000000e+001
         vertex 7.135500e+000 3.095742e+000 1.000000e+001
         vertex 6.942200e+000 2.960391e+000 1.000000e+001
      endloop
   endfacet
   facet normal 0.000000e+000 0.000000e+000 1.000000e+000
      outer loop
         vertex 5.802300e+000 2.860662e+000 1.000000e+001
         vertex 5.588432e+000 2.960391e+000 1.000000e+001
         vertex 0.000000e+000 0.000000e+000 1.000000e+001
      endloop
   endfacet
   facet normal 0.000000e+000 0.000000e+000 1.000000e+000
      outer loop
         vertex 0.000000e+000 0.000000e+000 1.000000e+001
         vertex 5.588432e+000 2.960391e+000 1.000000e+001
         vertex 5.395131e+000 3.095742e+000 1.000000e+001
      endloop
   endfacet
   facet normal 0.000000e+000 0.000000e+000 1.000000e+000
      outer loop
         vertex 4.993190e+000 3.669772e+000 1.000000e+001
         vertex 4.932115e+000 3.897709e+000 1.000000e+001
         vertex 0.000000e+000 0.000000e+000 1.000000e+001
      endloop
   endfacet
   facet normal 0.000000e+000 0.000000e+000 1.000000e+000
      outer loop
         vertex 0.000000e+000 0.000000e+000 1.000000e+001
         vertex 4.932115e+000 3.897709e+000 1.000000e+001
         vertex 4.911548e+000 4.132788e+000 1.000000e+001
      endloop
   endfacet
   facet normal 0.000000e+000 0.000000e+000 1.000000e+000
      outer loop
         vertex 0.000000e+000 0.000000e+000 1.000000e+001
         vertex 4.911548e+000 4.132788e+000 1.000000e+001
         vertex 0.000000e+000 1.000000e+001 1.000000e+001
      endloop
   endfacet
   facet normal 0.000000e+000 0.000000e+000 1.000000e+000
      outer loop
         vertex 6.728332e+000 2.860662e+000 1.000000e+001
         vertex 6.500395e+000 2.799587e+000 1.000000e+001
         vertex 1.000000e+001 0.000000e+000 1.000000e+001
      endloop
   endfacet
   facet normal 0.000000e+000 0.000000e+000 1.000000e+000
      outer loop
         vertex 1.000000e+001 0.000000e+000 1.000000e+001
         vertex 6.500395e+000 2.799587e+000 1.000000e+001
         vertex 6.265316e+000 2.779021e+000 1.000000e+001
      endloop
   endfacet
   facet normal 0.000000e+000 0.000000e+000 1.000000e+000
      outer loop
         vertex 1.000000e+001 0.000000e+000 1.000000e+001
         vertex 6.265316e+000 2.779021e+000 1.000000e+001
         vertex 0.000000e+000 0.000000e+000 1.000000e+001
      endloop
   endfacet
   facet normal 0.000000e+000 0.000000e+000 1.000000e+000
      outer loop
         vertex 0.000000e+000 0.000000e+000 1.000000e+001
         vertex 6.265316e+000 2.779021e+000 1.000000e+001
         vertex 6.030236e+000 2.799587e+000 1.000000e+001
      endloop
   endfacet
   facet normal 0.000000e+000 0.000000e+000 1.000000e+000
      outer loop
         vertex 0.000000e+000 0.000000e+000 1.000000e+001
         vertex 6.030236e+000 2.799587e+000 1.000000e+001
         vertex 5.802300e+000 2.860662e+000 1.000000e+001
      endloop
   endfacet
   facet normal 0.000000e+000 0.000000e+000 1.000000e+000
      outer loop
         vertex 4.911548e+000 4.132788e+000 1.000000e+001
         vertex 4.932115e+000 4.367867e+000 1.000000e+001
         vertex 0.000000e+000 1.000000e+001 1.000000e+001
      endloop
   endfacet
   facet normal 0.000000e+000 0.000000e+000 1.000000e+000
      outer loop
         vertex 0.000000e+000 1.000000e+001 1.000000e+001
         vertex 4.932115e+000 4.367867e+000 1.000000e+001
         vertex 4.993190e+000 4.595804e+000 1.000000e+001
      endloop
   endfacet
   facet normal 0.000000e+000 0.000000e+000 1.000000e+000
      outer loop
         vertex 0.000000e+000 1.000000e+001 1.000000e+001
         vertex 4.993190e+000 4.595804e+000 1.000000e+001
         vertex 5.092919e+000 4.809671e+000 1.000000e+001
      endloop
   endfacet
   facet normal 0.000000e+000 0.000000e+000 1.000000e+000
      outer loop
         vertex 6.500395e+000 5.465989e+000 1.000000e+001
         vertex 6.728332e+000 5.404913e+000 1.000000e+001
         vertex 1.000000e+001 1.000000e+001 1.000000e+001
      endloop
   endfacet
   facet normal 0.000000e+000 0.000000e+000 1.000000e+000
      outer loop
         vertex 1.000000e+001 1.000000e+001 1.000000e+001
         vertex 6.728332e+000 5.404913e+000 1.000000e+001
         vertex 6.942200e+000 5.305185e+000 1.000000e+001
      endloop
   endfacet
   facet normal 0.000000e+000 0.000000e+000 1.000000e+000
      outer loop
         vertex 5.395131e+000 3.095742e+000 1.000000e+001
         vertex 5.228270e+000 3.262603e+000 1.000000e+001
         vertex 0.000000e+000 0.000000e+000 1.000000e+001
      endloop
   endfacet
   facet normal 0.000000e+000 0.000000e+000 1.000000e+000
      outer loop
         vertex 0.000000e+000 0.000000e+000 1.000000e+001
         vertex 5.228270e+000 3.262603e+000 1.000000e+001
         vertex 5.092919e+000 3.455904e+000 1.000000e+001
      endloop
   endfacet
   facet normal 0.000000e+000 0.000000e+000 1.000000e+000
      outer loop
         vertex 0.000000e+000 0.000000e+000 1.000000e+001
         vertex 5.092919e+000 3.455904e+000 1.000000e+001
         vertex 4.993190e+000 3.669772e+000 1.000000e+001
      endloop
   endfacet
   facet normal 0.000000e+000 0.000000e+000 1.000000e+000
      outer loop
         vertex 5.092919e+000 4.809671e+000 1.000000e+001
         vertex 5.228270e+000 5.002973e+000 1.000000e+001
         vertex 0.000000e+000 1.000000e+001 1.000000e+001
      endloop
   endfacet
   facet normal 0.000000e+000 0.000000e+000 1.000000e+000
      outer loop
         vertex 0.000000e+000 1.000000e+001 1.000000e+001
         vertex 5.228270e+000 5.002973e+000 1.000000e+001
         vertex 5.395131e+000 5.169834e+000 1.000000e+001
      endloop
   endfacet
   facet normal 0.000000e+000 0.000000e+000 1.000000e+000
      outer loop
         vertex 0.000000e+000 1.000000e+001 1.000000e+001
         vertex 5.395131e+000 5.169834e+000 1.000000e+001
         vertex 5.588432e+000 5.305185e+000 1.000000e+001
      endloop
   endfacet
   facet normal 0.000000e+000 0.000000e+000 1.000000e+000
      outer loop
         vertex 5.588432e+000 5.305185e+000 1.000000e+001
         vertex 5.802300e+000 5.404913e+000 1.000000e+001
         vertex 0.000000e+000 1.000000e+001 1.000000e+001
      endloop
   endfacet
   facet normal 0.000000e+000 0.000000e+000 1.000000e+000
      outer loop
         vertex 0.000000e+000 1.000000e+001 1.000000e+001
         vertex 5.802300e+000 5.404913e+000 1.000000e+001
         vertex 6.030236e+000 5.465989e+000 1.000000e+001
      endloop
   endfacet
   facet normal 0.000000e+000 0.000000e+000 1.000000e+000
      outer loop
         vertex 0.000000e+000 1.000000e+001 1.000000e+001
         vertex 6.030236e+000 5.465989e+000 1.000000e+001
         vertex 1.000000e+001 1.000000e+001 1.000000e+001
      endloop
   endfacet
   facet normal 0.000000e+000 0.000000e+000 1.000000e+000
      outer loop
         vertex 1.000000e+001 1.000000e+001 1.000000e+001
         vertex 6.030236e+000 5.465989e+000 1.000000e+001
         vertex 6.265316e+000 5.486556e+000 1.000000e+001
      endloop
   endfacet
   facet normal 0.000000e+000 0.000000e+000 1.000000e+000
      outer loop
         vertex 1.000000e+001 1.000000e+001 1.000000e+001
         vertex 6.265316e+000 5.486556e+000 1.000000e+001
         vertex 6.500395e+000 5.465989e+000 1.000000e+001
      endloop
   endfacet
   facet normal 0.000000e+000 0.000000e+000 1.000000e+000
      outer loop
         vertex 6.942200e+000 5.305185e+000 1.000000e+001
         vertex 7.135500e+000 5.169834e+000 1.000000e+001
         vertex 1.000000e+001 1.000000e+001 1.000000e+001
      endloop
   endfacet
   facet normal 0.000000e+000 0.000000e+000 1.000000e+000
      outer loop
         vertex 1.000000e+001 1.000000e+001 1.000000e+001
         vertex 7.135500e+000 5.169834e+000 1.000000e+001
         vertex 7.302361e+000 5.002973e+000 1.000000e+001
      endloop
   endfacet
   facet normal 0.000000e+000 0.000000e+000 1.000000e+000
      outer loop
         vertex 1.000000e+001 1.000000e+001 1.000000e+001
         vertex 7.302361e+000 5.002973e+000 1.000000e+001
         vertex 7.437713e+000 4.809671e+000 1.000000e+001
      endloop
   endfacet
   facet normal 0.000000e+000 0.000000e+000 1.000000e+000
      outer loop
         vertex 7.437713e+000 4.809671e+000 1.000000e+001
         vertex 7.537441e+000 4.595804e+000 1.000000e+001
         vertex 1.000000e+001 1.000000e+001 1.000000e+001
      endloop
   endfacet
   facet normal 0.000000e+000 0.000000e+000 1.000000e+000
      outer loop
         vertex 1.000000e+001 1.000000e+001 1.000000e+001
         vertex 7.537441e+000 4.595804e+000 1.000000e+001
         vertex 7.598516e+000 4.367867e+000 1.000000e+001
      endloop
   endfacet
   facet normal 0.000000e+000 0.000000e+000 1.000000e+000
      outer loop
         vertex 1.000000e+001 1.000000e+001 1.000000e+001
         vertex 7.598516e+000 4.367867e+000 1.000000e+001
         vertex 1.000000e+001 0.000000e+000 1.000000e+001
      endloop
   endfacet
   facet normal 0.000000e+000 0.000000e+000 1.000000e+000
      outer loop
         vertex 1.000000e+001 0.000000e+000 1.000000e+001
         vertex 7.598516e+000 4.367867e+000 1.000000e+001
         vertex 7.619083e+000 4.132788e+000 1.000000e+001
      endloop
   endfacet
   facet normal 0.000000e+000 0.000000e+000 1.000000e+000
      outer loop
         vertex 1.000000e+001 0.000000e+000 1.000000e+001
         vertex 7.619083e+000 4.132788e+000 1.000000e+001
         vertex 7.598516e+000 3.897709e+000 1.000000e+001
      endloop
   endfacet
   facet normal 1.000000e+000 0.000000e+000 0.000000e+000
      outer loop
         vertex 1.000000e+001 1.000000e+001 0.000000e+000
         vertex 1.000000e+001 1.000000e+001 1.000000e+001
         vertex 1.000000e+001 0.000000e+000 0.000000e+000
      endloop
   endfacet
   facet normal 1.000000e+000 0.000000e+000 0.000000e+000
      outer loop
         vertex 1.000000e+001 0.000000e+000 0.000000e+000
         vertex 1.000000e+001 1.000000e+001 1.000000e+001
         vertex 1.000000e+001 0.000000e+000 1.000000e+001
      endloop
   endfacet
   facet normal 0.000000e+000 0.000000e+000 -1.000000e+000
      outer loop
         vertex 4.911548e+000 4.132788e+000 0.000000e+000
         vertex 0.000000e+000 0.000000e+000 0.000000e+000
         vertex 4.932115e+000 4.367867e+000 0.000000e+000
      endloop
   endfacet
   facet normal 0.000000e+000 0.000000e+000 -1.000000e+000
      outer loop
         vertex 4.932115e+000 4.367867e+000 0.000000e+000
         vertex 0.000000e+000 0.000000e+000 0.000000e+000
         vertex 0.000000e+000 1.000000e+001 0.000000e+000
      endloop
   endfacet
   facet normal 0.000000e+000 0.000000e+000 -1.000000e+000
      outer loop
         vertex 4.932115e+000 4.367867e+000 0.000000e+000
         vertex 0.000000e+000 1.000000e+001 0.000000e+000
         vertex 4.993190e+000 4.595804e+000 0.000000e+000
      endloop
   endfacet
   facet normal 0.000000e+000 0.000000e+000 -1.000000e+000
      outer loop
         vertex 4.993190e+000 4.595804e+000 0.000000e+000
         vertex 0.000000e+000 1.000000e+001 0.000000e+000
         vertex 5.092919e+000 4.809671e+000 0.000000e+000
      endloop
   endfacet
   facet normal 0.000000e+000 0.000000e+000 -1.000000e+000
      outer loop
         vertex 0.000000e+000 1.000000e+001 0.000000e+000
         vertex 5.802300e+000 5.404913e+000 0.000000e+000
         vertex 5.588432e+000 5.305185e+000 0.000000e+000
      endloop
   endfacet
   facet normal 0.000000e+000 0.000000e+000 -1.000000e+000
      outer loop
         vertex 4.911548e+000 4.132788e+000 0.000000e+000
         vertex 4.932115e+000 3.897709e+000 0.000000e+000
         vertex 0.000000e+000 0.000000e+000 0.000000e+000
      endloop
   endfacet
   facet normal 0.000000e+000 0.000000e+000 -1.000000e+000
      outer loop
         vertex 0.000000e+000 0.000000e+000 0.000000e+000
         vertex 4.932115e+000 3.897709e+000 0.000000e+000
         vertex 4.993190e+000 3.669772e+000 0.000000e+000
      endloop
   endfacet
   facet normal 0.000000e+000 0.000000e+000 -1.000000e+000
      outer loop
         vertex 0.000000e+000 0.000000e+000 0.000000e+000
         vertex 4.993190e+000 3.669772e+000 0.000000e+000
         vertex 5.092919e+000 3.455904e+000 0.000000e+000
      endloop
   endfacet
   facet normal 0.000000e+000 0.000000e+000 -1.000000e+000
      outer loop
         vertex 6.500395e+000 2.799587e+000 0.000000e+000
         vertex 6.728332e+000 2.860662e+000 0.000000e+000
         vertex 1.000000e+001 0.000000e+000 0.000000e+000
      endloop
   endfacet
   facet normal 0.000000e+000 0.000000e+000 -1.000000e+000
      outer loop
         vertex 1.000000e+001 0.000000e+000 0.000000e+000
         vertex 6.728332e+000 2.860662e+000 0.000000e+000
         vertex 6.942200e+000 2.960391e+000 0.000000e+000
      endloop
   endfacet
   facet normal 0.000000e+000 0.000000e+000 -1.000000e+000
      outer loop
         vertex 1.000000e+001 0.000000e+000 0.000000e+000
         vertex 6.942200e+000 2.960391e+000 0.000000e+000
         vertex 7.135500e+000 3.095742e+000 0.000000e+000
      endloop
   endfacet
   facet normal 0.000000e+000 0.000000e+000 -1.000000e+000
      outer loop
         vertex 7.537441e+000 3.669772e+000 0.000000e+000
         vertex 7.598516e+000 3.897709e+000 0.000000e+000
         vertex 1.000000e+001 0.000000e+000 0.000000e+000
      endloop
   endfacet
   facet normal 0.000000e+000 0.000000e+000 -1.000000e+000
      outer loop
         vertex 1.000000e+001 0.000000e+000 0.000000e+000
         vertex 7.598516e+000 3.897709e+000 0.000000e+000
         vertex 7.619083e+000 4.132788e+000 0.000000e+000
      endloop
   endfacet
   facet normal 0.000000e+000 0.000000e+000 -1.000000e+000
      outer loop
         vertex 1.000000e+001 0.000000e+000 0.000000e+000
         vertex 7.619083e+000 4.132788e+000 0.000000e+000
         vertex 1.000000e+001 1.000000e+001 0.000000e+000
      endloop
   endfacet
   facet normal 0.000000e+000 0.000000e+000 -1.000000e+000
      outer loop
         vertex 1.000000e+001 1.000000e+001 0.000000e+000
         vertex 7.619083e+000 4.132788e+000 0.000000e+000
         vertex 7.598516e+000 4.367867e+000 0.000000e+000
      endloop
   endfacet
   facet normal 0.000000e+000 0.000000e+000 -1.000000e+000
      outer loop
         vertex 5.588432e+000 5.305185e+000 0.000000e+000
         vertex 5.395131e+000 5.169834e+000 0.000000e+000
         vertex 0.000000e+000 1.000000e+001 0.000000e+000
      endloop
   endfacet
   facet normal 0.000000e+000 0.000000e+000 -1.000000e+000
      outer loop
         vertex 0.000000e+000 1.000000e+001 0.000000e+000
         vertex 5.395131e+000 5.169834e+000 0.000000e+000
         vertex 5.228270e+000 5.002973e+000 0.000000e+000
      endloop
   endfacet
   facet normal 0.000000e+000 0.000000e+000 -1.000000e+000
      outer loop
         vertex 0.000000e+000 1.000000e+001 0.000000e+000
         vertex 5.228270e+000 5.002973e+000 0.000000e+000
         vertex 5.092919e+000 4.809671e+000 0.000000e+000
      endloop
   endfacet
   facet normal 0.000000e+000 0.000000e+000 -1.000000e+000
      outer loop
         vertex 5.092919e+000 3.455904e+000 0.000000e+000
         vertex 5.228270e+000 3.262603e+000 0.000000e+000
         vertex 0.000000e+000 0.000000e+000 0.000000e+000
      endloop
   endfacet
   facet normal 0.000000e+000 0.000000e+000 -1.000000e+000
      outer loop
         vertex 0.000000e+000 0.000000e+000 0.000000e+000
         vertex 5.228270e+000 3.262603e+000 0.000000e+000
         vertex 5.395131e+000 3.095742e+000 0.000000e+000
      endloop
   endfacet
   facet normal 0.000000e+000 0.000000e+000 -1.000000e+000
      outer loop
         vertex 0.000000e+000 0.000000e+000 0.000000e+000
         vertex 5.395131e+000 3.095742e+000 0.000000e+000
         vertex 5.588432e+000 2.960391e+000 0.000000e+000
      endloop
   endfacet
   facet normal 0.000000e+000 0.000000e+000 -1.000000e+000
      outer loop
         vertex 5.588432e+000 2.960391e+000 0.000000e+000
         vertex 5.802300e+000 2.860662e+000 0.000000e+000
         vertex 0.000000e+000 0.000000e+000 0.000000e+000
      endloop
   endfacet
   facet normal 0.000000e+000 0.000000e+000 -1.000000e+000
      outer loop
         vertex 0.000000e+000 0.000000e+000 0.000000e+000
         vertex 5.802300e+000 2.860662e+000 0.000000e+000
         vertex 6.030236e+000 2.799587e+000 0.000000e+000
      endloop
   endfacet
   facet normal 0.000000e+000 0.000000e+000 -1.000000e+000
      outer loop
         vertex 0.000000e+000 0.000000e+000 0.000000e+000
         vertex 6.030236e+000 2.799587e+000 0.000000e+000
         vertex 1.000000e+001 0.000000e+000 0.000000e+000
      endloop
   endfacet
   facet normal 0.000000e+000 0.000000e+000 -1.000000e+000
      outer loop
         vertex 1.000000e+001 0.000000e+000 0.000000e+000
         vertex 6.030236e+000 2.799587e+000 0.000000e+000
         vertex 6.265316e+000 2.779021e+000 0.000000e+000
      endloop
   endfacet
   facet normal 0.000000e+000 0.000000e+000 -1.000000e+000
      outer loop
         vertex 1.000000e+001 0.000000e+000 0.000000e+000
         vertex 6.265316e+000 2.779021e+000 0.000000e+000
         vertex 6.500395e+000 2.799587e+000 0.000000e+000
      endloop
   endfacet
   facet normal 0.000000e+000 0.000000e+000 -1.000000e+000
      outer loop
         vertex 7.135500e+000 3.095742e+000 0.000000e+000
         vertex 7.302361e+000 3.262603e+000 0.000000e+000
         vertex 1.000000e+001 0.000000e+000 0.000000e+000
      endloop
   endfacet
   facet normal 0.000000e+000 0.000000e+000 -1.000000e+000
      outer loop
         vertex 1.000000e+001 0.000000e+000 0.000000e+000
         vertex 7.302361e+000 3.262603e+000 0.000000e+000
         vertex 7.437713e+000 3.455904e+000 0.000000e+000
      endloop
   endfacet
   facet normal 0.000000e+000 0.000000e+000 -1.000000e+000
      outer loop
         vertex 1.000000e+001 0.000000e+000 0.000000e+000
         vertex 7.437713e+000 3.455904e+000 0.000000e+000
         vertex 7.537441e+000 3.669772e+000 0.000000e+000
      endloop
   endfacet
   facet normal 0.000000e+000 0.000000e+000 -1.000000e+000
      outer loop
         vertex 7.598516e+000 4.367867e+000 0.000000e+000
         vertex 7.537441e+000 4.595804e+000 0.000000e+000
         vertex 1.000000e+001 1.000000e+001 0.000000e+000
      endloop
   endfacet
   facet normal 0.000000e+000 0.000000e+000 -1.000000e+000
      outer loop
         vertex 1.000000e+001 1.000000e+001 0.000000e+000
         vertex 7.537441e+000 4.595804e+000 0.000000e+000
         vertex 7.437713e+000 4.809671e+000 0.000000e+000
      endloop
   endfacet
   facet normal 0.000000e+000 0.000000e+000 -1.000000e+000
      outer loop
         vertex 1.000000e+001 1.000000e+001 0.000000e+000
         vertex 7.437713e+000 4.809671e+000 0.000000e+000
         vertex 7.302361e+000 5.002973e+000 0.000000e+000
      endloop
   endfacet
   facet normal 0.000000e+000 0.000000e+000 -1.000000e+000
      outer loop
         vertex 7.302361e+000 5.002973e+000 0.000000e+000
         vertex 7.135500e+000 5.169834e+000 0.000000e+000
         vertex 1.000000e+001 1.000000e+001 0.000000e+000
      endloop
   endfacet
   facet normal 0.000000e+000 0.000000e+000 -1.000000e+000
      outer loop
         vertex 1.000000e+001 1.000000e+001 0.000000e+000
         vertex 7.135500e+000 5.169834e+000 0.000000e+000
         vertex 6.942200e+000 5.305185e+000 0.000000e+000
      endloop
   endfacet
   facet normal 0.000000e+000 0.000000e+000 -1.000000e+000
      outer loop
         vertex 1.000000e+001 1.000000e+001 0.000000e+000
         vertex 6.942200e+000 5.305185e+000 0.000000e+000
         vertex 6.728332e+000 5.404913e+000 0.000000e+000
      endloop
   endfacet
   facet normal 0.000000e+000 0.000000e+000 -1.000000e+000
      outer loop
         vertex 6.728332e+000 5.404913e+000 0.000000e+000
         vertex 6.500395e+000 5.465989e+000 0.000000e+000
         vertex 1.000000e+001 1.000000e+001 0.000000e+000
      endloop
   endfacet
   facet normal 0.000000e+000 0.000000e+000 -1.000000e+000
      outer loop
         vertex 1.000000e+001 1.000000e+001 0.000000e+000
         vertex 6.500395e+000 5.465989e+000 0.000000e+000
         vertex 6.265316e+000 5.486556e+000 0.000000e+000
      endloop
   endfacet
   facet normal 0.000000e+000 0.000000e+000 -1.000000e+000
      outer loop
         vertex 1.000000e+001 1.000000e+001 0.000000e+000
         vertex 6.265316e+000 5.486556e+000 0.000000e+000
         vertex 0.000000e+000 1.000000e+001 0.000000e+000
      endloop
   endfacet
   facet normal 0.000000e+000 0.000000e+000 -1.000000e+000
      outer loop
         vertex 0.000000e+000 1.000000e+001 0.000000e+000
         vertex 6.265316e+000 5.486556e+000 0.000000e+000
         vertex 6.030236e+000 5.465989e+000 0.000000e+000
      endloop
   endfacet
   facet normal 0.000000e+000 0.000000e+000 -1.000000e+000
      outer loop
         vertex 0.000000e+000 1.000000e+001 0.000000e+000
         vertex 6.030236e+000 5.465989e+000 0.000000e+000
         vertex 5.802300e+000 5.404913e+000 0.000000e+000
      endloop
   endfacet
   facet normal 0.000000e+000 1.000000e+000 0.000000e+000
      outer loop
         vertex 1.000000e+001 1.000000e+001 1.000000e+001
         vertex 1.000000e+001 1.000000e+001 0.000000e+000
         vertex 0.000000e+000 1.000000e+001 1.000000e+001
      endloop
   endfacet
   facet normal 0.000000e+000 1.000000e+000 0.000000e+000
      outer loop
         vertex 0.000000e+000 1.000000e+001 1.000000e+001
         vertex 1.000000e+001 1.000000e+001 0.000000e+000
         vertex 0.000000e+000 1.000000e+001 0.000000e+000
      endloop
   endfacet
   facet normal 0.000000e+000 -1.000000e+000 0.000000e+000
      outer loop
         vertex 1.000000e+001 0.000000e+000 0.000000e+000
         vertex 1.000000e+001 0.000000e+000 1.000000e+001
         vertex 0.000000e+000 0.000000e+000 0.000000e+000
      endloop
   endfacet
   facet normal 0.000000e+000 -1.000000e+000 0.000000e+000
      outer loop
         vertex 0.000000e+000 0.000000e+000 0.000000e+000
         vertex 1.000000e+001 0.000000e+000 1.000000e+001
         vertex 0.000000e+000 0.000000e+000 1.000000e+001
      endloop
   endfacet
   facet normal -9.983119e-001 5.807913e-002 0.000000e+000
      outer loop
         vertex 7.598516e+000 3.897709e+000 0.000000e+000
         vertex 7.619083e+000 4.132788e+000 1.000000e+001
         vertex 7.619083e+000 4.132788e+000 0.000000e+000
      endloop
   endfacet
   facet normal -9.983119e-001 -5.807913e-002 0.000000e+000
      outer loop
         vertex 7.619083e+000 4.132788e+000 0.000000e+000
         vertex 7.619083e+000 4.132788e+000 1.000000e+001
         vertex 7.598516e+000 4.367867e+000 1.000000e+001
      endloop
   endfacet
   facet normal -9.932307e-001 -1.161583e-001 0.000000e+000
      outer loop
         vertex 7.619083e+000 4.132788e+000 0.000000e+000
         vertex 7.598516e+000 4.367867e+000 1.000000e+001
         vertex 7.598516e+000 4.367867e+000 0.000000e+000
      endloop
   endfacet
   facet normal -9.730600e-001 -2.305519e-001 0.000000e+000
      outer loop
         vertex 7.598516e+000 4.367867e+000 0.000000e+000
         vertex 7.598516e+000 4.367867e+000 1.000000e+001
         vertex 7.537441e+000 4.595804e+000 1.000000e+001
      endloop
   endfacet
   facet normal -9.579706e-001 -2.868663e-001 0.000000e+000
      outer loop
         vertex 7.598516e+000 4.367867e+000 0.000000e+000
         vertex 7.537441e+000 4.595804e+000 1.000000e+001
         vertex 7.537441e+000 4.595804e+000 0.000000e+000
      endloop
   endfacet
   facet normal -9.182422e-001 -3.960194e-001 0.000000e+000
      outer loop
         vertex 7.537441e+000 4.595804e+000 0.000000e+000
         vertex 7.537441e+000 4.595804e+000 1.000000e+001
         vertex 7.437713e+000 4.809671e+000 1.000000e+001
      endloop
   endfacet
   facet normal -8.936031e-001 -4.488580e-001 0.000000e+000
      outer loop
         vertex 7.537441e+000 4.595804e+000 0.000000e+000
         vertex 7.437713e+000 4.809671e+000 1.000000e+001
         vertex 7.437713e+000 4.809671e+000 0.000000e+000
      endloop
   endfacet
   facet normal -8.355240e-001 -5.494540e-001 0.000000e+000
      outer loop
         vertex 7.437713e+000 4.809671e+000 0.000000e+000
         vertex 7.437713e+000 4.809671e+000 1.000000e+001
         vertex 7.302361e+000 5.002973e+000 1.000000e+001
      endloop
   endfacet
   facet normal -8.020838e-001 -5.972114e-001 0.000000e+000
      outer loop
         vertex 7.437713e+000 4.809671e+000 0.000000e+000
         vertex 7.302361e+000 5.002973e+000 1.000000e+001
         vertex 7.302361e+000 5.002973e+000 0.000000e+000
      endloop
   endfacet
   facet normal -7.274188e-001 -6.861938e-001 0.000000e+000
      outer loop
         vertex 7.302361e+000 5.002973e+000 0.000000e+000
         vertex 7.302361e+000 5.002973e+000 1.000000e+001
         vertex 7.135500e+000 5.169834e+000 1.000000e+001
      endloop
   endfacet
   facet normal -6.861938e-001 -7.274188e-001 0.000000e+000
      outer loop
         vertex 7.302361e+000 5.002973e+000 0.000000e+000
         vertex 7.135500e+000 5.169834e+000 1.000000e+001
         vertex 7.135500e+000 5.169834e+000 0.000000e+000
      endloop
   endfacet
   facet normal -5.972114e-001 -8.020838e-001 0.000000e+000
      outer loop
         vertex 7.135500e+000 5.169834e+000 0.000000e+000
         vertex 7.135500e+000 5.169834e+000 1.000000e+001
         vertex 6.942200e+000 5.305185e+000 1.000000e+001
      endloop
   endfacet
   facet normal -5.494540e-001 -8.355240e-001 0.000000e+000
      outer loop
         vertex 7.135500e+000 5.169834e+000 0.000000e+000
         vertex 6.942200e+000 5.305185e+000 1.000000e+001
         vertex 6.942200e+000 5.305185e+000 0.000000e+000
      endloop
   endfacet
   facet normal -4.488580e-001 -8.936031e-001 0.000000e+000
      outer loop
         vertex 6.942200e+000 5.305185e+000 0.000000e+000
         vertex 6.942200e+000 5.305185e+000 1.000000e+001
         vertex 6.728332e+000 5.404913e+000 1.000000e+001
      endloop
   endfacet
   facet normal -3.960194e-001 -9.182422e-001 0.000000e+000
      outer loop
         vertex 6.942200e+000 5.305185e+000 0.000000e+000
         vertex 6.728332e+000 5.404913e+000 1.000000e+001
         vertex 6.728332e+000 5.404913e+000 0.000000e+000
      endloop
   endfacet
   facet normal -2.868663e-001 -9.579706e-001 0.000000e+000
      outer loop
         vertex 6.728332e+000 5.404913e+000 0.000000e+000
         vertex 6.728332e+000 5.404913e+000 1.000000e+001
         vertex 6.500395e+000 5.465989e+000 1.000000e+001
      endloop
   endfacet
   facet normal -2.305519e-001 -9.730600e-001 0.000000e+000
      outer loop
         vertex 6.728332e+000 5.404913e+000 0.000000e+000
         vertex 6.500395e+000 5.465989e+000 1.000000e+001
         vertex 6.500395e+000 5.465989e+000 0.000000e+000
      endloop
   endfacet
   facet normal -1.161583e-001 -9.932307e-001 0.000000e+000
      outer loop
         vertex 6.500395e+000 5.465989e+000 0.000000e+000
         vertex 6.500395e+000 5.465989e+000 1.000000e+001
         vertex 6.265316e+000 5.486556e+000 1.000000e+001
      endloop
   endfacet
   facet normal -5.807913e-002 -9.983119e-001 0.000000e+000
      outer loop
         vertex 6.500395e+000 5.465989e+000 0.000000e+000
         vertex 6.265316e+000 5.486556e+000 1.000000e+001
         vertex 6.265316e+000 5.486556e+000 0.000000e+000
      endloop
   endfacet
   facet normal 5.807913e-002 -9.983119e-001 0.000000e+000
      outer loop
         vertex 6.265316e+000 5.486556e+000 0.000000e+000
         vertex 6.265316e+000 5.486556e+000 1.000000e+001
         vertex 6.030236e+000 5.465989e+000 1.000000e+001
      endloop
   endfacet
   facet normal 1.161583e-001 -9.932307e-001 0.000000e+000
      outer loop
         vertex 6.265316e+000 5.486556e+000 0.000000e+000
         vertex 6.030236e+000 5.465989e+000 1.000000e+001
         vertex 6.030236e+000 5.465989e+000 0.000000e+000
      endloop
   endfacet
   facet normal 2.305519e-001 -9.730600e-001 0.000000e+000
      outer loop
         vertex 6.030236e+000 5.465989e+000 0.000000e+000
         vertex 6.030236e+000 5.465989e+000 1.000000e+001
         vertex 5.802300e+000 5.404913e+000 1.000000e+001
      endloop
   endfacet
   facet normal 2.868663e-001 -9.579706e-001 0.000000e+000
      outer loop
         vertex 6.030236e+000 5.465989e+000 0.000000e+000
         vertex 5.802300e+000 5.404913e+000 1.000000e+001
         vertex 5.802300e+000 5.404913e+000 0.000000e+000
      endloop
   endfacet
   facet normal 3.960194e-001 -9.182422e-001 0.000000e+000
      outer loop
         vertex 5.802300e+000 5.404913e+000 0.000000e+000
         vertex 5.802300e+000 5.404913e+000 1.000000e+001
         vertex 5.588432e+000 5.305185e+000 1.000000e+001
      endloop
   endfacet
   facet normal 4.488580e-001 -8.936031e-001 0.000000e+000
      outer loop
         vertex 5.802300e+000 5.404913e+000 0.000000e+000
         vertex 5.588432e+000 5.305185e+000 1.000000e+001
         vertex 5.588432e+000 5.305185e+000 0.000000e+000
      endloop
   endfacet
   facet normal 5.494540e-001 -8.355240e-001 0.000000e+000
      outer loop
         vertex 5.588432e+000 5.305185e+000 0.000000e+000
         vertex 5.588432e+000 5.305185e+000 1.000000e+001
         vertex 5.395131e+000 5.169834e+000 1.000000e+001
      endloop
   endfacet
   facet normal 5.972114e-001 -8.020838e-001 0.000000e+000
      outer loop
         vertex 5.588432e+000 5.305185e+000 0.000000e+000
         vertex 5.395131e+000 5.169834e+000 1.000000e+001
         vertex 5.395131e+000 5.169834e+000 0.000000e+000
      endloop
   endfacet
   facet normal 6.861938e-001 -7.274188e-001 0.000000e+000
      outer loop
         vertex 5.395131e+000 5.169834e+000 0.000000e+000
         vertex 5.395131e+000 5.169834e+000 1.000000e+001
         vertex 5.228270e+000 5.002973e+000 1.000000e+001
      endloop
   endfacet
   facet normal 7.274188e-001 -6.861938e-001 0.000000e+000
      outer loop
         vertex 5.395131e+000 5.169834e+000 0.000000e+000
         vertex 5.228270e+000 5.002973e+000 1.000000e+001
         vertex 5.228270e+000 5.002973e+000 0.000000e+000
      endloop
   endfacet
   facet normal 8.020838e-001 -5.972114e-001 0.000000e+000
      outer loop
         vertex 5.228270e+000 5.002973e+000 0.000000e+000
         vertex 5.228270e+000 5.002973e+000 1.000000e+001
         vertex 5.092919e+000 4.809671e+000 1.000000e+001
      endloop
   endfacet
   facet normal 8.355240e-001 -5.494540e-001 0.000000e+000
      outer loop
         vertex 5.228270e+000 5.002973e+000 0.000000e+000
         vertex 5.092919e+000 4.809671e+000 1.000000e+001
         vertex 5.092919e+000 4.809671e+000 0.000000e+000
      endloop
   endfacet
   facet normal 8.936031e-001 -4.488580e-001 0.000000e+000
      outer loop
         vertex 5.092919e+000 4.809671e+000 0.000000e+000
         vertex 5.092919e+000 4.809671e+000 1.000000e+001
         vertex 4.993190e+000 4.595804e+000 1.000000e+001
      endloop
   endfacet
   facet normal 9.182422e-001 -3.960194e-001 0.000000e+000
      outer loop
         vertex 5.092919e+000 4.809671e+000 0.000000e+000
         vertex 4.993190e+000 4.595804e+000 1.000000e+001
         vertex 4.993190e+000 4.595804e+000 0.000000e+000
      endloop
   endfacet
   facet normal 9.579706e-001 -2.868663e-001 0.000000e+000
      outer loop
         vertex 4.993190e+000 4.595804e+000 0.000000e+000
         vertex 4.993190e+000 4.595804e+000 1.000000e+001
         vertex 4.932115e+000 4.367867e+000 1.000000e+001
      endloop
   endfacet
   facet normal 9.730600e-001 -2.305519e-001 0.000000e+000
      outer loop
         vertex 4.993190e+000 4.595804e+000 0.000000e+000
         vertex 4.932115e+000 4.367867e+000 1.000000e+001
         vertex 4.932115e+000 4.367867e+000 0.000000e+000
      endloop
   endfacet
   facet normal 9.932307e-001 -1.161583e-001 0.000000e+000
      outer loop
         vertex 4.932115e+000 4.367867e+000 0.000000e+000
         vertex 4.932115e+000 4.367867e+000 1.000000e+001
         vertex 4.911548e+000 4.132788e+000 1.000000e+001
      endloop
   endfacet
   facet normal 9.983119e-001 -5.807913e-002 0.000000e+000
      outer loop
         vertex 4.932115e+000 4.367867e+000 0.000000e+000
         vertex 4.911548e+000 4.132788e+000 1.000000e+001
         vertex 4.911548e+000 4.132788e+000 0.000000e+000
      endloop
   endfacet
   facet normal 9.983119e-001 5.807913e-002 0.000000e+000
      outer loop
         vertex 4.911548e+000 4.132788e+000 0.000000e+000
         vertex 4.911548e+000 4.132788e+000 1.000000e+001
         vertex 4.932115e+000 3.897709e+000 1.000000e+001
      endloop
   endfacet
   facet normal 9.932307e-001 1.161583e-001 0.000000e+000
      outer loop
         vertex 4.911548e+000 4.132788e+000 0.000000e+000
         vertex 4.932115e+000 3.897709e+000 1.000000e+001
         vertex 4.932115e+000 3.897709e+000 0.000000e+000
      endloop
   endfacet
   facet normal 9.730600e-001 2.305519e-001 0.000000e+000
      outer loop
         vertex 4.932115e+000 3.897709e+000 0.000000e+000
         vertex 4.932115e+000 3.897709e+000 1.000000e+001
         vertex 4.993190e+000 3.669772e+000 1.000000e+001
      endloop
   endfacet
   facet normal 9.579706e-001 2.868663e-001 0.000000e+000
      outer loop
         vertex 4.932115e+000 3.897709e+000 0.000000e+000
         vertex 4.993190e+000 3.669772e+000 1.000000e+001
         vertex 4.993190e+000 3.669772e+000 0.000000e+000
      endloop
   endfacet
   facet normal 9.182422e-001 3.960194e-001 0.000000e+000
      outer loop
         vertex 4.993190e+000 3.669772e+000 0.000000e+000
         vertex 4.993190e+000 3.669772e+000 1.000000e+001
         vertex 5.092919e+000 3.455904e+000 1.000000e+001
      endloop
   endfacet
   facet normal 8.936031e-001 4.488580e-001 0.000000e+000
      outer loop
         vertex 4.993190e+000 3.669772e+000 0.000000e+000
         vertex 5.092919e+000 3.455904e+000 1.000000e+001
         vertex 5.092919e+000 3.455904e+000 0.000000e+000
      endloop
   endfacet
   facet normal 8.355240e-001 5.494540e-001 0.000000e+000
      outer loop
         vertex 5.092919e+000 3.455904e+000 0.000000e+000
         vertex 5.092919e+000 3.455904e+000 1.000000e+001
         vertex 5.228270e+000 3.262603e+000 1.000000e+001
      endloop
   endfacet
   facet normal 8.020838e-001 5.972114e-001 0.000000e+000
      outer loop
         vertex 5.092919e+000 3.455904e+000 0.000000e+000
         vertex 5.228270e+000 3.262603e+000 1.000000e+001
         vertex 5.228270e+000 3.262603e+000 0.000000e+000
      endloop
   endfacet
   facet normal 7.274188e-001 6.861938e-001 0.000000e+000
      outer loop
         vertex 5.228270e+000 3.262603e+000 0.000000e+000
         vertex 5.228270e+000 3.262603e+000 1.000000e+001
         vertex 5.395131e+000 3.095742e+000 1.000000e+001
      endloop
   endfacet
   facet normal 6.861938e-001 7.274188e-001 0.000000e+000
      outer loop
         vertex 5.228270e+000 3.262603e+000 0.000000e+000
         vertex 5.395131e+000 3.095742e+000 1.000000e+001
         vertex 5.395131e+000 3.095742e+000 0.000000e+000
      endloop
   endfacet
   facet normal 5.972114e-001 8.020838e-001 0.000000e+000
      outer loop
         vertex 5.395131e+000 3.095742e+000 0.000000e+000
         vertex 5.395131e+000 3.095742e+000 1.000000e+001
         vertex 5.588432e+000 2.960391e+000 1.000000e+001
      endloop
   endfacet
   facet normal 5.494540e-001 8.355240e-001 0.000000e+000
      outer loop
         vertex 5.395131e+000 3.095742e+000 0.000000e+000
         vertex 5.588432e+000 2.960391e+000 1.000000e+001
         vertex 5.588432e+000 2.960391e+000 0.000000e+000
      endloop
   endfacet
   facet normal 4.488580e-001 8.936031e-001 0.000000e+000
      outer loop
         vertex 5.588432e+000 2.960391e+000 0.000000e+000
         vertex 5.588432e+000 2.960391e+000 1.000000e+001
         vertex 5.802300e+000 2.860662e+000 1.000000e+001
      endloop
   endfacet
   facet normal 3.960194e-001 9.182422e-001 0.000000e+000
      outer loop
         vertex 5.588432e+000 2.960391e+000 0.000000e+000
         vertex 5.802300e+000 2.860662e+000 1.000000e+001
         vertex 5.802300e+000 2.860662e+000 0.000000e+000
      endloop
   endfacet
   facet normal 2.868663e-001 9.579706e-001 0.000000e+000
      outer loop
         vertex 5.802300e+000 2.860662e+000 0.000000e+000
         vertex 5.802300e+000 2.860662e+000 1.000000e+001
         vertex 6.030236e+000 2.799587e+000 1.000000e+001
      endloop
   endfacet
   facet normal 2.305519e-001 9.730600e-001 0.000000e+000
      outer loop
         vertex 5.802300e+000 2.860662e+000 0.000000e+000
         vertex 6.030236e+000 2.799587e+000 1.000000e+001
         vertex 6.030236e+000 2.799587e+000 0.000000e+000
      endloop
   endfacet
   facet normal 1.161583e-001 9.932307e-001 0.000000e+000
      outer loop
         vertex 6.030236e+000 2.799587e+000 0.000000e+000
         vertex 6.030236e+000 2.799587e+000 1.000000e+001
         vertex 6.265316e+000 2.779021e+000 1.000000e+001
      endloop
   endfacet
   facet normal 5.807913e-002 9.983119e-001 0.000000e+000
      outer loop
         vertex 6.030236e+000 2.799587e+000 0.000000e+000
         vertex 6.265316e+000 2.779021e+000 1.000000e+001
         vertex 6.265316e+000 2.779021e+000 0.000000e+000
      endloop
   endfacet
   facet normal -5.807913e-002 9.983119e-001 0.000000e+000
      outer loop
         vertex 6.265316e+000 2.779021e+000 0.000000e+000
         vertex 6.265316e+000 2.779021e+000 1.000000e+001
         vertex 6.500395e+000 2.799587e+000 1.000000e+001
      endloop
   endfacet
   facet normal -1.161583e-001 9.932307e-001 0.000000e+000
      outer loop
         vertex 6.265316e+000 2.779021e+000 0.000000e+000
         vertex 6.500395e+000 2.799587e+000 1.000000e+001
         vertex 6.500395e+000 2.799587e+000 0.000000e+000
      endloop
   endfacet
   facet normal -2.305519e-001 9.730600e-001 0.000000e+000
      outer loop
         vertex 6.500395e+000 2.799587e+000 0.000000e+000
         vertex 6.500395e+000 2.799587e+000 1.000000e+001
         vertex 6.728332e+000 2.860662e+000 1.000000e+001
      endloop
   endfacet
   facet normal -2.868663e-001 9.579706e-001 0.000000e+000
      outer loop
         vertex 6.500395e+000 2.799587e+000 0.000000e+000
         vertex 6.728332e+000 2.860662e+000 1.000000e+001
         vertex 6.728332e+000 2.860662e+000 0.000000e+000
      endloop
   endfacet
   facet normal -3.960194e-001 9.182422e-001 0.000000e+000
      outer loop
         vertex 6.728332e+000 2.860662e+000 0.000000e+000
         vertex 6.728332e+000 2.860662e+000 1.000000e+001
         vertex 6.942200e+000 2.960391e+000 1.000000e+001
      endloop
   endfacet
   facet normal -4.488580e-001 8.936031e-001 0.000000e+000
      outer loop
         vertex 6.728332e+000 2.860662e+000 0.000000e+000
         vertex 6.942200e+000 2.960391e+000 1.000000e+001
         vertex 6.942200e+000 2.960391e+000 0.000000e+000
      endloop
   endfacet
   facet normal -5.494540e-001 8.355240e-001 0.000000e+000
      outer loop
         vertex 6.942200e+000 2.960391e+000 0.000000e+000
         vertex 6.942200e+000 2.960391e+000 1.000000e+001
         vertex 7.135500e+000 3.095742e+000 1.000000e+001
      endloop
   endfacet
   facet normal -5.972114e-001 8.020838e-001 0.000000e+000
      outer loop
         vertex 6.942200e+000 2.960391e+000 0.000000e+000
         vertex 7.135500e+000 3.095742e+000 1.000000e+001
         vertex 7.135500e+000 3.095742e+000 0.000000e+000
      endloop
   endfacet
   facet normal -6.861938e-001 7.274188e-001 0.000000e+000
      outer loop
         vertex 7.135500e+000 3.095742e+000 0.000000e+000
         vertex 7.135500e+000 3.095742e+000 1.000000e+001
         vertex 7.302361e+000 3.262603e+000 1.000000e+001
      endloop
   endfacet
   facet normal -7.274188e-001 6.861938e-001 0.000000e+000
      outer loop
         vertex 7.135500e+000 3.095742e+000 0.000000e+000
         vertex 7.302361e+000 3.262603e+000 1.000000e+001
         vertex 7.302361e+000 3.262603e+000 0.000000e+000
      endloop
   endfacet
   facet normal -8.020838e-001 5.972114e-001 0.000000e+000
      outer loop
         vertex 7.302361e+000 3.262603e+000 0.000000e+000
         vertex 7.302361e+000 3.262603e+000 1.000000e+001
         vertex 7.437713e+000 3.455904e+000 1.000000e+001
      endloop
   endfacet
   facet normal -8.355240e-001 5.494540e-001 0.000000e+000
      outer loop
         vertex 7.302361e+000 3.262603e+000 0.000000e+000
         vertex 7.437713e+000 3.455904e+000 1.000000e+001
         vertex 7.437713e+000 3.455904e+000 0.000000e+000
      endloop
   endfacet
   facet normal -8.936031e-001 4.488580e-001 0.000000e+000
      outer loop
         vertex 7.437713e+000 3.455904e+000 0.000000e+000
         vertex 7.437713e+000 3.455904e+000 1.000000e+001
         vertex 7.537441e+000 3.669772e+000 1.000000e+001
      endloop
   endfacet
   facet normal -9.182422e-001 3.960194e-001 0.000000e+000
      outer loop
         vertex 7.437713e+000 3.455904e+000 0.000000e+000
         vertex 7.537441e+000 3.669772e+000 1.000000e+001
         vertex 7.537441e+000 3.669772e+000 0.000000e+000
      endloop
   endfacet
   facet normal -9.579706e-001 2.868663e-001 0.000000e+000
      outer loop
         vertex 7.537441e+000 3.669772e+000 0.000000e+000
         vertex 7.537441e+000 3.669772e+000 1.000000e+001
         vertex 7.598516e+000 3.897709e+000 1.000000e+001
      endloop
   endfacet
   facet normal -9.730600e-001 2.305519e-001 0.000000e+000
      outer loop
         vertex 7.537441e+000 3.669772e+000 0.000000e+000
         vertex 7.598516e+000 3.897709e+000 1.000000e+001
         vertex 7.598516e+000 3.897709e+000 0.000000e+000
      endloop
   endfacet
   facet normal -9.932307e-001 1.161583e-001 0.000000e+000
      outer loop
         vertex 7.598516e+000 3.897709e+000 0.000000e+000
         vertex 7.598516e+000 3.897709e+000 1.000000e+001
         vertex 7.619083e+000 4.132788e+000 1.000000e+001
      endloop
   endfacet
endsolid