solid 3_690
   facet normal -1.000000e+000 0.000000e+000 0.000000e+000
      outer loop
         vertex 0.000000e+000 1.000000e+001 1.000000e+001
         vertex 0.000000e+000 1.000000e+001 0.000000e+000
         vertex 0.000000e+000 0.000000e+000 1.000000e+001
      endloop
   endfacet
   facet normal -1.000000e+000 0.000000e+000 0.000000e+000
      outer loop
         vertex 0.000000e+000 0.000000e+000 1.000000e+001
         vertex 0.000000e+000 1.000000e+001 0.000000e+000
         vertex 0.000000e+000 0.000000e+000 0.000000e+000
      endloop
   endfacet
   facet normal 0.000000e+000 0.000000e+000 1.000000e+000
      outer loop
         vertex 5.062972e+000 5.182533e+000 1.000000e+001
         vertex 5.222423e+000 5.524476e+000 1.000000e+001
         vertex 0.000000e+000 1.000000e+001 1.000000e+001
      endloop
   endfacet
   facet normal 0.000000e+000 0.000000e+000 1.000000e+000
      outer loop
         vertex 9.130845e+000 3.701949e+000 1.000000e+001
         vertex 8.971394e+000 3.360006e+000 1.000000e+001
         vertex 1.000000e+001 0.000000e+000 1.000000e+001
      endloop
   endfacet
   facet normal 0.000000e+000 0.000000e+000 1.000000e+000
      outer loop
         vertex 1.000000e+001 0.000000e+000 1.000000e+001
         vertex 8.971394e+000 3.360006e+000 1.000000e+001
         vertex 8.754989e+000 3.050946e+000 1.000000e+001
      endloop
   endfacet
   facet normal 0.000000e+000 0.000000e+000 1.000000e+000
      outer loop
         vertex 8.754989e+000 3.050946e+000 1.000000e+001
         vertex 8.488202e+000 2.784161e+000 1.000000e+001
         vertex 1.000000e+001 0.000000e+000 1.000000e+001
      endloop
   endfacet
   facet normal 0.000000e+000 0.000000e+000 1.000000e+000
      outer loop
         vertex 1.000000e+001 0.000000e+000 1.000000e+001
         vertex 8.488202e+000 2.784161e+000 1.000000e+001
         vertex 8.179143e+000 2.567755e+000 1.000000e+001
      endloop
   endfacet
   facet normal 0.000000e+000 0.000000e+000 1.000000e+000
      outer loop
         vertex 1.000000e+001 0.000000e+000 1.000000e+001
         vertex 8.179143e+000 2.567755e+000 1.000000e+001
         vertex 7.837201e+000 2.408304e+000 1.000000e+001
      endloop
   endfacet
   facet normal 0.000000e+000 0.000000e+000 1.000000e+000
      outer loop
         vertex 6.356616e+000 2.408304e+000 1.000000e+001
         vertex 6.014674e+000 2.567755e+000 1.000000e+001
         vertex 0.000000e+000 0.000000e+000 1.000000e+001
      endloop
   endfacet
   facet normal 0.000000e+000 0.000000e+000 1.000000e+000
      outer loop
         vertex 0.000000e+000 0.000000e+000 1.000000e+001
         vertex 6.014674e+000 2.567755e+000 1.000000e+001
         vertex 5.705614e+000 2.784161e+000 1.000000e+001
      endloop
   endfacet
   facet normal 0.000000e+000 0.000000e+000 1.000000e+000
      outer loop
         vertex 5.222423e+000 5.524476e+000 1.000000e+001
         vertex 5.438828e+000 5.833535e+000 1.000000e+001
         vertex 0.000000e+000 1.000000e+001 1.000000e+001
      endloop
   endfacet
   facet normal 0.000000e+000 0.000000e+000 1.000000e+000
      outer loop
         vertex 0.000000e+000 1.000000e+001 1.000000e+001
         vertex 5.438828e+000 5.833535e+000 1.000000e+001
         vertex 5.705614e+000 6.100321e+000 1.000000e+001
      endloop
   endfacet
   facet normal 0.000000e+000 0.000000e+000 1.000000e+000
      outer loop
         vertex 0.000000e+000 1.000000e+001 1.000000e+001
         vertex 5.705614e+000 6.100321e+000 1.000000e+001
         vertex 6.014674e+000 6.316727e+000 1.000000e+001
      endloop
   endfacet
   facet normal 0.000000e+000 0.000000e+000 1.000000e+000
      outer loop
         vertex 7.837201e+000 2.408304e+000 1.000000e+001
         vertex 7.472764e+000 2.310654e+000 1.000000e+001
         vertex 1.000000e+001 0.000000e+000 1.000000e+001
      endloop
   endfacet
   facet normal 0.000000e+000 0.000000e+000 1.000000e+000
      outer loop
         vertex 1.000000e+001 0.000000e+000 1.000000e+001
         vertex 7.472764e+000 2.310654e+000 1.000000e+001
         vertex 7.096909e+000 2.277771e+000 1.000000e+001
      endloop
   endfacet
   facet normal 0.000000e+000 0.000000e+000 1.000000e+000
      outer loop
         vertex 1.000000e+001 0.000000e+000 1.000000e+001
         vertex 7.096909e+000 2.277771e+000 1.000000e+001
         vertex 0.000000e+000 0.000000e+000 1.000000e+001
      endloop
   endfacet
   facet normal 0.000000e+000 0.000000e+000 1.000000e+000
      outer loop
         vertex 0.000000e+000 0.000000e+000 1.000000e+001
         vertex 7.096909e+000 2.277771e+000 1.000000e+001
         vertex 6.721052e+000 2.310654e+000 1.000000e+001
      endloop
   endfacet
   facet normal 0.000000e+000 0.000000e+000 1.000000e+000
      outer loop
         vertex 0.000000e+000 0.000000e+000 1.000000e+001
         vertex 6.721052e+000 2.310654e+000 1.000000e+001
         vertex 6.356616e+000 2.408304e+000 1.000000e+001
      endloop
   endfacet
   facet normal 0.000000e+000 0.000000e+000 1.000000e+000
      outer loop
         vertex 5.705614e+000 2.784161e+000 1.000000e+001
         vertex 5.438828e+000 3.050946e+000 1.000000e+001
         vertex 0.000000e+000 0.000000e+000 1.000000e+001
      endloop
   endfacet
   facet normal 0.000000e+000 0.000000e+000 1.000000e+000
      outer loop
         vertex 0.000000e+000 0.000000e+000 1.000000e+001
         vertex 5.438828e+000 3.050946e+000 1.000000e+001
         vertex 5.222423e+000 3.360006e+000 1.000000e+001
      endloop
   endfacet
   facet normal 0.000000e+000 0.000000e+000 1.000000e+000
      outer loop
         vertex 0.000000e+000 0.000000e+000 1.000000e+001
         vertex 5.222423e+000 3.360006e+000 1.000000e+001
         vertex 5.062972e+000 3.701949e+000 1.000000e+001
      endloop
   endfacet
   facet normal 0.000000e+000 0.000000e+000 1.000000e+000
      outer loop
         vertex 6.014674e+000 6.316727e+000 1.000000e+001
         vertex 6.356616e+000 6.476177e+000 1.000000e+001
         vertex 0.000000e+000 1.000000e+001 1.000000e+001
      endloop
   endfacet
   facet normal 0.000000e+000 0.000000e+000 1.000000e+000
      outer loop
         vertex 0.000000e+000 1.000000e+001 1.000000e+001
         vertex 6.356616e+000 6.476177e+000 1.000000e+001
         vertex 6.721052e+000 6.573827e+000 1.000000e+001
      endloop
   endfacet
   facet normal 0.000000e+000 0.000000e+000 1.000000e+000
      outer loop
         vertex 0.000000e+000 1.000000e+001 1.000000e+001
         vertex 6.721052e+000 6.573827e+000 1.000000e+001
         vertex 1.000000e+001 1.000000e+001 1.000000e+001
      endloop
   endfacet
   facet normal 0.000000e+000 0.000000e+000 1.000000e+000
      outer loop
         vertex 1.000000e+001 1.000000e+001 1.000000e+001
         vertex 6.721052e+000 6.573827e+000 1.000000e+001
         vertex 7.096909e+000 6.606710e+000 1.000000e+001
      endloop
   endfacet
   facet normal 0.000000e+000 0.000000e+000 1.000000e+000
      outer loop
         vertex 1.000000e+001 1.000000e+001 1.000000e+001
         vertex 7.096909e+000 6.606710e+000 1.000000e+001
         vertex 7.472764e+000 6.573827e+000 1.000000e+001
      endloop
   endfacet
   facet normal 0.000000e+000 0.000000e+000 1.000000e+000
      outer loop
         vertex 7.472764e+000 6.573827e+000 1.000000e+001
         vertex 7.837201e+000 6.476177e+000 1.000000e+001
         vertex 1.000000e+001 1.000000e+001 1.000000e+001
      endloop
   endfacet
   facet normal 0.000000e+000 0.000000e+000 1.000000e+000
      outer loop
         vertex 1.000000e+001 1.000000e+001 1.000000e+001
         vertex 7.837201e+000 6.476177e+000 1.000000e+001
         vertex 8.179143e+000 6.316727e+000 1.000000e+001
      endloop
   endfacet
   facet normal 0.000000e+000 0.000000e+000 1.000000e+000
      outer loop
         vertex 1.000000e+001 1.000000e+001 1.000000e+001
         vertex 8.179143e+000 6.316727e+000 1.000000e+001
         vertex 8.488202e+000 6.100321e+000 1.000000e+001
      endloop
   endfacet
   facet normal 0.000000e+000 0.000000e+000 1.000000e+000
      outer loop
         vertex 8.488202e+000 6.100321e+000 1.000000e+001
         vertex 8.754989e+000 5.833535e+000 1.000000e+001
         vertex 1.000000e+001 1.000000e+001 1.000000e+001
      endloop
   endfacet
   facet normal 0.000000e+000 0.000000e+000 1.000000e+000
      outer loop
         vertex 1.000000e+001 1.000000e+001 1.000000e+001
         vertex 8.754989e+000 5.833535e+000 1.000000e+001
         vertex 8.971394e+000 5.524476e+000 1.000000e+001
      endloop
   endfacet
   facet normal 0.000000e+000 0.000000e+000 1.000000e+000
      outer loop
         vertex 1.000000e+001 1.000000e+001 1.000000e+001
         vertex 8.971394e+000 5.524476e+000 1.000000e+001
         vertex 9.130845e+000 5.182533e+000 1.000000e+001
      endloop
   endfacet
   facet normal 0.000000e+000 0.000000e+000 1.000000e+000
      outer loop
         vertex 9.130845e+000 5.182533e+000 1.000000e+001
         vertex 9.228495e+000 4.818097e+000 1.000000e+001
         vertex 1.000000e+001 1.000000e+001 1.000000e+001
      endloop
   endfacet
   facet normal 0.000000e+000 0.000000e+000 1.000000e+000
      outer loop
         vertex 1.000000e+001 1.000000e+001 1.000000e+001
         vertex 9.228495e+000 4.818097e+000 1.000000e+001
         vertex 9.261378e+000 4.442241e+000 1.000000e+001
      endloop
   endfacet
   facet normal 0.000000e+000 0.000000e+000 1.000000e+000
      outer loop
         vertex 1.000000e+001 1.000000e+001 1.000000e+001
         vertex 9.261378e+000 4.442241e+000 1.000000e+001
         vertex 1.000000e+001 0.000000e+000 1.000000e+001
      endloop
   endfacet
   facet normal 0.000000e+000 0.000000e+000 1.000000e+000
      outer loop
         vertex 1.000000e+001 0.000000e+000 1.000000e+001
         vertex 9.261378e+000 4.442241e+000 1.000000e+001
         vertex 9.228495e+000 4.066384e+000 1.000000e+001
      endloop
   endfacet
   facet normal 0.000000e+000 0.000000e+000 1.000000e+000
      outer loop
         vertex 1.000000e+001 0.000000e+000 1.000000e+001
         vertex 9.228495e+000 4.066384e+000 1.000000e+001
         vertex 9.130845e+000 3.701949e+000 1.000000e+001
      endloop
   endfacet
   facet normal 0.000000e+000 0.000000e+000 1.000000e+000
      outer loop
         vertex 5.062972e+000 3.701949e+000 1.000000e+001
         vertex 4.965322e+000 4.066384e+000 1.000000e+001
         vertex 0.000000e+000 0.000000e+000 1.000000e+001
      endloop
   endfacet
   facet normal 0.000000e+000 0.000000e+000 1.000000e+000
      outer loop
         vertex 0.000000e+000 0.000000e+000 1.000000e+001
         vertex 4.965322e+000 4.066384e+000 1.000000e+001
         vertex 4.932439e+000 4.442241e+000 1.000000e+001
      endloop
   endfacet
   facet normal 0.000000e+000 0.000000e+000 1.000000e+000
      outer loop
         vertex 0.000000e+000 0.000000e+000 1.000000e+001
         vertex 4.932439e+000 4.442241e+000 1.000000e+001
         vertex 0.000000e+000 1.000000e+001 1.000000e+001
      endloop
   endfacet
   facet normal 0.000000e+000 0.000000e+000 1.000000e+000
      outer loop
         vertex 0.000000e+000 1.000000e+001 1.000000e+001
         vertex 4.932439e+000 4.442241e+000 1.000000e+001
         vertex 4.965322e+000 4.818097e+000 1.000000e+001
      endloop
   endfacet
   facet normal 0.000000e+000 0.000000e+000 1.000000e+000
      outer loop
         vertex 0.000000e+000 1.000000e+001 1.000000e+001
         vertex 4.965322e+000 4.818097e+000 1.000000e+001
         vertex 5.062972e+000 5.182533e+000 1.000000e+001
      endloop
   endfacet
   facet normal 1.000000e+000 0.000000e+000 0.000000e+000
      outer loop
         vertex 1.000000e+001 1.000000e+001 0.000000e+000
         vertex 1.000000e+001 1.000000e+001 1.000000e+001
         vertex 1.000000e+001 0.000000e+000 0.000000e+000
      endloop
   endfacet
   facet normal 1.000000e+000 0.000000e+000 0.000000e+000
      outer loop
         vertex 1.000000e+001 0.000000e+000 0.000000e+000
         vertex 1.000000e+001 1.000000e+001 1.000000e+001
         vertex 1.000000e+001 0.000000e+000 1.000000e+001
      endloop
   endfacet
   facet normal 0.000000e+000 0.000000e+000 -1.000000e+000
      outer loop
         vertex 4.965322e+000 4.066384e+000 0.000000e+000
         vertex 5.062972e+000 3.701949e+000 0.000000e+000
         vertex 0.000000e+000 0.000000e+000 0.000000e+000
      endloop
   endfacet
   facet normal 0.000000e+000 0.000000e+000 -1.000000e+000
      outer loop
         vertex 0.000000e+000 0.000000e+000 0.000000e+000
         vertex 5.062972e+000 3.701949e+000 0.000000e+000
         vertex 5.222423e+000 3.360006e+000 0.000000e+000
      endloop
   endfacet
   facet normal 0.000000e+000 0.000000e+000 -1.000000e+000
      outer loop
         vertex 5.222423e+000 3.360006e+000 0.000000e+000
         vertex 5.438828e+000 3.050946e+000 0.000000e+000
         vertex 0.000000e+000 0.000000e+000 0.000000e+000
      endloop
   endfacet
   facet normal 0.000000e+000 0.000000e+000 -1.000000e+000
      outer loop
         vertex 0.000000e+000 0.000000e+000 0.000000e+000
         vertex 5.438828e+000 3.050946e+000 0.000000e+000
         vertex 5.705614e+000 2.784161e+000 0.000000e+000
      endloop
   endfacet
   facet normal 0.000000e+000 0.000000e+000 -1.000000e+000
      outer loop
         vertex 0.000000e+000 0.000000e+000 0.000000e+000
         vertex 5.705614e+000 2.784161e+000 0.000000e+000
         vertex 6.014674e+000 2.567755e+000 0.000000e+000
      endloop
   endfacet
   facet normal 0.000000e+000 0.000000e+000 -1.000000e+000
      outer loop
         vertex 6.356616e+000 6.476177e+000 0.000000e+000
         vertex 6.014674e+000 6.316727e+000 0.000000e+000
         vertex 0.000000e+000 1.000000e+001 0.000000e+000
      endloop
   endfacet
   facet normal 0.000000e+000 0.000000e+000 -1.000000e+000
      outer loop
         vertex 7.472764e+000 2.310654e+000 0.000000e+000
         vertex 7.837201e+000 2.408304e+000 0.000000e+000
         vertex 1.000000e+001 0.000000e+000 0.000000e+000
      endloop
   endfacet
   facet normal 0.000000e+000 0.000000e+000 -1.000000e+000
      outer loop
         vertex 1.000000e+001 0.000000e+000 0.000000e+000
         vertex 7.837201e+000 2.408304e+000 0.000000e+000
         vertex 8.179143e+000 2.567755e+000 0.000000e+000
      endloop
   endfacet
   facet normal 0.000000e+000 0.000000e+000 -1.000000e+000
      outer loop
         vertex 1.000000e+001 0.000000e+000 0.000000e+000
         vertex 8.179143e+000 2.567755e+000 0.000000e+000
         vertex 8.488202e+000 2.784161e+000 0.000000e+000
      endloop
   endfacet
   facet normal 0.000000e+000 0.000000e+000 -1.000000e+000
      outer loop
         vertex 8.488202e+000 2.784161e+000 0.000000e+000
         vertex 8.754989e+000 3.050946e+000 0.000000e+000
         vertex 1.000000e+001 0.000000e+000 0.000000e+000
      endloop
   endfacet
   facet normal 0.000000e+000 0.000000e+000 -1.000000e+000
      outer loop
         vertex 1.000000e+001 0.000000e+000 0.000000e+000
         vertex 8.754989e+000 3.050946e+000 0.000000e+000
         vertex 8.971394e+000 3.360006e+000 0.000000e+000
      endloop
   endfacet
   facet normal 0.000000e+000 0.000000e+000 -1.000000e+000
      outer loop
         vertex 1.000000e+001 0.000000e+000 0.000000e+000
         vertex 8.971394e+000 3.360006e+000 0.000000e+000
         vertex 9.130845e+000 3.701949e+000 0.000000e+000
      endloop
   endfacet
   facet normal 0.000000e+000 0.000000e+000 -1.000000e+000
      outer loop
         vertex 6.014674e+000 2.567755e+000 0.000000e+000
         vertex 6.356616e+000 2.408304e+000 0.000000e+000
         vertex 0.000000e+000 0.000000e+000 0.000000e+000
      endloop
   endfacet
   facet normal 0.000000e+000 0.000000e+000 -1.000000e+000
      outer loop
         vertex 0.000000e+000 0.000000e+000 0.000000e+000
         vertex 6.356616e+000 2.408304e+000 0.000000e+000
         vertex 6.721052e+000 2.310654e+000 0.000000e+000
      endloop
   endfacet
   facet normal 0.000000e+000 0.000000e+000 -1.000000e+000
      outer loop
         vertex 0.000000e+000 0.000000e+000 0.000000e+000
         vertex 6.721052e+000 2.310654e+000 0.000000e+000
         vertex 1.000000e+001 0.000000e+000 0.000000e+000
      endloop
   endfacet
   facet normal 0.000000e+000 0.000000e+000 -1.000000e+000
      outer loop
         vertex 1.000000e+001 0.000000e+000 0.000000e+000
         vertex 6.721052e+000 2.310654e+000 0.000000e+000
         vertex 7.096909e+000 2.277771e+000 0.000000e+000
      endloop
   endfacet
   facet normal 0.000000e+000 0.000000e+000 -1.000000e+000
      outer loop
         vertex 1.000000e+001 0.000000e+000 0.000000e+000
         vertex 7.096909e+000 2.277771e+000 0.000000e+000
         vertex 7.472764e+000 2.310654e+000 0.000000e+000
      endloop
   endfacet
   facet normal 0.000000e+000 0.000000e+000 -1.000000e+000
      outer loop
         vertex 9.130845e+000 5.182533e+000 0.000000e+000
         vertex 8.971394e+000 5.524476e+000 0.000000e+000
         vertex 1.000000e+001 1.000000e+001 0.000000e+000
      endloop
   endfacet
   facet normal 0.000000e+000 0.000000e+000 -1.000000e+000
      outer loop
         vertex 6.014674e+000 6.316727e+000 0.000000e+000
         vertex 5.705614e+000 6.100321e+000 0.000000e+000
         vertex 0.000000e+000 1.000000e+001 0.000000e+000
      endloop
   endfacet
   facet normal 0.000000e+000 0.000000e+000 -1.000000e+000
      outer loop
         vertex 0.000000e+000 1.000000e+001 0.000000e+000
         vertex 5.705614e+000 6.100321e+000 0.000000e+000
         vertex 5.438828e+000 5.833535e+000 0.000000e+000
      endloop
   endfacet
   facet normal 0.000000e+000 0.000000e+000 -1.000000e+000
      outer loop
         vertex 0.000000e+000 1.000000e+001 0.000000e+000
         vertex 5.438828e+000 5.833535e+000 0.000000e+000
         vertex 5.222423e+000 5.524476e+000 0.000000e+000
      endloop
   endfacet
   facet normal 0.000000e+000 0.000000e+000 -1.000000e+000
      outer loop
         vertex 5.222423e+000 5.524476e+000 0.000000e+000
         vertex 5.062972e+000 5.182533e+000 0.000000e+000
         vertex 0.000000e+000 1.000000e+001 0.000000e+000
      endloop
   endfacet
   facet normal 0.000000e+000 0.000000e+000 -1.000000e+000
      outer loop
         vertex 0.000000e+000 1.000000e+001 0.000000e+000
         vertex 5.062972e+000 5.182533e+000 0.000000e+000
         vertex 4.965322e+000 4.818097e+000 0.000000e+000
      endloop
   endfacet
   facet normal 0.000000e+000 0.000000e+000 -1.000000e+000
      outer loop
         vertex 0.000000e+000 1.000000e+001 0.000000e+000
         vertex 4.965322e+000 4.818097e+000 0.000000e+000
         vertex 0.000000e+000 0.000000e+000 0.000000e+000
      endloop
   endfacet
   facet normal 0.000000e+000 0.000000e+000 -1.000000e+000
      outer loop
         vertex 0.000000e+000 0.000000e+000 0.000000e+000
         vertex 4.965322e+000 4.818097e+000 0.000000e+000
         vertex 4.932439e+000 4.442241e+000 0.000000e+000
      endloop
   endfacet
   facet normal 0.000000e+000 0.000000e+000 -1.000000e+000
      outer loop
         vertex 0.000000e+000 0.000000e+000 0.000000e+000
         vertex 4.932439e+000 4.442241e+000 0.000000e+000
         vertex 4.965322e+000 4.066384e+000 0.000000e+000
      endloop
   endfacet
   facet normal 0.000000e+000 0.000000e+000 -1.000000e+000
      outer loop
         vertex 9.130845e+000 3.701949e+000 0.000000e+000
         vertex 9.228495e+000 4.066384e+000 0.000000e+000
         vertex 1.000000e+001 0.000000e+000 0.000000e+000
      endloop
   endfacet
   facet normal 0.000000e+000 0.000000e+000 -1.000000e+000
      outer loop
         vertex 1.000000e+001 0.000000e+000 0.000000e+000
         vertex 9.228495e+000 4.066384e+000 0.000000e+000
         vertex 9.261378e+000 4.442241e+000 0.000000e+000
      endloop
   endfacet
   facet normal 0.000000e+000 0.000000e+000 -1.000000e+000
      outer loop
         vertex 1.000000e+001 0.000000e+000 0.000000e+000
         vertex 9.261378e+000 4.442241e+000 0.000000e+000
         vertex 1.000000e+001 1.000000e+001 0.000000e+000
      endloop
   endfacet
   facet normal 0.000000e+000 0.000000e+000 -1.000000e+000
      outer loop
         vertex 1.000000e+001 1.000000e+001 0.000000e+000
         vertex 9.261378e+000 4.442241e+000 0.000000e+000
         vertex 9.228495e+000 4.818097e+000 0.000000e+000
      endloop
   endfacet
   facet normal 0.000000e+000 0.000000e+000 -1.000000e+000
      outer loop
         vertex 1.000000e+001 1.000000e+001 0.000000e+000
         vertex 9.228495e+000 4.818097e+000 0.000000e+000
         vertex 9.130845e+000 5.182533e+000 0.000000e+000
      endloop
   endfacet
   facet normal 0.000000e+000 0.000000e+000 -1.000000e+000
      outer loop
         vertex 1.000000e+001 1.000000e+001 0.000000e+000
         vertex 7.096909e+000 6.606710e+000 0.000000e+000
         vertex 0.000000e+000 1.000000e+001 0.000000e+000
      endloop
   endfacet
   facet normal 0.000000e+000 0.000000e+000 -1.000000e+000
      outer loop
         vertex 0.000000e+000 1.000000e+001 0.000000e+000
         vertex 7.096909e+000 6.606710e+000 0.000000e+000
         vertex 6.721052e+000 6.573827e+000 0.000000e+000
      endloop
   endfacet
   facet normal 0.000000e+000 0.000000e+000 -1.000000e+000
      outer loop
         vertex 0.000000e+000 1.000000e+001 0.000000e+000
         vertex 6.721052e+000 6.573827e+000 0.000000e+000
         vertex 6.356616e+000 6.476177e+000 0.000000e+000
      endloop
   endfacet
   facet normal 0.000000e+000 0.000000e+000 -1.000000e+000
      outer loop
         vertex 8.971394e+000 5.524476e+000 0.000000e+000
         vertex 8.754989e+000 5.833535e+000 0.000000e+000
         vertex 1.000000e+001 1.000000e+001 0.000000e+000
      endloop
   endfacet
   facet normal 0.000000e+000 0.000000e+000 -1.000000e+000
      outer loop
         vertex 1.000000e+001 1.000000e+001 0.000000e+000
         vertex 8.754989e+000 5.833535e+000 0.000000e+000
         vertex 8.488202e+000 6.100321e+000 0.000000e+000
      endloop
   endfacet
   facet normal 0.000000e+000 0.000000e+000 -1.000000e+000
      outer loop
         vertex 1.000000e+001 1.000000e+001 0.000000e+000
         vertex 8.488202e+000 6.100321e+000 0.000000e+000
         vertex 8.179143e+000 6.316727e+000 0.000000e+000
      endloop
   endfacet
   facet normal 0.000000e+000 0.000000e+000 -1.000000e+000
      outer loop
         vertex 8.179143e+000 6.316727e+000 0.000000e+000
         vertex 7.837201e+000 6.476177e+000 0.000000e+000
         vertex 1.000000e+001 1.000000e+001 0.000000e+000
      endloop
   endfacet
   facet normal 0.000000e+000 0.000000e+000 -1.000000e+000
      outer loop
         vertex 1.000000e+001 1.000000e+001 0.000000e+000
         vertex 7.837201e+000 6.476177e+000 0.000000e+000
         vertex 7.472764e+000 6.573827e+000 0.000000e+000
      endloop
   endfacet
   facet normal 0.000000e+000 0.000000e+000 -1.000000e+000
      outer loop
         vertex 1.000000e+001 1.000000e+001 0.000000e+000
         vertex 7.472764e+000 6.573827e+000 0.000000e+000
         vertex 7.096909e+000 6.606710e+000 0.000000e+000
      endloop
   endfacet
   facet normal 0.000000e+000 1.000000e+000 0.000000e+000
      outer loop
         vertex 1.000000e+001 1.000000e+001 1.000000e+001
         vertex 1.000000e+001 1.000000e+001 0.000000e+000
         vertex 0.000000e+000 1.000000e+001 1.000000e+001
      endloop
   endfacet
   facet normal 0.000000e+000 1.000000e+000 0.000000e+000
      outer loop
         vertex 0.000000e+000 1.000000e+001 1.000000e+001
         vertex 1.000000e+001 1.000000e+001 0.000000e+000
         vertex 0.000000e+000 1.000000e+001 0.000000e+000
      endloop
   endfacet
   facet normal 0.000000e+000 -1.000000e+000 0.000000e+000
      outer loop
         vertex 1.000000e+001 0.000000e+000 0.000000e+000
         vertex 1.000000e+001 0.000000e+000 1.000000e+001
         vertex 0.000000e+000 0.000000e+000 0.000000e+000
      endloop
   endfacet
   facet normal 0.000000e+000 -1.000000e+000 0.000000e+000
      outer loop
         vertex 0.000000e+000 0.000000e+000 0.000000e+000
         vertex 1.000000e+001 0.000000e+000 1.000000e+001
         vertex 0.000000e+000 0.000000e+000 1.000000e+001
      endloop
   endfacet
   facet normal -9.983119e-001 5.807913e-002 0.000000e+000
      outer loop
         vertex 9.228495e+000 4.066384e+000 0.000000e+000
         vertex 9.261378e+000 4.442241e+000 1.000000e+001
         vertex 9.261378e+000 4.442241e+000 0.000000e+000
      endloop
   endfacet
   facet normal -9.983119e-001 -5.807913e-002 0.000000e+000
      outer loop
         vertex 9.261378e+000 4.442241e+000 0.000000e+000
         vertex 9.261378e+000 4.442241e+000 1.000000e+001
         vertex 9.228495e+000 4.818097e+000 1.000000e+001
      endloop
   endfacet
   facet normal -9.932307e-001 -1.161583e-001 0.000000e+000
      outer loop
         vertex 9.261378e+000 4.442241e+000 0.000000e+000
         vertex 9.228495e+000 4.818097e+000 1.000000e+001
         vertex 9.228495e+000 4.818097e+000 0.000000e+000
      endloop
   endfacet
   facet normal -9.730600e-001 -2.305519e-001 0.000000e+000
      outer loop
         vertex 9.228495e+000 4.818097e+000 0.000000e+000
         vertex 9.228495e+000 4.818097e+000 1.000000e+001
         vertex 9.130845e+000 5.182533e+000 1.000000e+001
      endloop
   endfacet
   facet normal -9.579706e-001 -2.868663e-001 0.000000e+000
      outer loop
         vertex 9.228495e+000 4.818097e+000 0.000000e+000
         vertex 9.130845e+000 5.182533e+000 1.000000e+001
         vertex 9.130845e+000 5.182533e+000 0.000000e+000
      endloop
   endfacet
   facet normal -9.182422e-001 -3.960194e-001 0.000000e+000
      outer loop
         vertex 9.130845e+000 5.182533e+000 0.000000e+000
         vertex 9.130845e+000 5.182533e+000 1.000000e+001
         vertex 8.971394e+000 5.524476e+000 1.000000e+001
      endloop
   endfacet
   facet normal -8.936031e-001 -4.488580e-001 0.000000e+000
      outer loop
         vertex 9.130845e+000 5.182533e+000 0.000000e+000
         vertex 8.971394e+000 5.524476e+000 1.000000e+001
         vertex 8.971394e+000 5.524476e+000 0.000000e+000
      endloop
   endfacet
   facet normal -8.355240e-001 -5.494540e-001 0.000000e+000
      outer loop
         vertex 8.971394e+000 5.524476e+000 0.000000e+000
         vertex 8.971394e+000 5.524476e+000 1.000000e+001
         vertex 8.754989e+000 5.833535e+000 1.000000e+001
      endloop
   endfacet
   facet normal -8.020838e-001 -5.972114e-001 0.000000e+000
      outer loop
         vertex 8.971394e+000 5.524476e+000 0.000000e+000
         vertex 8.754989e+000 5.833535e+000 1.000000e+001
         vertex 8.754989e+000 5.833535e+000 0.000000e+000
      endloop
   endfacet
   facet normal -7.274188e-001 -6.861938e-001 0.000000e+000
      outer loop
         vertex 8.754989e+000 5.833535e+000 0.000000e+000
         vertex 8.754989e+000 5.833535e+000 1.000000e+001
         vertex 8.488202e+000 6.100321e+000 1.000000e+001
      endloop
   endfacet
   facet normal -6.861938e-001 -7.274188e-001 0.000000e+000
      outer loop
         vertex 8.754989e+000 5.833535e+000 0.000000e+000
         vertex 8.488202e+000 6.100321e+000 1.000000e+001
         vertex 8.488202e+000 6.100321e+000 0.000000e+000
      endloop
   endfacet
   facet normal -5.972114e-001 -8.020838e-001 0.000000e+000
      outer loop
         vertex 8.488202e+000 6.100321e+000 0.000000e+000
         vertex 8.488202e+000 6.100321e+000 1.000000e+001
         vertex 8.179143e+000 6.316727e+000 1.000000e+001
      endloop
   endfacet
   facet normal -5.494540e-001 -8.355240e-001 0.000000e+000
      outer loop
         vertex 8.488202e+000 6.100321e+000 0.000000e+000
         vertex 8.179143e+000 6.316727e+000 1.000000e+001
         vertex 8.179143e+000 6.316727e+000 0.000000e+000
      endloop
   endfacet
   facet normal -4.488580e-001 -8.936031e-001 0.000000e+000
      outer loop
         vertex 8.179143e+000 6.316727e+000 0.000000e+000
         vertex 8.179143e+000 6.316727e+000 1.000000e+001
         vertex 7.837201e+000 6.476177e+000 1.000000e+001
      endloop
   endfacet
   facet normal -3.960194e-001 -9.182422e-001 0.000000e+000
      outer loop
         vertex 8.179143e+000 6.316727e+000 0.000000e+000
         vertex 7.837201e+000 6.476177e+000 1.000000e+001
         vertex 7.837201e+000 6.476177e+000 0.000000e+000
      endloop
   endfacet
   facet normal -2.868663e-001 -9.579706e-001 0.000000e+000
      outer loop
         vertex 7.837201e+000 6.476177e+000 0.000000e+000
         vertex 7.837201e+000 6.476177e+000 1.000000e+001
         vertex 7.472764e+000 6.573827e+000 1.000000e+001
      endloop
   endfacet
   facet normal -2.305519e-001 -9.730600e-001 0.000000e+000
      outer loop
         vertex 7.837201e+000 6.476177e+000 0.000000e+000
         vertex 7.472764e+000 6.573827e+000 1.000000e+001
         vertex 7.472764e+000 6.573827e+000 0.000000e+000
      endloop
   endfacet
   facet normal -1.161583e-001 -9.932307e-001 0.000000e+000
      outer loop
         vertex 7.472764e+000 6.573827e+000 0.000000e+000
         vertex 7.472764e+000 6.573827e+000 1.000000e+001
         vertex 7.096909e+000 6.606710e+000 1.000000e+001
      endloop
   endfacet
   facet normal -5.807913e-002 -9.983119e-001 0.000000e+000
      outer loop
         vertex 7.472764e+000 6.573827e+000 0.000000e+000
         vertex 7.096909e+000 6.606710e+000 1.000000e+001
         vertex 7.096909e+000 6.606710e+000 0.000000e+000
      endloop
   endfacet
   facet normal 5.807913e-002 -9.983119e-001 0.000000e+000
      outer loop
         vertex 7.096909e+000 6.606710e+000 0.000000e+000
         vertex 7.096909e+000 6.606710e+000 1.000000e+001
         vertex 6.721052e+000 6.573827e+000 1.000000e+001
      endloop
   endfacet
   facet normal 1.161583e-001 -9.932307e-001 0.000000e+000
      outer loop
         vertex 7.096909e+000 6.606710e+000 0.000000e+000
         vertex 6.721052e+000 6.573827e+000 1.000000e+001
         vertex 6.721052e+000 6.573827e+000 0.000000e+000
      endloop
   endfacet
   facet normal 2.305519e-001 -9.730600e-001 0.000000e+000
      outer loop
         vertex 6.721052e+000 6.573827e+000 0.000000e+000
         vertex 6.721052e+000 6.573827e+000 1.000000e+001
         vertex 6.356616e+000 6.476177e+000 1.000000e+001
      endloop
   endfacet
   facet normal 2.868663e-001 -9.579706e-001 0.000000e+000
      outer loop
         vertex 6.721052e+000 6.573827e+000 0.000000e+000
         vertex 6.356616e+000 6.476177e+000 1.000000e+001
         vertex 6.356616e+000 6.476177e+000 0.000000e+000
      endloop
   endfacet
   facet normal 3.960194e-001 -9.182422e-001 0.000000e+000
      outer loop
         vertex 6.356616e+000 6.476177e+000 0.000000e+000
         vertex 6.356616e+000 6.476177e+000 1.000000e+001
         vertex 6.014674e+000 6.316727e+000 1.000000e+001
      endloop
   endfacet
   facet normal 4.488580e-001 -8.936031e-001 0.000000e+000
      outer loop
         vertex 6.356616e+000 6.476177e+000 0.000000e+000
         vertex 6.014674e+000 6.316727e+000 1.000000e+001
         vertex 6.014674e+000 6.316727e+000 0.000000e+000
      endloop
   endfacet
   facet normal 5.494540e-001 -8.355240e-001 0.000000e+000
      outer loop
         vertex 6.014674e+000 6.316727e+000 0.000000e+000
         vertex 6.014674e+000 6.316727e+000 1.000000e+001
         vertex 5.705614e+000 6.100321e+000 1.000000e+001
      endloop
   endfacet
   facet normal 5.972114e-001 -8.020838e-001 0.000000e+000
      outer loop
         vertex 6.014674e+000 6.316727e+000 0.000000e+000
         vertex 5.705614e+000 6.100321e+000 1.000000e+001
         vertex 5.705614e+000 6.100321e+000 0.000000e+000
      endloop
   endfacet
   facet normal 6.861938e-001 -7.274188e-001 0.000000e+000
      outer loop
         vertex 5.705614e+000 6.100321e+000 0.000000e+000
         vertex 5.705614e+000 6.100321e+000 1.000000e+001
         vertex 5.438828e+000 5.833535e+000 1.000000e+001
      endloop
   endfacet
   facet normal 7.274188e-001 -6.861938e-001 0.000000e+000
      outer loop
         vertex 5.705614e+000 6.100321e+000 0.000000e+000
         vertex 5.438828e+000 5.833535e+000 1.000000e+001
         vertex 5.438828e+000 5.833535e+000 0.000000e+000
      endloop
   endfacet
   facet normal 8.020838e-001 -5.972114e-001 0.000000e+000
      outer loop
         vertex 5.438828e+000 5.833535e+000 0.000000e+000
         vertex 5.438828e+000 5.833535e+000 1.000000e+001
         vertex 5.222423e+000 5.524476e+000 1.000000e+001
      endloop
   endfacet
   facet normal 8.355240e-001 -5.494540e-001 0.000000e+000
      outer loop
         vertex 5.438828e+000 5.833535e+000 0.000000e+000
         vertex 5.222423e+000 5.524476e+000 1.000000e+001
         vertex 5.222423e+000 5.524476e+000 0.000000e+000
      endloop
   endfacet
   facet normal 8.936031e-001 -4.488580e-001 0.000000e+000
      outer loop
         vertex 5.222423e+000 5.524476e+000 0.000000e+000
         vertex 5.222423e+000 5.524476e+000 1.000000e+001
         vertex 5.062972e+000 5.182533e+000 1.000000e+001
      endloop
   endfacet
   facet normal 9.182422e-001 -3.960194e-001 0.000000e+000
      outer loop
         vertex 5.222423e+000 5.524476e+000 0.000000e+000
         vertex 5.062972e+000 5.182533e+000 1.000000e+001
         vertex 5.062972e+000 5.182533e+000 0.000000e+000
      endloop
   endfacet
   facet normal 9.579706e-001 -2.868663e-001 0.000000e+000
      outer loop
         vertex 5.062972e+000 5.182533e+000 0.000000e+000
         vertex 5.062972e+000 5.182533e+000 1.000000e+001
         vertex 4.965322e+000 4.818097e+000 1.000000e+001
      endloop
   endfacet
   facet normal 9.730600e-001 -2.305519e-001 0.000000e+000
      outer loop
         vertex 5.062972e+000 5.182533e+000 0.000000e+000
         vertex 4.965322e+000 4.818097e+000 1.000000e+001
         vertex 4.965322e+000 4.818097e+000 0.000000e+000
      endloop
   endfacet
   facet normal 9.932307e-001 -1.161583e-001 0.000000e+000
      outer loop
         vertex 4.965322e+000 4.818097e+000 0.000000e+000
         vertex 4.965322e+000 4.818097e+000 1.000000e+001
         vertex 4.932439e+000 4.442241e+000 1.000000e+001
      endloop
   endfacet
   facet normal 9.983119e-001 -5.807913e-002 0.000000e+000
      outer loop
         vertex 4.965322e+000 4.818097e+000 0.000000e+000
         vertex 4.932439e+000 4.442241e+000 1.000000e+001
         vertex 4.932439e+000 4.442241e+000 0.000000e+000
      endloop
   endfacet
   facet normal 9.983119e-001 5.807913e-002 0.000000e+000
      outer loop
         vertex 4.932439e+000 4.442241e+000 0.000000e+000
         vertex 4.932439e+000 4.442241e+000 1.000000e+001
         vertex 4.965322e+000 4.066384e+000 1.000000e+001
      endloop
   endfacet
   facet normal 9.932307e-001 1.161583e-001 0.000000e+000
      outer loop
         vertex 4.932439e+000 4.442241e+000 0.000000e+000
         vertex 4.965322e+000 4.066384e+000 1.000000e+001
         vertex 4.965322e+000 4.066384e+000 0.000000e+000
      endloop
   endfacet
   facet normal 9.730600e-001 2.305519e-001 0.000000e+000
      outer loop
         vertex 4.965322e+000 4.066384e+000 0.000000e+000
         vertex 4.965322e+000 4.066384e+000 1.000000e+001
         vertex 5.062972e+000 3.701949e+000 1.000000e+001
      endloop
   endfacet
   facet normal 9.579706e-001 2.868663e-001 0.000000e+000
      outer loop
         vertex 4.965322e+000 4.066384e+000 0.000000e+000
         vertex 5.062972e+000 3.701949e+000 1.000000e+001
         vertex 5.062972e+000 3.701949e+000 0.000000e+000
      endloop
   endfacet
   facet normal 9.182422e-001 3.960194e-001 0.000000e+000
      outer loop
         vertex 5.062972e+000 3.701949e+000 0.000000e+000
         vertex 5.062972e+000 3.701949e+000 1.000000e+001
         vertex 5.222423e+000 3.360006e+000 1.000000e+001
      endloop
   endfacet
   facet normal 8.936031e-001 4.488580e-001 0.000000e+000
      outer loop
         vertex 5.062972e+000 3.701949e+000 0.000000e+000
         vertex 5.222423e+000 3.360006e+000 1.000000e+001
         vertex 5.222423e+000 3.360006e+000 0.000000e+000
      endloop
   endfacet
   facet normal 8.355240e-001 5.494540e-001 0.000000e+000
      outer loop
         vertex 5.222423e+000 3.360006e+000 0.000000e+000
         vertex 5.222423e+000 3.360006e+000 1.000000e+001
         vertex 5.438828e+000 3.050946e+000 1.000000e+001
      endloop
   endfacet
   facet normal 8.020838e-001 5.972114e-001 0.000000e+000
      outer loop
         vertex 5.222423e+000 3.360006e+000 0.000000e+000
         vertex 5.438828e+000 3.050946e+000 1.000000e+001
         vertex 5.438828e+000 3.050946e+000 0.000000e+000
      endloop
   endfacet
   facet normal 7.274188e-001 6.861938e-001 0.000000e+000
      outer loop
         vertex 5.438828e+000 3.050946e+000 0.000000e+000
         vertex 5.438828e+000 3.050946e+000 1.000000e+001
         vertex 5.705614e+000 2.784161e+000 1.000000e+001
      endloop
   endfacet
   facet normal 6.861938e-001 7.274188e-001 0.000000e+000
      outer loop
         vertex 5.438828e+000 3.050946e+000 0.000000e+000
         vertex 5.705614e+000 2.784161e+000 1.000000e+001
         vertex 5.705614e+000 2.784161e+000 0.000000e+000
      endloop
   endfacet
   facet normal 5.972114e-001 8.020838e-001 0.000000e+000
      outer loop
         vertex 5.705614e+000 2.784161e+000 0.000000e+000
         vertex 5.705614e+000 2.784161e+000 1.000000e+001
         vertex 6.014674e+000 2.567755e+000 1.000000e+001
      endloop
   endfacet
   facet normal 5.494540e-001 8.355240e-001 0.000000e+000
      outer loop
         vertex 5.705614e+000 2.784161e+000 0.000000e+000
         vertex 6.014674e+000 2.567755e+000 1.000000e+001
         vertex 6.014674e+000 2.567755e+000 0.000000e+000
      endloop
   endfacet
   facet normal 4.488580e-001 8.936031e-001 0.000000e+000
      outer loop
         vertex 6.014674e+000 2.567755e+000 0.000000e+000
         vertex 6.014674e+000 2.567755e+000 1.000000e+001
         vertex 6.356616e+000 2.408304e+000 1.000000e+001
      endloop
   endfacet
   facet normal 3.960194e-001 9.182422e-001 0.000000e+000
      outer loop
         vertex 6.014674e+000 2.567755e+000 0.000000e+000
         vertex 6.356616e+000 2.408304e+000 1.000000e+001
         vertex 6.356616e+000 2.408304e+000 0.000000e+000
      endloop
   endfacet
   facet normal 2.868663e-001 9.579706e-001 0.000000e+000
      outer loop
         vertex 6.356616e+000 2.408304e+000 0.000000e+000
         vertex 6.356616e+000 2.408304e+000 1.000000e+001
         vertex 6.721052e+000 2.310654e+000 1.000000e+001
      endloop
   endfacet
   facet normal 2.305519e-001 9.730600e-001 0.000000e+000
      outer loop
         vertex 6.356616e+000 2.408304e+000 0.000000e+000
         vertex 6.721052e+000 2.310654e+000 1.000000e+001
         vertex 6.721052e+000 2.310654e+000 0.000000e+000
      endloop
   endfacet
   facet normal 1.161583e-001 9.932307e-001 0.000000e+000
      outer loop
         vertex 6.721052e+000 2.310654e+000 0.000000e+000
         vertex 6.721052e+000 2.310654e+000 1.000000e+001
         vertex 7.096909e+000 2.277771e+000 1.000000e+001
      endloop
   endfacet
   facet normal 5.807913e-002 9.983119e-001 0.000000e+000
      outer loop
         vertex 6.721052e+000 2.310654e+000 0.000000e+000
         vertex 7.096909e+000 2.277771e+000 1.000000e+001
         vertex 7.096909e+000 2.277771e+000 0.000000e+000
      endloop
   endfacet
   facet normal -5.807913e-002 9.983119e-001 0.000000e+000
      outer loop
         vertex 7.096909e+000 2.277771e+000 0.000000e+000
         vertex 7.096909e+000 2.277771e+000 1.000000e+001
         vertex 7.472764e+000 2.310654e+000 1.000000e+001
      endloop
   endfacet
   facet normal -1.161583e-001 9.932307e-001 0.000000e+000
      outer loop
         vertex 7.096909e+000 2.277771e+000 0.000000e+000
         vertex 7.472764e+000 2.310654e+000 1.000000e+001
         vertex 7.472764e+000 2.310654e+000 0.000000e+000
      endloop
   endfacet
   facet normal -2.305519e-001 9.730600e-001 0.000000e+000
      outer loop
         vertex 7.472764e+000 2.310654e+000 0.000000e+000
         vertex 7.472764e+000 2.310654e+000 1.000000e+001
         vertex 7.837201e+000 2.408304e+000 1.000000e+001
      endloop
   endfacet
   facet normal -2.868663e-001 9.579706e-001 0.000000e+000
      outer loop
         vertex 7.472764e+000 2.310654e+000 0.000000e+000
         vertex 7.837201e+000 2.408304e+000 1.000000e+001
         vertex 7.837201e+000 2.408304e+000 0.000000e+000
      endloop
   endfacet
   facet normal -3.960194e-001 9.182422e-001 0.000000e+000
      outer loop
         vertex 7.837201e+000 2.408304e+000 0.000000e+000
         vertex 7.837201e+000 2.408304e+000 1.000000e+001
         vertex 8.179143e+000 2.567755e+000 1.000000e+001
      endloop
   endfacet
   facet normal -4.488580e-001 8.936031e-001 0.000000e+000
      outer loop
         vertex 7.837201e+000 2.408304e+000 0.000000e+000
         vertex 8.179143e+000 2.567755e+000 1.000000e+001
         vertex 8.179143e+000 2.567755e+000 0.000000e+000
      endloop
   endfacet
   facet normal -5.494540e-001 8.355240e-001 0.000000e+000
      outer loop
         vertex 8.179143e+000 2.567755e+000 0.000000e+000
         vertex 8.179143e+000 2.567755e+000 1.000000e+001
         vertex 8.488202e+000 2.784161e+000 1.000000e+001
      endloop
   endfacet
   facet normal -5.972114e-001 8.020838e-001 0.000000e+000
      outer loop
         vertex 8.179143e+000 2.567755e+000 0.000000e+000
         vertex 8.488202e+000 2.784161e+000 1.000000e+001
         vertex 8.488202e+000 2.784161e+000 0.000000e+000
      endloop
   endfacet
   facet normal -6.861938e-001 7.274188e-001 0.000000e+000
      outer loop
         vertex 8.488202e+000 2.784161e+000 0.000000e+000
         vertex 8.488202e+000 2.784161e+000 1.000000e+001
         vertex 8.754989e+000 3.050946e+000 1.000000e+001
      endloop
   endfacet
   facet normal -7.274188e-001 6.861938e-001 0.000000e+000
      outer loop
         vertex 8.488202e+000 2.784161e+000 0.000000e+000
         vertex 8.754989e+000 3.050946e+000 1.000000e+001
         vertex 8.754989e+000 3.050946e+000 0.000000e+000
      endloop
   endfacet
   facet normal -8.020838e-001 5.972114e-001 0.000000e+000
      outer loop
         vertex 8.754989e+000 3.050946e+000 0.000000e+000
         vertex 8.754989e+000 3.050946e+000 1.000000e+001
         vertex 8.971394e+000 3.360006e+000 1.000000e+001
      endloop
   endfacet
   facet normal -8.355240e-001 5.494540e-001 0.000000e+000
      outer loop
         vertex 8.754989e+000 3.050946e+000 0.000000e+000
         vertex 8.971394e+000 3.360006e+000 1.000000e+001
         vertex 8.971394e+000 3.360006e+000 0.000000e+000
      endloop
   endfacet
   facet normal -8.936031e-001 4.488580e-001 0.000000e+000
      outer loop
         vertex 8.971394e+000 3.360006e+000 0.000000e+000
         vertex 8.971394e+000 3.360006e+000 1.000000e+001
         vertex 9.130845e+000 3.701949e+000 1.000000e+001
      endloop
   endfacet
   facet normal -9.182422e-001 3.960194e-001 0.000000e+000
      outer loop
         vertex 8.971394e+000 3.360006e+000 0.000000e+000
         vertex 9.130845e+000 3.701949e+000 1.000000e+001
         vertex 9.130845e+000 3.701949e+000 0.000000e+000
      endloop
   endfacet
   facet normal -9.579706e-001 2.868663e-001 0.000000e+000
      outer loop
         vertex 9.130845e+000 3.701949e+000 0.000000e+000
         vertex 9.130845e+000 3.701949e+000 1.000000e+001
         vertex 9.228495e+000 4.066384e+000 1.000000e+001
      endloop
   endfacet
   facet normal -9.730600e-001 2.305519e-001 0.000000e+000
      outer loop
         vertex 9.130845e+000 3.701949e+000 0.000000e+000
         vertex 9.228495e+000 4.066384e+000 1.000000e+001
         vertex 9.228495e+000 4.066384e+000 0.000000e+000
      endloop
   endfacet
   facet normal -9.932307e-001 1.161583e-001 0.000000e+000
      outer loop
         vertex 9.228495e+000 4.066384e+000 0.000000e+000
         vertex 9.228495e+000 4.066384e+000 1.000000e+001
         vertex 9.261378e+000 4.442241e+000 1.000000e+001
      endloop
   endfacet
endsolid