solid 3_684
   facet normal -1.000000e+000 0.000000e+000 0.000000e+000
      outer loop
         vertex 0.000000e+000 1.000000e+001 1.000000e+001
         vertex 0.000000e+000 1.000000e+001 0.000000e+000
         vertex 0.000000e+000 0.000000e+000 1.000000e+001
      endloop
   endfacet
   facet normal -1.000000e+000 0.000000e+000 0.000000e+000
      outer loop
         vertex 0.000000e+000 0.000000e+000 1.000000e+001
         vertex 0.000000e+000 1.000000e+001 0.000000e+000
         vertex 0.000000e+000 0.000000e+000 0.000000e+000
      endloop
   endfacet
   facet normal 0.000000e+000 0.000000e+000 1.000000e+000
      outer loop
         vertex 4.229230e+000 6.345438e+000 1.000000e+001
         vertex 4.127603e+000 6.127498e+000 1.000000e+001
         vertex 1.000000e+001 0.000000e+000 1.000000e+001
      endloop
   endfacet
   facet normal 0.000000e+000 0.000000e+000 1.000000e+000
      outer loop
         vertex 1.000000e+001 0.000000e+000 1.000000e+001
         vertex 4.127603e+000 6.127498e+000 1.000000e+001
         vertex 3.989675e+000 5.930516e+000 1.000000e+001
      endloop
   endfacet
   facet normal 0.000000e+000 0.000000e+000 1.000000e+000
      outer loop
         vertex 1.000000e+001 0.000000e+000 1.000000e+001
         vertex 3.989675e+000 5.930516e+000 1.000000e+001
         vertex 3.819638e+000 5.760479e+000 1.000000e+001
      endloop
   endfacet
   facet normal 0.000000e+000 0.000000e+000 1.000000e+000
      outer loop
         vertex 3.819638e+000 5.760479e+000 1.000000e+001
         vertex 3.622656e+000 5.622551e+000 1.000000e+001
         vertex 1.000000e+001 0.000000e+000 1.000000e+001
      endloop
   endfacet
   facet normal 0.000000e+000 0.000000e+000 1.000000e+000
      outer loop
         vertex 1.000000e+001 0.000000e+000 1.000000e+001
         vertex 3.622656e+000 5.622551e+000 1.000000e+001
         vertex 3.404716e+000 5.520924e+000 1.000000e+001
      endloop
   endfacet
   facet normal 0.000000e+000 0.000000e+000 1.000000e+000
      outer loop
         vertex 1.000000e+001 0.000000e+000 1.000000e+001
         vertex 3.404716e+000 5.520924e+000 1.000000e+001
         vertex 0.000000e+000 0.000000e+000 1.000000e+001
      endloop
   endfacet
   facet normal 0.000000e+000 0.000000e+000 1.000000e+000
      outer loop
         vertex 0.000000e+000 0.000000e+000 1.000000e+001
         vertex 3.404716e+000 5.520924e+000 1.000000e+001
         vertex 3.172441e+000 5.458686e+000 1.000000e+001
      endloop
   endfacet
   facet normal 0.000000e+000 0.000000e+000 1.000000e+000
      outer loop
         vertex 0.000000e+000 0.000000e+000 1.000000e+001
         vertex 3.172441e+000 5.458686e+000 1.000000e+001
         vertex 2.932886e+000 5.437727e+000 1.000000e+001
      endloop
   endfacet
   facet normal 0.000000e+000 0.000000e+000 1.000000e+000
      outer loop
         vertex 2.932886e+000 5.437727e+000 1.000000e+001
         vertex 2.693331e+000 5.458686e+000 1.000000e+001
         vertex 0.000000e+000 0.000000e+000 1.000000e+001
      endloop
   endfacet
   facet normal 0.000000e+000 0.000000e+000 1.000000e+000
      outer loop
         vertex 0.000000e+000 0.000000e+000 1.000000e+001
         vertex 2.693331e+000 5.458686e+000 1.000000e+001
         vertex 2.461055e+000 5.520924e+000 1.000000e+001
      endloop
   endfacet
   facet normal 0.000000e+000 0.000000e+000 1.000000e+000
      outer loop
         vertex 0.000000e+000 0.000000e+000 1.000000e+001
         vertex 2.461055e+000 5.520924e+000 1.000000e+001
         vertex 2.243116e+000 5.622551e+000 1.000000e+001
      endloop
   endfacet
   facet normal 0.000000e+000 0.000000e+000 1.000000e+000
      outer loop
         vertex 2.243116e+000 5.622551e+000 1.000000e+001
         vertex 2.046134e+000 5.760479e+000 1.000000e+001
         vertex 0.000000e+000 0.000000e+000 1.000000e+001
      endloop
   endfacet
   facet normal 0.000000e+000 0.000000e+000 1.000000e+000
      outer loop
         vertex 0.000000e+000 0.000000e+000 1.000000e+001
         vertex 2.046134e+000 5.760479e+000 1.000000e+001
         vertex 1.876097e+000 5.930516e+000 1.000000e+001
      endloop
   endfacet
   facet normal 0.000000e+000 0.000000e+000 1.000000e+000
      outer loop
         vertex 0.000000e+000 0.000000e+000 1.000000e+001
         vertex 1.876097e+000 5.930516e+000 1.000000e+001
         vertex 1.738169e+000 6.127498e+000 1.000000e+001
      endloop
   endfacet
   facet normal 0.000000e+000 0.000000e+000 1.000000e+000
      outer loop
         vertex 3.404716e+000 8.113612e+000 1.000000e+001
         vertex 3.622656e+000 8.011986e+000 1.000000e+001
         vertex 1.000000e+001 1.000000e+001 1.000000e+001
      endloop
   endfacet
   facet normal 0.000000e+000 0.000000e+000 1.000000e+000
      outer loop
         vertex 1.000000e+001 1.000000e+001 1.000000e+001
         vertex 3.622656e+000 8.011986e+000 1.000000e+001
         vertex 3.819638e+000 7.874058e+000 1.000000e+001
      endloop
   endfacet
   facet normal 0.000000e+000 0.000000e+000 1.000000e+000
      outer loop
         vertex 4.229230e+000 7.289099e+000 1.000000e+001
         vertex 4.291468e+000 7.056823e+000 1.000000e+001
         vertex 1.000000e+001 1.000000e+001 1.000000e+001
      endloop
   endfacet
   facet normal 0.000000e+000 0.000000e+000 1.000000e+000
      outer loop
         vertex 1.000000e+001 1.000000e+001 1.000000e+001
         vertex 4.291468e+000 7.056823e+000 1.000000e+001
         vertex 4.312426e+000 6.817268e+000 1.000000e+001
      endloop
   endfacet
   facet normal 0.000000e+000 0.000000e+000 1.000000e+000
      outer loop
         vertex 1.000000e+001 1.000000e+001 1.000000e+001
         vertex 4.312426e+000 6.817268e+000 1.000000e+001
         vertex 1.000000e+001 0.000000e+000 1.000000e+001
      endloop
   endfacet
   facet normal 0.000000e+000 0.000000e+000 1.000000e+000
      outer loop
         vertex 1.000000e+001 0.000000e+000 1.000000e+001
         vertex 4.312426e+000 6.817268e+000 1.000000e+001
         vertex 4.291468e+000 6.577713e+000 1.000000e+001
      endloop
   endfacet
   facet normal 0.000000e+000 0.000000e+000 1.000000e+000
      outer loop
         vertex 1.000000e+001 0.000000e+000 1.000000e+001
         vertex 4.291468e+000 6.577713e+000 1.000000e+001
         vertex 4.229230e+000 6.345438e+000 1.000000e+001
      endloop
   endfacet
   facet normal 0.000000e+000 0.000000e+000 1.000000e+000
      outer loop
         vertex 1.738169e+000 6.127498e+000 1.000000e+001
         vertex 1.636542e+000 6.345438e+000 1.000000e+001
         vertex 0.000000e+000 0.000000e+000 1.000000e+001
      endloop
   endfacet
   facet normal 0.000000e+000 0.000000e+000 1.000000e+000
      outer loop
         vertex 0.000000e+000 0.000000e+000 1.000000e+001
         vertex 1.636542e+000 6.345438e+000 1.000000e+001
         vertex 1.574304e+000 6.577713e+000 1.000000e+001
      endloop
   endfacet
   facet normal 0.000000e+000 0.000000e+000 1.000000e+000
      outer loop
         vertex 0.000000e+000 0.000000e+000 1.000000e+001
         vertex 1.574304e+000 6.577713e+000 1.000000e+001
         vertex 0.000000e+000 1.000000e+001 1.000000e+001
      endloop
   endfacet
   facet normal 0.000000e+000 0.000000e+000 1.000000e+000
      outer loop
         vertex 0.000000e+000 1.000000e+001 1.000000e+001
         vertex 1.574304e+000 6.577713e+000 1.000000e+001
         vertex 1.553345e+000 6.817268e+000 1.000000e+001
      endloop
   endfacet
   facet normal 0.000000e+000 0.000000e+000 1.000000e+000
      outer loop
         vertex 0.000000e+000 1.000000e+001 1.000000e+001
         vertex 1.553345e+000 6.817268e+000 1.000000e+001
         vertex 1.574304e+000 7.056823e+000 1.000000e+001
      endloop
   endfacet
   facet normal 0.000000e+000 0.000000e+000 1.000000e+000
      outer loop
         vertex 1.876097e+000 7.704020e+000 1.000000e+001
         vertex 2.046134e+000 7.874058e+000 1.000000e+001
         vertex 0.000000e+000 1.000000e+001 1.000000e+001
      endloop
   endfacet
   facet normal 0.000000e+000 0.000000e+000 1.000000e+000
      outer loop
         vertex 0.000000e+000 1.000000e+001 1.000000e+001
         vertex 2.046134e+000 7.874058e+000 1.000000e+001
         vertex 2.243116e+000 8.011986e+000 1.000000e+001
      endloop
   endfacet
   facet normal 0.000000e+000 0.000000e+000 1.000000e+000
      outer loop
         vertex 0.000000e+000 1.000000e+001 1.000000e+001
         vertex 2.243116e+000 8.011986e+000 1.000000e+001
         vertex 2.461055e+000 8.113612e+000 1.000000e+001
      endloop
   endfacet
   facet normal 0.000000e+000 0.000000e+000 1.000000e+000
      outer loop
         vertex 3.819638e+000 7.874058e+000 1.000000e+001
         vertex 3.989675e+000 7.704020e+000 1.000000e+001
         vertex 1.000000e+001 1.000000e+001 1.000000e+001
      endloop
   endfacet
   facet normal 0.000000e+000 0.000000e+000 1.000000e+000
      outer loop
         vertex 1.000000e+001 1.000000e+001 1.000000e+001
         vertex 3.989675e+000 7.704020e+000 1.000000e+001
         vertex 4.127603e+000 7.507038e+000 1.000000e+001
      endloop
   endfacet
   facet normal 0.000000e+000 0.000000e+000 1.000000e+000
      outer loop
         vertex 1.000000e+001 1.000000e+001 1.000000e+001
         vertex 4.127603e+000 7.507038e+000 1.000000e+001
         vertex 4.229230e+000 7.289099e+000 1.000000e+001
      endloop
   endfacet
   facet normal 0.000000e+000 0.000000e+000 1.000000e+000
      outer loop
         vertex 1.574304e+000 7.056823e+000 1.000000e+001
         vertex 1.636542e+000 7.289099e+000 1.000000e+001
         vertex 0.000000e+000 1.000000e+001 1.000000e+001
      endloop
   endfacet
   facet normal 0.000000e+000 0.000000e+000 1.000000e+000
      outer loop
         vertex 0.000000e+000 1.000000e+001 1.000000e+001
         vertex 1.636542e+000 7.289099e+000 1.000000e+001
         vertex 1.738169e+000 7.507038e+000 1.000000e+001
      endloop
   endfacet
   facet normal 0.000000e+000 0.000000e+000 1.000000e+000
      outer loop
         vertex 0.000000e+000 1.000000e+001 1.000000e+001
         vertex 1.738169e+000 7.507038e+000 1.000000e+001
         vertex 1.876097e+000 7.704020e+000 1.000000e+001
      endloop
   endfacet
   facet normal 0.000000e+000 0.000000e+000 1.000000e+000
      outer loop
         vertex 2.461055e+000 8.113612e+000 1.000000e+001
         vertex 2.693331e+000 8.175850e+000 1.000000e+001
         vertex 0.000000e+000 1.000000e+001 1.000000e+001
      endloop
   endfacet
   facet normal 0.000000e+000 0.000000e+000 1.000000e+000
      outer loop
         vertex 0.000000e+000 1.000000e+001 1.000000e+001
         vertex 2.693331e+000 8.175850e+000 1.000000e+001
         vertex 2.932886e+000 8.196809e+000 1.000000e+001
      endloop
   endfacet
   facet normal 0.000000e+000 0.000000e+000 1.000000e+000
      outer loop
         vertex 0.000000e+000 1.000000e+001 1.000000e+001
         vertex 2.932886e+000 8.196809e+000 1.000000e+001
         vertex 1.000000e+001 1.000000e+001 1.000000e+001
      endloop
   endfacet
   facet normal 0.000000e+000 0.000000e+000 1.000000e+000
      outer loop
         vertex 1.000000e+001 1.000000e+001 1.000000e+001
         vertex 2.932886e+000 8.196809e+000 1.000000e+001
         vertex 3.172441e+000 8.175850e+000 1.000000e+001
      endloop
   endfacet
   facet normal 0.000000e+000 0.000000e+000 1.000000e+000
      outer loop
         vertex 1.000000e+001 1.000000e+001 1.000000e+001
         vertex 3.172441e+000 8.175850e+000 1.000000e+001
         vertex 3.404716e+000 8.113612e+000 1.000000e+001
      endloop
   endfacet
   facet normal 1.000000e+000 0.000000e+000 0.000000e+000
      outer loop
         vertex 1.000000e+001 1.000000e+001 0.000000e+000
         vertex 1.000000e+001 1.000000e+001 1.000000e+001
         vertex 1.000000e+001 0.000000e+000 0.000000e+000
      endloop
   endfacet
   facet normal 1.000000e+000 0.000000e+000 0.000000e+000
      outer loop
         vertex 1.000000e+001 0.000000e+000 0.000000e+000
         vertex 1.000000e+001 1.000000e+001 1.000000e+001
         vertex 1.000000e+001 0.000000e+000 1.000000e+001
      endloop
   endfacet
   facet normal 0.000000e+000 0.000000e+000 -1.000000e+000
      outer loop
         vertex 4.312426e+000 6.817268e+000 0.000000e+000
         vertex 1.000000e+001 1.000000e+001 0.000000e+000
         vertex 4.291468e+000 6.577713e+000 0.000000e+000
      endloop
   endfacet
   facet normal 0.000000e+000 0.000000e+000 -1.000000e+000
      outer loop
         vertex 4.291468e+000 6.577713e+000 0.000000e+000
         vertex 1.000000e+001 1.000000e+001 0.000000e+000
         vertex 1.000000e+001 0.000000e+000 0.000000e+000
      endloop
   endfacet
   facet normal 0.000000e+000 0.000000e+000 -1.000000e+000
      outer loop
         vertex 4.291468e+000 6.577713e+000 0.000000e+000
         vertex 1.000000e+001 0.000000e+000 0.000000e+000
         vertex 4.229230e+000 6.345438e+000 0.000000e+000
      endloop
   endfacet
   facet normal 0.000000e+000 0.000000e+000 -1.000000e+000
      outer loop
         vertex 4.229230e+000 6.345438e+000 0.000000e+000
         vertex 1.000000e+001 0.000000e+000 0.000000e+000
         vertex 4.127603e+000 6.127498e+000 0.000000e+000
      endloop
   endfacet
   facet normal 0.000000e+000 0.000000e+000 -1.000000e+000
      outer loop
         vertex 0.000000e+000 1.000000e+001 0.000000e+000
         vertex 1.553345e+000 6.817268e+000 0.000000e+000
         vertex 0.000000e+000 0.000000e+000 0.000000e+000
      endloop
   endfacet
   facet normal 0.000000e+000 0.000000e+000 -1.000000e+000
      outer loop
         vertex 0.000000e+000 0.000000e+000 0.000000e+000
         vertex 1.553345e+000 6.817268e+000 0.000000e+000
         vertex 1.574304e+000 6.577713e+000 0.000000e+000
      endloop
   endfacet
   facet normal 0.000000e+000 0.000000e+000 -1.000000e+000
      outer loop
         vertex 0.000000e+000 0.000000e+000 0.000000e+000
         vertex 1.574304e+000 6.577713e+000 0.000000e+000
         vertex 1.636542e+000 6.345438e+000 0.000000e+000
      endloop
   endfacet
   facet normal 0.000000e+000 0.000000e+000 -1.000000e+000
      outer loop
         vertex 3.622656e+000 5.622551e+000 0.000000e+000
         vertex 3.819638e+000 5.760479e+000 0.000000e+000
         vertex 1.000000e+001 0.000000e+000 0.000000e+000
      endloop
   endfacet
   facet normal 0.000000e+000 0.000000e+000 -1.000000e+000
      outer loop
         vertex 1.000000e+001 0.000000e+000 0.000000e+000
         vertex 3.819638e+000 5.760479e+000 0.000000e+000
         vertex 3.989675e+000 5.930516e+000 0.000000e+000
      endloop
   endfacet
   facet normal 0.000000e+000 0.000000e+000 -1.000000e+000
      outer loop
         vertex 1.000000e+001 0.000000e+000 0.000000e+000
         vertex 3.989675e+000 5.930516e+000 0.000000e+000
         vertex 4.127603e+000 6.127498e+000 0.000000e+000
      endloop
   endfacet
   facet normal 0.000000e+000 0.000000e+000 -1.000000e+000
      outer loop
         vertex 1.636542e+000 6.345438e+000 0.000000e+000
         vertex 1.738169e+000 6.127498e+000 0.000000e+000
         vertex 0.000000e+000 0.000000e+000 0.000000e+000
      endloop
   endfacet
   facet normal 0.000000e+000 0.000000e+000 -1.000000e+000
      outer loop
         vertex 0.000000e+000 0.000000e+000 0.000000e+000
         vertex 1.738169e+000 6.127498e+000 0.000000e+000
         vertex 1.876097e+000 5.930516e+000 0.000000e+000
      endloop
   endfacet
   facet normal 0.000000e+000 0.000000e+000 -1.000000e+000
      outer loop
         vertex 0.000000e+000 0.000000e+000 0.000000e+000
         vertex 1.876097e+000 5.930516e+000 0.000000e+000
         vertex 2.046134e+000 5.760479e+000 0.000000e+000
      endloop
   endfacet
   facet normal 0.000000e+000 0.000000e+000 -1.000000e+000
      outer loop
         vertex 2.046134e+000 5.760479e+000 0.000000e+000
         vertex 2.243116e+000 5.622551e+000 0.000000e+000
         vertex 0.000000e+000 0.000000e+000 0.000000e+000
      endloop
   endfacet
   facet normal 0.000000e+000 0.000000e+000 -1.000000e+000
      outer loop
         vertex 0.000000e+000 0.000000e+000 0.000000e+000
         vertex 2.243116e+000 5.622551e+000 0.000000e+000
         vertex 2.461055e+000 5.520924e+000 0.000000e+000
      endloop
   endfacet
   facet normal 0.000000e+000 0.000000e+000 -1.000000e+000
      outer loop
         vertex 0.000000e+000 0.000000e+000 0.000000e+000
         vertex 2.461055e+000 5.520924e+000 0.000000e+000
         vertex 2.693331e+000 5.458686e+000 0.000000e+000
      endloop
   endfacet
   facet normal 0.000000e+000 0.000000e+000 -1.000000e+000
      outer loop
         vertex 2.693331e+000 5.458686e+000 0.000000e+000
         vertex 2.932886e+000 5.437727e+000 0.000000e+000
         vertex 0.000000e+000 0.000000e+000 0.000000e+000
      endloop
   endfacet
   facet normal 0.000000e+000 0.000000e+000 -1.000000e+000
      outer loop
         vertex 0.000000e+000 0.000000e+000 0.000000e+000
         vertex 2.932886e+000 5.437727e+000 0.000000e+000
         vertex 3.172441e+000 5.458686e+000 0.000000e+000
      endloop
   endfacet
   facet normal 0.000000e+000 0.000000e+000 -1.000000e+000
      outer loop
         vertex 0.000000e+000 0.000000e+000 0.000000e+000
         vertex 3.172441e+000 5.458686e+000 0.000000e+000
         vertex 1.000000e+001 0.000000e+000 0.000000e+000
      endloop
   endfacet
   facet normal 0.000000e+000 0.000000e+000 -1.000000e+000
      outer loop
         vertex 1.000000e+001 0.000000e+000 0.000000e+000
         vertex 3.172441e+000 5.458686e+000 0.000000e+000
         vertex 3.404716e+000 5.520924e+000 0.000000e+000
      endloop
   endfacet
   facet normal 0.000000e+000 0.000000e+000 -1.000000e+000
      outer loop
         vertex 1.000000e+001 0.000000e+000 0.000000e+000
         vertex 3.404716e+000 5.520924e+000 0.000000e+000
         vertex 3.622656e+000 5.622551e+000 0.000000e+000
      endloop
   endfacet
   facet normal 0.000000e+000 0.000000e+000 -1.000000e+000
      outer loop
         vertex 4.312426e+000 6.817268e+000 0.000000e+000
         vertex 4.291468e+000 7.056823e+000 0.000000e+000
         vertex 1.000000e+001 1.000000e+001 0.000000e+000
      endloop
   endfacet
   facet normal 0.000000e+000 0.000000e+000 -1.000000e+000
      outer loop
         vertex 1.000000e+001 1.000000e+001 0.000000e+000
         vertex 4.291468e+000 7.056823e+000 0.000000e+000
         vertex 4.229230e+000 7.289099e+000 0.000000e+000
      endloop
   endfacet
   facet normal 0.000000e+000 0.000000e+000 -1.000000e+000
      outer loop
         vertex 1.000000e+001 1.000000e+001 0.000000e+000
         vertex 4.229230e+000 7.289099e+000 0.000000e+000
         vertex 4.127603e+000 7.507038e+000 0.000000e+000
      endloop
   endfacet
   facet normal 0.000000e+000 0.000000e+000 -1.000000e+000
      outer loop
         vertex 4.127603e+000 7.507038e+000 0.000000e+000
         vertex 3.989675e+000 7.704020e+000 0.000000e+000
         vertex 1.000000e+001 1.000000e+001 0.000000e+000
      endloop
   endfacet
   facet normal 0.000000e+000 0.000000e+000 -1.000000e+000
      outer loop
         vertex 1.000000e+001 1.000000e+001 0.000000e+000
         vertex 3.989675e+000 7.704020e+000 0.000000e+000
         vertex 3.819638e+000 7.874058e+000 0.000000e+000
      endloop
   endfacet
   facet normal 0.000000e+000 0.000000e+000 -1.000000e+000
      outer loop
         vertex 1.000000e+001 1.000000e+001 0.000000e+000
         vertex 3.819638e+000 7.874058e+000 0.000000e+000
         vertex 3.622656e+000 8.011986e+000 0.000000e+000
      endloop
   endfacet
   facet normal 0.000000e+000 0.000000e+000 -1.000000e+000
      outer loop
         vertex 1.738169e+000 7.507038e+000 0.000000e+000
         vertex 1.636542e+000 7.289099e+000 0.000000e+000
         vertex 0.000000e+000 1.000000e+001 0.000000e+000
      endloop
   endfacet
   facet normal 0.000000e+000 0.000000e+000 -1.000000e+000
      outer loop
         vertex 0.000000e+000 1.000000e+001 0.000000e+000
         vertex 1.636542e+000 7.289099e+000 0.000000e+000
         vertex 1.574304e+000 7.056823e+000 0.000000e+000
      endloop
   endfacet
   facet normal 0.000000e+000 0.000000e+000 -1.000000e+000
      outer loop
         vertex 0.000000e+000 1.000000e+001 0.000000e+000
         vertex 1.574304e+000 7.056823e+000 0.000000e+000
         vertex 1.553345e+000 6.817268e+000 0.000000e+000
      endloop
   endfacet
   facet normal 0.000000e+000 0.000000e+000 -1.000000e+000
      outer loop
         vertex 2.693331e+000 8.175850e+000 0.000000e+000
         vertex 2.461055e+000 8.113612e+000 0.000000e+000
         vertex 0.000000e+000 1.000000e+001 0.000000e+000
      endloop
   endfacet
   facet normal 0.000000e+000 0.000000e+000 -1.000000e+000
      outer loop
         vertex 0.000000e+000 1.000000e+001 0.000000e+000
         vertex 2.461055e+000 8.113612e+000 0.000000e+000
         vertex 2.243116e+000 8.011986e+000 0.000000e+000
      endloop
   endfacet
   facet normal 0.000000e+000 0.000000e+000 -1.000000e+000
      outer loop
         vertex 2.243116e+000 8.011986e+000 0.000000e+000
         vertex 2.046134e+000 7.874058e+000 0.000000e+000
         vertex 0.000000e+000 1.000000e+001 0.000000e+000
      endloop
   endfacet
   facet normal 0.000000e+000 0.000000e+000 -1.000000e+000
      outer loop
         vertex 0.000000e+000 1.000000e+001 0.000000e+000
         vertex 2.046134e+000 7.874058e+000 0.000000e+000
         vertex 1.876097e+000 7.704020e+000 0.000000e+000
      endloop
   endfacet
   facet normal 0.000000e+000 0.000000e+000 -1.000000e+000
      outer loop
         vertex 0.000000e+000 1.000000e+001 0.000000e+000
         vertex 1.876097e+000 7.704020e+000 0.000000e+000
         vertex 1.738169e+000 7.507038e+000 0.000000e+000
      endloop
   endfacet
   facet normal 0.000000e+000 0.000000e+000 -1.000000e+000
      outer loop
         vertex 3.622656e+000 8.011986e+000 0.000000e+000
         vertex 3.404716e+000 8.113612e+000 0.000000e+000
         vertex 1.000000e+001 1.000000e+001 0.000000e+000
      endloop
   endfacet
   facet normal 0.000000e+000 0.000000e+000 -1.000000e+000
      outer loop
         vertex 1.000000e+001 1.000000e+001 0.000000e+000
         vertex 3.404716e+000 8.113612e+000 0.000000e+000
         vertex 3.172441e+000 8.175850e+000 0.000000e+000
      endloop
   endfacet
   facet normal 0.000000e+000 0.000000e+000 -1.000000e+000
      outer loop
         vertex 1.000000e+001 1.000000e+001 0.000000e+000
         vertex 3.172441e+000 8.175850e+000 0.000000e+000
         vertex 0.000000e+000 1.000000e+001 0.000000e+000
      endloop
   endfacet
   facet normal 0.000000e+000 0.000000e+000 -1.000000e+000
      outer loop
         vertex 0.000000e+000 1.000000e+001 0.000000e+000
         vertex 3.172441e+000 8.175850e+000 0.000000e+000
         vertex 2.932886e+000 8.196809e+000 0.000000e+000
      endloop
   endfacet
   facet normal 0.000000e+000 0.000000e+000 -1.000000e+000
      outer loop
         vertex 0.000000e+000 1.000000e+001 0.000000e+000
         vertex 2.932886e+000 8.196809e+000 0.000000e+000
         vertex 2.693331e+000 8.175850e+000 0.000000e+000
      endloop
   endfacet
   facet normal 0.000000e+000 1.000000e+000 0.000000e+000
      outer loop
         vertex 1.000000e+001 1.000000e+001 1.000000e+001
         vertex 1.000000e+001 1.000000e+001 0.000000e+000
         vertex 0.000000e+000 1.000000e+001 1.000000e+001
      endloop
   endfacet
   facet normal 0.000000e+000 1.000000e+000 0.000000e+000
      outer loop
         vertex 0.000000e+000 1.000000e+001 1.000000e+001
         vertex 1.000000e+001 1.000000e+001 0.000000e+000
         vertex 0.000000e+000 1.000000e+001 0.000000e+000
      endloop
   endfacet
   facet normal 0.000000e+000 -1.000000e+000 0.000000e+000
      outer loop
         vertex 1.000000e+001 0.000000e+000 0.000000e+000
         vertex 1.000000e+001 0.000000e+000 1.000000e+001
         vertex 0.000000e+000 0.000000e+000 0.000000e+000
      endloop
   endfacet
   facet normal 0.000000e+000 -1.000000e+000 0.000000e+000
      outer loop
         vertex 0.000000e+000 0.000000e+000 0.000000e+000
         vertex 1.000000e+001 0.000000e+000 1.000000e+001
         vertex 0.000000e+000 0.000000e+000 1.000000e+001
      endloop
   endfacet
   facet normal -9.983119e-001 5.807913e-002 0.000000e+000
      outer loop
         vertex 4.291468e+000 6.577713e+000 0.000000e+000
         vertex 4.312426e+000 6.817268e+000 1.000000e+001
         vertex 4.312426e+000 6.817268e+000 0.000000e+000
      endloop
   endfacet
   facet normal -9.983119e-001 -5.807913e-002 0.000000e+000
      outer loop
         vertex 4.312426e+000 6.817268e+000 0.000000e+000
         vertex 4.312426e+000 6.817268e+000 1.000000e+001
         vertex 4.291468e+000 7.056823e+000 1.000000e+001
      endloop
   endfacet
   facet normal -9.932307e-001 -1.161583e-001 0.000000e+000
      outer loop
         vertex 4.312426e+000 6.817268e+000 0.000000e+000
         vertex 4.291468e+000 7.056823e+000 1.000000e+001
         vertex 4.291468e+000 7.056823e+000 0.000000e+000
      endloop
   endfacet
   facet normal -9.730600e-001 -2.305519e-001 0.000000e+000
      outer loop
         vertex 4.291468e+000 7.056823e+000 0.000000e+000
         vertex 4.291468e+000 7.056823e+000 1.000000e+001
         vertex 4.229230e+000 7.289099e+000 1.000000e+001
      endloop
   endfacet
   facet normal -9.579706e-001 -2.868663e-001 0.000000e+000
      outer loop
         vertex 4.291468e+000 7.056823e+000 0.000000e+000
         vertex 4.229230e+000 7.289099e+000 1.000000e+001
         vertex 4.229230e+000 7.289099e+000 0.000000e+000
      endloop
   endfacet
   facet normal -9.182422e-001 -3.960194e-001 0.000000e+000
      outer loop
         vertex 4.229230e+000 7.289099e+000 0.000000e+000
         vertex 4.229230e+000 7.289099e+000 1.000000e+001
         vertex 4.127603e+000 7.507038e+000 1.000000e+001
      endloop
   endfacet
   facet normal -8.936031e-001 -4.488580e-001 0.000000e+000
      outer loop
         vertex 4.229230e+000 7.289099e+000 0.000000e+000
         vertex 4.127603e+000 7.507038e+000 1.000000e+001
         vertex 4.127603e+000 7.507038e+000 0.000000e+000
      endloop
   endfacet
   facet normal -8.355240e-001 -5.494540e-001 0.000000e+000
      outer loop
         vertex 4.127603e+000 7.507038e+000 0.000000e+000
         vertex 4.127603e+000 7.507038e+000 1.000000e+001
         vertex 3.989675e+000 7.704020e+000 1.000000e+001
      endloop
   endfacet
   facet normal -8.020838e-001 -5.972114e-001 0.000000e+000
      outer loop
         vertex 4.127603e+000 7.507038e+000 0.000000e+000
         vertex 3.989675e+000 7.704020e+000 1.000000e+001
         vertex 3.989675e+000 7.704020e+000 0.000000e+000
      endloop
   endfacet
   facet normal -7.274188e-001 -6.861938e-001 0.000000e+000
      outer loop
         vertex 3.989675e+000 7.704020e+000 0.000000e+000
         vertex 3.989675e+000 7.704020e+000 1.000000e+001
         vertex 3.819638e+000 7.874058e+000 1.000000e+001
      endloop
   endfacet
   facet normal -6.861938e-001 -7.274188e-001 0.000000e+000
      outer loop
         vertex 3.989675e+000 7.704020e+000 0.000000e+000
         vertex 3.819638e+000 7.874058e+000 1.000000e+001
         vertex 3.819638e+000 7.874058e+000 0.000000e+000
      endloop
   endfacet
   facet normal -5.972114e-001 -8.020838e-001 0.000000e+000
      outer loop
         vertex 3.819638e+000 7.874058e+000 0.000000e+000
         vertex 3.819638e+000 7.874058e+000 1.000000e+001
         vertex 3.622656e+000 8.011986e+000 1.000000e+001
      endloop
   endfacet
   facet normal -5.494540e-001 -8.355240e-001 0.000000e+000
      outer loop
         vertex 3.819638e+000 7.874058e+000 0.000000e+000
         vertex 3.622656e+000 8.011986e+000 1.000000e+001
         vertex 3.622656e+000 8.011986e+000 0.000000e+000
      endloop
   endfacet
   facet normal -4.488580e-001 -8.936031e-001 0.000000e+000
      outer loop
         vertex 3.622656e+000 8.011986e+000 0.000000e+000
         vertex 3.622656e+000 8.011986e+000 1.000000e+001
         vertex 3.404716e+000 8.113612e+000 1.000000e+001
      endloop
   endfacet
   facet normal -3.960194e-001 -9.182422e-001 0.000000e+000
      outer loop
         vertex 3.622656e+000 8.011986e+000 0.000000e+000
         vertex 3.404716e+000 8.113612e+000 1.000000e+001
         vertex 3.404716e+000 8.113612e+000 0.000000e+000
      endloop
   endfacet
   facet normal -2.868663e-001 -9.579706e-001 0.000000e+000
      outer loop
         vertex 3.404716e+000 8.113612e+000 0.000000e+000
         vertex 3.404716e+000 8.113612e+000 1.000000e+001
         vertex 3.172441e+000 8.175850e+000 1.000000e+001
      endloop
   endfacet
   facet normal -2.305519e-001 -9.730600e-001 0.000000e+000
      outer loop
         vertex 3.404716e+000 8.113612e+000 0.000000e+000
         vertex 3.172441e+000 8.175850e+000 1.000000e+001
         vertex 3.172441e+000 8.175850e+000 0.000000e+000
      endloop
   endfacet
   facet normal -1.161583e-001 -9.932307e-001 0.000000e+000
      outer loop
         vertex 3.172441e+000 8.175850e+000 0.000000e+000
         vertex 3.172441e+000 8.175850e+000 1.000000e+001
         vertex 2.932886e+000 8.196809e+000 1.000000e+001
      endloop
   endfacet
   facet normal -5.807913e-002 -9.983119e-001 0.000000e+000
      outer loop
         vertex 3.172441e+000 8.175850e+000 0.000000e+000
         vertex 2.932886e+000 8.196809e+000 1.000000e+001
         vertex 2.932886e+000 8.196809e+000 0.000000e+000
      endloop
   endfacet
   facet normal 5.807913e-002 -9.983119e-001 0.000000e+000
      outer loop
         vertex 2.932886e+000 8.196809e+000 0.000000e+000
         vertex 2.932886e+000 8.196809e+000 1.000000e+001
         vertex 2.693331e+000 8.175850e+000 1.000000e+001
      endloop
   endfacet
   facet normal 1.161583e-001 -9.932307e-001 0.000000e+000
      outer loop
         vertex 2.932886e+000 8.196809e+000 0.000000e+000
         vertex 2.693331e+000 8.175850e+000 1.000000e+001
         vertex 2.693331e+000 8.175850e+000 0.000000e+000
      endloop
   endfacet
   facet normal 2.305519e-001 -9.730600e-001 0.000000e+000
      outer loop
         vertex 2.693331e+000 8.175850e+000 0.000000e+000
         vertex 2.693331e+000 8.175850e+000 1.000000e+001
         vertex 2.461055e+000 8.113612e+000 1.000000e+001
      endloop
   endfacet
   facet normal 2.868663e-001 -9.579706e-001 0.000000e+000
      outer loop
         vertex 2.693331e+000 8.175850e+000 0.000000e+000
         vertex 2.461055e+000 8.113612e+000 1.000000e+001
         vertex 2.461055e+000 8.113612e+000 0.000000e+000
      endloop
   endfacet
   facet normal 3.960194e-001 -9.182422e-001 0.000000e+000
      outer loop
         vertex 2.461055e+000 8.113612e+000 0.000000e+000
         vertex 2.461055e+000 8.113612e+000 1.000000e+001
         vertex 2.243116e+000 8.011986e+000 1.000000e+001
      endloop
   endfacet
   facet normal 4.488580e-001 -8.936031e-001 0.000000e+000
      outer loop
         vertex 2.461055e+000 8.113612e+000 0.000000e+000
         vertex 2.243116e+000 8.011986e+000 1.000000e+001
         vertex 2.243116e+000 8.011986e+000 0.000000e+000
      endloop
   endfacet
   facet normal 5.494540e-001 -8.355240e-001 0.000000e+000
      outer loop
         vertex 2.243116e+000 8.011986e+000 0.000000e+000
         vertex 2.243116e+000 8.011986e+000 1.000000e+001
         vertex 2.046134e+000 7.874058e+000 1.000000e+001
      endloop
   endfacet
   facet normal 5.972114e-001 -8.020838e-001 0.000000e+000
      outer loop
         vertex 2.243116e+000 8.011986e+000 0.000000e+000
         vertex 2.046134e+000 7.874058e+000 1.000000e+001
         vertex 2.046134e+000 7.874058e+000 0.000000e+000
      endloop
   endfacet
   facet normal 6.861938e-001 -7.274188e-001 0.000000e+000
      outer loop
         vertex 2.046134e+000 7.874058e+000 0.000000e+000
         vertex 2.046134e+000 7.874058e+000 1.000000e+001
         vertex 1.876097e+000 7.704020e+000 1.000000e+001
      endloop
   endfacet
   facet normal 7.274188e-001 -6.861938e-001 0.000000e+000
      outer loop
         vertex 2.046134e+000 7.874058e+000 0.000000e+000
         vertex 1.876097e+000 7.704020e+000 1.000000e+001
         vertex 1.876097e+000 7.704020e+000 0.000000e+000
      endloop
   endfacet
   facet normal 8.020838e-001 -5.972114e-001 0.000000e+000
      outer loop
         vertex 1.876097e+000 7.704020e+000 0.000000e+000
         vertex 1.876097e+000 7.704020e+000 1.000000e+001
         vertex 1.738169e+000 7.507038e+000 1.000000e+001
      endloop
   endfacet
   facet normal 8.355240e-001 -5.494540e-001 0.000000e+000
      outer loop
         vertex 1.876097e+000 7.704020e+000 0.000000e+000
         vertex 1.738169e+000 7.507038e+000 1.000000e+001
         vertex 1.738169e+000 7.507038e+000 0.000000e+000
      endloop
   endfacet
   facet normal 8.936031e-001 -4.488580e-001 0.000000e+000
      outer loop
         vertex 1.738169e+000 7.507038e+000 0.000000e+000
         vertex 1.738169e+000 7.507038e+000 1.000000e+001
         vertex 1.636542e+000 7.289099e+000 1.000000e+001
      endloop
   endfacet
   facet normal 9.182422e-001 -3.960194e-001 0.000000e+000
      outer loop
         vertex 1.738169e+000 7.507038e+000 0.000000e+000
         vertex 1.636542e+000 7.289099e+000 1.000000e+001
         vertex 1.636542e+000 7.289099e+000 0.000000e+000
      endloop
   endfacet
   facet normal 9.579706e-001 -2.868663e-001 0.000000e+000
      outer loop
         vertex 1.636542e+000 7.289099e+000 0.000000e+000
         vertex 1.636542e+000 7.289099e+000 1.000000e+001
         vertex 1.574304e+000 7.056823e+000 1.000000e+001
      endloop
   endfacet
   facet normal 9.730600e-001 -2.305519e-001 0.000000e+000
      outer loop
         vertex 1.636542e+000 7.289099e+000 0.000000e+000
         vertex 1.574304e+000 7.056823e+000 1.000000e+001
         vertex 1.574304e+000 7.056823e+000 0.000000e+000
      endloop
   endfacet
   facet normal 9.932307e-001 -1.161583e-001 0.000000e+000
      outer loop
         vertex 1.574304e+000 7.056823e+000 0.000000e+000
         vertex 1.574304e+000 7.056823e+000 1.000000e+001
         vertex 1.553345e+000 6.817268e+000 1.000000e+001
      endloop
   endfacet
   facet normal 9.983119e-001 -5.807913e-002 0.000000e+000
      outer loop
         vertex 1.574304e+000 7.056823e+000 0.000000e+000
         vertex 1.553345e+000 6.817268e+000 1.000000e+001
         vertex 1.553345e+000 6.817268e+000 0.000000e+000
      endloop
   endfacet
   facet normal 9.983119e-001 5.807913e-002 0.000000e+000
      outer loop
         vertex 1.553345e+000 6.817268e+000 0.000000e+000
         vertex 1.553345e+000 6.817268e+000 1.000000e+001
         vertex 1.574304e+000 6.577713e+000 1.000000e+001
      endloop
   endfacet
   facet normal 9.932307e-001 1.161583e-001 0.000000e+000
      outer loop
         vertex 1.553345e+000 6.817268e+000 0.000000e+000
         vertex 1.574304e+000 6.577713e+000 1.000000e+001
         vertex 1.574304e+000 6.577713e+000 0.000000e+000
      endloop
   endfacet
   facet normal 9.730600e-001 2.305519e-001 0.000000e+000
      outer loop
         vertex 1.574304e+000 6.577713e+000 0.000000e+000
         vertex 1.574304e+000 6.577713e+000 1.000000e+001
         vertex 1.636542e+000 6.345438e+000 1.000000e+001
      endloop
   endfacet
   facet normal 9.579706e-001 2.868663e-001 0.000000e+000
      outer loop
         vertex 1.574304e+000 6.577713e+000 0.000000e+000
         vertex 1.636542e+000 6.345438e+000 1.000000e+001
         vertex 1.636542e+000 6.345438e+000 0.000000e+000
      endloop
   endfacet
   facet normal 9.182422e-001 3.960194e-001 0.000000e+000
      outer loop
         vertex 1.636542e+000 6.345438e+000 0.000000e+000
         vertex 1.636542e+000 6.345438e+000 1.000000e+001
         vertex 1.738169e+000 6.127498e+000 1.000000e+001
      endloop
   endfacet
   facet normal 8.936031e-001 4.488580e-001 0.000000e+000
      outer loop
         vertex 1.636542e+000 6.345438e+000 0.000000e+000
         vertex 1.738169e+000 6.127498e+000 1.000000e+001
         vertex 1.738169e+000 6.127498e+000 0.000000e+000
      endloop
   endfacet
   facet normal 8.355240e-001 5.494540e-001 0.000000e+000
      outer loop
         vertex 1.738169e+000 6.127498e+000 0.000000e+000
         vertex 1.738169e+000 6.127498e+000 1.000000e+001
         vertex 1.876097e+000 5.930516e+000 1.000000e+001
      endloop
   endfacet
   facet normal 8.020838e-001 5.972114e-001 0.000000e+000
      outer loop
         vertex 1.738169e+000 6.127498e+000 0.000000e+000
         vertex 1.876097e+000 5.930516e+000 1.000000e+001
         vertex 1.876097e+000 5.930516e+000 0.000000e+000
      endloop
   endfacet
   facet normal 7.274188e-001 6.861938e-001 0.000000e+000
      outer loop
         vertex 1.876097e+000 5.930516e+000 0.000000e+000
         vertex 1.876097e+000 5.930516e+000 1.000000e+001
         vertex 2.046134e+000 5.760479e+000 1.000000e+001
      endloop
   endfacet
   facet normal 6.861938e-001 7.274188e-001 0.000000e+000
      outer loop
         vertex 1.876097e+000 5.930516e+000 0.000000e+000
         vertex 2.046134e+000 5.760479e+000 1.000000e+001
         vertex 2.046134e+000 5.760479e+000 0.000000e+000
      endloop
   endfacet
   facet normal 5.972114e-001 8.020838e-001 0.000000e+000
      outer loop
         vertex 2.046134e+000 5.760479e+000 0.000000e+000
         vertex 2.046134e+000 5.760479e+000 1.000000e+001
         vertex 2.243116e+000 5.622551e+000 1.000000e+001
      endloop
   endfacet
   facet normal 5.494540e-001 8.355240e-001 0.000000e+000
      outer loop
         vertex 2.046134e+000 5.760479e+000 0.000000e+000
         vertex 2.243116e+000 5.622551e+000 1.000000e+001
         vertex 2.243116e+000 5.622551e+000 0.000000e+000
      endloop
   endfacet
   facet normal 4.488580e-001 8.936031e-001 0.000000e+000
      outer loop
         vertex 2.243116e+000 5.622551e+000 0.000000e+000
         vertex 2.243116e+000 5.622551e+000 1.000000e+001
         vertex 2.461055e+000 5.520924e+000 1.000000e+001
      endloop
   endfacet
   facet normal 3.960194e-001 9.182422e-001 0.000000e+000
      outer loop
         vertex 2.243116e+000 5.622551e+000 0.000000e+000
         vertex 2.461055e+000 5.520924e+000 1.000000e+001
         vertex 2.461055e+000 5.520924e+000 0.000000e+000
      endloop
   endfacet
   facet normal 2.868663e-001 9.579706e-001 0.000000e+000
      outer loop
         vertex 2.461055e+000 5.520924e+000 0.000000e+000
         vertex 2.461055e+000 5.520924e+000 1.000000e+001
         vertex 2.693331e+000 5.458686e+000 1.000000e+001
      endloop
   endfacet
   facet normal 2.305519e-001 9.730600e-001 0.000000e+000
      outer loop
         vertex 2.461055e+000 5.520924e+000 0.000000e+000
         vertex 2.693331e+000 5.458686e+000 1.000000e+001
         vertex 2.693331e+000 5.458686e+000 0.000000e+000
      endloop
   endfacet
   facet normal 1.161583e-001 9.932307e-001 0.000000e+000
      outer loop
         vertex 2.693331e+000 5.458686e+000 0.000000e+000
         vertex 2.693331e+000 5.458686e+000 1.000000e+001
         vertex 2.932886e+000 5.437727e+000 1.000000e+001
      endloop
   endfacet
   facet normal 5.807913e-002 9.983119e-001 0.000000e+000
      outer loop
         vertex 2.693331e+000 5.458686e+000 0.000000e+000
         vertex 2.932886e+000 5.437727e+000 1.000000e+001
         vertex 2.932886e+000 5.437727e+000 0.000000e+000
      endloop
   endfacet
   facet normal -5.807913e-002 9.983119e-001 0.000000e+000
      outer loop
         vertex 2.932886e+000 5.437727e+000 0.000000e+000
         vertex 2.932886e+000 5.437727e+000 1.000000e+001
         vertex 3.172441e+000 5.458686e+000 1.000000e+001
      endloop
   endfacet
   facet normal -1.161583e-001 9.932307e-001 0.000000e+000
      outer loop
         vertex 2.932886e+000 5.437727e+000 0.000000e+000
         vertex 3.172441e+000 5.458686e+000 1.000000e+001
         vertex 3.172441e+000 5.458686e+000 0.000000e+000
      endloop
   endfacet
   facet normal -2.305519e-001 9.730600e-001 0.000000e+000
      outer loop
         vertex 3.172441e+000 5.458686e+000 0.000000e+000
         vertex 3.172441e+000 5.458686e+000 1.000000e+001
         vertex 3.404716e+000 5.520924e+000 1.000000e+001
      endloop
   endfacet
   facet normal -2.868663e-001 9.579706e-001 0.000000e+000
      outer loop
         vertex 3.172441e+000 5.458686e+000 0.000000e+000
         vertex 3.404716e+000 5.520924e+000 1.000000e+001
         vertex 3.404716e+000 5.520924e+000 0.000000e+000
      endloop
   endfacet
   facet normal -3.960194e-001 9.182422e-001 0.000000e+000
      outer loop
         vertex 3.404716e+000 5.520924e+000 0.000000e+000
         vertex 3.404716e+000 5.520924e+000 1.000000e+001
         vertex 3.622656e+000 5.622551e+000 1.000000e+001
      endloop
   endfacet
   facet normal -4.488580e-001 8.936031e-001 0.000000e+000
      outer loop
         vertex 3.404716e+000 5.520924e+000 0.000000e+000
         vertex 3.622656e+000 5.622551e+000 1.000000e+001
         vertex 3.622656e+000 5.622551e+000 0.000000e+000
      endloop
   endfacet
   facet normal -5.494540e-001 8.355240e-001 0.000000e+000
      outer loop
         vertex 3.622656e+000 5.622551e+000 0.000000e+000
         vertex 3.622656e+000 5.622551e+000 1.000000e+001
         vertex 3.819638e+000 5.760479e+000 1.000000e+001
      endloop
   endfacet
   facet normal -5.972114e-001 8.020838e-001 0.000000e+000
      outer loop
         vertex 3.622656e+000 5.622551e+000 0.000000e+000
         vertex 3.819638e+000 5.760479e+000 1.000000e+001
         vertex 3.819638e+000 5.760479e+000 0.000000e+000
      endloop
   endfacet
   facet normal -6.861938e-001 7.274188e-001 0.000000e+000
      outer loop
         vertex 3.819638e+000 5.760479e+000 0.000000e+000
         vertex 3.819638e+000 5.760479e+000 1.000000e+001
         vertex 3.989675e+000 5.930516e+000 1.000000e+001
      endloop
   endfacet
   facet normal -7.274188e-001 6.861938e-001 0.000000e+000
      outer loop
         vertex 3.819638e+000 5.760479e+000 0.000000e+000
         vertex 3.989675e+000 5.930516e+000 1.000000e+001
         vertex 3.989675e+000 5.930516e+000 0.000000e+000
      endloop
   endfacet
   facet normal -8.020838e-001 5.972114e-001 0.000000e+000
      outer loop
         vertex 3.989675e+000 5.930516e+000 0.000000e+000
         vertex 3.989675e+000 5.930516e+000 1.000000e+001
         vertex 4.127603e+000 6.127498e+000 1.000000e+001
      endloop
   endfacet
   facet normal -8.355240e-001 5.494540e-001 0.000000e+000
      outer loop
         vertex 3.989675e+000 5.930516e+000 0.000000e+000
         vertex 4.127603e+000 6.127498e+000 1.000000e+001
         vertex 4.127603e+000 6.127498e+000 0.000000e+000
      endloop
   endfacet
   facet normal -8.936031e-001 4.488580e-001 0.000000e+000
      outer loop
         vertex 4.127603e+000 6.127498e+000 0.000000e+000
         vertex 4.127603e+000 6.127498e+000 1.000000e+001
         vertex 4.229230e+000 6.345438e+000 1.000000e+001
      endloop
   endfacet
   facet normal -9.182422e-001 3.960194e-001 0.000000e+000
      outer loop
         vertex 4.127603e+000 6.127498e+000 0.000000e+000
         vertex 4.229230e+000 6.345438e+000 1.000000e+001
         vertex 4.229230e+000 6.345438e+000 0.000000e+000
      endloop
   endfacet
   facet normal -9.579706e-001 2.868663e-001 0.000000e+000
      outer loop
         vertex 4.229230e+000 6.345438e+000 0.000000e+000
         vertex 4.229230e+000 6.345438e+000 1.000000e+001
         vertex 4.291468e+000 6.577713e+000 1.000000e+001
      endloop
   endfacet
   facet normal -9.730600e-001 2.305519e-001 0.000000e+000
      outer loop
         vertex 4.229230e+000 6.345438e+000 0.000000e+000
         vertex 4.291468e+000 6.577713e+000 1.000000e+001
         vertex 4.291468e+000 6.577713e+000 0.000000e+000
      endloop
   endfacet
   facet normal -9.932307e-001 1.161583e-001 0.000000e+000
      outer loop
         vertex 4.291468e+000 6.577713e+000 0.000000e+000
         vertex 4.291468e+000 6.577713e+000 1.000000e+001
         vertex 4.312426e+000 6.817268e+000 1.000000e+001
      endloop
   endfacet
endsolid