solid 3_687
   facet normal -1.000000e+000 0.000000e+000 0.000000e+000
      outer loop
         vertex 0.000000e+000 1.000000e+001 1.000000e+001
         vertex 0.000000e+000 1.000000e+001 0.000000e+000
         vertex 0.000000e+000 0.000000e+000 1.000000e+001
      endloop
   endfacet
   facet normal -1.000000e+000 0.000000e+000 0.000000e+000
      outer loop
         vertex 0.000000e+000 0.000000e+000 1.000000e+001
         vertex 0.000000e+000 1.000000e+001 0.000000e+000
         vertex 0.000000e+000 0.000000e+000 0.000000e+000
      endloop
   endfacet
   facet normal 0.000000e+000 0.000000e+000 1.000000e+000
      outer loop
         vertex 8.305924e+000 6.842295e+000 1.000000e+001
         vertex 8.326112e+000 6.611551e+000 1.000000e+001
         vertex 1.000000e+001 1.000000e+001 1.000000e+001
      endloop
   endfacet
   facet normal 0.000000e+000 0.000000e+000 1.000000e+000
      outer loop
         vertex 7.228051e+000 7.920168e+000 1.000000e+001
         vertex 7.451785e+000 7.860219e+000 1.000000e+001
         vertex 1.000000e+001 1.000000e+001 1.000000e+001
      endloop
   endfacet
   facet normal 0.000000e+000 0.000000e+000 1.000000e+000
      outer loop
         vertex 1.000000e+001 1.000000e+001 1.000000e+001
         vertex 8.326112e+000 6.611551e+000 1.000000e+001
         vertex 1.000000e+001 0.000000e+000 1.000000e+001
      endloop
   endfacet
   facet normal 0.000000e+000 0.000000e+000 1.000000e+000
      outer loop
         vertex 1.000000e+001 0.000000e+000 1.000000e+001
         vertex 8.326112e+000 6.611551e+000 1.000000e+001
         vertex 8.305924e+000 6.380806e+000 1.000000e+001
      endloop
   endfacet
   facet normal 0.000000e+000 0.000000e+000 1.000000e+000
      outer loop
         vertex 1.000000e+001 0.000000e+000 1.000000e+001
         vertex 8.305924e+000 6.380806e+000 1.000000e+001
         vertex 8.245975e+000 6.157073e+000 1.000000e+001
      endloop
   endfacet
   facet normal 0.000000e+000 0.000000e+000 1.000000e+000
      outer loop
         vertex 8.245975e+000 6.157073e+000 1.000000e+001
         vertex 8.148086e+000 5.947148e+000 1.000000e+001
         vertex 1.000000e+001 0.000000e+000 1.000000e+001
      endloop
   endfacet
   facet normal 0.000000e+000 0.000000e+000 1.000000e+000
      outer loop
         vertex 1.000000e+001 0.000000e+000 1.000000e+001
         vertex 8.148086e+000 5.947148e+000 1.000000e+001
         vertex 8.015230e+000 5.757411e+000 1.000000e+001
      endloop
   endfacet
   facet normal 0.000000e+000 0.000000e+000 1.000000e+000
      outer loop
         vertex 1.000000e+001 0.000000e+000 1.000000e+001
         vertex 8.015230e+000 5.757411e+000 1.000000e+001
         vertex 7.851446e+000 5.593627e+000 1.000000e+001
      endloop
   endfacet
   facet normal 0.000000e+000 0.000000e+000 1.000000e+000
      outer loop
         vertex 7.851446e+000 5.593627e+000 1.000000e+001
         vertex 7.661709e+000 5.460772e+000 1.000000e+001
         vertex 1.000000e+001 0.000000e+000 1.000000e+001
      endloop
   endfacet
   facet normal 0.000000e+000 0.000000e+000 1.000000e+000
      outer loop
         vertex 1.000000e+001 0.000000e+000 1.000000e+001
         vertex 7.661709e+000 5.460772e+000 1.000000e+001
         vertex 7.451785e+000 5.362882e+000 1.000000e+001
      endloop
   endfacet
   facet normal 0.000000e+000 0.000000e+000 1.000000e+000
      outer loop
         vertex 1.000000e+001 0.000000e+000 1.000000e+001
         vertex 7.451785e+000 5.362882e+000 1.000000e+001
         vertex 7.228051e+000 5.302934e+000 1.000000e+001
      endloop
   endfacet
   facet normal 0.000000e+000 0.000000e+000 1.000000e+000
      outer loop
         vertex 7.451785e+000 7.860219e+000 1.000000e+001
         vertex 7.661709e+000 7.762330e+000 1.000000e+001
         vertex 1.000000e+001 1.000000e+001 1.000000e+001
      endloop
   endfacet
   facet normal 0.000000e+000 0.000000e+000 1.000000e+000
      outer loop
         vertex 1.000000e+001 1.000000e+001 1.000000e+001
         vertex 7.661709e+000 7.762330e+000 1.000000e+001
         vertex 7.851446e+000 7.629475e+000 1.000000e+001
      endloop
   endfacet
   facet normal 0.000000e+000 0.000000e+000 1.000000e+000
      outer loop
         vertex 1.000000e+001 1.000000e+001 1.000000e+001
         vertex 7.851446e+000 7.629475e+000 1.000000e+001
         vertex 8.015230e+000 7.465691e+000 1.000000e+001
      endloop
   endfacet
   facet normal 0.000000e+000 0.000000e+000 1.000000e+000
      outer loop
         vertex 6.332904e+000 5.460772e+000 1.000000e+001
         vertex 6.143167e+000 5.593627e+000 1.000000e+001
         vertex 0.000000e+000 0.000000e+000 1.000000e+001
      endloop
   endfacet
   facet normal 0.000000e+000 0.000000e+000 1.000000e+000
      outer loop
         vertex 0.000000e+000 0.000000e+000 1.000000e+001
         vertex 6.143167e+000 5.593627e+000 1.000000e+001
         vertex 5.979383e+000 5.757411e+000 1.000000e+001
      endloop
   endfacet
   facet normal 0.000000e+000 0.000000e+000 1.000000e+000
      outer loop
         vertex 0.000000e+000 0.000000e+000 1.000000e+001
         vertex 5.979383e+000 5.757411e+000 1.000000e+001
         vertex 5.846528e+000 5.947148e+000 1.000000e+001
      endloop
   endfacet
   facet normal 0.000000e+000 0.000000e+000 1.000000e+000
      outer loop
         vertex 8.015230e+000 7.465691e+000 1.000000e+001
         vertex 8.148086e+000 7.275953e+000 1.000000e+001
         vertex 1.000000e+001 1.000000e+001 1.000000e+001
      endloop
   endfacet
   facet normal 0.000000e+000 0.000000e+000 1.000000e+000
      outer loop
         vertex 1.000000e+001 1.000000e+001 1.000000e+001
         vertex 8.148086e+000 7.275953e+000 1.000000e+001
         vertex 8.245975e+000 7.066029e+000 1.000000e+001
      endloop
   endfacet
   facet normal 0.000000e+000 0.000000e+000 1.000000e+000
      outer loop
         vertex 1.000000e+001 1.000000e+001 1.000000e+001
         vertex 8.245975e+000 7.066029e+000 1.000000e+001
         vertex 8.305924e+000 6.842295e+000 1.000000e+001
      endloop
   endfacet
   facet normal 0.000000e+000 0.000000e+000 1.000000e+000
      outer loop
         vertex 7.228051e+000 5.302934e+000 1.000000e+001
         vertex 6.997306e+000 5.282746e+000 1.000000e+001
         vertex 1.000000e+001 0.000000e+000 1.000000e+001
      endloop
   endfacet
   facet normal 0.000000e+000 0.000000e+000 1.000000e+000
      outer loop
         vertex 1.000000e+001 0.000000e+000 1.000000e+001
         vertex 6.997306e+000 5.282746e+000 1.000000e+001
         vertex 6.766562e+000 5.302934e+000 1.000000e+001
      endloop
   endfacet
   facet normal 0.000000e+000 0.000000e+000 1.000000e+000
      outer loop
         vertex 1.000000e+001 0.000000e+000 1.000000e+001
         vertex 6.766562e+000 5.302934e+000 1.000000e+001
         vertex 0.000000e+000 0.000000e+000 1.000000e+001
      endloop
   endfacet
   facet normal 0.000000e+000 0.000000e+000 1.000000e+000
      outer loop
         vertex 0.000000e+000 0.000000e+000 1.000000e+001
         vertex 6.766562e+000 5.302934e+000 1.000000e+001
         vertex 6.542829e+000 5.362882e+000 1.000000e+001
      endloop
   endfacet
   facet normal 0.000000e+000 0.000000e+000 1.000000e+000
      outer loop
         vertex 0.000000e+000 0.000000e+000 1.000000e+001
         vertex 6.542829e+000 5.362882e+000 1.000000e+001
         vertex 6.332904e+000 5.460772e+000 1.000000e+001
      endloop
   endfacet
   facet normal 0.000000e+000 0.000000e+000 1.000000e+000
      outer loop
         vertex 6.332904e+000 7.762330e+000 1.000000e+001
         vertex 6.542829e+000 7.860219e+000 1.000000e+001
         vertex 0.000000e+000 1.000000e+001 1.000000e+001
      endloop
   endfacet
   facet normal 0.000000e+000 0.000000e+000 1.000000e+000
      outer loop
         vertex 0.000000e+000 1.000000e+001 1.000000e+001
         vertex 6.542829e+000 7.860219e+000 1.000000e+001
         vertex 6.766562e+000 7.920168e+000 1.000000e+001
      endloop
   endfacet
   facet normal 0.000000e+000 0.000000e+000 1.000000e+000
      outer loop
         vertex 0.000000e+000 1.000000e+001 1.000000e+001
         vertex 6.766562e+000 7.920168e+000 1.000000e+001
         vertex 1.000000e+001 1.000000e+001 1.000000e+001
      endloop
   endfacet
   facet normal 0.000000e+000 0.000000e+000 1.000000e+000
      outer loop
         vertex 1.000000e+001 1.000000e+001 1.000000e+001
         vertex 6.766562e+000 7.920168e+000 1.000000e+001
         vertex 6.997306e+000 7.940356e+000 1.000000e+001
      endloop
   endfacet
   facet normal 0.000000e+000 0.000000e+000 1.000000e+000
      outer loop
         vertex 1.000000e+001 1.000000e+001 1.000000e+001
         vertex 6.997306e+000 7.940356e+000 1.000000e+001
         vertex 7.228051e+000 7.920168e+000 1.000000e+001
      endloop
   endfacet
   facet normal 0.000000e+000 0.000000e+000 1.000000e+000
      outer loop
         vertex 5.846528e+000 5.947148e+000 1.000000e+001
         vertex 5.748639e+000 6.157073e+000 1.000000e+001
         vertex 0.000000e+000 0.000000e+000 1.000000e+001
      endloop
   endfacet
   facet normal 0.000000e+000 0.000000e+000 1.000000e+000
      outer loop
         vertex 0.000000e+000 0.000000e+000 1.000000e+001
         vertex 5.748639e+000 6.157073e+000 1.000000e+001
         vertex 5.688689e+000 6.380806e+000 1.000000e+001
      endloop
   endfacet
   facet normal 0.000000e+000 0.000000e+000 1.000000e+000
      outer loop
         vertex 0.000000e+000 0.000000e+000 1.000000e+001
         vertex 5.688689e+000 6.380806e+000 1.000000e+001
         vertex 0.000000e+000 1.000000e+001 1.000000e+001
      endloop
   endfacet
   facet normal 0.000000e+000 0.000000e+000 1.000000e+000
      outer loop
         vertex 0.000000e+000 1.000000e+001 1.000000e+001
         vertex 5.688689e+000 6.380806e+000 1.000000e+001
         vertex 5.668501e+000 6.611551e+000 1.000000e+001
      endloop
   endfacet
   facet normal 0.000000e+000 0.000000e+000 1.000000e+000
      outer loop
         vertex 5.668501e+000 6.611551e+000 1.000000e+001
         vertex 5.688689e+000 6.842295e+000 1.000000e+001
         vertex 0.000000e+000 1.000000e+001 1.000000e+001
      endloop
   endfacet
   facet normal 0.000000e+000 0.000000e+000 1.000000e+000
      outer loop
         vertex 0.000000e+000 1.000000e+001 1.000000e+001
         vertex 5.688689e+000 6.842295e+000 1.000000e+001
         vertex 5.748639e+000 7.066029e+000 1.000000e+001
      endloop
   endfacet
   facet normal 0.000000e+000 0.000000e+000 1.000000e+000
      outer loop
         vertex 0.000000e+000 1.000000e+001 1.000000e+001
         vertex 5.748639e+000 7.066029e+000 1.000000e+001
         vertex 5.846528e+000 7.275953e+000 1.000000e+001
      endloop
   endfacet
   facet normal 0.000000e+000 0.000000e+000 1.000000e+000
      outer loop
         vertex 5.846528e+000 7.275953e+000 1.000000e+001
         vertex 5.979383e+000 7.465691e+000 1.000000e+001
         vertex 0.000000e+000 1.000000e+001 1.000000e+001
      endloop
   endfacet
   facet normal 0.000000e+000 0.000000e+000 1.000000e+000
      outer loop
         vertex 0.000000e+000 1.000000e+001 1.000000e+001
         vertex 5.979383e+000 7.465691e+000 1.000000e+001
         vertex 6.143167e+000 7.629475e+000 1.000000e+001
      endloop
   endfacet
   facet normal 0.000000e+000 0.000000e+000 1.000000e+000
      outer loop
         vertex 0.000000e+000 1.000000e+001 1.000000e+001
         vertex 6.143167e+000 7.629475e+000 1.000000e+001
         vertex 6.332904e+000 7.762330e+000 1.000000e+001
      endloop
   endfacet
   facet normal 1.000000e+000 0.000000e+000 0.000000e+000
      outer loop
         vertex 1.000000e+001 1.000000e+001 0.000000e+000
         vertex 1.000000e+001 1.000000e+001 1.000000e+001
         vertex 1.000000e+001 0.000000e+000 0.000000e+000
      endloop
   endfacet
   facet normal 1.000000e+000 0.000000e+000 0.000000e+000
      outer loop
         vertex 1.000000e+001 0.000000e+000 0.000000e+000
         vertex 1.000000e+001 1.000000e+001 1.000000e+001
         vertex 1.000000e+001 0.000000e+000 1.000000e+001
      endloop
   endfacet
   facet normal 0.000000e+000 0.000000e+000 -1.000000e+000
      outer loop
         vertex 8.015230e+000 5.757411e+000 0.000000e+000
         vertex 8.148086e+000 5.947148e+000 0.000000e+000
         vertex 1.000000e+001 0.000000e+000 0.000000e+000
      endloop
   endfacet
   facet normal 0.000000e+000 0.000000e+000 -1.000000e+000
      outer loop
         vertex 6.997306e+000 5.282746e+000 0.000000e+000
         vertex 7.228051e+000 5.302934e+000 0.000000e+000
         vertex 1.000000e+001 0.000000e+000 0.000000e+000
      endloop
   endfacet
   facet normal 0.000000e+000 0.000000e+000 -1.000000e+000
      outer loop
         vertex 1.000000e+001 0.000000e+000 0.000000e+000
         vertex 7.228051e+000 5.302934e+000 0.000000e+000
         vertex 7.451785e+000 5.362882e+000 0.000000e+000
      endloop
   endfacet
   facet normal 0.000000e+000 0.000000e+000 -1.000000e+000
      outer loop
         vertex 0.000000e+000 1.000000e+001 0.000000e+000
         vertex 5.668501e+000 6.611551e+000 0.000000e+000
         vertex 0.000000e+000 0.000000e+000 0.000000e+000
      endloop
   endfacet
   facet normal 0.000000e+000 0.000000e+000 -1.000000e+000
      outer loop
         vertex 0.000000e+000 0.000000e+000 0.000000e+000
         vertex 5.668501e+000 6.611551e+000 0.000000e+000
         vertex 5.688689e+000 6.380806e+000 0.000000e+000
      endloop
   endfacet
   facet normal 0.000000e+000 0.000000e+000 -1.000000e+000
      outer loop
         vertex 0.000000e+000 0.000000e+000 0.000000e+000
         vertex 5.688689e+000 6.380806e+000 0.000000e+000
         vertex 5.748639e+000 6.157073e+000 0.000000e+000
      endloop
   endfacet
   facet normal 0.000000e+000 0.000000e+000 -1.000000e+000
      outer loop
         vertex 7.451785e+000 5.362882e+000 0.000000e+000
         vertex 7.661709e+000 5.460772e+000 0.000000e+000
         vertex 1.000000e+001 0.000000e+000 0.000000e+000
      endloop
   endfacet
   facet normal 0.000000e+000 0.000000e+000 -1.000000e+000
      outer loop
         vertex 1.000000e+001 0.000000e+000 0.000000e+000
         vertex 7.661709e+000 5.460772e+000 0.000000e+000
         vertex 7.851446e+000 5.593627e+000 0.000000e+000
      endloop
   endfacet
   facet normal 0.000000e+000 0.000000e+000 -1.000000e+000
      outer loop
         vertex 1.000000e+001 0.000000e+000 0.000000e+000
         vertex 7.851446e+000 5.593627e+000 0.000000e+000
         vertex 8.015230e+000 5.757411e+000 0.000000e+000
      endloop
   endfacet
   facet normal 0.000000e+000 0.000000e+000 -1.000000e+000
      outer loop
         vertex 1.000000e+001 1.000000e+001 0.000000e+000
         vertex 8.305924e+000 6.842295e+000 0.000000e+000
         vertex 8.245975e+000 7.066029e+000 0.000000e+000
      endloop
   endfacet
   facet normal 0.000000e+000 0.000000e+000 -1.000000e+000
      outer loop
         vertex 7.451785e+000 7.860219e+000 0.000000e+000
         vertex 1.000000e+001 1.000000e+001 0.000000e+000
         vertex 7.661709e+000 7.762330e+000 0.000000e+000
      endloop
   endfacet
   facet normal 0.000000e+000 0.000000e+000 -1.000000e+000
      outer loop
         vertex 7.661709e+000 7.762330e+000 0.000000e+000
         vertex 1.000000e+001 1.000000e+001 0.000000e+000
         vertex 7.851446e+000 7.629475e+000 0.000000e+000
      endloop
   endfacet
   facet normal 0.000000e+000 0.000000e+000 -1.000000e+000
      outer loop
         vertex 6.542829e+000 7.860219e+000 0.000000e+000
         vertex 6.332904e+000 7.762330e+000 0.000000e+000
         vertex 0.000000e+000 1.000000e+001 0.000000e+000
      endloop
   endfacet
   facet normal 0.000000e+000 0.000000e+000 -1.000000e+000
      outer loop
         vertex 5.748639e+000 6.157073e+000 0.000000e+000
         vertex 5.846528e+000 5.947148e+000 0.000000e+000
         vertex 0.000000e+000 0.000000e+000 0.000000e+000
      endloop
   endfacet
   facet normal 0.000000e+000 0.000000e+000 -1.000000e+000
      outer loop
         vertex 0.000000e+000 0.000000e+000 0.000000e+000
         vertex 5.846528e+000 5.947148e+000 0.000000e+000
         vertex 5.979383e+000 5.757411e+000 0.000000e+000
      endloop
   endfacet
   facet normal 0.000000e+000 0.000000e+000 -1.000000e+000
      outer loop
         vertex 0.000000e+000 0.000000e+000 0.000000e+000
         vertex 5.979383e+000 5.757411e+000 0.000000e+000
         vertex 6.143167e+000 5.593627e+000 0.000000e+000
      endloop
   endfacet
   facet normal 0.000000e+000 0.000000e+000 -1.000000e+000
      outer loop
         vertex 8.148086e+000 5.947148e+000 0.000000e+000
         vertex 8.245975e+000 6.157073e+000 0.000000e+000
         vertex 1.000000e+001 0.000000e+000 0.000000e+000
      endloop
   endfacet
   facet normal 0.000000e+000 0.000000e+000 -1.000000e+000
      outer loop
         vertex 1.000000e+001 0.000000e+000 0.000000e+000
         vertex 8.245975e+000 6.157073e+000 0.000000e+000
         vertex 8.305924e+000 6.380806e+000 0.000000e+000
      endloop
   endfacet
   facet normal 0.000000e+000 0.000000e+000 -1.000000e+000
      outer loop
         vertex 1.000000e+001 0.000000e+000 0.000000e+000
         vertex 8.305924e+000 6.380806e+000 0.000000e+000
         vertex 1.000000e+001 1.000000e+001 0.000000e+000
      endloop
   endfacet
   facet normal 0.000000e+000 0.000000e+000 -1.000000e+000
      outer loop
         vertex 1.000000e+001 1.000000e+001 0.000000e+000
         vertex 8.305924e+000 6.380806e+000 0.000000e+000
         vertex 8.326112e+000 6.611551e+000 0.000000e+000
      endloop
   endfacet
   facet normal 0.000000e+000 0.000000e+000 -1.000000e+000
      outer loop
         vertex 1.000000e+001 1.000000e+001 0.000000e+000
         vertex 8.326112e+000 6.611551e+000 0.000000e+000
         vertex 8.305924e+000 6.842295e+000 0.000000e+000
      endloop
   endfacet
   facet normal 0.000000e+000 0.000000e+000 -1.000000e+000
      outer loop
         vertex 7.451785e+000 7.860219e+000 0.000000e+000
         vertex 7.228051e+000 7.920168e+000 0.000000e+000
         vertex 1.000000e+001 1.000000e+001 0.000000e+000
      endloop
   endfacet
   facet normal 0.000000e+000 0.000000e+000 -1.000000e+000
      outer loop
         vertex 1.000000e+001 1.000000e+001 0.000000e+000
         vertex 7.228051e+000 7.920168e+000 0.000000e+000
         vertex 6.997306e+000 7.940356e+000 0.000000e+000
      endloop
   endfacet
   facet normal 0.000000e+000 0.000000e+000 -1.000000e+000
      outer loop
         vertex 1.000000e+001 1.000000e+001 0.000000e+000
         vertex 6.997306e+000 7.940356e+000 0.000000e+000
         vertex 0.000000e+000 1.000000e+001 0.000000e+000
      endloop
   endfacet
   facet normal 0.000000e+000 0.000000e+000 -1.000000e+000
      outer loop
         vertex 0.000000e+000 1.000000e+001 0.000000e+000
         vertex 6.997306e+000 7.940356e+000 0.000000e+000
         vertex 6.766562e+000 7.920168e+000 0.000000e+000
      endloop
   endfacet
   facet normal 0.000000e+000 0.000000e+000 -1.000000e+000
      outer loop
         vertex 0.000000e+000 1.000000e+001 0.000000e+000
         vertex 6.766562e+000 7.920168e+000 0.000000e+000
         vertex 6.542829e+000 7.860219e+000 0.000000e+000
      endloop
   endfacet
   facet normal 0.000000e+000 0.000000e+000 -1.000000e+000
      outer loop
         vertex 6.332904e+000 7.762330e+000 0.000000e+000
         vertex 6.143167e+000 7.629475e+000 0.000000e+000
         vertex 0.000000e+000 1.000000e+001 0.000000e+000
      endloop
   endfacet
   facet normal 0.000000e+000 0.000000e+000 -1.000000e+000
      outer loop
         vertex 0.000000e+000 1.000000e+001 0.000000e+000
         vertex 6.143167e+000 7.629475e+000 0.000000e+000
         vertex 5.979383e+000 7.465691e+000 0.000000e+000
      endloop
   endfacet
   facet normal 0.000000e+000 0.000000e+000 -1.000000e+000
      outer loop
         vertex 0.000000e+000 1.000000e+001 0.000000e+000
         vertex 5.979383e+000 7.465691e+000 0.000000e+000
         vertex 5.846528e+000 7.275953e+000 0.000000e+000
      endloop
   endfacet
   facet normal 0.000000e+000 0.000000e+000 -1.000000e+000
      outer loop
         vertex 8.245975e+000 7.066029e+000 0.000000e+000
         vertex 8.148086e+000 7.275953e+000 0.000000e+000
         vertex 1.000000e+001 1.000000e+001 0.000000e+000
      endloop
   endfacet
   facet normal 0.000000e+000 0.000000e+000 -1.000000e+000
      outer loop
         vertex 1.000000e+001 1.000000e+001 0.000000e+000
         vertex 8.148086e+000 7.275953e+000 0.000000e+000
         vertex 8.015230e+000 7.465691e+000 0.000000e+000
      endloop
   endfacet
   facet normal 0.000000e+000 0.000000e+000 -1.000000e+000
      outer loop
         vertex 1.000000e+001 1.000000e+001 0.000000e+000
         vertex 8.015230e+000 7.465691e+000 0.000000e+000
         vertex 7.851446e+000 7.629475e+000 0.000000e+000
      endloop
   endfacet
   facet normal 0.000000e+000 0.000000e+000 -1.000000e+000
      outer loop
         vertex 6.143167e+000 5.593627e+000 0.000000e+000
         vertex 6.332904e+000 5.460772e+000 0.000000e+000
         vertex 0.000000e+000 0.000000e+000 0.000000e+000
      endloop
   endfacet
   facet normal 0.000000e+000 0.000000e+000 -1.000000e+000
      outer loop
         vertex 0.000000e+000 0.000000e+000 0.000000e+000
         vertex 6.332904e+000 5.460772e+000 0.000000e+000
         vertex 6.542829e+000 5.362882e+000 0.000000e+000
      endloop
   endfacet
   facet normal 0.000000e+000 0.000000e+000 -1.000000e+000
      outer loop
         vertex 0.000000e+000 0.000000e+000 0.000000e+000
         vertex 6.542829e+000 5.362882e+000 0.000000e+000
         vertex 1.000000e+001 0.000000e+000 0.000000e+000
      endloop
   endfacet
   facet normal 0.000000e+000 0.000000e+000 -1.000000e+000
      outer loop
         vertex 1.000000e+001 0.000000e+000 0.000000e+000
         vertex 6.542829e+000 5.362882e+000 0.000000e+000
         vertex 6.766562e+000 5.302934e+000 0.000000e+000
      endloop
   endfacet
   facet normal 0.000000e+000 0.000000e+000 -1.000000e+000
      outer loop
         vertex 1.000000e+001 0.000000e+000 0.000000e+000
         vertex 6.766562e+000 5.302934e+000 0.000000e+000
         vertex 6.997306e+000 5.282746e+000 0.000000e+000
      endloop
   endfacet
   facet normal 0.000000e+000 0.000000e+000 -1.000000e+000
      outer loop
         vertex 5.846528e+000 7.275953e+000 0.000000e+000
         vertex 5.748639e+000 7.066029e+000 0.000000e+000
         vertex 0.000000e+000 1.000000e+001 0.000000e+000
      endloop
   endfacet
   facet normal 0.000000e+000 0.000000e+000 -1.000000e+000
      outer loop
         vertex 0.000000e+000 1.000000e+001 0.000000e+000
         vertex 5.748639e+000 7.066029e+000 0.000000e+000
         vertex 5.688689e+000 6.842295e+000 0.000000e+000
      endloop
   endfacet
   facet normal 0.000000e+000 0.000000e+000 -1.000000e+000
      outer loop
         vertex 0.000000e+000 1.000000e+001 0.000000e+000
         vertex 5.688689e+000 6.842295e+000 0.000000e+000
         vertex 5.668501e+000 6.611551e+000 0.000000e+000
      endloop
   endfacet
   facet normal 0.000000e+000 1.000000e+000 0.000000e+000
      outer loop
         vertex 1.000000e+001 1.000000e+001 1.000000e+001
         vertex 1.000000e+001 1.000000e+001 0.000000e+000
         vertex 0.000000e+000 1.000000e+001 1.000000e+001
      endloop
   endfacet
   facet normal 0.000000e+000 1.000000e+000 0.000000e+000
      outer loop
         vertex 0.000000e+000 1.000000e+001 1.000000e+001
         vertex 1.000000e+001 1.000000e+001 0.000000e+000
         vertex 0.000000e+000 1.000000e+001 0.000000e+000
      endloop
   endfacet
   facet normal 0.000000e+000 -1.000000e+000 0.000000e+000
      outer loop
         vertex 1.000000e+001 0.000000e+000 0.000000e+000
         vertex 1.000000e+001 0.000000e+000 1.000000e+001
         vertex 0.000000e+000 0.000000e+000 0.000000e+000
      endloop
   endfacet
   facet normal 0.000000e+000 -1.000000e+000 0.000000e+000
      outer loop
         vertex 0.000000e+000 0.000000e+000 0.000000e+000
         vertex 1.000000e+001 0.000000e+000 1.000000e+001
         vertex 0.000000e+000 0.000000e+000 1.000000e+001
      endloop
   endfacet
   facet normal -9.983119e-001 5.807913e-002 0.000000e+000
      outer loop
         vertex 8.305924e+000 6.380806e+000 0.000000e+000
         vertex 8.326112e+000 6.611551e+000 1.000000e+001
         vertex 8.326112e+000 6.611551e+000 0.000000e+000
      endloop
   endfacet
   facet normal -9.983119e-001 -5.807913e-002 0.000000e+000
      outer loop
         vertex 8.326112e+000 6.611551e+000 0.000000e+000
         vertex 8.326112e+000 6.611551e+000 1.000000e+001
         vertex 8.305924e+000 6.842295e+000 1.000000e+001
      endloop
   endfacet
   facet normal -9.932307e-001 -1.161583e-001 0.000000e+000
      outer loop
         vertex 8.326112e+000 6.611551e+000 0.000000e+000
         vertex 8.305924e+000 6.842295e+000 1.000000e+001
         vertex 8.305924e+000 6.842295e+000 0.000000e+000
      endloop
   endfacet
   facet normal -9.730600e-001 -2.305519e-001 0.000000e+000
      outer loop
         vertex 8.305924e+000 6.842295e+000 0.000000e+000
         vertex 8.305924e+000 6.842295e+000 1.000000e+001
         vertex 8.245975e+000 7.066029e+000 1.000000e+001
      endloop
   endfacet
   facet normal -9.579706e-001 -2.868663e-001 0.000000e+000
      outer loop
         vertex 8.305924e+000 6.842295e+000 0.000000e+000
         vertex 8.245975e+000 7.066029e+000 1.000000e+001
         vertex 8.245975e+000 7.066029e+000 0.000000e+000
      endloop
   endfacet
   facet normal -9.182422e-001 -3.960194e-001 0.000000e+000
      outer loop
         vertex 8.245975e+000 7.066029e+000 0.000000e+000
         vertex 8.245975e+000 7.066029e+000 1.000000e+001
         vertex 8.148086e+000 7.275953e+000 1.000000e+001
      endloop
   endfacet
   facet normal -8.936031e-001 -4.488580e-001 0.000000e+000
      outer loop
         vertex 8.245975e+000 7.066029e+000 0.000000e+000
         vertex 8.148086e+000 7.275953e+000 1.000000e+001
         vertex 8.148086e+000 7.275953e+000 0.000000e+000
      endloop
   endfacet
   facet normal -8.355240e-001 -5.494540e-001 0.000000e+000
      outer loop
         vertex 8.148086e+000 7.275953e+000 0.000000e+000
         vertex 8.148086e+000 7.275953e+000 1.000000e+001
         vertex 8.015230e+000 7.465691e+000 1.000000e+001
      endloop
   endfacet
   facet normal -8.020838e-001 -5.972114e-001 0.000000e+000
      outer loop
         vertex 8.148086e+000 7.275953e+000 0.000000e+000
         vertex 8.015230e+000 7.465691e+000 1.000000e+001
         vertex 8.015230e+000 7.465691e+000 0.000000e+000
      endloop
   endfacet
   facet normal -7.274188e-001 -6.861938e-001 0.000000e+000
      outer loop
         vertex 8.015230e+000 7.465691e+000 0.000000e+000
         vertex 8.015230e+000 7.465691e+000 1.000000e+001
         vertex 7.851446e+000 7.629475e+000 1.000000e+001
      endloop
   endfacet
   facet normal -6.861938e-001 -7.274188e-001 0.000000e+000
      outer loop
         vertex 8.015230e+000 7.465691e+000 0.000000e+000
         vertex 7.851446e+000 7.629475e+000 1.000000e+001
         vertex 7.851446e+000 7.629475e+000 0.000000e+000
      endloop
   endfacet
   facet normal -5.972114e-001 -8.020838e-001 0.000000e+000
      outer loop
         vertex 7.851446e+000 7.629475e+000 0.000000e+000
         vertex 7.851446e+000 7.629475e+000 1.000000e+001
         vertex 7.661709e+000 7.762330e+000 1.000000e+001
      endloop
   endfacet
   facet normal -5.494540e-001 -8.355240e-001 0.000000e+000
      outer loop
         vertex 7.851446e+000 7.629475e+000 0.000000e+000
         vertex 7.661709e+000 7.762330e+000 1.000000e+001
         vertex 7.661709e+000 7.762330e+000 0.000000e+000
      endloop
   endfacet
   facet normal -4.488580e-001 -8.936031e-001 0.000000e+000
      outer loop
         vertex 7.661709e+000 7.762330e+000 0.000000e+000
         vertex 7.661709e+000 7.762330e+000 1.000000e+001
         vertex 7.451785e+000 7.860219e+000 1.000000e+001
      endloop
   endfacet
   facet normal -3.960194e-001 -9.182422e-001 0.000000e+000
      outer loop
         vertex 7.661709e+000 7.762330e+000 0.000000e+000
         vertex 7.451785e+000 7.860219e+000 1.000000e+001
         vertex 7.451785e+000 7.860219e+000 0.000000e+000
      endloop
   endfacet
   facet normal -2.868663e-001 -9.579706e-001 0.000000e+000
      outer loop
         vertex 7.451785e+000 7.860219e+000 0.000000e+000
         vertex 7.451785e+000 7.860219e+000 1.000000e+001
         vertex 7.228051e+000 7.920168e+000 1.000000e+001
      endloop
   endfacet
   facet normal -2.305519e-001 -9.730600e-001 0.000000e+000
      outer loop
         vertex 7.451785e+000 7.860219e+000 0.000000e+000
         vertex 7.228051e+000 7.920168e+000 1.000000e+001
         vertex 7.228051e+000 7.920168e+000 0.000000e+000
      endloop
   endfacet
   facet normal -1.161583e-001 -9.932307e-001 0.000000e+000
      outer loop
         vertex 7.228051e+000 7.920168e+000 0.000000e+000
         vertex 7.228051e+000 7.920168e+000 1.000000e+001
         vertex 6.997306e+000 7.940356e+000 1.000000e+001
      endloop
   endfacet
   facet normal -5.807913e-002 -9.983119e-001 0.000000e+000
      outer loop
         vertex 7.228051e+000 7.920168e+000 0.000000e+000
         vertex 6.997306e+000 7.940356e+000 1.000000e+001
         vertex 6.997306e+000 7.940356e+000 0.000000e+000
      endloop
   endfacet
   facet normal 5.807913e-002 -9.983119e-001 0.000000e+000
      outer loop
         vertex 6.997306e+000 7.940356e+000 0.000000e+000
         vertex 6.997306e+000 7.940356e+000 1.000000e+001
         vertex 6.766562e+000 7.920168e+000 1.000000e+001
      endloop
   endfacet
   facet normal 1.161583e-001 -9.932307e-001 0.000000e+000
      outer loop
         vertex 6.997306e+000 7.940356e+000 0.000000e+000
         vertex 6.766562e+000 7.920168e+000 1.000000e+001
         vertex 6.766562e+000 7.920168e+000 0.000000e+000
      endloop
   endfacet
   facet normal 2.305519e-001 -9.730600e-001 0.000000e+000
      outer loop
         vertex 6.766562e+000 7.920168e+000 0.000000e+000
         vertex 6.766562e+000 7.920168e+000 1.000000e+001
         vertex 6.542829e+000 7.860219e+000 1.000000e+001
      endloop
   endfacet
   facet normal 2.868663e-001 -9.579706e-001 0.000000e+000
      outer loop
         vertex 6.766562e+000 7.920168e+000 0.000000e+000
         vertex 6.542829e+000 7.860219e+000 1.000000e+001
         vertex 6.542829e+000 7.860219e+000 0.000000e+000
      endloop
   endfacet
   facet normal 3.960194e-001 -9.182422e-001 0.000000e+000
      outer loop
         vertex 6.542829e+000 7.860219e+000 0.000000e+000
         vertex 6.542829e+000 7.860219e+000 1.000000e+001
         vertex 6.332904e+000 7.762330e+000 1.000000e+001
      endloop
   endfacet
   facet normal 4.488580e-001 -8.936031e-001 0.000000e+000
      outer loop
         vertex 6.542829e+000 7.860219e+000 0.000000e+000
         vertex 6.332904e+000 7.762330e+000 1.000000e+001
         vertex 6.332904e+000 7.762330e+000 0.000000e+000
      endloop
   endfacet
   facet normal 5.494540e-001 -8.355240e-001 0.000000e+000
      outer loop
         vertex 6.332904e+000 7.762330e+000 0.000000e+000
         vertex 6.332904e+000 7.762330e+000 1.000000e+001
         vertex 6.143167e+000 7.629475e+000 1.000000e+001
      endloop
   endfacet
   facet normal 5.972114e-001 -8.020838e-001 0.000000e+000
      outer loop
         vertex 6.332904e+000 7.762330e+000 0.000000e+000
         vertex 6.143167e+000 7.629475e+000 1.000000e+001
         vertex 6.143167e+000 7.629475e+000 0.000000e+000
      endloop
   endfacet
   facet normal 6.861938e-001 -7.274188e-001 0.000000e+000
      outer loop
         vertex 6.143167e+000 7.629475e+000 0.000000e+000
         vertex 6.143167e+000 7.629475e+000 1.000000e+001
         vertex 5.979383e+000 7.465691e+000 1.000000e+001
      endloop
   endfacet
   facet normal 7.274188e-001 -6.861938e-001 0.000000e+000
      outer loop
         vertex 6.143167e+000 7.629475e+000 0.000000e+000
         vertex 5.979383e+000 7.465691e+000 1.000000e+001
         vertex 5.979383e+000 7.465691e+000 0.000000e+000
      endloop
   endfacet
   facet normal 8.020838e-001 -5.972114e-001 0.000000e+000
      outer loop
         vertex 5.979383e+000 7.465691e+000 0.000000e+000
         vertex 5.979383e+000 7.465691e+000 1.000000e+001
         vertex 5.846528e+000 7.275953e+000 1.000000e+001
      endloop
   endfacet
   facet normal 8.355240e-001 -5.494540e-001 0.000000e+000
      outer loop
         vertex 5.979383e+000 7.465691e+000 0.000000e+000
         vertex 5.846528e+000 7.275953e+000 1.000000e+001
         vertex 5.846528e+000 7.275953e+000 0.000000e+000
      endloop
   endfacet
   facet normal 8.936031e-001 -4.488580e-001 0.000000e+000
      outer loop
         vertex 5.846528e+000 7.275953e+000 0.000000e+000
         vertex 5.846528e+000 7.275953e+000 1.000000e+001
         vertex 5.748639e+000 7.066029e+000 1.000000e+001
      endloop
   endfacet
   facet normal 9.182422e-001 -3.960194e-001 0.000000e+000
      outer loop
         vertex 5.846528e+000 7.275953e+000 0.000000e+000
         vertex 5.748639e+000 7.066029e+000 1.000000e+001
         vertex 5.748639e+000 7.066029e+000 0.000000e+000
      endloop
   endfacet
   facet normal 9.579706e-001 -2.868663e-001 0.000000e+000
      outer loop
         vertex 5.748639e+000 7.066029e+000 0.000000e+000
         vertex 5.748639e+000 7.066029e+000 1.000000e+001
         vertex 5.688689e+000 6.842295e+000 1.000000e+001
      endloop
   endfacet
   facet normal 9.730600e-001 -2.305519e-001 0.000000e+000
      outer loop
         vertex 5.748639e+000 7.066029e+000 0.000000e+000
         vertex 5.688689e+000 6.842295e+000 1.000000e+001
         vertex 5.688689e+000 6.842295e+000 0.000000e+000
      endloop
   endfacet
   facet normal 9.932307e-001 -1.161583e-001 0.000000e+000
      outer loop
         vertex 5.688689e+000 6.842295e+000 0.000000e+000
         vertex 5.688689e+000 6.842295e+000 1.000000e+001
         vertex 5.668501e+000 6.611551e+000 1.000000e+001
      endloop
   endfacet
   facet normal 9.983119e-001 -5.807913e-002 0.000000e+000
      outer loop
         vertex 5.688689e+000 6.842295e+000 0.000000e+000
         vertex 5.668501e+000 6.611551e+000 1.000000e+001
         vertex 5.668501e+000 6.611551e+000 0.000000e+000
      endloop
   endfacet
   facet normal 9.983119e-001 5.807913e-002 0.000000e+000
      outer loop
         vertex 5.668501e+000 6.611551e+000 0.000000e+000
         vertex 5.668501e+000 6.611551e+000 1.000000e+001
         vertex 5.688689e+000 6.380806e+000 1.000000e+001
      endloop
   endfacet
   facet normal 9.932307e-001 1.161583e-001 0.000000e+000
      outer loop
         vertex 5.668501e+000 6.611551e+000 0.000000e+000
         vertex 5.688689e+000 6.380806e+000 1.000000e+001
         vertex 5.688689e+000 6.380806e+000 0.000000e+000
      endloop
   endfacet
   facet normal 9.730600e-001 2.305519e-001 0.000000e+000
      outer loop
         vertex 5.688689e+000 6.380806e+000 0.000000e+000
         vertex 5.688689e+000 6.380806e+000 1.000000e+001
         vertex 5.748639e+000 6.157073e+000 1.000000e+001
      endloop
   endfacet
   facet normal 9.579706e-001 2.868663e-001 0.000000e+000
      outer loop
         vertex 5.688689e+000 6.380806e+000 0.000000e+000
         vertex 5.748639e+000 6.157073e+000 1.000000e+001
         vertex 5.748639e+000 6.157073e+000 0.000000e+000
      endloop
   endfacet
   facet normal 9.182422e-001 3.960194e-001 0.000000e+000
      outer loop
         vertex 5.748639e+000 6.157073e+000 0.000000e+000
         vertex 5.748639e+000 6.157073e+000 1.000000e+001
         vertex 5.846528e+000 5.947148e+000 1.000000e+001
      endloop
   endfacet
   facet normal 8.936031e-001 4.488580e-001 0.000000e+000
      outer loop
         vertex 5.748639e+000 6.157073e+000 0.000000e+000
         vertex 5.846528e+000 5.947148e+000 1.000000e+001
         vertex 5.846528e+000 5.947148e+000 0.000000e+000
      endloop
   endfacet
   facet normal 8.355240e-001 5.494540e-001 0.000000e+000
      outer loop
         vertex 5.846528e+000 5.947148e+000 0.000000e+000
         vertex 5.846528e+000 5.947148e+000 1.000000e+001
         vertex 5.979383e+000 5.757411e+000 1.000000e+001
      endloop
   endfacet
   facet normal 8.020838e-001 5.972114e-001 0.000000e+000
      outer loop
         vertex 5.846528e+000 5.947148e+000 0.000000e+000
         vertex 5.979383e+000 5.757411e+000 1.000000e+001
         vertex 5.979383e+000 5.757411e+000 0.000000e+000
      endloop
   endfacet
   facet normal 7.274188e-001 6.861938e-001 0.000000e+000
      outer loop
         vertex 5.979383e+000 5.757411e+000 0.000000e+000
         vertex 5.979383e+000 5.757411e+000 1.000000e+001
         vertex 6.143167e+000 5.593627e+000 1.000000e+001
      endloop
   endfacet
   facet normal 6.861938e-001 7.274188e-001 0.000000e+000
      outer loop
         vertex 5.979383e+000 5.757411e+000 0.000000e+000
         vertex 6.143167e+000 5.593627e+000 1.000000e+001
         vertex 6.143167e+000 5.593627e+000 0.000000e+000
      endloop
   endfacet
   facet normal 5.972114e-001 8.020838e-001 0.000000e+000
      outer loop
         vertex 6.143167e+000 5.593627e+000 0.000000e+000
         vertex 6.143167e+000 5.593627e+000 1.000000e+001
         vertex 6.332904e+000 5.460772e+000 1.000000e+001
      endloop
   endfacet
   facet normal 5.494540e-001 8.355240e-001 0.000000e+000
      outer loop
         vertex 6.143167e+000 5.593627e+000 0.000000e+000
         vertex 6.332904e+000 5.460772e+000 1.000000e+001
         vertex 6.332904e+000 5.460772e+000 0.000000e+000
      endloop
   endfacet
   facet normal 4.488580e-001 8.936031e-001 0.000000e+000
      outer loop
         vertex 6.332904e+000 5.460772e+000 0.000000e+000
         vertex 6.332904e+000 5.460772e+000 1.000000e+001
         vertex 6.542829e+000 5.362882e+000 1.000000e+001
      endloop
   endfacet
   facet normal 3.960194e-001 9.182422e-001 0.000000e+000
      outer loop
         vertex 6.332904e+000 5.460772e+000 0.000000e+000
         vertex 6.542829e+000 5.362882e+000 1.000000e+001
         vertex 6.542829e+000 5.362882e+000 0.000000e+000
      endloop
   endfacet
   facet normal 2.868663e-001 9.579706e-001 0.000000e+000
      outer loop
         vertex 6.542829e+000 5.362882e+000 0.000000e+000
         vertex 6.542829e+000 5.362882e+000 1.000000e+001
         vertex 6.766562e+000 5.302934e+000 1.000000e+001
      endloop
   endfacet
   facet normal 2.305519e-001 9.730600e-001 0.000000e+000
      outer loop
         vertex 6.542829e+000 5.362882e+000 0.000000e+000
         vertex 6.766562e+000 5.302934e+000 1.000000e+001
         vertex 6.766562e+000 5.302934e+000 0.000000e+000
      endloop
   endfacet
   facet normal 1.161583e-001 9.932307e-001 0.000000e+000
      outer loop
         vertex 6.766562e+000 5.302934e+000 0.000000e+000
         vertex 6.766562e+000 5.302934e+000 1.000000e+001
         vertex 6.997306e+000 5.282746e+000 1.000000e+001
      endloop
   endfacet
   facet normal 5.807913e-002 9.983119e-001 0.000000e+000
      outer loop
         vertex 6.766562e+000 5.302934e+000 0.000000e+000
         vertex 6.997306e+000 5.282746e+000 1.000000e+001
         vertex 6.997306e+000 5.282746e+000 0.000000e+000
      endloop
   endfacet
   facet normal -5.807913e-002 9.983119e-001 0.000000e+000
      outer loop
         vertex 6.997306e+000 5.282746e+000 0.000000e+000
         vertex 6.997306e+000 5.282746e+000 1.000000e+001
         vertex 7.228051e+000 5.302934e+000 1.000000e+001
      endloop
   endfacet
   facet normal -1.161583e-001 9.932307e-001 0.000000e+000
      outer loop
         vertex 6.997306e+000 5.282746e+000 0.000000e+000
         vertex 7.228051e+000 5.302934e+000 1.000000e+001
         vertex 7.228051e+000 5.302934e+000 0.000000e+000
      endloop
   endfacet
   facet normal -2.305519e-001 9.730600e-001 0.000000e+000
      outer loop
         vertex 7.228051e+000 5.302934e+000 0.000000e+000
         vertex 7.228051e+000 5.302934e+000 1.000000e+001
         vertex 7.451785e+000 5.362882e+000 1.000000e+001
      endloop
   endfacet
   facet normal -2.868663e-001 9.579706e-001 0.000000e+000
      outer loop
         vertex 7.228051e+000 5.302934e+000 0.000000e+000
         vertex 7.451785e+000 5.362882e+000 1.000000e+001
         vertex 7.451785e+000 5.362882e+000 0.000000e+000
      endloop
   endfacet
   facet normal -3.960194e-001 9.182422e-001 0.000000e+000
      outer loop
         vertex 7.451785e+000 5.362882e+000 0.000000e+000
         vertex 7.451785e+000 5.362882e+000 1.000000e+001
         vertex 7.661709e+000 5.460772e+000 1.000000e+001
      endloop
   endfacet
   facet normal -4.488580e-001 8.936031e-001 0.000000e+000
      outer loop
         vertex 7.451785e+000 5.362882e+000 0.000000e+000
         vertex 7.661709e+000 5.460772e+000 1.000000e+001
         vertex 7.661709e+000 5.460772e+000 0.000000e+000
      endloop
   endfacet
   facet normal -5.494540e-001 8.355240e-001 0.000000e+000
      outer loop
         vertex 7.661709e+000 5.460772e+000 0.000000e+000
         vertex 7.661709e+000 5.460772e+000 1.000000e+001
         vertex 7.851446e+000 5.593627e+000 1.000000e+001
      endloop
   endfacet
   facet normal -5.972114e-001 8.020838e-001 0.000000e+000
      outer loop
         vertex 7.661709e+000 5.460772e+000 0.000000e+000
         vertex 7.851446e+000 5.593627e+000 1.000000e+001
         vertex 7.851446e+000 5.593627e+000 0.000000e+000
      endloop
   endfacet
   facet normal -6.861938e-001 7.274188e-001 0.000000e+000
      outer loop
         vertex 7.851446e+000 5.593627e+000 0.000000e+000
         vertex 7.851446e+000 5.593627e+000 1.000000e+001
         vertex 8.015230e+000 5.757411e+000 1.000000e+001
      endloop
   endfacet
   facet normal -7.274188e-001 6.861938e-001 0.000000e+000
      outer loop
         vertex 7.851446e+000 5.593627e+000 0.000000e+000
         vertex 8.015230e+000 5.757411e+000 1.000000e+001
         vertex 8.015230e+000 5.757411e+000 0.000000e+000
      endloop
   endfacet
   facet normal -8.020838e-001 5.972114e-001 0.000000e+000
      outer loop
         vertex 8.015230e+000 5.757411e+000 0.000000e+000
         vertex 8.015230e+000 5.757411e+000 1.000000e+001
         vertex 8.148086e+000 5.947148e+000 1.000000e+001
      endloop
   endfacet
   facet normal -8.355240e-001 5.494540e-001 0.000000e+000
      outer loop
         vertex 8.015230e+000 5.757411e+000 0.000000e+000
         vertex 8.148086e+000 5.947148e+000 1.000000e+001
         vertex 8.148086e+000 5.947148e+000 0.000000e+000
      endloop
   endfacet
   facet normal -8.936031e-001 4.488580e-001 0.000000e+000
      outer loop
         vertex 8.148086e+000 5.947148e+000 0.000000e+000
         vertex 8.148086e+000 5.947148e+000 1.000000e+001
         vertex 8.245975e+000 6.157073e+000 1.000000e+001
      endloop
   endfacet
   facet normal -9.182422e-001 3.960194e-001 0.000000e+000
      outer loop
         vertex 8.148086e+000 5.947148e+000 0.000000e+000
         vertex 8.245975e+000 6.157073e+000 1.000000e+001
         vertex 8.245975e+000 6.157073e+000 0.000000e+000
      endloop
   endfacet
   facet normal -9.579706e-001 2.868663e-001 0.000000e+000
      outer loop
         vertex 8.245975e+000 6.157073e+000 0.000000e+000
         vertex 8.245975e+000 6.157073e+000 1.000000e+001
         vertex 8.305924e+000 6.380806e+000 1.000000e+001
      endloop
   endfacet
   facet normal -9.730600e-001 2.305519e-001 0.000000e+000
      outer loop
         vertex 8.245975e+000 6.157073e+000 0.000000e+000
         vertex 8.305924e+000 6.380806e+000 1.000000e+001
         vertex 8.305924e+000 6.380806e+000 0.000000e+000
      endloop
   endfacet
   facet normal -9.932307e-001 1.161583e-001 0.000000e+000
      outer loop
         vertex 8.305924e+000 6.380806e+000 0.000000e+000
         vertex 8.305924e+000 6.380806e+000 1.000000e+001
         vertex 8.326112e+000 6.611551e+000 1.000000e+001
      endloop
   endfacet
endsolid