solid 3_718
   facet normal -1.000000e+000 0.000000e+000 0.000000e+000
      outer loop
         vertex 0.000000e+000 1.000000e+001 1.000000e+001
         vertex 0.000000e+000 1.000000e+001 0.000000e+000
         vertex 0.000000e+000 0.000000e+000 1.000000e+001
      endloop
   endfacet
   facet normal -1.000000e+000 0.000000e+000 0.000000e+000
      outer loop
         vertex 0.000000e+000 0.000000e+000 1.000000e+001
         vertex 0.000000e+000 1.000000e+001 0.000000e+000
         vertex 0.000000e+000 0.000000e+000 0.000000e+000
      endloop
   endfacet
   facet normal 0.000000e+000 0.000000e+000 1.000000e+000
      outer loop
         vertex 5.343169e+000 1.760005e+000 1.000000e+001
         vertex 4.959038e+000 1.600893e+000 1.000000e+001
         vertex 1.000000e+001 0.000000e+000 1.000000e+001
      endloop
   endfacet
   facet normal 0.000000e+000 0.000000e+000 1.000000e+000
      outer loop
         vertex 6.283870e+000 5.678305e+000 1.000000e+001
         vertex 6.501114e+000 5.323794e+000 1.000000e+001
         vertex 1.000000e+001 1.000000e+001 1.000000e+001
      endloop
   endfacet
   facet normal 0.000000e+000 0.000000e+000 1.000000e+000
      outer loop
         vertex 6.757289e+000 3.706373e+000 1.000000e+001
         vertex 6.660227e+000 3.302081e+000 1.000000e+001
         vertex 1.000000e+001 0.000000e+000 1.000000e+001
      endloop
   endfacet
   facet normal 0.000000e+000 0.000000e+000 1.000000e+000
      outer loop
         vertex 1.000000e+001 0.000000e+000 1.000000e+001
         vertex 6.660227e+000 3.302081e+000 1.000000e+001
         vertex 6.501114e+000 2.917950e+000 1.000000e+001
      endloop
   endfacet
   facet normal 0.000000e+000 0.000000e+000 1.000000e+000
      outer loop
         vertex 1.000000e+001 0.000000e+000 1.000000e+001
         vertex 6.501114e+000 2.917950e+000 1.000000e+001
         vertex 6.283870e+000 2.563439e+000 1.000000e+001
      endloop
   endfacet
   facet normal 0.000000e+000 0.000000e+000 1.000000e+000
      outer loop
         vertex 3.725749e+000 6.737913e+000 1.000000e+001
         vertex 4.140248e+000 6.770535e+000 1.000000e+001
         vertex 0.000000e+000 1.000000e+001 1.000000e+001
      endloop
   endfacet
   facet normal 0.000000e+000 0.000000e+000 1.000000e+000
      outer loop
         vertex 6.283870e+000 5.678305e+000 1.000000e+001
         vertex 1.000000e+001 1.000000e+001 1.000000e+001
         vertex 6.013842e+000 5.994467e+000 1.000000e+001
      endloop
   endfacet
   facet normal 0.000000e+000 0.000000e+000 1.000000e+000
      outer loop
         vertex 6.501114e+000 5.323794e+000 1.000000e+001
         vertex 6.660227e+000 4.939663e+000 1.000000e+001
         vertex 1.000000e+001 1.000000e+001 1.000000e+001
      endloop
   endfacet
   facet normal 0.000000e+000 0.000000e+000 1.000000e+000
      outer loop
         vertex 1.000000e+001 1.000000e+001 1.000000e+001
         vertex 6.660227e+000 4.939663e+000 1.000000e+001
         vertex 6.757289e+000 4.535370e+000 1.000000e+001
      endloop
   endfacet
   facet normal 0.000000e+000 0.000000e+000 1.000000e+000
      outer loop
         vertex 1.000000e+001 1.000000e+001 1.000000e+001
         vertex 6.757289e+000 4.535370e+000 1.000000e+001
         vertex 1.000000e+001 0.000000e+000 1.000000e+001
      endloop
   endfacet
   facet normal 0.000000e+000 0.000000e+000 1.000000e+000
      outer loop
         vertex 1.000000e+001 0.000000e+000 1.000000e+001
         vertex 6.757289e+000 4.535370e+000 1.000000e+001
         vertex 6.789910e+000 4.120872e+000 1.000000e+001
      endloop
   endfacet
   facet normal 0.000000e+000 0.000000e+000 1.000000e+000
      outer loop
         vertex 1.000000e+001 0.000000e+000 1.000000e+001
         vertex 6.789910e+000 4.120872e+000 1.000000e+001
         vertex 6.757289e+000 3.706373e+000 1.000000e+001
      endloop
   endfacet
   facet normal 0.000000e+000 0.000000e+000 1.000000e+000
      outer loop
         vertex 6.283870e+000 2.563439e+000 1.000000e+001
         vertex 6.013842e+000 2.247278e+000 1.000000e+001
         vertex 1.000000e+001 0.000000e+000 1.000000e+001
      endloop
   endfacet
   facet normal 0.000000e+000 0.000000e+000 1.000000e+000
      outer loop
         vertex 1.000000e+001 0.000000e+000 1.000000e+001
         vertex 6.013842e+000 2.247278e+000 1.000000e+001
         vertex 5.697680e+000 1.977250e+000 1.000000e+001
      endloop
   endfacet
   facet normal 0.000000e+000 0.000000e+000 1.000000e+000
      outer loop
         vertex 1.000000e+001 0.000000e+000 1.000000e+001
         vertex 5.697680e+000 1.977250e+000 1.000000e+001
         vertex 5.343169e+000 1.760005e+000 1.000000e+001
      endloop
   endfacet
   facet normal 0.000000e+000 0.000000e+000 1.000000e+000
      outer loop
         vertex 0.000000e+000 1.000000e+001 1.000000e+001
         vertex 4.140248e+000 6.770535e+000 1.000000e+001
         vertex 1.000000e+001 1.000000e+001 1.000000e+001
      endloop
   endfacet
   facet normal 0.000000e+000 0.000000e+000 1.000000e+000
      outer loop
         vertex 1.000000e+001 1.000000e+001 1.000000e+001
         vertex 4.140248e+000 6.770535e+000 1.000000e+001
         vertex 4.554746e+000 6.737913e+000 1.000000e+001
      endloop
   endfacet
   facet normal 0.000000e+000 0.000000e+000 1.000000e+000
      outer loop
         vertex 1.000000e+001 1.000000e+001 1.000000e+001
         vertex 4.554746e+000 6.737913e+000 1.000000e+001
         vertex 4.959038e+000 6.640851e+000 1.000000e+001
      endloop
   endfacet
   facet normal 0.000000e+000 0.000000e+000 1.000000e+000
      outer loop
         vertex 4.959038e+000 1.600893e+000 1.000000e+001
         vertex 4.554746e+000 1.503831e+000 1.000000e+001
         vertex 1.000000e+001 0.000000e+000 1.000000e+001
      endloop
   endfacet
   facet normal 0.000000e+000 0.000000e+000 1.000000e+000
      outer loop
         vertex 1.000000e+001 0.000000e+000 1.000000e+001
         vertex 4.554746e+000 1.503831e+000 1.000000e+001
         vertex 4.140248e+000 1.471209e+000 1.000000e+001
      endloop
   endfacet
   facet normal 0.000000e+000 0.000000e+000 1.000000e+000
      outer loop
         vertex 1.000000e+001 0.000000e+000 1.000000e+001
         vertex 4.140248e+000 1.471209e+000 1.000000e+001
         vertex 0.000000e+000 0.000000e+000 1.000000e+001
      endloop
   endfacet
   facet normal 0.000000e+000 0.000000e+000 1.000000e+000
      outer loop
         vertex 0.000000e+000 0.000000e+000 1.000000e+001
         vertex 4.140248e+000 1.471209e+000 1.000000e+001
         vertex 3.725749e+000 1.503831e+000 1.000000e+001
      endloop
   endfacet
   facet normal 0.000000e+000 0.000000e+000 1.000000e+000
      outer loop
         vertex 0.000000e+000 0.000000e+000 1.000000e+001
         vertex 3.725749e+000 1.503831e+000 1.000000e+001
         vertex 3.321457e+000 1.600893e+000 1.000000e+001
      endloop
   endfacet
   facet normal 0.000000e+000 0.000000e+000 1.000000e+000
      outer loop
         vertex 3.321457e+000 1.600893e+000 1.000000e+001
         vertex 2.937326e+000 1.760005e+000 1.000000e+001
         vertex 0.000000e+000 0.000000e+000 1.000000e+001
      endloop
   endfacet
   facet normal 0.000000e+000 0.000000e+000 1.000000e+000
      outer loop
         vertex 0.000000e+000 0.000000e+000 1.000000e+001
         vertex 2.937326e+000 1.760005e+000 1.000000e+001
         vertex 2.582815e+000 1.977250e+000 1.000000e+001
      endloop
   endfacet
   facet normal 0.000000e+000 0.000000e+000 1.000000e+000
      outer loop
         vertex 0.000000e+000 0.000000e+000 1.000000e+001
         vertex 2.582815e+000 1.977250e+000 1.000000e+001
         vertex 2.266653e+000 2.247278e+000 1.000000e+001
      endloop
   endfacet
   facet normal 0.000000e+000 0.000000e+000 1.000000e+000
      outer loop
         vertex 2.266653e+000 2.247278e+000 1.000000e+001
         vertex 1.996626e+000 2.563439e+000 1.000000e+001
         vertex 0.000000e+000 0.000000e+000 1.000000e+001
      endloop
   endfacet
   facet normal 0.000000e+000 0.000000e+000 1.000000e+000
      outer loop
         vertex 0.000000e+000 0.000000e+000 1.000000e+001
         vertex 1.996626e+000 2.563439e+000 1.000000e+001
         vertex 1.779381e+000 2.917950e+000 1.000000e+001
      endloop
   endfacet
   facet normal 0.000000e+000 0.000000e+000 1.000000e+000
      outer loop
         vertex 0.000000e+000 0.000000e+000 1.000000e+001
         vertex 1.779381e+000 2.917950e+000 1.000000e+001
         vertex 1.620269e+000 3.302081e+000 1.000000e+001
      endloop
   endfacet
   facet normal 0.000000e+000 0.000000e+000 1.000000e+000
      outer loop
         vertex 4.959038e+000 6.640851e+000 1.000000e+001
         vertex 5.343169e+000 6.481739e+000 1.000000e+001
         vertex 1.000000e+001 1.000000e+001 1.000000e+001
      endloop
   endfacet
   facet normal 0.000000e+000 0.000000e+000 1.000000e+000
      outer loop
         vertex 1.000000e+001 1.000000e+001 1.000000e+001
         vertex 5.343169e+000 6.481739e+000 1.000000e+001
         vertex 5.697680e+000 6.264494e+000 1.000000e+001
      endloop
   endfacet
   facet normal 0.000000e+000 0.000000e+000 1.000000e+000
      outer loop
         vertex 1.000000e+001 1.000000e+001 1.000000e+001
         vertex 5.697680e+000 6.264494e+000 1.000000e+001
         vertex 6.013842e+000 5.994467e+000 1.000000e+001
      endloop
   endfacet
   facet normal 0.000000e+000 0.000000e+000 1.000000e+000
      outer loop
         vertex 2.582815e+000 6.264494e+000 1.000000e+001
         vertex 2.937326e+000 6.481739e+000 1.000000e+001
         vertex 0.000000e+000 1.000000e+001 1.000000e+001
      endloop
   endfacet
   facet normal 0.000000e+000 0.000000e+000 1.000000e+000
      outer loop
         vertex 0.000000e+000 1.000000e+001 1.000000e+001
         vertex 2.937326e+000 6.481739e+000 1.000000e+001
         vertex 3.321457e+000 6.640851e+000 1.000000e+001
      endloop
   endfacet
   facet normal 0.000000e+000 0.000000e+000 1.000000e+000
      outer loop
         vertex 0.000000e+000 1.000000e+001 1.000000e+001
         vertex 3.321457e+000 6.640851e+000 1.000000e+001
         vertex 3.725749e+000 6.737913e+000 1.000000e+001
      endloop
   endfacet
   facet normal 0.000000e+000 0.000000e+000 1.000000e+000
      outer loop
         vertex 1.620269e+000 3.302081e+000 1.000000e+001
         vertex 1.523207e+000 3.706373e+000 1.000000e+001
         vertex 0.000000e+000 0.000000e+000 1.000000e+001
      endloop
   endfacet
   facet normal 0.000000e+000 0.000000e+000 1.000000e+000
      outer loop
         vertex 0.000000e+000 0.000000e+000 1.000000e+001
         vertex 1.523207e+000 3.706373e+000 1.000000e+001
         vertex 1.490585e+000 4.120872e+000 1.000000e+001
      endloop
   endfacet
   facet normal 0.000000e+000 0.000000e+000 1.000000e+000
      outer loop
         vertex 0.000000e+000 0.000000e+000 1.000000e+001
         vertex 1.490585e+000 4.120872e+000 1.000000e+001
         vertex 0.000000e+000 1.000000e+001 1.000000e+001
      endloop
   endfacet
   facet normal 0.000000e+000 0.000000e+000 1.000000e+000
      outer loop
         vertex 1.490585e+000 4.120872e+000 1.000000e+001
         vertex 1.523207e+000 4.535370e+000 1.000000e+001
         vertex 0.000000e+000 1.000000e+001 1.000000e+001
      endloop
   endfacet
   facet normal 0.000000e+000 0.000000e+000 1.000000e+000
      outer loop
         vertex 0.000000e+000 1.000000e+001 1.000000e+001
         vertex 1.523207e+000 4.535370e+000 1.000000e+001
         vertex 1.620269e+000 4.939663e+000 1.000000e+001
      endloop
   endfacet
   facet normal 0.000000e+000 0.000000e+000 1.000000e+000
      outer loop
         vertex 0.000000e+000 1.000000e+001 1.000000e+001
         vertex 1.620269e+000 4.939663e+000 1.000000e+001
         vertex 1.779381e+000 5.323794e+000 1.000000e+001
      endloop
   endfacet
   facet normal 0.000000e+000 0.000000e+000 1.000000e+000
      outer loop
         vertex 1.779381e+000 5.323794e+000 1.000000e+001
         vertex 1.996626e+000 5.678305e+000 1.000000e+001
         vertex 0.000000e+000 1.000000e+001 1.000000e+001
      endloop
   endfacet
   facet normal 0.000000e+000 0.000000e+000 1.000000e+000
      outer loop
         vertex 0.000000e+000 1.000000e+001 1.000000e+001
         vertex 1.996626e+000 5.678305e+000 1.000000e+001
         vertex 2.266653e+000 5.994467e+000 1.000000e+001
      endloop
   endfacet
   facet normal 0.000000e+000 0.000000e+000 1.000000e+000
      outer loop
         vertex 0.000000e+000 1.000000e+001 1.000000e+001
         vertex 2.266653e+000 5.994467e+000 1.000000e+001
         vertex 2.582815e+000 6.264494e+000 1.000000e+001
      endloop
   endfacet
   facet normal 1.000000e+000 0.000000e+000 0.000000e+000
      outer loop
         vertex 1.000000e+001 1.000000e+001 0.000000e+000
         vertex 1.000000e+001 1.000000e+001 1.000000e+001
         vertex 1.000000e+001 0.000000e+000 0.000000e+000
      endloop
   endfacet
   facet normal 1.000000e+000 0.000000e+000 0.000000e+000
      outer loop
         vertex 1.000000e+001 0.000000e+000 0.000000e+000
         vertex 1.000000e+001 1.000000e+001 1.000000e+001
         vertex 1.000000e+001 0.000000e+000 1.000000e+001
      endloop
   endfacet
   facet normal 0.000000e+000 0.000000e+000 -1.000000e+000
      outer loop
         vertex 6.501114e+000 2.917950e+000 0.000000e+000
         vertex 6.660227e+000 3.302081e+000 0.000000e+000
         vertex 1.000000e+001 0.000000e+000 0.000000e+000
      endloop
   endfacet
   facet normal 0.000000e+000 0.000000e+000 -1.000000e+000
      outer loop
         vertex 3.725749e+000 6.737913e+000 0.000000e+000
         vertex 3.321457e+000 6.640851e+000 0.000000e+000
         vertex 0.000000e+000 1.000000e+001 0.000000e+000
      endloop
   endfacet
   facet normal 0.000000e+000 0.000000e+000 -1.000000e+000
      outer loop
         vertex 1.620269e+000 3.302081e+000 0.000000e+000
         vertex 1.779381e+000 2.917950e+000 0.000000e+000
         vertex 0.000000e+000 0.000000e+000 0.000000e+000
      endloop
   endfacet
   facet normal 0.000000e+000 0.000000e+000 -1.000000e+000
      outer loop
         vertex 0.000000e+000 0.000000e+000 0.000000e+000
         vertex 1.779381e+000 2.917950e+000 0.000000e+000
         vertex 1.996626e+000 2.563439e+000 0.000000e+000
      endloop
   endfacet
   facet normal 0.000000e+000 0.000000e+000 -1.000000e+000
      outer loop
         vertex 0.000000e+000 0.000000e+000 0.000000e+000
         vertex 1.996626e+000 2.563439e+000 0.000000e+000
         vertex 2.266653e+000 2.247278e+000 0.000000e+000
      endloop
   endfacet
   facet normal 0.000000e+000 0.000000e+000 -1.000000e+000
      outer loop
         vertex 2.266653e+000 2.247278e+000 0.000000e+000
         vertex 2.582815e+000 1.977250e+000 0.000000e+000
         vertex 0.000000e+000 0.000000e+000 0.000000e+000
      endloop
   endfacet
   facet normal 0.000000e+000 0.000000e+000 -1.000000e+000
      outer loop
         vertex 0.000000e+000 0.000000e+000 0.000000e+000
         vertex 2.582815e+000 1.977250e+000 0.000000e+000
         vertex 2.937326e+000 1.760005e+000 0.000000e+000
      endloop
   endfacet
   facet normal 0.000000e+000 0.000000e+000 -1.000000e+000
      outer loop
         vertex 0.000000e+000 0.000000e+000 0.000000e+000
         vertex 2.937326e+000 1.760005e+000 0.000000e+000
         vertex 3.321457e+000 1.600893e+000 0.000000e+000
      endloop
   endfacet
   facet normal 0.000000e+000 0.000000e+000 -1.000000e+000
      outer loop
         vertex 4.554746e+000 1.503831e+000 0.000000e+000
         vertex 1.000000e+001 0.000000e+000 0.000000e+000
         vertex 4.140248e+000 1.471209e+000 0.000000e+000
      endloop
   endfacet
   facet normal 0.000000e+000 0.000000e+000 -1.000000e+000
      outer loop
         vertex 4.140248e+000 1.471209e+000 0.000000e+000
         vertex 1.000000e+001 0.000000e+000 0.000000e+000
         vertex 0.000000e+000 0.000000e+000 0.000000e+000
      endloop
   endfacet
   facet normal 0.000000e+000 0.000000e+000 -1.000000e+000
      outer loop
         vertex 4.140248e+000 1.471209e+000 0.000000e+000
         vertex 0.000000e+000 0.000000e+000 0.000000e+000
         vertex 3.725749e+000 1.503831e+000 0.000000e+000
      endloop
   endfacet
   facet normal 0.000000e+000 0.000000e+000 -1.000000e+000
      outer loop
         vertex 3.725749e+000 1.503831e+000 0.000000e+000
         vertex 0.000000e+000 0.000000e+000 0.000000e+000
         vertex 3.321457e+000 1.600893e+000 0.000000e+000
      endloop
   endfacet
   facet normal 0.000000e+000 0.000000e+000 -1.000000e+000
      outer loop
         vertex 4.554746e+000 1.503831e+000 0.000000e+000
         vertex 4.959038e+000 1.600893e+000 0.000000e+000
         vertex 1.000000e+001 0.000000e+000 0.000000e+000
      endloop
   endfacet
   facet normal 0.000000e+000 0.000000e+000 -1.000000e+000
      outer loop
         vertex 1.000000e+001 0.000000e+000 0.000000e+000
         vertex 4.959038e+000 1.600893e+000 0.000000e+000
         vertex 5.343169e+000 1.760005e+000 0.000000e+000
      endloop
   endfacet
   facet normal 0.000000e+000 0.000000e+000 -1.000000e+000
      outer loop
         vertex 1.000000e+001 0.000000e+000 0.000000e+000
         vertex 5.343169e+000 1.760005e+000 0.000000e+000
         vertex 5.697680e+000 1.977250e+000 0.000000e+000
      endloop
   endfacet
   facet normal 0.000000e+000 0.000000e+000 -1.000000e+000
      outer loop
         vertex 5.697680e+000 1.977250e+000 0.000000e+000
         vertex 6.013842e+000 2.247278e+000 0.000000e+000
         vertex 1.000000e+001 0.000000e+000 0.000000e+000
      endloop
   endfacet
   facet normal 0.000000e+000 0.000000e+000 -1.000000e+000
      outer loop
         vertex 1.000000e+001 0.000000e+000 0.000000e+000
         vertex 6.013842e+000 2.247278e+000 0.000000e+000
         vertex 6.283870e+000 2.563439e+000 0.000000e+000
      endloop
   endfacet
   facet normal 0.000000e+000 0.000000e+000 -1.000000e+000
      outer loop
         vertex 1.000000e+001 0.000000e+000 0.000000e+000
         vertex 6.283870e+000 2.563439e+000 0.000000e+000
         vertex 6.501114e+000 2.917950e+000 0.000000e+000
      endloop
   endfacet
   facet normal 0.000000e+000 0.000000e+000 -1.000000e+000
      outer loop
         vertex 6.660227e+000 4.939663e+000 0.000000e+000
         vertex 6.501114e+000 5.323794e+000 0.000000e+000
         vertex 1.000000e+001 1.000000e+001 0.000000e+000
      endloop
   endfacet
   facet normal 0.000000e+000 0.000000e+000 -1.000000e+000
      outer loop
         vertex 1.000000e+001 1.000000e+001 0.000000e+000
         vertex 6.501114e+000 5.323794e+000 0.000000e+000
         vertex 6.283870e+000 5.678305e+000 0.000000e+000
      endloop
   endfacet
   facet normal 0.000000e+000 0.000000e+000 -1.000000e+000
      outer loop
         vertex 6.283870e+000 5.678305e+000 0.000000e+000
         vertex 6.013842e+000 5.994467e+000 0.000000e+000
         vertex 1.000000e+001 1.000000e+001 0.000000e+000
      endloop
   endfacet
   facet normal 0.000000e+000 0.000000e+000 -1.000000e+000
      outer loop
         vertex 1.000000e+001 1.000000e+001 0.000000e+000
         vertex 6.013842e+000 5.994467e+000 0.000000e+000
         vertex 5.697680e+000 6.264494e+000 0.000000e+000
      endloop
   endfacet
   facet normal 0.000000e+000 0.000000e+000 -1.000000e+000
      outer loop
         vertex 1.000000e+001 1.000000e+001 0.000000e+000
         vertex 5.697680e+000 6.264494e+000 0.000000e+000
         vertex 5.343169e+000 6.481739e+000 0.000000e+000
      endloop
   endfacet
   facet normal 0.000000e+000 0.000000e+000 -1.000000e+000
      outer loop
         vertex 3.321457e+000 6.640851e+000 0.000000e+000
         vertex 2.937326e+000 6.481739e+000 0.000000e+000
         vertex 0.000000e+000 1.000000e+001 0.000000e+000
      endloop
   endfacet
   facet normal 0.000000e+000 0.000000e+000 -1.000000e+000
      outer loop
         vertex 0.000000e+000 1.000000e+001 0.000000e+000
         vertex 2.937326e+000 6.481739e+000 0.000000e+000
         vertex 2.582815e+000 6.264494e+000 0.000000e+000
      endloop
   endfacet
   facet normal 0.000000e+000 0.000000e+000 -1.000000e+000
      outer loop
         vertex 0.000000e+000 1.000000e+001 0.000000e+000
         vertex 2.582815e+000 6.264494e+000 0.000000e+000
         vertex 2.266653e+000 5.994467e+000 0.000000e+000
      endloop
   endfacet
   facet normal 0.000000e+000 0.000000e+000 -1.000000e+000
      outer loop
         vertex 5.343169e+000 6.481739e+000 0.000000e+000
         vertex 4.959038e+000 6.640851e+000 0.000000e+000
         vertex 1.000000e+001 1.000000e+001 0.000000e+000
      endloop
   endfacet
   facet normal 0.000000e+000 0.000000e+000 -1.000000e+000
      outer loop
         vertex 1.000000e+001 1.000000e+001 0.000000e+000
         vertex 4.959038e+000 6.640851e+000 0.000000e+000
         vertex 4.554746e+000 6.737913e+000 0.000000e+000
      endloop
   endfacet
   facet normal 0.000000e+000 0.000000e+000 -1.000000e+000
      outer loop
         vertex 1.000000e+001 1.000000e+001 0.000000e+000
         vertex 4.554746e+000 6.737913e+000 0.000000e+000
         vertex 0.000000e+000 1.000000e+001 0.000000e+000
      endloop
   endfacet
   facet normal 0.000000e+000 0.000000e+000 -1.000000e+000
      outer loop
         vertex 0.000000e+000 1.000000e+001 0.000000e+000
         vertex 4.554746e+000 6.737913e+000 0.000000e+000
         vertex 4.140248e+000 6.770535e+000 0.000000e+000
      endloop
   endfacet
   facet normal 0.000000e+000 0.000000e+000 -1.000000e+000
      outer loop
         vertex 0.000000e+000 1.000000e+001 0.000000e+000
         vertex 4.140248e+000 6.770535e+000 0.000000e+000
         vertex 3.725749e+000 6.737913e+000 0.000000e+000
      endloop
   endfacet
   facet normal 0.000000e+000 0.000000e+000 -1.000000e+000
      outer loop
         vertex 2.266653e+000 5.994467e+000 0.000000e+000
         vertex 1.996626e+000 5.678305e+000 0.000000e+000
         vertex 0.000000e+000 1.000000e+001 0.000000e+000
      endloop
   endfacet
   facet normal 0.000000e+000 0.000000e+000 -1.000000e+000
      outer loop
         vertex 0.000000e+000 1.000000e+001 0.000000e+000
         vertex 1.996626e+000 5.678305e+000 0.000000e+000
         vertex 1.779381e+000 5.323794e+000 0.000000e+000
      endloop
   endfacet
   facet normal 0.000000e+000 0.000000e+000 -1.000000e+000
      outer loop
         vertex 0.000000e+000 1.000000e+001 0.000000e+000
         vertex 1.779381e+000 5.323794e+000 0.000000e+000
         vertex 1.620269e+000 4.939663e+000 0.000000e+000
      endloop
   endfacet
   facet normal 0.000000e+000 0.000000e+000 -1.000000e+000
      outer loop
         vertex 1.620269e+000 4.939663e+000 0.000000e+000
         vertex 1.523207e+000 4.535370e+000 0.000000e+000
         vertex 0.000000e+000 1.000000e+001 0.000000e+000
      endloop
   endfacet
   facet normal 0.000000e+000 0.000000e+000 -1.000000e+000
      outer loop
         vertex 0.000000e+000 1.000000e+001 0.000000e+000
         vertex 1.523207e+000 4.535370e+000 0.000000e+000
         vertex 1.490585e+000 4.120872e+000 0.000000e+000
      endloop
   endfacet
   facet normal 0.000000e+000 0.000000e+000 -1.000000e+000
      outer loop
         vertex 0.000000e+000 1.000000e+001 0.000000e+000
         vertex 1.490585e+000 4.120872e+000 0.000000e+000
         vertex 0.000000e+000 0.000000e+000 0.000000e+000
      endloop
   endfacet
   facet normal 0.000000e+000 0.000000e+000 -1.000000e+000
      outer loop
         vertex 0.000000e+000 0.000000e+000 0.000000e+000
         vertex 1.490585e+000 4.120872e+000 0.000000e+000
         vertex 1.523207e+000 3.706373e+000 0.000000e+000
      endloop
   endfacet
   facet normal 0.000000e+000 0.000000e+000 -1.000000e+000
      outer loop
         vertex 0.000000e+000 0.000000e+000 0.000000e+000
         vertex 1.523207e+000 3.706373e+000 0.000000e+000
         vertex 1.620269e+000 3.302081e+000 0.000000e+000
      endloop
   endfacet
   facet normal 0.000000e+000 0.000000e+000 -1.000000e+000
      outer loop
         vertex 6.660227e+000 3.302081e+000 0.000000e+000
         vertex 6.757289e+000 3.706373e+000 0.000000e+000
         vertex 1.000000e+001 0.000000e+000 0.000000e+000
      endloop
   endfacet
   facet normal 0.000000e+000 0.000000e+000 -1.000000e+000
      outer loop
         vertex 1.000000e+001 0.000000e+000 0.000000e+000
         vertex 6.757289e+000 3.706373e+000 0.000000e+000
         vertex 6.789910e+000 4.120872e+000 0.000000e+000
      endloop
   endfacet
   facet normal 0.000000e+000 0.000000e+000 -1.000000e+000
      outer loop
         vertex 1.000000e+001 0.000000e+000 0.000000e+000
         vertex 6.789910e+000 4.120872e+000 0.000000e+000
         vertex 1.000000e+001 1.000000e+001 0.000000e+000
      endloop
   endfacet
   facet normal 0.000000e+000 0.000000e+000 -1.000000e+000
      outer loop
         vertex 1.000000e+001 1.000000e+001 0.000000e+000
         vertex 6.789910e+000 4.120872e+000 0.000000e+000
         vertex 6.757289e+000 4.535370e+000 0.000000e+000
      endloop
   endfacet
   facet normal 0.000000e+000 0.000000e+000 -1.000000e+000
      outer loop
         vertex 1.000000e+001 1.000000e+001 0.000000e+000
         vertex 6.757289e+000 4.535370e+000 0.000000e+000
         vertex 6.660227e+000 4.939663e+000 0.000000e+000
      endloop
   endfacet
   facet normal 0.000000e+000 1.000000e+000 0.000000e+000
      outer loop
         vertex 1.000000e+001 1.000000e+001 1.000000e+001
         vertex 1.000000e+001 1.000000e+001 0.000000e+000
         vertex 0.000000e+000 1.000000e+001 1.000000e+001
      endloop
   endfacet
   facet normal 0.000000e+000 1.000000e+000 0.000000e+000
      outer loop
         vertex 0.000000e+000 1.000000e+001 1.000000e+001
         vertex 1.000000e+001 1.000000e+001 0.000000e+000
         vertex 0.000000e+000 1.000000e+001 0.000000e+000
      endloop
   endfacet
   facet normal 0.000000e+000 -1.000000e+000 0.000000e+000
      outer loop
         vertex 1.000000e+001 0.000000e+000 0.000000e+000
         vertex 1.000000e+001 0.000000e+000 1.000000e+001
         vertex 0.000000e+000 0.000000e+000 0.000000e+000
      endloop
   endfacet
   facet normal 0.000000e+000 -1.000000e+000 0.000000e+000
      outer loop
         vertex 0.000000e+000 0.000000e+000 0.000000e+000
         vertex 1.000000e+001 0.000000e+000 1.000000e+001
         vertex 0.000000e+000 0.000000e+000 1.000000e+001
      endloop
   endfacet
   facet normal -9.986320e-001 5.228807e-002 0.000000e+000
      outer loop
         vertex 6.757289e+000 3.706373e+000 0.000000e+000
         vertex 6.789910e+000 4.120872e+000 1.000000e+001
         vertex 6.789910e+000 4.120872e+000 0.000000e+000
      endloop
   endfacet
   facet normal -9.986320e-001 -5.228807e-002 0.000000e+000
      outer loop
         vertex 6.789910e+000 4.120872e+000 0.000000e+000
         vertex 6.789910e+000 4.120872e+000 1.000000e+001
         vertex 6.757289e+000 4.535370e+000 1.000000e+001
      endloop
   endfacet
   facet normal -9.945168e-001 -1.045761e-001 0.000000e+000
      outer loop
         vertex 6.789910e+000 4.120872e+000 0.000000e+000
         vertex 6.757289e+000 4.535370e+000 1.000000e+001
         vertex 6.757289e+000 4.535370e+000 0.000000e+000
      endloop
   endfacet
   facet normal -9.781576e-001 -2.078648e-001 0.000000e+000
      outer loop
         vertex 6.757289e+000 4.535370e+000 0.000000e+000
         vertex 6.757289e+000 4.535370e+000 1.000000e+001
         vertex 6.660227e+000 4.939663e+000 1.000000e+001
      endloop
   endfacet
   facet normal -9.659134e-001 -2.588653e-001 0.000000e+000
      outer loop
         vertex 6.757289e+000 4.535370e+000 0.000000e+000
         vertex 6.660227e+000 4.939663e+000 1.000000e+001
         vertex 6.660227e+000 4.939663e+000 0.000000e+000
      endloop
   endfacet
   facet normal -9.335976e-001 -3.583232e-001 0.000000e+000
      outer loop
         vertex 6.660227e+000 4.939663e+000 0.000000e+000
         vertex 6.660227e+000 4.939663e+000 1.000000e+001
         vertex 6.501114e+000 5.323794e+000 1.000000e+001
      endloop
   endfacet
   facet normal -9.135259e-001 -4.067805e-001 0.000000e+000
      outer loop
         vertex 6.660227e+000 4.939663e+000 0.000000e+000
         vertex 6.501114e+000 5.323794e+000 1.000000e+001
         vertex 6.501114e+000 5.323794e+000 0.000000e+000
      endloop
   endfacet
   facet normal -8.660494e-001 -4.999584e-001 0.000000e+000
      outer loop
         vertex 6.501114e+000 5.323794e+000 0.000000e+000
         vertex 6.501114e+000 5.323794e+000 1.000000e+001
         vertex 6.283870e+000 5.678305e+000 1.000000e+001
      endloop
   endfacet
   facet normal -8.386444e-001 -5.446792e-001 0.000000e+000
      outer loop
         vertex 6.501114e+000 5.323794e+000 0.000000e+000
         vertex 6.283870e+000 5.678305e+000 1.000000e+001
         vertex 6.283870e+000 5.678305e+000 0.000000e+000
      endloop
   endfacet
   facet normal -7.771761e-001 -6.292831e-001 0.000000e+000
      outer loop
         vertex 6.283870e+000 5.678305e+000 0.000000e+000
         vertex 6.283870e+000 5.678305e+000 1.000000e+001
         vertex 6.013842e+000 5.994467e+000 1.000000e+001
      endloop
   endfacet
   facet normal -7.431127e-001 -6.691663e-001 0.000000e+000
      outer loop
         vertex 6.283870e+000 5.678305e+000 0.000000e+000
         vertex 6.013842e+000 5.994467e+000 1.000000e+001
         vertex 6.013842e+000 5.994467e+000 0.000000e+000
      endloop
   endfacet
   facet normal -6.691663e-001 -7.431127e-001 0.000000e+000
      outer loop
         vertex 6.013842e+000 5.994467e+000 0.000000e+000
         vertex 6.013842e+000 5.994467e+000 1.000000e+001
         vertex 5.697680e+000 6.264494e+000 1.000000e+001
      endloop
   endfacet
   facet normal -6.292831e-001 -7.771761e-001 0.000000e+000
      outer loop
         vertex 6.013842e+000 5.994467e+000 0.000000e+000
         vertex 5.697680e+000 6.264494e+000 1.000000e+001
         vertex 5.697680e+000 6.264494e+000 0.000000e+000
      endloop
   endfacet
   facet normal -5.446792e-001 -8.386444e-001 0.000000e+000
      outer loop
         vertex 5.697680e+000 6.264494e+000 0.000000e+000
         vertex 5.697680e+000 6.264494e+000 1.000000e+001
         vertex 5.343169e+000 6.481739e+000 1.000000e+001
      endloop
   endfacet
   facet normal -4.999584e-001 -8.660494e-001 0.000000e+000
      outer loop
         vertex 5.697680e+000 6.264494e+000 0.000000e+000
         vertex 5.343169e+000 6.481739e+000 1.000000e+001
         vertex 5.343169e+000 6.481739e+000 0.000000e+000
      endloop
   endfacet
   facet normal -4.067805e-001 -9.135259e-001 0.000000e+000
      outer loop
         vertex 5.343169e+000 6.481739e+000 0.000000e+000
         vertex 5.343169e+000 6.481739e+000 1.000000e+001
         vertex 4.959038e+000 6.640851e+000 1.000000e+001
      endloop
   endfacet
   facet normal -3.583232e-001 -9.335976e-001 0.000000e+000
      outer loop
         vertex 5.343169e+000 6.481739e+000 0.000000e+000
         vertex 4.959038e+000 6.640851e+000 1.000000e+001
         vertex 4.959038e+000 6.640851e+000 0.000000e+000
      endloop
   endfacet
   facet normal -2.588653e-001 -9.659134e-001 0.000000e+000
      outer loop
         vertex 4.959038e+000 6.640851e+000 0.000000e+000
         vertex 4.959038e+000 6.640851e+000 1.000000e+001
         vertex 4.554746e+000 6.737913e+000 1.000000e+001
      endloop
   endfacet
   facet normal -2.078648e-001 -9.781575e-001 0.000000e+000
      outer loop
         vertex 4.959038e+000 6.640851e+000 0.000000e+000
         vertex 4.554746e+000 6.737913e+000 1.000000e+001
         vertex 4.554746e+000 6.737913e+000 0.000000e+000
      endloop
   endfacet
   facet normal -1.045761e-001 -9.945168e-001 0.000000e+000
      outer loop
         vertex 4.554746e+000 6.737913e+000 0.000000e+000
         vertex 4.554746e+000 6.737913e+000 1.000000e+001
         vertex 4.140248e+000 6.770535e+000 1.000000e+001
      endloop
   endfacet
   facet normal -5.228807e-002 -9.986320e-001 0.000000e+000
      outer loop
         vertex 4.554746e+000 6.737913e+000 0.000000e+000
         vertex 4.140248e+000 6.770535e+000 1.000000e+001
         vertex 4.140248e+000 6.770535e+000 0.000000e+000
      endloop
   endfacet
   facet normal 5.228807e-002 -9.986320e-001 0.000000e+000
      outer loop
         vertex 4.140248e+000 6.770535e+000 0.000000e+000
         vertex 4.140248e+000 6.770535e+000 1.000000e+001
         vertex 3.725749e+000 6.737913e+000 1.000000e+001
      endloop
   endfacet
   facet normal 1.045761e-001 -9.945168e-001 0.000000e+000
      outer loop
         vertex 4.140248e+000 6.770535e+000 0.000000e+000
         vertex 3.725749e+000 6.737913e+000 1.000000e+001
         vertex 3.725749e+000 6.737913e+000 0.000000e+000
      endloop
   endfacet
   facet normal 2.078648e-001 -9.781576e-001 0.000000e+000
      outer loop
         vertex 3.725749e+000 6.737913e+000 0.000000e+000
         vertex 3.725749e+000 6.737913e+000 1.000000e+001
         vertex 3.321457e+000 6.640851e+000 1.000000e+001
      endloop
   endfacet
   facet normal 2.588653e-001 -9.659134e-001 0.000000e+000
      outer loop
         vertex 3.725749e+000 6.737913e+000 0.000000e+000
         vertex 3.321457e+000 6.640851e+000 1.000000e+001
         vertex 3.321457e+000 6.640851e+000 0.000000e+000
      endloop
   endfacet
   facet normal 3.583232e-001 -9.335976e-001 0.000000e+000
      outer loop
         vertex 3.321457e+000 6.640851e+000 0.000000e+000
         vertex 3.321457e+000 6.640851e+000 1.000000e+001
         vertex 2.937326e+000 6.481739e+000 1.000000e+001
      endloop
   endfacet
   facet normal 4.067805e-001 -9.135259e-001 0.000000e+000
      outer loop
         vertex 3.321457e+000 6.640851e+000 0.000000e+000
         vertex 2.937326e+000 6.481739e+000 1.000000e+001
         vertex 2.937326e+000 6.481739e+000 0.000000e+000
      endloop
   endfacet
   facet normal 4.999584e-001 -8.660494e-001 0.000000e+000
      outer loop
         vertex 2.937326e+000 6.481739e+000 0.000000e+000
         vertex 2.937326e+000 6.481739e+000 1.000000e+001
         vertex 2.582815e+000 6.264494e+000 1.000000e+001
      endloop
   endfacet
   facet normal 5.446792e-001 -8.386444e-001 0.000000e+000
      outer loop
         vertex 2.937326e+000 6.481739e+000 0.000000e+000
         vertex 2.582815e+000 6.264494e+000 1.000000e+001
         vertex 2.582815e+000 6.264494e+000 0.000000e+000
      endloop
   endfacet
   facet normal 6.292831e-001 -7.771761e-001 0.000000e+000
      outer loop
         vertex 2.582815e+000 6.264494e+000 0.000000e+000
         vertex 2.582815e+000 6.264494e+000 1.000000e+001
         vertex 2.266653e+000 5.994467e+000 1.000000e+001
      endloop
   endfacet
   facet normal 6.691663e-001 -7.431127e-001 0.000000e+000
      outer loop
         vertex 2.582815e+000 6.264494e+000 0.000000e+000
         vertex 2.266653e+000 5.994467e+000 1.000000e+001
         vertex 2.266653e+000 5.994467e+000 0.000000e+000
      endloop
   endfacet
   facet normal 7.431127e-001 -6.691663e-001 0.000000e+000
      outer loop
         vertex 2.266653e+000 5.994467e+000 0.000000e+000
         vertex 2.266653e+000 5.994467e+000 1.000000e+001
         vertex 1.996626e+000 5.678305e+000 1.000000e+001
      endloop
   endfacet
   facet normal 7.771761e-001 -6.292831e-001 0.000000e+000
      outer loop
         vertex 2.266653e+000 5.994467e+000 0.000000e+000
         vertex 1.996626e+000 5.678305e+000 1.000000e+001
         vertex 1.996626e+000 5.678305e+000 0.000000e+000
      endloop
   endfacet
   facet normal 8.386444e-001 -5.446792e-001 0.000000e+000
      outer loop
         vertex 1.996626e+000 5.678305e+000 0.000000e+000
         vertex 1.996626e+000 5.678305e+000 1.000000e+001
         vertex 1.779381e+000 5.323794e+000 1.000000e+001
      endloop
   endfacet
   facet normal 8.660494e-001 -4.999584e-001 0.000000e+000
      outer loop
         vertex 1.996626e+000 5.678305e+000 0.000000e+000
         vertex 1.779381e+000 5.323794e+000 1.000000e+001
         vertex 1.779381e+000 5.323794e+000 0.000000e+000
      endloop
   endfacet
   facet normal 9.135259e-001 -4.067805e-001 0.000000e+000
      outer loop
         vertex 1.779381e+000 5.323794e+000 0.000000e+000
         vertex 1.779381e+000 5.323794e+000 1.000000e+001
         vertex 1.620269e+000 4.939663e+000 1.000000e+001
      endloop
   endfacet
   facet normal 9.335976e-001 -3.583232e-001 0.000000e+000
      outer loop
         vertex 1.779381e+000 5.323794e+000 0.000000e+000
         vertex 1.620269e+000 4.939663e+000 1.000000e+001
         vertex 1.620269e+000 4.939663e+000 0.000000e+000
      endloop
   endfacet
   facet normal 9.659134e-001 -2.588653e-001 0.000000e+000
      outer loop
         vertex 1.620269e+000 4.939663e+000 0.000000e+000
         vertex 1.620269e+000 4.939663e+000 1.000000e+001
         vertex 1.523207e+000 4.535370e+000 1.000000e+001
      endloop
   endfacet
   facet normal 9.781575e-001 -2.078648e-001 0.000000e+000
      outer loop
         vertex 1.620269e+000 4.939663e+000 0.000000e+000
         vertex 1.523207e+000 4.535370e+000 1.000000e+001
         vertex 1.523207e+000 4.535370e+000 0.000000e+000
      endloop
   endfacet
   facet normal 9.945168e-001 -1.045761e-001 0.000000e+000
      outer loop
         vertex 1.523207e+000 4.535370e+000 0.000000e+000
         vertex 1.523207e+000 4.535370e+000 1.000000e+001
         vertex 1.490585e+000 4.120872e+000 1.000000e+001
      endloop
   endfacet
   facet normal 9.986320e-001 -5.228807e-002 0.000000e+000
      outer loop
         vertex 1.523207e+000 4.535370e+000 0.000000e+000
         vertex 1.490585e+000 4.120872e+000 1.000000e+001
         vertex 1.490585e+000 4.120872e+000 0.000000e+000
      endloop
   endfacet
   facet normal 9.986320e-001 5.228807e-002 0.000000e+000
      outer loop
         vertex 1.490585e+000 4.120872e+000 0.000000e+000
         vertex 1.490585e+000 4.120872e+000 1.000000e+001
         vertex 1.523207e+000 3.706373e+000 1.000000e+001
      endloop
   endfacet
   facet normal 9.945168e-001 1.045761e-001 0.000000e+000
      outer loop
         vertex 1.490585e+000 4.120872e+000 0.000000e+000
         vertex 1.523207e+000 3.706373e+000 1.000000e+001
         vertex 1.523207e+000 3.706373e+000 0.000000e+000
      endloop
   endfacet
   facet normal 9.781576e-001 2.078648e-001 0.000000e+000
      outer loop
         vertex 1.523207e+000 3.706373e+000 0.000000e+000
         vertex 1.523207e+000 3.706373e+000 1.000000e+001
         vertex 1.620269e+000 3.302081e+000 1.000000e+001
      endloop
   endfacet
   facet normal 9.659134e-001 2.588653e-001 0.000000e+000
      outer loop
         vertex 1.523207e+000 3.706373e+000 0.000000e+000
         vertex 1.620269e+000 3.302081e+000 1.000000e+001
         vertex 1.620269e+000 3.302081e+000 0.000000e+000
      endloop
   endfacet
   facet normal 9.335976e-001 3.583232e-001 0.000000e+000
      outer loop
         vertex 1.620269e+000 3.302081e+000 0.000000e+000
         vertex 1.620269e+000 3.302081e+000 1.000000e+001
         vertex 1.779381e+000 2.917950e+000 1.000000e+001
      endloop
   endfacet
   facet normal 9.135259e-001 4.067805e-001 0.000000e+000
      outer loop
         vertex 1.620269e+000 3.302081e+000 0.000000e+000
         vertex 1.779381e+000 2.917950e+000 1.000000e+001
         vertex 1.779381e+000 2.917950e+000 0.000000e+000
      endloop
   endfacet
   facet normal 8.660494e-001 4.999584e-001 0.000000e+000
      outer loop
         vertex 1.779381e+000 2.917950e+000 0.000000e+000
         vertex 1.779381e+000 2.917950e+000 1.000000e+001
         vertex 1.996626e+000 2.563439e+000 1.000000e+001
      endloop
   endfacet
   facet normal 8.386444e-001 5.446792e-001 0.000000e+000
      outer loop
         vertex 1.779381e+000 2.917950e+000 0.000000e+000
         vertex 1.996626e+000 2.563439e+000 1.000000e+001
         vertex 1.996626e+000 2.563439e+000 0.000000e+000
      endloop
   endfacet
   facet normal 7.771761e-001 6.292831e-001 0.000000e+000
      outer loop
         vertex 1.996626e+000 2.563439e+000 0.000000e+000
         vertex 1.996626e+000 2.563439e+000 1.000000e+001
         vertex 2.266653e+000 2.247278e+000 1.000000e+001
      endloop
   endfacet
   facet normal 7.431127e-001 6.691663e-001 0.000000e+000
      outer loop
         vertex 1.996626e+000 2.563439e+000 0.000000e+000
         vertex 2.266653e+000 2.247278e+000 1.000000e+001
         vertex 2.266653e+000 2.247278e+000 0.000000e+000
      endloop
   endfacet
   facet normal 6.691663e-001 7.431127e-001 0.000000e+000
      outer loop
         vertex 2.266653e+000 2.247278e+000 0.000000e+000
         vertex 2.266653e+000 2.247278e+000 1.000000e+001
         vertex 2.582815e+000 1.977250e+000 1.000000e+001
      endloop
   endfacet
   facet normal 6.292831e-001 7.771761e-001 0.000000e+000
      outer loop
         vertex 2.266653e+000 2.247278e+000 0.000000e+000
         vertex 2.582815e+000 1.977250e+000 1.000000e+001
         vertex 2.582815e+000 1.977250e+000 0.000000e+000
      endloop
   endfacet
   facet normal 5.446792e-001 8.386444e-001 0.000000e+000
      outer loop
         vertex 2.582815e+000 1.977250e+000 0.000000e+000
         vertex 2.582815e+000 1.977250e+000 1.000000e+001
         vertex 2.937326e+000 1.760005e+000 1.000000e+001
      endloop
   endfacet
   facet normal 4.999584e-001 8.660494e-001 0.000000e+000
      outer loop
         vertex 2.582815e+000 1.977250e+000 0.000000e+000
         vertex 2.937326e+000 1.760005e+000 1.000000e+001
         vertex 2.937326e+000 1.760005e+000 0.000000e+000
      endloop
   endfacet
   facet normal 4.067805e-001 9.135259e-001 0.000000e+000
      outer loop
         vertex 2.937326e+000 1.760005e+000 0.000000e+000
         vertex 2.937326e+000 1.760005e+000 1.000000e+001
         vertex 3.321457e+000 1.600893e+000 1.000000e+001
      endloop
   endfacet
   facet normal 3.583232e-001 9.335976e-001 0.000000e+000
      outer loop
         vertex 2.937326e+000 1.760005e+000 0.000000e+000
         vertex 3.321457e+000 1.600893e+000 1.000000e+001
         vertex 3.321457e+000 1.600893e+000 0.000000e+000
      endloop
   endfacet
   facet normal 2.588653e-001 9.659134e-001 0.000000e+000
      outer loop
         vertex 3.321457e+000 1.600893e+000 0.000000e+000
         vertex 3.321457e+000 1.600893e+000 1.000000e+001
         vertex 3.725749e+000 1.503831e+000 1.000000e+001
      endloop
   endfacet
   facet normal 2.078648e-001 9.781575e-001 0.000000e+000
      outer loop
         vertex 3.321457e+000 1.600893e+000 0.000000e+000
         vertex 3.725749e+000 1.503831e+000 1.000000e+001
         vertex 3.725749e+000 1.503831e+000 0.000000e+000
      endloop
   endfacet
   facet normal 1.045761e-001 9.945168e-001 0.000000e+000
      outer loop
         vertex 3.725749e+000 1.503831e+000 0.000000e+000
         vertex 3.725749e+000 1.503831e+000 1.000000e+001
         vertex 4.140248e+000 1.471209e+000 1.000000e+001
      endloop
   endfacet
   facet normal 5.228807e-002 9.986320e-001 0.000000e+000
      outer loop
         vertex 3.725749e+000 1.503831e+000 0.000000e+000
         vertex 4.140248e+000 1.471209e+000 1.000000e+001
         vertex 4.140248e+000 1.471209e+000 0.000000e+000
      endloop
   endfacet
   facet normal -5.228807e-002 9.986320e-001 0.000000e+000
      outer loop
         vertex 4.140248e+000 1.471209e+000 0.000000e+000
         vertex 4.140248e+000 1.471209e+000 1.000000e+001
         vertex 4.554746e+000 1.503831e+000 1.000000e+001
      endloop
   endfacet
   facet normal -1.045761e-001 9.945168e-001 0.000000e+000
      outer loop
         vertex 4.140248e+000 1.471209e+000 0.000000e+000
         vertex 4.554746e+000 1.503831e+000 1.000000e+001
         vertex 4.554746e+000 1.503831e+000 0.000000e+000
      endloop
   endfacet
   facet normal -2.078648e-001 9.781576e-001 0.000000e+000
      outer loop
         vertex 4.554746e+000 1.503831e+000 0.000000e+000
         vertex 4.554746e+000 1.503831e+000 1.000000e+001
         vertex 4.959038e+000 1.600893e+000 1.000000e+001
      endloop
   endfacet
   facet normal -2.588653e-001 9.659134e-001 0.000000e+000
      outer loop
         vertex 4.554746e+000 1.503831e+000 0.000000e+000
         vertex 4.959038e+000 1.600893e+000 1.000000e+001
         vertex 4.959038e+000 1.600893e+000 0.000000e+000
      endloop
   endfacet
   facet normal -3.583232e-001 9.335976e-001 0.000000e+000
      outer loop
         vertex 4.959038e+000 1.600893e+000 0.000000e+000
         vertex 4.959038e+000 1.600893e+000 1.000000e+001
         vertex 5.343169e+000 1.760005e+000 1.000000e+001
      endloop
   endfacet
   facet normal -4.067805e-001 9.135259e-001 0.000000e+000
      outer loop
         vertex 4.959038e+000 1.600893e+000 0.000000e+000
         vertex 5.343169e+000 1.760005e+000 1.000000e+001
         vertex 5.343169e+000 1.760005e+000 0.000000e+000
      endloop
   endfacet
   facet normal -4.999584e-001 8.660494e-001 0.000000e+000
      outer loop
         vertex 5.343169e+000 1.760005e+000 0.000000e+000
         vertex 5.343169e+000 1.760005e+000 1.000000e+001
         vertex 5.697680e+000 1.977250e+000 1.000000e+001
      endloop
   endfacet
   facet normal -5.446792e-001 8.386444e-001 0.000000e+000
      outer loop
         vertex 5.343169e+000 1.760005e+000 0.000000e+000
         vertex 5.697680e+000 1.977250e+000 1.000000e+001
         vertex 5.697680e+000 1.977250e+000 0.000000e+000
      endloop
   endfacet
   facet normal -6.292831e-001 7.771761e-001 0.000000e+000
      outer loop
         vertex 5.697680e+000 1.977250e+000 0.000000e+000
         vertex 5.697680e+000 1.977250e+000 1.000000e+001
         vertex 6.013842e+000 2.247278e+000 1.000000e+001
      endloop
   endfacet
   facet normal -6.691663e-001 7.431127e-001 0.000000e+000
      outer loop
         vertex 5.697680e+000 1.977250e+000 0.000000e+000
         vertex 6.013842e+000 2.247278e+000 1.000000e+001
         vertex 6.013842e+000 2.247278e+000 0.000000e+000
      endloop
   endfacet
   facet normal -7.431127e-001 6.691663e-001 0.000000e+000
      outer loop
         vertex 6.013842e+000 2.247278e+000 0.000000e+000
         vertex 6.013842e+000 2.247278e+000 1.000000e+001
         vertex 6.283870e+000 2.563439e+000 1.000000e+001
      endloop
   endfacet
   facet normal -7.771761e-001 6.292831e-001 0.000000e+000
      outer loop
         vertex 6.013842e+000 2.247278e+000 0.000000e+000
         vertex 6.283870e+000 2.563439e+000 1.000000e+001
         vertex 6.283870e+000 2.563439e+000 0.000000e+000
      endloop
   endfacet
   facet normal -8.386444e-001 5.446792e-001 0.000000e+000
      outer loop
         vertex 6.283870e+000 2.563439e+000 0.000000e+000
         vertex 6.283870e+000 2.563439e+000 1.000000e+001
         vertex 6.501114e+000 2.917950e+000 1.000000e+001
      endloop
   endfacet
   facet normal -8.660494e-001 4.999584e-001 0.000000e+000
      outer loop
         vertex 6.283870e+000 2.563439e+000 0.000000e+000
         vertex 6.501114e+000 2.917950e+000 1.000000e+001
         vertex 6.501114e+000 2.917950e+000 0.000000e+000
      endloop
   endfacet
   facet normal -9.135259e-001 4.067805e-001 0.000000e+000
      outer loop
         vertex 6.501114e+000 2.917950e+000 0.000000e+000
         vertex 6.501114e+000 2.917950e+000 1.000000e+001
         vertex 6.660227e+000 3.302081e+000 1.000000e+001
      endloop
   endfacet
   facet normal -9.335976e-001 3.583232e-001 0.000000e+000
      outer loop
         vertex 6.501114e+000 2.917950e+000 0.000000e+000
         vertex 6.660227e+000 3.302081e+000 1.000000e+001
         vertex 6.660227e+000 3.302081e+000 0.000000e+000
      endloop
   endfacet
   facet normal -9.659134e-001 2.588653e-001 0.000000e+000
      outer loop
         vertex 6.660227e+000 3.302081e+000 0.000000e+000
         vertex 6.660227e+000 3.302081e+000 1.000000e+001
         vertex 6.757289e+000 3.706373e+000 1.000000e+001
      endloop
   endfacet
   facet normal -9.781575e-001 2.078648e-001 0.000000e+000
      outer loop
         vertex 6.660227e+000 3.302081e+000 0.000000e+000
         vertex 6.757289e+000 3.706373e+000 1.000000e+001
         vertex 6.757289e+000 3.706373e+000 0.000000e+000
      endloop
   endfacet
   facet normal -9.945168e-001 1.045761e-001 0.000000e+000
      outer loop
         vertex 6.757289e+000 3.706373e+000 0.000000e+000
         vertex 6.757289e+000 3.706373e+000 1.000000e+001
         vertex 6.789910e+000 4.120872e+000 1.000000e+001
      endloop
   endfacet
endsolid