solid 3_881
   facet normal -1.000000e+000 0.000000e+000 0.000000e+000
      outer loop
         vertex 0.000000e+000 1.000000e+001 1.000000e+001
         vertex 0.000000e+000 1.000000e+001 0.000000e+000
         vertex 0.000000e+000 0.000000e+000 1.000000e+001
      endloop
   endfacet
   facet normal -1.000000e+000 0.000000e+000 0.000000e+000
      outer loop
         vertex 0.000000e+000 0.000000e+000 1.000000e+001
         vertex 0.000000e+000 1.000000e+001 0.000000e+000
         vertex 0.000000e+000 0.000000e+000 0.000000e+000
      endloop
   endfacet
   facet normal 0.000000e+000 0.000000e+000 1.000000e+000
      outer loop
         vertex 1.000000e+001 0.000000e+000 1.000000e+001
         vertex 9.094228e+000 5.181791e+000 1.000000e+001
         vertex 8.932609e+000 4.748472e+000 1.000000e+001
      endloop
   endfacet
   facet normal 0.000000e+000 0.000000e+000 1.000000e+000
      outer loop
         vertex 8.932609e+000 4.748472e+000 1.000000e+001
         vertex 8.710965e+000 4.342564e+000 1.000000e+001
         vertex 1.000000e+001 0.000000e+000 1.000000e+001
      endloop
   endfacet
   facet normal 0.000000e+000 0.000000e+000 1.000000e+000
      outer loop
         vertex 1.000000e+001 0.000000e+000 1.000000e+001
         vertex 8.710965e+000 4.342564e+000 1.000000e+001
         vertex 8.433813e+000 3.972331e+000 1.000000e+001
      endloop
   endfacet
   facet normal 0.000000e+000 0.000000e+000 1.000000e+000
      outer loop
         vertex 1.000000e+001 0.000000e+000 1.000000e+001
         vertex 8.433813e+000 3.972331e+000 1.000000e+001
         vertex 8.106791e+000 3.645309e+000 1.000000e+001
      endloop
   endfacet
   facet normal 0.000000e+000 0.000000e+000 1.000000e+000
      outer loop
         vertex 1.000000e+001 1.000000e+001 1.000000e+001
         vertex 9.225528e+000 6.095000e+000 1.000000e+001
         vertex 1.000000e+001 0.000000e+000 1.000000e+001
      endloop
   endfacet
   facet normal 0.000000e+000 0.000000e+000 1.000000e+000
      outer loop
         vertex 1.000000e+001 0.000000e+000 1.000000e+001
         vertex 9.225528e+000 6.095000e+000 1.000000e+001
         vertex 9.192534e+000 5.633700e+000 1.000000e+001
      endloop
   endfacet
   facet normal 0.000000e+000 0.000000e+000 1.000000e+000
      outer loop
         vertex 1.000000e+001 0.000000e+000 1.000000e+001
         vertex 9.192534e+000 5.633700e+000 1.000000e+001
         vertex 9.094228e+000 5.181791e+000 1.000000e+001
      endloop
   endfacet
   facet normal 0.000000e+000 0.000000e+000 1.000000e+000
      outer loop
         vertex 8.932609e+000 7.441529e+000 1.000000e+001
         vertex 9.094228e+000 7.008210e+000 1.000000e+001
         vertex 1.000000e+001 1.000000e+001 1.000000e+001
      endloop
   endfacet
   facet normal 0.000000e+000 0.000000e+000 1.000000e+000
      outer loop
         vertex 1.000000e+001 1.000000e+001 1.000000e+001
         vertex 9.094228e+000 7.008210e+000 1.000000e+001
         vertex 9.192534e+000 6.556301e+000 1.000000e+001
      endloop
   endfacet
   facet normal 0.000000e+000 0.000000e+000 1.000000e+000
      outer loop
         vertex 1.000000e+001 1.000000e+001 1.000000e+001
         vertex 9.192534e+000 6.556301e+000 1.000000e+001
         vertex 9.225528e+000 6.095000e+000 1.000000e+001
      endloop
   endfacet
   facet normal 0.000000e+000 0.000000e+000 1.000000e+000
      outer loop
         vertex 8.106791e+000 3.645309e+000 1.000000e+001
         vertex 7.736558e+000 3.368156e+000 1.000000e+001
         vertex 1.000000e+001 0.000000e+000 1.000000e+001
      endloop
   endfacet
   facet normal 0.000000e+000 0.000000e+000 1.000000e+000
      outer loop
         vertex 1.000000e+001 0.000000e+000 1.000000e+001
         vertex 7.736558e+000 3.368156e+000 1.000000e+001
         vertex 7.330650e+000 3.146514e+000 1.000000e+001
      endloop
   endfacet
   facet normal 0.000000e+000 0.000000e+000 1.000000e+000
      outer loop
         vertex 1.000000e+001 0.000000e+000 1.000000e+001
         vertex 7.330650e+000 3.146514e+000 1.000000e+001
         vertex 6.897331e+000 2.984894e+000 1.000000e+001
      endloop
   endfacet
   facet normal 0.000000e+000 0.000000e+000 1.000000e+000
      outer loop
         vertex 5.070912e+000 2.984894e+000 1.000000e+001
         vertex 4.637593e+000 3.146514e+000 1.000000e+001
         vertex 0.000000e+000 0.000000e+000 1.000000e+001
      endloop
   endfacet
   facet normal 0.000000e+000 0.000000e+000 1.000000e+000
      outer loop
         vertex 0.000000e+000 0.000000e+000 1.000000e+001
         vertex 4.637593e+000 3.146514e+000 1.000000e+001
         vertex 4.231686e+000 3.368156e+000 1.000000e+001
      endloop
   endfacet
   facet normal 0.000000e+000 0.000000e+000 1.000000e+000
      outer loop
         vertex 0.000000e+000 0.000000e+000 1.000000e+001
         vertex 4.231686e+000 3.368156e+000 1.000000e+001
         vertex 3.861452e+000 3.645309e+000 1.000000e+001
      endloop
   endfacet
   facet normal 0.000000e+000 0.000000e+000 1.000000e+000
      outer loop
         vertex 3.861452e+000 8.544691e+000 1.000000e+001
         vertex 0.000000e+000 1.000000e+001 1.000000e+001
         vertex 3.534431e+000 8.217669e+000 1.000000e+001
      endloop
   endfacet
   facet normal 0.000000e+000 0.000000e+000 1.000000e+000
      outer loop
         vertex 3.534431e+000 8.217669e+000 1.000000e+001
         vertex 0.000000e+000 1.000000e+001 1.000000e+001
         vertex 3.257278e+000 7.847437e+000 1.000000e+001
      endloop
   endfacet
   facet normal 0.000000e+000 0.000000e+000 1.000000e+000
      outer loop
         vertex 3.861452e+000 8.544691e+000 1.000000e+001
         vertex 4.231686e+000 8.821844e+000 1.000000e+001
         vertex 0.000000e+000 1.000000e+001 1.000000e+001
      endloop
   endfacet
   facet normal 0.000000e+000 0.000000e+000 1.000000e+000
      outer loop
         vertex 0.000000e+000 1.000000e+001 1.000000e+001
         vertex 4.231686e+000 8.821844e+000 1.000000e+001
         vertex 4.637593e+000 9.043487e+000 1.000000e+001
      endloop
   endfacet
   facet normal 0.000000e+000 0.000000e+000 1.000000e+000
      outer loop
         vertex 0.000000e+000 1.000000e+001 1.000000e+001
         vertex 4.637593e+000 9.043487e+000 1.000000e+001
         vertex 5.070912e+000 9.205106e+000 1.000000e+001
      endloop
   endfacet
   facet normal 0.000000e+000 0.000000e+000 1.000000e+000
      outer loop
         vertex 6.897331e+000 2.984894e+000 1.000000e+001
         vertex 6.445422e+000 2.886587e+000 1.000000e+001
         vertex 1.000000e+001 0.000000e+000 1.000000e+001
      endloop
   endfacet
   facet normal 0.000000e+000 0.000000e+000 1.000000e+000
      outer loop
         vertex 1.000000e+001 0.000000e+000 1.000000e+001
         vertex 6.445422e+000 2.886587e+000 1.000000e+001
         vertex 5.984122e+000 2.853595e+000 1.000000e+001
      endloop
   endfacet
   facet normal 0.000000e+000 0.000000e+000 1.000000e+000
      outer loop
         vertex 1.000000e+001 0.000000e+000 1.000000e+001
         vertex 5.984122e+000 2.853595e+000 1.000000e+001
         vertex 0.000000e+000 0.000000e+000 1.000000e+001
      endloop
   endfacet
   facet normal 0.000000e+000 0.000000e+000 1.000000e+000
      outer loop
         vertex 0.000000e+000 0.000000e+000 1.000000e+001
         vertex 5.984122e+000 2.853595e+000 1.000000e+001
         vertex 5.522821e+000 2.886587e+000 1.000000e+001
      endloop
   endfacet
   facet normal 0.000000e+000 0.000000e+000 1.000000e+000
      outer loop
         vertex 0.000000e+000 0.000000e+000 1.000000e+001
         vertex 5.522821e+000 2.886587e+000 1.000000e+001
         vertex 5.070912e+000 2.984894e+000 1.000000e+001
      endloop
   endfacet
   facet normal 0.000000e+000 0.000000e+000 1.000000e+000
      outer loop
         vertex 3.861452e+000 3.645309e+000 1.000000e+001
         vertex 3.534431e+000 3.972331e+000 1.000000e+001
         vertex 0.000000e+000 0.000000e+000 1.000000e+001
      endloop
   endfacet
   facet normal 0.000000e+000 0.000000e+000 1.000000e+000
      outer loop
         vertex 0.000000e+000 0.000000e+000 1.000000e+001
         vertex 3.534431e+000 3.972331e+000 1.000000e+001
         vertex 3.257278e+000 4.342564e+000 1.000000e+001
      endloop
   endfacet
   facet normal 0.000000e+000 0.000000e+000 1.000000e+000
      outer loop
         vertex 0.000000e+000 0.000000e+000 1.000000e+001
         vertex 3.257278e+000 4.342564e+000 1.000000e+001
         vertex 3.035635e+000 4.748472e+000 1.000000e+001
      endloop
   endfacet
   facet normal 0.000000e+000 0.000000e+000 1.000000e+000
      outer loop
         vertex 5.070912e+000 9.205106e+000 1.000000e+001
         vertex 5.522821e+000 9.303413e+000 1.000000e+001
         vertex 0.000000e+000 1.000000e+001 1.000000e+001
      endloop
   endfacet
   facet normal 0.000000e+000 0.000000e+000 1.000000e+000
      outer loop
         vertex 0.000000e+000 1.000000e+001 1.000000e+001
         vertex 5.522821e+000 9.303413e+000 1.000000e+001
         vertex 5.984122e+000 9.336406e+000 1.000000e+001
      endloop
   endfacet
   facet normal 0.000000e+000 0.000000e+000 1.000000e+000
      outer loop
         vertex 0.000000e+000 1.000000e+001 1.000000e+001
         vertex 5.984122e+000 9.336406e+000 1.000000e+001
         vertex 1.000000e+001 1.000000e+001 1.000000e+001
      endloop
   endfacet
   facet normal 0.000000e+000 0.000000e+000 1.000000e+000
      outer loop
         vertex 1.000000e+001 1.000000e+001 1.000000e+001
         vertex 5.984122e+000 9.336406e+000 1.000000e+001
         vertex 6.445422e+000 9.303413e+000 1.000000e+001
      endloop
   endfacet
   facet normal 0.000000e+000 0.000000e+000 1.000000e+000
      outer loop
         vertex 1.000000e+001 1.000000e+001 1.000000e+001
         vertex 6.445422e+000 9.303413e+000 1.000000e+001
         vertex 6.897331e+000 9.205106e+000 1.000000e+001
      endloop
   endfacet
   facet normal 0.000000e+000 0.000000e+000 1.000000e+000
      outer loop
         vertex 8.106791e+000 8.544691e+000 1.000000e+001
         vertex 8.433813e+000 8.217669e+000 1.000000e+001
         vertex 1.000000e+001 1.000000e+001 1.000000e+001
      endloop
   endfacet
   facet normal 0.000000e+000 0.000000e+000 1.000000e+000
      outer loop
         vertex 1.000000e+001 1.000000e+001 1.000000e+001
         vertex 8.433813e+000 8.217669e+000 1.000000e+001
         vertex 8.710965e+000 7.847437e+000 1.000000e+001
      endloop
   endfacet
   facet normal 0.000000e+000 0.000000e+000 1.000000e+000
      outer loop
         vertex 1.000000e+001 1.000000e+001 1.000000e+001
         vertex 8.710965e+000 7.847437e+000 1.000000e+001
         vertex 8.932609e+000 7.441529e+000 1.000000e+001
      endloop
   endfacet
   facet normal 0.000000e+000 0.000000e+000 1.000000e+000
      outer loop
         vertex 3.035635e+000 4.748472e+000 1.000000e+001
         vertex 2.874016e+000 5.181791e+000 1.000000e+001
         vertex 0.000000e+000 0.000000e+000 1.000000e+001
      endloop
   endfacet
   facet normal 0.000000e+000 0.000000e+000 1.000000e+000
      outer loop
         vertex 0.000000e+000 0.000000e+000 1.000000e+001
         vertex 2.874016e+000 5.181791e+000 1.000000e+001
         vertex 2.775709e+000 5.633700e+000 1.000000e+001
      endloop
   endfacet
   facet normal 0.000000e+000 0.000000e+000 1.000000e+000
      outer loop
         vertex 0.000000e+000 0.000000e+000 1.000000e+001
         vertex 2.775709e+000 5.633700e+000 1.000000e+001
         vertex 0.000000e+000 1.000000e+001 1.000000e+001
      endloop
   endfacet
   facet normal 0.000000e+000 0.000000e+000 1.000000e+000
      outer loop
         vertex 0.000000e+000 1.000000e+001 1.000000e+001
         vertex 2.775709e+000 5.633700e+000 1.000000e+001
         vertex 2.742716e+000 6.095000e+000 1.000000e+001
      endloop
   endfacet
   facet normal 0.000000e+000 0.000000e+000 1.000000e+000
      outer loop
         vertex 0.000000e+000 1.000000e+001 1.000000e+001
         vertex 2.742716e+000 6.095000e+000 1.000000e+001
         vertex 2.775709e+000 6.556301e+000 1.000000e+001
      endloop
   endfacet
   facet normal 0.000000e+000 0.000000e+000 1.000000e+000
      outer loop
         vertex 2.775709e+000 6.556301e+000 1.000000e+001
         vertex 2.874016e+000 7.008210e+000 1.000000e+001
         vertex 0.000000e+000 1.000000e+001 1.000000e+001
      endloop
   endfacet
   facet normal 0.000000e+000 0.000000e+000 1.000000e+000
      outer loop
         vertex 0.000000e+000 1.000000e+001 1.000000e+001
         vertex 2.874016e+000 7.008210e+000 1.000000e+001
         vertex 3.035635e+000 7.441529e+000 1.000000e+001
      endloop
   endfacet
   facet normal 0.000000e+000 0.000000e+000 1.000000e+000
      outer loop
         vertex 0.000000e+000 1.000000e+001 1.000000e+001
         vertex 3.035635e+000 7.441529e+000 1.000000e+001
         vertex 3.257278e+000 7.847437e+000 1.000000e+001
      endloop
   endfacet
   facet normal 0.000000e+000 0.000000e+000 1.000000e+000
      outer loop
         vertex 6.897331e+000 9.205106e+000 1.000000e+001
         vertex 7.330650e+000 9.043487e+000 1.000000e+001
         vertex 1.000000e+001 1.000000e+001 1.000000e+001
      endloop
   endfacet
   facet normal 0.000000e+000 0.000000e+000 1.000000e+000
      outer loop
         vertex 1.000000e+001 1.000000e+001 1.000000e+001
         vertex 7.330650e+000 9.043487e+000 1.000000e+001
         vertex 7.736558e+000 8.821844e+000 1.000000e+001
      endloop
   endfacet
   facet normal 0.000000e+000 0.000000e+000 1.000000e+000
      outer loop
         vertex 1.000000e+001 1.000000e+001 1.000000e+001
         vertex 7.736558e+000 8.821844e+000 1.000000e+001
         vertex 8.106791e+000 8.544691e+000 1.000000e+001
      endloop
   endfacet
   facet normal 1.000000e+000 0.000000e+000 0.000000e+000
      outer loop
         vertex 1.000000e+001 1.000000e+001 0.000000e+000
         vertex 1.000000e+001 1.000000e+001 1.000000e+001
         vertex 1.000000e+001 0.000000e+000 0.000000e+000
      endloop
   endfacet
   facet normal 1.000000e+000 0.000000e+000 0.000000e+000
      outer loop
         vertex 1.000000e+001 0.000000e+000 0.000000e+000
         vertex 1.000000e+001 1.000000e+001 1.000000e+001
         vertex 1.000000e+001 0.000000e+000 1.000000e+001
      endloop
   endfacet
   facet normal 0.000000e+000 0.000000e+000 -1.000000e+000
      outer loop
         vertex 7.736558e+000 3.368156e+000 0.000000e+000
         vertex 8.106791e+000 3.645309e+000 0.000000e+000
         vertex 1.000000e+001 0.000000e+000 0.000000e+000
      endloop
   endfacet
   facet normal 0.000000e+000 0.000000e+000 -1.000000e+000
      outer loop
         vertex 1.000000e+001 0.000000e+000 0.000000e+000
         vertex 8.106791e+000 3.645309e+000 0.000000e+000
         vertex 8.433813e+000 3.972331e+000 0.000000e+000
      endloop
   endfacet
   facet normal 0.000000e+000 0.000000e+000 -1.000000e+000
      outer loop
         vertex 9.094228e+000 7.008210e+000 0.000000e+000
         vertex 8.932609e+000 7.441529e+000 0.000000e+000
         vertex 1.000000e+001 1.000000e+001 0.000000e+000
      endloop
   endfacet
   facet normal 0.000000e+000 0.000000e+000 -1.000000e+000
      outer loop
         vertex 8.433813e+000 3.972331e+000 0.000000e+000
         vertex 8.710965e+000 4.342564e+000 0.000000e+000
         vertex 1.000000e+001 0.000000e+000 0.000000e+000
      endloop
   endfacet
   facet normal 0.000000e+000 0.000000e+000 -1.000000e+000
      outer loop
         vertex 1.000000e+001 0.000000e+000 0.000000e+000
         vertex 8.710965e+000 4.342564e+000 0.000000e+000
         vertex 8.932609e+000 4.748472e+000 0.000000e+000
      endloop
   endfacet
   facet normal 0.000000e+000 0.000000e+000 -1.000000e+000
      outer loop
         vertex 1.000000e+001 0.000000e+000 0.000000e+000
         vertex 8.932609e+000 4.748472e+000 0.000000e+000
         vertex 9.094228e+000 5.181791e+000 0.000000e+000
      endloop
   endfacet
   facet normal 0.000000e+000 0.000000e+000 -1.000000e+000
      outer loop
         vertex 9.094228e+000 5.181791e+000 0.000000e+000
         vertex 9.192534e+000 5.633700e+000 0.000000e+000
         vertex 1.000000e+001 0.000000e+000 0.000000e+000
      endloop
   endfacet
   facet normal 0.000000e+000 0.000000e+000 -1.000000e+000
      outer loop
         vertex 1.000000e+001 0.000000e+000 0.000000e+000
         vertex 9.192534e+000 5.633700e+000 0.000000e+000
         vertex 9.225528e+000 6.095000e+000 0.000000e+000
      endloop
   endfacet
   facet normal 0.000000e+000 0.000000e+000 -1.000000e+000
      outer loop
         vertex 1.000000e+001 0.000000e+000 0.000000e+000
         vertex 9.225528e+000 6.095000e+000 0.000000e+000
         vertex 1.000000e+001 1.000000e+001 0.000000e+000
      endloop
   endfacet
   facet normal 0.000000e+000 0.000000e+000 -1.000000e+000
      outer loop
         vertex 1.000000e+001 1.000000e+001 0.000000e+000
         vertex 9.225528e+000 6.095000e+000 0.000000e+000
         vertex 9.192534e+000 6.556301e+000 0.000000e+000
      endloop
   endfacet
   facet normal 0.000000e+000 0.000000e+000 -1.000000e+000
      outer loop
         vertex 1.000000e+001 1.000000e+001 0.000000e+000
         vertex 9.192534e+000 6.556301e+000 0.000000e+000
         vertex 9.094228e+000 7.008210e+000 0.000000e+000
      endloop
   endfacet
   facet normal 0.000000e+000 0.000000e+000 -1.000000e+000
      outer loop
         vertex 3.534431e+000 8.217669e+000 0.000000e+000
         vertex 3.257278e+000 7.847437e+000 0.000000e+000
         vertex 0.000000e+000 1.000000e+001 0.000000e+000
      endloop
   endfacet
   facet normal 0.000000e+000 0.000000e+000 -1.000000e+000
      outer loop
         vertex 0.000000e+000 1.000000e+001 0.000000e+000
         vertex 3.257278e+000 7.847437e+000 0.000000e+000
         vertex 3.035635e+000 7.441529e+000 0.000000e+000
      endloop
   endfacet
   facet normal 0.000000e+000 0.000000e+000 -1.000000e+000
      outer loop
         vertex 0.000000e+000 1.000000e+001 0.000000e+000
         vertex 2.742716e+000 6.095000e+000 0.000000e+000
         vertex 0.000000e+000 0.000000e+000 0.000000e+000
      endloop
   endfacet
   facet normal 0.000000e+000 0.000000e+000 -1.000000e+000
      outer loop
         vertex 0.000000e+000 0.000000e+000 0.000000e+000
         vertex 2.742716e+000 6.095000e+000 0.000000e+000
         vertex 2.775709e+000 5.633700e+000 0.000000e+000
      endloop
   endfacet
   facet normal 0.000000e+000 0.000000e+000 -1.000000e+000
      outer loop
         vertex 0.000000e+000 0.000000e+000 0.000000e+000
         vertex 2.775709e+000 5.633700e+000 0.000000e+000
         vertex 2.874016e+000 5.181791e+000 0.000000e+000
      endloop
   endfacet
   facet normal 0.000000e+000 0.000000e+000 -1.000000e+000
      outer loop
         vertex 2.874016e+000 5.181791e+000 0.000000e+000
         vertex 3.035635e+000 4.748472e+000 0.000000e+000
         vertex 0.000000e+000 0.000000e+000 0.000000e+000
      endloop
   endfacet
   facet normal 0.000000e+000 0.000000e+000 -1.000000e+000
      outer loop
         vertex 0.000000e+000 0.000000e+000 0.000000e+000
         vertex 3.035635e+000 4.748472e+000 0.000000e+000
         vertex 3.257278e+000 4.342564e+000 0.000000e+000
      endloop
   endfacet
   facet normal 0.000000e+000 0.000000e+000 -1.000000e+000
      outer loop
         vertex 0.000000e+000 0.000000e+000 0.000000e+000
         vertex 3.257278e+000 4.342564e+000 0.000000e+000
         vertex 3.534431e+000 3.972331e+000 0.000000e+000
      endloop
   endfacet
   facet normal 0.000000e+000 0.000000e+000 -1.000000e+000
      outer loop
         vertex 3.534431e+000 3.972331e+000 0.000000e+000
         vertex 3.861452e+000 3.645309e+000 0.000000e+000
         vertex 0.000000e+000 0.000000e+000 0.000000e+000
      endloop
   endfacet
   facet normal 0.000000e+000 0.000000e+000 -1.000000e+000
      outer loop
         vertex 0.000000e+000 0.000000e+000 0.000000e+000
         vertex 3.861452e+000 3.645309e+000 0.000000e+000
         vertex 4.231686e+000 3.368156e+000 0.000000e+000
      endloop
   endfacet
   facet normal 0.000000e+000 0.000000e+000 -1.000000e+000
      outer loop
         vertex 0.000000e+000 0.000000e+000 0.000000e+000
         vertex 4.231686e+000 3.368156e+000 0.000000e+000
         vertex 4.637593e+000 3.146514e+000 0.000000e+000
      endloop
   endfacet
   facet normal 0.000000e+000 0.000000e+000 -1.000000e+000
      outer loop
         vertex 6.445422e+000 2.886587e+000 0.000000e+000
         vertex 6.897331e+000 2.984894e+000 0.000000e+000
         vertex 1.000000e+001 0.000000e+000 0.000000e+000
      endloop
   endfacet
   facet normal 0.000000e+000 0.000000e+000 -1.000000e+000
      outer loop
         vertex 1.000000e+001 0.000000e+000 0.000000e+000
         vertex 6.897331e+000 2.984894e+000 0.000000e+000
         vertex 7.330650e+000 3.146514e+000 0.000000e+000
      endloop
   endfacet
   facet normal 0.000000e+000 0.000000e+000 -1.000000e+000
      outer loop
         vertex 1.000000e+001 0.000000e+000 0.000000e+000
         vertex 7.330650e+000 3.146514e+000 0.000000e+000
         vertex 7.736558e+000 3.368156e+000 0.000000e+000
      endloop
   endfacet
   facet normal 0.000000e+000 0.000000e+000 -1.000000e+000
      outer loop
         vertex 4.637593e+000 3.146514e+000 0.000000e+000
         vertex 5.070912e+000 2.984894e+000 0.000000e+000
         vertex 0.000000e+000 0.000000e+000 0.000000e+000
      endloop
   endfacet
   facet normal 0.000000e+000 0.000000e+000 -1.000000e+000
      outer loop
         vertex 0.000000e+000 0.000000e+000 0.000000e+000
         vertex 5.070912e+000 2.984894e+000 0.000000e+000
         vertex 5.522821e+000 2.886587e+000 0.000000e+000
      endloop
   endfacet
   facet normal 0.000000e+000 0.000000e+000 -1.000000e+000
      outer loop
         vertex 0.000000e+000 0.000000e+000 0.000000e+000
         vertex 5.522821e+000 2.886587e+000 0.000000e+000
         vertex 1.000000e+001 0.000000e+000 0.000000e+000
      endloop
   endfacet
   facet normal 0.000000e+000 0.000000e+000 -1.000000e+000
      outer loop
         vertex 1.000000e+001 0.000000e+000 0.000000e+000
         vertex 5.522821e+000 2.886587e+000 0.000000e+000
         vertex 5.984122e+000 2.853595e+000 0.000000e+000
      endloop
   endfacet
   facet normal 0.000000e+000 0.000000e+000 -1.000000e+000
      outer loop
         vertex 1.000000e+001 0.000000e+000 0.000000e+000
         vertex 5.984122e+000 2.853595e+000 0.000000e+000
         vertex 6.445422e+000 2.886587e+000 0.000000e+000
      endloop
   endfacet
   facet normal 0.000000e+000 0.000000e+000 -1.000000e+000
      outer loop
         vertex 8.932609e+000 7.441529e+000 0.000000e+000
         vertex 8.710965e+000 7.847437e+000 0.000000e+000
         vertex 1.000000e+001 1.000000e+001 0.000000e+000
      endloop
   endfacet
   facet normal 0.000000e+000 0.000000e+000 -1.000000e+000
      outer loop
         vertex 1.000000e+001 1.000000e+001 0.000000e+000
         vertex 8.710965e+000 7.847437e+000 0.000000e+000
         vertex 8.433813e+000 8.217669e+000 0.000000e+000
      endloop
   endfacet
   facet normal 0.000000e+000 0.000000e+000 -1.000000e+000
      outer loop
         vertex 1.000000e+001 1.000000e+001 0.000000e+000
         vertex 8.433813e+000 8.217669e+000 0.000000e+000
         vertex 8.106791e+000 8.544691e+000 0.000000e+000
      endloop
   endfacet
   facet normal 0.000000e+000 0.000000e+000 -1.000000e+000
      outer loop
         vertex 0.000000e+000 1.000000e+001 0.000000e+000
         vertex 5.070912e+000 9.205106e+000 0.000000e+000
         vertex 4.637593e+000 9.043487e+000 0.000000e+000
      endloop
   endfacet
   facet normal 0.000000e+000 0.000000e+000 -1.000000e+000
      outer loop
         vertex 3.035635e+000 7.441529e+000 0.000000e+000
         vertex 2.874016e+000 7.008210e+000 0.000000e+000
         vertex 0.000000e+000 1.000000e+001 0.000000e+000
      endloop
   endfacet
   facet normal 0.000000e+000 0.000000e+000 -1.000000e+000
      outer loop
         vertex 0.000000e+000 1.000000e+001 0.000000e+000
         vertex 2.874016e+000 7.008210e+000 0.000000e+000
         vertex 2.775709e+000 6.556301e+000 0.000000e+000
      endloop
   endfacet
   facet normal 0.000000e+000 0.000000e+000 -1.000000e+000
      outer loop
         vertex 0.000000e+000 1.000000e+001 0.000000e+000
         vertex 2.775709e+000 6.556301e+000 0.000000e+000
         vertex 2.742716e+000 6.095000e+000 0.000000e+000
      endloop
   endfacet
   facet normal 0.000000e+000 0.000000e+000 -1.000000e+000
      outer loop
         vertex 8.106791e+000 8.544691e+000 0.000000e+000
         vertex 7.736558e+000 8.821844e+000 0.000000e+000
         vertex 1.000000e+001 1.000000e+001 0.000000e+000
      endloop
   endfacet
   facet normal 0.000000e+000 0.000000e+000 -1.000000e+000
      outer loop
         vertex 1.000000e+001 1.000000e+001 0.000000e+000
         vertex 7.736558e+000 8.821844e+000 0.000000e+000
         vertex 7.330650e+000 9.043487e+000 0.000000e+000
      endloop
   endfacet
   facet normal 0.000000e+000 0.000000e+000 -1.000000e+000
      outer loop
         vertex 1.000000e+001 1.000000e+001 0.000000e+000
         vertex 7.330650e+000 9.043487e+000 0.000000e+000
         vertex 6.897331e+000 9.205106e+000 0.000000e+000
      endloop
   endfacet
   facet normal 0.000000e+000 0.000000e+000 -1.000000e+000
      outer loop
         vertex 6.897331e+000 9.205106e+000 0.000000e+000
         vertex 6.445422e+000 9.303413e+000 0.000000e+000
         vertex 1.000000e+001 1.000000e+001 0.000000e+000
      endloop
   endfacet
   facet normal 0.000000e+000 0.000000e+000 -1.000000e+000
      outer loop
         vertex 1.000000e+001 1.000000e+001 0.000000e+000
         vertex 6.445422e+000 9.303413e+000 0.000000e+000
         vertex 5.984122e+000 9.336406e+000 0.000000e+000
      endloop
   endfacet
   facet normal 0.000000e+000 0.000000e+000 -1.000000e+000
      outer loop
         vertex 1.000000e+001 1.000000e+001 0.000000e+000
         vertex 5.984122e+000 9.336406e+000 0.000000e+000
         vertex 0.000000e+000 1.000000e+001 0.000000e+000
      endloop
   endfacet
   facet normal 0.000000e+000 0.000000e+000 -1.000000e+000
      outer loop
         vertex 0.000000e+000 1.000000e+001 0.000000e+000
         vertex 5.984122e+000 9.336406e+000 0.000000e+000
         vertex 5.522821e+000 9.303413e+000 0.000000e+000
      endloop
   endfacet
   facet normal 0.000000e+000 0.000000e+000 -1.000000e+000
      outer loop
         vertex 0.000000e+000 1.000000e+001 0.000000e+000
         vertex 5.522821e+000 9.303413e+000 0.000000e+000
         vertex 5.070912e+000 9.205106e+000 0.000000e+000
      endloop
   endfacet
   facet normal 0.000000e+000 0.000000e+000 -1.000000e+000
      outer loop
         vertex 4.637593e+000 9.043487e+000 0.000000e+000
         vertex 4.231686e+000 8.821844e+000 0.000000e+000
         vertex 0.000000e+000 1.000000e+001 0.000000e+000
      endloop
   endfacet
   facet normal 0.000000e+000 0.000000e+000 -1.000000e+000
      outer loop
         vertex 0.000000e+000 1.000000e+001 0.000000e+000
         vertex 4.231686e+000 8.821844e+000 0.000000e+000
         vertex 3.861452e+000 8.544691e+000 0.000000e+000
      endloop
   endfacet
   facet normal 0.000000e+000 0.000000e+000 -1.000000e+000
      outer loop
         vertex 0.000000e+000 1.000000e+001 0.000000e+000
         vertex 3.861452e+000 8.544691e+000 0.000000e+000
         vertex 3.534431e+000 8.217669e+000 0.000000e+000
      endloop
   endfacet
   facet normal 0.000000e+000 1.000000e+000 0.000000e+000
      outer loop
         vertex 1.000000e+001 1.000000e+001 1.000000e+001
         vertex 1.000000e+001 1.000000e+001 0.000000e+000
         vertex 0.000000e+000 1.000000e+001 1.000000e+001
      endloop
   endfacet
   facet normal 0.000000e+000 1.000000e+000 0.000000e+000
      outer loop
         vertex 0.000000e+000 1.000000e+001 1.000000e+001
         vertex 1.000000e+001 1.000000e+001 0.000000e+000
         vertex 0.000000e+000 1.000000e+001 0.000000e+000
      endloop
   endfacet
   facet normal 0.000000e+000 -1.000000e+000 0.000000e+000
      outer loop
         vertex 1.000000e+001 0.000000e+000 0.000000e+000
         vertex 1.000000e+001 0.000000e+000 1.000000e+001
         vertex 0.000000e+000 0.000000e+000 0.000000e+000
      endloop
   endfacet
   facet normal 0.000000e+000 -1.000000e+000 0.000000e+000
      outer loop
         vertex 0.000000e+000 0.000000e+000 0.000000e+000
         vertex 1.000000e+001 0.000000e+000 1.000000e+001
         vertex 0.000000e+000 0.000000e+000 1.000000e+001
      endloop
   endfacet
   facet normal -9.988691e-001 4.754595e-002 0.000000e+000
      outer loop
         vertex 9.192534e+000 5.633700e+000 0.000000e+000
         vertex 9.225528e+000 6.095000e+000 1.000000e+001
         vertex 9.225528e+000 6.095000e+000 0.000000e+000
      endloop
   endfacet
   facet normal -9.988691e-001 -4.754595e-002 0.000000e+000
      outer loop
         vertex 9.225528e+000 6.095000e+000 0.000000e+000
         vertex 9.225528e+000 6.095000e+000 1.000000e+001
         vertex 9.192534e+000 6.556301e+000 1.000000e+001
      endloop
   endfacet
   facet normal -9.954685e-001 -9.509189e-002 0.000000e+000
      outer loop
         vertex 9.225528e+000 6.095000e+000 0.000000e+000
         vertex 9.192534e+000 6.556301e+000 1.000000e+001
         vertex 9.192534e+000 6.556301e+000 0.000000e+000
      endloop
   endfacet
   facet normal -9.819355e-001 -1.892159e-001 0.000000e+000
      outer loop
         vertex 9.192534e+000 6.556301e+000 0.000000e+000
         vertex 9.192534e+000 6.556301e+000 1.000000e+001
         vertex 9.094228e+000 7.008210e+000 1.000000e+001
      endloop
   endfacet
   facet normal -9.718031e-001 -2.357940e-001 0.000000e+000
      outer loop
         vertex 9.192534e+000 6.556301e+000 0.000000e+000
         vertex 9.094228e+000 7.008210e+000 1.000000e+001
         vertex 9.094228e+000 7.008210e+000 0.000000e+000
      endloop
   endfacet
   facet normal -9.450126e-001 -3.270339e-001 0.000000e+000
      outer loop
         vertex 9.094228e+000 7.008210e+000 0.000000e+000
         vertex 9.094228e+000 7.008210e+000 1.000000e+001
         vertex 8.932609e+000 7.441529e+000 1.000000e+001
      endloop
   endfacet
   facet normal -9.283545e-001 -3.716959e-001 0.000000e+000
      outer loop
         vertex 9.094228e+000 7.008210e+000 0.000000e+000
         vertex 8.932609e+000 7.441529e+000 1.000000e+001
         vertex 8.932609e+000 7.441529e+000 0.000000e+000
      endloop
   endfacet
   facet normal -8.888519e-001 -4.581946e-001 0.000000e+000
      outer loop
         vertex 8.932609e+000 7.441529e+000 0.000000e+000
         vertex 8.932609e+000 7.441529e+000 1.000000e+001
         vertex 8.710965e+000 7.847437e+000 1.000000e+001
      endloop
   endfacet
   facet normal -8.660074e-001 -5.000312e-001 0.000000e+000
      outer loop
         vertex 8.932609e+000 7.441529e+000 0.000000e+000
         vertex 8.710965e+000 7.847437e+000 1.000000e+001
         vertex 8.710965e+000 7.847437e+000 0.000000e+000
      endloop
   endfacet
   facet normal -8.145968e-001 -5.800276e-001 0.000000e+000
      outer loop
         vertex 8.710965e+000 7.847437e+000 0.000000e+000
         vertex 8.710965e+000 7.847437e+000 1.000000e+001
         vertex 8.433813e+000 8.217669e+000 1.000000e+001
      endloop
   endfacet
   facet normal -7.860308e-001 -6.181873e-001 0.000000e+000
      outer loop
         vertex 8.710965e+000 7.847437e+000 0.000000e+000
         vertex 8.433813e+000 8.217669e+000 1.000000e+001
         vertex 8.433813e+000 8.217669e+000 0.000000e+000
      endloop
   endfacet
   facet normal -7.237589e-001 -6.900530e-001 0.000000e+000
      outer loop
         vertex 8.433813e+000 8.217669e+000 0.000000e+000
         vertex 8.433813e+000 8.217669e+000 1.000000e+001
         vertex 8.106791e+000 8.544691e+000 1.000000e+001
      endloop
   endfacet
   facet normal -6.900530e-001 -7.237589e-001 0.000000e+000
      outer loop
         vertex 8.433813e+000 8.217669e+000 0.000000e+000
         vertex 8.106791e+000 8.544691e+000 1.000000e+001
         vertex 8.106791e+000 8.544691e+000 0.000000e+000
      endloop
   endfacet
   facet normal -6.181873e-001 -7.860308e-001 0.000000e+000
      outer loop
         vertex 8.106791e+000 8.544691e+000 0.000000e+000
         vertex 8.106791e+000 8.544691e+000 1.000000e+001
         vertex 7.736558e+000 8.821844e+000 1.000000e+001
      endloop
   endfacet
   facet normal -5.800276e-001 -8.145968e-001 0.000000e+000
      outer loop
         vertex 8.106791e+000 8.544691e+000 0.000000e+000
         vertex 7.736558e+000 8.821844e+000 1.000000e+001
         vertex 7.736558e+000 8.821844e+000 0.000000e+000
      endloop
   endfacet
   facet normal -5.000312e-001 -8.660074e-001 0.000000e+000
      outer loop
         vertex 7.736558e+000 8.821844e+000 0.000000e+000
         vertex 7.736558e+000 8.821844e+000 1.000000e+001
         vertex 7.330650e+000 9.043487e+000 1.000000e+001
      endloop
   endfacet
   facet normal -4.581946e-001 -8.888519e-001 0.000000e+000
      outer loop
         vertex 7.736558e+000 8.821844e+000 0.000000e+000
         vertex 7.330650e+000 9.043487e+000 1.000000e+001
         vertex 7.330650e+000 9.043487e+000 0.000000e+000
      endloop
   endfacet
   facet normal -3.716959e-001 -9.283545e-001 0.000000e+000
      outer loop
         vertex 7.330650e+000 9.043487e+000 0.000000e+000
         vertex 7.330650e+000 9.043487e+000 1.000000e+001
         vertex 6.897331e+000 9.205106e+000 1.000000e+001
      endloop
   endfacet
   facet normal -3.270340e-001 -9.450126e-001 0.000000e+000
      outer loop
         vertex 7.330650e+000 9.043487e+000 0.000000e+000
         vertex 6.897331e+000 9.205106e+000 1.000000e+001
         vertex 6.897331e+000 9.205106e+000 0.000000e+000
      endloop
   endfacet
   facet normal -2.357940e-001 -9.718031e-001 0.000000e+000
      outer loop
         vertex 6.897331e+000 9.205106e+000 0.000000e+000
         vertex 6.897331e+000 9.205106e+000 1.000000e+001
         vertex 6.445422e+000 9.303413e+000 1.000000e+001
      endloop
   endfacet
   facet normal -1.892159e-001 -9.819355e-001 0.000000e+000
      outer loop
         vertex 6.897331e+000 9.205106e+000 0.000000e+000
         vertex 6.445422e+000 9.303413e+000 1.000000e+001
         vertex 6.445422e+000 9.303413e+000 0.000000e+000
      endloop
   endfacet
   facet normal -9.509189e-002 -9.954685e-001 0.000000e+000
      outer loop
         vertex 6.445422e+000 9.303413e+000 0.000000e+000
         vertex 6.445422e+000 9.303413e+000 1.000000e+001
         vertex 5.984122e+000 9.336406e+000 1.000000e+001
      endloop
   endfacet
   facet normal -4.754595e-002 -9.988691e-001 0.000000e+000
      outer loop
         vertex 6.445422e+000 9.303413e+000 0.000000e+000
         vertex 5.984122e+000 9.336406e+000 1.000000e+001
         vertex 5.984122e+000 9.336406e+000 0.000000e+000
      endloop
   endfacet
   facet normal 4.754595e-002 -9.988691e-001 0.000000e+000
      outer loop
         vertex 5.984122e+000 9.336406e+000 0.000000e+000
         vertex 5.984122e+000 9.336406e+000 1.000000e+001
         vertex 5.522821e+000 9.303413e+000 1.000000e+001
      endloop
   endfacet
   facet normal 9.509189e-002 -9.954685e-001 0.000000e+000
      outer loop
         vertex 5.984122e+000 9.336406e+000 0.000000e+000
         vertex 5.522821e+000 9.303413e+000 1.000000e+001
         vertex 5.522821e+000 9.303413e+000 0.000000e+000
      endloop
   endfacet
   facet normal 1.892159e-001 -9.819355e-001 0.000000e+000
      outer loop
         vertex 5.522821e+000 9.303413e+000 0.000000e+000
         vertex 5.522821e+000 9.303413e+000 1.000000e+001
         vertex 5.070912e+000 9.205106e+000 1.000000e+001
      endloop
   endfacet
   facet normal 2.357940e-001 -9.718031e-001 0.000000e+000
      outer loop
         vertex 5.522821e+000 9.303413e+000 0.000000e+000
         vertex 5.070912e+000 9.205106e+000 1.000000e+001
         vertex 5.070912e+000 9.205106e+000 0.000000e+000
      endloop
   endfacet
   facet normal 3.270339e-001 -9.450126e-001 0.000000e+000
      outer loop
         vertex 5.070912e+000 9.205106e+000 0.000000e+000
         vertex 5.070912e+000 9.205106e+000 1.000000e+001
         vertex 4.637593e+000 9.043487e+000 1.000000e+001
      endloop
   endfacet
   facet normal 3.716959e-001 -9.283545e-001 0.000000e+000
      outer loop
         vertex 5.070912e+000 9.205106e+000 0.000000e+000
         vertex 4.637593e+000 9.043487e+000 1.000000e+001
         vertex 4.637593e+000 9.043487e+000 0.000000e+000
      endloop
   endfacet
   facet normal 4.581946e-001 -8.888519e-001 0.000000e+000
      outer loop
         vertex 4.637593e+000 9.043487e+000 0.000000e+000
         vertex 4.637593e+000 9.043487e+000 1.000000e+001
         vertex 4.231686e+000 8.821844e+000 1.000000e+001
      endloop
   endfacet
   facet normal 5.000312e-001 -8.660074e-001 0.000000e+000
      outer loop
         vertex 4.637593e+000 9.043487e+000 0.000000e+000
         vertex 4.231686e+000 8.821844e+000 1.000000e+001
         vertex 4.231686e+000 8.821844e+000 0.000000e+000
      endloop
   endfacet
   facet normal 5.800276e-001 -8.145968e-001 0.000000e+000
      outer loop
         vertex 4.231686e+000 8.821844e+000 0.000000e+000
         vertex 4.231686e+000 8.821844e+000 1.000000e+001
         vertex 3.861452e+000 8.544691e+000 1.000000e+001
      endloop
   endfacet
   facet normal 6.181873e-001 -7.860308e-001 0.000000e+000
      outer loop
         vertex 4.231686e+000 8.821844e+000 0.000000e+000
         vertex 3.861452e+000 8.544691e+000 1.000000e+001
         vertex 3.861452e+000 8.544691e+000 0.000000e+000
      endloop
   endfacet
   facet normal 6.900530e-001 -7.237589e-001 0.000000e+000
      outer loop
         vertex 3.861452e+000 8.544691e+000 0.000000e+000
         vertex 3.861452e+000 8.544691e+000 1.000000e+001
         vertex 3.534431e+000 8.217669e+000 1.000000e+001
      endloop
   endfacet
   facet normal 7.237589e-001 -6.900530e-001 0.000000e+000
      outer loop
         vertex 3.861452e+000 8.544691e+000 0.000000e+000
         vertex 3.534431e+000 8.217669e+000 1.000000e+001
         vertex 3.534431e+000 8.217669e+000 0.000000e+000
      endloop
   endfacet
   facet normal 7.860308e-001 -6.181873e-001 0.000000e+000
      outer loop
         vertex 3.534431e+000 8.217669e+000 0.000000e+000
         vertex 3.534431e+000 8.217669e+000 1.000000e+001
         vertex 3.257278e+000 7.847437e+000 1.000000e+001
      endloop
   endfacet
   facet normal 8.145968e-001 -5.800276e-001 0.000000e+000
      outer loop
         vertex 3.534431e+000 8.217669e+000 0.000000e+000
         vertex 3.257278e+000 7.847437e+000 1.000000e+001
         vertex 3.257278e+000 7.847437e+000 0.000000e+000
      endloop
   endfacet
   facet normal 8.660074e-001 -5.000312e-001 0.000000e+000
      outer loop
         vertex 3.257278e+000 7.847437e+000 0.000000e+000
         vertex 3.257278e+000 7.847437e+000 1.000000e+001
         vertex 3.035635e+000 7.441529e+000 1.000000e+001
      endloop
   endfacet
   facet normal 8.888519e-001 -4.581946e-001 0.000000e+000
      outer loop
         vertex 3.257278e+000 7.847437e+000 0.000000e+000
         vertex 3.035635e+000 7.441529e+000 1.000000e+001
         vertex 3.035635e+000 7.441529e+000 0.000000e+000
      endloop
   endfacet
   facet normal 9.283545e-001 -3.716959e-001 0.000000e+000
      outer loop
         vertex 3.035635e+000 7.441529e+000 0.000000e+000
         vertex 3.035635e+000 7.441529e+000 1.000000e+001
         vertex 2.874016e+000 7.008210e+000 1.000000e+001
      endloop
   endfacet
   facet normal 9.450126e-001 -3.270340e-001 0.000000e+000
      outer loop
         vertex 3.035635e+000 7.441529e+000 0.000000e+000
         vertex 2.874016e+000 7.008210e+000 1.000000e+001
         vertex 2.874016e+000 7.008210e+000 0.000000e+000
      endloop
   endfacet
   facet normal 9.718031e-001 -2.357940e-001 0.000000e+000
      outer loop
         vertex 2.874016e+000 7.008210e+000 0.000000e+000
         vertex 2.874016e+000 7.008210e+000 1.000000e+001
         vertex 2.775709e+000 6.556301e+000 1.000000e+001
      endloop
   endfacet
   facet normal 9.819355e-001 -1.892159e-001 0.000000e+000
      outer loop
         vertex 2.874016e+000 7.008210e+000 0.000000e+000
         vertex 2.775709e+000 6.556301e+000 1.000000e+001
         vertex 2.775709e+000 6.556301e+000 0.000000e+000
      endloop
   endfacet
   facet normal 9.954685e-001 -9.509189e-002 0.000000e+000
      outer loop
         vertex 2.775709e+000 6.556301e+000 0.000000e+000
         vertex 2.775709e+000 6.556301e+000 1.000000e+001
         vertex 2.742716e+000 6.095000e+000 1.000000e+001
      endloop
   endfacet
   facet normal 9.988691e-001 -4.754595e-002 0.000000e+000
      outer loop
         vertex 2.775709e+000 6.556301e+000 0.000000e+000
         vertex 2.742716e+000 6.095000e+000 1.000000e+001
         vertex 2.742716e+000 6.095000e+000 0.000000e+000
      endloop
   endfacet
   facet normal 9.988691e-001 4.754595e-002 0.000000e+000
      outer loop
         vertex 2.742716e+000 6.095000e+000 0.000000e+000
         vertex 2.742716e+000 6.095000e+000 1.000000e+001
         vertex 2.775709e+000 5.633700e+000 1.000000e+001
      endloop
   endfacet
   facet normal 9.954685e-001 9.509189e-002 0.000000e+000
      outer loop
         vertex 2.742716e+000 6.095000e+000 0.000000e+000
         vertex 2.775709e+000 5.633700e+000 1.000000e+001
         vertex 2.775709e+000 5.633700e+000 0.000000e+000
      endloop
   endfacet
   facet normal 9.819355e-001 1.892159e-001 0.000000e+000
      outer loop
         vertex 2.775709e+000 5.633700e+000 0.000000e+000
         vertex 2.775709e+000 5.633700e+000 1.000000e+001
         vertex 2.874016e+000 5.181791e+000 1.000000e+001
      endloop
   endfacet
   facet normal 9.718031e-001 2.357940e-001 0.000000e+000
      outer loop
         vertex 2.775709e+000 5.633700e+000 0.000000e+000
         vertex 2.874016e+000 5.181791e+000 1.000000e+001
         vertex 2.874016e+000 5.181791e+000 0.000000e+000
      endloop
   endfacet
   facet normal 9.450126e-001 3.270339e-001 0.000000e+000
      outer loop
         vertex 2.874016e+000 5.181791e+000 0.000000e+000
         vertex 2.874016e+000 5.181791e+000 1.000000e+001
         vertex 3.035635e+000 4.748472e+000 1.000000e+001
      endloop
   endfacet
   facet normal 9.283545e-001 3.716959e-001 0.000000e+000
      outer loop
         vertex 2.874016e+000 5.181791e+000 0.000000e+000
         vertex 3.035635e+000 4.748472e+000 1.000000e+001
         vertex 3.035635e+000 4.748472e+000 0.000000e+000
      endloop
   endfacet
   facet normal 8.888519e-001 4.581946e-001 0.000000e+000
      outer loop
         vertex 3.035635e+000 4.748472e+000 0.000000e+000
         vertex 3.035635e+000 4.748472e+000 1.000000e+001
         vertex 3.257278e+000 4.342564e+000 1.000000e+001
      endloop
   endfacet
   facet normal 8.660074e-001 5.000312e-001 0.000000e+000
      outer loop
         vertex 3.035635e+000 4.748472e+000 0.000000e+000
         vertex 3.257278e+000 4.342564e+000 1.000000e+001
         vertex 3.257278e+000 4.342564e+000 0.000000e+000
      endloop
   endfacet
   facet normal 8.145968e-001 5.800276e-001 0.000000e+000
      outer loop
         vertex 3.257278e+000 4.342564e+000 0.000000e+000
         vertex 3.257278e+000 4.342564e+000 1.000000e+001
         vertex 3.534431e+000 3.972331e+000 1.000000e+001
      endloop
   endfacet
   facet normal 7.860308e-001 6.181873e-001 0.000000e+000
      outer loop
         vertex 3.257278e+000 4.342564e+000 0.000000e+000
         vertex 3.534431e+000 3.972331e+000 1.000000e+001
         vertex 3.534431e+000 3.972331e+000 0.000000e+000
      endloop
   endfacet
   facet normal 7.237589e-001 6.900530e-001 0.000000e+000
      outer loop
         vertex 3.534431e+000 3.972331e+000 0.000000e+000
         vertex 3.534431e+000 3.972331e+000 1.000000e+001
         vertex 3.861452e+000 3.645309e+000 1.000000e+001
      endloop
   endfacet
   facet normal 6.900530e-001 7.237589e-001 0.000000e+000
      outer loop
         vertex 3.534431e+000 3.972331e+000 0.000000e+000
         vertex 3.861452e+000 3.645309e+000 1.000000e+001
         vertex 3.861452e+000 3.645309e+000 0.000000e+000
      endloop
   endfacet
   facet normal 6.181873e-001 7.860308e-001 0.000000e+000
      outer loop
         vertex 3.861452e+000 3.645309e+000 0.000000e+000
         vertex 3.861452e+000 3.645309e+000 1.000000e+001
         vertex 4.231686e+000 3.368156e+000 1.000000e+001
      endloop
   endfacet
   facet normal 5.800276e-001 8.145968e-001 0.000000e+000
      outer loop
         vertex 3.861452e+000 3.645309e+000 0.000000e+000
         vertex 4.231686e+000 3.368156e+000 1.000000e+001
         vertex 4.231686e+000 3.368156e+000 0.000000e+000
      endloop
   endfacet
   facet normal 5.000312e-001 8.660074e-001 0.000000e+000
      outer loop
         vertex 4.231686e+000 3.368156e+000 0.000000e+000
         vertex 4.231686e+000 3.368156e+000 1.000000e+001
         vertex 4.637593e+000 3.146514e+000 1.000000e+001
      endloop
   endfacet
   facet normal 4.581946e-001 8.888519e-001 0.000000e+000
      outer loop
         vertex 4.231686e+000 3.368156e+000 0.000000e+000
         vertex 4.637593e+000 3.146514e+000 1.000000e+001
         vertex 4.637593e+000 3.146514e+000 0.000000e+000
      endloop
   endfacet
   facet normal 3.716959e-001 9.283545e-001 0.000000e+000
      outer loop
         vertex 4.637593e+000 3.146514e+000 0.000000e+000
         vertex 4.637593e+000 3.146514e+000 1.000000e+001
         vertex 5.070912e+000 2.984894e+000 1.000000e+001
      endloop
   endfacet
   facet normal 3.270340e-001 9.450126e-001 0.000000e+000
      outer loop
         vertex 4.637593e+000 3.146514e+000 0.000000e+000
         vertex 5.070912e+000 2.984894e+000 1.000000e+001
         vertex 5.070912e+000 2.984894e+000 0.000000e+000
      endloop
   endfacet
   facet normal 2.357940e-001 9.718031e-001 0.000000e+000
      outer loop
         vertex 5.070912e+000 2.984894e+000 0.000000e+000
         vertex 5.070912e+000 2.984894e+000 1.000000e+001
         vertex 5.522821e+000 2.886587e+000 1.000000e+001
      endloop
   endfacet
   facet normal 1.892159e-001 9.819355e-001 0.000000e+000
      outer loop
         vertex 5.070912e+000 2.984894e+000 0.000000e+000
         vertex 5.522821e+000 2.886587e+000 1.000000e+001
         vertex 5.522821e+000 2.886587e+000 0.000000e+000
      endloop
   endfacet
   facet normal 9.509189e-002 9.954685e-001 0.000000e+000
      outer loop
         vertex 5.522821e+000 2.886587e+000 0.000000e+000
         vertex 5.522821e+000 2.886587e+000 1.000000e+001
         vertex 5.984122e+000 2.853595e+000 1.000000e+001
      endloop
   endfacet
   facet normal 4.754595e-002 9.988691e-001 0.000000e+000
      outer loop
         vertex 5.522821e+000 2.886587e+000 0.000000e+000
         vertex 5.984122e+000 2.853595e+000 1.000000e+001
         vertex 5.984122e+000 2.853595e+000 0.000000e+000
      endloop
   endfacet
   facet normal -4.754595e-002 9.988691e-001 0.000000e+000
      outer loop
         vertex 5.984122e+000 2.853595e+000 0.000000e+000
         vertex 5.984122e+000 2.853595e+000 1.000000e+001
         vertex 6.445422e+000 2.886587e+000 1.000000e+001
      endloop
   endfacet
   facet normal -9.509189e-002 9.954685e-001 0.000000e+000
      outer loop
         vertex 5.984122e+000 2.853595e+000 0.000000e+000
         vertex 6.445422e+000 2.886587e+000 1.000000e+001
         vertex 6.445422e+000 2.886587e+000 0.000000e+000
      endloop
   endfacet
   facet normal -1.892159e-001 9.819355e-001 0.000000e+000
      outer loop
         vertex 6.445422e+000 2.886587e+000 0.000000e+000
         vertex 6.445422e+000 2.886587e+000 1.000000e+001
         vertex 6.897331e+000 2.984894e+000 1.000000e+001
      endloop
   endfacet
   facet normal -2.357940e-001 9.718031e-001 0.000000e+000
      outer loop
         vertex 6.445422e+000 2.886587e+000 0.000000e+000
         vertex 6.897331e+000 2.984894e+000 1.000000e+001
         vertex 6.897331e+000 2.984894e+000 0.000000e+000
      endloop
   endfacet
   facet normal -3.270339e-001 9.450126e-001 0.000000e+000
      outer loop
         vertex 6.897331e+000 2.984894e+000 0.000000e+000
         vertex 6.897331e+000 2.984894e+000 1.000000e+001
         vertex 7.330650e+000 3.146514e+000 1.000000e+001
      endloop
   endfacet
   facet normal -3.716959e-001 9.283545e-001 0.000000e+000
      outer loop
         vertex 6.897331e+000 2.984894e+000 0.000000e+000
         vertex 7.330650e+000 3.146514e+000 1.000000e+001
         vertex 7.330650e+000 3.146514e+000 0.000000e+000
      endloop
   endfacet
   facet normal -4.581946e-001 8.888519e-001 0.000000e+000
      outer loop
         vertex 7.330650e+000 3.146514e+000 0.000000e+000
         vertex 7.330650e+000 3.146514e+000 1.000000e+001
         vertex 7.736558e+000 3.368156e+000 1.000000e+001
      endloop
   endfacet
   facet normal -5.000312e-001 8.660074e-001 0.000000e+000
      outer loop
         vertex 7.330650e+000 3.146514e+000 0.000000e+000
         vertex 7.736558e+000 3.368156e+000 1.000000e+001
         vertex 7.736558e+000 3.368156e+000 0.000000e+000
      endloop
   endfacet
   facet normal -5.800276e-001 8.145968e-001 0.000000e+000
      outer loop
         vertex 7.736558e+000 3.368156e+000 0.000000e+000
         vertex 7.736558e+000 3.368156e+000 1.000000e+001
         vertex 8.106791e+000 3.645309e+000 1.000000e+001
      endloop
   endfacet
   facet normal -6.181873e-001 7.860308e-001 0.000000e+000
      outer loop
         vertex 7.736558e+000 3.368156e+000 0.000000e+000
         vertex 8.106791e+000 3.645309e+000 1.000000e+001
         vertex 8.106791e+000 3.645309e+000 0.000000e+000
      endloop
   endfacet
   facet normal -6.900530e-001 7.237589e-001 0.000000e+000
      outer loop
         vertex 8.106791e+000 3.645309e+000 0.000000e+000
         vertex 8.106791e+000 3.645309e+000 1.000000e+001
         vertex 8.433813e+000 3.972331e+000 1.000000e+001
      endloop
   endfacet
   facet normal -7.237589e-001 6.900530e-001 0.000000e+000
      outer loop
         vertex 8.106791e+000 3.645309e+000 0.000000e+000
         vertex 8.433813e+000 3.972331e+000 1.000000e+001
         vertex 8.433813e+000 3.972331e+000 0.000000e+000
      endloop
   endfacet
   facet normal -7.860308e-001 6.181873e-001 0.000000e+000
      outer loop
         vertex 8.433813e+000 3.972331e+000 0.000000e+000
         vertex 8.433813e+000 3.972331e+000 1.000000e+001
         vertex 8.710965e+000 4.342564e+000 1.000000e+001
      endloop
   endfacet
   facet normal -8.145968e-001 5.800276e-001 0.000000e+000
      outer loop
         vertex 8.433813e+000 3.972331e+000 0.000000e+000
         vertex 8.710965e+000 4.342564e+000 1.000000e+001
         vertex 8.710965e+000 4.342564e+000 0.000000e+000
      endloop
   endfacet
   facet normal -8.660074e-001 5.000312e-001 0.000000e+000
      outer loop
         vertex 8.710965e+000 4.342564e+000 0.000000e+000
         vertex 8.710965e+000 4.342564e+000 1.000000e+001
         vertex 8.932609e+000 4.748472e+000 1.000000e+001
      endloop
   endfacet
   facet normal -8.888519e-001 4.581946e-001 0.000000e+000
      outer loop
         vertex 8.710965e+000 4.342564e+000 0.000000e+000
         vertex 8.932609e+000 4.748472e+000 1.000000e+001
         vertex 8.932609e+000 4.748472e+000 0.000000e+000
      endloop
   endfacet
   facet normal -9.283545e-001 3.716959e-001 0.000000e+000
      outer loop
         vertex 8.932609e+000 4.748472e+000 0.000000e+000
         vertex 8.932609e+000 4.748472e+000 1.000000e+001
         vertex 9.094228e+000 5.181791e+000 1.000000e+001
      endloop
   endfacet
   facet normal -9.450126e-001 3.270340e-001 0.000000e+000
      outer loop
         vertex 8.932609e+000 4.748472e+000 0.000000e+000
         vertex 9.094228e+000 5.181791e+000 1.000000e+001
         vertex 9.094228e+000 5.181791e+000 0.000000e+000
      endloop
   endfacet
   facet normal -9.718031e-001 2.357940e-001 0.000000e+000
      outer loop
         vertex 9.094228e+000 5.181791e+000 0.000000e+000
         vertex 9.094228e+000 5.181791e+000 1.000000e+001
         vertex 9.192534e+000 5.633700e+000 1.000000e+001
      endloop
   endfacet
   facet normal -9.819355e-001 1.892159e-001 0.000000e+000
      outer loop
         vertex 9.094228e+000 5.181791e+000 0.000000e+000
         vertex 9.192534e+000 5.633700e+000 1.000000e+001
         vertex 9.192534e+000 5.633700e+000 0.000000e+000
      endloop
   endfacet
   facet normal -9.954685e-001 9.509189e-002 0.000000e+000
      outer loop
         vertex 9.192534e+000 5.633700e+000 0.000000e+000
         vertex 9.192534e+000 5.633700e+000 1.000000e+001
         vertex 9.225528e+000 6.095000e+000 1.000000e+001
      endloop
   endfacet
endsolid