solid 3_890
   facet normal -1.000000e+000 0.000000e+000 0.000000e+000
      outer loop
         vertex 0.000000e+000 1.000000e+001 1.000000e+001
         vertex 0.000000e+000 1.000000e+001 0.000000e+000
         vertex 0.000000e+000 0.000000e+000 1.000000e+001
      endloop
   endfacet
   facet normal -1.000000e+000 0.000000e+000 0.000000e+000
      outer loop
         vertex 0.000000e+000 0.000000e+000 1.000000e+001
         vertex 0.000000e+000 1.000000e+001 0.000000e+000
         vertex 0.000000e+000 0.000000e+000 0.000000e+000
      endloop
   endfacet
   facet normal 0.000000e+000 0.000000e+000 1.000000e+000
      outer loop
         vertex 8.275050e+000 3.400712e+000 1.000000e+001
         vertex 8.064721e+000 3.078780e+000 1.000000e+001
         vertex 1.000000e+001 0.000000e+000 1.000000e+001
      endloop
   endfacet
   facet normal 0.000000e+000 0.000000e+000 1.000000e+000
      outer loop
         vertex 8.275050e+000 3.400712e+000 1.000000e+001
         vertex 1.000000e+001 0.000000e+000 1.000000e+001
         vertex 8.429522e+000 3.752872e+000 1.000000e+001
      endloop
   endfacet
   facet normal 0.000000e+000 0.000000e+000 1.000000e+000
      outer loop
         vertex 6.419589e+000 6.829303e+000 1.000000e+001
         vertex 6.798893e+000 6.766008e+000 1.000000e+001
         vertex 1.000000e+001 1.000000e+001 1.000000e+001
      endloop
   endfacet
   facet normal 0.000000e+000 0.000000e+000 1.000000e+000
      outer loop
         vertex 1.000000e+001 1.000000e+001 1.000000e+001
         vertex 6.798893e+000 6.766008e+000 1.000000e+001
         vertex 7.162607e+000 6.641145e+000 1.000000e+001
      endloop
   endfacet
   facet normal 0.000000e+000 0.000000e+000 1.000000e+000
      outer loop
         vertex 1.000000e+001 1.000000e+001 1.000000e+001
         vertex 7.162607e+000 6.641145e+000 1.000000e+001
         vertex 7.500809e+000 6.458119e+000 1.000000e+001
      endloop
   endfacet
   facet normal 0.000000e+000 0.000000e+000 1.000000e+000
      outer loop
         vertex 1.000000e+001 1.000000e+001 1.000000e+001
         vertex 8.275050e+000 5.617070e+000 1.000000e+001
         vertex 8.429522e+000 5.264909e+000 1.000000e+001
      endloop
   endfacet
   facet normal 0.000000e+000 0.000000e+000 1.000000e+000
      outer loop
         vertex 8.429522e+000 5.264909e+000 1.000000e+001
         vertex 8.523922e+000 4.892127e+000 1.000000e+001
         vertex 1.000000e+001 1.000000e+001 1.000000e+001
      endloop
   endfacet
   facet normal 0.000000e+000 0.000000e+000 1.000000e+000
      outer loop
         vertex 1.000000e+001 1.000000e+001 1.000000e+001
         vertex 8.523922e+000 4.892127e+000 1.000000e+001
         vertex 8.555678e+000 4.508891e+000 1.000000e+001
      endloop
   endfacet
   facet normal 0.000000e+000 0.000000e+000 1.000000e+000
      outer loop
         vertex 1.000000e+001 1.000000e+001 1.000000e+001
         vertex 8.555678e+000 4.508891e+000 1.000000e+001
         vertex 1.000000e+001 0.000000e+000 1.000000e+001
      endloop
   endfacet
   facet normal 0.000000e+000 0.000000e+000 1.000000e+000
      outer loop
         vertex 1.000000e+001 0.000000e+000 1.000000e+001
         vertex 8.555678e+000 4.508891e+000 1.000000e+001
         vertex 8.523922e+000 4.125655e+000 1.000000e+001
      endloop
   endfacet
   facet normal 0.000000e+000 0.000000e+000 1.000000e+000
      outer loop
         vertex 1.000000e+001 0.000000e+000 1.000000e+001
         vertex 8.523922e+000 4.125655e+000 1.000000e+001
         vertex 8.429522e+000 3.752872e+000 1.000000e+001
      endloop
   endfacet
   facet normal 0.000000e+000 0.000000e+000 1.000000e+000
      outer loop
         vertex 4.025106e+000 5.264909e+000 1.000000e+001
         vertex 4.179578e+000 5.617070e+000 1.000000e+001
         vertex 0.000000e+000 1.000000e+001 1.000000e+001
      endloop
   endfacet
   facet normal 0.000000e+000 0.000000e+000 1.000000e+000
      outer loop
         vertex 7.500809e+000 6.458119e+000 1.000000e+001
         vertex 7.804273e+000 6.221924e+000 1.000000e+001
         vertex 1.000000e+001 1.000000e+001 1.000000e+001
      endloop
   endfacet
   facet normal 0.000000e+000 0.000000e+000 1.000000e+000
      outer loop
         vertex 1.000000e+001 1.000000e+001 1.000000e+001
         vertex 7.804273e+000 6.221924e+000 1.000000e+001
         vertex 8.064721e+000 5.939002e+000 1.000000e+001
      endloop
   endfacet
   facet normal 0.000000e+000 0.000000e+000 1.000000e+000
      outer loop
         vertex 1.000000e+001 1.000000e+001 1.000000e+001
         vertex 8.064721e+000 5.939002e+000 1.000000e+001
         vertex 8.275050e+000 5.617070e+000 1.000000e+001
      endloop
   endfacet
   facet normal 0.000000e+000 0.000000e+000 1.000000e+000
      outer loop
         vertex 0.000000e+000 0.000000e+000 1.000000e+001
         vertex 5.655735e+000 2.251773e+000 1.000000e+001
         vertex 5.292020e+000 2.376637e+000 1.000000e+001
      endloop
   endfacet
   facet normal 0.000000e+000 0.000000e+000 1.000000e+000
      outer loop
         vertex 4.389907e+000 3.078780e+000 1.000000e+001
         vertex 4.179578e+000 3.400712e+000 1.000000e+001
         vertex 0.000000e+000 0.000000e+000 1.000000e+001
      endloop
   endfacet
   facet normal 0.000000e+000 0.000000e+000 1.000000e+000
      outer loop
         vertex 0.000000e+000 0.000000e+000 1.000000e+001
         vertex 4.179578e+000 3.400712e+000 1.000000e+001
         vertex 4.025106e+000 3.752872e+000 1.000000e+001
      endloop
   endfacet
   facet normal 0.000000e+000 0.000000e+000 1.000000e+000
      outer loop
         vertex 5.292020e+000 2.376637e+000 1.000000e+001
         vertex 4.953819e+000 2.559662e+000 1.000000e+001
         vertex 0.000000e+000 0.000000e+000 1.000000e+001
      endloop
   endfacet
   facet normal 0.000000e+000 0.000000e+000 1.000000e+000
      outer loop
         vertex 0.000000e+000 0.000000e+000 1.000000e+001
         vertex 4.953819e+000 2.559662e+000 1.000000e+001
         vertex 4.650355e+000 2.795857e+000 1.000000e+001
      endloop
   endfacet
   facet normal 0.000000e+000 0.000000e+000 1.000000e+000
      outer loop
         vertex 0.000000e+000 0.000000e+000 1.000000e+001
         vertex 4.650355e+000 2.795857e+000 1.000000e+001
         vertex 4.389907e+000 3.078780e+000 1.000000e+001
      endloop
   endfacet
   facet normal 0.000000e+000 0.000000e+000 1.000000e+000
      outer loop
         vertex 8.064721e+000 3.078780e+000 1.000000e+001
         vertex 7.804273e+000 2.795857e+000 1.000000e+001
         vertex 1.000000e+001 0.000000e+000 1.000000e+001
      endloop
   endfacet
   facet normal 0.000000e+000 0.000000e+000 1.000000e+000
      outer loop
         vertex 1.000000e+001 0.000000e+000 1.000000e+001
         vertex 7.804273e+000 2.795857e+000 1.000000e+001
         vertex 7.500809e+000 2.559662e+000 1.000000e+001
      endloop
   endfacet
   facet normal 0.000000e+000 0.000000e+000 1.000000e+000
      outer loop
         vertex 1.000000e+001 0.000000e+000 1.000000e+001
         vertex 7.500809e+000 2.559662e+000 1.000000e+001
         vertex 7.162607e+000 2.376637e+000 1.000000e+001
      endloop
   endfacet
   facet normal 0.000000e+000 0.000000e+000 1.000000e+000
      outer loop
         vertex 7.162607e+000 2.376637e+000 1.000000e+001
         vertex 6.798893e+000 2.251773e+000 1.000000e+001
         vertex 1.000000e+001 0.000000e+000 1.000000e+001
      endloop
   endfacet
   facet normal 0.000000e+000 0.000000e+000 1.000000e+000
      outer loop
         vertex 1.000000e+001 0.000000e+000 1.000000e+001
         vertex 6.798893e+000 2.251773e+000 1.000000e+001
         vertex 6.419589e+000 2.188479e+000 1.000000e+001
      endloop
   endfacet
   facet normal 0.000000e+000 0.000000e+000 1.000000e+000
      outer loop
         vertex 1.000000e+001 0.000000e+000 1.000000e+001
         vertex 6.419589e+000 2.188479e+000 1.000000e+001
         vertex 0.000000e+000 0.000000e+000 1.000000e+001
      endloop
   endfacet
   facet normal 0.000000e+000 0.000000e+000 1.000000e+000
      outer loop
         vertex 0.000000e+000 0.000000e+000 1.000000e+001
         vertex 6.419589e+000 2.188479e+000 1.000000e+001
         vertex 6.035039e+000 2.188479e+000 1.000000e+001
      endloop
   endfacet
   facet normal 0.000000e+000 0.000000e+000 1.000000e+000
      outer loop
         vertex 0.000000e+000 0.000000e+000 1.000000e+001
         vertex 6.035039e+000 2.188479e+000 1.000000e+001
         vertex 5.655735e+000 2.251773e+000 1.000000e+001
      endloop
   endfacet
   facet normal 0.000000e+000 0.000000e+000 1.000000e+000
      outer loop
         vertex 4.025106e+000 3.752872e+000 1.000000e+001
         vertex 3.930705e+000 4.125655e+000 1.000000e+001
         vertex 0.000000e+000 0.000000e+000 1.000000e+001
      endloop
   endfacet
   facet normal 0.000000e+000 0.000000e+000 1.000000e+000
      outer loop
         vertex 0.000000e+000 0.000000e+000 1.000000e+001
         vertex 3.930705e+000 4.125655e+000 1.000000e+001
         vertex 3.898949e+000 4.508891e+000 1.000000e+001
      endloop
   endfacet
   facet normal 0.000000e+000 0.000000e+000 1.000000e+000
      outer loop
         vertex 0.000000e+000 0.000000e+000 1.000000e+001
         vertex 3.898949e+000 4.508891e+000 1.000000e+001
         vertex 0.000000e+000 1.000000e+001 1.000000e+001
      endloop
   endfacet
   facet normal 0.000000e+000 0.000000e+000 1.000000e+000
      outer loop
         vertex 0.000000e+000 1.000000e+001 1.000000e+001
         vertex 3.898949e+000 4.508891e+000 1.000000e+001
         vertex 3.930705e+000 4.892127e+000 1.000000e+001
      endloop
   endfacet
   facet normal 0.000000e+000 0.000000e+000 1.000000e+000
      outer loop
         vertex 0.000000e+000 1.000000e+001 1.000000e+001
         vertex 3.930705e+000 4.892127e+000 1.000000e+001
         vertex 4.025106e+000 5.264909e+000 1.000000e+001
      endloop
   endfacet
   facet normal 0.000000e+000 0.000000e+000 1.000000e+000
      outer loop
         vertex 4.179578e+000 5.617070e+000 1.000000e+001
         vertex 4.389907e+000 5.939002e+000 1.000000e+001
         vertex 0.000000e+000 1.000000e+001 1.000000e+001
      endloop
   endfacet
   facet normal 0.000000e+000 0.000000e+000 1.000000e+000
      outer loop
         vertex 0.000000e+000 1.000000e+001 1.000000e+001
         vertex 4.389907e+000 5.939002e+000 1.000000e+001
         vertex 4.650355e+000 6.221924e+000 1.000000e+001
      endloop
   endfacet
   facet normal 0.000000e+000 0.000000e+000 1.000000e+000
      outer loop
         vertex 0.000000e+000 1.000000e+001 1.000000e+001
         vertex 4.650355e+000 6.221924e+000 1.000000e+001
         vertex 4.953819e+000 6.458119e+000 1.000000e+001
      endloop
   endfacet
   facet normal 0.000000e+000 0.000000e+000 1.000000e+000
      outer loop
         vertex 4.953819e+000 6.458119e+000 1.000000e+001
         vertex 5.292020e+000 6.641145e+000 1.000000e+001
         vertex 0.000000e+000 1.000000e+001 1.000000e+001
      endloop
   endfacet
   facet normal 0.000000e+000 0.000000e+000 1.000000e+000
      outer loop
         vertex 0.000000e+000 1.000000e+001 1.000000e+001
         vertex 5.292020e+000 6.641145e+000 1.000000e+001
         vertex 5.655735e+000 6.766008e+000 1.000000e+001
      endloop
   endfacet
   facet normal 0.000000e+000 0.000000e+000 1.000000e+000
      outer loop
         vertex 0.000000e+000 1.000000e+001 1.000000e+001
         vertex 5.655735e+000 6.766008e+000 1.000000e+001
         vertex 1.000000e+001 1.000000e+001 1.000000e+001
      endloop
   endfacet
   facet normal 0.000000e+000 0.000000e+000 1.000000e+000
      outer loop
         vertex 1.000000e+001 1.000000e+001 1.000000e+001
         vertex 5.655735e+000 6.766008e+000 1.000000e+001
         vertex 6.035039e+000 6.829303e+000 1.000000e+001
      endloop
   endfacet
   facet normal 0.000000e+000 0.000000e+000 1.000000e+000
      outer loop
         vertex 1.000000e+001 1.000000e+001 1.000000e+001
         vertex 6.035039e+000 6.829303e+000 1.000000e+001
         vertex 6.419589e+000 6.829303e+000 1.000000e+001
      endloop
   endfacet
   facet normal 1.000000e+000 0.000000e+000 0.000000e+000
      outer loop
         vertex 1.000000e+001 1.000000e+001 0.000000e+000
         vertex 1.000000e+001 1.000000e+001 1.000000e+001
         vertex 1.000000e+001 0.000000e+000 0.000000e+000
      endloop
   endfacet
   facet normal 1.000000e+000 0.000000e+000 0.000000e+000
      outer loop
         vertex 1.000000e+001 0.000000e+000 0.000000e+000
         vertex 1.000000e+001 1.000000e+001 1.000000e+001
         vertex 1.000000e+001 0.000000e+000 1.000000e+001
      endloop
   endfacet
   facet normal 0.000000e+000 0.000000e+000 -1.000000e+000
      outer loop
         vertex 7.162607e+000 6.641145e+000 0.000000e+000
         vertex 6.798893e+000 6.766008e+000 0.000000e+000
         vertex 1.000000e+001 1.000000e+001 0.000000e+000
      endloop
   endfacet
   facet normal 0.000000e+000 0.000000e+000 -1.000000e+000
      outer loop
         vertex 6.798893e+000 6.766008e+000 0.000000e+000
         vertex 6.419589e+000 6.829303e+000 0.000000e+000
         vertex 1.000000e+001 1.000000e+001 0.000000e+000
      endloop
   endfacet
   facet normal 0.000000e+000 0.000000e+000 -1.000000e+000
      outer loop
         vertex 1.000000e+001 1.000000e+001 0.000000e+000
         vertex 6.419589e+000 6.829303e+000 0.000000e+000
         vertex 6.035039e+000 6.829303e+000 0.000000e+000
      endloop
   endfacet
   facet normal 0.000000e+000 0.000000e+000 -1.000000e+000
      outer loop
         vertex 1.000000e+001 1.000000e+001 0.000000e+000
         vertex 6.035039e+000 6.829303e+000 0.000000e+000
         vertex 0.000000e+000 1.000000e+001 0.000000e+000
      endloop
   endfacet
   facet normal 0.000000e+000 0.000000e+000 -1.000000e+000
      outer loop
         vertex 8.429522e+000 5.264909e+000 0.000000e+000
         vertex 8.275050e+000 5.617070e+000 0.000000e+000
         vertex 1.000000e+001 1.000000e+001 0.000000e+000
      endloop
   endfacet
   facet normal 0.000000e+000 0.000000e+000 -1.000000e+000
      outer loop
         vertex 1.000000e+001 1.000000e+001 0.000000e+000
         vertex 8.275050e+000 5.617070e+000 0.000000e+000
         vertex 8.064721e+000 5.939002e+000 0.000000e+000
      endloop
   endfacet
   facet normal 0.000000e+000 0.000000e+000 -1.000000e+000
      outer loop
         vertex 6.035039e+000 6.829303e+000 0.000000e+000
         vertex 5.655735e+000 6.766008e+000 0.000000e+000
         vertex 0.000000e+000 1.000000e+001 0.000000e+000
      endloop
   endfacet
   facet normal 0.000000e+000 0.000000e+000 -1.000000e+000
      outer loop
         vertex 0.000000e+000 1.000000e+001 0.000000e+000
         vertex 5.655735e+000 6.766008e+000 0.000000e+000
         vertex 5.292020e+000 6.641145e+000 0.000000e+000
      endloop
   endfacet
   facet normal 0.000000e+000 0.000000e+000 -1.000000e+000
      outer loop
         vertex 0.000000e+000 1.000000e+001 0.000000e+000
         vertex 5.292020e+000 6.641145e+000 0.000000e+000
         vertex 4.953819e+000 6.458119e+000 0.000000e+000
      endloop
   endfacet
   facet normal 0.000000e+000 0.000000e+000 -1.000000e+000
      outer loop
         vertex 4.953819e+000 6.458119e+000 0.000000e+000
         vertex 4.650355e+000 6.221924e+000 0.000000e+000
         vertex 0.000000e+000 1.000000e+001 0.000000e+000
      endloop
   endfacet
   facet normal 0.000000e+000 0.000000e+000 -1.000000e+000
      outer loop
         vertex 0.000000e+000 1.000000e+001 0.000000e+000
         vertex 4.650355e+000 6.221924e+000 0.000000e+000
         vertex 4.389907e+000 5.939002e+000 0.000000e+000
      endloop
   endfacet
   facet normal 0.000000e+000 0.000000e+000 -1.000000e+000
      outer loop
         vertex 0.000000e+000 1.000000e+001 0.000000e+000
         vertex 4.389907e+000 5.939002e+000 0.000000e+000
         vertex 4.179578e+000 5.617070e+000 0.000000e+000
      endloop
   endfacet
   facet normal 0.000000e+000 0.000000e+000 -1.000000e+000
      outer loop
         vertex 3.930705e+000 4.125655e+000 0.000000e+000
         vertex 4.025106e+000 3.752872e+000 0.000000e+000
         vertex 0.000000e+000 0.000000e+000 0.000000e+000
      endloop
   endfacet
   facet normal 0.000000e+000 0.000000e+000 -1.000000e+000
      outer loop
         vertex 0.000000e+000 0.000000e+000 0.000000e+000
         vertex 4.025106e+000 3.752872e+000 0.000000e+000
         vertex 4.179578e+000 3.400712e+000 0.000000e+000
      endloop
   endfacet
   facet normal 0.000000e+000 0.000000e+000 -1.000000e+000
      outer loop
         vertex 0.000000e+000 0.000000e+000 0.000000e+000
         vertex 4.179578e+000 3.400712e+000 0.000000e+000
         vertex 4.389907e+000 3.078780e+000 0.000000e+000
      endloop
   endfacet
   facet normal 0.000000e+000 0.000000e+000 -1.000000e+000
      outer loop
         vertex 8.064721e+000 5.939002e+000 0.000000e+000
         vertex 7.804273e+000 6.221924e+000 0.000000e+000
         vertex 1.000000e+001 1.000000e+001 0.000000e+000
      endloop
   endfacet
   facet normal 0.000000e+000 0.000000e+000 -1.000000e+000
      outer loop
         vertex 1.000000e+001 1.000000e+001 0.000000e+000
         vertex 7.804273e+000 6.221924e+000 0.000000e+000
         vertex 7.500809e+000 6.458119e+000 0.000000e+000
      endloop
   endfacet
   facet normal 0.000000e+000 0.000000e+000 -1.000000e+000
      outer loop
         vertex 1.000000e+001 1.000000e+001 0.000000e+000
         vertex 7.500809e+000 6.458119e+000 0.000000e+000
         vertex 7.162607e+000 6.641145e+000 0.000000e+000
      endloop
   endfacet
   facet normal 0.000000e+000 0.000000e+000 -1.000000e+000
      outer loop
         vertex 4.179578e+000 5.617070e+000 0.000000e+000
         vertex 4.025106e+000 5.264909e+000 0.000000e+000
         vertex 0.000000e+000 1.000000e+001 0.000000e+000
      endloop
   endfacet
   facet normal 0.000000e+000 0.000000e+000 -1.000000e+000
      outer loop
         vertex 0.000000e+000 1.000000e+001 0.000000e+000
         vertex 4.025106e+000 5.264909e+000 0.000000e+000
         vertex 3.930705e+000 4.892127e+000 0.000000e+000
      endloop
   endfacet
   facet normal 0.000000e+000 0.000000e+000 -1.000000e+000
      outer loop
         vertex 0.000000e+000 1.000000e+001 0.000000e+000
         vertex 3.930705e+000 4.892127e+000 0.000000e+000
         vertex 0.000000e+000 0.000000e+000 0.000000e+000
      endloop
   endfacet
   facet normal 0.000000e+000 0.000000e+000 -1.000000e+000
      outer loop
         vertex 0.000000e+000 0.000000e+000 0.000000e+000
         vertex 3.930705e+000 4.892127e+000 0.000000e+000
         vertex 3.898949e+000 4.508891e+000 0.000000e+000
      endloop
   endfacet
   facet normal 0.000000e+000 0.000000e+000 -1.000000e+000
      outer loop
         vertex 0.000000e+000 0.000000e+000 0.000000e+000
         vertex 3.898949e+000 4.508891e+000 0.000000e+000
         vertex 3.930705e+000 4.125655e+000 0.000000e+000
      endloop
   endfacet
   facet normal 0.000000e+000 0.000000e+000 -1.000000e+000
      outer loop
         vertex 4.389907e+000 3.078780e+000 0.000000e+000
         vertex 4.650355e+000 2.795857e+000 0.000000e+000
         vertex 0.000000e+000 0.000000e+000 0.000000e+000
      endloop
   endfacet
   facet normal 0.000000e+000 0.000000e+000 -1.000000e+000
      outer loop
         vertex 0.000000e+000 0.000000e+000 0.000000e+000
         vertex 4.650355e+000 2.795857e+000 0.000000e+000
         vertex 4.953819e+000 2.559662e+000 0.000000e+000
      endloop
   endfacet
   facet normal 0.000000e+000 0.000000e+000 -1.000000e+000
      outer loop
         vertex 0.000000e+000 0.000000e+000 0.000000e+000
         vertex 4.953819e+000 2.559662e+000 0.000000e+000
         vertex 5.292020e+000 2.376637e+000 0.000000e+000
      endloop
   endfacet
   facet normal 0.000000e+000 0.000000e+000 -1.000000e+000
      outer loop
         vertex 6.798893e+000 2.251773e+000 0.000000e+000
         vertex 7.162607e+000 2.376637e+000 0.000000e+000
         vertex 1.000000e+001 0.000000e+000 0.000000e+000
      endloop
   endfacet
   facet normal 0.000000e+000 0.000000e+000 -1.000000e+000
      outer loop
         vertex 1.000000e+001 0.000000e+000 0.000000e+000
         vertex 7.162607e+000 2.376637e+000 0.000000e+000
         vertex 7.500809e+000 2.559662e+000 0.000000e+000
      endloop
   endfacet
   facet normal 0.000000e+000 0.000000e+000 -1.000000e+000
      outer loop
         vertex 1.000000e+001 0.000000e+000 0.000000e+000
         vertex 8.275050e+000 3.400712e+000 0.000000e+000
         vertex 8.429522e+000 3.752872e+000 0.000000e+000
      endloop
   endfacet
   facet normal 0.000000e+000 0.000000e+000 -1.000000e+000
      outer loop
         vertex 5.292020e+000 2.376637e+000 0.000000e+000
         vertex 5.655735e+000 2.251773e+000 0.000000e+000
         vertex 0.000000e+000 0.000000e+000 0.000000e+000
      endloop
   endfacet
   facet normal 0.000000e+000 0.000000e+000 -1.000000e+000
      outer loop
         vertex 0.000000e+000 0.000000e+000 0.000000e+000
         vertex 5.655735e+000 2.251773e+000 0.000000e+000
         vertex 6.035039e+000 2.188479e+000 0.000000e+000
      endloop
   endfacet
   facet normal 0.000000e+000 0.000000e+000 -1.000000e+000
      outer loop
         vertex 0.000000e+000 0.000000e+000 0.000000e+000
         vertex 6.035039e+000 2.188479e+000 0.000000e+000
         vertex 1.000000e+001 0.000000e+000 0.000000e+000
      endloop
   endfacet
   facet normal 0.000000e+000 0.000000e+000 -1.000000e+000
      outer loop
         vertex 1.000000e+001 0.000000e+000 0.000000e+000
         vertex 6.035039e+000 2.188479e+000 0.000000e+000
         vertex 6.419589e+000 2.188479e+000 0.000000e+000
      endloop
   endfacet
   facet normal 0.000000e+000 0.000000e+000 -1.000000e+000
      outer loop
         vertex 1.000000e+001 0.000000e+000 0.000000e+000
         vertex 6.419589e+000 2.188479e+000 0.000000e+000
         vertex 6.798893e+000 2.251773e+000 0.000000e+000
      endloop
   endfacet
   facet normal 0.000000e+000 0.000000e+000 -1.000000e+000
      outer loop
         vertex 7.500809e+000 2.559662e+000 0.000000e+000
         vertex 7.804273e+000 2.795857e+000 0.000000e+000
         vertex 1.000000e+001 0.000000e+000 0.000000e+000
      endloop
   endfacet
   facet normal 0.000000e+000 0.000000e+000 -1.000000e+000
      outer loop
         vertex 1.000000e+001 0.000000e+000 0.000000e+000
         vertex 7.804273e+000 2.795857e+000 0.000000e+000
         vertex 8.064721e+000 3.078780e+000 0.000000e+000
      endloop
   endfacet
   facet normal 0.000000e+000 0.000000e+000 -1.000000e+000
      outer loop
         vertex 1.000000e+001 0.000000e+000 0.000000e+000
         vertex 8.064721e+000 3.078780e+000 0.000000e+000
         vertex 8.275050e+000 3.400712e+000 0.000000e+000
      endloop
   endfacet
   facet normal 0.000000e+000 0.000000e+000 -1.000000e+000
      outer loop
         vertex 8.429522e+000 3.752872e+000 0.000000e+000
         vertex 8.523922e+000 4.125655e+000 0.000000e+000
         vertex 1.000000e+001 0.000000e+000 0.000000e+000
      endloop
   endfacet
   facet normal 0.000000e+000 0.000000e+000 -1.000000e+000
      outer loop
         vertex 1.000000e+001 0.000000e+000 0.000000e+000
         vertex 8.523922e+000 4.125655e+000 0.000000e+000
         vertex 8.555678e+000 4.508891e+000 0.000000e+000
      endloop
   endfacet
   facet normal 0.000000e+000 0.000000e+000 -1.000000e+000
      outer loop
         vertex 1.000000e+001 0.000000e+000 0.000000e+000
         vertex 8.555678e+000 4.508891e+000 0.000000e+000
         vertex 1.000000e+001 1.000000e+001 0.000000e+000
      endloop
   endfacet
   facet normal 0.000000e+000 0.000000e+000 -1.000000e+000
      outer loop
         vertex 1.000000e+001 1.000000e+001 0.000000e+000
         vertex 8.555678e+000 4.508891e+000 0.000000e+000
         vertex 8.523922e+000 4.892127e+000 0.000000e+000
      endloop
   endfacet
   facet normal 0.000000e+000 0.000000e+000 -1.000000e+000
      outer loop
         vertex 1.000000e+001 1.000000e+001 0.000000e+000
         vertex 8.523922e+000 4.892127e+000 0.000000e+000
         vertex 8.429522e+000 5.264909e+000 0.000000e+000
      endloop
   endfacet
   facet normal 0.000000e+000 1.000000e+000 0.000000e+000
      outer loop
         vertex 1.000000e+001 1.000000e+001 1.000000e+001
         vertex 1.000000e+001 1.000000e+001 0.000000e+000
         vertex 0.000000e+000 1.000000e+001 1.000000e+001
      endloop
   endfacet
   facet normal 0.000000e+000 1.000000e+000 0.000000e+000
      outer loop
         vertex 0.000000e+000 1.000000e+001 1.000000e+001
         vertex 1.000000e+001 1.000000e+001 0.000000e+000
         vertex 0.000000e+000 1.000000e+001 0.000000e+000
      endloop
   endfacet
   facet normal 0.000000e+000 -1.000000e+000 0.000000e+000
      outer loop
         vertex 1.000000e+001 0.000000e+000 0.000000e+000
         vertex 1.000000e+001 0.000000e+000 1.000000e+001
         vertex 0.000000e+000 0.000000e+000 0.000000e+000
      endloop
   endfacet
   facet normal 0.000000e+000 -1.000000e+000 0.000000e+000
      outer loop
         vertex 0.000000e+000 0.000000e+000 0.000000e+000
         vertex 1.000000e+001 0.000000e+000 1.000000e+001
         vertex 0.000000e+000 0.000000e+000 1.000000e+001
      endloop
   endfacet
   facet normal -9.984846e-001 5.503191e-002 0.000000e+000
      outer loop
         vertex 8.523922e+000 4.125655e+000 0.000000e+000
         vertex 8.555678e+000 4.508891e+000 1.000000e+001
         vertex 8.555678e+000 4.508891e+000 0.000000e+000
      endloop
   endfacet
   facet normal -9.984846e-001 -5.503191e-002 0.000000e+000
      outer loop
         vertex 8.555678e+000 4.508891e+000 0.000000e+000
         vertex 8.555678e+000 4.508891e+000 1.000000e+001
         vertex 8.523922e+000 4.892127e+000 1.000000e+001
      endloop
   endfacet
   facet normal -9.939246e-001 -1.100638e-001 0.000000e+000
      outer loop
         vertex 8.555678e+000 4.508891e+000 0.000000e+000
         vertex 8.523922e+000 4.892127e+000 1.000000e+001
         vertex 8.523922e+000 4.892127e+000 0.000000e+000
      endloop
   endfacet
   facet normal -9.758086e-001 -2.186265e-001 0.000000e+000
      outer loop
         vertex 8.523922e+000 4.892127e+000 0.000000e+000
         vertex 8.523922e+000 4.892127e+000 1.000000e+001
         vertex 8.429522e+000 5.264909e+000 1.000000e+001
      endloop
   endfacet
   facet normal -9.622528e-001 -2.721573e-001 0.000000e+000
      outer loop
         vertex 8.523922e+000 4.892127e+000 0.000000e+000
         vertex 8.429522e+000 5.264909e+000 1.000000e+001
         vertex 8.429522e+000 5.264909e+000 0.000000e+000
      endloop
   endfacet
   facet normal -9.265151e-001 -3.762575e-001 0.000000e+000
      outer loop
         vertex 8.429522e+000 5.264909e+000 0.000000e+000
         vertex 8.429522e+000 5.264909e+000 1.000000e+001
         vertex 8.275050e+000 5.617070e+000 1.000000e+001
      endloop
   endfacet
   facet normal -9.043333e-001 -4.268270e-001 0.000000e+000
      outer loop
         vertex 8.429522e+000 5.264909e+000 0.000000e+000
         vertex 8.275050e+000 5.617070e+000 1.000000e+001
         vertex 8.275050e+000 5.617070e+000 0.000000e+000
      endloop
   endfacet
   facet normal -8.519487e-001 -5.236253e-001 0.000000e+000
      outer loop
         vertex 8.275050e+000 5.617070e+000 0.000000e+000
         vertex 8.275050e+000 5.617070e+000 1.000000e+001
         vertex 8.064721e+000 5.939002e+000 1.000000e+001
      endloop
   endfacet
   facet normal -8.217459e-001 -5.698540e-001 0.000000e+000
      outer loop
         vertex 8.275050e+000 5.617070e+000 0.000000e+000
         vertex 8.064721e+000 5.939002e+000 1.000000e+001
         vertex 8.064721e+000 5.939002e+000 0.000000e+000
      endloop
   endfacet
   facet normal -7.541434e-001 -6.567098e-001 0.000000e+000
      outer loop
         vertex 8.064721e+000 5.939002e+000 0.000000e+000
         vertex 8.064721e+000 5.939002e+000 1.000000e+001
         vertex 7.804273e+000 6.221924e+000 1.000000e+001
      endloop
   endfacet
   facet normal -7.167435e-001 -6.973369e-001 0.000000e+000
      outer loop
         vertex 8.064721e+000 5.939002e+000 0.000000e+000
         vertex 7.804273e+000 6.221924e+000 1.000000e+001
         vertex 7.804273e+000 6.221924e+000 0.000000e+000
      endloop
   endfacet
   facet normal -6.357669e-001 -7.718811e-001 0.000000e+000
      outer loop
         vertex 7.804273e+000 6.221924e+000 0.000000e+000
         vertex 7.804273e+000 6.221924e+000 1.000000e+001
         vertex 7.500809e+000 6.458119e+000 1.000000e+001
      endloop
   endfacet
   facet normal -5.921901e-001 -8.057982e-001 0.000000e+000
      outer loop
         vertex 7.804273e+000 6.221924e+000 0.000000e+000
         vertex 7.500809e+000 6.458119e+000 1.000000e+001
         vertex 7.500809e+000 6.458119e+000 0.000000e+000
      endloop
   endfacet
   facet normal -5.000484e-001 -8.659974e-001 0.000000e+000
      outer loop
         vertex 7.500809e+000 6.458119e+000 0.000000e+000
         vertex 7.500809e+000 6.458119e+000 1.000000e+001
         vertex 7.162607e+000 6.641145e+000 1.000000e+001
      endloop
   endfacet
   facet normal -4.514834e-001 -8.922795e-001 0.000000e+000
      outer loop
         vertex 7.500809e+000 6.458119e+000 0.000000e+000
         vertex 7.162607e+000 6.641145e+000 1.000000e+001
         vertex 7.162607e+000 6.641145e+000 0.000000e+000
      endloop
   endfacet
   facet normal -3.506899e-001 -9.364916e-001 0.000000e+000
      outer loop
         vertex 7.162607e+000 6.641145e+000 0.000000e+000
         vertex 7.162607e+000 6.641145e+000 1.000000e+001
         vertex 6.798893e+000 6.766008e+000 1.000000e+001
      endloop
   endfacet
   facet normal -2.984614e-001 -9.544217e-001 0.000000e+000
      outer loop
         vertex 7.162607e+000 6.641145e+000 0.000000e+000
         vertex 6.798893e+000 6.766008e+000 1.000000e+001
         vertex 6.798893e+000 6.766008e+000 0.000000e+000
      endloop
   endfacet
   facet normal -1.917655e-001 -9.814408e-001 0.000000e+000
      outer loop
         vertex 6.798893e+000 6.766008e+000 0.000000e+000
         vertex 6.798893e+000 6.766008e+000 1.000000e+001
         vertex 6.419589e+000 6.829303e+000 1.000000e+001
      endloop
   endfacet
   facet normal -1.372982e-001 -9.905298e-001 0.000000e+000
      outer loop
         vertex 6.798893e+000 6.766008e+000 0.000000e+000
         vertex 6.419589e+000 6.829303e+000 1.000000e+001
         vertex 6.419589e+000 6.829303e+000 0.000000e+000
      endloop
   endfacet
   facet normal -2.761026e-002 -9.996188e-001 0.000000e+000
      outer loop
         vertex 6.419589e+000 6.829303e+000 0.000000e+000
         vertex 6.419589e+000 6.829303e+000 1.000000e+001
         vertex 6.035039e+000 6.829303e+000 1.000000e+001
      endloop
   endfacet
   facet normal 2.761026e-002 -9.996188e-001 0.000000e+000
      outer loop
         vertex 6.419589e+000 6.829303e+000 0.000000e+000
         vertex 6.035039e+000 6.829303e+000 1.000000e+001
         vertex 6.035039e+000 6.829303e+000 0.000000e+000
      endloop
   endfacet
   facet normal 1.372982e-001 -9.905298e-001 0.000000e+000
      outer loop
         vertex 6.035039e+000 6.829303e+000 0.000000e+000
         vertex 6.035039e+000 6.829303e+000 1.000000e+001
         vertex 5.655735e+000 6.766008e+000 1.000000e+001
      endloop
   endfacet
   facet normal 1.917655e-001 -9.814408e-001 0.000000e+000
      outer loop
         vertex 6.035039e+000 6.829303e+000 0.000000e+000
         vertex 5.655735e+000 6.766008e+000 1.000000e+001
         vertex 5.655735e+000 6.766008e+000 0.000000e+000
      endloop
   endfacet
   facet normal 2.984614e-001 -9.544217e-001 0.000000e+000
      outer loop
         vertex 5.655735e+000 6.766008e+000 0.000000e+000
         vertex 5.655735e+000 6.766008e+000 1.000000e+001
         vertex 5.292020e+000 6.641145e+000 1.000000e+001
      endloop
   endfacet
   facet normal 3.506899e-001 -9.364916e-001 0.000000e+000
      outer loop
         vertex 5.655735e+000 6.766008e+000 0.000000e+000
         vertex 5.292020e+000 6.641145e+000 1.000000e+001
         vertex 5.292020e+000 6.641145e+000 0.000000e+000
      endloop
   endfacet
   facet normal 4.514834e-001 -8.922795e-001 0.000000e+000
      outer loop
         vertex 5.292020e+000 6.641145e+000 0.000000e+000
         vertex 5.292020e+000 6.641145e+000 1.000000e+001
         vertex 4.953819e+000 6.458119e+000 1.000000e+001
      endloop
   endfacet
   facet normal 5.000484e-001 -8.659974e-001 0.000000e+000
      outer loop
         vertex 5.292020e+000 6.641145e+000 0.000000e+000
         vertex 4.953819e+000 6.458119e+000 1.000000e+001
         vertex 4.953819e+000 6.458119e+000 0.000000e+000
      endloop
   endfacet
   facet normal 5.921901e-001 -8.057982e-001 0.000000e+000
      outer loop
         vertex 4.953819e+000 6.458119e+000 0.000000e+000
         vertex 4.953819e+000 6.458119e+000 1.000000e+001
         vertex 4.650355e+000 6.221924e+000 1.000000e+001
      endloop
   endfacet
   facet normal 6.357669e-001 -7.718811e-001 0.000000e+000
      outer loop
         vertex 4.953819e+000 6.458119e+000 0.000000e+000
         vertex 4.650355e+000 6.221924e+000 1.000000e+001
         vertex 4.650355e+000 6.221924e+000 0.000000e+000
      endloop
   endfacet
   facet normal 7.167435e-001 -6.973369e-001 0.000000e+000
      outer loop
         vertex 4.650355e+000 6.221924e+000 0.000000e+000
         vertex 4.650355e+000 6.221924e+000 1.000000e+001
         vertex 4.389907e+000 5.939002e+000 1.000000e+001
      endloop
   endfacet
   facet normal 7.541434e-001 -6.567098e-001 0.000000e+000
      outer loop
         vertex 4.650355e+000 6.221924e+000 0.000000e+000
         vertex 4.389907e+000 5.939002e+000 1.000000e+001
         vertex 4.389907e+000 5.939002e+000 0.000000e+000
      endloop
   endfacet
   facet normal 8.217459e-001 -5.698540e-001 0.000000e+000
      outer loop
         vertex 4.389907e+000 5.939002e+000 0.000000e+000
         vertex 4.389907e+000 5.939002e+000 1.000000e+001
         vertex 4.179578e+000 5.617070e+000 1.000000e+001
      endloop
   endfacet
   facet normal 8.519487e-001 -5.236253e-001 0.000000e+000
      outer loop
         vertex 4.389907e+000 5.939002e+000 0.000000e+000
         vertex 4.179578e+000 5.617070e+000 1.000000e+001
         vertex 4.179578e+000 5.617070e+000 0.000000e+000
      endloop
   endfacet
   facet normal 9.043333e-001 -4.268270e-001 0.000000e+000
      outer loop
         vertex 4.179578e+000 5.617070e+000 0.000000e+000
         vertex 4.179578e+000 5.617070e+000 1.000000e+001
         vertex 4.025106e+000 5.264909e+000 1.000000e+001
      endloop
   endfacet
   facet normal 9.265151e-001 -3.762575e-001 0.000000e+000
      outer loop
         vertex 4.179578e+000 5.617070e+000 0.000000e+000
         vertex 4.025106e+000 5.264909e+000 1.000000e+001
         vertex 4.025106e+000 5.264909e+000 0.000000e+000
      endloop
   endfacet
   facet normal 9.622528e-001 -2.721573e-001 0.000000e+000
      outer loop
         vertex 4.025106e+000 5.264909e+000 0.000000e+000
         vertex 4.025106e+000 5.264909e+000 1.000000e+001
         vertex 3.930705e+000 4.892127e+000 1.000000e+001
      endloop
   endfacet
   facet normal 9.758086e-001 -2.186265e-001 0.000000e+000
      outer loop
         vertex 4.025106e+000 5.264909e+000 0.000000e+000
         vertex 3.930705e+000 4.892127e+000 1.000000e+001
         vertex 3.930705e+000 4.892127e+000 0.000000e+000
      endloop
   endfacet
   facet normal 9.939246e-001 -1.100638e-001 0.000000e+000
      outer loop
         vertex 3.930705e+000 4.892127e+000 0.000000e+000
         vertex 3.930705e+000 4.892127e+000 1.000000e+001
         vertex 3.898949e+000 4.508891e+000 1.000000e+001
      endloop
   endfacet
   facet normal 9.984846e-001 -5.503191e-002 0.000000e+000
      outer loop
         vertex 3.930705e+000 4.892127e+000 0.000000e+000
         vertex 3.898949e+000 4.508891e+000 1.000000e+001
         vertex 3.898949e+000 4.508891e+000 0.000000e+000
      endloop
   endfacet
   facet normal 9.984846e-001 5.503191e-002 0.000000e+000
      outer loop
         vertex 3.898949e+000 4.508891e+000 0.000000e+000
         vertex 3.898949e+000 4.508891e+000 1.000000e+001
         vertex 3.930705e+000 4.125655e+000 1.000000e+001
      endloop
   endfacet
   facet normal 9.939246e-001 1.100638e-001 0.000000e+000
      outer loop
         vertex 3.898949e+000 4.508891e+000 0.000000e+000
         vertex 3.930705e+000 4.125655e+000 1.000000e+001
         vertex 3.930705e+000 4.125655e+000 0.000000e+000
      endloop
   endfacet
   facet normal 9.758086e-001 2.186265e-001 0.000000e+000
      outer loop
         vertex 3.930705e+000 4.125655e+000 0.000000e+000
         vertex 3.930705e+000 4.125655e+000 1.000000e+001
         vertex 4.025106e+000 3.752872e+000 1.000000e+001
      endloop
   endfacet
   facet normal 9.622528e-001 2.721573e-001 0.000000e+000
      outer loop
         vertex 3.930705e+000 4.125655e+000 0.000000e+000
         vertex 4.025106e+000 3.752872e+000 1.000000e+001
         vertex 4.025106e+000 3.752872e+000 0.000000e+000
      endloop
   endfacet
   facet normal 9.265151e-001 3.762575e-001 0.000000e+000
      outer loop
         vertex 4.025106e+000 3.752872e+000 0.000000e+000
         vertex 4.025106e+000 3.752872e+000 1.000000e+001
         vertex 4.179578e+000 3.400712e+000 1.000000e+001
      endloop
   endfacet
   facet normal 9.043333e-001 4.268270e-001 0.000000e+000
      outer loop
         vertex 4.025106e+000 3.752872e+000 0.000000e+000
         vertex 4.179578e+000 3.400712e+000 1.000000e+001
         vertex 4.179578e+000 3.400712e+000 0.000000e+000
      endloop
   endfacet
   facet normal 8.519487e-001 5.236253e-001 0.000000e+000
      outer loop
         vertex 4.179578e+000 3.400712e+000 0.000000e+000
         vertex 4.179578e+000 3.400712e+000 1.000000e+001
         vertex 4.389907e+000 3.078780e+000 1.000000e+001
      endloop
   endfacet
   facet normal 8.217459e-001 5.698540e-001 0.000000e+000
      outer loop
         vertex 4.179578e+000 3.400712e+000 0.000000e+000
         vertex 4.389907e+000 3.078780e+000 1.000000e+001
         vertex 4.389907e+000 3.078780e+000 0.000000e+000
      endloop
   endfacet
   facet normal 7.541434e-001 6.567098e-001 0.000000e+000
      outer loop
         vertex 4.389907e+000 3.078780e+000 0.000000e+000
         vertex 4.389907e+000 3.078780e+000 1.000000e+001
         vertex 4.650355e+000 2.795857e+000 1.000000e+001
      endloop
   endfacet
   facet normal 7.167435e-001 6.973369e-001 0.000000e+000
      outer loop
         vertex 4.389907e+000 3.078780e+000 0.000000e+000
         vertex 4.650355e+000 2.795857e+000 1.000000e+001
         vertex 4.650355e+000 2.795857e+000 0.000000e+000
      endloop
   endfacet
   facet normal 6.357669e-001 7.718811e-001 0.000000e+000
      outer loop
         vertex 4.650355e+000 2.795857e+000 0.000000e+000
         vertex 4.650355e+000 2.795857e+000 1.000000e+001
         vertex 4.953819e+000 2.559662e+000 1.000000e+001
      endloop
   endfacet
   facet normal 5.921901e-001 8.057982e-001 0.000000e+000
      outer loop
         vertex 4.650355e+000 2.795857e+000 0.000000e+000
         vertex 4.953819e+000 2.559662e+000 1.000000e+001
         vertex 4.953819e+000 2.559662e+000 0.000000e+000
      endloop
   endfacet
   facet normal 5.000484e-001 8.659974e-001 0.000000e+000
      outer loop
         vertex 4.953819e+000 2.559662e+000 0.000000e+000
         vertex 4.953819e+000 2.559662e+000 1.000000e+001
         vertex 5.292020e+000 2.376637e+000 1.000000e+001
      endloop
   endfacet
   facet normal 4.514834e-001 8.922795e-001 0.000000e+000
      outer loop
         vertex 4.953819e+000 2.559662e+000 0.000000e+000
         vertex 5.292020e+000 2.376637e+000 1.000000e+001
         vertex 5.292020e+000 2.376637e+000 0.000000e+000
      endloop
   endfacet
   facet normal 3.506899e-001 9.364916e-001 0.000000e+000
      outer loop
         vertex 5.292020e+000 2.376637e+000 0.000000e+000
         vertex 5.292020e+000 2.376637e+000 1.000000e+001
         vertex 5.655735e+000 2.251773e+000 1.000000e+001
      endloop
   endfacet
   facet normal 2.984614e-001 9.544217e-001 0.000000e+000
      outer loop
         vertex 5.292020e+000 2.376637e+000 0.000000e+000
         vertex 5.655735e+000 2.251773e+000 1.000000e+001
         vertex 5.655735e+000 2.251773e+000 0.000000e+000
      endloop
   endfacet
   facet normal 1.917655e-001 9.814408e-001 0.000000e+000
      outer loop
         vertex 5.655735e+000 2.251773e+000 0.000000e+000
         vertex 5.655735e+000 2.251773e+000 1.000000e+001
         vertex 6.035039e+000 2.188479e+000 1.000000e+001
      endloop
   endfacet
   facet normal 1.372982e-001 9.905298e-001 0.000000e+000
      outer loop
         vertex 5.655735e+000 2.251773e+000 0.000000e+000
         vertex 6.035039e+000 2.188479e+000 1.000000e+001
         vertex 6.035039e+000 2.188479e+000 0.000000e+000
      endloop
   endfacet
   facet normal 2.761026e-002 9.996188e-001 0.000000e+000
      outer loop
         vertex 6.035039e+000 2.188479e+000 0.000000e+000
         vertex 6.035039e+000 2.188479e+000 1.000000e+001
         vertex 6.419589e+000 2.188479e+000 1.000000e+001
      endloop
   endfacet
   facet normal -2.761026e-002 9.996188e-001 0.000000e+000
      outer loop
         vertex 6.035039e+000 2.188479e+000 0.000000e+000
         vertex 6.419589e+000 2.188479e+000 1.000000e+001
         vertex 6.419589e+000 2.188479e+000 0.000000e+000
      endloop
   endfacet
   facet normal -1.372982e-001 9.905298e-001 0.000000e+000
      outer loop
         vertex 6.419589e+000 2.188479e+000 0.000000e+000
         vertex 6.419589e+000 2.188479e+000 1.000000e+001
         vertex 6.798893e+000 2.251773e+000 1.000000e+001
      endloop
   endfacet
   facet normal -1.917655e-001 9.814408e-001 0.000000e+000
      outer loop
         vertex 6.419589e+000 2.188479e+000 0.000000e+000
         vertex 6.798893e+000 2.251773e+000 1.000000e+001
         vertex 6.798893e+000 2.251773e+000 0.000000e+000
      endloop
   endfacet
   facet normal -2.984614e-001 9.544217e-001 0.000000e+000
      outer loop
         vertex 6.798893e+000 2.251773e+000 0.000000e+000
         vertex 6.798893e+000 2.251773e+000 1.000000e+001
         vertex 7.162607e+000 2.376637e+000 1.000000e+001
      endloop
   endfacet
   facet normal -3.506899e-001 9.364916e-001 0.000000e+000
      outer loop
         vertex 6.798893e+000 2.251773e+000 0.000000e+000
         vertex 7.162607e+000 2.376637e+000 1.000000e+001
         vertex 7.162607e+000 2.376637e+000 0.000000e+000
      endloop
   endfacet
   facet normal -4.514834e-001 8.922795e-001 0.000000e+000
      outer loop
         vertex 7.162607e+000 2.376637e+000 0.000000e+000
         vertex 7.162607e+000 2.376637e+000 1.000000e+001
         vertex 7.500809e+000 2.559662e+000 1.000000e+001
      endloop
   endfacet
   facet normal -5.000484e-001 8.659974e-001 0.000000e+000
      outer loop
         vertex 7.162607e+000 2.376637e+000 0.000000e+000
         vertex 7.500809e+000 2.559662e+000 1.000000e+001
         vertex 7.500809e+000 2.559662e+000 0.000000e+000
      endloop
   endfacet
   facet normal -5.921901e-001 8.057982e-001 0.000000e+000
      outer loop
         vertex 7.500809e+000 2.559662e+000 0.000000e+000
         vertex 7.500809e+000 2.559662e+000 1.000000e+001
         vertex 7.804273e+000 2.795857e+000 1.000000e+001
      endloop
   endfacet
   facet normal -6.357669e-001 7.718811e-001 0.000000e+000
      outer loop
         vertex 7.500809e+000 2.559662e+000 0.000000e+000
         vertex 7.804273e+000 2.795857e+000 1.000000e+001
         vertex 7.804273e+000 2.795857e+000 0.000000e+000
      endloop
   endfacet
   facet normal -7.167435e-001 6.973369e-001 0.000000e+000
      outer loop
         vertex 7.804273e+000 2.795857e+000 0.000000e+000
         vertex 7.804273e+000 2.795857e+000 1.000000e+001
         vertex 8.064721e+000 3.078780e+000 1.000000e+001
      endloop
   endfacet
   facet normal -7.541434e-001 6.567098e-001 0.000000e+000
      outer loop
         vertex 7.804273e+000 2.795857e+000 0.000000e+000
         vertex 8.064721e+000 3.078780e+000 1.000000e+001
         vertex 8.064721e+000 3.078780e+000 0.000000e+000
      endloop
   endfacet
   facet normal -8.217459e-001 5.698540e-001 0.000000e+000
      outer loop
         vertex 8.064721e+000 3.078780e+000 0.000000e+000
         vertex 8.064721e+000 3.078780e+000 1.000000e+001
         vertex 8.275050e+000 3.400712e+000 1.000000e+001
      endloop
   endfacet
   facet normal -8.519487e-001 5.236253e-001 0.000000e+000
      outer loop
         vertex 8.064721e+000 3.078780e+000 0.000000e+000
         vertex 8.275050e+000 3.400712e+000 1.000000e+001
         vertex 8.275050e+000 3.400712e+000 0.000000e+000
      endloop
   endfacet
   facet normal -9.043333e-001 4.268270e-001 0.000000e+000
      outer loop
         vertex 8.275050e+000 3.400712e+000 0.000000e+000
         vertex 8.275050e+000 3.400712e+000 1.000000e+001
         vertex 8.429522e+000 3.752872e+000 1.000000e+001
      endloop
   endfacet
   facet normal -9.265151e-001 3.762575e-001 0.000000e+000
      outer loop
         vertex 8.275050e+000 3.400712e+000 0.000000e+000
         vertex 8.429522e+000 3.752872e+000 1.000000e+001
         vertex 8.429522e+000 3.752872e+000 0.000000e+000
      endloop
   endfacet
   facet normal -9.622528e-001 2.721573e-001 0.000000e+000
      outer loop
         vertex 8.429522e+000 3.752872e+000 0.000000e+000
         vertex 8.429522e+000 3.752872e+000 1.000000e+001
         vertex 8.523922e+000 4.125655e+000 1.000000e+001
      endloop
   endfacet
   facet normal -9.758086e-001 2.186265e-001 0.000000e+000
      outer loop
         vertex 8.429522e+000 3.752872e+000 0.000000e+000
         vertex 8.523922e+000 4.125655e+000 1.000000e+001
         vertex 8.523922e+000 4.125655e+000 0.000000e+000
      endloop
   endfacet
   facet normal -9.939246e-001 1.100638e-001 0.000000e+000
      outer loop
         vertex 8.523922e+000 4.125655e+000 0.000000e+000
         vertex 8.523922e+000 4.125655e+000 1.000000e+001
         vertex 8.555678e+000 4.508891e+000 1.000000e+001
      endloop
   endfacet
endsolid