solid 3_188
   facet normal -1.000000e+000 0.000000e+000 0.000000e+000
      outer loop
         vertex 0.000000e+000 1.000000e+001 1.000000e+001
         vertex 0.000000e+000 1.000000e+001 0.000000e+000
         vertex 0.000000e+000 0.000000e+000 1.000000e+001
      endloop
   endfacet
   facet normal -1.000000e+000 0.000000e+000 0.000000e+000
      outer loop
         vertex 0.000000e+000 0.000000e+000 1.000000e+001
         vertex 0.000000e+000 1.000000e+001 0.000000e+000
         vertex 0.000000e+000 0.000000e+000 0.000000e+000
      endloop
   endfacet
   facet normal 0.000000e+000 0.000000e+000 1.000000e+000
      outer loop
         vertex 8.432462e+000 2.603319e+000 1.000000e+001
         vertex 1.000000e+001 0.000000e+000 1.000000e+001
         vertex 8.650306e+000 3.055676e+000 1.000000e+001
      endloop
   endfacet
   facet normal 0.000000e+000 0.000000e+000 1.000000e+000
      outer loop
         vertex 8.650306e+000 3.055676e+000 1.000000e+001
         vertex 1.000000e+001 0.000000e+000 1.000000e+001
         vertex 8.808515e+000 3.532177e+000 1.000000e+001
      endloop
   endfacet
   facet normal 0.000000e+000 0.000000e+000 1.000000e+000
      outer loop
         vertex 8.432462e+000 2.603319e+000 1.000000e+001
         vertex 8.158561e+000 2.182532e+000 1.000000e+001
         vertex 1.000000e+001 0.000000e+000 1.000000e+001
      endloop
   endfacet
   facet normal 0.000000e+000 0.000000e+000 1.000000e+000
      outer loop
         vertex 1.000000e+001 0.000000e+000 1.000000e+001
         vertex 8.158561e+000 2.182532e+000 1.000000e+001
         vertex 7.833099e+000 1.800227e+000 1.000000e+001
      endloop
   endfacet
   facet normal 0.000000e+000 0.000000e+000 1.000000e+000
      outer loop
         vertex 1.000000e+001 0.000000e+000 1.000000e+001
         vertex 7.833099e+000 1.800227e+000 1.000000e+001
         vertex 7.461421e+000 1.462679e+000 1.000000e+001
      endloop
   endfacet
   facet normal 0.000000e+000 0.000000e+000 1.000000e+000
      outer loop
         vertex 7.461421e+000 1.462679e+000 1.000000e+001
         vertex 7.049630e+000 1.175431e+000 1.000000e+001
         vertex 1.000000e+001 0.000000e+000 1.000000e+001
      endloop
   endfacet
   facet normal 0.000000e+000 0.000000e+000 1.000000e+000
      outer loop
         vertex 1.000000e+001 0.000000e+000 1.000000e+001
         vertex 7.049630e+000 1.175431e+000 1.000000e+001
         vertex 6.604486e+000 9.432001e-001 1.000000e+001
      endloop
   endfacet
   facet normal 0.000000e+000 0.000000e+000 1.000000e+000
      outer loop
         vertex 1.000000e+001 0.000000e+000 1.000000e+001
         vertex 6.604486e+000 9.432001e-001 1.000000e+001
         vertex 6.133302e+000 7.697997e-001 1.000000e+001
      endloop
   endfacet
   facet normal 0.000000e+000 0.000000e+000 1.000000e+000
      outer loop
         vertex 6.133302e+000 7.697997e-001 1.000000e+001
         vertex 5.643811e+000 6.580766e-001 1.000000e+001
         vertex 1.000000e+001 0.000000e+000 1.000000e+001
      endloop
   endfacet
   facet normal 0.000000e+000 0.000000e+000 1.000000e+000
      outer loop
         vertex 1.000000e+001 0.000000e+000 1.000000e+001
         vertex 5.643811e+000 6.580766e-001 1.000000e+001
         vertex 5.144052e+000 6.098655e-001 1.000000e+001
      endloop
   endfacet
   facet normal 0.000000e+000 0.000000e+000 1.000000e+000
      outer loop
         vertex 1.000000e+001 0.000000e+000 1.000000e+001
         vertex 5.144052e+000 6.098655e-001 1.000000e+001
         vertex 0.000000e+000 0.000000e+000 1.000000e+001
      endloop
   endfacet
   facet normal 0.000000e+000 0.000000e+000 1.000000e+000
      outer loop
         vertex 0.000000e+000 0.000000e+000 1.000000e+001
         vertex 5.144052e+000 6.098655e-001 1.000000e+001
         vertex 4.642231e+000 6.259579e-001 1.000000e+001
      endloop
   endfacet
   facet normal 0.000000e+000 0.000000e+000 1.000000e+000
      outer loop
         vertex 0.000000e+000 0.000000e+000 1.000000e+001
         vertex 4.642231e+000 6.259579e-001 1.000000e+001
         vertex 4.146588e+000 7.060897e-001 1.000000e+001
      endloop
   endfacet
   facet normal 0.000000e+000 0.000000e+000 1.000000e+000
      outer loop
         vertex 6.133302e+000 8.282289e+000 1.000000e+001
         vertex 6.604486e+000 8.108889e+000 1.000000e+001
         vertex 1.000000e+001 1.000000e+001 1.000000e+001
      endloop
   endfacet
   facet normal 0.000000e+000 0.000000e+000 1.000000e+000
      outer loop
         vertex 1.000000e+001 1.000000e+001 1.000000e+001
         vertex 6.604486e+000 8.108889e+000 1.000000e+001
         vertex 7.049630e+000 7.876658e+000 1.000000e+001
      endloop
   endfacet
   facet normal 0.000000e+000 0.000000e+000 1.000000e+000
      outer loop
         vertex 7.049630e+000 7.876658e+000 1.000000e+001
         vertex 7.461421e+000 7.589410e+000 1.000000e+001
         vertex 1.000000e+001 1.000000e+001 1.000000e+001
      endloop
   endfacet
   facet normal 0.000000e+000 0.000000e+000 1.000000e+000
      outer loop
         vertex 1.000000e+001 1.000000e+001 1.000000e+001
         vertex 7.461421e+000 7.589410e+000 1.000000e+001
         vertex 7.833099e+000 7.251862e+000 1.000000e+001
      endloop
   endfacet
   facet normal 0.000000e+000 0.000000e+000 1.000000e+000
      outer loop
         vertex 1.000000e+001 1.000000e+001 1.000000e+001
         vertex 7.833099e+000 7.251862e+000 1.000000e+001
         vertex 8.158561e+000 6.869556e+000 1.000000e+001
      endloop
   endfacet
   facet normal 0.000000e+000 0.000000e+000 1.000000e+000
      outer loop
         vertex 8.158561e+000 6.869556e+000 1.000000e+001
         vertex 8.432462e+000 6.448770e+000 1.000000e+001
         vertex 1.000000e+001 1.000000e+001 1.000000e+001
      endloop
   endfacet
   facet normal 0.000000e+000 0.000000e+000 1.000000e+000
      outer loop
         vertex 1.000000e+001 1.000000e+001 1.000000e+001
         vertex 8.432462e+000 6.448770e+000 1.000000e+001
         vertex 8.650306e+000 5.996413e+000 1.000000e+001
      endloop
   endfacet
   facet normal 0.000000e+000 0.000000e+000 1.000000e+000
      outer loop
         vertex 1.000000e+001 1.000000e+001 1.000000e+001
         vertex 8.650306e+000 5.996413e+000 1.000000e+001
         vertex 8.808515e+000 5.519912e+000 1.000000e+001
      endloop
   endfacet
   facet normal 0.000000e+000 0.000000e+000 1.000000e+000
      outer loop
         vertex 1.734678e+000 6.663555e+000 1.000000e+001
         vertex 0.000000e+000 1.000000e+001 1.000000e+001
         vertex 1.488299e+000 6.226084e+000 1.000000e+001
      endloop
   endfacet
   facet normal 0.000000e+000 0.000000e+000 1.000000e+000
      outer loop
         vertex 1.488299e+000 6.226084e+000 1.000000e+001
         vertex 0.000000e+000 1.000000e+001 1.000000e+001
         vertex 1.299885e+000 5.760699e+000 1.000000e+001
      endloop
   endfacet
   facet normal 0.000000e+000 0.000000e+000 1.000000e+000
      outer loop
         vertex 4.146588e+000 8.345999e+000 1.000000e+001
         vertex 4.642231e+000 8.426130e+000 1.000000e+001
         vertex 0.000000e+000 1.000000e+001 1.000000e+001
      endloop
   endfacet
   facet normal 0.000000e+000 0.000000e+000 1.000000e+000
      outer loop
         vertex 0.000000e+000 1.000000e+001 1.000000e+001
         vertex 4.642231e+000 8.426130e+000 1.000000e+001
         vertex 5.144052e+000 8.442223e+000 1.000000e+001
      endloop
   endfacet
   facet normal 0.000000e+000 0.000000e+000 1.000000e+000
      outer loop
         vertex 0.000000e+000 1.000000e+001 1.000000e+001
         vertex 5.144052e+000 8.442223e+000 1.000000e+001
         vertex 1.000000e+001 1.000000e+001 1.000000e+001
      endloop
   endfacet
   facet normal 0.000000e+000 0.000000e+000 1.000000e+000
      outer loop
         vertex 1.000000e+001 1.000000e+001 1.000000e+001
         vertex 5.144052e+000 8.442223e+000 1.000000e+001
         vertex 5.643811e+000 8.394012e+000 1.000000e+001
      endloop
   endfacet
   facet normal 0.000000e+000 0.000000e+000 1.000000e+000
      outer loop
         vertex 1.000000e+001 1.000000e+001 1.000000e+001
         vertex 5.643811e+000 8.394012e+000 1.000000e+001
         vertex 6.133302e+000 8.282289e+000 1.000000e+001
      endloop
   endfacet
   facet normal 0.000000e+000 0.000000e+000 1.000000e+000
      outer loop
         vertex 8.808515e+000 5.519912e+000 1.000000e+001
         vertex 8.904491e+000 5.027092e+000 1.000000e+001
         vertex 1.000000e+001 1.000000e+001 1.000000e+001
      endloop
   endfacet
   facet normal 0.000000e+000 0.000000e+000 1.000000e+000
      outer loop
         vertex 1.000000e+001 1.000000e+001 1.000000e+001
         vertex 8.904491e+000 5.027092e+000 1.000000e+001
         vertex 8.936661e+000 4.526044e+000 1.000000e+001
      endloop
   endfacet
   facet normal 0.000000e+000 0.000000e+000 1.000000e+000
      outer loop
         vertex 1.000000e+001 1.000000e+001 1.000000e+001
         vertex 8.936661e+000 4.526044e+000 1.000000e+001
         vertex 1.000000e+001 0.000000e+000 1.000000e+001
      endloop
   endfacet
   facet normal 0.000000e+000 0.000000e+000 1.000000e+000
      outer loop
         vertex 1.000000e+001 0.000000e+000 1.000000e+001
         vertex 8.936661e+000 4.526044e+000 1.000000e+001
         vertex 8.904491e+000 4.024997e+000 1.000000e+001
      endloop
   endfacet
   facet normal 0.000000e+000 0.000000e+000 1.000000e+000
      outer loop
         vertex 1.000000e+001 0.000000e+000 1.000000e+001
         vertex 8.904491e+000 4.024997e+000 1.000000e+001
         vertex 8.808515e+000 3.532177e+000 1.000000e+001
      endloop
   endfacet
   facet normal 0.000000e+000 0.000000e+000 1.000000e+000
      outer loop
         vertex 4.146588e+000 7.060897e-001 1.000000e+001
         vertex 3.665262e+000 8.489450e-001 1.000000e+001
         vertex 0.000000e+000 0.000000e+000 1.000000e+001
      endloop
   endfacet
   facet normal 0.000000e+000 0.000000e+000 1.000000e+000
      outer loop
         vertex 0.000000e+000 0.000000e+000 1.000000e+001
         vertex 3.665262e+000 8.489450e-001 1.000000e+001
         vertex 3.206154e+000 1.052178e+000 1.000000e+001
      endloop
   endfacet
   facet normal 0.000000e+000 0.000000e+000 1.000000e+000
      outer loop
         vertex 0.000000e+000 0.000000e+000 1.000000e+001
         vertex 3.206154e+000 1.052178e+000 1.000000e+001
         vertex 2.776805e+000 1.312452e+000 1.000000e+001
      endloop
   endfacet
   facet normal 0.000000e+000 0.000000e+000 1.000000e+000
      outer loop
         vertex 1.734678e+000 6.663555e+000 1.000000e+001
         vertex 2.034977e+000 7.065928e+000 1.000000e+001
         vertex 0.000000e+000 1.000000e+001 1.000000e+001
      endloop
   endfacet
   facet normal 0.000000e+000 0.000000e+000 1.000000e+000
      outer loop
         vertex 0.000000e+000 1.000000e+001 1.000000e+001
         vertex 2.034977e+000 7.065928e+000 1.000000e+001
         vertex 2.384264e+000 7.426596e+000 1.000000e+001
      endloop
   endfacet
   facet normal 0.000000e+000 0.000000e+000 1.000000e+000
      outer loop
         vertex 0.000000e+000 1.000000e+001 1.000000e+001
         vertex 2.384264e+000 7.426596e+000 1.000000e+001
         vertex 2.776805e+000 7.739636e+000 1.000000e+001
      endloop
   endfacet
   facet normal 0.000000e+000 0.000000e+000 1.000000e+000
      outer loop
         vertex 2.776805e+000 7.739636e+000 1.000000e+001
         vertex 3.206154e+000 7.999911e+000 1.000000e+001
         vertex 0.000000e+000 1.000000e+001 1.000000e+001
      endloop
   endfacet
   facet normal 0.000000e+000 0.000000e+000 1.000000e+000
      outer loop
         vertex 0.000000e+000 1.000000e+001 1.000000e+001
         vertex 3.206154e+000 7.999911e+000 1.000000e+001
         vertex 3.665262e+000 8.203143e+000 1.000000e+001
      endloop
   endfacet
   facet normal 0.000000e+000 0.000000e+000 1.000000e+000
      outer loop
         vertex 0.000000e+000 1.000000e+001 1.000000e+001
         vertex 3.665262e+000 8.203143e+000 1.000000e+001
         vertex 4.146588e+000 8.345999e+000 1.000000e+001
      endloop
   endfacet
   facet normal 0.000000e+000 0.000000e+000 1.000000e+000
      outer loop
         vertex 2.776805e+000 1.312452e+000 1.000000e+001
         vertex 2.384264e+000 1.625493e+000 1.000000e+001
         vertex 0.000000e+000 0.000000e+000 1.000000e+001
      endloop
   endfacet
   facet normal 0.000000e+000 0.000000e+000 1.000000e+000
      outer loop
         vertex 0.000000e+000 0.000000e+000 1.000000e+001
         vertex 2.384264e+000 1.625493e+000 1.000000e+001
         vertex 2.034977e+000 1.986161e+000 1.000000e+001
      endloop
   endfacet
   facet normal 0.000000e+000 0.000000e+000 1.000000e+000
      outer loop
         vertex 0.000000e+000 0.000000e+000 1.000000e+001
         vertex 2.034977e+000 1.986161e+000 1.000000e+001
         vertex 1.734678e+000 2.388534e+000 1.000000e+001
      endloop
   endfacet
   facet normal 0.000000e+000 0.000000e+000 1.000000e+000
      outer loop
         vertex 1.734678e+000 2.388534e+000 1.000000e+001
         vertex 1.488299e+000 2.826005e+000 1.000000e+001
         vertex 0.000000e+000 0.000000e+000 1.000000e+001
      endloop
   endfacet
   facet normal 0.000000e+000 0.000000e+000 1.000000e+000
      outer loop
         vertex 0.000000e+000 0.000000e+000 1.000000e+001
         vertex 1.488299e+000 2.826005e+000 1.000000e+001
         vertex 1.299885e+000 3.291390e+000 1.000000e+001
      endloop
   endfacet
   facet normal 0.000000e+000 0.000000e+000 1.000000e+000
      outer loop
         vertex 0.000000e+000 0.000000e+000 1.000000e+001
         vertex 1.299885e+000 3.291390e+000 1.000000e+001
         vertex 1.172531e+000 3.777048e+000 1.000000e+001
      endloop
   endfacet
   facet normal 0.000000e+000 0.000000e+000 1.000000e+000
      outer loop
         vertex 1.172531e+000 3.777048e+000 1.000000e+001
         vertex 1.108326e+000 4.275005e+000 1.000000e+001
         vertex 0.000000e+000 0.000000e+000 1.000000e+001
      endloop
   endfacet
   facet normal 0.000000e+000 0.000000e+000 1.000000e+000
      outer loop
         vertex 0.000000e+000 0.000000e+000 1.000000e+001
         vertex 1.108326e+000 4.275005e+000 1.000000e+001
         vertex 1.108326e+000 4.777084e+000 1.000000e+001
      endloop
   endfacet
   facet normal 0.000000e+000 0.000000e+000 1.000000e+000
      outer loop
         vertex 0.000000e+000 0.000000e+000 1.000000e+001
         vertex 1.108326e+000 4.777084e+000 1.000000e+001
         vertex 0.000000e+000 1.000000e+001 1.000000e+001
      endloop
   endfacet
   facet normal 0.000000e+000 0.000000e+000 1.000000e+000
      outer loop
         vertex 0.000000e+000 1.000000e+001 1.000000e+001
         vertex 1.108326e+000 4.777084e+000 1.000000e+001
         vertex 1.172531e+000 5.275041e+000 1.000000e+001
      endloop
   endfacet
   facet normal 0.000000e+000 0.000000e+000 1.000000e+000
      outer loop
         vertex 0.000000e+000 1.000000e+001 1.000000e+001
         vertex 1.172531e+000 5.275041e+000 1.000000e+001
         vertex 1.299885e+000 5.760699e+000 1.000000e+001
      endloop
   endfacet
   facet normal 1.000000e+000 0.000000e+000 0.000000e+000
      outer loop
         vertex 1.000000e+001 1.000000e+001 0.000000e+000
         vertex 1.000000e+001 1.000000e+001 1.000000e+001
         vertex 1.000000e+001 0.000000e+000 0.000000e+000
      endloop
   endfacet
   facet normal 1.000000e+000 0.000000e+000 0.000000e+000
      outer loop
         vertex 1.000000e+001 0.000000e+000 0.000000e+000
         vertex 1.000000e+001 1.000000e+001 1.000000e+001
         vertex 1.000000e+001 0.000000e+000 1.000000e+001
      endloop
   endfacet
   facet normal 0.000000e+000 0.000000e+000 -1.000000e+000
      outer loop
         vertex 6.604486e+000 9.432001e-001 0.000000e+000
         vertex 7.049630e+000 1.175431e+000 0.000000e+000
         vertex 1.000000e+001 0.000000e+000 0.000000e+000
      endloop
   endfacet
   facet normal 0.000000e+000 0.000000e+000 -1.000000e+000
      outer loop
         vertex 1.108326e+000 4.275005e+000 0.000000e+000
         vertex 0.000000e+000 0.000000e+000 0.000000e+000
         vertex 1.108326e+000 4.777084e+000 0.000000e+000
      endloop
   endfacet
   facet normal 0.000000e+000 0.000000e+000 -1.000000e+000
      outer loop
         vertex 1.108326e+000 4.777084e+000 0.000000e+000
         vertex 0.000000e+000 0.000000e+000 0.000000e+000
         vertex 0.000000e+000 1.000000e+001 0.000000e+000
      endloop
   endfacet
   facet normal 0.000000e+000 0.000000e+000 -1.000000e+000
      outer loop
         vertex 1.108326e+000 4.777084e+000 0.000000e+000
         vertex 0.000000e+000 1.000000e+001 0.000000e+000
         vertex 1.172531e+000 5.275041e+000 0.000000e+000
      endloop
   endfacet
   facet normal 0.000000e+000 0.000000e+000 -1.000000e+000
      outer loop
         vertex 1.108326e+000 4.275005e+000 0.000000e+000
         vertex 1.172531e+000 3.777048e+000 0.000000e+000
         vertex 0.000000e+000 0.000000e+000 0.000000e+000
      endloop
   endfacet
   facet normal 0.000000e+000 0.000000e+000 -1.000000e+000
      outer loop
         vertex 0.000000e+000 0.000000e+000 0.000000e+000
         vertex 1.172531e+000 3.777048e+000 0.000000e+000
         vertex 1.299885e+000 3.291390e+000 0.000000e+000
      endloop
   endfacet
   facet normal 0.000000e+000 0.000000e+000 -1.000000e+000
      outer loop
         vertex 0.000000e+000 0.000000e+000 0.000000e+000
         vertex 1.299885e+000 3.291390e+000 0.000000e+000
         vertex 1.488299e+000 2.826005e+000 0.000000e+000
      endloop
   endfacet
   facet normal 0.000000e+000 0.000000e+000 -1.000000e+000
      outer loop
         vertex 6.604486e+000 9.432001e-001 0.000000e+000
         vertex 1.000000e+001 0.000000e+000 0.000000e+000
         vertex 6.133302e+000 7.697997e-001 0.000000e+000
      endloop
   endfacet
   facet normal 0.000000e+000 0.000000e+000 -1.000000e+000
      outer loop
         vertex 0.000000e+000 0.000000e+000 0.000000e+000
         vertex 3.665262e+000 8.489450e-001 0.000000e+000
         vertex 4.146588e+000 7.060897e-001 0.000000e+000
      endloop
   endfacet
   facet normal 0.000000e+000 0.000000e+000 -1.000000e+000
      outer loop
         vertex 4.146588e+000 7.060897e-001 0.000000e+000
         vertex 4.642231e+000 6.259579e-001 0.000000e+000
         vertex 0.000000e+000 0.000000e+000 0.000000e+000
      endloop
   endfacet
   facet normal 0.000000e+000 0.000000e+000 -1.000000e+000
      outer loop
         vertex 0.000000e+000 0.000000e+000 0.000000e+000
         vertex 4.642231e+000 6.259579e-001 0.000000e+000
         vertex 5.144052e+000 6.098655e-001 0.000000e+000
      endloop
   endfacet
   facet normal 0.000000e+000 0.000000e+000 -1.000000e+000
      outer loop
         vertex 0.000000e+000 0.000000e+000 0.000000e+000
         vertex 5.144052e+000 6.098655e-001 0.000000e+000
         vertex 1.000000e+001 0.000000e+000 0.000000e+000
      endloop
   endfacet
   facet normal 0.000000e+000 0.000000e+000 -1.000000e+000
      outer loop
         vertex 1.000000e+001 0.000000e+000 0.000000e+000
         vertex 5.144052e+000 6.098655e-001 0.000000e+000
         vertex 5.643811e+000 6.580766e-001 0.000000e+000
      endloop
   endfacet
   facet normal 0.000000e+000 0.000000e+000 -1.000000e+000
      outer loop
         vertex 1.000000e+001 0.000000e+000 0.000000e+000
         vertex 5.643811e+000 6.580766e-001 0.000000e+000
         vertex 6.133302e+000 7.697997e-001 0.000000e+000
      endloop
   endfacet
   facet normal 0.000000e+000 0.000000e+000 -1.000000e+000
      outer loop
         vertex 7.049630e+000 1.175431e+000 0.000000e+000
         vertex 7.461421e+000 1.462679e+000 0.000000e+000
         vertex 1.000000e+001 0.000000e+000 0.000000e+000
      endloop
   endfacet
   facet normal 0.000000e+000 0.000000e+000 -1.000000e+000
      outer loop
         vertex 1.000000e+001 0.000000e+000 0.000000e+000
         vertex 7.461421e+000 1.462679e+000 0.000000e+000
         vertex 7.833099e+000 1.800227e+000 0.000000e+000
      endloop
   endfacet
   facet normal 0.000000e+000 0.000000e+000 -1.000000e+000
      outer loop
         vertex 1.000000e+001 0.000000e+000 0.000000e+000
         vertex 7.833099e+000 1.800227e+000 0.000000e+000
         vertex 8.158561e+000 2.182532e+000 0.000000e+000
      endloop
   endfacet
   facet normal 0.000000e+000 0.000000e+000 -1.000000e+000
      outer loop
         vertex 8.158561e+000 2.182532e+000 0.000000e+000
         vertex 8.432462e+000 2.603319e+000 0.000000e+000
         vertex 1.000000e+001 0.000000e+000 0.000000e+000
      endloop
   endfacet
   facet normal 0.000000e+000 0.000000e+000 -1.000000e+000
      outer loop
         vertex 1.000000e+001 0.000000e+000 0.000000e+000
         vertex 8.432462e+000 2.603319e+000 0.000000e+000
         vertex 8.650306e+000 3.055676e+000 0.000000e+000
      endloop
   endfacet
   facet normal 0.000000e+000 0.000000e+000 -1.000000e+000
      outer loop
         vertex 1.000000e+001 0.000000e+000 0.000000e+000
         vertex 8.650306e+000 3.055676e+000 0.000000e+000
         vertex 8.808515e+000 3.532177e+000 0.000000e+000
      endloop
   endfacet
   facet normal 0.000000e+000 0.000000e+000 -1.000000e+000
      outer loop
         vertex 4.146588e+000 8.345999e+000 0.000000e+000
         vertex 3.665262e+000 8.203143e+000 0.000000e+000
         vertex 0.000000e+000 1.000000e+001 0.000000e+000
      endloop
   endfacet
   facet normal 0.000000e+000 0.000000e+000 -1.000000e+000
      outer loop
         vertex 0.000000e+000 1.000000e+001 0.000000e+000
         vertex 3.665262e+000 8.203143e+000 0.000000e+000
         vertex 3.206154e+000 7.999911e+000 0.000000e+000
      endloop
   endfacet
   facet normal 0.000000e+000 0.000000e+000 -1.000000e+000
      outer loop
         vertex 0.000000e+000 1.000000e+001 0.000000e+000
         vertex 3.206154e+000 7.999911e+000 0.000000e+000
         vertex 2.776805e+000 7.739636e+000 0.000000e+000
      endloop
   endfacet
   facet normal 0.000000e+000 0.000000e+000 -1.000000e+000
      outer loop
         vertex 6.133302e+000 8.282289e+000 0.000000e+000
         vertex 5.643811e+000 8.394012e+000 0.000000e+000
         vertex 1.000000e+001 1.000000e+001 0.000000e+000
      endloop
   endfacet
   facet normal 0.000000e+000 0.000000e+000 -1.000000e+000
      outer loop
         vertex 1.000000e+001 1.000000e+001 0.000000e+000
         vertex 5.643811e+000 8.394012e+000 0.000000e+000
         vertex 5.144052e+000 8.442223e+000 0.000000e+000
      endloop
   endfacet
   facet normal 0.000000e+000 0.000000e+000 -1.000000e+000
      outer loop
         vertex 1.000000e+001 1.000000e+001 0.000000e+000
         vertex 5.144052e+000 8.442223e+000 0.000000e+000
         vertex 0.000000e+000 1.000000e+001 0.000000e+000
      endloop
   endfacet
   facet normal 0.000000e+000 0.000000e+000 -1.000000e+000
      outer loop
         vertex 0.000000e+000 1.000000e+001 0.000000e+000
         vertex 5.144052e+000 8.442223e+000 0.000000e+000
         vertex 4.642231e+000 8.426130e+000 0.000000e+000
      endloop
   endfacet
   facet normal 0.000000e+000 0.000000e+000 -1.000000e+000
      outer loop
         vertex 0.000000e+000 1.000000e+001 0.000000e+000
         vertex 4.642231e+000 8.426130e+000 0.000000e+000
         vertex 4.146588e+000 8.345999e+000 0.000000e+000
      endloop
   endfacet
   facet normal 0.000000e+000 0.000000e+000 -1.000000e+000
      outer loop
         vertex 1.488299e+000 2.826005e+000 0.000000e+000
         vertex 1.734678e+000 2.388534e+000 0.000000e+000
         vertex 0.000000e+000 0.000000e+000 0.000000e+000
      endloop
   endfacet
   facet normal 0.000000e+000 0.000000e+000 -1.000000e+000
      outer loop
         vertex 0.000000e+000 0.000000e+000 0.000000e+000
         vertex 1.734678e+000 2.388534e+000 0.000000e+000
         vertex 2.034977e+000 1.986161e+000 0.000000e+000
      endloop
   endfacet
   facet normal 0.000000e+000 0.000000e+000 -1.000000e+000
      outer loop
         vertex 0.000000e+000 0.000000e+000 0.000000e+000
         vertex 2.034977e+000 1.986161e+000 0.000000e+000
         vertex 2.384264e+000 1.625493e+000 0.000000e+000
      endloop
   endfacet
   facet normal 0.000000e+000 0.000000e+000 -1.000000e+000
      outer loop
         vertex 8.808515e+000 5.519912e+000 0.000000e+000
         vertex 8.650306e+000 5.996413e+000 0.000000e+000
         vertex 1.000000e+001 1.000000e+001 0.000000e+000
      endloop
   endfacet
   facet normal 0.000000e+000 0.000000e+000 -1.000000e+000
      outer loop
         vertex 1.000000e+001 1.000000e+001 0.000000e+000
         vertex 8.650306e+000 5.996413e+000 0.000000e+000
         vertex 8.432462e+000 6.448770e+000 0.000000e+000
      endloop
   endfacet
   facet normal 0.000000e+000 0.000000e+000 -1.000000e+000
      outer loop
         vertex 8.432462e+000 6.448770e+000 0.000000e+000
         vertex 8.158561e+000 6.869556e+000 0.000000e+000
         vertex 1.000000e+001 1.000000e+001 0.000000e+000
      endloop
   endfacet
   facet normal 0.000000e+000 0.000000e+000 -1.000000e+000
      outer loop
         vertex 1.000000e+001 1.000000e+001 0.000000e+000
         vertex 8.158561e+000 6.869556e+000 0.000000e+000
         vertex 7.833099e+000 7.251862e+000 0.000000e+000
      endloop
   endfacet
   facet normal 0.000000e+000 0.000000e+000 -1.000000e+000
      outer loop
         vertex 1.000000e+001 1.000000e+001 0.000000e+000
         vertex 7.833099e+000 7.251862e+000 0.000000e+000
         vertex 7.461421e+000 7.589410e+000 0.000000e+000
      endloop
   endfacet
   facet normal 0.000000e+000 0.000000e+000 -1.000000e+000
      outer loop
         vertex 7.461421e+000 7.589410e+000 0.000000e+000
         vertex 7.049630e+000 7.876658e+000 0.000000e+000
         vertex 1.000000e+001 1.000000e+001 0.000000e+000
      endloop
   endfacet
   facet normal 0.000000e+000 0.000000e+000 -1.000000e+000
      outer loop
         vertex 1.000000e+001 1.000000e+001 0.000000e+000
         vertex 7.049630e+000 7.876658e+000 0.000000e+000
         vertex 6.604486e+000 8.108889e+000 0.000000e+000
      endloop
   endfacet
   facet normal 0.000000e+000 0.000000e+000 -1.000000e+000
      outer loop
         vertex 1.000000e+001 1.000000e+001 0.000000e+000
         vertex 6.604486e+000 8.108889e+000 0.000000e+000
         vertex 6.133302e+000 8.282289e+000 0.000000e+000
      endloop
   endfacet
   facet normal 0.000000e+000 0.000000e+000 -1.000000e+000
      outer loop
         vertex 2.776805e+000 7.739636e+000 0.000000e+000
         vertex 2.384264e+000 7.426596e+000 0.000000e+000
         vertex 0.000000e+000 1.000000e+001 0.000000e+000
      endloop
   endfacet
   facet normal 0.000000e+000 0.000000e+000 -1.000000e+000
      outer loop
         vertex 0.000000e+000 1.000000e+001 0.000000e+000
         vertex 2.384264e+000 7.426596e+000 0.000000e+000
         vertex 2.034977e+000 7.065928e+000 0.000000e+000
      endloop
   endfacet
   facet normal 0.000000e+000 0.000000e+000 -1.000000e+000
      outer loop
         vertex 0.000000e+000 1.000000e+001 0.000000e+000
         vertex 2.034977e+000 7.065928e+000 0.000000e+000
         vertex 1.734678e+000 6.663555e+000 0.000000e+000
      endloop
   endfacet
   facet normal 0.000000e+000 0.000000e+000 -1.000000e+000
      outer loop
         vertex 2.384264e+000 1.625493e+000 0.000000e+000
         vertex 2.776805e+000 1.312452e+000 0.000000e+000
         vertex 0.000000e+000 0.000000e+000 0.000000e+000
      endloop
   endfacet
   facet normal 0.000000e+000 0.000000e+000 -1.000000e+000
      outer loop
         vertex 0.000000e+000 0.000000e+000 0.000000e+000
         vertex 2.776805e+000 1.312452e+000 0.000000e+000
         vertex 3.206154e+000 1.052178e+000 0.000000e+000
      endloop
   endfacet
   facet normal 0.000000e+000 0.000000e+000 -1.000000e+000
      outer loop
         vertex 0.000000e+000 0.000000e+000 0.000000e+000
         vertex 3.206154e+000 1.052178e+000 0.000000e+000
         vertex 3.665262e+000 8.489450e-001 0.000000e+000
      endloop
   endfacet
   facet normal 0.000000e+000 0.000000e+000 -1.000000e+000
      outer loop
         vertex 8.808515e+000 3.532177e+000 0.000000e+000
         vertex 8.904491e+000 4.024997e+000 0.000000e+000
         vertex 1.000000e+001 0.000000e+000 0.000000e+000
      endloop
   endfacet
   facet normal 0.000000e+000 0.000000e+000 -1.000000e+000
      outer loop
         vertex 1.000000e+001 0.000000e+000 0.000000e+000
         vertex 8.904491e+000 4.024997e+000 0.000000e+000
         vertex 8.936661e+000 4.526044e+000 0.000000e+000
      endloop
   endfacet
   facet normal 0.000000e+000 0.000000e+000 -1.000000e+000
      outer loop
         vertex 1.000000e+001 0.000000e+000 0.000000e+000
         vertex 8.936661e+000 4.526044e+000 0.000000e+000
         vertex 1.000000e+001 1.000000e+001 0.000000e+000
      endloop
   endfacet
   facet normal 0.000000e+000 0.000000e+000 -1.000000e+000
      outer loop
         vertex 1.000000e+001 1.000000e+001 0.000000e+000
         vertex 8.936661e+000 4.526044e+000 0.000000e+000
         vertex 8.904491e+000 5.027092e+000 0.000000e+000
      endloop
   endfacet
   facet normal 0.000000e+000 0.000000e+000 -1.000000e+000
      outer loop
         vertex 1.000000e+001 1.000000e+001 0.000000e+000
         vertex 8.904491e+000 5.027092e+000 0.000000e+000
         vertex 8.808515e+000 5.519912e+000 0.000000e+000
      endloop
   endfacet
   facet normal 0.000000e+000 0.000000e+000 -1.000000e+000
      outer loop
         vertex 1.734678e+000 6.663555e+000 0.000000e+000
         vertex 1.488299e+000 6.226084e+000 0.000000e+000
         vertex 0.000000e+000 1.000000e+001 0.000000e+000
      endloop
   endfacet
   facet normal 0.000000e+000 0.000000e+000 -1.000000e+000
      outer loop
         vertex 0.000000e+000 1.000000e+001 0.000000e+000
         vertex 1.488299e+000 6.226084e+000 0.000000e+000
         vertex 1.299885e+000 5.760699e+000 0.000000e+000
      endloop
   endfacet
   facet normal 0.000000e+000 0.000000e+000 -1.000000e+000
      outer loop
         vertex 0.000000e+000 1.000000e+001 0.000000e+000
         vertex 1.299885e+000 5.760699e+000 0.000000e+000
         vertex 1.172531e+000 5.275041e+000 0.000000e+000
      endloop
   endfacet
   facet normal 0.000000e+000 1.000000e+000 0.000000e+000
      outer loop
         vertex 1.000000e+001 1.000000e+001 1.000000e+001
         vertex 1.000000e+001 1.000000e+001 0.000000e+000
         vertex 0.000000e+000 1.000000e+001 1.000000e+001
      endloop
   endfacet
   facet normal 0.000000e+000 1.000000e+000 0.000000e+000
      outer loop
         vertex 0.000000e+000 1.000000e+001 1.000000e+001
         vertex 1.000000e+001 1.000000e+001 0.000000e+000
         vertex 0.000000e+000 1.000000e+001 0.000000e+000
      endloop
   endfacet
   facet normal 0.000000e+000 -1.000000e+000 0.000000e+000
      outer loop
         vertex 1.000000e+001 0.000000e+000 0.000000e+000
         vertex 1.000000e+001 0.000000e+000 1.000000e+001
         vertex 0.000000e+000 0.000000e+000 0.000000e+000
      endloop
   endfacet
   facet normal 0.000000e+000 -1.000000e+000 0.000000e+000
      outer loop
         vertex 0.000000e+000 0.000000e+000 0.000000e+000
         vertex 1.000000e+001 0.000000e+000 1.000000e+001
         vertex 0.000000e+000 0.000000e+000 1.000000e+001
      endloop
   endfacet
   facet normal -9.990878e-001 4.270370e-002 0.000000e+000
      outer loop
         vertex 8.904491e+000 4.024997e+000 0.000000e+000
         vertex 8.936661e+000 4.526044e+000 1.000000e+001
         vertex 8.936661e+000 4.526044e+000 0.000000e+000
      endloop
   endfacet
   facet normal -9.990878e-001 -4.270370e-002 0.000000e+000
      outer loop
         vertex 8.936661e+000 4.526044e+000 0.000000e+000
         vertex 8.936661e+000 4.526044e+000 1.000000e+001
         vertex 8.904491e+000 5.027092e+000 1.000000e+001
      endloop
   endfacet
   facet normal -9.963461e-001 -8.540740e-002 0.000000e+000
      outer loop
         vertex 8.936661e+000 4.526044e+000 0.000000e+000
         vertex 8.904491e+000 5.027092e+000 1.000000e+001
         vertex 8.904491e+000 5.027092e+000 0.000000e+000
      endloop
   endfacet
   facet normal -9.854244e-001 -1.701136e-001 0.000000e+000
      outer loop
         vertex 8.904491e+000 5.027092e+000 0.000000e+000
         vertex 8.904491e+000 5.027092e+000 1.000000e+001
         vertex 8.808515e+000 5.519912e+000 1.000000e+001
      endloop
   endfacet
   facet normal -9.772444e-001 -2.121161e-001 0.000000e+000
      outer loop
         vertex 8.904491e+000 5.027092e+000 0.000000e+000
         vertex 8.808515e+000 5.519912e+000 1.000000e+001
         vertex 8.808515e+000 5.519912e+000 0.000000e+000
      endloop
   endfacet
   facet normal -9.555805e-001 -2.947302e-001 0.000000e+000
      outer loop
         vertex 8.808515e+000 5.519912e+000 0.000000e+000
         vertex 8.808515e+000 5.519912e+000 1.000000e+001
         vertex 8.650306e+000 5.996413e+000 1.000000e+001
      endloop
   endfacet
   facet normal -9.420965e-001 -3.353419e-001 0.000000e+000
      outer loop
         vertex 8.808515e+000 5.519912e+000 0.000000e+000
         vertex 8.650306e+000 5.996413e+000 1.000000e+001
         vertex 8.650306e+000 5.996413e+000 0.000000e+000
      endloop
   endfacet
   facet normal -9.100459e-001 -4.145075e-001 0.000000e+000
      outer loop
         vertex 8.650306e+000 5.996413e+000 0.000000e+000
         vertex 8.650306e+000 5.996413e+000 1.000000e+001
         vertex 8.432462e+000 6.448770e+000 1.000000e+001
      endloop
   endfacet
   facet normal -8.914793e-001 -4.530614e-001 0.000000e+000
      outer loop
         vertex 8.650306e+000 5.996413e+000 0.000000e+000
         vertex 8.432462e+000 6.448770e+000 1.000000e+001
         vertex 8.432462e+000 6.448770e+000 0.000000e+000
      endloop
   endfacet
   facet normal -8.495684e-001 -5.274785e-001 0.000000e+000
      outer loop
         vertex 8.432462e+000 6.448770e+000 0.000000e+000
         vertex 8.432462e+000 6.448770e+000 1.000000e+001
         vertex 8.158561e+000 6.869556e+000 1.000000e+001
      endloop
   endfacet
   facet normal -8.262241e-001 -5.633416e-001 0.000000e+000
      outer loop
         vertex 8.432462e+000 6.448770e+000 0.000000e+000
         vertex 8.158561e+000 6.869556e+000 1.000000e+001
         vertex 8.158561e+000 6.869556e+000 0.000000e+000
      endloop
   endfacet
   facet normal -7.751410e-001 -6.317883e-001 0.000000e+000
      outer loop
         vertex 8.158561e+000 6.869556e+000 0.000000e+000
         vertex 8.158561e+000 6.869556e+000 1.000000e+001
         vertex 7.833099e+000 7.251862e+000 1.000000e+001
      endloop
   endfacet
   facet normal -7.474023e-001 -6.643717e-001 0.000000e+000
      outer loop
         vertex 8.158561e+000 6.869556e+000 0.000000e+000
         vertex 7.833099e+000 7.251862e+000 1.000000e+001
         vertex 7.833099e+000 7.251862e+000 0.000000e+000
      endloop
   endfacet
   facet normal -6.879858e-001 -7.257241e-001 0.000000e+000
      outer loop
         vertex 7.833099e+000 7.251862e+000 0.000000e+000
         vertex 7.833099e+000 7.251862e+000 1.000000e+001
         vertex 7.461421e+000 7.589410e+000 1.000000e+001
      endloop
   endfacet
   facet normal -6.563081e-001 -7.544929e-001 0.000000e+000
      outer loop
         vertex 7.833099e+000 7.251862e+000 0.000000e+000
         vertex 7.461421e+000 7.589410e+000 1.000000e+001
         vertex 7.461421e+000 7.589410e+000 0.000000e+000
      endloop
   endfacet
   facet normal -5.895339e-001 -8.077436e-001 0.000000e+000
      outer loop
         vertex 7.461421e+000 7.589410e+000 0.000000e+000
         vertex 7.461421e+000 7.589410e+000 1.000000e+001
         vertex 7.049630e+000 7.876658e+000 1.000000e+001
      endloop
   endfacet
   facet normal -5.544375e-001 -8.322254e-001 0.000000e+000
      outer loop
         vertex 7.461421e+000 7.589410e+000 0.000000e+000
         vertex 7.049630e+000 7.876658e+000 1.000000e+001
         vertex 7.049630e+000 7.876658e+000 0.000000e+000
      endloop
   endfacet
   facet normal -4.814019e-001 -8.765000e-001 0.000000e+000
      outer loop
         vertex 7.049630e+000 7.876658e+000 0.000000e+000
         vertex 7.049630e+000 7.876658e+000 1.000000e+001
         vertex 6.604486e+000 8.108889e+000 1.000000e+001
      endloop
   endfacet
   facet normal -4.434629e-001 -8.962927e-001 0.000000e+000
      outer loop
         vertex 7.049630e+000 7.876658e+000 0.000000e+000
         vertex 6.604486e+000 8.108889e+000 1.000000e+001
         vertex 6.604486e+000 8.108889e+000 0.000000e+000
      endloop
   endfacet
   facet normal -3.653653e-001 -9.308642e-001 0.000000e+000
      outer loop
         vertex 6.604486e+000 8.108889e+000 0.000000e+000
         vertex 6.604486e+000 8.108889e+000 1.000000e+001
         vertex 6.133302e+000 8.282289e+000 1.000000e+001
      endloop
   endfacet
   facet normal -3.252067e-001 -9.456429e-001 0.000000e+000
      outer loop
         vertex 6.604486e+000 8.108889e+000 0.000000e+000
         vertex 6.133302e+000 8.282289e+000 1.000000e+001
         vertex 6.133302e+000 8.282289e+000 0.000000e+000
      endloop
   endfacet
   facet normal -2.433294e-001 -9.699437e-001 0.000000e+000
      outer loop
         vertex 6.133302e+000 8.282289e+000 0.000000e+000
         vertex 6.133302e+000 8.282289e+000 1.000000e+001
         vertex 5.643811e+000 8.394012e+000 1.000000e+001
      endloop
   endfacet
   facet normal -2.016106e-001 -9.794657e-001 0.000000e+000
      outer loop
         vertex 6.133302e+000 8.282289e+000 0.000000e+000
         vertex 5.643811e+000 8.394012e+000 1.000000e+001
         vertex 5.643811e+000 8.394012e+000 0.000000e+000
      endloop
   endfacet
   facet normal -1.172980e-001 -9.930968e-001 0.000000e+000
      outer loop
         vertex 5.643811e+000 8.394012e+000 0.000000e+000
         vertex 5.643811e+000 8.394012e+000 1.000000e+001
         vertex 5.144052e+000 8.442223e+000 1.000000e+001
      endloop
   endfacet
   facet normal -7.470410e-002 -9.972057e-001 0.000000e+000
      outer loop
         vertex 5.643811e+000 8.394012e+000 0.000000e+000
         vertex 5.144052e+000 8.442223e+000 1.000000e+001
         vertex 5.144052e+000 8.442223e+000 0.000000e+000
      endloop
   endfacet
   facet normal 1.065942e-002 -9.999432e-001 0.000000e+000
      outer loop
         vertex 5.144052e+000 8.442223e+000 0.000000e+000
         vertex 5.144052e+000 8.442223e+000 1.000000e+001
         vertex 4.642231e+000 8.426130e+000 1.000000e+001
      endloop
   endfacet
   facet normal 5.342906e-002 -9.985716e-001 0.000000e+000
      outer loop
         vertex 5.144052e+000 8.442223e+000 0.000000e+000
         vertex 4.642231e+000 8.426130e+000 1.000000e+001
         vertex 4.642231e+000 8.426130e+000 0.000000e+000
      endloop
   endfacet
   facet normal 1.384418e-001 -9.903706e-001 0.000000e+000
      outer loop
         vertex 4.642231e+000 8.426130e+000 0.000000e+000
         vertex 4.642231e+000 8.426130e+000 1.000000e+001
         vertex 4.146588e+000 8.345999e+000 1.000000e+001
      endloop
   endfacet
   facet normal 1.806849e-001 -9.835410e-001 0.000000e+000
      outer loop
         vertex 4.642231e+000 8.426130e+000 0.000000e+000
         vertex 4.146588e+000 8.345999e+000 1.000000e+001
         vertex 4.146588e+000 8.345999e+000 0.000000e+000
      endloop
   endfacet
   facet normal 2.639510e-001 -9.645361e-001 0.000000e+000
      outer loop
         vertex 4.146588e+000 8.345999e+000 0.000000e+000
         vertex 4.146588e+000 8.345999e+000 1.000000e+001
         vertex 3.665262e+000 8.203143e+000 1.000000e+001
      endloop
   endfacet
   facet normal 3.049739e-001 -9.523607e-001 0.000000e+000
      outer loop
         vertex 4.146588e+000 8.345999e+000 0.000000e+000
         vertex 3.665262e+000 8.203143e+000 1.000000e+001
         vertex 3.665262e+000 8.203143e+000 0.000000e+000
      endloop
   endfacet
   facet normal 3.851261e-001 -9.228640e-001 0.000000e+000
      outer loop
         vertex 3.665262e+000 8.203143e+000 0.000000e+000
         vertex 3.665262e+000 8.203143e+000 1.000000e+001
         vertex 3.206154e+000 7.999911e+000 1.000000e+001
      endloop
   endfacet
   facet normal 4.242553e-001 -9.055426e-001 0.000000e+000
      outer loop
         vertex 3.665262e+000 8.203143e+000 0.000000e+000
         vertex 3.206154e+000 7.999911e+000 1.000000e+001
         vertex 3.206154e+000 7.999911e+000 0.000000e+000
      endloop
   endfacet
   facet normal 4.999774e-001 -8.660384e-001 0.000000e+000
      outer loop
         vertex 3.206154e+000 7.999911e+000 0.000000e+000
         vertex 3.206154e+000 7.999911e+000 1.000000e+001
         vertex 2.776805e+000 7.739636e+000 1.000000e+001
      endloop
   endfacet
   facet normal 5.365704e-001 -8.438556e-001 0.000000e+000
      outer loop
         vertex 3.206154e+000 7.999911e+000 0.000000e+000
         vertex 2.776805e+000 7.739636e+000 1.000000e+001
         vertex 2.776805e+000 7.739636e+000 0.000000e+000
      endloop
   endfacet
   facet normal 6.066192e-001 -7.949925e-001 0.000000e+000
      outer loop
         vertex 2.776805e+000 7.739636e+000 0.000000e+000
         vertex 2.776805e+000 7.739636e+000 1.000000e+001
         vertex 2.384264e+000 7.426596e+000 1.000000e+001
      endloop
   endfacet
   facet normal 6.400750e-001 -7.683124e-001 0.000000e+000
      outer loop
         vertex 2.776805e+000 7.739636e+000 0.000000e+000
         vertex 2.384264e+000 7.426596e+000 1.000000e+001
         vertex 2.384264e+000 7.426596e+000 0.000000e+000
      endloop
   endfacet
   facet normal 7.033002e-001 -7.108930e-001 0.000000e+000
      outer loop
         vertex 2.384264e+000 7.426596e+000 0.000000e+000
         vertex 2.384264e+000 7.426596e+000 1.000000e+001
         vertex 2.034977e+000 7.065928e+000 1.000000e+001
      endloop
   endfacet
   facet normal 7.330695e-001 -6.801536e-001 0.000000e+000
      outer loop
         vertex 2.384264e+000 7.426596e+000 0.000000e+000
         vertex 2.034977e+000 7.065928e+000 1.000000e+001
         vertex 2.034977e+000 7.065928e+000 0.000000e+000
      endloop
   endfacet
   facet normal 7.884331e-001 -6.151205e-001 0.000000e+000
      outer loop
         vertex 2.034977e+000 7.065928e+000 0.000000e+000
         vertex 2.034977e+000 7.065928e+000 1.000000e+001
         vertex 1.734678e+000 6.663555e+000 1.000000e+001
      endloop
   endfacet
   facet normal 8.140272e-001 -5.808267e-001 0.000000e+000
      outer loop
         vertex 2.034977e+000 7.065928e+000 0.000000e+000
         vertex 1.734678e+000 6.663555e+000 1.000000e+001
         vertex 1.734678e+000 6.663555e+000 0.000000e+000
      endloop
   endfacet
   facet normal 8.606199e-001 -5.092478e-001 0.000000e+000
      outer loop
         vertex 1.734678e+000 6.663555e+000 0.000000e+000
         vertex 1.734678e+000 6.663555e+000 1.000000e+001
         vertex 1.488299e+000 6.226084e+000 1.000000e+001
      endloop
   endfacet
   facet normal 8.816185e-001 -4.719626e-001 0.000000e+000
      outer loop
         vertex 1.734678e+000 6.663555e+000 0.000000e+000
         vertex 1.488299e+000 6.226084e+000 1.000000e+001
         vertex 1.488299e+000 6.226084e+000 0.000000e+000
      endloop
   endfacet
   facet normal 9.186754e-001 -3.950132e-001 0.000000e+000
      outer loop
         vertex 1.488299e+000 6.226084e+000 0.000000e+000
         vertex 1.488299e+000 6.226084e+000 1.000000e+001
         vertex 1.299885e+000 5.760699e+000 1.000000e+001
      endloop
   endfacet
   facet normal 9.347337e-001 -3.553490e-001 0.000000e+000
      outer loop
         vertex 1.488299e+000 6.226084e+000 0.000000e+000
         vertex 1.299885e+000 5.760699e+000 1.000000e+001
         vertex 1.299885e+000 5.760699e+000 0.000000e+000
      endloop
   endfacet
   facet normal 9.616463e-001 -2.742926e-001 0.000000e+000
      outer loop
         vertex 1.299885e+000 5.760699e+000 0.000000e+000
         vertex 1.299885e+000 5.760699e+000 1.000000e+001
         vertex 1.172531e+000 5.275041e+000 1.000000e+001
      endloop
   endfacet
   facet normal 9.725006e-001 -2.329004e-001 0.000000e+000
      outer loop
         vertex 1.299885e+000 5.760699e+000 0.000000e+000
         vertex 1.172531e+000 5.275041e+000 1.000000e+001
         vertex 1.172531e+000 5.275041e+000 0.000000e+000
      endloop
   endfacet
   facet normal 9.888269e-001 -1.490680e-001 0.000000e+000
      outer loop
         vertex 1.172531e+000 5.275041e+000 0.000000e+000
         vertex 1.172531e+000 5.275041e+000 1.000000e+001
         vertex 1.108326e+000 4.777084e+000 1.000000e+001
      endloop
   endfacet
   facet normal 9.942990e-001 -1.066277e-001 0.000000e+000
      outer loop
         vertex 1.172531e+000 5.275041e+000 0.000000e+000
         vertex 1.108326e+000 4.777084e+000 1.000000e+001
         vertex 1.108326e+000 4.777084e+000 0.000000e+000
      endloop
   endfacet
   facet normal 9.997711e-001 -2.139581e-002 0.000000e+000
      outer loop
         vertex 1.108326e+000 4.777084e+000 0.000000e+000
         vertex 1.108326e+000 4.777084e+000 1.000000e+001
         vertex 1.108326e+000 4.275005e+000 1.000000e+001
      endloop
   endfacet
   facet normal 9.997711e-001 2.139581e-002 0.000000e+000
      outer loop
         vertex 1.108326e+000 4.777084e+000 0.000000e+000
         vertex 1.108326e+000 4.275005e+000 1.000000e+001
         vertex 1.108326e+000 4.275005e+000 0.000000e+000
      endloop
   endfacet
   facet normal 9.942990e-001 1.066277e-001 0.000000e+000
      outer loop
         vertex 1.108326e+000 4.275005e+000 0.000000e+000
         vertex 1.108326e+000 4.275005e+000 1.000000e+001
         vertex 1.172531e+000 3.777048e+000 1.000000e+001
      endloop
   endfacet
   facet normal 9.888269e-001 1.490680e-001 0.000000e+000
      outer loop
         vertex 1.108326e+000 4.275005e+000 0.000000e+000
         vertex 1.172531e+000 3.777048e+000 1.000000e+001
         vertex 1.172531e+000 3.777048e+000 0.000000e+000
      endloop
   endfacet
   facet normal 9.725005e-001 2.329005e-001 0.000000e+000
      outer loop
         vertex 1.172531e+000 3.777048e+000 0.000000e+000
         vertex 1.172531e+000 3.777048e+000 1.000000e+001
         vertex 1.299885e+000 3.291390e+000 1.000000e+001
      endloop
   endfacet
   facet normal 9.616463e-001 2.742926e-001 0.000000e+000
      outer loop
         vertex 1.172531e+000 3.777048e+000 0.000000e+000
         vertex 1.299885e+000 3.291390e+000 1.000000e+001
         vertex 1.299885e+000 3.291390e+000 0.000000e+000
      endloop
   endfacet
   facet normal 9.347337e-001 3.553490e-001 0.000000e+000
      outer loop
         vertex 1.299885e+000 3.291390e+000 0.000000e+000
         vertex 1.299885e+000 3.291390e+000 1.000000e+001
         vertex 1.488299e+000 2.826005e+000 1.000000e+001
      endloop
   endfacet
   facet normal 9.186754e-001 3.950132e-001 0.000000e+000
      outer loop
         vertex 1.299885e+000 3.291390e+000 0.000000e+000
         vertex 1.488299e+000 2.826005e+000 1.000000e+001
         vertex 1.488299e+000 2.826005e+000 0.000000e+000
      endloop
   endfacet
   facet normal 8.816185e-001 4.719626e-001 0.000000e+000
      outer loop
         vertex 1.488299e+000 2.826005e+000 0.000000e+000
         vertex 1.488299e+000 2.826005e+000 1.000000e+001
         vertex 1.734678e+000 2.388534e+000 1.000000e+001
      endloop
   endfacet
   facet normal 8.606199e-001 5.092478e-001 0.000000e+000
      outer loop
         vertex 1.488299e+000 2.826005e+000 0.000000e+000
         vertex 1.734678e+000 2.388534e+000 1.000000e+001
         vertex 1.734678e+000 2.388534e+000 0.000000e+000
      endloop
   endfacet
   facet normal 8.140272e-001 5.808268e-001 0.000000e+000
      outer loop
         vertex 1.734678e+000 2.388534e+000 0.000000e+000
         vertex 1.734678e+000 2.388534e+000 1.000000e+001
         vertex 2.034977e+000 1.986161e+000 1.000000e+001
      endloop
   endfacet
   facet normal 7.884331e-001 6.151205e-001 0.000000e+000
      outer loop
         vertex 1.734678e+000 2.388534e+000 0.000000e+000
         vertex 2.034977e+000 1.986161e+000 1.000000e+001
         vertex 2.034977e+000 1.986161e+000 0.000000e+000
      endloop
   endfacet
   facet normal 7.330695e-001 6.801536e-001 0.000000e+000
      outer loop
         vertex 2.034977e+000 1.986161e+000 0.000000e+000
         vertex 2.034977e+000 1.986161e+000 1.000000e+001
         vertex 2.384264e+000 1.625493e+000 1.000000e+001
      endloop
   endfacet
   facet normal 7.033002e-001 7.108930e-001 0.000000e+000
      outer loop
         vertex 2.034977e+000 1.986161e+000 0.000000e+000
         vertex 2.384264e+000 1.625493e+000 1.000000e+001
         vertex 2.384264e+000 1.625493e+000 0.000000e+000
      endloop
   endfacet
   facet normal 6.400750e-001 7.683124e-001 0.000000e+000
      outer loop
         vertex 2.384264e+000 1.625493e+000 0.000000e+000
         vertex 2.384264e+000 1.625493e+000 1.000000e+001
         vertex 2.776805e+000 1.312452e+000 1.000000e+001
      endloop
   endfacet
   facet normal 6.066191e-001 7.949926e-001 0.000000e+000
      outer loop
         vertex 2.384264e+000 1.625493e+000 0.000000e+000
         vertex 2.776805e+000 1.312452e+000 1.000000e+001
         vertex 2.776805e+000 1.312452e+000 0.000000e+000
      endloop
   endfacet
   facet normal 5.365704e-001 8.438555e-001 0.000000e+000
      outer loop
         vertex 2.776805e+000 1.312452e+000 0.000000e+000
         vertex 2.776805e+000 1.312452e+000 1.000000e+001
         vertex 3.206154e+000 1.052178e+000 1.000000e+001
      endloop
   endfacet
   facet normal 4.999774e-001 8.660384e-001 0.000000e+000
      outer loop
         vertex 2.776805e+000 1.312452e+000 0.000000e+000
         vertex 3.206154e+000 1.052178e+000 1.000000e+001
         vertex 3.206154e+000 1.052178e+000 0.000000e+000
      endloop
   endfacet
   facet normal 4.242553e-001 9.055426e-001 0.000000e+000
      outer loop
         vertex 3.206154e+000 1.052178e+000 0.000000e+000
         vertex 3.206154e+000 1.052178e+000 1.000000e+001
         vertex 3.665262e+000 8.489450e-001 1.000000e+001
      endloop
   endfacet
   facet normal 3.851260e-001 9.228640e-001 0.000000e+000
      outer loop
         vertex 3.206154e+000 1.052178e+000 0.000000e+000
         vertex 3.665262e+000 8.489450e-001 1.000000e+001
         vertex 3.665262e+000 8.489450e-001 0.000000e+000
      endloop
   endfacet
   facet normal 3.049739e-001 9.523607e-001 0.000000e+000
      outer loop
         vertex 3.665262e+000 8.489450e-001 0.000000e+000
         vertex 3.665262e+000 8.489450e-001 1.000000e+001
         vertex 4.146588e+000 7.060897e-001 1.000000e+001
      endloop
   endfacet
   facet normal 2.639510e-001 9.645361e-001 0.000000e+000
      outer loop
         vertex 3.665262e+000 8.489450e-001 0.000000e+000
         vertex 4.146588e+000 7.060897e-001 1.000000e+001
         vertex 4.146588e+000 7.060897e-001 0.000000e+000
      endloop
   endfacet
   facet normal 1.806849e-001 9.835410e-001 0.000000e+000
      outer loop
         vertex 4.146588e+000 7.060897e-001 0.000000e+000
         vertex 4.146588e+000 7.060897e-001 1.000000e+001
         vertex 4.642231e+000 6.259579e-001 1.000000e+001
      endloop
   endfacet
   facet normal 1.384418e-001 9.903706e-001 0.000000e+000
      outer loop
         vertex 4.146588e+000 7.060897e-001 0.000000e+000
         vertex 4.642231e+000 6.259579e-001 1.000000e+001
         vertex 4.642231e+000 6.259579e-001 0.000000e+000
      endloop
   endfacet
   facet normal 5.342906e-002 9.985716e-001 0.000000e+000
      outer loop
         vertex 4.642231e+000 6.259579e-001 0.000000e+000
         vertex 4.642231e+000 6.259579e-001 1.000000e+001
         vertex 5.144052e+000 6.098655e-001 1.000000e+001
      endloop
   endfacet
   facet normal 1.065942e-002 9.999432e-001 0.000000e+000
      outer loop
         vertex 4.642231e+000 6.259579e-001 0.000000e+000
         vertex 5.144052e+000 6.098655e-001 1.000000e+001
         vertex 5.144052e+000 6.098655e-001 0.000000e+000
      endloop
   endfacet
   facet normal -7.470410e-002 9.972057e-001 0.000000e+000
      outer loop
         vertex 5.144052e+000 6.098655e-001 0.000000e+000
         vertex 5.144052e+000 6.098655e-001 1.000000e+001
         vertex 5.643811e+000 6.580766e-001 1.000000e+001
      endloop
   endfacet
   facet normal -1.172980e-001 9.930968e-001 0.000000e+000
      outer loop
         vertex 5.144052e+000 6.098655e-001 0.000000e+000
         vertex 5.643811e+000 6.580766e-001 1.000000e+001
         vertex 5.643811e+000 6.580766e-001 0.000000e+000
      endloop
   endfacet
   facet normal -2.016106e-001 9.794657e-001 0.000000e+000
      outer loop
         vertex 5.643811e+000 6.580766e-001 0.000000e+000
         vertex 5.643811e+000 6.580766e-001 1.000000e+001
         vertex 6.133302e+000 7.697997e-001 1.000000e+001
      endloop
   endfacet
   facet normal -2.433294e-001 9.699437e-001 0.000000e+000
      outer loop
         vertex 5.643811e+000 6.580766e-001 0.000000e+000
         vertex 6.133302e+000 7.697997e-001 1.000000e+001
         vertex 6.133302e+000 7.697997e-001 0.000000e+000
      endloop
   endfacet
   facet normal -3.252067e-001 9.456429e-001 0.000000e+000
      outer loop
         vertex 6.133302e+000 7.697997e-001 0.000000e+000
         vertex 6.133302e+000 7.697997e-001 1.000000e+001
         vertex 6.604486e+000 9.432001e-001 1.000000e+001
      endloop
   endfacet
   facet normal -3.653653e-001 9.308642e-001 0.000000e+000
      outer loop
         vertex 6.133302e+000 7.697997e-001 0.000000e+000
         vertex 6.604486e+000 9.432001e-001 1.000000e+001
         vertex 6.604486e+000 9.432001e-001 0.000000e+000
      endloop
   endfacet
   facet normal -4.434629e-001 8.962927e-001 0.000000e+000
      outer loop
         vertex 6.604486e+000 9.432001e-001 0.000000e+000
         vertex 6.604486e+000 9.432001e-001 1.000000e+001
         vertex 7.049630e+000 1.175431e+000 1.000000e+001
      endloop
   endfacet
   facet normal -4.814019e-001 8.765000e-001 0.000000e+000
      outer loop
         vertex 6.604486e+000 9.432001e-001 0.000000e+000
         vertex 7.049630e+000 1.175431e+000 1.000000e+001
         vertex 7.049630e+000 1.175431e+000 0.000000e+000
      endloop
   endfacet
   facet normal -5.544375e-001 8.322254e-001 0.000000e+000
      outer loop
         vertex 7.049630e+000 1.175431e+000 0.000000e+000
         vertex 7.049630e+000 1.175431e+000 1.000000e+001
         vertex 7.461421e+000 1.462679e+000 1.000000e+001
      endloop
   endfacet
   facet normal -5.895339e-001 8.077436e-001 0.000000e+000
      outer loop
         vertex 7.049630e+000 1.175431e+000 0.000000e+000
         vertex 7.461421e+000 1.462679e+000 1.000000e+001
         vertex 7.461421e+000 1.462679e+000 0.000000e+000
      endloop
   endfacet
   facet normal -6.563081e-001 7.544929e-001 0.000000e+000
      outer loop
         vertex 7.461421e+000 1.462679e+000 0.000000e+000
         vertex 7.461421e+000 1.462679e+000 1.000000e+001
         vertex 7.833099e+000 1.800227e+000 1.000000e+001
      endloop
   endfacet
   facet normal -6.879858e-001 7.257242e-001 0.000000e+000
      outer loop
         vertex 7.461421e+000 1.462679e+000 0.000000e+000
         vertex 7.833099e+000 1.800227e+000 1.000000e+001
         vertex 7.833099e+000 1.800227e+000 0.000000e+000
      endloop
   endfacet
   facet normal -7.474023e-001 6.643717e-001 0.000000e+000
      outer loop
         vertex 7.833099e+000 1.800227e+000 0.000000e+000
         vertex 7.833099e+000 1.800227e+000 1.000000e+001
         vertex 8.158561e+000 2.182532e+000 1.000000e+001
      endloop
   endfacet
   facet normal -7.751410e-001 6.317883e-001 0.000000e+000
      outer loop
         vertex 7.833099e+000 1.800227e+000 0.000000e+000
         vertex 8.158561e+000 2.182532e+000 1.000000e+001
         vertex 8.158561e+000 2.182532e+000 0.000000e+000
      endloop
   endfacet
   facet normal -8.262241e-001 5.633416e-001 0.000000e+000
      outer loop
         vertex 8.158561e+000 2.182532e+000 0.000000e+000
         vertex 8.158561e+000 2.182532e+000 1.000000e+001
         vertex 8.432462e+000 2.603319e+000 1.000000e+001
      endloop
   endfacet
   facet normal -8.495684e-001 5.274784e-001 0.000000e+000
      outer loop
         vertex 8.158561e+000 2.182532e+000 0.000000e+000
         vertex 8.432462e+000 2.603319e+000 1.000000e+001
         vertex 8.432462e+000 2.603319e+000 0.000000e+000
      endloop
   endfacet
   facet normal -8.914793e-001 4.530614e-001 0.000000e+000
      outer loop
         vertex 8.432462e+000 2.603319e+000 0.000000e+000
         vertex 8.432462e+000 2.603319e+000 1.000000e+001
         vertex 8.650306e+000 3.055676e+000 1.000000e+001
      endloop
   endfacet
   facet normal -9.100459e-001 4.145075e-001 0.000000e+000
      outer loop
         vertex 8.432462e+000 2.603319e+000 0.000000e+000
         vertex 8.650306e+000 3.055676e+000 1.000000e+001
         vertex 8.650306e+000 3.055676e+000 0.000000e+000
      endloop
   endfacet
   facet normal -9.420965e-001 3.353419e-001 0.000000e+000
      outer loop
         vertex 8.650306e+000 3.055676e+000 0.000000e+000
         vertex 8.650306e+000 3.055676e+000 1.000000e+001
         vertex 8.808515e+000 3.532177e+000 1.000000e+001
      endloop
   endfacet
   facet normal -9.555805e-001 2.947302e-001 0.000000e+000
      outer loop
         vertex 8.650306e+000 3.055676e+000 0.000000e+000
         vertex 8.808515e+000 3.532177e+000 1.000000e+001
         vertex 8.808515e+000 3.532177e+000 0.000000e+000
      endloop
   endfacet
   facet normal -9.772444e-001 2.121161e-001 0.000000e+000
      outer loop
         vertex 8.808515e+000 3.532177e+000 0.000000e+000
         vertex 8.808515e+000 3.532177e+000 1.000000e+001
         vertex 8.904491e+000 4.024997e+000 1.000000e+001
      endloop
   endfacet
   facet normal -9.854244e-001 1.701136e-001 0.000000e+000
      outer loop
         vertex 8.808515e+000 3.532177e+000 0.000000e+000
         vertex 8.904491e+000 4.024997e+000 1.000000e+001
         vertex 8.904491e+000 4.024997e+000 0.000000e+000
      endloop
   endfacet
   facet normal -9.963461e-001 8.540740e-002 0.000000e+000
      outer loop
         vertex 8.904491e+000 4.024997e+000 0.000000e+000
         vertex 8.904491e+000 4.024997e+000 1.000000e+001
         vertex 8.936661e+000 4.526044e+000 1.000000e+001
      endloop
   endfacet
endsolid