solid 19_85
   facet normal -1.000000e+000 0.000000e+000 0.000000e+000
      outer loop
         vertex 0.000000e+000 1.000000e+001 1.000000e+001
         vertex 0.000000e+000 1.000000e+001 0.000000e+000
         vertex 0.000000e+000 0.000000e+000 1.000000e+001
      endloop
   endfacet
   facet normal -1.000000e+000 0.000000e+000 0.000000e+000
      outer loop
         vertex 0.000000e+000 0.000000e+000 1.000000e+001
         vertex 0.000000e+000 1.000000e+001 0.000000e+000
         vertex 0.000000e+000 0.000000e+000 0.000000e+000
      endloop
   endfacet
   facet normal 0.000000e+000 0.000000e+000 1.000000e+000
      outer loop
         vertex 3.764730e+000 1.000000e+001 1.000000e+001
         vertex 0.000000e+000 1.000000e+001 1.000000e+001
         vertex 3.764730e+000 0.000000e+000 1.000000e+001
      endloop
   endfacet
   facet normal 0.000000e+000 0.000000e+000 1.000000e+000
      outer loop
         vertex 3.764730e+000 0.000000e+000 1.000000e+001
         vertex 0.000000e+000 1.000000e+001 1.000000e+001
         vertex 0.000000e+000 0.000000e+000 1.000000e+001
      endloop
   endfacet
   facet normal 1.000000e+000 0.000000e+000 0.000000e+000
      outer loop
         vertex 1.000000e+001 0.000000e+000 3.764730e+000
         vertex 1.000000e+001 0.000000e+000 0.000000e+000
         vertex 1.000000e+001 1.000000e+001 3.764730e+000
      endloop
   endfacet
   facet normal 1.000000e+000 0.000000e+000 0.000000e+000
      outer loop
         vertex 1.000000e+001 1.000000e+001 3.764730e+000
         vertex 1.000000e+001 0.000000e+000 0.000000e+000
         vertex 1.000000e+001 1.000000e+001 0.000000e+000
      endloop
   endfacet
   facet normal 0.000000e+000 0.000000e+000 -1.000000e+000
      outer loop
         vertex 0.000000e+000 1.000000e+001 0.000000e+000
         vertex 1.000000e+001 1.000000e+001 0.000000e+000
         vertex 0.000000e+000 0.000000e+000 0.000000e+000
      endloop
   endfacet
   facet normal 0.000000e+000 0.000000e+000 -1.000000e+000
      outer loop
         vertex 0.000000e+000 0.000000e+000 0.000000e+000
         vertex 1.000000e+001 1.000000e+001 0.000000e+000
         vertex 1.000000e+001 0.000000e+000 0.000000e+000
      endloop
   endfacet
   facet normal 0.000000e+000 1.000000e+000 0.000000e+000
      outer loop
         vertex 1.000000e+001 1.000000e+001 3.764730e+000
         vertex 1.000000e+001 1.000000e+001 0.000000e+000
         vertex 0.000000e+000 1.000000e+001 0.000000e+000
      endloop
   endfacet
   facet normal 0.000000e+000 1.000000e+000 0.000000e+000
      outer loop
         vertex 1.000000e+001 1.000000e+001 3.764730e+000
         vertex 0.000000e+000 1.000000e+001 0.000000e+000
         vertex 9.969975e+000 1.000000e+001 4.375893e+000
      endloop
   endfacet
   facet normal 0.000000e+000 1.000000e+000 0.000000e+000
      outer loop
         vertex 0.000000e+000 1.000000e+001 1.000000e+001
         vertex 3.764730e+000 1.000000e+001 1.000000e+001
         vertex 0.000000e+000 1.000000e+001 0.000000e+000
      endloop
   endfacet
   facet normal 0.000000e+000 1.000000e+000 0.000000e+000
      outer loop
         vertex 0.000000e+000 1.000000e+001 0.000000e+000
         vertex 3.764730e+000 1.000000e+001 1.000000e+001
         vertex 4.375893e+000 1.000000e+001 9.969975e+000
      endloop
   endfacet
   facet normal 0.000000e+000 1.000000e+000 0.000000e+000
      outer loop
         vertex 8.949167e+000 1.000000e+001 7.228860e+000
         vertex 9.263747e+000 1.000000e+001 6.704016e+000
         vertex 0.000000e+000 1.000000e+001 0.000000e+000
      endloop
   endfacet
   facet normal 0.000000e+000 1.000000e+000 0.000000e+000
      outer loop
         vertex 0.000000e+000 1.000000e+001 0.000000e+000
         vertex 9.263747e+000 1.000000e+001 6.704016e+000
         vertex 9.525368e+000 1.000000e+001 6.150864e+000
      endloop
   endfacet
   facet normal 0.000000e+000 1.000000e+000 0.000000e+000
      outer loop
         vertex 9.525368e+000 1.000000e+001 6.150864e+000
         vertex 9.731511e+000 1.000000e+001 5.574733e+000
         vertex 0.000000e+000 1.000000e+001 0.000000e+000
      endloop
   endfacet
   facet normal 0.000000e+000 1.000000e+000 0.000000e+000
      outer loop
         vertex 0.000000e+000 1.000000e+001 0.000000e+000
         vertex 9.731511e+000 1.000000e+001 5.574733e+000
         vertex 9.880191e+000 1.000000e+001 4.981170e+000
      endloop
   endfacet
   facet normal 0.000000e+000 1.000000e+000 0.000000e+000
      outer loop
         vertex 0.000000e+000 1.000000e+001 0.000000e+000
         vertex 9.880191e+000 1.000000e+001 4.981170e+000
         vertex 9.969975e+000 1.000000e+001 4.375893e+000
      endloop
   endfacet
   facet normal 0.000000e+000 1.000000e+000 0.000000e+000
      outer loop
         vertex 4.375893e+000 1.000000e+001 9.969975e+000
         vertex 4.981171e+000 1.000000e+001 9.880191e+000
         vertex 0.000000e+000 1.000000e+001 0.000000e+000
      endloop
   endfacet
   facet normal 0.000000e+000 1.000000e+000 0.000000e+000
      outer loop
         vertex 0.000000e+000 1.000000e+001 0.000000e+000
         vertex 4.981171e+000 1.000000e+001 9.880191e+000
         vertex 5.574733e+000 1.000000e+001 9.731511e+000
      endloop
   endfacet
   facet normal 0.000000e+000 1.000000e+000 0.000000e+000
      outer loop
         vertex 0.000000e+000 1.000000e+001 0.000000e+000
         vertex 5.574733e+000 1.000000e+001 9.731511e+000
         vertex 6.150865e+000 1.000000e+001 9.525368e+000
      endloop
   endfacet
   facet normal 0.000000e+000 1.000000e+000 0.000000e+000
      outer loop
         vertex 6.150865e+000 1.000000e+001 9.525368e+000
         vertex 6.704016e+000 1.000000e+001 9.263747e+000
         vertex 0.000000e+000 1.000000e+001 0.000000e+000
      endloop
   endfacet
   facet normal 0.000000e+000 1.000000e+000 0.000000e+000
      outer loop
         vertex 0.000000e+000 1.000000e+001 0.000000e+000
         vertex 6.704016e+000 1.000000e+001 9.263747e+000
         vertex 7.228860e+000 1.000000e+001 8.949167e+000
      endloop
   endfacet
   facet normal 0.000000e+000 1.000000e+000 0.000000e+000
      outer loop
         vertex 0.000000e+000 1.000000e+001 0.000000e+000
         vertex 7.228860e+000 1.000000e+001 8.949167e+000
         vertex 7.720343e+000 1.000000e+001 8.584659e+000
      endloop
   endfacet
   facet normal 0.000000e+000 1.000000e+000 0.000000e+000
      outer loop
         vertex 7.720343e+000 1.000000e+001 8.584659e+000
         vertex 8.173732e+000 1.000000e+001 8.173731e+000
         vertex 0.000000e+000 1.000000e+001 0.000000e+000
      endloop
   endfacet
   facet normal 0.000000e+000 1.000000e+000 0.000000e+000
      outer loop
         vertex 0.000000e+000 1.000000e+001 0.000000e+000
         vertex 8.173732e+000 1.000000e+001 8.173731e+000
         vertex 8.584659e+000 1.000000e+001 7.720343e+000
      endloop
   endfacet
   facet normal 0.000000e+000 1.000000e+000 0.000000e+000
      outer loop
         vertex 0.000000e+000 1.000000e+001 0.000000e+000
         vertex 8.584659e+000 1.000000e+001 7.720343e+000
         vertex 8.949167e+000 1.000000e+001 7.228860e+000
      endloop
   endfacet
   facet normal 0.000000e+000 -1.000000e+000 0.000000e+000
      outer loop
         vertex 3.764730e+000 0.000000e+000 1.000000e+001
         vertex 0.000000e+000 0.000000e+000 1.000000e+001
         vertex 0.000000e+000 0.000000e+000 0.000000e+000
      endloop
   endfacet
   facet normal 0.000000e+000 -1.000000e+000 0.000000e+000
      outer loop
         vertex 1.000000e+001 0.000000e+000 0.000000e+000
         vertex 1.000000e+001 0.000000e+000 3.764730e+000
         vertex 0.000000e+000 0.000000e+000 0.000000e+000
      endloop
   endfacet
   facet normal 0.000000e+000 -1.000000e+000 0.000000e+000
      outer loop
         vertex 0.000000e+000 0.000000e+000 0.000000e+000
         vertex 1.000000e+001 0.000000e+000 3.764730e+000
         vertex 9.969975e+000 0.000000e+000 4.375893e+000
      endloop
   endfacet
   facet normal 0.000000e+000 -1.000000e+000 0.000000e+000
      outer loop
         vertex 0.000000e+000 0.000000e+000 0.000000e+000
         vertex 9.969975e+000 0.000000e+000 4.375893e+000
         vertex 9.880191e+000 0.000000e+000 4.981170e+000
      endloop
   endfacet
   facet normal 0.000000e+000 -1.000000e+000 0.000000e+000
      outer loop
         vertex 9.880191e+000 0.000000e+000 4.981170e+000
         vertex 9.731511e+000 0.000000e+000 5.574733e+000
         vertex 0.000000e+000 0.000000e+000 0.000000e+000
      endloop
   endfacet
   facet normal 0.000000e+000 -1.000000e+000 0.000000e+000
      outer loop
         vertex 0.000000e+000 0.000000e+000 0.000000e+000
         vertex 9.731511e+000 0.000000e+000 5.574733e+000
         vertex 9.525368e+000 0.000000e+000 6.150864e+000
      endloop
   endfacet
   facet normal 0.000000e+000 -1.000000e+000 0.000000e+000
      outer loop
         vertex 0.000000e+000 0.000000e+000 0.000000e+000
         vertex 9.525368e+000 0.000000e+000 6.150864e+000
         vertex 9.263747e+000 0.000000e+000 6.704016e+000
      endloop
   endfacet
   facet normal 0.000000e+000 -1.000000e+000 0.000000e+000
      outer loop
         vertex 6.704016e+000 0.000000e+000 9.263747e+000
         vertex 6.150865e+000 0.000000e+000 9.525368e+000
         vertex 0.000000e+000 0.000000e+000 0.000000e+000
      endloop
   endfacet
   facet normal 0.000000e+000 -1.000000e+000 0.000000e+000
      outer loop
         vertex 0.000000e+000 0.000000e+000 0.000000e+000
         vertex 6.150865e+000 0.000000e+000 9.525368e+000
         vertex 5.574733e+000 0.000000e+000 9.731511e+000
      endloop
   endfacet
   facet normal 0.000000e+000 -1.000000e+000 0.000000e+000
      outer loop
         vertex 9.263747e+000 0.000000e+000 6.704016e+000
         vertex 8.949167e+000 0.000000e+000 7.228860e+000
         vertex 0.000000e+000 0.000000e+000 0.000000e+000
      endloop
   endfacet
   facet normal 0.000000e+000 -1.000000e+000 0.000000e+000
      outer loop
         vertex 0.000000e+000 0.000000e+000 0.000000e+000
         vertex 8.949167e+000 0.000000e+000 7.228860e+000
         vertex 8.584659e+000 0.000000e+000 7.720343e+000
      endloop
   endfacet
   facet normal 0.000000e+000 -1.000000e+000 0.000000e+000
      outer loop
         vertex 0.000000e+000 0.000000e+000 0.000000e+000
         vertex 8.584659e+000 0.000000e+000 7.720343e+000
         vertex 8.173732e+000 0.000000e+000 8.173731e+000
      endloop
   endfacet
   facet normal 0.000000e+000 -1.000000e+000 0.000000e+000
      outer loop
         vertex 5.574733e+000 0.000000e+000 9.731511e+000
         vertex 4.981171e+000 0.000000e+000 9.880191e+000
         vertex 0.000000e+000 0.000000e+000 0.000000e+000
      endloop
   endfacet
   facet normal 0.000000e+000 -1.000000e+000 0.000000e+000
      outer loop
         vertex 0.000000e+000 0.000000e+000 0.000000e+000
         vertex 4.981171e+000 0.000000e+000 9.880191e+000
         vertex 4.375893e+000 0.000000e+000 9.969975e+000
      endloop
   endfacet
   facet normal 0.000000e+000 -1.000000e+000 0.000000e+000
      outer loop
         vertex 0.000000e+000 0.000000e+000 0.000000e+000
         vertex 4.375893e+000 0.000000e+000 9.969975e+000
         vertex 3.764730e+000 0.000000e+000 1.000000e+001
      endloop
   endfacet
   facet normal 0.000000e+000 -1.000000e+000 0.000000e+000
      outer loop
         vertex 8.173732e+000 0.000000e+000 8.173731e+000
         vertex 7.720343e+000 0.000000e+000 8.584659e+000
         vertex 0.000000e+000 0.000000e+000 0.000000e+000
      endloop
   endfacet
   facet normal 0.000000e+000 -1.000000e+000 0.000000e+000
      outer loop
         vertex 0.000000e+000 0.000000e+000 0.000000e+000
         vertex 7.720343e+000 0.000000e+000 8.584659e+000
         vertex 7.228860e+000 0.000000e+000 8.949167e+000
      endloop
   endfacet
   facet normal 0.000000e+000 -1.000000e+000 0.000000e+000
      outer loop
         vertex 0.000000e+000 0.000000e+000 0.000000e+000
         vertex 7.228860e+000 0.000000e+000 8.949167e+000
         vertex 6.704016e+000 0.000000e+000 9.263747e+000
      endloop
   endfacet
   facet normal 3.270740e-002 0.000000e+000 9.994650e-001
      outer loop
         vertex 3.764730e+000 1.000000e+001 1.000000e+001
         vertex 3.764730e+000 0.000000e+000 1.000000e+001
         vertex 4.375893e+000 0.000000e+000 9.969975e+000
      endloop
   endfacet
   facet normal 6.541479e-002 0.000000e+000 9.978582e-001
      outer loop
         vertex 3.764730e+000 1.000000e+001 1.000000e+001
         vertex 4.375893e+000 0.000000e+000 9.969975e+000
         vertex 4.375893e+000 1.000000e+001 9.969975e+000
      endloop
   endfacet
   facet normal 1.305146e-001 0.000000e+000 9.914464e-001
      outer loop
         vertex 4.375893e+000 1.000000e+001 9.969975e+000
         vertex 4.375893e+000 0.000000e+000 9.969975e+000
         vertex 4.981171e+000 0.000000e+000 9.880191e+000
      endloop
   endfacet
   facet normal 1.629070e-001 0.000000e+000 9.866415e-001
      outer loop
         vertex 4.375893e+000 1.000000e+001 9.969975e+000
         vertex 4.981171e+000 0.000000e+000 9.880191e+000
         vertex 4.981171e+000 1.000000e+001 9.880191e+000
      endloop
   endfacet
   facet normal 2.270649e-001 0.000000e+000 9.738796e-001
      outer loop
         vertex 4.981171e+000 1.000000e+001 9.880191e+000
         vertex 4.981171e+000 0.000000e+000 9.880191e+000
         vertex 5.574733e+000 0.000000e+000 9.731511e+000
      endloop
   endfacet
   facet normal 2.588304e-001 0.000000e+000 9.659228e-001
      outer loop
         vertex 4.981171e+000 1.000000e+001 9.880191e+000
         vertex 5.574733e+000 0.000000e+000 9.731511e+000
         vertex 5.574733e+000 1.000000e+001 9.731511e+000
      endloop
   endfacet
   facet normal 3.214284e-001 0.000000e+000 9.469339e-001
      outer loop
         vertex 5.574733e+000 1.000000e+001 9.731511e+000
         vertex 5.574733e+000 0.000000e+000 9.731511e+000
         vertex 6.150865e+000 0.000000e+000 9.525368e+000
      endloop
   endfacet
   facet normal 3.522610e-001 0.000000e+000 9.359018e-001
      outer loop
         vertex 5.574733e+000 1.000000e+001 9.731511e+000
         vertex 6.150865e+000 0.000000e+000 9.525368e+000
         vertex 6.150865e+000 1.000000e+001 9.525368e+000
      endloop
   endfacet
   facet normal 4.126964e-001 0.000000e+000 9.108686e-001
      outer loop
         vertex 6.150865e+000 1.000000e+001 9.525368e+000
         vertex 6.150865e+000 0.000000e+000 9.525368e+000
         vertex 6.704016e+000 0.000000e+000 9.263747e+000
      endloop
   endfacet
   facet normal 4.422992e-001 0.000000e+000 8.968676e-001
      outer loop
         vertex 6.150865e+000 1.000000e+001 9.525368e+000
         vertex 6.704016e+000 0.000000e+000 9.263747e+000
         vertex 6.704016e+000 1.000000e+001 9.263747e+000
      endloop
   endfacet
   facet normal 4.999899e-001 0.000000e+000 8.660313e-001
      outer loop
         vertex 6.704016e+000 1.000000e+001 9.263747e+000
         vertex 6.704016e+000 0.000000e+000 9.263747e+000
         vertex 7.228860e+000 0.000000e+000 8.949167e+000
      endloop
   endfacet
   facet normal 5.280778e-001 0.000000e+000 8.491960e-001
      outer loop
         vertex 6.704016e+000 1.000000e+001 9.263747e+000
         vertex 7.228860e+000 0.000000e+000 8.949167e+000
         vertex 7.228860e+000 1.000000e+001 8.949167e+000
      endloop
   endfacet
   facet normal 5.824682e-001 0.000000e+000 8.128535e-001
      outer loop
         vertex 7.228860e+000 1.000000e+001 8.949167e+000
         vertex 7.228860e+000 0.000000e+000 8.949167e+000
         vertex 7.720343e+000 0.000000e+000 8.584659e+000
      endloop
   endfacet
   facet normal 6.087707e-001 0.000000e+000 7.933462e-001
      outer loop
         vertex 7.228860e+000 1.000000e+001 8.949167e+000
         vertex 7.720343e+000 0.000000e+000 8.584659e+000
         vertex 7.720343e+000 1.000000e+001 8.584659e+000
      endloop
   endfacet
   facet normal 6.593370e-001 0.000000e+000 7.518475e-001
      outer loop
         vertex 7.720343e+000 1.000000e+001 8.584659e+000
         vertex 7.720343e+000 0.000000e+000 8.584659e+000
         vertex 8.173732e+000 0.000000e+000 8.173731e+000
      endloop
   endfacet
   facet normal 6.836008e-001 0.000000e+000 7.298561e-001
      outer loop
         vertex 7.720343e+000 1.000000e+001 8.584659e+000
         vertex 8.173732e+000 0.000000e+000 8.173731e+000
         vertex 8.173732e+000 1.000000e+001 8.173731e+000
      endloop
   endfacet
   facet normal 7.298561e-001 0.000000e+000 6.836008e-001
      outer loop
         vertex 8.173732e+000 1.000000e+001 8.173731e+000
         vertex 8.173732e+000 0.000000e+000 8.173731e+000
         vertex 8.584659e+000 0.000000e+000 7.720343e+000
      endloop
   endfacet
   facet normal 7.518475e-001 0.000000e+000 6.593370e-001
      outer loop
         vertex 8.173732e+000 1.000000e+001 8.173731e+000
         vertex 8.584659e+000 0.000000e+000 7.720343e+000
         vertex 8.584659e+000 1.000000e+001 7.720343e+000
      endloop
   endfacet
   facet normal 7.933462e-001 0.000000e+000 6.087707e-001
      outer loop
         vertex 8.584659e+000 1.000000e+001 7.720343e+000
         vertex 8.584659e+000 0.000000e+000 7.720343e+000
         vertex 8.949167e+000 0.000000e+000 7.228860e+000
      endloop
   endfacet
   facet normal 8.128535e-001 0.000000e+000 5.824683e-001
      outer loop
         vertex 8.584659e+000 1.000000e+001 7.720343e+000
         vertex 8.949167e+000 0.000000e+000 7.228860e+000
         vertex 8.949167e+000 1.000000e+001 7.228860e+000
      endloop
   endfacet
   facet normal 8.491960e-001 0.000000e+000 5.280778e-001
      outer loop
         vertex 8.949167e+000 1.000000e+001 7.228860e+000
         vertex 8.949167e+000 0.000000e+000 7.228860e+000
         vertex 9.263747e+000 0.000000e+000 6.704016e+000
      endloop
   endfacet
   facet normal 8.660313e-001 0.000000e+000 4.999899e-001
      outer loop
         vertex 8.949167e+000 1.000000e+001 7.228860e+000
         vertex 9.263747e+000 0.000000e+000 6.704016e+000
         vertex 9.263747e+000 1.000000e+001 6.704016e+000
      endloop
   endfacet
   facet normal 8.968676e-001 0.000000e+000 4.422992e-001
      outer loop
         vertex 9.263747e+000 1.000000e+001 6.704016e+000
         vertex 9.263747e+000 0.000000e+000 6.704016e+000
         vertex 9.525368e+000 0.000000e+000 6.150864e+000
      endloop
   endfacet
   facet normal 9.108686e-001 0.000000e+000 4.126964e-001
      outer loop
         vertex 9.263747e+000 1.000000e+001 6.704016e+000
         vertex 9.525368e+000 0.000000e+000 6.150864e+000
         vertex 9.525368e+000 1.000000e+001 6.150864e+000
      endloop
   endfacet
   facet normal 9.359018e-001 0.000000e+000 3.522610e-001
      outer loop
         vertex 9.525368e+000 1.000000e+001 6.150864e+000
         vertex 9.525368e+000 0.000000e+000 6.150864e+000
         vertex 9.731511e+000 0.000000e+000 5.574733e+000
      endloop
   endfacet
   facet normal 9.469339e-001 0.000000e+000 3.214284e-001
      outer loop
         vertex 9.525368e+000 1.000000e+001 6.150864e+000
         vertex 9.731511e+000 0.000000e+000 5.574733e+000
         vertex 9.731511e+000 1.000000e+001 5.574733e+000
      endloop
   endfacet
   facet normal 9.659228e-001 0.000000e+000 2.588304e-001
      outer loop
         vertex 9.731511e+000 1.000000e+001 5.574733e+000
         vertex 9.731511e+000 0.000000e+000 5.574733e+000
         vertex 9.880191e+000 0.000000e+000 4.981170e+000
      endloop
   endfacet
   facet normal 9.738796e-001 0.000000e+000 2.270649e-001
      outer loop
         vertex 9.731511e+000 1.000000e+001 5.574733e+000
         vertex 9.880191e+000 0.000000e+000 4.981170e+000
         vertex 9.880191e+000 1.000000e+001 4.981170e+000
      endloop
   endfacet
   facet normal 9.866414e-001 0.000000e+000 1.629070e-001
      outer loop
         vertex 9.880191e+000 1.000000e+001 4.981170e+000
         vertex 9.880191e+000 0.000000e+000 4.981170e+000
         vertex 9.969975e+000 0.000000e+000 4.375893e+000
      endloop
   endfacet
   facet normal 9.914464e-001 0.000000e+000 1.305146e-001
      outer loop
         vertex 9.880191e+000 1.000000e+001 4.981170e+000
         vertex 9.969975e+000 0.000000e+000 4.375893e+000
         vertex 9.969975e+000 1.000000e+001 4.375893e+000
      endloop
   endfacet
   facet normal 9.978582e-001 0.000000e+000 6.541479e-002
      outer loop
         vertex 9.969975e+000 1.000000e+001 4.375893e+000
         vertex 9.969975e+000 0.000000e+000 4.375893e+000
         vertex 1.000000e+001 0.000000e+000 3.764730e+000
      endloop
   endfacet
   facet normal 9.994650e-001 0.000000e+000 3.270740e-002
      outer loop
         vertex 9.969975e+000 1.000000e+001 4.375893e+000
         vertex 1.000000e+001 0.000000e+000 3.764730e+000
         vertex 1.000000e+001 1.000000e+001 3.764730e+000
      endloop
   endfacet
endsolid