solid 19_488
   facet normal -1.000000e+000 0.000000e+000 0.000000e+000
      outer loop
         vertex 0.000000e+000 9.868812e+000 5.931891e+000
         vertex 0.000000e+000 9.967100e+000 5.353411e+000
         vertex 0.000000e+000 0.000000e+000 0.000000e+000
      endloop
   endfacet
   facet normal -1.000000e+000 0.000000e+000 0.000000e+000
      outer loop
         vertex 0.000000e+000 0.000000e+000 0.000000e+000
         vertex 0.000000e+000 9.967100e+000 5.353411e+000
         vertex 0.000000e+000 1.000000e+001 4.767565e+000
      endloop
   endfacet
   facet normal -1.000000e+000 0.000000e+000 0.000000e+000
      outer loop
         vertex 0.000000e+000 0.000000e+000 0.000000e+000
         vertex 0.000000e+000 1.000000e+001 4.767565e+000
         vertex 0.000000e+000 1.000000e+001 0.000000e+000
      endloop
   endfacet
   facet normal -1.000000e+000 0.000000e+000 0.000000e+000
      outer loop
         vertex 0.000000e+000 8.029935e+000 8.858447e+000
         vertex 0.000000e+000 0.000000e+000 0.000000e+000
         vertex 0.000000e+000 7.551388e+000 9.197994e+000
      endloop
   endfacet
   facet normal -1.000000e+000 0.000000e+000 0.000000e+000
      outer loop
         vertex 0.000000e+000 7.551388e+000 9.197994e+000
         vertex 0.000000e+000 0.000000e+000 0.000000e+000
         vertex 0.000000e+000 7.037833e+000 9.481826e+000
      endloop
   endfacet
   facet normal -1.000000e+000 0.000000e+000 0.000000e+000
      outer loop
         vertex 0.000000e+000 8.029935e+000 8.858447e+000
         vertex 0.000000e+000 8.467456e+000 8.467455e+000
         vertex 0.000000e+000 0.000000e+000 0.000000e+000
      endloop
   endfacet
   facet normal -1.000000e+000 0.000000e+000 0.000000e+000
      outer loop
         vertex 0.000000e+000 0.000000e+000 0.000000e+000
         vertex 0.000000e+000 8.467456e+000 8.467455e+000
         vertex 0.000000e+000 8.858447e+000 8.029934e+000
      endloop
   endfacet
   facet normal -1.000000e+000 0.000000e+000 0.000000e+000
      outer loop
         vertex 0.000000e+000 0.000000e+000 0.000000e+000
         vertex 0.000000e+000 8.858447e+000 8.029934e+000
         vertex 0.000000e+000 9.197994e+000 7.551388e+000
      endloop
   endfacet
   facet normal -1.000000e+000 0.000000e+000 0.000000e+000
      outer loop
         vertex 0.000000e+000 0.000000e+000 1.000000e+001
         vertex 0.000000e+000 4.767565e+000 1.000000e+001
         vertex 0.000000e+000 0.000000e+000 0.000000e+000
      endloop
   endfacet
   facet normal -1.000000e+000 0.000000e+000 0.000000e+000
      outer loop
         vertex 0.000000e+000 0.000000e+000 0.000000e+000
         vertex 0.000000e+000 4.767565e+000 1.000000e+001
         vertex 0.000000e+000 5.353412e+000 9.967099e+000
      endloop
   endfacet
   facet normal -1.000000e+000 0.000000e+000 0.000000e+000
      outer loop
         vertex 0.000000e+000 9.197994e+000 7.551388e+000
         vertex 0.000000e+000 9.481826e+000 7.037833e+000
         vertex 0.000000e+000 0.000000e+000 0.000000e+000
      endloop
   endfacet
   facet normal -1.000000e+000 0.000000e+000 0.000000e+000
      outer loop
         vertex 0.000000e+000 0.000000e+000 0.000000e+000
         vertex 0.000000e+000 9.481826e+000 7.037833e+000
         vertex 0.000000e+000 9.706373e+000 6.495728e+000
      endloop
   endfacet
   facet normal -1.000000e+000 0.000000e+000 0.000000e+000
      outer loop
         vertex 0.000000e+000 0.000000e+000 0.000000e+000
         vertex 0.000000e+000 9.706373e+000 6.495728e+000
         vertex 0.000000e+000 9.868812e+000 5.931891e+000
      endloop
   endfacet
   facet normal -1.000000e+000 0.000000e+000 0.000000e+000
      outer loop
         vertex 0.000000e+000 5.353412e+000 9.967099e+000
         vertex 0.000000e+000 5.931891e+000 9.868812e+000
         vertex 0.000000e+000 0.000000e+000 0.000000e+000
      endloop
   endfacet
   facet normal -1.000000e+000 0.000000e+000 0.000000e+000
      outer loop
         vertex 0.000000e+000 0.000000e+000 0.000000e+000
         vertex 0.000000e+000 5.931891e+000 9.868812e+000
         vertex 0.000000e+000 6.495728e+000 9.706373e+000
      endloop
   endfacet
   facet normal -1.000000e+000 0.000000e+000 0.000000e+000
      outer loop
         vertex 0.000000e+000 0.000000e+000 0.000000e+000
         vertex 0.000000e+000 6.495728e+000 9.706373e+000
         vertex 0.000000e+000 7.037833e+000 9.481826e+000
      endloop
   endfacet
   facet normal 0.000000e+000 0.000000e+000 1.000000e+000
      outer loop
         vertex 0.000000e+000 4.767565e+000 1.000000e+001
         vertex 0.000000e+000 0.000000e+000 1.000000e+001
         vertex 1.000000e+001 4.767565e+000 1.000000e+001
      endloop
   endfacet
   facet normal 0.000000e+000 0.000000e+000 1.000000e+000
      outer loop
         vertex 1.000000e+001 4.767565e+000 1.000000e+001
         vertex 0.000000e+000 0.000000e+000 1.000000e+001
         vertex 1.000000e+001 0.000000e+000 1.000000e+001
      endloop
   endfacet
   facet normal 1.000000e+000 0.000000e+000 0.000000e+000
      outer loop
         vertex 1.000000e+001 4.767565e+000 1.000000e+001
         vertex 1.000000e+001 0.000000e+000 1.000000e+001
         vertex 1.000000e+001 0.000000e+000 0.000000e+000
      endloop
   endfacet
   facet normal 1.000000e+000 0.000000e+000 0.000000e+000
      outer loop
         vertex 1.000000e+001 0.000000e+000 0.000000e+000
         vertex 1.000000e+001 1.000000e+001 0.000000e+000
         vertex 1.000000e+001 1.000000e+001 4.767565e+000
      endloop
   endfacet
   facet normal 1.000000e+000 0.000000e+000 0.000000e+000
      outer loop
         vertex 1.000000e+001 1.000000e+001 4.767565e+000
         vertex 1.000000e+001 9.967100e+000 5.353411e+000
         vertex 1.000000e+001 0.000000e+000 0.000000e+000
      endloop
   endfacet
   facet normal 1.000000e+000 0.000000e+000 0.000000e+000
      outer loop
         vertex 1.000000e+001 0.000000e+000 0.000000e+000
         vertex 1.000000e+001 9.967100e+000 5.353411e+000
         vertex 1.000000e+001 9.868812e+000 5.931891e+000
      endloop
   endfacet
   facet normal 1.000000e+000 0.000000e+000 0.000000e+000
      outer loop
         vertex 1.000000e+001 0.000000e+000 0.000000e+000
         vertex 1.000000e+001 9.868812e+000 5.931891e+000
         vertex 1.000000e+001 9.706373e+000 6.495728e+000
      endloop
   endfacet
   facet normal 1.000000e+000 0.000000e+000 0.000000e+000
      outer loop
         vertex 1.000000e+001 8.029935e+000 8.858447e+000
         vertex 1.000000e+001 0.000000e+000 0.000000e+000
         vertex 1.000000e+001 8.467456e+000 8.467455e+000
      endloop
   endfacet
   facet normal 1.000000e+000 0.000000e+000 0.000000e+000
      outer loop
         vertex 1.000000e+001 8.467456e+000 8.467455e+000
         vertex 1.000000e+001 0.000000e+000 0.000000e+000
         vertex 1.000000e+001 8.858447e+000 8.029934e+000
      endloop
   endfacet
   facet normal 1.000000e+000 0.000000e+000 0.000000e+000
      outer loop
         vertex 1.000000e+001 8.029935e+000 8.858447e+000
         vertex 1.000000e+001 7.551388e+000 9.197994e+000
         vertex 1.000000e+001 0.000000e+000 0.000000e+000
      endloop
   endfacet
   facet normal 1.000000e+000 0.000000e+000 0.000000e+000
      outer loop
         vertex 1.000000e+001 0.000000e+000 0.000000e+000
         vertex 1.000000e+001 7.551388e+000 9.197994e+000
         vertex 1.000000e+001 7.037833e+000 9.481826e+000
      endloop
   endfacet
   facet normal 1.000000e+000 0.000000e+000 0.000000e+000
      outer loop
         vertex 1.000000e+001 0.000000e+000 0.000000e+000
         vertex 1.000000e+001 7.037833e+000 9.481826e+000
         vertex 1.000000e+001 6.495728e+000 9.706373e+000
      endloop
   endfacet
   facet normal 1.000000e+000 0.000000e+000 0.000000e+000
      outer loop
         vertex 1.000000e+001 9.706373e+000 6.495728e+000
         vertex 1.000000e+001 9.481826e+000 7.037833e+000
         vertex 1.000000e+001 0.000000e+000 0.000000e+000
      endloop
   endfacet
   facet normal 1.000000e+000 0.000000e+000 0.000000e+000
      outer loop
         vertex 1.000000e+001 0.000000e+000 0.000000e+000
         vertex 1.000000e+001 9.481826e+000 7.037833e+000
         vertex 1.000000e+001 9.197994e+000 7.551388e+000
      endloop
   endfacet
   facet normal 1.000000e+000 0.000000e+000 0.000000e+000
      outer loop
         vertex 1.000000e+001 0.000000e+000 0.000000e+000
         vertex 1.000000e+001 9.197994e+000 7.551388e+000
         vertex 1.000000e+001 8.858447e+000 8.029934e+000
      endloop
   endfacet
   facet normal 1.000000e+000 0.000000e+000 0.000000e+000
      outer loop
         vertex 1.000000e+001 6.495728e+000 9.706373e+000
         vertex 1.000000e+001 5.931891e+000 9.868812e+000
         vertex 1.000000e+001 0.000000e+000 0.000000e+000
      endloop
   endfacet
   facet normal 1.000000e+000 0.000000e+000 0.000000e+000
      outer loop
         vertex 1.000000e+001 0.000000e+000 0.000000e+000
         vertex 1.000000e+001 5.931891e+000 9.868812e+000
         vertex 1.000000e+001 5.353412e+000 9.967099e+000
      endloop
   endfacet
   facet normal 1.000000e+000 0.000000e+000 0.000000e+000
      outer loop
         vertex 1.000000e+001 0.000000e+000 0.000000e+000
         vertex 1.000000e+001 5.353412e+000 9.967099e+000
         vertex 1.000000e+001 4.767565e+000 1.000000e+001
      endloop
   endfacet
   facet normal 0.000000e+000 0.000000e+000 -1.000000e+000
      outer loop
         vertex 0.000000e+000 1.000000e+001 0.000000e+000
         vertex 1.000000e+001 1.000000e+001 0.000000e+000
         vertex 0.000000e+000 0.000000e+000 0.000000e+000
      endloop
   endfacet
   facet normal 0.000000e+000 0.000000e+000 -1.000000e+000
      outer loop
         vertex 0.000000e+000 0.000000e+000 0.000000e+000
         vertex 1.000000e+001 1.000000e+001 0.000000e+000
         vertex 1.000000e+001 0.000000e+000 0.000000e+000
      endloop
   endfacet
   facet normal 0.000000e+000 1.000000e+000 0.000000e+000
      outer loop
         vertex 1.000000e+001 1.000000e+001 4.767565e+000
         vertex 1.000000e+001 1.000000e+001 0.000000e+000
         vertex 0.000000e+000 1.000000e+001 4.767565e+000
      endloop
   endfacet
   facet normal 0.000000e+000 1.000000e+000 0.000000e+000
      outer loop
         vertex 0.000000e+000 1.000000e+001 4.767565e+000
         vertex 1.000000e+001 1.000000e+001 0.000000e+000
         vertex 0.000000e+000 1.000000e+001 0.000000e+000
      endloop
   endfacet
   facet normal 0.000000e+000 -1.000000e+000 0.000000e+000
      outer loop
         vertex 1.000000e+001 0.000000e+000 0.000000e+000
         vertex 1.000000e+001 0.000000e+000 1.000000e+001
         vertex 0.000000e+000 0.000000e+000 0.000000e+000
      endloop
   endfacet
   facet normal 0.000000e+000 -1.000000e+000 0.000000e+000
      outer loop
         vertex 0.000000e+000 0.000000e+000 0.000000e+000
         vertex 1.000000e+001 0.000000e+000 1.000000e+001
         vertex 0.000000e+000 0.000000e+000 1.000000e+001
      endloop
   endfacet
   facet normal 0.000000e+000 3.737375e-002 9.993014e-001
      outer loop
         vertex 0.000000e+000 4.767565e+000 1.000000e+001
         vertex 1.000000e+001 4.767565e+000 1.000000e+001
         vertex 1.000000e+001 5.353412e+000 9.967099e+000
      endloop
   endfacet
   facet normal 0.000000e+000 7.474750e-002 9.972025e-001
      outer loop
         vertex 0.000000e+000 4.767565e+000 1.000000e+001
         vertex 1.000000e+001 5.353412e+000 9.967099e+000
         vertex 0.000000e+000 5.353412e+000 9.967099e+000
      endloop
   endfacet
   facet normal 0.000000e+000 1.490250e-001 9.888334e-001
      outer loop
         vertex 0.000000e+000 5.353412e+000 9.967099e+000
         vertex 1.000000e+001 5.353412e+000 9.967099e+000
         vertex 1.000000e+001 5.931891e+000 9.868812e+000
      endloop
   endfacet
   facet normal 0.000000e+000 1.859288e-001 9.825633e-001
      outer loop
         vertex 0.000000e+000 5.353412e+000 9.967099e+000
         vertex 1.000000e+001 5.931891e+000 9.868812e+000
         vertex 0.000000e+000 5.931891e+000 9.868812e+000
      endloop
   endfacet
   facet normal 0.000000e+000 2.588021e-001 9.659303e-001
      outer loop
         vertex 0.000000e+000 5.931891e+000 9.868812e+000
         vertex 1.000000e+001 5.931891e+000 9.868812e+000
         vertex 1.000000e+001 6.495728e+000 9.706373e+000
      endloop
   endfacet
   facet normal 0.000000e+000 2.947719e-001 9.555677e-001
      outer loop
         vertex 0.000000e+000 5.931891e+000 9.868812e+000
         vertex 1.000000e+001 6.495728e+000 9.706373e+000
         vertex 0.000000e+000 6.495728e+000 9.706373e+000
      endloop
   endfacet
   facet normal 0.000000e+000 3.653248e-001 9.308801e-001
      outer loop
         vertex 0.000000e+000 6.495728e+000 9.706373e+000
         vertex 1.000000e+001 6.495728e+000 9.706373e+000
         vertex 1.000000e+001 7.037833e+000 9.481826e+000
      endloop
   endfacet
   facet normal 0.000000e+000 3.999080e-001 9.165552e-001
      outer loop
         vertex 0.000000e+000 6.495728e+000 9.706373e+000
         vertex 1.000000e+001 7.037833e+000 9.481826e+000
         vertex 0.000000e+000 7.037833e+000 9.481826e+000
      endloop
   endfacet
   facet normal 0.000000e+000 4.672532e-001 8.841236e-001
      outer loop
         vertex 0.000000e+000 7.037833e+000 9.481826e+000
         vertex 1.000000e+001 7.037833e+000 9.481826e+000
         vertex 1.000000e+001 7.551388e+000 9.197994e+000
      endloop
   endfacet
   facet normal 0.000000e+000 5.000151e-001 8.660167e-001
      outer loop
         vertex 0.000000e+000 7.037833e+000 9.481826e+000
         vertex 1.000000e+001 7.551388e+000 9.197994e+000
         vertex 0.000000e+000 7.551388e+000 9.197994e+000
      endloop
   endfacet
   facet normal 0.000000e+000 5.633056e-001 8.262486e-001
      outer loop
         vertex 0.000000e+000 7.551388e+000 9.197994e+000
         vertex 1.000000e+001 7.551388e+000 9.197994e+000
         vertex 1.000000e+001 8.029935e+000 8.858447e+000
      endloop
   endfacet
   facet normal 0.000000e+000 5.938342e-001 8.045874e-001
      outer loop
         vertex 0.000000e+000 7.551388e+000 9.197994e+000
         vertex 1.000000e+001 8.029935e+000 8.858447e+000
         vertex 0.000000e+000 8.029935e+000 8.858447e+000
      endloop
   endfacet
   facet normal 0.000000e+000 6.522741e-001 7.579831e-001
      outer loop
         vertex 0.000000e+000 8.029935e+000 8.858447e+000
         vertex 1.000000e+001 8.029935e+000 8.858447e+000
         vertex 1.000000e+001 8.467456e+000 8.467455e+000
      endloop
   endfacet
   facet normal 0.000000e+000 6.801855e-001 7.330400e-001
      outer loop
         vertex 0.000000e+000 8.029935e+000 8.858447e+000
         vertex 1.000000e+001 8.467456e+000 8.467455e+000
         vertex 0.000000e+000 8.467456e+000 8.467455e+000
      endloop
   endfacet
   facet normal 0.000000e+000 7.330400e-001 6.801856e-001
      outer loop
         vertex 0.000000e+000 8.467456e+000 8.467455e+000
         vertex 1.000000e+001 8.467456e+000 8.467455e+000
         vertex 1.000000e+001 8.858447e+000 8.029934e+000
      endloop
   endfacet
   facet normal 0.000000e+000 7.579831e-001 6.522741e-001
      outer loop
         vertex 0.000000e+000 8.467456e+000 8.467455e+000
         vertex 1.000000e+001 8.858447e+000 8.029934e+000
         vertex 0.000000e+000 8.858447e+000 8.029934e+000
      endloop
   endfacet
   facet normal 0.000000e+000 8.045874e-001 5.938342e-001
      outer loop
         vertex 0.000000e+000 8.858447e+000 8.029934e+000
         vertex 1.000000e+001 8.858447e+000 8.029934e+000
         vertex 1.000000e+001 9.197994e+000 7.551388e+000
      endloop
   endfacet
   facet normal 0.000000e+000 8.262486e-001 5.633056e-001
      outer loop
         vertex 0.000000e+000 8.858447e+000 8.029934e+000
         vertex 1.000000e+001 9.197994e+000 7.551388e+000
         vertex 0.000000e+000 9.197994e+000 7.551388e+000
      endloop
   endfacet
   facet normal 0.000000e+000 8.660167e-001 5.000151e-001
      outer loop
         vertex 0.000000e+000 9.197994e+000 7.551388e+000
         vertex 1.000000e+001 9.197994e+000 7.551388e+000
         vertex 1.000000e+001 9.481826e+000 7.037833e+000
      endloop
   endfacet
   facet normal 0.000000e+000 8.841236e-001 4.672532e-001
      outer loop
         vertex 0.000000e+000 9.197994e+000 7.551388e+000
         vertex 1.000000e+001 9.481826e+000 7.037833e+000
         vertex 0.000000e+000 9.481826e+000 7.037833e+000
      endloop
   endfacet
   facet normal 0.000000e+000 9.165552e-001 3.999080e-001
      outer loop
         vertex 0.000000e+000 9.481826e+000 7.037833e+000
         vertex 1.000000e+001 9.481826e+000 7.037833e+000
         vertex 1.000000e+001 9.706373e+000 6.495728e+000
      endloop
   endfacet
   facet normal 0.000000e+000 9.308801e-001 3.653248e-001
      outer loop
         vertex 0.000000e+000 9.481826e+000 7.037833e+000
         vertex 1.000000e+001 9.706373e+000 6.495728e+000
         vertex 0.000000e+000 9.706373e+000 6.495728e+000
      endloop
   endfacet
   facet normal 0.000000e+000 9.555677e-001 2.947719e-001
      outer loop
         vertex 0.000000e+000 9.706373e+000 6.495728e+000
         vertex 1.000000e+001 9.706373e+000 6.495728e+000
         vertex 1.000000e+001 9.868812e+000 5.931891e+000
      endloop
   endfacet
   facet normal 0.000000e+000 9.659303e-001 2.588022e-001
      outer loop
         vertex 0.000000e+000 9.706373e+000 6.495728e+000
         vertex 1.000000e+001 9.868812e+000 5.931891e+000
         vertex 0.000000e+000 9.868812e+000 5.931891e+000
      endloop
   endfacet
   facet normal 0.000000e+000 9.825633e-001 1.859288e-001
      outer loop
         vertex 0.000000e+000 9.868812e+000 5.931891e+000
         vertex 1.000000e+001 9.868812e+000 5.931891e+000
         vertex 1.000000e+001 9.967100e+000 5.353411e+000
      endloop
   endfacet
   facet normal 0.000000e+000 9.888334e-001 1.490250e-001
      outer loop
         vertex 0.000000e+000 9.868812e+000 5.931891e+000
         vertex 1.000000e+001 9.967100e+000 5.353411e+000
         vertex 0.000000e+000 9.967100e+000 5.353411e+000
      endloop
   endfacet
   facet normal 0.000000e+000 9.972025e-001 7.474750e-002
      outer loop
         vertex 0.000000e+000 9.967100e+000 5.353411e+000
         vertex 1.000000e+001 9.967100e+000 5.353411e+000
         vertex 1.000000e+001 1.000000e+001 4.767565e+000
      endloop
   endfacet
   facet normal 0.000000e+000 9.993014e-001 3.737375e-002
      outer loop
         vertex 0.000000e+000 9.967100e+000 5.353411e+000
         vertex 1.000000e+001 1.000000e+001 4.767565e+000
         vertex 0.000000e+000 1.000000e+001 4.767565e+000
      endloop
   endfacet
endsolid