solid 19_259
   facet normal -1.000000e+000 0.000000e+000 0.000000e+000
      outer loop
         vertex 0.000000e+000 1.000000e+001 3.638233e+000
         vertex 0.000000e+000 1.000000e+001 0.000000e+000
         vertex 0.000000e+000 0.000000e+000 0.000000e+000
      endloop
   endfacet
   facet normal -1.000000e+000 0.000000e+000 0.000000e+000
      outer loop
         vertex 0.000000e+000 8.927849e+000 7.172641e+000
         vertex 0.000000e+000 0.000000e+000 0.000000e+000
         vertex 0.000000e+000 8.555945e+000 7.674095e+000
      endloop
   endfacet
   facet normal -1.000000e+000 0.000000e+000 0.000000e+000
      outer loop
         vertex 0.000000e+000 8.555945e+000 7.674095e+000
         vertex 0.000000e+000 0.000000e+000 0.000000e+000
         vertex 0.000000e+000 8.136682e+000 8.136682e+000
      endloop
   endfacet
   facet normal -1.000000e+000 0.000000e+000 0.000000e+000
      outer loop
         vertex 0.000000e+000 8.927849e+000 7.172641e+000
         vertex 0.000000e+000 9.248811e+000 6.637148e+000
         vertex 0.000000e+000 0.000000e+000 0.000000e+000
      endloop
   endfacet
   facet normal -1.000000e+000 0.000000e+000 0.000000e+000
      outer loop
         vertex 0.000000e+000 0.000000e+000 0.000000e+000
         vertex 0.000000e+000 9.248811e+000 6.637148e+000
         vertex 0.000000e+000 9.515739e+000 6.072775e+000
      endloop
   endfacet
   facet normal -1.000000e+000 0.000000e+000 0.000000e+000
      outer loop
         vertex 0.000000e+000 0.000000e+000 0.000000e+000
         vertex 0.000000e+000 9.515739e+000 6.072775e+000
         vertex 0.000000e+000 9.726065e+000 5.484956e+000
      endloop
   endfacet
   facet normal -1.000000e+000 0.000000e+000 0.000000e+000
      outer loop
         vertex 0.000000e+000 9.726065e+000 5.484956e+000
         vertex 0.000000e+000 9.877760e+000 4.879352e+000
         vertex 0.000000e+000 0.000000e+000 0.000000e+000
      endloop
   endfacet
   facet normal -1.000000e+000 0.000000e+000 0.000000e+000
      outer loop
         vertex 0.000000e+000 0.000000e+000 0.000000e+000
         vertex 0.000000e+000 9.877760e+000 4.879352e+000
         vertex 0.000000e+000 9.969367e+000 4.261795e+000
      endloop
   endfacet
   facet normal -1.000000e+000 0.000000e+000 0.000000e+000
      outer loop
         vertex 0.000000e+000 0.000000e+000 0.000000e+000
         vertex 0.000000e+000 9.969367e+000 4.261795e+000
         vertex 0.000000e+000 1.000000e+001 3.638233e+000
      endloop
   endfacet
   facet normal -1.000000e+000 0.000000e+000 0.000000e+000
      outer loop
         vertex 0.000000e+000 0.000000e+000 1.000000e+001
         vertex 0.000000e+000 3.638233e+000 1.000000e+001
         vertex 0.000000e+000 0.000000e+000 0.000000e+000
      endloop
   endfacet
   facet normal -1.000000e+000 0.000000e+000 0.000000e+000
      outer loop
         vertex 0.000000e+000 0.000000e+000 0.000000e+000
         vertex 0.000000e+000 3.638233e+000 1.000000e+001
         vertex 0.000000e+000 4.261795e+000 9.969366e+000
      endloop
   endfacet
   facet normal -1.000000e+000 0.000000e+000 0.000000e+000
      outer loop
         vertex 0.000000e+000 0.000000e+000 0.000000e+000
         vertex 0.000000e+000 4.261795e+000 9.969366e+000
         vertex 0.000000e+000 4.879352e+000 9.877760e+000
      endloop
   endfacet
   facet normal -1.000000e+000 0.000000e+000 0.000000e+000
      outer loop
         vertex 0.000000e+000 4.879352e+000 9.877760e+000
         vertex 0.000000e+000 5.484956e+000 9.726065e+000
         vertex 0.000000e+000 0.000000e+000 0.000000e+000
      endloop
   endfacet
   facet normal -1.000000e+000 0.000000e+000 0.000000e+000
      outer loop
         vertex 0.000000e+000 0.000000e+000 0.000000e+000
         vertex 0.000000e+000 5.484956e+000 9.726065e+000
         vertex 0.000000e+000 6.072775e+000 9.515739e+000
      endloop
   endfacet
   facet normal -1.000000e+000 0.000000e+000 0.000000e+000
      outer loop
         vertex 0.000000e+000 0.000000e+000 0.000000e+000
         vertex 0.000000e+000 6.072775e+000 9.515739e+000
         vertex 0.000000e+000 6.637149e+000 9.248810e+000
      endloop
   endfacet
   facet normal -1.000000e+000 0.000000e+000 0.000000e+000
      outer loop
         vertex 0.000000e+000 6.637149e+000 9.248810e+000
         vertex 0.000000e+000 7.172641e+000 8.927848e+000
         vertex 0.000000e+000 0.000000e+000 0.000000e+000
      endloop
   endfacet
   facet normal -1.000000e+000 0.000000e+000 0.000000e+000
      outer loop
         vertex 0.000000e+000 0.000000e+000 0.000000e+000
         vertex 0.000000e+000 7.172641e+000 8.927848e+000
         vertex 0.000000e+000 7.674095e+000 8.555945e+000
      endloop
   endfacet
   facet normal -1.000000e+000 0.000000e+000 0.000000e+000
      outer loop
         vertex 0.000000e+000 0.000000e+000 0.000000e+000
         vertex 0.000000e+000 7.674095e+000 8.555945e+000
         vertex 0.000000e+000 8.136682e+000 8.136682e+000
      endloop
   endfacet
   facet normal 0.000000e+000 0.000000e+000 1.000000e+000
      outer loop
         vertex 0.000000e+000 3.638233e+000 1.000000e+001
         vertex 0.000000e+000 0.000000e+000 1.000000e+001
         vertex 1.000000e+001 3.638233e+000 1.000000e+001
      endloop
   endfacet
   facet normal 0.000000e+000 0.000000e+000 1.000000e+000
      outer loop
         vertex 1.000000e+001 3.638233e+000 1.000000e+001
         vertex 0.000000e+000 0.000000e+000 1.000000e+001
         vertex 1.000000e+001 0.000000e+000 1.000000e+001
      endloop
   endfacet
   facet normal 1.000000e+000 0.000000e+000 0.000000e+000
      outer loop
         vertex 1.000000e+001 3.638233e+000 1.000000e+001
         vertex 1.000000e+001 0.000000e+000 1.000000e+001
         vertex 1.000000e+001 0.000000e+000 0.000000e+000
      endloop
   endfacet
   facet normal 1.000000e+000 0.000000e+000 0.000000e+000
      outer loop
         vertex 1.000000e+001 1.000000e+001 0.000000e+000
         vertex 1.000000e+001 1.000000e+001 3.638233e+000
         vertex 1.000000e+001 0.000000e+000 0.000000e+000
      endloop
   endfacet
   facet normal 1.000000e+000 0.000000e+000 0.000000e+000
      outer loop
         vertex 1.000000e+001 0.000000e+000 0.000000e+000
         vertex 1.000000e+001 1.000000e+001 3.638233e+000
         vertex 1.000000e+001 9.969367e+000 4.261795e+000
      endloop
   endfacet
   facet normal 1.000000e+000 0.000000e+000 0.000000e+000
      outer loop
         vertex 1.000000e+001 9.969367e+000 4.261795e+000
         vertex 1.000000e+001 9.877760e+000 4.879352e+000
         vertex 1.000000e+001 0.000000e+000 0.000000e+000
      endloop
   endfacet
   facet normal 1.000000e+000 0.000000e+000 0.000000e+000
      outer loop
         vertex 1.000000e+001 0.000000e+000 0.000000e+000
         vertex 1.000000e+001 9.877760e+000 4.879352e+000
         vertex 1.000000e+001 9.726065e+000 5.484956e+000
      endloop
   endfacet
   facet normal 1.000000e+000 0.000000e+000 0.000000e+000
      outer loop
         vertex 1.000000e+001 0.000000e+000 0.000000e+000
         vertex 1.000000e+001 9.726065e+000 5.484956e+000
         vertex 1.000000e+001 9.515739e+000 6.072775e+000
      endloop
   endfacet
   facet normal 1.000000e+000 0.000000e+000 0.000000e+000
      outer loop
         vertex 1.000000e+001 9.515739e+000 6.072775e+000
         vertex 1.000000e+001 9.248811e+000 6.637148e+000
         vertex 1.000000e+001 0.000000e+000 0.000000e+000
      endloop
   endfacet
   facet normal 1.000000e+000 0.000000e+000 0.000000e+000
      outer loop
         vertex 1.000000e+001 0.000000e+000 0.000000e+000
         vertex 1.000000e+001 9.248811e+000 6.637148e+000
         vertex 1.000000e+001 8.927849e+000 7.172641e+000
      endloop
   endfacet
   facet normal 1.000000e+000 0.000000e+000 0.000000e+000
      outer loop
         vertex 1.000000e+001 0.000000e+000 0.000000e+000
         vertex 1.000000e+001 8.927849e+000 7.172641e+000
         vertex 1.000000e+001 8.555945e+000 7.674095e+000
      endloop
   endfacet
   facet normal 1.000000e+000 0.000000e+000 0.000000e+000
      outer loop
         vertex 1.000000e+001 8.555945e+000 7.674095e+000
         vertex 1.000000e+001 8.136682e+000 8.136682e+000
         vertex 1.000000e+001 0.000000e+000 0.000000e+000
      endloop
   endfacet
   facet normal 1.000000e+000 0.000000e+000 0.000000e+000
      outer loop
         vertex 1.000000e+001 0.000000e+000 0.000000e+000
         vertex 1.000000e+001 8.136682e+000 8.136682e+000
         vertex 1.000000e+001 7.674095e+000 8.555945e+000
      endloop
   endfacet
   facet normal 1.000000e+000 0.000000e+000 0.000000e+000
      outer loop
         vertex 1.000000e+001 0.000000e+000 0.000000e+000
         vertex 1.000000e+001 7.674095e+000 8.555945e+000
         vertex 1.000000e+001 7.172641e+000 8.927848e+000
      endloop
   endfacet
   facet normal 1.000000e+000 0.000000e+000 0.000000e+000
      outer loop
         vertex 1.000000e+001 7.172641e+000 8.927848e+000
         vertex 1.000000e+001 6.637149e+000 9.248810e+000
         vertex 1.000000e+001 0.000000e+000 0.000000e+000
      endloop
   endfacet
   facet normal 1.000000e+000 0.000000e+000 0.000000e+000
      outer loop
         vertex 1.000000e+001 0.000000e+000 0.000000e+000
         vertex 1.000000e+001 6.637149e+000 9.248810e+000
         vertex 1.000000e+001 6.072775e+000 9.515739e+000
      endloop
   endfacet
   facet normal 1.000000e+000 0.000000e+000 0.000000e+000
      outer loop
         vertex 1.000000e+001 0.000000e+000 0.000000e+000
         vertex 1.000000e+001 6.072775e+000 9.515739e+000
         vertex 1.000000e+001 5.484956e+000 9.726065e+000
      endloop
   endfacet
   facet normal 1.000000e+000 0.000000e+000 0.000000e+000
      outer loop
         vertex 1.000000e+001 5.484956e+000 9.726065e+000
         vertex 1.000000e+001 4.879352e+000 9.877760e+000
         vertex 1.000000e+001 0.000000e+000 0.000000e+000
      endloop
   endfacet
   facet normal 1.000000e+000 0.000000e+000 0.000000e+000
      outer loop
         vertex 1.000000e+001 0.000000e+000 0.000000e+000
         vertex 1.000000e+001 4.879352e+000 9.877760e+000
         vertex 1.000000e+001 4.261795e+000 9.969366e+000
      endloop
   endfacet
   facet normal 1.000000e+000 0.000000e+000 0.000000e+000
      outer loop
         vertex 1.000000e+001 0.000000e+000 0.000000e+000
         vertex 1.000000e+001 4.261795e+000 9.969366e+000
         vertex 1.000000e+001 3.638233e+000 1.000000e+001
      endloop
   endfacet
   facet normal 0.000000e+000 0.000000e+000 -1.000000e+000
      outer loop
         vertex 0.000000e+000 1.000000e+001 0.000000e+000
         vertex 1.000000e+001 1.000000e+001 0.000000e+000
         vertex 0.000000e+000 0.000000e+000 0.000000e+000
      endloop
   endfacet
   facet normal 0.000000e+000 0.000000e+000 -1.000000e+000
      outer loop
         vertex 0.000000e+000 0.000000e+000 0.000000e+000
         vertex 1.000000e+001 1.000000e+001 0.000000e+000
         vertex 1.000000e+001 0.000000e+000 0.000000e+000
      endloop
   endfacet
   facet normal 0.000000e+000 1.000000e+000 0.000000e+000
      outer loop
         vertex 1.000000e+001 1.000000e+001 3.638233e+000
         vertex 1.000000e+001 1.000000e+001 0.000000e+000
         vertex 0.000000e+000 1.000000e+001 3.638233e+000
      endloop
   endfacet
   facet normal 0.000000e+000 1.000000e+000 0.000000e+000
      outer loop
         vertex 0.000000e+000 1.000000e+001 3.638233e+000
         vertex 1.000000e+001 1.000000e+001 0.000000e+000
         vertex 0.000000e+000 1.000000e+001 0.000000e+000
      endloop
   endfacet
   facet normal 0.000000e+000 -1.000000e+000 0.000000e+000
      outer loop
         vertex 1.000000e+001 0.000000e+000 0.000000e+000
         vertex 1.000000e+001 0.000000e+000 1.000000e+001
         vertex 0.000000e+000 0.000000e+000 0.000000e+000
      endloop
   endfacet
   facet normal 0.000000e+000 -1.000000e+000 0.000000e+000
      outer loop
         vertex 0.000000e+000 0.000000e+000 0.000000e+000
         vertex 1.000000e+001 0.000000e+000 1.000000e+001
         vertex 0.000000e+000 0.000000e+000 1.000000e+001
      endloop
   endfacet
   facet normal 0.000000e+000 3.270740e-002 9.994650e-001
      outer loop
         vertex 0.000000e+000 3.638233e+000 1.000000e+001
         vertex 1.000000e+001 3.638233e+000 1.000000e+001
         vertex 1.000000e+001 4.261795e+000 9.969366e+000
      endloop
   endfacet
   facet normal 0.000000e+000 6.541479e-002 9.978582e-001
      outer loop
         vertex 0.000000e+000 3.638233e+000 1.000000e+001
         vertex 1.000000e+001 4.261795e+000 9.969366e+000
         vertex 0.000000e+000 4.261795e+000 9.969366e+000
      endloop
   endfacet
   facet normal 0.000000e+000 1.305146e-001 9.914464e-001
      outer loop
         vertex 0.000000e+000 4.261795e+000 9.969366e+000
         vertex 1.000000e+001 4.261795e+000 9.969366e+000
         vertex 1.000000e+001 4.879352e+000 9.877760e+000
      endloop
   endfacet
   facet normal 0.000000e+000 1.629070e-001 9.866415e-001
      outer loop
         vertex 0.000000e+000 4.261795e+000 9.969366e+000
         vertex 1.000000e+001 4.879352e+000 9.877760e+000
         vertex 0.000000e+000 4.879352e+000 9.877760e+000
      endloop
   endfacet
   facet normal 0.000000e+000 2.270649e-001 9.738796e-001
      outer loop
         vertex 0.000000e+000 4.879352e+000 9.877760e+000
         vertex 1.000000e+001 4.879352e+000 9.877760e+000
         vertex 1.000000e+001 5.484956e+000 9.726065e+000
      endloop
   endfacet
   facet normal 0.000000e+000 2.588304e-001 9.659228e-001
      outer loop
         vertex 0.000000e+000 4.879352e+000 9.877760e+000
         vertex 1.000000e+001 5.484956e+000 9.726065e+000
         vertex 0.000000e+000 5.484956e+000 9.726065e+000
      endloop
   endfacet
   facet normal 0.000000e+000 3.214284e-001 9.469339e-001
      outer loop
         vertex 0.000000e+000 5.484956e+000 9.726065e+000
         vertex 1.000000e+001 5.484956e+000 9.726065e+000
         vertex 1.000000e+001 6.072775e+000 9.515739e+000
      endloop
   endfacet
   facet normal 0.000000e+000 3.522610e-001 9.359018e-001
      outer loop
         vertex 0.000000e+000 5.484956e+000 9.726065e+000
         vertex 1.000000e+001 6.072775e+000 9.515739e+000
         vertex 0.000000e+000 6.072775e+000 9.515739e+000
      endloop
   endfacet
   facet normal 0.000000e+000 4.126964e-001 9.108686e-001
      outer loop
         vertex 0.000000e+000 6.072775e+000 9.515739e+000
         vertex 1.000000e+001 6.072775e+000 9.515739e+000
         vertex 1.000000e+001 6.637149e+000 9.248810e+000
      endloop
   endfacet
   facet normal 0.000000e+000 4.422992e-001 8.968676e-001
      outer loop
         vertex 0.000000e+000 6.072775e+000 9.515739e+000
         vertex 1.000000e+001 6.637149e+000 9.248810e+000
         vertex 0.000000e+000 6.637149e+000 9.248810e+000
      endloop
   endfacet
   facet normal 0.000000e+000 4.999899e-001 8.660313e-001
      outer loop
         vertex 0.000000e+000 6.637149e+000 9.248810e+000
         vertex 1.000000e+001 6.637149e+000 9.248810e+000
         vertex 1.000000e+001 7.172641e+000 8.927848e+000
      endloop
   endfacet
   facet normal 0.000000e+000 5.280778e-001 8.491960e-001
      outer loop
         vertex 0.000000e+000 6.637149e+000 9.248810e+000
         vertex 1.000000e+001 7.172641e+000 8.927848e+000
         vertex 0.000000e+000 7.172641e+000 8.927848e+000
      endloop
   endfacet
   facet normal 0.000000e+000 5.824682e-001 8.128535e-001
      outer loop
         vertex 0.000000e+000 7.172641e+000 8.927848e+000
         vertex 1.000000e+001 7.172641e+000 8.927848e+000
         vertex 1.000000e+001 7.674095e+000 8.555945e+000
      endloop
   endfacet
   facet normal 0.000000e+000 6.087707e-001 7.933462e-001
      outer loop
         vertex 0.000000e+000 7.172641e+000 8.927848e+000
         vertex 1.000000e+001 7.674095e+000 8.555945e+000
         vertex 0.000000e+000 7.674095e+000 8.555945e+000
      endloop
   endfacet
   facet normal 0.000000e+000 6.593370e-001 7.518475e-001
      outer loop
         vertex 0.000000e+000 7.674095e+000 8.555945e+000
         vertex 1.000000e+001 7.674095e+000 8.555945e+000
         vertex 1.000000e+001 8.136682e+000 8.136682e+000
      endloop
   endfacet
   facet normal 0.000000e+000 6.836008e-001 7.298561e-001
      outer loop
         vertex 0.000000e+000 7.674095e+000 8.555945e+000
         vertex 1.000000e+001 8.136682e+000 8.136682e+000
         vertex 0.000000e+000 8.136682e+000 8.136682e+000
      endloop
   endfacet
   facet normal 0.000000e+000 7.298561e-001 6.836008e-001
      outer loop
         vertex 0.000000e+000 8.136682e+000 8.136682e+000
         vertex 1.000000e+001 8.136682e+000 8.136682e+000
         vertex 1.000000e+001 8.555945e+000 7.674095e+000
      endloop
   endfacet
   facet normal 0.000000e+000 7.518475e-001 6.593370e-001
      outer loop
         vertex 0.000000e+000 8.136682e+000 8.136682e+000
         vertex 1.000000e+001 8.555945e+000 7.674095e+000
         vertex 0.000000e+000 8.555945e+000 7.674095e+000
      endloop
   endfacet
   facet normal 0.000000e+000 7.933462e-001 6.087707e-001
      outer loop
         vertex 0.000000e+000 8.555945e+000 7.674095e+000
         vertex 1.000000e+001 8.555945e+000 7.674095e+000
         vertex 1.000000e+001 8.927849e+000 7.172641e+000
      endloop
   endfacet
   facet normal 0.000000e+000 8.128535e-001 5.824683e-001
      outer loop
         vertex 0.000000e+000 8.555945e+000 7.674095e+000
         vertex 1.000000e+001 8.927849e+000 7.172641e+000
         vertex 0.000000e+000 8.927849e+000 7.172641e+000
      endloop
   endfacet
   facet normal 0.000000e+000 8.491960e-001 5.280778e-001
      outer loop
         vertex 0.000000e+000 8.927849e+000 7.172641e+000
         vertex 1.000000e+001 8.927849e+000 7.172641e+000
         vertex 1.000000e+001 9.248811e+000 6.637148e+000
      endloop
   endfacet
   facet normal 0.000000e+000 8.660313e-001 4.999899e-001
      outer loop
         vertex 0.000000e+000 8.927849e+000 7.172641e+000
         vertex 1.000000e+001 9.248811e+000 6.637148e+000
         vertex 0.000000e+000 9.248811e+000 6.637148e+000
      endloop
   endfacet
   facet normal 0.000000e+000 8.968676e-001 4.422992e-001
      outer loop
         vertex 0.000000e+000 9.248811e+000 6.637148e+000
         vertex 1.000000e+001 9.248811e+000 6.637148e+000
         vertex 1.000000e+001 9.515739e+000 6.072775e+000
      endloop
   endfacet
   facet normal 0.000000e+000 9.108686e-001 4.126964e-001
      outer loop
         vertex 0.000000e+000 9.248811e+000 6.637148e+000
         vertex 1.000000e+001 9.515739e+000 6.072775e+000
         vertex 0.000000e+000 9.515739e+000 6.072775e+000
      endloop
   endfacet
   facet normal 0.000000e+000 9.359018e-001 3.522610e-001
      outer loop
         vertex 0.000000e+000 9.515739e+000 6.072775e+000
         vertex 1.000000e+001 9.515739e+000 6.072775e+000
         vertex 1.000000e+001 9.726065e+000 5.484956e+000
      endloop
   endfacet
   facet normal 0.000000e+000 9.469339e-001 3.214284e-001
      outer loop
         vertex 0.000000e+000 9.515739e+000 6.072775e+000
         vertex 1.000000e+001 9.726065e+000 5.484956e+000
         vertex 0.000000e+000 9.726065e+000 5.484956e+000
      endloop
   endfacet
   facet normal 0.000000e+000 9.659228e-001 2.588304e-001
      outer loop
         vertex 0.000000e+000 9.726065e+000 5.484956e+000
         vertex 1.000000e+001 9.726065e+000 5.484956e+000
         vertex 1.000000e+001 9.877760e+000 4.879352e+000
      endloop
   endfacet
   facet normal 0.000000e+000 9.738796e-001 2.270649e-001
      outer loop
         vertex 0.000000e+000 9.726065e+000 5.484956e+000
         vertex 1.000000e+001 9.877760e+000 4.879352e+000
         vertex 0.000000e+000 9.877760e+000 4.879352e+000
      endloop
   endfacet
   facet normal 0.000000e+000 9.866414e-001 1.629070e-001
      outer loop
         vertex 0.000000e+000 9.877760e+000 4.879352e+000
         vertex 1.000000e+001 9.877760e+000 4.879352e+000
         vertex 1.000000e+001 9.969367e+000 4.261795e+000
      endloop
   endfacet
   facet normal 0.000000e+000 9.914464e-001 1.305146e-001
      outer loop
         vertex 0.000000e+000 9.877760e+000 4.879352e+000
         vertex 1.000000e+001 9.969367e+000 4.261795e+000
         vertex 0.000000e+000 9.969367e+000 4.261795e+000
      endloop
   endfacet
   facet normal 0.000000e+000 9.978582e-001 6.541479e-002
      outer loop
         vertex 0.000000e+000 9.969367e+000 4.261795e+000
         vertex 1.000000e+001 9.969367e+000 4.261795e+000
         vertex 1.000000e+001 1.000000e+001 3.638233e+000
      endloop
   endfacet
   facet normal 0.000000e+000 9.994650e-001 3.270740e-002
      outer loop
         vertex 0.000000e+000 9.969367e+000 4.261795e+000
         vertex 1.000000e+001 1.000000e+001 3.638233e+000
         vertex 0.000000e+000 1.000000e+001 3.638233e+000
      endloop
   endfacet
endsolid