solid 18_273
   facet normal -1.000000e+000 0.000000e+000 0.000000e+000
      outer loop
         vertex 0.000000e+000 1.000000e+001 0.000000e+000
         vertex 0.000000e+000 6.505213e-016 0.000000e+000
         vertex 0.000000e+000 1.000000e+001 1.000000e+001
      endloop
   endfacet
   facet normal -1.000000e+000 0.000000e+000 0.000000e+000
      outer loop
         vertex 0.000000e+000 1.000000e+001 1.000000e+001
         vertex 0.000000e+000 6.505213e-016 0.000000e+000
         vertex 0.000000e+000 6.505213e-016 8.539647e+000
      endloop
   endfacet
   facet normal -1.000000e+000 0.000000e+000 0.000000e+000
      outer loop
         vertex 0.000000e+000 1.000000e+001 1.000000e+001
         vertex 0.000000e+000 6.505213e-016 8.539647e+000
         vertex 0.000000e+000 1.460353e+000 1.000000e+001
      endloop
   endfacet
   facet normal -1.000000e+000 0.000000e+000 0.000000e+000
      outer loop
         vertex 0.000000e+000 5.216563e-001 9.658342e+000
         vertex 0.000000e+000 7.301767e-001 9.804349e+000
         vertex 0.000000e+000 9.608831e-001 9.911929e+000
      endloop
   endfacet
   facet normal -1.000000e+000 0.000000e+000 0.000000e+000
      outer loop
         vertex 0.000000e+000 6.505213e-016 8.539647e+000
         vertex 0.000000e+000 2.218605e-002 8.793234e+000
         vertex 0.000000e+000 1.460353e+000 1.000000e+001
      endloop
   endfacet
   facet normal -1.000000e+000 0.000000e+000 0.000000e+000
      outer loop
         vertex 0.000000e+000 1.460353e+000 1.000000e+001
         vertex 0.000000e+000 2.218605e-002 8.793234e+000
         vertex 0.000000e+000 8.807008e-002 9.039117e+000
      endloop
   endfacet
   facet normal -1.000000e+000 0.000000e+000 0.000000e+000
      outer loop
         vertex 0.000000e+000 1.460353e+000 1.000000e+001
         vertex 0.000000e+000 8.807008e-002 9.039117e+000
         vertex 0.000000e+000 1.956502e-001 9.269823e+000
      endloop
   endfacet
   facet normal -1.000000e+000 0.000000e+000 0.000000e+000
      outer loop
         vertex 0.000000e+000 1.956502e-001 9.269823e+000
         vertex 0.000000e+000 3.416578e-001 9.478344e+000
         vertex 0.000000e+000 1.460353e+000 1.000000e+001
      endloop
   endfacet
   facet normal -1.000000e+000 0.000000e+000 0.000000e+000
      outer loop
         vertex 0.000000e+000 1.460353e+000 1.000000e+001
         vertex 0.000000e+000 3.416578e-001 9.478344e+000
         vertex 0.000000e+000 5.216563e-001 9.658342e+000
      endloop
   endfacet
   facet normal -1.000000e+000 0.000000e+000 0.000000e+000
      outer loop
         vertex 0.000000e+000 1.460353e+000 1.000000e+001
         vertex 0.000000e+000 5.216563e-001 9.658342e+000
         vertex 0.000000e+000 1.206766e+000 9.977814e+000
      endloop
   endfacet
   facet normal -1.000000e+000 0.000000e+000 0.000000e+000
      outer loop
         vertex 0.000000e+000 1.206766e+000 9.977814e+000
         vertex 0.000000e+000 5.216563e-001 9.658342e+000
         vertex 0.000000e+000 9.608831e-001 9.911929e+000
      endloop
   endfacet
   facet normal 0.000000e+000 0.000000e+000 1.000000e+000
      outer loop
         vertex 1.000000e+001 1.460353e+000 1.000000e+001
         vertex 1.000000e+001 1.000000e+001 1.000000e+001
         vertex 0.000000e+000 1.460353e+000 1.000000e+001
      endloop
   endfacet
   facet normal 0.000000e+000 0.000000e+000 1.000000e+000
      outer loop
         vertex 0.000000e+000 1.460353e+000 1.000000e+001
         vertex 1.000000e+001 1.000000e+001 1.000000e+001
         vertex 0.000000e+000 1.000000e+001 1.000000e+001
      endloop
   endfacet
   facet normal 1.000000e+000 0.000000e+000 0.000000e+000
      outer loop
         vertex 1.000000e+001 6.505213e-016 8.539647e+000
         vertex 1.000000e+001 6.505213e-016 0.000000e+000
         vertex 1.000000e+001 1.000000e+001 0.000000e+000
      endloop
   endfacet
   facet normal 1.000000e+000 0.000000e+000 0.000000e+000
      outer loop
         vertex 1.000000e+001 1.956502e-001 9.269823e+000
         vertex 1.000000e+001 8.807008e-002 9.039117e+000
         vertex 1.000000e+001 1.460353e+000 1.000000e+001
      endloop
   endfacet
   facet normal 1.000000e+000 0.000000e+000 0.000000e+000
      outer loop
         vertex 1.000000e+001 9.608831e-001 9.911929e+000
         vertex 1.000000e+001 7.301767e-001 9.804349e+000
         vertex 1.000000e+001 5.216563e-001 9.658342e+000
      endloop
   endfacet
   facet normal 1.000000e+000 0.000000e+000 0.000000e+000
      outer loop
         vertex 1.000000e+001 1.000000e+001 0.000000e+000
         vertex 1.000000e+001 1.000000e+001 1.000000e+001
         vertex 1.000000e+001 6.505213e-016 8.539647e+000
      endloop
   endfacet
   facet normal 1.000000e+000 0.000000e+000 0.000000e+000
      outer loop
         vertex 1.000000e+001 6.505213e-016 8.539647e+000
         vertex 1.000000e+001 1.000000e+001 1.000000e+001
         vertex 1.000000e+001 1.460353e+000 1.000000e+001
      endloop
   endfacet
   facet normal 1.000000e+000 0.000000e+000 0.000000e+000
      outer loop
         vertex 1.000000e+001 6.505213e-016 8.539647e+000
         vertex 1.000000e+001 1.460353e+000 1.000000e+001
         vertex 1.000000e+001 2.218605e-002 8.793234e+000
      endloop
   endfacet
   facet normal 1.000000e+000 0.000000e+000 0.000000e+000
      outer loop
         vertex 1.000000e+001 2.218605e-002 8.793234e+000
         vertex 1.000000e+001 1.460353e+000 1.000000e+001
         vertex 1.000000e+001 8.807008e-002 9.039117e+000
      endloop
   endfacet
   facet normal 1.000000e+000 0.000000e+000 0.000000e+000
      outer loop
         vertex 1.000000e+001 9.608831e-001 9.911929e+000
         vertex 1.000000e+001 5.216563e-001 9.658342e+000
         vertex 1.000000e+001 1.206766e+000 9.977814e+000
      endloop
   endfacet
   facet normal 1.000000e+000 0.000000e+000 0.000000e+000
      outer loop
         vertex 1.000000e+001 1.206766e+000 9.977814e+000
         vertex 1.000000e+001 5.216563e-001 9.658342e+000
         vertex 1.000000e+001 1.460353e+000 1.000000e+001
      endloop
   endfacet
   facet normal 1.000000e+000 0.000000e+000 0.000000e+000
      outer loop
         vertex 1.000000e+001 1.460353e+000 1.000000e+001
         vertex 1.000000e+001 5.216563e-001 9.658342e+000
         vertex 1.000000e+001 3.416578e-001 9.478344e+000
      endloop
   endfacet
   facet normal 1.000000e+000 0.000000e+000 0.000000e+000
      outer loop
         vertex 1.000000e+001 1.460353e+000 1.000000e+001
         vertex 1.000000e+001 3.416578e-001 9.478344e+000
         vertex 1.000000e+001 1.956502e-001 9.269823e+000
      endloop
   endfacet
   facet normal 0.000000e+000 0.000000e+000 -1.000000e+000
      outer loop
         vertex 0.000000e+000 1.000000e+001 0.000000e+000
         vertex 1.000000e+001 1.000000e+001 0.000000e+000
         vertex 0.000000e+000 6.505213e-016 0.000000e+000
      endloop
   endfacet
   facet normal 0.000000e+000 0.000000e+000 -1.000000e+000
      outer loop
         vertex 0.000000e+000 6.505213e-016 0.000000e+000
         vertex 1.000000e+001 1.000000e+001 0.000000e+000
         vertex 1.000000e+001 6.505213e-016 0.000000e+000
      endloop
   endfacet
   facet normal 0.000000e+000 1.000000e+000 0.000000e+000
      outer loop
         vertex 1.000000e+001 1.000000e+001 1.000000e+001
         vertex 1.000000e+001 1.000000e+001 0.000000e+000
         vertex 0.000000e+000 1.000000e+001 1.000000e+001
      endloop
   endfacet
   facet normal 0.000000e+000 1.000000e+000 0.000000e+000
      outer loop
         vertex 0.000000e+000 1.000000e+001 1.000000e+001
         vertex 1.000000e+001 1.000000e+001 0.000000e+000
         vertex 0.000000e+000 1.000000e+001 0.000000e+000
      endloop
   endfacet
   facet normal 0.000000e+000 -1.000000e+000 0.000000e+000
      outer loop
         vertex 0.000000e+000 6.505213e-016 8.539647e+000
         vertex 0.000000e+000 6.505213e-016 0.000000e+000
         vertex 1.000000e+001 6.505213e-016 8.539647e+000
      endloop
   endfacet
   facet normal 0.000000e+000 -1.000000e+000 0.000000e+000
      outer loop
         vertex 1.000000e+001 6.505213e-016 8.539647e+000
         vertex 0.000000e+000 6.505213e-016 0.000000e+000
         vertex 1.000000e+001 6.505213e-016 0.000000e+000
      endloop
   endfacet
   facet normal 0.000000e+000 -5.807913e-002 9.983119e-001
      outer loop
         vertex 1.000000e+001 1.460353e+000 1.000000e+001
         vertex 0.000000e+000 1.460353e+000 1.000000e+001
         vertex 0.000000e+000 1.206766e+000 9.977814e+000
      endloop
   endfacet
   facet normal 0.000000e+000 -1.161583e-001 9.932307e-001
      outer loop
         vertex 1.000000e+001 1.460353e+000 1.000000e+001
         vertex 0.000000e+000 1.206766e+000 9.977814e+000
         vertex 1.000000e+001 1.206766e+000 9.977814e+000
      endloop
   endfacet
   facet normal 0.000000e+000 -2.305519e-001 9.730600e-001
      outer loop
         vertex 1.000000e+001 1.206766e+000 9.977814e+000
         vertex 0.000000e+000 1.206766e+000 9.977814e+000
         vertex 0.000000e+000 9.608831e-001 9.911929e+000
      endloop
   endfacet
   facet normal 0.000000e+000 -2.868663e-001 9.579706e-001
      outer loop
         vertex 1.000000e+001 1.206766e+000 9.977814e+000
         vertex 0.000000e+000 9.608831e-001 9.911929e+000
         vertex 1.000000e+001 9.608831e-001 9.911929e+000
      endloop
   endfacet
   facet normal 0.000000e+000 -3.960194e-001 9.182422e-001
      outer loop
         vertex 1.000000e+001 9.608831e-001 9.911929e+000
         vertex 0.000000e+000 9.608831e-001 9.911929e+000
         vertex 0.000000e+000 7.301767e-001 9.804349e+000
      endloop
   endfacet
   facet normal 0.000000e+000 -4.488580e-001 8.936031e-001
      outer loop
         vertex 1.000000e+001 9.608831e-001 9.911929e+000
         vertex 0.000000e+000 7.301767e-001 9.804349e+000
         vertex 1.000000e+001 7.301767e-001 9.804349e+000
      endloop
   endfacet
   facet normal 0.000000e+000 -5.494540e-001 8.355240e-001
      outer loop
         vertex 1.000000e+001 7.301767e-001 9.804349e+000
         vertex 0.000000e+000 7.301767e-001 9.804349e+000
         vertex 0.000000e+000 5.216563e-001 9.658342e+000
      endloop
   endfacet
   facet normal 0.000000e+000 -5.972114e-001 8.020838e-001
      outer loop
         vertex 1.000000e+001 7.301767e-001 9.804349e+000
         vertex 0.000000e+000 5.216563e-001 9.658342e+000
         vertex 1.000000e+001 5.216563e-001 9.658342e+000
      endloop
   endfacet
   facet normal 0.000000e+000 -6.861938e-001 7.274188e-001
      outer loop
         vertex 1.000000e+001 5.216563e-001 9.658342e+000
         vertex 0.000000e+000 5.216563e-001 9.658342e+000
         vertex 0.000000e+000 3.416578e-001 9.478344e+000
      endloop
   endfacet
   facet normal 0.000000e+000 -7.274188e-001 6.861938e-001
      outer loop
         vertex 1.000000e+001 5.216563e-001 9.658342e+000
         vertex 0.000000e+000 3.416578e-001 9.478344e+000
         vertex 1.000000e+001 3.416578e-001 9.478344e+000
      endloop
   endfacet
   facet normal 0.000000e+000 -8.020838e-001 5.972114e-001
      outer loop
         vertex 1.000000e+001 3.416578e-001 9.478344e+000
         vertex 0.000000e+000 3.416578e-001 9.478344e+000
         vertex 0.000000e+000 1.956502e-001 9.269823e+000
      endloop
   endfacet
   facet normal 0.000000e+000 -8.355240e-001 5.494540e-001
      outer loop
         vertex 1.000000e+001 3.416578e-001 9.478344e+000
         vertex 0.000000e+000 1.956502e-001 9.269823e+000
         vertex 1.000000e+001 1.956502e-001 9.269823e+000
      endloop
   endfacet
   facet normal 0.000000e+000 -8.936031e-001 4.488580e-001
      outer loop
         vertex 1.000000e+001 1.956502e-001 9.269823e+000
         vertex 0.000000e+000 1.956502e-001 9.269823e+000
         vertex 0.000000e+000 8.807008e-002 9.039117e+000
      endloop
   endfacet
   facet normal 0.000000e+000 -9.182422e-001 3.960194e-001
      outer loop
         vertex 1.000000e+001 1.956502e-001 9.269823e+000
         vertex 0.000000e+000 8.807008e-002 9.039117e+000
         vertex 1.000000e+001 8.807008e-002 9.039117e+000
      endloop
   endfacet
   facet normal 0.000000e+000 -9.579706e-001 2.868663e-001
      outer loop
         vertex 1.000000e+001 8.807008e-002 9.039117e+000
         vertex 0.000000e+000 8.807008e-002 9.039117e+000
         vertex 0.000000e+000 2.218605e-002 8.793234e+000
      endloop
   endfacet
   facet normal 0.000000e+000 -9.730600e-001 2.305519e-001
      outer loop
         vertex 1.000000e+001 8.807008e-002 9.039117e+000
         vertex 0.000000e+000 2.218605e-002 8.793234e+000
         vertex 1.000000e+001 2.218605e-002 8.793234e+000
      endloop
   endfacet
   facet normal 0.000000e+000 -9.932307e-001 1.161583e-001
      outer loop
         vertex 1.000000e+001 2.218605e-002 8.793234e+000
         vertex 0.000000e+000 2.218605e-002 8.793234e+000
         vertex 0.000000e+000 0.000000e+000 8.539647e+000
      endloop
   endfacet
   facet normal 0.000000e+000 -9.983119e-001 5.807913e-002
      outer loop
         vertex 1.000000e+001 2.218605e-002 8.793234e+000
         vertex 0.000000e+000 0.000000e+000 8.539647e+000
         vertex 1.000000e+001 0.000000e+000 8.539647e+000
      endloop
   endfacet
endsolid