solid 19_5.57106161117554E-03
   facet normal -1.000000e+000 0.000000e+000 0.000000e+000
      outer loop
         vertex 0.000000e+000 1.000000e+001 4.428938e+000
         vertex 0.000000e+000 1.000000e+001 0.000000e+000
         vertex 0.000000e+000 0.000000e+000 4.428938e+000
      endloop
   endfacet
   facet normal -1.000000e+000 0.000000e+000 0.000000e+000
      outer loop
         vertex 0.000000e+000 0.000000e+000 4.428938e+000
         vertex 0.000000e+000 1.000000e+001 0.000000e+000
         vertex 0.000000e+000 0.000000e+000 0.000000e+000
      endloop
   endfacet
   facet normal 0.000000e+000 0.000000e+000 1.000000e+000
      outer loop
         vertex 5.571062e+000 0.000000e+000 1.000000e+001
         vertex 1.000000e+001 0.000000e+000 1.000000e+001
         vertex 5.571062e+000 1.000000e+001 1.000000e+001
      endloop
   endfacet
   facet normal 0.000000e+000 0.000000e+000 1.000000e+000
      outer loop
         vertex 5.571062e+000 1.000000e+001 1.000000e+001
         vertex 1.000000e+001 0.000000e+000 1.000000e+001
         vertex 1.000000e+001 1.000000e+001 1.000000e+001
      endloop
   endfacet
   facet normal 1.000000e+000 0.000000e+000 0.000000e+000
      outer loop
         vertex 1.000000e+001 1.000000e+001 0.000000e+000
         vertex 1.000000e+001 1.000000e+001 1.000000e+001
         vertex 1.000000e+001 0.000000e+000 0.000000e+000
      endloop
   endfacet
   facet normal 1.000000e+000 0.000000e+000 0.000000e+000
      outer loop
         vertex 1.000000e+001 0.000000e+000 0.000000e+000
         vertex 1.000000e+001 1.000000e+001 1.000000e+001
         vertex 1.000000e+001 0.000000e+000 1.000000e+001
      endloop
   endfacet
   facet normal 0.000000e+000 0.000000e+000 -1.000000e+000
      outer loop
         vertex 0.000000e+000 1.000000e+001 0.000000e+000
         vertex 1.000000e+001 1.000000e+001 0.000000e+000
         vertex 0.000000e+000 0.000000e+000 0.000000e+000
      endloop
   endfacet
   facet normal 0.000000e+000 0.000000e+000 -1.000000e+000
      outer loop
         vertex 0.000000e+000 0.000000e+000 0.000000e+000
         vertex 1.000000e+001 1.000000e+001 0.000000e+000
         vertex 1.000000e+001 0.000000e+000 0.000000e+000
      endloop
   endfacet
   facet normal 0.000000e+000 1.000000e+000 0.000000e+000
      outer loop
         vertex 0.000000e+000 1.000000e+001 0.000000e+000
         vertex 0.000000e+000 1.000000e+001 4.428938e+000
         vertex 1.000000e+001 1.000000e+001 0.000000e+000
      endloop
   endfacet
   facet normal 0.000000e+000 1.000000e+000 0.000000e+000
      outer loop
         vertex 1.000000e+001 1.000000e+001 0.000000e+000
         vertex 0.000000e+000 1.000000e+001 4.428938e+000
         vertex 3.051886e-002 1.000000e+001 5.011272e+000
      endloop
   endfacet
   facet normal 0.000000e+000 1.000000e+000 0.000000e+000
      outer loop
         vertex 3.051886e-002 1.000000e+001 5.011272e+000
         vertex 1.217411e-001 1.000000e+001 5.587227e+000
         vertex 1.000000e+001 1.000000e+001 0.000000e+000
      endloop
   endfacet
   facet normal 0.000000e+000 1.000000e+000 0.000000e+000
      outer loop
         vertex 1.000000e+001 1.000000e+001 0.000000e+000
         vertex 1.217411e-001 1.000000e+001 5.587227e+000
         vertex 2.726671e-001 1.000000e+001 6.150491e+000
      endloop
   endfacet
   facet normal 0.000000e+000 1.000000e+000 0.000000e+000
      outer loop
         vertex 1.000000e+001 1.000000e+001 0.000000e+000
         vertex 2.726671e-001 1.000000e+001 6.150491e+000
         vertex 4.816436e-001 1.000000e+001 6.694893e+000
      endloop
   endfacet
   facet normal 0.000000e+000 1.000000e+000 0.000000e+000
      outer loop
         vertex 4.412773e+000 1.000000e+001 9.878259e+000
         vertex 4.988727e+000 1.000000e+001 9.969481e+000
         vertex 1.000000e+001 1.000000e+001 0.000000e+000
      endloop
   endfacet
   facet normal 0.000000e+000 1.000000e+000 0.000000e+000
      outer loop
         vertex 1.000000e+001 1.000000e+001 0.000000e+000
         vertex 4.988727e+000 1.000000e+001 9.969481e+000
         vertex 5.571062e+000 1.000000e+001 1.000000e+001
      endloop
   endfacet
   facet normal 0.000000e+000 1.000000e+000 0.000000e+000
      outer loop
         vertex 1.000000e+001 1.000000e+001 0.000000e+000
         vertex 5.571062e+000 1.000000e+001 1.000000e+001
         vertex 1.000000e+001 1.000000e+001 1.000000e+001
      endloop
   endfacet
   facet normal 0.000000e+000 1.000000e+000 0.000000e+000
      outer loop
         vertex 4.816436e-001 1.000000e+001 6.694893e+000
         vertex 7.463807e-001 1.000000e+001 7.214469e+000
         vertex 1.000000e+001 1.000000e+001 0.000000e+000
      endloop
   endfacet
   facet normal 0.000000e+000 1.000000e+000 0.000000e+000
      outer loop
         vertex 1.000000e+001 1.000000e+001 0.000000e+000
         vertex 7.463807e-001 1.000000e+001 7.214469e+000
         vertex 1.063978e+000 1.000000e+001 7.703526e+000
      endloop
   endfacet
   facet normal 0.000000e+000 1.000000e+000 0.000000e+000
      outer loop
         vertex 1.000000e+001 1.000000e+001 0.000000e+000
         vertex 1.063978e+000 1.000000e+001 7.703526e+000
         vertex 1.430956e+000 1.000000e+001 8.156706e+000
      endloop
   endfacet
   facet normal 0.000000e+000 1.000000e+000 0.000000e+000
      outer loop
         vertex 1.430956e+000 1.000000e+001 8.156706e+000
         vertex 1.843294e+000 1.000000e+001 8.569044e+000
         vertex 1.000000e+001 1.000000e+001 0.000000e+000
      endloop
   endfacet
   facet normal 0.000000e+000 1.000000e+000 0.000000e+000
      outer loop
         vertex 1.000000e+001 1.000000e+001 0.000000e+000
         vertex 1.843294e+000 1.000000e+001 8.569044e+000
         vertex 2.296474e+000 1.000000e+001 8.936022e+000
      endloop
   endfacet
   facet normal 0.000000e+000 1.000000e+000 0.000000e+000
      outer loop
         vertex 1.000000e+001 1.000000e+001 0.000000e+000
         vertex 2.296474e+000 1.000000e+001 8.936022e+000
         vertex 2.785531e+000 1.000000e+001 9.253619e+000
      endloop
   endfacet
   facet normal 0.000000e+000 1.000000e+000 0.000000e+000
      outer loop
         vertex 2.785531e+000 1.000000e+001 9.253619e+000
         vertex 3.305107e+000 1.000000e+001 9.518356e+000
         vertex 1.000000e+001 1.000000e+001 0.000000e+000
      endloop
   endfacet
   facet normal 0.000000e+000 1.000000e+000 0.000000e+000
      outer loop
         vertex 1.000000e+001 1.000000e+001 0.000000e+000
         vertex 3.305107e+000 1.000000e+001 9.518356e+000
         vertex 3.849509e+000 1.000000e+001 9.727333e+000
      endloop
   endfacet
   facet normal 0.000000e+000 1.000000e+000 0.000000e+000
      outer loop
         vertex 1.000000e+001 1.000000e+001 0.000000e+000
         vertex 3.849509e+000 1.000000e+001 9.727333e+000
         vertex 4.412773e+000 1.000000e+001 9.878259e+000
      endloop
   endfacet
   facet normal 0.000000e+000 -1.000000e+000 0.000000e+000
      outer loop
         vertex 1.000000e+001 0.000000e+000 0.000000e+000
         vertex 1.000000e+001 0.000000e+000 1.000000e+001
         vertex 5.571062e+000 0.000000e+000 1.000000e+001
      endloop
   endfacet
   facet normal 0.000000e+000 -1.000000e+000 0.000000e+000
      outer loop
         vertex 2.726671e-001 0.000000e+000 6.150491e+000
         vertex 1.217411e-001 0.000000e+000 5.587227e+000
         vertex 1.000000e+001 0.000000e+000 0.000000e+000
      endloop
   endfacet
   facet normal 0.000000e+000 -1.000000e+000 0.000000e+000
      outer loop
         vertex 1.217411e-001 0.000000e+000 5.587227e+000
         vertex 3.051886e-002 0.000000e+000 5.011272e+000
         vertex 1.000000e+001 0.000000e+000 0.000000e+000
      endloop
   endfacet
   facet normal 0.000000e+000 -1.000000e+000 0.000000e+000
      outer loop
         vertex 1.000000e+001 0.000000e+000 0.000000e+000
         vertex 3.051886e-002 0.000000e+000 5.011272e+000
         vertex 0.000000e+000 0.000000e+000 4.428938e+000
      endloop
   endfacet
   facet normal 0.000000e+000 -1.000000e+000 0.000000e+000
      outer loop
         vertex 1.000000e+001 0.000000e+000 0.000000e+000
         vertex 0.000000e+000 0.000000e+000 4.428938e+000
         vertex 0.000000e+000 0.000000e+000 0.000000e+000
      endloop
   endfacet
   facet normal 0.000000e+000 -1.000000e+000 0.000000e+000
      outer loop
         vertex 5.571062e+000 0.000000e+000 1.000000e+001
         vertex 4.988727e+000 0.000000e+000 9.969481e+000
         vertex 1.000000e+001 0.000000e+000 0.000000e+000
      endloop
   endfacet
   facet normal 0.000000e+000 -1.000000e+000 0.000000e+000
      outer loop
         vertex 1.000000e+001 0.000000e+000 0.000000e+000
         vertex 4.988727e+000 0.000000e+000 9.969481e+000
         vertex 4.412773e+000 0.000000e+000 9.878259e+000
      endloop
   endfacet
   facet normal 0.000000e+000 -1.000000e+000 0.000000e+000
      outer loop
         vertex 1.000000e+001 0.000000e+000 0.000000e+000
         vertex 4.412773e+000 0.000000e+000 9.878259e+000
         vertex 3.849509e+000 0.000000e+000 9.727333e+000
      endloop
   endfacet
   facet normal 0.000000e+000 -1.000000e+000 0.000000e+000
      outer loop
         vertex 3.849509e+000 0.000000e+000 9.727333e+000
         vertex 3.305107e+000 0.000000e+000 9.518356e+000
         vertex 1.000000e+001 0.000000e+000 0.000000e+000
      endloop
   endfacet
   facet normal 0.000000e+000 -1.000000e+000 0.000000e+000
      outer loop
         vertex 1.000000e+001 0.000000e+000 0.000000e+000
         vertex 3.305107e+000 0.000000e+000 9.518356e+000
         vertex 2.785531e+000 0.000000e+000 9.253619e+000
      endloop
   endfacet
   facet normal 0.000000e+000 -1.000000e+000 0.000000e+000
      outer loop
         vertex 1.000000e+001 0.000000e+000 0.000000e+000
         vertex 2.785531e+000 0.000000e+000 9.253619e+000
         vertex 2.296474e+000 0.000000e+000 8.936022e+000
      endloop
   endfacet
   facet normal 0.000000e+000 -1.000000e+000 0.000000e+000
      outer loop
         vertex 2.296474e+000 0.000000e+000 8.936022e+000
         vertex 1.843294e+000 0.000000e+000 8.569044e+000
         vertex 1.000000e+001 0.000000e+000 0.000000e+000
      endloop
   endfacet
   facet normal 0.000000e+000 -1.000000e+000 0.000000e+000
      outer loop
         vertex 1.000000e+001 0.000000e+000 0.000000e+000
         vertex 1.843294e+000 0.000000e+000 8.569044e+000
         vertex 1.430956e+000 0.000000e+000 8.156706e+000
      endloop
   endfacet
   facet normal 0.000000e+000 -1.000000e+000 0.000000e+000
      outer loop
         vertex 1.000000e+001 0.000000e+000 0.000000e+000
         vertex 1.430956e+000 0.000000e+000 8.156706e+000
         vertex 1.063978e+000 0.000000e+000 7.703526e+000
      endloop
   endfacet
   facet normal 0.000000e+000 -1.000000e+000 0.000000e+000
      outer loop
         vertex 1.063978e+000 0.000000e+000 7.703526e+000
         vertex 7.463807e-001 0.000000e+000 7.214469e+000
         vertex 1.000000e+001 0.000000e+000 0.000000e+000
      endloop
   endfacet
   facet normal 0.000000e+000 -1.000000e+000 0.000000e+000
      outer loop
         vertex 1.000000e+001 0.000000e+000 0.000000e+000
         vertex 7.463807e-001 0.000000e+000 7.214469e+000
         vertex 4.816436e-001 0.000000e+000 6.694893e+000
      endloop
   endfacet
   facet normal 0.000000e+000 -1.000000e+000 0.000000e+000
      outer loop
         vertex 1.000000e+001 0.000000e+000 0.000000e+000
         vertex 4.816436e-001 0.000000e+000 6.694893e+000
         vertex 2.726671e-001 0.000000e+000 6.150491e+000
      endloop
   endfacet
   facet normal -9.993913e-001 0.000000e+000 3.488532e-002
      outer loop
         vertex 0.000000e+000 1.000000e+001 4.428938e+000
         vertex 0.000000e+000 0.000000e+000 4.428938e+000
         vertex 3.051886e-002 0.000000e+000 5.011272e+000
      endloop
   endfacet
   facet normal -9.975630e-001 0.000000e+000 6.977063e-002
      outer loop
         vertex 0.000000e+000 1.000000e+001 4.428938e+000
         vertex 3.051886e-002 0.000000e+000 5.011272e+000
         vertex 3.051886e-002 1.000000e+001 5.011272e+000
      endloop
   endfacet
   facet normal -9.902700e-001 0.000000e+000 1.391590e-001
      outer loop
         vertex 3.051886e-002 1.000000e+001 5.011272e+000
         vertex 3.051886e-002 0.000000e+000 5.011272e+000
         vertex 1.217411e-001 0.000000e+000 5.587227e+000
      endloop
   endfacet
   facet normal -9.848053e-001 0.000000e+000 1.736622e-001
      outer loop
         vertex 3.051886e-002 1.000000e+001 5.011272e+000
         vertex 1.217411e-001 0.000000e+000 5.587227e+000
         vertex 1.217411e-001 1.000000e+001 5.587227e+000
      endloop
   endfacet
   facet normal -9.702991e-001 0.000000e+000 2.419081e-001
      outer loop
         vertex 1.217411e-001 1.000000e+001 5.587227e+000
         vertex 1.217411e-001 0.000000e+000 5.587227e+000
         vertex 2.726671e-001 0.000000e+000 6.150491e+000
      endloop
   endfacet
   facet normal -9.612578e-001 0.000000e+000 2.756510e-001
      outer loop
         vertex 1.217411e-001 1.000000e+001 5.587227e+000
         vertex 2.726671e-001 0.000000e+000 6.150491e+000
         vertex 2.726671e-001 1.000000e+001 6.150491e+000
      endloop
   endfacet
   facet normal -9.396975e-001 0.000000e+000 3.420068e-001
      outer loop
         vertex 2.726671e-001 1.000000e+001 6.150491e+000
         vertex 2.726671e-001 0.000000e+000 6.150491e+000
         vertex 4.816436e-001 0.000000e+000 6.694893e+000
      endloop
   endfacet
   facet normal -9.271786e-001 0.000000e+000 3.746197e-001
      outer loop
         vertex 2.726671e-001 1.000000e+001 6.150491e+000
         vertex 4.816436e-001 0.000000e+000 6.694893e+000
         vertex 4.816436e-001 1.000000e+001 6.694893e+000
      endloop
   endfacet
   facet normal -8.988003e-001 0.000000e+000 4.383584e-001
      outer loop
         vertex 4.816436e-001 1.000000e+001 6.694893e+000
         vertex 4.816436e-001 0.000000e+000 6.694893e+000
         vertex 7.463807e-001 0.000000e+000 7.214469e+000
      endloop
   endfacet
   facet normal -8.829409e-001 0.000000e+000 4.694841e-001
      outer loop
         vertex 4.816436e-001 1.000000e+001 6.694893e+000
         vertex 7.463807e-001 0.000000e+000 7.214469e+000
         vertex 7.463807e-001 1.000000e+001 7.214469e+000
      endloop
   endfacet
   facet normal -8.480556e-001 0.000000e+000 5.299072e-001
      outer loop
         vertex 7.463807e-001 1.000000e+001 7.214469e+000
         vertex 7.463807e-001 0.000000e+000 7.214469e+000
         vertex 1.063978e+000 0.000000e+000 7.703526e+000
      endloop
   endfacet
   facet normal -8.290296e-001 0.000000e+000 5.592046e-001
      outer loop
         vertex 7.463807e-001 1.000000e+001 7.214469e+000
         vertex 1.063978e+000 0.000000e+000 7.703526e+000
         vertex 1.063978e+000 1.000000e+001 7.703526e+000
      endloop
   endfacet
   facet normal -7.880195e-001 0.000000e+000 6.156502e-001
      outer loop
         vertex 1.063978e+000 1.000000e+001 7.703526e+000
         vertex 1.063978e+000 0.000000e+000 7.703526e+000
         vertex 1.430956e+000 0.000000e+000 8.156706e+000
      endloop
   endfacet
   facet normal -7.660353e-001 0.000000e+000 6.427984e-001
      outer loop
         vertex 1.063978e+000 1.000000e+001 7.703526e+000
         vertex 1.430956e+000 0.000000e+000 8.156706e+000
         vertex 1.430956e+000 1.000000e+001 8.156706e+000
      endloop
   endfacet
   facet normal -7.193496e-001 0.000000e+000 6.946481e-001
      outer loop
         vertex 1.430956e+000 1.000000e+001 8.156706e+000
         vertex 1.430956e+000 0.000000e+000 8.156706e+000
         vertex 1.843294e+000 0.000000e+000 8.569044e+000
      endloop
   endfacet
   facet normal -6.946481e-001 0.000000e+000 7.193496e-001
      outer loop
         vertex 1.430956e+000 1.000000e+001 8.156706e+000
         vertex 1.843294e+000 0.000000e+000 8.569044e+000
         vertex 1.843294e+000 1.000000e+001 8.569044e+000
      endloop
   endfacet
   facet normal -6.427985e-001 0.000000e+000 7.660353e-001
      outer loop
         vertex 1.843294e+000 1.000000e+001 8.569044e+000
         vertex 1.843294e+000 0.000000e+000 8.569044e+000
         vertex 2.296474e+000 0.000000e+000 8.936022e+000
      endloop
   endfacet
   facet normal -6.156502e-001 0.000000e+000 7.880195e-001
      outer loop
         vertex 1.843294e+000 1.000000e+001 8.569044e+000
         vertex 2.296474e+000 0.000000e+000 8.936022e+000
         vertex 2.296474e+000 1.000000e+001 8.936022e+000
      endloop
   endfacet
   facet normal -5.592046e-001 0.000000e+000 8.290296e-001
      outer loop
         vertex 2.296474e+000 1.000000e+001 8.936022e+000
         vertex 2.296474e+000 0.000000e+000 8.936022e+000
         vertex 2.785531e+000 0.000000e+000 9.253619e+000
      endloop
   endfacet
   facet normal -5.299072e-001 0.000000e+000 8.480556e-001
      outer loop
         vertex 2.296474e+000 1.000000e+001 8.936022e+000
         vertex 2.785531e+000 0.000000e+000 9.253619e+000
         vertex 2.785531e+000 1.000000e+001 9.253619e+000
      endloop
   endfacet
   facet normal -4.694841e-001 0.000000e+000 8.829409e-001
      outer loop
         vertex 2.785531e+000 1.000000e+001 9.253619e+000
         vertex 2.785531e+000 0.000000e+000 9.253619e+000
         vertex 3.305107e+000 0.000000e+000 9.518356e+000
      endloop
   endfacet
   facet normal -4.383584e-001 0.000000e+000 8.988003e-001
      outer loop
         vertex 2.785531e+000 1.000000e+001 9.253619e+000
         vertex 3.305107e+000 0.000000e+000 9.518356e+000
         vertex 3.305107e+000 1.000000e+001 9.518356e+000
      endloop
   endfacet
   facet normal -3.746197e-001 0.000000e+000 9.271786e-001
      outer loop
         vertex 3.305107e+000 1.000000e+001 9.518356e+000
         vertex 3.305107e+000 0.000000e+000 9.518356e+000
         vertex 3.849509e+000 0.000000e+000 9.727333e+000
      endloop
   endfacet
   facet normal -3.420068e-001 0.000000e+000 9.396974e-001
      outer loop
         vertex 3.305107e+000 1.000000e+001 9.518356e+000
         vertex 3.849509e+000 0.000000e+000 9.727333e+000
         vertex 3.849509e+000 1.000000e+001 9.727333e+000
      endloop
   endfacet
   facet normal -2.756510e-001 0.000000e+000 9.612578e-001
      outer loop
         vertex 3.849509e+000 1.000000e+001 9.727333e+000
         vertex 3.849509e+000 0.000000e+000 9.727333e+000
         vertex 4.412773e+000 0.000000e+000 9.878259e+000
      endloop
   endfacet
   facet normal -2.419081e-001 0.000000e+000 9.702991e-001
      outer loop
         vertex 3.849509e+000 1.000000e+001 9.727333e+000
         vertex 4.412773e+000 0.000000e+000 9.878259e+000
         vertex 4.412773e+000 1.000000e+001 9.878259e+000
      endloop
   endfacet
   facet normal -1.736622e-001 0.000000e+000 9.848053e-001
      outer loop
         vertex 4.412773e+000 1.000000e+001 9.878259e+000
         vertex 4.412773e+000 0.000000e+000 9.878259e+000
         vertex 4.988727e+000 0.000000e+000 9.969481e+000
      endloop
   endfacet
   facet normal -1.391590e-001 0.000000e+000 9.902700e-001
      outer loop
         vertex 4.412773e+000 1.000000e+001 9.878259e+000
         vertex 4.988727e+000 0.000000e+000 9.969481e+000
         vertex 4.988727e+000 1.000000e+001 9.969481e+000
      endloop
   endfacet
   facet normal -6.977063e-002 0.000000e+000 9.975630e-001
      outer loop
         vertex 4.988727e+000 1.000000e+001 9.969481e+000
         vertex 4.988727e+000 0.000000e+000 9.969481e+000
         vertex 5.571062e+000 0.000000e+000 1.000000e+001
      endloop
   endfacet
   facet normal -3.488532e-002 0.000000e+000 9.993913e-001
      outer loop
         vertex 4.988727e+000 1.000000e+001 9.969481e+000
         vertex 5.571062e+000 0.000000e+000 1.000000e+001
         vertex 5.571062e+000 1.000000e+001 1.000000e+001
      endloop
   endfacet
endsolid