solid 17_250
   facet normal -1.000000e+000 0.000000e+000 0.000000e+000
      outer loop
         vertex 0.000000e+000 1.000000e+001 2.378649e+000
         vertex 0.000000e+000 1.000000e+001 0.000000e+000
         vertex 0.000000e+000 2.135367e+000 2.378649e+000
      endloop
   endfacet
   facet normal -1.000000e+000 0.000000e+000 0.000000e+000
      outer loop
         vertex 0.000000e+000 2.135367e+000 2.378649e+000
         vertex 0.000000e+000 1.000000e+001 0.000000e+000
         vertex 0.000000e+000 0.000000e+000 0.000000e+000
      endloop
   endfacet
   facet normal -1.000000e+000 0.000000e+000 0.000000e+000
      outer loop
         vertex 0.000000e+000 2.135367e+000 2.378649e+000
         vertex 0.000000e+000 0.000000e+000 0.000000e+000
         vertex 0.000000e+000 2.135367e+000 1.000000e+001
      endloop
   endfacet
   facet normal -1.000000e+000 0.000000e+000 0.000000e+000
      outer loop
         vertex 0.000000e+000 2.135367e+000 1.000000e+001
         vertex 0.000000e+000 0.000000e+000 0.000000e+000
         vertex 0.000000e+000 0.000000e+000 1.000000e+001
      endloop
   endfacet
   facet normal 0.000000e+000 0.000000e+000 1.000000e+000
      outer loop
         vertex 0.000000e+000 2.135367e+000 1.000000e+001
         vertex 0.000000e+000 0.000000e+000 1.000000e+001
         vertex 1.000000e+001 5.643854e+000 1.000000e+001
      endloop
   endfacet
   facet normal 0.000000e+000 0.000000e+000 1.000000e+000
      outer loop
         vertex 1.000000e+001 5.643854e+000 1.000000e+001
         vertex 0.000000e+000 0.000000e+000 1.000000e+001
         vertex 1.000000e+001 0.000000e+000 1.000000e+001
      endloop
   endfacet
   facet normal 1.000000e+000 0.000000e+000 0.000000e+000
      outer loop
         vertex 1.000000e+001 5.643854e+000 1.000000e+001
         vertex 1.000000e+001 0.000000e+000 1.000000e+001
         vertex 1.000000e+001 5.643854e+000 2.378649e+000
      endloop
   endfacet
   facet normal 1.000000e+000 0.000000e+000 0.000000e+000
      outer loop
         vertex 1.000000e+001 5.643854e+000 2.378649e+000
         vertex 1.000000e+001 0.000000e+000 1.000000e+001
         vertex 1.000000e+001 0.000000e+000 0.000000e+000
      endloop
   endfacet
   facet normal 1.000000e+000 0.000000e+000 0.000000e+000
      outer loop
         vertex 1.000000e+001 5.643854e+000 2.378649e+000
         vertex 1.000000e+001 0.000000e+000 0.000000e+000
         vertex 1.000000e+001 1.000000e+001 2.378649e+000
      endloop
   endfacet
   facet normal 1.000000e+000 0.000000e+000 0.000000e+000
      outer loop
         vertex 1.000000e+001 1.000000e+001 2.378649e+000
         vertex 1.000000e+001 0.000000e+000 0.000000e+000
         vertex 1.000000e+001 1.000000e+001 0.000000e+000
      endloop
   endfacet
   facet normal 0.000000e+000 0.000000e+000 -1.000000e+000
      outer loop
         vertex 0.000000e+000 1.000000e+001 0.000000e+000
         vertex 1.000000e+001 1.000000e+001 0.000000e+000
         vertex 0.000000e+000 0.000000e+000 0.000000e+000
      endloop
   endfacet
   facet normal 0.000000e+000 0.000000e+000 -1.000000e+000
      outer loop
         vertex 0.000000e+000 0.000000e+000 0.000000e+000
         vertex 1.000000e+001 1.000000e+001 0.000000e+000
         vertex 1.000000e+001 0.000000e+000 0.000000e+000
      endloop
   endfacet
   facet normal 0.000000e+000 1.000000e+000 0.000000e+000
      outer loop
         vertex 1.000000e+001 1.000000e+001 2.378649e+000
         vertex 1.000000e+001 1.000000e+001 0.000000e+000
         vertex 0.000000e+000 1.000000e+001 2.378649e+000
      endloop
   endfacet
   facet normal 0.000000e+000 1.000000e+000 0.000000e+000
      outer loop
         vertex 0.000000e+000 1.000000e+001 2.378649e+000
         vertex 1.000000e+001 1.000000e+001 0.000000e+000
         vertex 0.000000e+000 1.000000e+001 0.000000e+000
      endloop
   endfacet
   facet normal 0.000000e+000 -1.000000e+000 0.000000e+000
      outer loop
         vertex 1.000000e+001 0.000000e+000 0.000000e+000
         vertex 1.000000e+001 0.000000e+000 1.000000e+001
         vertex 0.000000e+000 0.000000e+000 0.000000e+000
      endloop
   endfacet
   facet normal 0.000000e+000 -1.000000e+000 0.000000e+000
      outer loop
         vertex 0.000000e+000 0.000000e+000 0.000000e+000
         vertex 1.000000e+001 0.000000e+000 1.000000e+001
         vertex 0.000000e+000 0.000000e+000 1.000000e+001
      endloop
   endfacet
   facet normal -3.310637e-001 9.436085e-001 0.000000e+000
      outer loop
         vertex 1.000000e+001 5.643854e+000 2.378649e+000
         vertex -1.734723e-015 2.135367e+000 2.378649e+000
         vertex 1.000000e+001 5.643854e+000 1.000000e+001
      endloop
   endfacet
   facet normal -3.310637e-001 9.436085e-001 0.000000e+000
      outer loop
         vertex 1.000000e+001 5.643854e+000 1.000000e+001
         vertex -1.734723e-015 2.135367e+000 2.378649e+000
         vertex -1.734723e-015 2.135367e+000 1.000000e+001
      endloop
   endfacet
   facet normal 0.000000e+000 0.000000e+000 1.000000e+000
      outer loop
         vertex 1.000000e+001 1.000000e+001 2.378649e+000
         vertex 0.000000e+000 1.000000e+001 2.378649e+000
         vertex 1.000000e+001 5.643854e+000 2.378649e+000
      endloop
   endfacet
   facet normal 0.000000e+000 0.000000e+000 1.000000e+000
      outer loop
         vertex 1.000000e+001 5.643854e+000 2.378649e+000
         vertex 0.000000e+000 1.000000e+001 2.378649e+000
         vertex 0.000000e+000 2.135367e+000 2.378649e+000
      endloop
   endfacet
endsolid