solid 0_3
   facet normal -1.000000e+000 0.000000e+000 0.000000e+000
      outer loop
         vertex 0.000000e+000 1.000000e+001 1.000000e+001
         vertex 0.000000e+000 1.000000e+001 0.000000e+000
         vertex 0.000000e+000 0.000000e+000 1.000000e+001
      endloop
   endfacet
   facet normal -1.000000e+000 0.000000e+000 0.000000e+000
      outer loop
         vertex 0.000000e+000 0.000000e+000 1.000000e+001
         vertex 0.000000e+000 1.000000e+001 0.000000e+000
         vertex 0.000000e+000 0.000000e+000 0.000000e+000
      endloop
   endfacet
   facet normal 0.000000e+000 0.000000e+000 1.000000e+000
      outer loop
         vertex 8.648187e+000 5.589839e+000 1.000000e+001
         vertex 8.745870e+000 5.182958e+000 1.000000e+001
         vertex 1.000000e+001 1.000000e+001 1.000000e+001
      endloop
   endfacet
   facet normal 0.000000e+000 0.000000e+000 1.000000e+000
      outer loop
         vertex 1.000000e+001 1.000000e+001 1.000000e+001
         vertex 8.745870e+000 5.182958e+000 1.000000e+001
         vertex 8.778701e+000 4.765806e+000 1.000000e+001
      endloop
   endfacet
   facet normal 0.000000e+000 0.000000e+000 1.000000e+000
      outer loop
         vertex 1.000000e+001 1.000000e+001 1.000000e+001
         vertex 8.778701e+000 4.765806e+000 1.000000e+001
         vertex 1.000000e+001 0.000000e+000 1.000000e+001
      endloop
   endfacet
   facet normal 0.000000e+000 0.000000e+000 1.000000e+000
      outer loop
         vertex 1.000000e+001 0.000000e+000 1.000000e+001
         vertex 8.778701e+000 4.765806e+000 1.000000e+001
         vertex 8.745870e+000 4.348654e+000 1.000000e+001
      endloop
   endfacet
   facet normal 0.000000e+000 0.000000e+000 1.000000e+000
      outer loop
         vertex 1.000000e+001 0.000000e+000 1.000000e+001
         vertex 8.745870e+000 4.348654e+000 1.000000e+001
         vertex 8.648187e+000 3.941773e+000 1.000000e+001
      endloop
   endfacet
   facet normal 0.000000e+000 0.000000e+000 1.000000e+000
      outer loop
         vertex 5.288042e+000 2.229694e+000 1.000000e+001
         vertex 4.901452e+000 2.389825e+000 1.000000e+001
         vertex 0.000000e+000 0.000000e+000 1.000000e+001
      endloop
   endfacet
   facet normal 0.000000e+000 0.000000e+000 1.000000e+000
      outer loop
         vertex 0.000000e+000 0.000000e+000 1.000000e+001
         vertex 4.901452e+000 2.389825e+000 1.000000e+001
         vertex 4.544672e+000 2.608460e+000 1.000000e+001
      endloop
   endfacet
   facet normal 0.000000e+000 0.000000e+000 1.000000e+000
      outer loop
         vertex 0.000000e+000 0.000000e+000 1.000000e+001
         vertex 4.544672e+000 2.608460e+000 1.000000e+001
         vertex 4.226486e+000 2.880217e+000 1.000000e+001
      endloop
   endfacet
   facet normal 0.000000e+000 0.000000e+000 1.000000e+000
      outer loop
         vertex 8.648187e+000 3.941773e+000 1.000000e+001
         vertex 8.488056e+000 3.555183e+000 1.000000e+001
         vertex 1.000000e+001 0.000000e+000 1.000000e+001
      endloop
   endfacet
   facet normal 0.000000e+000 0.000000e+000 1.000000e+000
      outer loop
         vertex 1.000000e+001 0.000000e+000 1.000000e+001
         vertex 8.488056e+000 3.555183e+000 1.000000e+001
         vertex 8.269421e+000 3.198402e+000 1.000000e+001
      endloop
   endfacet
   facet normal 0.000000e+000 0.000000e+000 1.000000e+000
      outer loop
         vertex 1.000000e+001 0.000000e+000 1.000000e+001
         vertex 8.269421e+000 3.198402e+000 1.000000e+001
         vertex 7.997663e+000 2.880217e+000 1.000000e+001
      endloop
   endfacet
   facet normal 0.000000e+000 0.000000e+000 1.000000e+000
      outer loop
         vertex 3.575963e+000 5.589839e+000 1.000000e+001
         vertex 3.736094e+000 5.976429e+000 1.000000e+001
         vertex 0.000000e+000 1.000000e+001 1.000000e+001
      endloop
   endfacet
   facet normal 0.000000e+000 0.000000e+000 1.000000e+000
      outer loop
         vertex 0.000000e+000 1.000000e+001 1.000000e+001
         vertex 3.736094e+000 5.976429e+000 1.000000e+001
         vertex 3.954729e+000 6.333209e+000 1.000000e+001
      endloop
   endfacet
   facet normal 0.000000e+000 0.000000e+000 1.000000e+000
      outer loop
         vertex 3.954729e+000 6.333209e+000 1.000000e+001
         vertex 4.226486e+000 6.651395e+000 1.000000e+001
         vertex 0.000000e+000 1.000000e+001 1.000000e+001
      endloop
   endfacet
   facet normal 0.000000e+000 0.000000e+000 1.000000e+000
      outer loop
         vertex 0.000000e+000 1.000000e+001 1.000000e+001
         vertex 4.226486e+000 6.651395e+000 1.000000e+001
         vertex 4.544672e+000 6.923151e+000 1.000000e+001
      endloop
   endfacet
   facet normal 0.000000e+000 0.000000e+000 1.000000e+000
      outer loop
         vertex 0.000000e+000 1.000000e+001 1.000000e+001
         vertex 4.544672e+000 6.923151e+000 1.000000e+001
         vertex 4.901452e+000 7.141787e+000 1.000000e+001
      endloop
   endfacet
   facet normal 0.000000e+000 0.000000e+000 1.000000e+000
      outer loop
         vertex 7.997663e+000 2.880217e+000 1.000000e+001
         vertex 7.679478e+000 2.608460e+000 1.000000e+001
         vertex 1.000000e+001 0.000000e+000 1.000000e+001
      endloop
   endfacet
   facet normal 0.000000e+000 0.000000e+000 1.000000e+000
      outer loop
         vertex 1.000000e+001 0.000000e+000 1.000000e+001
         vertex 7.679478e+000 2.608460e+000 1.000000e+001
         vertex 7.322698e+000 2.389825e+000 1.000000e+001
      endloop
   endfacet
   facet normal 0.000000e+000 0.000000e+000 1.000000e+000
      outer loop
         vertex 1.000000e+001 0.000000e+000 1.000000e+001
         vertex 7.322698e+000 2.389825e+000 1.000000e+001
         vertex 6.936107e+000 2.229694e+000 1.000000e+001
      endloop
   endfacet
   facet normal 0.000000e+000 0.000000e+000 1.000000e+000
      outer loop
         vertex 1.000000e+001 1.000000e+001 1.000000e+001
         vertex 6.529227e+000 7.399601e+000 1.000000e+001
         vertex 6.936107e+000 7.301918e+000 1.000000e+001
      endloop
   endfacet
   facet normal 0.000000e+000 0.000000e+000 1.000000e+000
      outer loop
         vertex 7.997663e+000 6.651395e+000 1.000000e+001
         vertex 8.269421e+000 6.333209e+000 1.000000e+001
         vertex 1.000000e+001 1.000000e+001 1.000000e+001
      endloop
   endfacet
   facet normal 0.000000e+000 0.000000e+000 1.000000e+000
      outer loop
         vertex 1.000000e+001 1.000000e+001 1.000000e+001
         vertex 8.269421e+000 6.333209e+000 1.000000e+001
         vertex 8.488056e+000 5.976429e+000 1.000000e+001
      endloop
   endfacet
   facet normal 0.000000e+000 0.000000e+000 1.000000e+000
      outer loop
         vertex 1.000000e+001 1.000000e+001 1.000000e+001
         vertex 8.488056e+000 5.976429e+000 1.000000e+001
         vertex 8.648187e+000 5.589839e+000 1.000000e+001
      endloop
   endfacet
   facet normal 0.000000e+000 0.000000e+000 1.000000e+000
      outer loop
         vertex 4.226486e+000 2.880217e+000 1.000000e+001
         vertex 3.954729e+000 3.198402e+000 1.000000e+001
         vertex 0.000000e+000 0.000000e+000 1.000000e+001
      endloop
   endfacet
   facet normal 0.000000e+000 0.000000e+000 1.000000e+000
      outer loop
         vertex 0.000000e+000 0.000000e+000 1.000000e+001
         vertex 3.954729e+000 3.198402e+000 1.000000e+001
         vertex 3.736094e+000 3.555183e+000 1.000000e+001
      endloop
   endfacet
   facet normal 0.000000e+000 0.000000e+000 1.000000e+000
      outer loop
         vertex 0.000000e+000 0.000000e+000 1.000000e+001
         vertex 3.736094e+000 3.555183e+000 1.000000e+001
         vertex 3.575963e+000 3.941773e+000 1.000000e+001
      endloop
   endfacet
   facet normal 0.000000e+000 0.000000e+000 1.000000e+000
      outer loop
         vertex 4.901452e+000 7.141787e+000 1.000000e+001
         vertex 5.288042e+000 7.301918e+000 1.000000e+001
         vertex 0.000000e+000 1.000000e+001 1.000000e+001
      endloop
   endfacet
   facet normal 0.000000e+000 0.000000e+000 1.000000e+000
      outer loop
         vertex 0.000000e+000 1.000000e+001 1.000000e+001
         vertex 5.288042e+000 7.301918e+000 1.000000e+001
         vertex 5.694922e+000 7.399601e+000 1.000000e+001
      endloop
   endfacet
   facet normal 0.000000e+000 0.000000e+000 1.000000e+000
      outer loop
         vertex 0.000000e+000 1.000000e+001 1.000000e+001
         vertex 5.694922e+000 7.399601e+000 1.000000e+001
         vertex 1.000000e+001 1.000000e+001 1.000000e+001
      endloop
   endfacet
   facet normal 0.000000e+000 0.000000e+000 1.000000e+000
      outer loop
         vertex 1.000000e+001 1.000000e+001 1.000000e+001
         vertex 5.694922e+000 7.399601e+000 1.000000e+001
         vertex 6.112075e+000 7.432432e+000 1.000000e+001
      endloop
   endfacet
   facet normal 0.000000e+000 0.000000e+000 1.000000e+000
      outer loop
         vertex 1.000000e+001 1.000000e+001 1.000000e+001
         vertex 6.112075e+000 7.432432e+000 1.000000e+001
         vertex 6.529227e+000 7.399601e+000 1.000000e+001
      endloop
   endfacet
   facet normal 0.000000e+000 0.000000e+000 1.000000e+000
      outer loop
         vertex 3.575963e+000 3.941773e+000 1.000000e+001
         vertex 3.478280e+000 4.348654e+000 1.000000e+001
         vertex 0.000000e+000 0.000000e+000 1.000000e+001
      endloop
   endfacet
   facet normal 0.000000e+000 0.000000e+000 1.000000e+000
      outer loop
         vertex 0.000000e+000 0.000000e+000 1.000000e+001
         vertex 3.478280e+000 4.348654e+000 1.000000e+001
         vertex 3.445449e+000 4.765806e+000 1.000000e+001
      endloop
   endfacet
   facet normal 0.000000e+000 0.000000e+000 1.000000e+000
      outer loop
         vertex 0.000000e+000 0.000000e+000 1.000000e+001
         vertex 3.445449e+000 4.765806e+000 1.000000e+001
         vertex 0.000000e+000 1.000000e+001 1.000000e+001
      endloop
   endfacet
   facet normal 0.000000e+000 0.000000e+000 1.000000e+000
      outer loop
         vertex 0.000000e+000 1.000000e+001 1.000000e+001
         vertex 3.445449e+000 4.765806e+000 1.000000e+001
         vertex 3.478280e+000 5.182958e+000 1.000000e+001
      endloop
   endfacet
   facet normal 0.000000e+000 0.000000e+000 1.000000e+000
      outer loop
         vertex 0.000000e+000 1.000000e+001 1.000000e+001
         vertex 3.478280e+000 5.182958e+000 1.000000e+001
         vertex 3.575963e+000 5.589839e+000 1.000000e+001
      endloop
   endfacet
   facet normal 0.000000e+000 0.000000e+000 1.000000e+000
      outer loop
         vertex 6.936107e+000 7.301918e+000 1.000000e+001
         vertex 7.322698e+000 7.141787e+000 1.000000e+001
         vertex 1.000000e+001 1.000000e+001 1.000000e+001
      endloop
   endfacet
   facet normal 0.000000e+000 0.000000e+000 1.000000e+000
      outer loop
         vertex 1.000000e+001 1.000000e+001 1.000000e+001
         vertex 7.322698e+000 7.141787e+000 1.000000e+001
         vertex 7.679478e+000 6.923151e+000 1.000000e+001
      endloop
   endfacet
   facet normal 0.000000e+000 0.000000e+000 1.000000e+000
      outer loop
         vertex 1.000000e+001 1.000000e+001 1.000000e+001
         vertex 7.679478e+000 6.923151e+000 1.000000e+001
         vertex 7.997663e+000 6.651395e+000 1.000000e+001
      endloop
   endfacet
   facet normal 0.000000e+000 0.000000e+000 1.000000e+000
      outer loop
         vertex 6.936107e+000 2.229694e+000 1.000000e+001
         vertex 6.529227e+000 2.132011e+000 1.000000e+001
         vertex 1.000000e+001 0.000000e+000 1.000000e+001
      endloop
   endfacet
   facet normal 0.000000e+000 0.000000e+000 1.000000e+000
      outer loop
         vertex 1.000000e+001 0.000000e+000 1.000000e+001
         vertex 6.529227e+000 2.132011e+000 1.000000e+001
         vertex 6.112075e+000 2.099180e+000 1.000000e+001
      endloop
   endfacet
   facet normal 0.000000e+000 0.000000e+000 1.000000e+000
      outer loop
         vertex 1.000000e+001 0.000000e+000 1.000000e+001
         vertex 6.112075e+000 2.099180e+000 1.000000e+001
         vertex 0.000000e+000 0.000000e+000 1.000000e+001
      endloop
   endfacet
   facet normal 0.000000e+000 0.000000e+000 1.000000e+000
      outer loop
         vertex 0.000000e+000 0.000000e+000 1.000000e+001
         vertex 6.112075e+000 2.099180e+000 1.000000e+001
         vertex 5.694922e+000 2.132011e+000 1.000000e+001
      endloop
   endfacet
   facet normal 0.000000e+000 0.000000e+000 1.000000e+000
      outer loop
         vertex 0.000000e+000 0.000000e+000 1.000000e+001
         vertex 5.694922e+000 2.132011e+000 1.000000e+001
         vertex 5.288042e+000 2.229694e+000 1.000000e+001
      endloop
   endfacet
   facet normal 1.000000e+000 0.000000e+000 0.000000e+000
      outer loop
         vertex 1.000000e+001 1.000000e+001 0.000000e+000
         vertex 1.000000e+001 1.000000e+001 1.000000e+001
         vertex 1.000000e+001 0.000000e+000 0.000000e+000
      endloop
   endfacet
   facet normal 1.000000e+000 0.000000e+000 0.000000e+000
      outer loop
         vertex 1.000000e+001 0.000000e+000 0.000000e+000
         vertex 1.000000e+001 1.000000e+001 1.000000e+001
         vertex 1.000000e+001 0.000000e+000 1.000000e+001
      endloop
   endfacet
   facet normal 0.000000e+000 0.000000e+000 -1.000000e+000
      outer loop
         vertex 0.000000e+000 1.000000e+001 0.000000e+000
         vertex 1.000000e+001 1.000000e+001 0.000000e+000
         vertex 0.000000e+000 0.000000e+000 0.000000e+000
      endloop
   endfacet
   facet normal 0.000000e+000 0.000000e+000 -1.000000e+000
      outer loop
         vertex 0.000000e+000 0.000000e+000 0.000000e+000
         vertex 1.000000e+001 1.000000e+001 0.000000e+000
         vertex 1.000000e+001 0.000000e+000 0.000000e+000
      endloop
   endfacet
   facet normal 0.000000e+000 1.000000e+000 0.000000e+000
      outer loop
         vertex 1.000000e+001 1.000000e+001 1.000000e+001
         vertex 1.000000e+001 1.000000e+001 0.000000e+000
         vertex 0.000000e+000 1.000000e+001 1.000000e+001
      endloop
   endfacet
   facet normal 0.000000e+000 1.000000e+000 0.000000e+000
      outer loop
         vertex 0.000000e+000 1.000000e+001 1.000000e+001
         vertex 1.000000e+001 1.000000e+001 0.000000e+000
         vertex 0.000000e+000 1.000000e+001 0.000000e+000
      endloop
   endfacet
   facet normal 0.000000e+000 -1.000000e+000 0.000000e+000
      outer loop
         vertex 1.000000e+001 0.000000e+000 0.000000e+000
         vertex 1.000000e+001 0.000000e+000 1.000000e+001
         vertex 0.000000e+000 0.000000e+000 0.000000e+000
      endloop
   endfacet
   facet normal 0.000000e+000 -1.000000e+000 0.000000e+000
      outer loop
         vertex 0.000000e+000 0.000000e+000 0.000000e+000
         vertex 1.000000e+001 0.000000e+000 1.000000e+001
         vertex 0.000000e+000 0.000000e+000 1.000000e+001
      endloop
   endfacet
   facet normal -9.986320e-001 5.228807e-002 0.000000e+000
      outer loop
         vertex 8.745870e+000 4.348654e+000 1.730950e+000
         vertex 8.778701e+000 4.765806e+000 1.000000e+001
         vertex 8.778701e+000 4.765806e+000 1.730950e+000
      endloop
   endfacet
   facet normal -9.986320e-001 -5.228807e-002 0.000000e+000
      outer loop
         vertex 8.778701e+000 4.765806e+000 1.730950e+000
         vertex 8.778701e+000 4.765806e+000 1.000000e+001
         vertex 8.745870e+000 5.182958e+000 1.000000e+001
      endloop
   endfacet
   facet normal -9.945168e-001 -1.045761e-001 0.000000e+000
      outer loop
         vertex 8.778701e+000 4.765806e+000 1.730950e+000
         vertex 8.745870e+000 5.182958e+000 1.000000e+001
         vertex 8.745870e+000 5.182958e+000 1.730950e+000
      endloop
   endfacet
   facet normal -9.781576e-001 -2.078648e-001 0.000000e+000
      outer loop
         vertex 8.745870e+000 5.182958e+000 1.730950e+000
         vertex 8.745870e+000 5.182958e+000 1.000000e+001
         vertex 8.648187e+000 5.589839e+000 1.000000e+001
      endloop
   endfacet
   facet normal -9.659134e-001 -2.588653e-001 0.000000e+000
      outer loop
         vertex 8.745870e+000 5.182958e+000 1.730950e+000
         vertex 8.648187e+000 5.589839e+000 1.000000e+001
         vertex 8.648187e+000 5.589839e+000 1.730950e+000
      endloop
   endfacet
   facet normal -9.335976e-001 -3.583232e-001 0.000000e+000
      outer loop
         vertex 8.648187e+000 5.589839e+000 1.730950e+000
         vertex 8.648187e+000 5.589839e+000 1.000000e+001
         vertex 8.488056e+000 5.976429e+000 1.000000e+001
      endloop
   endfacet
   facet normal -9.135259e-001 -4.067805e-001 0.000000e+000
      outer loop
         vertex 8.648187e+000 5.589839e+000 1.730950e+000
         vertex 8.488056e+000 5.976429e+000 1.000000e+001
         vertex 8.488056e+000 5.976429e+000 1.730950e+000
      endloop
   endfacet
   facet normal -8.660494e-001 -4.999584e-001 0.000000e+000
      outer loop
         vertex 8.488056e+000 5.976429e+000 1.730950e+000
         vertex 8.488056e+000 5.976429e+000 1.000000e+001
         vertex 8.269421e+000 6.333209e+000 1.000000e+001
      endloop
   endfacet
   facet normal -8.386444e-001 -5.446792e-001 0.000000e+000
      outer loop
         vertex 8.488056e+000 5.976429e+000 1.730950e+000
         vertex 8.269421e+000 6.333209e+000 1.000000e+001
         vertex 8.269421e+000 6.333209e+000 1.730950e+000
      endloop
   endfacet
   facet normal -7.771761e-001 -6.292831e-001 0.000000e+000
      outer loop
         vertex 8.269421e+000 6.333209e+000 1.730950e+000
         vertex 8.269421e+000 6.333209e+000 1.000000e+001
         vertex 7.997663e+000 6.651395e+000 1.000000e+001
      endloop
   endfacet
   facet normal -7.431127e-001 -6.691663e-001 0.000000e+000
      outer loop
         vertex 8.269421e+000 6.333209e+000 1.730950e+000
         vertex 7.997663e+000 6.651395e+000 1.000000e+001
         vertex 7.997663e+000 6.651395e+000 1.730950e+000
      endloop
   endfacet
   facet normal -6.691663e-001 -7.431127e-001 0.000000e+000
      outer loop
         vertex 7.997663e+000 6.651395e+000 1.730950e+000
         vertex 7.997663e+000 6.651395e+000 1.000000e+001
         vertex 7.679478e+000 6.923151e+000 1.000000e+001
      endloop
   endfacet
   facet normal -6.292831e-001 -7.771761e-001 0.000000e+000
      outer loop
         vertex 7.997663e+000 6.651395e+000 1.730950e+000
         vertex 7.679478e+000 6.923151e+000 1.000000e+001
         vertex 7.679478e+000 6.923151e+000 1.730950e+000
      endloop
   endfacet
   facet normal -5.446792e-001 -8.386444e-001 0.000000e+000
      outer loop
         vertex 7.679478e+000 6.923151e+000 1.730950e+000
         vertex 7.679478e+000 6.923151e+000 1.000000e+001
         vertex 7.322698e+000 7.141787e+000 1.000000e+001
      endloop
   endfacet
   facet normal -4.999584e-001 -8.660494e-001 0.000000e+000
      outer loop
         vertex 7.679478e+000 6.923151e+000 1.730950e+000
         vertex 7.322698e+000 7.141787e+000 1.000000e+001
         vertex 7.322698e+000 7.141787e+000 1.730950e+000
      endloop
   endfacet
   facet normal -4.067805e-001 -9.135259e-001 0.000000e+000
      outer loop
         vertex 7.322698e+000 7.141787e+000 1.730950e+000
         vertex 7.322698e+000 7.141787e+000 1.000000e+001
         vertex 6.936107e+000 7.301918e+000 1.000000e+001
      endloop
   endfacet
   facet normal -3.583232e-001 -9.335976e-001 0.000000e+000
      outer loop
         vertex 7.322698e+000 7.141787e+000 1.730950e+000
         vertex 6.936107e+000 7.301918e+000 1.000000e+001
         vertex 6.936107e+000 7.301918e+000 1.730950e+000
      endloop
   endfacet
   facet normal -2.588653e-001 -9.659134e-001 0.000000e+000
      outer loop
         vertex 6.936107e+000 7.301918e+000 1.730950e+000
         vertex 6.936107e+000 7.301918e+000 1.000000e+001
         vertex 6.529227e+000 7.399601e+000 1.000000e+001
      endloop
   endfacet
   facet normal -2.078648e-001 -9.781575e-001 0.000000e+000
      outer loop
         vertex 6.936107e+000 7.301918e+000 1.730950e+000
         vertex 6.529227e+000 7.399601e+000 1.000000e+001
         vertex 6.529227e+000 7.399601e+000 1.730950e+000
      endloop
   endfacet
   facet normal -1.045761e-001 -9.945168e-001 0.000000e+000
      outer loop
         vertex 6.529227e+000 7.399601e+000 1.730950e+000
         vertex 6.529227e+000 7.399601e+000 1.000000e+001
         vertex 6.112075e+000 7.432432e+000 1.000000e+001
      endloop
   endfacet
   facet normal -5.228807e-002 -9.986320e-001 0.000000e+000
      outer loop
         vertex 6.529227e+000 7.399601e+000 1.730950e+000
         vertex 6.112075e+000 7.432432e+000 1.000000e+001
         vertex 6.112075e+000 7.432432e+000 1.730950e+000
      endloop
   endfacet
   facet normal 5.228807e-002 -9.986320e-001 0.000000e+000
      outer loop
         vertex 6.112075e+000 7.432432e+000 1.730950e+000
         vertex 6.112075e+000 7.432432e+000 1.000000e+001
         vertex 5.694922e+000 7.399601e+000 1.000000e+001
      endloop
   endfacet
   facet normal 1.045761e-001 -9.945168e-001 0.000000e+000
      outer loop
         vertex 6.112075e+000 7.432432e+000 1.730950e+000
         vertex 5.694922e+000 7.399601e+000 1.000000e+001
         vertex 5.694922e+000 7.399601e+000 1.730950e+000
      endloop
   endfacet
   facet normal 2.078648e-001 -9.781576e-001 0.000000e+000
      outer loop
         vertex 5.694922e+000 7.399601e+000 1.730950e+000
         vertex 5.694922e+000 7.399601e+000 1.000000e+001
         vertex 5.288042e+000 7.301918e+000 1.000000e+001
      endloop
   endfacet
   facet normal 2.588653e-001 -9.659134e-001 0.000000e+000
      outer loop
         vertex 5.694922e+000 7.399601e+000 1.730950e+000
         vertex 5.288042e+000 7.301918e+000 1.000000e+001
         vertex 5.288042e+000 7.301918e+000 1.730950e+000
      endloop
   endfacet
   facet normal 3.583232e-001 -9.335976e-001 0.000000e+000
      outer loop
         vertex 5.288042e+000 7.301918e+000 1.730950e+000
         vertex 5.288042e+000 7.301918e+000 1.000000e+001
         vertex 4.901452e+000 7.141787e+000 1.000000e+001
      endloop
   endfacet
   facet normal 4.067805e-001 -9.135259e-001 0.000000e+000
      outer loop
         vertex 5.288042e+000 7.301918e+000 1.730950e+000
         vertex 4.901452e+000 7.141787e+000 1.000000e+001
         vertex 4.901452e+000 7.141787e+000 1.730950e+000
      endloop
   endfacet
   facet normal 4.999584e-001 -8.660494e-001 0.000000e+000
      outer loop
         vertex 4.901452e+000 7.141787e+000 1.730950e+000
         vertex 4.901452e+000 7.141787e+000 1.000000e+001
         vertex 4.544672e+000 6.923151e+000 1.000000e+001
      endloop
   endfacet
   facet normal 5.446792e-001 -8.386444e-001 0.000000e+000
      outer loop
         vertex 4.901452e+000 7.141787e+000 1.730950e+000
         vertex 4.544672e+000 6.923151e+000 1.000000e+001
         vertex 4.544672e+000 6.923151e+000 1.730950e+000
      endloop
   endfacet
   facet normal 6.292831e-001 -7.771761e-001 0.000000e+000
      outer loop
         vertex 4.544672e+000 6.923151e+000 1.730950e+000
         vertex 4.544672e+000 6.923151e+000 1.000000e+001
         vertex 4.226486e+000 6.651395e+000 1.000000e+001
      endloop
   endfacet
   facet normal 6.691663e-001 -7.431127e-001 0.000000e+000
      outer loop
         vertex 4.544672e+000 6.923151e+000 1.730950e+000
         vertex 4.226486e+000 6.651395e+000 1.000000e+001
         vertex 4.226486e+000 6.651395e+000 1.730950e+000
      endloop
   endfacet
   facet normal 7.431127e-001 -6.691663e-001 0.000000e+000
      outer loop
         vertex 4.226486e+000 6.651395e+000 1.730950e+000
         vertex 4.226486e+000 6.651395e+000 1.000000e+001
         vertex 3.954729e+000 6.333209e+000 1.000000e+001
      endloop
   endfacet
   facet normal 7.771761e-001 -6.292831e-001 0.000000e+000
      outer loop
         vertex 4.226486e+000 6.651395e+000 1.730950e+000
         vertex 3.954729e+000 6.333209e+000 1.000000e+001
         vertex 3.954729e+000 6.333209e+000 1.730950e+000
      endloop
   endfacet
   facet normal 8.386444e-001 -5.446792e-001 0.000000e+000
      outer loop
         vertex 3.954729e+000 6.333209e+000 1.730950e+000
         vertex 3.954729e+000 6.333209e+000 1.000000e+001
         vertex 3.736094e+000 5.976429e+000 1.000000e+001
      endloop
   endfacet
   facet normal 8.660494e-001 -4.999584e-001 0.000000e+000
      outer loop
         vertex 3.954729e+000 6.333209e+000 1.730950e+000
         vertex 3.736094e+000 5.976429e+000 1.000000e+001
         vertex 3.736094e+000 5.976429e+000 1.730950e+000
      endloop
   endfacet
   facet normal 9.135259e-001 -4.067805e-001 0.000000e+000
      outer loop
         vertex 3.736094e+000 5.976429e+000 1.730950e+000
         vertex 3.736094e+000 5.976429e+000 1.000000e+001
         vertex 3.575963e+000 5.589839e+000 1.000000e+001
      endloop
   endfacet
   facet normal 9.335976e-001 -3.583232e-001 0.000000e+000
      outer loop
         vertex 3.736094e+000 5.976429e+000 1.730950e+000
         vertex 3.575963e+000 5.589839e+000 1.000000e+001
         vertex 3.575963e+000 5.589839e+000 1.730950e+000
      endloop
   endfacet
   facet normal 9.659134e-001 -2.588653e-001 0.000000e+000
      outer loop
         vertex 3.575963e+000 5.589839e+000 1.730950e+000
         vertex 3.575963e+000 5.589839e+000 1.000000e+001
         vertex 3.478280e+000 5.182958e+000 1.000000e+001
      endloop
   endfacet
   facet normal 9.781575e-001 -2.078648e-001 0.000000e+000
      outer loop
         vertex 3.575963e+000 5.589839e+000 1.730950e+000
         vertex 3.478280e+000 5.182958e+000 1.000000e+001
         vertex 3.478280e+000 5.182958e+000 1.730950e+000
      endloop
   endfacet
   facet normal 9.945168e-001 -1.045761e-001 0.000000e+000
      outer loop
         vertex 3.478280e+000 5.182958e+000 1.730950e+000
         vertex 3.478280e+000 5.182958e+000 1.000000e+001
         vertex 3.445449e+000 4.765806e+000 1.000000e+001
      endloop
   endfacet
   facet normal 9.986320e-001 -5.228807e-002 0.000000e+000
      outer loop
         vertex 3.478280e+000 5.182958e+000 1.730950e+000
         vertex 3.445449e+000 4.765806e+000 1.000000e+001
         vertex 3.445449e+000 4.765806e+000 1.730950e+000
      endloop
   endfacet
   facet normal 9.986320e-001 5.228807e-002 0.000000e+000
      outer loop
         vertex 3.445449e+000 4.765806e+000 1.730950e+000
         vertex 3.445449e+000 4.765806e+000 1.000000e+001
         vertex 3.478280e+000 4.348654e+000 1.000000e+001
      endloop
   endfacet
   facet normal 9.945168e-001 1.045761e-001 0.000000e+000
      outer loop
         vertex 3.445449e+000 4.765806e+000 1.730950e+000
         vertex 3.478280e+000 4.348654e+000 1.000000e+001
         vertex 3.478280e+000 4.348654e+000 1.730950e+000
      endloop
   endfacet
   facet normal 9.781576e-001 2.078648e-001 0.000000e+000
      outer loop
         vertex 3.478280e+000 4.348654e+000 1.730950e+000
         vertex 3.478280e+000 4.348654e+000 1.000000e+001
         vertex 3.575963e+000 3.941773e+000 1.000000e+001
      endloop
   endfacet
   facet normal 9.659134e-001 2.588653e-001 0.000000e+000
      outer loop
         vertex 3.478280e+000 4.348654e+000 1.730950e+000
         vertex 3.575963e+000 3.941773e+000 1.000000e+001
         vertex 3.575963e+000 3.941773e+000 1.730950e+000
      endloop
   endfacet
   facet normal 9.335976e-001 3.583232e-001 0.000000e+000
      outer loop
         vertex 3.575963e+000 3.941773e+000 1.730950e+000
         vertex 3.575963e+000 3.941773e+000 1.000000e+001
         vertex 3.736094e+000 3.555183e+000 1.000000e+001
      endloop
   endfacet
   facet normal 9.135259e-001 4.067805e-001 0.000000e+000
      outer loop
         vertex 3.575963e+000 3.941773e+000 1.730950e+000
         vertex 3.736094e+000 3.555183e+000 1.000000e+001
         vertex 3.736094e+000 3.555183e+000 1.730950e+000
      endloop
   endfacet
   facet normal 8.660494e-001 4.999584e-001 0.000000e+000
      outer loop
         vertex 3.736094e+000 3.555183e+000 1.730950e+000
         vertex 3.736094e+000 3.555183e+000 1.000000e+001
         vertex 3.954729e+000 3.198402e+000 1.000000e+001
      endloop
   endfacet
   facet normal 8.386444e-001 5.446792e-001 0.000000e+000
      outer loop
         vertex 3.736094e+000 3.555183e+000 1.730950e+000
         vertex 3.954729e+000 3.198402e+000 1.000000e+001
         vertex 3.954729e+000 3.198402e+000 1.730950e+000
      endloop
   endfacet
   facet normal 7.771761e-001 6.292831e-001 0.000000e+000
      outer loop
         vertex 3.954729e+000 3.198402e+000 1.730950e+000
         vertex 3.954729e+000 3.198402e+000 1.000000e+001
         vertex 4.226486e+000 2.880217e+000 1.000000e+001
      endloop
   endfacet
   facet normal 7.431127e-001 6.691663e-001 0.000000e+000
      outer loop
         vertex 3.954729e+000 3.198402e+000 1.730950e+000
         vertex 4.226486e+000 2.880217e+000 1.000000e+001
         vertex 4.226486e+000 2.880217e+000 1.730950e+000
      endloop
   endfacet
   facet normal 6.691663e-001 7.431127e-001 0.000000e+000
      outer loop
         vertex 4.226486e+000 2.880217e+000 1.730950e+000
         vertex 4.226486e+000 2.880217e+000 1.000000e+001
         vertex 4.544672e+000 2.608460e+000 1.000000e+001
      endloop
   endfacet
   facet normal 6.292831e-001 7.771761e-001 0.000000e+000
      outer loop
         vertex 4.226486e+000 2.880217e+000 1.730950e+000
         vertex 4.544672e+000 2.608460e+000 1.000000e+001
         vertex 4.544672e+000 2.608460e+000 1.730950e+000
      endloop
   endfacet
   facet normal 5.446792e-001 8.386444e-001 0.000000e+000
      outer loop
         vertex 4.544672e+000 2.608460e+000 1.730950e+000
         vertex 4.544672e+000 2.608460e+000 1.000000e+001
         vertex 4.901452e+000 2.389825e+000 1.000000e+001
      endloop
   endfacet
   facet normal 4.999584e-001 8.660494e-001 0.000000e+000
      outer loop
         vertex 4.544672e+000 2.608460e+000 1.730950e+000
         vertex 4.901452e+000 2.389825e+000 1.000000e+001
         vertex 4.901452e+000 2.389825e+000 1.730950e+000
      endloop
   endfacet
   facet normal 4.067805e-001 9.135259e-001 0.000000e+000
      outer loop
         vertex 4.901452e+000 2.389825e+000 1.730950e+000
         vertex 4.901452e+000 2.389825e+000 1.000000e+001
         vertex 5.288042e+000 2.229694e+000 1.000000e+001
      endloop
   endfacet
   facet normal 3.583232e-001 9.335976e-001 0.000000e+000
      outer loop
         vertex 4.901452e+000 2.389825e+000 1.730950e+000
         vertex 5.288042e+000 2.229694e+000 1.000000e+001
         vertex 5.288042e+000 2.229694e+000 1.730950e+000
      endloop
   endfacet
   facet normal 2.588653e-001 9.659134e-001 0.000000e+000
      outer loop
         vertex 5.288042e+000 2.229694e+000 1.730950e+000
         vertex 5.288042e+000 2.229694e+000 1.000000e+001
         vertex 5.694922e+000 2.132011e+000 1.000000e+001
      endloop
   endfacet
   facet normal 2.078648e-001 9.781575e-001 0.000000e+000
      outer loop
         vertex 5.288042e+000 2.229694e+000 1.730950e+000
         vertex 5.694922e+000 2.132011e+000 1.000000e+001
         vertex 5.694922e+000 2.132011e+000 1.730950e+000
      endloop
   endfacet
   facet normal 1.045761e-001 9.945168e-001 0.000000e+000
      outer loop
         vertex 5.694922e+000 2.132011e+000 1.730950e+000
         vertex 5.694922e+000 2.132011e+000 1.000000e+001
         vertex 6.112075e+000 2.099180e+000 1.000000e+001
      endloop
   endfacet
   facet normal 5.228807e-002 9.986320e-001 0.000000e+000
      outer loop
         vertex 5.694922e+000 2.132011e+000 1.730950e+000
         vertex 6.112075e+000 2.099180e+000 1.000000e+001
         vertex 6.112075e+000 2.099180e+000 1.730950e+000
      endloop
   endfacet
   facet normal -5.228807e-002 9.986320e-001 0.000000e+000
      outer loop
         vertex 6.112075e+000 2.099180e+000 1.730950e+000
         vertex 6.112075e+000 2.099180e+000 1.000000e+001
         vertex 6.529227e+000 2.132011e+000 1.000000e+001
      endloop
   endfacet
   facet normal -1.045761e-001 9.945168e-001 0.000000e+000
      outer loop
         vertex 6.112075e+000 2.099180e+000 1.730950e+000
         vertex 6.529227e+000 2.132011e+000 1.000000e+001
         vertex 6.529227e+000 2.132011e+000 1.730950e+000
      endloop
   endfacet
   facet normal -2.078648e-001 9.781576e-001 0.000000e+000
      outer loop
         vertex 6.529227e+000 2.132011e+000 1.730950e+000
         vertex 6.529227e+000 2.132011e+000 1.000000e+001
         vertex 6.936107e+000 2.229694e+000 1.000000e+001
      endloop
   endfacet
   facet normal -2.588653e-001 9.659134e-001 0.000000e+000
      outer loop
         vertex 6.529227e+000 2.132011e+000 1.730950e+000
         vertex 6.936107e+000 2.229694e+000 1.000000e+001
         vertex 6.936107e+000 2.229694e+000 1.730950e+000
      endloop
   endfacet
   facet normal -3.583232e-001 9.335976e-001 0.000000e+000
      outer loop
         vertex 6.936107e+000 2.229694e+000 1.730950e+000
         vertex 6.936107e+000 2.229694e+000 1.000000e+001
         vertex 7.322698e+000 2.389825e+000 1.000000e+001
      endloop
   endfacet
   facet normal -4.067805e-001 9.135259e-001 0.000000e+000
      outer loop
         vertex 6.936107e+000 2.229694e+000 1.730950e+000
         vertex 7.322698e+000 2.389825e+000 1.000000e+001
         vertex 7.322698e+000 2.389825e+000 1.730950e+000
      endloop
   endfacet
   facet normal -4.999584e-001 8.660494e-001 0.000000e+000
      outer loop
         vertex 7.322698e+000 2.389825e+000 1.730950e+000
         vertex 7.322698e+000 2.389825e+000 1.000000e+001
         vertex 7.679478e+000 2.608460e+000 1.000000e+001
      endloop
   endfacet
   facet normal -5.446792e-001 8.386444e-001 0.000000e+000
      outer loop
         vertex 7.322698e+000 2.389825e+000 1.730950e+000
         vertex 7.679478e+000 2.608460e+000 1.000000e+001
         vertex 7.679478e+000 2.608460e+000 1.730950e+000
      endloop
   endfacet
   facet normal -6.292831e-001 7.771761e-001 0.000000e+000
      outer loop
         vertex 7.679478e+000 2.608460e+000 1.730950e+000
         vertex 7.679478e+000 2.608460e+000 1.000000e+001
         vertex 7.997663e+000 2.880217e+000 1.000000e+001
      endloop
   endfacet
   facet normal -6.691663e-001 7.431127e-001 0.000000e+000
      outer loop
         vertex 7.679478e+000 2.608460e+000 1.730950e+000
         vertex 7.997663e+000 2.880217e+000 1.000000e+001
         vertex 7.997663e+000 2.880217e+000 1.730950e+000
      endloop
   endfacet
   facet normal -7.431127e-001 6.691663e-001 0.000000e+000
      outer loop
         vertex 7.997663e+000 2.880217e+000 1.730950e+000
         vertex 7.997663e+000 2.880217e+000 1.000000e+001
         vertex 8.269421e+000 3.198402e+000 1.000000e+001
      endloop
   endfacet
   facet normal -7.771761e-001 6.292831e-001 0.000000e+000
      outer loop
         vertex 7.997663e+000 2.880217e+000 1.730950e+000
         vertex 8.269421e+000 3.198402e+000 1.000000e+001
         vertex 8.269421e+000 3.198402e+000 1.730950e+000
      endloop
   endfacet
   facet normal -8.386444e-001 5.446792e-001 0.000000e+000
      outer loop
         vertex 8.269421e+000 3.198402e+000 1.730950e+000
         vertex 8.269421e+000 3.198402e+000 1.000000e+001
         vertex 8.488056e+000 3.555183e+000 1.000000e+001
      endloop
   endfacet
   facet normal -8.660494e-001 4.999584e-001 0.000000e+000
      outer loop
         vertex 8.269421e+000 3.198402e+000 1.730950e+000
         vertex 8.488056e+000 3.555183e+000 1.000000e+001
         vertex 8.488056e+000 3.555183e+000 1.730950e+000
      endloop
   endfacet
   facet normal -9.135259e-001 4.067805e-001 0.000000e+000
      outer loop
         vertex 8.488056e+000 3.555183e+000 1.730950e+000
         vertex 8.488056e+000 3.555183e+000 1.000000e+001
         vertex 8.648187e+000 3.941773e+000 1.000000e+001
      endloop
   endfacet
   facet normal -9.335976e-001 3.583232e-001 0.000000e+000
      outer loop
         vertex 8.488056e+000 3.555183e+000 1.730950e+000
         vertex 8.648187e+000 3.941773e+000 1.000000e+001
         vertex 8.648187e+000 3.941773e+000 1.730950e+000
      endloop
   endfacet
   facet normal -9.659134e-001 2.588653e-001 0.000000e+000
      outer loop
         vertex 8.648187e+000 3.941773e+000 1.730950e+000
         vertex 8.648187e+000 3.941773e+000 1.000000e+001
         vertex 8.745870e+000 4.348654e+000 1.000000e+001
      endloop
   endfacet
   facet normal -9.781575e-001 2.078648e-001 0.000000e+000
      outer loop
         vertex 8.648187e+000 3.941773e+000 1.730950e+000
         vertex 8.745870e+000 4.348654e+000 1.000000e+001
         vertex 8.745870e+000 4.348654e+000 1.730950e+000
      endloop
   endfacet
   facet normal -9.945168e-001 1.045761e-001 0.000000e+000
      outer loop
         vertex 8.745870e+000 4.348654e+000 1.730950e+000
         vertex 8.745870e+000 4.348654e+000 1.000000e+001
         vertex 8.778701e+000 4.765806e+000 1.000000e+001
      endloop
   endfacet
   facet normal 0.000000e+000 0.000000e+000 1.000000e+000
      outer loop
         vertex 7.040605e+000 3.659227e+000 1.730950e+000
         vertex 7.997663e+000 2.880217e+000 1.730950e+000
         vertex 7.218654e+000 3.837276e+000 1.730950e+000
      endloop
   endfacet
   facet normal 0.000000e+000 0.000000e+000 1.000000e+000
      outer loop
         vertex 7.218654e+000 3.837276e+000 1.730950e+000
         vertex 7.997663e+000 2.880217e+000 1.730950e+000
         vertex 8.269421e+000 3.198402e+000 1.730950e+000
      endloop
   endfacet
   facet normal 0.000000e+000 0.000000e+000 1.000000e+000
      outer loop
         vertex 7.218654e+000 3.837276e+000 1.730950e+000
         vertex 8.269421e+000 3.198402e+000 1.730950e+000
         vertex 7.363080e+000 4.043538e+000 1.730950e+000
      endloop
   endfacet
   facet normal 0.000000e+000 0.000000e+000 1.000000e+000
      outer loop
         vertex 7.363080e+000 4.043538e+000 1.730950e+000
         vertex 8.269421e+000 3.198402e+000 1.730950e+000
         vertex 8.488056e+000 3.555183e+000 1.730950e+000
      endloop
   endfacet
   facet normal 0.000000e+000 0.000000e+000 1.000000e+000
      outer loop
         vertex 7.363080e+000 4.043538e+000 1.730950e+000
         vertex 8.488056e+000 3.555183e+000 1.730950e+000
         vertex 7.469495e+000 4.271745e+000 1.730950e+000
      endloop
   endfacet
   facet normal 0.000000e+000 0.000000e+000 1.000000e+000
      outer loop
         vertex 7.469495e+000 4.271745e+000 1.730950e+000
         vertex 8.488056e+000 3.555183e+000 1.730950e+000
         vertex 8.648187e+000 3.941773e+000 1.730950e+000
      endloop
   endfacet
   facet normal 0.000000e+000 0.000000e+000 1.000000e+000
      outer loop
         vertex 7.469495e+000 4.271745e+000 1.730950e+000
         vertex 8.648187e+000 3.941773e+000 1.730950e+000
         vertex 7.534665e+000 4.514965e+000 1.730950e+000
      endloop
   endfacet
   facet normal 0.000000e+000 0.000000e+000 1.000000e+000
      outer loop
         vertex 7.534665e+000 4.514965e+000 1.730950e+000
         vertex 8.648187e+000 3.941773e+000 1.730950e+000
         vertex 8.745870e+000 4.348654e+000 1.730950e+000
      endloop
   endfacet
   facet normal 0.000000e+000 0.000000e+000 1.000000e+000
      outer loop
         vertex 7.534665e+000 4.514965e+000 1.730950e+000
         vertex 8.745870e+000 4.348654e+000 1.730950e+000
         vertex 7.556611e+000 4.765806e+000 1.730950e+000
      endloop
   endfacet
   facet normal 0.000000e+000 0.000000e+000 1.000000e+000
      outer loop
         vertex 7.556611e+000 4.765806e+000 1.730950e+000
         vertex 8.745870e+000 4.348654e+000 1.730950e+000
         vertex 8.778701e+000 4.765806e+000 1.730950e+000
      endloop
   endfacet
   facet normal 0.000000e+000 0.000000e+000 1.000000e+000
      outer loop
         vertex 7.556611e+000 4.765806e+000 1.730950e+000
         vertex 8.778701e+000 4.765806e+000 1.730950e+000
         vertex 7.534665e+000 5.016647e+000 1.730950e+000
      endloop
   endfacet
   facet normal 0.000000e+000 0.000000e+000 1.000000e+000
      outer loop
         vertex 7.534665e+000 5.016647e+000 1.730950e+000
         vertex 8.778701e+000 4.765806e+000 1.730950e+000
         vertex 8.745870e+000 5.182958e+000 1.730950e+000
      endloop
   endfacet
   facet normal 0.000000e+000 0.000000e+000 1.000000e+000
      outer loop
         vertex 7.534665e+000 5.016647e+000 1.730950e+000
         vertex 8.745870e+000 5.182958e+000 1.730950e+000
         vertex 7.469495e+000 5.259866e+000 1.730950e+000
      endloop
   endfacet
   facet normal 0.000000e+000 0.000000e+000 1.000000e+000
      outer loop
         vertex 7.469495e+000 5.259866e+000 1.730950e+000
         vertex 8.745870e+000 5.182958e+000 1.730950e+000
         vertex 8.648187e+000 5.589839e+000 1.730950e+000
      endloop
   endfacet
   facet normal 0.000000e+000 0.000000e+000 1.000000e+000
      outer loop
         vertex 7.469495e+000 5.259866e+000 1.730950e+000
         vertex 8.648187e+000 5.589839e+000 1.730950e+000
         vertex 7.363080e+000 5.488074e+000 1.730950e+000
      endloop
   endfacet
   facet normal 0.000000e+000 0.000000e+000 1.000000e+000
      outer loop
         vertex 7.363080e+000 5.488074e+000 1.730950e+000
         vertex 8.648187e+000 5.589839e+000 1.730950e+000
         vertex 8.488056e+000 5.976429e+000 1.730950e+000
      endloop
   endfacet
   facet normal 0.000000e+000 0.000000e+000 1.000000e+000
      outer loop
         vertex 7.363080e+000 5.488074e+000 1.730950e+000
         vertex 8.488056e+000 5.976429e+000 1.730950e+000
         vertex 7.218654e+000 5.694336e+000 1.730950e+000
      endloop
   endfacet
   facet normal 0.000000e+000 0.000000e+000 1.000000e+000
      outer loop
         vertex 8.488056e+000 5.976429e+000 1.730950e+000
         vertex 8.269421e+000 6.333209e+000 1.730950e+000
         vertex 7.218654e+000 5.694336e+000 1.730950e+000
      endloop
   endfacet
   facet normal 0.000000e+000 0.000000e+000 1.000000e+000
      outer loop
         vertex 7.218654e+000 5.694336e+000 1.730950e+000
         vertex 8.269421e+000 6.333209e+000 1.730950e+000
         vertex 7.997663e+000 6.651395e+000 1.730950e+000
      endloop
   endfacet
   facet normal 0.000000e+000 0.000000e+000 1.000000e+000
      outer loop
         vertex 7.218654e+000 5.694336e+000 1.730950e+000
         vertex 7.997663e+000 6.651395e+000 1.730950e+000
         vertex 7.040605e+000 5.872385e+000 1.730950e+000
      endloop
   endfacet
   facet normal 0.000000e+000 0.000000e+000 1.000000e+000
      outer loop
         vertex 7.040605e+000 5.872385e+000 1.730950e+000
         vertex 7.997663e+000 6.651395e+000 1.730950e+000
         vertex 7.679478e+000 6.923151e+000 1.730950e+000
      endloop
   endfacet
   facet normal 0.000000e+000 0.000000e+000 1.000000e+000
      outer loop
         vertex 7.040605e+000 5.872385e+000 1.730950e+000
         vertex 7.679478e+000 6.923151e+000 1.730950e+000
         vertex 6.834342e+000 6.016811e+000 1.730950e+000
      endloop
   endfacet
   facet normal 0.000000e+000 0.000000e+000 1.000000e+000
      outer loop
         vertex 6.834342e+000 6.016811e+000 1.730950e+000
         vertex 7.679478e+000 6.923151e+000 1.730950e+000
         vertex 7.322698e+000 7.141787e+000 1.730950e+000
      endloop
   endfacet
   facet normal 0.000000e+000 0.000000e+000 1.000000e+000
      outer loop
         vertex 6.834342e+000 6.016811e+000 1.730950e+000
         vertex 7.322698e+000 7.141787e+000 1.730950e+000
         vertex 6.606135e+000 6.123226e+000 1.730950e+000
      endloop
   endfacet
   facet normal 0.000000e+000 0.000000e+000 1.000000e+000
      outer loop
         vertex 6.606135e+000 6.123226e+000 1.730950e+000
         vertex 7.322698e+000 7.141787e+000 1.730950e+000
         vertex 6.936107e+000 7.301918e+000 1.730950e+000
      endloop
   endfacet
   facet normal 0.000000e+000 0.000000e+000 1.000000e+000
      outer loop
         vertex 6.606135e+000 6.123226e+000 1.730950e+000
         vertex 6.936107e+000 7.301918e+000 1.730950e+000
         vertex 6.362916e+000 6.188396e+000 1.730950e+000
      endloop
   endfacet
   facet normal 0.000000e+000 0.000000e+000 1.000000e+000
      outer loop
         vertex 6.362916e+000 6.188396e+000 1.730950e+000
         vertex 6.936107e+000 7.301918e+000 1.730950e+000
         vertex 6.529227e+000 7.399601e+000 1.730950e+000
      endloop
   endfacet
   facet normal 0.000000e+000 0.000000e+000 1.000000e+000
      outer loop
         vertex 6.362916e+000 6.188396e+000 1.730950e+000
         vertex 6.529227e+000 7.399601e+000 1.730950e+000
         vertex 6.112075e+000 6.210342e+000 1.730950e+000
      endloop
   endfacet
   facet normal 0.000000e+000 0.000000e+000 1.000000e+000
      outer loop
         vertex 6.112075e+000 6.210342e+000 1.730950e+000
         vertex 6.529227e+000 7.399601e+000 1.730950e+000
         vertex 6.112075e+000 7.432432e+000 1.730950e+000
      endloop
   endfacet
   facet normal 0.000000e+000 0.000000e+000 1.000000e+000
      outer loop
         vertex 6.112075e+000 6.210342e+000 1.730950e+000
         vertex 6.112075e+000 7.432432e+000 1.730950e+000
         vertex 5.861234e+000 6.188396e+000 1.730950e+000
      endloop
   endfacet
   facet normal 0.000000e+000 0.000000e+000 1.000000e+000
      outer loop
         vertex 5.861234e+000 6.188396e+000 1.730950e+000
         vertex 6.112075e+000 7.432432e+000 1.730950e+000
         vertex 5.694922e+000 7.399601e+000 1.730950e+000
      endloop
   endfacet
   facet normal 0.000000e+000 0.000000e+000 1.000000e+000
      outer loop
         vertex 5.861234e+000 6.188396e+000 1.730950e+000
         vertex 5.694922e+000 7.399601e+000 1.730950e+000
         vertex 5.618014e+000 6.123226e+000 1.730950e+000
      endloop
   endfacet
   facet normal 0.000000e+000 0.000000e+000 1.000000e+000
      outer loop
         vertex 5.618014e+000 6.123226e+000 1.730950e+000
         vertex 5.694922e+000 7.399601e+000 1.730950e+000
         vertex 5.288042e+000 7.301918e+000 1.730950e+000
      endloop
   endfacet
   facet normal 0.000000e+000 0.000000e+000 1.000000e+000
      outer loop
         vertex 5.618014e+000 6.123226e+000 1.730950e+000
         vertex 5.288042e+000 7.301918e+000 1.730950e+000
         vertex 5.389807e+000 6.016811e+000 1.730950e+000
      endloop
   endfacet
   facet normal 0.000000e+000 0.000000e+000 1.000000e+000
      outer loop
         vertex 5.389807e+000 6.016811e+000 1.730950e+000
         vertex 5.288042e+000 7.301918e+000 1.730950e+000
         vertex 4.901452e+000 7.141787e+000 1.730950e+000
      endloop
   endfacet
   facet normal 0.000000e+000 0.000000e+000 1.000000e+000
      outer loop
         vertex 5.389807e+000 6.016811e+000 1.730950e+000
         vertex 4.901452e+000 7.141787e+000 1.730950e+000
         vertex 5.183545e+000 5.872385e+000 1.730950e+000
      endloop
   endfacet
   facet normal 0.000000e+000 0.000000e+000 1.000000e+000
      outer loop
         vertex 5.005496e+000 3.837276e+000 1.730950e+000
         vertex 4.226486e+000 2.880217e+000 1.730950e+000
         vertex 5.183545e+000 3.659227e+000 1.730950e+000
      endloop
   endfacet
   facet normal 0.000000e+000 0.000000e+000 1.000000e+000
      outer loop
         vertex 5.183545e+000 3.659227e+000 1.730950e+000
         vertex 4.226486e+000 2.880217e+000 1.730950e+000
         vertex 4.544672e+000 2.608460e+000 1.730950e+000
      endloop
   endfacet
   facet normal 0.000000e+000 0.000000e+000 1.000000e+000
      outer loop
         vertex 5.183545e+000 3.659227e+000 1.730950e+000
         vertex 4.544672e+000 2.608460e+000 1.730950e+000
         vertex 5.389807e+000 3.514801e+000 1.730950e+000
      endloop
   endfacet
   facet normal 0.000000e+000 0.000000e+000 1.000000e+000
      outer loop
         vertex 5.389807e+000 3.514801e+000 1.730950e+000
         vertex 4.544672e+000 2.608460e+000 1.730950e+000
         vertex 4.901452e+000 2.389825e+000 1.730950e+000
      endloop
   endfacet
   facet normal 0.000000e+000 0.000000e+000 1.000000e+000
      outer loop
         vertex 5.389807e+000 3.514801e+000 1.730950e+000
         vertex 4.901452e+000 2.389825e+000 1.730950e+000
         vertex 5.618014e+000 3.408386e+000 1.730950e+000
      endloop
   endfacet
   facet normal 0.000000e+000 0.000000e+000 1.000000e+000
      outer loop
         vertex 5.618014e+000 3.408386e+000 1.730950e+000
         vertex 4.901452e+000 2.389825e+000 1.730950e+000
         vertex 5.288042e+000 2.229694e+000 1.730950e+000
      endloop
   endfacet
   facet normal 0.000000e+000 0.000000e+000 1.000000e+000
      outer loop
         vertex 5.618014e+000 3.408386e+000 1.730950e+000
         vertex 5.288042e+000 2.229694e+000 1.730950e+000
         vertex 5.861234e+000 3.343215e+000 1.730950e+000
      endloop
   endfacet
   facet normal 0.000000e+000 0.000000e+000 1.000000e+000
      outer loop
         vertex 5.861234e+000 3.343215e+000 1.730950e+000
         vertex 5.288042e+000 2.229694e+000 1.730950e+000
         vertex 5.694922e+000 2.132011e+000 1.730950e+000
      endloop
   endfacet
   facet normal 0.000000e+000 0.000000e+000 1.000000e+000
      outer loop
         vertex 5.861234e+000 3.343215e+000 1.730950e+000
         vertex 5.694922e+000 2.132011e+000 1.730950e+000
         vertex 6.112075e+000 3.321270e+000 1.730950e+000
      endloop
   endfacet
   facet normal 0.000000e+000 0.000000e+000 1.000000e+000
      outer loop
         vertex 6.112075e+000 3.321270e+000 1.730950e+000
         vertex 5.694922e+000 2.132011e+000 1.730950e+000
         vertex 6.112075e+000 2.099180e+000 1.730950e+000
      endloop
   endfacet
   facet normal 0.000000e+000 0.000000e+000 1.000000e+000
      outer loop
         vertex 6.112075e+000 3.321270e+000 1.730950e+000
         vertex 6.112075e+000 2.099180e+000 1.730950e+000
         vertex 6.362916e+000 3.343215e+000 1.730950e+000
      endloop
   endfacet
   facet normal 0.000000e+000 0.000000e+000 1.000000e+000
      outer loop
         vertex 6.362916e+000 3.343215e+000 1.730950e+000
         vertex 6.112075e+000 2.099180e+000 1.730950e+000
         vertex 6.529227e+000 2.132011e+000 1.730950e+000
      endloop
   endfacet
   facet normal 0.000000e+000 0.000000e+000 1.000000e+000
      outer loop
         vertex 6.362916e+000 3.343215e+000 1.730950e+000
         vertex 6.529227e+000 2.132011e+000 1.730950e+000
         vertex 6.606135e+000 3.408386e+000 1.730950e+000
      endloop
   endfacet
   facet normal 0.000000e+000 0.000000e+000 1.000000e+000
      outer loop
         vertex 6.606135e+000 3.408386e+000 1.730950e+000
         vertex 6.529227e+000 2.132011e+000 1.730950e+000
         vertex 6.936107e+000 2.229694e+000 1.730950e+000
      endloop
   endfacet
   facet normal 0.000000e+000 0.000000e+000 1.000000e+000
      outer loop
         vertex 6.606135e+000 3.408386e+000 1.730950e+000
         vertex 6.936107e+000 2.229694e+000 1.730950e+000
         vertex 6.834342e+000 3.514801e+000 1.730950e+000
      endloop
   endfacet
   facet normal 0.000000e+000 0.000000e+000 1.000000e+000
      outer loop
         vertex 6.834342e+000 3.514801e+000 1.730950e+000
         vertex 6.936107e+000 2.229694e+000 1.730950e+000
         vertex 7.322698e+000 2.389825e+000 1.730950e+000
      endloop
   endfacet
   facet normal 0.000000e+000 0.000000e+000 1.000000e+000
      outer loop
         vertex 6.834342e+000 3.514801e+000 1.730950e+000
         vertex 7.322698e+000 2.389825e+000 1.730950e+000
         vertex 7.040605e+000 3.659227e+000 1.730950e+000
      endloop
   endfacet
   facet normal 0.000000e+000 0.000000e+000 1.000000e+000
      outer loop
         vertex 7.040605e+000 3.659227e+000 1.730950e+000
         vertex 7.322698e+000 2.389825e+000 1.730950e+000
         vertex 7.679478e+000 2.608460e+000 1.730950e+000
      endloop
   endfacet
   facet normal 0.000000e+000 0.000000e+000 1.000000e+000
      outer loop
         vertex 7.040605e+000 3.659227e+000 1.730950e+000
         vertex 7.679478e+000 2.608460e+000 1.730950e+000
         vertex 7.997663e+000 2.880217e+000 1.730950e+000
      endloop
   endfacet
   facet normal 0.000000e+000 0.000000e+000 1.000000e+000
      outer loop
         vertex 4.901452e+000 7.141787e+000 1.730950e+000
         vertex 4.544672e+000 6.923151e+000 1.730950e+000
         vertex 5.183545e+000 5.872385e+000 1.730950e+000
      endloop
   endfacet
   facet normal 0.000000e+000 0.000000e+000 1.000000e+000
      outer loop
         vertex 5.183545e+000 5.872385e+000 1.730950e+000
         vertex 4.544672e+000 6.923151e+000 1.730950e+000
         vertex 4.226486e+000 6.651395e+000 1.730950e+000
      endloop
   endfacet
   facet normal 0.000000e+000 0.000000e+000 1.000000e+000
      outer loop
         vertex 5.183545e+000 5.872385e+000 1.730950e+000
         vertex 4.226486e+000 6.651395e+000 1.730950e+000
         vertex 5.005496e+000 5.694336e+000 1.730950e+000
      endloop
   endfacet
   facet normal 0.000000e+000 0.000000e+000 1.000000e+000
      outer loop
         vertex 5.005496e+000 5.694336e+000 1.730950e+000
         vertex 4.226486e+000 6.651395e+000 1.730950e+000
         vertex 3.954729e+000 6.333209e+000 1.730950e+000
      endloop
   endfacet
   facet normal 0.000000e+000 0.000000e+000 1.000000e+000
      outer loop
         vertex 5.005496e+000 5.694336e+000 1.730950e+000
         vertex 3.954729e+000 6.333209e+000 1.730950e+000
         vertex 4.861070e+000 5.488074e+000 1.730950e+000
      endloop
   endfacet
   facet normal 0.000000e+000 0.000000e+000 1.000000e+000
      outer loop
         vertex 4.861070e+000 5.488074e+000 1.730950e+000
         vertex 3.954729e+000 6.333209e+000 1.730950e+000
         vertex 3.736094e+000 5.976429e+000 1.730950e+000
      endloop
   endfacet
   facet normal 0.000000e+000 0.000000e+000 1.000000e+000
      outer loop
         vertex 4.861070e+000 5.488074e+000 1.730950e+000
         vertex 3.736094e+000 5.976429e+000 1.730950e+000
         vertex 4.754655e+000 5.259866e+000 1.730950e+000
      endloop
   endfacet
   facet normal 0.000000e+000 0.000000e+000 1.000000e+000
      outer loop
         vertex 4.754655e+000 5.259866e+000 1.730950e+000
         vertex 3.736094e+000 5.976429e+000 1.730950e+000
         vertex 3.575963e+000 5.589839e+000 1.730950e+000
      endloop
   endfacet
   facet normal 0.000000e+000 0.000000e+000 1.000000e+000
      outer loop
         vertex 4.754655e+000 5.259866e+000 1.730950e+000
         vertex 3.575963e+000 5.589839e+000 1.730950e+000
         vertex 4.689485e+000 5.016647e+000 1.730950e+000
      endloop
   endfacet
   facet normal 0.000000e+000 0.000000e+000 1.000000e+000
      outer loop
         vertex 4.689485e+000 5.016647e+000 1.730950e+000
         vertex 3.575963e+000 5.589839e+000 1.730950e+000
         vertex 3.478280e+000 5.182958e+000 1.730950e+000
      endloop
   endfacet
   facet normal 0.000000e+000 0.000000e+000 1.000000e+000
      outer loop
         vertex 4.689485e+000 5.016647e+000 1.730950e+000
         vertex 3.478280e+000 5.182958e+000 1.730950e+000
         vertex 4.667539e+000 4.765806e+000 1.730950e+000
      endloop
   endfacet
   facet normal 0.000000e+000 0.000000e+000 1.000000e+000
      outer loop
         vertex 4.667539e+000 4.765806e+000 1.730950e+000
         vertex 3.478280e+000 5.182958e+000 1.730950e+000
         vertex 3.445449e+000 4.765806e+000 1.730950e+000
      endloop
   endfacet
   facet normal 0.000000e+000 0.000000e+000 1.000000e+000
      outer loop
         vertex 4.667539e+000 4.765806e+000 1.730950e+000
         vertex 3.445449e+000 4.765806e+000 1.730950e+000
         vertex 4.689485e+000 4.514965e+000 1.730950e+000
      endloop
   endfacet
   facet normal 0.000000e+000 0.000000e+000 1.000000e+000
      outer loop
         vertex 4.689485e+000 4.514965e+000 1.730950e+000
         vertex 3.445449e+000 4.765806e+000 1.730950e+000
         vertex 3.478280e+000 4.348654e+000 1.730950e+000
      endloop
   endfacet
   facet normal 0.000000e+000 0.000000e+000 1.000000e+000
      outer loop
         vertex 4.689485e+000 4.514965e+000 1.730950e+000
         vertex 3.478280e+000 4.348654e+000 1.730950e+000
         vertex 4.754655e+000 4.271745e+000 1.730950e+000
      endloop
   endfacet
   facet normal 0.000000e+000 0.000000e+000 1.000000e+000
      outer loop
         vertex 4.754655e+000 4.271745e+000 1.730950e+000
         vertex 3.478280e+000 4.348654e+000 1.730950e+000
         vertex 3.575963e+000 3.941773e+000 1.730950e+000
      endloop
   endfacet
   facet normal 0.000000e+000 0.000000e+000 1.000000e+000
      outer loop
         vertex 4.754655e+000 4.271745e+000 1.730950e+000
         vertex 3.575963e+000 3.941773e+000 1.730950e+000
         vertex 4.861070e+000 4.043538e+000 1.730950e+000
      endloop
   endfacet
   facet normal 0.000000e+000 0.000000e+000 1.000000e+000
      outer loop
         vertex 4.861070e+000 4.043538e+000 1.730950e+000
         vertex 3.575963e+000 3.941773e+000 1.730950e+000
         vertex 3.736094e+000 3.555183e+000 1.730950e+000
      endloop
   endfacet
   facet normal 0.000000e+000 0.000000e+000 1.000000e+000
      outer loop
         vertex 4.861070e+000 4.043538e+000 1.730950e+000
         vertex 3.736094e+000 3.555183e+000 1.730950e+000
         vertex 5.005496e+000 3.837276e+000 1.730950e+000
      endloop
   endfacet
   facet normal 0.000000e+000 0.000000e+000 1.000000e+000
      outer loop
         vertex 5.005496e+000 3.837276e+000 1.730950e+000
         vertex 3.736094e+000 3.555183e+000 1.730950e+000
         vertex 3.954729e+000 3.198402e+000 1.730950e+000
      endloop
   endfacet
   facet normal 0.000000e+000 0.000000e+000 1.000000e+000
      outer loop
         vertex 5.005496e+000 3.837276e+000 1.730950e+000
         vertex 3.954729e+000 3.198402e+000 1.730950e+000
         vertex 4.226486e+000 2.880217e+000 1.730950e+000
      endloop
   endfacet
   facet normal 9.983119e-001 5.807913e-002 0.000000e+000
      outer loop
         vertex 7.534665e+000 5.016647e+000 1.730950e+000
         vertex 7.556611e+000 4.765806e+000 1.000000e+001
         vertex 7.556611e+000 4.765806e+000 1.730950e+000
      endloop
   endfacet
   facet normal 9.983119e-001 -5.807913e-002 0.000000e+000
      outer loop
         vertex 7.556611e+000 4.765806e+000 1.730950e+000
         vertex 7.556611e+000 4.765806e+000 1.000000e+001
         vertex 7.534665e+000 4.514965e+000 1.000000e+001
      endloop
   endfacet
   facet normal 9.932307e-001 -1.161583e-001 0.000000e+000
      outer loop
         vertex 7.556611e+000 4.765806e+000 1.730950e+000
         vertex 7.534665e+000 4.514965e+000 1.000000e+001
         vertex 7.534665e+000 4.514965e+000 1.730950e+000
      endloop
   endfacet
   facet normal 9.730600e-001 -2.305519e-001 0.000000e+000
      outer loop
         vertex 7.534665e+000 4.514965e+000 1.730950e+000
         vertex 7.534665e+000 4.514965e+000 1.000000e+001
         vertex 7.469495e+000 4.271745e+000 1.000000e+001
      endloop
   endfacet
   facet normal 9.579706e-001 -2.868663e-001 0.000000e+000
      outer loop
         vertex 7.534665e+000 4.514965e+000 1.730950e+000
         vertex 7.469495e+000 4.271745e+000 1.000000e+001
         vertex 7.469495e+000 4.271745e+000 1.730950e+000
      endloop
   endfacet
   facet normal 9.182422e-001 -3.960194e-001 0.000000e+000
      outer loop
         vertex 7.469495e+000 4.271745e+000 1.730950e+000
         vertex 7.469495e+000 4.271745e+000 1.000000e+001
         vertex 7.363080e+000 4.043538e+000 1.000000e+001
      endloop
   endfacet
   facet normal 8.936031e-001 -4.488580e-001 0.000000e+000
      outer loop
         vertex 7.469495e+000 4.271745e+000 1.730950e+000
         vertex 7.363080e+000 4.043538e+000 1.000000e+001
         vertex 7.363080e+000 4.043538e+000 1.730950e+000
      endloop
   endfacet
   facet normal 8.355240e-001 -5.494540e-001 0.000000e+000
      outer loop
         vertex 7.363080e+000 4.043538e+000 1.730950e+000
         vertex 7.363080e+000 4.043538e+000 1.000000e+001
         vertex 7.218654e+000 3.837276e+000 1.000000e+001
      endloop
   endfacet
   facet normal 8.020838e-001 -5.972114e-001 0.000000e+000
      outer loop
         vertex 7.363080e+000 4.043538e+000 1.730950e+000
         vertex 7.218654e+000 3.837276e+000 1.000000e+001
         vertex 7.218654e+000 3.837276e+000 1.730950e+000
      endloop
   endfacet
   facet normal 7.274188e-001 -6.861938e-001 0.000000e+000
      outer loop
         vertex 7.218654e+000 3.837276e+000 1.730950e+000
         vertex 7.218654e+000 3.837276e+000 1.000000e+001
         vertex 7.040605e+000 3.659227e+000 1.000000e+001
      endloop
   endfacet
   facet normal 6.861938e-001 -7.274188e-001 0.000000e+000
      outer loop
         vertex 7.218654e+000 3.837276e+000 1.730950e+000
         vertex 7.040605e+000 3.659227e+000 1.000000e+001
         vertex 7.040605e+000 3.659227e+000 1.730950e+000
      endloop
   endfacet
   facet normal 5.972114e-001 -8.020838e-001 0.000000e+000
      outer loop
         vertex 7.040605e+000 3.659227e+000 1.730950e+000
         vertex 7.040605e+000 3.659227e+000 1.000000e+001
         vertex 6.834342e+000 3.514801e+000 1.000000e+001
      endloop
   endfacet
   facet normal 5.494540e-001 -8.355240e-001 0.000000e+000
      outer loop
         vertex 7.040605e+000 3.659227e+000 1.730950e+000
         vertex 6.834342e+000 3.514801e+000 1.000000e+001
         vertex 6.834342e+000 3.514801e+000 1.730950e+000
      endloop
   endfacet
   facet normal 4.488580e-001 -8.936031e-001 0.000000e+000
      outer loop
         vertex 6.834342e+000 3.514801e+000 1.730950e+000
         vertex 6.834342e+000 3.514801e+000 1.000000e+001
         vertex 6.606135e+000 3.408386e+000 1.000000e+001
      endloop
   endfacet
   facet normal 3.960194e-001 -9.182422e-001 0.000000e+000
      outer loop
         vertex 6.834342e+000 3.514801e+000 1.730950e+000
         vertex 6.606135e+000 3.408386e+000 1.000000e+001
         vertex 6.606135e+000 3.408386e+000 1.730950e+000
      endloop
   endfacet
   facet normal 2.868663e-001 -9.579706e-001 0.000000e+000
      outer loop
         vertex 6.606135e+000 3.408386e+000 1.730950e+000
         vertex 6.606135e+000 3.408386e+000 1.000000e+001
         vertex 6.362916e+000 3.343215e+000 1.000000e+001
      endloop
   endfacet
   facet normal 2.305519e-001 -9.730600e-001 0.000000e+000
      outer loop
         vertex 6.606135e+000 3.408386e+000 1.730950e+000
         vertex 6.362916e+000 3.343215e+000 1.000000e+001
         vertex 6.362916e+000 3.343215e+000 1.730950e+000
      endloop
   endfacet
   facet normal 1.161583e-001 -9.932307e-001 0.000000e+000
      outer loop
         vertex 6.362916e+000 3.343215e+000 1.730950e+000
         vertex 6.362916e+000 3.343215e+000 1.000000e+001
         vertex 6.112075e+000 3.321270e+000 1.000000e+001
      endloop
   endfacet
   facet normal 5.807913e-002 -9.983119e-001 0.000000e+000
      outer loop
         vertex 6.362916e+000 3.343215e+000 1.730950e+000
         vertex 6.112075e+000 3.321270e+000 1.000000e+001
         vertex 6.112075e+000 3.321270e+000 1.730950e+000
      endloop
   endfacet
   facet normal -5.807913e-002 -9.983119e-001 0.000000e+000
      outer loop
         vertex 6.112075e+000 3.321270e+000 1.730950e+000
         vertex 6.112075e+000 3.321270e+000 1.000000e+001
         vertex 5.861234e+000 3.343215e+000 1.000000e+001
      endloop
   endfacet
   facet normal -1.161583e-001 -9.932307e-001 0.000000e+000
      outer loop
         vertex 6.112075e+000 3.321270e+000 1.730950e+000
         vertex 5.861234e+000 3.343215e+000 1.000000e+001
         vertex 5.861234e+000 3.343215e+000 1.730950e+000
      endloop
   endfacet
   facet normal -2.305519e-001 -9.730600e-001 0.000000e+000
      outer loop
         vertex 5.861234e+000 3.343215e+000 1.730950e+000
         vertex 5.861234e+000 3.343215e+000 1.000000e+001
         vertex 5.618014e+000 3.408386e+000 1.000000e+001
      endloop
   endfacet
   facet normal -2.868663e-001 -9.579706e-001 0.000000e+000
      outer loop
         vertex 5.861234e+000 3.343215e+000 1.730950e+000
         vertex 5.618014e+000 3.408386e+000 1.000000e+001
         vertex 5.618014e+000 3.408386e+000 1.730950e+000
      endloop
   endfacet
   facet normal -3.960194e-001 -9.182422e-001 0.000000e+000
      outer loop
         vertex 5.618014e+000 3.408386e+000 1.730950e+000
         vertex 5.618014e+000 3.408386e+000 1.000000e+001
         vertex 5.389807e+000 3.514801e+000 1.000000e+001
      endloop
   endfacet
   facet normal -4.488580e-001 -8.936031e-001 0.000000e+000
      outer loop
         vertex 5.618014e+000 3.408386e+000 1.730950e+000
         vertex 5.389807e+000 3.514801e+000 1.000000e+001
         vertex 5.389807e+000 3.514801e+000 1.730950e+000
      endloop
   endfacet
   facet normal -5.494540e-001 -8.355240e-001 0.000000e+000
      outer loop
         vertex 5.389807e+000 3.514801e+000 1.730950e+000
         vertex 5.389807e+000 3.514801e+000 1.000000e+001
         vertex 5.183545e+000 3.659227e+000 1.000000e+001
      endloop
   endfacet
   facet normal -5.972114e-001 -8.020838e-001 0.000000e+000
      outer loop
         vertex 5.389807e+000 3.514801e+000 1.730950e+000
         vertex 5.183545e+000 3.659227e+000 1.000000e+001
         vertex 5.183545e+000 3.659227e+000 1.730950e+000
      endloop
   endfacet
   facet normal -6.861938e-001 -7.274188e-001 0.000000e+000
      outer loop
         vertex 5.183545e+000 3.659227e+000 1.730950e+000
         vertex 5.183545e+000 3.659227e+000 1.000000e+001
         vertex 5.005496e+000 3.837276e+000 1.000000e+001
      endloop
   endfacet
   facet normal -7.274188e-001 -6.861938e-001 0.000000e+000
      outer loop
         vertex 5.183545e+000 3.659227e+000 1.730950e+000
         vertex 5.005496e+000 3.837276e+000 1.000000e+001
         vertex 5.005496e+000 3.837276e+000 1.730950e+000
      endloop
   endfacet
   facet normal -8.020838e-001 -5.972114e-001 0.000000e+000
      outer loop
         vertex 5.005496e+000 3.837276e+000 1.730950e+000
         vertex 5.005496e+000 3.837276e+000 1.000000e+001
         vertex 4.861070e+000 4.043538e+000 1.000000e+001
      endloop
   endfacet
   facet normal -8.355240e-001 -5.494540e-001 0.000000e+000
      outer loop
         vertex 5.005496e+000 3.837276e+000 1.730950e+000
         vertex 4.861070e+000 4.043538e+000 1.000000e+001
         vertex 4.861070e+000 4.043538e+000 1.730950e+000
      endloop
   endfacet
   facet normal -8.936031e-001 -4.488580e-001 0.000000e+000
      outer loop
         vertex 4.861070e+000 4.043538e+000 1.730950e+000
         vertex 4.861070e+000 4.043538e+000 1.000000e+001
         vertex 4.754655e+000 4.271745e+000 1.000000e+001
      endloop
   endfacet
   facet normal -9.182422e-001 -3.960194e-001 0.000000e+000
      outer loop
         vertex 4.861070e+000 4.043538e+000 1.730950e+000
         vertex 4.754655e+000 4.271745e+000 1.000000e+001
         vertex 4.754655e+000 4.271745e+000 1.730950e+000
      endloop
   endfacet
   facet normal -9.579706e-001 -2.868663e-001 0.000000e+000
      outer loop
         vertex 4.754655e+000 4.271745e+000 1.730950e+000
         vertex 4.754655e+000 4.271745e+000 1.000000e+001
         vertex 4.689485e+000 4.514965e+000 1.000000e+001
      endloop
   endfacet
   facet normal -9.730600e-001 -2.305519e-001 0.000000e+000
      outer loop
         vertex 4.754655e+000 4.271745e+000 1.730950e+000
         vertex 4.689485e+000 4.514965e+000 1.000000e+001
         vertex 4.689485e+000 4.514965e+000 1.730950e+000
      endloop
   endfacet
   facet normal -9.932307e-001 -1.161583e-001 0.000000e+000
      outer loop
         vertex 4.689485e+000 4.514965e+000 1.730950e+000
         vertex 4.689485e+000 4.514965e+000 1.000000e+001
         vertex 4.667539e+000 4.765806e+000 1.000000e+001
      endloop
   endfacet
   facet normal -9.983119e-001 -5.807913e-002 0.000000e+000
      outer loop
         vertex 4.689485e+000 4.514965e+000 1.730950e+000
         vertex 4.667539e+000 4.765806e+000 1.000000e+001
         vertex 4.667539e+000 4.765806e+000 1.730950e+000
      endloop
   endfacet
   facet normal -9.983119e-001 5.807913e-002 0.000000e+000
      outer loop
         vertex 4.667539e+000 4.765806e+000 1.730950e+000
         vertex 4.667539e+000 4.765806e+000 1.000000e+001
         vertex 4.689485e+000 5.016647e+000 1.000000e+001
      endloop
   endfacet
   facet normal -9.932307e-001 1.161583e-001 0.000000e+000
      outer loop
         vertex 4.667539e+000 4.765806e+000 1.730950e+000
         vertex 4.689485e+000 5.016647e+000 1.000000e+001
         vertex 4.689485e+000 5.016647e+000 1.730950e+000
      endloop
   endfacet
   facet normal -9.730600e-001 2.305519e-001 0.000000e+000
      outer loop
         vertex 4.689485e+000 5.016647e+000 1.730950e+000
         vertex 4.689485e+000 5.016647e+000 1.000000e+001
         vertex 4.754655e+000 5.259866e+000 1.000000e+001
      endloop
   endfacet
   facet normal -9.579706e-001 2.868663e-001 0.000000e+000
      outer loop
         vertex 4.689485e+000 5.016647e+000 1.730950e+000
         vertex 4.754655e+000 5.259866e+000 1.000000e+001
         vertex 4.754655e+000 5.259866e+000 1.730950e+000
      endloop
   endfacet
   facet normal -9.182422e-001 3.960194e-001 0.000000e+000
      outer loop
         vertex 4.754655e+000 5.259866e+000 1.730950e+000
         vertex 4.754655e+000 5.259866e+000 1.000000e+001
         vertex 4.861070e+000 5.488074e+000 1.000000e+001
      endloop
   endfacet
   facet normal -8.936031e-001 4.488580e-001 0.000000e+000
      outer loop
         vertex 4.754655e+000 5.259866e+000 1.730950e+000
         vertex 4.861070e+000 5.488074e+000 1.000000e+001
         vertex 4.861070e+000 5.488074e+000 1.730950e+000
      endloop
   endfacet
   facet normal -8.355240e-001 5.494540e-001 0.000000e+000
      outer loop
         vertex 4.861070e+000 5.488074e+000 1.730950e+000
         vertex 4.861070e+000 5.488074e+000 1.000000e+001
         vertex 5.005496e+000 5.694336e+000 1.000000e+001
      endloop
   endfacet
   facet normal -8.020838e-001 5.972114e-001 0.000000e+000
      outer loop
         vertex 4.861070e+000 5.488074e+000 1.730950e+000
         vertex 5.005496e+000 5.694336e+000 1.000000e+001
         vertex 5.005496e+000 5.694336e+000 1.730950e+000
      endloop
   endfacet
   facet normal -7.274188e-001 6.861938e-001 0.000000e+000
      outer loop
         vertex 5.005496e+000 5.694336e+000 1.730950e+000
         vertex 5.005496e+000 5.694336e+000 1.000000e+001
         vertex 5.183545e+000 5.872385e+000 1.000000e+001
      endloop
   endfacet
   facet normal -6.861938e-001 7.274188e-001 0.000000e+000
      outer loop
         vertex 5.005496e+000 5.694336e+000 1.730950e+000
         vertex 5.183545e+000 5.872385e+000 1.000000e+001
         vertex 5.183545e+000 5.872385e+000 1.730950e+000
      endloop
   endfacet
   facet normal -5.972114e-001 8.020838e-001 0.000000e+000
      outer loop
         vertex 5.183545e+000 5.872385e+000 1.730950e+000
         vertex 5.183545e+000 5.872385e+000 1.000000e+001
         vertex 5.389807e+000 6.016811e+000 1.000000e+001
      endloop
   endfacet
   facet normal -5.494540e-001 8.355240e-001 0.000000e+000
      outer loop
         vertex 5.183545e+000 5.872385e+000 1.730950e+000
         vertex 5.389807e+000 6.016811e+000 1.000000e+001
         vertex 5.389807e+000 6.016811e+000 1.730950e+000
      endloop
   endfacet
   facet normal -4.488580e-001 8.936031e-001 0.000000e+000
      outer loop
         vertex 5.389807e+000 6.016811e+000 1.730950e+000
         vertex 5.389807e+000 6.016811e+000 1.000000e+001
         vertex 5.618014e+000 6.123226e+000 1.000000e+001
      endloop
   endfacet
   facet normal -3.960194e-001 9.182422e-001 0.000000e+000
      outer loop
         vertex 5.389807e+000 6.016811e+000 1.730950e+000
         vertex 5.618014e+000 6.123226e+000 1.000000e+001
         vertex 5.618014e+000 6.123226e+000 1.730950e+000
      endloop
   endfacet
   facet normal -2.868663e-001 9.579706e-001 0.000000e+000
      outer loop
         vertex 5.618014e+000 6.123226e+000 1.730950e+000
         vertex 5.618014e+000 6.123226e+000 1.000000e+001
         vertex 5.861234e+000 6.188396e+000 1.000000e+001
      endloop
   endfacet
   facet normal -2.305519e-001 9.730600e-001 0.000000e+000
      outer loop
         vertex 5.618014e+000 6.123226e+000 1.730950e+000
         vertex 5.861234e+000 6.188396e+000 1.000000e+001
         vertex 5.861234e+000 6.188396e+000 1.730950e+000
      endloop
   endfacet
   facet normal -1.161583e-001 9.932307e-001 0.000000e+000
      outer loop
         vertex 5.861234e+000 6.188396e+000 1.730950e+000
         vertex 5.861234e+000 6.188396e+000 1.000000e+001
         vertex 6.112075e+000 6.210342e+000 1.000000e+001
      endloop
   endfacet
   facet normal -5.807913e-002 9.983119e-001 0.000000e+000
      outer loop
         vertex 5.861234e+000 6.188396e+000 1.730950e+000
         vertex 6.112075e+000 6.210342e+000 1.000000e+001
         vertex 6.112075e+000 6.210342e+000 1.730950e+000
      endloop
   endfacet
   facet normal 5.807913e-002 9.983119e-001 0.000000e+000
      outer loop
         vertex 6.112075e+000 6.210342e+000 1.730950e+000
         vertex 6.112075e+000 6.210342e+000 1.000000e+001
         vertex 6.362916e+000 6.188396e+000 1.000000e+001
      endloop
   endfacet
   facet normal 1.161583e-001 9.932307e-001 0.000000e+000
      outer loop
         vertex 6.112075e+000 6.210342e+000 1.730950e+000
         vertex 6.362916e+000 6.188396e+000 1.000000e+001
         vertex 6.362916e+000 6.188396e+000 1.730950e+000
      endloop
   endfacet
   facet normal 2.305519e-001 9.730600e-001 0.000000e+000
      outer loop
         vertex 6.362916e+000 6.188396e+000 1.730950e+000
         vertex 6.362916e+000 6.188396e+000 1.000000e+001
         vertex 6.606135e+000 6.123226e+000 1.000000e+001
      endloop
   endfacet
   facet normal 2.868663e-001 9.579706e-001 0.000000e+000
      outer loop
         vertex 6.362916e+000 6.188396e+000 1.730950e+000
         vertex 6.606135e+000 6.123226e+000 1.000000e+001
         vertex 6.606135e+000 6.123226e+000 1.730950e+000
      endloop
   endfacet
   facet normal 3.960194e-001 9.182422e-001 0.000000e+000
      outer loop
         vertex 6.606135e+000 6.123226e+000 1.730950e+000
         vertex 6.606135e+000 6.123226e+000 1.000000e+001
         vertex 6.834342e+000 6.016811e+000 1.000000e+001
      endloop
   endfacet
   facet normal 4.488580e-001 8.936031e-001 0.000000e+000
      outer loop
         vertex 6.606135e+000 6.123226e+000 1.730950e+000
         vertex 6.834342e+000 6.016811e+000 1.000000e+001
         vertex 6.834342e+000 6.016811e+000 1.730950e+000
      endloop
   endfacet
   facet normal 5.494540e-001 8.355240e-001 0.000000e+000
      outer loop
         vertex 6.834342e+000 6.016811e+000 1.730950e+000
         vertex 6.834342e+000 6.016811e+000 1.000000e+001
         vertex 7.040605e+000 5.872385e+000 1.000000e+001
      endloop
   endfacet
   facet normal 5.972114e-001 8.020838e-001 0.000000e+000
      outer loop
         vertex 6.834342e+000 6.016811e+000 1.730950e+000
         vertex 7.040605e+000 5.872385e+000 1.000000e+001
         vertex 7.040605e+000 5.872385e+000 1.730950e+000
      endloop
   endfacet
   facet normal 6.861938e-001 7.274188e-001 0.000000e+000
      outer loop
         vertex 7.040605e+000 5.872385e+000 1.730950e+000
         vertex 7.040605e+000 5.872385e+000 1.000000e+001
         vertex 7.218654e+000 5.694336e+000 1.000000e+001
      endloop
   endfacet
   facet normal 7.274188e-001 6.861938e-001 0.000000e+000
      outer loop
         vertex 7.040605e+000 5.872385e+000 1.730950e+000
         vertex 7.218654e+000 5.694336e+000 1.000000e+001
         vertex 7.218654e+000 5.694336e+000 1.730950e+000
      endloop
   endfacet
   facet normal 8.020838e-001 5.972114e-001 0.000000e+000
      outer loop
         vertex 7.218654e+000 5.694336e+000 1.730950e+000
         vertex 7.218654e+000 5.694336e+000 1.000000e+001
         vertex 7.363080e+000 5.488074e+000 1.000000e+001
      endloop
   endfacet
   facet normal 8.355240e-001 5.494540e-001 0.000000e+000
      outer loop
         vertex 7.218654e+000 5.694336e+000 1.730950e+000
         vertex 7.363080e+000 5.488074e+000 1.000000e+001
         vertex 7.363080e+000 5.488074e+000 1.730950e+000
      endloop
   endfacet
   facet normal 8.936031e-001 4.488580e-001 0.000000e+000
      outer loop
         vertex 7.363080e+000 5.488074e+000 1.730950e+000
         vertex 7.363080e+000 5.488074e+000 1.000000e+001
         vertex 7.469495e+000 5.259866e+000 1.000000e+001
      endloop
   endfacet
   facet normal 9.182422e-001 3.960194e-001 0.000000e+000
      outer loop
         vertex 7.363080e+000 5.488074e+000 1.730950e+000
         vertex 7.469495e+000 5.259866e+000 1.000000e+001
         vertex 7.469495e+000 5.259866e+000 1.730950e+000
      endloop
   endfacet
   facet normal 9.579706e-001 2.868663e-001 0.000000e+000
      outer loop
         vertex 7.469495e+000 5.259866e+000 1.730950e+000
         vertex 7.469495e+000 5.259866e+000 1.000000e+001
         vertex 7.534665e+000 5.016647e+000 1.000000e+001
      endloop
   endfacet
   facet normal 9.730600e-001 2.305519e-001 0.000000e+000
      outer loop
         vertex 7.469495e+000 5.259866e+000 1.730950e+000
         vertex 7.534665e+000 5.016647e+000 1.000000e+001
         vertex 7.534665e+000 5.016647e+000 1.730950e+000
      endloop
   endfacet
   facet normal 9.932307e-001 1.161583e-001 0.000000e+000
      outer loop
         vertex 7.534665e+000 5.016647e+000 1.730950e+000
         vertex 7.534665e+000 5.016647e+000 1.000000e+001
         vertex 7.556611e+000 4.765806e+000 1.000000e+001
      endloop
   endfacet
   facet normal 0.000000e+000 0.000000e+000 1.000000e+000
      outer loop
         vertex 7.363080e+000 4.043538e+000 1.000000e+001
         vertex 7.469495e+000 4.271745e+000 1.000000e+001
         vertex 4.689485e+000 5.016647e+000 1.000000e+001
      endloop
   endfacet
   facet normal 0.000000e+000 0.000000e+000 1.000000e+000
      outer loop
         vertex 4.689485e+000 5.016647e+000 1.000000e+001
         vertex 7.469495e+000 4.271745e+000 1.000000e+001
         vertex 7.534665e+000 4.514965e+000 1.000000e+001
      endloop
   endfacet
   facet normal 0.000000e+000 0.000000e+000 1.000000e+000
      outer loop
         vertex 4.689485e+000 5.016647e+000 1.000000e+001
         vertex 7.534665e+000 4.514965e+000 1.000000e+001
         vertex 4.754655e+000 5.259866e+000 1.000000e+001
      endloop
   endfacet
   facet normal 0.000000e+000 0.000000e+000 1.000000e+000
      outer loop
         vertex 5.183545e+000 5.872385e+000 1.000000e+001
         vertex 5.005496e+000 5.694336e+000 1.000000e+001
         vertex 7.534665e+000 4.514965e+000 1.000000e+001
      endloop
   endfacet
   facet normal 0.000000e+000 0.000000e+000 1.000000e+000
      outer loop
         vertex 7.534665e+000 4.514965e+000 1.000000e+001
         vertex 5.005496e+000 5.694336e+000 1.000000e+001
         vertex 4.861070e+000 5.488074e+000 1.000000e+001
      endloop
   endfacet
   facet normal 0.000000e+000 0.000000e+000 1.000000e+000
      outer loop
         vertex 7.534665e+000 4.514965e+000 1.000000e+001
         vertex 4.861070e+000 5.488074e+000 1.000000e+001
         vertex 4.754655e+000 5.259866e+000 1.000000e+001
      endloop
   endfacet
   facet normal 0.000000e+000 0.000000e+000 1.000000e+000
      outer loop
         vertex 5.861234e+000 3.343215e+000 1.000000e+001
         vertex 6.112075e+000 3.321270e+000 1.000000e+001
         vertex 4.689485e+000 4.514965e+000 1.000000e+001
      endloop
   endfacet
   facet normal 0.000000e+000 0.000000e+000 1.000000e+000
      outer loop
         vertex 4.689485e+000 4.514965e+000 1.000000e+001
         vertex 6.112075e+000 3.321270e+000 1.000000e+001
         vertex 6.362916e+000 3.343215e+000 1.000000e+001
      endloop
   endfacet
   facet normal 0.000000e+000 0.000000e+000 1.000000e+000
      outer loop
         vertex 4.689485e+000 4.514965e+000 1.000000e+001
         vertex 6.362916e+000 3.343215e+000 1.000000e+001
         vertex 4.667539e+000 4.765806e+000 1.000000e+001
      endloop
   endfacet
   facet normal 0.000000e+000 0.000000e+000 1.000000e+000
      outer loop
         vertex 4.667539e+000 4.765806e+000 1.000000e+001
         vertex 6.362916e+000 3.343215e+000 1.000000e+001
         vertex 4.689485e+000 5.016647e+000 1.000000e+001
      endloop
   endfacet
   facet normal 0.000000e+000 0.000000e+000 1.000000e+000
      outer loop
         vertex 4.689485e+000 5.016647e+000 1.000000e+001
         vertex 6.362916e+000 3.343215e+000 1.000000e+001
         vertex 6.606135e+000 3.408386e+000 1.000000e+001
      endloop
   endfacet
   facet normal 0.000000e+000 0.000000e+000 1.000000e+000
      outer loop
         vertex 4.689485e+000 5.016647e+000 1.000000e+001
         vertex 6.606135e+000 3.408386e+000 1.000000e+001
         vertex 6.834342e+000 3.514801e+000 1.000000e+001
      endloop
   endfacet
   facet normal 0.000000e+000 0.000000e+000 1.000000e+000
      outer loop
         vertex 6.834342e+000 3.514801e+000 1.000000e+001
         vertex 7.040605e+000 3.659227e+000 1.000000e+001
         vertex 4.689485e+000 5.016647e+000 1.000000e+001
      endloop
   endfacet
   facet normal 0.000000e+000 0.000000e+000 1.000000e+000
      outer loop
         vertex 4.689485e+000 5.016647e+000 1.000000e+001
         vertex 7.040605e+000 3.659227e+000 1.000000e+001
         vertex 7.218654e+000 3.837276e+000 1.000000e+001
      endloop
   endfacet
   facet normal 0.000000e+000 0.000000e+000 1.000000e+000
      outer loop
         vertex 4.689485e+000 5.016647e+000 1.000000e+001
         vertex 7.218654e+000 3.837276e+000 1.000000e+001
         vertex 7.363080e+000 4.043538e+000 1.000000e+001
      endloop
   endfacet
   facet normal 0.000000e+000 0.000000e+000 1.000000e+000
      outer loop
         vertex 5.183545e+000 3.659227e+000 1.000000e+001
         vertex 5.389807e+000 3.514801e+000 1.000000e+001
         vertex 5.005496e+000 3.837276e+000 1.000000e+001
      endloop
   endfacet
   facet normal 0.000000e+000 0.000000e+000 1.000000e+000
      outer loop
         vertex 5.005496e+000 3.837276e+000 1.000000e+001
         vertex 5.389807e+000 3.514801e+000 1.000000e+001
         vertex 4.861070e+000 4.043538e+000 1.000000e+001
      endloop
   endfacet
   facet normal 0.000000e+000 0.000000e+000 1.000000e+000
      outer loop
         vertex 4.689485e+000 4.514965e+000 1.000000e+001
         vertex 4.754655e+000 4.271745e+000 1.000000e+001
         vertex 5.861234e+000 3.343215e+000 1.000000e+001
      endloop
   endfacet
   facet normal 0.000000e+000 0.000000e+000 1.000000e+000
      outer loop
         vertex 5.861234e+000 3.343215e+000 1.000000e+001
         vertex 4.754655e+000 4.271745e+000 1.000000e+001
         vertex 4.861070e+000 4.043538e+000 1.000000e+001
      endloop
   endfacet
   facet normal 0.000000e+000 0.000000e+000 1.000000e+000
      outer loop
         vertex 5.861234e+000 3.343215e+000 1.000000e+001
         vertex 4.861070e+000 4.043538e+000 1.000000e+001
         vertex 5.618014e+000 3.408386e+000 1.000000e+001
      endloop
   endfacet
   facet normal 0.000000e+000 0.000000e+000 1.000000e+000
      outer loop
         vertex 5.618014e+000 3.408386e+000 1.000000e+001
         vertex 4.861070e+000 4.043538e+000 1.000000e+001
         vertex 5.389807e+000 3.514801e+000 1.000000e+001
      endloop
   endfacet
   facet normal 0.000000e+000 0.000000e+000 1.000000e+000
      outer loop
         vertex 7.534665e+000 4.514965e+000 1.000000e+001
         vertex 7.556611e+000 4.765806e+000 1.000000e+001
         vertex 5.183545e+000 5.872385e+000 1.000000e+001
      endloop
   endfacet
   facet normal 0.000000e+000 0.000000e+000 1.000000e+000
      outer loop
         vertex 5.183545e+000 5.872385e+000 1.000000e+001
         vertex 7.556611e+000 4.765806e+000 1.000000e+001
         vertex 7.534665e+000 5.016647e+000 1.000000e+001
      endloop
   endfacet
   facet normal 0.000000e+000 0.000000e+000 1.000000e+000
      outer loop
         vertex 5.183545e+000 5.872385e+000 1.000000e+001
         vertex 7.534665e+000 5.016647e+000 1.000000e+001
         vertex 5.389807e+000 6.016811e+000 1.000000e+001
      endloop
   endfacet
   facet normal 0.000000e+000 0.000000e+000 1.000000e+000
      outer loop
         vertex 5.389807e+000 6.016811e+000 1.000000e+001
         vertex 7.534665e+000 5.016647e+000 1.000000e+001
         vertex 5.618014e+000 6.123226e+000 1.000000e+001
      endloop
   endfacet
   facet normal 0.000000e+000 0.000000e+000 1.000000e+000
      outer loop
         vertex 7.040605e+000 5.872385e+000 1.000000e+001
         vertex 7.534665e+000 5.016647e+000 1.000000e+001
         vertex 7.218654e+000 5.694336e+000 1.000000e+001
      endloop
   endfacet
   facet normal 0.000000e+000 0.000000e+000 1.000000e+000
      outer loop
         vertex 7.218654e+000 5.694336e+000 1.000000e+001
         vertex 7.534665e+000 5.016647e+000 1.000000e+001
         vertex 7.469495e+000 5.259866e+000 1.000000e+001
      endloop
   endfacet
   facet normal 0.000000e+000 0.000000e+000 1.000000e+000
      outer loop
         vertex 7.218654e+000 5.694336e+000 1.000000e+001
         vertex 7.469495e+000 5.259866e+000 1.000000e+001
         vertex 7.363080e+000 5.488074e+000 1.000000e+001
      endloop
   endfacet
   facet normal 0.000000e+000 0.000000e+000 1.000000e+000
      outer loop
         vertex 7.040605e+000 5.872385e+000 1.000000e+001
         vertex 6.834342e+000 6.016811e+000 1.000000e+001
         vertex 7.534665e+000 5.016647e+000 1.000000e+001
      endloop
   endfacet
   facet normal 0.000000e+000 0.000000e+000 1.000000e+000
      outer loop
         vertex 7.534665e+000 5.016647e+000 1.000000e+001
         vertex 6.834342e+000 6.016811e+000 1.000000e+001
         vertex 6.606135e+000 6.123226e+000 1.000000e+001
      endloop
   endfacet
   facet normal 0.000000e+000 0.000000e+000 1.000000e+000
      outer loop
         vertex 7.534665e+000 5.016647e+000 1.000000e+001
         vertex 6.606135e+000 6.123226e+000 1.000000e+001
         vertex 6.362916e+000 6.188396e+000 1.000000e+001
      endloop
   endfacet
   facet normal 0.000000e+000 0.000000e+000 1.000000e+000
      outer loop
         vertex 6.362916e+000 6.188396e+000 1.000000e+001
         vertex 6.112075e+000 6.210342e+000 1.000000e+001
         vertex 7.534665e+000 5.016647e+000 1.000000e+001
      endloop
   endfacet
   facet normal 0.000000e+000 0.000000e+000 1.000000e+000
      outer loop
         vertex 7.534665e+000 5.016647e+000 1.000000e+001
         vertex 6.112075e+000 6.210342e+000 1.000000e+001
         vertex 5.861234e+000 6.188396e+000 1.000000e+001
      endloop
   endfacet
   facet normal 0.000000e+000 0.000000e+000 1.000000e+000
      outer loop
         vertex 7.534665e+000 5.016647e+000 1.000000e+001
         vertex 5.861234e+000 6.188396e+000 1.000000e+001
         vertex 5.618014e+000 6.123226e+000 1.000000e+001
      endloop
   endfacet
endsolid