solid 0_334
   facet normal -1.000000e+000 0.000000e+000 0.000000e+000
      outer loop
         vertex 0.000000e+000 1.000000e+001 1.000000e+001
         vertex 0.000000e+000 1.000000e+001 0.000000e+000
         vertex 0.000000e+000 0.000000e+000 1.000000e+001
      endloop
   endfacet
   facet normal -1.000000e+000 0.000000e+000 0.000000e+000
      outer loop
         vertex 0.000000e+000 0.000000e+000 1.000000e+001
         vertex 0.000000e+000 1.000000e+001 0.000000e+000
         vertex 0.000000e+000 0.000000e+000 0.000000e+000
      endloop
   endfacet
   facet normal 0.000000e+000 0.000000e+000 1.000000e+000
      outer loop
         vertex 1.000000e+001 1.000000e+001 1.000000e+001
         vertex 3.529975e+000 5.722325e+000 1.000000e+001
         vertex 3.750505e+000 5.619491e+000 1.000000e+001
      endloop
   endfacet
   facet normal 0.000000e+000 0.000000e+000 1.000000e+000
      outer loop
         vertex 3.750505e+000 5.619491e+000 1.000000e+001
         vertex 3.949826e+000 5.479924e+000 1.000000e+001
         vertex 1.000000e+001 1.000000e+001 1.000000e+001
      endloop
   endfacet
   facet normal 0.000000e+000 0.000000e+000 1.000000e+000
      outer loop
         vertex 1.000000e+001 1.000000e+001 1.000000e+001
         vertex 3.949826e+000 5.479924e+000 1.000000e+001
         vertex 4.121885e+000 5.307866e+000 1.000000e+001
      endloop
   endfacet
   facet normal 0.000000e+000 0.000000e+000 1.000000e+000
      outer loop
         vertex 1.000000e+001 1.000000e+001 1.000000e+001
         vertex 4.121885e+000 5.307866e+000 1.000000e+001
         vertex 4.261452e+000 5.108544e+000 1.000000e+001
      endloop
   endfacet
   facet normal 0.000000e+000 0.000000e+000 1.000000e+000
      outer loop
         vertex 4.448472e+000 4.410577e+000 1.000000e+001
         vertex 1.000000e+001 0.000000e+000 1.000000e+001
         vertex 4.427264e+000 4.652978e+000 1.000000e+001
      endloop
   endfacet
   facet normal 0.000000e+000 0.000000e+000 1.000000e+000
      outer loop
         vertex 4.427264e+000 4.652978e+000 1.000000e+001
         vertex 1.000000e+001 0.000000e+000 1.000000e+001
         vertex 1.000000e+001 1.000000e+001 1.000000e+001
      endloop
   endfacet
   facet normal 0.000000e+000 0.000000e+000 1.000000e+000
      outer loop
         vertex 4.427264e+000 4.652978e+000 1.000000e+001
         vertex 1.000000e+001 1.000000e+001 1.000000e+001
         vertex 4.364286e+000 4.888014e+000 1.000000e+001
      endloop
   endfacet
   facet normal 0.000000e+000 0.000000e+000 1.000000e+000
      outer loop
         vertex 4.364286e+000 4.888014e+000 1.000000e+001
         vertex 1.000000e+001 1.000000e+001 1.000000e+001
         vertex 4.261452e+000 5.108544e+000 1.000000e+001
      endloop
   endfacet
   facet normal 0.000000e+000 0.000000e+000 1.000000e+000
      outer loop
         vertex 0.000000e+000 1.000000e+001 1.000000e+001
         vertex 1.740789e+000 4.888014e+000 1.000000e+001
         vertex 1.843624e+000 5.108544e+000 1.000000e+001
      endloop
   endfacet
   facet normal 0.000000e+000 0.000000e+000 1.000000e+000
      outer loop
         vertex 0.000000e+000 1.000000e+001 1.000000e+001
         vertex 2.354571e+000 5.619491e+000 1.000000e+001
         vertex 2.575100e+000 5.722325e+000 1.000000e+001
      endloop
   endfacet
   facet normal 0.000000e+000 0.000000e+000 1.000000e+000
      outer loop
         vertex 4.448472e+000 4.410577e+000 1.000000e+001
         vertex 4.427264e+000 4.168176e+000 1.000000e+001
         vertex 1.000000e+001 0.000000e+000 1.000000e+001
      endloop
   endfacet
   facet normal 0.000000e+000 0.000000e+000 1.000000e+000
      outer loop
         vertex 1.000000e+001 0.000000e+000 1.000000e+001
         vertex 4.427264e+000 4.168176e+000 1.000000e+001
         vertex 4.364286e+000 3.933140e+000 1.000000e+001
      endloop
   endfacet
   facet normal 0.000000e+000 0.000000e+000 1.000000e+000
      outer loop
         vertex 1.000000e+001 0.000000e+000 1.000000e+001
         vertex 4.364286e+000 3.933140e+000 1.000000e+001
         vertex 4.261452e+000 3.712610e+000 1.000000e+001
      endloop
   endfacet
   facet normal 0.000000e+000 0.000000e+000 1.000000e+000
      outer loop
         vertex 4.261452e+000 3.712610e+000 1.000000e+001
         vertex 4.121885e+000 3.513288e+000 1.000000e+001
         vertex 1.000000e+001 0.000000e+000 1.000000e+001
      endloop
   endfacet
   facet normal 0.000000e+000 0.000000e+000 1.000000e+000
      outer loop
         vertex 1.000000e+001 0.000000e+000 1.000000e+001
         vertex 4.121885e+000 3.513288e+000 1.000000e+001
         vertex 3.949826e+000 3.341230e+000 1.000000e+001
      endloop
   endfacet
   facet normal 0.000000e+000 0.000000e+000 1.000000e+000
      outer loop
         vertex 1.000000e+001 0.000000e+000 1.000000e+001
         vertex 3.949826e+000 3.341230e+000 1.000000e+001
         vertex 3.750505e+000 3.201663e+000 1.000000e+001
      endloop
   endfacet
   facet normal 0.000000e+000 0.000000e+000 1.000000e+000
      outer loop
         vertex 3.750505e+000 3.201663e+000 1.000000e+001
         vertex 3.529975e+000 3.098828e+000 1.000000e+001
         vertex 1.000000e+001 0.000000e+000 1.000000e+001
      endloop
   endfacet
   facet normal 0.000000e+000 0.000000e+000 1.000000e+000
      outer loop
         vertex 1.000000e+001 0.000000e+000 1.000000e+001
         vertex 3.529975e+000 3.098828e+000 1.000000e+001
         vertex 3.294939e+000 3.035851e+000 1.000000e+001
      endloop
   endfacet
   facet normal 0.000000e+000 0.000000e+000 1.000000e+000
      outer loop
         vertex 1.000000e+001 0.000000e+000 1.000000e+001
         vertex 3.294939e+000 3.035851e+000 1.000000e+001
         vertex 0.000000e+000 0.000000e+000 1.000000e+001
      endloop
   endfacet
   facet normal 0.000000e+000 0.000000e+000 1.000000e+000
      outer loop
         vertex 0.000000e+000 0.000000e+000 1.000000e+001
         vertex 3.294939e+000 3.035851e+000 1.000000e+001
         vertex 3.052538e+000 3.014643e+000 1.000000e+001
      endloop
   endfacet
   facet normal 0.000000e+000 0.000000e+000 1.000000e+000
      outer loop
         vertex 0.000000e+000 0.000000e+000 1.000000e+001
         vertex 3.052538e+000 3.014643e+000 1.000000e+001
         vertex 2.810137e+000 3.035851e+000 1.000000e+001
      endloop
   endfacet
   facet normal 0.000000e+000 0.000000e+000 1.000000e+000
      outer loop
         vertex 1.843624e+000 5.108544e+000 1.000000e+001
         vertex 1.983191e+000 5.307866e+000 1.000000e+001
         vertex 0.000000e+000 1.000000e+001 1.000000e+001
      endloop
   endfacet
   facet normal 0.000000e+000 0.000000e+000 1.000000e+000
      outer loop
         vertex 0.000000e+000 1.000000e+001 1.000000e+001
         vertex 1.983191e+000 5.307866e+000 1.000000e+001
         vertex 2.155249e+000 5.479924e+000 1.000000e+001
      endloop
   endfacet
   facet normal 0.000000e+000 0.000000e+000 1.000000e+000
      outer loop
         vertex 0.000000e+000 1.000000e+001 1.000000e+001
         vertex 2.155249e+000 5.479924e+000 1.000000e+001
         vertex 2.354571e+000 5.619491e+000 1.000000e+001
      endloop
   endfacet
   facet normal 0.000000e+000 0.000000e+000 1.000000e+000
      outer loop
         vertex 2.575100e+000 5.722325e+000 1.000000e+001
         vertex 2.810137e+000 5.785303e+000 1.000000e+001
         vertex 0.000000e+000 1.000000e+001 1.000000e+001
      endloop
   endfacet
   facet normal 0.000000e+000 0.000000e+000 1.000000e+000
      outer loop
         vertex 0.000000e+000 1.000000e+001 1.000000e+001
         vertex 2.810137e+000 5.785303e+000 1.000000e+001
         vertex 3.052538e+000 5.806510e+000 1.000000e+001
      endloop
   endfacet
   facet normal 0.000000e+000 0.000000e+000 1.000000e+000
      outer loop
         vertex 0.000000e+000 1.000000e+001 1.000000e+001
         vertex 3.052538e+000 5.806510e+000 1.000000e+001
         vertex 1.000000e+001 1.000000e+001 1.000000e+001
      endloop
   endfacet
   facet normal 0.000000e+000 0.000000e+000 1.000000e+000
      outer loop
         vertex 1.000000e+001 1.000000e+001 1.000000e+001
         vertex 3.052538e+000 5.806510e+000 1.000000e+001
         vertex 3.294939e+000 5.785303e+000 1.000000e+001
      endloop
   endfacet
   facet normal 0.000000e+000 0.000000e+000 1.000000e+000
      outer loop
         vertex 1.000000e+001 1.000000e+001 1.000000e+001
         vertex 3.294939e+000 5.785303e+000 1.000000e+001
         vertex 3.529975e+000 5.722325e+000 1.000000e+001
      endloop
   endfacet
   facet normal 0.000000e+000 0.000000e+000 1.000000e+000
      outer loop
         vertex 2.810137e+000 3.035851e+000 1.000000e+001
         vertex 2.575100e+000 3.098828e+000 1.000000e+001
         vertex 0.000000e+000 0.000000e+000 1.000000e+001
      endloop
   endfacet
   facet normal 0.000000e+000 0.000000e+000 1.000000e+000
      outer loop
         vertex 0.000000e+000 0.000000e+000 1.000000e+001
         vertex 2.575100e+000 3.098828e+000 1.000000e+001
         vertex 2.354571e+000 3.201663e+000 1.000000e+001
      endloop
   endfacet
   facet normal 0.000000e+000 0.000000e+000 1.000000e+000
      outer loop
         vertex 0.000000e+000 0.000000e+000 1.000000e+001
         vertex 2.354571e+000 3.201663e+000 1.000000e+001
         vertex 2.155249e+000 3.341230e+000 1.000000e+001
      endloop
   endfacet
   facet normal 0.000000e+000 0.000000e+000 1.000000e+000
      outer loop
         vertex 2.155249e+000 3.341230e+000 1.000000e+001
         vertex 1.983191e+000 3.513288e+000 1.000000e+001
         vertex 0.000000e+000 0.000000e+000 1.000000e+001
      endloop
   endfacet
   facet normal 0.000000e+000 0.000000e+000 1.000000e+000
      outer loop
         vertex 0.000000e+000 0.000000e+000 1.000000e+001
         vertex 1.983191e+000 3.513288e+000 1.000000e+001
         vertex 1.843624e+000 3.712610e+000 1.000000e+001
      endloop
   endfacet
   facet normal 0.000000e+000 0.000000e+000 1.000000e+000
      outer loop
         vertex 0.000000e+000 0.000000e+000 1.000000e+001
         vertex 1.843624e+000 3.712610e+000 1.000000e+001
         vertex 1.740789e+000 3.933140e+000 1.000000e+001
      endloop
   endfacet
   facet normal 0.000000e+000 0.000000e+000 1.000000e+000
      outer loop
         vertex 1.740789e+000 3.933140e+000 1.000000e+001
         vertex 1.677812e+000 4.168176e+000 1.000000e+001
         vertex 0.000000e+000 0.000000e+000 1.000000e+001
      endloop
   endfacet
   facet normal 0.000000e+000 0.000000e+000 1.000000e+000
      outer loop
         vertex 0.000000e+000 0.000000e+000 1.000000e+001
         vertex 1.677812e+000 4.168176e+000 1.000000e+001
         vertex 1.656604e+000 4.410577e+000 1.000000e+001
      endloop
   endfacet
   facet normal 0.000000e+000 0.000000e+000 1.000000e+000
      outer loop
         vertex 0.000000e+000 0.000000e+000 1.000000e+001
         vertex 1.656604e+000 4.410577e+000 1.000000e+001
         vertex 0.000000e+000 1.000000e+001 1.000000e+001
      endloop
   endfacet
   facet normal 0.000000e+000 0.000000e+000 1.000000e+000
      outer loop
         vertex 0.000000e+000 1.000000e+001 1.000000e+001
         vertex 1.656604e+000 4.410577e+000 1.000000e+001
         vertex 1.677812e+000 4.652978e+000 1.000000e+001
      endloop
   endfacet
   facet normal 0.000000e+000 0.000000e+000 1.000000e+000
      outer loop
         vertex 0.000000e+000 1.000000e+001 1.000000e+001
         vertex 1.677812e+000 4.652978e+000 1.000000e+001
         vertex 1.740789e+000 4.888014e+000 1.000000e+001
      endloop
   endfacet
   facet normal 1.000000e+000 0.000000e+000 0.000000e+000
      outer loop
         vertex 1.000000e+001 1.000000e+001 0.000000e+000
         vertex 1.000000e+001 1.000000e+001 1.000000e+001
         vertex 1.000000e+001 0.000000e+000 0.000000e+000
      endloop
   endfacet
   facet normal 1.000000e+000 0.000000e+000 0.000000e+000
      outer loop
         vertex 1.000000e+001 0.000000e+000 0.000000e+000
         vertex 1.000000e+001 1.000000e+001 1.000000e+001
         vertex 1.000000e+001 0.000000e+000 1.000000e+001
      endloop
   endfacet
   facet normal 0.000000e+000 0.000000e+000 -1.000000e+000
      outer loop
         vertex 0.000000e+000 1.000000e+001 0.000000e+000
         vertex 1.000000e+001 1.000000e+001 0.000000e+000
         vertex 0.000000e+000 0.000000e+000 0.000000e+000
      endloop
   endfacet
   facet normal 0.000000e+000 0.000000e+000 -1.000000e+000
      outer loop
         vertex 0.000000e+000 0.000000e+000 0.000000e+000
         vertex 1.000000e+001 1.000000e+001 0.000000e+000
         vertex 1.000000e+001 0.000000e+000 0.000000e+000
      endloop
   endfacet
   facet normal 0.000000e+000 1.000000e+000 0.000000e+000
      outer loop
         vertex 1.000000e+001 1.000000e+001 1.000000e+001
         vertex 1.000000e+001 1.000000e+001 0.000000e+000
         vertex 0.000000e+000 1.000000e+001 1.000000e+001
      endloop
   endfacet
   facet normal 0.000000e+000 1.000000e+000 0.000000e+000
      outer loop
         vertex 0.000000e+000 1.000000e+001 1.000000e+001
         vertex 1.000000e+001 1.000000e+001 0.000000e+000
         vertex 0.000000e+000 1.000000e+001 0.000000e+000
      endloop
   endfacet
   facet normal 0.000000e+000 -1.000000e+000 0.000000e+000
      outer loop
         vertex 1.000000e+001 0.000000e+000 0.000000e+000
         vertex 1.000000e+001 0.000000e+000 1.000000e+001
         vertex 0.000000e+000 0.000000e+000 0.000000e+000
      endloop
   endfacet
   facet normal 0.000000e+000 -1.000000e+000 0.000000e+000
      outer loop
         vertex 0.000000e+000 0.000000e+000 0.000000e+000
         vertex 1.000000e+001 0.000000e+000 1.000000e+001
         vertex 0.000000e+000 0.000000e+000 1.000000e+001
      endloop
   endfacet
   facet normal -9.983119e-001 5.807913e-002 0.000000e+000
      outer loop
         vertex 4.427264e+000 4.168176e+000 5.316717e+000
         vertex 4.448472e+000 4.410577e+000 1.000000e+001
         vertex 4.448472e+000 4.410577e+000 5.316717e+000
      endloop
   endfacet
   facet normal -9.983119e-001 -5.807913e-002 0.000000e+000
      outer loop
         vertex 4.448472e+000 4.410577e+000 5.316717e+000
         vertex 4.448472e+000 4.410577e+000 1.000000e+001
         vertex 4.427264e+000 4.652978e+000 1.000000e+001
      endloop
   endfacet
   facet normal -9.932307e-001 -1.161583e-001 0.000000e+000
      outer loop
         vertex 4.448472e+000 4.410577e+000 5.316717e+000
         vertex 4.427264e+000 4.652978e+000 1.000000e+001
         vertex 4.427264e+000 4.652978e+000 5.316717e+000
      endloop
   endfacet
   facet normal -9.730600e-001 -2.305519e-001 0.000000e+000
      outer loop
         vertex 4.427264e+000 4.652978e+000 5.316717e+000
         vertex 4.427264e+000 4.652978e+000 1.000000e+001
         vertex 4.364286e+000 4.888014e+000 1.000000e+001
      endloop
   endfacet
   facet normal -9.579706e-001 -2.868663e-001 0.000000e+000
      outer loop
         vertex 4.427264e+000 4.652978e+000 5.316717e+000
         vertex 4.364286e+000 4.888014e+000 1.000000e+001
         vertex 4.364286e+000 4.888014e+000 5.316717e+000
      endloop
   endfacet
   facet normal -9.182422e-001 -3.960194e-001 0.000000e+000
      outer loop
         vertex 4.364286e+000 4.888014e+000 5.316717e+000
         vertex 4.364286e+000 4.888014e+000 1.000000e+001
         vertex 4.261452e+000 5.108544e+000 1.000000e+001
      endloop
   endfacet
   facet normal -8.936031e-001 -4.488580e-001 0.000000e+000
      outer loop
         vertex 4.364286e+000 4.888014e+000 5.316717e+000
         vertex 4.261452e+000 5.108544e+000 1.000000e+001
         vertex 4.261452e+000 5.108544e+000 5.316717e+000
      endloop
   endfacet
   facet normal -8.355240e-001 -5.494540e-001 0.000000e+000
      outer loop
         vertex 4.261452e+000 5.108544e+000 5.316717e+000
         vertex 4.261452e+000 5.108544e+000 1.000000e+001
         vertex 4.121885e+000 5.307866e+000 1.000000e+001
      endloop
   endfacet
   facet normal -8.020838e-001 -5.972114e-001 0.000000e+000
      outer loop
         vertex 4.261452e+000 5.108544e+000 5.316717e+000
         vertex 4.121885e+000 5.307866e+000 1.000000e+001
         vertex 4.121885e+000 5.307866e+000 5.316717e+000
      endloop
   endfacet
   facet normal -7.274188e-001 -6.861938e-001 0.000000e+000
      outer loop
         vertex 4.121885e+000 5.307866e+000 5.316717e+000
         vertex 4.121885e+000 5.307866e+000 1.000000e+001
         vertex 3.949826e+000 5.479924e+000 1.000000e+001
      endloop
   endfacet
   facet normal -6.861938e-001 -7.274188e-001 0.000000e+000
      outer loop
         vertex 4.121885e+000 5.307866e+000 5.316717e+000
         vertex 3.949826e+000 5.479924e+000 1.000000e+001
         vertex 3.949826e+000 5.479924e+000 5.316717e+000
      endloop
   endfacet
   facet normal -5.972114e-001 -8.020838e-001 0.000000e+000
      outer loop
         vertex 3.949826e+000 5.479924e+000 5.316717e+000
         vertex 3.949826e+000 5.479924e+000 1.000000e+001
         vertex 3.750505e+000 5.619491e+000 1.000000e+001
      endloop
   endfacet
   facet normal -5.494540e-001 -8.355240e-001 0.000000e+000
      outer loop
         vertex 3.949826e+000 5.479924e+000 5.316717e+000
         vertex 3.750505e+000 5.619491e+000 1.000000e+001
         vertex 3.750505e+000 5.619491e+000 5.316717e+000
      endloop
   endfacet
   facet normal -4.488580e-001 -8.936031e-001 0.000000e+000
      outer loop
         vertex 3.750505e+000 5.619491e+000 5.316717e+000
         vertex 3.750505e+000 5.619491e+000 1.000000e+001
         vertex 3.529975e+000 5.722325e+000 1.000000e+001
      endloop
   endfacet
   facet normal -3.960194e-001 -9.182422e-001 0.000000e+000
      outer loop
         vertex 3.750505e+000 5.619491e+000 5.316717e+000
         vertex 3.529975e+000 5.722325e+000 1.000000e+001
         vertex 3.529975e+000 5.722325e+000 5.316717e+000
      endloop
   endfacet
   facet normal -2.868663e-001 -9.579706e-001 0.000000e+000
      outer loop
         vertex 3.529975e+000 5.722325e+000 5.316717e+000
         vertex 3.529975e+000 5.722325e+000 1.000000e+001
         vertex 3.294939e+000 5.785303e+000 1.000000e+001
      endloop
   endfacet
   facet normal -2.305519e-001 -9.730600e-001 0.000000e+000
      outer loop
         vertex 3.529975e+000 5.722325e+000 5.316717e+000
         vertex 3.294939e+000 5.785303e+000 1.000000e+001
         vertex 3.294939e+000 5.785303e+000 5.316717e+000
      endloop
   endfacet
   facet normal -1.161583e-001 -9.932307e-001 0.000000e+000
      outer loop
         vertex 3.294939e+000 5.785303e+000 5.316717e+000
         vertex 3.294939e+000 5.785303e+000 1.000000e+001
         vertex 3.052538e+000 5.806510e+000 1.000000e+001
      endloop
   endfacet
   facet normal -5.807913e-002 -9.983119e-001 0.000000e+000
      outer loop
         vertex 3.294939e+000 5.785303e+000 5.316717e+000
         vertex 3.052538e+000 5.806510e+000 1.000000e+001
         vertex 3.052538e+000 5.806510e+000 5.316717e+000
      endloop
   endfacet
   facet normal 5.807913e-002 -9.983119e-001 0.000000e+000
      outer loop
         vertex 3.052538e+000 5.806510e+000 5.316717e+000
         vertex 3.052538e+000 5.806510e+000 1.000000e+001
         vertex 2.810137e+000 5.785303e+000 1.000000e+001
      endloop
   endfacet
   facet normal 1.161583e-001 -9.932307e-001 0.000000e+000
      outer loop
         vertex 3.052538e+000 5.806510e+000 5.316717e+000
         vertex 2.810137e+000 5.785303e+000 1.000000e+001
         vertex 2.810137e+000 5.785303e+000 5.316717e+000
      endloop
   endfacet
   facet normal 2.305519e-001 -9.730600e-001 0.000000e+000
      outer loop
         vertex 2.810137e+000 5.785303e+000 5.316717e+000
         vertex 2.810137e+000 5.785303e+000 1.000000e+001
         vertex 2.575100e+000 5.722325e+000 1.000000e+001
      endloop
   endfacet
   facet normal 2.868663e-001 -9.579706e-001 0.000000e+000
      outer loop
         vertex 2.810137e+000 5.785303e+000 5.316717e+000
         vertex 2.575100e+000 5.722325e+000 1.000000e+001
         vertex 2.575100e+000 5.722325e+000 5.316717e+000
      endloop
   endfacet
   facet normal 3.960194e-001 -9.182422e-001 0.000000e+000
      outer loop
         vertex 2.575100e+000 5.722325e+000 5.316717e+000
         vertex 2.575100e+000 5.722325e+000 1.000000e+001
         vertex 2.354571e+000 5.619491e+000 1.000000e+001
      endloop
   endfacet
   facet normal 4.488580e-001 -8.936031e-001 0.000000e+000
      outer loop
         vertex 2.575100e+000 5.722325e+000 5.316717e+000
         vertex 2.354571e+000 5.619491e+000 1.000000e+001
         vertex 2.354571e+000 5.619491e+000 5.316717e+000
      endloop
   endfacet
   facet normal 5.494540e-001 -8.355240e-001 0.000000e+000
      outer loop
         vertex 2.354571e+000 5.619491e+000 5.316717e+000
         vertex 2.354571e+000 5.619491e+000 1.000000e+001
         vertex 2.155249e+000 5.479924e+000 1.000000e+001
      endloop
   endfacet
   facet normal 5.972114e-001 -8.020838e-001 0.000000e+000
      outer loop
         vertex 2.354571e+000 5.619491e+000 5.316717e+000
         vertex 2.155249e+000 5.479924e+000 1.000000e+001
         vertex 2.155249e+000 5.479924e+000 5.316717e+000
      endloop
   endfacet
   facet normal 6.861938e-001 -7.274188e-001 0.000000e+000
      outer loop
         vertex 2.155249e+000 5.479924e+000 5.316717e+000
         vertex 2.155249e+000 5.479924e+000 1.000000e+001
         vertex 1.983191e+000 5.307866e+000 1.000000e+001
      endloop
   endfacet
   facet normal 7.274188e-001 -6.861938e-001 0.000000e+000
      outer loop
         vertex 2.155249e+000 5.479924e+000 5.316717e+000
         vertex 1.983191e+000 5.307866e+000 1.000000e+001
         vertex 1.983191e+000 5.307866e+000 5.316717e+000
      endloop
   endfacet
   facet normal 8.020838e-001 -5.972114e-001 0.000000e+000
      outer loop
         vertex 1.983191e+000 5.307866e+000 5.316717e+000
         vertex 1.983191e+000 5.307866e+000 1.000000e+001
         vertex 1.843624e+000 5.108544e+000 1.000000e+001
      endloop
   endfacet
   facet normal 8.355240e-001 -5.494540e-001 0.000000e+000
      outer loop
         vertex 1.983191e+000 5.307866e+000 5.316717e+000
         vertex 1.843624e+000 5.108544e+000 1.000000e+001
         vertex 1.843624e+000 5.108544e+000 5.316717e+000
      endloop
   endfacet
   facet normal 8.936031e-001 -4.488580e-001 0.000000e+000
      outer loop
         vertex 1.843624e+000 5.108544e+000 5.316717e+000
         vertex 1.843624e+000 5.108544e+000 1.000000e+001
         vertex 1.740789e+000 4.888014e+000 1.000000e+001
      endloop
   endfacet
   facet normal 9.182422e-001 -3.960194e-001 0.000000e+000
      outer loop
         vertex 1.843624e+000 5.108544e+000 5.316717e+000
         vertex 1.740789e+000 4.888014e+000 1.000000e+001
         vertex 1.740789e+000 4.888014e+000 5.316717e+000
      endloop
   endfacet
   facet normal 9.579706e-001 -2.868663e-001 0.000000e+000
      outer loop
         vertex 1.740789e+000 4.888014e+000 5.316717e+000
         vertex 1.740789e+000 4.888014e+000 1.000000e+001
         vertex 1.677812e+000 4.652978e+000 1.000000e+001
      endloop
   endfacet
   facet normal 9.730600e-001 -2.305519e-001 0.000000e+000
      outer loop
         vertex 1.740789e+000 4.888014e+000 5.316717e+000
         vertex 1.677812e+000 4.652978e+000 1.000000e+001
         vertex 1.677812e+000 4.652978e+000 5.316717e+000
      endloop
   endfacet
   facet normal 9.932307e-001 -1.161583e-001 0.000000e+000
      outer loop
         vertex 1.677812e+000 4.652978e+000 5.316717e+000
         vertex 1.677812e+000 4.652978e+000 1.000000e+001
         vertex 1.656604e+000 4.410577e+000 1.000000e+001
      endloop
   endfacet
   facet normal 9.983119e-001 -5.807913e-002 0.000000e+000
      outer loop
         vertex 1.677812e+000 4.652978e+000 5.316717e+000
         vertex 1.656604e+000 4.410577e+000 1.000000e+001
         vertex 1.656604e+000 4.410577e+000 5.316717e+000
      endloop
   endfacet
   facet normal 9.983119e-001 5.807913e-002 0.000000e+000
      outer loop
         vertex 1.656604e+000 4.410577e+000 5.316717e+000
         vertex 1.656604e+000 4.410577e+000 1.000000e+001
         vertex 1.677812e+000 4.168176e+000 1.000000e+001
      endloop
   endfacet
   facet normal 9.932307e-001 1.161583e-001 0.000000e+000
      outer loop
         vertex 1.656604e+000 4.410577e+000 5.316717e+000
         vertex 1.677812e+000 4.168176e+000 1.000000e+001
         vertex 1.677812e+000 4.168176e+000 5.316717e+000
      endloop
   endfacet
   facet normal 9.730600e-001 2.305519e-001 0.000000e+000
      outer loop
         vertex 1.677812e+000 4.168176e+000 5.316717e+000
         vertex 1.677812e+000 4.168176e+000 1.000000e+001
         vertex 1.740789e+000 3.933140e+000 1.000000e+001
      endloop
   endfacet
   facet normal 9.579706e-001 2.868663e-001 0.000000e+000
      outer loop
         vertex 1.677812e+000 4.168176e+000 5.316717e+000
         vertex 1.740789e+000 3.933140e+000 1.000000e+001
         vertex 1.740789e+000 3.933140e+000 5.316717e+000
      endloop
   endfacet
   facet normal 9.182422e-001 3.960194e-001 0.000000e+000
      outer loop
         vertex 1.740789e+000 3.933140e+000 5.316717e+000
         vertex 1.740789e+000 3.933140e+000 1.000000e+001
         vertex 1.843624e+000 3.712610e+000 1.000000e+001
      endloop
   endfacet
   facet normal 8.936031e-001 4.488580e-001 0.000000e+000
      outer loop
         vertex 1.740789e+000 3.933140e+000 5.316717e+000
         vertex 1.843624e+000 3.712610e+000 1.000000e+001
         vertex 1.843624e+000 3.712610e+000 5.316717e+000
      endloop
   endfacet
   facet normal 8.355240e-001 5.494540e-001 0.000000e+000
      outer loop
         vertex 1.843624e+000 3.712610e+000 5.316717e+000
         vertex 1.843624e+000 3.712610e+000 1.000000e+001
         vertex 1.983191e+000 3.513288e+000 1.000000e+001
      endloop
   endfacet
   facet normal 8.020838e-001 5.972114e-001 0.000000e+000
      outer loop
         vertex 1.843624e+000 3.712610e+000 5.316717e+000
         vertex 1.983191e+000 3.513288e+000 1.000000e+001
         vertex 1.983191e+000 3.513288e+000 5.316717e+000
      endloop
   endfacet
   facet normal 7.274188e-001 6.861938e-001 0.000000e+000
      outer loop
         vertex 1.983191e+000 3.513288e+000 5.316717e+000
         vertex 1.983191e+000 3.513288e+000 1.000000e+001
         vertex 2.155249e+000 3.341230e+000 1.000000e+001
      endloop
   endfacet
   facet normal 6.861938e-001 7.274188e-001 0.000000e+000
      outer loop
         vertex 1.983191e+000 3.513288e+000 5.316717e+000
         vertex 2.155249e+000 3.341230e+000 1.000000e+001
         vertex 2.155249e+000 3.341230e+000 5.316717e+000
      endloop
   endfacet
   facet normal 5.972114e-001 8.020838e-001 0.000000e+000
      outer loop
         vertex 2.155249e+000 3.341230e+000 5.316717e+000
         vertex 2.155249e+000 3.341230e+000 1.000000e+001
         vertex 2.354571e+000 3.201663e+000 1.000000e+001
      endloop
   endfacet
   facet normal 5.494540e-001 8.355240e-001 0.000000e+000
      outer loop
         vertex 2.155249e+000 3.341230e+000 5.316717e+000
         vertex 2.354571e+000 3.201663e+000 1.000000e+001
         vertex 2.354571e+000 3.201663e+000 5.316717e+000
      endloop
   endfacet
   facet normal 4.488580e-001 8.936031e-001 0.000000e+000
      outer loop
         vertex 2.354571e+000 3.201663e+000 5.316717e+000
         vertex 2.354571e+000 3.201663e+000 1.000000e+001
         vertex 2.575100e+000 3.098828e+000 1.000000e+001
      endloop
   endfacet
   facet normal 3.960194e-001 9.182422e-001 0.000000e+000
      outer loop
         vertex 2.354571e+000 3.201663e+000 5.316717e+000
         vertex 2.575100e+000 3.098828e+000 1.000000e+001
         vertex 2.575100e+000 3.098828e+000 5.316717e+000
      endloop
   endfacet
   facet normal 2.868663e-001 9.579706e-001 0.000000e+000
      outer loop
         vertex 2.575100e+000 3.098828e+000 5.316717e+000
         vertex 2.575100e+000 3.098828e+000 1.000000e+001
         vertex 2.810137e+000 3.035851e+000 1.000000e+001
      endloop
   endfacet
   facet normal 2.305519e-001 9.730600e-001 0.000000e+000
      outer loop
         vertex 2.575100e+000 3.098828e+000 5.316717e+000
         vertex 2.810137e+000 3.035851e+000 1.000000e+001
         vertex 2.810137e+000 3.035851e+000 5.316717e+000
      endloop
   endfacet
   facet normal 1.161583e-001 9.932307e-001 0.000000e+000
      outer loop
         vertex 2.810137e+000 3.035851e+000 5.316717e+000
         vertex 2.810137e+000 3.035851e+000 1.000000e+001
         vertex 3.052538e+000 3.014643e+000 1.000000e+001
      endloop
   endfacet
   facet normal 5.807913e-002 9.983119e-001 0.000000e+000
      outer loop
         vertex 2.810137e+000 3.035851e+000 5.316717e+000
         vertex 3.052538e+000 3.014643e+000 1.000000e+001
         vertex 3.052538e+000 3.014643e+000 5.316717e+000
      endloop
   endfacet
   facet normal -5.807913e-002 9.983119e-001 0.000000e+000
      outer loop
         vertex 3.052538e+000 3.014643e+000 5.316717e+000
         vertex 3.052538e+000 3.014643e+000 1.000000e+001
         vertex 3.294939e+000 3.035851e+000 1.000000e+001
      endloop
   endfacet
   facet normal -1.161583e-001 9.932307e-001 0.000000e+000
      outer loop
         vertex 3.052538e+000 3.014643e+000 5.316717e+000
         vertex 3.294939e+000 3.035851e+000 1.000000e+001
         vertex 3.294939e+000 3.035851e+000 5.316717e+000
      endloop
   endfacet
   facet normal -2.305519e-001 9.730600e-001 0.000000e+000
      outer loop
         vertex 3.294939e+000 3.035851e+000 5.316717e+000
         vertex 3.294939e+000 3.035851e+000 1.000000e+001
         vertex 3.529975e+000 3.098828e+000 1.000000e+001
      endloop
   endfacet
   facet normal -2.868663e-001 9.579706e-001 0.000000e+000
      outer loop
         vertex 3.294939e+000 3.035851e+000 5.316717e+000
         vertex 3.529975e+000 3.098828e+000 1.000000e+001
         vertex 3.529975e+000 3.098828e+000 5.316717e+000
      endloop
   endfacet
   facet normal -3.960194e-001 9.182422e-001 0.000000e+000
      outer loop
         vertex 3.529975e+000 3.098828e+000 5.316717e+000
         vertex 3.529975e+000 3.098828e+000 1.000000e+001
         vertex 3.750505e+000 3.201663e+000 1.000000e+001
      endloop
   endfacet
   facet normal -4.488580e-001 8.936031e-001 0.000000e+000
      outer loop
         vertex 3.529975e+000 3.098828e+000 5.316717e+000
         vertex 3.750505e+000 3.201663e+000 1.000000e+001
         vertex 3.750505e+000 3.201663e+000 5.316717e+000
      endloop
   endfacet
   facet normal -5.494540e-001 8.355240e-001 0.000000e+000
      outer loop
         vertex 3.750505e+000 3.201663e+000 5.316717e+000
         vertex 3.750505e+000 3.201663e+000 1.000000e+001
         vertex 3.949826e+000 3.341230e+000 1.000000e+001
      endloop
   endfacet
   facet normal -5.972114e-001 8.020838e-001 0.000000e+000
      outer loop
         vertex 3.750505e+000 3.201663e+000 5.316717e+000
         vertex 3.949826e+000 3.341230e+000 1.000000e+001
         vertex 3.949826e+000 3.341230e+000 5.316717e+000
      endloop
   endfacet
   facet normal -6.861938e-001 7.274188e-001 0.000000e+000
      outer loop
         vertex 3.949826e+000 3.341230e+000 5.316717e+000
         vertex 3.949826e+000 3.341230e+000 1.000000e+001
         vertex 4.121885e+000 3.513288e+000 1.000000e+001
      endloop
   endfacet
   facet normal -7.274188e-001 6.861938e-001 0.000000e+000
      outer loop
         vertex 3.949826e+000 3.341230e+000 5.316717e+000
         vertex 4.121885e+000 3.513288e+000 1.000000e+001
         vertex 4.121885e+000 3.513288e+000 5.316717e+000
      endloop
   endfacet
   facet normal -8.020838e-001 5.972114e-001 0.000000e+000
      outer loop
         vertex 4.121885e+000 3.513288e+000 5.316717e+000
         vertex 4.121885e+000 3.513288e+000 1.000000e+001
         vertex 4.261452e+000 3.712610e+000 1.000000e+001
      endloop
   endfacet
   facet normal -8.355240e-001 5.494540e-001 0.000000e+000
      outer loop
         vertex 4.121885e+000 3.513288e+000 5.316717e+000
         vertex 4.261452e+000 3.712610e+000 1.000000e+001
         vertex 4.261452e+000 3.712610e+000 5.316717e+000
      endloop
   endfacet
   facet normal -8.936031e-001 4.488580e-001 0.000000e+000
      outer loop
         vertex 4.261452e+000 3.712610e+000 5.316717e+000
         vertex 4.261452e+000 3.712610e+000 1.000000e+001
         vertex 4.364286e+000 3.933140e+000 1.000000e+001
      endloop
   endfacet
   facet normal -9.182422e-001 3.960194e-001 0.000000e+000
      outer loop
         vertex 4.261452e+000 3.712610e+000 5.316717e+000
         vertex 4.364286e+000 3.933140e+000 1.000000e+001
         vertex 4.364286e+000 3.933140e+000 5.316717e+000
      endloop
   endfacet
   facet normal -9.579706e-001 2.868663e-001 0.000000e+000
      outer loop
         vertex 4.364286e+000 3.933140e+000 5.316717e+000
         vertex 4.364286e+000 3.933140e+000 1.000000e+001
         vertex 4.427264e+000 4.168176e+000 1.000000e+001
      endloop
   endfacet
   facet normal -9.730600e-001 2.305519e-001 0.000000e+000
      outer loop
         vertex 4.364286e+000 3.933140e+000 5.316717e+000
         vertex 4.427264e+000 4.168176e+000 1.000000e+001
         vertex 4.427264e+000 4.168176e+000 5.316717e+000
      endloop
   endfacet
   facet normal -9.932307e-001 1.161583e-001 0.000000e+000
      outer loop
         vertex 4.427264e+000 4.168176e+000 5.316717e+000
         vertex 4.427264e+000 4.168176e+000 1.000000e+001
         vertex 4.448472e+000 4.410577e+000 1.000000e+001
      endloop
   endfacet
   facet normal 0.000000e+000 0.000000e+000 1.000000e+000
      outer loop
         vertex 3.418673e+000 3.404629e+000 5.316717e+000
         vertex 3.529975e+000 3.098828e+000 5.316717e+000
         vertex 3.587791e+000 3.483490e+000 5.316717e+000
      endloop
   endfacet
   facet normal 0.000000e+000 0.000000e+000 1.000000e+000
      outer loop
         vertex 3.587791e+000 3.483490e+000 5.316717e+000
         vertex 3.529975e+000 3.098828e+000 5.316717e+000
         vertex 3.750505e+000 3.201663e+000 5.316717e+000
      endloop
   endfacet
   facet normal 0.000000e+000 0.000000e+000 1.000000e+000
      outer loop
         vertex 3.587791e+000 3.483490e+000 5.316717e+000
         vertex 3.750505e+000 3.201663e+000 5.316717e+000
         vertex 3.740647e+000 3.590521e+000 5.316717e+000
      endloop
   endfacet
   facet normal 0.000000e+000 0.000000e+000 1.000000e+000
      outer loop
         vertex 3.740647e+000 3.590521e+000 5.316717e+000
         vertex 3.750505e+000 3.201663e+000 5.316717e+000
         vertex 3.949826e+000 3.341230e+000 5.316717e+000
      endloop
   endfacet
   facet normal 0.000000e+000 0.000000e+000 1.000000e+000
      outer loop
         vertex 3.740647e+000 3.590521e+000 5.316717e+000
         vertex 3.949826e+000 3.341230e+000 5.316717e+000
         vertex 3.872594e+000 3.722468e+000 5.316717e+000
      endloop
   endfacet
   facet normal 0.000000e+000 0.000000e+000 1.000000e+000
      outer loop
         vertex 3.872594e+000 3.722468e+000 5.316717e+000
         vertex 3.949826e+000 3.341230e+000 5.316717e+000
         vertex 4.121885e+000 3.513288e+000 5.316717e+000
      endloop
   endfacet
   facet normal 0.000000e+000 0.000000e+000 1.000000e+000
      outer loop
         vertex 3.872594e+000 3.722468e+000 5.316717e+000
         vertex 4.121885e+000 3.513288e+000 5.316717e+000
         vertex 3.979624e+000 3.875323e+000 5.316717e+000
      endloop
   endfacet
   facet normal 0.000000e+000 0.000000e+000 1.000000e+000
      outer loop
         vertex 3.979624e+000 3.875323e+000 5.316717e+000
         vertex 4.121885e+000 3.513288e+000 5.316717e+000
         vertex 4.261452e+000 3.712610e+000 5.316717e+000
      endloop
   endfacet
   facet normal 0.000000e+000 0.000000e+000 1.000000e+000
      outer loop
         vertex 3.979624e+000 3.875323e+000 5.316717e+000
         vertex 4.261452e+000 3.712610e+000 5.316717e+000
         vertex 4.058486e+000 4.044442e+000 5.316717e+000
      endloop
   endfacet
   facet normal 0.000000e+000 0.000000e+000 1.000000e+000
      outer loop
         vertex 4.058486e+000 4.044442e+000 5.316717e+000
         vertex 4.261452e+000 3.712610e+000 5.316717e+000
         vertex 4.364286e+000 3.933140e+000 5.316717e+000
      endloop
   endfacet
   facet normal 0.000000e+000 0.000000e+000 1.000000e+000
      outer loop
         vertex 4.058486e+000 4.044442e+000 5.316717e+000
         vertex 4.364286e+000 3.933140e+000 5.316717e+000
         vertex 4.106781e+000 4.224686e+000 5.316717e+000
      endloop
   endfacet
   facet normal 0.000000e+000 0.000000e+000 1.000000e+000
      outer loop
         vertex 4.106781e+000 4.224686e+000 5.316717e+000
         vertex 4.364286e+000 3.933140e+000 5.316717e+000
         vertex 4.427264e+000 4.168176e+000 5.316717e+000
      endloop
   endfacet
   facet normal 0.000000e+000 0.000000e+000 1.000000e+000
      outer loop
         vertex 4.106781e+000 4.224686e+000 5.316717e+000
         vertex 4.427264e+000 4.168176e+000 5.316717e+000
         vertex 4.123045e+000 4.410577e+000 5.316717e+000
      endloop
   endfacet
   facet normal 0.000000e+000 0.000000e+000 1.000000e+000
      outer loop
         vertex 4.123045e+000 4.410577e+000 5.316717e+000
         vertex 4.427264e+000 4.168176e+000 5.316717e+000
         vertex 4.448472e+000 4.410577e+000 5.316717e+000
      endloop
   endfacet
   facet normal 0.000000e+000 0.000000e+000 1.000000e+000
      outer loop
         vertex 4.123045e+000 4.410577e+000 5.316717e+000
         vertex 4.448472e+000 4.410577e+000 5.316717e+000
         vertex 4.106781e+000 4.596468e+000 5.316717e+000
      endloop
   endfacet
   facet normal 0.000000e+000 0.000000e+000 1.000000e+000
      outer loop
         vertex 4.106781e+000 4.596468e+000 5.316717e+000
         vertex 4.448472e+000 4.410577e+000 5.316717e+000
         vertex 4.427264e+000 4.652978e+000 5.316717e+000
      endloop
   endfacet
   facet normal 0.000000e+000 0.000000e+000 1.000000e+000
      outer loop
         vertex 4.106781e+000 4.596468e+000 5.316717e+000
         vertex 4.427264e+000 4.652978e+000 5.316717e+000
         vertex 4.058486e+000 4.776712e+000 5.316717e+000
      endloop
   endfacet
   facet normal 0.000000e+000 0.000000e+000 1.000000e+000
      outer loop
         vertex 4.058486e+000 4.776712e+000 5.316717e+000
         vertex 4.427264e+000 4.652978e+000 5.316717e+000
         vertex 4.364286e+000 4.888014e+000 5.316717e+000
      endloop
   endfacet
   facet normal 0.000000e+000 0.000000e+000 1.000000e+000
      outer loop
         vertex 4.058486e+000 4.776712e+000 5.316717e+000
         vertex 4.364286e+000 4.888014e+000 5.316717e+000
         vertex 3.979624e+000 4.945830e+000 5.316717e+000
      endloop
   endfacet
   facet normal 0.000000e+000 0.000000e+000 1.000000e+000
      outer loop
         vertex 3.979624e+000 4.945830e+000 5.316717e+000
         vertex 4.364286e+000 4.888014e+000 5.316717e+000
         vertex 4.261452e+000 5.108544e+000 5.316717e+000
      endloop
   endfacet
   facet normal 0.000000e+000 0.000000e+000 1.000000e+000
      outer loop
         vertex 3.979624e+000 4.945830e+000 5.316717e+000
         vertex 4.261452e+000 5.108544e+000 5.316717e+000
         vertex 3.872594e+000 5.098686e+000 5.316717e+000
      endloop
   endfacet
   facet normal 0.000000e+000 0.000000e+000 1.000000e+000
      outer loop
         vertex 3.872594e+000 5.098686e+000 5.316717e+000
         vertex 4.261452e+000 5.108544e+000 5.316717e+000
         vertex 4.121885e+000 5.307866e+000 5.316717e+000
      endloop
   endfacet
   facet normal 0.000000e+000 0.000000e+000 1.000000e+000
      outer loop
         vertex 3.872594e+000 5.098686e+000 5.316717e+000
         vertex 4.121885e+000 5.307866e+000 5.316717e+000
         vertex 3.740647e+000 5.230633e+000 5.316717e+000
      endloop
   endfacet
   facet normal 0.000000e+000 0.000000e+000 1.000000e+000
      outer loop
         vertex 3.740647e+000 5.230633e+000 5.316717e+000
         vertex 4.121885e+000 5.307866e+000 5.316717e+000
         vertex 3.949826e+000 5.479924e+000 5.316717e+000
      endloop
   endfacet
   facet normal 0.000000e+000 0.000000e+000 1.000000e+000
      outer loop
         vertex 3.740647e+000 5.230633e+000 5.316717e+000
         vertex 3.949826e+000 5.479924e+000 5.316717e+000
         vertex 3.587791e+000 5.337664e+000 5.316717e+000
      endloop
   endfacet
   facet normal 0.000000e+000 0.000000e+000 1.000000e+000
      outer loop
         vertex 3.587791e+000 5.337664e+000 5.316717e+000
         vertex 3.949826e+000 5.479924e+000 5.316717e+000
         vertex 3.750505e+000 5.619491e+000 5.316717e+000
      endloop
   endfacet
   facet normal 0.000000e+000 0.000000e+000 1.000000e+000
      outer loop
         vertex 3.587791e+000 5.337664e+000 5.316717e+000
         vertex 3.750505e+000 5.619491e+000 5.316717e+000
         vertex 3.418673e+000 5.416524e+000 5.316717e+000
      endloop
   endfacet
   facet normal 0.000000e+000 0.000000e+000 1.000000e+000
      outer loop
         vertex 3.418673e+000 5.416524e+000 5.316717e+000
         vertex 3.750505e+000 5.619491e+000 5.316717e+000
         vertex 3.529975e+000 5.722325e+000 5.316717e+000
      endloop
   endfacet
   facet normal 0.000000e+000 0.000000e+000 1.000000e+000
      outer loop
         vertex 3.418673e+000 5.416524e+000 5.316717e+000
         vertex 3.529975e+000 5.722325e+000 5.316717e+000
         vertex 3.238430e+000 5.464821e+000 5.316717e+000
      endloop
   endfacet
   facet normal 0.000000e+000 0.000000e+000 1.000000e+000
      outer loop
         vertex 3.238430e+000 5.464821e+000 5.316717e+000
         vertex 3.529975e+000 5.722325e+000 5.316717e+000
         vertex 3.294939e+000 5.785303e+000 5.316717e+000
      endloop
   endfacet
   facet normal 0.000000e+000 0.000000e+000 1.000000e+000
      outer loop
         vertex 3.238430e+000 5.464821e+000 5.316717e+000
         vertex 3.294939e+000 5.785303e+000 5.316717e+000
         vertex 3.052538e+000 5.481084e+000 5.316717e+000
      endloop
   endfacet
   facet normal 0.000000e+000 0.000000e+000 1.000000e+000
      outer loop
         vertex 3.052538e+000 5.481084e+000 5.316717e+000
         vertex 3.294939e+000 5.785303e+000 5.316717e+000
         vertex 3.052538e+000 5.806510e+000 5.316717e+000
      endloop
   endfacet
   facet normal 0.000000e+000 0.000000e+000 1.000000e+000
      outer loop
         vertex 3.052538e+000 5.481084e+000 5.316717e+000
         vertex 3.052538e+000 5.806510e+000 5.316717e+000
         vertex 2.866646e+000 5.464821e+000 5.316717e+000
      endloop
   endfacet
   facet normal 0.000000e+000 0.000000e+000 1.000000e+000
      outer loop
         vertex 2.866646e+000 5.464821e+000 5.316717e+000
         vertex 3.052538e+000 5.806510e+000 5.316717e+000
         vertex 2.810137e+000 5.785303e+000 5.316717e+000
      endloop
   endfacet
   facet normal 0.000000e+000 0.000000e+000 1.000000e+000
      outer loop
         vertex 2.866646e+000 5.464821e+000 5.316717e+000
         vertex 2.810137e+000 5.785303e+000 5.316717e+000
         vertex 2.686403e+000 5.416524e+000 5.316717e+000
      endloop
   endfacet
   facet normal 0.000000e+000 0.000000e+000 1.000000e+000
      outer loop
         vertex 2.686403e+000 5.416524e+000 5.316717e+000
         vertex 2.810137e+000 5.785303e+000 5.316717e+000
         vertex 2.575100e+000 5.722325e+000 5.316717e+000
      endloop
   endfacet
   facet normal 0.000000e+000 0.000000e+000 1.000000e+000
      outer loop
         vertex 2.686403e+000 5.416524e+000 5.316717e+000
         vertex 2.575100e+000 5.722325e+000 5.316717e+000
         vertex 2.517284e+000 5.337664e+000 5.316717e+000
      endloop
   endfacet
   facet normal 0.000000e+000 0.000000e+000 1.000000e+000
      outer loop
         vertex 2.517284e+000 5.337664e+000 5.316717e+000
         vertex 2.575100e+000 5.722325e+000 5.316717e+000
         vertex 2.354571e+000 5.619491e+000 5.316717e+000
      endloop
   endfacet
   facet normal 0.000000e+000 0.000000e+000 1.000000e+000
      outer loop
         vertex 2.517284e+000 5.337664e+000 5.316717e+000
         vertex 2.354571e+000 5.619491e+000 5.316717e+000
         vertex 2.364429e+000 5.230633e+000 5.316717e+000
      endloop
   endfacet
   facet normal 0.000000e+000 0.000000e+000 1.000000e+000
      outer loop
         vertex 2.364429e+000 5.230633e+000 5.316717e+000
         vertex 2.354571e+000 5.619491e+000 5.316717e+000
         vertex 2.155249e+000 5.479924e+000 5.316717e+000
      endloop
   endfacet
   facet normal 0.000000e+000 0.000000e+000 1.000000e+000
      outer loop
         vertex 2.364429e+000 5.230633e+000 5.316717e+000
         vertex 2.155249e+000 5.479924e+000 5.316717e+000
         vertex 2.232482e+000 5.098686e+000 5.316717e+000
      endloop
   endfacet
   facet normal 0.000000e+000 0.000000e+000 1.000000e+000
      outer loop
         vertex 2.232482e+000 5.098686e+000 5.316717e+000
         vertex 2.155249e+000 5.479924e+000 5.316717e+000
         vertex 1.983191e+000 5.307866e+000 5.316717e+000
      endloop
   endfacet
   facet normal 0.000000e+000 0.000000e+000 1.000000e+000
      outer loop
         vertex 2.232482e+000 5.098686e+000 5.316717e+000
         vertex 1.983191e+000 5.307866e+000 5.316717e+000
         vertex 2.125451e+000 4.945830e+000 5.316717e+000
      endloop
   endfacet
   facet normal 0.000000e+000 0.000000e+000 1.000000e+000
      outer loop
         vertex 2.125451e+000 4.945830e+000 5.316717e+000
         vertex 1.983191e+000 5.307866e+000 5.316717e+000
         vertex 1.843624e+000 5.108544e+000 5.316717e+000
      endloop
   endfacet
   facet normal 0.000000e+000 0.000000e+000 1.000000e+000
      outer loop
         vertex 2.125451e+000 4.945830e+000 5.316717e+000
         vertex 1.843624e+000 5.108544e+000 5.316717e+000
         vertex 2.046590e+000 4.776712e+000 5.316717e+000
      endloop
   endfacet
   facet normal 0.000000e+000 0.000000e+000 1.000000e+000
      outer loop
         vertex 2.046590e+000 4.776712e+000 5.316717e+000
         vertex 1.843624e+000 5.108544e+000 5.316717e+000
         vertex 1.740789e+000 4.888014e+000 5.316717e+000
      endloop
   endfacet
   facet normal 0.000000e+000 0.000000e+000 1.000000e+000
      outer loop
         vertex 2.046590e+000 4.776712e+000 5.316717e+000
         vertex 1.740789e+000 4.888014e+000 5.316717e+000
         vertex 1.998294e+000 4.596468e+000 5.316717e+000
      endloop
   endfacet
   facet normal 0.000000e+000 0.000000e+000 1.000000e+000
      outer loop
         vertex 1.998294e+000 4.596468e+000 5.316717e+000
         vertex 1.740789e+000 4.888014e+000 5.316717e+000
         vertex 1.677812e+000 4.652978e+000 5.316717e+000
      endloop
   endfacet
   facet normal 0.000000e+000 0.000000e+000 1.000000e+000
      outer loop
         vertex 1.998294e+000 4.596468e+000 5.316717e+000
         vertex 1.677812e+000 4.652978e+000 5.316717e+000
         vertex 1.982031e+000 4.410577e+000 5.316717e+000
      endloop
   endfacet
   facet normal 0.000000e+000 0.000000e+000 1.000000e+000
      outer loop
         vertex 1.982031e+000 4.410577e+000 5.316717e+000
         vertex 1.677812e+000 4.652978e+000 5.316717e+000
         vertex 1.656604e+000 4.410577e+000 5.316717e+000
      endloop
   endfacet
   facet normal 0.000000e+000 0.000000e+000 1.000000e+000
      outer loop
         vertex 1.982031e+000 4.410577e+000 5.316717e+000
         vertex 1.656604e+000 4.410577e+000 5.316717e+000
         vertex 1.998294e+000 4.224686e+000 5.316717e+000
      endloop
   endfacet
   facet normal 0.000000e+000 0.000000e+000 1.000000e+000
      outer loop
         vertex 1.998294e+000 4.224686e+000 5.316717e+000
         vertex 1.656604e+000 4.410577e+000 5.316717e+000
         vertex 1.677812e+000 4.168176e+000 5.316717e+000
      endloop
   endfacet
   facet normal 0.000000e+000 0.000000e+000 1.000000e+000
      outer loop
         vertex 1.998294e+000 4.224686e+000 5.316717e+000
         vertex 1.677812e+000 4.168176e+000 5.316717e+000
         vertex 2.046590e+000 4.044442e+000 5.316717e+000
      endloop
   endfacet
   facet normal 0.000000e+000 0.000000e+000 1.000000e+000
      outer loop
         vertex 2.046590e+000 4.044442e+000 5.316717e+000
         vertex 1.677812e+000 4.168176e+000 5.316717e+000
         vertex 1.740789e+000 3.933140e+000 5.316717e+000
      endloop
   endfacet
   facet normal 0.000000e+000 0.000000e+000 1.000000e+000
      outer loop
         vertex 2.046590e+000 4.044442e+000 5.316717e+000
         vertex 1.740789e+000 3.933140e+000 5.316717e+000
         vertex 2.125451e+000 3.875323e+000 5.316717e+000
      endloop
   endfacet
   facet normal 0.000000e+000 0.000000e+000 1.000000e+000
      outer loop
         vertex 2.125451e+000 3.875323e+000 5.316717e+000
         vertex 1.740789e+000 3.933140e+000 5.316717e+000
         vertex 1.843624e+000 3.712610e+000 5.316717e+000
      endloop
   endfacet
   facet normal 0.000000e+000 0.000000e+000 1.000000e+000
      outer loop
         vertex 2.125451e+000 3.875323e+000 5.316717e+000
         vertex 1.843624e+000 3.712610e+000 5.316717e+000
         vertex 2.232482e+000 3.722468e+000 5.316717e+000
      endloop
   endfacet
   facet normal 0.000000e+000 0.000000e+000 1.000000e+000
      outer loop
         vertex 2.232482e+000 3.722468e+000 5.316717e+000
         vertex 1.843624e+000 3.712610e+000 5.316717e+000
         vertex 1.983191e+000 3.513288e+000 5.316717e+000
      endloop
   endfacet
   facet normal 0.000000e+000 0.000000e+000 1.000000e+000
      outer loop
         vertex 2.232482e+000 3.722468e+000 5.316717e+000
         vertex 1.983191e+000 3.513288e+000 5.316717e+000
         vertex 2.364429e+000 3.590521e+000 5.316717e+000
      endloop
   endfacet
   facet normal 0.000000e+000 0.000000e+000 1.000000e+000
      outer loop
         vertex 2.364429e+000 3.590521e+000 5.316717e+000
         vertex 1.983191e+000 3.513288e+000 5.316717e+000
         vertex 2.155249e+000 3.341230e+000 5.316717e+000
      endloop
   endfacet
   facet normal 0.000000e+000 0.000000e+000 1.000000e+000
      outer loop
         vertex 2.364429e+000 3.590521e+000 5.316717e+000
         vertex 2.155249e+000 3.341230e+000 5.316717e+000
         vertex 2.517284e+000 3.483490e+000 5.316717e+000
      endloop
   endfacet
   facet normal 0.000000e+000 0.000000e+000 1.000000e+000
      outer loop
         vertex 2.517284e+000 3.483490e+000 5.316717e+000
         vertex 2.155249e+000 3.341230e+000 5.316717e+000
         vertex 2.354571e+000 3.201663e+000 5.316717e+000
      endloop
   endfacet
   facet normal 0.000000e+000 0.000000e+000 1.000000e+000
      outer loop
         vertex 2.517284e+000 3.483490e+000 5.316717e+000
         vertex 2.354571e+000 3.201663e+000 5.316717e+000
         vertex 2.686403e+000 3.404629e+000 5.316717e+000
      endloop
   endfacet
   facet normal 0.000000e+000 0.000000e+000 1.000000e+000
      outer loop
         vertex 2.686403e+000 3.404629e+000 5.316717e+000
         vertex 2.354571e+000 3.201663e+000 5.316717e+000
         vertex 2.575100e+000 3.098828e+000 5.316717e+000
      endloop
   endfacet
   facet normal 0.000000e+000 0.000000e+000 1.000000e+000
      outer loop
         vertex 2.686403e+000 3.404629e+000 5.316717e+000
         vertex 2.575100e+000 3.098828e+000 5.316717e+000
         vertex 2.866646e+000 3.356333e+000 5.316717e+000
      endloop
   endfacet
   facet normal 0.000000e+000 0.000000e+000 1.000000e+000
      outer loop
         vertex 2.866646e+000 3.356333e+000 5.316717e+000
         vertex 2.575100e+000 3.098828e+000 5.316717e+000
         vertex 2.810137e+000 3.035851e+000 5.316717e+000
      endloop
   endfacet
   facet normal 0.000000e+000 0.000000e+000 1.000000e+000
      outer loop
         vertex 2.866646e+000 3.356333e+000 5.316717e+000
         vertex 2.810137e+000 3.035851e+000 5.316717e+000
         vertex 3.052538e+000 3.340070e+000 5.316717e+000
      endloop
   endfacet
   facet normal 0.000000e+000 0.000000e+000 1.000000e+000
      outer loop
         vertex 3.052538e+000 3.340070e+000 5.316717e+000
         vertex 2.810137e+000 3.035851e+000 5.316717e+000
         vertex 3.052538e+000 3.014643e+000 5.316717e+000
      endloop
   endfacet
   facet normal 0.000000e+000 0.000000e+000 1.000000e+000
      outer loop
         vertex 3.052538e+000 3.340070e+000 5.316717e+000
         vertex 3.052538e+000 3.014643e+000 5.316717e+000
         vertex 3.238430e+000 3.356333e+000 5.316717e+000
      endloop
   endfacet
   facet normal 0.000000e+000 0.000000e+000 1.000000e+000
      outer loop
         vertex 3.238430e+000 3.356333e+000 5.316717e+000
         vertex 3.052538e+000 3.014643e+000 5.316717e+000
         vertex 3.294939e+000 3.035851e+000 5.316717e+000
      endloop
   endfacet
   facet normal 0.000000e+000 0.000000e+000 1.000000e+000
      outer loop
         vertex 3.238430e+000 3.356333e+000 5.316717e+000
         vertex 3.294939e+000 3.035851e+000 5.316717e+000
         vertex 3.418673e+000 3.404629e+000 5.316717e+000
      endloop
   endfacet
   facet normal 0.000000e+000 0.000000e+000 1.000000e+000
      outer loop
         vertex 3.418673e+000 3.404629e+000 5.316717e+000
         vertex 3.294939e+000 3.035851e+000 5.316717e+000
         vertex 3.529975e+000 3.098828e+000 5.316717e+000
      endloop
   endfacet
   facet normal 9.983119e-001 5.807913e-002 0.000000e+000
      outer loop
         vertex 4.106781e+000 4.596468e+000 5.316717e+000
         vertex 4.123045e+000 4.410577e+000 1.000000e+001
         vertex 4.123045e+000 4.410577e+000 5.316717e+000
      endloop
   endfacet
   facet normal 9.983119e-001 -5.807913e-002 0.000000e+000
      outer loop
         vertex 4.123045e+000 4.410577e+000 5.316717e+000
         vertex 4.123045e+000 4.410577e+000 1.000000e+001
         vertex 4.106781e+000 4.224686e+000 1.000000e+001
      endloop
   endfacet
   facet normal 9.932307e-001 -1.161583e-001 0.000000e+000
      outer loop
         vertex 4.123045e+000 4.410577e+000 5.316717e+000
         vertex 4.106781e+000 4.224686e+000 1.000000e+001
         vertex 4.106781e+000 4.224686e+000 5.316717e+000
      endloop
   endfacet
   facet normal 9.730600e-001 -2.305519e-001 0.000000e+000
      outer loop
         vertex 4.106781e+000 4.224686e+000 5.316717e+000
         vertex 4.106781e+000 4.224686e+000 1.000000e+001
         vertex 4.058486e+000 4.044442e+000 1.000000e+001
      endloop
   endfacet
   facet normal 9.579706e-001 -2.868663e-001 0.000000e+000
      outer loop
         vertex 4.106781e+000 4.224686e+000 5.316717e+000
         vertex 4.058486e+000 4.044442e+000 1.000000e+001
         vertex 4.058486e+000 4.044442e+000 5.316717e+000
      endloop
   endfacet
   facet normal 9.182422e-001 -3.960194e-001 0.000000e+000
      outer loop
         vertex 4.058486e+000 4.044442e+000 5.316717e+000
         vertex 4.058486e+000 4.044442e+000 1.000000e+001
         vertex 3.979624e+000 3.875323e+000 1.000000e+001
      endloop
   endfacet
   facet normal 8.936031e-001 -4.488580e-001 0.000000e+000
      outer loop
         vertex 4.058486e+000 4.044442e+000 5.316717e+000
         vertex 3.979624e+000 3.875323e+000 1.000000e+001
         vertex 3.979624e+000 3.875323e+000 5.316717e+000
      endloop
   endfacet
   facet normal 8.355240e-001 -5.494540e-001 0.000000e+000
      outer loop
         vertex 3.979624e+000 3.875323e+000 5.316717e+000
         vertex 3.979624e+000 3.875323e+000 1.000000e+001
         vertex 3.872594e+000 3.722468e+000 1.000000e+001
      endloop
   endfacet
   facet normal 8.020838e-001 -5.972114e-001 0.000000e+000
      outer loop
         vertex 3.979624e+000 3.875323e+000 5.316717e+000
         vertex 3.872594e+000 3.722468e+000 1.000000e+001
         vertex 3.872594e+000 3.722468e+000 5.316717e+000
      endloop
   endfacet
   facet normal 7.274188e-001 -6.861938e-001 0.000000e+000
      outer loop
         vertex 3.872594e+000 3.722468e+000 5.316717e+000
         vertex 3.872594e+000 3.722468e+000 1.000000e+001
         vertex 3.740647e+000 3.590521e+000 1.000000e+001
      endloop
   endfacet
   facet normal 6.861938e-001 -7.274188e-001 0.000000e+000
      outer loop
         vertex 3.872594e+000 3.722468e+000 5.316717e+000
         vertex 3.740647e+000 3.590521e+000 1.000000e+001
         vertex 3.740647e+000 3.590521e+000 5.316717e+000
      endloop
   endfacet
   facet normal 5.972114e-001 -8.020838e-001 0.000000e+000
      outer loop
         vertex 3.740647e+000 3.590521e+000 5.316717e+000
         vertex 3.740647e+000 3.590521e+000 1.000000e+001
         vertex 3.587791e+000 3.483490e+000 1.000000e+001
      endloop
   endfacet
   facet normal 5.494540e-001 -8.355240e-001 0.000000e+000
      outer loop
         vertex 3.740647e+000 3.590521e+000 5.316717e+000
         vertex 3.587791e+000 3.483490e+000 1.000000e+001
         vertex 3.587791e+000 3.483490e+000 5.316717e+000
      endloop
   endfacet
   facet normal 4.488580e-001 -8.936031e-001 0.000000e+000
      outer loop
         vertex 3.587791e+000 3.483490e+000 5.316717e+000
         vertex 3.587791e+000 3.483490e+000 1.000000e+001
         vertex 3.418673e+000 3.404629e+000 1.000000e+001
      endloop
   endfacet
   facet normal 3.960194e-001 -9.182422e-001 0.000000e+000
      outer loop
         vertex 3.587791e+000 3.483490e+000 5.316717e+000
         vertex 3.418673e+000 3.404629e+000 1.000000e+001
         vertex 3.418673e+000 3.404629e+000 5.316717e+000
      endloop
   endfacet
   facet normal 2.868663e-001 -9.579706e-001 0.000000e+000
      outer loop
         vertex 3.418673e+000 3.404629e+000 5.316717e+000
         vertex 3.418673e+000 3.404629e+000 1.000000e+001
         vertex 3.238430e+000 3.356333e+000 1.000000e+001
      endloop
   endfacet
   facet normal 2.305519e-001 -9.730600e-001 0.000000e+000
      outer loop
         vertex 3.418673e+000 3.404629e+000 5.316717e+000
         vertex 3.238430e+000 3.356333e+000 1.000000e+001
         vertex 3.238430e+000 3.356333e+000 5.316717e+000
      endloop
   endfacet
   facet normal 1.161583e-001 -9.932307e-001 0.000000e+000
      outer loop
         vertex 3.238430e+000 3.356333e+000 5.316717e+000
         vertex 3.238430e+000 3.356333e+000 1.000000e+001
         vertex 3.052538e+000 3.340070e+000 1.000000e+001
      endloop
   endfacet
   facet normal 5.807913e-002 -9.983119e-001 0.000000e+000
      outer loop
         vertex 3.238430e+000 3.356333e+000 5.316717e+000
         vertex 3.052538e+000 3.340070e+000 1.000000e+001
         vertex 3.052538e+000 3.340070e+000 5.316717e+000
      endloop
   endfacet
   facet normal -5.807913e-002 -9.983119e-001 0.000000e+000
      outer loop
         vertex 3.052538e+000 3.340070e+000 5.316717e+000
         vertex 3.052538e+000 3.340070e+000 1.000000e+001
         vertex 2.866646e+000 3.356333e+000 1.000000e+001
      endloop
   endfacet
   facet normal -1.161583e-001 -9.932307e-001 0.000000e+000
      outer loop
         vertex 3.052538e+000 3.340070e+000 5.316717e+000
         vertex 2.866646e+000 3.356333e+000 1.000000e+001
         vertex 2.866646e+000 3.356333e+000 5.316717e+000
      endloop
   endfacet
   facet normal -2.305519e-001 -9.730600e-001 0.000000e+000
      outer loop
         vertex 2.866646e+000 3.356333e+000 5.316717e+000
         vertex 2.866646e+000 3.356333e+000 1.000000e+001
         vertex 2.686403e+000 3.404629e+000 1.000000e+001
      endloop
   endfacet
   facet normal -2.868663e-001 -9.579706e-001 0.000000e+000
      outer loop
         vertex 2.866646e+000 3.356333e+000 5.316717e+000
         vertex 2.686403e+000 3.404629e+000 1.000000e+001
         vertex 2.686403e+000 3.404629e+000 5.316717e+000
      endloop
   endfacet
   facet normal -3.960194e-001 -9.182422e-001 0.000000e+000
      outer loop
         vertex 2.686403e+000 3.404629e+000 5.316717e+000
         vertex 2.686403e+000 3.404629e+000 1.000000e+001
         vertex 2.517284e+000 3.483490e+000 1.000000e+001
      endloop
   endfacet
   facet normal -4.488580e-001 -8.936031e-001 0.000000e+000
      outer loop
         vertex 2.686403e+000 3.404629e+000 5.316717e+000
         vertex 2.517284e+000 3.483490e+000 1.000000e+001
         vertex 2.517284e+000 3.483490e+000 5.316717e+000
      endloop
   endfacet
   facet normal -5.494540e-001 -8.355240e-001 0.000000e+000
      outer loop
         vertex 2.517284e+000 3.483490e+000 5.316717e+000
         vertex 2.517284e+000 3.483490e+000 1.000000e+001
         vertex 2.364429e+000 3.590521e+000 1.000000e+001
      endloop
   endfacet
   facet normal -5.972114e-001 -8.020838e-001 0.000000e+000
      outer loop
         vertex 2.517284e+000 3.483490e+000 5.316717e+000
         vertex 2.364429e+000 3.590521e+000 1.000000e+001
         vertex 2.364429e+000 3.590521e+000 5.316717e+000
      endloop
   endfacet
   facet normal -6.861938e-001 -7.274188e-001 0.000000e+000
      outer loop
         vertex 2.364429e+000 3.590521e+000 5.316717e+000
         vertex 2.364429e+000 3.590521e+000 1.000000e+001
         vertex 2.232482e+000 3.722468e+000 1.000000e+001
      endloop
   endfacet
   facet normal -7.274188e-001 -6.861938e-001 0.000000e+000
      outer loop
         vertex 2.364429e+000 3.590521e+000 5.316717e+000
         vertex 2.232482e+000 3.722468e+000 1.000000e+001
         vertex 2.232482e+000 3.722468e+000 5.316717e+000
      endloop
   endfacet
   facet normal -8.020838e-001 -5.972114e-001 0.000000e+000
      outer loop
         vertex 2.232482e+000 3.722468e+000 5.316717e+000
         vertex 2.232482e+000 3.722468e+000 1.000000e+001
         vertex 2.125451e+000 3.875323e+000 1.000000e+001
      endloop
   endfacet
   facet normal -8.355240e-001 -5.494540e-001 0.000000e+000
      outer loop
         vertex 2.232482e+000 3.722468e+000 5.316717e+000
         vertex 2.125451e+000 3.875323e+000 1.000000e+001
         vertex 2.125451e+000 3.875323e+000 5.316717e+000
      endloop
   endfacet
   facet normal -8.936031e-001 -4.488580e-001 0.000000e+000
      outer loop
         vertex 2.125451e+000 3.875323e+000 5.316717e+000
         vertex 2.125451e+000 3.875323e+000 1.000000e+001
         vertex 2.046590e+000 4.044442e+000 1.000000e+001
      endloop
   endfacet
   facet normal -9.182422e-001 -3.960194e-001 0.000000e+000
      outer loop
         vertex 2.125451e+000 3.875323e+000 5.316717e+000
         vertex 2.046590e+000 4.044442e+000 1.000000e+001
         vertex 2.046590e+000 4.044442e+000 5.316717e+000
      endloop
   endfacet
   facet normal -9.579706e-001 -2.868663e-001 0.000000e+000
      outer loop
         vertex 2.046590e+000 4.044442e+000 5.316717e+000
         vertex 2.046590e+000 4.044442e+000 1.000000e+001
         vertex 1.998294e+000 4.224686e+000 1.000000e+001
      endloop
   endfacet
   facet normal -9.730600e-001 -2.305519e-001 0.000000e+000
      outer loop
         vertex 2.046590e+000 4.044442e+000 5.316717e+000
         vertex 1.998294e+000 4.224686e+000 1.000000e+001
         vertex 1.998294e+000 4.224686e+000 5.316717e+000
      endloop
   endfacet
   facet normal -9.932307e-001 -1.161583e-001 0.000000e+000
      outer loop
         vertex 1.998294e+000 4.224686e+000 5.316717e+000
         vertex 1.998294e+000 4.224686e+000 1.000000e+001
         vertex 1.982031e+000 4.410577e+000 1.000000e+001
      endloop
   endfacet
   facet normal -9.983119e-001 -5.807913e-002 0.000000e+000
      outer loop
         vertex 1.998294e+000 4.224686e+000 5.316717e+000
         vertex 1.982031e+000 4.410577e+000 1.000000e+001
         vertex 1.982031e+000 4.410577e+000 5.316717e+000
      endloop
   endfacet
   facet normal -9.983119e-001 5.807913e-002 0.000000e+000
      outer loop
         vertex 1.982031e+000 4.410577e+000 5.316717e+000
         vertex 1.982031e+000 4.410577e+000 1.000000e+001
         vertex 1.998294e+000 4.596468e+000 1.000000e+001
      endloop
   endfacet
   facet normal -9.932307e-001 1.161583e-001 0.000000e+000
      outer loop
         vertex 1.982031e+000 4.410577e+000 5.316717e+000
         vertex 1.998294e+000 4.596468e+000 1.000000e+001
         vertex 1.998294e+000 4.596468e+000 5.316717e+000
      endloop
   endfacet
   facet normal -9.730600e-001 2.305519e-001 0.000000e+000
      outer loop
         vertex 1.998294e+000 4.596468e+000 5.316717e+000
         vertex 1.998294e+000 4.596468e+000 1.000000e+001
         vertex 2.046590e+000 4.776712e+000 1.000000e+001
      endloop
   endfacet
   facet normal -9.579706e-001 2.868663e-001 0.000000e+000
      outer loop
         vertex 1.998294e+000 4.596468e+000 5.316717e+000
         vertex 2.046590e+000 4.776712e+000 1.000000e+001
         vertex 2.046590e+000 4.776712e+000 5.316717e+000
      endloop
   endfacet
   facet normal -9.182422e-001 3.960194e-001 0.000000e+000
      outer loop
         vertex 2.046590e+000 4.776712e+000 5.316717e+000
         vertex 2.046590e+000 4.776712e+000 1.000000e+001
         vertex 2.125451e+000 4.945830e+000 1.000000e+001
      endloop
   endfacet
   facet normal -8.936031e-001 4.488580e-001 0.000000e+000
      outer loop
         vertex 2.046590e+000 4.776712e+000 5.316717e+000
         vertex 2.125451e+000 4.945830e+000 1.000000e+001
         vertex 2.125451e+000 4.945830e+000 5.316717e+000
      endloop
   endfacet
   facet normal -8.355240e-001 5.494540e-001 0.000000e+000
      outer loop
         vertex 2.125451e+000 4.945830e+000 5.316717e+000
         vertex 2.125451e+000 4.945830e+000 1.000000e+001
         vertex 2.232482e+000 5.098686e+000 1.000000e+001
      endloop
   endfacet
   facet normal -8.020838e-001 5.972114e-001 0.000000e+000
      outer loop
         vertex 2.125451e+000 4.945830e+000 5.316717e+000
         vertex 2.232482e+000 5.098686e+000 1.000000e+001
         vertex 2.232482e+000 5.098686e+000 5.316717e+000
      endloop
   endfacet
   facet normal -7.274188e-001 6.861938e-001 0.000000e+000
      outer loop
         vertex 2.232482e+000 5.098686e+000 5.316717e+000
         vertex 2.232482e+000 5.098686e+000 1.000000e+001
         vertex 2.364429e+000 5.230633e+000 1.000000e+001
      endloop
   endfacet
   facet normal -6.861938e-001 7.274188e-001 0.000000e+000
      outer loop
         vertex 2.232482e+000 5.098686e+000 5.316717e+000
         vertex 2.364429e+000 5.230633e+000 1.000000e+001
         vertex 2.364429e+000 5.230633e+000 5.316717e+000
      endloop
   endfacet
   facet normal -5.972114e-001 8.020838e-001 0.000000e+000
      outer loop
         vertex 2.364429e+000 5.230633e+000 5.316717e+000
         vertex 2.364429e+000 5.230633e+000 1.000000e+001
         vertex 2.517284e+000 5.337664e+000 1.000000e+001
      endloop
   endfacet
   facet normal -5.494540e-001 8.355240e-001 0.000000e+000
      outer loop
         vertex 2.364429e+000 5.230633e+000 5.316717e+000
         vertex 2.517284e+000 5.337664e+000 1.000000e+001
         vertex 2.517284e+000 5.337664e+000 5.316717e+000
      endloop
   endfacet
   facet normal -4.488580e-001 8.936031e-001 0.000000e+000
      outer loop
         vertex 2.517284e+000 5.337664e+000 5.316717e+000
         vertex 2.517284e+000 5.337664e+000 1.000000e+001
         vertex 2.686403e+000 5.416524e+000 1.000000e+001
      endloop
   endfacet
   facet normal -3.960194e-001 9.182422e-001 0.000000e+000
      outer loop
         vertex 2.517284e+000 5.337664e+000 5.316717e+000
         vertex 2.686403e+000 5.416524e+000 1.000000e+001
         vertex 2.686403e+000 5.416524e+000 5.316717e+000
      endloop
   endfacet
   facet normal -2.868663e-001 9.579706e-001 0.000000e+000
      outer loop
         vertex 2.686403e+000 5.416524e+000 5.316717e+000
         vertex 2.686403e+000 5.416524e+000 1.000000e+001
         vertex 2.866646e+000 5.464821e+000 1.000000e+001
      endloop
   endfacet
   facet normal -2.305519e-001 9.730600e-001 0.000000e+000
      outer loop
         vertex 2.686403e+000 5.416524e+000 5.316717e+000
         vertex 2.866646e+000 5.464821e+000 1.000000e+001
         vertex 2.866646e+000 5.464821e+000 5.316717e+000
      endloop
   endfacet
   facet normal -1.161583e-001 9.932307e-001 0.000000e+000
      outer loop
         vertex 2.866646e+000 5.464821e+000 5.316717e+000
         vertex 2.866646e+000 5.464821e+000 1.000000e+001
         vertex 3.052538e+000 5.481084e+000 1.000000e+001
      endloop
   endfacet
   facet normal -5.807913e-002 9.983119e-001 0.000000e+000
      outer loop
         vertex 2.866646e+000 5.464821e+000 5.316717e+000
         vertex 3.052538e+000 5.481084e+000 1.000000e+001
         vertex 3.052538e+000 5.481084e+000 5.316717e+000
      endloop
   endfacet
   facet normal 5.807913e-002 9.983119e-001 0.000000e+000
      outer loop
         vertex 3.052538e+000 5.481084e+000 5.316717e+000
         vertex 3.052538e+000 5.481084e+000 1.000000e+001
         vertex 3.238430e+000 5.464821e+000 1.000000e+001
      endloop
   endfacet
   facet normal 1.161583e-001 9.932307e-001 0.000000e+000
      outer loop
         vertex 3.052538e+000 5.481084e+000 5.316717e+000
         vertex 3.238430e+000 5.464821e+000 1.000000e+001
         vertex 3.238430e+000 5.464821e+000 5.316717e+000
      endloop
   endfacet
   facet normal 2.305519e-001 9.730600e-001 0.000000e+000
      outer loop
         vertex 3.238430e+000 5.464821e+000 5.316717e+000
         vertex 3.238430e+000 5.464821e+000 1.000000e+001
         vertex 3.418673e+000 5.416524e+000 1.000000e+001
      endloop
   endfacet
   facet normal 2.868663e-001 9.579706e-001 0.000000e+000
      outer loop
         vertex 3.238430e+000 5.464821e+000 5.316717e+000
         vertex 3.418673e+000 5.416524e+000 1.000000e+001
         vertex 3.418673e+000 5.416524e+000 5.316717e+000
      endloop
   endfacet
   facet normal 3.960194e-001 9.182422e-001 0.000000e+000
      outer loop
         vertex 3.418673e+000 5.416524e+000 5.316717e+000
         vertex 3.418673e+000 5.416524e+000 1.000000e+001
         vertex 3.587791e+000 5.337664e+000 1.000000e+001
      endloop
   endfacet
   facet normal 4.488580e-001 8.936031e-001 0.000000e+000
      outer loop
         vertex 3.418673e+000 5.416524e+000 5.316717e+000
         vertex 3.587791e+000 5.337664e+000 1.000000e+001
         vertex 3.587791e+000 5.337664e+000 5.316717e+000
      endloop
   endfacet
   facet normal 5.494540e-001 8.355240e-001 0.000000e+000
      outer loop
         vertex 3.587791e+000 5.337664e+000 5.316717e+000
         vertex 3.587791e+000 5.337664e+000 1.000000e+001
         vertex 3.740647e+000 5.230633e+000 1.000000e+001
      endloop
   endfacet
   facet normal 5.972114e-001 8.020838e-001 0.000000e+000
      outer loop
         vertex 3.587791e+000 5.337664e+000 5.316717e+000
         vertex 3.740647e+000 5.230633e+000 1.000000e+001
         vertex 3.740647e+000 5.230633e+000 5.316717e+000
      endloop
   endfacet
   facet normal 6.861938e-001 7.274188e-001 0.000000e+000
      outer loop
         vertex 3.740647e+000 5.230633e+000 5.316717e+000
         vertex 3.740647e+000 5.230633e+000 1.000000e+001
         vertex 3.872594e+000 5.098686e+000 1.000000e+001
      endloop
   endfacet
   facet normal 7.274188e-001 6.861938e-001 0.000000e+000
      outer loop
         vertex 3.740647e+000 5.230633e+000 5.316717e+000
         vertex 3.872594e+000 5.098686e+000 1.000000e+001
         vertex 3.872594e+000 5.098686e+000 5.316717e+000
      endloop
   endfacet
   facet normal 8.020838e-001 5.972114e-001 0.000000e+000
      outer loop
         vertex 3.872594e+000 5.098686e+000 5.316717e+000
         vertex 3.872594e+000 5.098686e+000 1.000000e+001
         vertex 3.979624e+000 4.945830e+000 1.000000e+001
      endloop
   endfacet
   facet normal 8.355240e-001 5.494540e-001 0.000000e+000
      outer loop
         vertex 3.872594e+000 5.098686e+000 5.316717e+000
         vertex 3.979624e+000 4.945830e+000 1.000000e+001
         vertex 3.979624e+000 4.945830e+000 5.316717e+000
      endloop
   endfacet
   facet normal 8.936031e-001 4.488580e-001 0.000000e+000
      outer loop
         vertex 3.979624e+000 4.945830e+000 5.316717e+000
         vertex 3.979624e+000 4.945830e+000 1.000000e+001
         vertex 4.058486e+000 4.776712e+000 1.000000e+001
      endloop
   endfacet
   facet normal 9.182422e-001 3.960194e-001 0.000000e+000
      outer loop
         vertex 3.979624e+000 4.945830e+000 5.316717e+000
         vertex 4.058486e+000 4.776712e+000 1.000000e+001
         vertex 4.058486e+000 4.776712e+000 5.316717e+000
      endloop
   endfacet
   facet normal 9.579706e-001 2.868663e-001 0.000000e+000
      outer loop
         vertex 4.058486e+000 4.776712e+000 5.316717e+000
         vertex 4.058486e+000 4.776712e+000 1.000000e+001
         vertex 4.106781e+000 4.596468e+000 1.000000e+001
      endloop
   endfacet
   facet normal 9.730600e-001 2.305519e-001 0.000000e+000
      outer loop
         vertex 4.058486e+000 4.776712e+000 5.316717e+000
         vertex 4.106781e+000 4.596468e+000 1.000000e+001
         vertex 4.106781e+000 4.596468e+000 5.316717e+000
      endloop
   endfacet
   facet normal 9.932307e-001 1.161583e-001 0.000000e+000
      outer loop
         vertex 4.106781e+000 4.596468e+000 5.316717e+000
         vertex 4.106781e+000 4.596468e+000 1.000000e+001
         vertex 4.123045e+000 4.410577e+000 1.000000e+001
      endloop
   endfacet
   facet normal 0.000000e+000 0.000000e+000 1.000000e+000
      outer loop
         vertex 2.125451e+000 3.875323e+000 1.000000e+001
         vertex 2.232482e+000 3.722468e+000 1.000000e+001
         vertex 4.058486e+000 4.776712e+000 1.000000e+001
      endloop
   endfacet
   facet normal 0.000000e+000 0.000000e+000 1.000000e+000
      outer loop
         vertex 3.872594e+000 3.722468e+000 1.000000e+001
         vertex 3.979624e+000 3.875323e+000 1.000000e+001
         vertex 2.517284e+000 3.483490e+000 1.000000e+001
      endloop
   endfacet
   facet normal 0.000000e+000 0.000000e+000 1.000000e+000
      outer loop
         vertex 3.979624e+000 4.945830e+000 1.000000e+001
         vertex 3.872594e+000 5.098686e+000 1.000000e+001
         vertex 2.517284e+000 5.337664e+000 1.000000e+001
      endloop
   endfacet
   facet normal 0.000000e+000 0.000000e+000 1.000000e+000
      outer loop
         vertex 2.517284e+000 3.483490e+000 1.000000e+001
         vertex 3.979624e+000 3.875323e+000 1.000000e+001
         vertex 2.364429e+000 3.590521e+000 1.000000e+001
      endloop
   endfacet
   facet normal 0.000000e+000 0.000000e+000 1.000000e+000
      outer loop
         vertex 3.979624e+000 4.945830e+000 1.000000e+001
         vertex 2.517284e+000 5.337664e+000 1.000000e+001
         vertex 4.058486e+000 4.776712e+000 1.000000e+001
      endloop
   endfacet
   facet normal 0.000000e+000 0.000000e+000 1.000000e+000
      outer loop
         vertex 4.058486e+000 4.776712e+000 1.000000e+001
         vertex 2.517284e+000 5.337664e+000 1.000000e+001
         vertex 2.364429e+000 5.230633e+000 1.000000e+001
      endloop
   endfacet
   facet normal 0.000000e+000 0.000000e+000 1.000000e+000
      outer loop
         vertex 4.058486e+000 4.776712e+000 1.000000e+001
         vertex 2.364429e+000 5.230633e+000 1.000000e+001
         vertex 2.232482e+000 5.098686e+000 1.000000e+001
      endloop
   endfacet
   facet normal 0.000000e+000 0.000000e+000 1.000000e+000
      outer loop
         vertex 3.872594e+000 5.098686e+000 1.000000e+001
         vertex 3.740647e+000 5.230633e+000 1.000000e+001
         vertex 2.517284e+000 5.337664e+000 1.000000e+001
      endloop
   endfacet
   facet normal 0.000000e+000 0.000000e+000 1.000000e+000
      outer loop
         vertex 2.517284e+000 5.337664e+000 1.000000e+001
         vertex 3.740647e+000 5.230633e+000 1.000000e+001
         vertex 3.587791e+000 5.337664e+000 1.000000e+001
      endloop
   endfacet
   facet normal 0.000000e+000 0.000000e+000 1.000000e+000
      outer loop
         vertex 2.517284e+000 5.337664e+000 1.000000e+001
         vertex 3.587791e+000 5.337664e+000 1.000000e+001
         vertex 2.686403e+000 5.416524e+000 1.000000e+001
      endloop
   endfacet
   facet normal 0.000000e+000 0.000000e+000 1.000000e+000
      outer loop
         vertex 3.238430e+000 5.464821e+000 1.000000e+001
         vertex 3.052538e+000 5.481084e+000 1.000000e+001
         vertex 2.866646e+000 5.464821e+000 1.000000e+001
      endloop
   endfacet
   facet normal 0.000000e+000 0.000000e+000 1.000000e+000
      outer loop
         vertex 4.058486e+000 4.776712e+000 1.000000e+001
         vertex 1.998294e+000 4.596468e+000 1.000000e+001
         vertex 1.982031e+000 4.410577e+000 1.000000e+001
      endloop
   endfacet
   facet normal 0.000000e+000 0.000000e+000 1.000000e+000
      outer loop
         vertex 2.364429e+000 3.590521e+000 1.000000e+001
         vertex 3.979624e+000 3.875323e+000 1.000000e+001
         vertex 2.232482e+000 3.722468e+000 1.000000e+001
      endloop
   endfacet
   facet normal 0.000000e+000 0.000000e+000 1.000000e+000
      outer loop
         vertex 2.232482e+000 3.722468e+000 1.000000e+001
         vertex 3.979624e+000 3.875323e+000 1.000000e+001
         vertex 4.058486e+000 4.044442e+000 1.000000e+001
      endloop
   endfacet
   facet normal 0.000000e+000 0.000000e+000 1.000000e+000
      outer loop
         vertex 2.232482e+000 3.722468e+000 1.000000e+001
         vertex 4.058486e+000 4.044442e+000 1.000000e+001
         vertex 4.106781e+000 4.224686e+000 1.000000e+001
      endloop
   endfacet
   facet normal 0.000000e+000 0.000000e+000 1.000000e+000
      outer loop
         vertex 4.106781e+000 4.224686e+000 1.000000e+001
         vertex 4.123045e+000 4.410577e+000 1.000000e+001
         vertex 2.232482e+000 3.722468e+000 1.000000e+001
      endloop
   endfacet
   facet normal 0.000000e+000 0.000000e+000 1.000000e+000
      outer loop
         vertex 2.232482e+000 3.722468e+000 1.000000e+001
         vertex 4.123045e+000 4.410577e+000 1.000000e+001
         vertex 4.106781e+000 4.596468e+000 1.000000e+001
      endloop
   endfacet
   facet normal 0.000000e+000 0.000000e+000 1.000000e+000
      outer loop
         vertex 2.232482e+000 3.722468e+000 1.000000e+001
         vertex 4.106781e+000 4.596468e+000 1.000000e+001
         vertex 4.058486e+000 4.776712e+000 1.000000e+001
      endloop
   endfacet
   facet normal 0.000000e+000 0.000000e+000 1.000000e+000
      outer loop
         vertex 2.232482e+000 5.098686e+000 1.000000e+001
         vertex 2.125451e+000 4.945830e+000 1.000000e+001
         vertex 4.058486e+000 4.776712e+000 1.000000e+001
      endloop
   endfacet
   facet normal 0.000000e+000 0.000000e+000 1.000000e+000
      outer loop
         vertex 4.058486e+000 4.776712e+000 1.000000e+001
         vertex 2.125451e+000 4.945830e+000 1.000000e+001
         vertex 2.046590e+000 4.776712e+000 1.000000e+001
      endloop
   endfacet
   facet normal 0.000000e+000 0.000000e+000 1.000000e+000
      outer loop
         vertex 4.058486e+000 4.776712e+000 1.000000e+001
         vertex 2.046590e+000 4.776712e+000 1.000000e+001
         vertex 1.998294e+000 4.596468e+000 1.000000e+001
      endloop
   endfacet
   facet normal 0.000000e+000 0.000000e+000 1.000000e+000
      outer loop
         vertex 1.982031e+000 4.410577e+000 1.000000e+001
         vertex 1.998294e+000 4.224686e+000 1.000000e+001
         vertex 4.058486e+000 4.776712e+000 1.000000e+001
      endloop
   endfacet
   facet normal 0.000000e+000 0.000000e+000 1.000000e+000
      outer loop
         vertex 4.058486e+000 4.776712e+000 1.000000e+001
         vertex 1.998294e+000 4.224686e+000 1.000000e+001
         vertex 2.046590e+000 4.044442e+000 1.000000e+001
      endloop
   endfacet
   facet normal 0.000000e+000 0.000000e+000 1.000000e+000
      outer loop
         vertex 4.058486e+000 4.776712e+000 1.000000e+001
         vertex 2.046590e+000 4.044442e+000 1.000000e+001
         vertex 2.125451e+000 3.875323e+000 1.000000e+001
      endloop
   endfacet
   facet normal 0.000000e+000 0.000000e+000 1.000000e+000
      outer loop
         vertex 2.686403e+000 5.416524e+000 1.000000e+001
         vertex 3.587791e+000 5.337664e+000 1.000000e+001
         vertex 2.866646e+000 5.464821e+000 1.000000e+001
      endloop
   endfacet
   facet normal 0.000000e+000 0.000000e+000 1.000000e+000
      outer loop
         vertex 2.866646e+000 5.464821e+000 1.000000e+001
         vertex 3.587791e+000 5.337664e+000 1.000000e+001
         vertex 3.418673e+000 5.416524e+000 1.000000e+001
      endloop
   endfacet
   facet normal 0.000000e+000 0.000000e+000 1.000000e+000
      outer loop
         vertex 2.866646e+000 5.464821e+000 1.000000e+001
         vertex 3.418673e+000 5.416524e+000 1.000000e+001
         vertex 3.238430e+000 5.464821e+000 1.000000e+001
      endloop
   endfacet
   facet normal 0.000000e+000 0.000000e+000 1.000000e+000
      outer loop
         vertex 3.052538e+000 3.340070e+000 1.000000e+001
         vertex 3.238430e+000 3.356333e+000 1.000000e+001
         vertex 2.866646e+000 3.356333e+000 1.000000e+001
      endloop
   endfacet
   facet normal 0.000000e+000 0.000000e+000 1.000000e+000
      outer loop
         vertex 2.866646e+000 3.356333e+000 1.000000e+001
         vertex 3.238430e+000 3.356333e+000 1.000000e+001
         vertex 2.686403e+000 3.404629e+000 1.000000e+001
      endloop
   endfacet
   facet normal 0.000000e+000 0.000000e+000 1.000000e+000
      outer loop
         vertex 3.238430e+000 3.356333e+000 1.000000e+001
         vertex 3.418673e+000 3.404629e+000 1.000000e+001
         vertex 2.686403e+000 3.404629e+000 1.000000e+001
      endloop
   endfacet
   facet normal 0.000000e+000 0.000000e+000 1.000000e+000
      outer loop
         vertex 2.686403e+000 3.404629e+000 1.000000e+001
         vertex 3.418673e+000 3.404629e+000 1.000000e+001
         vertex 3.587791e+000 3.483490e+000 1.000000e+001
      endloop
   endfacet
   facet normal 0.000000e+000 0.000000e+000 1.000000e+000
      outer loop
         vertex 2.686403e+000 3.404629e+000 1.000000e+001
         vertex 3.587791e+000 3.483490e+000 1.000000e+001
         vertex 2.517284e+000 3.483490e+000 1.000000e+001
      endloop
   endfacet
   facet normal 0.000000e+000 0.000000e+000 1.000000e+000
      outer loop
         vertex 2.517284e+000 3.483490e+000 1.000000e+001
         vertex 3.587791e+000 3.483490e+000 1.000000e+001
         vertex 3.740647e+000 3.590521e+000 1.000000e+001
      endloop
   endfacet
   facet normal 0.000000e+000 0.000000e+000 1.000000e+000
      outer loop
         vertex 2.517284e+000 3.483490e+000 1.000000e+001
         vertex 3.740647e+000 3.590521e+000 1.000000e+001
         vertex 3.872594e+000 3.722468e+000 1.000000e+001
      endloop
   endfacet
endsolid