solid 0_372
   facet normal -1.000000e+000 0.000000e+000 0.000000e+000
      outer loop
         vertex 0.000000e+000 1.000000e+001 1.000000e+001
         vertex 0.000000e+000 1.000000e+001 0.000000e+000
         vertex 0.000000e+000 0.000000e+000 1.000000e+001
      endloop
   endfacet
   facet normal -1.000000e+000 0.000000e+000 0.000000e+000
      outer loop
         vertex 0.000000e+000 0.000000e+000 1.000000e+001
         vertex 0.000000e+000 1.000000e+001 0.000000e+000
         vertex 0.000000e+000 0.000000e+000 0.000000e+000
      endloop
   endfacet
   facet normal 0.000000e+000 0.000000e+000 1.000000e+000
      outer loop
         vertex 9.091149e+000 7.783423e+000 1.000000e+001
         vertex 9.120582e+000 7.447003e+000 1.000000e+001
         vertex 1.000000e+001 1.000000e+001 1.000000e+001
      endloop
   endfacet
   facet normal 0.000000e+000 0.000000e+000 1.000000e+000
      outer loop
         vertex 1.000000e+001 1.000000e+001 1.000000e+001
         vertex 9.120582e+000 7.447003e+000 1.000000e+001
         vertex 9.091149e+000 7.110584e+000 1.000000e+001
      endloop
   endfacet
   facet normal 0.000000e+000 0.000000e+000 1.000000e+000
      outer loop
         vertex 1.000000e+001 1.000000e+001 1.000000e+001
         vertex 9.091149e+000 7.110584e+000 1.000000e+001
         vertex 1.000000e+001 0.000000e+000 1.000000e+001
      endloop
   endfacet
   facet normal 0.000000e+000 0.000000e+000 1.000000e+000
      outer loop
         vertex 1.000000e+001 0.000000e+000 1.000000e+001
         vertex 9.091149e+000 7.110584e+000 1.000000e+001
         vertex 9.003744e+000 6.784386e+000 1.000000e+001
      endloop
   endfacet
   facet normal 0.000000e+000 0.000000e+000 1.000000e+000
      outer loop
         vertex 9.003744e+000 6.784386e+000 1.000000e+001
         vertex 8.861024e+000 6.478321e+000 1.000000e+001
         vertex 1.000000e+001 0.000000e+000 1.000000e+001
      endloop
   endfacet
   facet normal 0.000000e+000 0.000000e+000 1.000000e+000
      outer loop
         vertex 1.000000e+001 0.000000e+000 1.000000e+001
         vertex 8.861024e+000 6.478321e+000 1.000000e+001
         vertex 8.667324e+000 6.201689e+000 1.000000e+001
      endloop
   endfacet
   facet normal 0.000000e+000 0.000000e+000 1.000000e+000
      outer loop
         vertex 1.000000e+001 0.000000e+000 1.000000e+001
         vertex 8.667324e+000 6.201689e+000 1.000000e+001
         vertex 8.428531e+000 5.962895e+000 1.000000e+001
      endloop
   endfacet
   facet normal 0.000000e+000 0.000000e+000 1.000000e+000
      outer loop
         vertex 0.000000e+000 1.000000e+001 1.000000e+001
         vertex 5.245850e+000 7.447003e+000 1.000000e+001
         vertex 5.275283e+000 7.783423e+000 1.000000e+001
      endloop
   endfacet
   facet normal 0.000000e+000 0.000000e+000 1.000000e+000
      outer loop
         vertex 5.699108e+000 8.692319e+000 1.000000e+001
         vertex 5.937901e+000 8.931111e+000 1.000000e+001
         vertex 0.000000e+000 1.000000e+001 1.000000e+001
      endloop
   endfacet
   facet normal 0.000000e+000 0.000000e+000 1.000000e+000
      outer loop
         vertex 0.000000e+000 1.000000e+001 1.000000e+001
         vertex 5.937901e+000 8.931111e+000 1.000000e+001
         vertex 6.214533e+000 9.124812e+000 1.000000e+001
      endloop
   endfacet
   facet normal 0.000000e+000 0.000000e+000 1.000000e+000
      outer loop
         vertex 0.000000e+000 1.000000e+001 1.000000e+001
         vertex 6.214533e+000 9.124812e+000 1.000000e+001
         vertex 6.520598e+000 9.267532e+000 1.000000e+001
      endloop
   endfacet
   facet normal 0.000000e+000 0.000000e+000 1.000000e+000
      outer loop
         vertex 6.214533e+000 5.769196e+000 1.000000e+001
         vertex 5.937901e+000 5.962895e+000 1.000000e+001
         vertex 0.000000e+000 0.000000e+000 1.000000e+001
      endloop
   endfacet
   facet normal 0.000000e+000 0.000000e+000 1.000000e+000
      outer loop
         vertex 0.000000e+000 0.000000e+000 1.000000e+001
         vertex 5.937901e+000 5.962895e+000 1.000000e+001
         vertex 5.699108e+000 6.201689e+000 1.000000e+001
      endloop
   endfacet
   facet normal 0.000000e+000 0.000000e+000 1.000000e+000
      outer loop
         vertex 5.275283e+000 7.783423e+000 1.000000e+001
         vertex 5.362688e+000 8.109622e+000 1.000000e+001
         vertex 0.000000e+000 1.000000e+001 1.000000e+001
      endloop
   endfacet
   facet normal 0.000000e+000 0.000000e+000 1.000000e+000
      outer loop
         vertex 0.000000e+000 1.000000e+001 1.000000e+001
         vertex 5.362688e+000 8.109622e+000 1.000000e+001
         vertex 5.505408e+000 8.415687e+000 1.000000e+001
      endloop
   endfacet
   facet normal 0.000000e+000 0.000000e+000 1.000000e+000
      outer loop
         vertex 0.000000e+000 1.000000e+001 1.000000e+001
         vertex 5.505408e+000 8.415687e+000 1.000000e+001
         vertex 5.699108e+000 8.692319e+000 1.000000e+001
      endloop
   endfacet
   facet normal 0.000000e+000 0.000000e+000 1.000000e+000
      outer loop
         vertex 7.845834e+000 9.267532e+000 1.000000e+001
         vertex 8.151899e+000 9.124812e+000 1.000000e+001
         vertex 1.000000e+001 1.000000e+001 1.000000e+001
      endloop
   endfacet
   facet normal 0.000000e+000 0.000000e+000 1.000000e+000
      outer loop
         vertex 1.000000e+001 1.000000e+001 1.000000e+001
         vertex 8.151899e+000 9.124812e+000 1.000000e+001
         vertex 8.428531e+000 8.931111e+000 1.000000e+001
      endloop
   endfacet
   facet normal 0.000000e+000 0.000000e+000 1.000000e+000
      outer loop
         vertex 1.000000e+001 1.000000e+001 1.000000e+001
         vertex 8.428531e+000 8.931111e+000 1.000000e+001
         vertex 8.667324e+000 8.692319e+000 1.000000e+001
      endloop
   endfacet
   facet normal 0.000000e+000 0.000000e+000 1.000000e+000
      outer loop
         vertex 8.428531e+000 5.962895e+000 1.000000e+001
         vertex 8.151899e+000 5.769196e+000 1.000000e+001
         vertex 1.000000e+001 0.000000e+000 1.000000e+001
      endloop
   endfacet
   facet normal 0.000000e+000 0.000000e+000 1.000000e+000
      outer loop
         vertex 1.000000e+001 0.000000e+000 1.000000e+001
         vertex 8.151899e+000 5.769196e+000 1.000000e+001
         vertex 7.845834e+000 5.626475e+000 1.000000e+001
      endloop
   endfacet
   facet normal 0.000000e+000 0.000000e+000 1.000000e+000
      outer loop
         vertex 1.000000e+001 0.000000e+000 1.000000e+001
         vertex 7.845834e+000 5.626475e+000 1.000000e+001
         vertex 7.519636e+000 5.539071e+000 1.000000e+001
      endloop
   endfacet
   facet normal 0.000000e+000 0.000000e+000 1.000000e+000
      outer loop
         vertex 8.667324e+000 8.692319e+000 1.000000e+001
         vertex 8.861024e+000 8.415687e+000 1.000000e+001
         vertex 1.000000e+001 1.000000e+001 1.000000e+001
      endloop
   endfacet
   facet normal 0.000000e+000 0.000000e+000 1.000000e+000
      outer loop
         vertex 1.000000e+001 1.000000e+001 1.000000e+001
         vertex 8.861024e+000 8.415687e+000 1.000000e+001
         vertex 9.003744e+000 8.109622e+000 1.000000e+001
      endloop
   endfacet
   facet normal 0.000000e+000 0.000000e+000 1.000000e+000
      outer loop
         vertex 1.000000e+001 1.000000e+001 1.000000e+001
         vertex 9.003744e+000 8.109622e+000 1.000000e+001
         vertex 9.091149e+000 7.783423e+000 1.000000e+001
      endloop
   endfacet
   facet normal 0.000000e+000 0.000000e+000 1.000000e+000
      outer loop
         vertex 7.519636e+000 5.539071e+000 1.000000e+001
         vertex 7.183216e+000 5.509638e+000 1.000000e+001
         vertex 1.000000e+001 0.000000e+000 1.000000e+001
      endloop
   endfacet
   facet normal 0.000000e+000 0.000000e+000 1.000000e+000
      outer loop
         vertex 1.000000e+001 0.000000e+000 1.000000e+001
         vertex 7.183216e+000 5.509638e+000 1.000000e+001
         vertex 6.846796e+000 5.539071e+000 1.000000e+001
      endloop
   endfacet
   facet normal 0.000000e+000 0.000000e+000 1.000000e+000
      outer loop
         vertex 1.000000e+001 0.000000e+000 1.000000e+001
         vertex 6.846796e+000 5.539071e+000 1.000000e+001
         vertex 0.000000e+000 0.000000e+000 1.000000e+001
      endloop
   endfacet
   facet normal 0.000000e+000 0.000000e+000 1.000000e+000
      outer loop
         vertex 0.000000e+000 0.000000e+000 1.000000e+001
         vertex 6.846796e+000 5.539071e+000 1.000000e+001
         vertex 6.520598e+000 5.626475e+000 1.000000e+001
      endloop
   endfacet
   facet normal 0.000000e+000 0.000000e+000 1.000000e+000
      outer loop
         vertex 0.000000e+000 0.000000e+000 1.000000e+001
         vertex 6.520598e+000 5.626475e+000 1.000000e+001
         vertex 6.214533e+000 5.769196e+000 1.000000e+001
      endloop
   endfacet
   facet normal 0.000000e+000 0.000000e+000 1.000000e+000
      outer loop
         vertex 6.520598e+000 9.267532e+000 1.000000e+001
         vertex 6.846796e+000 9.354936e+000 1.000000e+001
         vertex 0.000000e+000 1.000000e+001 1.000000e+001
      endloop
   endfacet
   facet normal 0.000000e+000 0.000000e+000 1.000000e+000
      outer loop
         vertex 0.000000e+000 1.000000e+001 1.000000e+001
         vertex 6.846796e+000 9.354936e+000 1.000000e+001
         vertex 7.183216e+000 9.384370e+000 1.000000e+001
      endloop
   endfacet
   facet normal 0.000000e+000 0.000000e+000 1.000000e+000
      outer loop
         vertex 0.000000e+000 1.000000e+001 1.000000e+001
         vertex 7.183216e+000 9.384370e+000 1.000000e+001
         vertex 1.000000e+001 1.000000e+001 1.000000e+001
      endloop
   endfacet
   facet normal 0.000000e+000 0.000000e+000 1.000000e+000
      outer loop
         vertex 1.000000e+001 1.000000e+001 1.000000e+001
         vertex 7.183216e+000 9.384370e+000 1.000000e+001
         vertex 7.519636e+000 9.354936e+000 1.000000e+001
      endloop
   endfacet
   facet normal 0.000000e+000 0.000000e+000 1.000000e+000
      outer loop
         vertex 1.000000e+001 1.000000e+001 1.000000e+001
         vertex 7.519636e+000 9.354936e+000 1.000000e+001
         vertex 7.845834e+000 9.267532e+000 1.000000e+001
      endloop
   endfacet
   facet normal 0.000000e+000 0.000000e+000 1.000000e+000
      outer loop
         vertex 5.699108e+000 6.201689e+000 1.000000e+001
         vertex 5.505408e+000 6.478321e+000 1.000000e+001
         vertex 0.000000e+000 0.000000e+000 1.000000e+001
      endloop
   endfacet
   facet normal 0.000000e+000 0.000000e+000 1.000000e+000
      outer loop
         vertex 0.000000e+000 0.000000e+000 1.000000e+001
         vertex 5.505408e+000 6.478321e+000 1.000000e+001
         vertex 5.362688e+000 6.784386e+000 1.000000e+001
      endloop
   endfacet
   facet normal 0.000000e+000 0.000000e+000 1.000000e+000
      outer loop
         vertex 0.000000e+000 0.000000e+000 1.000000e+001
         vertex 5.362688e+000 6.784386e+000 1.000000e+001
         vertex 0.000000e+000 1.000000e+001 1.000000e+001
      endloop
   endfacet
   facet normal 0.000000e+000 0.000000e+000 1.000000e+000
      outer loop
         vertex 0.000000e+000 1.000000e+001 1.000000e+001
         vertex 5.362688e+000 6.784386e+000 1.000000e+001
         vertex 5.275283e+000 7.110584e+000 1.000000e+001
      endloop
   endfacet
   facet normal 0.000000e+000 0.000000e+000 1.000000e+000
      outer loop
         vertex 0.000000e+000 1.000000e+001 1.000000e+001
         vertex 5.275283e+000 7.110584e+000 1.000000e+001
         vertex 5.245850e+000 7.447003e+000 1.000000e+001
      endloop
   endfacet
   facet normal 1.000000e+000 0.000000e+000 0.000000e+000
      outer loop
         vertex 1.000000e+001 1.000000e+001 0.000000e+000
         vertex 1.000000e+001 1.000000e+001 1.000000e+001
         vertex 1.000000e+001 0.000000e+000 0.000000e+000
      endloop
   endfacet
   facet normal 1.000000e+000 0.000000e+000 0.000000e+000
      outer loop
         vertex 1.000000e+001 0.000000e+000 0.000000e+000
         vertex 1.000000e+001 1.000000e+001 1.000000e+001
         vertex 1.000000e+001 0.000000e+000 1.000000e+001
      endloop
   endfacet
   facet normal 0.000000e+000 0.000000e+000 -1.000000e+000
      outer loop
         vertex 0.000000e+000 1.000000e+001 0.000000e+000
         vertex 1.000000e+001 1.000000e+001 0.000000e+000
         vertex 0.000000e+000 0.000000e+000 0.000000e+000
      endloop
   endfacet
   facet normal 0.000000e+000 0.000000e+000 -1.000000e+000
      outer loop
         vertex 0.000000e+000 0.000000e+000 0.000000e+000
         vertex 1.000000e+001 1.000000e+001 0.000000e+000
         vertex 1.000000e+001 0.000000e+000 0.000000e+000
      endloop
   endfacet
   facet normal 0.000000e+000 1.000000e+000 0.000000e+000
      outer loop
         vertex 1.000000e+001 1.000000e+001 1.000000e+001
         vertex 1.000000e+001 1.000000e+001 0.000000e+000
         vertex 0.000000e+000 1.000000e+001 1.000000e+001
      endloop
   endfacet
   facet normal 0.000000e+000 1.000000e+000 0.000000e+000
      outer loop
         vertex 0.000000e+000 1.000000e+001 1.000000e+001
         vertex 1.000000e+001 1.000000e+001 0.000000e+000
         vertex 0.000000e+000 1.000000e+001 0.000000e+000
      endloop
   endfacet
   facet normal 0.000000e+000 -1.000000e+000 0.000000e+000
      outer loop
         vertex 1.000000e+001 0.000000e+000 0.000000e+000
         vertex 1.000000e+001 0.000000e+000 1.000000e+001
         vertex 0.000000e+000 0.000000e+000 0.000000e+000
      endloop
   endfacet
   facet normal 0.000000e+000 -1.000000e+000 0.000000e+000
      outer loop
         vertex 0.000000e+000 0.000000e+000 0.000000e+000
         vertex 1.000000e+001 0.000000e+000 1.000000e+001
         vertex 0.000000e+000 0.000000e+000 1.000000e+001
      endloop
   endfacet
   facet normal -9.983119e-001 5.807913e-002 0.000000e+000
      outer loop
         vertex 9.091149e+000 7.110584e+000 3.047069e+000
         vertex 9.120582e+000 7.447003e+000 1.000000e+001
         vertex 9.120582e+000 7.447003e+000 3.047069e+000
      endloop
   endfacet
   facet normal -9.983119e-001 -5.807913e-002 0.000000e+000
      outer loop
         vertex 9.120582e+000 7.447003e+000 3.047069e+000
         vertex 9.120582e+000 7.447003e+000 1.000000e+001
         vertex 9.091149e+000 7.783423e+000 1.000000e+001
      endloop
   endfacet
   facet normal -9.932307e-001 -1.161583e-001 0.000000e+000
      outer loop
         vertex 9.120582e+000 7.447003e+000 3.047069e+000
         vertex 9.091149e+000 7.783423e+000 1.000000e+001
         vertex 9.091149e+000 7.783423e+000 3.047069e+000
      endloop
   endfacet
   facet normal -9.730600e-001 -2.305519e-001 0.000000e+000
      outer loop
         vertex 9.091149e+000 7.783423e+000 3.047069e+000
         vertex 9.091149e+000 7.783423e+000 1.000000e+001
         vertex 9.003744e+000 8.109622e+000 1.000000e+001
      endloop
   endfacet
   facet normal -9.579706e-001 -2.868663e-001 0.000000e+000
      outer loop
         vertex 9.091149e+000 7.783423e+000 3.047069e+000
         vertex 9.003744e+000 8.109622e+000 1.000000e+001
         vertex 9.003744e+000 8.109622e+000 3.047069e+000
      endloop
   endfacet
   facet normal -9.182422e-001 -3.960194e-001 0.000000e+000
      outer loop
         vertex 9.003744e+000 8.109622e+000 3.047069e+000
         vertex 9.003744e+000 8.109622e+000 1.000000e+001
         vertex 8.861024e+000 8.415687e+000 1.000000e+001
      endloop
   endfacet
   facet normal -8.936031e-001 -4.488580e-001 0.000000e+000
      outer loop
         vertex 9.003744e+000 8.109622e+000 3.047069e+000
         vertex 8.861024e+000 8.415687e+000 1.000000e+001
         vertex 8.861024e+000 8.415687e+000 3.047069e+000
      endloop
   endfacet
   facet normal -8.355240e-001 -5.494540e-001 0.000000e+000
      outer loop
         vertex 8.861024e+000 8.415687e+000 3.047069e+000
         vertex 8.861024e+000 8.415687e+000 1.000000e+001
         vertex 8.667324e+000 8.692319e+000 1.000000e+001
      endloop
   endfacet
   facet normal -8.020838e-001 -5.972114e-001 0.000000e+000
      outer loop
         vertex 8.861024e+000 8.415687e+000 3.047069e+000
         vertex 8.667324e+000 8.692319e+000 1.000000e+001
         vertex 8.667324e+000 8.692319e+000 3.047069e+000
      endloop
   endfacet
   facet normal -7.274188e-001 -6.861938e-001 0.000000e+000
      outer loop
         vertex 8.667324e+000 8.692319e+000 3.047069e+000
         vertex 8.667324e+000 8.692319e+000 1.000000e+001
         vertex 8.428531e+000 8.931111e+000 1.000000e+001
      endloop
   endfacet
   facet normal -6.861938e-001 -7.274188e-001 0.000000e+000
      outer loop
         vertex 8.667324e+000 8.692319e+000 3.047069e+000
         vertex 8.428531e+000 8.931111e+000 1.000000e+001
         vertex 8.428531e+000 8.931111e+000 3.047069e+000
      endloop
   endfacet
   facet normal -5.972114e-001 -8.020838e-001 0.000000e+000
      outer loop
         vertex 8.428531e+000 8.931111e+000 3.047069e+000
         vertex 8.428531e+000 8.931111e+000 1.000000e+001
         vertex 8.151899e+000 9.124812e+000 1.000000e+001
      endloop
   endfacet
   facet normal -5.494540e-001 -8.355240e-001 0.000000e+000
      outer loop
         vertex 8.428531e+000 8.931111e+000 3.047069e+000
         vertex 8.151899e+000 9.124812e+000 1.000000e+001
         vertex 8.151899e+000 9.124812e+000 3.047069e+000
      endloop
   endfacet
   facet normal -4.488580e-001 -8.936031e-001 0.000000e+000
      outer loop
         vertex 8.151899e+000 9.124812e+000 3.047069e+000
         vertex 8.151899e+000 9.124812e+000 1.000000e+001
         vertex 7.845834e+000 9.267532e+000 1.000000e+001
      endloop
   endfacet
   facet normal -3.960194e-001 -9.182422e-001 0.000000e+000
      outer loop
         vertex 8.151899e+000 9.124812e+000 3.047069e+000
         vertex 7.845834e+000 9.267532e+000 1.000000e+001
         vertex 7.845834e+000 9.267532e+000 3.047069e+000
      endloop
   endfacet
   facet normal -2.868663e-001 -9.579706e-001 0.000000e+000
      outer loop
         vertex 7.845834e+000 9.267532e+000 3.047069e+000
         vertex 7.845834e+000 9.267532e+000 1.000000e+001
         vertex 7.519636e+000 9.354936e+000 1.000000e+001
      endloop
   endfacet
   facet normal -2.305519e-001 -9.730600e-001 0.000000e+000
      outer loop
         vertex 7.845834e+000 9.267532e+000 3.047069e+000
         vertex 7.519636e+000 9.354936e+000 1.000000e+001
         vertex 7.519636e+000 9.354936e+000 3.047069e+000
      endloop
   endfacet
   facet normal -1.161583e-001 -9.932307e-001 0.000000e+000
      outer loop
         vertex 7.519636e+000 9.354936e+000 3.047069e+000
         vertex 7.519636e+000 9.354936e+000 1.000000e+001
         vertex 7.183216e+000 9.384370e+000 1.000000e+001
      endloop
   endfacet
   facet normal -5.807913e-002 -9.983119e-001 0.000000e+000
      outer loop
         vertex 7.519636e+000 9.354936e+000 3.047069e+000
         vertex 7.183216e+000 9.384370e+000 1.000000e+001
         vertex 7.183216e+000 9.384370e+000 3.047069e+000
      endloop
   endfacet
   facet normal 5.807913e-002 -9.983119e-001 0.000000e+000
      outer loop
         vertex 7.183216e+000 9.384370e+000 3.047069e+000
         vertex 7.183216e+000 9.384370e+000 1.000000e+001
         vertex 6.846796e+000 9.354936e+000 1.000000e+001
      endloop
   endfacet
   facet normal 1.161583e-001 -9.932307e-001 0.000000e+000
      outer loop
         vertex 7.183216e+000 9.384370e+000 3.047069e+000
         vertex 6.846796e+000 9.354936e+000 1.000000e+001
         vertex 6.846796e+000 9.354936e+000 3.047069e+000
      endloop
   endfacet
   facet normal 2.305519e-001 -9.730600e-001 0.000000e+000
      outer loop
         vertex 6.846796e+000 9.354936e+000 3.047069e+000
         vertex 6.846796e+000 9.354936e+000 1.000000e+001
         vertex 6.520598e+000 9.267532e+000 1.000000e+001
      endloop
   endfacet
   facet normal 2.868663e-001 -9.579706e-001 0.000000e+000
      outer loop
         vertex 6.846796e+000 9.354936e+000 3.047069e+000
         vertex 6.520598e+000 9.267532e+000 1.000000e+001
         vertex 6.520598e+000 9.267532e+000 3.047069e+000
      endloop
   endfacet
   facet normal 3.960194e-001 -9.182422e-001 0.000000e+000
      outer loop
         vertex 6.520598e+000 9.267532e+000 3.047069e+000
         vertex 6.520598e+000 9.267532e+000 1.000000e+001
         vertex 6.214533e+000 9.124812e+000 1.000000e+001
      endloop
   endfacet
   facet normal 4.488580e-001 -8.936031e-001 0.000000e+000
      outer loop
         vertex 6.520598e+000 9.267532e+000 3.047069e+000
         vertex 6.214533e+000 9.124812e+000 1.000000e+001
         vertex 6.214533e+000 9.124812e+000 3.047069e+000
      endloop
   endfacet
   facet normal 5.494540e-001 -8.355240e-001 0.000000e+000
      outer loop
         vertex 6.214533e+000 9.124812e+000 3.047069e+000
         vertex 6.214533e+000 9.124812e+000 1.000000e+001
         vertex 5.937901e+000 8.931111e+000 1.000000e+001
      endloop
   endfacet
   facet normal 5.972114e-001 -8.020838e-001 0.000000e+000
      outer loop
         vertex 6.214533e+000 9.124812e+000 3.047069e+000
         vertex 5.937901e+000 8.931111e+000 1.000000e+001
         vertex 5.937901e+000 8.931111e+000 3.047069e+000
      endloop
   endfacet
   facet normal 6.861938e-001 -7.274188e-001 0.000000e+000
      outer loop
         vertex 5.937901e+000 8.931111e+000 3.047069e+000
         vertex 5.937901e+000 8.931111e+000 1.000000e+001
         vertex 5.699108e+000 8.692319e+000 1.000000e+001
      endloop
   endfacet
   facet normal 7.274188e-001 -6.861938e-001 0.000000e+000
      outer loop
         vertex 5.937901e+000 8.931111e+000 3.047069e+000
         vertex 5.699108e+000 8.692319e+000 1.000000e+001
         vertex 5.699108e+000 8.692319e+000 3.047069e+000
      endloop
   endfacet
   facet normal 8.020838e-001 -5.972114e-001 0.000000e+000
      outer loop
         vertex 5.699108e+000 8.692319e+000 3.047069e+000
         vertex 5.699108e+000 8.692319e+000 1.000000e+001
         vertex 5.505408e+000 8.415687e+000 1.000000e+001
      endloop
   endfacet
   facet normal 8.355240e-001 -5.494540e-001 0.000000e+000
      outer loop
         vertex 5.699108e+000 8.692319e+000 3.047069e+000
         vertex 5.505408e+000 8.415687e+000 1.000000e+001
         vertex 5.505408e+000 8.415687e+000 3.047069e+000
      endloop
   endfacet
   facet normal 8.936031e-001 -4.488580e-001 0.000000e+000
      outer loop
         vertex 5.505408e+000 8.415687e+000 3.047069e+000
         vertex 5.505408e+000 8.415687e+000 1.000000e+001
         vertex 5.362688e+000 8.109622e+000 1.000000e+001
      endloop
   endfacet
   facet normal 9.182422e-001 -3.960194e-001 0.000000e+000
      outer loop
         vertex 5.505408e+000 8.415687e+000 3.047069e+000
         vertex 5.362688e+000 8.109622e+000 1.000000e+001
         vertex 5.362688e+000 8.109622e+000 3.047069e+000
      endloop
   endfacet
   facet normal 9.579706e-001 -2.868663e-001 0.000000e+000
      outer loop
         vertex 5.362688e+000 8.109622e+000 3.047069e+000
         vertex 5.362688e+000 8.109622e+000 1.000000e+001
         vertex 5.275283e+000 7.783423e+000 1.000000e+001
      endloop
   endfacet
   facet normal 9.730600e-001 -2.305519e-001 0.000000e+000
      outer loop
         vertex 5.362688e+000 8.109622e+000 3.047069e+000
         vertex 5.275283e+000 7.783423e+000 1.000000e+001
         vertex 5.275283e+000 7.783423e+000 3.047069e+000
      endloop
   endfacet
   facet normal 9.932307e-001 -1.161583e-001 0.000000e+000
      outer loop
         vertex 5.275283e+000 7.783423e+000 3.047069e+000
         vertex 5.275283e+000 7.783423e+000 1.000000e+001
         vertex 5.245850e+000 7.447003e+000 1.000000e+001
      endloop
   endfacet
   facet normal 9.983119e-001 -5.807913e-002 0.000000e+000
      outer loop
         vertex 5.275283e+000 7.783423e+000 3.047069e+000
         vertex 5.245850e+000 7.447003e+000 1.000000e+001
         vertex 5.245850e+000 7.447003e+000 3.047069e+000
      endloop
   endfacet
   facet normal 9.983119e-001 5.807913e-002 0.000000e+000
      outer loop
         vertex 5.245850e+000 7.447003e+000 3.047069e+000
         vertex 5.245850e+000 7.447003e+000 1.000000e+001
         vertex 5.275283e+000 7.110584e+000 1.000000e+001
      endloop
   endfacet
   facet normal 9.932307e-001 1.161583e-001 0.000000e+000
      outer loop
         vertex 5.245850e+000 7.447003e+000 3.047069e+000
         vertex 5.275283e+000 7.110584e+000 1.000000e+001
         vertex 5.275283e+000 7.110584e+000 3.047069e+000
      endloop
   endfacet
   facet normal 9.730600e-001 2.305519e-001 0.000000e+000
      outer loop
         vertex 5.275283e+000 7.110584e+000 3.047069e+000
         vertex 5.275283e+000 7.110584e+000 1.000000e+001
         vertex 5.362688e+000 6.784386e+000 1.000000e+001
      endloop
   endfacet
   facet normal 9.579706e-001 2.868663e-001 0.000000e+000
      outer loop
         vertex 5.275283e+000 7.110584e+000 3.047069e+000
         vertex 5.362688e+000 6.784386e+000 1.000000e+001
         vertex 5.362688e+000 6.784386e+000 3.047069e+000
      endloop
   endfacet
   facet normal 9.182422e-001 3.960194e-001 0.000000e+000
      outer loop
         vertex 5.362688e+000 6.784386e+000 3.047069e+000
         vertex 5.362688e+000 6.784386e+000 1.000000e+001
         vertex 5.505408e+000 6.478321e+000 1.000000e+001
      endloop
   endfacet
   facet normal 8.936031e-001 4.488580e-001 0.000000e+000
      outer loop
         vertex 5.362688e+000 6.784386e+000 3.047069e+000
         vertex 5.505408e+000 6.478321e+000 1.000000e+001
         vertex 5.505408e+000 6.478321e+000 3.047069e+000
      endloop
   endfacet
   facet normal 8.355240e-001 5.494540e-001 0.000000e+000
      outer loop
         vertex 5.505408e+000 6.478321e+000 3.047069e+000
         vertex 5.505408e+000 6.478321e+000 1.000000e+001
         vertex 5.699108e+000 6.201689e+000 1.000000e+001
      endloop
   endfacet
   facet normal 8.020838e-001 5.972114e-001 0.000000e+000
      outer loop
         vertex 5.505408e+000 6.478321e+000 3.047069e+000
         vertex 5.699108e+000 6.201689e+000 1.000000e+001
         vertex 5.699108e+000 6.201689e+000 3.047069e+000
      endloop
   endfacet
   facet normal 7.274188e-001 6.861938e-001 0.000000e+000
      outer loop
         vertex 5.699108e+000 6.201689e+000 3.047069e+000
         vertex 5.699108e+000 6.201689e+000 1.000000e+001
         vertex 5.937901e+000 5.962895e+000 1.000000e+001
      endloop
   endfacet
   facet normal 6.861938e-001 7.274188e-001 0.000000e+000
      outer loop
         vertex 5.699108e+000 6.201689e+000 3.047069e+000
         vertex 5.937901e+000 5.962895e+000 1.000000e+001
         vertex 5.937901e+000 5.962895e+000 3.047069e+000
      endloop
   endfacet
   facet normal 5.972114e-001 8.020838e-001 0.000000e+000
      outer loop
         vertex 5.937901e+000 5.962895e+000 3.047069e+000
         vertex 5.937901e+000 5.962895e+000 1.000000e+001
         vertex 6.214533e+000 5.769196e+000 1.000000e+001
      endloop
   endfacet
   facet normal 5.494540e-001 8.355240e-001 0.000000e+000
      outer loop
         vertex 5.937901e+000 5.962895e+000 3.047069e+000
         vertex 6.214533e+000 5.769196e+000 1.000000e+001
         vertex 6.214533e+000 5.769196e+000 3.047069e+000
      endloop
   endfacet
   facet normal 4.488580e-001 8.936031e-001 0.000000e+000
      outer loop
         vertex 6.214533e+000 5.769196e+000 3.047069e+000
         vertex 6.214533e+000 5.769196e+000 1.000000e+001
         vertex 6.520598e+000 5.626475e+000 1.000000e+001
      endloop
   endfacet
   facet normal 3.960194e-001 9.182422e-001 0.000000e+000
      outer loop
         vertex 6.214533e+000 5.769196e+000 3.047069e+000
         vertex 6.520598e+000 5.626475e+000 1.000000e+001
         vertex 6.520598e+000 5.626475e+000 3.047069e+000
      endloop
   endfacet
   facet normal 2.868663e-001 9.579706e-001 0.000000e+000
      outer loop
         vertex 6.520598e+000 5.626475e+000 3.047069e+000
         vertex 6.520598e+000 5.626475e+000 1.000000e+001
         vertex 6.846796e+000 5.539071e+000 1.000000e+001
      endloop
   endfacet
   facet normal 2.305519e-001 9.730600e-001 0.000000e+000
      outer loop
         vertex 6.520598e+000 5.626475e+000 3.047069e+000
         vertex 6.846796e+000 5.539071e+000 1.000000e+001
         vertex 6.846796e+000 5.539071e+000 3.047069e+000
      endloop
   endfacet
   facet normal 1.161583e-001 9.932307e-001 0.000000e+000
      outer loop
         vertex 6.846796e+000 5.539071e+000 3.047069e+000
         vertex 6.846796e+000 5.539071e+000 1.000000e+001
         vertex 7.183216e+000 5.509638e+000 1.000000e+001
      endloop
   endfacet
   facet normal 5.807913e-002 9.983119e-001 0.000000e+000
      outer loop
         vertex 6.846796e+000 5.539071e+000 3.047069e+000
         vertex 7.183216e+000 5.509638e+000 1.000000e+001
         vertex 7.183216e+000 5.509638e+000 3.047069e+000
      endloop
   endfacet
   facet normal -5.807913e-002 9.983119e-001 0.000000e+000
      outer loop
         vertex 7.183216e+000 5.509638e+000 3.047069e+000
         vertex 7.183216e+000 5.509638e+000 1.000000e+001
         vertex 7.519636e+000 5.539071e+000 1.000000e+001
      endloop
   endfacet
   facet normal -1.161583e-001 9.932307e-001 0.000000e+000
      outer loop
         vertex 7.183216e+000 5.509638e+000 3.047069e+000
         vertex 7.519636e+000 5.539071e+000 1.000000e+001
         vertex 7.519636e+000 5.539071e+000 3.047069e+000
      endloop
   endfacet
   facet normal -2.305519e-001 9.730600e-001 0.000000e+000
      outer loop
         vertex 7.519636e+000 5.539071e+000 3.047069e+000
         vertex 7.519636e+000 5.539071e+000 1.000000e+001
         vertex 7.845834e+000 5.626475e+000 1.000000e+001
      endloop
   endfacet
   facet normal -2.868663e-001 9.579706e-001 0.000000e+000
      outer loop
         vertex 7.519636e+000 5.539071e+000 3.047069e+000
         vertex 7.845834e+000 5.626475e+000 1.000000e+001
         vertex 7.845834e+000 5.626475e+000 3.047069e+000
      endloop
   endfacet
   facet normal -3.960194e-001 9.182422e-001 0.000000e+000
      outer loop
         vertex 7.845834e+000 5.626475e+000 3.047069e+000
         vertex 7.845834e+000 5.626475e+000 1.000000e+001
         vertex 8.151899e+000 5.769196e+000 1.000000e+001
      endloop
   endfacet
   facet normal -4.488580e-001 8.936031e-001 0.000000e+000
      outer loop
         vertex 7.845834e+000 5.626475e+000 3.047069e+000
         vertex 8.151899e+000 5.769196e+000 1.000000e+001
         vertex 8.151899e+000 5.769196e+000 3.047069e+000
      endloop
   endfacet
   facet normal -5.494540e-001 8.355240e-001 0.000000e+000
      outer loop
         vertex 8.151899e+000 5.769196e+000 3.047069e+000
         vertex 8.151899e+000 5.769196e+000 1.000000e+001
         vertex 8.428531e+000 5.962895e+000 1.000000e+001
      endloop
   endfacet
   facet normal -5.972114e-001 8.020838e-001 0.000000e+000
      outer loop
         vertex 8.151899e+000 5.769196e+000 3.047069e+000
         vertex 8.428531e+000 5.962895e+000 1.000000e+001
         vertex 8.428531e+000 5.962895e+000 3.047069e+000
      endloop
   endfacet
   facet normal -6.861938e-001 7.274188e-001 0.000000e+000
      outer loop
         vertex 8.428531e+000 5.962895e+000 3.047069e+000
         vertex 8.428531e+000 5.962895e+000 1.000000e+001
         vertex 8.667324e+000 6.201689e+000 1.000000e+001
      endloop
   endfacet
   facet normal -7.274188e-001 6.861938e-001 0.000000e+000
      outer loop
         vertex 8.428531e+000 5.962895e+000 3.047069e+000
         vertex 8.667324e+000 6.201689e+000 1.000000e+001
         vertex 8.667324e+000 6.201689e+000 3.047069e+000
      endloop
   endfacet
   facet normal -8.020838e-001 5.972114e-001 0.000000e+000
      outer loop
         vertex 8.667324e+000 6.201689e+000 3.047069e+000
         vertex 8.667324e+000 6.201689e+000 1.000000e+001
         vertex 8.861024e+000 6.478321e+000 1.000000e+001
      endloop
   endfacet
   facet normal -8.355240e-001 5.494540e-001 0.000000e+000
      outer loop
         vertex 8.667324e+000 6.201689e+000 3.047069e+000
         vertex 8.861024e+000 6.478321e+000 1.000000e+001
         vertex 8.861024e+000 6.478321e+000 3.047069e+000
      endloop
   endfacet
   facet normal -8.936031e-001 4.488580e-001 0.000000e+000
      outer loop
         vertex 8.861024e+000 6.478321e+000 3.047069e+000
         vertex 8.861024e+000 6.478321e+000 1.000000e+001
         vertex 9.003744e+000 6.784386e+000 1.000000e+001
      endloop
   endfacet
   facet normal -9.182422e-001 3.960194e-001 0.000000e+000
      outer loop
         vertex 8.861024e+000 6.478321e+000 3.047069e+000
         vertex 9.003744e+000 6.784386e+000 1.000000e+001
         vertex 9.003744e+000 6.784386e+000 3.047069e+000
      endloop
   endfacet
   facet normal -9.579706e-001 2.868663e-001 0.000000e+000
      outer loop
         vertex 9.003744e+000 6.784386e+000 3.047069e+000
         vertex 9.003744e+000 6.784386e+000 1.000000e+001
         vertex 9.091149e+000 7.110584e+000 1.000000e+001
      endloop
   endfacet
   facet normal -9.730600e-001 2.305519e-001 0.000000e+000
      outer loop
         vertex 9.003744e+000 6.784386e+000 3.047069e+000
         vertex 9.091149e+000 7.110584e+000 1.000000e+001
         vertex 9.091149e+000 7.110584e+000 3.047069e+000
      endloop
   endfacet
   facet normal -9.932307e-001 1.161583e-001 0.000000e+000
      outer loop
         vertex 9.091149e+000 7.110584e+000 3.047069e+000
         vertex 9.091149e+000 7.110584e+000 1.000000e+001
         vertex 9.120582e+000 7.447003e+000 1.000000e+001
      endloop
   endfacet
   facet normal 0.000000e+000 0.000000e+000 1.000000e+000
      outer loop
         vertex 5.519032e+000 7.153563e+000 3.047069e+000
         vertex 5.275283e+000 7.110584e+000 3.047069e+000
         vertex 5.595271e+000 6.869039e+000 3.047069e+000
      endloop
   endfacet
   facet normal 0.000000e+000 0.000000e+000 1.000000e+000
      outer loop
         vertex 5.595271e+000 6.869039e+000 3.047069e+000
         vertex 5.275283e+000 7.110584e+000 3.047069e+000
         vertex 5.362688e+000 6.784386e+000 3.047069e+000
      endloop
   endfacet
   facet normal 0.000000e+000 0.000000e+000 1.000000e+000
      outer loop
         vertex 5.595271e+000 6.869039e+000 3.047069e+000
         vertex 5.362688e+000 6.784386e+000 3.047069e+000
         vertex 5.719758e+000 6.602076e+000 3.047069e+000
      endloop
   endfacet
   facet normal 0.000000e+000 0.000000e+000 1.000000e+000
      outer loop
         vertex 5.719758e+000 6.602076e+000 3.047069e+000
         vertex 5.362688e+000 6.784386e+000 3.047069e+000
         vertex 5.505408e+000 6.478321e+000 3.047069e+000
      endloop
   endfacet
   facet normal 0.000000e+000 0.000000e+000 1.000000e+000
      outer loop
         vertex 5.719758e+000 6.602076e+000 3.047069e+000
         vertex 5.505408e+000 6.478321e+000 3.047069e+000
         vertex 5.888710e+000 6.360785e+000 3.047069e+000
      endloop
   endfacet
   facet normal 0.000000e+000 0.000000e+000 1.000000e+000
      outer loop
         vertex 5.888710e+000 6.360785e+000 3.047069e+000
         vertex 5.505408e+000 6.478321e+000 3.047069e+000
         vertex 5.699108e+000 6.201689e+000 3.047069e+000
      endloop
   endfacet
   facet normal 0.000000e+000 0.000000e+000 1.000000e+000
      outer loop
         vertex 5.888710e+000 6.360785e+000 3.047069e+000
         vertex 5.699108e+000 6.201689e+000 3.047069e+000
         vertex 6.096997e+000 6.152499e+000 3.047069e+000
      endloop
   endfacet
   facet normal 0.000000e+000 0.000000e+000 1.000000e+000
      outer loop
         vertex 6.096997e+000 6.152499e+000 3.047069e+000
         vertex 5.699108e+000 6.201689e+000 3.047069e+000
         vertex 5.937901e+000 5.962895e+000 3.047069e+000
      endloop
   endfacet
   facet normal 0.000000e+000 0.000000e+000 1.000000e+000
      outer loop
         vertex 6.096997e+000 6.152499e+000 3.047069e+000
         vertex 5.937901e+000 5.962895e+000 3.047069e+000
         vertex 6.338288e+000 5.983545e+000 3.047069e+000
      endloop
   endfacet
   facet normal 0.000000e+000 0.000000e+000 1.000000e+000
      outer loop
         vertex 6.338288e+000 5.983545e+000 3.047069e+000
         vertex 5.937901e+000 5.962895e+000 3.047069e+000
         vertex 6.214533e+000 5.769196e+000 3.047069e+000
      endloop
   endfacet
   facet normal 0.000000e+000 0.000000e+000 1.000000e+000
      outer loop
         vertex 6.338288e+000 5.983545e+000 3.047069e+000
         vertex 6.214533e+000 5.769196e+000 3.047069e+000
         vertex 6.605251e+000 5.859058e+000 3.047069e+000
      endloop
   endfacet
   facet normal 0.000000e+000 0.000000e+000 1.000000e+000
      outer loop
         vertex 6.605251e+000 5.859058e+000 3.047069e+000
         vertex 6.214533e+000 5.769196e+000 3.047069e+000
         vertex 6.520598e+000 5.626475e+000 3.047069e+000
      endloop
   endfacet
   facet normal 0.000000e+000 0.000000e+000 1.000000e+000
      outer loop
         vertex 6.605251e+000 5.859058e+000 3.047069e+000
         vertex 6.520598e+000 5.626475e+000 3.047069e+000
         vertex 6.889775e+000 5.782820e+000 3.047069e+000
      endloop
   endfacet
   facet normal 0.000000e+000 0.000000e+000 1.000000e+000
      outer loop
         vertex 6.889775e+000 5.782820e+000 3.047069e+000
         vertex 6.520598e+000 5.626475e+000 3.047069e+000
         vertex 6.846796e+000 5.539071e+000 3.047069e+000
      endloop
   endfacet
   facet normal 0.000000e+000 0.000000e+000 1.000000e+000
      outer loop
         vertex 6.889775e+000 5.782820e+000 3.047069e+000
         vertex 6.846796e+000 5.539071e+000 3.047069e+000
         vertex 7.183216e+000 5.757147e+000 3.047069e+000
      endloop
   endfacet
   facet normal 0.000000e+000 0.000000e+000 1.000000e+000
      outer loop
         vertex 7.183216e+000 5.757147e+000 3.047069e+000
         vertex 6.846796e+000 5.539071e+000 3.047069e+000
         vertex 7.183216e+000 5.509638e+000 3.047069e+000
      endloop
   endfacet
   facet normal 0.000000e+000 0.000000e+000 1.000000e+000
      outer loop
         vertex 7.183216e+000 5.757147e+000 3.047069e+000
         vertex 7.183216e+000 5.509638e+000 3.047069e+000
         vertex 7.476656e+000 5.782820e+000 3.047069e+000
      endloop
   endfacet
   facet normal 0.000000e+000 0.000000e+000 1.000000e+000
      outer loop
         vertex 7.476656e+000 5.782820e+000 3.047069e+000
         vertex 7.183216e+000 5.509638e+000 3.047069e+000
         vertex 7.519636e+000 5.539071e+000 3.047069e+000
      endloop
   endfacet
   facet normal 0.000000e+000 0.000000e+000 1.000000e+000
      outer loop
         vertex 7.476656e+000 5.782820e+000 3.047069e+000
         vertex 7.519636e+000 5.539071e+000 3.047069e+000
         vertex 7.761181e+000 5.859058e+000 3.047069e+000
      endloop
   endfacet
   facet normal 0.000000e+000 0.000000e+000 1.000000e+000
      outer loop
         vertex 7.761181e+000 5.859058e+000 3.047069e+000
         vertex 7.519636e+000 5.539071e+000 3.047069e+000
         vertex 7.845834e+000 5.626475e+000 3.047069e+000
      endloop
   endfacet
   facet normal 0.000000e+000 0.000000e+000 1.000000e+000
      outer loop
         vertex 7.761181e+000 5.859058e+000 3.047069e+000
         vertex 7.845834e+000 5.626475e+000 3.047069e+000
         vertex 8.028144e+000 5.983545e+000 3.047069e+000
      endloop
   endfacet
   facet normal 0.000000e+000 0.000000e+000 1.000000e+000
      outer loop
         vertex 8.028144e+000 5.983545e+000 3.047069e+000
         vertex 7.845834e+000 5.626475e+000 3.047069e+000
         vertex 8.151899e+000 5.769196e+000 3.047069e+000
      endloop
   endfacet
   facet normal 0.000000e+000 0.000000e+000 1.000000e+000
      outer loop
         vertex 8.028144e+000 5.983545e+000 3.047069e+000
         vertex 8.151899e+000 5.769196e+000 3.047069e+000
         vertex 8.269435e+000 6.152499e+000 3.047069e+000
      endloop
   endfacet
   facet normal 0.000000e+000 0.000000e+000 1.000000e+000
      outer loop
         vertex 8.269435e+000 6.152499e+000 3.047069e+000
         vertex 8.151899e+000 5.769196e+000 3.047069e+000
         vertex 8.428531e+000 5.962895e+000 3.047069e+000
      endloop
   endfacet
   facet normal 0.000000e+000 0.000000e+000 1.000000e+000
      outer loop
         vertex 8.269435e+000 6.152499e+000 3.047069e+000
         vertex 8.428531e+000 5.962895e+000 3.047069e+000
         vertex 8.477720e+000 6.360785e+000 3.047069e+000
      endloop
   endfacet
   facet normal 0.000000e+000 0.000000e+000 1.000000e+000
      outer loop
         vertex 8.477720e+000 6.360785e+000 3.047069e+000
         vertex 8.428531e+000 5.962895e+000 3.047069e+000
         vertex 8.667324e+000 6.201689e+000 3.047069e+000
      endloop
   endfacet
   facet normal 0.000000e+000 0.000000e+000 1.000000e+000
      outer loop
         vertex 8.477720e+000 6.360785e+000 3.047069e+000
         vertex 8.667324e+000 6.201689e+000 3.047069e+000
         vertex 8.646674e+000 6.602076e+000 3.047069e+000
      endloop
   endfacet
   facet normal 0.000000e+000 0.000000e+000 1.000000e+000
      outer loop
         vertex 8.646674e+000 6.602076e+000 3.047069e+000
         vertex 8.667324e+000 6.201689e+000 3.047069e+000
         vertex 8.861024e+000 6.478321e+000 3.047069e+000
      endloop
   endfacet
   facet normal 0.000000e+000 0.000000e+000 1.000000e+000
      outer loop
         vertex 8.646674e+000 6.602076e+000 3.047069e+000
         vertex 8.861024e+000 6.478321e+000 3.047069e+000
         vertex 8.771161e+000 6.869039e+000 3.047069e+000
      endloop
   endfacet
   facet normal 0.000000e+000 0.000000e+000 1.000000e+000
      outer loop
         vertex 8.771161e+000 6.869039e+000 3.047069e+000
         vertex 8.861024e+000 6.478321e+000 3.047069e+000
         vertex 9.003744e+000 6.784386e+000 3.047069e+000
      endloop
   endfacet
   facet normal 0.000000e+000 0.000000e+000 1.000000e+000
      outer loop
         vertex 8.771161e+000 6.869039e+000 3.047069e+000
         vertex 9.003744e+000 6.784386e+000 3.047069e+000
         vertex 8.847400e+000 7.153563e+000 3.047069e+000
      endloop
   endfacet
   facet normal 0.000000e+000 0.000000e+000 1.000000e+000
      outer loop
         vertex 8.847400e+000 7.153563e+000 3.047069e+000
         vertex 9.003744e+000 6.784386e+000 3.047069e+000
         vertex 9.091149e+000 7.110584e+000 3.047069e+000
      endloop
   endfacet
   facet normal 0.000000e+000 0.000000e+000 1.000000e+000
      outer loop
         vertex 8.847400e+000 7.153563e+000 3.047069e+000
         vertex 9.091149e+000 7.110584e+000 3.047069e+000
         vertex 8.873073e+000 7.447003e+000 3.047069e+000
      endloop
   endfacet
   facet normal 0.000000e+000 0.000000e+000 1.000000e+000
      outer loop
         vertex 8.873073e+000 7.447003e+000 3.047069e+000
         vertex 9.091149e+000 7.110584e+000 3.047069e+000
         vertex 9.120582e+000 7.447003e+000 3.047069e+000
      endloop
   endfacet
   facet normal 0.000000e+000 0.000000e+000 1.000000e+000
      outer loop
         vertex 8.873073e+000 7.447003e+000 3.047069e+000
         vertex 9.120582e+000 7.447003e+000 3.047069e+000
         vertex 8.847400e+000 7.740444e+000 3.047069e+000
      endloop
   endfacet
   facet normal 0.000000e+000 0.000000e+000 1.000000e+000
      outer loop
         vertex 8.847400e+000 7.740444e+000 3.047069e+000
         vertex 9.120582e+000 7.447003e+000 3.047069e+000
         vertex 9.091149e+000 7.783423e+000 3.047069e+000
      endloop
   endfacet
   facet normal 0.000000e+000 0.000000e+000 1.000000e+000
      outer loop
         vertex 8.847400e+000 7.740444e+000 3.047069e+000
         vertex 9.091149e+000 7.783423e+000 3.047069e+000
         vertex 8.771161e+000 8.024968e+000 3.047069e+000
      endloop
   endfacet
   facet normal 0.000000e+000 0.000000e+000 1.000000e+000
      outer loop
         vertex 8.771161e+000 8.024968e+000 3.047069e+000
         vertex 9.091149e+000 7.783423e+000 3.047069e+000
         vertex 9.003744e+000 8.109622e+000 3.047069e+000
      endloop
   endfacet
   facet normal 0.000000e+000 0.000000e+000 1.000000e+000
      outer loop
         vertex 8.771161e+000 8.024968e+000 3.047069e+000
         vertex 9.003744e+000 8.109622e+000 3.047069e+000
         vertex 8.646674e+000 8.291932e+000 3.047069e+000
      endloop
   endfacet
   facet normal 0.000000e+000 0.000000e+000 1.000000e+000
      outer loop
         vertex 8.646674e+000 8.291932e+000 3.047069e+000
         vertex 9.003744e+000 8.109622e+000 3.047069e+000
         vertex 8.861024e+000 8.415687e+000 3.047069e+000
      endloop
   endfacet
   facet normal 0.000000e+000 0.000000e+000 1.000000e+000
      outer loop
         vertex 8.646674e+000 8.291932e+000 3.047069e+000
         vertex 8.861024e+000 8.415687e+000 3.047069e+000
         vertex 8.477720e+000 8.533222e+000 3.047069e+000
      endloop
   endfacet
   facet normal 0.000000e+000 0.000000e+000 1.000000e+000
      outer loop
         vertex 8.477720e+000 8.533222e+000 3.047069e+000
         vertex 8.861024e+000 8.415687e+000 3.047069e+000
         vertex 8.667324e+000 8.692319e+000 3.047069e+000
      endloop
   endfacet
   facet normal 0.000000e+000 0.000000e+000 1.000000e+000
      outer loop
         vertex 8.477720e+000 8.533222e+000 3.047069e+000
         vertex 8.667324e+000 8.692319e+000 3.047069e+000
         vertex 8.269435e+000 8.741508e+000 3.047069e+000
      endloop
   endfacet
   facet normal 0.000000e+000 0.000000e+000 1.000000e+000
      outer loop
         vertex 8.269435e+000 8.741508e+000 3.047069e+000
         vertex 8.667324e+000 8.692319e+000 3.047069e+000
         vertex 8.428531e+000 8.931111e+000 3.047069e+000
      endloop
   endfacet
   facet normal 0.000000e+000 0.000000e+000 1.000000e+000
      outer loop
         vertex 8.269435e+000 8.741508e+000 3.047069e+000
         vertex 8.428531e+000 8.931111e+000 3.047069e+000
         vertex 8.028144e+000 8.910462e+000 3.047069e+000
      endloop
   endfacet
   facet normal 0.000000e+000 0.000000e+000 1.000000e+000
      outer loop
         vertex 8.028144e+000 8.910462e+000 3.047069e+000
         vertex 8.428531e+000 8.931111e+000 3.047069e+000
         vertex 8.151899e+000 9.124812e+000 3.047069e+000
      endloop
   endfacet
   facet normal 0.000000e+000 0.000000e+000 1.000000e+000
      outer loop
         vertex 8.028144e+000 8.910462e+000 3.047069e+000
         vertex 8.151899e+000 9.124812e+000 3.047069e+000
         vertex 7.761181e+000 9.034949e+000 3.047069e+000
      endloop
   endfacet
   facet normal 0.000000e+000 0.000000e+000 1.000000e+000
      outer loop
         vertex 7.761181e+000 9.034949e+000 3.047069e+000
         vertex 8.151899e+000 9.124812e+000 3.047069e+000
         vertex 7.845834e+000 9.267532e+000 3.047069e+000
      endloop
   endfacet
   facet normal 0.000000e+000 0.000000e+000 1.000000e+000
      outer loop
         vertex 7.761181e+000 9.034949e+000 3.047069e+000
         vertex 7.845834e+000 9.267532e+000 3.047069e+000
         vertex 7.476656e+000 9.111187e+000 3.047069e+000
      endloop
   endfacet
   facet normal 0.000000e+000 0.000000e+000 1.000000e+000
      outer loop
         vertex 7.476656e+000 9.111187e+000 3.047069e+000
         vertex 7.845834e+000 9.267532e+000 3.047069e+000
         vertex 7.519636e+000 9.354936e+000 3.047069e+000
      endloop
   endfacet
   facet normal 0.000000e+000 0.000000e+000 1.000000e+000
      outer loop
         vertex 7.476656e+000 9.111187e+000 3.047069e+000
         vertex 7.519636e+000 9.354936e+000 3.047069e+000
         vertex 7.183216e+000 9.136859e+000 3.047069e+000
      endloop
   endfacet
   facet normal 0.000000e+000 0.000000e+000 1.000000e+000
      outer loop
         vertex 7.183216e+000 9.136859e+000 3.047069e+000
         vertex 7.519636e+000 9.354936e+000 3.047069e+000
         vertex 7.183216e+000 9.384370e+000 3.047069e+000
      endloop
   endfacet
   facet normal 0.000000e+000 0.000000e+000 1.000000e+000
      outer loop
         vertex 7.183216e+000 9.136859e+000 3.047069e+000
         vertex 7.183216e+000 9.384370e+000 3.047069e+000
         vertex 6.889775e+000 9.111187e+000 3.047069e+000
      endloop
   endfacet
   facet normal 0.000000e+000 0.000000e+000 1.000000e+000
      outer loop
         vertex 6.889775e+000 9.111187e+000 3.047069e+000
         vertex 7.183216e+000 9.384370e+000 3.047069e+000
         vertex 6.846796e+000 9.354936e+000 3.047069e+000
      endloop
   endfacet
   facet normal 0.000000e+000 0.000000e+000 1.000000e+000
      outer loop
         vertex 6.889775e+000 9.111187e+000 3.047069e+000
         vertex 6.846796e+000 9.354936e+000 3.047069e+000
         vertex 6.605251e+000 9.034949e+000 3.047069e+000
      endloop
   endfacet
   facet normal 0.000000e+000 0.000000e+000 1.000000e+000
      outer loop
         vertex 6.605251e+000 9.034949e+000 3.047069e+000
         vertex 6.846796e+000 9.354936e+000 3.047069e+000
         vertex 6.520598e+000 9.267532e+000 3.047069e+000
      endloop
   endfacet
   facet normal 0.000000e+000 0.000000e+000 1.000000e+000
      outer loop
         vertex 6.605251e+000 9.034949e+000 3.047069e+000
         vertex 6.520598e+000 9.267532e+000 3.047069e+000
         vertex 6.338288e+000 8.910462e+000 3.047069e+000
      endloop
   endfacet
   facet normal 0.000000e+000 0.000000e+000 1.000000e+000
      outer loop
         vertex 6.338288e+000 8.910462e+000 3.047069e+000
         vertex 6.520598e+000 9.267532e+000 3.047069e+000
         vertex 6.214533e+000 9.124812e+000 3.047069e+000
      endloop
   endfacet
   facet normal 0.000000e+000 0.000000e+000 1.000000e+000
      outer loop
         vertex 6.338288e+000 8.910462e+000 3.047069e+000
         vertex 6.214533e+000 9.124812e+000 3.047069e+000
         vertex 6.096997e+000 8.741508e+000 3.047069e+000
      endloop
   endfacet
   facet normal 0.000000e+000 0.000000e+000 1.000000e+000
      outer loop
         vertex 6.096997e+000 8.741508e+000 3.047069e+000
         vertex 6.214533e+000 9.124812e+000 3.047069e+000
         vertex 5.937901e+000 8.931111e+000 3.047069e+000
      endloop
   endfacet
   facet normal 0.000000e+000 0.000000e+000 1.000000e+000
      outer loop
         vertex 6.096997e+000 8.741508e+000 3.047069e+000
         vertex 5.937901e+000 8.931111e+000 3.047069e+000
         vertex 5.888710e+000 8.533222e+000 3.047069e+000
      endloop
   endfacet
   facet normal 0.000000e+000 0.000000e+000 1.000000e+000
      outer loop
         vertex 5.888710e+000 8.533222e+000 3.047069e+000
         vertex 5.937901e+000 8.931111e+000 3.047069e+000
         vertex 5.699108e+000 8.692319e+000 3.047069e+000
      endloop
   endfacet
   facet normal 0.000000e+000 0.000000e+000 1.000000e+000
      outer loop
         vertex 5.888710e+000 8.533222e+000 3.047069e+000
         vertex 5.699108e+000 8.692319e+000 3.047069e+000
         vertex 5.719758e+000 8.291932e+000 3.047069e+000
      endloop
   endfacet
   facet normal 0.000000e+000 0.000000e+000 1.000000e+000
      outer loop
         vertex 5.719758e+000 8.291932e+000 3.047069e+000
         vertex 5.699108e+000 8.692319e+000 3.047069e+000
         vertex 5.505408e+000 8.415687e+000 3.047069e+000
      endloop
   endfacet
   facet normal 0.000000e+000 0.000000e+000 1.000000e+000
      outer loop
         vertex 5.719758e+000 8.291932e+000 3.047069e+000
         vertex 5.505408e+000 8.415687e+000 3.047069e+000
         vertex 5.595271e+000 8.024968e+000 3.047069e+000
      endloop
   endfacet
   facet normal 0.000000e+000 0.000000e+000 1.000000e+000
      outer loop
         vertex 5.595271e+000 8.024968e+000 3.047069e+000
         vertex 5.505408e+000 8.415687e+000 3.047069e+000
         vertex 5.362688e+000 8.109622e+000 3.047069e+000
      endloop
   endfacet
   facet normal 0.000000e+000 0.000000e+000 1.000000e+000
      outer loop
         vertex 5.595271e+000 8.024968e+000 3.047069e+000
         vertex 5.362688e+000 8.109622e+000 3.047069e+000
         vertex 5.519032e+000 7.740444e+000 3.047069e+000
      endloop
   endfacet
   facet normal 0.000000e+000 0.000000e+000 1.000000e+000
      outer loop
         vertex 5.519032e+000 7.740444e+000 3.047069e+000
         vertex 5.362688e+000 8.109622e+000 3.047069e+000
         vertex 5.275283e+000 7.783423e+000 3.047069e+000
      endloop
   endfacet
   facet normal 0.000000e+000 0.000000e+000 1.000000e+000
      outer loop
         vertex 5.519032e+000 7.740444e+000 3.047069e+000
         vertex 5.275283e+000 7.783423e+000 3.047069e+000
         vertex 5.493360e+000 7.447003e+000 3.047069e+000
      endloop
   endfacet
   facet normal 0.000000e+000 0.000000e+000 1.000000e+000
      outer loop
         vertex 5.493360e+000 7.447003e+000 3.047069e+000
         vertex 5.275283e+000 7.783423e+000 3.047069e+000
         vertex 5.245850e+000 7.447003e+000 3.047069e+000
      endloop
   endfacet
   facet normal 0.000000e+000 0.000000e+000 1.000000e+000
      outer loop
         vertex 5.493360e+000 7.447003e+000 3.047069e+000
         vertex 5.245850e+000 7.447003e+000 3.047069e+000
         vertex 5.519032e+000 7.153563e+000 3.047069e+000
      endloop
   endfacet
   facet normal 0.000000e+000 0.000000e+000 1.000000e+000
      outer loop
         vertex 5.519032e+000 7.153563e+000 3.047069e+000
         vertex 5.245850e+000 7.447003e+000 3.047069e+000
         vertex 5.275283e+000 7.110584e+000 3.047069e+000
      endloop
   endfacet
   facet normal 9.983119e-001 5.807913e-002 0.000000e+000
      outer loop
         vertex 8.847400e+000 7.740444e+000 3.047069e+000
         vertex 8.873073e+000 7.447003e+000 1.000000e+001
         vertex 8.873073e+000 7.447003e+000 3.047069e+000
      endloop
   endfacet
   facet normal 9.983119e-001 -5.807913e-002 0.000000e+000
      outer loop
         vertex 8.873073e+000 7.447003e+000 3.047069e+000
         vertex 8.873073e+000 7.447003e+000 1.000000e+001
         vertex 8.847400e+000 7.153563e+000 1.000000e+001
      endloop
   endfacet
   facet normal 9.932307e-001 -1.161583e-001 0.000000e+000
      outer loop
         vertex 8.873073e+000 7.447003e+000 3.047069e+000
         vertex 8.847400e+000 7.153563e+000 1.000000e+001
         vertex 8.847400e+000 7.153563e+000 3.047069e+000
      endloop
   endfacet
   facet normal 9.730600e-001 -2.305519e-001 0.000000e+000
      outer loop
         vertex 8.847400e+000 7.153563e+000 3.047069e+000
         vertex 8.847400e+000 7.153563e+000 1.000000e+001
         vertex 8.771161e+000 6.869039e+000 1.000000e+001
      endloop
   endfacet
   facet normal 9.579706e-001 -2.868663e-001 0.000000e+000
      outer loop
         vertex 8.847400e+000 7.153563e+000 3.047069e+000
         vertex 8.771161e+000 6.869039e+000 1.000000e+001
         vertex 8.771161e+000 6.869039e+000 3.047069e+000
      endloop
   endfacet
   facet normal 9.182422e-001 -3.960194e-001 0.000000e+000
      outer loop
         vertex 8.771161e+000 6.869039e+000 3.047069e+000
         vertex 8.771161e+000 6.869039e+000 1.000000e+001
         vertex 8.646674e+000 6.602076e+000 1.000000e+001
      endloop
   endfacet
   facet normal 8.936031e-001 -4.488580e-001 0.000000e+000
      outer loop
         vertex 8.771161e+000 6.869039e+000 3.047069e+000
         vertex 8.646674e+000 6.602076e+000 1.000000e+001
         vertex 8.646674e+000 6.602076e+000 3.047069e+000
      endloop
   endfacet
   facet normal 8.355240e-001 -5.494540e-001 0.000000e+000
      outer loop
         vertex 8.646674e+000 6.602076e+000 3.047069e+000
         vertex 8.646674e+000 6.602076e+000 1.000000e+001
         vertex 8.477720e+000 6.360785e+000 1.000000e+001
      endloop
   endfacet
   facet normal 8.020838e-001 -5.972114e-001 0.000000e+000
      outer loop
         vertex 8.646674e+000 6.602076e+000 3.047069e+000
         vertex 8.477720e+000 6.360785e+000 1.000000e+001
         vertex 8.477720e+000 6.360785e+000 3.047069e+000
      endloop
   endfacet
   facet normal 7.274188e-001 -6.861938e-001 0.000000e+000
      outer loop
         vertex 8.477720e+000 6.360785e+000 3.047069e+000
         vertex 8.477720e+000 6.360785e+000 1.000000e+001
         vertex 8.269435e+000 6.152499e+000 1.000000e+001
      endloop
   endfacet
   facet normal 6.861938e-001 -7.274188e-001 0.000000e+000
      outer loop
         vertex 8.477720e+000 6.360785e+000 3.047069e+000
         vertex 8.269435e+000 6.152499e+000 1.000000e+001
         vertex 8.269435e+000 6.152499e+000 3.047069e+000
      endloop
   endfacet
   facet normal 5.972114e-001 -8.020838e-001 0.000000e+000
      outer loop
         vertex 8.269435e+000 6.152499e+000 3.047069e+000
         vertex 8.269435e+000 6.152499e+000 1.000000e+001
         vertex 8.028144e+000 5.983545e+000 1.000000e+001
      endloop
   endfacet
   facet normal 5.494540e-001 -8.355240e-001 0.000000e+000
      outer loop
         vertex 8.269435e+000 6.152499e+000 3.047069e+000
         vertex 8.028144e+000 5.983545e+000 1.000000e+001
         vertex 8.028144e+000 5.983545e+000 3.047069e+000
      endloop
   endfacet
   facet normal 4.488580e-001 -8.936031e-001 0.000000e+000
      outer loop
         vertex 8.028144e+000 5.983545e+000 3.047069e+000
         vertex 8.028144e+000 5.983545e+000 1.000000e+001
         vertex 7.761181e+000 5.859058e+000 1.000000e+001
      endloop
   endfacet
   facet normal 3.960194e-001 -9.182422e-001 0.000000e+000
      outer loop
         vertex 8.028144e+000 5.983545e+000 3.047069e+000
         vertex 7.761181e+000 5.859058e+000 1.000000e+001
         vertex 7.761181e+000 5.859058e+000 3.047069e+000
      endloop
   endfacet
   facet normal 2.868663e-001 -9.579706e-001 0.000000e+000
      outer loop
         vertex 7.761181e+000 5.859058e+000 3.047069e+000
         vertex 7.761181e+000 5.859058e+000 1.000000e+001
         vertex 7.476656e+000 5.782820e+000 1.000000e+001
      endloop
   endfacet
   facet normal 2.305519e-001 -9.730600e-001 0.000000e+000
      outer loop
         vertex 7.761181e+000 5.859058e+000 3.047069e+000
         vertex 7.476656e+000 5.782820e+000 1.000000e+001
         vertex 7.476656e+000 5.782820e+000 3.047069e+000
      endloop
   endfacet
   facet normal 1.161583e-001 -9.932307e-001 0.000000e+000
      outer loop
         vertex 7.476656e+000 5.782820e+000 3.047069e+000
         vertex 7.476656e+000 5.782820e+000 1.000000e+001
         vertex 7.183216e+000 5.757147e+000 1.000000e+001
      endloop
   endfacet
   facet normal 5.807913e-002 -9.983119e-001 0.000000e+000
      outer loop
         vertex 7.476656e+000 5.782820e+000 3.047069e+000
         vertex 7.183216e+000 5.757147e+000 1.000000e+001
         vertex 7.183216e+000 5.757147e+000 3.047069e+000
      endloop
   endfacet
   facet normal -5.807913e-002 -9.983119e-001 0.000000e+000
      outer loop
         vertex 7.183216e+000 5.757147e+000 3.047069e+000
         vertex 7.183216e+000 5.757147e+000 1.000000e+001
         vertex 6.889775e+000 5.782820e+000 1.000000e+001
      endloop
   endfacet
   facet normal -1.161583e-001 -9.932307e-001 0.000000e+000
      outer loop
         vertex 7.183216e+000 5.757147e+000 3.047069e+000
         vertex 6.889775e+000 5.782820e+000 1.000000e+001
         vertex 6.889775e+000 5.782820e+000 3.047069e+000
      endloop
   endfacet
   facet normal -2.305519e-001 -9.730600e-001 0.000000e+000
      outer loop
         vertex 6.889775e+000 5.782820e+000 3.047069e+000
         vertex 6.889775e+000 5.782820e+000 1.000000e+001
         vertex 6.605251e+000 5.859058e+000 1.000000e+001
      endloop
   endfacet
   facet normal -2.868663e-001 -9.579706e-001 0.000000e+000
      outer loop
         vertex 6.889775e+000 5.782820e+000 3.047069e+000
         vertex 6.605251e+000 5.859058e+000 1.000000e+001
         vertex 6.605251e+000 5.859058e+000 3.047069e+000
      endloop
   endfacet
   facet normal -3.960194e-001 -9.182422e-001 0.000000e+000
      outer loop
         vertex 6.605251e+000 5.859058e+000 3.047069e+000
         vertex 6.605251e+000 5.859058e+000 1.000000e+001
         vertex 6.338288e+000 5.983545e+000 1.000000e+001
      endloop
   endfacet
   facet normal -4.488580e-001 -8.936031e-001 0.000000e+000
      outer loop
         vertex 6.605251e+000 5.859058e+000 3.047069e+000
         vertex 6.338288e+000 5.983545e+000 1.000000e+001
         vertex 6.338288e+000 5.983545e+000 3.047069e+000
      endloop
   endfacet
   facet normal -5.494540e-001 -8.355240e-001 0.000000e+000
      outer loop
         vertex 6.338288e+000 5.983545e+000 3.047069e+000
         vertex 6.338288e+000 5.983545e+000 1.000000e+001
         vertex 6.096997e+000 6.152499e+000 1.000000e+001
      endloop
   endfacet
   facet normal -5.972114e-001 -8.020838e-001 0.000000e+000
      outer loop
         vertex 6.338288e+000 5.983545e+000 3.047069e+000
         vertex 6.096997e+000 6.152499e+000 1.000000e+001
         vertex 6.096997e+000 6.152499e+000 3.047069e+000
      endloop
   endfacet
   facet normal -6.861938e-001 -7.274188e-001 0.000000e+000
      outer loop
         vertex 6.096997e+000 6.152499e+000 3.047069e+000
         vertex 6.096997e+000 6.152499e+000 1.000000e+001
         vertex 5.888710e+000 6.360785e+000 1.000000e+001
      endloop
   endfacet
   facet normal -7.274188e-001 -6.861938e-001 0.000000e+000
      outer loop
         vertex 6.096997e+000 6.152499e+000 3.047069e+000
         vertex 5.888710e+000 6.360785e+000 1.000000e+001
         vertex 5.888710e+000 6.360785e+000 3.047069e+000
      endloop
   endfacet
   facet normal -8.020838e-001 -5.972114e-001 0.000000e+000
      outer loop
         vertex 5.888710e+000 6.360785e+000 3.047069e+000
         vertex 5.888710e+000 6.360785e+000 1.000000e+001
         vertex 5.719758e+000 6.602076e+000 1.000000e+001
      endloop
   endfacet
   facet normal -8.355240e-001 -5.494540e-001 0.000000e+000
      outer loop
         vertex 5.888710e+000 6.360785e+000 3.047069e+000
         vertex 5.719758e+000 6.602076e+000 1.000000e+001
         vertex 5.719758e+000 6.602076e+000 3.047069e+000
      endloop
   endfacet
   facet normal -8.936031e-001 -4.488580e-001 0.000000e+000
      outer loop
         vertex 5.719758e+000 6.602076e+000 3.047069e+000
         vertex 5.719758e+000 6.602076e+000 1.000000e+001
         vertex 5.595271e+000 6.869039e+000 1.000000e+001
      endloop
   endfacet
   facet normal -9.182422e-001 -3.960194e-001 0.000000e+000
      outer loop
         vertex 5.719758e+000 6.602076e+000 3.047069e+000
         vertex 5.595271e+000 6.869039e+000 1.000000e+001
         vertex 5.595271e+000 6.869039e+000 3.047069e+000
      endloop
   endfacet
   facet normal -9.579706e-001 -2.868663e-001 0.000000e+000
      outer loop
         vertex 5.595271e+000 6.869039e+000 3.047069e+000
         vertex 5.595271e+000 6.869039e+000 1.000000e+001
         vertex 5.519032e+000 7.153563e+000 1.000000e+001
      endloop
   endfacet
   facet normal -9.730600e-001 -2.305519e-001 0.000000e+000
      outer loop
         vertex 5.595271e+000 6.869039e+000 3.047069e+000
         vertex 5.519032e+000 7.153563e+000 1.000000e+001
         vertex 5.519032e+000 7.153563e+000 3.047069e+000
      endloop
   endfacet
   facet normal -9.932307e-001 -1.161583e-001 0.000000e+000
      outer loop
         vertex 5.519032e+000 7.153563e+000 3.047069e+000
         vertex 5.519032e+000 7.153563e+000 1.000000e+001
         vertex 5.493360e+000 7.447003e+000 1.000000e+001
      endloop
   endfacet
   facet normal -9.983119e-001 -5.807913e-002 0.000000e+000
      outer loop
         vertex 5.519032e+000 7.153563e+000 3.047069e+000
         vertex 5.493360e+000 7.447003e+000 1.000000e+001
         vertex 5.493360e+000 7.447003e+000 3.047069e+000
      endloop
   endfacet
   facet normal -9.983119e-001 5.807913e-002 0.000000e+000
      outer loop
         vertex 5.493360e+000 7.447003e+000 3.047069e+000
         vertex 5.493360e+000 7.447003e+000 1.000000e+001
         vertex 5.519032e+000 7.740444e+000 1.000000e+001
      endloop
   endfacet
   facet normal -9.932307e-001 1.161583e-001 0.000000e+000
      outer loop
         vertex 5.493360e+000 7.447003e+000 3.047069e+000
         vertex 5.519032e+000 7.740444e+000 1.000000e+001
         vertex 5.519032e+000 7.740444e+000 3.047069e+000
      endloop
   endfacet
   facet normal -9.730600e-001 2.305519e-001 0.000000e+000
      outer loop
         vertex 5.519032e+000 7.740444e+000 3.047069e+000
         vertex 5.519032e+000 7.740444e+000 1.000000e+001
         vertex 5.595271e+000 8.024968e+000 1.000000e+001
      endloop
   endfacet
   facet normal -9.579706e-001 2.868663e-001 0.000000e+000
      outer loop
         vertex 5.519032e+000 7.740444e+000 3.047069e+000
         vertex 5.595271e+000 8.024968e+000 1.000000e+001
         vertex 5.595271e+000 8.024968e+000 3.047069e+000
      endloop
   endfacet
   facet normal -9.182422e-001 3.960194e-001 0.000000e+000
      outer loop
         vertex 5.595271e+000 8.024968e+000 3.047069e+000
         vertex 5.595271e+000 8.024968e+000 1.000000e+001
         vertex 5.719758e+000 8.291932e+000 1.000000e+001
      endloop
   endfacet
   facet normal -8.936031e-001 4.488580e-001 0.000000e+000
      outer loop
         vertex 5.595271e+000 8.024968e+000 3.047069e+000
         vertex 5.719758e+000 8.291932e+000 1.000000e+001
         vertex 5.719758e+000 8.291932e+000 3.047069e+000
      endloop
   endfacet
   facet normal -8.355240e-001 5.494540e-001 0.000000e+000
      outer loop
         vertex 5.719758e+000 8.291932e+000 3.047069e+000
         vertex 5.719758e+000 8.291932e+000 1.000000e+001
         vertex 5.888710e+000 8.533222e+000 1.000000e+001
      endloop
   endfacet
   facet normal -8.020838e-001 5.972114e-001 0.000000e+000
      outer loop
         vertex 5.719758e+000 8.291932e+000 3.047069e+000
         vertex 5.888710e+000 8.533222e+000 1.000000e+001
         vertex 5.888710e+000 8.533222e+000 3.047069e+000
      endloop
   endfacet
   facet normal -7.274188e-001 6.861938e-001 0.000000e+000
      outer loop
         vertex 5.888710e+000 8.533222e+000 3.047069e+000
         vertex 5.888710e+000 8.533222e+000 1.000000e+001
         vertex 6.096997e+000 8.741508e+000 1.000000e+001
      endloop
   endfacet
   facet normal -6.861938e-001 7.274188e-001 0.000000e+000
      outer loop
         vertex 5.888710e+000 8.533222e+000 3.047069e+000
         vertex 6.096997e+000 8.741508e+000 1.000000e+001
         vertex 6.096997e+000 8.741508e+000 3.047069e+000
      endloop
   endfacet
   facet normal -5.972114e-001 8.020838e-001 0.000000e+000
      outer loop
         vertex 6.096997e+000 8.741508e+000 3.047069e+000
         vertex 6.096997e+000 8.741508e+000 1.000000e+001
         vertex 6.338288e+000 8.910462e+000 1.000000e+001
      endloop
   endfacet
   facet normal -5.494540e-001 8.355240e-001 0.000000e+000
      outer loop
         vertex 6.096997e+000 8.741508e+000 3.047069e+000
         vertex 6.338288e+000 8.910462e+000 1.000000e+001
         vertex 6.338288e+000 8.910462e+000 3.047069e+000
      endloop
   endfacet
   facet normal -4.488580e-001 8.936031e-001 0.000000e+000
      outer loop
         vertex 6.338288e+000 8.910462e+000 3.047069e+000
         vertex 6.338288e+000 8.910462e+000 1.000000e+001
         vertex 6.605251e+000 9.034949e+000 1.000000e+001
      endloop
   endfacet
   facet normal -3.960194e-001 9.182422e-001 0.000000e+000
      outer loop
         vertex 6.338288e+000 8.910462e+000 3.047069e+000
         vertex 6.605251e+000 9.034949e+000 1.000000e+001
         vertex 6.605251e+000 9.034949e+000 3.047069e+000
      endloop
   endfacet
   facet normal -2.868663e-001 9.579706e-001 0.000000e+000
      outer loop
         vertex 6.605251e+000 9.034949e+000 3.047069e+000
         vertex 6.605251e+000 9.034949e+000 1.000000e+001
         vertex 6.889775e+000 9.111187e+000 1.000000e+001
      endloop
   endfacet
   facet normal -2.305519e-001 9.730600e-001 0.000000e+000
      outer loop
         vertex 6.605251e+000 9.034949e+000 3.047069e+000
         vertex 6.889775e+000 9.111187e+000 1.000000e+001
         vertex 6.889775e+000 9.111187e+000 3.047069e+000
      endloop
   endfacet
   facet normal -1.161583e-001 9.932307e-001 0.000000e+000
      outer loop
         vertex 6.889775e+000 9.111187e+000 3.047069e+000
         vertex 6.889775e+000 9.111187e+000 1.000000e+001
         vertex 7.183216e+000 9.136859e+000 1.000000e+001
      endloop
   endfacet
   facet normal -5.807913e-002 9.983119e-001 0.000000e+000
      outer loop
         vertex 6.889775e+000 9.111187e+000 3.047069e+000
         vertex 7.183216e+000 9.136859e+000 1.000000e+001
         vertex 7.183216e+000 9.136859e+000 3.047069e+000
      endloop
   endfacet
   facet normal 5.807913e-002 9.983119e-001 0.000000e+000
      outer loop
         vertex 7.183216e+000 9.136859e+000 3.047069e+000
         vertex 7.183216e+000 9.136859e+000 1.000000e+001
         vertex 7.476656e+000 9.111187e+000 1.000000e+001
      endloop
   endfacet
   facet normal 1.161583e-001 9.932307e-001 0.000000e+000
      outer loop
         vertex 7.183216e+000 9.136859e+000 3.047069e+000
         vertex 7.476656e+000 9.111187e+000 1.000000e+001
         vertex 7.476656e+000 9.111187e+000 3.047069e+000
      endloop
   endfacet
   facet normal 2.305519e-001 9.730600e-001 0.000000e+000
      outer loop
         vertex 7.476656e+000 9.111187e+000 3.047069e+000
         vertex 7.476656e+000 9.111187e+000 1.000000e+001
         vertex 7.761181e+000 9.034949e+000 1.000000e+001
      endloop
   endfacet
   facet normal 2.868663e-001 9.579706e-001 0.000000e+000
      outer loop
         vertex 7.476656e+000 9.111187e+000 3.047069e+000
         vertex 7.761181e+000 9.034949e+000 1.000000e+001
         vertex 7.761181e+000 9.034949e+000 3.047069e+000
      endloop
   endfacet
   facet normal 3.960194e-001 9.182422e-001 0.000000e+000
      outer loop
         vertex 7.761181e+000 9.034949e+000 3.047069e+000
         vertex 7.761181e+000 9.034949e+000 1.000000e+001
         vertex 8.028144e+000 8.910462e+000 1.000000e+001
      endloop
   endfacet
   facet normal 4.488580e-001 8.936031e-001 0.000000e+000
      outer loop
         vertex 7.761181e+000 9.034949e+000 3.047069e+000
         vertex 8.028144e+000 8.910462e+000 1.000000e+001
         vertex 8.028144e+000 8.910462e+000 3.047069e+000
      endloop
   endfacet
   facet normal 5.494540e-001 8.355240e-001 0.000000e+000
      outer loop
         vertex 8.028144e+000 8.910462e+000 3.047069e+000
         vertex 8.028144e+000 8.910462e+000 1.000000e+001
         vertex 8.269435e+000 8.741508e+000 1.000000e+001
      endloop
   endfacet
   facet normal 5.972114e-001 8.020838e-001 0.000000e+000
      outer loop
         vertex 8.028144e+000 8.910462e+000 3.047069e+000
         vertex 8.269435e+000 8.741508e+000 1.000000e+001
         vertex 8.269435e+000 8.741508e+000 3.047069e+000
      endloop
   endfacet
   facet normal 6.861938e-001 7.274188e-001 0.000000e+000
      outer loop
         vertex 8.269435e+000 8.741508e+000 3.047069e+000
         vertex 8.269435e+000 8.741508e+000 1.000000e+001
         vertex 8.477720e+000 8.533222e+000 1.000000e+001
      endloop
   endfacet
   facet normal 7.274188e-001 6.861938e-001 0.000000e+000
      outer loop
         vertex 8.269435e+000 8.741508e+000 3.047069e+000
         vertex 8.477720e+000 8.533222e+000 1.000000e+001
         vertex 8.477720e+000 8.533222e+000 3.047069e+000
      endloop
   endfacet
   facet normal 8.020838e-001 5.972114e-001 0.000000e+000
      outer loop
         vertex 8.477720e+000 8.533222e+000 3.047069e+000
         vertex 8.477720e+000 8.533222e+000 1.000000e+001
         vertex 8.646674e+000 8.291932e+000 1.000000e+001
      endloop
   endfacet
   facet normal 8.355240e-001 5.494540e-001 0.000000e+000
      outer loop
         vertex 8.477720e+000 8.533222e+000 3.047069e+000
         vertex 8.646674e+000 8.291932e+000 1.000000e+001
         vertex 8.646674e+000 8.291932e+000 3.047069e+000
      endloop
   endfacet
   facet normal 8.936031e-001 4.488580e-001 0.000000e+000
      outer loop
         vertex 8.646674e+000 8.291932e+000 3.047069e+000
         vertex 8.646674e+000 8.291932e+000 1.000000e+001
         vertex 8.771161e+000 8.024968e+000 1.000000e+001
      endloop
   endfacet
   facet normal 9.182422e-001 3.960194e-001 0.000000e+000
      outer loop
         vertex 8.646674e+000 8.291932e+000 3.047069e+000
         vertex 8.771161e+000 8.024968e+000 1.000000e+001
         vertex 8.771161e+000 8.024968e+000 3.047069e+000
      endloop
   endfacet
   facet normal 9.579706e-001 2.868663e-001 0.000000e+000
      outer loop
         vertex 8.771161e+000 8.024968e+000 3.047069e+000
         vertex 8.771161e+000 8.024968e+000 1.000000e+001
         vertex 8.847400e+000 7.740444e+000 1.000000e+001
      endloop
   endfacet
   facet normal 9.730600e-001 2.305519e-001 0.000000e+000
      outer loop
         vertex 8.771161e+000 8.024968e+000 3.047069e+000
         vertex 8.847400e+000 7.740444e+000 1.000000e+001
         vertex 8.847400e+000 7.740444e+000 3.047069e+000
      endloop
   endfacet
   facet normal 9.932307e-001 1.161583e-001 0.000000e+000
      outer loop
         vertex 8.847400e+000 7.740444e+000 3.047069e+000
         vertex 8.847400e+000 7.740444e+000 1.000000e+001
         vertex 8.873073e+000 7.447003e+000 1.000000e+001
      endloop
   endfacet
   facet normal 0.000000e+000 0.000000e+000 1.000000e+000
      outer loop
         vertex 8.028144e+000 8.910462e+000 1.000000e+001
         vertex 7.761181e+000 9.034949e+000 1.000000e+001
         vertex 8.028144e+000 5.983545e+000 1.000000e+001
      endloop
   endfacet
   facet normal 0.000000e+000 0.000000e+000 1.000000e+000
      outer loop
         vertex 8.028144e+000 8.910462e+000 1.000000e+001
         vertex 8.028144e+000 5.983545e+000 1.000000e+001
         vertex 8.269435e+000 8.741508e+000 1.000000e+001
      endloop
   endfacet
   facet normal 0.000000e+000 0.000000e+000 1.000000e+000
      outer loop
         vertex 7.761181e+000 9.034949e+000 1.000000e+001
         vertex 7.476656e+000 9.111187e+000 1.000000e+001
         vertex 8.028144e+000 5.983545e+000 1.000000e+001
      endloop
   endfacet
   facet normal 0.000000e+000 0.000000e+000 1.000000e+000
      outer loop
         vertex 8.028144e+000 5.983545e+000 1.000000e+001
         vertex 7.476656e+000 9.111187e+000 1.000000e+001
         vertex 7.183216e+000 9.136859e+000 1.000000e+001
      endloop
   endfacet
   facet normal 0.000000e+000 0.000000e+000 1.000000e+000
      outer loop
         vertex 8.028144e+000 5.983545e+000 1.000000e+001
         vertex 7.183216e+000 9.136859e+000 1.000000e+001
         vertex 6.889775e+000 9.111187e+000 1.000000e+001
      endloop
   endfacet
   facet normal 0.000000e+000 0.000000e+000 1.000000e+000
      outer loop
         vertex 6.889775e+000 9.111187e+000 1.000000e+001
         vertex 6.605251e+000 9.034949e+000 1.000000e+001
         vertex 8.028144e+000 5.983545e+000 1.000000e+001
      endloop
   endfacet
   facet normal 0.000000e+000 0.000000e+000 1.000000e+000
      outer loop
         vertex 8.028144e+000 5.983545e+000 1.000000e+001
         vertex 6.605251e+000 9.034949e+000 1.000000e+001
         vertex 6.338288e+000 8.910462e+000 1.000000e+001
      endloop
   endfacet
   facet normal 0.000000e+000 0.000000e+000 1.000000e+000
      outer loop
         vertex 8.028144e+000 5.983545e+000 1.000000e+001
         vertex 6.338288e+000 8.910462e+000 1.000000e+001
         vertex 7.761181e+000 5.859058e+000 1.000000e+001
      endloop
   endfacet
   facet normal 0.000000e+000 0.000000e+000 1.000000e+000
      outer loop
         vertex 8.477720e+000 6.360785e+000 1.000000e+001
         vertex 8.646674e+000 6.602076e+000 1.000000e+001
         vertex 8.771161e+000 6.869039e+000 1.000000e+001
      endloop
   endfacet
   facet normal 0.000000e+000 0.000000e+000 1.000000e+000
      outer loop
         vertex 8.269435e+000 6.152499e+000 1.000000e+001
         vertex 8.873073e+000 7.447003e+000 1.000000e+001
         vertex 8.847400e+000 7.740444e+000 1.000000e+001
      endloop
   endfacet
   facet normal 0.000000e+000 0.000000e+000 1.000000e+000
      outer loop
         vertex 7.761181e+000 5.859058e+000 1.000000e+001
         vertex 6.338288e+000 8.910462e+000 1.000000e+001
         vertex 7.476656e+000 5.782820e+000 1.000000e+001
      endloop
   endfacet
   facet normal 0.000000e+000 0.000000e+000 1.000000e+000
      outer loop
         vertex 7.476656e+000 5.782820e+000 1.000000e+001
         vertex 6.338288e+000 8.910462e+000 1.000000e+001
         vertex 6.096997e+000 8.741508e+000 1.000000e+001
      endloop
   endfacet
   facet normal 0.000000e+000 0.000000e+000 1.000000e+000
      outer loop
         vertex 7.476656e+000 5.782820e+000 1.000000e+001
         vertex 6.096997e+000 8.741508e+000 1.000000e+001
         vertex 5.888710e+000 8.533222e+000 1.000000e+001
      endloop
   endfacet
   facet normal 0.000000e+000 0.000000e+000 1.000000e+000
      outer loop
         vertex 5.888710e+000 8.533222e+000 1.000000e+001
         vertex 5.719758e+000 8.291932e+000 1.000000e+001
         vertex 7.476656e+000 5.782820e+000 1.000000e+001
      endloop
   endfacet
   facet normal 0.000000e+000 0.000000e+000 1.000000e+000
      outer loop
         vertex 7.476656e+000 5.782820e+000 1.000000e+001
         vertex 5.719758e+000 8.291932e+000 1.000000e+001
         vertex 5.595271e+000 8.024968e+000 1.000000e+001
      endloop
   endfacet
   facet normal 0.000000e+000 0.000000e+000 1.000000e+000
      outer loop
         vertex 7.476656e+000 5.782820e+000 1.000000e+001
         vertex 5.595271e+000 8.024968e+000 1.000000e+001
         vertex 5.519032e+000 7.740444e+000 1.000000e+001
      endloop
   endfacet
   facet normal 0.000000e+000 0.000000e+000 1.000000e+000
      outer loop
         vertex 6.096997e+000 6.152499e+000 1.000000e+001
         vertex 5.519032e+000 7.153563e+000 1.000000e+001
         vertex 5.888710e+000 6.360785e+000 1.000000e+001
      endloop
   endfacet
   facet normal 0.000000e+000 0.000000e+000 1.000000e+000
      outer loop
         vertex 5.888710e+000 6.360785e+000 1.000000e+001
         vertex 5.519032e+000 7.153563e+000 1.000000e+001
         vertex 5.595271e+000 6.869039e+000 1.000000e+001
      endloop
   endfacet
   facet normal 0.000000e+000 0.000000e+000 1.000000e+000
      outer loop
         vertex 5.888710e+000 6.360785e+000 1.000000e+001
         vertex 5.595271e+000 6.869039e+000 1.000000e+001
         vertex 5.719758e+000 6.602076e+000 1.000000e+001
      endloop
   endfacet
   facet normal 0.000000e+000 0.000000e+000 1.000000e+000
      outer loop
         vertex 6.096997e+000 6.152499e+000 1.000000e+001
         vertex 6.338288e+000 5.983545e+000 1.000000e+001
         vertex 5.519032e+000 7.153563e+000 1.000000e+001
      endloop
   endfacet
   facet normal 0.000000e+000 0.000000e+000 1.000000e+000
      outer loop
         vertex 5.519032e+000 7.153563e+000 1.000000e+001
         vertex 6.338288e+000 5.983545e+000 1.000000e+001
         vertex 6.605251e+000 5.859058e+000 1.000000e+001
      endloop
   endfacet
   facet normal 0.000000e+000 0.000000e+000 1.000000e+000
      outer loop
         vertex 5.519032e+000 7.153563e+000 1.000000e+001
         vertex 6.605251e+000 5.859058e+000 1.000000e+001
         vertex 6.889775e+000 5.782820e+000 1.000000e+001
      endloop
   endfacet
   facet normal 0.000000e+000 0.000000e+000 1.000000e+000
      outer loop
         vertex 8.477720e+000 6.360785e+000 1.000000e+001
         vertex 8.771161e+000 6.869039e+000 1.000000e+001
         vertex 8.269435e+000 6.152499e+000 1.000000e+001
      endloop
   endfacet
   facet normal 0.000000e+000 0.000000e+000 1.000000e+000
      outer loop
         vertex 8.269435e+000 6.152499e+000 1.000000e+001
         vertex 8.771161e+000 6.869039e+000 1.000000e+001
         vertex 8.847400e+000 7.153563e+000 1.000000e+001
      endloop
   endfacet
   facet normal 0.000000e+000 0.000000e+000 1.000000e+000
      outer loop
         vertex 8.269435e+000 6.152499e+000 1.000000e+001
         vertex 8.847400e+000 7.153563e+000 1.000000e+001
         vertex 8.873073e+000 7.447003e+000 1.000000e+001
      endloop
   endfacet
   facet normal 0.000000e+000 0.000000e+000 1.000000e+000
      outer loop
         vertex 8.847400e+000 7.740444e+000 1.000000e+001
         vertex 8.771161e+000 8.024968e+000 1.000000e+001
         vertex 8.269435e+000 6.152499e+000 1.000000e+001
      endloop
   endfacet
   facet normal 0.000000e+000 0.000000e+000 1.000000e+000
      outer loop
         vertex 8.269435e+000 6.152499e+000 1.000000e+001
         vertex 8.771161e+000 8.024968e+000 1.000000e+001
         vertex 8.646674e+000 8.291932e+000 1.000000e+001
      endloop
   endfacet
   facet normal 0.000000e+000 0.000000e+000 1.000000e+000
      outer loop
         vertex 8.269435e+000 6.152499e+000 1.000000e+001
         vertex 8.646674e+000 8.291932e+000 1.000000e+001
         vertex 8.028144e+000 5.983545e+000 1.000000e+001
      endloop
   endfacet
   facet normal 0.000000e+000 0.000000e+000 1.000000e+000
      outer loop
         vertex 8.028144e+000 5.983545e+000 1.000000e+001
         vertex 8.646674e+000 8.291932e+000 1.000000e+001
         vertex 8.477720e+000 8.533222e+000 1.000000e+001
      endloop
   endfacet
   facet normal 0.000000e+000 0.000000e+000 1.000000e+000
      outer loop
         vertex 8.028144e+000 5.983545e+000 1.000000e+001
         vertex 8.477720e+000 8.533222e+000 1.000000e+001
         vertex 8.269435e+000 8.741508e+000 1.000000e+001
      endloop
   endfacet
   facet normal 0.000000e+000 0.000000e+000 1.000000e+000
      outer loop
         vertex 6.889775e+000 5.782820e+000 1.000000e+001
         vertex 7.183216e+000 5.757147e+000 1.000000e+001
         vertex 5.519032e+000 7.153563e+000 1.000000e+001
      endloop
   endfacet
   facet normal 0.000000e+000 0.000000e+000 1.000000e+000
      outer loop
         vertex 5.519032e+000 7.153563e+000 1.000000e+001
         vertex 7.183216e+000 5.757147e+000 1.000000e+001
         vertex 7.476656e+000 5.782820e+000 1.000000e+001
      endloop
   endfacet
   facet normal 0.000000e+000 0.000000e+000 1.000000e+000
      outer loop
         vertex 5.519032e+000 7.153563e+000 1.000000e+001
         vertex 7.476656e+000 5.782820e+000 1.000000e+001
         vertex 5.493360e+000 7.447003e+000 1.000000e+001
      endloop
   endfacet
   facet normal 0.000000e+000 0.000000e+000 1.000000e+000
      outer loop
         vertex 5.493360e+000 7.447003e+000 1.000000e+001
         vertex 7.476656e+000 5.782820e+000 1.000000e+001
         vertex 5.519032e+000 7.740444e+000 1.000000e+001
      endloop
   endfacet
endsolid