solid 0_556
   facet normal -1.000000e+000 0.000000e+000 0.000000e+000
      outer loop
         vertex 0.000000e+000 1.000000e+001 1.000000e+001
         vertex 0.000000e+000 1.000000e+001 0.000000e+000
         vertex 0.000000e+000 0.000000e+000 1.000000e+001
      endloop
   endfacet
   facet normal -1.000000e+000 0.000000e+000 0.000000e+000
      outer loop
         vertex 0.000000e+000 0.000000e+000 1.000000e+001
         vertex 0.000000e+000 1.000000e+001 0.000000e+000
         vertex 0.000000e+000 0.000000e+000 0.000000e+000
      endloop
   endfacet
   facet normal 0.000000e+000 0.000000e+000 1.000000e+000
      outer loop
         vertex 9.015808e+000 3.268293e+000 1.000000e+001
         vertex 8.855907e+000 2.860874e+000 1.000000e+001
         vertex 1.000000e+001 0.000000e+000 1.000000e+001
      endloop
   endfacet
   facet normal 0.000000e+000 0.000000e+000 1.000000e+000
      outer loop
         vertex 8.364184e+000 6.123241e+000 1.000000e+001
         vertex 8.637071e+000 5.781054e+000 1.000000e+001
         vertex 1.000000e+001 1.000000e+001 1.000000e+001
      endloop
   endfacet
   facet normal 0.000000e+000 0.000000e+000 1.000000e+000
      outer loop
         vertex 1.000000e+001 1.000000e+001 1.000000e+001
         vertex 8.637071e+000 5.781054e+000 1.000000e+001
         vertex 8.855907e+000 5.402017e+000 1.000000e+001
      endloop
   endfacet
   facet normal 0.000000e+000 0.000000e+000 1.000000e+000
      outer loop
         vertex 1.000000e+001 1.000000e+001 1.000000e+001
         vertex 8.855907e+000 5.402017e+000 1.000000e+001
         vertex 9.015808e+000 4.994597e+000 1.000000e+001
      endloop
   endfacet
   facet normal 0.000000e+000 0.000000e+000 1.000000e+000
      outer loop
         vertex 9.015808e+000 4.994597e+000 1.000000e+001
         vertex 9.113200e+000 4.567895e+000 1.000000e+001
         vertex 1.000000e+001 1.000000e+001 1.000000e+001
      endloop
   endfacet
   facet normal 0.000000e+000 0.000000e+000 1.000000e+000
      outer loop
         vertex 1.000000e+001 1.000000e+001 1.000000e+001
         vertex 9.113200e+000 4.567895e+000 1.000000e+001
         vertex 9.145907e+000 4.131445e+000 1.000000e+001
      endloop
   endfacet
   facet normal 0.000000e+000 0.000000e+000 1.000000e+000
      outer loop
         vertex 1.000000e+001 1.000000e+001 1.000000e+001
         vertex 9.145907e+000 4.131445e+000 1.000000e+001
         vertex 1.000000e+001 0.000000e+000 1.000000e+001
      endloop
   endfacet
   facet normal 0.000000e+000 0.000000e+000 1.000000e+000
      outer loop
         vertex 1.000000e+001 0.000000e+000 1.000000e+001
         vertex 9.145907e+000 4.131445e+000 1.000000e+001
         vertex 9.113200e+000 3.694994e+000 1.000000e+001
      endloop
   endfacet
   facet normal 0.000000e+000 0.000000e+000 1.000000e+000
      outer loop
         vertex 1.000000e+001 0.000000e+000 1.000000e+001
         vertex 9.113200e+000 3.694994e+000 1.000000e+001
         vertex 9.015808e+000 3.268293e+000 1.000000e+001
      endloop
   endfacet
   facet normal 0.000000e+000 0.000000e+000 1.000000e+000
      outer loop
         vertex 8.855907e+000 2.860874e+000 1.000000e+001
         vertex 8.637071e+000 2.481837e+000 1.000000e+001
         vertex 1.000000e+001 0.000000e+000 1.000000e+001
      endloop
   endfacet
   facet normal 0.000000e+000 0.000000e+000 1.000000e+000
      outer loop
         vertex 1.000000e+001 0.000000e+000 1.000000e+001
         vertex 8.637071e+000 2.481837e+000 1.000000e+001
         vertex 8.364184e+000 2.139649e+000 1.000000e+001
      endloop
   endfacet
   facet normal 0.000000e+000 0.000000e+000 1.000000e+000
      outer loop
         vertex 1.000000e+001 0.000000e+000 1.000000e+001
         vertex 8.364184e+000 2.139649e+000 1.000000e+001
         vertex 8.043347e+000 1.841955e+000 1.000000e+001
      endloop
   endfacet
   facet normal 0.000000e+000 0.000000e+000 1.000000e+000
      outer loop
         vertex 6.436377e+000 7.051625e+000 1.000000e+001
         vertex 6.869162e+000 6.986392e+000 1.000000e+001
         vertex 1.000000e+001 1.000000e+001 1.000000e+001
      endloop
   endfacet
   facet normal 0.000000e+000 0.000000e+000 1.000000e+000
      outer loop
         vertex 1.000000e+001 1.000000e+001 1.000000e+001
         vertex 6.869162e+000 6.986392e+000 1.000000e+001
         vertex 7.287392e+000 6.857386e+000 1.000000e+001
      endloop
   endfacet
   facet normal 0.000000e+000 0.000000e+000 1.000000e+000
      outer loop
         vertex 8.043347e+000 1.841955e+000 1.000000e+001
         vertex 7.681723e+000 1.595404e+000 1.000000e+001
         vertex 1.000000e+001 0.000000e+000 1.000000e+001
      endloop
   endfacet
   facet normal 0.000000e+000 0.000000e+000 1.000000e+000
      outer loop
         vertex 1.000000e+001 0.000000e+000 1.000000e+001
         vertex 7.681723e+000 1.595404e+000 1.000000e+001
         vertex 7.287392e+000 1.405504e+000 1.000000e+001
      endloop
   endfacet
   facet normal 0.000000e+000 0.000000e+000 1.000000e+000
      outer loop
         vertex 1.000000e+001 0.000000e+000 1.000000e+001
         vertex 7.287392e+000 1.405504e+000 1.000000e+001
         vertex 6.869162e+000 1.276497e+000 1.000000e+001
      endloop
   endfacet
   facet normal 0.000000e+000 0.000000e+000 1.000000e+000
      outer loop
         vertex 6.869162e+000 1.276497e+000 1.000000e+001
         vertex 6.436377e+000 1.211265e+000 1.000000e+001
         vertex 1.000000e+001 0.000000e+000 1.000000e+001
      endloop
   endfacet
   facet normal 0.000000e+000 0.000000e+000 1.000000e+000
      outer loop
         vertex 1.000000e+001 0.000000e+000 1.000000e+001
         vertex 6.436377e+000 1.211265e+000 1.000000e+001
         vertex 5.998702e+000 1.211265e+000 1.000000e+001
      endloop
   endfacet
   facet normal 0.000000e+000 0.000000e+000 1.000000e+000
      outer loop
         vertex 1.000000e+001 0.000000e+000 1.000000e+001
         vertex 5.998702e+000 1.211265e+000 1.000000e+001
         vertex 0.000000e+000 0.000000e+000 1.000000e+001
      endloop
   endfacet
   facet normal 0.000000e+000 0.000000e+000 1.000000e+000
      outer loop
         vertex 0.000000e+000 0.000000e+000 1.000000e+001
         vertex 5.998702e+000 1.211265e+000 1.000000e+001
         vertex 5.565916e+000 1.276497e+000 1.000000e+001
      endloop
   endfacet
   facet normal 0.000000e+000 0.000000e+000 1.000000e+000
      outer loop
         vertex 0.000000e+000 0.000000e+000 1.000000e+001
         vertex 5.565916e+000 1.276497e+000 1.000000e+001
         vertex 5.147686e+000 1.405504e+000 1.000000e+001
      endloop
   endfacet
   facet normal 0.000000e+000 0.000000e+000 1.000000e+000
      outer loop
         vertex 7.287392e+000 6.857386e+000 1.000000e+001
         vertex 7.681723e+000 6.667486e+000 1.000000e+001
         vertex 1.000000e+001 1.000000e+001 1.000000e+001
      endloop
   endfacet
   facet normal 0.000000e+000 0.000000e+000 1.000000e+000
      outer loop
         vertex 1.000000e+001 1.000000e+001 1.000000e+001
         vertex 7.681723e+000 6.667486e+000 1.000000e+001
         vertex 8.043347e+000 6.420936e+000 1.000000e+001
      endloop
   endfacet
   facet normal 0.000000e+000 0.000000e+000 1.000000e+000
      outer loop
         vertex 1.000000e+001 1.000000e+001 1.000000e+001
         vertex 8.043347e+000 6.420936e+000 1.000000e+001
         vertex 8.364184e+000 6.123241e+000 1.000000e+001
      endloop
   endfacet
   facet normal 0.000000e+000 0.000000e+000 1.000000e+000
      outer loop
         vertex 5.147686e+000 1.405504e+000 1.000000e+001
         vertex 4.753355e+000 1.595404e+000 1.000000e+001
         vertex 0.000000e+000 0.000000e+000 1.000000e+001
      endloop
   endfacet
   facet normal 0.000000e+000 0.000000e+000 1.000000e+000
      outer loop
         vertex 0.000000e+000 0.000000e+000 1.000000e+001
         vertex 4.753355e+000 1.595404e+000 1.000000e+001
         vertex 4.391731e+000 1.841955e+000 1.000000e+001
      endloop
   endfacet
   facet normal 0.000000e+000 0.000000e+000 1.000000e+000
      outer loop
         vertex 0.000000e+000 0.000000e+000 1.000000e+001
         vertex 4.391731e+000 1.841955e+000 1.000000e+001
         vertex 4.070893e+000 2.139649e+000 1.000000e+001
      endloop
   endfacet
   facet normal 0.000000e+000 0.000000e+000 1.000000e+000
      outer loop
         vertex 4.753355e+000 6.667486e+000 1.000000e+001
         vertex 5.147686e+000 6.857386e+000 1.000000e+001
         vertex 0.000000e+000 1.000000e+001 1.000000e+001
      endloop
   endfacet
   facet normal 0.000000e+000 0.000000e+000 1.000000e+000
      outer loop
         vertex 0.000000e+000 1.000000e+001 1.000000e+001
         vertex 5.147686e+000 6.857386e+000 1.000000e+001
         vertex 5.565916e+000 6.986392e+000 1.000000e+001
      endloop
   endfacet
   facet normal 0.000000e+000 0.000000e+000 1.000000e+000
      outer loop
         vertex 0.000000e+000 1.000000e+001 1.000000e+001
         vertex 5.565916e+000 6.986392e+000 1.000000e+001
         vertex 1.000000e+001 1.000000e+001 1.000000e+001
      endloop
   endfacet
   facet normal 0.000000e+000 0.000000e+000 1.000000e+000
      outer loop
         vertex 1.000000e+001 1.000000e+001 1.000000e+001
         vertex 5.565916e+000 6.986392e+000 1.000000e+001
         vertex 5.998702e+000 7.051625e+000 1.000000e+001
      endloop
   endfacet
   facet normal 0.000000e+000 0.000000e+000 1.000000e+000
      outer loop
         vertex 1.000000e+001 1.000000e+001 1.000000e+001
         vertex 5.998702e+000 7.051625e+000 1.000000e+001
         vertex 6.436377e+000 7.051625e+000 1.000000e+001
      endloop
   endfacet
   facet normal 0.000000e+000 0.000000e+000 1.000000e+000
      outer loop
         vertex 3.798008e+000 5.781054e+000 1.000000e+001
         vertex 0.000000e+000 1.000000e+001 1.000000e+001
         vertex 3.579170e+000 5.402017e+000 1.000000e+001
      endloop
   endfacet
   facet normal 0.000000e+000 0.000000e+000 1.000000e+000
      outer loop
         vertex 3.579170e+000 5.402017e+000 1.000000e+001
         vertex 0.000000e+000 1.000000e+001 1.000000e+001
         vertex 3.419270e+000 4.994597e+000 1.000000e+001
      endloop
   endfacet
   facet normal 0.000000e+000 0.000000e+000 1.000000e+000
      outer loop
         vertex 3.798008e+000 5.781054e+000 1.000000e+001
         vertex 4.070893e+000 6.123241e+000 1.000000e+001
         vertex 0.000000e+000 1.000000e+001 1.000000e+001
      endloop
   endfacet
   facet normal 0.000000e+000 0.000000e+000 1.000000e+000
      outer loop
         vertex 0.000000e+000 1.000000e+001 1.000000e+001
         vertex 4.070893e+000 6.123241e+000 1.000000e+001
         vertex 4.391731e+000 6.420936e+000 1.000000e+001
      endloop
   endfacet
   facet normal 0.000000e+000 0.000000e+000 1.000000e+000
      outer loop
         vertex 0.000000e+000 1.000000e+001 1.000000e+001
         vertex 4.391731e+000 6.420936e+000 1.000000e+001
         vertex 4.753355e+000 6.667486e+000 1.000000e+001
      endloop
   endfacet
   facet normal 0.000000e+000 0.000000e+000 1.000000e+000
      outer loop
         vertex 4.070893e+000 2.139649e+000 1.000000e+001
         vertex 3.798008e+000 2.481837e+000 1.000000e+001
         vertex 0.000000e+000 0.000000e+000 1.000000e+001
      endloop
   endfacet
   facet normal 0.000000e+000 0.000000e+000 1.000000e+000
      outer loop
         vertex 0.000000e+000 0.000000e+000 1.000000e+001
         vertex 3.798008e+000 2.481837e+000 1.000000e+001
         vertex 3.579170e+000 2.860874e+000 1.000000e+001
      endloop
   endfacet
   facet normal 0.000000e+000 0.000000e+000 1.000000e+000
      outer loop
         vertex 0.000000e+000 0.000000e+000 1.000000e+001
         vertex 3.579170e+000 2.860874e+000 1.000000e+001
         vertex 3.419270e+000 3.268293e+000 1.000000e+001
      endloop
   endfacet
   facet normal 0.000000e+000 0.000000e+000 1.000000e+000
      outer loop
         vertex 3.419270e+000 3.268293e+000 1.000000e+001
         vertex 3.321878e+000 3.694994e+000 1.000000e+001
         vertex 0.000000e+000 0.000000e+000 1.000000e+001
      endloop
   endfacet
   facet normal 0.000000e+000 0.000000e+000 1.000000e+000
      outer loop
         vertex 0.000000e+000 0.000000e+000 1.000000e+001
         vertex 3.321878e+000 3.694994e+000 1.000000e+001
         vertex 3.289171e+000 4.131445e+000 1.000000e+001
      endloop
   endfacet
   facet normal 0.000000e+000 0.000000e+000 1.000000e+000
      outer loop
         vertex 0.000000e+000 0.000000e+000 1.000000e+001
         vertex 3.289171e+000 4.131445e+000 1.000000e+001
         vertex 0.000000e+000 1.000000e+001 1.000000e+001
      endloop
   endfacet
   facet normal 0.000000e+000 0.000000e+000 1.000000e+000
      outer loop
         vertex 0.000000e+000 1.000000e+001 1.000000e+001
         vertex 3.289171e+000 4.131445e+000 1.000000e+001
         vertex 3.321878e+000 4.567895e+000 1.000000e+001
      endloop
   endfacet
   facet normal 0.000000e+000 0.000000e+000 1.000000e+000
      outer loop
         vertex 0.000000e+000 1.000000e+001 1.000000e+001
         vertex 3.321878e+000 4.567895e+000 1.000000e+001
         vertex 3.419270e+000 4.994597e+000 1.000000e+001
      endloop
   endfacet
   facet normal 1.000000e+000 0.000000e+000 0.000000e+000
      outer loop
         vertex 1.000000e+001 1.000000e+001 0.000000e+000
         vertex 1.000000e+001 1.000000e+001 1.000000e+001
         vertex 1.000000e+001 0.000000e+000 0.000000e+000
      endloop
   endfacet
   facet normal 1.000000e+000 0.000000e+000 0.000000e+000
      outer loop
         vertex 1.000000e+001 0.000000e+000 0.000000e+000
         vertex 1.000000e+001 1.000000e+001 1.000000e+001
         vertex 1.000000e+001 0.000000e+000 1.000000e+001
      endloop
   endfacet
   facet normal 0.000000e+000 0.000000e+000 -1.000000e+000
      outer loop
         vertex 0.000000e+000 1.000000e+001 0.000000e+000
         vertex 1.000000e+001 1.000000e+001 0.000000e+000
         vertex 0.000000e+000 0.000000e+000 0.000000e+000
      endloop
   endfacet
   facet normal 0.000000e+000 0.000000e+000 -1.000000e+000
      outer loop
         vertex 0.000000e+000 0.000000e+000 0.000000e+000
         vertex 1.000000e+001 1.000000e+001 0.000000e+000
         vertex 1.000000e+001 0.000000e+000 0.000000e+000
      endloop
   endfacet
   facet normal 0.000000e+000 1.000000e+000 0.000000e+000
      outer loop
         vertex 1.000000e+001 1.000000e+001 1.000000e+001
         vertex 1.000000e+001 1.000000e+001 0.000000e+000
         vertex 0.000000e+000 1.000000e+001 1.000000e+001
      endloop
   endfacet
   facet normal 0.000000e+000 1.000000e+000 0.000000e+000
      outer loop
         vertex 0.000000e+000 1.000000e+001 1.000000e+001
         vertex 1.000000e+001 1.000000e+001 0.000000e+000
         vertex 0.000000e+000 1.000000e+001 0.000000e+000
      endloop
   endfacet
   facet normal 0.000000e+000 -1.000000e+000 0.000000e+000
      outer loop
         vertex 1.000000e+001 0.000000e+000 0.000000e+000
         vertex 1.000000e+001 0.000000e+000 1.000000e+001
         vertex 0.000000e+000 0.000000e+000 0.000000e+000
      endloop
   endfacet
   facet normal 0.000000e+000 -1.000000e+000 0.000000e+000
      outer loop
         vertex 0.000000e+000 0.000000e+000 0.000000e+000
         vertex 1.000000e+001 0.000000e+000 1.000000e+001
         vertex 0.000000e+000 0.000000e+000 1.000000e+001
      endloop
   endfacet
   facet normal -9.987590e-001 4.980453e-002 0.000000e+000
      outer loop
         vertex 9.113200e+000 3.694994e+000 8.085692e+000
         vertex 9.145907e+000 4.131445e+000 1.000000e+001
         vertex 9.145907e+000 4.131445e+000 8.085692e+000
      endloop
   endfacet
   facet normal -9.987590e-001 -4.980453e-002 0.000000e+000
      outer loop
         vertex 9.145907e+000 4.131445e+000 8.085692e+000
         vertex 9.145907e+000 4.131445e+000 1.000000e+001
         vertex 9.113200e+000 4.567895e+000 1.000000e+001
      endloop
   endfacet
   facet normal -9.950266e-001 -9.960905e-002 0.000000e+000
      outer loop
         vertex 9.145907e+000 4.131445e+000 8.085692e+000
         vertex 9.113200e+000 4.567895e+000 1.000000e+001
         vertex 9.113200e+000 4.567895e+000 8.085692e+000
      endloop
   endfacet
   facet normal -9.801807e-001 -1.981055e-001 0.000000e+000
      outer loop
         vertex 9.113200e+000 4.567895e+000 8.085692e+000
         vertex 9.113200e+000 4.567895e+000 1.000000e+001
         vertex 9.015808e+000 4.994597e+000 1.000000e+001
      endloop
   endfacet
   facet normal -9.690670e-001 -2.467975e-001 0.000000e+000
      outer loop
         vertex 9.113200e+000 4.567895e+000 8.085692e+000
         vertex 9.015808e+000 4.994597e+000 1.000000e+001
         vertex 9.015808e+000 4.994597e+000 8.085692e+000
      endloop
   endfacet
   facet normal -9.397067e-001 -3.419812e-001 0.000000e+000
      outer loop
         vertex 9.015808e+000 4.994597e+000 8.085692e+000
         vertex 9.015808e+000 4.994597e+000 1.000000e+001
         vertex 8.855907e+000 5.402017e+000 1.000000e+001
      endloop
   endfacet
   facet normal -9.214601e-001 -3.884729e-001 0.000000e+000
      outer loop
         vertex 9.015808e+000 4.994597e+000 8.085692e+000
         vertex 8.855907e+000 5.402017e+000 1.000000e+001
         vertex 8.855907e+000 5.402017e+000 8.085692e+000
      endloop
   endfacet
   facet normal -8.782414e-001 -4.782176e-001 0.000000e+000
      outer loop
         vertex 8.855907e+000 5.402017e+000 8.085692e+000
         vertex 8.855907e+000 5.402017e+000 1.000000e+001
         vertex 8.637071e+000 5.781054e+000 1.000000e+001
      endloop
   endfacet
   facet normal -8.532693e-001 -5.214705e-001 0.000000e+000
      outer loop
         vertex 8.855907e+000 5.402017e+000 8.085692e+000
         vertex 8.637071e+000 5.781054e+000 1.000000e+001
         vertex 8.637071e+000 5.781054e+000 8.085692e+000
      endloop
   endfacet
   facet normal -7.971576e-001 -6.037714e-001 0.000000e+000
      outer loop
         vertex 8.637071e+000 5.781054e+000 8.085692e+000
         vertex 8.637071e+000 5.781054e+000 1.000000e+001
         vertex 8.364184e+000 6.123241e+000 1.000000e+001
      endloop
   endfacet
   facet normal -7.660179e-001 -6.428193e-001 0.000000e+000
      outer loop
         vertex 8.637071e+000 5.781054e+000 8.085692e+000
         vertex 8.364184e+000 6.123241e+000 1.000000e+001
         vertex 8.364184e+000 6.123241e+000 8.085692e+000
      endloop
   endfacet
   facet normal -6.982664e-001 -7.158380e-001 0.000000e+000
      outer loop
         vertex 8.364184e+000 6.123241e+000 8.085692e+000
         vertex 8.364184e+000 6.123241e+000 1.000000e+001
         vertex 8.043347e+000 6.420936e+000 1.000000e+001
      endloop
   endfacet
   facet normal -6.616548e-001 -7.498086e-001 0.000000e+000
      outer loop
         vertex 8.364184e+000 6.123241e+000 8.085692e+000
         vertex 8.043347e+000 6.420936e+000 1.000000e+001
         vertex 8.043347e+000 6.420936e+000 8.085692e+000
      endloop
   endfacet
   facet normal -5.837772e-001 -8.119138e-001 0.000000e+000
      outer loop
         vertex 8.043347e+000 6.420936e+000 8.085692e+000
         vertex 8.043347e+000 6.420936e+000 1.000000e+001
         vertex 7.681723e+000 6.667486e+000 1.000000e+001
      endloop
   endfacet
   facet normal -5.425115e-001 -8.400484e-001 0.000000e+000
      outer loop
         vertex 8.043347e+000 6.420936e+000 8.085692e+000
         vertex 7.681723e+000 6.667486e+000 1.000000e+001
         vertex 7.681723e+000 6.667486e+000 8.085692e+000
      endloop
   endfacet
   facet normal -4.562475e-001 -8.898529e-001 0.000000e+000
      outer loop
         vertex 7.681723e+000 6.667486e+000 8.085692e+000
         vertex 7.681723e+000 6.667486e+000 1.000000e+001
         vertex 7.287392e+000 6.857386e+000 1.000000e+001
      endloop
   endfacet
   facet normal -4.112494e-001 -9.115229e-001 0.000000e+000
      outer loop
         vertex 7.681723e+000 6.667486e+000 8.085692e+000
         vertex 7.287392e+000 6.857386e+000 1.000000e+001
         vertex 7.287392e+000 6.857386e+000 8.085692e+000
      endloop
   endfacet
   facet normal -3.185259e-001 -9.479141e-001 0.000000e+000
      outer loop
         vertex 7.287392e+000 6.857386e+000 8.085692e+000
         vertex 7.287392e+000 6.857386e+000 1.000000e+001
         vertex 6.869162e+000 6.986392e+000 1.000000e+001
      endloop
   endfacet
   facet normal -2.708006e-001 -9.626355e-001 0.000000e+000
      outer loop
         vertex 7.287392e+000 6.857386e+000 8.085692e+000
         vertex 6.869162e+000 6.986392e+000 1.000000e+001
         vertex 6.869162e+000 6.986392e+000 8.085692e+000
      endloop
   endfacet
   facet normal -1.736889e-001 -9.848005e-001 0.000000e+000
      outer loop
         vertex 6.869162e+000 6.986392e+000 8.085692e+000
         vertex 6.869162e+000 6.986392e+000 1.000000e+001
         vertex 6.436377e+000 7.051625e+000 1.000000e+001
      endloop
   endfacet
   facet normal -1.243026e-001 -9.922444e-001 0.000000e+000
      outer loop
         vertex 6.869162e+000 6.986392e+000 8.085692e+000
         vertex 6.436377e+000 7.051625e+000 1.000000e+001
         vertex 6.436377e+000 7.051625e+000 8.085692e+000
      endloop
   endfacet
   facet normal -2.497209e-002 -9.996881e-001 0.000000e+000
      outer loop
         vertex 6.436377e+000 7.051625e+000 8.085692e+000
         vertex 6.436377e+000 7.051625e+000 1.000000e+001
         vertex 5.998702e+000 7.051625e+000 1.000000e+001
      endloop
   endfacet
   facet normal 2.497209e-002 -9.996881e-001 0.000000e+000
      outer loop
         vertex 6.436377e+000 7.051625e+000 8.085692e+000
         vertex 5.998702e+000 7.051625e+000 1.000000e+001
         vertex 5.998702e+000 7.051625e+000 8.085692e+000
      endloop
   endfacet
   facet normal 1.243026e-001 -9.922444e-001 0.000000e+000
      outer loop
         vertex 5.998702e+000 7.051625e+000 8.085692e+000
         vertex 5.998702e+000 7.051625e+000 1.000000e+001
         vertex 5.565916e+000 6.986392e+000 1.000000e+001
      endloop
   endfacet
   facet normal 1.736889e-001 -9.848005e-001 0.000000e+000
      outer loop
         vertex 5.998702e+000 7.051625e+000 8.085692e+000
         vertex 5.565916e+000 6.986392e+000 1.000000e+001
         vertex 5.565916e+000 6.986392e+000 8.085692e+000
      endloop
   endfacet
   facet normal 2.708006e-001 -9.626355e-001 0.000000e+000
      outer loop
         vertex 5.565916e+000 6.986392e+000 8.085692e+000
         vertex 5.565916e+000 6.986392e+000 1.000000e+001
         vertex 5.147686e+000 6.857386e+000 1.000000e+001
      endloop
   endfacet
   facet normal 3.185259e-001 -9.479141e-001 0.000000e+000
      outer loop
         vertex 5.565916e+000 6.986392e+000 8.085692e+000
         vertex 5.147686e+000 6.857386e+000 1.000000e+001
         vertex 5.147686e+000 6.857386e+000 8.085692e+000
      endloop
   endfacet
   facet normal 4.112494e-001 -9.115229e-001 0.000000e+000
      outer loop
         vertex 5.147686e+000 6.857386e+000 8.085692e+000
         vertex 5.147686e+000 6.857386e+000 1.000000e+001
         vertex 4.753355e+000 6.667486e+000 1.000000e+001
      endloop
   endfacet
   facet normal 4.562475e-001 -8.898529e-001 0.000000e+000
      outer loop
         vertex 5.147686e+000 6.857386e+000 8.085692e+000
         vertex 4.753355e+000 6.667486e+000 1.000000e+001
         vertex 4.753355e+000 6.667486e+000 8.085692e+000
      endloop
   endfacet
   facet normal 5.425115e-001 -8.400484e-001 0.000000e+000
      outer loop
         vertex 4.753355e+000 6.667486e+000 8.085692e+000
         vertex 4.753355e+000 6.667486e+000 1.000000e+001
         vertex 4.391731e+000 6.420936e+000 1.000000e+001
      endloop
   endfacet
   facet normal 5.837773e-001 -8.119138e-001 0.000000e+000
      outer loop
         vertex 4.753355e+000 6.667486e+000 8.085692e+000
         vertex 4.391731e+000 6.420936e+000 1.000000e+001
         vertex 4.391731e+000 6.420936e+000 8.085692e+000
      endloop
   endfacet
   facet normal 6.616548e-001 -7.498086e-001 0.000000e+000
      outer loop
         vertex 4.391731e+000 6.420936e+000 8.085692e+000
         vertex 4.391731e+000 6.420936e+000 1.000000e+001
         vertex 4.070893e+000 6.123241e+000 1.000000e+001
      endloop
   endfacet
   facet normal 6.982664e-001 -7.158380e-001 0.000000e+000
      outer loop
         vertex 4.391731e+000 6.420936e+000 8.085692e+000
         vertex 4.070893e+000 6.123241e+000 1.000000e+001
         vertex 4.070893e+000 6.123241e+000 8.085692e+000
      endloop
   endfacet
   facet normal 7.660179e-001 -6.428193e-001 0.000000e+000
      outer loop
         vertex 4.070893e+000 6.123241e+000 8.085692e+000
         vertex 4.070893e+000 6.123241e+000 1.000000e+001
         vertex 3.798008e+000 5.781054e+000 1.000000e+001
      endloop
   endfacet
   facet normal 7.971575e-001 -6.037714e-001 0.000000e+000
      outer loop
         vertex 4.070893e+000 6.123241e+000 8.085692e+000
         vertex 3.798008e+000 5.781054e+000 1.000000e+001
         vertex 3.798008e+000 5.781054e+000 8.085692e+000
      endloop
   endfacet
   facet normal 8.532693e-001 -5.214705e-001 0.000000e+000
      outer loop
         vertex 3.798008e+000 5.781054e+000 8.085692e+000
         vertex 3.798008e+000 5.781054e+000 1.000000e+001
         vertex 3.579170e+000 5.402017e+000 1.000000e+001
      endloop
   endfacet
   facet normal 8.782414e-001 -4.782176e-001 0.000000e+000
      outer loop
         vertex 3.798008e+000 5.781054e+000 8.085692e+000
         vertex 3.579170e+000 5.402017e+000 1.000000e+001
         vertex 3.579170e+000 5.402017e+000 8.085692e+000
      endloop
   endfacet
   facet normal 9.214601e-001 -3.884729e-001 0.000000e+000
      outer loop
         vertex 3.579170e+000 5.402017e+000 8.085692e+000
         vertex 3.579170e+000 5.402017e+000 1.000000e+001
         vertex 3.419270e+000 4.994597e+000 1.000000e+001
      endloop
   endfacet
   facet normal 9.397067e-001 -3.419812e-001 0.000000e+000
      outer loop
         vertex 3.579170e+000 5.402017e+000 8.085692e+000
         vertex 3.419270e+000 4.994597e+000 1.000000e+001
         vertex 3.419270e+000 4.994597e+000 8.085692e+000
      endloop
   endfacet
   facet normal 9.690670e-001 -2.467975e-001 0.000000e+000
      outer loop
         vertex 3.419270e+000 4.994597e+000 8.085692e+000
         vertex 3.419270e+000 4.994597e+000 1.000000e+001
         vertex 3.321878e+000 4.567895e+000 1.000000e+001
      endloop
   endfacet
   facet normal 9.801807e-001 -1.981055e-001 0.000000e+000
      outer loop
         vertex 3.419270e+000 4.994597e+000 8.085692e+000
         vertex 3.321878e+000 4.567895e+000 1.000000e+001
         vertex 3.321878e+000 4.567895e+000 8.085692e+000
      endloop
   endfacet
   facet normal 9.950266e-001 -9.960905e-002 0.000000e+000
      outer loop
         vertex 3.321878e+000 4.567895e+000 8.085692e+000
         vertex 3.321878e+000 4.567895e+000 1.000000e+001
         vertex 3.289171e+000 4.131445e+000 1.000000e+001
      endloop
   endfacet
   facet normal 9.987590e-001 -4.980453e-002 0.000000e+000
      outer loop
         vertex 3.321878e+000 4.567895e+000 8.085692e+000
         vertex 3.289171e+000 4.131445e+000 1.000000e+001
         vertex 3.289171e+000 4.131445e+000 8.085692e+000
      endloop
   endfacet
   facet normal 9.987590e-001 4.980453e-002 0.000000e+000
      outer loop
         vertex 3.289171e+000 4.131445e+000 8.085692e+000
         vertex 3.289171e+000 4.131445e+000 1.000000e+001
         vertex 3.321878e+000 3.694994e+000 1.000000e+001
      endloop
   endfacet
   facet normal 9.950266e-001 9.960905e-002 0.000000e+000
      outer loop
         vertex 3.289171e+000 4.131445e+000 8.085692e+000
         vertex 3.321878e+000 3.694994e+000 1.000000e+001
         vertex 3.321878e+000 3.694994e+000 8.085692e+000
      endloop
   endfacet
   facet normal 9.801807e-001 1.981055e-001 0.000000e+000
      outer loop
         vertex 3.321878e+000 3.694994e+000 8.085692e+000
         vertex 3.321878e+000 3.694994e+000 1.000000e+001
         vertex 3.419270e+000 3.268293e+000 1.000000e+001
      endloop
   endfacet
   facet normal 9.690670e-001 2.467975e-001 0.000000e+000
      outer loop
         vertex 3.321878e+000 3.694994e+000 8.085692e+000
         vertex 3.419270e+000 3.268293e+000 1.000000e+001
         vertex 3.419270e+000 3.268293e+000 8.085692e+000
      endloop
   endfacet
   facet normal 9.397067e-001 3.419812e-001 0.000000e+000
      outer loop
         vertex 3.419270e+000 3.268293e+000 8.085692e+000
         vertex 3.419270e+000 3.268293e+000 1.000000e+001
         vertex 3.579170e+000 2.860874e+000 1.000000e+001
      endloop
   endfacet
   facet normal 9.214601e-001 3.884729e-001 0.000000e+000
      outer loop
         vertex 3.419270e+000 3.268293e+000 8.085692e+000
         vertex 3.579170e+000 2.860874e+000 1.000000e+001
         vertex 3.579170e+000 2.860874e+000 8.085692e+000
      endloop
   endfacet
   facet normal 8.782414e-001 4.782176e-001 0.000000e+000
      outer loop
         vertex 3.579170e+000 2.860874e+000 8.085692e+000
         vertex 3.579170e+000 2.860874e+000 1.000000e+001
         vertex 3.798008e+000 2.481837e+000 1.000000e+001
      endloop
   endfacet
   facet normal 8.532693e-001 5.214705e-001 0.000000e+000
      outer loop
         vertex 3.579170e+000 2.860874e+000 8.085692e+000
         vertex 3.798008e+000 2.481837e+000 1.000000e+001
         vertex 3.798008e+000 2.481837e+000 8.085692e+000
      endloop
   endfacet
   facet normal 7.971576e-001 6.037714e-001 0.000000e+000
      outer loop
         vertex 3.798008e+000 2.481837e+000 8.085692e+000
         vertex 3.798008e+000 2.481837e+000 1.000000e+001
         vertex 4.070893e+000 2.139649e+000 1.000000e+001
      endloop
   endfacet
   facet normal 7.660179e-001 6.428193e-001 0.000000e+000
      outer loop
         vertex 3.798008e+000 2.481837e+000 8.085692e+000
         vertex 4.070893e+000 2.139649e+000 1.000000e+001
         vertex 4.070893e+000 2.139649e+000 8.085692e+000
      endloop
   endfacet
   facet normal 6.982664e-001 7.158380e-001 0.000000e+000
      outer loop
         vertex 4.070893e+000 2.139649e+000 8.085692e+000
         vertex 4.070893e+000 2.139649e+000 1.000000e+001
         vertex 4.391731e+000 1.841955e+000 1.000000e+001
      endloop
   endfacet
   facet normal 6.616548e-001 7.498086e-001 0.000000e+000
      outer loop
         vertex 4.070893e+000 2.139649e+000 8.085692e+000
         vertex 4.391731e+000 1.841955e+000 1.000000e+001
         vertex 4.391731e+000 1.841955e+000 8.085692e+000
      endloop
   endfacet
   facet normal 5.837772e-001 8.119138e-001 0.000000e+000
      outer loop
         vertex 4.391731e+000 1.841955e+000 8.085692e+000
         vertex 4.391731e+000 1.841955e+000 1.000000e+001
         vertex 4.753355e+000 1.595404e+000 1.000000e+001
      endloop
   endfacet
   facet normal 5.425115e-001 8.400484e-001 0.000000e+000
      outer loop
         vertex 4.391731e+000 1.841955e+000 8.085692e+000
         vertex 4.753355e+000 1.595404e+000 1.000000e+001
         vertex 4.753355e+000 1.595404e+000 8.085692e+000
      endloop
   endfacet
   facet normal 4.562475e-001 8.898529e-001 0.000000e+000
      outer loop
         vertex 4.753355e+000 1.595404e+000 8.085692e+000
         vertex 4.753355e+000 1.595404e+000 1.000000e+001
         vertex 5.147686e+000 1.405504e+000 1.000000e+001
      endloop
   endfacet
   facet normal 4.112494e-001 9.115229e-001 0.000000e+000
      outer loop
         vertex 4.753355e+000 1.595404e+000 8.085692e+000
         vertex 5.147686e+000 1.405504e+000 1.000000e+001
         vertex 5.147686e+000 1.405504e+000 8.085692e+000
      endloop
   endfacet
   facet normal 3.185259e-001 9.479141e-001 0.000000e+000
      outer loop
         vertex 5.147686e+000 1.405504e+000 8.085692e+000
         vertex 5.147686e+000 1.405504e+000 1.000000e+001
         vertex 5.565916e+000 1.276497e+000 1.000000e+001
      endloop
   endfacet
   facet normal 2.708006e-001 9.626355e-001 0.000000e+000
      outer loop
         vertex 5.147686e+000 1.405504e+000 8.085692e+000
         vertex 5.565916e+000 1.276497e+000 1.000000e+001
         vertex 5.565916e+000 1.276497e+000 8.085692e+000
      endloop
   endfacet
   facet normal 1.736889e-001 9.848005e-001 0.000000e+000
      outer loop
         vertex 5.565916e+000 1.276497e+000 8.085692e+000
         vertex 5.565916e+000 1.276497e+000 1.000000e+001
         vertex 5.998702e+000 1.211265e+000 1.000000e+001
      endloop
   endfacet
   facet normal 1.243026e-001 9.922444e-001 0.000000e+000
      outer loop
         vertex 5.565916e+000 1.276497e+000 8.085692e+000
         vertex 5.998702e+000 1.211265e+000 1.000000e+001
         vertex 5.998702e+000 1.211265e+000 8.085692e+000
      endloop
   endfacet
   facet normal 2.497209e-002 9.996881e-001 0.000000e+000
      outer loop
         vertex 5.998702e+000 1.211265e+000 8.085692e+000
         vertex 5.998702e+000 1.211265e+000 1.000000e+001
         vertex 6.436377e+000 1.211265e+000 1.000000e+001
      endloop
   endfacet
   facet normal -2.497209e-002 9.996881e-001 0.000000e+000
      outer loop
         vertex 5.998702e+000 1.211265e+000 8.085692e+000
         vertex 6.436377e+000 1.211265e+000 1.000000e+001
         vertex 6.436377e+000 1.211265e+000 8.085692e+000
      endloop
   endfacet
   facet normal -1.243026e-001 9.922444e-001 0.000000e+000
      outer loop
         vertex 6.436377e+000 1.211265e+000 8.085692e+000
         vertex 6.436377e+000 1.211265e+000 1.000000e+001
         vertex 6.869162e+000 1.276497e+000 1.000000e+001
      endloop
   endfacet
   facet normal -1.736889e-001 9.848005e-001 0.000000e+000
      outer loop
         vertex 6.436377e+000 1.211265e+000 8.085692e+000
         vertex 6.869162e+000 1.276497e+000 1.000000e+001
         vertex 6.869162e+000 1.276497e+000 8.085692e+000
      endloop
   endfacet
   facet normal -2.708006e-001 9.626355e-001 0.000000e+000
      outer loop
         vertex 6.869162e+000 1.276497e+000 8.085692e+000
         vertex 6.869162e+000 1.276497e+000 1.000000e+001
         vertex 7.287392e+000 1.405504e+000 1.000000e+001
      endloop
   endfacet
   facet normal -3.185259e-001 9.479141e-001 0.000000e+000
      outer loop
         vertex 6.869162e+000 1.276497e+000 8.085692e+000
         vertex 7.287392e+000 1.405504e+000 1.000000e+001
         vertex 7.287392e+000 1.405504e+000 8.085692e+000
      endloop
   endfacet
   facet normal -4.112494e-001 9.115229e-001 0.000000e+000
      outer loop
         vertex 7.287392e+000 1.405504e+000 8.085692e+000
         vertex 7.287392e+000 1.405504e+000 1.000000e+001
         vertex 7.681723e+000 1.595404e+000 1.000000e+001
      endloop
   endfacet
   facet normal -4.562475e-001 8.898529e-001 0.000000e+000
      outer loop
         vertex 7.287392e+000 1.405504e+000 8.085692e+000
         vertex 7.681723e+000 1.595404e+000 1.000000e+001
         vertex 7.681723e+000 1.595404e+000 8.085692e+000
      endloop
   endfacet
   facet normal -5.425115e-001 8.400484e-001 0.000000e+000
      outer loop
         vertex 7.681723e+000 1.595404e+000 8.085692e+000
         vertex 7.681723e+000 1.595404e+000 1.000000e+001
         vertex 8.043347e+000 1.841955e+000 1.000000e+001
      endloop
   endfacet
   facet normal -5.837773e-001 8.119138e-001 0.000000e+000
      outer loop
         vertex 7.681723e+000 1.595404e+000 8.085692e+000
         vertex 8.043347e+000 1.841955e+000 1.000000e+001
         vertex 8.043347e+000 1.841955e+000 8.085692e+000
      endloop
   endfacet
   facet normal -6.616548e-001 7.498086e-001 0.000000e+000
      outer loop
         vertex 8.043347e+000 1.841955e+000 8.085692e+000
         vertex 8.043347e+000 1.841955e+000 1.000000e+001
         vertex 8.364184e+000 2.139649e+000 1.000000e+001
      endloop
   endfacet
   facet normal -6.982664e-001 7.158380e-001 0.000000e+000
      outer loop
         vertex 8.043347e+000 1.841955e+000 8.085692e+000
         vertex 8.364184e+000 2.139649e+000 1.000000e+001
         vertex 8.364184e+000 2.139649e+000 8.085692e+000
      endloop
   endfacet
   facet normal -7.660179e-001 6.428193e-001 0.000000e+000
      outer loop
         vertex 8.364184e+000 2.139649e+000 8.085692e+000
         vertex 8.364184e+000 2.139649e+000 1.000000e+001
         vertex 8.637071e+000 2.481837e+000 1.000000e+001
      endloop
   endfacet
   facet normal -7.971575e-001 6.037714e-001 0.000000e+000
      outer loop
         vertex 8.364184e+000 2.139649e+000 8.085692e+000
         vertex 8.637071e+000 2.481837e+000 1.000000e+001
         vertex 8.637071e+000 2.481837e+000 8.085692e+000
      endloop
   endfacet
   facet normal -8.532693e-001 5.214705e-001 0.000000e+000
      outer loop
         vertex 8.637071e+000 2.481837e+000 8.085692e+000
         vertex 8.637071e+000 2.481837e+000 1.000000e+001
         vertex 8.855907e+000 2.860874e+000 1.000000e+001
      endloop
   endfacet
   facet normal -8.782414e-001 4.782176e-001 0.000000e+000
      outer loop
         vertex 8.637071e+000 2.481837e+000 8.085692e+000
         vertex 8.855907e+000 2.860874e+000 1.000000e+001
         vertex 8.855907e+000 2.860874e+000 8.085692e+000
      endloop
   endfacet
   facet normal -9.214601e-001 3.884729e-001 0.000000e+000
      outer loop
         vertex 8.855907e+000 2.860874e+000 8.085692e+000
         vertex 8.855907e+000 2.860874e+000 1.000000e+001
         vertex 9.015808e+000 3.268293e+000 1.000000e+001
      endloop
   endfacet
   facet normal -9.397067e-001 3.419812e-001 0.000000e+000
      outer loop
         vertex 8.855907e+000 2.860874e+000 8.085692e+000
         vertex 9.015808e+000 3.268293e+000 1.000000e+001
         vertex 9.015808e+000 3.268293e+000 8.085692e+000
      endloop
   endfacet
   facet normal -9.690670e-001 2.467975e-001 0.000000e+000
      outer loop
         vertex 9.015808e+000 3.268293e+000 8.085692e+000
         vertex 9.015808e+000 3.268293e+000 1.000000e+001
         vertex 9.113200e+000 3.694994e+000 1.000000e+001
      endloop
   endfacet
   facet normal -9.801807e-001 1.981055e-001 0.000000e+000
      outer loop
         vertex 9.015808e+000 3.268293e+000 8.085692e+000
         vertex 9.113200e+000 3.694994e+000 1.000000e+001
         vertex 9.113200e+000 3.694994e+000 8.085692e+000
      endloop
   endfacet
   facet normal -9.950266e-001 9.960905e-002 0.000000e+000
      outer loop
         vertex 9.113200e+000 3.694994e+000 8.085692e+000
         vertex 9.113200e+000 3.694994e+000 1.000000e+001
         vertex 9.145907e+000 4.131445e+000 1.000000e+001
      endloop
   endfacet
   facet normal 0.000000e+000 0.000000e+000 1.000000e+000
      outer loop
         vertex 7.820770e+000 2.389872e+000 8.085692e+000
         vertex 8.364184e+000 2.139649e+000 8.085692e+000
         vertex 8.085557e+000 2.677508e+000 8.085692e+000
      endloop
   endfacet
   facet normal 0.000000e+000 0.000000e+000 1.000000e+000
      outer loop
         vertex 8.085557e+000 2.677508e+000 8.085692e+000
         vertex 8.364184e+000 2.139649e+000 8.085692e+000
         vertex 8.637071e+000 2.481837e+000 8.085692e+000
      endloop
   endfacet
   facet normal 0.000000e+000 0.000000e+000 1.000000e+000
      outer loop
         vertex 8.085557e+000 2.677508e+000 8.085692e+000
         vertex 8.637071e+000 2.481837e+000 8.085692e+000
         vertex 8.299391e+000 3.004803e+000 8.085692e+000
      endloop
   endfacet
   facet normal 0.000000e+000 0.000000e+000 1.000000e+000
      outer loop
         vertex 8.299391e+000 3.004803e+000 8.085692e+000
         vertex 8.637071e+000 2.481837e+000 8.085692e+000
         vertex 8.855907e+000 2.860874e+000 8.085692e+000
      endloop
   endfacet
   facet normal 0.000000e+000 0.000000e+000 1.000000e+000
      outer loop
         vertex 8.299391e+000 3.004803e+000 8.085692e+000
         vertex 8.855907e+000 2.860874e+000 8.085692e+000
         vertex 8.456436e+000 3.362831e+000 8.085692e+000
      endloop
   endfacet
   facet normal 0.000000e+000 0.000000e+000 1.000000e+000
      outer loop
         vertex 8.456436e+000 3.362831e+000 8.085692e+000
         vertex 8.855907e+000 2.860874e+000 8.085692e+000
         vertex 9.015808e+000 3.268293e+000 8.085692e+000
      endloop
   endfacet
   facet normal 0.000000e+000 0.000000e+000 1.000000e+000
      outer loop
         vertex 8.456436e+000 3.362831e+000 8.085692e+000
         vertex 9.015808e+000 3.268293e+000 8.085692e+000
         vertex 8.552410e+000 3.741824e+000 8.085692e+000
      endloop
   endfacet
   facet normal 0.000000e+000 0.000000e+000 1.000000e+000
      outer loop
         vertex 8.552410e+000 3.741824e+000 8.085692e+000
         vertex 9.015808e+000 3.268293e+000 8.085692e+000
         vertex 9.113200e+000 3.694994e+000 8.085692e+000
      endloop
   endfacet
   facet normal 0.000000e+000 0.000000e+000 1.000000e+000
      outer loop
         vertex 8.552410e+000 3.741824e+000 8.085692e+000
         vertex 9.113200e+000 3.694994e+000 8.085692e+000
         vertex 8.584695e+000 4.131445e+000 8.085692e+000
      endloop
   endfacet
   facet normal 0.000000e+000 0.000000e+000 1.000000e+000
      outer loop
         vertex 8.584695e+000 4.131445e+000 8.085692e+000
         vertex 9.113200e+000 3.694994e+000 8.085692e+000
         vertex 9.145907e+000 4.131445e+000 8.085692e+000
      endloop
   endfacet
   facet normal 0.000000e+000 0.000000e+000 1.000000e+000
      outer loop
         vertex 8.584695e+000 4.131445e+000 8.085692e+000
         vertex 9.145907e+000 4.131445e+000 8.085692e+000
         vertex 8.552410e+000 4.521066e+000 8.085692e+000
      endloop
   endfacet
   facet normal 0.000000e+000 0.000000e+000 1.000000e+000
      outer loop
         vertex 8.552410e+000 4.521066e+000 8.085692e+000
         vertex 9.145907e+000 4.131445e+000 8.085692e+000
         vertex 9.113200e+000 4.567895e+000 8.085692e+000
      endloop
   endfacet
   facet normal 0.000000e+000 0.000000e+000 1.000000e+000
      outer loop
         vertex 8.552410e+000 4.521066e+000 8.085692e+000
         vertex 9.113200e+000 4.567895e+000 8.085692e+000
         vertex 8.456436e+000 4.900059e+000 8.085692e+000
      endloop
   endfacet
   facet normal 0.000000e+000 0.000000e+000 1.000000e+000
      outer loop
         vertex 8.456436e+000 4.900059e+000 8.085692e+000
         vertex 9.113200e+000 4.567895e+000 8.085692e+000
         vertex 9.015808e+000 4.994597e+000 8.085692e+000
      endloop
   endfacet
   facet normal 0.000000e+000 0.000000e+000 1.000000e+000
      outer loop
         vertex 8.456436e+000 4.900059e+000 8.085692e+000
         vertex 9.015808e+000 4.994597e+000 8.085692e+000
         vertex 8.299391e+000 5.258087e+000 8.085692e+000
      endloop
   endfacet
   facet normal 0.000000e+000 0.000000e+000 1.000000e+000
      outer loop
         vertex 8.299391e+000 5.258087e+000 8.085692e+000
         vertex 9.015808e+000 4.994597e+000 8.085692e+000
         vertex 8.855907e+000 5.402017e+000 8.085692e+000
      endloop
   endfacet
   facet normal 0.000000e+000 0.000000e+000 1.000000e+000
      outer loop
         vertex 8.299391e+000 5.258087e+000 8.085692e+000
         vertex 8.855907e+000 5.402017e+000 8.085692e+000
         vertex 8.085557e+000 5.585382e+000 8.085692e+000
      endloop
   endfacet
   facet normal 0.000000e+000 0.000000e+000 1.000000e+000
      outer loop
         vertex 8.855907e+000 5.402017e+000 8.085692e+000
         vertex 8.637071e+000 5.781054e+000 8.085692e+000
         vertex 8.085557e+000 5.585382e+000 8.085692e+000
      endloop
   endfacet
   facet normal 0.000000e+000 0.000000e+000 1.000000e+000
      outer loop
         vertex 8.085557e+000 5.585382e+000 8.085692e+000
         vertex 8.637071e+000 5.781054e+000 8.085692e+000
         vertex 8.364184e+000 6.123241e+000 8.085692e+000
      endloop
   endfacet
   facet normal 0.000000e+000 0.000000e+000 1.000000e+000
      outer loop
         vertex 8.085557e+000 5.585382e+000 8.085692e+000
         vertex 8.364184e+000 6.123241e+000 8.085692e+000
         vertex 7.820770e+000 5.873018e+000 8.085692e+000
      endloop
   endfacet
   facet normal 0.000000e+000 0.000000e+000 1.000000e+000
      outer loop
         vertex 7.820770e+000 5.873018e+000 8.085692e+000
         vertex 8.364184e+000 6.123241e+000 8.085692e+000
         vertex 8.043347e+000 6.420936e+000 8.085692e+000
      endloop
   endfacet
   facet normal 0.000000e+000 0.000000e+000 1.000000e+000
      outer loop
         vertex 7.820770e+000 5.873018e+000 8.085692e+000
         vertex 8.043347e+000 6.420936e+000 8.085692e+000
         vertex 7.512250e+000 6.113149e+000 8.085692e+000
      endloop
   endfacet
   facet normal 0.000000e+000 0.000000e+000 1.000000e+000
      outer loop
         vertex 7.512250e+000 6.113149e+000 8.085692e+000
         vertex 8.043347e+000 6.420936e+000 8.085692e+000
         vertex 7.681723e+000 6.667486e+000 8.085692e+000
      endloop
   endfacet
   facet normal 0.000000e+000 0.000000e+000 1.000000e+000
      outer loop
         vertex 7.512250e+000 6.113149e+000 8.085692e+000
         vertex 7.681723e+000 6.667486e+000 8.085692e+000
         vertex 7.168415e+000 6.299223e+000 8.085692e+000
      endloop
   endfacet
   facet normal 0.000000e+000 0.000000e+000 1.000000e+000
      outer loop
         vertex 7.168415e+000 6.299223e+000 8.085692e+000
         vertex 7.681723e+000 6.667486e+000 8.085692e+000
         vertex 7.287392e+000 6.857386e+000 8.085692e+000
      endloop
   endfacet
   facet normal 0.000000e+000 0.000000e+000 1.000000e+000
      outer loop
         vertex 7.168415e+000 6.299223e+000 8.085692e+000
         vertex 7.287392e+000 6.857386e+000 8.085692e+000
         vertex 6.798641e+000 6.426167e+000 8.085692e+000
      endloop
   endfacet
   facet normal 0.000000e+000 0.000000e+000 1.000000e+000
      outer loop
         vertex 6.798641e+000 6.426167e+000 8.085692e+000
         vertex 7.287392e+000 6.857386e+000 8.085692e+000
         vertex 6.869162e+000 6.986392e+000 8.085692e+000
      endloop
   endfacet
   facet normal 0.000000e+000 0.000000e+000 1.000000e+000
      outer loop
         vertex 6.798641e+000 6.426167e+000 8.085692e+000
         vertex 6.869162e+000 6.986392e+000 8.085692e+000
         vertex 6.413017e+000 6.490516e+000 8.085692e+000
      endloop
   endfacet
   facet normal 0.000000e+000 0.000000e+000 1.000000e+000
      outer loop
         vertex 6.413017e+000 6.490516e+000 8.085692e+000
         vertex 6.869162e+000 6.986392e+000 8.085692e+000
         vertex 6.436377e+000 7.051625e+000 8.085692e+000
      endloop
   endfacet
   facet normal 0.000000e+000 0.000000e+000 1.000000e+000
      outer loop
         vertex 6.413017e+000 6.490516e+000 8.085692e+000
         vertex 6.436377e+000 7.051625e+000 8.085692e+000
         vertex 6.022061e+000 6.490516e+000 8.085692e+000
      endloop
   endfacet
   facet normal 0.000000e+000 0.000000e+000 1.000000e+000
      outer loop
         vertex 6.022061e+000 6.490516e+000 8.085692e+000
         vertex 6.436377e+000 7.051625e+000 8.085692e+000
         vertex 5.998702e+000 7.051625e+000 8.085692e+000
      endloop
   endfacet
   facet normal 0.000000e+000 0.000000e+000 1.000000e+000
      outer loop
         vertex 6.022061e+000 6.490516e+000 8.085692e+000
         vertex 5.998702e+000 7.051625e+000 8.085692e+000
         vertex 5.636436e+000 6.426167e+000 8.085692e+000
      endloop
   endfacet
   facet normal 0.000000e+000 0.000000e+000 1.000000e+000
      outer loop
         vertex 5.636436e+000 6.426167e+000 8.085692e+000
         vertex 5.998702e+000 7.051625e+000 8.085692e+000
         vertex 5.565916e+000 6.986392e+000 8.085692e+000
      endloop
   endfacet
   facet normal 0.000000e+000 0.000000e+000 1.000000e+000
      outer loop
         vertex 5.636436e+000 6.426167e+000 8.085692e+000
         vertex 5.565916e+000 6.986392e+000 8.085692e+000
         vertex 5.266663e+000 6.299223e+000 8.085692e+000
      endloop
   endfacet
   facet normal 0.000000e+000 0.000000e+000 1.000000e+000
      outer loop
         vertex 5.266663e+000 6.299223e+000 8.085692e+000
         vertex 5.565916e+000 6.986392e+000 8.085692e+000
         vertex 5.147686e+000 6.857386e+000 8.085692e+000
      endloop
   endfacet
   facet normal 0.000000e+000 0.000000e+000 1.000000e+000
      outer loop
         vertex 5.266663e+000 6.299223e+000 8.085692e+000
         vertex 5.147686e+000 6.857386e+000 8.085692e+000
         vertex 4.922827e+000 6.113149e+000 8.085692e+000
      endloop
   endfacet
   facet normal 0.000000e+000 0.000000e+000 1.000000e+000
      outer loop
         vertex 4.922827e+000 6.113149e+000 8.085692e+000
         vertex 5.147686e+000 6.857386e+000 8.085692e+000
         vertex 4.753355e+000 6.667486e+000 8.085692e+000
      endloop
   endfacet
   facet normal 0.000000e+000 0.000000e+000 1.000000e+000
      outer loop
         vertex 4.922827e+000 6.113149e+000 8.085692e+000
         vertex 4.753355e+000 6.667486e+000 8.085692e+000
         vertex 4.614308e+000 5.873018e+000 8.085692e+000
      endloop
   endfacet
   facet normal 0.000000e+000 0.000000e+000 1.000000e+000
      outer loop
         vertex 4.349520e+000 2.677508e+000 8.085692e+000
         vertex 4.070893e+000 2.139649e+000 8.085692e+000
         vertex 4.614308e+000 2.389872e+000 8.085692e+000
      endloop
   endfacet
   facet normal 0.000000e+000 0.000000e+000 1.000000e+000
      outer loop
         vertex 4.614308e+000 2.389872e+000 8.085692e+000
         vertex 4.070893e+000 2.139649e+000 8.085692e+000
         vertex 4.391731e+000 1.841955e+000 8.085692e+000
      endloop
   endfacet
   facet normal 0.000000e+000 0.000000e+000 1.000000e+000
      outer loop
         vertex 4.614308e+000 2.389872e+000 8.085692e+000
         vertex 4.391731e+000 1.841955e+000 8.085692e+000
         vertex 4.922827e+000 2.149741e+000 8.085692e+000
      endloop
   endfacet
   facet normal 0.000000e+000 0.000000e+000 1.000000e+000
      outer loop
         vertex 4.922827e+000 2.149741e+000 8.085692e+000
         vertex 4.391731e+000 1.841955e+000 8.085692e+000
         vertex 4.753355e+000 1.595404e+000 8.085692e+000
      endloop
   endfacet
   facet normal 0.000000e+000 0.000000e+000 1.000000e+000
      outer loop
         vertex 4.922827e+000 2.149741e+000 8.085692e+000
         vertex 4.753355e+000 1.595404e+000 8.085692e+000
         vertex 5.266663e+000 1.963667e+000 8.085692e+000
      endloop
   endfacet
   facet normal 0.000000e+000 0.000000e+000 1.000000e+000
      outer loop
         vertex 5.266663e+000 1.963667e+000 8.085692e+000
         vertex 4.753355e+000 1.595404e+000 8.085692e+000
         vertex 5.147686e+000 1.405504e+000 8.085692e+000
      endloop
   endfacet
   facet normal 0.000000e+000 0.000000e+000 1.000000e+000
      outer loop
         vertex 5.266663e+000 1.963667e+000 8.085692e+000
         vertex 5.147686e+000 1.405504e+000 8.085692e+000
         vertex 5.636436e+000 1.836724e+000 8.085692e+000
      endloop
   endfacet
   facet normal 0.000000e+000 0.000000e+000 1.000000e+000
      outer loop
         vertex 5.636436e+000 1.836724e+000 8.085692e+000
         vertex 5.147686e+000 1.405504e+000 8.085692e+000
         vertex 5.565916e+000 1.276497e+000 8.085692e+000
      endloop
   endfacet
   facet normal 0.000000e+000 0.000000e+000 1.000000e+000
      outer loop
         vertex 5.636436e+000 1.836724e+000 8.085692e+000
         vertex 5.565916e+000 1.276497e+000 8.085692e+000
         vertex 6.022061e+000 1.772374e+000 8.085692e+000
      endloop
   endfacet
   facet normal 0.000000e+000 0.000000e+000 1.000000e+000
      outer loop
         vertex 6.022061e+000 1.772374e+000 8.085692e+000
         vertex 5.565916e+000 1.276497e+000 8.085692e+000
         vertex 5.998702e+000 1.211265e+000 8.085692e+000
      endloop
   endfacet
   facet normal 0.000000e+000 0.000000e+000 1.000000e+000
      outer loop
         vertex 6.022061e+000 1.772374e+000 8.085692e+000
         vertex 5.998702e+000 1.211265e+000 8.085692e+000
         vertex 6.413017e+000 1.772374e+000 8.085692e+000
      endloop
   endfacet
   facet normal 0.000000e+000 0.000000e+000 1.000000e+000
      outer loop
         vertex 6.413017e+000 1.772374e+000 8.085692e+000
         vertex 5.998702e+000 1.211265e+000 8.085692e+000
         vertex 6.436377e+000 1.211265e+000 8.085692e+000
      endloop
   endfacet
   facet normal 0.000000e+000 0.000000e+000 1.000000e+000
      outer loop
         vertex 6.413017e+000 1.772374e+000 8.085692e+000
         vertex 6.436377e+000 1.211265e+000 8.085692e+000
         vertex 6.798641e+000 1.836724e+000 8.085692e+000
      endloop
   endfacet
   facet normal 0.000000e+000 0.000000e+000 1.000000e+000
      outer loop
         vertex 6.798641e+000 1.836724e+000 8.085692e+000
         vertex 6.436377e+000 1.211265e+000 8.085692e+000
         vertex 6.869162e+000 1.276497e+000 8.085692e+000
      endloop
   endfacet
   facet normal 0.000000e+000 0.000000e+000 1.000000e+000
      outer loop
         vertex 6.798641e+000 1.836724e+000 8.085692e+000
         vertex 6.869162e+000 1.276497e+000 8.085692e+000
         vertex 7.168415e+000 1.963667e+000 8.085692e+000
      endloop
   endfacet
   facet normal 0.000000e+000 0.000000e+000 1.000000e+000
      outer loop
         vertex 7.168415e+000 1.963667e+000 8.085692e+000
         vertex 6.869162e+000 1.276497e+000 8.085692e+000
         vertex 7.287392e+000 1.405504e+000 8.085692e+000
      endloop
   endfacet
   facet normal 0.000000e+000 0.000000e+000 1.000000e+000
      outer loop
         vertex 7.168415e+000 1.963667e+000 8.085692e+000
         vertex 7.287392e+000 1.405504e+000 8.085692e+000
         vertex 7.512250e+000 2.149741e+000 8.085692e+000
      endloop
   endfacet
   facet normal 0.000000e+000 0.000000e+000 1.000000e+000
      outer loop
         vertex 7.512250e+000 2.149741e+000 8.085692e+000
         vertex 7.287392e+000 1.405504e+000 8.085692e+000
         vertex 7.681723e+000 1.595404e+000 8.085692e+000
      endloop
   endfacet
   facet normal 0.000000e+000 0.000000e+000 1.000000e+000
      outer loop
         vertex 7.512250e+000 2.149741e+000 8.085692e+000
         vertex 7.681723e+000 1.595404e+000 8.085692e+000
         vertex 7.820770e+000 2.389872e+000 8.085692e+000
      endloop
   endfacet
   facet normal 0.000000e+000 0.000000e+000 1.000000e+000
      outer loop
         vertex 7.820770e+000 2.389872e+000 8.085692e+000
         vertex 7.681723e+000 1.595404e+000 8.085692e+000
         vertex 8.043347e+000 1.841955e+000 8.085692e+000
      endloop
   endfacet
   facet normal 0.000000e+000 0.000000e+000 1.000000e+000
      outer loop
         vertex 7.820770e+000 2.389872e+000 8.085692e+000
         vertex 8.043347e+000 1.841955e+000 8.085692e+000
         vertex 8.364184e+000 2.139649e+000 8.085692e+000
      endloop
   endfacet
   facet normal 0.000000e+000 0.000000e+000 1.000000e+000
      outer loop
         vertex 4.753355e+000 6.667486e+000 8.085692e+000
         vertex 4.391731e+000 6.420936e+000 8.085692e+000
         vertex 4.614308e+000 5.873018e+000 8.085692e+000
      endloop
   endfacet
   facet normal 0.000000e+000 0.000000e+000 1.000000e+000
      outer loop
         vertex 4.614308e+000 5.873018e+000 8.085692e+000
         vertex 4.391731e+000 6.420936e+000 8.085692e+000
         vertex 4.070893e+000 6.123241e+000 8.085692e+000
      endloop
   endfacet
   facet normal 0.000000e+000 0.000000e+000 1.000000e+000
      outer loop
         vertex 4.614308e+000 5.873018e+000 8.085692e+000
         vertex 4.070893e+000 6.123241e+000 8.085692e+000
         vertex 4.349520e+000 5.585382e+000 8.085692e+000
      endloop
   endfacet
   facet normal 0.000000e+000 0.000000e+000 1.000000e+000
      outer loop
         vertex 4.349520e+000 5.585382e+000 8.085692e+000
         vertex 4.070893e+000 6.123241e+000 8.085692e+000
         vertex 3.798008e+000 5.781054e+000 8.085692e+000
      endloop
   endfacet
   facet normal 0.000000e+000 0.000000e+000 1.000000e+000
      outer loop
         vertex 4.349520e+000 5.585382e+000 8.085692e+000
         vertex 3.798008e+000 5.781054e+000 8.085692e+000
         vertex 4.135687e+000 5.258087e+000 8.085692e+000
      endloop
   endfacet
   facet normal 0.000000e+000 0.000000e+000 1.000000e+000
      outer loop
         vertex 4.135687e+000 5.258087e+000 8.085692e+000
         vertex 3.798008e+000 5.781054e+000 8.085692e+000
         vertex 3.579170e+000 5.402017e+000 8.085692e+000
      endloop
   endfacet
   facet normal 0.000000e+000 0.000000e+000 1.000000e+000
      outer loop
         vertex 4.135687e+000 5.258087e+000 8.085692e+000
         vertex 3.579170e+000 5.402017e+000 8.085692e+000
         vertex 3.978642e+000 4.900059e+000 8.085692e+000
      endloop
   endfacet
   facet normal 0.000000e+000 0.000000e+000 1.000000e+000
      outer loop
         vertex 3.978642e+000 4.900059e+000 8.085692e+000
         vertex 3.579170e+000 5.402017e+000 8.085692e+000
         vertex 3.419270e+000 4.994597e+000 8.085692e+000
      endloop
   endfacet
   facet normal 0.000000e+000 0.000000e+000 1.000000e+000
      outer loop
         vertex 3.978642e+000 4.900059e+000 8.085692e+000
         vertex 3.419270e+000 4.994597e+000 8.085692e+000
         vertex 3.882668e+000 4.521066e+000 8.085692e+000
      endloop
   endfacet
   facet normal 0.000000e+000 0.000000e+000 1.000000e+000
      outer loop
         vertex 3.882668e+000 4.521066e+000 8.085692e+000
         vertex 3.419270e+000 4.994597e+000 8.085692e+000
         vertex 3.321878e+000 4.567895e+000 8.085692e+000
      endloop
   endfacet
   facet normal 0.000000e+000 0.000000e+000 1.000000e+000
      outer loop
         vertex 3.882668e+000 4.521066e+000 8.085692e+000
         vertex 3.321878e+000 4.567895e+000 8.085692e+000
         vertex 3.850383e+000 4.131445e+000 8.085692e+000
      endloop
   endfacet
   facet normal 0.000000e+000 0.000000e+000 1.000000e+000
      outer loop
         vertex 3.850383e+000 4.131445e+000 8.085692e+000
         vertex 3.321878e+000 4.567895e+000 8.085692e+000
         vertex 3.289171e+000 4.131445e+000 8.085692e+000
      endloop
   endfacet
   facet normal 0.000000e+000 0.000000e+000 1.000000e+000
      outer loop
         vertex 3.850383e+000 4.131445e+000 8.085692e+000
         vertex 3.289171e+000 4.131445e+000 8.085692e+000
         vertex 3.882668e+000 3.741824e+000 8.085692e+000
      endloop
   endfacet
   facet normal 0.000000e+000 0.000000e+000 1.000000e+000
      outer loop
         vertex 3.882668e+000 3.741824e+000 8.085692e+000
         vertex 3.289171e+000 4.131445e+000 8.085692e+000
         vertex 3.321878e+000 3.694994e+000 8.085692e+000
      endloop
   endfacet
   facet normal 0.000000e+000 0.000000e+000 1.000000e+000
      outer loop
         vertex 3.882668e+000 3.741824e+000 8.085692e+000
         vertex 3.321878e+000 3.694994e+000 8.085692e+000
         vertex 3.978642e+000 3.362831e+000 8.085692e+000
      endloop
   endfacet
   facet normal 0.000000e+000 0.000000e+000 1.000000e+000
      outer loop
         vertex 3.978642e+000 3.362831e+000 8.085692e+000
         vertex 3.321878e+000 3.694994e+000 8.085692e+000
         vertex 3.419270e+000 3.268293e+000 8.085692e+000
      endloop
   endfacet
   facet normal 0.000000e+000 0.000000e+000 1.000000e+000
      outer loop
         vertex 3.978642e+000 3.362831e+000 8.085692e+000
         vertex 3.419270e+000 3.268293e+000 8.085692e+000
         vertex 4.135687e+000 3.004803e+000 8.085692e+000
      endloop
   endfacet
   facet normal 0.000000e+000 0.000000e+000 1.000000e+000
      outer loop
         vertex 4.135687e+000 3.004803e+000 8.085692e+000
         vertex 3.419270e+000 3.268293e+000 8.085692e+000
         vertex 3.579170e+000 2.860874e+000 8.085692e+000
      endloop
   endfacet
   facet normal 0.000000e+000 0.000000e+000 1.000000e+000
      outer loop
         vertex 4.135687e+000 3.004803e+000 8.085692e+000
         vertex 3.579170e+000 2.860874e+000 8.085692e+000
         vertex 4.349520e+000 2.677508e+000 8.085692e+000
      endloop
   endfacet
   facet normal 0.000000e+000 0.000000e+000 1.000000e+000
      outer loop
         vertex 4.349520e+000 2.677508e+000 8.085692e+000
         vertex 3.579170e+000 2.860874e+000 8.085692e+000
         vertex 3.798008e+000 2.481837e+000 8.085692e+000
      endloop
   endfacet
   facet normal 0.000000e+000 0.000000e+000 1.000000e+000
      outer loop
         vertex 4.349520e+000 2.677508e+000 8.085692e+000
         vertex 3.798008e+000 2.481837e+000 8.085692e+000
         vertex 4.070893e+000 2.139649e+000 8.085692e+000
      endloop
   endfacet
   facet normal 9.984846e-001 5.503191e-002 0.000000e+000
      outer loop
         vertex 8.552410e+000 4.521066e+000 8.085692e+000
         vertex 8.584695e+000 4.131445e+000 1.000000e+001
         vertex 8.584695e+000 4.131445e+000 8.085692e+000
      endloop
   endfacet
   facet normal 9.984846e-001 -5.503191e-002 0.000000e+000
      outer loop
         vertex 8.584695e+000 4.131445e+000 8.085692e+000
         vertex 8.584695e+000 4.131445e+000 1.000000e+001
         vertex 8.552410e+000 3.741824e+000 1.000000e+001
      endloop
   endfacet
   facet normal 9.939246e-001 -1.100638e-001 0.000000e+000
      outer loop
         vertex 8.584695e+000 4.131445e+000 8.085692e+000
         vertex 8.552410e+000 3.741824e+000 1.000000e+001
         vertex 8.552410e+000 3.741824e+000 8.085692e+000
      endloop
   endfacet
   facet normal 9.758086e-001 -2.186265e-001 0.000000e+000
      outer loop
         vertex 8.552410e+000 3.741824e+000 8.085692e+000
         vertex 8.552410e+000 3.741824e+000 1.000000e+001
         vertex 8.456436e+000 3.362831e+000 1.000000e+001
      endloop
   endfacet
   facet normal 9.622528e-001 -2.721573e-001 0.000000e+000
      outer loop
         vertex 8.552410e+000 3.741824e+000 8.085692e+000
         vertex 8.456436e+000 3.362831e+000 1.000000e+001
         vertex 8.456436e+000 3.362831e+000 8.085692e+000
      endloop
   endfacet
   facet normal 9.265151e-001 -3.762575e-001 0.000000e+000
      outer loop
         vertex 8.456436e+000 3.362831e+000 8.085692e+000
         vertex 8.456436e+000 3.362831e+000 1.000000e+001
         vertex 8.299391e+000 3.004803e+000 1.000000e+001
      endloop
   endfacet
   facet normal 9.043333e-001 -4.268270e-001 0.000000e+000
      outer loop
         vertex 8.456436e+000 3.362831e+000 8.085692e+000
         vertex 8.299391e+000 3.004803e+000 1.000000e+001
         vertex 8.299391e+000 3.004803e+000 8.085692e+000
      endloop
   endfacet
   facet normal 8.519487e-001 -5.236253e-001 0.000000e+000
      outer loop
         vertex 8.299391e+000 3.004803e+000 8.085692e+000
         vertex 8.299391e+000 3.004803e+000 1.000000e+001
         vertex 8.085557e+000 2.677508e+000 1.000000e+001
      endloop
   endfacet
   facet normal 8.217459e-001 -5.698540e-001 0.000000e+000
      outer loop
         vertex 8.299391e+000 3.004803e+000 8.085692e+000
         vertex 8.085557e+000 2.677508e+000 1.000000e+001
         vertex 8.085557e+000 2.677508e+000 8.085692e+000
      endloop
   endfacet
   facet normal 7.541434e-001 -6.567098e-001 0.000000e+000
      outer loop
         vertex 8.085557e+000 2.677508e+000 8.085692e+000
         vertex 8.085557e+000 2.677508e+000 1.000000e+001
         vertex 7.820770e+000 2.389872e+000 1.000000e+001
      endloop
   endfacet
   facet normal 7.167435e-001 -6.973369e-001 0.000000e+000
      outer loop
         vertex 8.085557e+000 2.677508e+000 8.085692e+000
         vertex 7.820770e+000 2.389872e+000 1.000000e+001
         vertex 7.820770e+000 2.389872e+000 8.085692e+000
      endloop
   endfacet
   facet normal 6.357669e-001 -7.718811e-001 0.000000e+000
      outer loop
         vertex 7.820770e+000 2.389872e+000 8.085692e+000
         vertex 7.820770e+000 2.389872e+000 1.000000e+001
         vertex 7.512250e+000 2.149741e+000 1.000000e+001
      endloop
   endfacet
   facet normal 5.921901e-001 -8.057982e-001 0.000000e+000
      outer loop
         vertex 7.820770e+000 2.389872e+000 8.085692e+000
         vertex 7.512250e+000 2.149741e+000 1.000000e+001
         vertex 7.512250e+000 2.149741e+000 8.085692e+000
      endloop
   endfacet
   facet normal 5.000484e-001 -8.659974e-001 0.000000e+000
      outer loop
         vertex 7.512250e+000 2.149741e+000 8.085692e+000
         vertex 7.512250e+000 2.149741e+000 1.000000e+001
         vertex 7.168415e+000 1.963667e+000 1.000000e+001
      endloop
   endfacet
   facet normal 4.514834e-001 -8.922795e-001 0.000000e+000
      outer loop
         vertex 7.512250e+000 2.149741e+000 8.085692e+000
         vertex 7.168415e+000 1.963667e+000 1.000000e+001
         vertex 7.168415e+000 1.963667e+000 8.085692e+000
      endloop
   endfacet
   facet normal 3.506899e-001 -9.364916e-001 0.000000e+000
      outer loop
         vertex 7.168415e+000 1.963667e+000 8.085692e+000
         vertex 7.168415e+000 1.963667e+000 1.000000e+001
         vertex 6.798641e+000 1.836724e+000 1.000000e+001
      endloop
   endfacet
   facet normal 2.984614e-001 -9.544217e-001 0.000000e+000
      outer loop
         vertex 7.168415e+000 1.963667e+000 8.085692e+000
         vertex 6.798641e+000 1.836724e+000 1.000000e+001
         vertex 6.798641e+000 1.836724e+000 8.085692e+000
      endloop
   endfacet
   facet normal 1.917655e-001 -9.814408e-001 0.000000e+000
      outer loop
         vertex 6.798641e+000 1.836724e+000 8.085692e+000
         vertex 6.798641e+000 1.836724e+000 1.000000e+001
         vertex 6.413017e+000 1.772374e+000 1.000000e+001
      endloop
   endfacet
   facet normal 1.372982e-001 -9.905298e-001 0.000000e+000
      outer loop
         vertex 6.798641e+000 1.836724e+000 8.085692e+000
         vertex 6.413017e+000 1.772374e+000 1.000000e+001
         vertex 6.413017e+000 1.772374e+000 8.085692e+000
      endloop
   endfacet
   facet normal 2.761026e-002 -9.996188e-001 0.000000e+000
      outer loop
         vertex 6.413017e+000 1.772374e+000 8.085692e+000
         vertex 6.413017e+000 1.772374e+000 1.000000e+001
         vertex 6.022061e+000 1.772374e+000 1.000000e+001
      endloop
   endfacet
   facet normal -2.761026e-002 -9.996188e-001 0.000000e+000
      outer loop
         vertex 6.413017e+000 1.772374e+000 8.085692e+000
         vertex 6.022061e+000 1.772374e+000 1.000000e+001
         vertex 6.022061e+000 1.772374e+000 8.085692e+000
      endloop
   endfacet
   facet normal -1.372982e-001 -9.905298e-001 0.000000e+000
      outer loop
         vertex 6.022061e+000 1.772374e+000 8.085692e+000
         vertex 6.022061e+000 1.772374e+000 1.000000e+001
         vertex 5.636436e+000 1.836724e+000 1.000000e+001
      endloop
   endfacet
   facet normal -1.917655e-001 -9.814408e-001 0.000000e+000
      outer loop
         vertex 6.022061e+000 1.772374e+000 8.085692e+000
         vertex 5.636436e+000 1.836724e+000 1.000000e+001
         vertex 5.636436e+000 1.836724e+000 8.085692e+000
      endloop
   endfacet
   facet normal -2.984614e-001 -9.544217e-001 0.000000e+000
      outer loop
         vertex 5.636436e+000 1.836724e+000 8.085692e+000
         vertex 5.636436e+000 1.836724e+000 1.000000e+001
         vertex 5.266663e+000 1.963667e+000 1.000000e+001
      endloop
   endfacet
   facet normal -3.506899e-001 -9.364916e-001 0.000000e+000
      outer loop
         vertex 5.636436e+000 1.836724e+000 8.085692e+000
         vertex 5.266663e+000 1.963667e+000 1.000000e+001
         vertex 5.266663e+000 1.963667e+000 8.085692e+000
      endloop
   endfacet
   facet normal -4.514834e-001 -8.922795e-001 0.000000e+000
      outer loop
         vertex 5.266663e+000 1.963667e+000 8.085692e+000
         vertex 5.266663e+000 1.963667e+000 1.000000e+001
         vertex 4.922827e+000 2.149741e+000 1.000000e+001
      endloop
   endfacet
   facet normal -5.000484e-001 -8.659974e-001 0.000000e+000
      outer loop
         vertex 5.266663e+000 1.963667e+000 8.085692e+000
         vertex 4.922827e+000 2.149741e+000 1.000000e+001
         vertex 4.922827e+000 2.149741e+000 8.085692e+000
      endloop
   endfacet
   facet normal -5.921901e-001 -8.057982e-001 0.000000e+000
      outer loop
         vertex 4.922827e+000 2.149741e+000 8.085692e+000
         vertex 4.922827e+000 2.149741e+000 1.000000e+001
         vertex 4.614308e+000 2.389872e+000 1.000000e+001
      endloop
   endfacet
   facet normal -6.357669e-001 -7.718811e-001 0.000000e+000
      outer loop
         vertex 4.922827e+000 2.149741e+000 8.085692e+000
         vertex 4.614308e+000 2.389872e+000 1.000000e+001
         vertex 4.614308e+000 2.389872e+000 8.085692e+000
      endloop
   endfacet
   facet normal -7.167435e-001 -6.973369e-001 0.000000e+000
      outer loop
         vertex 4.614308e+000 2.389872e+000 8.085692e+000
         vertex 4.614308e+000 2.389872e+000 1.000000e+001
         vertex 4.349520e+000 2.677508e+000 1.000000e+001
      endloop
   endfacet
   facet normal -7.541434e-001 -6.567098e-001 0.000000e+000
      outer loop
         vertex 4.614308e+000 2.389872e+000 8.085692e+000
         vertex 4.349520e+000 2.677508e+000 1.000000e+001
         vertex 4.349520e+000 2.677508e+000 8.085692e+000
      endloop
   endfacet
   facet normal -8.217459e-001 -5.698540e-001 0.000000e+000
      outer loop
         vertex 4.349520e+000 2.677508e+000 8.085692e+000
         vertex 4.349520e+000 2.677508e+000 1.000000e+001
         vertex 4.135687e+000 3.004803e+000 1.000000e+001
      endloop
   endfacet
   facet normal -8.519487e-001 -5.236253e-001 0.000000e+000
      outer loop
         vertex 4.349520e+000 2.677508e+000 8.085692e+000
         vertex 4.135687e+000 3.004803e+000 1.000000e+001
         vertex 4.135687e+000 3.004803e+000 8.085692e+000
      endloop
   endfacet
   facet normal -9.043333e-001 -4.268270e-001 0.000000e+000
      outer loop
         vertex 4.135687e+000 3.004803e+000 8.085692e+000
         vertex 4.135687e+000 3.004803e+000 1.000000e+001
         vertex 3.978642e+000 3.362831e+000 1.000000e+001
      endloop
   endfacet
   facet normal -9.265151e-001 -3.762575e-001 0.000000e+000
      outer loop
         vertex 4.135687e+000 3.004803e+000 8.085692e+000
         vertex 3.978642e+000 3.362831e+000 1.000000e+001
         vertex 3.978642e+000 3.362831e+000 8.085692e+000
      endloop
   endfacet
   facet normal -9.622528e-001 -2.721573e-001 0.000000e+000
      outer loop
         vertex 3.978642e+000 3.362831e+000 8.085692e+000
         vertex 3.978642e+000 3.362831e+000 1.000000e+001
         vertex 3.882668e+000 3.741824e+000 1.000000e+001
      endloop
   endfacet
   facet normal -9.758086e-001 -2.186265e-001 0.000000e+000
      outer loop
         vertex 3.978642e+000 3.362831e+000 8.085692e+000
         vertex 3.882668e+000 3.741824e+000 1.000000e+001
         vertex 3.882668e+000 3.741824e+000 8.085692e+000
      endloop
   endfacet
   facet normal -9.939246e-001 -1.100638e-001 0.000000e+000
      outer loop
         vertex 3.882668e+000 3.741824e+000 8.085692e+000
         vertex 3.882668e+000 3.741824e+000 1.000000e+001
         vertex 3.850383e+000 4.131445e+000 1.000000e+001
      endloop
   endfacet
   facet normal -9.984846e-001 -5.503191e-002 0.000000e+000
      outer loop
         vertex 3.882668e+000 3.741824e+000 8.085692e+000
         vertex 3.850383e+000 4.131445e+000 1.000000e+001
         vertex 3.850383e+000 4.131445e+000 8.085692e+000
      endloop
   endfacet
   facet normal -9.984846e-001 5.503191e-002 0.000000e+000
      outer loop
         vertex 3.850383e+000 4.131445e+000 8.085692e+000
         vertex 3.850383e+000 4.131445e+000 1.000000e+001
         vertex 3.882668e+000 4.521066e+000 1.000000e+001
      endloop
   endfacet
   facet normal -9.939246e-001 1.100638e-001 0.000000e+000
      outer loop
         vertex 3.850383e+000 4.131445e+000 8.085692e+000
         vertex 3.882668e+000 4.521066e+000 1.000000e+001
         vertex 3.882668e+000 4.521066e+000 8.085692e+000
      endloop
   endfacet
   facet normal -9.758086e-001 2.186265e-001 0.000000e+000
      outer loop
         vertex 3.882668e+000 4.521066e+000 8.085692e+000
         vertex 3.882668e+000 4.521066e+000 1.000000e+001
         vertex 3.978642e+000 4.900059e+000 1.000000e+001
      endloop
   endfacet
   facet normal -9.622528e-001 2.721573e-001 0.000000e+000
      outer loop
         vertex 3.882668e+000 4.521066e+000 8.085692e+000
         vertex 3.978642e+000 4.900059e+000 1.000000e+001
         vertex 3.978642e+000 4.900059e+000 8.085692e+000
      endloop
   endfacet
   facet normal -9.265151e-001 3.762575e-001 0.000000e+000
      outer loop
         vertex 3.978642e+000 4.900059e+000 8.085692e+000
         vertex 3.978642e+000 4.900059e+000 1.000000e+001
         vertex 4.135687e+000 5.258087e+000 1.000000e+001
      endloop
   endfacet
   facet normal -9.043333e-001 4.268270e-001 0.000000e+000
      outer loop
         vertex 3.978642e+000 4.900059e+000 8.085692e+000
         vertex 4.135687e+000 5.258087e+000 1.000000e+001
         vertex 4.135687e+000 5.258087e+000 8.085692e+000
      endloop
   endfacet
   facet normal -8.519487e-001 5.236253e-001 0.000000e+000
      outer loop
         vertex 4.135687e+000 5.258087e+000 8.085692e+000
         vertex 4.135687e+000 5.258087e+000 1.000000e+001
         vertex 4.349520e+000 5.585382e+000 1.000000e+001
      endloop
   endfacet
   facet normal -8.217459e-001 5.698540e-001 0.000000e+000
      outer loop
         vertex 4.135687e+000 5.258087e+000 8.085692e+000
         vertex 4.349520e+000 5.585382e+000 1.000000e+001
         vertex 4.349520e+000 5.585382e+000 8.085692e+000
      endloop
   endfacet
   facet normal -7.541434e-001 6.567098e-001 0.000000e+000
      outer loop
         vertex 4.349520e+000 5.585382e+000 8.085692e+000
         vertex 4.349520e+000 5.585382e+000 1.000000e+001
         vertex 4.614308e+000 5.873018e+000 1.000000e+001
      endloop
   endfacet
   facet normal -7.167435e-001 6.973369e-001 0.000000e+000
      outer loop
         vertex 4.349520e+000 5.585382e+000 8.085692e+000
         vertex 4.614308e+000 5.873018e+000 1.000000e+001
         vertex 4.614308e+000 5.873018e+000 8.085692e+000
      endloop
   endfacet
   facet normal -6.357669e-001 7.718811e-001 0.000000e+000
      outer loop
         vertex 4.614308e+000 5.873018e+000 8.085692e+000
         vertex 4.614308e+000 5.873018e+000 1.000000e+001
         vertex 4.922827e+000 6.113149e+000 1.000000e+001
      endloop
   endfacet
   facet normal -5.921901e-001 8.057982e-001 0.000000e+000
      outer loop
         vertex 4.614308e+000 5.873018e+000 8.085692e+000
         vertex 4.922827e+000 6.113149e+000 1.000000e+001
         vertex 4.922827e+000 6.113149e+000 8.085692e+000
      endloop
   endfacet
   facet normal -5.000484e-001 8.659974e-001 0.000000e+000
      outer loop
         vertex 4.922827e+000 6.113149e+000 8.085692e+000
         vertex 4.922827e+000 6.113149e+000 1.000000e+001
         vertex 5.266663e+000 6.299223e+000 1.000000e+001
      endloop
   endfacet
   facet normal -4.514834e-001 8.922795e-001 0.000000e+000
      outer loop
         vertex 4.922827e+000 6.113149e+000 8.085692e+000
         vertex 5.266663e+000 6.299223e+000 1.000000e+001
         vertex 5.266663e+000 6.299223e+000 8.085692e+000
      endloop
   endfacet
   facet normal -3.506899e-001 9.364916e-001 0.000000e+000
      outer loop
         vertex 5.266663e+000 6.299223e+000 8.085692e+000
         vertex 5.266663e+000 6.299223e+000 1.000000e+001
         vertex 5.636436e+000 6.426167e+000 1.000000e+001
      endloop
   endfacet
   facet normal -2.984614e-001 9.544217e-001 0.000000e+000
      outer loop
         vertex 5.266663e+000 6.299223e+000 8.085692e+000
         vertex 5.636436e+000 6.426167e+000 1.000000e+001
         vertex 5.636436e+000 6.426167e+000 8.085692e+000
      endloop
   endfacet
   facet normal -1.917655e-001 9.814408e-001 0.000000e+000
      outer loop
         vertex 5.636436e+000 6.426167e+000 8.085692e+000
         vertex 5.636436e+000 6.426167e+000 1.000000e+001
         vertex 6.022061e+000 6.490516e+000 1.000000e+001
      endloop
   endfacet
   facet normal -1.372982e-001 9.905298e-001 0.000000e+000
      outer loop
         vertex 5.636436e+000 6.426167e+000 8.085692e+000
         vertex 6.022061e+000 6.490516e+000 1.000000e+001
         vertex 6.022061e+000 6.490516e+000 8.085692e+000
      endloop
   endfacet
   facet normal -2.761026e-002 9.996188e-001 0.000000e+000
      outer loop
         vertex 6.022061e+000 6.490516e+000 8.085692e+000
         vertex 6.022061e+000 6.490516e+000 1.000000e+001
         vertex 6.413017e+000 6.490516e+000 1.000000e+001
      endloop
   endfacet
   facet normal 2.761026e-002 9.996188e-001 0.000000e+000
      outer loop
         vertex 6.022061e+000 6.490516e+000 8.085692e+000
         vertex 6.413017e+000 6.490516e+000 1.000000e+001
         vertex 6.413017e+000 6.490516e+000 8.085692e+000
      endloop
   endfacet
   facet normal 1.372982e-001 9.905298e-001 0.000000e+000
      outer loop
         vertex 6.413017e+000 6.490516e+000 8.085692e+000
         vertex 6.413017e+000 6.490516e+000 1.000000e+001
         vertex 6.798641e+000 6.426167e+000 1.000000e+001
      endloop
   endfacet
   facet normal 1.917655e-001 9.814408e-001 0.000000e+000
      outer loop
         vertex 6.413017e+000 6.490516e+000 8.085692e+000
         vertex 6.798641e+000 6.426167e+000 1.000000e+001
         vertex 6.798641e+000 6.426167e+000 8.085692e+000
      endloop
   endfacet
   facet normal 2.984614e-001 9.544217e-001 0.000000e+000
      outer loop
         vertex 6.798641e+000 6.426167e+000 8.085692e+000
         vertex 6.798641e+000 6.426167e+000 1.000000e+001
         vertex 7.168415e+000 6.299223e+000 1.000000e+001
      endloop
   endfacet
   facet normal 3.506899e-001 9.364916e-001 0.000000e+000
      outer loop
         vertex 6.798641e+000 6.426167e+000 8.085692e+000
         vertex 7.168415e+000 6.299223e+000 1.000000e+001
         vertex 7.168415e+000 6.299223e+000 8.085692e+000
      endloop
   endfacet
   facet normal 4.514834e-001 8.922795e-001 0.000000e+000
      outer loop
         vertex 7.168415e+000 6.299223e+000 8.085692e+000
         vertex 7.168415e+000 6.299223e+000 1.000000e+001
         vertex 7.512250e+000 6.113149e+000 1.000000e+001
      endloop
   endfacet
   facet normal 5.000484e-001 8.659974e-001 0.000000e+000
      outer loop
         vertex 7.168415e+000 6.299223e+000 8.085692e+000
         vertex 7.512250e+000 6.113149e+000 1.000000e+001
         vertex 7.512250e+000 6.113149e+000 8.085692e+000
      endloop
   endfacet
   facet normal 5.921901e-001 8.057982e-001 0.000000e+000
      outer loop
         vertex 7.512250e+000 6.113149e+000 8.085692e+000
         vertex 7.512250e+000 6.113149e+000 1.000000e+001
         vertex 7.820770e+000 5.873018e+000 1.000000e+001
      endloop
   endfacet
   facet normal 6.357669e-001 7.718811e-001 0.000000e+000
      outer loop
         vertex 7.512250e+000 6.113149e+000 8.085692e+000
         vertex 7.820770e+000 5.873018e+000 1.000000e+001
         vertex 7.820770e+000 5.873018e+000 8.085692e+000
      endloop
   endfacet
   facet normal 7.167435e-001 6.973369e-001 0.000000e+000
      outer loop
         vertex 7.820770e+000 5.873018e+000 8.085692e+000
         vertex 7.820770e+000 5.873018e+000 1.000000e+001
         vertex 8.085557e+000 5.585382e+000 1.000000e+001
      endloop
   endfacet
   facet normal 7.541434e-001 6.567098e-001 0.000000e+000
      outer loop
         vertex 7.820770e+000 5.873018e+000 8.085692e+000
         vertex 8.085557e+000 5.585382e+000 1.000000e+001
         vertex 8.085557e+000 5.585382e+000 8.085692e+000
      endloop
   endfacet
   facet normal 8.217459e-001 5.698540e-001 0.000000e+000
      outer loop
         vertex 8.085557e+000 5.585382e+000 8.085692e+000
         vertex 8.085557e+000 5.585382e+000 1.000000e+001
         vertex 8.299391e+000 5.258087e+000 1.000000e+001
      endloop
   endfacet
   facet normal 8.519487e-001 5.236253e-001 0.000000e+000
      outer loop
         vertex 8.085557e+000 5.585382e+000 8.085692e+000
         vertex 8.299391e+000 5.258087e+000 1.000000e+001
         vertex 8.299391e+000 5.258087e+000 8.085692e+000
      endloop
   endfacet
   facet normal 9.043333e-001 4.268270e-001 0.000000e+000
      outer loop
         vertex 8.299391e+000 5.258087e+000 8.085692e+000
         vertex 8.299391e+000 5.258087e+000 1.000000e+001
         vertex 8.456436e+000 4.900059e+000 1.000000e+001
      endloop
   endfacet
   facet normal 9.265151e-001 3.762575e-001 0.000000e+000
      outer loop
         vertex 8.299391e+000 5.258087e+000 8.085692e+000
         vertex 8.456436e+000 4.900059e+000 1.000000e+001
         vertex 8.456436e+000 4.900059e+000 8.085692e+000
      endloop
   endfacet
   facet normal 9.622528e-001 2.721573e-001 0.000000e+000
      outer loop
         vertex 8.456436e+000 4.900059e+000 8.085692e+000
         vertex 8.456436e+000 4.900059e+000 1.000000e+001
         vertex 8.552410e+000 4.521066e+000 1.000000e+001
      endloop
   endfacet
   facet normal 9.758086e-001 2.186265e-001 0.000000e+000
      outer loop
         vertex 8.456436e+000 4.900059e+000 8.085692e+000
         vertex 8.552410e+000 4.521066e+000 1.000000e+001
         vertex 8.552410e+000 4.521066e+000 8.085692e+000
      endloop
   endfacet
   facet normal 9.939246e-001 1.100638e-001 0.000000e+000
      outer loop
         vertex 8.552410e+000 4.521066e+000 8.085692e+000
         vertex 8.552410e+000 4.521066e+000 1.000000e+001
         vertex 8.584695e+000 4.131445e+000 1.000000e+001
      endloop
   endfacet
   facet normal 0.000000e+000 0.000000e+000 1.000000e+000
      outer loop
         vertex 8.299391e+000 3.004803e+000 1.000000e+001
         vertex 8.456436e+000 3.362831e+000 1.000000e+001
         vertex 5.266663e+000 1.963667e+000 1.000000e+001
      endloop
   endfacet
   facet normal 0.000000e+000 0.000000e+000 1.000000e+000
      outer loop
         vertex 8.552410e+000 4.521066e+000 1.000000e+001
         vertex 8.456436e+000 4.900059e+000 1.000000e+001
         vertex 4.614308e+000 5.873018e+000 1.000000e+001
      endloop
   endfacet
   facet normal 0.000000e+000 0.000000e+000 1.000000e+000
      outer loop
         vertex 3.850383e+000 4.131445e+000 1.000000e+001
         vertex 3.882668e+000 3.741824e+000 1.000000e+001
         vertex 8.584695e+000 4.131445e+000 1.000000e+001
      endloop
   endfacet
   facet normal 0.000000e+000 0.000000e+000 1.000000e+000
      outer loop
         vertex 8.584695e+000 4.131445e+000 1.000000e+001
         vertex 3.882668e+000 3.741824e+000 1.000000e+001
         vertex 3.978642e+000 3.362831e+000 1.000000e+001
      endloop
   endfacet
   facet normal 0.000000e+000 0.000000e+000 1.000000e+000
      outer loop
         vertex 3.978642e+000 3.362831e+000 1.000000e+001
         vertex 4.135687e+000 3.004803e+000 1.000000e+001
         vertex 8.584695e+000 4.131445e+000 1.000000e+001
      endloop
   endfacet
   facet normal 0.000000e+000 0.000000e+000 1.000000e+000
      outer loop
         vertex 8.584695e+000 4.131445e+000 1.000000e+001
         vertex 4.135687e+000 3.004803e+000 1.000000e+001
         vertex 4.349520e+000 2.677508e+000 1.000000e+001
      endloop
   endfacet
   facet normal 0.000000e+000 0.000000e+000 1.000000e+000
      outer loop
         vertex 8.584695e+000 4.131445e+000 1.000000e+001
         vertex 4.349520e+000 2.677508e+000 1.000000e+001
         vertex 4.614308e+000 2.389872e+000 1.000000e+001
      endloop
   endfacet
   facet normal 0.000000e+000 0.000000e+000 1.000000e+000
      outer loop
         vertex 4.614308e+000 2.389872e+000 1.000000e+001
         vertex 4.922827e+000 2.149741e+000 1.000000e+001
         vertex 8.584695e+000 4.131445e+000 1.000000e+001
      endloop
   endfacet
   facet normal 0.000000e+000 0.000000e+000 1.000000e+000
      outer loop
         vertex 8.584695e+000 4.131445e+000 1.000000e+001
         vertex 4.922827e+000 2.149741e+000 1.000000e+001
         vertex 5.266663e+000 1.963667e+000 1.000000e+001
      endloop
   endfacet
   facet normal 0.000000e+000 0.000000e+000 1.000000e+000
      outer loop
         vertex 8.584695e+000 4.131445e+000 1.000000e+001
         vertex 5.266663e+000 1.963667e+000 1.000000e+001
         vertex 8.552410e+000 3.741824e+000 1.000000e+001
      endloop
   endfacet
   facet normal 0.000000e+000 0.000000e+000 1.000000e+000
      outer loop
         vertex 8.552410e+000 3.741824e+000 1.000000e+001
         vertex 5.266663e+000 1.963667e+000 1.000000e+001
         vertex 8.456436e+000 3.362831e+000 1.000000e+001
      endloop
   endfacet
   facet normal 0.000000e+000 0.000000e+000 1.000000e+000
      outer loop
         vertex 8.456436e+000 4.900059e+000 1.000000e+001
         vertex 8.299391e+000 5.258087e+000 1.000000e+001
         vertex 4.614308e+000 5.873018e+000 1.000000e+001
      endloop
   endfacet
   facet normal 0.000000e+000 0.000000e+000 1.000000e+000
      outer loop
         vertex 4.614308e+000 5.873018e+000 1.000000e+001
         vertex 8.299391e+000 5.258087e+000 1.000000e+001
         vertex 8.085557e+000 5.585382e+000 1.000000e+001
      endloop
   endfacet
   facet normal 0.000000e+000 0.000000e+000 1.000000e+000
      outer loop
         vertex 4.614308e+000 5.873018e+000 1.000000e+001
         vertex 8.085557e+000 5.585382e+000 1.000000e+001
         vertex 7.820770e+000 5.873018e+000 1.000000e+001
      endloop
   endfacet
   facet normal 0.000000e+000 0.000000e+000 1.000000e+000
      outer loop
         vertex 8.552410e+000 4.521066e+000 1.000000e+001
         vertex 4.614308e+000 5.873018e+000 1.000000e+001
         vertex 8.584695e+000 4.131445e+000 1.000000e+001
      endloop
   endfacet
   facet normal 0.000000e+000 0.000000e+000 1.000000e+000
      outer loop
         vertex 8.584695e+000 4.131445e+000 1.000000e+001
         vertex 4.614308e+000 5.873018e+000 1.000000e+001
         vertex 4.349520e+000 5.585382e+000 1.000000e+001
      endloop
   endfacet
   facet normal 0.000000e+000 0.000000e+000 1.000000e+000
      outer loop
         vertex 8.584695e+000 4.131445e+000 1.000000e+001
         vertex 4.349520e+000 5.585382e+000 1.000000e+001
         vertex 4.135687e+000 5.258087e+000 1.000000e+001
      endloop
   endfacet
   facet normal 0.000000e+000 0.000000e+000 1.000000e+000
      outer loop
         vertex 4.135687e+000 5.258087e+000 1.000000e+001
         vertex 3.978642e+000 4.900059e+000 1.000000e+001
         vertex 8.584695e+000 4.131445e+000 1.000000e+001
      endloop
   endfacet
   facet normal 0.000000e+000 0.000000e+000 1.000000e+000
      outer loop
         vertex 8.584695e+000 4.131445e+000 1.000000e+001
         vertex 3.978642e+000 4.900059e+000 1.000000e+001
         vertex 3.882668e+000 4.521066e+000 1.000000e+001
      endloop
   endfacet
   facet normal 0.000000e+000 0.000000e+000 1.000000e+000
      outer loop
         vertex 8.584695e+000 4.131445e+000 1.000000e+001
         vertex 3.882668e+000 4.521066e+000 1.000000e+001
         vertex 3.850383e+000 4.131445e+000 1.000000e+001
      endloop
   endfacet
   facet normal 0.000000e+000 0.000000e+000 1.000000e+000
      outer loop
         vertex 6.413017e+000 1.772374e+000 1.000000e+001
         vertex 6.798641e+000 1.836724e+000 1.000000e+001
         vertex 6.022061e+000 1.772374e+000 1.000000e+001
      endloop
   endfacet
   facet normal 0.000000e+000 0.000000e+000 1.000000e+000
      outer loop
         vertex 6.022061e+000 1.772374e+000 1.000000e+001
         vertex 6.798641e+000 1.836724e+000 1.000000e+001
         vertex 5.636436e+000 1.836724e+000 1.000000e+001
      endloop
   endfacet
   facet normal 0.000000e+000 0.000000e+000 1.000000e+000
      outer loop
         vertex 7.512250e+000 2.149741e+000 1.000000e+001
         vertex 7.820770e+000 2.389872e+000 1.000000e+001
         vertex 5.266663e+000 1.963667e+000 1.000000e+001
      endloop
   endfacet
   facet normal 0.000000e+000 0.000000e+000 1.000000e+000
      outer loop
         vertex 5.266663e+000 1.963667e+000 1.000000e+001
         vertex 7.820770e+000 2.389872e+000 1.000000e+001
         vertex 8.085557e+000 2.677508e+000 1.000000e+001
      endloop
   endfacet
   facet normal 0.000000e+000 0.000000e+000 1.000000e+000
      outer loop
         vertex 5.266663e+000 1.963667e+000 1.000000e+001
         vertex 8.085557e+000 2.677508e+000 1.000000e+001
         vertex 8.299391e+000 3.004803e+000 1.000000e+001
      endloop
   endfacet
   facet normal 0.000000e+000 0.000000e+000 1.000000e+000
      outer loop
         vertex 4.614308e+000 5.873018e+000 1.000000e+001
         vertex 5.636436e+000 6.426167e+000 1.000000e+001
         vertex 4.922827e+000 6.113149e+000 1.000000e+001
      endloop
   endfacet
   facet normal 0.000000e+000 0.000000e+000 1.000000e+000
      outer loop
         vertex 4.922827e+000 6.113149e+000 1.000000e+001
         vertex 5.636436e+000 6.426167e+000 1.000000e+001
         vertex 5.266663e+000 6.299223e+000 1.000000e+001
      endloop
   endfacet
   facet normal 0.000000e+000 0.000000e+000 1.000000e+000
      outer loop
         vertex 5.636436e+000 1.836724e+000 1.000000e+001
         vertex 6.798641e+000 1.836724e+000 1.000000e+001
         vertex 5.266663e+000 1.963667e+000 1.000000e+001
      endloop
   endfacet
   facet normal 0.000000e+000 0.000000e+000 1.000000e+000
      outer loop
         vertex 5.266663e+000 1.963667e+000 1.000000e+001
         vertex 6.798641e+000 1.836724e+000 1.000000e+001
         vertex 7.168415e+000 1.963667e+000 1.000000e+001
      endloop
   endfacet
   facet normal 0.000000e+000 0.000000e+000 1.000000e+000
      outer loop
         vertex 5.266663e+000 1.963667e+000 1.000000e+001
         vertex 7.168415e+000 1.963667e+000 1.000000e+001
         vertex 7.512250e+000 2.149741e+000 1.000000e+001
      endloop
   endfacet
   facet normal 0.000000e+000 0.000000e+000 1.000000e+000
      outer loop
         vertex 7.820770e+000 5.873018e+000 1.000000e+001
         vertex 7.512250e+000 6.113149e+000 1.000000e+001
         vertex 4.614308e+000 5.873018e+000 1.000000e+001
      endloop
   endfacet
   facet normal 0.000000e+000 0.000000e+000 1.000000e+000
      outer loop
         vertex 4.614308e+000 5.873018e+000 1.000000e+001
         vertex 7.512250e+000 6.113149e+000 1.000000e+001
         vertex 7.168415e+000 6.299223e+000 1.000000e+001
      endloop
   endfacet
   facet normal 0.000000e+000 0.000000e+000 1.000000e+000
      outer loop
         vertex 4.614308e+000 5.873018e+000 1.000000e+001
         vertex 7.168415e+000 6.299223e+000 1.000000e+001
         vertex 6.798641e+000 6.426167e+000 1.000000e+001
      endloop
   endfacet
   facet normal 0.000000e+000 0.000000e+000 1.000000e+000
      outer loop
         vertex 6.798641e+000 6.426167e+000 1.000000e+001
         vertex 6.413017e+000 6.490516e+000 1.000000e+001
         vertex 4.614308e+000 5.873018e+000 1.000000e+001
      endloop
   endfacet
   facet normal 0.000000e+000 0.000000e+000 1.000000e+000
      outer loop
         vertex 4.614308e+000 5.873018e+000 1.000000e+001
         vertex 6.413017e+000 6.490516e+000 1.000000e+001
         vertex 6.022061e+000 6.490516e+000 1.000000e+001
      endloop
   endfacet
   facet normal 0.000000e+000 0.000000e+000 1.000000e+000
      outer loop
         vertex 4.614308e+000 5.873018e+000 1.000000e+001
         vertex 6.022061e+000 6.490516e+000 1.000000e+001
         vertex 5.636436e+000 6.426167e+000 1.000000e+001
      endloop
   endfacet
endsolid