solid 0_555
   facet normal -1.000000e+000 0.000000e+000 0.000000e+000
      outer loop
         vertex 0.000000e+000 1.000000e+001 1.000000e+001
         vertex 0.000000e+000 1.000000e+001 0.000000e+000
         vertex 0.000000e+000 0.000000e+000 1.000000e+001
      endloop
   endfacet
   facet normal -1.000000e+000 0.000000e+000 0.000000e+000
      outer loop
         vertex 0.000000e+000 0.000000e+000 1.000000e+001
         vertex 0.000000e+000 1.000000e+001 0.000000e+000
         vertex 0.000000e+000 0.000000e+000 0.000000e+000
      endloop
   endfacet
   facet normal 0.000000e+000 0.000000e+000 1.000000e+000
      outer loop
         vertex 7.709516e+000 4.197435e+000 1.000000e+001
         vertex 7.610697e+000 3.753822e+000 1.000000e+001
         vertex 1.000000e+001 0.000000e+000 1.000000e+001
      endloop
   endfacet
   facet normal 0.000000e+000 0.000000e+000 1.000000e+000
      outer loop
         vertex 1.000000e+001 0.000000e+000 1.000000e+001
         vertex 7.610697e+000 3.753822e+000 1.000000e+001
         vertex 7.448340e+000 3.329325e+000 1.000000e+001
      endloop
   endfacet
   facet normal 0.000000e+000 0.000000e+000 1.000000e+000
      outer loop
         vertex 7.448340e+000 5.972094e+000 1.000000e+001
         vertex 7.610697e+000 5.547596e+000 1.000000e+001
         vertex 1.000000e+001 1.000000e+001 1.000000e+001
      endloop
   endfacet
   facet normal 0.000000e+000 0.000000e+000 1.000000e+000
      outer loop
         vertex 1.000000e+001 1.000000e+001 1.000000e+001
         vertex 7.610697e+000 5.547596e+000 1.000000e+001
         vertex 7.709516e+000 5.103983e+000 1.000000e+001
      endloop
   endfacet
   facet normal 0.000000e+000 0.000000e+000 1.000000e+000
      outer loop
         vertex 1.000000e+001 1.000000e+001 1.000000e+001
         vertex 7.709516e+000 5.103983e+000 1.000000e+001
         vertex 1.000000e+001 0.000000e+000 1.000000e+001
      endloop
   endfacet
   facet normal 0.000000e+000 0.000000e+000 1.000000e+000
      outer loop
         vertex 1.000000e+001 0.000000e+000 1.000000e+001
         vertex 7.709516e+000 5.103983e+000 1.000000e+001
         vertex 7.742691e+000 4.650709e+000 1.000000e+001
      endloop
   endfacet
   facet normal 0.000000e+000 0.000000e+000 1.000000e+000
      outer loop
         vertex 1.000000e+001 0.000000e+000 1.000000e+001
         vertex 7.742691e+000 4.650709e+000 1.000000e+001
         vertex 7.709516e+000 4.197435e+000 1.000000e+001
      endloop
   endfacet
   facet normal 0.000000e+000 0.000000e+000 1.000000e+000
      outer loop
         vertex 7.448340e+000 3.329325e+000 1.000000e+001
         vertex 7.225906e+000 2.932991e+000 1.000000e+001
         vertex 1.000000e+001 0.000000e+000 1.000000e+001
      endloop
   endfacet
   facet normal 0.000000e+000 0.000000e+000 1.000000e+000
      outer loop
         vertex 1.000000e+001 0.000000e+000 1.000000e+001
         vertex 7.225906e+000 2.932991e+000 1.000000e+001
         vertex 6.948136e+000 2.573266e+000 1.000000e+001
      endloop
   endfacet
   facet normal 0.000000e+000 0.000000e+000 1.000000e+000
      outer loop
         vertex 1.000000e+001 0.000000e+000 1.000000e+001
         vertex 6.948136e+000 2.573266e+000 1.000000e+001
         vertex 6.620950e+000 2.257819e+000 1.000000e+001
      endloop
   endfacet
   facet normal 0.000000e+000 0.000000e+000 1.000000e+000
      outer loop
         vertex 0.000000e+000 0.000000e+000 1.000000e+001
         vertex 3.624406e+000 1.704329e+000 1.000000e+001
         vertex 3.206121e+000 1.882081e+000 1.000000e+001
      endloop
   endfacet
   facet normal 0.000000e+000 0.000000e+000 1.000000e+000
      outer loop
         vertex 3.206121e+000 1.882081e+000 1.000000e+001
         vertex 2.818175e+000 2.118841e+000 1.000000e+001
         vertex 0.000000e+000 0.000000e+000 1.000000e+001
      endloop
   endfacet
   facet normal 0.000000e+000 0.000000e+000 1.000000e+000
      outer loop
         vertex 0.000000e+000 0.000000e+000 1.000000e+001
         vertex 2.818175e+000 2.118841e+000 1.000000e+001
         vertex 2.468835e+000 2.409564e+000 1.000000e+001
      endloop
   endfacet
   facet normal 0.000000e+000 0.000000e+000 1.000000e+000
      outer loop
         vertex 0.000000e+000 0.000000e+000 1.000000e+001
         vertex 2.468835e+000 2.409564e+000 1.000000e+001
         vertex 2.165548e+000 2.748052e+000 1.000000e+001
      endloop
   endfacet
   facet normal 0.000000e+000 0.000000e+000 1.000000e+000
      outer loop
         vertex 6.620950e+000 2.257819e+000 1.000000e+001
         vertex 6.251321e+000 1.993372e+000 1.000000e+001
         vertex 1.000000e+001 0.000000e+000 1.000000e+001
      endloop
   endfacet
   facet normal 0.000000e+000 0.000000e+000 1.000000e+000
      outer loop
         vertex 1.000000e+001 0.000000e+000 1.000000e+001
         vertex 6.251321e+000 1.993372e+000 1.000000e+001
         vertex 5.847127e+000 1.785562e+000 1.000000e+001
      endloop
   endfacet
   facet normal 0.000000e+000 0.000000e+000 1.000000e+000
      outer loop
         vertex 1.000000e+001 0.000000e+000 1.000000e+001
         vertex 5.847127e+000 1.785562e+000 1.000000e+001
         vertex 5.416983e+000 1.638817e+000 1.000000e+001
      endloop
   endfacet
   facet normal 0.000000e+000 0.000000e+000 1.000000e+000
      outer loop
         vertex 5.416983e+000 1.638817e+000 1.000000e+001
         vertex 4.970057e+000 1.556265e+000 1.000000e+001
         vertex 1.000000e+001 0.000000e+000 1.000000e+001
      endloop
   endfacet
   facet normal 0.000000e+000 0.000000e+000 1.000000e+000
      outer loop
         vertex 1.000000e+001 0.000000e+000 1.000000e+001
         vertex 4.970057e+000 1.556265e+000 1.000000e+001
         vertex 4.515874e+000 1.539667e+000 1.000000e+001
      endloop
   endfacet
   facet normal 0.000000e+000 0.000000e+000 1.000000e+000
      outer loop
         vertex 1.000000e+001 0.000000e+000 1.000000e+001
         vertex 4.515874e+000 1.539667e+000 1.000000e+001
         vertex 0.000000e+000 0.000000e+000 1.000000e+001
      endloop
   endfacet
   facet normal 0.000000e+000 0.000000e+000 1.000000e+000
      outer loop
         vertex 0.000000e+000 0.000000e+000 1.000000e+001
         vertex 4.515874e+000 1.539667e+000 1.000000e+001
         vertex 4.064114e+000 1.589374e+000 1.000000e+001
      endloop
   endfacet
   facet normal 0.000000e+000 0.000000e+000 1.000000e+000
      outer loop
         vertex 0.000000e+000 0.000000e+000 1.000000e+001
         vertex 4.064114e+000 1.589374e+000 1.000000e+001
         vertex 3.624406e+000 1.704329e+000 1.000000e+001
      endloop
   endfacet
   facet normal 0.000000e+000 0.000000e+000 1.000000e+000
      outer loop
         vertex 3.624406e+000 7.597090e+000 1.000000e+001
         vertex 4.064114e+000 7.712044e+000 1.000000e+001
         vertex 0.000000e+000 1.000000e+001 1.000000e+001
      endloop
   endfacet
   facet normal 0.000000e+000 0.000000e+000 1.000000e+000
      outer loop
         vertex 0.000000e+000 1.000000e+001 1.000000e+001
         vertex 4.064114e+000 7.712044e+000 1.000000e+001
         vertex 4.515874e+000 7.761752e+000 1.000000e+001
      endloop
   endfacet
   facet normal 0.000000e+000 0.000000e+000 1.000000e+000
      outer loop
         vertex 0.000000e+000 1.000000e+001 1.000000e+001
         vertex 4.515874e+000 7.761752e+000 1.000000e+001
         vertex 1.000000e+001 1.000000e+001 1.000000e+001
      endloop
   endfacet
   facet normal 0.000000e+000 0.000000e+000 1.000000e+000
      outer loop
         vertex 1.000000e+001 1.000000e+001 1.000000e+001
         vertex 4.515874e+000 7.761752e+000 1.000000e+001
         vertex 4.970057e+000 7.745153e+000 1.000000e+001
      endloop
   endfacet
   facet normal 0.000000e+000 0.000000e+000 1.000000e+000
      outer loop
         vertex 1.000000e+001 1.000000e+001 1.000000e+001
         vertex 4.970057e+000 7.745153e+000 1.000000e+001
         vertex 5.416983e+000 7.662602e+000 1.000000e+001
      endloop
   endfacet
   facet normal 0.000000e+000 0.000000e+000 1.000000e+000
      outer loop
         vertex 2.165548e+000 2.748052e+000 1.000000e+001
         vertex 1.914777e+000 3.127093e+000 1.000000e+001
         vertex 0.000000e+000 0.000000e+000 1.000000e+001
      endloop
   endfacet
   facet normal 0.000000e+000 0.000000e+000 1.000000e+000
      outer loop
         vertex 0.000000e+000 0.000000e+000 1.000000e+001
         vertex 1.914777e+000 3.127093e+000 1.000000e+001
         vertex 1.721867e+000 3.538607e+000 1.000000e+001
      endloop
   endfacet
   facet normal 0.000000e+000 0.000000e+000 1.000000e+000
      outer loop
         vertex 0.000000e+000 0.000000e+000 1.000000e+001
         vertex 1.721867e+000 3.538607e+000 1.000000e+001
         vertex 1.590930e+000 3.973823e+000 1.000000e+001
      endloop
   endfacet
   facet normal 0.000000e+000 0.000000e+000 1.000000e+000
      outer loop
         vertex 1.721867e+000 5.762812e+000 1.000000e+001
         vertex 1.914777e+000 6.174326e+000 1.000000e+001
         vertex 0.000000e+000 1.000000e+001 1.000000e+001
      endloop
   endfacet
   facet normal 0.000000e+000 0.000000e+000 1.000000e+000
      outer loop
         vertex 0.000000e+000 1.000000e+001 1.000000e+001
         vertex 1.914777e+000 6.174326e+000 1.000000e+001
         vertex 2.165548e+000 6.553366e+000 1.000000e+001
      endloop
   endfacet
   facet normal 0.000000e+000 0.000000e+000 1.000000e+000
      outer loop
         vertex 0.000000e+000 1.000000e+001 1.000000e+001
         vertex 2.165548e+000 6.553366e+000 1.000000e+001
         vertex 2.468835e+000 6.891855e+000 1.000000e+001
      endloop
   endfacet
   facet normal 0.000000e+000 0.000000e+000 1.000000e+000
      outer loop
         vertex 2.468835e+000 6.891855e+000 1.000000e+001
         vertex 2.818175e+000 7.182578e+000 1.000000e+001
         vertex 0.000000e+000 1.000000e+001 1.000000e+001
      endloop
   endfacet
   facet normal 0.000000e+000 0.000000e+000 1.000000e+000
      outer loop
         vertex 0.000000e+000 1.000000e+001 1.000000e+001
         vertex 2.818175e+000 7.182578e+000 1.000000e+001
         vertex 3.206121e+000 7.419338e+000 1.000000e+001
      endloop
   endfacet
   facet normal 0.000000e+000 0.000000e+000 1.000000e+000
      outer loop
         vertex 0.000000e+000 1.000000e+001 1.000000e+001
         vertex 3.206121e+000 7.419338e+000 1.000000e+001
         vertex 3.624406e+000 7.597090e+000 1.000000e+001
      endloop
   endfacet
   facet normal 0.000000e+000 0.000000e+000 1.000000e+000
      outer loop
         vertex 5.416983e+000 7.662602e+000 1.000000e+001
         vertex 5.847127e+000 7.515858e+000 1.000000e+001
         vertex 1.000000e+001 1.000000e+001 1.000000e+001
      endloop
   endfacet
   facet normal 0.000000e+000 0.000000e+000 1.000000e+000
      outer loop
         vertex 1.000000e+001 1.000000e+001 1.000000e+001
         vertex 5.847127e+000 7.515858e+000 1.000000e+001
         vertex 6.251321e+000 7.308047e+000 1.000000e+001
      endloop
   endfacet
   facet normal 0.000000e+000 0.000000e+000 1.000000e+000
      outer loop
         vertex 1.000000e+001 1.000000e+001 1.000000e+001
         vertex 6.251321e+000 7.308047e+000 1.000000e+001
         vertex 6.620950e+000 7.043600e+000 1.000000e+001
      endloop
   endfacet
   facet normal 0.000000e+000 0.000000e+000 1.000000e+000
      outer loop
         vertex 6.620950e+000 7.043600e+000 1.000000e+001
         vertex 6.948136e+000 6.728153e+000 1.000000e+001
         vertex 1.000000e+001 1.000000e+001 1.000000e+001
      endloop
   endfacet
   facet normal 0.000000e+000 0.000000e+000 1.000000e+000
      outer loop
         vertex 1.000000e+001 1.000000e+001 1.000000e+001
         vertex 6.948136e+000 6.728153e+000 1.000000e+001
         vertex 7.225906e+000 6.368428e+000 1.000000e+001
      endloop
   endfacet
   facet normal 0.000000e+000 0.000000e+000 1.000000e+000
      outer loop
         vertex 1.000000e+001 1.000000e+001 1.000000e+001
         vertex 7.225906e+000 6.368428e+000 1.000000e+001
         vertex 7.448340e+000 5.972094e+000 1.000000e+001
      endloop
   endfacet
   facet normal 0.000000e+000 0.000000e+000 1.000000e+000
      outer loop
         vertex 1.590930e+000 3.973823e+000 1.000000e+001
         vertex 1.524756e+000 4.423466e+000 1.000000e+001
         vertex 0.000000e+000 0.000000e+000 1.000000e+001
      endloop
   endfacet
   facet normal 0.000000e+000 0.000000e+000 1.000000e+000
      outer loop
         vertex 0.000000e+000 0.000000e+000 1.000000e+001
         vertex 1.524756e+000 4.423466e+000 1.000000e+001
         vertex 1.524756e+000 4.877953e+000 1.000000e+001
      endloop
   endfacet
   facet normal 0.000000e+000 0.000000e+000 1.000000e+000
      outer loop
         vertex 0.000000e+000 0.000000e+000 1.000000e+001
         vertex 1.524756e+000 4.877953e+000 1.000000e+001
         vertex 0.000000e+000 1.000000e+001 1.000000e+001
      endloop
   endfacet
   facet normal 0.000000e+000 0.000000e+000 1.000000e+000
      outer loop
         vertex 0.000000e+000 1.000000e+001 1.000000e+001
         vertex 1.524756e+000 4.877953e+000 1.000000e+001
         vertex 1.590930e+000 5.327595e+000 1.000000e+001
      endloop
   endfacet
   facet normal 0.000000e+000 0.000000e+000 1.000000e+000
      outer loop
         vertex 0.000000e+000 1.000000e+001 1.000000e+001
         vertex 1.590930e+000 5.327595e+000 1.000000e+001
         vertex 1.721867e+000 5.762812e+000 1.000000e+001
      endloop
   endfacet
   facet normal 1.000000e+000 0.000000e+000 0.000000e+000
      outer loop
         vertex 1.000000e+001 1.000000e+001 0.000000e+000
         vertex 1.000000e+001 1.000000e+001 1.000000e+001
         vertex 1.000000e+001 0.000000e+000 0.000000e+000
      endloop
   endfacet
   facet normal 1.000000e+000 0.000000e+000 0.000000e+000
      outer loop
         vertex 1.000000e+001 0.000000e+000 0.000000e+000
         vertex 1.000000e+001 1.000000e+001 1.000000e+001
         vertex 1.000000e+001 0.000000e+000 1.000000e+001
      endloop
   endfacet
   facet normal 0.000000e+000 0.000000e+000 -1.000000e+000
      outer loop
         vertex 0.000000e+000 1.000000e+001 0.000000e+000
         vertex 1.000000e+001 1.000000e+001 0.000000e+000
         vertex 0.000000e+000 0.000000e+000 0.000000e+000
      endloop
   endfacet
   facet normal 0.000000e+000 0.000000e+000 -1.000000e+000
      outer loop
         vertex 0.000000e+000 0.000000e+000 0.000000e+000
         vertex 1.000000e+001 1.000000e+001 0.000000e+000
         vertex 1.000000e+001 0.000000e+000 0.000000e+000
      endloop
   endfacet
   facet normal 0.000000e+000 1.000000e+000 0.000000e+000
      outer loop
         vertex 1.000000e+001 1.000000e+001 1.000000e+001
         vertex 1.000000e+001 1.000000e+001 0.000000e+000
         vertex 0.000000e+000 1.000000e+001 1.000000e+001
      endloop
   endfacet
   facet normal 0.000000e+000 1.000000e+000 0.000000e+000
      outer loop
         vertex 0.000000e+000 1.000000e+001 1.000000e+001
         vertex 1.000000e+001 1.000000e+001 0.000000e+000
         vertex 0.000000e+000 1.000000e+001 0.000000e+000
      endloop
   endfacet
   facet normal 0.000000e+000 -1.000000e+000 0.000000e+000
      outer loop
         vertex 1.000000e+001 0.000000e+000 0.000000e+000
         vertex 1.000000e+001 0.000000e+000 1.000000e+001
         vertex 0.000000e+000 0.000000e+000 0.000000e+000
      endloop
   endfacet
   facet normal 0.000000e+000 -1.000000e+000 0.000000e+000
      outer loop
         vertex 0.000000e+000 0.000000e+000 0.000000e+000
         vertex 1.000000e+001 0.000000e+000 1.000000e+001
         vertex 0.000000e+000 0.000000e+000 1.000000e+001
      endloop
   endfacet
   facet normal -9.988160e-001 4.864907e-002 0.000000e+000
      outer loop
         vertex 7.709516e+000 4.197435e+000 3.300175e+000
         vertex 7.742691e+000 4.650709e+000 1.000000e+001
         vertex 7.742691e+000 4.650709e+000 3.300175e+000
      endloop
   endfacet
   facet normal -9.988160e-001 -4.864907e-002 0.000000e+000
      outer loop
         vertex 7.742691e+000 4.650709e+000 3.300175e+000
         vertex 7.742691e+000 4.650709e+000 1.000000e+001
         vertex 7.709516e+000 5.103983e+000 1.000000e+001
      endloop
   endfacet
   facet normal -9.952553e-001 -9.729814e-002 0.000000e+000
      outer loop
         vertex 7.742691e+000 4.650709e+000 3.300175e+000
         vertex 7.709516e+000 5.103983e+000 1.000000e+001
         vertex 7.709516e+000 5.103983e+000 3.300175e+000
      endloop
   endfacet
   facet normal -9.810886e-001 -1.935594e-001 0.000000e+000
      outer loop
         vertex 7.709516e+000 5.103983e+000 3.300175e+000
         vertex 7.709516e+000 5.103983e+000 1.000000e+001
         vertex 7.610697e+000 5.547596e+000 1.000000e+001
      endloop
   endfacet
   facet normal -9.704825e-001 -2.411716e-001 0.000000e+000
      outer loop
         vertex 7.709516e+000 5.103983e+000 3.300175e+000
         vertex 7.610697e+000 5.547596e+000 1.000000e+001
         vertex 7.610697e+000 5.547596e+000 3.300175e+000
      endloop
   endfacet
   facet normal -9.424510e-001 -3.343444e-001 0.000000e+000
      outer loop
         vertex 7.610697e+000 5.547596e+000 3.300175e+000
         vertex 7.610697e+000 5.547596e+000 1.000000e+001
         vertex 7.448340e+000 5.972094e+000 1.000000e+001
      endloop
   endfacet
   facet normal -9.250256e-001 -3.799049e-001 0.000000e+000
      outer loop
         vertex 7.610697e+000 5.547596e+000 3.300175e+000
         vertex 7.448340e+000 5.972094e+000 1.000000e+001
         vertex 7.448340e+000 5.972094e+000 3.300175e+000
      endloop
   endfacet
   facet normal -8.837267e-001 -4.680033e-001 0.000000e+000
      outer loop
         vertex 7.448340e+000 5.972094e+000 3.300175e+000
         vertex 7.448340e+000 5.972094e+000 1.000000e+001
         vertex 7.225906e+000 6.368428e+000 1.000000e+001
      endloop
   endfacet
   facet normal -8.598533e-001 -5.105412e-001 0.000000e+000
      outer loop
         vertex 7.448340e+000 5.972094e+000 3.300175e+000
         vertex 7.225906e+000 6.368428e+000 1.000000e+001
         vertex 7.225906e+000 6.368428e+000 3.300175e+000
      endloop
   endfacet
   facet normal -8.061674e-001 -5.916876e-001 0.000000e+000
      outer loop
         vertex 7.225906e+000 6.368428e+000 3.300175e+000
         vertex 7.225906e+000 6.368428e+000 1.000000e+001
         vertex 6.948136e+000 6.728153e+000 1.000000e+001
      endloop
   endfacet
   facet normal -7.763547e-001 -6.302962e-001 0.000000e+000
      outer loop
         vertex 7.225906e+000 6.368428e+000 3.300175e+000
         vertex 6.948136e+000 6.728153e+000 1.000000e+001
         vertex 6.948136e+000 6.728153e+000 3.300175e+000
      endloop
   endfacet
   facet normal -7.114259e-001 -7.027611e-001 0.000000e+000
      outer loop
         vertex 6.948136e+000 6.728153e+000 3.300175e+000
         vertex 6.948136e+000 6.728153e+000 1.000000e+001
         vertex 6.620950e+000 7.043600e+000 1.000000e+001
      endloop
   endfacet
   facet normal -6.763095e-001 -7.366175e-001 0.000000e+000
      outer loop
         vertex 6.948136e+000 6.728153e+000 3.300175e+000
         vertex 6.620950e+000 7.043600e+000 1.000000e+001
         vertex 6.620950e+000 7.043600e+000 3.300175e+000
      endloop
   endfacet
   facet normal -6.015216e-001 -7.988565e-001 0.000000e+000
      outer loop
         vertex 6.620950e+000 7.043600e+000 3.300175e+000
         vertex 6.620950e+000 7.043600e+000 1.000000e+001
         vertex 6.251321e+000 7.308047e+000 1.000000e+001
      endloop
   endfacet
   facet normal -5.618500e-001 -8.272392e-001 0.000000e+000
      outer loop
         vertex 6.620950e+000 7.043600e+000 3.300175e+000
         vertex 6.251321e+000 7.308047e+000 1.000000e+001
         vertex 6.251321e+000 7.308047e+000 3.300175e+000
      endloop
   endfacet
   facet normal -4.787970e-001 -8.779256e-001 0.000000e+000
      outer loop
         vertex 6.251321e+000 7.308047e+000 3.300175e+000
         vertex 6.251321e+000 7.308047e+000 1.000000e+001
         vertex 5.847127e+000 7.515858e+000 1.000000e+001
      endloop
   endfacet
   facet normal -4.354156e-001 -9.002295e-001 0.000000e+000
      outer loop
         vertex 6.251321e+000 7.308047e+000 3.300175e+000
         vertex 5.847127e+000 7.515858e+000 1.000000e+001
         vertex 5.847127e+000 7.515858e+000 3.300175e+000
      endloop
   endfacet
   facet normal -3.458677e-001 -9.382833e-001 0.000000e+000
      outer loop
         vertex 5.847127e+000 7.515858e+000 3.300175e+000
         vertex 5.847127e+000 7.515858e+000 1.000000e+001
         vertex 5.416983e+000 7.662602e+000 1.000000e+001
      endloop
   endfacet
   facet normal -2.997011e-001 -9.540332e-001 0.000000e+000
      outer loop
         vertex 5.847127e+000 7.515858e+000 3.300175e+000
         vertex 5.416983e+000 7.662602e+000 1.000000e+001
         vertex 5.416983e+000 7.662602e+000 3.300175e+000
      endloop
   endfacet
   facet normal -2.055667e-001 -9.786431e-001 0.000000e+000
      outer loop
         vertex 5.416983e+000 7.662602e+000 3.300175e+000
         vertex 5.416983e+000 7.662602e+000 1.000000e+001
         vertex 4.970057e+000 7.745153e+000 1.000000e+001
      endloop
   endfacet
   facet normal -1.575989e-001 -9.875032e-001 0.000000e+000
      outer loop
         vertex 5.416983e+000 7.662602e+000 3.300175e+000
         vertex 4.970057e+000 7.745153e+000 1.000000e+001
         vertex 4.970057e+000 7.745153e+000 3.300175e+000
      endloop
   endfacet
   facet normal -6.088449e-002 -9.981448e-001 0.000000e+000
      outer loop
         vertex 4.970057e+000 7.745153e+000 3.300175e+000
         vertex 4.970057e+000 7.745153e+000 1.000000e+001
         vertex 4.515874e+000 7.761752e+000 1.000000e+001
      endloop
   endfacet
   facet normal -1.213783e-002 -9.999263e-001 0.000000e+000
      outer loop
         vertex 4.970057e+000 7.745153e+000 3.300175e+000
         vertex 4.515874e+000 7.761752e+000 1.000000e+001
         vertex 4.515874e+000 7.761752e+000 3.300175e+000
      endloop
   endfacet
   facet normal 8.509539e-002 -9.963728e-001 0.000000e+000
      outer loop
         vertex 4.515874e+000 7.761752e+000 3.300175e+000
         vertex 4.515874e+000 7.761752e+000 1.000000e+001
         vertex 4.064114e+000 7.712044e+000 1.000000e+001
      endloop
   endfacet
   facet normal 1.335820e-001 -9.910377e-001 0.000000e+000
      outer loop
         vertex 4.515874e+000 7.761752e+000 3.300175e+000
         vertex 4.064114e+000 7.712044e+000 1.000000e+001
         vertex 4.064114e+000 7.712044e+000 3.300175e+000
      endloop
   endfacet
   facet normal 2.292616e-001 -9.733648e-001 0.000000e+000
      outer loop
         vertex 4.064114e+000 7.712044e+000 3.300175e+000
         vertex 4.064114e+000 7.712044e+000 1.000000e+001
         vertex 3.624406e+000 7.597090e+000 1.000000e+001
      endloop
   endfacet
   facet normal 2.764547e-001 -9.610270e-001 0.000000e+000
      outer loop
         vertex 4.064114e+000 7.712044e+000 3.300175e+000
         vertex 3.624406e+000 7.597090e+000 1.000000e+001
         vertex 3.624406e+000 7.597090e+000 3.300175e+000
      endloop
   endfacet
   facet normal 3.685415e-001 -9.296113e-001 0.000000e+000
      outer loop
         vertex 3.624406e+000 7.597090e+000 3.300175e+000
         vertex 3.624406e+000 7.597090e+000 1.000000e+001
         vertex 3.206121e+000 7.419338e+000 1.000000e+001
      endloop
   endfacet
   facet normal 4.134352e-001 -9.105335e-001 0.000000e+000
      outer loop
         vertex 3.624406e+000 7.597090e+000 3.300175e+000
         vertex 3.206121e+000 7.419338e+000 1.000000e+001
         vertex 3.206121e+000 7.419338e+000 3.300175e+000
      endloop
   endfacet
   facet normal 4.999666e-001 -8.660447e-001 0.000000e+000
      outer loop
         vertex 3.206121e+000 7.419338e+000 3.300175e+000
         vertex 3.206121e+000 7.419338e+000 1.000000e+001
         vertex 2.818175e+000 7.182578e+000 1.000000e+001
      endloop
   endfacet
   facet normal 5.416042e-001 -8.406336e-001 0.000000e+000
      outer loop
         vertex 3.206121e+000 7.419338e+000 3.300175e+000
         vertex 2.818175e+000 7.182578e+000 1.000000e+001
         vertex 2.818175e+000 7.182578e+000 3.300175e+000
      endloop
   endfacet
   facet normal 6.207358e-001 -7.840198e-001 0.000000e+000
      outer loop
         vertex 2.818175e+000 7.182578e+000 3.300175e+000
         vertex 2.818175e+000 7.182578e+000 1.000000e+001
         vertex 2.468835e+000 6.891855e+000 1.000000e+001
      endloop
   endfacet
   facet normal 6.582298e-001 -7.528171e-001 0.000000e+000
      outer loop
         vertex 2.818175e+000 7.182578e+000 3.300175e+000
         vertex 2.468835e+000 6.891855e+000 1.000000e+001
         vertex 2.468835e+000 6.891855e+000 3.300175e+000
      endloop
   endfacet
   facet normal 7.282751e-001 -6.852850e-001 0.000000e+000
      outer loop
         vertex 2.468835e+000 6.891855e+000 3.300175e+000
         vertex 2.468835e+000 6.891855e+000 1.000000e+001
         vertex 2.165548e+000 6.553366e+000 1.000000e+001
      endloop
   endfacet
   facet normal 7.608263e-001 -6.489556e-001 0.000000e+000
      outer loop
         vertex 2.468835e+000 6.891855e+000 3.300175e+000
         vertex 2.165548e+000 6.553366e+000 1.000000e+001
         vertex 2.165548e+000 6.553366e+000 3.300175e+000
      endloop
   endfacet
   facet normal 8.202924e-001 -5.719445e-001 0.000000e+000
      outer loop
         vertex 2.165548e+000 6.553366e+000 3.300175e+000
         vertex 2.165548e+000 6.553366e+000 1.000000e+001
         vertex 1.914777e+000 6.174326e+000 1.000000e+001
      endloop
   endfacet
   facet normal 8.472071e-001 -5.312628e-001 0.000000e+000
      outer loop
         vertex 2.165548e+000 6.553366e+000 3.300175e+000
         vertex 1.914777e+000 6.174326e+000 1.000000e+001
         vertex 1.914777e+000 6.174326e+000 3.300175e+000
      endloop
   endfacet
   facet normal 8.948265e-001 -4.464140e-001 0.000000e+000
      outer loop
         vertex 1.914777e+000 6.174326e+000 3.300175e+000
         vertex 1.914777e+000 6.174326e+000 1.000000e+001
         vertex 1.721867e+000 5.762812e+000 1.000000e+001
      endloop
   endfacet
   facet normal 9.155312e-001 -4.022469e-001 0.000000e+000
      outer loop
         vertex 1.914777e+000 6.174326e+000 3.300175e+000
         vertex 1.721867e+000 5.762812e+000 1.000000e+001
         vertex 1.721867e+000 5.762812e+000 3.300175e+000
      endloop
   endfacet
   facet normal 9.502891e-001 -3.113689e-001 0.000000e+000
      outer loop
         vertex 1.721867e+000 5.762812e+000 3.300175e+000
         vertex 1.721867e+000 5.762812e+000 1.000000e+001
         vertex 1.590930e+000 5.327595e+000 1.000000e+001
      endloop
   endfacet
   facet normal 9.643424e-001 -2.646579e-001 0.000000e+000
      outer loop
         vertex 1.721867e+000 5.762812e+000 3.300175e+000
         vertex 1.590930e+000 5.327595e+000 1.000000e+001
         vertex 1.590930e+000 5.327595e+000 3.300175e+000
      endloop
   endfacet
   facet normal 9.854979e-001 -1.696875e-001 0.000000e+000
      outer loop
         vertex 1.590930e+000 5.327595e+000 3.300175e+000
         vertex 1.590930e+000 5.327595e+000 1.000000e+001
         vertex 1.524756e+000 4.877953e+000 1.000000e+001
      endloop
   endfacet
   facet normal 9.926003e-001 -1.214282e-001 0.000000e+000
      outer loop
         vertex 1.590930e+000 5.327595e+000 3.300175e+000
         vertex 1.524756e+000 4.877953e+000 1.000000e+001
         vertex 1.524756e+000 4.877953e+000 3.300175e+000
      endloop
   endfacet
   facet normal 9.997025e-001 -2.438960e-002 0.000000e+000
      outer loop
         vertex 1.524756e+000 4.877953e+000 3.300175e+000
         vertex 1.524756e+000 4.877953e+000 1.000000e+001
         vertex 1.524756e+000 4.423466e+000 1.000000e+001
      endloop
   endfacet
   facet normal 9.997025e-001 2.438960e-002 0.000000e+000
      outer loop
         vertex 1.524756e+000 4.877953e+000 3.300175e+000
         vertex 1.524756e+000 4.423466e+000 1.000000e+001
         vertex 1.524756e+000 4.423466e+000 3.300175e+000
      endloop
   endfacet
   facet normal 9.926003e-001 1.214282e-001 0.000000e+000
      outer loop
         vertex 1.524756e+000 4.423466e+000 3.300175e+000
         vertex 1.524756e+000 4.423466e+000 1.000000e+001
         vertex 1.590930e+000 3.973823e+000 1.000000e+001
      endloop
   endfacet
   facet normal 9.854979e-001 1.696875e-001 0.000000e+000
      outer loop
         vertex 1.524756e+000 4.423466e+000 3.300175e+000
         vertex 1.590930e+000 3.973823e+000 1.000000e+001
         vertex 1.590930e+000 3.973823e+000 3.300175e+000
      endloop
   endfacet
   facet normal 9.643424e-001 2.646579e-001 0.000000e+000
      outer loop
         vertex 1.590930e+000 3.973823e+000 3.300175e+000
         vertex 1.590930e+000 3.973823e+000 1.000000e+001
         vertex 1.721867e+000 3.538607e+000 1.000000e+001
      endloop
   endfacet
   facet normal 9.502891e-001 3.113689e-001 0.000000e+000
      outer loop
         vertex 1.590930e+000 3.973823e+000 3.300175e+000
         vertex 1.721867e+000 3.538607e+000 1.000000e+001
         vertex 1.721867e+000 3.538607e+000 3.300175e+000
      endloop
   endfacet
   facet normal 9.155312e-001 4.022469e-001 0.000000e+000
      outer loop
         vertex 1.721867e+000 3.538607e+000 3.300175e+000
         vertex 1.721867e+000 3.538607e+000 1.000000e+001
         vertex 1.914777e+000 3.127093e+000 1.000000e+001
      endloop
   endfacet
   facet normal 8.948265e-001 4.464140e-001 0.000000e+000
      outer loop
         vertex 1.721867e+000 3.538607e+000 3.300175e+000
         vertex 1.914777e+000 3.127093e+000 1.000000e+001
         vertex 1.914777e+000 3.127093e+000 3.300175e+000
      endloop
   endfacet
   facet normal 8.472071e-001 5.312628e-001 0.000000e+000
      outer loop
         vertex 1.914777e+000 3.127093e+000 3.300175e+000
         vertex 1.914777e+000 3.127093e+000 1.000000e+001
         vertex 2.165548e+000 2.748052e+000 1.000000e+001
      endloop
   endfacet
   facet normal 8.202924e-001 5.719445e-001 0.000000e+000
      outer loop
         vertex 1.914777e+000 3.127093e+000 3.300175e+000
         vertex 2.165548e+000 2.748052e+000 1.000000e+001
         vertex 2.165548e+000 2.748052e+000 3.300175e+000
      endloop
   endfacet
   facet normal 7.608263e-001 6.489556e-001 0.000000e+000
      outer loop
         vertex 2.165548e+000 2.748052e+000 3.300175e+000
         vertex 2.165548e+000 2.748052e+000 1.000000e+001
         vertex 2.468835e+000 2.409564e+000 1.000000e+001
      endloop
   endfacet
   facet normal 7.282749e-001 6.852850e-001 0.000000e+000
      outer loop
         vertex 2.165548e+000 2.748052e+000 3.300175e+000
         vertex 2.468835e+000 2.409564e+000 1.000000e+001
         vertex 2.468835e+000 2.409564e+000 3.300175e+000
      endloop
   endfacet
   facet normal 6.582298e-001 7.528171e-001 0.000000e+000
      outer loop
         vertex 2.468835e+000 2.409564e+000 3.300175e+000
         vertex 2.468835e+000 2.409564e+000 1.000000e+001
         vertex 2.818175e+000 2.118841e+000 1.000000e+001
      endloop
   endfacet
   facet normal 6.207358e-001 7.840198e-001 0.000000e+000
      outer loop
         vertex 2.468835e+000 2.409564e+000 3.300175e+000
         vertex 2.818175e+000 2.118841e+000 1.000000e+001
         vertex 2.818175e+000 2.118841e+000 3.300175e+000
      endloop
   endfacet
   facet normal 5.416042e-001 8.406336e-001 0.000000e+000
      outer loop
         vertex 2.818175e+000 2.118841e+000 3.300175e+000
         vertex 2.818175e+000 2.118841e+000 1.000000e+001
         vertex 3.206121e+000 1.882081e+000 1.000000e+001
      endloop
   endfacet
   facet normal 4.999666e-001 8.660447e-001 0.000000e+000
      outer loop
         vertex 2.818175e+000 2.118841e+000 3.300175e+000
         vertex 3.206121e+000 1.882081e+000 1.000000e+001
         vertex 3.206121e+000 1.882081e+000 3.300175e+000
      endloop
   endfacet
   facet normal 4.134352e-001 9.105335e-001 0.000000e+000
      outer loop
         vertex 3.206121e+000 1.882081e+000 3.300175e+000
         vertex 3.206121e+000 1.882081e+000 1.000000e+001
         vertex 3.624406e+000 1.704329e+000 1.000000e+001
      endloop
   endfacet
   facet normal 3.685415e-001 9.296113e-001 0.000000e+000
      outer loop
         vertex 3.206121e+000 1.882081e+000 3.300175e+000
         vertex 3.624406e+000 1.704329e+000 1.000000e+001
         vertex 3.624406e+000 1.704329e+000 3.300175e+000
      endloop
   endfacet
   facet normal 2.764547e-001 9.610270e-001 0.000000e+000
      outer loop
         vertex 3.624406e+000 1.704329e+000 3.300175e+000
         vertex 3.624406e+000 1.704329e+000 1.000000e+001
         vertex 4.064114e+000 1.589374e+000 1.000000e+001
      endloop
   endfacet
   facet normal 2.292616e-001 9.733649e-001 0.000000e+000
      outer loop
         vertex 3.624406e+000 1.704329e+000 3.300175e+000
         vertex 4.064114e+000 1.589374e+000 1.000000e+001
         vertex 4.064114e+000 1.589374e+000 3.300175e+000
      endloop
   endfacet
   facet normal 1.335820e-001 9.910377e-001 0.000000e+000
      outer loop
         vertex 4.064114e+000 1.589374e+000 3.300175e+000
         vertex 4.064114e+000 1.589374e+000 1.000000e+001
         vertex 4.515874e+000 1.539667e+000 1.000000e+001
      endloop
   endfacet
   facet normal 8.509539e-002 9.963728e-001 0.000000e+000
      outer loop
         vertex 4.064114e+000 1.589374e+000 3.300175e+000
         vertex 4.515874e+000 1.539667e+000 1.000000e+001
         vertex 4.515874e+000 1.539667e+000 3.300175e+000
      endloop
   endfacet
   facet normal -1.213783e-002 9.999263e-001 0.000000e+000
      outer loop
         vertex 4.515874e+000 1.539667e+000 3.300175e+000
         vertex 4.515874e+000 1.539667e+000 1.000000e+001
         vertex 4.970057e+000 1.556265e+000 1.000000e+001
      endloop
   endfacet
   facet normal -6.088449e-002 9.981448e-001 0.000000e+000
      outer loop
         vertex 4.515874e+000 1.539667e+000 3.300175e+000
         vertex 4.970057e+000 1.556265e+000 1.000000e+001
         vertex 4.970057e+000 1.556265e+000 3.300175e+000
      endloop
   endfacet
   facet normal -1.575989e-001 9.875032e-001 0.000000e+000
      outer loop
         vertex 4.970057e+000 1.556265e+000 3.300175e+000
         vertex 4.970057e+000 1.556265e+000 1.000000e+001
         vertex 5.416983e+000 1.638817e+000 1.000000e+001
      endloop
   endfacet
   facet normal -2.055667e-001 9.786431e-001 0.000000e+000
      outer loop
         vertex 4.970057e+000 1.556265e+000 3.300175e+000
         vertex 5.416983e+000 1.638817e+000 1.000000e+001
         vertex 5.416983e+000 1.638817e+000 3.300175e+000
      endloop
   endfacet
   facet normal -2.997011e-001 9.540332e-001 0.000000e+000
      outer loop
         vertex 5.416983e+000 1.638817e+000 3.300175e+000
         vertex 5.416983e+000 1.638817e+000 1.000000e+001
         vertex 5.847127e+000 1.785562e+000 1.000000e+001
      endloop
   endfacet
   facet normal -3.458676e-001 9.382833e-001 0.000000e+000
      outer loop
         vertex 5.416983e+000 1.638817e+000 3.300175e+000
         vertex 5.847127e+000 1.785562e+000 1.000000e+001
         vertex 5.847127e+000 1.785562e+000 3.300175e+000
      endloop
   endfacet
   facet normal -4.354156e-001 9.002295e-001 0.000000e+000
      outer loop
         vertex 5.847127e+000 1.785562e+000 3.300175e+000
         vertex 5.847127e+000 1.785562e+000 1.000000e+001
         vertex 6.251321e+000 1.993372e+000 1.000000e+001
      endloop
   endfacet
   facet normal -4.787970e-001 8.779256e-001 0.000000e+000
      outer loop
         vertex 5.847127e+000 1.785562e+000 3.300175e+000
         vertex 6.251321e+000 1.993372e+000 1.000000e+001
         vertex 6.251321e+000 1.993372e+000 3.300175e+000
      endloop
   endfacet
   facet normal -5.618500e-001 8.272392e-001 0.000000e+000
      outer loop
         vertex 6.251321e+000 1.993372e+000 3.300175e+000
         vertex 6.251321e+000 1.993372e+000 1.000000e+001
         vertex 6.620950e+000 2.257819e+000 1.000000e+001
      endloop
   endfacet
   facet normal -6.015216e-001 7.988565e-001 0.000000e+000
      outer loop
         vertex 6.251321e+000 1.993372e+000 3.300175e+000
         vertex 6.620950e+000 2.257819e+000 1.000000e+001
         vertex 6.620950e+000 2.257819e+000 3.300175e+000
      endloop
   endfacet
   facet normal -6.763095e-001 7.366175e-001 0.000000e+000
      outer loop
         vertex 6.620950e+000 2.257819e+000 3.300175e+000
         vertex 6.620950e+000 2.257819e+000 1.000000e+001
         vertex 6.948136e+000 2.573266e+000 1.000000e+001
      endloop
   endfacet
   facet normal -7.114259e-001 7.027611e-001 0.000000e+000
      outer loop
         vertex 6.620950e+000 2.257819e+000 3.300175e+000
         vertex 6.948136e+000 2.573266e+000 1.000000e+001
         vertex 6.948136e+000 2.573266e+000 3.300175e+000
      endloop
   endfacet
   facet normal -7.763547e-001 6.302962e-001 0.000000e+000
      outer loop
         vertex 6.948136e+000 2.573266e+000 3.300175e+000
         vertex 6.948136e+000 2.573266e+000 1.000000e+001
         vertex 7.225906e+000 2.932991e+000 1.000000e+001
      endloop
   endfacet
   facet normal -8.061673e-001 5.916877e-001 0.000000e+000
      outer loop
         vertex 6.948136e+000 2.573266e+000 3.300175e+000
         vertex 7.225906e+000 2.932991e+000 1.000000e+001
         vertex 7.225906e+000 2.932991e+000 3.300175e+000
      endloop
   endfacet
   facet normal -8.598533e-001 5.105412e-001 0.000000e+000
      outer loop
         vertex 7.225906e+000 2.932991e+000 3.300175e+000
         vertex 7.225906e+000 2.932991e+000 1.000000e+001
         vertex 7.448340e+000 3.329325e+000 1.000000e+001
      endloop
   endfacet
   facet normal -8.837267e-001 4.680033e-001 0.000000e+000
      outer loop
         vertex 7.225906e+000 2.932991e+000 3.300175e+000
         vertex 7.448340e+000 3.329325e+000 1.000000e+001
         vertex 7.448340e+000 3.329325e+000 3.300175e+000
      endloop
   endfacet
   facet normal -9.250256e-001 3.799049e-001 0.000000e+000
      outer loop
         vertex 7.448340e+000 3.329325e+000 3.300175e+000
         vertex 7.448340e+000 3.329325e+000 1.000000e+001
         vertex 7.610697e+000 3.753822e+000 1.000000e+001
      endloop
   endfacet
   facet normal -9.424510e-001 3.343444e-001 0.000000e+000
      outer loop
         vertex 7.448340e+000 3.329325e+000 3.300175e+000
         vertex 7.610697e+000 3.753822e+000 1.000000e+001
         vertex 7.610697e+000 3.753822e+000 3.300175e+000
      endloop
   endfacet
   facet normal -9.704825e-001 2.411716e-001 0.000000e+000
      outer loop
         vertex 7.610697e+000 3.753822e+000 3.300175e+000
         vertex 7.610697e+000 3.753822e+000 1.000000e+001
         vertex 7.709516e+000 4.197435e+000 1.000000e+001
      endloop
   endfacet
   facet normal -9.810886e-001 1.935594e-001 0.000000e+000
      outer loop
         vertex 7.610697e+000 3.753822e+000 3.300175e+000
         vertex 7.709516e+000 4.197435e+000 1.000000e+001
         vertex 7.709516e+000 4.197435e+000 3.300175e+000
      endloop
   endfacet
   facet normal -9.952553e-001 9.729814e-002 0.000000e+000
      outer loop
         vertex 7.709516e+000 4.197435e+000 3.300175e+000
         vertex 7.709516e+000 4.197435e+000 1.000000e+001
         vertex 7.742691e+000 4.650709e+000 1.000000e+001
      endloop
   endfacet
   facet normal 0.000000e+000 0.000000e+000 1.000000e+000
      outer loop
         vertex 6.395613e+000 5.293496e+000 3.300175e+000
         vertex 7.448340e+000 5.972094e+000 3.300175e+000
         vertex 6.257164e+000 5.590401e+000 3.300175e+000
      endloop
   endfacet
   facet normal 0.000000e+000 0.000000e+000 1.000000e+000
      outer loop
         vertex 6.257164e+000 5.590401e+000 3.300175e+000
         vertex 7.448340e+000 5.972094e+000 3.300175e+000
         vertex 7.225906e+000 6.368428e+000 3.300175e+000
      endloop
   endfacet
   facet normal 0.000000e+000 0.000000e+000 1.000000e+000
      outer loop
         vertex 6.257164e+000 5.590401e+000 3.300175e+000
         vertex 7.225906e+000 6.368428e+000 3.300175e+000
         vertex 6.069262e+000 5.858753e+000 3.300175e+000
      endloop
   endfacet
   facet normal 0.000000e+000 0.000000e+000 1.000000e+000
      outer loop
         vertex 6.069262e+000 5.858753e+000 3.300175e+000
         vertex 7.225906e+000 6.368428e+000 3.300175e+000
         vertex 6.948136e+000 6.728153e+000 3.300175e+000
      endloop
   endfacet
   facet normal 0.000000e+000 0.000000e+000 1.000000e+000
      outer loop
         vertex 6.069262e+000 5.858753e+000 3.300175e+000
         vertex 6.948136e+000 6.728153e+000 3.300175e+000
         vertex 5.837615e+000 6.090400e+000 3.300175e+000
      endloop
   endfacet
   facet normal 0.000000e+000 0.000000e+000 1.000000e+000
      outer loop
         vertex 5.837615e+000 6.090400e+000 3.300175e+000
         vertex 6.948136e+000 6.728153e+000 3.300175e+000
         vertex 6.620950e+000 7.043600e+000 3.300175e+000
      endloop
   endfacet
   facet normal 0.000000e+000 0.000000e+000 1.000000e+000
      outer loop
         vertex 5.837615e+000 6.090400e+000 3.300175e+000
         vertex 6.620950e+000 7.043600e+000 3.300175e+000
         vertex 5.569263e+000 6.278303e+000 3.300175e+000
      endloop
   endfacet
   facet normal 0.000000e+000 0.000000e+000 1.000000e+000
      outer loop
         vertex 5.569263e+000 6.278303e+000 3.300175e+000
         vertex 6.620950e+000 7.043600e+000 3.300175e+000
         vertex 6.251321e+000 7.308047e+000 3.300175e+000
      endloop
   endfacet
   facet normal 0.000000e+000 0.000000e+000 1.000000e+000
      outer loop
         vertex 5.569263e+000 6.278303e+000 3.300175e+000
         vertex 6.251321e+000 7.308047e+000 3.300175e+000
         vertex 5.272358e+000 6.416751e+000 3.300175e+000
      endloop
   endfacet
   facet normal 0.000000e+000 0.000000e+000 1.000000e+000
      outer loop
         vertex 6.257164e+000 3.711018e+000 3.300175e+000
         vertex 7.448340e+000 3.329325e+000 3.300175e+000
         vertex 6.395613e+000 4.007923e+000 3.300175e+000
      endloop
   endfacet
   facet normal 0.000000e+000 0.000000e+000 1.000000e+000
      outer loop
         vertex 6.395613e+000 4.007923e+000 3.300175e+000
         vertex 7.448340e+000 3.329325e+000 3.300175e+000
         vertex 7.610697e+000 3.753822e+000 3.300175e+000
      endloop
   endfacet
   facet normal 0.000000e+000 0.000000e+000 1.000000e+000
      outer loop
         vertex 6.395613e+000 4.007923e+000 3.300175e+000
         vertex 7.610697e+000 3.753822e+000 3.300175e+000
         vertex 6.480402e+000 4.324358e+000 3.300175e+000
      endloop
   endfacet
   facet normal 0.000000e+000 0.000000e+000 1.000000e+000
      outer loop
         vertex 6.480402e+000 4.324358e+000 3.300175e+000
         vertex 7.610697e+000 3.753822e+000 3.300175e+000
         vertex 7.709516e+000 4.197435e+000 3.300175e+000
      endloop
   endfacet
   facet normal 0.000000e+000 0.000000e+000 1.000000e+000
      outer loop
         vertex 6.480402e+000 4.324358e+000 3.300175e+000
         vertex 7.709516e+000 4.197435e+000 3.300175e+000
         vertex 6.508954e+000 4.650709e+000 3.300175e+000
      endloop
   endfacet
   facet normal 0.000000e+000 0.000000e+000 1.000000e+000
      outer loop
         vertex 6.508954e+000 4.650709e+000 3.300175e+000
         vertex 7.709516e+000 4.197435e+000 3.300175e+000
         vertex 7.742691e+000 4.650709e+000 3.300175e+000
      endloop
   endfacet
   facet normal 0.000000e+000 0.000000e+000 1.000000e+000
      outer loop
         vertex 6.508954e+000 4.650709e+000 3.300175e+000
         vertex 7.742691e+000 4.650709e+000 3.300175e+000
         vertex 6.480402e+000 4.977061e+000 3.300175e+000
      endloop
   endfacet
   facet normal 0.000000e+000 0.000000e+000 1.000000e+000
      outer loop
         vertex 6.480402e+000 4.977061e+000 3.300175e+000
         vertex 7.742691e+000 4.650709e+000 3.300175e+000
         vertex 7.709516e+000 5.103983e+000 3.300175e+000
      endloop
   endfacet
   facet normal 0.000000e+000 0.000000e+000 1.000000e+000
      outer loop
         vertex 6.480402e+000 4.977061e+000 3.300175e+000
         vertex 7.709516e+000 5.103983e+000 3.300175e+000
         vertex 6.395613e+000 5.293496e+000 3.300175e+000
      endloop
   endfacet
   facet normal 0.000000e+000 0.000000e+000 1.000000e+000
      outer loop
         vertex 6.395613e+000 5.293496e+000 3.300175e+000
         vertex 7.709516e+000 5.103983e+000 3.300175e+000
         vertex 7.610697e+000 5.547596e+000 3.300175e+000
      endloop
   endfacet
   facet normal 0.000000e+000 0.000000e+000 1.000000e+000
      outer loop
         vertex 6.395613e+000 5.293496e+000 3.300175e+000
         vertex 7.610697e+000 5.547596e+000 3.300175e+000
         vertex 7.448340e+000 5.972094e+000 3.300175e+000
      endloop
   endfacet
   facet normal 0.000000e+000 0.000000e+000 1.000000e+000
      outer loop
         vertex 3.689880e+000 6.278303e+000 3.300175e+000
         vertex 2.818175e+000 7.182578e+000 3.300175e+000
         vertex 3.421528e+000 6.090400e+000 3.300175e+000
      endloop
   endfacet
   facet normal 0.000000e+000 0.000000e+000 1.000000e+000
      outer loop
         vertex 3.421528e+000 6.090400e+000 3.300175e+000
         vertex 2.818175e+000 7.182578e+000 3.300175e+000
         vertex 2.468835e+000 6.891855e+000 3.300175e+000
      endloop
   endfacet
   facet normal 0.000000e+000 0.000000e+000 1.000000e+000
      outer loop
         vertex 3.421528e+000 6.090400e+000 3.300175e+000
         vertex 2.468835e+000 6.891855e+000 3.300175e+000
         vertex 3.189881e+000 5.858753e+000 3.300175e+000
      endloop
   endfacet
   facet normal 0.000000e+000 0.000000e+000 1.000000e+000
      outer loop
         vertex 3.189881e+000 5.858753e+000 3.300175e+000
         vertex 2.468835e+000 6.891855e+000 3.300175e+000
         vertex 2.165548e+000 6.553366e+000 3.300175e+000
      endloop
   endfacet
   facet normal 0.000000e+000 0.000000e+000 1.000000e+000
      outer loop
         vertex 3.189881e+000 5.858753e+000 3.300175e+000
         vertex 2.165548e+000 6.553366e+000 3.300175e+000
         vertex 3.001978e+000 5.590401e+000 3.300175e+000
      endloop
   endfacet
   facet normal 0.000000e+000 0.000000e+000 1.000000e+000
      outer loop
         vertex 3.001978e+000 5.590401e+000 3.300175e+000
         vertex 2.165548e+000 6.553366e+000 3.300175e+000
         vertex 1.914777e+000 6.174326e+000 3.300175e+000
      endloop
   endfacet
   facet normal 0.000000e+000 0.000000e+000 1.000000e+000
      outer loop
         vertex 3.001978e+000 5.590401e+000 3.300175e+000
         vertex 1.914777e+000 6.174326e+000 3.300175e+000
         vertex 2.863529e+000 5.293496e+000 3.300175e+000
      endloop
   endfacet
   facet normal 0.000000e+000 0.000000e+000 1.000000e+000
      outer loop
         vertex 2.863529e+000 5.293496e+000 3.300175e+000
         vertex 1.914777e+000 6.174326e+000 3.300175e+000
         vertex 1.721867e+000 5.762812e+000 3.300175e+000
      endloop
   endfacet
   facet normal 0.000000e+000 0.000000e+000 1.000000e+000
      outer loop
         vertex 2.863529e+000 5.293496e+000 3.300175e+000
         vertex 1.721867e+000 5.762812e+000 3.300175e+000
         vertex 2.778741e+000 4.977061e+000 3.300175e+000
      endloop
   endfacet
   facet normal 0.000000e+000 0.000000e+000 1.000000e+000
      outer loop
         vertex 1.721867e+000 5.762812e+000 3.300175e+000
         vertex 1.590930e+000 5.327595e+000 3.300175e+000
         vertex 2.778741e+000 4.977061e+000 3.300175e+000
      endloop
   endfacet
   facet normal 0.000000e+000 0.000000e+000 1.000000e+000
      outer loop
         vertex 2.778741e+000 4.977061e+000 3.300175e+000
         vertex 1.590930e+000 5.327595e+000 3.300175e+000
         vertex 1.524756e+000 4.877953e+000 3.300175e+000
      endloop
   endfacet
   facet normal 0.000000e+000 0.000000e+000 1.000000e+000
      outer loop
         vertex 2.778741e+000 4.977061e+000 3.300175e+000
         vertex 1.524756e+000 4.877953e+000 3.300175e+000
         vertex 2.750189e+000 4.650709e+000 3.300175e+000
      endloop
   endfacet
   facet normal 0.000000e+000 0.000000e+000 1.000000e+000
      outer loop
         vertex 2.750189e+000 4.650709e+000 3.300175e+000
         vertex 1.524756e+000 4.877953e+000 3.300175e+000
         vertex 1.524756e+000 4.423466e+000 3.300175e+000
      endloop
   endfacet
   facet normal 0.000000e+000 0.000000e+000 1.000000e+000
      outer loop
         vertex 2.750189e+000 4.650709e+000 3.300175e+000
         vertex 1.524756e+000 4.423466e+000 3.300175e+000
         vertex 2.778741e+000 4.324358e+000 3.300175e+000
      endloop
   endfacet
   facet normal 0.000000e+000 0.000000e+000 1.000000e+000
      outer loop
         vertex 2.778741e+000 4.324358e+000 3.300175e+000
         vertex 1.524756e+000 4.423466e+000 3.300175e+000
         vertex 1.590930e+000 3.973823e+000 3.300175e+000
      endloop
   endfacet
   facet normal 0.000000e+000 0.000000e+000 1.000000e+000
      outer loop
         vertex 2.778741e+000 4.324358e+000 3.300175e+000
         vertex 1.590930e+000 3.973823e+000 3.300175e+000
         vertex 2.863529e+000 4.007923e+000 3.300175e+000
      endloop
   endfacet
   facet normal 0.000000e+000 0.000000e+000 1.000000e+000
      outer loop
         vertex 2.863529e+000 4.007923e+000 3.300175e+000
         vertex 1.590930e+000 3.973823e+000 3.300175e+000
         vertex 1.721867e+000 3.538607e+000 3.300175e+000
      endloop
   endfacet
   facet normal 0.000000e+000 0.000000e+000 1.000000e+000
      outer loop
         vertex 2.863529e+000 4.007923e+000 3.300175e+000
         vertex 1.721867e+000 3.538607e+000 3.300175e+000
         vertex 3.001978e+000 3.711018e+000 3.300175e+000
      endloop
   endfacet
   facet normal 0.000000e+000 0.000000e+000 1.000000e+000
      outer loop
         vertex 3.001978e+000 3.711018e+000 3.300175e+000
         vertex 1.721867e+000 3.538607e+000 3.300175e+000
         vertex 1.914777e+000 3.127093e+000 3.300175e+000
      endloop
   endfacet
   facet normal 0.000000e+000 0.000000e+000 1.000000e+000
      outer loop
         vertex 3.001978e+000 3.711018e+000 3.300175e+000
         vertex 1.914777e+000 3.127093e+000 3.300175e+000
         vertex 3.189881e+000 3.442666e+000 3.300175e+000
      endloop
   endfacet
   facet normal 0.000000e+000 0.000000e+000 1.000000e+000
      outer loop
         vertex 3.189881e+000 3.442666e+000 3.300175e+000
         vertex 1.914777e+000 3.127093e+000 3.300175e+000
         vertex 2.165548e+000 2.748052e+000 3.300175e+000
      endloop
   endfacet
   facet normal 0.000000e+000 0.000000e+000 1.000000e+000
      outer loop
         vertex 3.189881e+000 3.442666e+000 3.300175e+000
         vertex 2.165548e+000 2.748052e+000 3.300175e+000
         vertex 3.421528e+000 3.211019e+000 3.300175e+000
      endloop
   endfacet
   facet normal 0.000000e+000 0.000000e+000 1.000000e+000
      outer loop
         vertex 6.251321e+000 7.308047e+000 3.300175e+000
         vertex 5.847127e+000 7.515858e+000 3.300175e+000
         vertex 5.272358e+000 6.416751e+000 3.300175e+000
      endloop
   endfacet
   facet normal 0.000000e+000 0.000000e+000 1.000000e+000
      outer loop
         vertex 5.272358e+000 6.416751e+000 3.300175e+000
         vertex 5.847127e+000 7.515858e+000 3.300175e+000
         vertex 5.416983e+000 7.662602e+000 3.300175e+000
      endloop
   endfacet
   facet normal 0.000000e+000 0.000000e+000 1.000000e+000
      outer loop
         vertex 5.272358e+000 6.416751e+000 3.300175e+000
         vertex 5.416983e+000 7.662602e+000 3.300175e+000
         vertex 4.955923e+000 6.501540e+000 3.300175e+000
      endloop
   endfacet
   facet normal 0.000000e+000 0.000000e+000 1.000000e+000
      outer loop
         vertex 4.955923e+000 6.501540e+000 3.300175e+000
         vertex 5.416983e+000 7.662602e+000 3.300175e+000
         vertex 4.970057e+000 7.745153e+000 3.300175e+000
      endloop
   endfacet
   facet normal 0.000000e+000 0.000000e+000 1.000000e+000
      outer loop
         vertex 4.955923e+000 6.501540e+000 3.300175e+000
         vertex 4.970057e+000 7.745153e+000 3.300175e+000
         vertex 4.629571e+000 6.530092e+000 3.300175e+000
      endloop
   endfacet
   facet normal 0.000000e+000 0.000000e+000 1.000000e+000
      outer loop
         vertex 4.629571e+000 6.530092e+000 3.300175e+000
         vertex 4.970057e+000 7.745153e+000 3.300175e+000
         vertex 4.515874e+000 7.761752e+000 3.300175e+000
      endloop
   endfacet
   facet normal 0.000000e+000 0.000000e+000 1.000000e+000
      outer loop
         vertex 4.629571e+000 6.530092e+000 3.300175e+000
         vertex 4.515874e+000 7.761752e+000 3.300175e+000
         vertex 4.303220e+000 6.501540e+000 3.300175e+000
      endloop
   endfacet
   facet normal 0.000000e+000 0.000000e+000 1.000000e+000
      outer loop
         vertex 4.303220e+000 6.501540e+000 3.300175e+000
         vertex 4.515874e+000 7.761752e+000 3.300175e+000
         vertex 4.064114e+000 7.712044e+000 3.300175e+000
      endloop
   endfacet
   facet normal 0.000000e+000 0.000000e+000 1.000000e+000
      outer loop
         vertex 4.303220e+000 6.501540e+000 3.300175e+000
         vertex 4.064114e+000 7.712044e+000 3.300175e+000
         vertex 3.986785e+000 6.416751e+000 3.300175e+000
      endloop
   endfacet
   facet normal 0.000000e+000 0.000000e+000 1.000000e+000
      outer loop
         vertex 3.986785e+000 6.416751e+000 3.300175e+000
         vertex 4.064114e+000 7.712044e+000 3.300175e+000
         vertex 3.624406e+000 7.597090e+000 3.300175e+000
      endloop
   endfacet
   facet normal 0.000000e+000 0.000000e+000 1.000000e+000
      outer loop
         vertex 3.986785e+000 6.416751e+000 3.300175e+000
         vertex 3.624406e+000 7.597090e+000 3.300175e+000
         vertex 3.689880e+000 6.278303e+000 3.300175e+000
      endloop
   endfacet
   facet normal 0.000000e+000 0.000000e+000 1.000000e+000
      outer loop
         vertex 3.689880e+000 6.278303e+000 3.300175e+000
         vertex 3.624406e+000 7.597090e+000 3.300175e+000
         vertex 3.206121e+000 7.419338e+000 3.300175e+000
      endloop
   endfacet
   facet normal 0.000000e+000 0.000000e+000 1.000000e+000
      outer loop
         vertex 3.689880e+000 6.278303e+000 3.300175e+000
         vertex 3.206121e+000 7.419338e+000 3.300175e+000
         vertex 2.818175e+000 7.182578e+000 3.300175e+000
      endloop
   endfacet
   facet normal 0.000000e+000 0.000000e+000 1.000000e+000
      outer loop
         vertex 2.165548e+000 2.748052e+000 3.300175e+000
         vertex 2.468835e+000 2.409564e+000 3.300175e+000
         vertex 3.421528e+000 3.211019e+000 3.300175e+000
      endloop
   endfacet
   facet normal 0.000000e+000 0.000000e+000 1.000000e+000
      outer loop
         vertex 3.421528e+000 3.211019e+000 3.300175e+000
         vertex 2.468835e+000 2.409564e+000 3.300175e+000
         vertex 2.818175e+000 2.118841e+000 3.300175e+000
      endloop
   endfacet
   facet normal 0.000000e+000 0.000000e+000 1.000000e+000
      outer loop
         vertex 3.421528e+000 3.211019e+000 3.300175e+000
         vertex 2.818175e+000 2.118841e+000 3.300175e+000
         vertex 3.689880e+000 3.023116e+000 3.300175e+000
      endloop
   endfacet
   facet normal 0.000000e+000 0.000000e+000 1.000000e+000
      outer loop
         vertex 3.689880e+000 3.023116e+000 3.300175e+000
         vertex 2.818175e+000 2.118841e+000 3.300175e+000
         vertex 3.206121e+000 1.882081e+000 3.300175e+000
      endloop
   endfacet
   facet normal 0.000000e+000 0.000000e+000 1.000000e+000
      outer loop
         vertex 3.689880e+000 3.023116e+000 3.300175e+000
         vertex 3.206121e+000 1.882081e+000 3.300175e+000
         vertex 3.986785e+000 2.884668e+000 3.300175e+000
      endloop
   endfacet
   facet normal 0.000000e+000 0.000000e+000 1.000000e+000
      outer loop
         vertex 3.986785e+000 2.884668e+000 3.300175e+000
         vertex 3.206121e+000 1.882081e+000 3.300175e+000
         vertex 3.624406e+000 1.704329e+000 3.300175e+000
      endloop
   endfacet
   facet normal 0.000000e+000 0.000000e+000 1.000000e+000
      outer loop
         vertex 3.986785e+000 2.884668e+000 3.300175e+000
         vertex 3.624406e+000 1.704329e+000 3.300175e+000
         vertex 4.303220e+000 2.799879e+000 3.300175e+000
      endloop
   endfacet
   facet normal 0.000000e+000 0.000000e+000 1.000000e+000
      outer loop
         vertex 4.303220e+000 2.799879e+000 3.300175e+000
         vertex 3.624406e+000 1.704329e+000 3.300175e+000
         vertex 4.064114e+000 1.589374e+000 3.300175e+000
      endloop
   endfacet
   facet normal 0.000000e+000 0.000000e+000 1.000000e+000
      outer loop
         vertex 4.303220e+000 2.799879e+000 3.300175e+000
         vertex 4.064114e+000 1.589374e+000 3.300175e+000
         vertex 4.629571e+000 2.771327e+000 3.300175e+000
      endloop
   endfacet
   facet normal 0.000000e+000 0.000000e+000 1.000000e+000
      outer loop
         vertex 4.629571e+000 2.771327e+000 3.300175e+000
         vertex 4.064114e+000 1.589374e+000 3.300175e+000
         vertex 4.515874e+000 1.539667e+000 3.300175e+000
      endloop
   endfacet
   facet normal 0.000000e+000 0.000000e+000 1.000000e+000
      outer loop
         vertex 4.629571e+000 2.771327e+000 3.300175e+000
         vertex 4.515874e+000 1.539667e+000 3.300175e+000
         vertex 4.955923e+000 2.799879e+000 3.300175e+000
      endloop
   endfacet
   facet normal 0.000000e+000 0.000000e+000 1.000000e+000
      outer loop
         vertex 4.515874e+000 1.539667e+000 3.300175e+000
         vertex 4.970057e+000 1.556265e+000 3.300175e+000
         vertex 4.955923e+000 2.799879e+000 3.300175e+000
      endloop
   endfacet
   facet normal 0.000000e+000 0.000000e+000 1.000000e+000
      outer loop
         vertex 4.955923e+000 2.799879e+000 3.300175e+000
         vertex 4.970057e+000 1.556265e+000 3.300175e+000
         vertex 5.416983e+000 1.638817e+000 3.300175e+000
      endloop
   endfacet
   facet normal 0.000000e+000 0.000000e+000 1.000000e+000
      outer loop
         vertex 4.955923e+000 2.799879e+000 3.300175e+000
         vertex 5.416983e+000 1.638817e+000 3.300175e+000
         vertex 5.272358e+000 2.884668e+000 3.300175e+000
      endloop
   endfacet
   facet normal 0.000000e+000 0.000000e+000 1.000000e+000
      outer loop
         vertex 5.272358e+000 2.884668e+000 3.300175e+000
         vertex 5.416983e+000 1.638817e+000 3.300175e+000
         vertex 5.847127e+000 1.785562e+000 3.300175e+000
      endloop
   endfacet
   facet normal 0.000000e+000 0.000000e+000 1.000000e+000
      outer loop
         vertex 5.272358e+000 2.884668e+000 3.300175e+000
         vertex 5.847127e+000 1.785562e+000 3.300175e+000
         vertex 5.569263e+000 3.023116e+000 3.300175e+000
      endloop
   endfacet
   facet normal 0.000000e+000 0.000000e+000 1.000000e+000
      outer loop
         vertex 5.569263e+000 3.023116e+000 3.300175e+000
         vertex 5.847127e+000 1.785562e+000 3.300175e+000
         vertex 6.251321e+000 1.993372e+000 3.300175e+000
      endloop
   endfacet
   facet normal 0.000000e+000 0.000000e+000 1.000000e+000
      outer loop
         vertex 5.569263e+000 3.023116e+000 3.300175e+000
         vertex 6.251321e+000 1.993372e+000 3.300175e+000
         vertex 5.837615e+000 3.211019e+000 3.300175e+000
      endloop
   endfacet
   facet normal 0.000000e+000 0.000000e+000 1.000000e+000
      outer loop
         vertex 5.837615e+000 3.211019e+000 3.300175e+000
         vertex 6.251321e+000 1.993372e+000 3.300175e+000
         vertex 6.620950e+000 2.257819e+000 3.300175e+000
      endloop
   endfacet
   facet normal 0.000000e+000 0.000000e+000 1.000000e+000
      outer loop
         vertex 5.837615e+000 3.211019e+000 3.300175e+000
         vertex 6.620950e+000 2.257819e+000 3.300175e+000
         vertex 6.069262e+000 3.442666e+000 3.300175e+000
      endloop
   endfacet
   facet normal 0.000000e+000 0.000000e+000 1.000000e+000
      outer loop
         vertex 6.069262e+000 3.442666e+000 3.300175e+000
         vertex 6.620950e+000 2.257819e+000 3.300175e+000
         vertex 6.948136e+000 2.573266e+000 3.300175e+000
      endloop
   endfacet
   facet normal 0.000000e+000 0.000000e+000 1.000000e+000
      outer loop
         vertex 6.069262e+000 3.442666e+000 3.300175e+000
         vertex 6.948136e+000 2.573266e+000 3.300175e+000
         vertex 6.257164e+000 3.711018e+000 3.300175e+000
      endloop
   endfacet
   facet normal 0.000000e+000 0.000000e+000 1.000000e+000
      outer loop
         vertex 6.257164e+000 3.711018e+000 3.300175e+000
         vertex 6.948136e+000 2.573266e+000 3.300175e+000
         vertex 7.225906e+000 2.932991e+000 3.300175e+000
      endloop
   endfacet
   facet normal 0.000000e+000 0.000000e+000 1.000000e+000
      outer loop
         vertex 6.257164e+000 3.711018e+000 3.300175e+000
         vertex 7.225906e+000 2.932991e+000 3.300175e+000
         vertex 7.448340e+000 3.329325e+000 3.300175e+000
      endloop
   endfacet
   facet normal 9.983119e-001 5.807913e-002 0.000000e+000
      outer loop
         vertex 6.480402e+000 4.977061e+000 3.300175e+000
         vertex 6.508954e+000 4.650709e+000 1.000000e+001
         vertex 6.508954e+000 4.650709e+000 3.300175e+000
      endloop
   endfacet
   facet normal 9.983119e-001 -5.807913e-002 0.000000e+000
      outer loop
         vertex 6.508954e+000 4.650709e+000 3.300175e+000
         vertex 6.508954e+000 4.650709e+000 1.000000e+001
         vertex 6.480402e+000 4.324358e+000 1.000000e+001
      endloop
   endfacet
   facet normal 9.932307e-001 -1.161583e-001 0.000000e+000
      outer loop
         vertex 6.508954e+000 4.650709e+000 3.300175e+000
         vertex 6.480402e+000 4.324358e+000 1.000000e+001
         vertex 6.480402e+000 4.324358e+000 3.300175e+000
      endloop
   endfacet
   facet normal 9.730600e-001 -2.305519e-001 0.000000e+000
      outer loop
         vertex 6.480402e+000 4.324358e+000 3.300175e+000
         vertex 6.480402e+000 4.324358e+000 1.000000e+001
         vertex 6.395613e+000 4.007923e+000 1.000000e+001
      endloop
   endfacet
   facet normal 9.579706e-001 -2.868663e-001 0.000000e+000
      outer loop
         vertex 6.480402e+000 4.324358e+000 3.300175e+000
         vertex 6.395613e+000 4.007923e+000 1.000000e+001
         vertex 6.395613e+000 4.007923e+000 3.300175e+000
      endloop
   endfacet
   facet normal 9.182422e-001 -3.960194e-001 0.000000e+000
      outer loop
         vertex 6.395613e+000 4.007923e+000 3.300175e+000
         vertex 6.395613e+000 4.007923e+000 1.000000e+001
         vertex 6.257164e+000 3.711018e+000 1.000000e+001
      endloop
   endfacet
   facet normal 8.936031e-001 -4.488580e-001 0.000000e+000
      outer loop
         vertex 6.395613e+000 4.007923e+000 3.300175e+000
         vertex 6.257164e+000 3.711018e+000 1.000000e+001
         vertex 6.257164e+000 3.711018e+000 3.300175e+000
      endloop
   endfacet
   facet normal 8.355240e-001 -5.494540e-001 0.000000e+000
      outer loop
         vertex 6.257164e+000 3.711018e+000 3.300175e+000
         vertex 6.257164e+000 3.711018e+000 1.000000e+001
         vertex 6.069262e+000 3.442666e+000 1.000000e+001
      endloop
   endfacet
   facet normal 8.020838e-001 -5.972114e-001 0.000000e+000
      outer loop
         vertex 6.257164e+000 3.711018e+000 3.300175e+000
         vertex 6.069262e+000 3.442666e+000 1.000000e+001
         vertex 6.069262e+000 3.442666e+000 3.300175e+000
      endloop
   endfacet
   facet normal 7.274188e-001 -6.861938e-001 0.000000e+000
      outer loop
         vertex 6.069262e+000 3.442666e+000 3.300175e+000
         vertex 6.069262e+000 3.442666e+000 1.000000e+001
         vertex 5.837615e+000 3.211019e+000 1.000000e+001
      endloop
   endfacet
   facet normal 6.861938e-001 -7.274188e-001 0.000000e+000
      outer loop
         vertex 6.069262e+000 3.442666e+000 3.300175e+000
         vertex 5.837615e+000 3.211019e+000 1.000000e+001
         vertex 5.837615e+000 3.211019e+000 3.300175e+000
      endloop
   endfacet
   facet normal 5.972114e-001 -8.020838e-001 0.000000e+000
      outer loop
         vertex 5.837615e+000 3.211019e+000 3.300175e+000
         vertex 5.837615e+000 3.211019e+000 1.000000e+001
         vertex 5.569263e+000 3.023116e+000 1.000000e+001
      endloop
   endfacet
   facet normal 5.494540e-001 -8.355240e-001 0.000000e+000
      outer loop
         vertex 5.837615e+000 3.211019e+000 3.300175e+000
         vertex 5.569263e+000 3.023116e+000 1.000000e+001
         vertex 5.569263e+000 3.023116e+000 3.300175e+000
      endloop
   endfacet
   facet normal 4.488580e-001 -8.936031e-001 0.000000e+000
      outer loop
         vertex 5.569263e+000 3.023116e+000 3.300175e+000
         vertex 5.569263e+000 3.023116e+000 1.000000e+001
         vertex 5.272358e+000 2.884668e+000 1.000000e+001
      endloop
   endfacet
   facet normal 3.960194e-001 -9.182422e-001 0.000000e+000
      outer loop
         vertex 5.569263e+000 3.023116e+000 3.300175e+000
         vertex 5.272358e+000 2.884668e+000 1.000000e+001
         vertex 5.272358e+000 2.884668e+000 3.300175e+000
      endloop
   endfacet
   facet normal 2.868663e-001 -9.579706e-001 0.000000e+000
      outer loop
         vertex 5.272358e+000 2.884668e+000 3.300175e+000
         vertex 5.272358e+000 2.884668e+000 1.000000e+001
         vertex 4.955923e+000 2.799879e+000 1.000000e+001
      endloop
   endfacet
   facet normal 2.305519e-001 -9.730600e-001 0.000000e+000
      outer loop
         vertex 5.272358e+000 2.884668e+000 3.300175e+000
         vertex 4.955923e+000 2.799879e+000 1.000000e+001
         vertex 4.955923e+000 2.799879e+000 3.300175e+000
      endloop
   endfacet
   facet normal 1.161583e-001 -9.932307e-001 0.000000e+000
      outer loop
         vertex 4.955923e+000 2.799879e+000 3.300175e+000
         vertex 4.955923e+000 2.799879e+000 1.000000e+001
         vertex 4.629571e+000 2.771327e+000 1.000000e+001
      endloop
   endfacet
   facet normal 5.807913e-002 -9.983119e-001 0.000000e+000
      outer loop
         vertex 4.955923e+000 2.799879e+000 3.300175e+000
         vertex 4.629571e+000 2.771327e+000 1.000000e+001
         vertex 4.629571e+000 2.771327e+000 3.300175e+000
      endloop
   endfacet
   facet normal -5.807913e-002 -9.983119e-001 0.000000e+000
      outer loop
         vertex 4.629571e+000 2.771327e+000 3.300175e+000
         vertex 4.629571e+000 2.771327e+000 1.000000e+001
         vertex 4.303220e+000 2.799879e+000 1.000000e+001
      endloop
   endfacet
   facet normal -1.161583e-001 -9.932307e-001 0.000000e+000
      outer loop
         vertex 4.629571e+000 2.771327e+000 3.300175e+000
         vertex 4.303220e+000 2.799879e+000 1.000000e+001
         vertex 4.303220e+000 2.799879e+000 3.300175e+000
      endloop
   endfacet
   facet normal -2.305519e-001 -9.730600e-001 0.000000e+000
      outer loop
         vertex 4.303220e+000 2.799879e+000 3.300175e+000
         vertex 4.303220e+000 2.799879e+000 1.000000e+001
         vertex 3.986785e+000 2.884668e+000 1.000000e+001
      endloop
   endfacet
   facet normal -2.868663e-001 -9.579706e-001 0.000000e+000
      outer loop
         vertex 4.303220e+000 2.799879e+000 3.300175e+000
         vertex 3.986785e+000 2.884668e+000 1.000000e+001
         vertex 3.986785e+000 2.884668e+000 3.300175e+000
      endloop
   endfacet
   facet normal -3.960194e-001 -9.182422e-001 0.000000e+000
      outer loop
         vertex 3.986785e+000 2.884668e+000 3.300175e+000
         vertex 3.986785e+000 2.884668e+000 1.000000e+001
         vertex 3.689880e+000 3.023116e+000 1.000000e+001
      endloop
   endfacet
   facet normal -4.488580e-001 -8.936031e-001 0.000000e+000
      outer loop
         vertex 3.986785e+000 2.884668e+000 3.300175e+000
         vertex 3.689880e+000 3.023116e+000 1.000000e+001
         vertex 3.689880e+000 3.023116e+000 3.300175e+000
      endloop
   endfacet
   facet normal -5.494540e-001 -8.355240e-001 0.000000e+000
      outer loop
         vertex 3.689880e+000 3.023116e+000 3.300175e+000
         vertex 3.689880e+000 3.023116e+000 1.000000e+001
         vertex 3.421528e+000 3.211019e+000 1.000000e+001
      endloop
   endfacet
   facet normal -5.972114e-001 -8.020838e-001 0.000000e+000
      outer loop
         vertex 3.689880e+000 3.023116e+000 3.300175e+000
         vertex 3.421528e+000 3.211019e+000 1.000000e+001
         vertex 3.421528e+000 3.211019e+000 3.300175e+000
      endloop
   endfacet
   facet normal -6.861938e-001 -7.274188e-001 0.000000e+000
      outer loop
         vertex 3.421528e+000 3.211019e+000 3.300175e+000
         vertex 3.421528e+000 3.211019e+000 1.000000e+001
         vertex 3.189881e+000 3.442666e+000 1.000000e+001
      endloop
   endfacet
   facet normal -7.274188e-001 -6.861938e-001 0.000000e+000
      outer loop
         vertex 3.421528e+000 3.211019e+000 3.300175e+000
         vertex 3.189881e+000 3.442666e+000 1.000000e+001
         vertex 3.189881e+000 3.442666e+000 3.300175e+000
      endloop
   endfacet
   facet normal -8.020838e-001 -5.972114e-001 0.000000e+000
      outer loop
         vertex 3.189881e+000 3.442666e+000 3.300175e+000
         vertex 3.189881e+000 3.442666e+000 1.000000e+001
         vertex 3.001978e+000 3.711018e+000 1.000000e+001
      endloop
   endfacet
   facet normal -8.355240e-001 -5.494540e-001 0.000000e+000
      outer loop
         vertex 3.189881e+000 3.442666e+000 3.300175e+000
         vertex 3.001978e+000 3.711018e+000 1.000000e+001
         vertex 3.001978e+000 3.711018e+000 3.300175e+000
      endloop
   endfacet
   facet normal -8.936031e-001 -4.488580e-001 0.000000e+000
      outer loop
         vertex 3.001978e+000 3.711018e+000 3.300175e+000
         vertex 3.001978e+000 3.711018e+000 1.000000e+001
         vertex 2.863529e+000 4.007923e+000 1.000000e+001
      endloop
   endfacet
   facet normal -9.182422e-001 -3.960194e-001 0.000000e+000
      outer loop
         vertex 3.001978e+000 3.711018e+000 3.300175e+000
         vertex 2.863529e+000 4.007923e+000 1.000000e+001
         vertex 2.863529e+000 4.007923e+000 3.300175e+000
      endloop
   endfacet
   facet normal -9.579706e-001 -2.868663e-001 0.000000e+000
      outer loop
         vertex 2.863529e+000 4.007923e+000 3.300175e+000
         vertex 2.863529e+000 4.007923e+000 1.000000e+001
         vertex 2.778741e+000 4.324358e+000 1.000000e+001
      endloop
   endfacet
   facet normal -9.730600e-001 -2.305519e-001 0.000000e+000
      outer loop
         vertex 2.863529e+000 4.007923e+000 3.300175e+000
         vertex 2.778741e+000 4.324358e+000 1.000000e+001
         vertex 2.778741e+000 4.324358e+000 3.300175e+000
      endloop
   endfacet
   facet normal -9.932307e-001 -1.161583e-001 0.000000e+000
      outer loop
         vertex 2.778741e+000 4.324358e+000 3.300175e+000
         vertex 2.778741e+000 4.324358e+000 1.000000e+001
         vertex 2.750189e+000 4.650709e+000 1.000000e+001
      endloop
   endfacet
   facet normal -9.983119e-001 -5.807913e-002 0.000000e+000
      outer loop
         vertex 2.778741e+000 4.324358e+000 3.300175e+000
         vertex 2.750189e+000 4.650709e+000 1.000000e+001
         vertex 2.750189e+000 4.650709e+000 3.300175e+000
      endloop
   endfacet
   facet normal -9.983119e-001 5.807913e-002 0.000000e+000
      outer loop
         vertex 2.750189e+000 4.650709e+000 3.300175e+000
         vertex 2.750189e+000 4.650709e+000 1.000000e+001
         vertex 2.778741e+000 4.977061e+000 1.000000e+001
      endloop
   endfacet
   facet normal -9.932307e-001 1.161583e-001 0.000000e+000
      outer loop
         vertex 2.750189e+000 4.650709e+000 3.300175e+000
         vertex 2.778741e+000 4.977061e+000 1.000000e+001
         vertex 2.778741e+000 4.977061e+000 3.300175e+000
      endloop
   endfacet
   facet normal -9.730600e-001 2.305519e-001 0.000000e+000
      outer loop
         vertex 2.778741e+000 4.977061e+000 3.300175e+000
         vertex 2.778741e+000 4.977061e+000 1.000000e+001
         vertex 2.863529e+000 5.293496e+000 1.000000e+001
      endloop
   endfacet
   facet normal -9.579706e-001 2.868663e-001 0.000000e+000
      outer loop
         vertex 2.778741e+000 4.977061e+000 3.300175e+000
         vertex 2.863529e+000 5.293496e+000 1.000000e+001
         vertex 2.863529e+000 5.293496e+000 3.300175e+000
      endloop
   endfacet
   facet normal -9.182422e-001 3.960194e-001 0.000000e+000
      outer loop
         vertex 2.863529e+000 5.293496e+000 3.300175e+000
         vertex 2.863529e+000 5.293496e+000 1.000000e+001
         vertex 3.001978e+000 5.590401e+000 1.000000e+001
      endloop
   endfacet
   facet normal -8.936031e-001 4.488580e-001 0.000000e+000
      outer loop
         vertex 2.863529e+000 5.293496e+000 3.300175e+000
         vertex 3.001978e+000 5.590401e+000 1.000000e+001
         vertex 3.001978e+000 5.590401e+000 3.300175e+000
      endloop
   endfacet
   facet normal -8.355240e-001 5.494540e-001 0.000000e+000
      outer loop
         vertex 3.001978e+000 5.590401e+000 3.300175e+000
         vertex 3.001978e+000 5.590401e+000 1.000000e+001
         vertex 3.189881e+000 5.858753e+000 1.000000e+001
      endloop
   endfacet
   facet normal -8.020838e-001 5.972114e-001 0.000000e+000
      outer loop
         vertex 3.001978e+000 5.590401e+000 3.300175e+000
         vertex 3.189881e+000 5.858753e+000 1.000000e+001
         vertex 3.189881e+000 5.858753e+000 3.300175e+000
      endloop
   endfacet
   facet normal -7.274188e-001 6.861938e-001 0.000000e+000
      outer loop
         vertex 3.189881e+000 5.858753e+000 3.300175e+000
         vertex 3.189881e+000 5.858753e+000 1.000000e+001
         vertex 3.421528e+000 6.090400e+000 1.000000e+001
      endloop
   endfacet
   facet normal -6.861938e-001 7.274188e-001 0.000000e+000
      outer loop
         vertex 3.189881e+000 5.858753e+000 3.300175e+000
         vertex 3.421528e+000 6.090400e+000 1.000000e+001
         vertex 3.421528e+000 6.090400e+000 3.300175e+000
      endloop
   endfacet
   facet normal -5.972114e-001 8.020838e-001 0.000000e+000
      outer loop
         vertex 3.421528e+000 6.090400e+000 3.300175e+000
         vertex 3.421528e+000 6.090400e+000 1.000000e+001
         vertex 3.689880e+000 6.278303e+000 1.000000e+001
      endloop
   endfacet
   facet normal -5.494540e-001 8.355240e-001 0.000000e+000
      outer loop
         vertex 3.421528e+000 6.090400e+000 3.300175e+000
         vertex 3.689880e+000 6.278303e+000 1.000000e+001
         vertex 3.689880e+000 6.278303e+000 3.300175e+000
      endloop
   endfacet
   facet normal -4.488580e-001 8.936031e-001 0.000000e+000
      outer loop
         vertex 3.689880e+000 6.278303e+000 3.300175e+000
         vertex 3.689880e+000 6.278303e+000 1.000000e+001
         vertex 3.986785e+000 6.416751e+000 1.000000e+001
      endloop
   endfacet
   facet normal -3.960194e-001 9.182422e-001 0.000000e+000
      outer loop
         vertex 3.689880e+000 6.278303e+000 3.300175e+000
         vertex 3.986785e+000 6.416751e+000 1.000000e+001
         vertex 3.986785e+000 6.416751e+000 3.300175e+000
      endloop
   endfacet
   facet normal -2.868663e-001 9.579706e-001 0.000000e+000
      outer loop
         vertex 3.986785e+000 6.416751e+000 3.300175e+000
         vertex 3.986785e+000 6.416751e+000 1.000000e+001
         vertex 4.303220e+000 6.501540e+000 1.000000e+001
      endloop
   endfacet
   facet normal -2.305519e-001 9.730600e-001 0.000000e+000
      outer loop
         vertex 3.986785e+000 6.416751e+000 3.300175e+000
         vertex 4.303220e+000 6.501540e+000 1.000000e+001
         vertex 4.303220e+000 6.501540e+000 3.300175e+000
      endloop
   endfacet
   facet normal -1.161583e-001 9.932307e-001 0.000000e+000
      outer loop
         vertex 4.303220e+000 6.501540e+000 3.300175e+000
         vertex 4.303220e+000 6.501540e+000 1.000000e+001
         vertex 4.629571e+000 6.530092e+000 1.000000e+001
      endloop
   endfacet
   facet normal -5.807913e-002 9.983119e-001 0.000000e+000
      outer loop
         vertex 4.303220e+000 6.501540e+000 3.300175e+000
         vertex 4.629571e+000 6.530092e+000 1.000000e+001
         vertex 4.629571e+000 6.530092e+000 3.300175e+000
      endloop
   endfacet
   facet normal 5.807913e-002 9.983119e-001 0.000000e+000
      outer loop
         vertex 4.629571e+000 6.530092e+000 3.300175e+000
         vertex 4.629571e+000 6.530092e+000 1.000000e+001
         vertex 4.955923e+000 6.501540e+000 1.000000e+001
      endloop
   endfacet
   facet normal 1.161583e-001 9.932307e-001 0.000000e+000
      outer loop
         vertex 4.629571e+000 6.530092e+000 3.300175e+000
         vertex 4.955923e+000 6.501540e+000 1.000000e+001
         vertex 4.955923e+000 6.501540e+000 3.300175e+000
      endloop
   endfacet
   facet normal 2.305519e-001 9.730600e-001 0.000000e+000
      outer loop
         vertex 4.955923e+000 6.501540e+000 3.300175e+000
         vertex 4.955923e+000 6.501540e+000 1.000000e+001
         vertex 5.272358e+000 6.416751e+000 1.000000e+001
      endloop
   endfacet
   facet normal 2.868663e-001 9.579706e-001 0.000000e+000
      outer loop
         vertex 4.955923e+000 6.501540e+000 3.300175e+000
         vertex 5.272358e+000 6.416751e+000 1.000000e+001
         vertex 5.272358e+000 6.416751e+000 3.300175e+000
      endloop
   endfacet
   facet normal 3.960194e-001 9.182422e-001 0.000000e+000
      outer loop
         vertex 5.272358e+000 6.416751e+000 3.300175e+000
         vertex 5.272358e+000 6.416751e+000 1.000000e+001
         vertex 5.569263e+000 6.278303e+000 1.000000e+001
      endloop
   endfacet
   facet normal 4.488580e-001 8.936031e-001 0.000000e+000
      outer loop
         vertex 5.272358e+000 6.416751e+000 3.300175e+000
         vertex 5.569263e+000 6.278303e+000 1.000000e+001
         vertex 5.569263e+000 6.278303e+000 3.300175e+000
      endloop
   endfacet
   facet normal 5.494540e-001 8.355240e-001 0.000000e+000
      outer loop
         vertex 5.569263e+000 6.278303e+000 3.300175e+000
         vertex 5.569263e+000 6.278303e+000 1.000000e+001
         vertex 5.837615e+000 6.090400e+000 1.000000e+001
      endloop
   endfacet
   facet normal 5.972114e-001 8.020838e-001 0.000000e+000
      outer loop
         vertex 5.569263e+000 6.278303e+000 3.300175e+000
         vertex 5.837615e+000 6.090400e+000 1.000000e+001
         vertex 5.837615e+000 6.090400e+000 3.300175e+000
      endloop
   endfacet
   facet normal 6.861938e-001 7.274188e-001 0.000000e+000
      outer loop
         vertex 5.837615e+000 6.090400e+000 3.300175e+000
         vertex 5.837615e+000 6.090400e+000 1.000000e+001
         vertex 6.069262e+000 5.858753e+000 1.000000e+001
      endloop
   endfacet
   facet normal 7.274188e-001 6.861938e-001 0.000000e+000
      outer loop
         vertex 5.837615e+000 6.090400e+000 3.300175e+000
         vertex 6.069262e+000 5.858753e+000 1.000000e+001
         vertex 6.069262e+000 5.858753e+000 3.300175e+000
      endloop
   endfacet
   facet normal 8.020838e-001 5.972114e-001 0.000000e+000
      outer loop
         vertex 6.069262e+000 5.858753e+000 3.300175e+000
         vertex 6.069262e+000 5.858753e+000 1.000000e+001
         vertex 6.257164e+000 5.590401e+000 1.000000e+001
      endloop
   endfacet
   facet normal 8.355240e-001 5.494540e-001 0.000000e+000
      outer loop
         vertex 6.069262e+000 5.858753e+000 3.300175e+000
         vertex 6.257164e+000 5.590401e+000 1.000000e+001
         vertex 6.257164e+000 5.590401e+000 3.300175e+000
      endloop
   endfacet
   facet normal 8.936031e-001 4.488580e-001 0.000000e+000
      outer loop
         vertex 6.257164e+000 5.590401e+000 3.300175e+000
         vertex 6.257164e+000 5.590401e+000 1.000000e+001
         vertex 6.395613e+000 5.293496e+000 1.000000e+001
      endloop
   endfacet
   facet normal 9.182422e-001 3.960194e-001 0.000000e+000
      outer loop
         vertex 6.257164e+000 5.590401e+000 3.300175e+000
         vertex 6.395613e+000 5.293496e+000 1.000000e+001
         vertex 6.395613e+000 5.293496e+000 3.300175e+000
      endloop
   endfacet
   facet normal 9.579706e-001 2.868663e-001 0.000000e+000
      outer loop
         vertex 6.395613e+000 5.293496e+000 3.300175e+000
         vertex 6.395613e+000 5.293496e+000 1.000000e+001
         vertex 6.480402e+000 4.977061e+000 1.000000e+001
      endloop
   endfacet
   facet normal 9.730600e-001 2.305519e-001 0.000000e+000
      outer loop
         vertex 6.395613e+000 5.293496e+000 3.300175e+000
         vertex 6.480402e+000 4.977061e+000 1.000000e+001
         vertex 6.480402e+000 4.977061e+000 3.300175e+000
      endloop
   endfacet
   facet normal 9.932307e-001 1.161583e-001 0.000000e+000
      outer loop
         vertex 6.480402e+000 4.977061e+000 3.300175e+000
         vertex 6.480402e+000 4.977061e+000 1.000000e+001
         vertex 6.508954e+000 4.650709e+000 1.000000e+001
      endloop
   endfacet
   facet normal 0.000000e+000 0.000000e+000 1.000000e+000
      outer loop
         vertex 3.986785e+000 2.884668e+000 1.000000e+001
         vertex 5.837615e+000 6.090400e+000 1.000000e+001
         vertex 3.689880e+000 3.023116e+000 1.000000e+001
      endloop
   endfacet
   facet normal 0.000000e+000 0.000000e+000 1.000000e+000
      outer loop
         vertex 3.689880e+000 3.023116e+000 1.000000e+001
         vertex 5.837615e+000 6.090400e+000 1.000000e+001
         vertex 3.421528e+000 3.211019e+000 1.000000e+001
      endloop
   endfacet
   facet normal 0.000000e+000 0.000000e+000 1.000000e+000
      outer loop
         vertex 2.863529e+000 5.293496e+000 1.000000e+001
         vertex 2.778741e+000 4.977061e+000 1.000000e+001
         vertex 5.837615e+000 6.090400e+000 1.000000e+001
      endloop
   endfacet
   facet normal 0.000000e+000 0.000000e+000 1.000000e+000
      outer loop
         vertex 3.986785e+000 6.416751e+000 1.000000e+001
         vertex 3.689880e+000 6.278303e+000 1.000000e+001
         vertex 3.421528e+000 6.090400e+000 1.000000e+001
      endloop
   endfacet
   facet normal 0.000000e+000 0.000000e+000 1.000000e+000
      outer loop
         vertex 2.863529e+000 5.293496e+000 1.000000e+001
         vertex 5.837615e+000 6.090400e+000 1.000000e+001
         vertex 3.001978e+000 5.590401e+000 1.000000e+001
      endloop
   endfacet
   facet normal 0.000000e+000 0.000000e+000 1.000000e+000
      outer loop
         vertex 3.986785e+000 2.884668e+000 1.000000e+001
         vertex 4.303220e+000 2.799879e+000 1.000000e+001
         vertex 5.837615e+000 6.090400e+000 1.000000e+001
      endloop
   endfacet
   facet normal 0.000000e+000 0.000000e+000 1.000000e+000
      outer loop
         vertex 5.837615e+000 6.090400e+000 1.000000e+001
         vertex 4.303220e+000 2.799879e+000 1.000000e+001
         vertex 4.629571e+000 2.771327e+000 1.000000e+001
      endloop
   endfacet
   facet normal 0.000000e+000 0.000000e+000 1.000000e+000
      outer loop
         vertex 5.837615e+000 6.090400e+000 1.000000e+001
         vertex 4.629571e+000 2.771327e+000 1.000000e+001
         vertex 6.069262e+000 5.858753e+000 1.000000e+001
      endloop
   endfacet
   facet normal 0.000000e+000 0.000000e+000 1.000000e+000
      outer loop
         vertex 6.069262e+000 5.858753e+000 1.000000e+001
         vertex 4.629571e+000 2.771327e+000 1.000000e+001
         vertex 6.257164e+000 5.590401e+000 1.000000e+001
      endloop
   endfacet
   facet normal 0.000000e+000 0.000000e+000 1.000000e+000
      outer loop
         vertex 3.001978e+000 5.590401e+000 1.000000e+001
         vertex 5.837615e+000 6.090400e+000 1.000000e+001
         vertex 3.189881e+000 5.858753e+000 1.000000e+001
      endloop
   endfacet
   facet normal 0.000000e+000 0.000000e+000 1.000000e+000
      outer loop
         vertex 3.189881e+000 5.858753e+000 1.000000e+001
         vertex 5.837615e+000 6.090400e+000 1.000000e+001
         vertex 5.569263e+000 6.278303e+000 1.000000e+001
      endloop
   endfacet
   facet normal 0.000000e+000 0.000000e+000 1.000000e+000
      outer loop
         vertex 3.189881e+000 5.858753e+000 1.000000e+001
         vertex 5.569263e+000 6.278303e+000 1.000000e+001
         vertex 5.272358e+000 6.416751e+000 1.000000e+001
      endloop
   endfacet
   facet normal 0.000000e+000 0.000000e+000 1.000000e+000
      outer loop
         vertex 5.272358e+000 6.416751e+000 1.000000e+001
         vertex 4.955923e+000 6.501540e+000 1.000000e+001
         vertex 3.189881e+000 5.858753e+000 1.000000e+001
      endloop
   endfacet
   facet normal 0.000000e+000 0.000000e+000 1.000000e+000
      outer loop
         vertex 3.189881e+000 5.858753e+000 1.000000e+001
         vertex 4.955923e+000 6.501540e+000 1.000000e+001
         vertex 4.629571e+000 6.530092e+000 1.000000e+001
      endloop
   endfacet
   facet normal 0.000000e+000 0.000000e+000 1.000000e+000
      outer loop
         vertex 3.189881e+000 5.858753e+000 1.000000e+001
         vertex 4.629571e+000 6.530092e+000 1.000000e+001
         vertex 3.421528e+000 6.090400e+000 1.000000e+001
      endloop
   endfacet
   facet normal 0.000000e+000 0.000000e+000 1.000000e+000
      outer loop
         vertex 3.421528e+000 6.090400e+000 1.000000e+001
         vertex 4.629571e+000 6.530092e+000 1.000000e+001
         vertex 4.303220e+000 6.501540e+000 1.000000e+001
      endloop
   endfacet
   facet normal 0.000000e+000 0.000000e+000 1.000000e+000
      outer loop
         vertex 3.421528e+000 6.090400e+000 1.000000e+001
         vertex 4.303220e+000 6.501540e+000 1.000000e+001
         vertex 3.986785e+000 6.416751e+000 1.000000e+001
      endloop
   endfacet
   facet normal 0.000000e+000 0.000000e+000 1.000000e+000
      outer loop
         vertex 2.778741e+000 4.977061e+000 1.000000e+001
         vertex 2.750189e+000 4.650709e+000 1.000000e+001
         vertex 5.837615e+000 6.090400e+000 1.000000e+001
      endloop
   endfacet
   facet normal 0.000000e+000 0.000000e+000 1.000000e+000
      outer loop
         vertex 5.837615e+000 6.090400e+000 1.000000e+001
         vertex 2.750189e+000 4.650709e+000 1.000000e+001
         vertex 2.778741e+000 4.324358e+000 1.000000e+001
      endloop
   endfacet
   facet normal 0.000000e+000 0.000000e+000 1.000000e+000
      outer loop
         vertex 5.837615e+000 6.090400e+000 1.000000e+001
         vertex 2.778741e+000 4.324358e+000 1.000000e+001
         vertex 2.863529e+000 4.007923e+000 1.000000e+001
      endloop
   endfacet
   facet normal 0.000000e+000 0.000000e+000 1.000000e+000
      outer loop
         vertex 2.863529e+000 4.007923e+000 1.000000e+001
         vertex 3.001978e+000 3.711018e+000 1.000000e+001
         vertex 5.837615e+000 6.090400e+000 1.000000e+001
      endloop
   endfacet
   facet normal 0.000000e+000 0.000000e+000 1.000000e+000
      outer loop
         vertex 5.837615e+000 6.090400e+000 1.000000e+001
         vertex 3.001978e+000 3.711018e+000 1.000000e+001
         vertex 3.189881e+000 3.442666e+000 1.000000e+001
      endloop
   endfacet
   facet normal 0.000000e+000 0.000000e+000 1.000000e+000
      outer loop
         vertex 5.837615e+000 6.090400e+000 1.000000e+001
         vertex 3.189881e+000 3.442666e+000 1.000000e+001
         vertex 3.421528e+000 3.211019e+000 1.000000e+001
      endloop
   endfacet
   facet normal 0.000000e+000 0.000000e+000 1.000000e+000
      outer loop
         vertex 4.629571e+000 2.771327e+000 1.000000e+001
         vertex 6.480402e+000 4.324358e+000 1.000000e+001
         vertex 6.508954e+000 4.650709e+000 1.000000e+001
      endloop
   endfacet
   facet normal 0.000000e+000 0.000000e+000 1.000000e+000
      outer loop
         vertex 6.069262e+000 3.442666e+000 1.000000e+001
         vertex 4.629571e+000 2.771327e+000 1.000000e+001
         vertex 4.955923e+000 2.799879e+000 1.000000e+001
      endloop
   endfacet
   facet normal 0.000000e+000 0.000000e+000 1.000000e+000
      outer loop
         vertex 6.069262e+000 3.442666e+000 1.000000e+001
         vertex 6.257164e+000 3.711018e+000 1.000000e+001
         vertex 4.629571e+000 2.771327e+000 1.000000e+001
      endloop
   endfacet
   facet normal 0.000000e+000 0.000000e+000 1.000000e+000
      outer loop
         vertex 4.629571e+000 2.771327e+000 1.000000e+001
         vertex 6.257164e+000 3.711018e+000 1.000000e+001
         vertex 6.395613e+000 4.007923e+000 1.000000e+001
      endloop
   endfacet
   facet normal 0.000000e+000 0.000000e+000 1.000000e+000
      outer loop
         vertex 4.629571e+000 2.771327e+000 1.000000e+001
         vertex 6.395613e+000 4.007923e+000 1.000000e+001
         vertex 6.480402e+000 4.324358e+000 1.000000e+001
      endloop
   endfacet
   facet normal 0.000000e+000 0.000000e+000 1.000000e+000
      outer loop
         vertex 6.508954e+000 4.650709e+000 1.000000e+001
         vertex 6.480402e+000 4.977061e+000 1.000000e+001
         vertex 4.629571e+000 2.771327e+000 1.000000e+001
      endloop
   endfacet
   facet normal 0.000000e+000 0.000000e+000 1.000000e+000
      outer loop
         vertex 4.629571e+000 2.771327e+000 1.000000e+001
         vertex 6.480402e+000 4.977061e+000 1.000000e+001
         vertex 6.395613e+000 5.293496e+000 1.000000e+001
      endloop
   endfacet
   facet normal 0.000000e+000 0.000000e+000 1.000000e+000
      outer loop
         vertex 4.629571e+000 2.771327e+000 1.000000e+001
         vertex 6.395613e+000 5.293496e+000 1.000000e+001
         vertex 6.257164e+000 5.590401e+000 1.000000e+001
      endloop
   endfacet
   facet normal 0.000000e+000 0.000000e+000 1.000000e+000
      outer loop
         vertex 4.955923e+000 2.799879e+000 1.000000e+001
         vertex 5.272358e+000 2.884668e+000 1.000000e+001
         vertex 6.069262e+000 3.442666e+000 1.000000e+001
      endloop
   endfacet
   facet normal 0.000000e+000 0.000000e+000 1.000000e+000
      outer loop
         vertex 6.069262e+000 3.442666e+000 1.000000e+001
         vertex 5.272358e+000 2.884668e+000 1.000000e+001
         vertex 5.569263e+000 3.023116e+000 1.000000e+001
      endloop
   endfacet
   facet normal 0.000000e+000 0.000000e+000 1.000000e+000
      outer loop
         vertex 6.069262e+000 3.442666e+000 1.000000e+001
         vertex 5.569263e+000 3.023116e+000 1.000000e+001
         vertex 5.837615e+000 3.211019e+000 1.000000e+001
      endloop
   endfacet
endsolid