solid 0_580
   facet normal -1.000000e+000 0.000000e+000 0.000000e+000
      outer loop
         vertex 0.000000e+000 1.000000e+001 1.000000e+001
         vertex 0.000000e+000 1.000000e+001 0.000000e+000
         vertex 0.000000e+000 0.000000e+000 1.000000e+001
      endloop
   endfacet
   facet normal -1.000000e+000 0.000000e+000 0.000000e+000
      outer loop
         vertex 0.000000e+000 0.000000e+000 1.000000e+001
         vertex 0.000000e+000 1.000000e+001 0.000000e+000
         vertex 0.000000e+000 0.000000e+000 0.000000e+000
      endloop
   endfacet
   facet normal 0.000000e+000 0.000000e+000 1.000000e+000
      outer loop
         vertex 6.474077e+000 5.569246e+000 1.000000e+001
         vertex 6.702773e+000 5.340549e+000 1.000000e+001
         vertex 1.000000e+001 1.000000e+001 1.000000e+001
      endloop
   endfacet
   facet normal 0.000000e+000 0.000000e+000 1.000000e+000
      outer loop
         vertex 1.000000e+001 1.000000e+001 1.000000e+001
         vertex 6.702773e+000 5.340549e+000 1.000000e+001
         vertex 6.888282e+000 5.075615e+000 1.000000e+001
      endloop
   endfacet
   facet normal 0.000000e+000 0.000000e+000 1.000000e+000
      outer loop
         vertex 4.646821e+000 5.891440e+000 1.000000e+001
         vertex 4.959225e+000 5.975149e+000 1.000000e+001
         vertex 0.000000e+000 1.000000e+001 1.000000e+001
      endloop
   endfacet
   facet normal 0.000000e+000 0.000000e+000 1.000000e+000
      outer loop
         vertex 6.888282e+000 5.075615e+000 1.000000e+001
         vertex 7.024968e+000 4.782492e+000 1.000000e+001
         vertex 1.000000e+001 1.000000e+001 1.000000e+001
      endloop
   endfacet
   facet normal 0.000000e+000 0.000000e+000 1.000000e+000
      outer loop
         vertex 1.000000e+001 1.000000e+001 1.000000e+001
         vertex 7.024968e+000 4.782492e+000 1.000000e+001
         vertex 7.108676e+000 4.470088e+000 1.000000e+001
      endloop
   endfacet
   facet normal 0.000000e+000 0.000000e+000 1.000000e+000
      outer loop
         vertex 1.000000e+001 1.000000e+001 1.000000e+001
         vertex 7.108676e+000 4.470088e+000 1.000000e+001
         vertex 1.000000e+001 0.000000e+000 1.000000e+001
      endloop
   endfacet
   facet normal 0.000000e+000 0.000000e+000 1.000000e+000
      outer loop
         vertex 1.000000e+001 0.000000e+000 1.000000e+001
         vertex 7.108676e+000 4.470088e+000 1.000000e+001
         vertex 7.136865e+000 4.147893e+000 1.000000e+001
      endloop
   endfacet
   facet normal 0.000000e+000 0.000000e+000 1.000000e+000
      outer loop
         vertex 1.000000e+001 0.000000e+000 1.000000e+001
         vertex 7.136865e+000 4.147893e+000 1.000000e+001
         vertex 7.108676e+000 3.825698e+000 1.000000e+001
      endloop
   endfacet
   facet normal 0.000000e+000 0.000000e+000 1.000000e+000
      outer loop
         vertex 0.000000e+000 1.000000e+001 1.000000e+001
         vertex 4.959225e+000 5.975149e+000 1.000000e+001
         vertex 1.000000e+001 1.000000e+001 1.000000e+001
      endloop
   endfacet
   facet normal 0.000000e+000 0.000000e+000 1.000000e+000
      outer loop
         vertex 1.000000e+001 1.000000e+001 1.000000e+001
         vertex 4.959225e+000 5.975149e+000 1.000000e+001
         vertex 5.281420e+000 6.003337e+000 1.000000e+001
      endloop
   endfacet
   facet normal 0.000000e+000 0.000000e+000 1.000000e+000
      outer loop
         vertex 1.000000e+001 1.000000e+001 1.000000e+001
         vertex 5.281420e+000 6.003337e+000 1.000000e+001
         vertex 5.603614e+000 5.975149e+000 1.000000e+001
      endloop
   endfacet
   facet normal 0.000000e+000 0.000000e+000 1.000000e+000
      outer loop
         vertex 7.108676e+000 3.825698e+000 1.000000e+001
         vertex 7.024968e+000 3.513293e+000 1.000000e+001
         vertex 1.000000e+001 0.000000e+000 1.000000e+001
      endloop
   endfacet
   facet normal 0.000000e+000 0.000000e+000 1.000000e+000
      outer loop
         vertex 1.000000e+001 0.000000e+000 1.000000e+001
         vertex 7.024968e+000 3.513293e+000 1.000000e+001
         vertex 6.888282e+000 3.220170e+000 1.000000e+001
      endloop
   endfacet
   facet normal 0.000000e+000 0.000000e+000 1.000000e+000
      outer loop
         vertex 1.000000e+001 0.000000e+000 1.000000e+001
         vertex 6.888282e+000 3.220170e+000 1.000000e+001
         vertex 6.702773e+000 2.955236e+000 1.000000e+001
      endloop
   endfacet
   facet normal 0.000000e+000 0.000000e+000 1.000000e+000
      outer loop
         vertex 6.702773e+000 2.955236e+000 1.000000e+001
         vertex 6.474077e+000 2.726540e+000 1.000000e+001
         vertex 1.000000e+001 0.000000e+000 1.000000e+001
      endloop
   endfacet
   facet normal 0.000000e+000 0.000000e+000 1.000000e+000
      outer loop
         vertex 1.000000e+001 0.000000e+000 1.000000e+001
         vertex 6.474077e+000 2.726540e+000 1.000000e+001
         vertex 6.209142e+000 2.541031e+000 1.000000e+001
      endloop
   endfacet
   facet normal 0.000000e+000 0.000000e+000 1.000000e+000
      outer loop
         vertex 1.000000e+001 0.000000e+000 1.000000e+001
         vertex 6.209142e+000 2.541031e+000 1.000000e+001
         vertex 5.916019e+000 2.404345e+000 1.000000e+001
      endloop
   endfacet
   facet normal 0.000000e+000 0.000000e+000 1.000000e+000
      outer loop
         vertex 5.603614e+000 5.975149e+000 1.000000e+001
         vertex 5.916019e+000 5.891440e+000 1.000000e+001
         vertex 1.000000e+001 1.000000e+001 1.000000e+001
      endloop
   endfacet
   facet normal 0.000000e+000 0.000000e+000 1.000000e+000
      outer loop
         vertex 1.000000e+001 1.000000e+001 1.000000e+001
         vertex 5.916019e+000 5.891440e+000 1.000000e+001
         vertex 6.209142e+000 5.754755e+000 1.000000e+001
      endloop
   endfacet
   facet normal 0.000000e+000 0.000000e+000 1.000000e+000
      outer loop
         vertex 1.000000e+001 1.000000e+001 1.000000e+001
         vertex 6.209142e+000 5.754755e+000 1.000000e+001
         vertex 6.474077e+000 5.569246e+000 1.000000e+001
      endloop
   endfacet
   facet normal 0.000000e+000 0.000000e+000 1.000000e+000
      outer loop
         vertex 5.916019e+000 2.404345e+000 1.000000e+001
         vertex 5.603614e+000 2.320637e+000 1.000000e+001
         vertex 1.000000e+001 0.000000e+000 1.000000e+001
      endloop
   endfacet
   facet normal 0.000000e+000 0.000000e+000 1.000000e+000
      outer loop
         vertex 1.000000e+001 0.000000e+000 1.000000e+001
         vertex 5.603614e+000 2.320637e+000 1.000000e+001
         vertex 5.281420e+000 2.292448e+000 1.000000e+001
      endloop
   endfacet
   facet normal 0.000000e+000 0.000000e+000 1.000000e+000
      outer loop
         vertex 1.000000e+001 0.000000e+000 1.000000e+001
         vertex 5.281420e+000 2.292448e+000 1.000000e+001
         vertex 0.000000e+000 0.000000e+000 1.000000e+001
      endloop
   endfacet
   facet normal 0.000000e+000 0.000000e+000 1.000000e+000
      outer loop
         vertex 0.000000e+000 0.000000e+000 1.000000e+001
         vertex 5.281420e+000 2.292448e+000 1.000000e+001
         vertex 4.959225e+000 2.320637e+000 1.000000e+001
      endloop
   endfacet
   facet normal 0.000000e+000 0.000000e+000 1.000000e+000
      outer loop
         vertex 4.959225e+000 2.320637e+000 1.000000e+001
         vertex 4.646821e+000 2.404345e+000 1.000000e+001
         vertex 0.000000e+000 0.000000e+000 1.000000e+001
      endloop
   endfacet
   facet normal 0.000000e+000 0.000000e+000 1.000000e+000
      outer loop
         vertex 0.000000e+000 0.000000e+000 1.000000e+001
         vertex 4.646821e+000 2.404345e+000 1.000000e+001
         vertex 4.353697e+000 2.541031e+000 1.000000e+001
      endloop
   endfacet
   facet normal 0.000000e+000 0.000000e+000 1.000000e+000
      outer loop
         vertex 0.000000e+000 0.000000e+000 1.000000e+001
         vertex 4.353697e+000 2.541031e+000 1.000000e+001
         vertex 4.088763e+000 2.726540e+000 1.000000e+001
      endloop
   endfacet
   facet normal 0.000000e+000 0.000000e+000 1.000000e+000
      outer loop
         vertex 3.537872e+000 4.782492e+000 1.000000e+001
         vertex 3.674557e+000 5.075615e+000 1.000000e+001
         vertex 0.000000e+000 1.000000e+001 1.000000e+001
      endloop
   endfacet
   facet normal 0.000000e+000 0.000000e+000 1.000000e+000
      outer loop
         vertex 0.000000e+000 1.000000e+001 1.000000e+001
         vertex 3.674557e+000 5.075615e+000 1.000000e+001
         vertex 3.860067e+000 5.340549e+000 1.000000e+001
      endloop
   endfacet
   facet normal 0.000000e+000 0.000000e+000 1.000000e+000
      outer loop
         vertex 4.088763e+000 2.726540e+000 1.000000e+001
         vertex 3.860067e+000 2.955236e+000 1.000000e+001
         vertex 0.000000e+000 0.000000e+000 1.000000e+001
      endloop
   endfacet
   facet normal 0.000000e+000 0.000000e+000 1.000000e+000
      outer loop
         vertex 0.000000e+000 0.000000e+000 1.000000e+001
         vertex 3.860067e+000 2.955236e+000 1.000000e+001
         vertex 3.674557e+000 3.220170e+000 1.000000e+001
      endloop
   endfacet
   facet normal 0.000000e+000 0.000000e+000 1.000000e+000
      outer loop
         vertex 0.000000e+000 0.000000e+000 1.000000e+001
         vertex 3.674557e+000 3.220170e+000 1.000000e+001
         vertex 3.537872e+000 3.513293e+000 1.000000e+001
      endloop
   endfacet
   facet normal 0.000000e+000 0.000000e+000 1.000000e+000
      outer loop
         vertex 3.537872e+000 3.513293e+000 1.000000e+001
         vertex 3.454164e+000 3.825698e+000 1.000000e+001
         vertex 0.000000e+000 0.000000e+000 1.000000e+001
      endloop
   endfacet
   facet normal 0.000000e+000 0.000000e+000 1.000000e+000
      outer loop
         vertex 0.000000e+000 0.000000e+000 1.000000e+001
         vertex 3.454164e+000 3.825698e+000 1.000000e+001
         vertex 3.425975e+000 4.147893e+000 1.000000e+001
      endloop
   endfacet
   facet normal 0.000000e+000 0.000000e+000 1.000000e+000
      outer loop
         vertex 0.000000e+000 0.000000e+000 1.000000e+001
         vertex 3.425975e+000 4.147893e+000 1.000000e+001
         vertex 0.000000e+000 1.000000e+001 1.000000e+001
      endloop
   endfacet
   facet normal 0.000000e+000 0.000000e+000 1.000000e+000
      outer loop
         vertex 0.000000e+000 1.000000e+001 1.000000e+001
         vertex 3.425975e+000 4.147893e+000 1.000000e+001
         vertex 3.454164e+000 4.470088e+000 1.000000e+001
      endloop
   endfacet
   facet normal 0.000000e+000 0.000000e+000 1.000000e+000
      outer loop
         vertex 0.000000e+000 1.000000e+001 1.000000e+001
         vertex 3.454164e+000 4.470088e+000 1.000000e+001
         vertex 3.537872e+000 4.782492e+000 1.000000e+001
      endloop
   endfacet
   facet normal 0.000000e+000 0.000000e+000 1.000000e+000
      outer loop
         vertex 3.860067e+000 5.340549e+000 1.000000e+001
         vertex 4.088763e+000 5.569246e+000 1.000000e+001
         vertex 0.000000e+000 1.000000e+001 1.000000e+001
      endloop
   endfacet
   facet normal 0.000000e+000 0.000000e+000 1.000000e+000
      outer loop
         vertex 0.000000e+000 1.000000e+001 1.000000e+001
         vertex 4.088763e+000 5.569246e+000 1.000000e+001
         vertex 4.353697e+000 5.754755e+000 1.000000e+001
      endloop
   endfacet
   facet normal 0.000000e+000 0.000000e+000 1.000000e+000
      outer loop
         vertex 0.000000e+000 1.000000e+001 1.000000e+001
         vertex 4.353697e+000 5.754755e+000 1.000000e+001
         vertex 4.646821e+000 5.891440e+000 1.000000e+001
      endloop
   endfacet
   facet normal 1.000000e+000 0.000000e+000 0.000000e+000
      outer loop
         vertex 1.000000e+001 1.000000e+001 0.000000e+000
         vertex 1.000000e+001 1.000000e+001 1.000000e+001
         vertex 1.000000e+001 0.000000e+000 0.000000e+000
      endloop
   endfacet
   facet normal 1.000000e+000 0.000000e+000 0.000000e+000
      outer loop
         vertex 1.000000e+001 0.000000e+000 0.000000e+000
         vertex 1.000000e+001 1.000000e+001 1.000000e+001
         vertex 1.000000e+001 0.000000e+000 1.000000e+001
      endloop
   endfacet
   facet normal 0.000000e+000 0.000000e+000 -1.000000e+000
      outer loop
         vertex 0.000000e+000 1.000000e+001 0.000000e+000
         vertex 1.000000e+001 1.000000e+001 0.000000e+000
         vertex 0.000000e+000 0.000000e+000 0.000000e+000
      endloop
   endfacet
   facet normal 0.000000e+000 0.000000e+000 -1.000000e+000
      outer loop
         vertex 0.000000e+000 0.000000e+000 0.000000e+000
         vertex 1.000000e+001 1.000000e+001 0.000000e+000
         vertex 1.000000e+001 0.000000e+000 0.000000e+000
      endloop
   endfacet
   facet normal 0.000000e+000 1.000000e+000 0.000000e+000
      outer loop
         vertex 1.000000e+001 1.000000e+001 1.000000e+001
         vertex 1.000000e+001 1.000000e+001 0.000000e+000
         vertex 0.000000e+000 1.000000e+001 1.000000e+001
      endloop
   endfacet
   facet normal 0.000000e+000 1.000000e+000 0.000000e+000
      outer loop
         vertex 0.000000e+000 1.000000e+001 1.000000e+001
         vertex 1.000000e+001 1.000000e+001 0.000000e+000
         vertex 0.000000e+000 1.000000e+001 0.000000e+000
      endloop
   endfacet
   facet normal 0.000000e+000 -1.000000e+000 0.000000e+000
      outer loop
         vertex 1.000000e+001 0.000000e+000 0.000000e+000
         vertex 1.000000e+001 0.000000e+000 1.000000e+001
         vertex 0.000000e+000 0.000000e+000 0.000000e+000
      endloop
   endfacet
   facet normal 0.000000e+000 -1.000000e+000 0.000000e+000
      outer loop
         vertex 0.000000e+000 0.000000e+000 0.000000e+000
         vertex 1.000000e+001 0.000000e+000 1.000000e+001
         vertex 0.000000e+000 0.000000e+000 1.000000e+001
      endloop
   endfacet
   facet normal -9.983119e-001 5.807913e-002 0.000000e+000
      outer loop
         vertex 7.108676e+000 3.825698e+000 1.557925e+000
         vertex 7.136865e+000 4.147893e+000 1.000000e+001
         vertex 7.136865e+000 4.147893e+000 1.557925e+000
      endloop
   endfacet
   facet normal -9.983119e-001 -5.807913e-002 0.000000e+000
      outer loop
         vertex 7.136865e+000 4.147893e+000 1.557925e+000
         vertex 7.136865e+000 4.147893e+000 1.000000e+001
         vertex 7.108676e+000 4.470088e+000 1.000000e+001
      endloop
   endfacet
   facet normal -9.932307e-001 -1.161583e-001 0.000000e+000
      outer loop
         vertex 7.136865e+000 4.147893e+000 1.557925e+000
         vertex 7.108676e+000 4.470088e+000 1.000000e+001
         vertex 7.108676e+000 4.470088e+000 1.557925e+000
      endloop
   endfacet
   facet normal -9.730600e-001 -2.305519e-001 0.000000e+000
      outer loop
         vertex 7.108676e+000 4.470088e+000 1.557925e+000
         vertex 7.108676e+000 4.470088e+000 1.000000e+001
         vertex 7.024968e+000 4.782492e+000 1.000000e+001
      endloop
   endfacet
   facet normal -9.579706e-001 -2.868663e-001 0.000000e+000
      outer loop
         vertex 7.108676e+000 4.470088e+000 1.557925e+000
         vertex 7.024968e+000 4.782492e+000 1.000000e+001
         vertex 7.024968e+000 4.782492e+000 1.557925e+000
      endloop
   endfacet
   facet normal -9.182422e-001 -3.960194e-001 0.000000e+000
      outer loop
         vertex 7.024968e+000 4.782492e+000 1.557925e+000
         vertex 7.024968e+000 4.782492e+000 1.000000e+001
         vertex 6.888282e+000 5.075615e+000 1.000000e+001
      endloop
   endfacet
   facet normal -8.936031e-001 -4.488580e-001 0.000000e+000
      outer loop
         vertex 7.024968e+000 4.782492e+000 1.557925e+000
         vertex 6.888282e+000 5.075615e+000 1.000000e+001
         vertex 6.888282e+000 5.075615e+000 1.557925e+000
      endloop
   endfacet
   facet normal -8.355240e-001 -5.494540e-001 0.000000e+000
      outer loop
         vertex 6.888282e+000 5.075615e+000 1.557925e+000
         vertex 6.888282e+000 5.075615e+000 1.000000e+001
         vertex 6.702773e+000 5.340549e+000 1.000000e+001
      endloop
   endfacet
   facet normal -8.020838e-001 -5.972114e-001 0.000000e+000
      outer loop
         vertex 6.888282e+000 5.075615e+000 1.557925e+000
         vertex 6.702773e+000 5.340549e+000 1.000000e+001
         vertex 6.702773e+000 5.340549e+000 1.557925e+000
      endloop
   endfacet
   facet normal -7.274188e-001 -6.861938e-001 0.000000e+000
      outer loop
         vertex 6.702773e+000 5.340549e+000 1.557925e+000
         vertex 6.702773e+000 5.340549e+000 1.000000e+001
         vertex 6.474077e+000 5.569246e+000 1.000000e+001
      endloop
   endfacet
   facet normal -6.861938e-001 -7.274188e-001 0.000000e+000
      outer loop
         vertex 6.702773e+000 5.340549e+000 1.557925e+000
         vertex 6.474077e+000 5.569246e+000 1.000000e+001
         vertex 6.474077e+000 5.569246e+000 1.557925e+000
      endloop
   endfacet
   facet normal -5.972114e-001 -8.020838e-001 0.000000e+000
      outer loop
         vertex 6.474077e+000 5.569246e+000 1.557925e+000
         vertex 6.474077e+000 5.569246e+000 1.000000e+001
         vertex 6.209142e+000 5.754755e+000 1.000000e+001
      endloop
   endfacet
   facet normal -5.494540e-001 -8.355240e-001 0.000000e+000
      outer loop
         vertex 6.474077e+000 5.569246e+000 1.557925e+000
         vertex 6.209142e+000 5.754755e+000 1.000000e+001
         vertex 6.209142e+000 5.754755e+000 1.557925e+000
      endloop
   endfacet
   facet normal -4.488580e-001 -8.936031e-001 0.000000e+000
      outer loop
         vertex 6.209142e+000 5.754755e+000 1.557925e+000
         vertex 6.209142e+000 5.754755e+000 1.000000e+001
         vertex 5.916019e+000 5.891440e+000 1.000000e+001
      endloop
   endfacet
   facet normal -3.960194e-001 -9.182422e-001 0.000000e+000
      outer loop
         vertex 6.209142e+000 5.754755e+000 1.557925e+000
         vertex 5.916019e+000 5.891440e+000 1.000000e+001
         vertex 5.916019e+000 5.891440e+000 1.557925e+000
      endloop
   endfacet
   facet normal -2.868663e-001 -9.579706e-001 0.000000e+000
      outer loop
         vertex 5.916019e+000 5.891440e+000 1.557925e+000
         vertex 5.916019e+000 5.891440e+000 1.000000e+001
         vertex 5.603614e+000 5.975149e+000 1.000000e+001
      endloop
   endfacet
   facet normal -2.305519e-001 -9.730600e-001 0.000000e+000
      outer loop
         vertex 5.916019e+000 5.891440e+000 1.557925e+000
         vertex 5.603614e+000 5.975149e+000 1.000000e+001
         vertex 5.603614e+000 5.975149e+000 1.557925e+000
      endloop
   endfacet
   facet normal -1.161583e-001 -9.932307e-001 0.000000e+000
      outer loop
         vertex 5.603614e+000 5.975149e+000 1.557925e+000
         vertex 5.603614e+000 5.975149e+000 1.000000e+001
         vertex 5.281420e+000 6.003337e+000 1.000000e+001
      endloop
   endfacet
   facet normal -5.807913e-002 -9.983119e-001 0.000000e+000
      outer loop
         vertex 5.603614e+000 5.975149e+000 1.557925e+000
         vertex 5.281420e+000 6.003337e+000 1.000000e+001
         vertex 5.281420e+000 6.003337e+000 1.557925e+000
      endloop
   endfacet
   facet normal 5.807913e-002 -9.983119e-001 0.000000e+000
      outer loop
         vertex 5.281420e+000 6.003337e+000 1.557925e+000
         vertex 5.281420e+000 6.003337e+000 1.000000e+001
         vertex 4.959225e+000 5.975149e+000 1.000000e+001
      endloop
   endfacet
   facet normal 1.161583e-001 -9.932307e-001 0.000000e+000
      outer loop
         vertex 5.281420e+000 6.003337e+000 1.557925e+000
         vertex 4.959225e+000 5.975149e+000 1.000000e+001
         vertex 4.959225e+000 5.975149e+000 1.557925e+000
      endloop
   endfacet
   facet normal 2.305519e-001 -9.730600e-001 0.000000e+000
      outer loop
         vertex 4.959225e+000 5.975149e+000 1.557925e+000
         vertex 4.959225e+000 5.975149e+000 1.000000e+001
         vertex 4.646821e+000 5.891440e+000 1.000000e+001
      endloop
   endfacet
   facet normal 2.868663e-001 -9.579706e-001 0.000000e+000
      outer loop
         vertex 4.959225e+000 5.975149e+000 1.557925e+000
         vertex 4.646821e+000 5.891440e+000 1.000000e+001
         vertex 4.646821e+000 5.891440e+000 1.557925e+000
      endloop
   endfacet
   facet normal 3.960194e-001 -9.182422e-001 0.000000e+000
      outer loop
         vertex 4.646821e+000 5.891440e+000 1.557925e+000
         vertex 4.646821e+000 5.891440e+000 1.000000e+001
         vertex 4.353697e+000 5.754755e+000 1.000000e+001
      endloop
   endfacet
   facet normal 4.488580e-001 -8.936031e-001 0.000000e+000
      outer loop
         vertex 4.646821e+000 5.891440e+000 1.557925e+000
         vertex 4.353697e+000 5.754755e+000 1.000000e+001
         vertex 4.353697e+000 5.754755e+000 1.557925e+000
      endloop
   endfacet
   facet normal 5.494540e-001 -8.355240e-001 0.000000e+000
      outer loop
         vertex 4.353697e+000 5.754755e+000 1.557925e+000
         vertex 4.353697e+000 5.754755e+000 1.000000e+001
         vertex 4.088763e+000 5.569246e+000 1.000000e+001
      endloop
   endfacet
   facet normal 5.972114e-001 -8.020838e-001 0.000000e+000
      outer loop
         vertex 4.353697e+000 5.754755e+000 1.557925e+000
         vertex 4.088763e+000 5.569246e+000 1.000000e+001
         vertex 4.088763e+000 5.569246e+000 1.557925e+000
      endloop
   endfacet
   facet normal 6.861938e-001 -7.274188e-001 0.000000e+000
      outer loop
         vertex 4.088763e+000 5.569246e+000 1.557925e+000
         vertex 4.088763e+000 5.569246e+000 1.000000e+001
         vertex 3.860067e+000 5.340549e+000 1.000000e+001
      endloop
   endfacet
   facet normal 7.274188e-001 -6.861938e-001 0.000000e+000
      outer loop
         vertex 4.088763e+000 5.569246e+000 1.557925e+000
         vertex 3.860067e+000 5.340549e+000 1.000000e+001
         vertex 3.860067e+000 5.340549e+000 1.557925e+000
      endloop
   endfacet
   facet normal 8.020838e-001 -5.972114e-001 0.000000e+000
      outer loop
         vertex 3.860067e+000 5.340549e+000 1.557925e+000
         vertex 3.860067e+000 5.340549e+000 1.000000e+001
         vertex 3.674557e+000 5.075615e+000 1.000000e+001
      endloop
   endfacet
   facet normal 8.355240e-001 -5.494540e-001 0.000000e+000
      outer loop
         vertex 3.860067e+000 5.340549e+000 1.557925e+000
         vertex 3.674557e+000 5.075615e+000 1.000000e+001
         vertex 3.674557e+000 5.075615e+000 1.557925e+000
      endloop
   endfacet
   facet normal 8.936031e-001 -4.488580e-001 0.000000e+000
      outer loop
         vertex 3.674557e+000 5.075615e+000 1.557925e+000
         vertex 3.674557e+000 5.075615e+000 1.000000e+001
         vertex 3.537872e+000 4.782492e+000 1.000000e+001
      endloop
   endfacet
   facet normal 9.182422e-001 -3.960194e-001 0.000000e+000
      outer loop
         vertex 3.674557e+000 5.075615e+000 1.557925e+000
         vertex 3.537872e+000 4.782492e+000 1.000000e+001
         vertex 3.537872e+000 4.782492e+000 1.557925e+000
      endloop
   endfacet
   facet normal 9.579706e-001 -2.868663e-001 0.000000e+000
      outer loop
         vertex 3.537872e+000 4.782492e+000 1.557925e+000
         vertex 3.537872e+000 4.782492e+000 1.000000e+001
         vertex 3.454164e+000 4.470088e+000 1.000000e+001
      endloop
   endfacet
   facet normal 9.730600e-001 -2.305519e-001 0.000000e+000
      outer loop
         vertex 3.537872e+000 4.782492e+000 1.557925e+000
         vertex 3.454164e+000 4.470088e+000 1.000000e+001
         vertex 3.454164e+000 4.470088e+000 1.557925e+000
      endloop
   endfacet
   facet normal 9.932307e-001 -1.161583e-001 0.000000e+000
      outer loop
         vertex 3.454164e+000 4.470088e+000 1.557925e+000
         vertex 3.454164e+000 4.470088e+000 1.000000e+001
         vertex 3.425975e+000 4.147893e+000 1.000000e+001
      endloop
   endfacet
   facet normal 9.983119e-001 -5.807913e-002 0.000000e+000
      outer loop
         vertex 3.454164e+000 4.470088e+000 1.557925e+000
         vertex 3.425975e+000 4.147893e+000 1.000000e+001
         vertex 3.425975e+000 4.147893e+000 1.557925e+000
      endloop
   endfacet
   facet normal 9.983119e-001 5.807913e-002 0.000000e+000
      outer loop
         vertex 3.425975e+000 4.147893e+000 1.557925e+000
         vertex 3.425975e+000 4.147893e+000 1.000000e+001
         vertex 3.454164e+000 3.825698e+000 1.000000e+001
      endloop
   endfacet
   facet normal 9.932307e-001 1.161583e-001 0.000000e+000
      outer loop
         vertex 3.425975e+000 4.147893e+000 1.557925e+000
         vertex 3.454164e+000 3.825698e+000 1.000000e+001
         vertex 3.454164e+000 3.825698e+000 1.557925e+000
      endloop
   endfacet
   facet normal 9.730600e-001 2.305519e-001 0.000000e+000
      outer loop
         vertex 3.454164e+000 3.825698e+000 1.557925e+000
         vertex 3.454164e+000 3.825698e+000 1.000000e+001
         vertex 3.537872e+000 3.513293e+000 1.000000e+001
      endloop
   endfacet
   facet normal 9.579706e-001 2.868663e-001 0.000000e+000
      outer loop
         vertex 3.454164e+000 3.825698e+000 1.557925e+000
         vertex 3.537872e+000 3.513293e+000 1.000000e+001
         vertex 3.537872e+000 3.513293e+000 1.557925e+000
      endloop
   endfacet
   facet normal 9.182422e-001 3.960194e-001 0.000000e+000
      outer loop
         vertex 3.537872e+000 3.513293e+000 1.557925e+000
         vertex 3.537872e+000 3.513293e+000 1.000000e+001
         vertex 3.674557e+000 3.220170e+000 1.000000e+001
      endloop
   endfacet
   facet normal 8.936031e-001 4.488580e-001 0.000000e+000
      outer loop
         vertex 3.537872e+000 3.513293e+000 1.557925e+000
         vertex 3.674557e+000 3.220170e+000 1.000000e+001
         vertex 3.674557e+000 3.220170e+000 1.557925e+000
      endloop
   endfacet
   facet normal 8.355240e-001 5.494540e-001 0.000000e+000
      outer loop
         vertex 3.674557e+000 3.220170e+000 1.557925e+000
         vertex 3.674557e+000 3.220170e+000 1.000000e+001
         vertex 3.860067e+000 2.955236e+000 1.000000e+001
      endloop
   endfacet
   facet normal 8.020838e-001 5.972114e-001 0.000000e+000
      outer loop
         vertex 3.674557e+000 3.220170e+000 1.557925e+000
         vertex 3.860067e+000 2.955236e+000 1.000000e+001
         vertex 3.860067e+000 2.955236e+000 1.557925e+000
      endloop
   endfacet
   facet normal 7.274188e-001 6.861938e-001 0.000000e+000
      outer loop
         vertex 3.860067e+000 2.955236e+000 1.557925e+000
         vertex 3.860067e+000 2.955236e+000 1.000000e+001
         vertex 4.088763e+000 2.726540e+000 1.000000e+001
      endloop
   endfacet
   facet normal 6.861938e-001 7.274188e-001 0.000000e+000
      outer loop
         vertex 3.860067e+000 2.955236e+000 1.557925e+000
         vertex 4.088763e+000 2.726540e+000 1.000000e+001
         vertex 4.088763e+000 2.726540e+000 1.557925e+000
      endloop
   endfacet
   facet normal 5.972114e-001 8.020838e-001 0.000000e+000
      outer loop
         vertex 4.088763e+000 2.726540e+000 1.557925e+000
         vertex 4.088763e+000 2.726540e+000 1.000000e+001
         vertex 4.353697e+000 2.541031e+000 1.000000e+001
      endloop
   endfacet
   facet normal 5.494540e-001 8.355240e-001 0.000000e+000
      outer loop
         vertex 4.088763e+000 2.726540e+000 1.557925e+000
         vertex 4.353697e+000 2.541031e+000 1.000000e+001
         vertex 4.353697e+000 2.541031e+000 1.557925e+000
      endloop
   endfacet
   facet normal 4.488580e-001 8.936031e-001 0.000000e+000
      outer loop
         vertex 4.353697e+000 2.541031e+000 1.557925e+000
         vertex 4.353697e+000 2.541031e+000 1.000000e+001
         vertex 4.646821e+000 2.404345e+000 1.000000e+001
      endloop
   endfacet
   facet normal 3.960194e-001 9.182422e-001 0.000000e+000
      outer loop
         vertex 4.353697e+000 2.541031e+000 1.557925e+000
         vertex 4.646821e+000 2.404345e+000 1.000000e+001
         vertex 4.646821e+000 2.404345e+000 1.557925e+000
      endloop
   endfacet
   facet normal 2.868663e-001 9.579706e-001 0.000000e+000
      outer loop
         vertex 4.646821e+000 2.404345e+000 1.557925e+000
         vertex 4.646821e+000 2.404345e+000 1.000000e+001
         vertex 4.959225e+000 2.320637e+000 1.000000e+001
      endloop
   endfacet
   facet normal 2.305519e-001 9.730600e-001 0.000000e+000
      outer loop
         vertex 4.646821e+000 2.404345e+000 1.557925e+000
         vertex 4.959225e+000 2.320637e+000 1.000000e+001
         vertex 4.959225e+000 2.320637e+000 1.557925e+000
      endloop
   endfacet
   facet normal 1.161583e-001 9.932307e-001 0.000000e+000
      outer loop
         vertex 4.959225e+000 2.320637e+000 1.557925e+000
         vertex 4.959225e+000 2.320637e+000 1.000000e+001
         vertex 5.281420e+000 2.292448e+000 1.000000e+001
      endloop
   endfacet
   facet normal 5.807913e-002 9.983119e-001 0.000000e+000
      outer loop
         vertex 4.959225e+000 2.320637e+000 1.557925e+000
         vertex 5.281420e+000 2.292448e+000 1.000000e+001
         vertex 5.281420e+000 2.292448e+000 1.557925e+000
      endloop
   endfacet
   facet normal -5.807913e-002 9.983119e-001 0.000000e+000
      outer loop
         vertex 5.281420e+000 2.292448e+000 1.557925e+000
         vertex 5.281420e+000 2.292448e+000 1.000000e+001
         vertex 5.603614e+000 2.320637e+000 1.000000e+001
      endloop
   endfacet
   facet normal -1.161583e-001 9.932307e-001 0.000000e+000
      outer loop
         vertex 5.281420e+000 2.292448e+000 1.557925e+000
         vertex 5.603614e+000 2.320637e+000 1.000000e+001
         vertex 5.603614e+000 2.320637e+000 1.557925e+000
      endloop
   endfacet
   facet normal -2.305519e-001 9.730600e-001 0.000000e+000
      outer loop
         vertex 5.603614e+000 2.320637e+000 1.557925e+000
         vertex 5.603614e+000 2.320637e+000 1.000000e+001
         vertex 5.916019e+000 2.404345e+000 1.000000e+001
      endloop
   endfacet
   facet normal -2.868663e-001 9.579706e-001 0.000000e+000
      outer loop
         vertex 5.603614e+000 2.320637e+000 1.557925e+000
         vertex 5.916019e+000 2.404345e+000 1.000000e+001
         vertex 5.916019e+000 2.404345e+000 1.557925e+000
      endloop
   endfacet
   facet normal -3.960194e-001 9.182422e-001 0.000000e+000
      outer loop
         vertex 5.916019e+000 2.404345e+000 1.557925e+000
         vertex 5.916019e+000 2.404345e+000 1.000000e+001
         vertex 6.209142e+000 2.541031e+000 1.000000e+001
      endloop
   endfacet
   facet normal -4.488580e-001 8.936031e-001 0.000000e+000
      outer loop
         vertex 5.916019e+000 2.404345e+000 1.557925e+000
         vertex 6.209142e+000 2.541031e+000 1.000000e+001
         vertex 6.209142e+000 2.541031e+000 1.557925e+000
      endloop
   endfacet
   facet normal -5.494540e-001 8.355240e-001 0.000000e+000
      outer loop
         vertex 6.209142e+000 2.541031e+000 1.557925e+000
         vertex 6.209142e+000 2.541031e+000 1.000000e+001
         vertex 6.474077e+000 2.726540e+000 1.000000e+001
      endloop
   endfacet
   facet normal -5.972114e-001 8.020838e-001 0.000000e+000
      outer loop
         vertex 6.209142e+000 2.541031e+000 1.557925e+000
         vertex 6.474077e+000 2.726540e+000 1.000000e+001
         vertex 6.474077e+000 2.726540e+000 1.557925e+000
      endloop
   endfacet
   facet normal -6.861938e-001 7.274188e-001 0.000000e+000
      outer loop
         vertex 6.474077e+000 2.726540e+000 1.557925e+000
         vertex 6.474077e+000 2.726540e+000 1.000000e+001
         vertex 6.702773e+000 2.955236e+000 1.000000e+001
      endloop
   endfacet
   facet normal -7.274188e-001 6.861938e-001 0.000000e+000
      outer loop
         vertex 6.474077e+000 2.726540e+000 1.557925e+000
         vertex 6.702773e+000 2.955236e+000 1.000000e+001
         vertex 6.702773e+000 2.955236e+000 1.557925e+000
      endloop
   endfacet
   facet normal -8.020838e-001 5.972114e-001 0.000000e+000
      outer loop
         vertex 6.702773e+000 2.955236e+000 1.557925e+000
         vertex 6.702773e+000 2.955236e+000 1.000000e+001
         vertex 6.888282e+000 3.220170e+000 1.000000e+001
      endloop
   endfacet
   facet normal -8.355240e-001 5.494540e-001 0.000000e+000
      outer loop
         vertex 6.702773e+000 2.955236e+000 1.557925e+000
         vertex 6.888282e+000 3.220170e+000 1.000000e+001
         vertex 6.888282e+000 3.220170e+000 1.557925e+000
      endloop
   endfacet
   facet normal -8.936031e-001 4.488580e-001 0.000000e+000
      outer loop
         vertex 6.888282e+000 3.220170e+000 1.557925e+000
         vertex 6.888282e+000 3.220170e+000 1.000000e+001
         vertex 7.024968e+000 3.513293e+000 1.000000e+001
      endloop
   endfacet
   facet normal -9.182422e-001 3.960194e-001 0.000000e+000
      outer loop
         vertex 6.888282e+000 3.220170e+000 1.557925e+000
         vertex 7.024968e+000 3.513293e+000 1.000000e+001
         vertex 7.024968e+000 3.513293e+000 1.557925e+000
      endloop
   endfacet
   facet normal -9.579706e-001 2.868663e-001 0.000000e+000
      outer loop
         vertex 7.024968e+000 3.513293e+000 1.557925e+000
         vertex 7.024968e+000 3.513293e+000 1.000000e+001
         vertex 7.108676e+000 3.825698e+000 1.000000e+001
      endloop
   endfacet
   facet normal -9.730600e-001 2.305519e-001 0.000000e+000
      outer loop
         vertex 7.024968e+000 3.513293e+000 1.557925e+000
         vertex 7.108676e+000 3.825698e+000 1.000000e+001
         vertex 7.108676e+000 3.825698e+000 1.557925e+000
      endloop
   endfacet
   facet normal -9.932307e-001 1.161583e-001 0.000000e+000
      outer loop
         vertex 7.108676e+000 3.825698e+000 1.557925e+000
         vertex 7.108676e+000 3.825698e+000 1.000000e+001
         vertex 7.136865e+000 4.147893e+000 1.000000e+001
      endloop
   endfacet
   facet normal 0.000000e+000 0.000000e+000 1.000000e+000
      outer loop
         vertex 6.356015e+000 4.539013e+000 1.557925e+000
         vertex 7.024968e+000 4.782492e+000 1.557925e+000
         vertex 6.271772e+000 4.719673e+000 1.557925e+000
      endloop
   endfacet
   facet normal 0.000000e+000 0.000000e+000 1.000000e+000
      outer loop
         vertex 6.271772e+000 4.719673e+000 1.557925e+000
         vertex 7.024968e+000 4.782492e+000 1.557925e+000
         vertex 6.888282e+000 5.075615e+000 1.557925e+000
      endloop
   endfacet
   facet normal 0.000000e+000 0.000000e+000 1.000000e+000
      outer loop
         vertex 6.271772e+000 4.719673e+000 1.557925e+000
         vertex 6.888282e+000 5.075615e+000 1.557925e+000
         vertex 6.157438e+000 4.882959e+000 1.557925e+000
      endloop
   endfacet
   facet normal 0.000000e+000 0.000000e+000 1.000000e+000
      outer loop
         vertex 6.157438e+000 4.882959e+000 1.557925e+000
         vertex 6.888282e+000 5.075615e+000 1.557925e+000
         vertex 6.702773e+000 5.340549e+000 1.557925e+000
      endloop
   endfacet
   facet normal 0.000000e+000 0.000000e+000 1.000000e+000
      outer loop
         vertex 6.157438e+000 4.882959e+000 1.557925e+000
         vertex 6.702773e+000 5.340549e+000 1.557925e+000
         vertex 6.016486e+000 5.023911e+000 1.557925e+000
      endloop
   endfacet
   facet normal 0.000000e+000 0.000000e+000 1.000000e+000
      outer loop
         vertex 6.016486e+000 5.023911e+000 1.557925e+000
         vertex 6.702773e+000 5.340549e+000 1.557925e+000
         vertex 6.474077e+000 5.569246e+000 1.557925e+000
      endloop
   endfacet
   facet normal 0.000000e+000 0.000000e+000 1.000000e+000
      outer loop
         vertex 6.016486e+000 5.023911e+000 1.557925e+000
         vertex 6.474077e+000 5.569246e+000 1.557925e+000
         vertex 5.853200e+000 5.138246e+000 1.557925e+000
      endloop
   endfacet
   facet normal 0.000000e+000 0.000000e+000 1.000000e+000
      outer loop
         vertex 5.853200e+000 5.138246e+000 1.557925e+000
         vertex 6.474077e+000 5.569246e+000 1.557925e+000
         vertex 6.209142e+000 5.754755e+000 1.557925e+000
      endloop
   endfacet
   facet normal 0.000000e+000 0.000000e+000 1.000000e+000
      outer loop
         vertex 5.853200e+000 5.138246e+000 1.557925e+000
         vertex 6.209142e+000 5.754755e+000 1.557925e+000
         vertex 5.672541e+000 5.222488e+000 1.557925e+000
      endloop
   endfacet
   facet normal 0.000000e+000 0.000000e+000 1.000000e+000
      outer loop
         vertex 5.672541e+000 5.222488e+000 1.557925e+000
         vertex 6.209142e+000 5.754755e+000 1.557925e+000
         vertex 5.916019e+000 5.891440e+000 1.557925e+000
      endloop
   endfacet
   facet normal 0.000000e+000 0.000000e+000 1.000000e+000
      outer loop
         vertex 5.672541e+000 5.222488e+000 1.557925e+000
         vertex 5.916019e+000 5.891440e+000 1.557925e+000
         vertex 5.479997e+000 5.274080e+000 1.557925e+000
      endloop
   endfacet
   facet normal 0.000000e+000 0.000000e+000 1.000000e+000
      outer loop
         vertex 5.479997e+000 5.274080e+000 1.557925e+000
         vertex 5.916019e+000 5.891440e+000 1.557925e+000
         vertex 5.603614e+000 5.975149e+000 1.557925e+000
      endloop
   endfacet
   facet normal 0.000000e+000 0.000000e+000 1.000000e+000
      outer loop
         vertex 5.479997e+000 5.274080e+000 1.557925e+000
         vertex 5.603614e+000 5.975149e+000 1.557925e+000
         vertex 5.281420e+000 5.291453e+000 1.557925e+000
      endloop
   endfacet
   facet normal 0.000000e+000 0.000000e+000 1.000000e+000
      outer loop
         vertex 5.281420e+000 5.291453e+000 1.557925e+000
         vertex 5.603614e+000 5.975149e+000 1.557925e+000
         vertex 5.281420e+000 6.003337e+000 1.557925e+000
      endloop
   endfacet
   facet normal 0.000000e+000 0.000000e+000 1.000000e+000
      outer loop
         vertex 5.281420e+000 5.291453e+000 1.557925e+000
         vertex 5.281420e+000 6.003337e+000 1.557925e+000
         vertex 5.082842e+000 5.274080e+000 1.557925e+000
      endloop
   endfacet
   facet normal 0.000000e+000 0.000000e+000 1.000000e+000
      outer loop
         vertex 5.082842e+000 5.274080e+000 1.557925e+000
         vertex 5.281420e+000 6.003337e+000 1.557925e+000
         vertex 4.959225e+000 5.975149e+000 1.557925e+000
      endloop
   endfacet
   facet normal 0.000000e+000 0.000000e+000 1.000000e+000
      outer loop
         vertex 5.082842e+000 5.274080e+000 1.557925e+000
         vertex 4.959225e+000 5.975149e+000 1.557925e+000
         vertex 4.890299e+000 5.222488e+000 1.557925e+000
      endloop
   endfacet
   facet normal 0.000000e+000 0.000000e+000 1.000000e+000
      outer loop
         vertex 4.890299e+000 5.222488e+000 1.557925e+000
         vertex 4.959225e+000 5.975149e+000 1.557925e+000
         vertex 4.646821e+000 5.891440e+000 1.557925e+000
      endloop
   endfacet
   facet normal 0.000000e+000 0.000000e+000 1.000000e+000
      outer loop
         vertex 4.890299e+000 5.222488e+000 1.557925e+000
         vertex 4.646821e+000 5.891440e+000 1.557925e+000
         vertex 4.709640e+000 5.138246e+000 1.557925e+000
      endloop
   endfacet
   facet normal 0.000000e+000 0.000000e+000 1.000000e+000
      outer loop
         vertex 4.709640e+000 5.138246e+000 1.557925e+000
         vertex 4.646821e+000 5.891440e+000 1.557925e+000
         vertex 4.353697e+000 5.754755e+000 1.557925e+000
      endloop
   endfacet
   facet normal 0.000000e+000 0.000000e+000 1.000000e+000
      outer loop
         vertex 4.709640e+000 5.138246e+000 1.557925e+000
         vertex 4.353697e+000 5.754755e+000 1.557925e+000
         vertex 4.546354e+000 5.023911e+000 1.557925e+000
      endloop
   endfacet
   facet normal 0.000000e+000 0.000000e+000 1.000000e+000
      outer loop
         vertex 4.546354e+000 5.023911e+000 1.557925e+000
         vertex 4.353697e+000 5.754755e+000 1.557925e+000
         vertex 4.088763e+000 5.569246e+000 1.557925e+000
      endloop
   endfacet
   facet normal 0.000000e+000 0.000000e+000 1.000000e+000
      outer loop
         vertex 4.546354e+000 5.023911e+000 1.557925e+000
         vertex 4.088763e+000 5.569246e+000 1.557925e+000
         vertex 4.405402e+000 4.882959e+000 1.557925e+000
      endloop
   endfacet
   facet normal 0.000000e+000 0.000000e+000 1.000000e+000
      outer loop
         vertex 4.405402e+000 4.882959e+000 1.557925e+000
         vertex 4.088763e+000 5.569246e+000 1.557925e+000
         vertex 3.860067e+000 5.340549e+000 1.557925e+000
      endloop
   endfacet
   facet normal 0.000000e+000 0.000000e+000 1.000000e+000
      outer loop
         vertex 4.405402e+000 4.882959e+000 1.557925e+000
         vertex 3.860067e+000 5.340549e+000 1.557925e+000
         vertex 4.291068e+000 4.719673e+000 1.557925e+000
      endloop
   endfacet
   facet normal 0.000000e+000 0.000000e+000 1.000000e+000
      outer loop
         vertex 4.291068e+000 4.719673e+000 1.557925e+000
         vertex 3.860067e+000 5.340549e+000 1.557925e+000
         vertex 3.674557e+000 5.075615e+000 1.557925e+000
      endloop
   endfacet
   facet normal 0.000000e+000 0.000000e+000 1.000000e+000
      outer loop
         vertex 4.291068e+000 4.719673e+000 1.557925e+000
         vertex 3.674557e+000 5.075615e+000 1.557925e+000
         vertex 4.206825e+000 4.539013e+000 1.557925e+000
      endloop
   endfacet
   facet normal 0.000000e+000 0.000000e+000 1.000000e+000
      outer loop
         vertex 4.206825e+000 4.539013e+000 1.557925e+000
         vertex 3.674557e+000 5.075615e+000 1.557925e+000
         vertex 3.537872e+000 4.782492e+000 1.557925e+000
      endloop
   endfacet
   facet normal 0.000000e+000 0.000000e+000 1.000000e+000
      outer loop
         vertex 4.206825e+000 4.539013e+000 1.557925e+000
         vertex 3.537872e+000 4.782492e+000 1.557925e+000
         vertex 4.155232e+000 4.346470e+000 1.557925e+000
      endloop
   endfacet
   facet normal 0.000000e+000 0.000000e+000 1.000000e+000
      outer loop
         vertex 4.155232e+000 4.346470e+000 1.557925e+000
         vertex 3.537872e+000 4.782492e+000 1.557925e+000
         vertex 3.454164e+000 4.470088e+000 1.557925e+000
      endloop
   endfacet
   facet normal 0.000000e+000 0.000000e+000 1.000000e+000
      outer loop
         vertex 4.155232e+000 4.346470e+000 1.557925e+000
         vertex 3.454164e+000 4.470088e+000 1.557925e+000
         vertex 4.137860e+000 4.147893e+000 1.557925e+000
      endloop
   endfacet
   facet normal 0.000000e+000 0.000000e+000 1.000000e+000
      outer loop
         vertex 4.137860e+000 4.147893e+000 1.557925e+000
         vertex 3.454164e+000 4.470088e+000 1.557925e+000
         vertex 3.425975e+000 4.147893e+000 1.557925e+000
      endloop
   endfacet
   facet normal 0.000000e+000 0.000000e+000 1.000000e+000
      outer loop
         vertex 4.137860e+000 4.147893e+000 1.557925e+000
         vertex 3.425975e+000 4.147893e+000 1.557925e+000
         vertex 4.155232e+000 3.949316e+000 1.557925e+000
      endloop
   endfacet
   facet normal 0.000000e+000 0.000000e+000 1.000000e+000
      outer loop
         vertex 4.155232e+000 3.949316e+000 1.557925e+000
         vertex 3.425975e+000 4.147893e+000 1.557925e+000
         vertex 3.454164e+000 3.825698e+000 1.557925e+000
      endloop
   endfacet
   facet normal 0.000000e+000 0.000000e+000 1.000000e+000
      outer loop
         vertex 4.155232e+000 3.949316e+000 1.557925e+000
         vertex 3.454164e+000 3.825698e+000 1.557925e+000
         vertex 4.206825e+000 3.756772e+000 1.557925e+000
      endloop
   endfacet
   facet normal 0.000000e+000 0.000000e+000 1.000000e+000
      outer loop
         vertex 4.206825e+000 3.756772e+000 1.557925e+000
         vertex 3.454164e+000 3.825698e+000 1.557925e+000
         vertex 3.537872e+000 3.513293e+000 1.557925e+000
      endloop
   endfacet
   facet normal 0.000000e+000 0.000000e+000 1.000000e+000
      outer loop
         vertex 4.206825e+000 3.756772e+000 1.557925e+000
         vertex 3.537872e+000 3.513293e+000 1.557925e+000
         vertex 4.291068e+000 3.576113e+000 1.557925e+000
      endloop
   endfacet
   facet normal 0.000000e+000 0.000000e+000 1.000000e+000
      outer loop
         vertex 4.291068e+000 3.576113e+000 1.557925e+000
         vertex 3.537872e+000 3.513293e+000 1.557925e+000
         vertex 3.674557e+000 3.220170e+000 1.557925e+000
      endloop
   endfacet
   facet normal 0.000000e+000 0.000000e+000 1.000000e+000
      outer loop
         vertex 4.291068e+000 3.576113e+000 1.557925e+000
         vertex 3.674557e+000 3.220170e+000 1.557925e+000
         vertex 4.405402e+000 3.412827e+000 1.557925e+000
      endloop
   endfacet
   facet normal 0.000000e+000 0.000000e+000 1.000000e+000
      outer loop
         vertex 4.405402e+000 3.412827e+000 1.557925e+000
         vertex 3.674557e+000 3.220170e+000 1.557925e+000
         vertex 3.860067e+000 2.955236e+000 1.557925e+000
      endloop
   endfacet
   facet normal 0.000000e+000 0.000000e+000 1.000000e+000
      outer loop
         vertex 4.405402e+000 3.412827e+000 1.557925e+000
         vertex 3.860067e+000 2.955236e+000 1.557925e+000
         vertex 4.546354e+000 3.271875e+000 1.557925e+000
      endloop
   endfacet
   facet normal 0.000000e+000 0.000000e+000 1.000000e+000
      outer loop
         vertex 4.546354e+000 3.271875e+000 1.557925e+000
         vertex 3.860067e+000 2.955236e+000 1.557925e+000
         vertex 4.088763e+000 2.726540e+000 1.557925e+000
      endloop
   endfacet
   facet normal 0.000000e+000 0.000000e+000 1.000000e+000
      outer loop
         vertex 4.546354e+000 3.271875e+000 1.557925e+000
         vertex 4.088763e+000 2.726540e+000 1.557925e+000
         vertex 4.709640e+000 3.157541e+000 1.557925e+000
      endloop
   endfacet
   facet normal 0.000000e+000 0.000000e+000 1.000000e+000
      outer loop
         vertex 4.709640e+000 3.157541e+000 1.557925e+000
         vertex 4.088763e+000 2.726540e+000 1.557925e+000
         vertex 4.353697e+000 2.541031e+000 1.557925e+000
      endloop
   endfacet
   facet normal 0.000000e+000 0.000000e+000 1.000000e+000
      outer loop
         vertex 4.709640e+000 3.157541e+000 1.557925e+000
         vertex 4.353697e+000 2.541031e+000 1.557925e+000
         vertex 4.890299e+000 3.073298e+000 1.557925e+000
      endloop
   endfacet
   facet normal 0.000000e+000 0.000000e+000 1.000000e+000
      outer loop
         vertex 4.890299e+000 3.073298e+000 1.557925e+000
         vertex 4.353697e+000 2.541031e+000 1.557925e+000
         vertex 4.646821e+000 2.404345e+000 1.557925e+000
      endloop
   endfacet
   facet normal 0.000000e+000 0.000000e+000 1.000000e+000
      outer loop
         vertex 4.890299e+000 3.073298e+000 1.557925e+000
         vertex 4.646821e+000 2.404345e+000 1.557925e+000
         vertex 5.082842e+000 3.021706e+000 1.557925e+000
      endloop
   endfacet
   facet normal 0.000000e+000 0.000000e+000 1.000000e+000
      outer loop
         vertex 5.082842e+000 3.021706e+000 1.557925e+000
         vertex 4.646821e+000 2.404345e+000 1.557925e+000
         vertex 4.959225e+000 2.320637e+000 1.557925e+000
      endloop
   endfacet
   facet normal 0.000000e+000 0.000000e+000 1.000000e+000
      outer loop
         vertex 5.082842e+000 3.021706e+000 1.557925e+000
         vertex 4.959225e+000 2.320637e+000 1.557925e+000
         vertex 5.281420e+000 3.004333e+000 1.557925e+000
      endloop
   endfacet
   facet normal 0.000000e+000 0.000000e+000 1.000000e+000
      outer loop
         vertex 5.281420e+000 3.004333e+000 1.557925e+000
         vertex 4.959225e+000 2.320637e+000 1.557925e+000
         vertex 5.281420e+000 2.292448e+000 1.557925e+000
      endloop
   endfacet
   facet normal 0.000000e+000 0.000000e+000 1.000000e+000
      outer loop
         vertex 5.281420e+000 3.004333e+000 1.557925e+000
         vertex 5.281420e+000 2.292448e+000 1.557925e+000
         vertex 5.479997e+000 3.021706e+000 1.557925e+000
      endloop
   endfacet
   facet normal 0.000000e+000 0.000000e+000 1.000000e+000
      outer loop
         vertex 5.479997e+000 3.021706e+000 1.557925e+000
         vertex 5.281420e+000 2.292448e+000 1.557925e+000
         vertex 5.603614e+000 2.320637e+000 1.557925e+000
      endloop
   endfacet
   facet normal 0.000000e+000 0.000000e+000 1.000000e+000
      outer loop
         vertex 5.479997e+000 3.021706e+000 1.557925e+000
         vertex 5.603614e+000 2.320637e+000 1.557925e+000
         vertex 5.672541e+000 3.073298e+000 1.557925e+000
      endloop
   endfacet
   facet normal 0.000000e+000 0.000000e+000 1.000000e+000
      outer loop
         vertex 5.672541e+000 3.073298e+000 1.557925e+000
         vertex 5.603614e+000 2.320637e+000 1.557925e+000
         vertex 5.916019e+000 2.404345e+000 1.557925e+000
      endloop
   endfacet
   facet normal 0.000000e+000 0.000000e+000 1.000000e+000
      outer loop
         vertex 5.672541e+000 3.073298e+000 1.557925e+000
         vertex 5.916019e+000 2.404345e+000 1.557925e+000
         vertex 5.853200e+000 3.157541e+000 1.557925e+000
      endloop
   endfacet
   facet normal 0.000000e+000 0.000000e+000 1.000000e+000
      outer loop
         vertex 5.853200e+000 3.157541e+000 1.557925e+000
         vertex 5.916019e+000 2.404345e+000 1.557925e+000
         vertex 6.209142e+000 2.541031e+000 1.557925e+000
      endloop
   endfacet
   facet normal 0.000000e+000 0.000000e+000 1.000000e+000
      outer loop
         vertex 5.853200e+000 3.157541e+000 1.557925e+000
         vertex 6.209142e+000 2.541031e+000 1.557925e+000
         vertex 6.016486e+000 3.271875e+000 1.557925e+000
      endloop
   endfacet
   facet normal 0.000000e+000 0.000000e+000 1.000000e+000
      outer loop
         vertex 6.016486e+000 3.271875e+000 1.557925e+000
         vertex 6.209142e+000 2.541031e+000 1.557925e+000
         vertex 6.474077e+000 2.726540e+000 1.557925e+000
      endloop
   endfacet
   facet normal 0.000000e+000 0.000000e+000 1.000000e+000
      outer loop
         vertex 6.016486e+000 3.271875e+000 1.557925e+000
         vertex 6.474077e+000 2.726540e+000 1.557925e+000
         vertex 6.157438e+000 3.412827e+000 1.557925e+000
      endloop
   endfacet
   facet normal 0.000000e+000 0.000000e+000 1.000000e+000
      outer loop
         vertex 6.157438e+000 3.412827e+000 1.557925e+000
         vertex 6.474077e+000 2.726540e+000 1.557925e+000
         vertex 6.702773e+000 2.955236e+000 1.557925e+000
      endloop
   endfacet
   facet normal 0.000000e+000 0.000000e+000 1.000000e+000
      outer loop
         vertex 6.157438e+000 3.412827e+000 1.557925e+000
         vertex 6.702773e+000 2.955236e+000 1.557925e+000
         vertex 6.271772e+000 3.576113e+000 1.557925e+000
      endloop
   endfacet
   facet normal 0.000000e+000 0.000000e+000 1.000000e+000
      outer loop
         vertex 6.271772e+000 3.576113e+000 1.557925e+000
         vertex 6.702773e+000 2.955236e+000 1.557925e+000
         vertex 6.888282e+000 3.220170e+000 1.557925e+000
      endloop
   endfacet
   facet normal 0.000000e+000 0.000000e+000 1.000000e+000
      outer loop
         vertex 6.271772e+000 3.576113e+000 1.557925e+000
         vertex 6.888282e+000 3.220170e+000 1.557925e+000
         vertex 6.356015e+000 3.756772e+000 1.557925e+000
      endloop
   endfacet
   facet normal 0.000000e+000 0.000000e+000 1.000000e+000
      outer loop
         vertex 6.356015e+000 3.756772e+000 1.557925e+000
         vertex 6.888282e+000 3.220170e+000 1.557925e+000
         vertex 7.024968e+000 3.513293e+000 1.557925e+000
      endloop
   endfacet
   facet normal 0.000000e+000 0.000000e+000 1.000000e+000
      outer loop
         vertex 6.356015e+000 3.756772e+000 1.557925e+000
         vertex 7.024968e+000 3.513293e+000 1.557925e+000
         vertex 6.407607e+000 3.949316e+000 1.557925e+000
      endloop
   endfacet
   facet normal 0.000000e+000 0.000000e+000 1.000000e+000
      outer loop
         vertex 6.407607e+000 3.949316e+000 1.557925e+000
         vertex 7.024968e+000 3.513293e+000 1.557925e+000
         vertex 7.108676e+000 3.825698e+000 1.557925e+000
      endloop
   endfacet
   facet normal 0.000000e+000 0.000000e+000 1.000000e+000
      outer loop
         vertex 6.407607e+000 3.949316e+000 1.557925e+000
         vertex 7.108676e+000 3.825698e+000 1.557925e+000
         vertex 6.424980e+000 4.147893e+000 1.557925e+000
      endloop
   endfacet
   facet normal 0.000000e+000 0.000000e+000 1.000000e+000
      outer loop
         vertex 6.424980e+000 4.147893e+000 1.557925e+000
         vertex 7.108676e+000 3.825698e+000 1.557925e+000
         vertex 7.136865e+000 4.147893e+000 1.557925e+000
      endloop
   endfacet
   facet normal 0.000000e+000 0.000000e+000 1.000000e+000
      outer loop
         vertex 6.424980e+000 4.147893e+000 1.557925e+000
         vertex 7.136865e+000 4.147893e+000 1.557925e+000
         vertex 6.407607e+000 4.346470e+000 1.557925e+000
      endloop
   endfacet
   facet normal 0.000000e+000 0.000000e+000 1.000000e+000
      outer loop
         vertex 6.407607e+000 4.346470e+000 1.557925e+000
         vertex 7.136865e+000 4.147893e+000 1.557925e+000
         vertex 7.108676e+000 4.470088e+000 1.557925e+000
      endloop
   endfacet
   facet normal 0.000000e+000 0.000000e+000 1.000000e+000
      outer loop
         vertex 6.407607e+000 4.346470e+000 1.557925e+000
         vertex 7.108676e+000 4.470088e+000 1.557925e+000
         vertex 6.356015e+000 4.539013e+000 1.557925e+000
      endloop
   endfacet
   facet normal 0.000000e+000 0.000000e+000 1.000000e+000
      outer loop
         vertex 6.356015e+000 4.539013e+000 1.557925e+000
         vertex 7.108676e+000 4.470088e+000 1.557925e+000
         vertex 7.024968e+000 4.782492e+000 1.557925e+000
      endloop
   endfacet
   facet normal 9.983119e-001 5.807913e-002 0.000000e+000
      outer loop
         vertex 6.407607e+000 4.346470e+000 1.557925e+000
         vertex 6.424980e+000 4.147893e+000 1.000000e+001
         vertex 6.424980e+000 4.147893e+000 1.557925e+000
      endloop
   endfacet
   facet normal 9.983119e-001 -5.807913e-002 0.000000e+000
      outer loop
         vertex 6.424980e+000 4.147893e+000 1.557925e+000
         vertex 6.424980e+000 4.147893e+000 1.000000e+001
         vertex 6.407607e+000 3.949316e+000 1.000000e+001
      endloop
   endfacet
   facet normal 9.932307e-001 -1.161583e-001 0.000000e+000
      outer loop
         vertex 6.424980e+000 4.147893e+000 1.557925e+000
         vertex 6.407607e+000 3.949316e+000 1.000000e+001
         vertex 6.407607e+000 3.949316e+000 1.557925e+000
      endloop
   endfacet
   facet normal 9.730600e-001 -2.305519e-001 0.000000e+000
      outer loop
         vertex 6.407607e+000 3.949316e+000 1.557925e+000
         vertex 6.407607e+000 3.949316e+000 1.000000e+001
         vertex 6.356015e+000 3.756772e+000 1.000000e+001
      endloop
   endfacet
   facet normal 9.579706e-001 -2.868663e-001 0.000000e+000
      outer loop
         vertex 6.407607e+000 3.949316e+000 1.557925e+000
         vertex 6.356015e+000 3.756772e+000 1.000000e+001
         vertex 6.356015e+000 3.756772e+000 1.557925e+000
      endloop
   endfacet
   facet normal 9.182422e-001 -3.960194e-001 0.000000e+000
      outer loop
         vertex 6.356015e+000 3.756772e+000 1.557925e+000
         vertex 6.356015e+000 3.756772e+000 1.000000e+001
         vertex 6.271772e+000 3.576113e+000 1.000000e+001
      endloop
   endfacet
   facet normal 8.936031e-001 -4.488580e-001 0.000000e+000
      outer loop
         vertex 6.356015e+000 3.756772e+000 1.557925e+000
         vertex 6.271772e+000 3.576113e+000 1.000000e+001
         vertex 6.271772e+000 3.576113e+000 1.557925e+000
      endloop
   endfacet
   facet normal 8.355240e-001 -5.494540e-001 0.000000e+000
      outer loop
         vertex 6.271772e+000 3.576113e+000 1.557925e+000
         vertex 6.271772e+000 3.576113e+000 1.000000e+001
         vertex 6.157438e+000 3.412827e+000 1.000000e+001
      endloop
   endfacet
   facet normal 8.020838e-001 -5.972114e-001 0.000000e+000
      outer loop
         vertex 6.271772e+000 3.576113e+000 1.557925e+000
         vertex 6.157438e+000 3.412827e+000 1.000000e+001
         vertex 6.157438e+000 3.412827e+000 1.557925e+000
      endloop
   endfacet
   facet normal 7.274188e-001 -6.861938e-001 0.000000e+000
      outer loop
         vertex 6.157438e+000 3.412827e+000 1.557925e+000
         vertex 6.157438e+000 3.412827e+000 1.000000e+001
         vertex 6.016486e+000 3.271875e+000 1.000000e+001
      endloop
   endfacet
   facet normal 6.861938e-001 -7.274188e-001 0.000000e+000
      outer loop
         vertex 6.157438e+000 3.412827e+000 1.557925e+000
         vertex 6.016486e+000 3.271875e+000 1.000000e+001
         vertex 6.016486e+000 3.271875e+000 1.557925e+000
      endloop
   endfacet
   facet normal 5.972114e-001 -8.020838e-001 0.000000e+000
      outer loop
         vertex 6.016486e+000 3.271875e+000 1.557925e+000
         vertex 6.016486e+000 3.271875e+000 1.000000e+001
         vertex 5.853200e+000 3.157541e+000 1.000000e+001
      endloop
   endfacet
   facet normal 5.494540e-001 -8.355240e-001 0.000000e+000
      outer loop
         vertex 6.016486e+000 3.271875e+000 1.557925e+000
         vertex 5.853200e+000 3.157541e+000 1.000000e+001
         vertex 5.853200e+000 3.157541e+000 1.557925e+000
      endloop
   endfacet
   facet normal 4.488580e-001 -8.936031e-001 0.000000e+000
      outer loop
         vertex 5.853200e+000 3.157541e+000 1.557925e+000
         vertex 5.853200e+000 3.157541e+000 1.000000e+001
         vertex 5.672541e+000 3.073298e+000 1.000000e+001
      endloop
   endfacet
   facet normal 3.960194e-001 -9.182422e-001 0.000000e+000
      outer loop
         vertex 5.853200e+000 3.157541e+000 1.557925e+000
         vertex 5.672541e+000 3.073298e+000 1.000000e+001
         vertex 5.672541e+000 3.073298e+000 1.557925e+000
      endloop
   endfacet
   facet normal 2.868663e-001 -9.579706e-001 0.000000e+000
      outer loop
         vertex 5.672541e+000 3.073298e+000 1.557925e+000
         vertex 5.672541e+000 3.073298e+000 1.000000e+001
         vertex 5.479997e+000 3.021706e+000 1.000000e+001
      endloop
   endfacet
   facet normal 2.305519e-001 -9.730600e-001 0.000000e+000
      outer loop
         vertex 5.672541e+000 3.073298e+000 1.557925e+000
         vertex 5.479997e+000 3.021706e+000 1.000000e+001
         vertex 5.479997e+000 3.021706e+000 1.557925e+000
      endloop
   endfacet
   facet normal 1.161583e-001 -9.932307e-001 0.000000e+000
      outer loop
         vertex 5.479997e+000 3.021706e+000 1.557925e+000
         vertex 5.479997e+000 3.021706e+000 1.000000e+001
         vertex 5.281420e+000 3.004333e+000 1.000000e+001
      endloop
   endfacet
   facet normal 5.807913e-002 -9.983119e-001 0.000000e+000
      outer loop
         vertex 5.479997e+000 3.021706e+000 1.557925e+000
         vertex 5.281420e+000 3.004333e+000 1.000000e+001
         vertex 5.281420e+000 3.004333e+000 1.557925e+000
      endloop
   endfacet
   facet normal -5.807913e-002 -9.983119e-001 0.000000e+000
      outer loop
         vertex 5.281420e+000 3.004333e+000 1.557925e+000
         vertex 5.281420e+000 3.004333e+000 1.000000e+001
         vertex 5.082842e+000 3.021706e+000 1.000000e+001
      endloop
   endfacet
   facet normal -1.161583e-001 -9.932307e-001 0.000000e+000
      outer loop
         vertex 5.281420e+000 3.004333e+000 1.557925e+000
         vertex 5.082842e+000 3.021706e+000 1.000000e+001
         vertex 5.082842e+000 3.021706e+000 1.557925e+000
      endloop
   endfacet
   facet normal -2.305519e-001 -9.730600e-001 0.000000e+000
      outer loop
         vertex 5.082842e+000 3.021706e+000 1.557925e+000
         vertex 5.082842e+000 3.021706e+000 1.000000e+001
         vertex 4.890299e+000 3.073298e+000 1.000000e+001
      endloop
   endfacet
   facet normal -2.868663e-001 -9.579706e-001 0.000000e+000
      outer loop
         vertex 5.082842e+000 3.021706e+000 1.557925e+000
         vertex 4.890299e+000 3.073298e+000 1.000000e+001
         vertex 4.890299e+000 3.073298e+000 1.557925e+000
      endloop
   endfacet
   facet normal -3.960194e-001 -9.182422e-001 0.000000e+000
      outer loop
         vertex 4.890299e+000 3.073298e+000 1.557925e+000
         vertex 4.890299e+000 3.073298e+000 1.000000e+001
         vertex 4.709640e+000 3.157541e+000 1.000000e+001
      endloop
   endfacet
   facet normal -4.488580e-001 -8.936031e-001 0.000000e+000
      outer loop
         vertex 4.890299e+000 3.073298e+000 1.557925e+000
         vertex 4.709640e+000 3.157541e+000 1.000000e+001
         vertex 4.709640e+000 3.157541e+000 1.557925e+000
      endloop
   endfacet
   facet normal -5.494540e-001 -8.355240e-001 0.000000e+000
      outer loop
         vertex 4.709640e+000 3.157541e+000 1.557925e+000
         vertex 4.709640e+000 3.157541e+000 1.000000e+001
         vertex 4.546354e+000 3.271875e+000 1.000000e+001
      endloop
   endfacet
   facet normal -5.972114e-001 -8.020838e-001 0.000000e+000
      outer loop
         vertex 4.709640e+000 3.157541e+000 1.557925e+000
         vertex 4.546354e+000 3.271875e+000 1.000000e+001
         vertex 4.546354e+000 3.271875e+000 1.557925e+000
      endloop
   endfacet
   facet normal -6.861938e-001 -7.274188e-001 0.000000e+000
      outer loop
         vertex 4.546354e+000 3.271875e+000 1.557925e+000
         vertex 4.546354e+000 3.271875e+000 1.000000e+001
         vertex 4.405402e+000 3.412827e+000 1.000000e+001
      endloop
   endfacet
   facet normal -7.274188e-001 -6.861938e-001 0.000000e+000
      outer loop
         vertex 4.546354e+000 3.271875e+000 1.557925e+000
         vertex 4.405402e+000 3.412827e+000 1.000000e+001
         vertex 4.405402e+000 3.412827e+000 1.557925e+000
      endloop
   endfacet
   facet normal -8.020838e-001 -5.972114e-001 0.000000e+000
      outer loop
         vertex 4.405402e+000 3.412827e+000 1.557925e+000
         vertex 4.405402e+000 3.412827e+000 1.000000e+001
         vertex 4.291068e+000 3.576113e+000 1.000000e+001
      endloop
   endfacet
   facet normal -8.355240e-001 -5.494540e-001 0.000000e+000
      outer loop
         vertex 4.405402e+000 3.412827e+000 1.557925e+000
         vertex 4.291068e+000 3.576113e+000 1.000000e+001
         vertex 4.291068e+000 3.576113e+000 1.557925e+000
      endloop
   endfacet
   facet normal -8.936031e-001 -4.488580e-001 0.000000e+000
      outer loop
         vertex 4.291068e+000 3.576113e+000 1.557925e+000
         vertex 4.291068e+000 3.576113e+000 1.000000e+001
         vertex 4.206825e+000 3.756772e+000 1.000000e+001
      endloop
   endfacet
   facet normal -9.182422e-001 -3.960194e-001 0.000000e+000
      outer loop
         vertex 4.291068e+000 3.576113e+000 1.557925e+000
         vertex 4.206825e+000 3.756772e+000 1.000000e+001
         vertex 4.206825e+000 3.756772e+000 1.557925e+000
      endloop
   endfacet
   facet normal -9.579706e-001 -2.868663e-001 0.000000e+000
      outer loop
         vertex 4.206825e+000 3.756772e+000 1.557925e+000
         vertex 4.206825e+000 3.756772e+000 1.000000e+001
         vertex 4.155232e+000 3.949316e+000 1.000000e+001
      endloop
   endfacet
   facet normal -9.730600e-001 -2.305519e-001 0.000000e+000
      outer loop
         vertex 4.206825e+000 3.756772e+000 1.557925e+000
         vertex 4.155232e+000 3.949316e+000 1.000000e+001
         vertex 4.155232e+000 3.949316e+000 1.557925e+000
      endloop
   endfacet
   facet normal -9.932307e-001 -1.161583e-001 0.000000e+000
      outer loop
         vertex 4.155232e+000 3.949316e+000 1.557925e+000
         vertex 4.155232e+000 3.949316e+000 1.000000e+001
         vertex 4.137860e+000 4.147893e+000 1.000000e+001
      endloop
   endfacet
   facet normal -9.983119e-001 -5.807913e-002 0.000000e+000
      outer loop
         vertex 4.155232e+000 3.949316e+000 1.557925e+000
         vertex 4.137860e+000 4.147893e+000 1.000000e+001
         vertex 4.137860e+000 4.147893e+000 1.557925e+000
      endloop
   endfacet
   facet normal -9.983119e-001 5.807913e-002 0.000000e+000
      outer loop
         vertex 4.137860e+000 4.147893e+000 1.557925e+000
         vertex 4.137860e+000 4.147893e+000 1.000000e+001
         vertex 4.155232e+000 4.346470e+000 1.000000e+001
      endloop
   endfacet
   facet normal -9.932307e-001 1.161583e-001 0.000000e+000
      outer loop
         vertex 4.137860e+000 4.147893e+000 1.557925e+000
         vertex 4.155232e+000 4.346470e+000 1.000000e+001
         vertex 4.155232e+000 4.346470e+000 1.557925e+000
      endloop
   endfacet
   facet normal -9.730600e-001 2.305519e-001 0.000000e+000
      outer loop
         vertex 4.155232e+000 4.346470e+000 1.557925e+000
         vertex 4.155232e+000 4.346470e+000 1.000000e+001
         vertex 4.206825e+000 4.539013e+000 1.000000e+001
      endloop
   endfacet
   facet normal -9.579706e-001 2.868663e-001 0.000000e+000
      outer loop
         vertex 4.155232e+000 4.346470e+000 1.557925e+000
         vertex 4.206825e+000 4.539013e+000 1.000000e+001
         vertex 4.206825e+000 4.539013e+000 1.557925e+000
      endloop
   endfacet
   facet normal -9.182422e-001 3.960194e-001 0.000000e+000
      outer loop
         vertex 4.206825e+000 4.539013e+000 1.557925e+000
         vertex 4.206825e+000 4.539013e+000 1.000000e+001
         vertex 4.291068e+000 4.719673e+000 1.000000e+001
      endloop
   endfacet
   facet normal -8.936031e-001 4.488580e-001 0.000000e+000
      outer loop
         vertex 4.206825e+000 4.539013e+000 1.557925e+000
         vertex 4.291068e+000 4.719673e+000 1.000000e+001
         vertex 4.291068e+000 4.719673e+000 1.557925e+000
      endloop
   endfacet
   facet normal -8.355240e-001 5.494540e-001 0.000000e+000
      outer loop
         vertex 4.291068e+000 4.719673e+000 1.557925e+000
         vertex 4.291068e+000 4.719673e+000 1.000000e+001
         vertex 4.405402e+000 4.882959e+000 1.000000e+001
      endloop
   endfacet
   facet normal -8.020838e-001 5.972114e-001 0.000000e+000
      outer loop
         vertex 4.291068e+000 4.719673e+000 1.557925e+000
         vertex 4.405402e+000 4.882959e+000 1.000000e+001
         vertex 4.405402e+000 4.882959e+000 1.557925e+000
      endloop
   endfacet
   facet normal -7.274188e-001 6.861938e-001 0.000000e+000
      outer loop
         vertex 4.405402e+000 4.882959e+000 1.557925e+000
         vertex 4.405402e+000 4.882959e+000 1.000000e+001
         vertex 4.546354e+000 5.023911e+000 1.000000e+001
      endloop
   endfacet
   facet normal -6.861938e-001 7.274188e-001 0.000000e+000
      outer loop
         vertex 4.405402e+000 4.882959e+000 1.557925e+000
         vertex 4.546354e+000 5.023911e+000 1.000000e+001
         vertex 4.546354e+000 5.023911e+000 1.557925e+000
      endloop
   endfacet
   facet normal -5.972114e-001 8.020838e-001 0.000000e+000
      outer loop
         vertex 4.546354e+000 5.023911e+000 1.557925e+000
         vertex 4.546354e+000 5.023911e+000 1.000000e+001
         vertex 4.709640e+000 5.138246e+000 1.000000e+001
      endloop
   endfacet
   facet normal -5.494540e-001 8.355240e-001 0.000000e+000
      outer loop
         vertex 4.546354e+000 5.023911e+000 1.557925e+000
         vertex 4.709640e+000 5.138246e+000 1.000000e+001
         vertex 4.709640e+000 5.138246e+000 1.557925e+000
      endloop
   endfacet
   facet normal -4.488580e-001 8.936031e-001 0.000000e+000
      outer loop
         vertex 4.709640e+000 5.138246e+000 1.557925e+000
         vertex 4.709640e+000 5.138246e+000 1.000000e+001
         vertex 4.890299e+000 5.222488e+000 1.000000e+001
      endloop
   endfacet
   facet normal -3.960194e-001 9.182422e-001 0.000000e+000
      outer loop
         vertex 4.709640e+000 5.138246e+000 1.557925e+000
         vertex 4.890299e+000 5.222488e+000 1.000000e+001
         vertex 4.890299e+000 5.222488e+000 1.557925e+000
      endloop
   endfacet
   facet normal -2.868663e-001 9.579706e-001 0.000000e+000
      outer loop
         vertex 4.890299e+000 5.222488e+000 1.557925e+000
         vertex 4.890299e+000 5.222488e+000 1.000000e+001
         vertex 5.082842e+000 5.274080e+000 1.000000e+001
      endloop
   endfacet
   facet normal -2.305519e-001 9.730600e-001 0.000000e+000
      outer loop
         vertex 4.890299e+000 5.222488e+000 1.557925e+000
         vertex 5.082842e+000 5.274080e+000 1.000000e+001
         vertex 5.082842e+000 5.274080e+000 1.557925e+000
      endloop
   endfacet
   facet normal -1.161583e-001 9.932307e-001 0.000000e+000
      outer loop
         vertex 5.082842e+000 5.274080e+000 1.557925e+000
         vertex 5.082842e+000 5.274080e+000 1.000000e+001
         vertex 5.281420e+000 5.291453e+000 1.000000e+001
      endloop
   endfacet
   facet normal -5.807913e-002 9.983119e-001 0.000000e+000
      outer loop
         vertex 5.082842e+000 5.274080e+000 1.557925e+000
         vertex 5.281420e+000 5.291453e+000 1.000000e+001
         vertex 5.281420e+000 5.291453e+000 1.557925e+000
      endloop
   endfacet
   facet normal 5.807913e-002 9.983119e-001 0.000000e+000
      outer loop
         vertex 5.281420e+000 5.291453e+000 1.557925e+000
         vertex 5.281420e+000 5.291453e+000 1.000000e+001
         vertex 5.479997e+000 5.274080e+000 1.000000e+001
      endloop
   endfacet
   facet normal 1.161583e-001 9.932307e-001 0.000000e+000
      outer loop
         vertex 5.281420e+000 5.291453e+000 1.557925e+000
         vertex 5.479997e+000 5.274080e+000 1.000000e+001
         vertex 5.479997e+000 5.274080e+000 1.557925e+000
      endloop
   endfacet
   facet normal 2.305519e-001 9.730600e-001 0.000000e+000
      outer loop
         vertex 5.479997e+000 5.274080e+000 1.557925e+000
         vertex 5.479997e+000 5.274080e+000 1.000000e+001
         vertex 5.672541e+000 5.222488e+000 1.000000e+001
      endloop
   endfacet
   facet normal 2.868663e-001 9.579706e-001 0.000000e+000
      outer loop
         vertex 5.479997e+000 5.274080e+000 1.557925e+000
         vertex 5.672541e+000 5.222488e+000 1.000000e+001
         vertex 5.672541e+000 5.222488e+000 1.557925e+000
      endloop
   endfacet
   facet normal 3.960194e-001 9.182422e-001 0.000000e+000
      outer loop
         vertex 5.672541e+000 5.222488e+000 1.557925e+000
         vertex 5.672541e+000 5.222488e+000 1.000000e+001
         vertex 5.853200e+000 5.138246e+000 1.000000e+001
      endloop
   endfacet
   facet normal 4.488580e-001 8.936031e-001 0.000000e+000
      outer loop
         vertex 5.672541e+000 5.222488e+000 1.557925e+000
         vertex 5.853200e+000 5.138246e+000 1.000000e+001
         vertex 5.853200e+000 5.138246e+000 1.557925e+000
      endloop
   endfacet
   facet normal 5.494540e-001 8.355240e-001 0.000000e+000
      outer loop
         vertex 5.853200e+000 5.138246e+000 1.557925e+000
         vertex 5.853200e+000 5.138246e+000 1.000000e+001
         vertex 6.016486e+000 5.023911e+000 1.000000e+001
      endloop
   endfacet
   facet normal 5.972114e-001 8.020838e-001 0.000000e+000
      outer loop
         vertex 5.853200e+000 5.138246e+000 1.557925e+000
         vertex 6.016486e+000 5.023911e+000 1.000000e+001
         vertex 6.016486e+000 5.023911e+000 1.557925e+000
      endloop
   endfacet
   facet normal 6.861938e-001 7.274188e-001 0.000000e+000
      outer loop
         vertex 6.016486e+000 5.023911e+000 1.557925e+000
         vertex 6.016486e+000 5.023911e+000 1.000000e+001
         vertex 6.157438e+000 4.882959e+000 1.000000e+001
      endloop
   endfacet
   facet normal 7.274188e-001 6.861938e-001 0.000000e+000
      outer loop
         vertex 6.016486e+000 5.023911e+000 1.557925e+000
         vertex 6.157438e+000 4.882959e+000 1.000000e+001
         vertex 6.157438e+000 4.882959e+000 1.557925e+000
      endloop
   endfacet
   facet normal 8.020838e-001 5.972114e-001 0.000000e+000
      outer loop
         vertex 6.157438e+000 4.882959e+000 1.557925e+000
         vertex 6.157438e+000 4.882959e+000 1.000000e+001
         vertex 6.271772e+000 4.719673e+000 1.000000e+001
      endloop
   endfacet
   facet normal 8.355240e-001 5.494540e-001 0.000000e+000
      outer loop
         vertex 6.157438e+000 4.882959e+000 1.557925e+000
         vertex 6.271772e+000 4.719673e+000 1.000000e+001
         vertex 6.271772e+000 4.719673e+000 1.557925e+000
      endloop
   endfacet
   facet normal 8.936031e-001 4.488580e-001 0.000000e+000
      outer loop
         vertex 6.271772e+000 4.719673e+000 1.557925e+000
         vertex 6.271772e+000 4.719673e+000 1.000000e+001
         vertex 6.356015e+000 4.539013e+000 1.000000e+001
      endloop
   endfacet
   facet normal 9.182422e-001 3.960194e-001 0.000000e+000
      outer loop
         vertex 6.271772e+000 4.719673e+000 1.557925e+000
         vertex 6.356015e+000 4.539013e+000 1.000000e+001
         vertex 6.356015e+000 4.539013e+000 1.557925e+000
      endloop
   endfacet
   facet normal 9.579706e-001 2.868663e-001 0.000000e+000
      outer loop
         vertex 6.356015e+000 4.539013e+000 1.557925e+000
         vertex 6.356015e+000 4.539013e+000 1.000000e+001
         vertex 6.407607e+000 4.346470e+000 1.000000e+001
      endloop
   endfacet
   facet normal 9.730600e-001 2.305519e-001 0.000000e+000
      outer loop
         vertex 6.356015e+000 4.539013e+000 1.557925e+000
         vertex 6.407607e+000 4.346470e+000 1.000000e+001
         vertex 6.407607e+000 4.346470e+000 1.557925e+000
      endloop
   endfacet
   facet normal 9.932307e-001 1.161583e-001 0.000000e+000
      outer loop
         vertex 6.407607e+000 4.346470e+000 1.557925e+000
         vertex 6.407607e+000 4.346470e+000 1.000000e+001
         vertex 6.424980e+000 4.147893e+000 1.000000e+001
      endloop
   endfacet
   facet normal 0.000000e+000 0.000000e+000 1.000000e+000
      outer loop
         vertex 4.291068e+000 3.576113e+000 1.000000e+001
         vertex 4.405402e+000 4.882959e+000 1.000000e+001
         vertex 4.291068e+000 4.719673e+000 1.000000e+001
      endloop
   endfacet
   facet normal 0.000000e+000 0.000000e+000 1.000000e+000
      outer loop
         vertex 4.890299e+000 5.222488e+000 1.000000e+001
         vertex 4.291068e+000 3.576113e+000 1.000000e+001
         vertex 4.405402e+000 3.412827e+000 1.000000e+001
      endloop
   endfacet
   facet normal 0.000000e+000 0.000000e+000 1.000000e+000
      outer loop
         vertex 5.479997e+000 3.021706e+000 1.000000e+001
         vertex 5.672541e+000 3.073298e+000 1.000000e+001
         vertex 4.890299e+000 5.222488e+000 1.000000e+001
      endloop
   endfacet
   facet normal 0.000000e+000 0.000000e+000 1.000000e+000
      outer loop
         vertex 4.890299e+000 5.222488e+000 1.000000e+001
         vertex 5.672541e+000 3.073298e+000 1.000000e+001
         vertex 5.853200e+000 3.157541e+000 1.000000e+001
      endloop
   endfacet
   facet normal 0.000000e+000 0.000000e+000 1.000000e+000
      outer loop
         vertex 4.890299e+000 5.222488e+000 1.000000e+001
         vertex 5.853200e+000 3.157541e+000 1.000000e+001
         vertex 6.016486e+000 3.271875e+000 1.000000e+001
      endloop
   endfacet
   facet normal 0.000000e+000 0.000000e+000 1.000000e+000
      outer loop
         vertex 4.890299e+000 5.222488e+000 1.000000e+001
         vertex 4.709640e+000 5.138246e+000 1.000000e+001
         vertex 4.291068e+000 3.576113e+000 1.000000e+001
      endloop
   endfacet
   facet normal 0.000000e+000 0.000000e+000 1.000000e+000
      outer loop
         vertex 4.291068e+000 3.576113e+000 1.000000e+001
         vertex 4.709640e+000 5.138246e+000 1.000000e+001
         vertex 4.546354e+000 5.023911e+000 1.000000e+001
      endloop
   endfacet
   facet normal 0.000000e+000 0.000000e+000 1.000000e+000
      outer loop
         vertex 4.291068e+000 3.576113e+000 1.000000e+001
         vertex 4.546354e+000 5.023911e+000 1.000000e+001
         vertex 4.405402e+000 4.882959e+000 1.000000e+001
      endloop
   endfacet
   facet normal 0.000000e+000 0.000000e+000 1.000000e+000
      outer loop
         vertex 4.405402e+000 3.412827e+000 1.000000e+001
         vertex 4.546354e+000 3.271875e+000 1.000000e+001
         vertex 4.890299e+000 5.222488e+000 1.000000e+001
      endloop
   endfacet
   facet normal 0.000000e+000 0.000000e+000 1.000000e+000
      outer loop
         vertex 4.890299e+000 5.222488e+000 1.000000e+001
         vertex 4.546354e+000 3.271875e+000 1.000000e+001
         vertex 4.709640e+000 3.157541e+000 1.000000e+001
      endloop
   endfacet
   facet normal 0.000000e+000 0.000000e+000 1.000000e+000
      outer loop
         vertex 4.890299e+000 5.222488e+000 1.000000e+001
         vertex 4.709640e+000 3.157541e+000 1.000000e+001
         vertex 4.890299e+000 3.073298e+000 1.000000e+001
      endloop
   endfacet
   facet normal 0.000000e+000 0.000000e+000 1.000000e+000
      outer loop
         vertex 5.281420e+000 5.291453e+000 1.000000e+001
         vertex 6.424980e+000 4.147893e+000 1.000000e+001
         vertex 6.407607e+000 4.346470e+000 1.000000e+001
      endloop
   endfacet
   facet normal 0.000000e+000 0.000000e+000 1.000000e+000
      outer loop
         vertex 4.137860e+000 4.147893e+000 1.000000e+001
         vertex 4.291068e+000 4.719673e+000 1.000000e+001
         vertex 4.155232e+000 4.346470e+000 1.000000e+001
      endloop
   endfacet
   facet normal 0.000000e+000 0.000000e+000 1.000000e+000
      outer loop
         vertex 4.155232e+000 4.346470e+000 1.000000e+001
         vertex 4.291068e+000 4.719673e+000 1.000000e+001
         vertex 4.206825e+000 4.539013e+000 1.000000e+001
      endloop
   endfacet
   facet normal 0.000000e+000 0.000000e+000 1.000000e+000
      outer loop
         vertex 4.890299e+000 3.073298e+000 1.000000e+001
         vertex 5.082842e+000 3.021706e+000 1.000000e+001
         vertex 4.890299e+000 5.222488e+000 1.000000e+001
      endloop
   endfacet
   facet normal 0.000000e+000 0.000000e+000 1.000000e+000
      outer loop
         vertex 4.890299e+000 5.222488e+000 1.000000e+001
         vertex 5.082842e+000 3.021706e+000 1.000000e+001
         vertex 5.281420e+000 3.004333e+000 1.000000e+001
      endloop
   endfacet
   facet normal 0.000000e+000 0.000000e+000 1.000000e+000
      outer loop
         vertex 4.890299e+000 5.222488e+000 1.000000e+001
         vertex 5.281420e+000 3.004333e+000 1.000000e+001
         vertex 5.479997e+000 3.021706e+000 1.000000e+001
      endloop
   endfacet
   facet normal 0.000000e+000 0.000000e+000 1.000000e+000
      outer loop
         vertex 6.016486e+000 3.271875e+000 1.000000e+001
         vertex 6.157438e+000 3.412827e+000 1.000000e+001
         vertex 4.890299e+000 5.222488e+000 1.000000e+001
      endloop
   endfacet
   facet normal 0.000000e+000 0.000000e+000 1.000000e+000
      outer loop
         vertex 4.890299e+000 5.222488e+000 1.000000e+001
         vertex 6.157438e+000 3.412827e+000 1.000000e+001
         vertex 6.271772e+000 3.576113e+000 1.000000e+001
      endloop
   endfacet
   facet normal 0.000000e+000 0.000000e+000 1.000000e+000
      outer loop
         vertex 4.890299e+000 5.222488e+000 1.000000e+001
         vertex 6.271772e+000 3.576113e+000 1.000000e+001
         vertex 6.356015e+000 3.756772e+000 1.000000e+001
      endloop
   endfacet
   facet normal 0.000000e+000 0.000000e+000 1.000000e+000
      outer loop
         vertex 5.281420e+000 5.291453e+000 1.000000e+001
         vertex 5.082842e+000 5.274080e+000 1.000000e+001
         vertex 6.424980e+000 4.147893e+000 1.000000e+001
      endloop
   endfacet
   facet normal 0.000000e+000 0.000000e+000 1.000000e+000
      outer loop
         vertex 6.424980e+000 4.147893e+000 1.000000e+001
         vertex 5.082842e+000 5.274080e+000 1.000000e+001
         vertex 4.890299e+000 5.222488e+000 1.000000e+001
      endloop
   endfacet
   facet normal 0.000000e+000 0.000000e+000 1.000000e+000
      outer loop
         vertex 6.424980e+000 4.147893e+000 1.000000e+001
         vertex 4.890299e+000 5.222488e+000 1.000000e+001
         vertex 6.407607e+000 3.949316e+000 1.000000e+001
      endloop
   endfacet
   facet normal 0.000000e+000 0.000000e+000 1.000000e+000
      outer loop
         vertex 6.407607e+000 3.949316e+000 1.000000e+001
         vertex 4.890299e+000 5.222488e+000 1.000000e+001
         vertex 6.356015e+000 3.756772e+000 1.000000e+001
      endloop
   endfacet
   facet normal 0.000000e+000 0.000000e+000 1.000000e+000
      outer loop
         vertex 4.137860e+000 4.147893e+000 1.000000e+001
         vertex 4.155232e+000 3.949316e+000 1.000000e+001
         vertex 4.291068e+000 4.719673e+000 1.000000e+001
      endloop
   endfacet
   facet normal 0.000000e+000 0.000000e+000 1.000000e+000
      outer loop
         vertex 4.291068e+000 4.719673e+000 1.000000e+001
         vertex 4.155232e+000 3.949316e+000 1.000000e+001
         vertex 4.206825e+000 3.756772e+000 1.000000e+001
      endloop
   endfacet
   facet normal 0.000000e+000 0.000000e+000 1.000000e+000
      outer loop
         vertex 4.291068e+000 4.719673e+000 1.000000e+001
         vertex 4.206825e+000 3.756772e+000 1.000000e+001
         vertex 4.291068e+000 3.576113e+000 1.000000e+001
      endloop
   endfacet
   facet normal 0.000000e+000 0.000000e+000 1.000000e+000
      outer loop
         vertex 5.672541e+000 5.222488e+000 1.000000e+001
         vertex 6.271772e+000 4.719673e+000 1.000000e+001
         vertex 5.853200e+000 5.138246e+000 1.000000e+001
      endloop
   endfacet
   facet normal 0.000000e+000 0.000000e+000 1.000000e+000
      outer loop
         vertex 5.853200e+000 5.138246e+000 1.000000e+001
         vertex 6.271772e+000 4.719673e+000 1.000000e+001
         vertex 6.157438e+000 4.882959e+000 1.000000e+001
      endloop
   endfacet
   facet normal 0.000000e+000 0.000000e+000 1.000000e+000
      outer loop
         vertex 5.853200e+000 5.138246e+000 1.000000e+001
         vertex 6.157438e+000 4.882959e+000 1.000000e+001
         vertex 6.016486e+000 5.023911e+000 1.000000e+001
      endloop
   endfacet
   facet normal 0.000000e+000 0.000000e+000 1.000000e+000
      outer loop
         vertex 6.407607e+000 4.346470e+000 1.000000e+001
         vertex 6.356015e+000 4.539013e+000 1.000000e+001
         vertex 5.281420e+000 5.291453e+000 1.000000e+001
      endloop
   endfacet
   facet normal 0.000000e+000 0.000000e+000 1.000000e+000
      outer loop
         vertex 5.281420e+000 5.291453e+000 1.000000e+001
         vertex 6.356015e+000 4.539013e+000 1.000000e+001
         vertex 6.271772e+000 4.719673e+000 1.000000e+001
      endloop
   endfacet
   facet normal 0.000000e+000 0.000000e+000 1.000000e+000
      outer loop
         vertex 5.281420e+000 5.291453e+000 1.000000e+001
         vertex 6.271772e+000 4.719673e+000 1.000000e+001
         vertex 5.479997e+000 5.274080e+000 1.000000e+001
      endloop
   endfacet
   facet normal 0.000000e+000 0.000000e+000 1.000000e+000
      outer loop
         vertex 5.479997e+000 5.274080e+000 1.000000e+001
         vertex 6.271772e+000 4.719673e+000 1.000000e+001
         vertex 5.672541e+000 5.222488e+000 1.000000e+001
      endloop
   endfacet
endsolid