solid 0_933
   facet normal -1.000000e+000 0.000000e+000 0.000000e+000
      outer loop
         vertex 0.000000e+000 1.000000e+001 1.000000e+001
         vertex 0.000000e+000 1.000000e+001 0.000000e+000
         vertex 0.000000e+000 0.000000e+000 1.000000e+001
      endloop
   endfacet
   facet normal -1.000000e+000 0.000000e+000 0.000000e+000
      outer loop
         vertex 0.000000e+000 0.000000e+000 1.000000e+001
         vertex 0.000000e+000 1.000000e+001 0.000000e+000
         vertex 0.000000e+000 0.000000e+000 0.000000e+000
      endloop
   endfacet
   facet normal 0.000000e+000 0.000000e+000 1.000000e+000
      outer loop
         vertex 7.757896e+000 3.678115e+000 1.000000e+001
         vertex 7.595914e+000 3.233072e+000 1.000000e+001
         vertex 1.000000e+001 0.000000e+000 1.000000e+001
      endloop
   endfacet
   facet normal 0.000000e+000 0.000000e+000 1.000000e+000
      outer loop
         vertex 3.673450e+000 1.319959e+000 1.000000e+001
         vertex 3.223026e+000 1.466311e+000 1.000000e+001
         vertex 0.000000e+000 0.000000e+000 1.000000e+001
      endloop
   endfacet
   facet normal 0.000000e+000 0.000000e+000 1.000000e+000
      outer loop
         vertex 0.000000e+000 0.000000e+000 1.000000e+001
         vertex 3.223026e+000 1.466311e+000 1.000000e+001
         vertex 2.797353e+000 1.673925e+000 1.000000e+001
      endloop
   endfacet
   facet normal 0.000000e+000 0.000000e+000 1.000000e+000
      outer loop
         vertex 7.757896e+000 3.678115e+000 1.000000e+001
         vertex 1.000000e+001 0.000000e+000 1.000000e+001
         vertex 7.856364e+000 4.141370e+000 1.000000e+001
      endloop
   endfacet
   facet normal 0.000000e+000 0.000000e+000 1.000000e+000
      outer loop
         vertex 7.595914e+000 3.233072e+000 1.000000e+001
         vertex 7.373570e+000 2.814904e+000 1.000000e+001
         vertex 1.000000e+001 0.000000e+000 1.000000e+001
      endloop
   endfacet
   facet normal 0.000000e+000 0.000000e+000 1.000000e+000
      outer loop
         vertex 1.000000e+001 0.000000e+000 1.000000e+001
         vertex 7.373570e+000 2.814904e+000 1.000000e+001
         vertex 7.095192e+000 2.431750e+000 1.000000e+001
      endloop
   endfacet
   facet normal 0.000000e+000 0.000000e+000 1.000000e+000
      outer loop
         vertex 1.000000e+001 0.000000e+000 1.000000e+001
         vertex 7.095192e+000 2.431750e+000 1.000000e+001
         vertex 6.766199e+000 2.091068e+000 1.000000e+001
      endloop
   endfacet
   facet normal 0.000000e+000 0.000000e+000 1.000000e+000
      outer loop
         vertex 1.000000e+001 1.000000e+001 1.000000e+001
         vertex 5.084186e+000 7.956946e+000 1.000000e+001
         vertex 5.543722e+000 7.842371e+000 1.000000e+001
      endloop
   endfacet
   facet normal 0.000000e+000 0.000000e+000 1.000000e+000
      outer loop
         vertex 6.766199e+000 2.091068e+000 1.000000e+001
         vertex 6.392994e+000 1.799488e+000 1.000000e+001
         vertex 1.000000e+001 0.000000e+000 1.000000e+001
      endloop
   endfacet
   facet normal 0.000000e+000 0.000000e+000 1.000000e+000
      outer loop
         vertex 1.000000e+001 0.000000e+000 1.000000e+001
         vertex 6.392994e+000 1.799488e+000 1.000000e+001
         vertex 5.982841e+000 1.562686e+000 1.000000e+001
      endloop
   endfacet
   facet normal 0.000000e+000 0.000000e+000 1.000000e+000
      outer loop
         vertex 1.000000e+001 0.000000e+000 1.000000e+001
         vertex 5.982841e+000 1.562686e+000 1.000000e+001
         vertex 5.543722e+000 1.385270e+000 1.000000e+001
      endloop
   endfacet
   facet normal 0.000000e+000 0.000000e+000 1.000000e+000
      outer loop
         vertex 5.543722e+000 1.385270e+000 1.000000e+001
         vertex 5.084186e+000 1.270695e+000 1.000000e+001
         vertex 1.000000e+001 0.000000e+000 1.000000e+001
      endloop
   endfacet
   facet normal 0.000000e+000 0.000000e+000 1.000000e+000
      outer loop
         vertex 1.000000e+001 0.000000e+000 1.000000e+001
         vertex 5.084186e+000 1.270695e+000 1.000000e+001
         vertex 4.613175e+000 1.221190e+000 1.000000e+001
      endloop
   endfacet
   facet normal 0.000000e+000 0.000000e+000 1.000000e+000
      outer loop
         vertex 1.000000e+001 0.000000e+000 1.000000e+001
         vertex 4.613175e+000 1.221190e+000 1.000000e+001
         vertex 0.000000e+000 0.000000e+000 1.000000e+001
      endloop
   endfacet
   facet normal 0.000000e+000 0.000000e+000 1.000000e+000
      outer loop
         vertex 0.000000e+000 0.000000e+000 1.000000e+001
         vertex 4.613175e+000 1.221190e+000 1.000000e+001
         vertex 4.139860e+000 1.237718e+000 1.000000e+001
      endloop
   endfacet
   facet normal 0.000000e+000 0.000000e+000 1.000000e+000
      outer loop
         vertex 0.000000e+000 0.000000e+000 1.000000e+001
         vertex 4.139860e+000 1.237718e+000 1.000000e+001
         vertex 3.673450e+000 1.319959e+000 1.000000e+001
      endloop
   endfacet
   facet normal 0.000000e+000 0.000000e+000 1.000000e+000
      outer loop
         vertex 5.543722e+000 7.842371e+000 1.000000e+001
         vertex 5.982841e+000 7.664956e+000 1.000000e+001
         vertex 1.000000e+001 1.000000e+001 1.000000e+001
      endloop
   endfacet
   facet normal 0.000000e+000 0.000000e+000 1.000000e+000
      outer loop
         vertex 1.000000e+001 1.000000e+001 1.000000e+001
         vertex 5.982841e+000 7.664956e+000 1.000000e+001
         vertex 6.392994e+000 7.428154e+000 1.000000e+001
      endloop
   endfacet
   facet normal 0.000000e+000 0.000000e+000 1.000000e+000
      outer loop
         vertex 1.000000e+001 1.000000e+001 1.000000e+001
         vertex 6.392994e+000 7.428154e+000 1.000000e+001
         vertex 6.766199e+000 7.136573e+000 1.000000e+001
      endloop
   endfacet
   facet normal 0.000000e+000 0.000000e+000 1.000000e+000
      outer loop
         vertex 6.766199e+000 7.136573e+000 1.000000e+001
         vertex 7.095192e+000 6.795891e+000 1.000000e+001
         vertex 1.000000e+001 1.000000e+001 1.000000e+001
      endloop
   endfacet
   facet normal 0.000000e+000 0.000000e+000 1.000000e+000
      outer loop
         vertex 1.000000e+001 1.000000e+001 1.000000e+001
         vertex 7.095192e+000 6.795891e+000 1.000000e+001
         vertex 7.373570e+000 6.412736e+000 1.000000e+001
      endloop
   endfacet
   facet normal 0.000000e+000 0.000000e+000 1.000000e+000
      outer loop
         vertex 1.000000e+001 1.000000e+001 1.000000e+001
         vertex 7.373570e+000 6.412736e+000 1.000000e+001
         vertex 7.595914e+000 5.994569e+000 1.000000e+001
      endloop
   endfacet
   facet normal 0.000000e+000 0.000000e+000 1.000000e+000
      outer loop
         vertex 7.595914e+000 5.994569e+000 1.000000e+001
         vertex 7.757896e+000 5.549526e+000 1.000000e+001
         vertex 1.000000e+001 1.000000e+001 1.000000e+001
      endloop
   endfacet
   facet normal 0.000000e+000 0.000000e+000 1.000000e+000
      outer loop
         vertex 1.000000e+001 1.000000e+001 1.000000e+001
         vertex 7.757896e+000 5.549526e+000 1.000000e+001
         vertex 7.856364e+000 5.086272e+000 1.000000e+001
      endloop
   endfacet
   facet normal 0.000000e+000 0.000000e+000 1.000000e+000
      outer loop
         vertex 1.000000e+001 1.000000e+001 1.000000e+001
         vertex 7.856364e+000 5.086272e+000 1.000000e+001
         vertex 1.000000e+001 0.000000e+000 1.000000e+001
      endloop
   endfacet
   facet normal 0.000000e+000 0.000000e+000 1.000000e+000
      outer loop
         vertex 1.000000e+001 0.000000e+000 1.000000e+001
         vertex 7.856364e+000 5.086272e+000 1.000000e+001
         vertex 7.889401e+000 4.613821e+000 1.000000e+001
      endloop
   endfacet
   facet normal 0.000000e+000 0.000000e+000 1.000000e+000
      outer loop
         vertex 1.000000e+001 0.000000e+000 1.000000e+001
         vertex 7.889401e+000 4.613821e+000 1.000000e+001
         vertex 7.856364e+000 4.141370e+000 1.000000e+001
      endloop
   endfacet
   facet normal 0.000000e+000 0.000000e+000 1.000000e+000
      outer loop
         vertex 2.797353e+000 1.673925e+000 1.000000e+001
         vertex 2.404717e+000 1.938762e+000 1.000000e+001
         vertex 0.000000e+000 0.000000e+000 1.000000e+001
      endloop
   endfacet
   facet normal 0.000000e+000 0.000000e+000 1.000000e+000
      outer loop
         vertex 0.000000e+000 0.000000e+000 1.000000e+001
         vertex 2.404717e+000 1.938762e+000 1.000000e+001
         vertex 2.052760e+000 2.255665e+000 1.000000e+001
      endloop
   endfacet
   facet normal 0.000000e+000 0.000000e+000 1.000000e+000
      outer loop
         vertex 0.000000e+000 0.000000e+000 1.000000e+001
         vertex 2.052760e+000 2.255665e+000 1.000000e+001
         vertex 1.748333e+000 2.618467e+000 1.000000e+001
      endloop
   endfacet
   facet normal 0.000000e+000 0.000000e+000 1.000000e+000
      outer loop
         vertex 1.748333e+000 2.618467e+000 1.000000e+001
         vertex 1.497361e+000 3.020106e+000 1.000000e+001
         vertex 0.000000e+000 0.000000e+000 1.000000e+001
      endloop
   endfacet
   facet normal 0.000000e+000 0.000000e+000 1.000000e+000
      outer loop
         vertex 0.000000e+000 0.000000e+000 1.000000e+001
         vertex 1.497361e+000 3.020106e+000 1.000000e+001
         vertex 1.304729e+000 3.452765e+000 1.000000e+001
      endloop
   endfacet
   facet normal 0.000000e+000 0.000000e+000 1.000000e+000
      outer loop
         vertex 0.000000e+000 0.000000e+000 1.000000e+001
         vertex 1.304729e+000 3.452765e+000 1.000000e+001
         vertex 1.174186e+000 3.908023e+000 1.000000e+001
      endloop
   endfacet
   facet normal 0.000000e+000 0.000000e+000 1.000000e+000
      outer loop
         vertex 0.000000e+000 1.000000e+001 1.000000e+001
         vertex 3.673450e+000 7.907682e+000 1.000000e+001
         vertex 4.139860e+000 7.989923e+000 1.000000e+001
      endloop
   endfacet
   facet normal 0.000000e+000 0.000000e+000 1.000000e+000
      outer loop
         vertex 1.304729e+000 5.774876e+000 1.000000e+001
         vertex 1.497361e+000 6.207535e+000 1.000000e+001
         vertex 0.000000e+000 1.000000e+001 1.000000e+001
      endloop
   endfacet
   facet normal 0.000000e+000 0.000000e+000 1.000000e+000
      outer loop
         vertex 0.000000e+000 1.000000e+001 1.000000e+001
         vertex 4.139860e+000 7.989923e+000 1.000000e+001
         vertex 1.000000e+001 1.000000e+001 1.000000e+001
      endloop
   endfacet
   facet normal 0.000000e+000 0.000000e+000 1.000000e+000
      outer loop
         vertex 1.000000e+001 1.000000e+001 1.000000e+001
         vertex 4.139860e+000 7.989923e+000 1.000000e+001
         vertex 4.613175e+000 8.006452e+000 1.000000e+001
      endloop
   endfacet
   facet normal 0.000000e+000 0.000000e+000 1.000000e+000
      outer loop
         vertex 1.000000e+001 1.000000e+001 1.000000e+001
         vertex 4.613175e+000 8.006452e+000 1.000000e+001
         vertex 5.084186e+000 7.956946e+000 1.000000e+001
      endloop
   endfacet
   facet normal 0.000000e+000 0.000000e+000 1.000000e+000
      outer loop
         vertex 1.497361e+000 6.207535e+000 1.000000e+001
         vertex 1.748333e+000 6.609174e+000 1.000000e+001
         vertex 0.000000e+000 1.000000e+001 1.000000e+001
      endloop
   endfacet
   facet normal 0.000000e+000 0.000000e+000 1.000000e+000
      outer loop
         vertex 0.000000e+000 1.000000e+001 1.000000e+001
         vertex 1.748333e+000 6.609174e+000 1.000000e+001
         vertex 2.052760e+000 6.971976e+000 1.000000e+001
      endloop
   endfacet
   facet normal 0.000000e+000 0.000000e+000 1.000000e+000
      outer loop
         vertex 0.000000e+000 1.000000e+001 1.000000e+001
         vertex 2.052760e+000 6.971976e+000 1.000000e+001
         vertex 2.404717e+000 7.288880e+000 1.000000e+001
      endloop
   endfacet
   facet normal 0.000000e+000 0.000000e+000 1.000000e+000
      outer loop
         vertex 1.174186e+000 3.908023e+000 1.000000e+001
         vertex 1.108273e+000 4.377018e+000 1.000000e+001
         vertex 0.000000e+000 0.000000e+000 1.000000e+001
      endloop
   endfacet
   facet normal 0.000000e+000 0.000000e+000 1.000000e+000
      outer loop
         vertex 0.000000e+000 0.000000e+000 1.000000e+001
         vertex 1.108273e+000 4.377018e+000 1.000000e+001
         vertex 1.108273e+000 4.850623e+000 1.000000e+001
      endloop
   endfacet
   facet normal 0.000000e+000 0.000000e+000 1.000000e+000
      outer loop
         vertex 0.000000e+000 0.000000e+000 1.000000e+001
         vertex 1.108273e+000 4.850623e+000 1.000000e+001
         vertex 0.000000e+000 1.000000e+001 1.000000e+001
      endloop
   endfacet
   facet normal 0.000000e+000 0.000000e+000 1.000000e+000
      outer loop
         vertex 0.000000e+000 1.000000e+001 1.000000e+001
         vertex 1.108273e+000 4.850623e+000 1.000000e+001
         vertex 1.174186e+000 5.319618e+000 1.000000e+001
      endloop
   endfacet
   facet normal 0.000000e+000 0.000000e+000 1.000000e+000
      outer loop
         vertex 0.000000e+000 1.000000e+001 1.000000e+001
         vertex 1.174186e+000 5.319618e+000 1.000000e+001
         vertex 1.304729e+000 5.774876e+000 1.000000e+001
      endloop
   endfacet
   facet normal 0.000000e+000 0.000000e+000 1.000000e+000
      outer loop
         vertex 2.404717e+000 7.288880e+000 1.000000e+001
         vertex 2.797353e+000 7.553716e+000 1.000000e+001
         vertex 0.000000e+000 1.000000e+001 1.000000e+001
      endloop
   endfacet
   facet normal 0.000000e+000 0.000000e+000 1.000000e+000
      outer loop
         vertex 0.000000e+000 1.000000e+001 1.000000e+001
         vertex 2.797353e+000 7.553716e+000 1.000000e+001
         vertex 3.223026e+000 7.761330e+000 1.000000e+001
      endloop
   endfacet
   facet normal 0.000000e+000 0.000000e+000 1.000000e+000
      outer loop
         vertex 0.000000e+000 1.000000e+001 1.000000e+001
         vertex 3.223026e+000 7.761330e+000 1.000000e+001
         vertex 3.673450e+000 7.907682e+000 1.000000e+001
      endloop
   endfacet
   facet normal 1.000000e+000 0.000000e+000 0.000000e+000
      outer loop
         vertex 1.000000e+001 1.000000e+001 0.000000e+000
         vertex 1.000000e+001 1.000000e+001 1.000000e+001
         vertex 1.000000e+001 0.000000e+000 0.000000e+000
      endloop
   endfacet
   facet normal 1.000000e+000 0.000000e+000 0.000000e+000
      outer loop
         vertex 1.000000e+001 0.000000e+000 0.000000e+000
         vertex 1.000000e+001 1.000000e+001 1.000000e+001
         vertex 1.000000e+001 0.000000e+000 1.000000e+001
      endloop
   endfacet
   facet normal 0.000000e+000 0.000000e+000 -1.000000e+000
      outer loop
         vertex 0.000000e+000 1.000000e+001 0.000000e+000
         vertex 1.000000e+001 1.000000e+001 0.000000e+000
         vertex 0.000000e+000 0.000000e+000 0.000000e+000
      endloop
   endfacet
   facet normal 0.000000e+000 0.000000e+000 -1.000000e+000
      outer loop
         vertex 0.000000e+000 0.000000e+000 0.000000e+000
         vertex 1.000000e+001 1.000000e+001 0.000000e+000
         vertex 1.000000e+001 0.000000e+000 0.000000e+000
      endloop
   endfacet
   facet normal 0.000000e+000 1.000000e+000 0.000000e+000
      outer loop
         vertex 1.000000e+001 1.000000e+001 1.000000e+001
         vertex 1.000000e+001 1.000000e+001 0.000000e+000
         vertex 0.000000e+000 1.000000e+001 1.000000e+001
      endloop
   endfacet
   facet normal 0.000000e+000 1.000000e+000 0.000000e+000
      outer loop
         vertex 0.000000e+000 1.000000e+001 1.000000e+001
         vertex 1.000000e+001 1.000000e+001 0.000000e+000
         vertex 0.000000e+000 1.000000e+001 0.000000e+000
      endloop
   endfacet
   facet normal 0.000000e+000 -1.000000e+000 0.000000e+000
      outer loop
         vertex 1.000000e+001 0.000000e+000 0.000000e+000
         vertex 1.000000e+001 0.000000e+000 1.000000e+001
         vertex 0.000000e+000 0.000000e+000 0.000000e+000
      endloop
   endfacet
   facet normal 0.000000e+000 -1.000000e+000 0.000000e+000
      outer loop
         vertex 0.000000e+000 0.000000e+000 0.000000e+000
         vertex 1.000000e+001 0.000000e+000 1.000000e+001
         vertex 0.000000e+000 0.000000e+000 1.000000e+001
      endloop
   endfacet
   facet normal -9.989187e-001 4.649169e-002 0.000000e+000
      outer loop
         vertex 7.856364e+000 4.141370e+000 1.117061e+000
         vertex 7.889401e+000 4.613821e+000 1.000000e+001
         vertex 7.889401e+000 4.613821e+000 1.117061e+000
      endloop
   endfacet
   facet normal -9.989187e-001 -4.649169e-002 0.000000e+000
      outer loop
         vertex 7.889401e+000 4.613821e+000 1.117061e+000
         vertex 7.889401e+000 4.613821e+000 1.000000e+001
         vertex 7.856364e+000 5.086272e+000 1.000000e+001
      endloop
   endfacet
   facet normal -9.956677e-001 -9.298339e-002 0.000000e+000
      outer loop
         vertex 7.889401e+000 4.613821e+000 1.117061e+000
         vertex 7.856364e+000 5.086272e+000 1.000000e+001
         vertex 7.856364e+000 5.086272e+000 1.117061e+000
      endloop
   endfacet
   facet normal -9.827269e-001 -1.850619e-001 0.000000e+000
      outer loop
         vertex 7.856364e+000 5.086272e+000 1.117061e+000
         vertex 7.856364e+000 5.086272e+000 1.000000e+001
         vertex 7.757896e+000 5.549526e+000 1.000000e+001
      endloop
   endfacet
   facet normal -9.730371e-001 -2.306486e-001 0.000000e+000
      outer loop
         vertex 7.856364e+000 5.086272e+000 1.117061e+000
         vertex 7.757896e+000 5.549526e+000 1.000000e+001
         vertex 7.757896e+000 5.549526e+000 1.117061e+000
      endloop
   endfacet
   facet normal -9.474074e-001 -3.200300e-001 0.000000e+000
      outer loop
         vertex 7.757896e+000 5.549526e+000 1.117061e+000
         vertex 7.757896e+000 5.549526e+000 1.000000e+001
         vertex 7.595914e+000 5.994569e+000 1.000000e+001
      endloop
   endfacet
   facet normal -9.314675e-001 -3.638246e-001 0.000000e+000
      outer loop
         vertex 7.757896e+000 5.549526e+000 1.117061e+000
         vertex 7.595914e+000 5.994569e+000 1.000000e+001
         vertex 7.595914e+000 5.994569e+000 1.117061e+000
      endloop
   endfacet
   facet normal -8.936477e-001 -4.487691e-001 0.000000e+000
      outer loop
         vertex 7.595914e+000 5.994569e+000 1.117061e+000
         vertex 7.595914e+000 5.994569e+000 1.000000e+001
         vertex 7.373570e+000 6.412736e+000 1.000000e+001
      endloop
   endfacet
   facet normal -8.717679e-001 -4.899191e-001 0.000000e+000
      outer loop
         vertex 7.595914e+000 5.994569e+000 1.117061e+000
         vertex 7.373570e+000 6.412736e+000 1.000000e+001
         vertex 7.373570e+000 6.412736e+000 1.117061e+000
      endloop
   endfacet
   facet normal -8.224942e-001 -5.687734e-001 0.000000e+000
      outer loop
         vertex 7.373570e+000 6.412736e+000 1.117061e+000
         vertex 7.373570e+000 6.412736e+000 1.000000e+001
         vertex 7.095192e+000 6.795891e+000 1.000000e+001
      endloop
   endfacet
   facet normal -7.951004e-001 -6.064778e-001 0.000000e+000
      outer loop
         vertex 7.373570e+000 6.412736e+000 1.117061e+000
         vertex 7.095192e+000 6.795891e+000 1.000000e+001
         vertex 7.095192e+000 6.795891e+000 1.117061e+000
      endloop
   endfacet
   facet normal -7.353318e-001 -6.777073e-001 0.000000e+000
      outer loop
         vertex 7.095192e+000 6.795891e+000 1.117061e+000
         vertex 7.095192e+000 6.795891e+000 1.000000e+001
         vertex 6.766199e+000 7.136573e+000 1.000000e+001
      endloop
   endfacet
   facet normal -7.029572e-001 -7.112322e-001 0.000000e+000
      outer loop
         vertex 7.095192e+000 6.795891e+000 1.117061e+000
         vertex 6.766199e+000 7.136573e+000 1.000000e+001
         vertex 6.766199e+000 7.136573e+000 1.117061e+000
      endloop
   endfacet
   facet normal -6.338571e-001 -7.734503e-001 0.000000e+000
      outer loop
         vertex 6.766199e+000 7.136573e+000 1.117061e+000
         vertex 6.766199e+000 7.136573e+000 1.000000e+001
         vertex 6.392994e+000 7.428154e+000 1.000000e+001
      endloop
   endfacet
   facet normal -5.971316e-001 -8.021433e-001 0.000000e+000
      outer loop
         vertex 6.766199e+000 7.136573e+000 1.117061e+000
         vertex 6.392994e+000 7.428154e+000 1.000000e+001
         vertex 6.392994e+000 7.428154e+000 1.117061e+000
      endloop
   endfacet
   facet normal -5.200449e-001 -8.541389e-001 0.000000e+000
      outer loop
         vertex 6.392994e+000 7.428154e+000 1.117061e+000
         vertex 6.392994e+000 7.428154e+000 1.000000e+001
         vertex 5.982841e+000 7.664956e+000 1.000000e+001
      endloop
   endfacet
   facet normal -4.796836e-001 -8.774415e-001 0.000000e+000
      outer loop
         vertex 6.392994e+000 7.428154e+000 1.117061e+000
         vertex 5.982841e+000 7.664956e+000 1.000000e+001
         vertex 5.982841e+000 7.664956e+000 1.117061e+000
      endloop
   endfacet
   facet normal -3.961107e-001 -9.182028e-001 0.000000e+000
      outer loop
         vertex 5.982841e+000 7.664956e+000 1.117061e+000
         vertex 5.982841e+000 7.664956e+000 1.000000e+001
         vertex 5.543722e+000 7.842371e+000 1.000000e+001
      endloop
   endfacet
   facet normal -3.528990e-001 -9.356614e-001 0.000000e+000
      outer loop
         vertex 5.982841e+000 7.664956e+000 1.117061e+000
         vertex 5.543722e+000 7.842371e+000 1.000000e+001
         vertex 5.543722e+000 7.842371e+000 1.117061e+000
      endloop
   endfacet
   facet normal -2.644666e-001 -9.643949e-001 0.000000e+000
      outer loop
         vertex 5.543722e+000 7.842371e+000 1.117061e+000
         vertex 5.543722e+000 7.842371e+000 1.000000e+001
         vertex 5.084186e+000 7.956946e+000 1.000000e+001
      endloop
   endfacet
   facet normal -2.192458e-001 -9.756696e-001 0.000000e+000
      outer loop
         vertex 5.543722e+000 7.842371e+000 1.117061e+000
         vertex 5.084186e+000 7.956946e+000 1.000000e+001
         vertex 5.084186e+000 7.956946e+000 1.117061e+000
      endloop
   endfacet
   facet normal -1.276750e-001 -9.918160e-001 0.000000e+000
      outer loop
         vertex 5.084186e+000 7.956946e+000 1.117061e+000
         vertex 5.084186e+000 7.956946e+000 1.000000e+001
         vertex 4.613175e+000 8.006452e+000 1.000000e+001
      endloop
   endfacet
   facet normal -8.132514e-002 -9.966877e-001 0.000000e+000
      outer loop
         vertex 5.084186e+000 7.956946e+000 1.117061e+000
         vertex 4.613175e+000 8.006452e+000 1.000000e+001
         vertex 4.613175e+000 8.006452e+000 1.117061e+000
      endloop
   endfacet
   facet normal 1.160161e-002 -9.999327e-001 0.000000e+000
      outer loop
         vertex 4.613175e+000 8.006452e+000 1.117061e+000
         vertex 4.613175e+000 8.006452e+000 1.000000e+001
         vertex 4.139860e+000 7.989923e+000 1.000000e+001
      endloop
   endfacet
   facet normal 5.817844e-002 -9.983062e-001 0.000000e+000
      outer loop
         vertex 4.613175e+000 8.006452e+000 1.117061e+000
         vertex 4.139860e+000 7.989923e+000 1.000000e+001
         vertex 4.139860e+000 7.989923e+000 1.117061e+000
      endloop
   endfacet
   facet normal 1.506524e-001 -9.885868e-001 0.000000e+000
      outer loop
         vertex 4.139860e+000 7.989923e+000 1.117061e+000
         vertex 4.139860e+000 7.989923e+000 1.000000e+001
         vertex 3.673450e+000 7.907682e+000 1.000000e+001
      endloop
   endfacet
   facet normal 1.965496e-001 -9.804938e-001 0.000000e+000
      outer loop
         vertex 4.139860e+000 7.989923e+000 1.117061e+000
         vertex 3.673450e+000 7.907682e+000 1.000000e+001
         vertex 3.673450e+000 7.907682e+000 1.117061e+000
      endloop
   endfacet
   facet normal 2.867710e-001 -9.579992e-001 0.000000e+000
      outer loop
         vertex 3.673450e+000 7.907682e+000 1.117061e+000
         vertex 3.673450e+000 7.907682e+000 1.000000e+001
         vertex 3.223026e+000 7.761330e+000 1.000000e+001
      endloop
   endfacet
   facet normal 3.310952e-001 -9.435973e-001 0.000000e+000
      outer loop
         vertex 3.673450e+000 7.907682e+000 1.117061e+000
         vertex 3.223026e+000 7.761330e+000 1.000000e+001
         vertex 3.223026e+000 7.761330e+000 1.117061e+000
      endloop
   endfacet
   facet normal 4.173079e-001 -9.087651e-001 0.000000e+000
      outer loop
         vertex 3.223026e+000 7.761330e+000 1.117061e+000
         vertex 3.223026e+000 7.761330e+000 1.000000e+001
         vertex 2.797353e+000 7.553716e+000 1.000000e+001
      endloop
   endfacet
   facet normal 4.591964e-001 -8.883348e-001 0.000000e+000
      outer loop
         vertex 3.223026e+000 7.761330e+000 1.117061e+000
         vertex 2.797353e+000 7.553716e+000 1.000000e+001
         vertex 2.797353e+000 7.553716e+000 1.117061e+000
      endloop
   endfacet
   facet normal 5.397223e-001 -8.418431e-001 0.000000e+000
      outer loop
         vertex 2.797353e+000 7.553716e+000 1.117061e+000
         vertex 2.797353e+000 7.553716e+000 1.000000e+001
         vertex 2.404717e+000 7.288880e+000 1.000000e+001
      endloop
   endfacet
   facet normal 5.783598e-001 -8.157818e-001 0.000000e+000
      outer loop
         vertex 2.797353e+000 7.553716e+000 1.117061e+000
         vertex 2.404717e+000 7.288880e+000 1.000000e+001
         vertex 2.404717e+000 7.288880e+000 1.117061e+000
      endloop
   endfacet
   facet normal 6.516317e-001 -7.585356e-001 0.000000e+000
      outer loop
         vertex 2.404717e+000 7.288880e+000 1.117061e+000
         vertex 2.404717e+000 7.288880e+000 1.000000e+001
         vertex 2.052760e+000 6.971976e+000 1.000000e+001
      endloop
   endfacet
   facet normal 6.862661e-001 -7.273506e-001 0.000000e+000
      outer loop
         vertex 2.404717e+000 7.288880e+000 1.117061e+000
         vertex 2.052760e+000 6.971976e+000 1.000000e+001
         vertex 2.052760e+000 6.971976e+000 1.117061e+000
      endloop
   endfacet
   facet normal 7.508578e-001 -6.604639e-001 0.000000e+000
      outer loop
         vertex 2.052760e+000 6.971976e+000 1.117061e+000
         vertex 2.052760e+000 6.971976e+000 1.000000e+001
         vertex 1.748333e+000 6.609174e+000 1.000000e+001
      endloop
   endfacet
   facet normal 7.808151e-001 -6.247622e-001 0.000000e+000
      outer loop
         vertex 2.052760e+000 6.971976e+000 1.117061e+000
         vertex 1.748333e+000 6.609174e+000 1.000000e+001
         vertex 1.748333e+000 6.609174e+000 1.117061e+000
      endloop
   endfacet
   facet normal 8.354693e-001 -5.495371e-001 0.000000e+000
      outer loop
         vertex 1.748333e+000 6.609174e+000 1.117061e+000
         vertex 1.748333e+000 6.609174e+000 1.000000e+001
         vertex 1.497361e+000 6.207535e+000 1.000000e+001
      endloop
   endfacet
   facet normal 8.601663e-001 -5.100136e-001 0.000000e+000
      outer loop
         vertex 1.748333e+000 6.609174e+000 1.117061e+000
         vertex 1.497361e+000 6.207535e+000 1.000000e+001
         vertex 1.497361e+000 6.207535e+000 1.117061e+000
      endloop
   endfacet
   facet normal 9.038194e-001 -4.279142e-001 0.000000e+000
      outer loop
         vertex 1.497361e+000 6.207535e+000 1.117061e+000
         vertex 1.497361e+000 6.207535e+000 1.000000e+001
         vertex 1.304729e+000 5.774876e+000 1.000000e+001
      endloop
   endfacet
   facet normal 9.227754e-001 -3.853382e-001 0.000000e+000
      outer loop
         vertex 1.497361e+000 6.207535e+000 1.117061e+000
         vertex 1.304729e+000 5.774876e+000 1.000000e+001
         vertex 1.304729e+000 5.774876e+000 1.117061e+000
      endloop
   endfacet
   facet normal 9.545776e-001 -2.979624e-001 0.000000e+000
      outer loop
         vertex 1.304729e+000 5.774876e+000 1.117061e+000
         vertex 1.304729e+000 5.774876e+000 1.000000e+001
         vertex 1.174186e+000 5.319618e+000 1.000000e+001
      endloop
   endfacet
   facet normal 9.674237e-001 -2.531626e-001 0.000000e+000
      outer loop
         vertex 1.304729e+000 5.774876e+000 1.117061e+000
         vertex 1.174186e+000 5.319618e+000 1.000000e+001
         vertex 1.174186e+000 5.319618e+000 1.117061e+000
      endloop
   endfacet
   facet normal 9.867561e-001 -1.622111e-001 0.000000e+000
      outer loop
         vertex 1.174186e+000 5.319618e+000 1.117061e+000
         vertex 1.174186e+000 5.319618e+000 1.000000e+001
         vertex 1.108273e+000 4.850623e+000 1.000000e+001
      endloop
   endfacet
   facet normal 9.932423e-001 -1.160595e-001 0.000000e+000
      outer loop
         vertex 1.174186e+000 5.319618e+000 1.117061e+000
         vertex 1.108273e+000 4.850623e+000 1.000000e+001
         vertex 1.108273e+000 4.850623e+000 1.117061e+000
      endloop
   endfacet
   facet normal 9.997284e-001 -2.330261e-002 0.000000e+000
      outer loop
         vertex 1.108273e+000 4.850623e+000 1.117061e+000
         vertex 1.108273e+000 4.850623e+000 1.000000e+001
         vertex 1.108273e+000 4.377018e+000 1.000000e+001
      endloop
   endfacet
   facet normal 9.997284e-001 2.330261e-002 0.000000e+000
      outer loop
         vertex 1.108273e+000 4.850623e+000 1.117061e+000
         vertex 1.108273e+000 4.377018e+000 1.000000e+001
         vertex 1.108273e+000 4.377018e+000 1.117061e+000
      endloop
   endfacet
   facet normal 9.932423e-001 1.160595e-001 0.000000e+000
      outer loop
         vertex 1.108273e+000 4.377018e+000 1.117061e+000
         vertex 1.108273e+000 4.377018e+000 1.000000e+001
         vertex 1.174186e+000 3.908023e+000 1.000000e+001
      endloop
   endfacet
   facet normal 9.867561e-001 1.622111e-001 0.000000e+000
      outer loop
         vertex 1.108273e+000 4.377018e+000 1.117061e+000
         vertex 1.174186e+000 3.908023e+000 1.000000e+001
         vertex 1.174186e+000 3.908023e+000 1.117061e+000
      endloop
   endfacet
   facet normal 9.674237e-001 2.531626e-001 0.000000e+000
      outer loop
         vertex 1.174186e+000 3.908023e+000 1.117061e+000
         vertex 1.174186e+000 3.908023e+000 1.000000e+001
         vertex 1.304729e+000 3.452765e+000 1.000000e+001
      endloop
   endfacet
   facet normal 9.545776e-001 2.979624e-001 0.000000e+000
      outer loop
         vertex 1.174186e+000 3.908023e+000 1.117061e+000
         vertex 1.304729e+000 3.452765e+000 1.000000e+001
         vertex 1.304729e+000 3.452765e+000 1.117061e+000
      endloop
   endfacet
   facet normal 9.227754e-001 3.853382e-001 0.000000e+000
      outer loop
         vertex 1.304729e+000 3.452765e+000 1.117061e+000
         vertex 1.304729e+000 3.452765e+000 1.000000e+001
         vertex 1.497361e+000 3.020106e+000 1.000000e+001
      endloop
   endfacet
   facet normal 9.038194e-001 4.279142e-001 0.000000e+000
      outer loop
         vertex 1.304729e+000 3.452765e+000 1.117061e+000
         vertex 1.497361e+000 3.020106e+000 1.000000e+001
         vertex 1.497361e+000 3.020106e+000 1.117061e+000
      endloop
   endfacet
   facet normal 8.601663e-001 5.100136e-001 0.000000e+000
      outer loop
         vertex 1.497361e+000 3.020106e+000 1.117061e+000
         vertex 1.497361e+000 3.020106e+000 1.000000e+001
         vertex 1.748333e+000 2.618467e+000 1.000000e+001
      endloop
   endfacet
   facet normal 8.354693e-001 5.495371e-001 0.000000e+000
      outer loop
         vertex 1.497361e+000 3.020106e+000 1.117061e+000
         vertex 1.748333e+000 2.618467e+000 1.000000e+001
         vertex 1.748333e+000 2.618467e+000 1.117061e+000
      endloop
   endfacet
   facet normal 7.808151e-001 6.247622e-001 0.000000e+000
      outer loop
         vertex 1.748333e+000 2.618467e+000 1.117061e+000
         vertex 1.748333e+000 2.618467e+000 1.000000e+001
         vertex 2.052760e+000 2.255665e+000 1.000000e+001
      endloop
   endfacet
   facet normal 7.508578e-001 6.604639e-001 0.000000e+000
      outer loop
         vertex 1.748333e+000 2.618467e+000 1.117061e+000
         vertex 2.052760e+000 2.255665e+000 1.000000e+001
         vertex 2.052760e+000 2.255665e+000 1.117061e+000
      endloop
   endfacet
   facet normal 6.862661e-001 7.273506e-001 0.000000e+000
      outer loop
         vertex 2.052760e+000 2.255665e+000 1.117061e+000
         vertex 2.052760e+000 2.255665e+000 1.000000e+001
         vertex 2.404717e+000 1.938762e+000 1.000000e+001
      endloop
   endfacet
   facet normal 6.516317e-001 7.585356e-001 0.000000e+000
      outer loop
         vertex 2.052760e+000 2.255665e+000 1.117061e+000
         vertex 2.404717e+000 1.938762e+000 1.000000e+001
         vertex 2.404717e+000 1.938762e+000 1.117061e+000
      endloop
   endfacet
   facet normal 5.783598e-001 8.157818e-001 0.000000e+000
      outer loop
         vertex 2.404717e+000 1.938762e+000 1.117061e+000
         vertex 2.404717e+000 1.938762e+000 1.000000e+001
         vertex 2.797353e+000 1.673925e+000 1.000000e+001
      endloop
   endfacet
   facet normal 5.397223e-001 8.418431e-001 0.000000e+000
      outer loop
         vertex 2.404717e+000 1.938762e+000 1.117061e+000
         vertex 2.797353e+000 1.673925e+000 1.000000e+001
         vertex 2.797353e+000 1.673925e+000 1.117061e+000
      endloop
   endfacet
   facet normal 4.591964e-001 8.883348e-001 0.000000e+000
      outer loop
         vertex 2.797353e+000 1.673925e+000 1.117061e+000
         vertex 2.797353e+000 1.673925e+000 1.000000e+001
         vertex 3.223026e+000 1.466311e+000 1.000000e+001
      endloop
   endfacet
   facet normal 4.173079e-001 9.087651e-001 0.000000e+000
      outer loop
         vertex 2.797353e+000 1.673925e+000 1.117061e+000
         vertex 3.223026e+000 1.466311e+000 1.000000e+001
         vertex 3.223026e+000 1.466311e+000 1.117061e+000
      endloop
   endfacet
   facet normal 3.310952e-001 9.435973e-001 0.000000e+000
      outer loop
         vertex 3.223026e+000 1.466311e+000 1.117061e+000
         vertex 3.223026e+000 1.466311e+000 1.000000e+001
         vertex 3.673450e+000 1.319959e+000 1.000000e+001
      endloop
   endfacet
   facet normal 2.867710e-001 9.579992e-001 0.000000e+000
      outer loop
         vertex 3.223026e+000 1.466311e+000 1.117061e+000
         vertex 3.673450e+000 1.319959e+000 1.000000e+001
         vertex 3.673450e+000 1.319959e+000 1.117061e+000
      endloop
   endfacet
   facet normal 1.965496e-001 9.804938e-001 0.000000e+000
      outer loop
         vertex 3.673450e+000 1.319959e+000 1.117061e+000
         vertex 3.673450e+000 1.319959e+000 1.000000e+001
         vertex 4.139860e+000 1.237718e+000 1.000000e+001
      endloop
   endfacet
   facet normal 1.506524e-001 9.885868e-001 0.000000e+000
      outer loop
         vertex 3.673450e+000 1.319959e+000 1.117061e+000
         vertex 4.139860e+000 1.237718e+000 1.000000e+001
         vertex 4.139860e+000 1.237718e+000 1.117061e+000
      endloop
   endfacet
   facet normal 5.817843e-002 9.983062e-001 0.000000e+000
      outer loop
         vertex 4.139860e+000 1.237718e+000 1.117061e+000
         vertex 4.139860e+000 1.237718e+000 1.000000e+001
         vertex 4.613175e+000 1.221190e+000 1.000000e+001
      endloop
   endfacet
   facet normal 1.160161e-002 9.999327e-001 0.000000e+000
      outer loop
         vertex 4.139860e+000 1.237718e+000 1.117061e+000
         vertex 4.613175e+000 1.221190e+000 1.000000e+001
         vertex 4.613175e+000 1.221190e+000 1.117061e+000
      endloop
   endfacet
   facet normal -8.132513e-002 9.966877e-001 0.000000e+000
      outer loop
         vertex 4.613175e+000 1.221190e+000 1.117061e+000
         vertex 4.613175e+000 1.221190e+000 1.000000e+001
         vertex 5.084186e+000 1.270695e+000 1.000000e+001
      endloop
   endfacet
   facet normal -1.276750e-001 9.918160e-001 0.000000e+000
      outer loop
         vertex 4.613175e+000 1.221190e+000 1.117061e+000
         vertex 5.084186e+000 1.270695e+000 1.000000e+001
         vertex 5.084186e+000 1.270695e+000 1.117061e+000
      endloop
   endfacet
   facet normal -2.192458e-001 9.756696e-001 0.000000e+000
      outer loop
         vertex 5.084186e+000 1.270695e+000 1.117061e+000
         vertex 5.084186e+000 1.270695e+000 1.000000e+001
         vertex 5.543722e+000 1.385270e+000 1.000000e+001
      endloop
   endfacet
   facet normal -2.644666e-001 9.643948e-001 0.000000e+000
      outer loop
         vertex 5.084186e+000 1.270695e+000 1.117061e+000
         vertex 5.543722e+000 1.385270e+000 1.000000e+001
         vertex 5.543722e+000 1.385270e+000 1.117061e+000
      endloop
   endfacet
   facet normal -3.528991e-001 9.356614e-001 0.000000e+000
      outer loop
         vertex 5.543722e+000 1.385270e+000 1.117061e+000
         vertex 5.543722e+000 1.385270e+000 1.000000e+001
         vertex 5.982841e+000 1.562686e+000 1.000000e+001
      endloop
   endfacet
   facet normal -3.961106e-001 9.182028e-001 0.000000e+000
      outer loop
         vertex 5.543722e+000 1.385270e+000 1.117061e+000
         vertex 5.982841e+000 1.562686e+000 1.000000e+001
         vertex 5.982841e+000 1.562686e+000 1.117061e+000
      endloop
   endfacet
   facet normal -4.796836e-001 8.774415e-001 0.000000e+000
      outer loop
         vertex 5.982841e+000 1.562686e+000 1.117061e+000
         vertex 5.982841e+000 1.562686e+000 1.000000e+001
         vertex 6.392994e+000 1.799488e+000 1.000000e+001
      endloop
   endfacet
   facet normal -5.200449e-001 8.541389e-001 0.000000e+000
      outer loop
         vertex 5.982841e+000 1.562686e+000 1.117061e+000
         vertex 6.392994e+000 1.799488e+000 1.000000e+001
         vertex 6.392994e+000 1.799488e+000 1.117061e+000
      endloop
   endfacet
   facet normal -5.971316e-001 8.021433e-001 0.000000e+000
      outer loop
         vertex 6.392994e+000 1.799488e+000 1.117061e+000
         vertex 6.392994e+000 1.799488e+000 1.000000e+001
         vertex 6.766199e+000 2.091068e+000 1.000000e+001
      endloop
   endfacet
   facet normal -6.338570e-001 7.734503e-001 0.000000e+000
      outer loop
         vertex 6.392994e+000 1.799488e+000 1.117061e+000
         vertex 6.766199e+000 2.091068e+000 1.000000e+001
         vertex 6.766199e+000 2.091068e+000 1.117061e+000
      endloop
   endfacet
   facet normal -7.029572e-001 7.112322e-001 0.000000e+000
      outer loop
         vertex 6.766199e+000 2.091068e+000 1.117061e+000
         vertex 6.766199e+000 2.091068e+000 1.000000e+001
         vertex 7.095192e+000 2.431750e+000 1.000000e+001
      endloop
   endfacet
   facet normal -7.353318e-001 6.777073e-001 0.000000e+000
      outer loop
         vertex 6.766199e+000 2.091068e+000 1.117061e+000
         vertex 7.095192e+000 2.431750e+000 1.000000e+001
         vertex 7.095192e+000 2.431750e+000 1.117061e+000
      endloop
   endfacet
   facet normal -7.951004e-001 6.064778e-001 0.000000e+000
      outer loop
         vertex 7.095192e+000 2.431750e+000 1.117061e+000
         vertex 7.095192e+000 2.431750e+000 1.000000e+001
         vertex 7.373570e+000 2.814904e+000 1.000000e+001
      endloop
   endfacet
   facet normal -8.224942e-001 5.687734e-001 0.000000e+000
      outer loop
         vertex 7.095192e+000 2.431750e+000 1.117061e+000
         vertex 7.373570e+000 2.814904e+000 1.000000e+001
         vertex 7.373570e+000 2.814904e+000 1.117061e+000
      endloop
   endfacet
   facet normal -8.717679e-001 4.899191e-001 0.000000e+000
      outer loop
         vertex 7.373570e+000 2.814904e+000 1.117061e+000
         vertex 7.373570e+000 2.814904e+000 1.000000e+001
         vertex 7.595914e+000 3.233072e+000 1.000000e+001
      endloop
   endfacet
   facet normal -8.936477e-001 4.487691e-001 0.000000e+000
      outer loop
         vertex 7.373570e+000 2.814904e+000 1.117061e+000
         vertex 7.595914e+000 3.233072e+000 1.000000e+001
         vertex 7.595914e+000 3.233072e+000 1.117061e+000
      endloop
   endfacet
   facet normal -9.314675e-001 3.638246e-001 0.000000e+000
      outer loop
         vertex 7.595914e+000 3.233072e+000 1.117061e+000
         vertex 7.595914e+000 3.233072e+000 1.000000e+001
         vertex 7.757896e+000 3.678115e+000 1.000000e+001
      endloop
   endfacet
   facet normal -9.474074e-001 3.200300e-001 0.000000e+000
      outer loop
         vertex 7.595914e+000 3.233072e+000 1.117061e+000
         vertex 7.757896e+000 3.678115e+000 1.000000e+001
         vertex 7.757896e+000 3.678115e+000 1.117061e+000
      endloop
   endfacet
   facet normal -9.730371e-001 2.306486e-001 0.000000e+000
      outer loop
         vertex 7.757896e+000 3.678115e+000 1.117061e+000
         vertex 7.757896e+000 3.678115e+000 1.000000e+001
         vertex 7.856364e+000 4.141370e+000 1.000000e+001
      endloop
   endfacet
   facet normal -9.827269e-001 1.850619e-001 0.000000e+000
      outer loop
         vertex 7.757896e+000 3.678115e+000 1.117061e+000
         vertex 7.856364e+000 4.141370e+000 1.000000e+001
         vertex 7.856364e+000 4.141370e+000 1.117061e+000
      endloop
   endfacet
   facet normal -9.956677e-001 9.298339e-002 0.000000e+000
      outer loop
         vertex 7.856364e+000 4.141370e+000 1.117061e+000
         vertex 7.856364e+000 4.141370e+000 1.000000e+001
         vertex 7.889401e+000 4.613821e+000 1.000000e+001
      endloop
   endfacet
   facet normal 0.000000e+000 0.000000e+000 1.000000e+000
      outer loop
         vertex 6.155038e+000 3.655225e+000 1.117061e+000
         vertex 7.595914e+000 3.233072e+000 1.117061e+000
         vertex 6.296272e+000 3.958103e+000 1.117061e+000
      endloop
   endfacet
   facet normal 0.000000e+000 0.000000e+000 1.000000e+000
      outer loop
         vertex 6.296272e+000 3.958103e+000 1.117061e+000
         vertex 7.595914e+000 3.233072e+000 1.117061e+000
         vertex 7.757896e+000 3.678115e+000 1.117061e+000
      endloop
   endfacet
   facet normal 0.000000e+000 0.000000e+000 1.000000e+000
      outer loop
         vertex 6.296272e+000 3.958103e+000 1.117061e+000
         vertex 7.757896e+000 3.678115e+000 1.117061e+000
         vertex 6.382767e+000 4.280904e+000 1.117061e+000
      endloop
   endfacet
   facet normal 0.000000e+000 0.000000e+000 1.000000e+000
      outer loop
         vertex 6.382767e+000 4.280904e+000 1.117061e+000
         vertex 7.757896e+000 3.678115e+000 1.117061e+000
         vertex 7.856364e+000 4.141370e+000 1.117061e+000
      endloop
   endfacet
   facet normal 0.000000e+000 0.000000e+000 1.000000e+000
      outer loop
         vertex 6.382767e+000 4.280904e+000 1.117061e+000
         vertex 7.856364e+000 4.141370e+000 1.117061e+000
         vertex 6.411893e+000 4.613821e+000 1.117061e+000
      endloop
   endfacet
   facet normal 0.000000e+000 0.000000e+000 1.000000e+000
      outer loop
         vertex 6.411893e+000 4.613821e+000 1.117061e+000
         vertex 7.856364e+000 4.141370e+000 1.117061e+000
         vertex 7.889401e+000 4.613821e+000 1.117061e+000
      endloop
   endfacet
   facet normal 0.000000e+000 0.000000e+000 1.000000e+000
      outer loop
         vertex 6.411893e+000 4.613821e+000 1.117061e+000
         vertex 7.889401e+000 4.613821e+000 1.117061e+000
         vertex 6.382767e+000 4.946737e+000 1.117061e+000
      endloop
   endfacet
   facet normal 0.000000e+000 0.000000e+000 1.000000e+000
      outer loop
         vertex 5.453298e+000 2.953485e+000 1.117061e+000
         vertex 6.392994e+000 1.799488e+000 1.117061e+000
         vertex 5.727049e+000 3.145167e+000 1.117061e+000
      endloop
   endfacet
   facet normal 0.000000e+000 0.000000e+000 1.000000e+000
      outer loop
         vertex 5.727049e+000 3.145167e+000 1.117061e+000
         vertex 6.392994e+000 1.799488e+000 1.117061e+000
         vertex 6.766199e+000 2.091068e+000 1.117061e+000
      endloop
   endfacet
   facet normal 0.000000e+000 0.000000e+000 1.000000e+000
      outer loop
         vertex 5.727049e+000 3.145167e+000 1.117061e+000
         vertex 6.766199e+000 2.091068e+000 1.117061e+000
         vertex 5.963356e+000 3.381474e+000 1.117061e+000
      endloop
   endfacet
   facet normal 0.000000e+000 0.000000e+000 1.000000e+000
      outer loop
         vertex 5.963356e+000 3.381474e+000 1.117061e+000
         vertex 6.766199e+000 2.091068e+000 1.117061e+000
         vertex 7.095192e+000 2.431750e+000 1.117061e+000
      endloop
   endfacet
   facet normal 0.000000e+000 0.000000e+000 1.000000e+000
      outer loop
         vertex 5.963356e+000 3.381474e+000 1.117061e+000
         vertex 7.095192e+000 2.431750e+000 1.117061e+000
         vertex 6.155038e+000 3.655225e+000 1.117061e+000
      endloop
   endfacet
   facet normal 0.000000e+000 0.000000e+000 1.000000e+000
      outer loop
         vertex 6.155038e+000 3.655225e+000 1.117061e+000
         vertex 7.095192e+000 2.431750e+000 1.117061e+000
         vertex 7.373570e+000 2.814904e+000 1.117061e+000
      endloop
   endfacet
   facet normal 0.000000e+000 0.000000e+000 1.000000e+000
      outer loop
         vertex 6.155038e+000 3.655225e+000 1.117061e+000
         vertex 7.373570e+000 2.814904e+000 1.117061e+000
         vertex 7.595914e+000 3.233072e+000 1.117061e+000
      endloop
   endfacet
   facet normal 0.000000e+000 0.000000e+000 1.000000e+000
      outer loop
         vertex 3.838984e+000 2.812251e+000 1.117061e+000
         vertex 3.673450e+000 1.319959e+000 1.117061e+000
         vertex 4.161786e+000 2.725756e+000 1.117061e+000
      endloop
   endfacet
   facet normal 0.000000e+000 0.000000e+000 1.000000e+000
      outer loop
         vertex 4.161786e+000 2.725756e+000 1.117061e+000
         vertex 3.673450e+000 1.319959e+000 1.117061e+000
         vertex 4.139860e+000 1.237718e+000 1.117061e+000
      endloop
   endfacet
   facet normal 0.000000e+000 0.000000e+000 1.000000e+000
      outer loop
         vertex 4.161786e+000 2.725756e+000 1.117061e+000
         vertex 4.139860e+000 1.237718e+000 1.117061e+000
         vertex 4.494702e+000 2.696630e+000 1.117061e+000
      endloop
   endfacet
   facet normal 0.000000e+000 0.000000e+000 1.000000e+000
      outer loop
         vertex 4.494702e+000 2.696630e+000 1.117061e+000
         vertex 4.139860e+000 1.237718e+000 1.117061e+000
         vertex 4.613175e+000 1.221190e+000 1.117061e+000
      endloop
   endfacet
   facet normal 0.000000e+000 0.000000e+000 1.000000e+000
      outer loop
         vertex 4.494702e+000 2.696630e+000 1.117061e+000
         vertex 4.613175e+000 1.221190e+000 1.117061e+000
         vertex 4.827619e+000 2.725756e+000 1.117061e+000
      endloop
   endfacet
   facet normal 0.000000e+000 0.000000e+000 1.000000e+000
      outer loop
         vertex 4.827619e+000 2.725756e+000 1.117061e+000
         vertex 4.613175e+000 1.221190e+000 1.117061e+000
         vertex 5.084186e+000 1.270695e+000 1.117061e+000
      endloop
   endfacet
   facet normal 0.000000e+000 0.000000e+000 1.000000e+000
      outer loop
         vertex 4.827619e+000 2.725756e+000 1.117061e+000
         vertex 5.084186e+000 1.270695e+000 1.117061e+000
         vertex 5.150420e+000 2.812251e+000 1.117061e+000
      endloop
   endfacet
   facet normal 0.000000e+000 0.000000e+000 1.000000e+000
      outer loop
         vertex 5.150420e+000 2.812251e+000 1.117061e+000
         vertex 5.084186e+000 1.270695e+000 1.117061e+000
         vertex 5.543722e+000 1.385270e+000 1.117061e+000
      endloop
   endfacet
   facet normal 0.000000e+000 0.000000e+000 1.000000e+000
      outer loop
         vertex 5.150420e+000 2.812251e+000 1.117061e+000
         vertex 5.543722e+000 1.385270e+000 1.117061e+000
         vertex 5.453298e+000 2.953485e+000 1.117061e+000
      endloop
   endfacet
   facet normal 0.000000e+000 0.000000e+000 1.000000e+000
      outer loop
         vertex 5.453298e+000 2.953485e+000 1.117061e+000
         vertex 5.543722e+000 1.385270e+000 1.117061e+000
         vertex 5.982841e+000 1.562686e+000 1.117061e+000
      endloop
   endfacet
   facet normal 0.000000e+000 0.000000e+000 1.000000e+000
      outer loop
         vertex 5.453298e+000 2.953485e+000 1.117061e+000
         vertex 5.982841e+000 1.562686e+000 1.117061e+000
         vertex 6.392994e+000 1.799488e+000 1.117061e+000
      endloop
   endfacet
   facet normal 0.000000e+000 0.000000e+000 1.000000e+000
      outer loop
         vertex 5.727049e+000 6.082474e+000 1.117061e+000
         vertex 6.392994e+000 7.428154e+000 1.117061e+000
         vertex 5.453298e+000 6.274156e+000 1.117061e+000
      endloop
   endfacet
   facet normal 0.000000e+000 0.000000e+000 1.000000e+000
      outer loop
         vertex 5.453298e+000 6.274156e+000 1.117061e+000
         vertex 6.392994e+000 7.428154e+000 1.117061e+000
         vertex 5.982841e+000 7.664956e+000 1.117061e+000
      endloop
   endfacet
   facet normal 0.000000e+000 0.000000e+000 1.000000e+000
      outer loop
         vertex 5.453298e+000 6.274156e+000 1.117061e+000
         vertex 5.982841e+000 7.664956e+000 1.117061e+000
         vertex 5.150420e+000 6.415390e+000 1.117061e+000
      endloop
   endfacet
   facet normal 0.000000e+000 0.000000e+000 1.000000e+000
      outer loop
         vertex 5.150420e+000 6.415390e+000 1.117061e+000
         vertex 5.982841e+000 7.664956e+000 1.117061e+000
         vertex 5.543722e+000 7.842371e+000 1.117061e+000
      endloop
   endfacet
   facet normal 0.000000e+000 0.000000e+000 1.000000e+000
      outer loop
         vertex 5.150420e+000 6.415390e+000 1.117061e+000
         vertex 5.543722e+000 7.842371e+000 1.117061e+000
         vertex 4.827619e+000 6.501884e+000 1.117061e+000
      endloop
   endfacet
   facet normal 0.000000e+000 0.000000e+000 1.000000e+000
      outer loop
         vertex 4.827619e+000 6.501884e+000 1.117061e+000
         vertex 5.543722e+000 7.842371e+000 1.117061e+000
         vertex 5.084186e+000 7.956946e+000 1.117061e+000
      endloop
   endfacet
   facet normal 0.000000e+000 0.000000e+000 1.000000e+000
      outer loop
         vertex 4.827619e+000 6.501884e+000 1.117061e+000
         vertex 5.084186e+000 7.956946e+000 1.117061e+000
         vertex 4.494702e+000 6.531011e+000 1.117061e+000
      endloop
   endfacet
   facet normal 0.000000e+000 0.000000e+000 1.000000e+000
      outer loop
         vertex 2.834367e+000 3.655225e+000 1.117061e+000
         vertex 1.748333e+000 2.618467e+000 1.117061e+000
         vertex 3.026049e+000 3.381474e+000 1.117061e+000
      endloop
   endfacet
   facet normal 0.000000e+000 0.000000e+000 1.000000e+000
      outer loop
         vertex 3.026049e+000 3.381474e+000 1.117061e+000
         vertex 1.748333e+000 2.618467e+000 1.117061e+000
         vertex 2.052760e+000 2.255665e+000 1.117061e+000
      endloop
   endfacet
   facet normal 0.000000e+000 0.000000e+000 1.000000e+000
      outer loop
         vertex 3.026049e+000 3.381474e+000 1.117061e+000
         vertex 2.052760e+000 2.255665e+000 1.117061e+000
         vertex 3.262356e+000 3.145167e+000 1.117061e+000
      endloop
   endfacet
   facet normal 0.000000e+000 0.000000e+000 1.000000e+000
      outer loop
         vertex 3.262356e+000 3.145167e+000 1.117061e+000
         vertex 2.052760e+000 2.255665e+000 1.117061e+000
         vertex 2.404717e+000 1.938762e+000 1.117061e+000
      endloop
   endfacet
   facet normal 0.000000e+000 0.000000e+000 1.000000e+000
      outer loop
         vertex 3.262356e+000 3.145167e+000 1.117061e+000
         vertex 2.404717e+000 1.938762e+000 1.117061e+000
         vertex 3.536107e+000 2.953485e+000 1.117061e+000
      endloop
   endfacet
   facet normal 0.000000e+000 0.000000e+000 1.000000e+000
      outer loop
         vertex 3.536107e+000 2.953485e+000 1.117061e+000
         vertex 2.404717e+000 1.938762e+000 1.117061e+000
         vertex 2.797353e+000 1.673925e+000 1.117061e+000
      endloop
   endfacet
   facet normal 0.000000e+000 0.000000e+000 1.000000e+000
      outer loop
         vertex 3.536107e+000 2.953485e+000 1.117061e+000
         vertex 2.797353e+000 1.673925e+000 1.117061e+000
         vertex 3.838984e+000 2.812251e+000 1.117061e+000
      endloop
   endfacet
   facet normal 0.000000e+000 0.000000e+000 1.000000e+000
      outer loop
         vertex 3.838984e+000 2.812251e+000 1.117061e+000
         vertex 2.797353e+000 1.673925e+000 1.117061e+000
         vertex 3.223026e+000 1.466311e+000 1.117061e+000
      endloop
   endfacet
   facet normal 0.000000e+000 0.000000e+000 1.000000e+000
      outer loop
         vertex 3.838984e+000 2.812251e+000 1.117061e+000
         vertex 3.223026e+000 1.466311e+000 1.117061e+000
         vertex 3.673450e+000 1.319959e+000 1.117061e+000
      endloop
   endfacet
   facet normal 0.000000e+000 0.000000e+000 1.000000e+000
      outer loop
         vertex 7.889401e+000 4.613821e+000 1.117061e+000
         vertex 7.856364e+000 5.086272e+000 1.117061e+000
         vertex 6.382767e+000 4.946737e+000 1.117061e+000
      endloop
   endfacet
   facet normal 0.000000e+000 0.000000e+000 1.000000e+000
      outer loop
         vertex 6.382767e+000 4.946737e+000 1.117061e+000
         vertex 7.856364e+000 5.086272e+000 1.117061e+000
         vertex 7.757896e+000 5.549526e+000 1.117061e+000
      endloop
   endfacet
   facet normal 0.000000e+000 0.000000e+000 1.000000e+000
      outer loop
         vertex 6.382767e+000 4.946737e+000 1.117061e+000
         vertex 7.757896e+000 5.549526e+000 1.117061e+000
         vertex 6.296272e+000 5.269538e+000 1.117061e+000
      endloop
   endfacet
   facet normal 0.000000e+000 0.000000e+000 1.000000e+000
      outer loop
         vertex 6.296272e+000 5.269538e+000 1.117061e+000
         vertex 7.757896e+000 5.549526e+000 1.117061e+000
         vertex 7.595914e+000 5.994569e+000 1.117061e+000
      endloop
   endfacet
   facet normal 0.000000e+000 0.000000e+000 1.000000e+000
      outer loop
         vertex 6.296272e+000 5.269538e+000 1.117061e+000
         vertex 7.595914e+000 5.994569e+000 1.117061e+000
         vertex 6.155038e+000 5.572416e+000 1.117061e+000
      endloop
   endfacet
   facet normal 0.000000e+000 0.000000e+000 1.000000e+000
      outer loop
         vertex 6.155038e+000 5.572416e+000 1.117061e+000
         vertex 7.595914e+000 5.994569e+000 1.117061e+000
         vertex 7.373570e+000 6.412736e+000 1.117061e+000
      endloop
   endfacet
   facet normal 0.000000e+000 0.000000e+000 1.000000e+000
      outer loop
         vertex 6.155038e+000 5.572416e+000 1.117061e+000
         vertex 7.373570e+000 6.412736e+000 1.117061e+000
         vertex 5.963356e+000 5.846167e+000 1.117061e+000
      endloop
   endfacet
   facet normal 0.000000e+000 0.000000e+000 1.000000e+000
      outer loop
         vertex 5.963356e+000 5.846167e+000 1.117061e+000
         vertex 7.373570e+000 6.412736e+000 1.117061e+000
         vertex 7.095192e+000 6.795891e+000 1.117061e+000
      endloop
   endfacet
   facet normal 0.000000e+000 0.000000e+000 1.000000e+000
      outer loop
         vertex 5.963356e+000 5.846167e+000 1.117061e+000
         vertex 7.095192e+000 6.795891e+000 1.117061e+000
         vertex 5.727049e+000 6.082474e+000 1.117061e+000
      endloop
   endfacet
   facet normal 0.000000e+000 0.000000e+000 1.000000e+000
      outer loop
         vertex 5.727049e+000 6.082474e+000 1.117061e+000
         vertex 7.095192e+000 6.795891e+000 1.117061e+000
         vertex 6.766199e+000 7.136573e+000 1.117061e+000
      endloop
   endfacet
   facet normal 0.000000e+000 0.000000e+000 1.000000e+000
      outer loop
         vertex 5.727049e+000 6.082474e+000 1.117061e+000
         vertex 6.766199e+000 7.136573e+000 1.117061e+000
         vertex 6.392994e+000 7.428154e+000 1.117061e+000
      endloop
   endfacet
   facet normal 0.000000e+000 0.000000e+000 1.000000e+000
      outer loop
         vertex 2.606638e+000 4.946737e+000 1.117061e+000
         vertex 1.108273e+000 4.850623e+000 1.117061e+000
         vertex 2.577512e+000 4.613821e+000 1.117061e+000
      endloop
   endfacet
   facet normal 0.000000e+000 0.000000e+000 1.000000e+000
      outer loop
         vertex 2.577512e+000 4.613821e+000 1.117061e+000
         vertex 1.108273e+000 4.850623e+000 1.117061e+000
         vertex 1.108273e+000 4.377018e+000 1.117061e+000
      endloop
   endfacet
   facet normal 0.000000e+000 0.000000e+000 1.000000e+000
      outer loop
         vertex 2.577512e+000 4.613821e+000 1.117061e+000
         vertex 1.108273e+000 4.377018e+000 1.117061e+000
         vertex 2.606638e+000 4.280904e+000 1.117061e+000
      endloop
   endfacet
   facet normal 0.000000e+000 0.000000e+000 1.000000e+000
      outer loop
         vertex 2.606638e+000 4.280904e+000 1.117061e+000
         vertex 1.108273e+000 4.377018e+000 1.117061e+000
         vertex 1.174186e+000 3.908023e+000 1.117061e+000
      endloop
   endfacet
   facet normal 0.000000e+000 0.000000e+000 1.000000e+000
      outer loop
         vertex 2.606638e+000 4.280904e+000 1.117061e+000
         vertex 1.174186e+000 3.908023e+000 1.117061e+000
         vertex 2.693132e+000 3.958103e+000 1.117061e+000
      endloop
   endfacet
   facet normal 0.000000e+000 0.000000e+000 1.000000e+000
      outer loop
         vertex 2.693132e+000 3.958103e+000 1.117061e+000
         vertex 1.174186e+000 3.908023e+000 1.117061e+000
         vertex 1.304729e+000 3.452765e+000 1.117061e+000
      endloop
   endfacet
   facet normal 0.000000e+000 0.000000e+000 1.000000e+000
      outer loop
         vertex 2.693132e+000 3.958103e+000 1.117061e+000
         vertex 1.304729e+000 3.452765e+000 1.117061e+000
         vertex 2.834367e+000 3.655225e+000 1.117061e+000
      endloop
   endfacet
   facet normal 0.000000e+000 0.000000e+000 1.000000e+000
      outer loop
         vertex 2.834367e+000 3.655225e+000 1.117061e+000
         vertex 1.304729e+000 3.452765e+000 1.117061e+000
         vertex 1.497361e+000 3.020106e+000 1.117061e+000
      endloop
   endfacet
   facet normal 0.000000e+000 0.000000e+000 1.000000e+000
      outer loop
         vertex 2.834367e+000 3.655225e+000 1.117061e+000
         vertex 1.497361e+000 3.020106e+000 1.117061e+000
         vertex 1.748333e+000 2.618467e+000 1.117061e+000
      endloop
   endfacet
   facet normal 0.000000e+000 0.000000e+000 1.000000e+000
      outer loop
         vertex 5.084186e+000 7.956946e+000 1.117061e+000
         vertex 4.613175e+000 8.006452e+000 1.117061e+000
         vertex 4.494702e+000 6.531011e+000 1.117061e+000
      endloop
   endfacet
   facet normal 0.000000e+000 0.000000e+000 1.000000e+000
      outer loop
         vertex 4.494702e+000 6.531011e+000 1.117061e+000
         vertex 4.613175e+000 8.006452e+000 1.117061e+000
         vertex 4.139860e+000 7.989923e+000 1.117061e+000
      endloop
   endfacet
   facet normal 0.000000e+000 0.000000e+000 1.000000e+000
      outer loop
         vertex 4.494702e+000 6.531011e+000 1.117061e+000
         vertex 4.139860e+000 7.989923e+000 1.117061e+000
         vertex 4.161786e+000 6.501884e+000 1.117061e+000
      endloop
   endfacet
   facet normal 0.000000e+000 0.000000e+000 1.000000e+000
      outer loop
         vertex 4.161786e+000 6.501884e+000 1.117061e+000
         vertex 4.139860e+000 7.989923e+000 1.117061e+000
         vertex 3.673450e+000 7.907682e+000 1.117061e+000
      endloop
   endfacet
   facet normal 0.000000e+000 0.000000e+000 1.000000e+000
      outer loop
         vertex 4.161786e+000 6.501884e+000 1.117061e+000
         vertex 3.673450e+000 7.907682e+000 1.117061e+000
         vertex 3.838984e+000 6.415390e+000 1.117061e+000
      endloop
   endfacet
   facet normal 0.000000e+000 0.000000e+000 1.000000e+000
      outer loop
         vertex 3.838984e+000 6.415390e+000 1.117061e+000
         vertex 3.673450e+000 7.907682e+000 1.117061e+000
         vertex 3.223026e+000 7.761330e+000 1.117061e+000
      endloop
   endfacet
   facet normal 0.000000e+000 0.000000e+000 1.000000e+000
      outer loop
         vertex 3.838984e+000 6.415390e+000 1.117061e+000
         vertex 3.223026e+000 7.761330e+000 1.117061e+000
         vertex 3.536107e+000 6.274156e+000 1.117061e+000
      endloop
   endfacet
   facet normal 0.000000e+000 0.000000e+000 1.000000e+000
      outer loop
         vertex 3.536107e+000 6.274156e+000 1.117061e+000
         vertex 3.223026e+000 7.761330e+000 1.117061e+000
         vertex 2.797353e+000 7.553716e+000 1.117061e+000
      endloop
   endfacet
   facet normal 0.000000e+000 0.000000e+000 1.000000e+000
      outer loop
         vertex 3.536107e+000 6.274156e+000 1.117061e+000
         vertex 2.797353e+000 7.553716e+000 1.117061e+000
         vertex 3.262356e+000 6.082474e+000 1.117061e+000
      endloop
   endfacet
   facet normal 0.000000e+000 0.000000e+000 1.000000e+000
      outer loop
         vertex 3.262356e+000 6.082474e+000 1.117061e+000
         vertex 2.797353e+000 7.553716e+000 1.117061e+000
         vertex 2.404717e+000 7.288880e+000 1.117061e+000
      endloop
   endfacet
   facet normal 0.000000e+000 0.000000e+000 1.000000e+000
      outer loop
         vertex 3.262356e+000 6.082474e+000 1.117061e+000
         vertex 2.404717e+000 7.288880e+000 1.117061e+000
         vertex 3.026049e+000 5.846167e+000 1.117061e+000
      endloop
   endfacet
   facet normal 0.000000e+000 0.000000e+000 1.000000e+000
      outer loop
         vertex 2.404717e+000 7.288880e+000 1.117061e+000
         vertex 2.052760e+000 6.971976e+000 1.117061e+000
         vertex 3.026049e+000 5.846167e+000 1.117061e+000
      endloop
   endfacet
   facet normal 0.000000e+000 0.000000e+000 1.000000e+000
      outer loop
         vertex 3.026049e+000 5.846167e+000 1.117061e+000
         vertex 2.052760e+000 6.971976e+000 1.117061e+000
         vertex 1.748333e+000 6.609174e+000 1.117061e+000
      endloop
   endfacet
   facet normal 0.000000e+000 0.000000e+000 1.000000e+000
      outer loop
         vertex 3.026049e+000 5.846167e+000 1.117061e+000
         vertex 1.748333e+000 6.609174e+000 1.117061e+000
         vertex 2.834367e+000 5.572416e+000 1.117061e+000
      endloop
   endfacet
   facet normal 0.000000e+000 0.000000e+000 1.000000e+000
      outer loop
         vertex 2.834367e+000 5.572416e+000 1.117061e+000
         vertex 1.748333e+000 6.609174e+000 1.117061e+000
         vertex 1.497361e+000 6.207535e+000 1.117061e+000
      endloop
   endfacet
   facet normal 0.000000e+000 0.000000e+000 1.000000e+000
      outer loop
         vertex 2.834367e+000 5.572416e+000 1.117061e+000
         vertex 1.497361e+000 6.207535e+000 1.117061e+000
         vertex 2.693132e+000 5.269538e+000 1.117061e+000
      endloop
   endfacet
   facet normal 0.000000e+000 0.000000e+000 1.000000e+000
      outer loop
         vertex 2.693132e+000 5.269538e+000 1.117061e+000
         vertex 1.497361e+000 6.207535e+000 1.117061e+000
         vertex 1.304729e+000 5.774876e+000 1.117061e+000
      endloop
   endfacet
   facet normal 0.000000e+000 0.000000e+000 1.000000e+000
      outer loop
         vertex 2.693132e+000 5.269538e+000 1.117061e+000
         vertex 1.304729e+000 5.774876e+000 1.117061e+000
         vertex 2.606638e+000 4.946737e+000 1.117061e+000
      endloop
   endfacet
   facet normal 0.000000e+000 0.000000e+000 1.000000e+000
      outer loop
         vertex 2.606638e+000 4.946737e+000 1.117061e+000
         vertex 1.304729e+000 5.774876e+000 1.117061e+000
         vertex 1.174186e+000 5.319618e+000 1.117061e+000
      endloop
   endfacet
   facet normal 0.000000e+000 0.000000e+000 1.000000e+000
      outer loop
         vertex 2.606638e+000 4.946737e+000 1.117061e+000
         vertex 1.174186e+000 5.319618e+000 1.117061e+000
         vertex 1.108273e+000 4.850623e+000 1.117061e+000
      endloop
   endfacet
   facet normal 9.983119e-001 5.807913e-002 0.000000e+000
      outer loop
         vertex 6.382767e+000 4.946737e+000 1.117061e+000
         vertex 6.411893e+000 4.613821e+000 1.000000e+001
         vertex 6.411893e+000 4.613821e+000 1.117061e+000
      endloop
   endfacet
   facet normal 9.983119e-001 -5.807913e-002 0.000000e+000
      outer loop
         vertex 6.411893e+000 4.613821e+000 1.117061e+000
         vertex 6.411893e+000 4.613821e+000 1.000000e+001
         vertex 6.382767e+000 4.280904e+000 1.000000e+001
      endloop
   endfacet
   facet normal 9.932307e-001 -1.161583e-001 0.000000e+000
      outer loop
         vertex 6.411893e+000 4.613821e+000 1.117061e+000
         vertex 6.382767e+000 4.280904e+000 1.000000e+001
         vertex 6.382767e+000 4.280904e+000 1.117061e+000
      endloop
   endfacet
   facet normal 9.730600e-001 -2.305519e-001 0.000000e+000
      outer loop
         vertex 6.382767e+000 4.280904e+000 1.117061e+000
         vertex 6.382767e+000 4.280904e+000 1.000000e+001
         vertex 6.296272e+000 3.958103e+000 1.000000e+001
      endloop
   endfacet
   facet normal 9.579706e-001 -2.868663e-001 0.000000e+000
      outer loop
         vertex 6.382767e+000 4.280904e+000 1.117061e+000
         vertex 6.296272e+000 3.958103e+000 1.000000e+001
         vertex 6.296272e+000 3.958103e+000 1.117061e+000
      endloop
   endfacet
   facet normal 9.182422e-001 -3.960194e-001 0.000000e+000
      outer loop
         vertex 6.296272e+000 3.958103e+000 1.117061e+000
         vertex 6.296272e+000 3.958103e+000 1.000000e+001
         vertex 6.155038e+000 3.655225e+000 1.000000e+001
      endloop
   endfacet
   facet normal 8.936031e-001 -4.488580e-001 0.000000e+000
      outer loop
         vertex 6.296272e+000 3.958103e+000 1.117061e+000
         vertex 6.155038e+000 3.655225e+000 1.000000e+001
         vertex 6.155038e+000 3.655225e+000 1.117061e+000
      endloop
   endfacet
   facet normal 8.355240e-001 -5.494540e-001 0.000000e+000
      outer loop
         vertex 6.155038e+000 3.655225e+000 1.117061e+000
         vertex 6.155038e+000 3.655225e+000 1.000000e+001
         vertex 5.963356e+000 3.381474e+000 1.000000e+001
      endloop
   endfacet
   facet normal 8.020838e-001 -5.972114e-001 0.000000e+000
      outer loop
         vertex 6.155038e+000 3.655225e+000 1.117061e+000
         vertex 5.963356e+000 3.381474e+000 1.000000e+001
         vertex 5.963356e+000 3.381474e+000 1.117061e+000
      endloop
   endfacet
   facet normal 7.274188e-001 -6.861938e-001 0.000000e+000
      outer loop
         vertex 5.963356e+000 3.381474e+000 1.117061e+000
         vertex 5.963356e+000 3.381474e+000 1.000000e+001
         vertex 5.727049e+000 3.145167e+000 1.000000e+001
      endloop
   endfacet
   facet normal 6.861938e-001 -7.274188e-001 0.000000e+000
      outer loop
         vertex 5.963356e+000 3.381474e+000 1.117061e+000
         vertex 5.727049e+000 3.145167e+000 1.000000e+001
         vertex 5.727049e+000 3.145167e+000 1.117061e+000
      endloop
   endfacet
   facet normal 5.972114e-001 -8.020838e-001 0.000000e+000
      outer loop
         vertex 5.727049e+000 3.145167e+000 1.117061e+000
         vertex 5.727049e+000 3.145167e+000 1.000000e+001
         vertex 5.453298e+000 2.953485e+000 1.000000e+001
      endloop
   endfacet
   facet normal 5.494540e-001 -8.355240e-001 0.000000e+000
      outer loop
         vertex 5.727049e+000 3.145167e+000 1.117061e+000
         vertex 5.453298e+000 2.953485e+000 1.000000e+001
         vertex 5.453298e+000 2.953485e+000 1.117061e+000
      endloop
   endfacet
   facet normal 4.488580e-001 -8.936031e-001 0.000000e+000
      outer loop
         vertex 5.453298e+000 2.953485e+000 1.117061e+000
         vertex 5.453298e+000 2.953485e+000 1.000000e+001
         vertex 5.150420e+000 2.812251e+000 1.000000e+001
      endloop
   endfacet
   facet normal 3.960194e-001 -9.182422e-001 0.000000e+000
      outer loop
         vertex 5.453298e+000 2.953485e+000 1.117061e+000
         vertex 5.150420e+000 2.812251e+000 1.000000e+001
         vertex 5.150420e+000 2.812251e+000 1.117061e+000
      endloop
   endfacet
   facet normal 2.868663e-001 -9.579706e-001 0.000000e+000
      outer loop
         vertex 5.150420e+000 2.812251e+000 1.117061e+000
         vertex 5.150420e+000 2.812251e+000 1.000000e+001
         vertex 4.827619e+000 2.725756e+000 1.000000e+001
      endloop
   endfacet
   facet normal 2.305519e-001 -9.730600e-001 0.000000e+000
      outer loop
         vertex 5.150420e+000 2.812251e+000 1.117061e+000
         vertex 4.827619e+000 2.725756e+000 1.000000e+001
         vertex 4.827619e+000 2.725756e+000 1.117061e+000
      endloop
   endfacet
   facet normal 1.161583e-001 -9.932307e-001 0.000000e+000
      outer loop
         vertex 4.827619e+000 2.725756e+000 1.117061e+000
         vertex 4.827619e+000 2.725756e+000 1.000000e+001
         vertex 4.494702e+000 2.696630e+000 1.000000e+001
      endloop
   endfacet
   facet normal 5.807913e-002 -9.983119e-001 0.000000e+000
      outer loop
         vertex 4.827619e+000 2.725756e+000 1.117061e+000
         vertex 4.494702e+000 2.696630e+000 1.000000e+001
         vertex 4.494702e+000 2.696630e+000 1.117061e+000
      endloop
   endfacet
   facet normal -5.807913e-002 -9.983119e-001 0.000000e+000
      outer loop
         vertex 4.494702e+000 2.696630e+000 1.117061e+000
         vertex 4.494702e+000 2.696630e+000 1.000000e+001
         vertex 4.161786e+000 2.725756e+000 1.000000e+001
      endloop
   endfacet
   facet normal -1.161583e-001 -9.932307e-001 0.000000e+000
      outer loop
         vertex 4.494702e+000 2.696630e+000 1.117061e+000
         vertex 4.161786e+000 2.725756e+000 1.000000e+001
         vertex 4.161786e+000 2.725756e+000 1.117061e+000
      endloop
   endfacet
   facet normal -2.305519e-001 -9.730600e-001 0.000000e+000
      outer loop
         vertex 4.161786e+000 2.725756e+000 1.117061e+000
         vertex 4.161786e+000 2.725756e+000 1.000000e+001
         vertex 3.838984e+000 2.812251e+000 1.000000e+001
      endloop
   endfacet
   facet normal -2.868663e-001 -9.579706e-001 0.000000e+000
      outer loop
         vertex 4.161786e+000 2.725756e+000 1.117061e+000
         vertex 3.838984e+000 2.812251e+000 1.000000e+001
         vertex 3.838984e+000 2.812251e+000 1.117061e+000
      endloop
   endfacet
   facet normal -3.960194e-001 -9.182422e-001 0.000000e+000
      outer loop
         vertex 3.838984e+000 2.812251e+000 1.117061e+000
         vertex 3.838984e+000 2.812251e+000 1.000000e+001
         vertex 3.536107e+000 2.953485e+000 1.000000e+001
      endloop
   endfacet
   facet normal -4.488580e-001 -8.936031e-001 0.000000e+000
      outer loop
         vertex 3.838984e+000 2.812251e+000 1.117061e+000
         vertex 3.536107e+000 2.953485e+000 1.000000e+001
         vertex 3.536107e+000 2.953485e+000 1.117061e+000
      endloop
   endfacet
   facet normal -5.494540e-001 -8.355240e-001 0.000000e+000
      outer loop
         vertex 3.536107e+000 2.953485e+000 1.117061e+000
         vertex 3.536107e+000 2.953485e+000 1.000000e+001
         vertex 3.262356e+000 3.145167e+000 1.000000e+001
      endloop
   endfacet
   facet normal -5.972114e-001 -8.020838e-001 0.000000e+000
      outer loop
         vertex 3.536107e+000 2.953485e+000 1.117061e+000
         vertex 3.262356e+000 3.145167e+000 1.000000e+001
         vertex 3.262356e+000 3.145167e+000 1.117061e+000
      endloop
   endfacet
   facet normal -6.861938e-001 -7.274188e-001 0.000000e+000
      outer loop
         vertex 3.262356e+000 3.145167e+000 1.117061e+000
         vertex 3.262356e+000 3.145167e+000 1.000000e+001
         vertex 3.026049e+000 3.381474e+000 1.000000e+001
      endloop
   endfacet
   facet normal -7.274188e-001 -6.861938e-001 0.000000e+000
      outer loop
         vertex 3.262356e+000 3.145167e+000 1.117061e+000
         vertex 3.026049e+000 3.381474e+000 1.000000e+001
         vertex 3.026049e+000 3.381474e+000 1.117061e+000
      endloop
   endfacet
   facet normal -8.020838e-001 -5.972114e-001 0.000000e+000
      outer loop
         vertex 3.026049e+000 3.381474e+000 1.117061e+000
         vertex 3.026049e+000 3.381474e+000 1.000000e+001
         vertex 2.834367e+000 3.655225e+000 1.000000e+001
      endloop
   endfacet
   facet normal -8.355240e-001 -5.494540e-001 0.000000e+000
      outer loop
         vertex 3.026049e+000 3.381474e+000 1.117061e+000
         vertex 2.834367e+000 3.655225e+000 1.000000e+001
         vertex 2.834367e+000 3.655225e+000 1.117061e+000
      endloop
   endfacet
   facet normal -8.936031e-001 -4.488580e-001 0.000000e+000
      outer loop
         vertex 2.834367e+000 3.655225e+000 1.117061e+000
         vertex 2.834367e+000 3.655225e+000 1.000000e+001
         vertex 2.693132e+000 3.958103e+000 1.000000e+001
      endloop
   endfacet
   facet normal -9.182422e-001 -3.960194e-001 0.000000e+000
      outer loop
         vertex 2.834367e+000 3.655225e+000 1.117061e+000
         vertex 2.693132e+000 3.958103e+000 1.000000e+001
         vertex 2.693132e+000 3.958103e+000 1.117061e+000
      endloop
   endfacet
   facet normal -9.579706e-001 -2.868663e-001 0.000000e+000
      outer loop
         vertex 2.693132e+000 3.958103e+000 1.117061e+000
         vertex 2.693132e+000 3.958103e+000 1.000000e+001
         vertex 2.606638e+000 4.280904e+000 1.000000e+001
      endloop
   endfacet
   facet normal -9.730600e-001 -2.305519e-001 0.000000e+000
      outer loop
         vertex 2.693132e+000 3.958103e+000 1.117061e+000
         vertex 2.606638e+000 4.280904e+000 1.000000e+001
         vertex 2.606638e+000 4.280904e+000 1.117061e+000
      endloop
   endfacet
   facet normal -9.932307e-001 -1.161583e-001 0.000000e+000
      outer loop
         vertex 2.606638e+000 4.280904e+000 1.117061e+000
         vertex 2.606638e+000 4.280904e+000 1.000000e+001
         vertex 2.577512e+000 4.613821e+000 1.000000e+001
      endloop
   endfacet
   facet normal -9.983119e-001 -5.807913e-002 0.000000e+000
      outer loop
         vertex 2.606638e+000 4.280904e+000 1.117061e+000
         vertex 2.577512e+000 4.613821e+000 1.000000e+001
         vertex 2.577512e+000 4.613821e+000 1.117061e+000
      endloop
   endfacet
   facet normal -9.983119e-001 5.807913e-002 0.000000e+000
      outer loop
         vertex 2.577512e+000 4.613821e+000 1.117061e+000
         vertex 2.577512e+000 4.613821e+000 1.000000e+001
         vertex 2.606638e+000 4.946737e+000 1.000000e+001
      endloop
   endfacet
   facet normal -9.932307e-001 1.161583e-001 0.000000e+000
      outer loop
         vertex 2.577512e+000 4.613821e+000 1.117061e+000
         vertex 2.606638e+000 4.946737e+000 1.000000e+001
         vertex 2.606638e+000 4.946737e+000 1.117061e+000
      endloop
   endfacet
   facet normal -9.730600e-001 2.305519e-001 0.000000e+000
      outer loop
         vertex 2.606638e+000 4.946737e+000 1.117061e+000
         vertex 2.606638e+000 4.946737e+000 1.000000e+001
         vertex 2.693132e+000 5.269538e+000 1.000000e+001
      endloop
   endfacet
   facet normal -9.579706e-001 2.868663e-001 0.000000e+000
      outer loop
         vertex 2.606638e+000 4.946737e+000 1.117061e+000
         vertex 2.693132e+000 5.269538e+000 1.000000e+001
         vertex 2.693132e+000 5.269538e+000 1.117061e+000
      endloop
   endfacet
   facet normal -9.182422e-001 3.960194e-001 0.000000e+000
      outer loop
         vertex 2.693132e+000 5.269538e+000 1.117061e+000
         vertex 2.693132e+000 5.269538e+000 1.000000e+001
         vertex 2.834367e+000 5.572416e+000 1.000000e+001
      endloop
   endfacet
   facet normal -8.936031e-001 4.488580e-001 0.000000e+000
      outer loop
         vertex 2.693132e+000 5.269538e+000 1.117061e+000
         vertex 2.834367e+000 5.572416e+000 1.000000e+001
         vertex 2.834367e+000 5.572416e+000 1.117061e+000
      endloop
   endfacet
   facet normal -8.355240e-001 5.494540e-001 0.000000e+000
      outer loop
         vertex 2.834367e+000 5.572416e+000 1.117061e+000
         vertex 2.834367e+000 5.572416e+000 1.000000e+001
         vertex 3.026049e+000 5.846167e+000 1.000000e+001
      endloop
   endfacet
   facet normal -8.020838e-001 5.972114e-001 0.000000e+000
      outer loop
         vertex 2.834367e+000 5.572416e+000 1.117061e+000
         vertex 3.026049e+000 5.846167e+000 1.000000e+001
         vertex 3.026049e+000 5.846167e+000 1.117061e+000
      endloop
   endfacet
   facet normal -7.274188e-001 6.861938e-001 0.000000e+000
      outer loop
         vertex 3.026049e+000 5.846167e+000 1.117061e+000
         vertex 3.026049e+000 5.846167e+000 1.000000e+001
         vertex 3.262356e+000 6.082474e+000 1.000000e+001
      endloop
   endfacet
   facet normal -6.861938e-001 7.274188e-001 0.000000e+000
      outer loop
         vertex 3.026049e+000 5.846167e+000 1.117061e+000
         vertex 3.262356e+000 6.082474e+000 1.000000e+001
         vertex 3.262356e+000 6.082474e+000 1.117061e+000
      endloop
   endfacet
   facet normal -5.972114e-001 8.020838e-001 0.000000e+000
      outer loop
         vertex 3.262356e+000 6.082474e+000 1.117061e+000
         vertex 3.262356e+000 6.082474e+000 1.000000e+001
         vertex 3.536107e+000 6.274156e+000 1.000000e+001
      endloop
   endfacet
   facet normal -5.494540e-001 8.355240e-001 0.000000e+000
      outer loop
         vertex 3.262356e+000 6.082474e+000 1.117061e+000
         vertex 3.536107e+000 6.274156e+000 1.000000e+001
         vertex 3.536107e+000 6.274156e+000 1.117061e+000
      endloop
   endfacet
   facet normal -4.488580e-001 8.936031e-001 0.000000e+000
      outer loop
         vertex 3.536107e+000 6.274156e+000 1.117061e+000
         vertex 3.536107e+000 6.274156e+000 1.000000e+001
         vertex 3.838984e+000 6.415390e+000 1.000000e+001
      endloop
   endfacet
   facet normal -3.960194e-001 9.182422e-001 0.000000e+000
      outer loop
         vertex 3.536107e+000 6.274156e+000 1.117061e+000
         vertex 3.838984e+000 6.415390e+000 1.000000e+001
         vertex 3.838984e+000 6.415390e+000 1.117061e+000
      endloop
   endfacet
   facet normal -2.868663e-001 9.579706e-001 0.000000e+000
      outer loop
         vertex 3.838984e+000 6.415390e+000 1.117061e+000
         vertex 3.838984e+000 6.415390e+000 1.000000e+001
         vertex 4.161786e+000 6.501884e+000 1.000000e+001
      endloop
   endfacet
   facet normal -2.305519e-001 9.730600e-001 0.000000e+000
      outer loop
         vertex 3.838984e+000 6.415390e+000 1.117061e+000
         vertex 4.161786e+000 6.501884e+000 1.000000e+001
         vertex 4.161786e+000 6.501884e+000 1.117061e+000
      endloop
   endfacet
   facet normal -1.161583e-001 9.932307e-001 0.000000e+000
      outer loop
         vertex 4.161786e+000 6.501884e+000 1.117061e+000
         vertex 4.161786e+000 6.501884e+000 1.000000e+001
         vertex 4.494702e+000 6.531011e+000 1.000000e+001
      endloop
   endfacet
   facet normal -5.807913e-002 9.983119e-001 0.000000e+000
      outer loop
         vertex 4.161786e+000 6.501884e+000 1.117061e+000
         vertex 4.494702e+000 6.531011e+000 1.000000e+001
         vertex 4.494702e+000 6.531011e+000 1.117061e+000
      endloop
   endfacet
   facet normal 5.807913e-002 9.983119e-001 0.000000e+000
      outer loop
         vertex 4.494702e+000 6.531011e+000 1.117061e+000
         vertex 4.494702e+000 6.531011e+000 1.000000e+001
         vertex 4.827619e+000 6.501884e+000 1.000000e+001
      endloop
   endfacet
   facet normal 1.161583e-001 9.932307e-001 0.000000e+000
      outer loop
         vertex 4.494702e+000 6.531011e+000 1.117061e+000
         vertex 4.827619e+000 6.501884e+000 1.000000e+001
         vertex 4.827619e+000 6.501884e+000 1.117061e+000
      endloop
   endfacet
   facet normal 2.305519e-001 9.730600e-001 0.000000e+000
      outer loop
         vertex 4.827619e+000 6.501884e+000 1.117061e+000
         vertex 4.827619e+000 6.501884e+000 1.000000e+001
         vertex 5.150420e+000 6.415390e+000 1.000000e+001
      endloop
   endfacet
   facet normal 2.868663e-001 9.579706e-001 0.000000e+000
      outer loop
         vertex 4.827619e+000 6.501884e+000 1.117061e+000
         vertex 5.150420e+000 6.415390e+000 1.000000e+001
         vertex 5.150420e+000 6.415390e+000 1.117061e+000
      endloop
   endfacet
   facet normal 3.960194e-001 9.182422e-001 0.000000e+000
      outer loop
         vertex 5.150420e+000 6.415390e+000 1.117061e+000
         vertex 5.150420e+000 6.415390e+000 1.000000e+001
         vertex 5.453298e+000 6.274156e+000 1.000000e+001
      endloop
   endfacet
   facet normal 4.488580e-001 8.936031e-001 0.000000e+000
      outer loop
         vertex 5.150420e+000 6.415390e+000 1.117061e+000
         vertex 5.453298e+000 6.274156e+000 1.000000e+001
         vertex 5.453298e+000 6.274156e+000 1.117061e+000
      endloop
   endfacet
   facet normal 5.494540e-001 8.355240e-001 0.000000e+000
      outer loop
         vertex 5.453298e+000 6.274156e+000 1.117061e+000
         vertex 5.453298e+000 6.274156e+000 1.000000e+001
         vertex 5.727049e+000 6.082474e+000 1.000000e+001
      endloop
   endfacet
   facet normal 5.972114e-001 8.020838e-001 0.000000e+000
      outer loop
         vertex 5.453298e+000 6.274156e+000 1.117061e+000
         vertex 5.727049e+000 6.082474e+000 1.000000e+001
         vertex 5.727049e+000 6.082474e+000 1.117061e+000
      endloop
   endfacet
   facet normal 6.861938e-001 7.274188e-001 0.000000e+000
      outer loop
         vertex 5.727049e+000 6.082474e+000 1.117061e+000
         vertex 5.727049e+000 6.082474e+000 1.000000e+001
         vertex 5.963356e+000 5.846167e+000 1.000000e+001
      endloop
   endfacet
   facet normal 7.274188e-001 6.861938e-001 0.000000e+000
      outer loop
         vertex 5.727049e+000 6.082474e+000 1.117061e+000
         vertex 5.963356e+000 5.846167e+000 1.000000e+001
         vertex 5.963356e+000 5.846167e+000 1.117061e+000
      endloop
   endfacet
   facet normal 8.020838e-001 5.972114e-001 0.000000e+000
      outer loop
         vertex 5.963356e+000 5.846167e+000 1.117061e+000
         vertex 5.963356e+000 5.846167e+000 1.000000e+001
         vertex 6.155038e+000 5.572416e+000 1.000000e+001
      endloop
   endfacet
   facet normal 8.355240e-001 5.494540e-001 0.000000e+000
      outer loop
         vertex 5.963356e+000 5.846167e+000 1.117061e+000
         vertex 6.155038e+000 5.572416e+000 1.000000e+001
         vertex 6.155038e+000 5.572416e+000 1.117061e+000
      endloop
   endfacet
   facet normal 8.936031e-001 4.488580e-001 0.000000e+000
      outer loop
         vertex 6.155038e+000 5.572416e+000 1.117061e+000
         vertex 6.155038e+000 5.572416e+000 1.000000e+001
         vertex 6.296272e+000 5.269538e+000 1.000000e+001
      endloop
   endfacet
   facet normal 9.182422e-001 3.960194e-001 0.000000e+000
      outer loop
         vertex 6.155038e+000 5.572416e+000 1.117061e+000
         vertex 6.296272e+000 5.269538e+000 1.000000e+001
         vertex 6.296272e+000 5.269538e+000 1.117061e+000
      endloop
   endfacet
   facet normal 9.579706e-001 2.868663e-001 0.000000e+000
      outer loop
         vertex 6.296272e+000 5.269538e+000 1.117061e+000
         vertex 6.296272e+000 5.269538e+000 1.000000e+001
         vertex 6.382767e+000 4.946737e+000 1.000000e+001
      endloop
   endfacet
   facet normal 9.730600e-001 2.305519e-001 0.000000e+000
      outer loop
         vertex 6.296272e+000 5.269538e+000 1.117061e+000
         vertex 6.382767e+000 4.946737e+000 1.000000e+001
         vertex 6.382767e+000 4.946737e+000 1.117061e+000
      endloop
   endfacet
   facet normal 9.932307e-001 1.161583e-001 0.000000e+000
      outer loop
         vertex 6.382767e+000 4.946737e+000 1.117061e+000
         vertex 6.382767e+000 4.946737e+000 1.000000e+001
         vertex 6.411893e+000 4.613821e+000 1.000000e+001
      endloop
   endfacet
   facet normal 0.000000e+000 0.000000e+000 1.000000e+000
      outer loop
         vertex 4.161786e+000 6.501884e+000 1.000000e+001
         vertex 3.838984e+000 6.415390e+000 1.000000e+001
         vertex 4.827619e+000 2.725756e+000 1.000000e+001
      endloop
   endfacet
   facet normal 0.000000e+000 0.000000e+000 1.000000e+000
      outer loop
         vertex 4.827619e+000 2.725756e+000 1.000000e+001
         vertex 3.838984e+000 6.415390e+000 1.000000e+001
         vertex 3.536107e+000 6.274156e+000 1.000000e+001
      endloop
   endfacet
   facet normal 0.000000e+000 0.000000e+000 1.000000e+000
      outer loop
         vertex 4.827619e+000 2.725756e+000 1.000000e+001
         vertex 3.536107e+000 6.274156e+000 1.000000e+001
         vertex 4.494702e+000 2.696630e+000 1.000000e+001
      endloop
   endfacet
   facet normal 0.000000e+000 0.000000e+000 1.000000e+000
      outer loop
         vertex 3.838984e+000 2.812251e+000 1.000000e+001
         vertex 4.161786e+000 2.725756e+000 1.000000e+001
         vertex 3.026049e+000 5.846167e+000 1.000000e+001
      endloop
   endfacet
   facet normal 0.000000e+000 0.000000e+000 1.000000e+000
      outer loop
         vertex 4.827619e+000 2.725756e+000 1.000000e+001
         vertex 5.150420e+000 2.812251e+000 1.000000e+001
         vertex 4.161786e+000 6.501884e+000 1.000000e+001
      endloop
   endfacet
   facet normal 0.000000e+000 0.000000e+000 1.000000e+000
      outer loop
         vertex 4.161786e+000 6.501884e+000 1.000000e+001
         vertex 5.150420e+000 2.812251e+000 1.000000e+001
         vertex 5.453298e+000 2.953485e+000 1.000000e+001
      endloop
   endfacet
   facet normal 0.000000e+000 0.000000e+000 1.000000e+000
      outer loop
         vertex 4.161786e+000 6.501884e+000 1.000000e+001
         vertex 5.453298e+000 2.953485e+000 1.000000e+001
         vertex 5.727049e+000 3.145167e+000 1.000000e+001
      endloop
   endfacet
   facet normal 0.000000e+000 0.000000e+000 1.000000e+000
      outer loop
         vertex 4.494702e+000 2.696630e+000 1.000000e+001
         vertex 3.536107e+000 6.274156e+000 1.000000e+001
         vertex 4.161786e+000 2.725756e+000 1.000000e+001
      endloop
   endfacet
   facet normal 0.000000e+000 0.000000e+000 1.000000e+000
      outer loop
         vertex 4.161786e+000 2.725756e+000 1.000000e+001
         vertex 3.536107e+000 6.274156e+000 1.000000e+001
         vertex 3.262356e+000 6.082474e+000 1.000000e+001
      endloop
   endfacet
   facet normal 0.000000e+000 0.000000e+000 1.000000e+000
      outer loop
         vertex 4.161786e+000 2.725756e+000 1.000000e+001
         vertex 3.262356e+000 6.082474e+000 1.000000e+001
         vertex 3.026049e+000 5.846167e+000 1.000000e+001
      endloop
   endfacet
   facet normal 0.000000e+000 0.000000e+000 1.000000e+000
      outer loop
         vertex 5.727049e+000 3.145167e+000 1.000000e+001
         vertex 5.963356e+000 3.381474e+000 1.000000e+001
         vertex 4.161786e+000 6.501884e+000 1.000000e+001
      endloop
   endfacet
   facet normal 0.000000e+000 0.000000e+000 1.000000e+000
      outer loop
         vertex 4.161786e+000 6.501884e+000 1.000000e+001
         vertex 5.963356e+000 3.381474e+000 1.000000e+001
         vertex 6.155038e+000 3.655225e+000 1.000000e+001
      endloop
   endfacet
   facet normal 0.000000e+000 0.000000e+000 1.000000e+000
      outer loop
         vertex 4.161786e+000 6.501884e+000 1.000000e+001
         vertex 6.155038e+000 3.655225e+000 1.000000e+001
         vertex 6.296272e+000 3.958103e+000 1.000000e+001
      endloop
   endfacet
   facet normal 0.000000e+000 0.000000e+000 1.000000e+000
      outer loop
         vertex 2.834367e+000 5.572416e+000 1.000000e+001
         vertex 2.693132e+000 5.269538e+000 1.000000e+001
         vertex 3.262356e+000 3.145167e+000 1.000000e+001
      endloop
   endfacet
   facet normal 0.000000e+000 0.000000e+000 1.000000e+000
      outer loop
         vertex 6.155038e+000 5.572416e+000 1.000000e+001
         vertex 5.150420e+000 6.415390e+000 1.000000e+001
         vertex 4.827619e+000 6.501884e+000 1.000000e+001
      endloop
   endfacet
   facet normal 0.000000e+000 0.000000e+000 1.000000e+000
      outer loop
         vertex 2.834367e+000 5.572416e+000 1.000000e+001
         vertex 3.262356e+000 3.145167e+000 1.000000e+001
         vertex 3.026049e+000 5.846167e+000 1.000000e+001
      endloop
   endfacet
   facet normal 0.000000e+000 0.000000e+000 1.000000e+000
      outer loop
         vertex 3.026049e+000 5.846167e+000 1.000000e+001
         vertex 3.262356e+000 3.145167e+000 1.000000e+001
         vertex 3.536107e+000 2.953485e+000 1.000000e+001
      endloop
   endfacet
   facet normal 0.000000e+000 0.000000e+000 1.000000e+000
      outer loop
         vertex 3.026049e+000 5.846167e+000 1.000000e+001
         vertex 3.536107e+000 2.953485e+000 1.000000e+001
         vertex 3.838984e+000 2.812251e+000 1.000000e+001
      endloop
   endfacet
   facet normal 0.000000e+000 0.000000e+000 1.000000e+000
      outer loop
         vertex 6.296272e+000 3.958103e+000 1.000000e+001
         vertex 6.382767e+000 4.280904e+000 1.000000e+001
         vertex 4.161786e+000 6.501884e+000 1.000000e+001
      endloop
   endfacet
   facet normal 0.000000e+000 0.000000e+000 1.000000e+000
      outer loop
         vertex 4.161786e+000 6.501884e+000 1.000000e+001
         vertex 6.382767e+000 4.280904e+000 1.000000e+001
         vertex 6.411893e+000 4.613821e+000 1.000000e+001
      endloop
   endfacet
   facet normal 0.000000e+000 0.000000e+000 1.000000e+000
      outer loop
         vertex 4.161786e+000 6.501884e+000 1.000000e+001
         vertex 6.411893e+000 4.613821e+000 1.000000e+001
         vertex 6.382767e+000 4.946737e+000 1.000000e+001
      endloop
   endfacet
   facet normal 0.000000e+000 0.000000e+000 1.000000e+000
      outer loop
         vertex 6.155038e+000 5.572416e+000 1.000000e+001
         vertex 5.963356e+000 5.846167e+000 1.000000e+001
         vertex 5.150420e+000 6.415390e+000 1.000000e+001
      endloop
   endfacet
   facet normal 0.000000e+000 0.000000e+000 1.000000e+000
      outer loop
         vertex 5.150420e+000 6.415390e+000 1.000000e+001
         vertex 5.963356e+000 5.846167e+000 1.000000e+001
         vertex 5.727049e+000 6.082474e+000 1.000000e+001
      endloop
   endfacet
   facet normal 0.000000e+000 0.000000e+000 1.000000e+000
      outer loop
         vertex 5.150420e+000 6.415390e+000 1.000000e+001
         vertex 5.727049e+000 6.082474e+000 1.000000e+001
         vertex 5.453298e+000 6.274156e+000 1.000000e+001
      endloop
   endfacet
   facet normal 0.000000e+000 0.000000e+000 1.000000e+000
      outer loop
         vertex 6.382767e+000 4.946737e+000 1.000000e+001
         vertex 6.296272e+000 5.269538e+000 1.000000e+001
         vertex 4.161786e+000 6.501884e+000 1.000000e+001
      endloop
   endfacet
   facet normal 0.000000e+000 0.000000e+000 1.000000e+000
      outer loop
         vertex 4.161786e+000 6.501884e+000 1.000000e+001
         vertex 6.296272e+000 5.269538e+000 1.000000e+001
         vertex 6.155038e+000 5.572416e+000 1.000000e+001
      endloop
   endfacet
   facet normal 0.000000e+000 0.000000e+000 1.000000e+000
      outer loop
         vertex 4.161786e+000 6.501884e+000 1.000000e+001
         vertex 6.155038e+000 5.572416e+000 1.000000e+001
         vertex 4.494702e+000 6.531011e+000 1.000000e+001
      endloop
   endfacet
   facet normal 0.000000e+000 0.000000e+000 1.000000e+000
      outer loop
         vertex 4.494702e+000 6.531011e+000 1.000000e+001
         vertex 6.155038e+000 5.572416e+000 1.000000e+001
         vertex 4.827619e+000 6.501884e+000 1.000000e+001
      endloop
   endfacet
   facet normal 0.000000e+000 0.000000e+000 1.000000e+000
      outer loop
         vertex 2.693132e+000 5.269538e+000 1.000000e+001
         vertex 2.606638e+000 4.946737e+000 1.000000e+001
         vertex 3.262356e+000 3.145167e+000 1.000000e+001
      endloop
   endfacet
   facet normal 0.000000e+000 0.000000e+000 1.000000e+000
      outer loop
         vertex 3.262356e+000 3.145167e+000 1.000000e+001
         vertex 2.606638e+000 4.946737e+000 1.000000e+001
         vertex 2.577512e+000 4.613821e+000 1.000000e+001
      endloop
   endfacet
   facet normal 0.000000e+000 0.000000e+000 1.000000e+000
      outer loop
         vertex 3.262356e+000 3.145167e+000 1.000000e+001
         vertex 2.577512e+000 4.613821e+000 1.000000e+001
         vertex 2.606638e+000 4.280904e+000 1.000000e+001
      endloop
   endfacet
   facet normal 0.000000e+000 0.000000e+000 1.000000e+000
      outer loop
         vertex 2.606638e+000 4.280904e+000 1.000000e+001
         vertex 2.693132e+000 3.958103e+000 1.000000e+001
         vertex 3.262356e+000 3.145167e+000 1.000000e+001
      endloop
   endfacet
   facet normal 0.000000e+000 0.000000e+000 1.000000e+000
      outer loop
         vertex 3.262356e+000 3.145167e+000 1.000000e+001
         vertex 2.693132e+000 3.958103e+000 1.000000e+001
         vertex 2.834367e+000 3.655225e+000 1.000000e+001
      endloop
   endfacet
   facet normal 0.000000e+000 0.000000e+000 1.000000e+000
      outer loop
         vertex 3.262356e+000 3.145167e+000 1.000000e+001
         vertex 2.834367e+000 3.655225e+000 1.000000e+001
         vertex 3.026049e+000 3.381474e+000 1.000000e+001
      endloop
   endfacet
endsolid