solid 0_987
   facet normal -1.000000e+000 0.000000e+000 0.000000e+000
      outer loop
         vertex 0.000000e+000 1.000000e+001 1.000000e+001
         vertex 0.000000e+000 1.000000e+001 0.000000e+000
         vertex 0.000000e+000 0.000000e+000 1.000000e+001
      endloop
   endfacet
   facet normal -1.000000e+000 0.000000e+000 0.000000e+000
      outer loop
         vertex 0.000000e+000 0.000000e+000 1.000000e+001
         vertex 0.000000e+000 1.000000e+001 0.000000e+000
         vertex 0.000000e+000 0.000000e+000 0.000000e+000
      endloop
   endfacet
   facet normal 0.000000e+000 0.000000e+000 1.000000e+000
      outer loop
         vertex 6.807466e+000 3.435767e+000 1.000000e+001
         vertex 6.424726e+000 3.277231e+000 1.000000e+001
         vertex 1.000000e+001 0.000000e+000 1.000000e+001
      endloop
   endfacet
   facet normal 0.000000e+000 0.000000e+000 1.000000e+000
      outer loop
         vertex 8.216461e+000 5.375082e+000 1.000000e+001
         vertex 1.000000e+001 0.000000e+000 1.000000e+001
         vertex 8.248964e+000 5.788078e+000 1.000000e+001
      endloop
   endfacet
   facet normal 0.000000e+000 0.000000e+000 1.000000e+000
      outer loop
         vertex 8.248964e+000 5.788078e+000 1.000000e+001
         vertex 1.000000e+001 0.000000e+000 1.000000e+001
         vertex 1.000000e+001 1.000000e+001 1.000000e+001
      endloop
   endfacet
   facet normal 0.000000e+000 0.000000e+000 1.000000e+000
      outer loop
         vertex 8.248964e+000 5.788078e+000 1.000000e+001
         vertex 1.000000e+001 1.000000e+001 1.000000e+001
         vertex 8.216461e+000 6.201076e+000 1.000000e+001
      endloop
   endfacet
   facet normal 0.000000e+000 0.000000e+000 1.000000e+000
      outer loop
         vertex 4.057114e+000 3.652224e+000 1.000000e+001
         vertex 0.000000e+000 0.000000e+000 1.000000e+001
         vertex 4.410340e+000 3.435767e+000 1.000000e+001
      endloop
   endfacet
   facet normal 0.000000e+000 0.000000e+000 1.000000e+000
      outer loop
         vertex 4.410340e+000 3.435767e+000 1.000000e+001
         vertex 0.000000e+000 0.000000e+000 1.000000e+001
         vertex 4.793079e+000 3.277231e+000 1.000000e+001
      endloop
   endfacet
   facet normal 0.000000e+000 0.000000e+000 1.000000e+000
      outer loop
         vertex 3.001345e+000 6.201076e+000 1.000000e+001
         vertex 3.098055e+000 6.603903e+000 1.000000e+001
         vertex 0.000000e+000 1.000000e+001 1.000000e+001
      endloop
   endfacet
   facet normal 0.000000e+000 0.000000e+000 1.000000e+000
      outer loop
         vertex 0.000000e+000 1.000000e+001 1.000000e+001
         vertex 3.098055e+000 6.603903e+000 1.000000e+001
         vertex 3.256591e+000 6.986642e+000 1.000000e+001
      endloop
   endfacet
   facet normal 0.000000e+000 0.000000e+000 1.000000e+000
      outer loop
         vertex 8.216461e+000 5.375082e+000 1.000000e+001
         vertex 8.119751e+000 4.972255e+000 1.000000e+001
         vertex 1.000000e+001 0.000000e+000 1.000000e+001
      endloop
   endfacet
   facet normal 0.000000e+000 0.000000e+000 1.000000e+000
      outer loop
         vertex 1.000000e+001 0.000000e+000 1.000000e+001
         vertex 8.119751e+000 4.972255e+000 1.000000e+001
         vertex 7.961215e+000 4.589516e+000 1.000000e+001
      endloop
   endfacet
   facet normal 0.000000e+000 0.000000e+000 1.000000e+000
      outer loop
         vertex 1.000000e+001 0.000000e+000 1.000000e+001
         vertex 7.961215e+000 4.589516e+000 1.000000e+001
         vertex 7.744758e+000 4.236290e+000 1.000000e+001
      endloop
   endfacet
   facet normal 0.000000e+000 0.000000e+000 1.000000e+000
      outer loop
         vertex 7.744758e+000 4.236290e+000 1.000000e+001
         vertex 7.475708e+000 3.921273e+000 1.000000e+001
         vertex 1.000000e+001 0.000000e+000 1.000000e+001
      endloop
   endfacet
   facet normal 0.000000e+000 0.000000e+000 1.000000e+000
      outer loop
         vertex 1.000000e+001 0.000000e+000 1.000000e+001
         vertex 7.475708e+000 3.921273e+000 1.000000e+001
         vertex 7.160692e+000 3.652224e+000 1.000000e+001
      endloop
   endfacet
   facet normal 0.000000e+000 0.000000e+000 1.000000e+000
      outer loop
         vertex 1.000000e+001 0.000000e+000 1.000000e+001
         vertex 7.160692e+000 3.652224e+000 1.000000e+001
         vertex 6.807466e+000 3.435767e+000 1.000000e+001
      endloop
   endfacet
   facet normal 0.000000e+000 0.000000e+000 1.000000e+000
      outer loop
         vertex 6.424726e+000 3.277231e+000 1.000000e+001
         vertex 6.021899e+000 3.180521e+000 1.000000e+001
         vertex 1.000000e+001 0.000000e+000 1.000000e+001
      endloop
   endfacet
   facet normal 0.000000e+000 0.000000e+000 1.000000e+000
      outer loop
         vertex 1.000000e+001 0.000000e+000 1.000000e+001
         vertex 6.021899e+000 3.180521e+000 1.000000e+001
         vertex 5.608903e+000 3.148017e+000 1.000000e+001
      endloop
   endfacet
   facet normal 0.000000e+000 0.000000e+000 1.000000e+000
      outer loop
         vertex 1.000000e+001 0.000000e+000 1.000000e+001
         vertex 5.608903e+000 3.148017e+000 1.000000e+001
         vertex 0.000000e+000 0.000000e+000 1.000000e+001
      endloop
   endfacet
   facet normal 0.000000e+000 0.000000e+000 1.000000e+000
      outer loop
         vertex 0.000000e+000 0.000000e+000 1.000000e+001
         vertex 5.608903e+000 3.148017e+000 1.000000e+001
         vertex 5.195906e+000 3.180521e+000 1.000000e+001
      endloop
   endfacet
   facet normal 0.000000e+000 0.000000e+000 1.000000e+000
      outer loop
         vertex 0.000000e+000 0.000000e+000 1.000000e+001
         vertex 5.195906e+000 3.180521e+000 1.000000e+001
         vertex 4.793079e+000 3.277231e+000 1.000000e+001
      endloop
   endfacet
   facet normal 0.000000e+000 0.000000e+000 1.000000e+000
      outer loop
         vertex 3.256591e+000 6.986642e+000 1.000000e+001
         vertex 3.473048e+000 7.339868e+000 1.000000e+001
         vertex 0.000000e+000 1.000000e+001 1.000000e+001
      endloop
   endfacet
   facet normal 0.000000e+000 0.000000e+000 1.000000e+000
      outer loop
         vertex 0.000000e+000 1.000000e+001 1.000000e+001
         vertex 3.473048e+000 7.339868e+000 1.000000e+001
         vertex 3.742097e+000 7.654884e+000 1.000000e+001
      endloop
   endfacet
   facet normal 0.000000e+000 0.000000e+000 1.000000e+000
      outer loop
         vertex 0.000000e+000 1.000000e+001 1.000000e+001
         vertex 3.742097e+000 7.654884e+000 1.000000e+001
         vertex 4.057114e+000 7.923934e+000 1.000000e+001
      endloop
   endfacet
   facet normal 0.000000e+000 0.000000e+000 1.000000e+000
      outer loop
         vertex 1.000000e+001 1.000000e+001 1.000000e+001
         vertex 0.000000e+000 1.000000e+001 1.000000e+001
         vertex 5.608903e+000 8.428141e+000 1.000000e+001
      endloop
   endfacet
   facet normal 0.000000e+000 0.000000e+000 1.000000e+000
      outer loop
         vertex 5.608903e+000 8.428141e+000 1.000000e+001
         vertex 0.000000e+000 1.000000e+001 1.000000e+001
         vertex 5.195906e+000 8.395637e+000 1.000000e+001
      endloop
   endfacet
   facet normal 0.000000e+000 0.000000e+000 1.000000e+000
      outer loop
         vertex 5.608903e+000 8.428141e+000 1.000000e+001
         vertex 6.021899e+000 8.395637e+000 1.000000e+001
         vertex 1.000000e+001 1.000000e+001 1.000000e+001
      endloop
   endfacet
   facet normal 0.000000e+000 0.000000e+000 1.000000e+000
      outer loop
         vertex 1.000000e+001 1.000000e+001 1.000000e+001
         vertex 6.021899e+000 8.395637e+000 1.000000e+001
         vertex 6.424726e+000 8.298926e+000 1.000000e+001
      endloop
   endfacet
   facet normal 0.000000e+000 0.000000e+000 1.000000e+000
      outer loop
         vertex 1.000000e+001 1.000000e+001 1.000000e+001
         vertex 6.424726e+000 8.298926e+000 1.000000e+001
         vertex 6.807466e+000 8.140390e+000 1.000000e+001
      endloop
   endfacet
   facet normal 0.000000e+000 0.000000e+000 1.000000e+000
      outer loop
         vertex 4.057114e+000 7.923934e+000 1.000000e+001
         vertex 4.410340e+000 8.140390e+000 1.000000e+001
         vertex 0.000000e+000 1.000000e+001 1.000000e+001
      endloop
   endfacet
   facet normal 0.000000e+000 0.000000e+000 1.000000e+000
      outer loop
         vertex 0.000000e+000 1.000000e+001 1.000000e+001
         vertex 4.410340e+000 8.140390e+000 1.000000e+001
         vertex 4.793079e+000 8.298926e+000 1.000000e+001
      endloop
   endfacet
   facet normal 0.000000e+000 0.000000e+000 1.000000e+000
      outer loop
         vertex 0.000000e+000 1.000000e+001 1.000000e+001
         vertex 4.793079e+000 8.298926e+000 1.000000e+001
         vertex 5.195906e+000 8.395637e+000 1.000000e+001
      endloop
   endfacet
   facet normal 0.000000e+000 0.000000e+000 1.000000e+000
      outer loop
         vertex 6.807466e+000 8.140390e+000 1.000000e+001
         vertex 7.160692e+000 7.923934e+000 1.000000e+001
         vertex 1.000000e+001 1.000000e+001 1.000000e+001
      endloop
   endfacet
   facet normal 0.000000e+000 0.000000e+000 1.000000e+000
      outer loop
         vertex 1.000000e+001 1.000000e+001 1.000000e+001
         vertex 7.160692e+000 7.923934e+000 1.000000e+001
         vertex 7.475708e+000 7.654884e+000 1.000000e+001
      endloop
   endfacet
   facet normal 0.000000e+000 0.000000e+000 1.000000e+000
      outer loop
         vertex 1.000000e+001 1.000000e+001 1.000000e+001
         vertex 7.475708e+000 7.654884e+000 1.000000e+001
         vertex 7.744758e+000 7.339868e+000 1.000000e+001
      endloop
   endfacet
   facet normal 0.000000e+000 0.000000e+000 1.000000e+000
      outer loop
         vertex 7.744758e+000 7.339868e+000 1.000000e+001
         vertex 7.961215e+000 6.986642e+000 1.000000e+001
         vertex 1.000000e+001 1.000000e+001 1.000000e+001
      endloop
   endfacet
   facet normal 0.000000e+000 0.000000e+000 1.000000e+000
      outer loop
         vertex 1.000000e+001 1.000000e+001 1.000000e+001
         vertex 7.961215e+000 6.986642e+000 1.000000e+001
         vertex 8.119751e+000 6.603903e+000 1.000000e+001
      endloop
   endfacet
   facet normal 0.000000e+000 0.000000e+000 1.000000e+000
      outer loop
         vertex 1.000000e+001 1.000000e+001 1.000000e+001
         vertex 8.119751e+000 6.603903e+000 1.000000e+001
         vertex 8.216461e+000 6.201076e+000 1.000000e+001
      endloop
   endfacet
   facet normal 0.000000e+000 0.000000e+000 1.000000e+000
      outer loop
         vertex 4.057114e+000 3.652224e+000 1.000000e+001
         vertex 3.742097e+000 3.921273e+000 1.000000e+001
         vertex 0.000000e+000 0.000000e+000 1.000000e+001
      endloop
   endfacet
   facet normal 0.000000e+000 0.000000e+000 1.000000e+000
      outer loop
         vertex 0.000000e+000 0.000000e+000 1.000000e+001
         vertex 3.742097e+000 3.921273e+000 1.000000e+001
         vertex 3.473048e+000 4.236290e+000 1.000000e+001
      endloop
   endfacet
   facet normal 0.000000e+000 0.000000e+000 1.000000e+000
      outer loop
         vertex 0.000000e+000 0.000000e+000 1.000000e+001
         vertex 3.473048e+000 4.236290e+000 1.000000e+001
         vertex 3.256591e+000 4.589516e+000 1.000000e+001
      endloop
   endfacet
   facet normal 0.000000e+000 0.000000e+000 1.000000e+000
      outer loop
         vertex 3.256591e+000 4.589516e+000 1.000000e+001
         vertex 3.098055e+000 4.972255e+000 1.000000e+001
         vertex 0.000000e+000 0.000000e+000 1.000000e+001
      endloop
   endfacet
   facet normal 0.000000e+000 0.000000e+000 1.000000e+000
      outer loop
         vertex 0.000000e+000 0.000000e+000 1.000000e+001
         vertex 3.098055e+000 4.972255e+000 1.000000e+001
         vertex 3.001345e+000 5.375082e+000 1.000000e+001
      endloop
   endfacet
   facet normal 0.000000e+000 0.000000e+000 1.000000e+000
      outer loop
         vertex 0.000000e+000 0.000000e+000 1.000000e+001
         vertex 3.001345e+000 5.375082e+000 1.000000e+001
         vertex 0.000000e+000 1.000000e+001 1.000000e+001
      endloop
   endfacet
   facet normal 0.000000e+000 0.000000e+000 1.000000e+000
      outer loop
         vertex 0.000000e+000 1.000000e+001 1.000000e+001
         vertex 3.001345e+000 5.375082e+000 1.000000e+001
         vertex 2.968841e+000 5.788078e+000 1.000000e+001
      endloop
   endfacet
   facet normal 0.000000e+000 0.000000e+000 1.000000e+000
      outer loop
         vertex 0.000000e+000 1.000000e+001 1.000000e+001
         vertex 2.968841e+000 5.788078e+000 1.000000e+001
         vertex 3.001345e+000 6.201076e+000 1.000000e+001
      endloop
   endfacet
   facet normal 1.000000e+000 0.000000e+000 0.000000e+000
      outer loop
         vertex 1.000000e+001 1.000000e+001 0.000000e+000
         vertex 1.000000e+001 1.000000e+001 1.000000e+001
         vertex 1.000000e+001 0.000000e+000 0.000000e+000
      endloop
   endfacet
   facet normal 1.000000e+000 0.000000e+000 0.000000e+000
      outer loop
         vertex 1.000000e+001 0.000000e+000 0.000000e+000
         vertex 1.000000e+001 1.000000e+001 1.000000e+001
         vertex 1.000000e+001 0.000000e+000 1.000000e+001
      endloop
   endfacet
   facet normal 0.000000e+000 0.000000e+000 -1.000000e+000
      outer loop
         vertex 0.000000e+000 1.000000e+001 0.000000e+000
         vertex 1.000000e+001 1.000000e+001 0.000000e+000
         vertex 0.000000e+000 0.000000e+000 0.000000e+000
      endloop
   endfacet
   facet normal 0.000000e+000 0.000000e+000 -1.000000e+000
      outer loop
         vertex 0.000000e+000 0.000000e+000 0.000000e+000
         vertex 1.000000e+001 1.000000e+001 0.000000e+000
         vertex 1.000000e+001 0.000000e+000 0.000000e+000
      endloop
   endfacet
   facet normal 0.000000e+000 1.000000e+000 0.000000e+000
      outer loop
         vertex 1.000000e+001 1.000000e+001 1.000000e+001
         vertex 1.000000e+001 1.000000e+001 0.000000e+000
         vertex 0.000000e+000 1.000000e+001 1.000000e+001
      endloop
   endfacet
   facet normal 0.000000e+000 1.000000e+000 0.000000e+000
      outer loop
         vertex 0.000000e+000 1.000000e+001 1.000000e+001
         vertex 1.000000e+001 1.000000e+001 0.000000e+000
         vertex 0.000000e+000 1.000000e+001 0.000000e+000
      endloop
   endfacet
   facet normal 0.000000e+000 -1.000000e+000 0.000000e+000
      outer loop
         vertex 1.000000e+001 0.000000e+000 0.000000e+000
         vertex 1.000000e+001 0.000000e+000 1.000000e+001
         vertex 0.000000e+000 0.000000e+000 0.000000e+000
      endloop
   endfacet
   facet normal 0.000000e+000 -1.000000e+000 0.000000e+000
      outer loop
         vertex 0.000000e+000 0.000000e+000 0.000000e+000
         vertex 1.000000e+001 0.000000e+000 1.000000e+001
         vertex 0.000000e+000 0.000000e+000 1.000000e+001
      endloop
   endfacet
   facet normal -9.986320e-001 5.228807e-002 0.000000e+000
      outer loop
         vertex 8.216461e+000 5.375082e+000 8.914776e+000
         vertex 8.248964e+000 5.788078e+000 1.000000e+001
         vertex 8.248964e+000 5.788078e+000 8.914776e+000
      endloop
   endfacet
   facet normal -9.986320e-001 -5.228807e-002 0.000000e+000
      outer loop
         vertex 8.248964e+000 5.788078e+000 8.914776e+000
         vertex 8.248964e+000 5.788078e+000 1.000000e+001
         vertex 8.216461e+000 6.201076e+000 1.000000e+001
      endloop
   endfacet
   facet normal -9.945168e-001 -1.045761e-001 0.000000e+000
      outer loop
         vertex 8.248964e+000 5.788078e+000 8.914776e+000
         vertex 8.216461e+000 6.201076e+000 1.000000e+001
         vertex 8.216461e+000 6.201076e+000 8.914776e+000
      endloop
   endfacet
   facet normal -9.781576e-001 -2.078648e-001 0.000000e+000
      outer loop
         vertex 8.216461e+000 6.201076e+000 8.914776e+000
         vertex 8.216461e+000 6.201076e+000 1.000000e+001
         vertex 8.119751e+000 6.603903e+000 1.000000e+001
      endloop
   endfacet
   facet normal -9.659134e-001 -2.588653e-001 0.000000e+000
      outer loop
         vertex 8.216461e+000 6.201076e+000 8.914776e+000
         vertex 8.119751e+000 6.603903e+000 1.000000e+001
         vertex 8.119751e+000 6.603903e+000 8.914776e+000
      endloop
   endfacet
   facet normal -9.335976e-001 -3.583232e-001 0.000000e+000
      outer loop
         vertex 8.119751e+000 6.603903e+000 8.914776e+000
         vertex 8.119751e+000 6.603903e+000 1.000000e+001
         vertex 7.961215e+000 6.986642e+000 1.000000e+001
      endloop
   endfacet
   facet normal -9.135259e-001 -4.067805e-001 0.000000e+000
      outer loop
         vertex 8.119751e+000 6.603903e+000 8.914776e+000
         vertex 7.961215e+000 6.986642e+000 1.000000e+001
         vertex 7.961215e+000 6.986642e+000 8.914776e+000
      endloop
   endfacet
   facet normal -8.660494e-001 -4.999584e-001 0.000000e+000
      outer loop
         vertex 7.961215e+000 6.986642e+000 8.914776e+000
         vertex 7.961215e+000 6.986642e+000 1.000000e+001
         vertex 7.744758e+000 7.339868e+000 1.000000e+001
      endloop
   endfacet
   facet normal -8.386444e-001 -5.446792e-001 0.000000e+000
      outer loop
         vertex 7.961215e+000 6.986642e+000 8.914776e+000
         vertex 7.744758e+000 7.339868e+000 1.000000e+001
         vertex 7.744758e+000 7.339868e+000 8.914776e+000
      endloop
   endfacet
   facet normal -7.771761e-001 -6.292831e-001 0.000000e+000
      outer loop
         vertex 7.744758e+000 7.339868e+000 8.914776e+000
         vertex 7.744758e+000 7.339868e+000 1.000000e+001
         vertex 7.475708e+000 7.654884e+000 1.000000e+001
      endloop
   endfacet
   facet normal -7.431127e-001 -6.691663e-001 0.000000e+000
      outer loop
         vertex 7.744758e+000 7.339868e+000 8.914776e+000
         vertex 7.475708e+000 7.654884e+000 1.000000e+001
         vertex 7.475708e+000 7.654884e+000 8.914776e+000
      endloop
   endfacet
   facet normal -6.691663e-001 -7.431127e-001 0.000000e+000
      outer loop
         vertex 7.475708e+000 7.654884e+000 8.914776e+000
         vertex 7.475708e+000 7.654884e+000 1.000000e+001
         vertex 7.160692e+000 7.923934e+000 1.000000e+001
      endloop
   endfacet
   facet normal -6.292831e-001 -7.771761e-001 0.000000e+000
      outer loop
         vertex 7.475708e+000 7.654884e+000 8.914776e+000
         vertex 7.160692e+000 7.923934e+000 1.000000e+001
         vertex 7.160692e+000 7.923934e+000 8.914776e+000
      endloop
   endfacet
   facet normal -5.446792e-001 -8.386444e-001 0.000000e+000
      outer loop
         vertex 7.160692e+000 7.923934e+000 8.914776e+000
         vertex 7.160692e+000 7.923934e+000 1.000000e+001
         vertex 6.807466e+000 8.140390e+000 1.000000e+001
      endloop
   endfacet
   facet normal -4.999584e-001 -8.660494e-001 0.000000e+000
      outer loop
         vertex 7.160692e+000 7.923934e+000 8.914776e+000
         vertex 6.807466e+000 8.140390e+000 1.000000e+001
         vertex 6.807466e+000 8.140390e+000 8.914776e+000
      endloop
   endfacet
   facet normal -4.067805e-001 -9.135259e-001 0.000000e+000
      outer loop
         vertex 6.807466e+000 8.140390e+000 8.914776e+000
         vertex 6.807466e+000 8.140390e+000 1.000000e+001
         vertex 6.424726e+000 8.298926e+000 1.000000e+001
      endloop
   endfacet
   facet normal -3.583232e-001 -9.335976e-001 0.000000e+000
      outer loop
         vertex 6.807466e+000 8.140390e+000 8.914776e+000
         vertex 6.424726e+000 8.298926e+000 1.000000e+001
         vertex 6.424726e+000 8.298926e+000 8.914776e+000
      endloop
   endfacet
   facet normal -2.588653e-001 -9.659134e-001 0.000000e+000
      outer loop
         vertex 6.424726e+000 8.298926e+000 8.914776e+000
         vertex 6.424726e+000 8.298926e+000 1.000000e+001
         vertex 6.021899e+000 8.395637e+000 1.000000e+001
      endloop
   endfacet
   facet normal -2.078648e-001 -9.781575e-001 0.000000e+000
      outer loop
         vertex 6.424726e+000 8.298926e+000 8.914776e+000
         vertex 6.021899e+000 8.395637e+000 1.000000e+001
         vertex 6.021899e+000 8.395637e+000 8.914776e+000
      endloop
   endfacet
   facet normal -1.045761e-001 -9.945168e-001 0.000000e+000
      outer loop
         vertex 6.021899e+000 8.395637e+000 8.914776e+000
         vertex 6.021899e+000 8.395637e+000 1.000000e+001
         vertex 5.608903e+000 8.428141e+000 1.000000e+001
      endloop
   endfacet
   facet normal -5.228807e-002 -9.986320e-001 0.000000e+000
      outer loop
         vertex 6.021899e+000 8.395637e+000 8.914776e+000
         vertex 5.608903e+000 8.428141e+000 1.000000e+001
         vertex 5.608903e+000 8.428141e+000 8.914776e+000
      endloop
   endfacet
   facet normal 5.228807e-002 -9.986320e-001 0.000000e+000
      outer loop
         vertex 5.608903e+000 8.428141e+000 8.914776e+000
         vertex 5.608903e+000 8.428141e+000 1.000000e+001
         vertex 5.195906e+000 8.395637e+000 1.000000e+001
      endloop
   endfacet
   facet normal 1.045761e-001 -9.945168e-001 0.000000e+000
      outer loop
         vertex 5.608903e+000 8.428141e+000 8.914776e+000
         vertex 5.195906e+000 8.395637e+000 1.000000e+001
         vertex 5.195906e+000 8.395637e+000 8.914776e+000
      endloop
   endfacet
   facet normal 2.078648e-001 -9.781576e-001 0.000000e+000
      outer loop
         vertex 5.195906e+000 8.395637e+000 8.914776e+000
         vertex 5.195906e+000 8.395637e+000 1.000000e+001
         vertex 4.793079e+000 8.298926e+000 1.000000e+001
      endloop
   endfacet
   facet normal 2.588653e-001 -9.659134e-001 0.000000e+000
      outer loop
         vertex 5.195906e+000 8.395637e+000 8.914776e+000
         vertex 4.793079e+000 8.298926e+000 1.000000e+001
         vertex 4.793079e+000 8.298926e+000 8.914776e+000
      endloop
   endfacet
   facet normal 3.583232e-001 -9.335976e-001 0.000000e+000
      outer loop
         vertex 4.793079e+000 8.298926e+000 8.914776e+000
         vertex 4.793079e+000 8.298926e+000 1.000000e+001
         vertex 4.410340e+000 8.140390e+000 1.000000e+001
      endloop
   endfacet
   facet normal 4.067805e-001 -9.135259e-001 0.000000e+000
      outer loop
         vertex 4.793079e+000 8.298926e+000 8.914776e+000
         vertex 4.410340e+000 8.140390e+000 1.000000e+001
         vertex 4.410340e+000 8.140390e+000 8.914776e+000
      endloop
   endfacet
   facet normal 4.999584e-001 -8.660494e-001 0.000000e+000
      outer loop
         vertex 4.410340e+000 8.140390e+000 8.914776e+000
         vertex 4.410340e+000 8.140390e+000 1.000000e+001
         vertex 4.057114e+000 7.923934e+000 1.000000e+001
      endloop
   endfacet
   facet normal 5.446792e-001 -8.386444e-001 0.000000e+000
      outer loop
         vertex 4.410340e+000 8.140390e+000 8.914776e+000
         vertex 4.057114e+000 7.923934e+000 1.000000e+001
         vertex 4.057114e+000 7.923934e+000 8.914776e+000
      endloop
   endfacet
   facet normal 6.292831e-001 -7.771761e-001 0.000000e+000
      outer loop
         vertex 4.057114e+000 7.923934e+000 8.914776e+000
         vertex 4.057114e+000 7.923934e+000 1.000000e+001
         vertex 3.742097e+000 7.654884e+000 1.000000e+001
      endloop
   endfacet
   facet normal 6.691663e-001 -7.431127e-001 0.000000e+000
      outer loop
         vertex 4.057114e+000 7.923934e+000 8.914776e+000
         vertex 3.742097e+000 7.654884e+000 1.000000e+001
         vertex 3.742097e+000 7.654884e+000 8.914776e+000
      endloop
   endfacet
   facet normal 7.431127e-001 -6.691663e-001 0.000000e+000
      outer loop
         vertex 3.742097e+000 7.654884e+000 8.914776e+000
         vertex 3.742097e+000 7.654884e+000 1.000000e+001
         vertex 3.473048e+000 7.339868e+000 1.000000e+001
      endloop
   endfacet
   facet normal 7.771761e-001 -6.292831e-001 0.000000e+000
      outer loop
         vertex 3.742097e+000 7.654884e+000 8.914776e+000
         vertex 3.473048e+000 7.339868e+000 1.000000e+001
         vertex 3.473048e+000 7.339868e+000 8.914776e+000
      endloop
   endfacet
   facet normal 8.386444e-001 -5.446792e-001 0.000000e+000
      outer loop
         vertex 3.473048e+000 7.339868e+000 8.914776e+000
         vertex 3.473048e+000 7.339868e+000 1.000000e+001
         vertex 3.256591e+000 6.986642e+000 1.000000e+001
      endloop
   endfacet
   facet normal 8.660494e-001 -4.999584e-001 0.000000e+000
      outer loop
         vertex 3.473048e+000 7.339868e+000 8.914776e+000
         vertex 3.256591e+000 6.986642e+000 1.000000e+001
         vertex 3.256591e+000 6.986642e+000 8.914776e+000
      endloop
   endfacet
   facet normal 9.135259e-001 -4.067805e-001 0.000000e+000
      outer loop
         vertex 3.256591e+000 6.986642e+000 8.914776e+000
         vertex 3.256591e+000 6.986642e+000 1.000000e+001
         vertex 3.098055e+000 6.603903e+000 1.000000e+001
      endloop
   endfacet
   facet normal 9.335976e-001 -3.583232e-001 0.000000e+000
      outer loop
         vertex 3.256591e+000 6.986642e+000 8.914776e+000
         vertex 3.098055e+000 6.603903e+000 1.000000e+001
         vertex 3.098055e+000 6.603903e+000 8.914776e+000
      endloop
   endfacet
   facet normal 9.659134e-001 -2.588653e-001 0.000000e+000
      outer loop
         vertex 3.098055e+000 6.603903e+000 8.914776e+000
         vertex 3.098055e+000 6.603903e+000 1.000000e+001
         vertex 3.001345e+000 6.201076e+000 1.000000e+001
      endloop
   endfacet
   facet normal 9.781575e-001 -2.078648e-001 0.000000e+000
      outer loop
         vertex 3.098055e+000 6.603903e+000 8.914776e+000
         vertex 3.001345e+000 6.201076e+000 1.000000e+001
         vertex 3.001345e+000 6.201076e+000 8.914776e+000
      endloop
   endfacet
   facet normal 9.945168e-001 -1.045761e-001 0.000000e+000
      outer loop
         vertex 3.001345e+000 6.201076e+000 8.914776e+000
         vertex 3.001345e+000 6.201076e+000 1.000000e+001
         vertex 2.968841e+000 5.788078e+000 1.000000e+001
      endloop
   endfacet
   facet normal 9.986320e-001 -5.228807e-002 0.000000e+000
      outer loop
         vertex 3.001345e+000 6.201076e+000 8.914776e+000
         vertex 2.968841e+000 5.788078e+000 1.000000e+001
         vertex 2.968841e+000 5.788078e+000 8.914776e+000
      endloop
   endfacet
   facet normal 9.986320e-001 5.228807e-002 0.000000e+000
      outer loop
         vertex 2.968841e+000 5.788078e+000 8.914776e+000
         vertex 2.968841e+000 5.788078e+000 1.000000e+001
         vertex 3.001345e+000 5.375082e+000 1.000000e+001
      endloop
   endfacet
   facet normal 9.945168e-001 1.045761e-001 0.000000e+000
      outer loop
         vertex 2.968841e+000 5.788078e+000 8.914776e+000
         vertex 3.001345e+000 5.375082e+000 1.000000e+001
         vertex 3.001345e+000 5.375082e+000 8.914776e+000
      endloop
   endfacet
   facet normal 9.781576e-001 2.078648e-001 0.000000e+000
      outer loop
         vertex 3.001345e+000 5.375082e+000 8.914776e+000
         vertex 3.001345e+000 5.375082e+000 1.000000e+001
         vertex 3.098055e+000 4.972255e+000 1.000000e+001
      endloop
   endfacet
   facet normal 9.659134e-001 2.588653e-001 0.000000e+000
      outer loop
         vertex 3.001345e+000 5.375082e+000 8.914776e+000
         vertex 3.098055e+000 4.972255e+000 1.000000e+001
         vertex 3.098055e+000 4.972255e+000 8.914776e+000
      endloop
   endfacet
   facet normal 9.335976e-001 3.583232e-001 0.000000e+000
      outer loop
         vertex 3.098055e+000 4.972255e+000 8.914776e+000
         vertex 3.098055e+000 4.972255e+000 1.000000e+001
         vertex 3.256591e+000 4.589516e+000 1.000000e+001
      endloop
   endfacet
   facet normal 9.135259e-001 4.067805e-001 0.000000e+000
      outer loop
         vertex 3.098055e+000 4.972255e+000 8.914776e+000
         vertex 3.256591e+000 4.589516e+000 1.000000e+001
         vertex 3.256591e+000 4.589516e+000 8.914776e+000
      endloop
   endfacet
   facet normal 8.660494e-001 4.999584e-001 0.000000e+000
      outer loop
         vertex 3.256591e+000 4.589516e+000 8.914776e+000
         vertex 3.256591e+000 4.589516e+000 1.000000e+001
         vertex 3.473048e+000 4.236290e+000 1.000000e+001
      endloop
   endfacet
   facet normal 8.386444e-001 5.446792e-001 0.000000e+000
      outer loop
         vertex 3.256591e+000 4.589516e+000 8.914776e+000
         vertex 3.473048e+000 4.236290e+000 1.000000e+001
         vertex 3.473048e+000 4.236290e+000 8.914776e+000
      endloop
   endfacet
   facet normal 7.771761e-001 6.292831e-001 0.000000e+000
      outer loop
         vertex 3.473048e+000 4.236290e+000 8.914776e+000
         vertex 3.473048e+000 4.236290e+000 1.000000e+001
         vertex 3.742097e+000 3.921273e+000 1.000000e+001
      endloop
   endfacet
   facet normal 7.431127e-001 6.691663e-001 0.000000e+000
      outer loop
         vertex 3.473048e+000 4.236290e+000 8.914776e+000
         vertex 3.742097e+000 3.921273e+000 1.000000e+001
         vertex 3.742097e+000 3.921273e+000 8.914776e+000
      endloop
   endfacet
   facet normal 6.691663e-001 7.431127e-001 0.000000e+000
      outer loop
         vertex 3.742097e+000 3.921273e+000 8.914776e+000
         vertex 3.742097e+000 3.921273e+000 1.000000e+001
         vertex 4.057114e+000 3.652224e+000 1.000000e+001
      endloop
   endfacet
   facet normal 6.292831e-001 7.771761e-001 0.000000e+000
      outer loop
         vertex 3.742097e+000 3.921273e+000 8.914776e+000
         vertex 4.057114e+000 3.652224e+000 1.000000e+001
         vertex 4.057114e+000 3.652224e+000 8.914776e+000
      endloop
   endfacet
   facet normal 5.446792e-001 8.386444e-001 0.000000e+000
      outer loop
         vertex 4.057114e+000 3.652224e+000 8.914776e+000
         vertex 4.057114e+000 3.652224e+000 1.000000e+001
         vertex 4.410340e+000 3.435767e+000 1.000000e+001
      endloop
   endfacet
   facet normal 4.999584e-001 8.660494e-001 0.000000e+000
      outer loop
         vertex 4.057114e+000 3.652224e+000 8.914776e+000
         vertex 4.410340e+000 3.435767e+000 1.000000e+001
         vertex 4.410340e+000 3.435767e+000 8.914776e+000
      endloop
   endfacet
   facet normal 4.067805e-001 9.135259e-001 0.000000e+000
      outer loop
         vertex 4.410340e+000 3.435767e+000 8.914776e+000
         vertex 4.410340e+000 3.435767e+000 1.000000e+001
         vertex 4.793079e+000 3.277231e+000 1.000000e+001
      endloop
   endfacet
   facet normal 3.583232e-001 9.335976e-001 0.000000e+000
      outer loop
         vertex 4.410340e+000 3.435767e+000 8.914776e+000
         vertex 4.793079e+000 3.277231e+000 1.000000e+001
         vertex 4.793079e+000 3.277231e+000 8.914776e+000
      endloop
   endfacet
   facet normal 2.588653e-001 9.659134e-001 0.000000e+000
      outer loop
         vertex 4.793079e+000 3.277231e+000 8.914776e+000
         vertex 4.793079e+000 3.277231e+000 1.000000e+001
         vertex 5.195906e+000 3.180521e+000 1.000000e+001
      endloop
   endfacet
   facet normal 2.078648e-001 9.781575e-001 0.000000e+000
      outer loop
         vertex 4.793079e+000 3.277231e+000 8.914776e+000
         vertex 5.195906e+000 3.180521e+000 1.000000e+001
         vertex 5.195906e+000 3.180521e+000 8.914776e+000
      endloop
   endfacet
   facet normal 1.045761e-001 9.945168e-001 0.000000e+000
      outer loop
         vertex 5.195906e+000 3.180521e+000 8.914776e+000
         vertex 5.195906e+000 3.180521e+000 1.000000e+001
         vertex 5.608903e+000 3.148017e+000 1.000000e+001
      endloop
   endfacet
   facet normal 5.228807e-002 9.986320e-001 0.000000e+000
      outer loop
         vertex 5.195906e+000 3.180521e+000 8.914776e+000
         vertex 5.608903e+000 3.148017e+000 1.000000e+001
         vertex 5.608903e+000 3.148017e+000 8.914776e+000
      endloop
   endfacet
   facet normal -5.228807e-002 9.986320e-001 0.000000e+000
      outer loop
         vertex 5.608903e+000 3.148017e+000 8.914776e+000
         vertex 5.608903e+000 3.148017e+000 1.000000e+001
         vertex 6.021899e+000 3.180521e+000 1.000000e+001
      endloop
   endfacet
   facet normal -1.045761e-001 9.945168e-001 0.000000e+000
      outer loop
         vertex 5.608903e+000 3.148017e+000 8.914776e+000
         vertex 6.021899e+000 3.180521e+000 1.000000e+001
         vertex 6.021899e+000 3.180521e+000 8.914776e+000
      endloop
   endfacet
   facet normal -2.078648e-001 9.781576e-001 0.000000e+000
      outer loop
         vertex 6.021899e+000 3.180521e+000 8.914776e+000
         vertex 6.021899e+000 3.180521e+000 1.000000e+001
         vertex 6.424726e+000 3.277231e+000 1.000000e+001
      endloop
   endfacet
   facet normal -2.588653e-001 9.659134e-001 0.000000e+000
      outer loop
         vertex 6.021899e+000 3.180521e+000 8.914776e+000
         vertex 6.424726e+000 3.277231e+000 1.000000e+001
         vertex 6.424726e+000 3.277231e+000 8.914776e+000
      endloop
   endfacet
   facet normal -3.583232e-001 9.335976e-001 0.000000e+000
      outer loop
         vertex 6.424726e+000 3.277231e+000 8.914776e+000
         vertex 6.424726e+000 3.277231e+000 1.000000e+001
         vertex 6.807466e+000 3.435767e+000 1.000000e+001
      endloop
   endfacet
   facet normal -4.067805e-001 9.135259e-001 0.000000e+000
      outer loop
         vertex 6.424726e+000 3.277231e+000 8.914776e+000
         vertex 6.807466e+000 3.435767e+000 1.000000e+001
         vertex 6.807466e+000 3.435767e+000 8.914776e+000
      endloop
   endfacet
   facet normal -4.999584e-001 8.660494e-001 0.000000e+000
      outer loop
         vertex 6.807466e+000 3.435767e+000 8.914776e+000
         vertex 6.807466e+000 3.435767e+000 1.000000e+001
         vertex 7.160692e+000 3.652224e+000 1.000000e+001
      endloop
   endfacet
   facet normal -5.446792e-001 8.386444e-001 0.000000e+000
      outer loop
         vertex 6.807466e+000 3.435767e+000 8.914776e+000
         vertex 7.160692e+000 3.652224e+000 1.000000e+001
         vertex 7.160692e+000 3.652224e+000 8.914776e+000
      endloop
   endfacet
   facet normal -6.292831e-001 7.771761e-001 0.000000e+000
      outer loop
         vertex 7.160692e+000 3.652224e+000 8.914776e+000
         vertex 7.160692e+000 3.652224e+000 1.000000e+001
         vertex 7.475708e+000 3.921273e+000 1.000000e+001
      endloop
   endfacet
   facet normal -6.691663e-001 7.431127e-001 0.000000e+000
      outer loop
         vertex 7.160692e+000 3.652224e+000 8.914776e+000
         vertex 7.475708e+000 3.921273e+000 1.000000e+001
         vertex 7.475708e+000 3.921273e+000 8.914776e+000
      endloop
   endfacet
   facet normal -7.431127e-001 6.691663e-001 0.000000e+000
      outer loop
         vertex 7.475708e+000 3.921273e+000 8.914776e+000
         vertex 7.475708e+000 3.921273e+000 1.000000e+001
         vertex 7.744758e+000 4.236290e+000 1.000000e+001
      endloop
   endfacet
   facet normal -7.771761e-001 6.292831e-001 0.000000e+000
      outer loop
         vertex 7.475708e+000 3.921273e+000 8.914776e+000
         vertex 7.744758e+000 4.236290e+000 1.000000e+001
         vertex 7.744758e+000 4.236290e+000 8.914776e+000
      endloop
   endfacet
   facet normal -8.386444e-001 5.446792e-001 0.000000e+000
      outer loop
         vertex 7.744758e+000 4.236290e+000 8.914776e+000
         vertex 7.744758e+000 4.236290e+000 1.000000e+001
         vertex 7.961215e+000 4.589516e+000 1.000000e+001
      endloop
   endfacet
   facet normal -8.660494e-001 4.999584e-001 0.000000e+000
      outer loop
         vertex 7.744758e+000 4.236290e+000 8.914776e+000
         vertex 7.961215e+000 4.589516e+000 1.000000e+001
         vertex 7.961215e+000 4.589516e+000 8.914776e+000
      endloop
   endfacet
   facet normal -9.135259e-001 4.067805e-001 0.000000e+000
      outer loop
         vertex 7.961215e+000 4.589516e+000 8.914776e+000
         vertex 7.961215e+000 4.589516e+000 1.000000e+001
         vertex 8.119751e+000 4.972255e+000 1.000000e+001
      endloop
   endfacet
   facet normal -9.335976e-001 3.583232e-001 0.000000e+000
      outer loop
         vertex 7.961215e+000 4.589516e+000 8.914776e+000
         vertex 8.119751e+000 4.972255e+000 1.000000e+001
         vertex 8.119751e+000 4.972255e+000 8.914776e+000
      endloop
   endfacet
   facet normal -9.659134e-001 2.588653e-001 0.000000e+000
      outer loop
         vertex 8.119751e+000 4.972255e+000 8.914776e+000
         vertex 8.119751e+000 4.972255e+000 1.000000e+001
         vertex 8.216461e+000 5.375082e+000 1.000000e+001
      endloop
   endfacet
   facet normal -9.781575e-001 2.078648e-001 0.000000e+000
      outer loop
         vertex 8.119751e+000 4.972255e+000 8.914776e+000
         vertex 8.216461e+000 5.375082e+000 1.000000e+001
         vertex 8.216461e+000 5.375082e+000 8.914776e+000
      endloop
   endfacet
   facet normal -9.945168e-001 1.045761e-001 0.000000e+000
      outer loop
         vertex 8.216461e+000 5.375082e+000 8.914776e+000
         vertex 8.216461e+000 5.375082e+000 1.000000e+001
         vertex 8.248964e+000 5.788078e+000 1.000000e+001
      endloop
   endfacet
   facet normal 0.000000e+000 0.000000e+000 1.000000e+000
      outer loop
         vertex 4.403148e+000 4.776330e+000 8.914776e+000
         vertex 3.742097e+000 3.921273e+000 8.914776e+000
         vertex 4.597155e+000 4.582325e+000 8.914776e+000
      endloop
   endfacet
   facet normal 0.000000e+000 0.000000e+000 1.000000e+000
      outer loop
         vertex 4.597155e+000 4.582325e+000 8.914776e+000
         vertex 3.742097e+000 3.921273e+000 8.914776e+000
         vertex 4.057114e+000 3.652224e+000 8.914776e+000
      endloop
   endfacet
   facet normal 0.000000e+000 0.000000e+000 1.000000e+000
      outer loop
         vertex 4.597155e+000 4.582325e+000 8.914776e+000
         vertex 4.057114e+000 3.652224e+000 8.914776e+000
         vertex 4.821903e+000 4.424954e+000 8.914776e+000
      endloop
   endfacet
   facet normal 0.000000e+000 0.000000e+000 1.000000e+000
      outer loop
         vertex 4.821903e+000 4.424954e+000 8.914776e+000
         vertex 4.057114e+000 3.652224e+000 8.914776e+000
         vertex 4.410340e+000 3.435767e+000 8.914776e+000
      endloop
   endfacet
   facet normal 0.000000e+000 0.000000e+000 1.000000e+000
      outer loop
         vertex 4.821903e+000 4.424954e+000 8.914776e+000
         vertex 4.410340e+000 3.435767e+000 8.914776e+000
         vertex 5.070563e+000 4.309002e+000 8.914776e+000
      endloop
   endfacet
   facet normal 0.000000e+000 0.000000e+000 1.000000e+000
      outer loop
         vertex 5.070563e+000 4.309002e+000 8.914776e+000
         vertex 4.410340e+000 3.435767e+000 8.914776e+000
         vertex 4.793079e+000 3.277231e+000 8.914776e+000
      endloop
   endfacet
   facet normal 0.000000e+000 0.000000e+000 1.000000e+000
      outer loop
         vertex 5.070563e+000 4.309002e+000 8.914776e+000
         vertex 4.793079e+000 3.277231e+000 8.914776e+000
         vertex 5.335580e+000 4.237991e+000 8.914776e+000
      endloop
   endfacet
   facet normal 0.000000e+000 0.000000e+000 1.000000e+000
      outer loop
         vertex 5.335580e+000 4.237991e+000 8.914776e+000
         vertex 4.793079e+000 3.277231e+000 8.914776e+000
         vertex 5.195906e+000 3.180521e+000 8.914776e+000
      endloop
   endfacet
   facet normal 0.000000e+000 0.000000e+000 1.000000e+000
      outer loop
         vertex 5.335580e+000 4.237991e+000 8.914776e+000
         vertex 5.195906e+000 3.180521e+000 8.914776e+000
         vertex 5.608903e+000 4.214078e+000 8.914776e+000
      endloop
   endfacet
   facet normal 0.000000e+000 0.000000e+000 1.000000e+000
      outer loop
         vertex 5.608903e+000 4.214078e+000 8.914776e+000
         vertex 5.195906e+000 3.180521e+000 8.914776e+000
         vertex 5.608903e+000 3.148017e+000 8.914776e+000
      endloop
   endfacet
   facet normal 0.000000e+000 0.000000e+000 1.000000e+000
      outer loop
         vertex 5.608903e+000 4.214078e+000 8.914776e+000
         vertex 5.608903e+000 3.148017e+000 8.914776e+000
         vertex 5.882225e+000 4.237991e+000 8.914776e+000
      endloop
   endfacet
   facet normal 0.000000e+000 0.000000e+000 1.000000e+000
      outer loop
         vertex 5.882225e+000 4.237991e+000 8.914776e+000
         vertex 5.608903e+000 3.148017e+000 8.914776e+000
         vertex 6.021899e+000 3.180521e+000 8.914776e+000
      endloop
   endfacet
   facet normal 0.000000e+000 0.000000e+000 1.000000e+000
      outer loop
         vertex 5.882225e+000 4.237991e+000 8.914776e+000
         vertex 6.021899e+000 3.180521e+000 8.914776e+000
         vertex 6.147243e+000 4.309002e+000 8.914776e+000
      endloop
   endfacet
   facet normal 0.000000e+000 0.000000e+000 1.000000e+000
      outer loop
         vertex 6.147243e+000 4.309002e+000 8.914776e+000
         vertex 6.021899e+000 3.180521e+000 8.914776e+000
         vertex 6.424726e+000 3.277231e+000 8.914776e+000
      endloop
   endfacet
   facet normal 0.000000e+000 0.000000e+000 1.000000e+000
      outer loop
         vertex 6.147243e+000 4.309002e+000 8.914776e+000
         vertex 6.424726e+000 3.277231e+000 8.914776e+000
         vertex 6.395903e+000 4.424954e+000 8.914776e+000
      endloop
   endfacet
   facet normal 0.000000e+000 0.000000e+000 1.000000e+000
      outer loop
         vertex 6.395903e+000 4.424954e+000 8.914776e+000
         vertex 6.424726e+000 3.277231e+000 8.914776e+000
         vertex 6.807466e+000 3.435767e+000 8.914776e+000
      endloop
   endfacet
   facet normal 0.000000e+000 0.000000e+000 1.000000e+000
      outer loop
         vertex 6.395903e+000 4.424954e+000 8.914776e+000
         vertex 6.807466e+000 3.435767e+000 8.914776e+000
         vertex 6.620651e+000 4.582325e+000 8.914776e+000
      endloop
   endfacet
   facet normal 0.000000e+000 0.000000e+000 1.000000e+000
      outer loop
         vertex 4.597155e+000 6.993833e+000 8.914776e+000
         vertex 3.742097e+000 7.654884e+000 8.914776e+000
         vertex 4.403148e+000 6.799827e+000 8.914776e+000
      endloop
   endfacet
   facet normal 0.000000e+000 0.000000e+000 1.000000e+000
      outer loop
         vertex 4.403148e+000 6.799827e+000 8.914776e+000
         vertex 3.742097e+000 7.654884e+000 8.914776e+000
         vertex 3.473048e+000 7.339868e+000 8.914776e+000
      endloop
   endfacet
   facet normal 0.000000e+000 0.000000e+000 1.000000e+000
      outer loop
         vertex 4.403148e+000 6.799827e+000 8.914776e+000
         vertex 3.473048e+000 7.339868e+000 8.914776e+000
         vertex 4.245778e+000 6.575079e+000 8.914776e+000
      endloop
   endfacet
   facet normal 0.000000e+000 0.000000e+000 1.000000e+000
      outer loop
         vertex 4.245778e+000 6.575079e+000 8.914776e+000
         vertex 3.473048e+000 7.339868e+000 8.914776e+000
         vertex 3.256591e+000 6.986642e+000 8.914776e+000
      endloop
   endfacet
   facet normal 0.000000e+000 0.000000e+000 1.000000e+000
      outer loop
         vertex 4.245778e+000 6.575079e+000 8.914776e+000
         vertex 3.256591e+000 6.986642e+000 8.914776e+000
         vertex 4.129826e+000 6.326419e+000 8.914776e+000
      endloop
   endfacet
   facet normal 0.000000e+000 0.000000e+000 1.000000e+000
      outer loop
         vertex 4.129826e+000 6.326419e+000 8.914776e+000
         vertex 3.256591e+000 6.986642e+000 8.914776e+000
         vertex 3.098055e+000 6.603903e+000 8.914776e+000
      endloop
   endfacet
   facet normal 0.000000e+000 0.000000e+000 1.000000e+000
      outer loop
         vertex 4.129826e+000 6.326419e+000 8.914776e+000
         vertex 3.098055e+000 6.603903e+000 8.914776e+000
         vertex 4.058815e+000 6.061401e+000 8.914776e+000
      endloop
   endfacet
   facet normal 0.000000e+000 0.000000e+000 1.000000e+000
      outer loop
         vertex 4.058815e+000 6.061401e+000 8.914776e+000
         vertex 3.098055e+000 6.603903e+000 8.914776e+000
         vertex 3.001345e+000 6.201076e+000 8.914776e+000
      endloop
   endfacet
   facet normal 0.000000e+000 0.000000e+000 1.000000e+000
      outer loop
         vertex 4.058815e+000 6.061401e+000 8.914776e+000
         vertex 3.001345e+000 6.201076e+000 8.914776e+000
         vertex 4.034903e+000 5.788078e+000 8.914776e+000
      endloop
   endfacet
   facet normal 0.000000e+000 0.000000e+000 1.000000e+000
      outer loop
         vertex 4.034903e+000 5.788078e+000 8.914776e+000
         vertex 3.001345e+000 6.201076e+000 8.914776e+000
         vertex 2.968841e+000 5.788078e+000 8.914776e+000
      endloop
   endfacet
   facet normal 0.000000e+000 0.000000e+000 1.000000e+000
      outer loop
         vertex 4.034903e+000 5.788078e+000 8.914776e+000
         vertex 2.968841e+000 5.788078e+000 8.914776e+000
         vertex 4.058815e+000 5.514756e+000 8.914776e+000
      endloop
   endfacet
   facet normal 0.000000e+000 0.000000e+000 1.000000e+000
      outer loop
         vertex 4.058815e+000 5.514756e+000 8.914776e+000
         vertex 2.968841e+000 5.788078e+000 8.914776e+000
         vertex 3.001345e+000 5.375082e+000 8.914776e+000
      endloop
   endfacet
   facet normal 0.000000e+000 0.000000e+000 1.000000e+000
      outer loop
         vertex 4.058815e+000 5.514756e+000 8.914776e+000
         vertex 3.001345e+000 5.375082e+000 8.914776e+000
         vertex 4.129826e+000 5.249739e+000 8.914776e+000
      endloop
   endfacet
   facet normal 0.000000e+000 0.000000e+000 1.000000e+000
      outer loop
         vertex 4.129826e+000 5.249739e+000 8.914776e+000
         vertex 3.001345e+000 5.375082e+000 8.914776e+000
         vertex 3.098055e+000 4.972255e+000 8.914776e+000
      endloop
   endfacet
   facet normal 0.000000e+000 0.000000e+000 1.000000e+000
      outer loop
         vertex 4.129826e+000 5.249739e+000 8.914776e+000
         vertex 3.098055e+000 4.972255e+000 8.914776e+000
         vertex 4.245778e+000 5.001078e+000 8.914776e+000
      endloop
   endfacet
   facet normal 0.000000e+000 0.000000e+000 1.000000e+000
      outer loop
         vertex 4.245778e+000 5.001078e+000 8.914776e+000
         vertex 3.098055e+000 4.972255e+000 8.914776e+000
         vertex 3.256591e+000 4.589516e+000 8.914776e+000
      endloop
   endfacet
   facet normal 0.000000e+000 0.000000e+000 1.000000e+000
      outer loop
         vertex 4.245778e+000 5.001078e+000 8.914776e+000
         vertex 3.256591e+000 4.589516e+000 8.914776e+000
         vertex 4.403148e+000 4.776330e+000 8.914776e+000
      endloop
   endfacet
   facet normal 0.000000e+000 0.000000e+000 1.000000e+000
      outer loop
         vertex 4.403148e+000 4.776330e+000 8.914776e+000
         vertex 3.256591e+000 4.589516e+000 8.914776e+000
         vertex 3.473048e+000 4.236290e+000 8.914776e+000
      endloop
   endfacet
   facet normal 0.000000e+000 0.000000e+000 1.000000e+000
      outer loop
         vertex 4.403148e+000 4.776330e+000 8.914776e+000
         vertex 3.473048e+000 4.236290e+000 8.914776e+000
         vertex 3.742097e+000 3.921273e+000 8.914776e+000
      endloop
   endfacet
   facet normal 0.000000e+000 0.000000e+000 1.000000e+000
      outer loop
         vertex 6.814657e+000 6.799827e+000 8.914776e+000
         vertex 7.475708e+000 7.654884e+000 8.914776e+000
         vertex 6.620651e+000 6.993833e+000 8.914776e+000
      endloop
   endfacet
   facet normal 0.000000e+000 0.000000e+000 1.000000e+000
      outer loop
         vertex 6.620651e+000 6.993833e+000 8.914776e+000
         vertex 7.475708e+000 7.654884e+000 8.914776e+000
         vertex 7.160692e+000 7.923934e+000 8.914776e+000
      endloop
   endfacet
   facet normal 0.000000e+000 0.000000e+000 1.000000e+000
      outer loop
         vertex 6.620651e+000 6.993833e+000 8.914776e+000
         vertex 7.160692e+000 7.923934e+000 8.914776e+000
         vertex 6.395903e+000 7.151203e+000 8.914776e+000
      endloop
   endfacet
   facet normal 0.000000e+000 0.000000e+000 1.000000e+000
      outer loop
         vertex 6.395903e+000 7.151203e+000 8.914776e+000
         vertex 7.160692e+000 7.923934e+000 8.914776e+000
         vertex 6.807466e+000 8.140390e+000 8.914776e+000
      endloop
   endfacet
   facet normal 0.000000e+000 0.000000e+000 1.000000e+000
      outer loop
         vertex 6.395903e+000 7.151203e+000 8.914776e+000
         vertex 6.807466e+000 8.140390e+000 8.914776e+000
         vertex 6.147243e+000 7.267155e+000 8.914776e+000
      endloop
   endfacet
   facet normal 0.000000e+000 0.000000e+000 1.000000e+000
      outer loop
         vertex 6.147243e+000 7.267155e+000 8.914776e+000
         vertex 6.807466e+000 8.140390e+000 8.914776e+000
         vertex 6.424726e+000 8.298926e+000 8.914776e+000
      endloop
   endfacet
   facet normal 0.000000e+000 0.000000e+000 1.000000e+000
      outer loop
         vertex 6.147243e+000 7.267155e+000 8.914776e+000
         vertex 6.424726e+000 8.298926e+000 8.914776e+000
         vertex 5.882225e+000 7.338167e+000 8.914776e+000
      endloop
   endfacet
   facet normal 0.000000e+000 0.000000e+000 1.000000e+000
      outer loop
         vertex 5.882225e+000 7.338167e+000 8.914776e+000
         vertex 6.424726e+000 8.298926e+000 8.914776e+000
         vertex 6.021899e+000 8.395637e+000 8.914776e+000
      endloop
   endfacet
   facet normal 0.000000e+000 0.000000e+000 1.000000e+000
      outer loop
         vertex 5.882225e+000 7.338167e+000 8.914776e+000
         vertex 6.021899e+000 8.395637e+000 8.914776e+000
         vertex 5.608903e+000 7.362079e+000 8.914776e+000
      endloop
   endfacet
   facet normal 0.000000e+000 0.000000e+000 1.000000e+000
      outer loop
         vertex 5.608903e+000 7.362079e+000 8.914776e+000
         vertex 6.021899e+000 8.395637e+000 8.914776e+000
         vertex 5.608903e+000 8.428141e+000 8.914776e+000
      endloop
   endfacet
   facet normal 0.000000e+000 0.000000e+000 1.000000e+000
      outer loop
         vertex 5.608903e+000 7.362079e+000 8.914776e+000
         vertex 5.608903e+000 8.428141e+000 8.914776e+000
         vertex 5.335580e+000 7.338167e+000 8.914776e+000
      endloop
   endfacet
   facet normal 0.000000e+000 0.000000e+000 1.000000e+000
      outer loop
         vertex 5.335580e+000 7.338167e+000 8.914776e+000
         vertex 5.608903e+000 8.428141e+000 8.914776e+000
         vertex 5.195906e+000 8.395637e+000 8.914776e+000
      endloop
   endfacet
   facet normal 0.000000e+000 0.000000e+000 1.000000e+000
      outer loop
         vertex 5.335580e+000 7.338167e+000 8.914776e+000
         vertex 5.195906e+000 8.395637e+000 8.914776e+000
         vertex 5.070563e+000 7.267155e+000 8.914776e+000
      endloop
   endfacet
   facet normal 0.000000e+000 0.000000e+000 1.000000e+000
      outer loop
         vertex 5.070563e+000 7.267155e+000 8.914776e+000
         vertex 5.195906e+000 8.395637e+000 8.914776e+000
         vertex 4.793079e+000 8.298926e+000 8.914776e+000
      endloop
   endfacet
   facet normal 0.000000e+000 0.000000e+000 1.000000e+000
      outer loop
         vertex 5.070563e+000 7.267155e+000 8.914776e+000
         vertex 4.793079e+000 8.298926e+000 8.914776e+000
         vertex 4.821903e+000 7.151203e+000 8.914776e+000
      endloop
   endfacet
   facet normal 0.000000e+000 0.000000e+000 1.000000e+000
      outer loop
         vertex 4.821903e+000 7.151203e+000 8.914776e+000
         vertex 4.793079e+000 8.298926e+000 8.914776e+000
         vertex 4.410340e+000 8.140390e+000 8.914776e+000
      endloop
   endfacet
   facet normal 0.000000e+000 0.000000e+000 1.000000e+000
      outer loop
         vertex 4.821903e+000 7.151203e+000 8.914776e+000
         vertex 4.410340e+000 8.140390e+000 8.914776e+000
         vertex 4.597155e+000 6.993833e+000 8.914776e+000
      endloop
   endfacet
   facet normal 0.000000e+000 0.000000e+000 1.000000e+000
      outer loop
         vertex 4.597155e+000 6.993833e+000 8.914776e+000
         vertex 4.410340e+000 8.140390e+000 8.914776e+000
         vertex 4.057114e+000 7.923934e+000 8.914776e+000
      endloop
   endfacet
   facet normal 0.000000e+000 0.000000e+000 1.000000e+000
      outer loop
         vertex 4.597155e+000 6.993833e+000 8.914776e+000
         vertex 4.057114e+000 7.923934e+000 8.914776e+000
         vertex 3.742097e+000 7.654884e+000 8.914776e+000
      endloop
   endfacet
   facet normal 0.000000e+000 0.000000e+000 1.000000e+000
      outer loop
         vertex 6.807466e+000 3.435767e+000 8.914776e+000
         vertex 7.160692e+000 3.652224e+000 8.914776e+000
         vertex 6.620651e+000 4.582325e+000 8.914776e+000
      endloop
   endfacet
   facet normal 0.000000e+000 0.000000e+000 1.000000e+000
      outer loop
         vertex 6.620651e+000 4.582325e+000 8.914776e+000
         vertex 7.160692e+000 3.652224e+000 8.914776e+000
         vertex 7.475708e+000 3.921273e+000 8.914776e+000
      endloop
   endfacet
   facet normal 0.000000e+000 0.000000e+000 1.000000e+000
      outer loop
         vertex 6.620651e+000 4.582325e+000 8.914776e+000
         vertex 7.475708e+000 3.921273e+000 8.914776e+000
         vertex 6.814657e+000 4.776330e+000 8.914776e+000
      endloop
   endfacet
   facet normal 0.000000e+000 0.000000e+000 1.000000e+000
      outer loop
         vertex 6.814657e+000 4.776330e+000 8.914776e+000
         vertex 7.475708e+000 3.921273e+000 8.914776e+000
         vertex 7.744758e+000 4.236290e+000 8.914776e+000
      endloop
   endfacet
   facet normal 0.000000e+000 0.000000e+000 1.000000e+000
      outer loop
         vertex 6.814657e+000 4.776330e+000 8.914776e+000
         vertex 7.744758e+000 4.236290e+000 8.914776e+000
         vertex 6.972027e+000 5.001078e+000 8.914776e+000
      endloop
   endfacet
   facet normal 0.000000e+000 0.000000e+000 1.000000e+000
      outer loop
         vertex 6.972027e+000 5.001078e+000 8.914776e+000
         vertex 7.744758e+000 4.236290e+000 8.914776e+000
         vertex 7.961215e+000 4.589516e+000 8.914776e+000
      endloop
   endfacet
   facet normal 0.000000e+000 0.000000e+000 1.000000e+000
      outer loop
         vertex 6.972027e+000 5.001078e+000 8.914776e+000
         vertex 7.961215e+000 4.589516e+000 8.914776e+000
         vertex 7.087979e+000 5.249739e+000 8.914776e+000
      endloop
   endfacet
   facet normal 0.000000e+000 0.000000e+000 1.000000e+000
      outer loop
         vertex 7.087979e+000 5.249739e+000 8.914776e+000
         vertex 7.961215e+000 4.589516e+000 8.914776e+000
         vertex 8.119751e+000 4.972255e+000 8.914776e+000
      endloop
   endfacet
   facet normal 0.000000e+000 0.000000e+000 1.000000e+000
      outer loop
         vertex 7.087979e+000 5.249739e+000 8.914776e+000
         vertex 8.119751e+000 4.972255e+000 8.914776e+000
         vertex 7.158991e+000 5.514756e+000 8.914776e+000
      endloop
   endfacet
   facet normal 0.000000e+000 0.000000e+000 1.000000e+000
      outer loop
         vertex 7.158991e+000 5.514756e+000 8.914776e+000
         vertex 8.119751e+000 4.972255e+000 8.914776e+000
         vertex 8.216461e+000 5.375082e+000 8.914776e+000
      endloop
   endfacet
   facet normal 0.000000e+000 0.000000e+000 1.000000e+000
      outer loop
         vertex 7.158991e+000 5.514756e+000 8.914776e+000
         vertex 8.216461e+000 5.375082e+000 8.914776e+000
         vertex 7.182903e+000 5.788078e+000 8.914776e+000
      endloop
   endfacet
   facet normal 0.000000e+000 0.000000e+000 1.000000e+000
      outer loop
         vertex 7.182903e+000 5.788078e+000 8.914776e+000
         vertex 8.216461e+000 5.375082e+000 8.914776e+000
         vertex 8.248964e+000 5.788078e+000 8.914776e+000
      endloop
   endfacet
   facet normal 0.000000e+000 0.000000e+000 1.000000e+000
      outer loop
         vertex 7.182903e+000 5.788078e+000 8.914776e+000
         vertex 8.248964e+000 5.788078e+000 8.914776e+000
         vertex 7.158991e+000 6.061401e+000 8.914776e+000
      endloop
   endfacet
   facet normal 0.000000e+000 0.000000e+000 1.000000e+000
      outer loop
         vertex 7.158991e+000 6.061401e+000 8.914776e+000
         vertex 8.248964e+000 5.788078e+000 8.914776e+000
         vertex 8.216461e+000 6.201076e+000 8.914776e+000
      endloop
   endfacet
   facet normal 0.000000e+000 0.000000e+000 1.000000e+000
      outer loop
         vertex 7.158991e+000 6.061401e+000 8.914776e+000
         vertex 8.216461e+000 6.201076e+000 8.914776e+000
         vertex 7.087979e+000 6.326419e+000 8.914776e+000
      endloop
   endfacet
   facet normal 0.000000e+000 0.000000e+000 1.000000e+000
      outer loop
         vertex 7.087979e+000 6.326419e+000 8.914776e+000
         vertex 8.216461e+000 6.201076e+000 8.914776e+000
         vertex 8.119751e+000 6.603903e+000 8.914776e+000
      endloop
   endfacet
   facet normal 0.000000e+000 0.000000e+000 1.000000e+000
      outer loop
         vertex 7.087979e+000 6.326419e+000 8.914776e+000
         vertex 8.119751e+000 6.603903e+000 8.914776e+000
         vertex 6.972027e+000 6.575079e+000 8.914776e+000
      endloop
   endfacet
   facet normal 0.000000e+000 0.000000e+000 1.000000e+000
      outer loop
         vertex 6.972027e+000 6.575079e+000 8.914776e+000
         vertex 8.119751e+000 6.603903e+000 8.914776e+000
         vertex 7.961215e+000 6.986642e+000 8.914776e+000
      endloop
   endfacet
   facet normal 0.000000e+000 0.000000e+000 1.000000e+000
      outer loop
         vertex 6.972027e+000 6.575079e+000 8.914776e+000
         vertex 7.961215e+000 6.986642e+000 8.914776e+000
         vertex 6.814657e+000 6.799827e+000 8.914776e+000
      endloop
   endfacet
   facet normal 0.000000e+000 0.000000e+000 1.000000e+000
      outer loop
         vertex 6.814657e+000 6.799827e+000 8.914776e+000
         vertex 7.961215e+000 6.986642e+000 8.914776e+000
         vertex 7.744758e+000 7.339868e+000 8.914776e+000
      endloop
   endfacet
   facet normal 0.000000e+000 0.000000e+000 1.000000e+000
      outer loop
         vertex 6.814657e+000 6.799827e+000 8.914776e+000
         vertex 7.744758e+000 7.339868e+000 8.914776e+000
         vertex 7.475708e+000 7.654884e+000 8.914776e+000
      endloop
   endfacet
   facet normal 9.983119e-001 5.807913e-002 0.000000e+000
      outer loop
         vertex 7.158991e+000 6.061401e+000 8.914776e+000
         vertex 7.182903e+000 5.788078e+000 1.000000e+001
         vertex 7.182903e+000 5.788078e+000 8.914776e+000
      endloop
   endfacet
   facet normal 9.983119e-001 -5.807913e-002 0.000000e+000
      outer loop
         vertex 7.182903e+000 5.788078e+000 8.914776e+000
         vertex 7.182903e+000 5.788078e+000 1.000000e+001
         vertex 7.158991e+000 5.514756e+000 1.000000e+001
      endloop
   endfacet
   facet normal 9.932307e-001 -1.161583e-001 0.000000e+000
      outer loop
         vertex 7.182903e+000 5.788078e+000 8.914776e+000
         vertex 7.158991e+000 5.514756e+000 1.000000e+001
         vertex 7.158991e+000 5.514756e+000 8.914776e+000
      endloop
   endfacet
   facet normal 9.730600e-001 -2.305519e-001 0.000000e+000
      outer loop
         vertex 7.158991e+000 5.514756e+000 8.914776e+000
         vertex 7.158991e+000 5.514756e+000 1.000000e+001
         vertex 7.087979e+000 5.249739e+000 1.000000e+001
      endloop
   endfacet
   facet normal 9.579706e-001 -2.868663e-001 0.000000e+000
      outer loop
         vertex 7.158991e+000 5.514756e+000 8.914776e+000
         vertex 7.087979e+000 5.249739e+000 1.000000e+001
         vertex 7.087979e+000 5.249739e+000 8.914776e+000
      endloop
   endfacet
   facet normal 9.182422e-001 -3.960194e-001 0.000000e+000
      outer loop
         vertex 7.087979e+000 5.249739e+000 8.914776e+000
         vertex 7.087979e+000 5.249739e+000 1.000000e+001
         vertex 6.972027e+000 5.001078e+000 1.000000e+001
      endloop
   endfacet
   facet normal 8.936031e-001 -4.488580e-001 0.000000e+000
      outer loop
         vertex 7.087979e+000 5.249739e+000 8.914776e+000
         vertex 6.972027e+000 5.001078e+000 1.000000e+001
         vertex 6.972027e+000 5.001078e+000 8.914776e+000
      endloop
   endfacet
   facet normal 8.355240e-001 -5.494540e-001 0.000000e+000
      outer loop
         vertex 6.972027e+000 5.001078e+000 8.914776e+000
         vertex 6.972027e+000 5.001078e+000 1.000000e+001
         vertex 6.814657e+000 4.776330e+000 1.000000e+001
      endloop
   endfacet
   facet normal 8.020838e-001 -5.972114e-001 0.000000e+000
      outer loop
         vertex 6.972027e+000 5.001078e+000 8.914776e+000
         vertex 6.814657e+000 4.776330e+000 1.000000e+001
         vertex 6.814657e+000 4.776330e+000 8.914776e+000
      endloop
   endfacet
   facet normal 7.274188e-001 -6.861938e-001 0.000000e+000
      outer loop
         vertex 6.814657e+000 4.776330e+000 8.914776e+000
         vertex 6.814657e+000 4.776330e+000 1.000000e+001
         vertex 6.620651e+000 4.582325e+000 1.000000e+001
      endloop
   endfacet
   facet normal 6.861938e-001 -7.274188e-001 0.000000e+000
      outer loop
         vertex 6.814657e+000 4.776330e+000 8.914776e+000
         vertex 6.620651e+000 4.582325e+000 1.000000e+001
         vertex 6.620651e+000 4.582325e+000 8.914776e+000
      endloop
   endfacet
   facet normal 5.972114e-001 -8.020838e-001 0.000000e+000
      outer loop
         vertex 6.620651e+000 4.582325e+000 8.914776e+000
         vertex 6.620651e+000 4.582325e+000 1.000000e+001
         vertex 6.395903e+000 4.424954e+000 1.000000e+001
      endloop
   endfacet
   facet normal 5.494540e-001 -8.355240e-001 0.000000e+000
      outer loop
         vertex 6.620651e+000 4.582325e+000 8.914776e+000
         vertex 6.395903e+000 4.424954e+000 1.000000e+001
         vertex 6.395903e+000 4.424954e+000 8.914776e+000
      endloop
   endfacet
   facet normal 4.488580e-001 -8.936031e-001 0.000000e+000
      outer loop
         vertex 6.395903e+000 4.424954e+000 8.914776e+000
         vertex 6.395903e+000 4.424954e+000 1.000000e+001
         vertex 6.147243e+000 4.309002e+000 1.000000e+001
      endloop
   endfacet
   facet normal 3.960194e-001 -9.182422e-001 0.000000e+000
      outer loop
         vertex 6.395903e+000 4.424954e+000 8.914776e+000
         vertex 6.147243e+000 4.309002e+000 1.000000e+001
         vertex 6.147243e+000 4.309002e+000 8.914776e+000
      endloop
   endfacet
   facet normal 2.868663e-001 -9.579706e-001 0.000000e+000
      outer loop
         vertex 6.147243e+000 4.309002e+000 8.914776e+000
         vertex 6.147243e+000 4.309002e+000 1.000000e+001
         vertex 5.882225e+000 4.237991e+000 1.000000e+001
      endloop
   endfacet
   facet normal 2.305519e-001 -9.730600e-001 0.000000e+000
      outer loop
         vertex 6.147243e+000 4.309002e+000 8.914776e+000
         vertex 5.882225e+000 4.237991e+000 1.000000e+001
         vertex 5.882225e+000 4.237991e+000 8.914776e+000
      endloop
   endfacet
   facet normal 1.161583e-001 -9.932307e-001 0.000000e+000
      outer loop
         vertex 5.882225e+000 4.237991e+000 8.914776e+000
         vertex 5.882225e+000 4.237991e+000 1.000000e+001
         vertex 5.608903e+000 4.214078e+000 1.000000e+001
      endloop
   endfacet
   facet normal 5.807913e-002 -9.983119e-001 0.000000e+000
      outer loop
         vertex 5.882225e+000 4.237991e+000 8.914776e+000
         vertex 5.608903e+000 4.214078e+000 1.000000e+001
         vertex 5.608903e+000 4.214078e+000 8.914776e+000
      endloop
   endfacet
   facet normal -5.807913e-002 -9.983119e-001 0.000000e+000
      outer loop
         vertex 5.608903e+000 4.214078e+000 8.914776e+000
         vertex 5.608903e+000 4.214078e+000 1.000000e+001
         vertex 5.335580e+000 4.237991e+000 1.000000e+001
      endloop
   endfacet
   facet normal -1.161583e-001 -9.932307e-001 0.000000e+000
      outer loop
         vertex 5.608903e+000 4.214078e+000 8.914776e+000
         vertex 5.335580e+000 4.237991e+000 1.000000e+001
         vertex 5.335580e+000 4.237991e+000 8.914776e+000
      endloop
   endfacet
   facet normal -2.305519e-001 -9.730600e-001 0.000000e+000
      outer loop
         vertex 5.335580e+000 4.237991e+000 8.914776e+000
         vertex 5.335580e+000 4.237991e+000 1.000000e+001
         vertex 5.070563e+000 4.309002e+000 1.000000e+001
      endloop
   endfacet
   facet normal -2.868663e-001 -9.579706e-001 0.000000e+000
      outer loop
         vertex 5.335580e+000 4.237991e+000 8.914776e+000
         vertex 5.070563e+000 4.309002e+000 1.000000e+001
         vertex 5.070563e+000 4.309002e+000 8.914776e+000
      endloop
   endfacet
   facet normal -3.960194e-001 -9.182422e-001 0.000000e+000
      outer loop
         vertex 5.070563e+000 4.309002e+000 8.914776e+000
         vertex 5.070563e+000 4.309002e+000 1.000000e+001
         vertex 4.821903e+000 4.424954e+000 1.000000e+001
      endloop
   endfacet
   facet normal -4.488580e-001 -8.936031e-001 0.000000e+000
      outer loop
         vertex 5.070563e+000 4.309002e+000 8.914776e+000
         vertex 4.821903e+000 4.424954e+000 1.000000e+001
         vertex 4.821903e+000 4.424954e+000 8.914776e+000
      endloop
   endfacet
   facet normal -5.494540e-001 -8.355240e-001 0.000000e+000
      outer loop
         vertex 4.821903e+000 4.424954e+000 8.914776e+000
         vertex 4.821903e+000 4.424954e+000 1.000000e+001
         vertex 4.597155e+000 4.582325e+000 1.000000e+001
      endloop
   endfacet
   facet normal -5.972114e-001 -8.020838e-001 0.000000e+000
      outer loop
         vertex 4.821903e+000 4.424954e+000 8.914776e+000
         vertex 4.597155e+000 4.582325e+000 1.000000e+001
         vertex 4.597155e+000 4.582325e+000 8.914776e+000
      endloop
   endfacet
   facet normal -6.861938e-001 -7.274188e-001 0.000000e+000
      outer loop
         vertex 4.597155e+000 4.582325e+000 8.914776e+000
         vertex 4.597155e+000 4.582325e+000 1.000000e+001
         vertex 4.403148e+000 4.776330e+000 1.000000e+001
      endloop
   endfacet
   facet normal -7.274188e-001 -6.861938e-001 0.000000e+000
      outer loop
         vertex 4.597155e+000 4.582325e+000 8.914776e+000
         vertex 4.403148e+000 4.776330e+000 1.000000e+001
         vertex 4.403148e+000 4.776330e+000 8.914776e+000
      endloop
   endfacet
   facet normal -8.020838e-001 -5.972114e-001 0.000000e+000
      outer loop
         vertex 4.403148e+000 4.776330e+000 8.914776e+000
         vertex 4.403148e+000 4.776330e+000 1.000000e+001
         vertex 4.245778e+000 5.001078e+000 1.000000e+001
      endloop
   endfacet
   facet normal -8.355240e-001 -5.494540e-001 0.000000e+000
      outer loop
         vertex 4.403148e+000 4.776330e+000 8.914776e+000
         vertex 4.245778e+000 5.001078e+000 1.000000e+001
         vertex 4.245778e+000 5.001078e+000 8.914776e+000
      endloop
   endfacet
   facet normal -8.936031e-001 -4.488580e-001 0.000000e+000
      outer loop
         vertex 4.245778e+000 5.001078e+000 8.914776e+000
         vertex 4.245778e+000 5.001078e+000 1.000000e+001
         vertex 4.129826e+000 5.249739e+000 1.000000e+001
      endloop
   endfacet
   facet normal -9.182422e-001 -3.960194e-001 0.000000e+000
      outer loop
         vertex 4.245778e+000 5.001078e+000 8.914776e+000
         vertex 4.129826e+000 5.249739e+000 1.000000e+001
         vertex 4.129826e+000 5.249739e+000 8.914776e+000
      endloop
   endfacet
   facet normal -9.579706e-001 -2.868663e-001 0.000000e+000
      outer loop
         vertex 4.129826e+000 5.249739e+000 8.914776e+000
         vertex 4.129826e+000 5.249739e+000 1.000000e+001
         vertex 4.058815e+000 5.514756e+000 1.000000e+001
      endloop
   endfacet
   facet normal -9.730600e-001 -2.305519e-001 0.000000e+000
      outer loop
         vertex 4.129826e+000 5.249739e+000 8.914776e+000
         vertex 4.058815e+000 5.514756e+000 1.000000e+001
         vertex 4.058815e+000 5.514756e+000 8.914776e+000
      endloop
   endfacet
   facet normal -9.932307e-001 -1.161583e-001 0.000000e+000
      outer loop
         vertex 4.058815e+000 5.514756e+000 8.914776e+000
         vertex 4.058815e+000 5.514756e+000 1.000000e+001
         vertex 4.034903e+000 5.788078e+000 1.000000e+001
      endloop
   endfacet
   facet normal -9.983119e-001 -5.807913e-002 0.000000e+000
      outer loop
         vertex 4.058815e+000 5.514756e+000 8.914776e+000
         vertex 4.034903e+000 5.788078e+000 1.000000e+001
         vertex 4.034903e+000 5.788078e+000 8.914776e+000
      endloop
   endfacet
   facet normal -9.983119e-001 5.807913e-002 0.000000e+000
      outer loop
         vertex 4.034903e+000 5.788078e+000 8.914776e+000
         vertex 4.034903e+000 5.788078e+000 1.000000e+001
         vertex 4.058815e+000 6.061401e+000 1.000000e+001
      endloop
   endfacet
   facet normal -9.932307e-001 1.161583e-001 0.000000e+000
      outer loop
         vertex 4.034903e+000 5.788078e+000 8.914776e+000
         vertex 4.058815e+000 6.061401e+000 1.000000e+001
         vertex 4.058815e+000 6.061401e+000 8.914776e+000
      endloop
   endfacet
   facet normal -9.730600e-001 2.305519e-001 0.000000e+000
      outer loop
         vertex 4.058815e+000 6.061401e+000 8.914776e+000
         vertex 4.058815e+000 6.061401e+000 1.000000e+001
         vertex 4.129826e+000 6.326419e+000 1.000000e+001
      endloop
   endfacet
   facet normal -9.579706e-001 2.868663e-001 0.000000e+000
      outer loop
         vertex 4.058815e+000 6.061401e+000 8.914776e+000
         vertex 4.129826e+000 6.326419e+000 1.000000e+001
         vertex 4.129826e+000 6.326419e+000 8.914776e+000
      endloop
   endfacet
   facet normal -9.182422e-001 3.960194e-001 0.000000e+000
      outer loop
         vertex 4.129826e+000 6.326419e+000 8.914776e+000
         vertex 4.129826e+000 6.326419e+000 1.000000e+001
         vertex 4.245778e+000 6.575079e+000 1.000000e+001
      endloop
   endfacet
   facet normal -8.936031e-001 4.488580e-001 0.000000e+000
      outer loop
         vertex 4.129826e+000 6.326419e+000 8.914776e+000
         vertex 4.245778e+000 6.575079e+000 1.000000e+001
         vertex 4.245778e+000 6.575079e+000 8.914776e+000
      endloop
   endfacet
   facet normal -8.355240e-001 5.494540e-001 0.000000e+000
      outer loop
         vertex 4.245778e+000 6.575079e+000 8.914776e+000
         vertex 4.245778e+000 6.575079e+000 1.000000e+001
         vertex 4.403148e+000 6.799827e+000 1.000000e+001
      endloop
   endfacet
   facet normal -8.020838e-001 5.972114e-001 0.000000e+000
      outer loop
         vertex 4.245778e+000 6.575079e+000 8.914776e+000
         vertex 4.403148e+000 6.799827e+000 1.000000e+001
         vertex 4.403148e+000 6.799827e+000 8.914776e+000
      endloop
   endfacet
   facet normal -7.274188e-001 6.861938e-001 0.000000e+000
      outer loop
         vertex 4.403148e+000 6.799827e+000 8.914776e+000
         vertex 4.403148e+000 6.799827e+000 1.000000e+001
         vertex 4.597155e+000 6.993833e+000 1.000000e+001
      endloop
   endfacet
   facet normal -6.861938e-001 7.274188e-001 0.000000e+000
      outer loop
         vertex 4.403148e+000 6.799827e+000 8.914776e+000
         vertex 4.597155e+000 6.993833e+000 1.000000e+001
         vertex 4.597155e+000 6.993833e+000 8.914776e+000
      endloop
   endfacet
   facet normal -5.972114e-001 8.020838e-001 0.000000e+000
      outer loop
         vertex 4.597155e+000 6.993833e+000 8.914776e+000
         vertex 4.597155e+000 6.993833e+000 1.000000e+001
         vertex 4.821903e+000 7.151203e+000 1.000000e+001
      endloop
   endfacet
   facet normal -5.494540e-001 8.355240e-001 0.000000e+000
      outer loop
         vertex 4.597155e+000 6.993833e+000 8.914776e+000
         vertex 4.821903e+000 7.151203e+000 1.000000e+001
         vertex 4.821903e+000 7.151203e+000 8.914776e+000
      endloop
   endfacet
   facet normal -4.488580e-001 8.936031e-001 0.000000e+000
      outer loop
         vertex 4.821903e+000 7.151203e+000 8.914776e+000
         vertex 4.821903e+000 7.151203e+000 1.000000e+001
         vertex 5.070563e+000 7.267155e+000 1.000000e+001
      endloop
   endfacet
   facet normal -3.960194e-001 9.182422e-001 0.000000e+000
      outer loop
         vertex 4.821903e+000 7.151203e+000 8.914776e+000
         vertex 5.070563e+000 7.267155e+000 1.000000e+001
         vertex 5.070563e+000 7.267155e+000 8.914776e+000
      endloop
   endfacet
   facet normal -2.868663e-001 9.579706e-001 0.000000e+000
      outer loop
         vertex 5.070563e+000 7.267155e+000 8.914776e+000
         vertex 5.070563e+000 7.267155e+000 1.000000e+001
         vertex 5.335580e+000 7.338167e+000 1.000000e+001
      endloop
   endfacet
   facet normal -2.305519e-001 9.730600e-001 0.000000e+000
      outer loop
         vertex 5.070563e+000 7.267155e+000 8.914776e+000
         vertex 5.335580e+000 7.338167e+000 1.000000e+001
         vertex 5.335580e+000 7.338167e+000 8.914776e+000
      endloop
   endfacet
   facet normal -1.161583e-001 9.932307e-001 0.000000e+000
      outer loop
         vertex 5.335580e+000 7.338167e+000 8.914776e+000
         vertex 5.335580e+000 7.338167e+000 1.000000e+001
         vertex 5.608903e+000 7.362079e+000 1.000000e+001
      endloop
   endfacet
   facet normal -5.807913e-002 9.983119e-001 0.000000e+000
      outer loop
         vertex 5.335580e+000 7.338167e+000 8.914776e+000
         vertex 5.608903e+000 7.362079e+000 1.000000e+001
         vertex 5.608903e+000 7.362079e+000 8.914776e+000
      endloop
   endfacet
   facet normal 5.807913e-002 9.983119e-001 0.000000e+000
      outer loop
         vertex 5.608903e+000 7.362079e+000 8.914776e+000
         vertex 5.608903e+000 7.362079e+000 1.000000e+001
         vertex 5.882225e+000 7.338167e+000 1.000000e+001
      endloop
   endfacet
   facet normal 1.161583e-001 9.932307e-001 0.000000e+000
      outer loop
         vertex 5.608903e+000 7.362079e+000 8.914776e+000
         vertex 5.882225e+000 7.338167e+000 1.000000e+001
         vertex 5.882225e+000 7.338167e+000 8.914776e+000
      endloop
   endfacet
   facet normal 2.305519e-001 9.730600e-001 0.000000e+000
      outer loop
         vertex 5.882225e+000 7.338167e+000 8.914776e+000
         vertex 5.882225e+000 7.338167e+000 1.000000e+001
         vertex 6.147243e+000 7.267155e+000 1.000000e+001
      endloop
   endfacet
   facet normal 2.868663e-001 9.579706e-001 0.000000e+000
      outer loop
         vertex 5.882225e+000 7.338167e+000 8.914776e+000
         vertex 6.147243e+000 7.267155e+000 1.000000e+001
         vertex 6.147243e+000 7.267155e+000 8.914776e+000
      endloop
   endfacet
   facet normal 3.960194e-001 9.182422e-001 0.000000e+000
      outer loop
         vertex 6.147243e+000 7.267155e+000 8.914776e+000
         vertex 6.147243e+000 7.267155e+000 1.000000e+001
         vertex 6.395903e+000 7.151203e+000 1.000000e+001
      endloop
   endfacet
   facet normal 4.488580e-001 8.936031e-001 0.000000e+000
      outer loop
         vertex 6.147243e+000 7.267155e+000 8.914776e+000
         vertex 6.395903e+000 7.151203e+000 1.000000e+001
         vertex 6.395903e+000 7.151203e+000 8.914776e+000
      endloop
   endfacet
   facet normal 5.494540e-001 8.355240e-001 0.000000e+000
      outer loop
         vertex 6.395903e+000 7.151203e+000 8.914776e+000
         vertex 6.395903e+000 7.151203e+000 1.000000e+001
         vertex 6.620651e+000 6.993833e+000 1.000000e+001
      endloop
   endfacet
   facet normal 5.972114e-001 8.020838e-001 0.000000e+000
      outer loop
         vertex 6.395903e+000 7.151203e+000 8.914776e+000
         vertex 6.620651e+000 6.993833e+000 1.000000e+001
         vertex 6.620651e+000 6.993833e+000 8.914776e+000
      endloop
   endfacet
   facet normal 6.861938e-001 7.274188e-001 0.000000e+000
      outer loop
         vertex 6.620651e+000 6.993833e+000 8.914776e+000
         vertex 6.620651e+000 6.993833e+000 1.000000e+001
         vertex 6.814657e+000 6.799827e+000 1.000000e+001
      endloop
   endfacet
   facet normal 7.274188e-001 6.861938e-001 0.000000e+000
      outer loop
         vertex 6.620651e+000 6.993833e+000 8.914776e+000
         vertex 6.814657e+000 6.799827e+000 1.000000e+001
         vertex 6.814657e+000 6.799827e+000 8.914776e+000
      endloop
   endfacet
   facet normal 8.020838e-001 5.972114e-001 0.000000e+000
      outer loop
         vertex 6.814657e+000 6.799827e+000 8.914776e+000
         vertex 6.814657e+000 6.799827e+000 1.000000e+001
         vertex 6.972027e+000 6.575079e+000 1.000000e+001
      endloop
   endfacet
   facet normal 8.355240e-001 5.494540e-001 0.000000e+000
      outer loop
         vertex 6.814657e+000 6.799827e+000 8.914776e+000
         vertex 6.972027e+000 6.575079e+000 1.000000e+001
         vertex 6.972027e+000 6.575079e+000 8.914776e+000
      endloop
   endfacet
   facet normal 8.936031e-001 4.488580e-001 0.000000e+000
      outer loop
         vertex 6.972027e+000 6.575079e+000 8.914776e+000
         vertex 6.972027e+000 6.575079e+000 1.000000e+001
         vertex 7.087979e+000 6.326419e+000 1.000000e+001
      endloop
   endfacet
   facet normal 9.182422e-001 3.960194e-001 0.000000e+000
      outer loop
         vertex 6.972027e+000 6.575079e+000 8.914776e+000
         vertex 7.087979e+000 6.326419e+000 1.000000e+001
         vertex 7.087979e+000 6.326419e+000 8.914776e+000
      endloop
   endfacet
   facet normal 9.579706e-001 2.868663e-001 0.000000e+000
      outer loop
         vertex 7.087979e+000 6.326419e+000 8.914776e+000
         vertex 7.087979e+000 6.326419e+000 1.000000e+001
         vertex 7.158991e+000 6.061401e+000 1.000000e+001
      endloop
   endfacet
   facet normal 9.730600e-001 2.305519e-001 0.000000e+000
      outer loop
         vertex 7.087979e+000 6.326419e+000 8.914776e+000
         vertex 7.158991e+000 6.061401e+000 1.000000e+001
         vertex 7.158991e+000 6.061401e+000 8.914776e+000
      endloop
   endfacet
   facet normal 9.932307e-001 1.161583e-001 0.000000e+000
      outer loop
         vertex 7.158991e+000 6.061401e+000 8.914776e+000
         vertex 7.158991e+000 6.061401e+000 1.000000e+001
         vertex 7.182903e+000 5.788078e+000 1.000000e+001
      endloop
   endfacet
   facet normal 0.000000e+000 0.000000e+000 1.000000e+000
      outer loop
         vertex 5.070563e+000 7.267155e+000 1.000000e+001
         vertex 4.821903e+000 7.151203e+000 1.000000e+001
         vertex 6.814657e+000 4.776330e+000 1.000000e+001
      endloop
   endfacet
   facet normal 0.000000e+000 0.000000e+000 1.000000e+000
      outer loop
         vertex 4.821903e+000 7.151203e+000 1.000000e+001
         vertex 4.597155e+000 6.993833e+000 1.000000e+001
         vertex 6.814657e+000 4.776330e+000 1.000000e+001
      endloop
   endfacet
   facet normal 0.000000e+000 0.000000e+000 1.000000e+000
      outer loop
         vertex 6.814657e+000 4.776330e+000 1.000000e+001
         vertex 4.597155e+000 6.993833e+000 1.000000e+001
         vertex 4.403148e+000 6.799827e+000 1.000000e+001
      endloop
   endfacet
   facet normal 0.000000e+000 0.000000e+000 1.000000e+000
      outer loop
         vertex 6.814657e+000 4.776330e+000 1.000000e+001
         vertex 4.403148e+000 6.799827e+000 1.000000e+001
         vertex 4.245778e+000 6.575079e+000 1.000000e+001
      endloop
   endfacet
   facet normal 0.000000e+000 0.000000e+000 1.000000e+000
      outer loop
         vertex 4.245778e+000 6.575079e+000 1.000000e+001
         vertex 4.129826e+000 6.326419e+000 1.000000e+001
         vertex 6.814657e+000 4.776330e+000 1.000000e+001
      endloop
   endfacet
   facet normal 0.000000e+000 0.000000e+000 1.000000e+000
      outer loop
         vertex 6.814657e+000 4.776330e+000 1.000000e+001
         vertex 4.129826e+000 6.326419e+000 1.000000e+001
         vertex 4.058815e+000 6.061401e+000 1.000000e+001
      endloop
   endfacet
   facet normal 0.000000e+000 0.000000e+000 1.000000e+000
      outer loop
         vertex 6.814657e+000 4.776330e+000 1.000000e+001
         vertex 4.058815e+000 6.061401e+000 1.000000e+001
         vertex 4.034903e+000 5.788078e+000 1.000000e+001
      endloop
   endfacet
   facet normal 0.000000e+000 0.000000e+000 1.000000e+000
      outer loop
         vertex 6.814657e+000 4.776330e+000 1.000000e+001
         vertex 4.245778e+000 5.001078e+000 1.000000e+001
         vertex 6.620651e+000 4.582325e+000 1.000000e+001
      endloop
   endfacet
   facet normal 0.000000e+000 0.000000e+000 1.000000e+000
      outer loop
         vertex 6.620651e+000 4.582325e+000 1.000000e+001
         vertex 4.245778e+000 5.001078e+000 1.000000e+001
         vertex 6.395903e+000 4.424954e+000 1.000000e+001
      endloop
   endfacet
   facet normal 0.000000e+000 0.000000e+000 1.000000e+000
      outer loop
         vertex 5.070563e+000 7.267155e+000 1.000000e+001
         vertex 6.814657e+000 4.776330e+000 1.000000e+001
         vertex 5.335580e+000 7.338167e+000 1.000000e+001
      endloop
   endfacet
   facet normal 0.000000e+000 0.000000e+000 1.000000e+000
      outer loop
         vertex 5.335580e+000 7.338167e+000 1.000000e+001
         vertex 6.814657e+000 4.776330e+000 1.000000e+001
         vertex 6.972027e+000 5.001078e+000 1.000000e+001
      endloop
   endfacet
   facet normal 0.000000e+000 0.000000e+000 1.000000e+000
      outer loop
         vertex 5.335580e+000 7.338167e+000 1.000000e+001
         vertex 6.972027e+000 5.001078e+000 1.000000e+001
         vertex 7.087979e+000 5.249739e+000 1.000000e+001
      endloop
   endfacet
   facet normal 0.000000e+000 0.000000e+000 1.000000e+000
      outer loop
         vertex 4.034903e+000 5.788078e+000 1.000000e+001
         vertex 4.058815e+000 5.514756e+000 1.000000e+001
         vertex 6.814657e+000 4.776330e+000 1.000000e+001
      endloop
   endfacet
   facet normal 0.000000e+000 0.000000e+000 1.000000e+000
      outer loop
         vertex 6.814657e+000 4.776330e+000 1.000000e+001
         vertex 4.058815e+000 5.514756e+000 1.000000e+001
         vertex 4.129826e+000 5.249739e+000 1.000000e+001
      endloop
   endfacet
   facet normal 0.000000e+000 0.000000e+000 1.000000e+000
      outer loop
         vertex 6.814657e+000 4.776330e+000 1.000000e+001
         vertex 4.129826e+000 5.249739e+000 1.000000e+001
         vertex 4.245778e+000 5.001078e+000 1.000000e+001
      endloop
   endfacet
   facet normal 0.000000e+000 0.000000e+000 1.000000e+000
      outer loop
         vertex 6.972027e+000 6.575079e+000 1.000000e+001
         vertex 6.814657e+000 6.799827e+000 1.000000e+001
         vertex 7.087979e+000 6.326419e+000 1.000000e+001
      endloop
   endfacet
   facet normal 0.000000e+000 0.000000e+000 1.000000e+000
      outer loop
         vertex 7.087979e+000 6.326419e+000 1.000000e+001
         vertex 6.814657e+000 6.799827e+000 1.000000e+001
         vertex 6.620651e+000 6.993833e+000 1.000000e+001
      endloop
   endfacet
   facet normal 0.000000e+000 0.000000e+000 1.000000e+000
      outer loop
         vertex 6.620651e+000 6.993833e+000 1.000000e+001
         vertex 6.395903e+000 7.151203e+000 1.000000e+001
         vertex 7.087979e+000 6.326419e+000 1.000000e+001
      endloop
   endfacet
   facet normal 0.000000e+000 0.000000e+000 1.000000e+000
      outer loop
         vertex 7.087979e+000 6.326419e+000 1.000000e+001
         vertex 6.395903e+000 7.151203e+000 1.000000e+001
         vertex 6.147243e+000 7.267155e+000 1.000000e+001
      endloop
   endfacet
   facet normal 0.000000e+000 0.000000e+000 1.000000e+000
      outer loop
         vertex 7.087979e+000 6.326419e+000 1.000000e+001
         vertex 6.147243e+000 7.267155e+000 1.000000e+001
         vertex 5.882225e+000 7.338167e+000 1.000000e+001
      endloop
   endfacet
   facet normal 0.000000e+000 0.000000e+000 1.000000e+000
      outer loop
         vertex 5.882225e+000 7.338167e+000 1.000000e+001
         vertex 5.608903e+000 7.362079e+000 1.000000e+001
         vertex 7.087979e+000 6.326419e+000 1.000000e+001
      endloop
   endfacet
   facet normal 0.000000e+000 0.000000e+000 1.000000e+000
      outer loop
         vertex 7.087979e+000 6.326419e+000 1.000000e+001
         vertex 5.608903e+000 7.362079e+000 1.000000e+001
         vertex 5.335580e+000 7.338167e+000 1.000000e+001
      endloop
   endfacet
   facet normal 0.000000e+000 0.000000e+000 1.000000e+000
      outer loop
         vertex 7.087979e+000 6.326419e+000 1.000000e+001
         vertex 5.335580e+000 7.338167e+000 1.000000e+001
         vertex 7.158991e+000 6.061401e+000 1.000000e+001
      endloop
   endfacet
   facet normal 0.000000e+000 0.000000e+000 1.000000e+000
      outer loop
         vertex 4.821903e+000 4.424954e+000 1.000000e+001
         vertex 4.245778e+000 5.001078e+000 1.000000e+001
         vertex 4.597155e+000 4.582325e+000 1.000000e+001
      endloop
   endfacet
   facet normal 0.000000e+000 0.000000e+000 1.000000e+000
      outer loop
         vertex 4.597155e+000 4.582325e+000 1.000000e+001
         vertex 4.245778e+000 5.001078e+000 1.000000e+001
         vertex 4.403148e+000 4.776330e+000 1.000000e+001
      endloop
   endfacet
   facet normal 0.000000e+000 0.000000e+000 1.000000e+000
      outer loop
         vertex 4.821903e+000 4.424954e+000 1.000000e+001
         vertex 5.070563e+000 4.309002e+000 1.000000e+001
         vertex 4.245778e+000 5.001078e+000 1.000000e+001
      endloop
   endfacet
   facet normal 0.000000e+000 0.000000e+000 1.000000e+000
      outer loop
         vertex 4.245778e+000 5.001078e+000 1.000000e+001
         vertex 5.070563e+000 4.309002e+000 1.000000e+001
         vertex 5.335580e+000 4.237991e+000 1.000000e+001
      endloop
   endfacet
   facet normal 0.000000e+000 0.000000e+000 1.000000e+000
      outer loop
         vertex 4.245778e+000 5.001078e+000 1.000000e+001
         vertex 5.335580e+000 4.237991e+000 1.000000e+001
         vertex 5.608903e+000 4.214078e+000 1.000000e+001
      endloop
   endfacet
   facet normal 0.000000e+000 0.000000e+000 1.000000e+000
      outer loop
         vertex 7.087979e+000 5.249739e+000 1.000000e+001
         vertex 7.158991e+000 5.514756e+000 1.000000e+001
         vertex 5.335580e+000 7.338167e+000 1.000000e+001
      endloop
   endfacet
   facet normal 0.000000e+000 0.000000e+000 1.000000e+000
      outer loop
         vertex 5.335580e+000 7.338167e+000 1.000000e+001
         vertex 7.158991e+000 5.514756e+000 1.000000e+001
         vertex 7.182903e+000 5.788078e+000 1.000000e+001
      endloop
   endfacet
   facet normal 0.000000e+000 0.000000e+000 1.000000e+000
      outer loop
         vertex 5.335580e+000 7.338167e+000 1.000000e+001
         vertex 7.182903e+000 5.788078e+000 1.000000e+001
         vertex 7.158991e+000 6.061401e+000 1.000000e+001
      endloop
   endfacet
   facet normal 0.000000e+000 0.000000e+000 1.000000e+000
      outer loop
         vertex 5.608903e+000 4.214078e+000 1.000000e+001
         vertex 5.882225e+000 4.237991e+000 1.000000e+001
         vertex 4.245778e+000 5.001078e+000 1.000000e+001
      endloop
   endfacet
   facet normal 0.000000e+000 0.000000e+000 1.000000e+000
      outer loop
         vertex 4.245778e+000 5.001078e+000 1.000000e+001
         vertex 5.882225e+000 4.237991e+000 1.000000e+001
         vertex 6.147243e+000 4.309002e+000 1.000000e+001
      endloop
   endfacet
   facet normal 0.000000e+000 0.000000e+000 1.000000e+000
      outer loop
         vertex 4.245778e+000 5.001078e+000 1.000000e+001
         vertex 6.147243e+000 4.309002e+000 1.000000e+001
         vertex 6.395903e+000 4.424954e+000 1.000000e+001
      endloop
   endfacet
endsolid