solid 11_132
   facet normal -1.000000e+000 0.000000e+000 0.000000e+000
      outer loop
         vertex 0.000000e+000 1.000000e+001 1.000000e+001
         vertex 0.000000e+000 1.000000e+001 0.000000e+000
         vertex 0.000000e+000 0.000000e+000 1.000000e+001
      endloop
   endfacet
   facet normal -1.000000e+000 0.000000e+000 0.000000e+000
      outer loop
         vertex 0.000000e+000 0.000000e+000 1.000000e+001
         vertex 0.000000e+000 1.000000e+001 0.000000e+000
         vertex 0.000000e+000 0.000000e+000 0.000000e+000
      endloop
   endfacet
   facet normal 0.000000e+000 0.000000e+000 1.000000e+000
      outer loop
         vertex 6.721351e+000 1.238665e+000 1.000000e+001
         vertex 6.274097e+000 1.086842e+000 1.000000e+001
         vertex 1.000000e+001 0.000000e+000 1.000000e+001
      endloop
   endfacet
   facet normal 0.000000e+000 0.000000e+000 1.000000e+000
      outer loop
         vertex 1.000000e+001 0.000000e+000 1.000000e+001
         vertex 8.827345e+000 3.640090e+000 1.000000e+001
         vertex 8.675522e+000 3.192835e+000 1.000000e+001
      endloop
   endfacet
   facet normal 0.000000e+000 0.000000e+000 1.000000e+000
      outer loop
         vertex 4.868236e+000 9.946971e-001 1.000000e+001
         vertex 0.000000e+000 0.000000e+000 1.000000e+001
         vertex 5.339544e+000 9.638059e-001 1.000000e+001
      endloop
   endfacet
   facet normal 0.000000e+000 0.000000e+000 1.000000e+000
      outer loop
         vertex 5.339544e+000 9.638059e-001 1.000000e+001
         vertex 0.000000e+000 0.000000e+000 1.000000e+001
         vertex 1.000000e+001 0.000000e+000 1.000000e+001
      endloop
   endfacet
   facet normal 0.000000e+000 0.000000e+000 1.000000e+000
      outer loop
         vertex 5.339544e+000 9.638059e-001 1.000000e+001
         vertex 1.000000e+001 0.000000e+000 1.000000e+001
         vertex 5.810853e+000 9.946971e-001 1.000000e+001
      endloop
   endfacet
   facet normal 0.000000e+000 0.000000e+000 1.000000e+000
      outer loop
         vertex 5.810853e+000 9.946971e-001 1.000000e+001
         vertex 1.000000e+001 0.000000e+000 1.000000e+001
         vertex 6.274097e+000 1.086842e+000 1.000000e+001
      endloop
   endfacet
   facet normal 0.000000e+000 0.000000e+000 1.000000e+000
      outer loop
         vertex 4.868236e+000 9.946971e-001 1.000000e+001
         vertex 4.404991e+000 1.086842e+000 1.000000e+001
         vertex 0.000000e+000 0.000000e+000 1.000000e+001
      endloop
   endfacet
   facet normal 0.000000e+000 0.000000e+000 1.000000e+000
      outer loop
         vertex 0.000000e+000 0.000000e+000 1.000000e+001
         vertex 4.404991e+000 1.086842e+000 1.000000e+001
         vertex 3.957737e+000 1.238665e+000 1.000000e+001
      endloop
   endfacet
   facet normal 0.000000e+000 0.000000e+000 1.000000e+000
      outer loop
         vertex 0.000000e+000 0.000000e+000 1.000000e+001
         vertex 3.957737e+000 1.238665e+000 1.000000e+001
         vertex 3.534126e+000 1.447566e+000 1.000000e+001
      endloop
   endfacet
   facet normal 0.000000e+000 0.000000e+000 1.000000e+000
      outer loop
         vertex 4.404991e+000 9.259632e+000 1.000000e+001
         vertex 0.000000e+000 1.000000e+001 1.000000e+001
         vertex 3.957737e+000 9.107809e+000 1.000000e+001
      endloop
   endfacet
   facet normal 0.000000e+000 0.000000e+000 1.000000e+000
      outer loop
         vertex 3.957737e+000 9.107809e+000 1.000000e+001
         vertex 0.000000e+000 1.000000e+001 1.000000e+001
         vertex 3.534126e+000 8.898908e+000 1.000000e+001
      endloop
   endfacet
   facet normal 0.000000e+000 0.000000e+000 1.000000e+000
      outer loop
         vertex 8.675522e+000 3.192835e+000 1.000000e+001
         vertex 8.466621e+000 2.769224e+000 1.000000e+001
         vertex 1.000000e+001 0.000000e+000 1.000000e+001
      endloop
   endfacet
   facet normal 0.000000e+000 0.000000e+000 1.000000e+000
      outer loop
         vertex 1.000000e+001 0.000000e+000 1.000000e+001
         vertex 8.466621e+000 2.769224e+000 1.000000e+001
         vertex 8.204213e+000 2.376504e+000 1.000000e+001
      endloop
   endfacet
   facet normal 0.000000e+000 0.000000e+000 1.000000e+000
      outer loop
         vertex 1.000000e+001 0.000000e+000 1.000000e+001
         vertex 8.204213e+000 2.376504e+000 1.000000e+001
         vertex 7.892791e+000 2.021396e+000 1.000000e+001
      endloop
   endfacet
   facet normal 0.000000e+000 0.000000e+000 1.000000e+000
      outer loop
         vertex 7.892791e+000 2.021396e+000 1.000000e+001
         vertex 7.537682e+000 1.709973e+000 1.000000e+001
         vertex 1.000000e+001 0.000000e+000 1.000000e+001
      endloop
   endfacet
   facet normal 0.000000e+000 0.000000e+000 1.000000e+000
      outer loop
         vertex 1.000000e+001 0.000000e+000 1.000000e+001
         vertex 7.537682e+000 1.709973e+000 1.000000e+001
         vertex 7.144962e+000 1.447566e+000 1.000000e+001
      endloop
   endfacet
   facet normal 0.000000e+000 0.000000e+000 1.000000e+000
      outer loop
         vertex 1.000000e+001 0.000000e+000 1.000000e+001
         vertex 7.144962e+000 1.447566e+000 1.000000e+001
         vertex 6.721351e+000 1.238665e+000 1.000000e+001
      endloop
   endfacet
   facet normal 0.000000e+000 0.000000e+000 1.000000e+000
      outer loop
         vertex 3.534126e+000 1.447566e+000 1.000000e+001
         vertex 3.141406e+000 1.709973e+000 1.000000e+001
         vertex 0.000000e+000 0.000000e+000 1.000000e+001
      endloop
   endfacet
   facet normal 0.000000e+000 0.000000e+000 1.000000e+000
      outer loop
         vertex 0.000000e+000 0.000000e+000 1.000000e+001
         vertex 3.141406e+000 1.709973e+000 1.000000e+001
         vertex 2.786297e+000 2.021396e+000 1.000000e+001
      endloop
   endfacet
   facet normal 0.000000e+000 0.000000e+000 1.000000e+000
      outer loop
         vertex 0.000000e+000 0.000000e+000 1.000000e+001
         vertex 2.786297e+000 2.021396e+000 1.000000e+001
         vertex 2.474875e+000 2.376504e+000 1.000000e+001
      endloop
   endfacet
   facet normal 0.000000e+000 0.000000e+000 1.000000e+000
      outer loop
         vertex 2.474875e+000 2.376504e+000 1.000000e+001
         vertex 2.212468e+000 2.769224e+000 1.000000e+001
         vertex 0.000000e+000 0.000000e+000 1.000000e+001
      endloop
   endfacet
   facet normal 0.000000e+000 0.000000e+000 1.000000e+000
      outer loop
         vertex 0.000000e+000 0.000000e+000 1.000000e+001
         vertex 2.212468e+000 2.769224e+000 1.000000e+001
         vertex 2.003566e+000 3.192835e+000 1.000000e+001
      endloop
   endfacet
   facet normal 0.000000e+000 0.000000e+000 1.000000e+000
      outer loop
         vertex 0.000000e+000 0.000000e+000 1.000000e+001
         vertex 2.003566e+000 3.192835e+000 1.000000e+001
         vertex 1.851744e+000 3.640090e+000 1.000000e+001
      endloop
   endfacet
   facet normal 0.000000e+000 0.000000e+000 1.000000e+000
      outer loop
         vertex 4.404991e+000 9.259632e+000 1.000000e+001
         vertex 4.868236e+000 9.351777e+000 1.000000e+001
         vertex 0.000000e+000 1.000000e+001 1.000000e+001
      endloop
   endfacet
   facet normal 0.000000e+000 0.000000e+000 1.000000e+000
      outer loop
         vertex 0.000000e+000 1.000000e+001 1.000000e+001
         vertex 4.868236e+000 9.351777e+000 1.000000e+001
         vertex 5.339544e+000 9.382668e+000 1.000000e+001
      endloop
   endfacet
   facet normal 0.000000e+000 0.000000e+000 1.000000e+000
      outer loop
         vertex 0.000000e+000 1.000000e+001 1.000000e+001
         vertex 5.339544e+000 9.382668e+000 1.000000e+001
         vertex 1.000000e+001 1.000000e+001 1.000000e+001
      endloop
   endfacet
   facet normal 0.000000e+000 0.000000e+000 1.000000e+000
      outer loop
         vertex 1.000000e+001 1.000000e+001 1.000000e+001
         vertex 5.339544e+000 9.382668e+000 1.000000e+001
         vertex 5.810853e+000 9.351777e+000 1.000000e+001
      endloop
   endfacet
   facet normal 0.000000e+000 0.000000e+000 1.000000e+000
      outer loop
         vertex 5.810853e+000 9.351777e+000 1.000000e+001
         vertex 6.274097e+000 9.259632e+000 1.000000e+001
         vertex 1.000000e+001 1.000000e+001 1.000000e+001
      endloop
   endfacet
   facet normal 0.000000e+000 0.000000e+000 1.000000e+000
      outer loop
         vertex 1.000000e+001 1.000000e+001 1.000000e+001
         vertex 6.274097e+000 9.259632e+000 1.000000e+001
         vertex 6.721351e+000 9.107809e+000 1.000000e+001
      endloop
   endfacet
   facet normal 0.000000e+000 0.000000e+000 1.000000e+000
      outer loop
         vertex 1.000000e+001 1.000000e+001 1.000000e+001
         vertex 6.721351e+000 9.107809e+000 1.000000e+001
         vertex 7.144962e+000 8.898908e+000 1.000000e+001
      endloop
   endfacet
   facet normal 0.000000e+000 0.000000e+000 1.000000e+000
      outer loop
         vertex 1.000000e+001 1.000000e+001 1.000000e+001
         vertex 8.827345e+000 6.706385e+000 1.000000e+001
         vertex 8.919490e+000 6.243140e+000 1.000000e+001
      endloop
   endfacet
   facet normal 0.000000e+000 0.000000e+000 1.000000e+000
      outer loop
         vertex 0.000000e+000 1.000000e+001 1.000000e+001
         vertex 1.759598e+000 6.243140e+000 1.000000e+001
         vertex 1.851744e+000 6.706385e+000 1.000000e+001
      endloop
   endfacet
   facet normal 0.000000e+000 0.000000e+000 1.000000e+000
      outer loop
         vertex 1.851744e+000 6.706385e+000 1.000000e+001
         vertex 2.003566e+000 7.153639e+000 1.000000e+001
         vertex 0.000000e+000 1.000000e+001 1.000000e+001
      endloop
   endfacet
   facet normal 0.000000e+000 0.000000e+000 1.000000e+000
      outer loop
         vertex 0.000000e+000 1.000000e+001 1.000000e+001
         vertex 2.003566e+000 7.153639e+000 1.000000e+001
         vertex 2.212468e+000 7.577250e+000 1.000000e+001
      endloop
   endfacet
   facet normal 0.000000e+000 0.000000e+000 1.000000e+000
      outer loop
         vertex 0.000000e+000 1.000000e+001 1.000000e+001
         vertex 2.212468e+000 7.577250e+000 1.000000e+001
         vertex 2.474875e+000 7.969969e+000 1.000000e+001
      endloop
   endfacet
   facet normal 0.000000e+000 0.000000e+000 1.000000e+000
      outer loop
         vertex 2.474875e+000 7.969969e+000 1.000000e+001
         vertex 2.786297e+000 8.325079e+000 1.000000e+001
         vertex 0.000000e+000 1.000000e+001 1.000000e+001
      endloop
   endfacet
   facet normal 0.000000e+000 0.000000e+000 1.000000e+000
      outer loop
         vertex 0.000000e+000 1.000000e+001 1.000000e+001
         vertex 2.786297e+000 8.325079e+000 1.000000e+001
         vertex 3.141406e+000 8.636500e+000 1.000000e+001
      endloop
   endfacet
   facet normal 0.000000e+000 0.000000e+000 1.000000e+000
      outer loop
         vertex 0.000000e+000 1.000000e+001 1.000000e+001
         vertex 3.141406e+000 8.636500e+000 1.000000e+001
         vertex 3.534126e+000 8.898908e+000 1.000000e+001
      endloop
   endfacet
   facet normal 0.000000e+000 0.000000e+000 1.000000e+000
      outer loop
         vertex 7.144962e+000 8.898908e+000 1.000000e+001
         vertex 7.537682e+000 8.636500e+000 1.000000e+001
         vertex 1.000000e+001 1.000000e+001 1.000000e+001
      endloop
   endfacet
   facet normal 0.000000e+000 0.000000e+000 1.000000e+000
      outer loop
         vertex 1.000000e+001 1.000000e+001 1.000000e+001
         vertex 7.537682e+000 8.636500e+000 1.000000e+001
         vertex 7.892791e+000 8.325079e+000 1.000000e+001
      endloop
   endfacet
   facet normal 0.000000e+000 0.000000e+000 1.000000e+000
      outer loop
         vertex 1.000000e+001 1.000000e+001 1.000000e+001
         vertex 7.892791e+000 8.325079e+000 1.000000e+001
         vertex 8.204213e+000 7.969969e+000 1.000000e+001
      endloop
   endfacet
   facet normal 0.000000e+000 0.000000e+000 1.000000e+000
      outer loop
         vertex 8.204213e+000 7.969969e+000 1.000000e+001
         vertex 8.466621e+000 7.577250e+000 1.000000e+001
         vertex 1.000000e+001 1.000000e+001 1.000000e+001
      endloop
   endfacet
   facet normal 0.000000e+000 0.000000e+000 1.000000e+000
      outer loop
         vertex 1.000000e+001 1.000000e+001 1.000000e+001
         vertex 8.466621e+000 7.577250e+000 1.000000e+001
         vertex 8.675522e+000 7.153639e+000 1.000000e+001
      endloop
   endfacet
   facet normal 0.000000e+000 0.000000e+000 1.000000e+000
      outer loop
         vertex 1.000000e+001 1.000000e+001 1.000000e+001
         vertex 8.675522e+000 7.153639e+000 1.000000e+001
         vertex 8.827345e+000 6.706385e+000 1.000000e+001
      endloop
   endfacet
   facet normal 0.000000e+000 0.000000e+000 1.000000e+000
      outer loop
         vertex 8.919490e+000 6.243140e+000 1.000000e+001
         vertex 8.950380e+000 5.771831e+000 1.000000e+001
         vertex 1.000000e+001 1.000000e+001 1.000000e+001
      endloop
   endfacet
   facet normal 0.000000e+000 0.000000e+000 1.000000e+000
      outer loop
         vertex 1.000000e+001 1.000000e+001 1.000000e+001
         vertex 8.950380e+000 5.771831e+000 1.000000e+001
         vertex 8.950380e+000 4.574643e+000 1.000000e+001
      endloop
   endfacet
   facet normal 0.000000e+000 0.000000e+000 1.000000e+000
      outer loop
         vertex 1.000000e+001 1.000000e+001 1.000000e+001
         vertex 8.950380e+000 4.574643e+000 1.000000e+001
         vertex 1.000000e+001 0.000000e+000 1.000000e+001
      endloop
   endfacet
   facet normal 0.000000e+000 0.000000e+000 1.000000e+000
      outer loop
         vertex 1.000000e+001 0.000000e+000 1.000000e+001
         vertex 8.950380e+000 4.574643e+000 1.000000e+001
         vertex 8.919490e+000 4.103333e+000 1.000000e+001
      endloop
   endfacet
   facet normal 0.000000e+000 0.000000e+000 1.000000e+000
      outer loop
         vertex 1.000000e+001 0.000000e+000 1.000000e+001
         vertex 8.919490e+000 4.103333e+000 1.000000e+001
         vertex 8.827345e+000 3.640090e+000 1.000000e+001
      endloop
   endfacet
   facet normal 0.000000e+000 0.000000e+000 1.000000e+000
      outer loop
         vertex 1.851744e+000 3.640090e+000 1.000000e+001
         vertex 1.759598e+000 4.103333e+000 1.000000e+001
         vertex 0.000000e+000 0.000000e+000 1.000000e+001
      endloop
   endfacet
   facet normal 0.000000e+000 0.000000e+000 1.000000e+000
      outer loop
         vertex 0.000000e+000 0.000000e+000 1.000000e+001
         vertex 1.759598e+000 4.103333e+000 1.000000e+001
         vertex 1.728707e+000 4.574643e+000 1.000000e+001
      endloop
   endfacet
   facet normal 0.000000e+000 0.000000e+000 1.000000e+000
      outer loop
         vertex 0.000000e+000 0.000000e+000 1.000000e+001
         vertex 1.728707e+000 4.574643e+000 1.000000e+001
         vertex 0.000000e+000 1.000000e+001 1.000000e+001
      endloop
   endfacet
   facet normal 0.000000e+000 0.000000e+000 1.000000e+000
      outer loop
         vertex 0.000000e+000 1.000000e+001 1.000000e+001
         vertex 1.728707e+000 4.574643e+000 1.000000e+001
         vertex 1.728707e+000 5.771831e+000 1.000000e+001
      endloop
   endfacet
   facet normal 0.000000e+000 0.000000e+000 1.000000e+000
      outer loop
         vertex 0.000000e+000 1.000000e+001 1.000000e+001
         vertex 1.728707e+000 5.771831e+000 1.000000e+001
         vertex 1.759598e+000 6.243140e+000 1.000000e+001
      endloop
   endfacet
   facet normal 1.000000e+000 0.000000e+000 0.000000e+000
      outer loop
         vertex 1.000000e+001 1.000000e+001 0.000000e+000
         vertex 1.000000e+001 1.000000e+001 1.000000e+001
         vertex 1.000000e+001 0.000000e+000 0.000000e+000
      endloop
   endfacet
   facet normal 1.000000e+000 0.000000e+000 0.000000e+000
      outer loop
         vertex 1.000000e+001 0.000000e+000 0.000000e+000
         vertex 1.000000e+001 1.000000e+001 1.000000e+001
         vertex 1.000000e+001 0.000000e+000 1.000000e+001
      endloop
   endfacet
   facet normal 0.000000e+000 0.000000e+000 -1.000000e+000
      outer loop
         vertex 0.000000e+000 0.000000e+000 0.000000e+000
         vertex 2.212468e+000 2.769224e+000 0.000000e+000
         vertex 2.474875e+000 2.376504e+000 0.000000e+000
      endloop
   endfacet
   facet normal 0.000000e+000 0.000000e+000 -1.000000e+000
      outer loop
         vertex 3.534126e+000 1.447566e+000 0.000000e+000
         vertex 3.957737e+000 1.238665e+000 0.000000e+000
         vertex 0.000000e+000 0.000000e+000 0.000000e+000
      endloop
   endfacet
   facet normal 0.000000e+000 0.000000e+000 -1.000000e+000
      outer loop
         vertex 0.000000e+000 0.000000e+000 0.000000e+000
         vertex 3.957737e+000 1.238665e+000 0.000000e+000
         vertex 4.404991e+000 1.086842e+000 0.000000e+000
      endloop
   endfacet
   facet normal 0.000000e+000 0.000000e+000 -1.000000e+000
      outer loop
         vertex 7.144962e+000 1.447566e+000 0.000000e+000
         vertex 1.000000e+001 0.000000e+000 0.000000e+000
         vertex 6.721351e+000 1.238665e+000 0.000000e+000
      endloop
   endfacet
   facet normal 0.000000e+000 0.000000e+000 -1.000000e+000
      outer loop
         vertex 6.721351e+000 1.238665e+000 0.000000e+000
         vertex 1.000000e+001 0.000000e+000 0.000000e+000
         vertex 6.274097e+000 1.086842e+000 0.000000e+000
      endloop
   endfacet
   facet normal 0.000000e+000 0.000000e+000 -1.000000e+000
      outer loop
         vertex 2.474875e+000 2.376504e+000 0.000000e+000
         vertex 2.786297e+000 2.021396e+000 0.000000e+000
         vertex 0.000000e+000 0.000000e+000 0.000000e+000
      endloop
   endfacet
   facet normal 0.000000e+000 0.000000e+000 -1.000000e+000
      outer loop
         vertex 0.000000e+000 0.000000e+000 0.000000e+000
         vertex 2.786297e+000 2.021396e+000 0.000000e+000
         vertex 3.141406e+000 1.709973e+000 0.000000e+000
      endloop
   endfacet
   facet normal 0.000000e+000 0.000000e+000 -1.000000e+000
      outer loop
         vertex 0.000000e+000 0.000000e+000 0.000000e+000
         vertex 3.141406e+000 1.709973e+000 0.000000e+000
         vertex 3.534126e+000 1.447566e+000 0.000000e+000
      endloop
   endfacet
   facet normal 0.000000e+000 0.000000e+000 -1.000000e+000
      outer loop
         vertex 4.404991e+000 1.086842e+000 0.000000e+000
         vertex 4.868236e+000 9.946971e-001 0.000000e+000
         vertex 0.000000e+000 0.000000e+000 0.000000e+000
      endloop
   endfacet
   facet normal 0.000000e+000 0.000000e+000 -1.000000e+000
      outer loop
         vertex 0.000000e+000 0.000000e+000 0.000000e+000
         vertex 4.868236e+000 9.946971e-001 0.000000e+000
         vertex 5.339544e+000 9.638059e-001 0.000000e+000
      endloop
   endfacet
   facet normal 0.000000e+000 0.000000e+000 -1.000000e+000
      outer loop
         vertex 0.000000e+000 0.000000e+000 0.000000e+000
         vertex 5.339544e+000 9.638059e-001 0.000000e+000
         vertex 1.000000e+001 0.000000e+000 0.000000e+000
      endloop
   endfacet
   facet normal 0.000000e+000 0.000000e+000 -1.000000e+000
      outer loop
         vertex 1.000000e+001 0.000000e+000 0.000000e+000
         vertex 5.339544e+000 9.638059e-001 0.000000e+000
         vertex 5.810853e+000 9.946971e-001 0.000000e+000
      endloop
   endfacet
   facet normal 0.000000e+000 0.000000e+000 -1.000000e+000
      outer loop
         vertex 1.000000e+001 0.000000e+000 0.000000e+000
         vertex 5.810853e+000 9.946971e-001 0.000000e+000
         vertex 6.274097e+000 1.086842e+000 0.000000e+000
      endloop
   endfacet
   facet normal 0.000000e+000 0.000000e+000 -1.000000e+000
      outer loop
         vertex 1.759598e+000 4.103333e+000 0.000000e+000
         vertex 1.851744e+000 3.640090e+000 0.000000e+000
         vertex 0.000000e+000 0.000000e+000 0.000000e+000
      endloop
   endfacet
   facet normal 0.000000e+000 0.000000e+000 -1.000000e+000
      outer loop
         vertex 0.000000e+000 0.000000e+000 0.000000e+000
         vertex 1.851744e+000 3.640090e+000 0.000000e+000
         vertex 2.003566e+000 3.192835e+000 0.000000e+000
      endloop
   endfacet
   facet normal 0.000000e+000 0.000000e+000 -1.000000e+000
      outer loop
         vertex 0.000000e+000 0.000000e+000 0.000000e+000
         vertex 2.003566e+000 3.192835e+000 0.000000e+000
         vertex 2.212468e+000 2.769224e+000 0.000000e+000
      endloop
   endfacet
   facet normal 0.000000e+000 0.000000e+000 -1.000000e+000
      outer loop
         vertex 7.892791e+000 8.325079e+000 0.000000e+000
         vertex 7.537682e+000 8.636500e+000 0.000000e+000
         vertex 1.000000e+001 1.000000e+001 0.000000e+000
      endloop
   endfacet
   facet normal 0.000000e+000 0.000000e+000 -1.000000e+000
      outer loop
         vertex 4.404991e+000 9.259632e+000 0.000000e+000
         vertex 3.957737e+000 9.107809e+000 0.000000e+000
         vertex 0.000000e+000 1.000000e+001 0.000000e+000
      endloop
   endfacet
   facet normal 0.000000e+000 0.000000e+000 -1.000000e+000
      outer loop
         vertex 0.000000e+000 1.000000e+001 0.000000e+000
         vertex 3.957737e+000 9.107809e+000 0.000000e+000
         vertex 3.534126e+000 8.898908e+000 0.000000e+000
      endloop
   endfacet
   facet normal 0.000000e+000 0.000000e+000 -1.000000e+000
      outer loop
         vertex 3.534126e+000 8.898908e+000 0.000000e+000
         vertex 3.141406e+000 8.636500e+000 0.000000e+000
         vertex 0.000000e+000 1.000000e+001 0.000000e+000
      endloop
   endfacet
   facet normal 0.000000e+000 0.000000e+000 -1.000000e+000
      outer loop
         vertex 0.000000e+000 1.000000e+001 0.000000e+000
         vertex 3.141406e+000 8.636500e+000 0.000000e+000
         vertex 2.786297e+000 8.325079e+000 0.000000e+000
      endloop
   endfacet
   facet normal 0.000000e+000 0.000000e+000 -1.000000e+000
      outer loop
         vertex 0.000000e+000 1.000000e+001 0.000000e+000
         vertex 2.786297e+000 8.325079e+000 0.000000e+000
         vertex 2.474875e+000 7.969969e+000 0.000000e+000
      endloop
   endfacet
   facet normal 0.000000e+000 0.000000e+000 -1.000000e+000
      outer loop
         vertex 2.474875e+000 7.969969e+000 0.000000e+000
         vertex 2.212468e+000 7.577250e+000 0.000000e+000
         vertex 0.000000e+000 1.000000e+001 0.000000e+000
      endloop
   endfacet
   facet normal 0.000000e+000 0.000000e+000 -1.000000e+000
      outer loop
         vertex 0.000000e+000 1.000000e+001 0.000000e+000
         vertex 2.212468e+000 7.577250e+000 0.000000e+000
         vertex 2.003566e+000 7.153639e+000 0.000000e+000
      endloop
   endfacet
   facet normal 0.000000e+000 0.000000e+000 -1.000000e+000
      outer loop
         vertex 0.000000e+000 1.000000e+001 0.000000e+000
         vertex 2.003566e+000 7.153639e+000 0.000000e+000
         vertex 1.851744e+000 6.706385e+000 0.000000e+000
      endloop
   endfacet
   facet normal 0.000000e+000 0.000000e+000 -1.000000e+000
      outer loop
         vertex 1.851744e+000 6.706385e+000 0.000000e+000
         vertex 1.759598e+000 6.243140e+000 0.000000e+000
         vertex 0.000000e+000 1.000000e+001 0.000000e+000
      endloop
   endfacet
   facet normal 0.000000e+000 0.000000e+000 -1.000000e+000
      outer loop
         vertex 0.000000e+000 1.000000e+001 0.000000e+000
         vertex 1.759598e+000 6.243140e+000 0.000000e+000
         vertex 1.728707e+000 5.771831e+000 0.000000e+000
      endloop
   endfacet
   facet normal 0.000000e+000 0.000000e+000 -1.000000e+000
      outer loop
         vertex 0.000000e+000 1.000000e+001 0.000000e+000
         vertex 1.728707e+000 5.771831e+000 0.000000e+000
         vertex 0.000000e+000 0.000000e+000 0.000000e+000
      endloop
   endfacet
   facet normal 0.000000e+000 0.000000e+000 -1.000000e+000
      outer loop
         vertex 0.000000e+000 0.000000e+000 0.000000e+000
         vertex 1.728707e+000 5.771831e+000 0.000000e+000
         vertex 1.728707e+000 4.574643e+000 0.000000e+000
      endloop
   endfacet
   facet normal 0.000000e+000 0.000000e+000 -1.000000e+000
      outer loop
         vertex 0.000000e+000 0.000000e+000 0.000000e+000
         vertex 1.728707e+000 4.574643e+000 0.000000e+000
         vertex 1.759598e+000 4.103333e+000 0.000000e+000
      endloop
   endfacet
   facet normal 0.000000e+000 0.000000e+000 -1.000000e+000
      outer loop
         vertex 8.919490e+000 6.243140e+000 0.000000e+000
         vertex 8.827345e+000 6.706385e+000 0.000000e+000
         vertex 1.000000e+001 1.000000e+001 0.000000e+000
      endloop
   endfacet
   facet normal 0.000000e+000 0.000000e+000 -1.000000e+000
      outer loop
         vertex 1.000000e+001 1.000000e+001 0.000000e+000
         vertex 8.827345e+000 6.706385e+000 0.000000e+000
         vertex 8.675522e+000 7.153639e+000 0.000000e+000
      endloop
   endfacet
   facet normal 0.000000e+000 0.000000e+000 -1.000000e+000
      outer loop
         vertex 7.144962e+000 1.447566e+000 0.000000e+000
         vertex 7.537682e+000 1.709973e+000 0.000000e+000
         vertex 1.000000e+001 0.000000e+000 0.000000e+000
      endloop
   endfacet
   facet normal 0.000000e+000 0.000000e+000 -1.000000e+000
      outer loop
         vertex 1.000000e+001 0.000000e+000 0.000000e+000
         vertex 7.537682e+000 1.709973e+000 0.000000e+000
         vertex 7.892791e+000 2.021396e+000 0.000000e+000
      endloop
   endfacet
   facet normal 0.000000e+000 0.000000e+000 -1.000000e+000
      outer loop
         vertex 1.000000e+001 0.000000e+000 0.000000e+000
         vertex 7.892791e+000 2.021396e+000 0.000000e+000
         vertex 8.204213e+000 2.376504e+000 0.000000e+000
      endloop
   endfacet
   facet normal 0.000000e+000 0.000000e+000 -1.000000e+000
      outer loop
         vertex 8.204213e+000 2.376504e+000 0.000000e+000
         vertex 8.466621e+000 2.769224e+000 0.000000e+000
         vertex 1.000000e+001 0.000000e+000 0.000000e+000
      endloop
   endfacet
   facet normal 0.000000e+000 0.000000e+000 -1.000000e+000
      outer loop
         vertex 1.000000e+001 0.000000e+000 0.000000e+000
         vertex 8.466621e+000 2.769224e+000 0.000000e+000
         vertex 8.675522e+000 3.192835e+000 0.000000e+000
      endloop
   endfacet
   facet normal 0.000000e+000 0.000000e+000 -1.000000e+000
      outer loop
         vertex 1.000000e+001 0.000000e+000 0.000000e+000
         vertex 8.675522e+000 3.192835e+000 0.000000e+000
         vertex 8.827345e+000 3.640090e+000 0.000000e+000
      endloop
   endfacet
   facet normal 0.000000e+000 0.000000e+000 -1.000000e+000
      outer loop
         vertex 8.675522e+000 7.153639e+000 0.000000e+000
         vertex 8.466621e+000 7.577250e+000 0.000000e+000
         vertex 1.000000e+001 1.000000e+001 0.000000e+000
      endloop
   endfacet
   facet normal 0.000000e+000 0.000000e+000 -1.000000e+000
      outer loop
         vertex 1.000000e+001 1.000000e+001 0.000000e+000
         vertex 8.466621e+000 7.577250e+000 0.000000e+000
         vertex 8.204213e+000 7.969969e+000 0.000000e+000
      endloop
   endfacet
   facet normal 0.000000e+000 0.000000e+000 -1.000000e+000
      outer loop
         vertex 1.000000e+001 1.000000e+001 0.000000e+000
         vertex 8.204213e+000 7.969969e+000 0.000000e+000
         vertex 7.892791e+000 8.325079e+000 0.000000e+000
      endloop
   endfacet
   facet normal 0.000000e+000 0.000000e+000 -1.000000e+000
      outer loop
         vertex 7.537682e+000 8.636500e+000 0.000000e+000
         vertex 7.144962e+000 8.898908e+000 0.000000e+000
         vertex 1.000000e+001 1.000000e+001 0.000000e+000
      endloop
   endfacet
   facet normal 0.000000e+000 0.000000e+000 -1.000000e+000
      outer loop
         vertex 1.000000e+001 1.000000e+001 0.000000e+000
         vertex 7.144962e+000 8.898908e+000 0.000000e+000
         vertex 6.721351e+000 9.107809e+000 0.000000e+000
      endloop
   endfacet
   facet normal 0.000000e+000 0.000000e+000 -1.000000e+000
      outer loop
         vertex 1.000000e+001 1.000000e+001 0.000000e+000
         vertex 6.721351e+000 9.107809e+000 0.000000e+000
         vertex 6.274097e+000 9.259632e+000 0.000000e+000
      endloop
   endfacet
   facet normal 0.000000e+000 0.000000e+000 -1.000000e+000
      outer loop
         vertex 6.274097e+000 9.259632e+000 0.000000e+000
         vertex 5.810853e+000 9.351777e+000 0.000000e+000
         vertex 1.000000e+001 1.000000e+001 0.000000e+000
      endloop
   endfacet
   facet normal 0.000000e+000 0.000000e+000 -1.000000e+000
      outer loop
         vertex 1.000000e+001 1.000000e+001 0.000000e+000
         vertex 5.810853e+000 9.351777e+000 0.000000e+000
         vertex 5.339544e+000 9.382668e+000 0.000000e+000
      endloop
   endfacet
   facet normal 0.000000e+000 0.000000e+000 -1.000000e+000
      outer loop
         vertex 1.000000e+001 1.000000e+001 0.000000e+000
         vertex 5.339544e+000 9.382668e+000 0.000000e+000
         vertex 0.000000e+000 1.000000e+001 0.000000e+000
      endloop
   endfacet
   facet normal 0.000000e+000 0.000000e+000 -1.000000e+000
      outer loop
         vertex 0.000000e+000 1.000000e+001 0.000000e+000
         vertex 5.339544e+000 9.382668e+000 0.000000e+000
         vertex 4.868236e+000 9.351777e+000 0.000000e+000
      endloop
   endfacet
   facet normal 0.000000e+000 0.000000e+000 -1.000000e+000
      outer loop
         vertex 0.000000e+000 1.000000e+001 0.000000e+000
         vertex 4.868236e+000 9.351777e+000 0.000000e+000
         vertex 4.404991e+000 9.259632e+000 0.000000e+000
      endloop
   endfacet
   facet normal 0.000000e+000 0.000000e+000 -1.000000e+000
      outer loop
         vertex 8.827345e+000 3.640090e+000 0.000000e+000
         vertex 8.919490e+000 4.103333e+000 0.000000e+000
         vertex 1.000000e+001 0.000000e+000 0.000000e+000
      endloop
   endfacet
   facet normal 0.000000e+000 0.000000e+000 -1.000000e+000
      outer loop
         vertex 1.000000e+001 0.000000e+000 0.000000e+000
         vertex 8.919490e+000 4.103333e+000 0.000000e+000
         vertex 8.950380e+000 4.574643e+000 0.000000e+000
      endloop
   endfacet
   facet normal 0.000000e+000 0.000000e+000 -1.000000e+000
      outer loop
         vertex 1.000000e+001 0.000000e+000 0.000000e+000
         vertex 8.950380e+000 4.574643e+000 0.000000e+000
         vertex 1.000000e+001 1.000000e+001 0.000000e+000
      endloop
   endfacet
   facet normal 0.000000e+000 0.000000e+000 -1.000000e+000
      outer loop
         vertex 1.000000e+001 1.000000e+001 0.000000e+000
         vertex 8.950380e+000 4.574643e+000 0.000000e+000
         vertex 8.950380e+000 5.771831e+000 0.000000e+000
      endloop
   endfacet
   facet normal 0.000000e+000 0.000000e+000 -1.000000e+000
      outer loop
         vertex 1.000000e+001 1.000000e+001 0.000000e+000
         vertex 8.950380e+000 5.771831e+000 0.000000e+000
         vertex 8.919490e+000 6.243140e+000 0.000000e+000
      endloop
   endfacet
   facet normal 0.000000e+000 1.000000e+000 0.000000e+000
      outer loop
         vertex 1.000000e+001 1.000000e+001 1.000000e+001
         vertex 1.000000e+001 1.000000e+001 0.000000e+000
         vertex 0.000000e+000 1.000000e+001 1.000000e+001
      endloop
   endfacet
   facet normal 0.000000e+000 1.000000e+000 0.000000e+000
      outer loop
         vertex 0.000000e+000 1.000000e+001 1.000000e+001
         vertex 1.000000e+001 1.000000e+001 0.000000e+000
         vertex 0.000000e+000 1.000000e+001 0.000000e+000
      endloop
   endfacet
   facet normal 0.000000e+000 -1.000000e+000 0.000000e+000
      outer loop
         vertex 1.000000e+001 0.000000e+000 0.000000e+000
         vertex 1.000000e+001 0.000000e+000 1.000000e+001
         vertex 0.000000e+000 0.000000e+000 0.000000e+000
      endloop
   endfacet
   facet normal 0.000000e+000 -1.000000e+000 0.000000e+000
      outer loop
         vertex 0.000000e+000 0.000000e+000 0.000000e+000
         vertex 1.000000e+001 0.000000e+000 1.000000e+001
         vertex 0.000000e+000 0.000000e+000 1.000000e+001
      endloop
   endfacet
   facet normal 9.990495e-001 4.359168e-002 0.000000e+000
      outer loop
         vertex 1.728707e+000 4.574643e+000 0.000000e+000
         vertex 1.728707e+000 4.574643e+000 1.000000e+001
         vertex 1.759598e+000 4.103333e+000 1.000000e+001
      endloop
   endfacet
   facet normal 9.961922e-001 8.718336e-002 0.000000e+000
      outer loop
         vertex 1.728707e+000 4.574643e+000 0.000000e+000
         vertex 1.759598e+000 4.103333e+000 1.000000e+001
         vertex 1.759598e+000 4.103333e+000 0.000000e+000
      endloop
   endfacet
   facet normal 9.848126e-001 1.736209e-001 0.000000e+000
      outer loop
         vertex 1.759598e+000 4.103333e+000 0.000000e+000
         vertex 1.759598e+000 4.103333e+000 1.000000e+001
         vertex 1.851744e+000 3.640090e+000 1.000000e+001
      endloop
   endfacet
   facet normal 9.762900e-001 2.164667e-001 0.000000e+000
      outer loop
         vertex 1.759598e+000 4.103333e+000 0.000000e+000
         vertex 1.851744e+000 3.640090e+000 1.000000e+001
         vertex 1.851744e+000 3.640090e+000 0.000000e+000
      endloop
   endfacet
   facet normal 9.537253e-001 3.006794e-001 0.000000e+000
      outer loop
         vertex 1.851744e+000 3.640090e+000 0.000000e+000
         vertex 1.851744e+000 3.640090e+000 1.000000e+001
         vertex 2.003566e+000 3.192835e+000 1.000000e+001
      endloop
   endfacet
   facet normal 9.396831e-001 3.420462e-001 0.000000e+000
      outer loop
         vertex 1.851744e+000 3.640090e+000 0.000000e+000
         vertex 2.003566e+000 3.192835e+000 1.000000e+001
         vertex 2.003566e+000 3.192835e+000 0.000000e+000
      endloop
   endfacet
   facet normal 9.063195e-001 4.225931e-001 0.000000e+000
      outer loop
         vertex 2.003566e+000 3.192835e+000 0.000000e+000
         vertex 2.003566e+000 3.192835e+000 1.000000e+001
         vertex 2.212468e+000 2.769224e+000 1.000000e+001
      endloop
   endfacet
   facet normal 8.869980e-001 4.617732e-001 0.000000e+000
      outer loop
         vertex 2.003566e+000 3.192835e+000 0.000000e+000
         vertex 2.212468e+000 2.769224e+000 1.000000e+001
         vertex 2.212468e+000 2.769224e+000 0.000000e+000
      endloop
   endfacet
   facet normal 8.434063e-001 5.372763e-001 0.000000e+000
      outer loop
         vertex 2.212468e+000 2.769224e+000 0.000000e+000
         vertex 2.212468e+000 2.769224e+000 1.000000e+001
         vertex 2.474875e+000 2.376504e+000 1.000000e+001
      endloop
   endfacet
   facet normal 8.191361e-001 5.735992e-001 0.000000e+000
      outer loop
         vertex 2.212468e+000 2.769224e+000 0.000000e+000
         vertex 2.474875e+000 2.376504e+000 1.000000e+001
         vertex 2.474875e+000 2.376504e+000 0.000000e+000
      endloop
   endfacet
   facet normal 7.660623e-001 6.427664e-001 0.000000e+000
      outer loop
         vertex 2.474875e+000 2.376504e+000 0.000000e+000
         vertex 2.474875e+000 2.376504e+000 1.000000e+001
         vertex 2.786297e+000 2.021396e+000 1.000000e+001
      endloop
   endfacet
   facet normal 7.372586e-001 6.756107e-001 0.000000e+000
      outer loop
         vertex 2.474875e+000 2.376504e+000 0.000000e+000
         vertex 2.786297e+000 2.021396e+000 1.000000e+001
         vertex 2.786297e+000 2.021396e+000 0.000000e+000
      endloop
   endfacet
   facet normal 6.756107e-001 7.372586e-001 0.000000e+000
      outer loop
         vertex 2.786297e+000 2.021396e+000 0.000000e+000
         vertex 2.786297e+000 2.021396e+000 1.000000e+001
         vertex 3.141406e+000 1.709973e+000 1.000000e+001
      endloop
   endfacet
   facet normal 6.427664e-001 7.660623e-001 0.000000e+000
      outer loop
         vertex 2.786297e+000 2.021396e+000 0.000000e+000
         vertex 3.141406e+000 1.709973e+000 1.000000e+001
         vertex 3.141406e+000 1.709973e+000 0.000000e+000
      endloop
   endfacet
   facet normal 5.735992e-001 8.191361e-001 0.000000e+000
      outer loop
         vertex 3.141406e+000 1.709973e+000 0.000000e+000
         vertex 3.141406e+000 1.709973e+000 1.000000e+001
         vertex 3.534126e+000 1.447566e+000 1.000000e+001
      endloop
   endfacet
   facet normal 5.372762e-001 8.434064e-001 0.000000e+000
      outer loop
         vertex 3.141406e+000 1.709973e+000 0.000000e+000
         vertex 3.534126e+000 1.447566e+000 1.000000e+001
         vertex 3.534126e+000 1.447566e+000 0.000000e+000
      endloop
   endfacet
   facet normal 4.617732e-001 8.869980e-001 0.000000e+000
      outer loop
         vertex 3.534126e+000 1.447566e+000 0.000000e+000
         vertex 3.534126e+000 1.447566e+000 1.000000e+001
         vertex 3.957737e+000 1.238665e+000 1.000000e+001
      endloop
   endfacet
   facet normal 4.225931e-001 9.063195e-001 0.000000e+000
      outer loop
         vertex 3.534126e+000 1.447566e+000 0.000000e+000
         vertex 3.957737e+000 1.238665e+000 1.000000e+001
         vertex 3.957737e+000 1.238665e+000 0.000000e+000
      endloop
   endfacet
   facet normal 3.420462e-001 9.396831e-001 0.000000e+000
      outer loop
         vertex 3.957737e+000 1.238665e+000 0.000000e+000
         vertex 3.957737e+000 1.238665e+000 1.000000e+001
         vertex 4.404991e+000 1.086842e+000 1.000000e+001
      endloop
   endfacet
   facet normal 3.006794e-001 9.537253e-001 0.000000e+000
      outer loop
         vertex 3.957737e+000 1.238665e+000 0.000000e+000
         vertex 4.404991e+000 1.086842e+000 1.000000e+001
         vertex 4.404991e+000 1.086842e+000 0.000000e+000
      endloop
   endfacet
   facet normal 2.164667e-001 9.762900e-001 0.000000e+000
      outer loop
         vertex 4.404991e+000 1.086842e+000 0.000000e+000
         vertex 4.404991e+000 1.086842e+000 1.000000e+001
         vertex 4.868236e+000 9.946971e-001 1.000000e+001
      endloop
   endfacet
   facet normal 1.736209e-001 9.848126e-001 0.000000e+000
      outer loop
         vertex 4.404991e+000 1.086842e+000 0.000000e+000
         vertex 4.868236e+000 9.946971e-001 1.000000e+001
         vertex 4.868236e+000 9.946971e-001 0.000000e+000
      endloop
   endfacet
   facet normal 8.718336e-002 9.961922e-001 0.000000e+000
      outer loop
         vertex 4.868236e+000 9.946971e-001 0.000000e+000
         vertex 4.868236e+000 9.946971e-001 1.000000e+001
         vertex 5.339544e+000 9.638059e-001 1.000000e+001
      endloop
   endfacet
   facet normal 4.359168e-002 9.990495e-001 0.000000e+000
      outer loop
         vertex 4.868236e+000 9.946971e-001 0.000000e+000
         vertex 5.339544e+000 9.638059e-001 1.000000e+001
         vertex 5.339544e+000 9.638059e-001 0.000000e+000
      endloop
   endfacet
   facet normal -4.359168e-002 9.990495e-001 0.000000e+000
      outer loop
         vertex 5.339544e+000 9.638059e-001 0.000000e+000
         vertex 5.339544e+000 9.638059e-001 1.000000e+001
         vertex 5.810853e+000 9.946971e-001 1.000000e+001
      endloop
   endfacet
   facet normal -8.718336e-002 9.961922e-001 0.000000e+000
      outer loop
         vertex 5.339544e+000 9.638059e-001 0.000000e+000
         vertex 5.810853e+000 9.946971e-001 1.000000e+001
         vertex 5.810853e+000 9.946971e-001 0.000000e+000
      endloop
   endfacet
   facet normal -1.736209e-001 9.848126e-001 0.000000e+000
      outer loop
         vertex 5.810853e+000 9.946971e-001 0.000000e+000
         vertex 5.810853e+000 9.946971e-001 1.000000e+001
         vertex 6.274097e+000 1.086842e+000 1.000000e+001
      endloop
   endfacet
   facet normal -2.164667e-001 9.762900e-001 0.000000e+000
      outer loop
         vertex 5.810853e+000 9.946971e-001 0.000000e+000
         vertex 6.274097e+000 1.086842e+000 1.000000e+001
         vertex 6.274097e+000 1.086842e+000 0.000000e+000
      endloop
   endfacet
   facet normal -3.006794e-001 9.537253e-001 0.000000e+000
      outer loop
         vertex 6.274097e+000 1.086842e+000 0.000000e+000
         vertex 6.274097e+000 1.086842e+000 1.000000e+001
         vertex 6.721351e+000 1.238665e+000 1.000000e+001
      endloop
   endfacet
   facet normal -3.420462e-001 9.396831e-001 0.000000e+000
      outer loop
         vertex 6.274097e+000 1.086842e+000 0.000000e+000
         vertex 6.721351e+000 1.238665e+000 1.000000e+001
         vertex 6.721351e+000 1.238665e+000 0.000000e+000
      endloop
   endfacet
   facet normal -4.225931e-001 9.063195e-001 0.000000e+000
      outer loop
         vertex 6.721351e+000 1.238665e+000 0.000000e+000
         vertex 6.721351e+000 1.238665e+000 1.000000e+001
         vertex 7.144962e+000 1.447566e+000 1.000000e+001
      endloop
   endfacet
   facet normal -4.617732e-001 8.869980e-001 0.000000e+000
      outer loop
         vertex 6.721351e+000 1.238665e+000 0.000000e+000
         vertex 7.144962e+000 1.447566e+000 1.000000e+001
         vertex 7.144962e+000 1.447566e+000 0.000000e+000
      endloop
   endfacet
   facet normal -5.372763e-001 8.434063e-001 0.000000e+000
      outer loop
         vertex 7.144962e+000 1.447566e+000 0.000000e+000
         vertex 7.144962e+000 1.447566e+000 1.000000e+001
         vertex 7.537682e+000 1.709973e+000 1.000000e+001
      endloop
   endfacet
   facet normal -5.735992e-001 8.191361e-001 0.000000e+000
      outer loop
         vertex 7.144962e+000 1.447566e+000 0.000000e+000
         vertex 7.537682e+000 1.709973e+000 1.000000e+001
         vertex 7.537682e+000 1.709973e+000 0.000000e+000
      endloop
   endfacet
   facet normal -6.427664e-001 7.660623e-001 0.000000e+000
      outer loop
         vertex 7.537682e+000 1.709973e+000 0.000000e+000
         vertex 7.537682e+000 1.709973e+000 1.000000e+001
         vertex 7.892791e+000 2.021396e+000 1.000000e+001
      endloop
   endfacet
   facet normal -6.756107e-001 7.372586e-001 0.000000e+000
      outer loop
         vertex 7.537682e+000 1.709973e+000 0.000000e+000
         vertex 7.892791e+000 2.021396e+000 1.000000e+001
         vertex 7.892791e+000 2.021396e+000 0.000000e+000
      endloop
   endfacet
   facet normal -7.372586e-001 6.756107e-001 0.000000e+000
      outer loop
         vertex 7.892791e+000 2.021396e+000 0.000000e+000
         vertex 7.892791e+000 2.021396e+000 1.000000e+001
         vertex 8.204213e+000 2.376504e+000 1.000000e+001
      endloop
   endfacet
   facet normal -7.660623e-001 6.427664e-001 0.000000e+000
      outer loop
         vertex 7.892791e+000 2.021396e+000 0.000000e+000
         vertex 8.204213e+000 2.376504e+000 1.000000e+001
         vertex 8.204213e+000 2.376504e+000 0.000000e+000
      endloop
   endfacet
   facet normal -8.191361e-001 5.735992e-001 0.000000e+000
      outer loop
         vertex 8.204213e+000 2.376504e+000 0.000000e+000
         vertex 8.204213e+000 2.376504e+000 1.000000e+001
         vertex 8.466621e+000 2.769224e+000 1.000000e+001
      endloop
   endfacet
   facet normal -8.434064e-001 5.372762e-001 0.000000e+000
      outer loop
         vertex 8.204213e+000 2.376504e+000 0.000000e+000
         vertex 8.466621e+000 2.769224e+000 1.000000e+001
         vertex 8.466621e+000 2.769224e+000 0.000000e+000
      endloop
   endfacet
   facet normal -8.869980e-001 4.617732e-001 0.000000e+000
      outer loop
         vertex 8.466621e+000 2.769224e+000 0.000000e+000
         vertex 8.466621e+000 2.769224e+000 1.000000e+001
         vertex 8.675522e+000 3.192835e+000 1.000000e+001
      endloop
   endfacet
   facet normal -9.063195e-001 4.225931e-001 0.000000e+000
      outer loop
         vertex 8.466621e+000 2.769224e+000 0.000000e+000
         vertex 8.675522e+000 3.192835e+000 1.000000e+001
         vertex 8.675522e+000 3.192835e+000 0.000000e+000
      endloop
   endfacet
   facet normal -9.396831e-001 3.420462e-001 0.000000e+000
      outer loop
         vertex 8.675522e+000 3.192835e+000 0.000000e+000
         vertex 8.675522e+000 3.192835e+000 1.000000e+001
         vertex 8.827345e+000 3.640090e+000 1.000000e+001
      endloop
   endfacet
   facet normal -9.537253e-001 3.006794e-001 0.000000e+000
      outer loop
         vertex 8.675522e+000 3.192835e+000 0.000000e+000
         vertex 8.827345e+000 3.640090e+000 1.000000e+001
         vertex 8.827345e+000 3.640090e+000 0.000000e+000
      endloop
   endfacet
   facet normal -9.762900e-001 2.164667e-001 0.000000e+000
      outer loop
         vertex 8.827345e+000 3.640090e+000 0.000000e+000
         vertex 8.827345e+000 3.640090e+000 1.000000e+001
         vertex 8.919490e+000 4.103333e+000 1.000000e+001
      endloop
   endfacet
   facet normal -9.848126e-001 1.736209e-001 0.000000e+000
      outer loop
         vertex 8.827345e+000 3.640090e+000 0.000000e+000
         vertex 8.919490e+000 4.103333e+000 1.000000e+001
         vertex 8.919490e+000 4.103333e+000 0.000000e+000
      endloop
   endfacet
   facet normal -9.961922e-001 8.718336e-002 0.000000e+000
      outer loop
         vertex 8.919490e+000 4.103333e+000 0.000000e+000
         vertex 8.919490e+000 4.103333e+000 1.000000e+001
         vertex 8.950380e+000 4.574643e+000 1.000000e+001
      endloop
   endfacet
   facet normal -9.990495e-001 4.359168e-002 0.000000e+000
      outer loop
         vertex 8.919490e+000 4.103333e+000 0.000000e+000
         vertex 8.950380e+000 4.574643e+000 1.000000e+001
         vertex 8.950380e+000 4.574643e+000 0.000000e+000
      endloop
   endfacet
   facet normal 1.000000e+000 0.000000e+000 0.000000e+000
      outer loop
         vertex 1.728707e+000 4.574643e+000 0.000000e+000
         vertex 1.728707e+000 5.771831e+000 0.000000e+000
         vertex 1.728707e+000 4.574643e+000 1.000000e+001
      endloop
   endfacet
   facet normal 1.000000e+000 0.000000e+000 0.000000e+000
      outer loop
         vertex 1.728707e+000 4.574643e+000 1.000000e+001
         vertex 1.728707e+000 5.771831e+000 0.000000e+000
         vertex 1.728707e+000 5.771831e+000 1.000000e+001
      endloop
   endfacet
   facet normal -9.990495e-001 -4.359168e-002 0.000000e+000
      outer loop
         vertex 8.950380e+000 5.771831e+000 0.000000e+000
         vertex 8.950380e+000 5.771831e+000 1.000000e+001
         vertex 8.919490e+000 6.243140e+000 1.000000e+001
      endloop
   endfacet
   facet normal -9.961922e-001 -8.718336e-002 0.000000e+000
      outer loop
         vertex 8.950380e+000 5.771831e+000 0.000000e+000
         vertex 8.919490e+000 6.243140e+000 1.000000e+001
         vertex 8.919490e+000 6.243140e+000 0.000000e+000
      endloop
   endfacet
   facet normal -9.848126e-001 -1.736209e-001 0.000000e+000
      outer loop
         vertex 8.919490e+000 6.243140e+000 0.000000e+000
         vertex 8.919490e+000 6.243140e+000 1.000000e+001
         vertex 8.827345e+000 6.706385e+000 1.000000e+001
      endloop
   endfacet
   facet normal -9.762900e-001 -2.164667e-001 0.000000e+000
      outer loop
         vertex 8.919490e+000 6.243140e+000 0.000000e+000
         vertex 8.827345e+000 6.706385e+000 1.000000e+001
         vertex 8.827345e+000 6.706385e+000 0.000000e+000
      endloop
   endfacet
   facet normal -9.537253e-001 -3.006794e-001 0.000000e+000
      outer loop
         vertex 8.827345e+000 6.706385e+000 0.000000e+000
         vertex 8.827345e+000 6.706385e+000 1.000000e+001
         vertex 8.675522e+000 7.153639e+000 1.000000e+001
      endloop
   endfacet
   facet normal -9.396831e-001 -3.420462e-001 0.000000e+000
      outer loop
         vertex 8.827345e+000 6.706385e+000 0.000000e+000
         vertex 8.675522e+000 7.153639e+000 1.000000e+001
         vertex 8.675522e+000 7.153639e+000 0.000000e+000
      endloop
   endfacet
   facet normal -9.063195e-001 -4.225931e-001 0.000000e+000
      outer loop
         vertex 8.675522e+000 7.153639e+000 0.000000e+000
         vertex 8.675522e+000 7.153639e+000 1.000000e+001
         vertex 8.466621e+000 7.577250e+000 1.000000e+001
      endloop
   endfacet
   facet normal -8.869980e-001 -4.617732e-001 0.000000e+000
      outer loop
         vertex 8.675522e+000 7.153639e+000 0.000000e+000
         vertex 8.466621e+000 7.577250e+000 1.000000e+001
         vertex 8.466621e+000 7.577250e+000 0.000000e+000
      endloop
   endfacet
   facet normal -8.434063e-001 -5.372763e-001 0.000000e+000
      outer loop
         vertex 8.466621e+000 7.577250e+000 0.000000e+000
         vertex 8.466621e+000 7.577250e+000 1.000000e+001
         vertex 8.204213e+000 7.969969e+000 1.000000e+001
      endloop
   endfacet
   facet normal -8.191361e-001 -5.735992e-001 0.000000e+000
      outer loop
         vertex 8.466621e+000 7.577250e+000 0.000000e+000
         vertex 8.204213e+000 7.969969e+000 1.000000e+001
         vertex 8.204213e+000 7.969969e+000 0.000000e+000
      endloop
   endfacet
   facet normal -7.660623e-001 -6.427664e-001 0.000000e+000
      outer loop
         vertex 8.204213e+000 7.969969e+000 0.000000e+000
         vertex 8.204213e+000 7.969969e+000 1.000000e+001
         vertex 7.892791e+000 8.325079e+000 1.000000e+001
      endloop
   endfacet
   facet normal -7.372586e-001 -6.756107e-001 0.000000e+000
      outer loop
         vertex 8.204213e+000 7.969969e+000 0.000000e+000
         vertex 7.892791e+000 8.325079e+000 1.000000e+001
         vertex 7.892791e+000 8.325079e+000 0.000000e+000
      endloop
   endfacet
   facet normal -6.756107e-001 -7.372586e-001 0.000000e+000
      outer loop
         vertex 7.892791e+000 8.325079e+000 0.000000e+000
         vertex 7.892791e+000 8.325079e+000 1.000000e+001
         vertex 7.537682e+000 8.636500e+000 1.000000e+001
      endloop
   endfacet
   facet normal -6.427664e-001 -7.660623e-001 0.000000e+000
      outer loop
         vertex 7.892791e+000 8.325079e+000 0.000000e+000
         vertex 7.537682e+000 8.636500e+000 1.000000e+001
         vertex 7.537682e+000 8.636500e+000 0.000000e+000
      endloop
   endfacet
   facet normal -5.735992e-001 -8.191361e-001 0.000000e+000
      outer loop
         vertex 7.537682e+000 8.636500e+000 0.000000e+000
         vertex 7.537682e+000 8.636500e+000 1.000000e+001
         vertex 7.144962e+000 8.898908e+000 1.000000e+001
      endloop
   endfacet
   facet normal -5.372762e-001 -8.434064e-001 0.000000e+000
      outer loop
         vertex 7.537682e+000 8.636500e+000 0.000000e+000
         vertex 7.144962e+000 8.898908e+000 1.000000e+001
         vertex 7.144962e+000 8.898908e+000 0.000000e+000
      endloop
   endfacet
   facet normal -4.617732e-001 -8.869980e-001 0.000000e+000
      outer loop
         vertex 7.144962e+000 8.898908e+000 0.000000e+000
         vertex 7.144962e+000 8.898908e+000 1.000000e+001
         vertex 6.721351e+000 9.107809e+000 1.000000e+001
      endloop
   endfacet
   facet normal -4.225931e-001 -9.063195e-001 0.000000e+000
      outer loop
         vertex 7.144962e+000 8.898908e+000 0.000000e+000
         vertex 6.721351e+000 9.107809e+000 1.000000e+001
         vertex 6.721351e+000 9.107809e+000 0.000000e+000
      endloop
   endfacet
   facet normal -3.420462e-001 -9.396831e-001 0.000000e+000
      outer loop
         vertex 6.721351e+000 9.107809e+000 0.000000e+000
         vertex 6.721351e+000 9.107809e+000 1.000000e+001
         vertex 6.274097e+000 9.259632e+000 1.000000e+001
      endloop
   endfacet
   facet normal -3.006794e-001 -9.537253e-001 0.000000e+000
      outer loop
         vertex 6.721351e+000 9.107809e+000 0.000000e+000
         vertex 6.274097e+000 9.259632e+000 1.000000e+001
         vertex 6.274097e+000 9.259632e+000 0.000000e+000
      endloop
   endfacet
   facet normal -2.164667e-001 -9.762900e-001 0.000000e+000
      outer loop
         vertex 6.274097e+000 9.259632e+000 0.000000e+000
         vertex 6.274097e+000 9.259632e+000 1.000000e+001
         vertex 5.810853e+000 9.351777e+000 1.000000e+001
      endloop
   endfacet
   facet normal -1.736209e-001 -9.848126e-001 0.000000e+000
      outer loop
         vertex 6.274097e+000 9.259632e+000 0.000000e+000
         vertex 5.810853e+000 9.351777e+000 1.000000e+001
         vertex 5.810853e+000 9.351777e+000 0.000000e+000
      endloop
   endfacet
   facet normal -8.718336e-002 -9.961922e-001 0.000000e+000
      outer loop
         vertex 5.810853e+000 9.351777e+000 0.000000e+000
         vertex 5.810853e+000 9.351777e+000 1.000000e+001
         vertex 5.339544e+000 9.382668e+000 1.000000e+001
      endloop
   endfacet
   facet normal -4.359168e-002 -9.990495e-001 0.000000e+000
      outer loop
         vertex 5.810853e+000 9.351777e+000 0.000000e+000
         vertex 5.339544e+000 9.382668e+000 1.000000e+001
         vertex 5.339544e+000 9.382668e+000 0.000000e+000
      endloop
   endfacet
   facet normal 4.359168e-002 -9.990495e-001 0.000000e+000
      outer loop
         vertex 5.339544e+000 9.382668e+000 0.000000e+000
         vertex 5.339544e+000 9.382668e+000 1.000000e+001
         vertex 4.868236e+000 9.351777e+000 1.000000e+001
      endloop
   endfacet
   facet normal 8.718336e-002 -9.961922e-001 0.000000e+000
      outer loop
         vertex 5.339544e+000 9.382668e+000 0.000000e+000
         vertex 4.868236e+000 9.351777e+000 1.000000e+001
         vertex 4.868236e+000 9.351777e+000 0.000000e+000
      endloop
   endfacet
   facet normal 1.736209e-001 -9.848126e-001 0.000000e+000
      outer loop
         vertex 4.868236e+000 9.351777e+000 0.000000e+000
         vertex 4.868236e+000 9.351777e+000 1.000000e+001
         vertex 4.404991e+000 9.259632e+000 1.000000e+001
      endloop
   endfacet
   facet normal 2.164667e-001 -9.762900e-001 0.000000e+000
      outer loop
         vertex 4.868236e+000 9.351777e+000 0.000000e+000
         vertex 4.404991e+000 9.259632e+000 1.000000e+001
         vertex 4.404991e+000 9.259632e+000 0.000000e+000
      endloop
   endfacet
   facet normal 3.006794e-001 -9.537253e-001 0.000000e+000
      outer loop
         vertex 4.404991e+000 9.259632e+000 0.000000e+000
         vertex 4.404991e+000 9.259632e+000 1.000000e+001
         vertex 3.957737e+000 9.107809e+000 1.000000e+001
      endloop
   endfacet
   facet normal 3.420462e-001 -9.396831e-001 0.000000e+000
      outer loop
         vertex 4.404991e+000 9.259632e+000 0.000000e+000
         vertex 3.957737e+000 9.107809e+000 1.000000e+001
         vertex 3.957737e+000 9.107809e+000 0.000000e+000
      endloop
   endfacet
   facet normal 4.225931e-001 -9.063195e-001 0.000000e+000
      outer loop
         vertex 3.957737e+000 9.107809e+000 0.000000e+000
         vertex 3.957737e+000 9.107809e+000 1.000000e+001
         vertex 3.534126e+000 8.898908e+000 1.000000e+001
      endloop
   endfacet
   facet normal 4.617732e-001 -8.869980e-001 0.000000e+000
      outer loop
         vertex 3.957737e+000 9.107809e+000 0.000000e+000
         vertex 3.534126e+000 8.898908e+000 1.000000e+001
         vertex 3.534126e+000 8.898908e+000 0.000000e+000
      endloop
   endfacet
   facet normal 5.372763e-001 -8.434063e-001 0.000000e+000
      outer loop
         vertex 3.534126e+000 8.898908e+000 0.000000e+000
         vertex 3.534126e+000 8.898908e+000 1.000000e+001
         vertex 3.141406e+000 8.636500e+000 1.000000e+001
      endloop
   endfacet
   facet normal 5.735992e-001 -8.191361e-001 0.000000e+000
      outer loop
         vertex 3.534126e+000 8.898908e+000 0.000000e+000
         vertex 3.141406e+000 8.636500e+000 1.000000e+001
         vertex 3.141406e+000 8.636500e+000 0.000000e+000
      endloop
   endfacet
   facet normal 6.427664e-001 -7.660623e-001 0.000000e+000
      outer loop
         vertex 3.141406e+000 8.636500e+000 0.000000e+000
         vertex 3.141406e+000 8.636500e+000 1.000000e+001
         vertex 2.786297e+000 8.325079e+000 1.000000e+001
      endloop
   endfacet
   facet normal 6.756107e-001 -7.372586e-001 0.000000e+000
      outer loop
         vertex 3.141406e+000 8.636500e+000 0.000000e+000
         vertex 2.786297e+000 8.325079e+000 1.000000e+001
         vertex 2.786297e+000 8.325079e+000 0.000000e+000
      endloop
   endfacet
   facet normal 7.372586e-001 -6.756107e-001 0.000000e+000
      outer loop
         vertex 2.786297e+000 8.325079e+000 0.000000e+000
         vertex 2.786297e+000 8.325079e+000 1.000000e+001
         vertex 2.474875e+000 7.969969e+000 1.000000e+001
      endloop
   endfacet
   facet normal 7.660623e-001 -6.427664e-001 0.000000e+000
      outer loop
         vertex 2.786297e+000 8.325079e+000 0.000000e+000
         vertex 2.474875e+000 7.969969e+000 1.000000e+001
         vertex 2.474875e+000 7.969969e+000 0.000000e+000
      endloop
   endfacet
   facet normal 8.191361e-001 -5.735992e-001 0.000000e+000
      outer loop
         vertex 2.474875e+000 7.969969e+000 0.000000e+000
         vertex 2.474875e+000 7.969969e+000 1.000000e+001
         vertex 2.212468e+000 7.577250e+000 1.000000e+001
      endloop
   endfacet
   facet normal 8.434064e-001 -5.372762e-001 0.000000e+000
      outer loop
         vertex 2.474875e+000 7.969969e+000 0.000000e+000
         vertex 2.212468e+000 7.577250e+000 1.000000e+001
         vertex 2.212468e+000 7.577250e+000 0.000000e+000
      endloop
   endfacet
   facet normal 8.869980e-001 -4.617732e-001 0.000000e+000
      outer loop
         vertex 2.212468e+000 7.577250e+000 0.000000e+000
         vertex 2.212468e+000 7.577250e+000 1.000000e+001
         vertex 2.003566e+000 7.153639e+000 1.000000e+001
      endloop
   endfacet
   facet normal 9.063195e-001 -4.225931e-001 0.000000e+000
      outer loop
         vertex 2.212468e+000 7.577250e+000 0.000000e+000
         vertex 2.003566e+000 7.153639e+000 1.000000e+001
         vertex 2.003566e+000 7.153639e+000 0.000000e+000
      endloop
   endfacet
   facet normal 9.396831e-001 -3.420462e-001 0.000000e+000
      outer loop
         vertex 2.003566e+000 7.153639e+000 0.000000e+000
         vertex 2.003566e+000 7.153639e+000 1.000000e+001
         vertex 1.851744e+000 6.706385e+000 1.000000e+001
      endloop
   endfacet
   facet normal 9.537253e-001 -3.006794e-001 0.000000e+000
      outer loop
         vertex 2.003566e+000 7.153639e+000 0.000000e+000
         vertex 1.851744e+000 6.706385e+000 1.000000e+001
         vertex 1.851744e+000 6.706385e+000 0.000000e+000
      endloop
   endfacet
   facet normal 9.762900e-001 -2.164667e-001 0.000000e+000
      outer loop
         vertex 1.851744e+000 6.706385e+000 0.000000e+000
         vertex 1.851744e+000 6.706385e+000 1.000000e+001
         vertex 1.759598e+000 6.243140e+000 1.000000e+001
      endloop
   endfacet
   facet normal 9.848126e-001 -1.736209e-001 0.000000e+000
      outer loop
         vertex 1.851744e+000 6.706385e+000 0.000000e+000
         vertex 1.759598e+000 6.243140e+000 1.000000e+001
         vertex 1.759598e+000 6.243140e+000 0.000000e+000
      endloop
   endfacet
   facet normal 9.961922e-001 -8.718336e-002 0.000000e+000
      outer loop
         vertex 1.759598e+000 6.243140e+000 0.000000e+000
         vertex 1.759598e+000 6.243140e+000 1.000000e+001
         vertex 1.728707e+000 5.771831e+000 1.000000e+001
      endloop
   endfacet
   facet normal 9.990495e-001 -4.359168e-002 0.000000e+000
      outer loop
         vertex 1.759598e+000 6.243140e+000 0.000000e+000
         vertex 1.728707e+000 5.771831e+000 1.000000e+001
         vertex 1.728707e+000 5.771831e+000 0.000000e+000
      endloop
   endfacet
   facet normal -1.000000e+000 0.000000e+000 0.000000e+000
      outer loop
         vertex 8.950380e+000 5.771831e+000 0.000000e+000
         vertex 8.950380e+000 4.574643e+000 0.000000e+000
         vertex 8.950380e+000 5.771831e+000 1.000000e+001
      endloop
   endfacet
   facet normal -1.000000e+000 0.000000e+000 0.000000e+000
      outer loop
         vertex 8.950380e+000 5.771831e+000 1.000000e+001
         vertex 8.950380e+000 4.574643e+000 0.000000e+000
         vertex 8.950380e+000 4.574643e+000 1.000000e+001
      endloop
   endfacet
endsolid