solid 11_112
   facet normal -1.000000e+000 0.000000e+000 0.000000e+000
      outer loop
         vertex 0.000000e+000 1.000000e+001 1.000000e+001
         vertex 0.000000e+000 1.000000e+001 0.000000e+000
         vertex 0.000000e+000 0.000000e+000 1.000000e+001
      endloop
   endfacet
   facet normal -1.000000e+000 0.000000e+000 0.000000e+000
      outer loop
         vertex 0.000000e+000 0.000000e+000 1.000000e+001
         vertex 0.000000e+000 1.000000e+001 0.000000e+000
         vertex 0.000000e+000 0.000000e+000 0.000000e+000
      endloop
   endfacet
   facet normal 0.000000e+000 0.000000e+000 1.000000e+000
      outer loop
         vertex 3.976352e+000 7.041713e-001 1.000000e+001
         vertex 3.513452e+000 8.613048e-001 1.000000e+001
         vertex 0.000000e+000 0.000000e+000 1.000000e+001
      endloop
   endfacet
   facet normal 0.000000e+000 0.000000e+000 1.000000e+000
      outer loop
         vertex 0.000000e+000 0.000000e+000 1.000000e+001
         vertex 3.513452e+000 8.613048e-001 1.000000e+001
         vertex 3.075022e+000 1.077515e+000 1.000000e+001
      endloop
   endfacet
   facet normal 0.000000e+000 0.000000e+000 1.000000e+000
      outer loop
         vertex 0.000000e+000 0.000000e+000 1.000000e+001
         vertex 3.075022e+000 1.077515e+000 1.000000e+001
         vertex 2.668564e+000 1.349101e+000 1.000000e+001
      endloop
   endfacet
   facet normal 0.000000e+000 0.000000e+000 1.000000e+000
      outer loop
         vertex 2.668564e+000 1.349101e+000 1.000000e+001
         vertex 2.301032e+000 1.671418e+000 1.000000e+001
         vertex 0.000000e+000 0.000000e+000 1.000000e+001
      endloop
   endfacet
   facet normal 0.000000e+000 0.000000e+000 1.000000e+000
      outer loop
         vertex 0.000000e+000 0.000000e+000 1.000000e+001
         vertex 2.301032e+000 1.671418e+000 1.000000e+001
         vertex 1.978715e+000 2.038950e+000 1.000000e+001
      endloop
   endfacet
   facet normal 0.000000e+000 0.000000e+000 1.000000e+000
      outer loop
         vertex 0.000000e+000 0.000000e+000 1.000000e+001
         vertex 1.978715e+000 2.038950e+000 1.000000e+001
         vertex 1.707129e+000 2.445408e+000 1.000000e+001
      endloop
   endfacet
   facet normal 0.000000e+000 0.000000e+000 1.000000e+000
      outer loop
         vertex 3.976352e+000 9.295638e+000 1.000000e+001
         vertex 0.000000e+000 1.000000e+001 1.000000e+001
         vertex 3.513452e+000 9.138504e+000 1.000000e+001
      endloop
   endfacet
   facet normal 0.000000e+000 0.000000e+000 1.000000e+000
      outer loop
         vertex 3.513452e+000 9.138504e+000 1.000000e+001
         vertex 0.000000e+000 1.000000e+001 1.000000e+001
         vertex 3.075022e+000 8.922295e+000 1.000000e+001
      endloop
   endfacet
   facet normal 0.000000e+000 0.000000e+000 1.000000e+000
      outer loop
         vertex 5.431396e+000 9.391006e+000 1.000000e+001
         vertex 1.000000e+001 1.000000e+001 1.000000e+001
         vertex 4.943599e+000 9.422978e+000 1.000000e+001
      endloop
   endfacet
   facet normal 0.000000e+000 0.000000e+000 1.000000e+000
      outer loop
         vertex 4.943599e+000 9.422978e+000 1.000000e+001
         vertex 1.000000e+001 1.000000e+001 1.000000e+001
         vertex 0.000000e+000 1.000000e+001 1.000000e+001
      endloop
   endfacet
   facet normal 0.000000e+000 0.000000e+000 1.000000e+000
      outer loop
         vertex 4.943599e+000 9.422978e+000 1.000000e+001
         vertex 0.000000e+000 1.000000e+001 1.000000e+001
         vertex 4.455802e+000 9.391006e+000 1.000000e+001
      endloop
   endfacet
   facet normal 0.000000e+000 0.000000e+000 1.000000e+000
      outer loop
         vertex 4.455802e+000 9.391006e+000 1.000000e+001
         vertex 0.000000e+000 1.000000e+001 1.000000e+001
         vertex 3.976352e+000 9.295638e+000 1.000000e+001
      endloop
   endfacet
   facet normal 0.000000e+000 0.000000e+000 1.000000e+000
      outer loop
         vertex 7.218634e+000 1.349101e+000 1.000000e+001
         vertex 6.812176e+000 1.077515e+000 1.000000e+001
         vertex 1.000000e+001 0.000000e+000 1.000000e+001
      endloop
   endfacet
   facet normal 0.000000e+000 0.000000e+000 1.000000e+000
      outer loop
         vertex 1.000000e+001 0.000000e+000 1.000000e+001
         vertex 6.812176e+000 1.077515e+000 1.000000e+001
         vertex 6.373746e+000 8.613048e-001 1.000000e+001
      endloop
   endfacet
   facet normal 0.000000e+000 0.000000e+000 1.000000e+000
      outer loop
         vertex 1.000000e+001 0.000000e+000 1.000000e+001
         vertex 6.373746e+000 8.613048e-001 1.000000e+001
         vertex 5.910845e+000 7.041713e-001 1.000000e+001
      endloop
   endfacet
   facet normal 0.000000e+000 0.000000e+000 1.000000e+000
      outer loop
         vertex 5.910845e+000 7.041713e-001 1.000000e+001
         vertex 5.431396e+000 6.088027e-001 1.000000e+001
         vertex 1.000000e+001 0.000000e+000 1.000000e+001
      endloop
   endfacet
   facet normal 0.000000e+000 0.000000e+000 1.000000e+000
      outer loop
         vertex 1.000000e+001 0.000000e+000 1.000000e+001
         vertex 5.431396e+000 6.088027e-001 1.000000e+001
         vertex 4.943599e+000 5.768309e-001 1.000000e+001
      endloop
   endfacet
   facet normal 0.000000e+000 0.000000e+000 1.000000e+000
      outer loop
         vertex 1.000000e+001 0.000000e+000 1.000000e+001
         vertex 4.943599e+000 5.768309e-001 1.000000e+001
         vertex 0.000000e+000 0.000000e+000 1.000000e+001
      endloop
   endfacet
   facet normal 0.000000e+000 0.000000e+000 1.000000e+000
      outer loop
         vertex 0.000000e+000 0.000000e+000 1.000000e+001
         vertex 4.943599e+000 5.768309e-001 1.000000e+001
         vertex 4.455802e+000 6.088027e-001 1.000000e+001
      endloop
   endfacet
   facet normal 0.000000e+000 0.000000e+000 1.000000e+000
      outer loop
         vertex 0.000000e+000 0.000000e+000 1.000000e+001
         vertex 4.455802e+000 6.088027e-001 1.000000e+001
         vertex 3.976352e+000 7.041713e-001 1.000000e+001
      endloop
   endfacet
   facet normal 0.000000e+000 0.000000e+000 1.000000e+000
      outer loop
         vertex 5.431396e+000 9.391006e+000 1.000000e+001
         vertex 5.910845e+000 9.295638e+000 1.000000e+001
         vertex 1.000000e+001 1.000000e+001 1.000000e+001
      endloop
   endfacet
   facet normal 0.000000e+000 0.000000e+000 1.000000e+000
      outer loop
         vertex 1.000000e+001 1.000000e+001 1.000000e+001
         vertex 5.910845e+000 9.295638e+000 1.000000e+001
         vertex 6.373746e+000 9.138504e+000 1.000000e+001
      endloop
   endfacet
   facet normal 0.000000e+000 0.000000e+000 1.000000e+000
      outer loop
         vertex 1.000000e+001 1.000000e+001 1.000000e+001
         vertex 6.373746e+000 9.138504e+000 1.000000e+001
         vertex 6.812176e+000 8.922295e+000 1.000000e+001
      endloop
   endfacet
   facet normal 0.000000e+000 0.000000e+000 1.000000e+000
      outer loop
         vertex 8.553412e+000 6.653071e+000 1.000000e+001
         vertex 8.648781e+000 6.173621e+000 1.000000e+001
         vertex 1.000000e+001 1.000000e+001 1.000000e+001
      endloop
   endfacet
   facet normal 0.000000e+000 0.000000e+000 1.000000e+000
      outer loop
         vertex 1.000000e+001 1.000000e+001 1.000000e+001
         vertex 8.648781e+000 6.173621e+000 1.000000e+001
         vertex 8.680753e+000 5.685824e+000 1.000000e+001
      endloop
   endfacet
   facet normal 0.000000e+000 0.000000e+000 1.000000e+000
      outer loop
         vertex 1.000000e+001 1.000000e+001 1.000000e+001
         vertex 8.680753e+000 5.685824e+000 1.000000e+001
         vertex 1.000000e+001 0.000000e+000 1.000000e+001
      endloop
   endfacet
   facet normal 0.000000e+000 0.000000e+000 1.000000e+000
      outer loop
         vertex 1.000000e+001 0.000000e+000 1.000000e+001
         vertex 8.680753e+000 5.685824e+000 1.000000e+001
         vertex 8.680753e+000 4.313985e+000 1.000000e+001
      endloop
   endfacet
   facet normal 0.000000e+000 0.000000e+000 1.000000e+000
      outer loop
         vertex 1.000000e+001 0.000000e+000 1.000000e+001
         vertex 8.680753e+000 4.313985e+000 1.000000e+001
         vertex 8.648781e+000 3.826188e+000 1.000000e+001
      endloop
   endfacet
   facet normal 0.000000e+000 0.000000e+000 1.000000e+000
      outer loop
         vertex 1.707129e+000 2.445408e+000 1.000000e+001
         vertex 1.490919e+000 2.883838e+000 1.000000e+001
         vertex 0.000000e+000 0.000000e+000 1.000000e+001
      endloop
   endfacet
   facet normal 0.000000e+000 0.000000e+000 1.000000e+000
      outer loop
         vertex 0.000000e+000 0.000000e+000 1.000000e+001
         vertex 1.490919e+000 2.883838e+000 1.000000e+001
         vertex 1.333785e+000 3.346738e+000 1.000000e+001
      endloop
   endfacet
   facet normal 0.000000e+000 0.000000e+000 1.000000e+000
      outer loop
         vertex 0.000000e+000 0.000000e+000 1.000000e+001
         vertex 1.333785e+000 3.346738e+000 1.000000e+001
         vertex 1.238417e+000 3.826188e+000 1.000000e+001
      endloop
   endfacet
   facet normal 0.000000e+000 0.000000e+000 1.000000e+000
      outer loop
         vertex 6.812176e+000 8.922295e+000 1.000000e+001
         vertex 7.218634e+000 8.650708e+000 1.000000e+001
         vertex 1.000000e+001 1.000000e+001 1.000000e+001
      endloop
   endfacet
   facet normal 0.000000e+000 0.000000e+000 1.000000e+000
      outer loop
         vertex 1.000000e+001 1.000000e+001 1.000000e+001
         vertex 7.218634e+000 8.650708e+000 1.000000e+001
         vertex 7.586166e+000 8.328391e+000 1.000000e+001
      endloop
   endfacet
   facet normal 0.000000e+000 0.000000e+000 1.000000e+000
      outer loop
         vertex 1.000000e+001 1.000000e+001 1.000000e+001
         vertex 7.586166e+000 8.328391e+000 1.000000e+001
         vertex 7.908482e+000 7.960860e+000 1.000000e+001
      endloop
   endfacet
   facet normal 0.000000e+000 0.000000e+000 1.000000e+000
      outer loop
         vertex 7.908482e+000 7.960860e+000 1.000000e+001
         vertex 8.180069e+000 7.554401e+000 1.000000e+001
         vertex 1.000000e+001 1.000000e+001 1.000000e+001
      endloop
   endfacet
   facet normal 0.000000e+000 0.000000e+000 1.000000e+000
      outer loop
         vertex 1.000000e+001 1.000000e+001 1.000000e+001
         vertex 8.180069e+000 7.554401e+000 1.000000e+001
         vertex 8.396279e+000 7.115971e+000 1.000000e+001
      endloop
   endfacet
   facet normal 0.000000e+000 0.000000e+000 1.000000e+000
      outer loop
         vertex 1.000000e+001 1.000000e+001 1.000000e+001
         vertex 8.396279e+000 7.115971e+000 1.000000e+001
         vertex 8.553412e+000 6.653071e+000 1.000000e+001
      endloop
   endfacet
   facet normal 0.000000e+000 0.000000e+000 1.000000e+000
      outer loop
         vertex 8.648781e+000 3.826188e+000 1.000000e+001
         vertex 8.553412e+000 3.346738e+000 1.000000e+001
         vertex 1.000000e+001 0.000000e+000 1.000000e+001
      endloop
   endfacet
   facet normal 0.000000e+000 0.000000e+000 1.000000e+000
      outer loop
         vertex 1.000000e+001 0.000000e+000 1.000000e+001
         vertex 8.553412e+000 3.346738e+000 1.000000e+001
         vertex 8.396279e+000 2.883838e+000 1.000000e+001
      endloop
   endfacet
   facet normal 0.000000e+000 0.000000e+000 1.000000e+000
      outer loop
         vertex 1.000000e+001 0.000000e+000 1.000000e+001
         vertex 8.396279e+000 2.883838e+000 1.000000e+001
         vertex 8.180069e+000 2.445408e+000 1.000000e+001
      endloop
   endfacet
   facet normal 0.000000e+000 0.000000e+000 1.000000e+000
      outer loop
         vertex 8.180069e+000 2.445408e+000 1.000000e+001
         vertex 7.908482e+000 2.038950e+000 1.000000e+001
         vertex 1.000000e+001 0.000000e+000 1.000000e+001
      endloop
   endfacet
   facet normal 0.000000e+000 0.000000e+000 1.000000e+000
      outer loop
         vertex 1.000000e+001 0.000000e+000 1.000000e+001
         vertex 7.908482e+000 2.038950e+000 1.000000e+001
         vertex 7.586166e+000 1.671418e+000 1.000000e+001
      endloop
   endfacet
   facet normal 0.000000e+000 0.000000e+000 1.000000e+000
      outer loop
         vertex 1.000000e+001 0.000000e+000 1.000000e+001
         vertex 7.586166e+000 1.671418e+000 1.000000e+001
         vertex 7.218634e+000 1.349101e+000 1.000000e+001
      endloop
   endfacet
   facet normal 0.000000e+000 0.000000e+000 1.000000e+000
      outer loop
         vertex 1.333785e+000 6.653071e+000 1.000000e+001
         vertex 1.490919e+000 7.115971e+000 1.000000e+001
         vertex 0.000000e+000 1.000000e+001 1.000000e+001
      endloop
   endfacet
   facet normal 0.000000e+000 0.000000e+000 1.000000e+000
      outer loop
         vertex 0.000000e+000 1.000000e+001 1.000000e+001
         vertex 1.490919e+000 7.115971e+000 1.000000e+001
         vertex 1.707129e+000 7.554401e+000 1.000000e+001
      endloop
   endfacet
   facet normal 0.000000e+000 0.000000e+000 1.000000e+000
      outer loop
         vertex 0.000000e+000 1.000000e+001 1.000000e+001
         vertex 1.707129e+000 7.554401e+000 1.000000e+001
         vertex 1.978715e+000 7.960860e+000 1.000000e+001
      endloop
   endfacet
   facet normal 0.000000e+000 0.000000e+000 1.000000e+000
      outer loop
         vertex 1.978715e+000 7.960860e+000 1.000000e+001
         vertex 2.301032e+000 8.328391e+000 1.000000e+001
         vertex 0.000000e+000 1.000000e+001 1.000000e+001
      endloop
   endfacet
   facet normal 0.000000e+000 0.000000e+000 1.000000e+000
      outer loop
         vertex 0.000000e+000 1.000000e+001 1.000000e+001
         vertex 2.301032e+000 8.328391e+000 1.000000e+001
         vertex 2.668564e+000 8.650708e+000 1.000000e+001
      endloop
   endfacet
   facet normal 0.000000e+000 0.000000e+000 1.000000e+000
      outer loop
         vertex 0.000000e+000 1.000000e+001 1.000000e+001
         vertex 2.668564e+000 8.650708e+000 1.000000e+001
         vertex 3.075022e+000 8.922295e+000 1.000000e+001
      endloop
   endfacet
   facet normal 0.000000e+000 0.000000e+000 1.000000e+000
      outer loop
         vertex 1.238417e+000 3.826188e+000 1.000000e+001
         vertex 1.206445e+000 4.313985e+000 1.000000e+001
         vertex 0.000000e+000 0.000000e+000 1.000000e+001
      endloop
   endfacet
   facet normal 0.000000e+000 0.000000e+000 1.000000e+000
      outer loop
         vertex 0.000000e+000 0.000000e+000 1.000000e+001
         vertex 1.206445e+000 4.313985e+000 1.000000e+001
         vertex 1.206445e+000 5.685824e+000 1.000000e+001
      endloop
   endfacet
   facet normal 0.000000e+000 0.000000e+000 1.000000e+000
      outer loop
         vertex 0.000000e+000 0.000000e+000 1.000000e+001
         vertex 1.206445e+000 5.685824e+000 1.000000e+001
         vertex 0.000000e+000 1.000000e+001 1.000000e+001
      endloop
   endfacet
   facet normal 0.000000e+000 0.000000e+000 1.000000e+000
      outer loop
         vertex 0.000000e+000 1.000000e+001 1.000000e+001
         vertex 1.206445e+000 5.685824e+000 1.000000e+001
         vertex 1.238417e+000 6.173621e+000 1.000000e+001
      endloop
   endfacet
   facet normal 0.000000e+000 0.000000e+000 1.000000e+000
      outer loop
         vertex 0.000000e+000 1.000000e+001 1.000000e+001
         vertex 1.238417e+000 6.173621e+000 1.000000e+001
         vertex 1.333785e+000 6.653071e+000 1.000000e+001
      endloop
   endfacet
   facet normal 1.000000e+000 0.000000e+000 0.000000e+000
      outer loop
         vertex 1.000000e+001 1.000000e+001 0.000000e+000
         vertex 1.000000e+001 1.000000e+001 1.000000e+001
         vertex 1.000000e+001 0.000000e+000 0.000000e+000
      endloop
   endfacet
   facet normal 1.000000e+000 0.000000e+000 0.000000e+000
      outer loop
         vertex 1.000000e+001 0.000000e+000 0.000000e+000
         vertex 1.000000e+001 1.000000e+001 1.000000e+001
         vertex 1.000000e+001 0.000000e+000 1.000000e+001
      endloop
   endfacet
   facet normal 0.000000e+000 0.000000e+000 -1.000000e+000
      outer loop
         vertex 1.978715e+000 7.960860e+000 0.000000e+000
         vertex 0.000000e+000 1.000000e+001 0.000000e+000
         vertex 2.301032e+000 8.328391e+000 0.000000e+000
      endloop
   endfacet
   facet normal 0.000000e+000 0.000000e+000 -1.000000e+000
      outer loop
         vertex 2.301032e+000 8.328391e+000 0.000000e+000
         vertex 0.000000e+000 1.000000e+001 0.000000e+000
         vertex 2.668564e+000 8.650708e+000 0.000000e+000
      endloop
   endfacet
   facet normal 0.000000e+000 0.000000e+000 -1.000000e+000
      outer loop
         vertex 1.978715e+000 2.038950e+000 0.000000e+000
         vertex 2.301032e+000 1.671418e+000 0.000000e+000
         vertex 0.000000e+000 0.000000e+000 0.000000e+000
      endloop
   endfacet
   facet normal 0.000000e+000 0.000000e+000 -1.000000e+000
      outer loop
         vertex 0.000000e+000 0.000000e+000 0.000000e+000
         vertex 2.301032e+000 1.671418e+000 0.000000e+000
         vertex 2.668564e+000 1.349101e+000 0.000000e+000
      endloop
   endfacet
   facet normal 0.000000e+000 0.000000e+000 -1.000000e+000
      outer loop
         vertex 2.668564e+000 1.349101e+000 0.000000e+000
         vertex 3.075022e+000 1.077515e+000 0.000000e+000
         vertex 0.000000e+000 0.000000e+000 0.000000e+000
      endloop
   endfacet
   facet normal 0.000000e+000 0.000000e+000 -1.000000e+000
      outer loop
         vertex 0.000000e+000 0.000000e+000 0.000000e+000
         vertex 3.075022e+000 1.077515e+000 0.000000e+000
         vertex 3.513452e+000 8.613048e-001 0.000000e+000
      endloop
   endfacet
   facet normal 0.000000e+000 0.000000e+000 -1.000000e+000
      outer loop
         vertex 0.000000e+000 0.000000e+000 0.000000e+000
         vertex 3.513452e+000 8.613048e-001 0.000000e+000
         vertex 3.976352e+000 7.041713e-001 0.000000e+000
      endloop
   endfacet
   facet normal 0.000000e+000 0.000000e+000 -1.000000e+000
      outer loop
         vertex 0.000000e+000 0.000000e+000 0.000000e+000
         vertex 1.238417e+000 3.826188e+000 0.000000e+000
         vertex 1.333785e+000 3.346738e+000 0.000000e+000
      endloop
   endfacet
   facet normal 0.000000e+000 0.000000e+000 -1.000000e+000
      outer loop
         vertex 6.373746e+000 9.138504e+000 0.000000e+000
         vertex 5.910845e+000 9.295638e+000 0.000000e+000
         vertex 1.000000e+001 1.000000e+001 0.000000e+000
      endloop
   endfacet
   facet normal 0.000000e+000 0.000000e+000 -1.000000e+000
      outer loop
         vertex 5.910845e+000 9.295638e+000 0.000000e+000
         vertex 5.431396e+000 9.391006e+000 0.000000e+000
         vertex 1.000000e+001 1.000000e+001 0.000000e+000
      endloop
   endfacet
   facet normal 0.000000e+000 0.000000e+000 -1.000000e+000
      outer loop
         vertex 1.000000e+001 1.000000e+001 0.000000e+000
         vertex 5.431396e+000 9.391006e+000 0.000000e+000
         vertex 4.943599e+000 9.422978e+000 0.000000e+000
      endloop
   endfacet
   facet normal 0.000000e+000 0.000000e+000 -1.000000e+000
      outer loop
         vertex 1.000000e+001 1.000000e+001 0.000000e+000
         vertex 4.943599e+000 9.422978e+000 0.000000e+000
         vertex 0.000000e+000 1.000000e+001 0.000000e+000
      endloop
   endfacet
   facet normal 0.000000e+000 0.000000e+000 -1.000000e+000
      outer loop
         vertex 0.000000e+000 1.000000e+001 0.000000e+000
         vertex 4.943599e+000 9.422978e+000 0.000000e+000
         vertex 4.455802e+000 9.391006e+000 0.000000e+000
      endloop
   endfacet
   facet normal 0.000000e+000 0.000000e+000 -1.000000e+000
      outer loop
         vertex 0.000000e+000 1.000000e+001 0.000000e+000
         vertex 4.455802e+000 9.391006e+000 0.000000e+000
         vertex 3.976352e+000 9.295638e+000 0.000000e+000
      endloop
   endfacet
   facet normal 0.000000e+000 0.000000e+000 -1.000000e+000
      outer loop
         vertex 3.976352e+000 9.295638e+000 0.000000e+000
         vertex 3.513452e+000 9.138504e+000 0.000000e+000
         vertex 0.000000e+000 1.000000e+001 0.000000e+000
      endloop
   endfacet
   facet normal 0.000000e+000 0.000000e+000 -1.000000e+000
      outer loop
         vertex 0.000000e+000 1.000000e+001 0.000000e+000
         vertex 3.513452e+000 9.138504e+000 0.000000e+000
         vertex 3.075022e+000 8.922295e+000 0.000000e+000
      endloop
   endfacet
   facet normal 0.000000e+000 0.000000e+000 -1.000000e+000
      outer loop
         vertex 0.000000e+000 1.000000e+001 0.000000e+000
         vertex 3.075022e+000 8.922295e+000 0.000000e+000
         vertex 2.668564e+000 8.650708e+000 0.000000e+000
      endloop
   endfacet
   facet normal 0.000000e+000 0.000000e+000 -1.000000e+000
      outer loop
         vertex 1.978715e+000 7.960860e+000 0.000000e+000
         vertex 1.707129e+000 7.554401e+000 0.000000e+000
         vertex 0.000000e+000 1.000000e+001 0.000000e+000
      endloop
   endfacet
   facet normal 0.000000e+000 0.000000e+000 -1.000000e+000
      outer loop
         vertex 0.000000e+000 1.000000e+001 0.000000e+000
         vertex 1.707129e+000 7.554401e+000 0.000000e+000
         vertex 1.490919e+000 7.115971e+000 0.000000e+000
      endloop
   endfacet
   facet normal 0.000000e+000 0.000000e+000 -1.000000e+000
      outer loop
         vertex 0.000000e+000 1.000000e+001 0.000000e+000
         vertex 1.490919e+000 7.115971e+000 0.000000e+000
         vertex 1.333785e+000 6.653071e+000 0.000000e+000
      endloop
   endfacet
   facet normal 0.000000e+000 0.000000e+000 -1.000000e+000
      outer loop
         vertex 1.333785e+000 6.653071e+000 0.000000e+000
         vertex 1.238417e+000 6.173621e+000 0.000000e+000
         vertex 0.000000e+000 1.000000e+001 0.000000e+000
      endloop
   endfacet
   facet normal 0.000000e+000 0.000000e+000 -1.000000e+000
      outer loop
         vertex 0.000000e+000 1.000000e+001 0.000000e+000
         vertex 1.238417e+000 6.173621e+000 0.000000e+000
         vertex 1.206445e+000 5.685824e+000 0.000000e+000
      endloop
   endfacet
   facet normal 0.000000e+000 0.000000e+000 -1.000000e+000
      outer loop
         vertex 0.000000e+000 1.000000e+001 0.000000e+000
         vertex 1.206445e+000 5.685824e+000 0.000000e+000
         vertex 0.000000e+000 0.000000e+000 0.000000e+000
      endloop
   endfacet
   facet normal 0.000000e+000 0.000000e+000 -1.000000e+000
      outer loop
         vertex 0.000000e+000 0.000000e+000 0.000000e+000
         vertex 1.206445e+000 5.685824e+000 0.000000e+000
         vertex 1.206445e+000 4.313985e+000 0.000000e+000
      endloop
   endfacet
   facet normal 0.000000e+000 0.000000e+000 -1.000000e+000
      outer loop
         vertex 0.000000e+000 0.000000e+000 0.000000e+000
         vertex 1.206445e+000 4.313985e+000 0.000000e+000
         vertex 1.238417e+000 3.826188e+000 0.000000e+000
      endloop
   endfacet
   facet normal 0.000000e+000 0.000000e+000 -1.000000e+000
      outer loop
         vertex 1.333785e+000 3.346738e+000 0.000000e+000
         vertex 1.490919e+000 2.883838e+000 0.000000e+000
         vertex 0.000000e+000 0.000000e+000 0.000000e+000
      endloop
   endfacet
   facet normal 0.000000e+000 0.000000e+000 -1.000000e+000
      outer loop
         vertex 0.000000e+000 0.000000e+000 0.000000e+000
         vertex 1.490919e+000 2.883838e+000 0.000000e+000
         vertex 1.707129e+000 2.445408e+000 0.000000e+000
      endloop
   endfacet
   facet normal 0.000000e+000 0.000000e+000 -1.000000e+000
      outer loop
         vertex 0.000000e+000 0.000000e+000 0.000000e+000
         vertex 1.707129e+000 2.445408e+000 0.000000e+000
         vertex 1.978715e+000 2.038950e+000 0.000000e+000
      endloop
   endfacet
   facet normal 0.000000e+000 0.000000e+000 -1.000000e+000
      outer loop
         vertex 1.000000e+001 1.000000e+001 0.000000e+000
         vertex 8.553412e+000 6.653071e+000 0.000000e+000
         vertex 8.396279e+000 7.115971e+000 0.000000e+000
      endloop
   endfacet
   facet normal 0.000000e+000 0.000000e+000 -1.000000e+000
      outer loop
         vertex 3.976352e+000 7.041713e-001 0.000000e+000
         vertex 4.455802e+000 6.088027e-001 0.000000e+000
         vertex 0.000000e+000 0.000000e+000 0.000000e+000
      endloop
   endfacet
   facet normal 0.000000e+000 0.000000e+000 -1.000000e+000
      outer loop
         vertex 0.000000e+000 0.000000e+000 0.000000e+000
         vertex 4.455802e+000 6.088027e-001 0.000000e+000
         vertex 4.943599e+000 5.768309e-001 0.000000e+000
      endloop
   endfacet
   facet normal 0.000000e+000 0.000000e+000 -1.000000e+000
      outer loop
         vertex 0.000000e+000 0.000000e+000 0.000000e+000
         vertex 4.943599e+000 5.768309e-001 0.000000e+000
         vertex 1.000000e+001 0.000000e+000 0.000000e+000
      endloop
   endfacet
   facet normal 0.000000e+000 0.000000e+000 -1.000000e+000
      outer loop
         vertex 1.000000e+001 0.000000e+000 0.000000e+000
         vertex 4.943599e+000 5.768309e-001 0.000000e+000
         vertex 5.431396e+000 6.088027e-001 0.000000e+000
      endloop
   endfacet
   facet normal 0.000000e+000 0.000000e+000 -1.000000e+000
      outer loop
         vertex 1.000000e+001 0.000000e+000 0.000000e+000
         vertex 5.431396e+000 6.088027e-001 0.000000e+000
         vertex 5.910845e+000 7.041713e-001 0.000000e+000
      endloop
   endfacet
   facet normal 0.000000e+000 0.000000e+000 -1.000000e+000
      outer loop
         vertex 5.910845e+000 7.041713e-001 0.000000e+000
         vertex 6.373746e+000 8.613048e-001 0.000000e+000
         vertex 1.000000e+001 0.000000e+000 0.000000e+000
      endloop
   endfacet
   facet normal 0.000000e+000 0.000000e+000 -1.000000e+000
      outer loop
         vertex 1.000000e+001 0.000000e+000 0.000000e+000
         vertex 6.373746e+000 8.613048e-001 0.000000e+000
         vertex 6.812176e+000 1.077515e+000 0.000000e+000
      endloop
   endfacet
   facet normal 0.000000e+000 0.000000e+000 -1.000000e+000
      outer loop
         vertex 1.000000e+001 0.000000e+000 0.000000e+000
         vertex 6.812176e+000 1.077515e+000 0.000000e+000
         vertex 7.218634e+000 1.349101e+000 0.000000e+000
      endloop
   endfacet
   facet normal 0.000000e+000 0.000000e+000 -1.000000e+000
      outer loop
         vertex 8.396279e+000 7.115971e+000 0.000000e+000
         vertex 8.180069e+000 7.554401e+000 0.000000e+000
         vertex 1.000000e+001 1.000000e+001 0.000000e+000
      endloop
   endfacet
   facet normal 0.000000e+000 0.000000e+000 -1.000000e+000
      outer loop
         vertex 1.000000e+001 1.000000e+001 0.000000e+000
         vertex 8.180069e+000 7.554401e+000 0.000000e+000
         vertex 7.908482e+000 7.960860e+000 0.000000e+000
      endloop
   endfacet
   facet normal 0.000000e+000 0.000000e+000 -1.000000e+000
      outer loop
         vertex 1.000000e+001 1.000000e+001 0.000000e+000
         vertex 7.908482e+000 7.960860e+000 0.000000e+000
         vertex 7.586166e+000 8.328391e+000 0.000000e+000
      endloop
   endfacet
   facet normal 0.000000e+000 0.000000e+000 -1.000000e+000
      outer loop
         vertex 7.586166e+000 8.328391e+000 0.000000e+000
         vertex 7.218634e+000 8.650708e+000 0.000000e+000
         vertex 1.000000e+001 1.000000e+001 0.000000e+000
      endloop
   endfacet
   facet normal 0.000000e+000 0.000000e+000 -1.000000e+000
      outer loop
         vertex 1.000000e+001 1.000000e+001 0.000000e+000
         vertex 7.218634e+000 8.650708e+000 0.000000e+000
         vertex 6.812176e+000 8.922295e+000 0.000000e+000
      endloop
   endfacet
   facet normal 0.000000e+000 0.000000e+000 -1.000000e+000
      outer loop
         vertex 1.000000e+001 1.000000e+001 0.000000e+000
         vertex 6.812176e+000 8.922295e+000 0.000000e+000
         vertex 6.373746e+000 9.138504e+000 0.000000e+000
      endloop
   endfacet
   facet normal 0.000000e+000 0.000000e+000 -1.000000e+000
      outer loop
         vertex 7.218634e+000 1.349101e+000 0.000000e+000
         vertex 7.586166e+000 1.671418e+000 0.000000e+000
         vertex 1.000000e+001 0.000000e+000 0.000000e+000
      endloop
   endfacet
   facet normal 0.000000e+000 0.000000e+000 -1.000000e+000
      outer loop
         vertex 1.000000e+001 0.000000e+000 0.000000e+000
         vertex 7.586166e+000 1.671418e+000 0.000000e+000
         vertex 7.908482e+000 2.038950e+000 0.000000e+000
      endloop
   endfacet
   facet normal 0.000000e+000 0.000000e+000 -1.000000e+000
      outer loop
         vertex 1.000000e+001 0.000000e+000 0.000000e+000
         vertex 7.908482e+000 2.038950e+000 0.000000e+000
         vertex 8.180069e+000 2.445408e+000 0.000000e+000
      endloop
   endfacet
   facet normal 0.000000e+000 0.000000e+000 -1.000000e+000
      outer loop
         vertex 8.180069e+000 2.445408e+000 0.000000e+000
         vertex 8.396279e+000 2.883838e+000 0.000000e+000
         vertex 1.000000e+001 0.000000e+000 0.000000e+000
      endloop
   endfacet
   facet normal 0.000000e+000 0.000000e+000 -1.000000e+000
      outer loop
         vertex 1.000000e+001 0.000000e+000 0.000000e+000
         vertex 8.396279e+000 2.883838e+000 0.000000e+000
         vertex 8.553412e+000 3.346738e+000 0.000000e+000
      endloop
   endfacet
   facet normal 0.000000e+000 0.000000e+000 -1.000000e+000
      outer loop
         vertex 1.000000e+001 0.000000e+000 0.000000e+000
         vertex 8.553412e+000 3.346738e+000 0.000000e+000
         vertex 8.648781e+000 3.826188e+000 0.000000e+000
      endloop
   endfacet
   facet normal 0.000000e+000 0.000000e+000 -1.000000e+000
      outer loop
         vertex 8.648781e+000 3.826188e+000 0.000000e+000
         vertex 8.680753e+000 4.313985e+000 0.000000e+000
         vertex 1.000000e+001 0.000000e+000 0.000000e+000
      endloop
   endfacet
   facet normal 0.000000e+000 0.000000e+000 -1.000000e+000
      outer loop
         vertex 1.000000e+001 0.000000e+000 0.000000e+000
         vertex 8.680753e+000 4.313985e+000 0.000000e+000
         vertex 8.680753e+000 5.685824e+000 0.000000e+000
      endloop
   endfacet
   facet normal 0.000000e+000 0.000000e+000 -1.000000e+000
      outer loop
         vertex 1.000000e+001 0.000000e+000 0.000000e+000
         vertex 8.680753e+000 5.685824e+000 0.000000e+000
         vertex 1.000000e+001 1.000000e+001 0.000000e+000
      endloop
   endfacet
   facet normal 0.000000e+000 0.000000e+000 -1.000000e+000
      outer loop
         vertex 1.000000e+001 1.000000e+001 0.000000e+000
         vertex 8.680753e+000 5.685824e+000 0.000000e+000
         vertex 8.648781e+000 6.173621e+000 0.000000e+000
      endloop
   endfacet
   facet normal 0.000000e+000 0.000000e+000 -1.000000e+000
      outer loop
         vertex 1.000000e+001 1.000000e+001 0.000000e+000
         vertex 8.648781e+000 6.173621e+000 0.000000e+000
         vertex 8.553412e+000 6.653071e+000 0.000000e+000
      endloop
   endfacet
   facet normal 0.000000e+000 1.000000e+000 0.000000e+000
      outer loop
         vertex 1.000000e+001 1.000000e+001 1.000000e+001
         vertex 1.000000e+001 1.000000e+001 0.000000e+000
         vertex 0.000000e+000 1.000000e+001 1.000000e+001
      endloop
   endfacet
   facet normal 0.000000e+000 1.000000e+000 0.000000e+000
      outer loop
         vertex 0.000000e+000 1.000000e+001 1.000000e+001
         vertex 1.000000e+001 1.000000e+001 0.000000e+000
         vertex 0.000000e+000 1.000000e+001 0.000000e+000
      endloop
   endfacet
   facet normal 0.000000e+000 -1.000000e+000 0.000000e+000
      outer loop
         vertex 1.000000e+001 0.000000e+000 0.000000e+000
         vertex 1.000000e+001 0.000000e+000 1.000000e+001
         vertex 0.000000e+000 0.000000e+000 0.000000e+000
      endloop
   endfacet
   facet normal 0.000000e+000 -1.000000e+000 0.000000e+000
      outer loop
         vertex 0.000000e+000 0.000000e+000 0.000000e+000
         vertex 1.000000e+001 0.000000e+000 1.000000e+001
         vertex 0.000000e+000 0.000000e+000 1.000000e+001
      endloop
   endfacet
   facet normal 9.990495e-001 4.359168e-002 0.000000e+000
      outer loop
         vertex 1.206445e+000 4.313985e+000 0.000000e+000
         vertex 1.206445e+000 4.313985e+000 1.000000e+001
         vertex 1.238417e+000 3.826188e+000 1.000000e+001
      endloop
   endfacet
   facet normal 9.961922e-001 8.718336e-002 0.000000e+000
      outer loop
         vertex 1.206445e+000 4.313985e+000 0.000000e+000
         vertex 1.238417e+000 3.826188e+000 1.000000e+001
         vertex 1.238417e+000 3.826188e+000 0.000000e+000
      endloop
   endfacet
   facet normal 9.848126e-001 1.736209e-001 0.000000e+000
      outer loop
         vertex 1.238417e+000 3.826188e+000 0.000000e+000
         vertex 1.238417e+000 3.826188e+000 1.000000e+001
         vertex 1.333785e+000 3.346738e+000 1.000000e+001
      endloop
   endfacet
   facet normal 9.762900e-001 2.164667e-001 0.000000e+000
      outer loop
         vertex 1.238417e+000 3.826188e+000 0.000000e+000
         vertex 1.333785e+000 3.346738e+000 1.000000e+001
         vertex 1.333785e+000 3.346738e+000 0.000000e+000
      endloop
   endfacet
   facet normal 9.537253e-001 3.006794e-001 0.000000e+000
      outer loop
         vertex 1.333785e+000 3.346738e+000 0.000000e+000
         vertex 1.333785e+000 3.346738e+000 1.000000e+001
         vertex 1.490919e+000 2.883838e+000 1.000000e+001
      endloop
   endfacet
   facet normal 9.396831e-001 3.420462e-001 0.000000e+000
      outer loop
         vertex 1.333785e+000 3.346738e+000 0.000000e+000
         vertex 1.490919e+000 2.883838e+000 1.000000e+001
         vertex 1.490919e+000 2.883838e+000 0.000000e+000
      endloop
   endfacet
   facet normal 9.063195e-001 4.225931e-001 0.000000e+000
      outer loop
         vertex 1.490919e+000 2.883838e+000 0.000000e+000
         vertex 1.490919e+000 2.883838e+000 1.000000e+001
         vertex 1.707129e+000 2.445408e+000 1.000000e+001
      endloop
   endfacet
   facet normal 8.869980e-001 4.617732e-001 0.000000e+000
      outer loop
         vertex 1.490919e+000 2.883838e+000 0.000000e+000
         vertex 1.707129e+000 2.445408e+000 1.000000e+001
         vertex 1.707129e+000 2.445408e+000 0.000000e+000
      endloop
   endfacet
   facet normal 8.434063e-001 5.372763e-001 0.000000e+000
      outer loop
         vertex 1.707129e+000 2.445408e+000 0.000000e+000
         vertex 1.707129e+000 2.445408e+000 1.000000e+001
         vertex 1.978715e+000 2.038950e+000 1.000000e+001
      endloop
   endfacet
   facet normal 8.191361e-001 5.735992e-001 0.000000e+000
      outer loop
         vertex 1.707129e+000 2.445408e+000 0.000000e+000
         vertex 1.978715e+000 2.038950e+000 1.000000e+001
         vertex 1.978715e+000 2.038950e+000 0.000000e+000
      endloop
   endfacet
   facet normal 7.660623e-001 6.427664e-001 0.000000e+000
      outer loop
         vertex 1.978715e+000 2.038950e+000 0.000000e+000
         vertex 1.978715e+000 2.038950e+000 1.000000e+001
         vertex 2.301032e+000 1.671418e+000 1.000000e+001
      endloop
   endfacet
   facet normal 7.372586e-001 6.756107e-001 0.000000e+000
      outer loop
         vertex 1.978715e+000 2.038950e+000 0.000000e+000
         vertex 2.301032e+000 1.671418e+000 1.000000e+001
         vertex 2.301032e+000 1.671418e+000 0.000000e+000
      endloop
   endfacet
   facet normal 6.756107e-001 7.372586e-001 0.000000e+000
      outer loop
         vertex 2.301032e+000 1.671418e+000 0.000000e+000
         vertex 2.301032e+000 1.671418e+000 1.000000e+001
         vertex 2.668564e+000 1.349101e+000 1.000000e+001
      endloop
   endfacet
   facet normal 6.427664e-001 7.660623e-001 0.000000e+000
      outer loop
         vertex 2.301032e+000 1.671418e+000 0.000000e+000
         vertex 2.668564e+000 1.349101e+000 1.000000e+001
         vertex 2.668564e+000 1.349101e+000 0.000000e+000
      endloop
   endfacet
   facet normal 5.735992e-001 8.191361e-001 0.000000e+000
      outer loop
         vertex 2.668564e+000 1.349101e+000 0.000000e+000
         vertex 2.668564e+000 1.349101e+000 1.000000e+001
         vertex 3.075022e+000 1.077515e+000 1.000000e+001
      endloop
   endfacet
   facet normal 5.372762e-001 8.434064e-001 0.000000e+000
      outer loop
         vertex 2.668564e+000 1.349101e+000 0.000000e+000
         vertex 3.075022e+000 1.077515e+000 1.000000e+001
         vertex 3.075022e+000 1.077515e+000 0.000000e+000
      endloop
   endfacet
   facet normal 4.617732e-001 8.869980e-001 0.000000e+000
      outer loop
         vertex 3.075022e+000 1.077515e+000 0.000000e+000
         vertex 3.075022e+000 1.077515e+000 1.000000e+001
         vertex 3.513452e+000 8.613048e-001 1.000000e+001
      endloop
   endfacet
   facet normal 4.225931e-001 9.063195e-001 0.000000e+000
      outer loop
         vertex 3.075022e+000 1.077515e+000 0.000000e+000
         vertex 3.513452e+000 8.613048e-001 1.000000e+001
         vertex 3.513452e+000 8.613048e-001 0.000000e+000
      endloop
   endfacet
   facet normal 3.420462e-001 9.396831e-001 0.000000e+000
      outer loop
         vertex 3.513452e+000 8.613048e-001 0.000000e+000
         vertex 3.513452e+000 8.613048e-001 1.000000e+001
         vertex 3.976352e+000 7.041713e-001 1.000000e+001
      endloop
   endfacet
   facet normal 3.006794e-001 9.537253e-001 0.000000e+000
      outer loop
         vertex 3.513452e+000 8.613048e-001 0.000000e+000
         vertex 3.976352e+000 7.041713e-001 1.000000e+001
         vertex 3.976352e+000 7.041713e-001 0.000000e+000
      endloop
   endfacet
   facet normal 2.164667e-001 9.762900e-001 0.000000e+000
      outer loop
         vertex 3.976352e+000 7.041713e-001 0.000000e+000
         vertex 3.976352e+000 7.041713e-001 1.000000e+001
         vertex 4.455802e+000 6.088027e-001 1.000000e+001
      endloop
   endfacet
   facet normal 1.736209e-001 9.848126e-001 0.000000e+000
      outer loop
         vertex 3.976352e+000 7.041713e-001 0.000000e+000
         vertex 4.455802e+000 6.088027e-001 1.000000e+001
         vertex 4.455802e+000 6.088027e-001 0.000000e+000
      endloop
   endfacet
   facet normal 8.718336e-002 9.961922e-001 0.000000e+000
      outer loop
         vertex 4.455802e+000 6.088027e-001 0.000000e+000
         vertex 4.455802e+000 6.088027e-001 1.000000e+001
         vertex 4.943599e+000 5.768309e-001 1.000000e+001
      endloop
   endfacet
   facet normal 4.359168e-002 9.990495e-001 0.000000e+000
      outer loop
         vertex 4.455802e+000 6.088027e-001 0.000000e+000
         vertex 4.943599e+000 5.768309e-001 1.000000e+001
         vertex 4.943599e+000 5.768309e-001 0.000000e+000
      endloop
   endfacet
   facet normal -4.359168e-002 9.990495e-001 0.000000e+000
      outer loop
         vertex 4.943599e+000 5.768309e-001 0.000000e+000
         vertex 4.943599e+000 5.768309e-001 1.000000e+001
         vertex 5.431396e+000 6.088027e-001 1.000000e+001
      endloop
   endfacet
   facet normal -8.718336e-002 9.961922e-001 0.000000e+000
      outer loop
         vertex 4.943599e+000 5.768309e-001 0.000000e+000
         vertex 5.431396e+000 6.088027e-001 1.000000e+001
         vertex 5.431396e+000 6.088027e-001 0.000000e+000
      endloop
   endfacet
   facet normal -1.736209e-001 9.848126e-001 0.000000e+000
      outer loop
         vertex 5.431396e+000 6.088027e-001 0.000000e+000
         vertex 5.431396e+000 6.088027e-001 1.000000e+001
         vertex 5.910845e+000 7.041713e-001 1.000000e+001
      endloop
   endfacet
   facet normal -2.164667e-001 9.762900e-001 0.000000e+000
      outer loop
         vertex 5.431396e+000 6.088027e-001 0.000000e+000
         vertex 5.910845e+000 7.041713e-001 1.000000e+001
         vertex 5.910845e+000 7.041713e-001 0.000000e+000
      endloop
   endfacet
   facet normal -3.006794e-001 9.537253e-001 0.000000e+000
      outer loop
         vertex 5.910845e+000 7.041713e-001 0.000000e+000
         vertex 5.910845e+000 7.041713e-001 1.000000e+001
         vertex 6.373746e+000 8.613048e-001 1.000000e+001
      endloop
   endfacet
   facet normal -3.420462e-001 9.396831e-001 0.000000e+000
      outer loop
         vertex 5.910845e+000 7.041713e-001 0.000000e+000
         vertex 6.373746e+000 8.613048e-001 1.000000e+001
         vertex 6.373746e+000 8.613048e-001 0.000000e+000
      endloop
   endfacet
   facet normal -4.225931e-001 9.063195e-001 0.000000e+000
      outer loop
         vertex 6.373746e+000 8.613048e-001 0.000000e+000
         vertex 6.373746e+000 8.613048e-001 1.000000e+001
         vertex 6.812176e+000 1.077515e+000 1.000000e+001
      endloop
   endfacet
   facet normal -4.617732e-001 8.869980e-001 0.000000e+000
      outer loop
         vertex 6.373746e+000 8.613048e-001 0.000000e+000
         vertex 6.812176e+000 1.077515e+000 1.000000e+001
         vertex 6.812176e+000 1.077515e+000 0.000000e+000
      endloop
   endfacet
   facet normal -5.372763e-001 8.434063e-001 0.000000e+000
      outer loop
         vertex 6.812176e+000 1.077515e+000 0.000000e+000
         vertex 6.812176e+000 1.077515e+000 1.000000e+001
         vertex 7.218634e+000 1.349101e+000 1.000000e+001
      endloop
   endfacet
   facet normal -5.735992e-001 8.191361e-001 0.000000e+000
      outer loop
         vertex 6.812176e+000 1.077515e+000 0.000000e+000
         vertex 7.218634e+000 1.349101e+000 1.000000e+001
         vertex 7.218634e+000 1.349101e+000 0.000000e+000
      endloop
   endfacet
   facet normal -6.427664e-001 7.660623e-001 0.000000e+000
      outer loop
         vertex 7.218634e+000 1.349101e+000 0.000000e+000
         vertex 7.218634e+000 1.349101e+000 1.000000e+001
         vertex 7.586166e+000 1.671418e+000 1.000000e+001
      endloop
   endfacet
   facet normal -6.756107e-001 7.372586e-001 0.000000e+000
      outer loop
         vertex 7.218634e+000 1.349101e+000 0.000000e+000
         vertex 7.586166e+000 1.671418e+000 1.000000e+001
         vertex 7.586166e+000 1.671418e+000 0.000000e+000
      endloop
   endfacet
   facet normal -7.372586e-001 6.756107e-001 0.000000e+000
      outer loop
         vertex 7.586166e+000 1.671418e+000 0.000000e+000
         vertex 7.586166e+000 1.671418e+000 1.000000e+001
         vertex 7.908482e+000 2.038950e+000 1.000000e+001
      endloop
   endfacet
   facet normal -7.660623e-001 6.427664e-001 0.000000e+000
      outer loop
         vertex 7.586166e+000 1.671418e+000 0.000000e+000
         vertex 7.908482e+000 2.038950e+000 1.000000e+001
         vertex 7.908482e+000 2.038950e+000 0.000000e+000
      endloop
   endfacet
   facet normal -8.191361e-001 5.735992e-001 0.000000e+000
      outer loop
         vertex 7.908482e+000 2.038950e+000 0.000000e+000
         vertex 7.908482e+000 2.038950e+000 1.000000e+001
         vertex 8.180069e+000 2.445408e+000 1.000000e+001
      endloop
   endfacet
   facet normal -8.434064e-001 5.372762e-001 0.000000e+000
      outer loop
         vertex 7.908482e+000 2.038950e+000 0.000000e+000
         vertex 8.180069e+000 2.445408e+000 1.000000e+001
         vertex 8.180069e+000 2.445408e+000 0.000000e+000
      endloop
   endfacet
   facet normal -8.869980e-001 4.617732e-001 0.000000e+000
      outer loop
         vertex 8.180069e+000 2.445408e+000 0.000000e+000
         vertex 8.180069e+000 2.445408e+000 1.000000e+001
         vertex 8.396279e+000 2.883838e+000 1.000000e+001
      endloop
   endfacet
   facet normal -9.063195e-001 4.225931e-001 0.000000e+000
      outer loop
         vertex 8.180069e+000 2.445408e+000 0.000000e+000
         vertex 8.396279e+000 2.883838e+000 1.000000e+001
         vertex 8.396279e+000 2.883838e+000 0.000000e+000
      endloop
   endfacet
   facet normal -9.396831e-001 3.420462e-001 0.000000e+000
      outer loop
         vertex 8.396279e+000 2.883838e+000 0.000000e+000
         vertex 8.396279e+000 2.883838e+000 1.000000e+001
         vertex 8.553412e+000 3.346738e+000 1.000000e+001
      endloop
   endfacet
   facet normal -9.537253e-001 3.006794e-001 0.000000e+000
      outer loop
         vertex 8.396279e+000 2.883838e+000 0.000000e+000
         vertex 8.553412e+000 3.346738e+000 1.000000e+001
         vertex 8.553412e+000 3.346738e+000 0.000000e+000
      endloop
   endfacet
   facet normal -9.762900e-001 2.164667e-001 0.000000e+000
      outer loop
         vertex 8.553412e+000 3.346738e+000 0.000000e+000
         vertex 8.553412e+000 3.346738e+000 1.000000e+001
         vertex 8.648781e+000 3.826188e+000 1.000000e+001
      endloop
   endfacet
   facet normal -9.848126e-001 1.736209e-001 0.000000e+000
      outer loop
         vertex 8.553412e+000 3.346738e+000 0.000000e+000
         vertex 8.648781e+000 3.826188e+000 1.000000e+001
         vertex 8.648781e+000 3.826188e+000 0.000000e+000
      endloop
   endfacet
   facet normal -9.961922e-001 8.718336e-002 0.000000e+000
      outer loop
         vertex 8.648781e+000 3.826188e+000 0.000000e+000
         vertex 8.648781e+000 3.826188e+000 1.000000e+001
         vertex 8.680753e+000 4.313985e+000 1.000000e+001
      endloop
   endfacet
   facet normal -9.990495e-001 4.359168e-002 0.000000e+000
      outer loop
         vertex 8.648781e+000 3.826188e+000 0.000000e+000
         vertex 8.680753e+000 4.313985e+000 1.000000e+001
         vertex 8.680753e+000 4.313985e+000 0.000000e+000
      endloop
   endfacet
   facet normal 1.000000e+000 0.000000e+000 0.000000e+000
      outer loop
         vertex 1.206445e+000 4.313985e+000 0.000000e+000
         vertex 1.206445e+000 5.685824e+000 0.000000e+000
         vertex 1.206445e+000 4.313985e+000 1.000000e+001
      endloop
   endfacet
   facet normal 1.000000e+000 0.000000e+000 0.000000e+000
      outer loop
         vertex 1.206445e+000 4.313985e+000 1.000000e+001
         vertex 1.206445e+000 5.685824e+000 0.000000e+000
         vertex 1.206445e+000 5.685824e+000 1.000000e+001
      endloop
   endfacet
   facet normal -9.990495e-001 -4.359168e-002 0.000000e+000
      outer loop
         vertex 8.680753e+000 5.685824e+000 0.000000e+000
         vertex 8.680753e+000 5.685824e+000 1.000000e+001
         vertex 8.648781e+000 6.173621e+000 1.000000e+001
      endloop
   endfacet
   facet normal -9.961922e-001 -8.718336e-002 0.000000e+000
      outer loop
         vertex 8.680753e+000 5.685824e+000 0.000000e+000
         vertex 8.648781e+000 6.173621e+000 1.000000e+001
         vertex 8.648781e+000 6.173621e+000 0.000000e+000
      endloop
   endfacet
   facet normal -9.848126e-001 -1.736209e-001 0.000000e+000
      outer loop
         vertex 8.648781e+000 6.173621e+000 0.000000e+000
         vertex 8.648781e+000 6.173621e+000 1.000000e+001
         vertex 8.553412e+000 6.653071e+000 1.000000e+001
      endloop
   endfacet
   facet normal -9.762900e-001 -2.164667e-001 0.000000e+000
      outer loop
         vertex 8.648781e+000 6.173621e+000 0.000000e+000
         vertex 8.553412e+000 6.653071e+000 1.000000e+001
         vertex 8.553412e+000 6.653071e+000 0.000000e+000
      endloop
   endfacet
   facet normal -9.537253e-001 -3.006794e-001 0.000000e+000
      outer loop
         vertex 8.553412e+000 6.653071e+000 0.000000e+000
         vertex 8.553412e+000 6.653071e+000 1.000000e+001
         vertex 8.396279e+000 7.115971e+000 1.000000e+001
      endloop
   endfacet
   facet normal -9.396831e-001 -3.420462e-001 0.000000e+000
      outer loop
         vertex 8.553412e+000 6.653071e+000 0.000000e+000
         vertex 8.396279e+000 7.115971e+000 1.000000e+001
         vertex 8.396279e+000 7.115971e+000 0.000000e+000
      endloop
   endfacet
   facet normal -9.063195e-001 -4.225931e-001 0.000000e+000
      outer loop
         vertex 8.396279e+000 7.115971e+000 0.000000e+000
         vertex 8.396279e+000 7.115971e+000 1.000000e+001
         vertex 8.180069e+000 7.554401e+000 1.000000e+001
      endloop
   endfacet
   facet normal -8.869980e-001 -4.617732e-001 0.000000e+000
      outer loop
         vertex 8.396279e+000 7.115971e+000 0.000000e+000
         vertex 8.180069e+000 7.554401e+000 1.000000e+001
         vertex 8.180069e+000 7.554401e+000 0.000000e+000
      endloop
   endfacet
   facet normal -8.434063e-001 -5.372763e-001 0.000000e+000
      outer loop
         vertex 8.180069e+000 7.554401e+000 0.000000e+000
         vertex 8.180069e+000 7.554401e+000 1.000000e+001
         vertex 7.908482e+000 7.960860e+000 1.000000e+001
      endloop
   endfacet
   facet normal -8.191361e-001 -5.735992e-001 0.000000e+000
      outer loop
         vertex 8.180069e+000 7.554401e+000 0.000000e+000
         vertex 7.908482e+000 7.960860e+000 1.000000e+001
         vertex 7.908482e+000 7.960860e+000 0.000000e+000
      endloop
   endfacet
   facet normal -7.660623e-001 -6.427664e-001 0.000000e+000
      outer loop
         vertex 7.908482e+000 7.960860e+000 0.000000e+000
         vertex 7.908482e+000 7.960860e+000 1.000000e+001
         vertex 7.586166e+000 8.328391e+000 1.000000e+001
      endloop
   endfacet
   facet normal -7.372586e-001 -6.756107e-001 0.000000e+000
      outer loop
         vertex 7.908482e+000 7.960860e+000 0.000000e+000
         vertex 7.586166e+000 8.328391e+000 1.000000e+001
         vertex 7.586166e+000 8.328391e+000 0.000000e+000
      endloop
   endfacet
   facet normal -6.756107e-001 -7.372586e-001 0.000000e+000
      outer loop
         vertex 7.586166e+000 8.328391e+000 0.000000e+000
         vertex 7.586166e+000 8.328391e+000 1.000000e+001
         vertex 7.218634e+000 8.650708e+000 1.000000e+001
      endloop
   endfacet
   facet normal -6.427664e-001 -7.660623e-001 0.000000e+000
      outer loop
         vertex 7.586166e+000 8.328391e+000 0.000000e+000
         vertex 7.218634e+000 8.650708e+000 1.000000e+001
         vertex 7.218634e+000 8.650708e+000 0.000000e+000
      endloop
   endfacet
   facet normal -5.735992e-001 -8.191361e-001 0.000000e+000
      outer loop
         vertex 7.218634e+000 8.650708e+000 0.000000e+000
         vertex 7.218634e+000 8.650708e+000 1.000000e+001
         vertex 6.812176e+000 8.922295e+000 1.000000e+001
      endloop
   endfacet
   facet normal -5.372762e-001 -8.434064e-001 0.000000e+000
      outer loop
         vertex 7.218634e+000 8.650708e+000 0.000000e+000
         vertex 6.812176e+000 8.922295e+000 1.000000e+001
         vertex 6.812176e+000 8.922295e+000 0.000000e+000
      endloop
   endfacet
   facet normal -4.617732e-001 -8.869980e-001 0.000000e+000
      outer loop
         vertex 6.812176e+000 8.922295e+000 0.000000e+000
         vertex 6.812176e+000 8.922295e+000 1.000000e+001
         vertex 6.373746e+000 9.138504e+000 1.000000e+001
      endloop
   endfacet
   facet normal -4.225931e-001 -9.063195e-001 0.000000e+000
      outer loop
         vertex 6.812176e+000 8.922295e+000 0.000000e+000
         vertex 6.373746e+000 9.138504e+000 1.000000e+001
         vertex 6.373746e+000 9.138504e+000 0.000000e+000
      endloop
   endfacet
   facet normal -3.420462e-001 -9.396831e-001 0.000000e+000
      outer loop
         vertex 6.373746e+000 9.138504e+000 0.000000e+000
         vertex 6.373746e+000 9.138504e+000 1.000000e+001
         vertex 5.910845e+000 9.295638e+000 1.000000e+001
      endloop
   endfacet
   facet normal -3.006794e-001 -9.537253e-001 0.000000e+000
      outer loop
         vertex 6.373746e+000 9.138504e+000 0.000000e+000
         vertex 5.910845e+000 9.295638e+000 1.000000e+001
         vertex 5.910845e+000 9.295638e+000 0.000000e+000
      endloop
   endfacet
   facet normal -2.164667e-001 -9.762900e-001 0.000000e+000
      outer loop
         vertex 5.910845e+000 9.295638e+000 0.000000e+000
         vertex 5.910845e+000 9.295638e+000 1.000000e+001
         vertex 5.431396e+000 9.391006e+000 1.000000e+001
      endloop
   endfacet
   facet normal -1.736209e-001 -9.848126e-001 0.000000e+000
      outer loop
         vertex 5.910845e+000 9.295638e+000 0.000000e+000
         vertex 5.431396e+000 9.391006e+000 1.000000e+001
         vertex 5.431396e+000 9.391006e+000 0.000000e+000
      endloop
   endfacet
   facet normal -8.718336e-002 -9.961922e-001 0.000000e+000
      outer loop
         vertex 5.431396e+000 9.391006e+000 0.000000e+000
         vertex 5.431396e+000 9.391006e+000 1.000000e+001
         vertex 4.943599e+000 9.422978e+000 1.000000e+001
      endloop
   endfacet
   facet normal -4.359168e-002 -9.990495e-001 0.000000e+000
      outer loop
         vertex 5.431396e+000 9.391006e+000 0.000000e+000
         vertex 4.943599e+000 9.422978e+000 1.000000e+001
         vertex 4.943599e+000 9.422978e+000 0.000000e+000
      endloop
   endfacet
   facet normal 4.359168e-002 -9.990495e-001 0.000000e+000
      outer loop
         vertex 4.943599e+000 9.422978e+000 0.000000e+000
         vertex 4.943599e+000 9.422978e+000 1.000000e+001
         vertex 4.455802e+000 9.391006e+000 1.000000e+001
      endloop
   endfacet
   facet normal 8.718336e-002 -9.961922e-001 0.000000e+000
      outer loop
         vertex 4.943599e+000 9.422978e+000 0.000000e+000
         vertex 4.455802e+000 9.391006e+000 1.000000e+001
         vertex 4.455802e+000 9.391006e+000 0.000000e+000
      endloop
   endfacet
   facet normal 1.736209e-001 -9.848126e-001 0.000000e+000
      outer loop
         vertex 4.455802e+000 9.391006e+000 0.000000e+000
         vertex 4.455802e+000 9.391006e+000 1.000000e+001
         vertex 3.976352e+000 9.295638e+000 1.000000e+001
      endloop
   endfacet
   facet normal 2.164667e-001 -9.762900e-001 0.000000e+000
      outer loop
         vertex 4.455802e+000 9.391006e+000 0.000000e+000
         vertex 3.976352e+000 9.295638e+000 1.000000e+001
         vertex 3.976352e+000 9.295638e+000 0.000000e+000
      endloop
   endfacet
   facet normal 3.006794e-001 -9.537253e-001 0.000000e+000
      outer loop
         vertex 3.976352e+000 9.295638e+000 0.000000e+000
         vertex 3.976352e+000 9.295638e+000 1.000000e+001
         vertex 3.513452e+000 9.138504e+000 1.000000e+001
      endloop
   endfacet
   facet normal 3.420462e-001 -9.396831e-001 0.000000e+000
      outer loop
         vertex 3.976352e+000 9.295638e+000 0.000000e+000
         vertex 3.513452e+000 9.138504e+000 1.000000e+001
         vertex 3.513452e+000 9.138504e+000 0.000000e+000
      endloop
   endfacet
   facet normal 4.225931e-001 -9.063195e-001 0.000000e+000
      outer loop
         vertex 3.513452e+000 9.138504e+000 0.000000e+000
         vertex 3.513452e+000 9.138504e+000 1.000000e+001
         vertex 3.075022e+000 8.922295e+000 1.000000e+001
      endloop
   endfacet
   facet normal 4.617732e-001 -8.869980e-001 0.000000e+000
      outer loop
         vertex 3.513452e+000 9.138504e+000 0.000000e+000
         vertex 3.075022e+000 8.922295e+000 1.000000e+001
         vertex 3.075022e+000 8.922295e+000 0.000000e+000
      endloop
   endfacet
   facet normal 5.372763e-001 -8.434063e-001 0.000000e+000
      outer loop
         vertex 3.075022e+000 8.922295e+000 0.000000e+000
         vertex 3.075022e+000 8.922295e+000 1.000000e+001
         vertex 2.668564e+000 8.650708e+000 1.000000e+001
      endloop
   endfacet
   facet normal 5.735992e-001 -8.191361e-001 0.000000e+000
      outer loop
         vertex 3.075022e+000 8.922295e+000 0.000000e+000
         vertex 2.668564e+000 8.650708e+000 1.000000e+001
         vertex 2.668564e+000 8.650708e+000 0.000000e+000
      endloop
   endfacet
   facet normal 6.427664e-001 -7.660623e-001 0.000000e+000
      outer loop
         vertex 2.668564e+000 8.650708e+000 0.000000e+000
         vertex 2.668564e+000 8.650708e+000 1.000000e+001
         vertex 2.301032e+000 8.328391e+000 1.000000e+001
      endloop
   endfacet
   facet normal 6.756107e-001 -7.372586e-001 0.000000e+000
      outer loop
         vertex 2.668564e+000 8.650708e+000 0.000000e+000
         vertex 2.301032e+000 8.328391e+000 1.000000e+001
         vertex 2.301032e+000 8.328391e+000 0.000000e+000
      endloop
   endfacet
   facet normal 7.372586e-001 -6.756107e-001 0.000000e+000
      outer loop
         vertex 2.301032e+000 8.328391e+000 0.000000e+000
         vertex 2.301032e+000 8.328391e+000 1.000000e+001
         vertex 1.978715e+000 7.960860e+000 1.000000e+001
      endloop
   endfacet
   facet normal 7.660623e-001 -6.427664e-001 0.000000e+000
      outer loop
         vertex 2.301032e+000 8.328391e+000 0.000000e+000
         vertex 1.978715e+000 7.960860e+000 1.000000e+001
         vertex 1.978715e+000 7.960860e+000 0.000000e+000
      endloop
   endfacet
   facet normal 8.191361e-001 -5.735992e-001 0.000000e+000
      outer loop
         vertex 1.978715e+000 7.960860e+000 0.000000e+000
         vertex 1.978715e+000 7.960860e+000 1.000000e+001
         vertex 1.707129e+000 7.554401e+000 1.000000e+001
      endloop
   endfacet
   facet normal 8.434064e-001 -5.372762e-001 0.000000e+000
      outer loop
         vertex 1.978715e+000 7.960860e+000 0.000000e+000
         vertex 1.707129e+000 7.554401e+000 1.000000e+001
         vertex 1.707129e+000 7.554401e+000 0.000000e+000
      endloop
   endfacet
   facet normal 8.869980e-001 -4.617732e-001 0.000000e+000
      outer loop
         vertex 1.707129e+000 7.554401e+000 0.000000e+000
         vertex 1.707129e+000 7.554401e+000 1.000000e+001
         vertex 1.490919e+000 7.115971e+000 1.000000e+001
      endloop
   endfacet
   facet normal 9.063195e-001 -4.225931e-001 0.000000e+000
      outer loop
         vertex 1.707129e+000 7.554401e+000 0.000000e+000
         vertex 1.490919e+000 7.115971e+000 1.000000e+001
         vertex 1.490919e+000 7.115971e+000 0.000000e+000
      endloop
   endfacet
   facet normal 9.396831e-001 -3.420462e-001 0.000000e+000
      outer loop
         vertex 1.490919e+000 7.115971e+000 0.000000e+000
         vertex 1.490919e+000 7.115971e+000 1.000000e+001
         vertex 1.333785e+000 6.653071e+000 1.000000e+001
      endloop
   endfacet
   facet normal 9.537253e-001 -3.006794e-001 0.000000e+000
      outer loop
         vertex 1.490919e+000 7.115971e+000 0.000000e+000
         vertex 1.333785e+000 6.653071e+000 1.000000e+001
         vertex 1.333785e+000 6.653071e+000 0.000000e+000
      endloop
   endfacet
   facet normal 9.762900e-001 -2.164667e-001 0.000000e+000
      outer loop
         vertex 1.333785e+000 6.653071e+000 0.000000e+000
         vertex 1.333785e+000 6.653071e+000 1.000000e+001
         vertex 1.238417e+000 6.173621e+000 1.000000e+001
      endloop
   endfacet
   facet normal 9.848126e-001 -1.736209e-001 0.000000e+000
      outer loop
         vertex 1.333785e+000 6.653071e+000 0.000000e+000
         vertex 1.238417e+000 6.173621e+000 1.000000e+001
         vertex 1.238417e+000 6.173621e+000 0.000000e+000
      endloop
   endfacet
   facet normal 9.961922e-001 -8.718336e-002 0.000000e+000
      outer loop
         vertex 1.238417e+000 6.173621e+000 0.000000e+000
         vertex 1.238417e+000 6.173621e+000 1.000000e+001
         vertex 1.206445e+000 5.685824e+000 1.000000e+001
      endloop
   endfacet
   facet normal 9.990495e-001 -4.359168e-002 0.000000e+000
      outer loop
         vertex 1.238417e+000 6.173621e+000 0.000000e+000
         vertex 1.206445e+000 5.685824e+000 1.000000e+001
         vertex 1.206445e+000 5.685824e+000 0.000000e+000
      endloop
   endfacet
   facet normal -1.000000e+000 0.000000e+000 0.000000e+000
      outer loop
         vertex 8.680753e+000 5.685824e+000 0.000000e+000
         vertex 8.680753e+000 4.313985e+000 0.000000e+000
         vertex 8.680753e+000 5.685824e+000 1.000000e+001
      endloop
   endfacet
   facet normal -1.000000e+000 0.000000e+000 0.000000e+000
      outer loop
         vertex 8.680753e+000 5.685824e+000 1.000000e+001
         vertex 8.680753e+000 4.313985e+000 0.000000e+000
         vertex 8.680753e+000 4.313985e+000 1.000000e+001
      endloop
   endfacet
endsolid