solid 11_215
   facet normal -1.000000e+000 0.000000e+000 0.000000e+000
      outer loop
         vertex 0.000000e+000 1.000000e+001 1.000000e+001
         vertex 0.000000e+000 1.000000e+001 0.000000e+000
         vertex 0.000000e+000 0.000000e+000 1.000000e+001
      endloop
   endfacet
   facet normal -1.000000e+000 0.000000e+000 0.000000e+000
      outer loop
         vertex 0.000000e+000 0.000000e+000 1.000000e+001
         vertex 0.000000e+000 1.000000e+001 0.000000e+000
         vertex 0.000000e+000 0.000000e+000 0.000000e+000
      endloop
   endfacet
   facet normal 0.000000e+000 0.000000e+000 1.000000e+000
      outer loop
         vertex 5.226404e+000 4.070113e+000 1.000000e+001
         vertex 5.107790e+000 3.815745e+000 1.000000e+001
         vertex 1.000000e+001 0.000000e+000 1.000000e+001
      endloop
   endfacet
   facet normal 0.000000e+000 0.000000e+000 1.000000e+000
      outer loop
         vertex 5.226404e+000 4.070113e+000 1.000000e+001
         vertex 1.000000e+001 0.000000e+000 1.000000e+001
         vertex 5.299046e+000 4.341214e+000 1.000000e+001
      endloop
   endfacet
   facet normal 0.000000e+000 0.000000e+000 1.000000e+000
      outer loop
         vertex 2.678408e+000 7.928013e+000 1.000000e+001
         vertex 2.908314e+000 8.088995e+000 1.000000e+001
         vertex 0.000000e+000 1.000000e+001 1.000000e+001
      endloop
   endfacet
   facet normal 0.000000e+000 0.000000e+000 1.000000e+000
      outer loop
         vertex 0.000000e+000 1.000000e+001 1.000000e+001
         vertex 2.908314e+000 8.088995e+000 1.000000e+001
         vertex 3.162682e+000 8.207608e+000 1.000000e+001
      endloop
   endfacet
   facet normal 0.000000e+000 0.000000e+000 1.000000e+000
      outer loop
         vertex 5.107790e+000 3.815745e+000 1.000000e+001
         vertex 4.946808e+000 3.585839e+000 1.000000e+001
         vertex 1.000000e+001 0.000000e+000 1.000000e+001
      endloop
   endfacet
   facet normal 0.000000e+000 0.000000e+000 1.000000e+000
      outer loop
         vertex 1.000000e+001 0.000000e+000 1.000000e+001
         vertex 4.946808e+000 3.585839e+000 1.000000e+001
         vertex 4.748349e+000 3.387379e+000 1.000000e+001
      endloop
   endfacet
   facet normal 0.000000e+000 0.000000e+000 1.000000e+000
      outer loop
         vertex 1.000000e+001 0.000000e+000 1.000000e+001
         vertex 4.748349e+000 3.387379e+000 1.000000e+001
         vertex 4.518443e+000 3.226397e+000 1.000000e+001
      endloop
   endfacet
   facet normal 0.000000e+000 0.000000e+000 1.000000e+000
      outer loop
         vertex 3.433782e+000 3.035142e+000 1.000000e+001
         vertex 3.162682e+000 3.107784e+000 1.000000e+001
         vertex 0.000000e+000 0.000000e+000 1.000000e+001
      endloop
   endfacet
   facet normal 0.000000e+000 0.000000e+000 1.000000e+000
      outer loop
         vertex 0.000000e+000 0.000000e+000 1.000000e+001
         vertex 3.162682e+000 3.107784e+000 1.000000e+001
         vertex 2.908314e+000 3.226397e+000 1.000000e+001
      endloop
   endfacet
   facet normal 0.000000e+000 0.000000e+000 1.000000e+000
      outer loop
         vertex 0.000000e+000 0.000000e+000 1.000000e+001
         vertex 2.908314e+000 3.226397e+000 1.000000e+001
         vertex 2.678408e+000 3.387379e+000 1.000000e+001
      endloop
   endfacet
   facet normal 0.000000e+000 0.000000e+000 1.000000e+000
      outer loop
         vertex 4.518443e+000 3.226397e+000 1.000000e+001
         vertex 4.264075e+000 3.107784e+000 1.000000e+001
         vertex 1.000000e+001 0.000000e+000 1.000000e+001
      endloop
   endfacet
   facet normal 0.000000e+000 0.000000e+000 1.000000e+000
      outer loop
         vertex 1.000000e+001 0.000000e+000 1.000000e+001
         vertex 4.264075e+000 3.107784e+000 1.000000e+001
         vertex 3.992974e+000 3.035142e+000 1.000000e+001
      endloop
   endfacet
   facet normal 0.000000e+000 0.000000e+000 1.000000e+000
      outer loop
         vertex 1.000000e+001 0.000000e+000 1.000000e+001
         vertex 3.992974e+000 3.035142e+000 1.000000e+001
         vertex 0.000000e+000 0.000000e+000 1.000000e+001
      endloop
   endfacet
   facet normal 0.000000e+000 0.000000e+000 1.000000e+000
      outer loop
         vertex 0.000000e+000 0.000000e+000 1.000000e+001
         vertex 3.992974e+000 3.035142e+000 1.000000e+001
         vertex 3.713378e+000 3.010681e+000 1.000000e+001
      endloop
   endfacet
   facet normal 0.000000e+000 0.000000e+000 1.000000e+000
      outer loop
         vertex 0.000000e+000 0.000000e+000 1.000000e+001
         vertex 3.713378e+000 3.010681e+000 1.000000e+001
         vertex 3.433782e+000 3.035142e+000 1.000000e+001
      endloop
   endfacet
   facet normal 0.000000e+000 0.000000e+000 1.000000e+000
      outer loop
         vertex 2.678408e+000 3.387379e+000 1.000000e+001
         vertex 2.479948e+000 3.585839e+000 1.000000e+001
         vertex 0.000000e+000 0.000000e+000 1.000000e+001
      endloop
   endfacet
   facet normal 0.000000e+000 0.000000e+000 1.000000e+000
      outer loop
         vertex 0.000000e+000 0.000000e+000 1.000000e+001
         vertex 2.479948e+000 3.585839e+000 1.000000e+001
         vertex 2.318966e+000 3.815745e+000 1.000000e+001
      endloop
   endfacet
   facet normal 0.000000e+000 0.000000e+000 1.000000e+000
      outer loop
         vertex 0.000000e+000 0.000000e+000 1.000000e+001
         vertex 2.318966e+000 3.815745e+000 1.000000e+001
         vertex 2.200352e+000 4.070113e+000 1.000000e+001
      endloop
   endfacet
   facet normal 0.000000e+000 0.000000e+000 1.000000e+000
      outer loop
         vertex 2.127711e+000 6.974178e+000 1.000000e+001
         vertex 2.200352e+000 7.245279e+000 1.000000e+001
         vertex 0.000000e+000 1.000000e+001 1.000000e+001
      endloop
   endfacet
   facet normal 0.000000e+000 0.000000e+000 1.000000e+000
      outer loop
         vertex 4.264075e+000 8.207608e+000 1.000000e+001
         vertex 4.518443e+000 8.088995e+000 1.000000e+001
         vertex 1.000000e+001 1.000000e+001 1.000000e+001
      endloop
   endfacet
   facet normal 0.000000e+000 0.000000e+000 1.000000e+000
      outer loop
         vertex 1.000000e+001 1.000000e+001 1.000000e+001
         vertex 4.518443e+000 8.088995e+000 1.000000e+001
         vertex 4.748349e+000 7.928013e+000 1.000000e+001
      endloop
   endfacet
   facet normal 0.000000e+000 0.000000e+000 1.000000e+000
      outer loop
         vertex 5.226404e+000 7.245279e+000 1.000000e+001
         vertex 5.299046e+000 6.974178e+000 1.000000e+001
         vertex 1.000000e+001 1.000000e+001 1.000000e+001
      endloop
   endfacet
   facet normal 0.000000e+000 0.000000e+000 1.000000e+000
      outer loop
         vertex 1.000000e+001 1.000000e+001 1.000000e+001
         vertex 5.299046e+000 6.974178e+000 1.000000e+001
         vertex 5.323507e+000 6.694582e+000 1.000000e+001
      endloop
   endfacet
   facet normal 0.000000e+000 0.000000e+000 1.000000e+000
      outer loop
         vertex 1.000000e+001 1.000000e+001 1.000000e+001
         vertex 5.323507e+000 6.694582e+000 1.000000e+001
         vertex 1.000000e+001 0.000000e+000 1.000000e+001
      endloop
   endfacet
   facet normal 0.000000e+000 0.000000e+000 1.000000e+000
      outer loop
         vertex 1.000000e+001 0.000000e+000 1.000000e+001
         vertex 5.323507e+000 6.694582e+000 1.000000e+001
         vertex 5.323507e+000 4.620810e+000 1.000000e+001
      endloop
   endfacet
   facet normal 0.000000e+000 0.000000e+000 1.000000e+000
      outer loop
         vertex 1.000000e+001 0.000000e+000 1.000000e+001
         vertex 5.323507e+000 4.620810e+000 1.000000e+001
         vertex 5.299046e+000 4.341214e+000 1.000000e+001
      endloop
   endfacet
   facet normal 0.000000e+000 0.000000e+000 1.000000e+000
      outer loop
         vertex 2.200352e+000 7.245279e+000 1.000000e+001
         vertex 2.318966e+000 7.499647e+000 1.000000e+001
         vertex 0.000000e+000 1.000000e+001 1.000000e+001
      endloop
   endfacet
   facet normal 0.000000e+000 0.000000e+000 1.000000e+000
      outer loop
         vertex 0.000000e+000 1.000000e+001 1.000000e+001
         vertex 2.318966e+000 7.499647e+000 1.000000e+001
         vertex 2.479948e+000 7.729553e+000 1.000000e+001
      endloop
   endfacet
   facet normal 0.000000e+000 0.000000e+000 1.000000e+000
      outer loop
         vertex 0.000000e+000 1.000000e+001 1.000000e+001
         vertex 2.479948e+000 7.729553e+000 1.000000e+001
         vertex 2.678408e+000 7.928013e+000 1.000000e+001
      endloop
   endfacet
   facet normal 0.000000e+000 0.000000e+000 1.000000e+000
      outer loop
         vertex 3.162682e+000 8.207608e+000 1.000000e+001
         vertex 3.433782e+000 8.280250e+000 1.000000e+001
         vertex 0.000000e+000 1.000000e+001 1.000000e+001
      endloop
   endfacet
   facet normal 0.000000e+000 0.000000e+000 1.000000e+000
      outer loop
         vertex 0.000000e+000 1.000000e+001 1.000000e+001
         vertex 3.433782e+000 8.280250e+000 1.000000e+001
         vertex 3.713378e+000 8.304711e+000 1.000000e+001
      endloop
   endfacet
   facet normal 0.000000e+000 0.000000e+000 1.000000e+000
      outer loop
         vertex 0.000000e+000 1.000000e+001 1.000000e+001
         vertex 3.713378e+000 8.304711e+000 1.000000e+001
         vertex 1.000000e+001 1.000000e+001 1.000000e+001
      endloop
   endfacet
   facet normal 0.000000e+000 0.000000e+000 1.000000e+000
      outer loop
         vertex 1.000000e+001 1.000000e+001 1.000000e+001
         vertex 3.713378e+000 8.304711e+000 1.000000e+001
         vertex 3.992974e+000 8.280250e+000 1.000000e+001
      endloop
   endfacet
   facet normal 0.000000e+000 0.000000e+000 1.000000e+000
      outer loop
         vertex 1.000000e+001 1.000000e+001 1.000000e+001
         vertex 3.992974e+000 8.280250e+000 1.000000e+001
         vertex 4.264075e+000 8.207608e+000 1.000000e+001
      endloop
   endfacet
   facet normal 0.000000e+000 0.000000e+000 1.000000e+000
      outer loop
         vertex 4.748349e+000 7.928013e+000 1.000000e+001
         vertex 4.946808e+000 7.729553e+000 1.000000e+001
         vertex 1.000000e+001 1.000000e+001 1.000000e+001
      endloop
   endfacet
   facet normal 0.000000e+000 0.000000e+000 1.000000e+000
      outer loop
         vertex 1.000000e+001 1.000000e+001 1.000000e+001
         vertex 4.946808e+000 7.729553e+000 1.000000e+001
         vertex 5.107790e+000 7.499647e+000 1.000000e+001
      endloop
   endfacet
   facet normal 0.000000e+000 0.000000e+000 1.000000e+000
      outer loop
         vertex 1.000000e+001 1.000000e+001 1.000000e+001
         vertex 5.107790e+000 7.499647e+000 1.000000e+001
         vertex 5.226404e+000 7.245279e+000 1.000000e+001
      endloop
   endfacet
   facet normal 0.000000e+000 0.000000e+000 1.000000e+000
      outer loop
         vertex 2.200352e+000 4.070113e+000 1.000000e+001
         vertex 2.127711e+000 4.341214e+000 1.000000e+001
         vertex 0.000000e+000 0.000000e+000 1.000000e+001
      endloop
   endfacet
   facet normal 0.000000e+000 0.000000e+000 1.000000e+000
      outer loop
         vertex 0.000000e+000 0.000000e+000 1.000000e+001
         vertex 2.127711e+000 4.341214e+000 1.000000e+001
         vertex 2.103250e+000 4.620810e+000 1.000000e+001
      endloop
   endfacet
   facet normal 0.000000e+000 0.000000e+000 1.000000e+000
      outer loop
         vertex 0.000000e+000 0.000000e+000 1.000000e+001
         vertex 2.103250e+000 4.620810e+000 1.000000e+001
         vertex 0.000000e+000 1.000000e+001 1.000000e+001
      endloop
   endfacet
   facet normal 0.000000e+000 0.000000e+000 1.000000e+000
      outer loop
         vertex 0.000000e+000 1.000000e+001 1.000000e+001
         vertex 2.103250e+000 4.620810e+000 1.000000e+001
         vertex 2.103250e+000 6.694582e+000 1.000000e+001
      endloop
   endfacet
   facet normal 0.000000e+000 0.000000e+000 1.000000e+000
      outer loop
         vertex 0.000000e+000 1.000000e+001 1.000000e+001
         vertex 2.103250e+000 6.694582e+000 1.000000e+001
         vertex 2.127711e+000 6.974178e+000 1.000000e+001
      endloop
   endfacet
   facet normal 1.000000e+000 0.000000e+000 0.000000e+000
      outer loop
         vertex 1.000000e+001 1.000000e+001 0.000000e+000
         vertex 1.000000e+001 1.000000e+001 1.000000e+001
         vertex 1.000000e+001 0.000000e+000 0.000000e+000
      endloop
   endfacet
   facet normal 1.000000e+000 0.000000e+000 0.000000e+000
      outer loop
         vertex 1.000000e+001 0.000000e+000 0.000000e+000
         vertex 1.000000e+001 1.000000e+001 1.000000e+001
         vertex 1.000000e+001 0.000000e+000 1.000000e+001
      endloop
   endfacet
   facet normal 0.000000e+000 0.000000e+000 -1.000000e+000
      outer loop
         vertex 0.000000e+000 0.000000e+000 0.000000e+000
         vertex 2.908314e+000 3.226397e+000 0.000000e+000
         vertex 3.162682e+000 3.107784e+000 0.000000e+000
      endloop
   endfacet
   facet normal 0.000000e+000 0.000000e+000 -1.000000e+000
      outer loop
         vertex 4.946808e+000 3.585839e+000 0.000000e+000
         vertex 5.107790e+000 3.815745e+000 0.000000e+000
         vertex 1.000000e+001 0.000000e+000 0.000000e+000
      endloop
   endfacet
   facet normal 0.000000e+000 0.000000e+000 -1.000000e+000
      outer loop
         vertex 1.000000e+001 0.000000e+000 0.000000e+000
         vertex 5.107790e+000 3.815745e+000 0.000000e+000
         vertex 5.226404e+000 4.070113e+000 0.000000e+000
      endloop
   endfacet
   facet normal 0.000000e+000 0.000000e+000 -1.000000e+000
      outer loop
         vertex 2.318966e+000 3.815745e+000 0.000000e+000
         vertex 0.000000e+000 0.000000e+000 0.000000e+000
         vertex 2.200352e+000 4.070113e+000 0.000000e+000
      endloop
   endfacet
   facet normal 0.000000e+000 0.000000e+000 -1.000000e+000
      outer loop
         vertex 2.200352e+000 4.070113e+000 0.000000e+000
         vertex 0.000000e+000 0.000000e+000 0.000000e+000
         vertex 2.127711e+000 4.341214e+000 0.000000e+000
      endloop
   endfacet
   facet normal 0.000000e+000 0.000000e+000 -1.000000e+000
      outer loop
         vertex 2.318966e+000 3.815745e+000 0.000000e+000
         vertex 2.479948e+000 3.585839e+000 0.000000e+000
         vertex 0.000000e+000 0.000000e+000 0.000000e+000
      endloop
   endfacet
   facet normal 0.000000e+000 0.000000e+000 -1.000000e+000
      outer loop
         vertex 0.000000e+000 0.000000e+000 0.000000e+000
         vertex 2.479948e+000 3.585839e+000 0.000000e+000
         vertex 2.678408e+000 3.387379e+000 0.000000e+000
      endloop
   endfacet
   facet normal 0.000000e+000 0.000000e+000 -1.000000e+000
      outer loop
         vertex 0.000000e+000 0.000000e+000 0.000000e+000
         vertex 2.678408e+000 3.387379e+000 0.000000e+000
         vertex 2.908314e+000 3.226397e+000 0.000000e+000
      endloop
   endfacet
   facet normal 0.000000e+000 0.000000e+000 -1.000000e+000
      outer loop
         vertex 5.299046e+000 6.974178e+000 0.000000e+000
         vertex 5.226404e+000 7.245279e+000 0.000000e+000
         vertex 1.000000e+001 1.000000e+001 0.000000e+000
      endloop
   endfacet
   facet normal 0.000000e+000 0.000000e+000 -1.000000e+000
      outer loop
         vertex 1.000000e+001 1.000000e+001 0.000000e+000
         vertex 5.226404e+000 7.245279e+000 0.000000e+000
         vertex 5.107790e+000 7.499647e+000 0.000000e+000
      endloop
   endfacet
   facet normal 0.000000e+000 0.000000e+000 -1.000000e+000
      outer loop
         vertex 3.433782e+000 8.280250e+000 0.000000e+000
         vertex 3.162682e+000 8.207608e+000 0.000000e+000
         vertex 0.000000e+000 1.000000e+001 0.000000e+000
      endloop
   endfacet
   facet normal 0.000000e+000 0.000000e+000 -1.000000e+000
      outer loop
         vertex 0.000000e+000 1.000000e+001 0.000000e+000
         vertex 3.162682e+000 8.207608e+000 0.000000e+000
         vertex 2.908314e+000 8.088995e+000 0.000000e+000
      endloop
   endfacet
   facet normal 0.000000e+000 0.000000e+000 -1.000000e+000
      outer loop
         vertex 0.000000e+000 1.000000e+001 0.000000e+000
         vertex 2.908314e+000 8.088995e+000 0.000000e+000
         vertex 2.678408e+000 7.928013e+000 0.000000e+000
      endloop
   endfacet
   facet normal 0.000000e+000 0.000000e+000 -1.000000e+000
      outer loop
         vertex 2.678408e+000 7.928013e+000 0.000000e+000
         vertex 2.479948e+000 7.729553e+000 0.000000e+000
         vertex 0.000000e+000 1.000000e+001 0.000000e+000
      endloop
   endfacet
   facet normal 0.000000e+000 0.000000e+000 -1.000000e+000
      outer loop
         vertex 0.000000e+000 1.000000e+001 0.000000e+000
         vertex 2.479948e+000 7.729553e+000 0.000000e+000
         vertex 2.318966e+000 7.499647e+000 0.000000e+000
      endloop
   endfacet
   facet normal 0.000000e+000 0.000000e+000 -1.000000e+000
      outer loop
         vertex 0.000000e+000 1.000000e+001 0.000000e+000
         vertex 2.318966e+000 7.499647e+000 0.000000e+000
         vertex 2.200352e+000 7.245279e+000 0.000000e+000
      endloop
   endfacet
   facet normal 0.000000e+000 0.000000e+000 -1.000000e+000
      outer loop
         vertex 3.162682e+000 3.107784e+000 0.000000e+000
         vertex 3.433782e+000 3.035142e+000 0.000000e+000
         vertex 0.000000e+000 0.000000e+000 0.000000e+000
      endloop
   endfacet
   facet normal 0.000000e+000 0.000000e+000 -1.000000e+000
      outer loop
         vertex 0.000000e+000 0.000000e+000 0.000000e+000
         vertex 3.433782e+000 3.035142e+000 0.000000e+000
         vertex 3.713378e+000 3.010681e+000 0.000000e+000
      endloop
   endfacet
   facet normal 0.000000e+000 0.000000e+000 -1.000000e+000
      outer loop
         vertex 0.000000e+000 0.000000e+000 0.000000e+000
         vertex 3.713378e+000 3.010681e+000 0.000000e+000
         vertex 1.000000e+001 0.000000e+000 0.000000e+000
      endloop
   endfacet
   facet normal 0.000000e+000 0.000000e+000 -1.000000e+000
      outer loop
         vertex 1.000000e+001 0.000000e+000 0.000000e+000
         vertex 3.713378e+000 3.010681e+000 0.000000e+000
         vertex 3.992974e+000 3.035142e+000 0.000000e+000
      endloop
   endfacet
   facet normal 0.000000e+000 0.000000e+000 -1.000000e+000
      outer loop
         vertex 1.000000e+001 0.000000e+000 0.000000e+000
         vertex 3.992974e+000 3.035142e+000 0.000000e+000
         vertex 4.264075e+000 3.107784e+000 0.000000e+000
      endloop
   endfacet
   facet normal 0.000000e+000 0.000000e+000 -1.000000e+000
      outer loop
         vertex 4.264075e+000 3.107784e+000 0.000000e+000
         vertex 4.518443e+000 3.226397e+000 0.000000e+000
         vertex 1.000000e+001 0.000000e+000 0.000000e+000
      endloop
   endfacet
   facet normal 0.000000e+000 0.000000e+000 -1.000000e+000
      outer loop
         vertex 1.000000e+001 0.000000e+000 0.000000e+000
         vertex 4.518443e+000 3.226397e+000 0.000000e+000
         vertex 4.748349e+000 3.387379e+000 0.000000e+000
      endloop
   endfacet
   facet normal 0.000000e+000 0.000000e+000 -1.000000e+000
      outer loop
         vertex 1.000000e+001 0.000000e+000 0.000000e+000
         vertex 4.748349e+000 3.387379e+000 0.000000e+000
         vertex 4.946808e+000 3.585839e+000 0.000000e+000
      endloop
   endfacet
   facet normal 0.000000e+000 0.000000e+000 -1.000000e+000
      outer loop
         vertex 2.200352e+000 7.245279e+000 0.000000e+000
         vertex 2.127711e+000 6.974178e+000 0.000000e+000
         vertex 0.000000e+000 1.000000e+001 0.000000e+000
      endloop
   endfacet
   facet normal 0.000000e+000 0.000000e+000 -1.000000e+000
      outer loop
         vertex 0.000000e+000 1.000000e+001 0.000000e+000
         vertex 2.127711e+000 6.974178e+000 0.000000e+000
         vertex 2.103250e+000 6.694582e+000 0.000000e+000
      endloop
   endfacet
   facet normal 0.000000e+000 0.000000e+000 -1.000000e+000
      outer loop
         vertex 0.000000e+000 1.000000e+001 0.000000e+000
         vertex 2.103250e+000 6.694582e+000 0.000000e+000
         vertex 0.000000e+000 0.000000e+000 0.000000e+000
      endloop
   endfacet
   facet normal 0.000000e+000 0.000000e+000 -1.000000e+000
      outer loop
         vertex 0.000000e+000 0.000000e+000 0.000000e+000
         vertex 2.103250e+000 6.694582e+000 0.000000e+000
         vertex 2.103250e+000 4.620810e+000 0.000000e+000
      endloop
   endfacet
   facet normal 0.000000e+000 0.000000e+000 -1.000000e+000
      outer loop
         vertex 0.000000e+000 0.000000e+000 0.000000e+000
         vertex 2.103250e+000 4.620810e+000 0.000000e+000
         vertex 2.127711e+000 4.341214e+000 0.000000e+000
      endloop
   endfacet
   facet normal 0.000000e+000 0.000000e+000 -1.000000e+000
      outer loop
         vertex 5.107790e+000 7.499647e+000 0.000000e+000
         vertex 4.946808e+000 7.729553e+000 0.000000e+000
         vertex 1.000000e+001 1.000000e+001 0.000000e+000
      endloop
   endfacet
   facet normal 0.000000e+000 0.000000e+000 -1.000000e+000
      outer loop
         vertex 1.000000e+001 1.000000e+001 0.000000e+000
         vertex 4.946808e+000 7.729553e+000 0.000000e+000
         vertex 4.748349e+000 7.928013e+000 0.000000e+000
      endloop
   endfacet
   facet normal 0.000000e+000 0.000000e+000 -1.000000e+000
      outer loop
         vertex 1.000000e+001 1.000000e+001 0.000000e+000
         vertex 4.748349e+000 7.928013e+000 0.000000e+000
         vertex 4.518443e+000 8.088995e+000 0.000000e+000
      endloop
   endfacet
   facet normal 0.000000e+000 0.000000e+000 -1.000000e+000
      outer loop
         vertex 5.226404e+000 4.070113e+000 0.000000e+000
         vertex 5.299046e+000 4.341214e+000 0.000000e+000
         vertex 1.000000e+001 0.000000e+000 0.000000e+000
      endloop
   endfacet
   facet normal 0.000000e+000 0.000000e+000 -1.000000e+000
      outer loop
         vertex 1.000000e+001 0.000000e+000 0.000000e+000
         vertex 5.299046e+000 4.341214e+000 0.000000e+000
         vertex 5.323507e+000 4.620810e+000 0.000000e+000
      endloop
   endfacet
   facet normal 0.000000e+000 0.000000e+000 -1.000000e+000
      outer loop
         vertex 1.000000e+001 0.000000e+000 0.000000e+000
         vertex 5.323507e+000 4.620810e+000 0.000000e+000
         vertex 1.000000e+001 1.000000e+001 0.000000e+000
      endloop
   endfacet
   facet normal 0.000000e+000 0.000000e+000 -1.000000e+000
      outer loop
         vertex 1.000000e+001 1.000000e+001 0.000000e+000
         vertex 5.323507e+000 4.620810e+000 0.000000e+000
         vertex 5.323507e+000 6.694582e+000 0.000000e+000
      endloop
   endfacet
   facet normal 0.000000e+000 0.000000e+000 -1.000000e+000
      outer loop
         vertex 1.000000e+001 1.000000e+001 0.000000e+000
         vertex 5.323507e+000 6.694582e+000 0.000000e+000
         vertex 5.299046e+000 6.974178e+000 0.000000e+000
      endloop
   endfacet
   facet normal 0.000000e+000 0.000000e+000 -1.000000e+000
      outer loop
         vertex 4.518443e+000 8.088995e+000 0.000000e+000
         vertex 4.264075e+000 8.207608e+000 0.000000e+000
         vertex 1.000000e+001 1.000000e+001 0.000000e+000
      endloop
   endfacet
   facet normal 0.000000e+000 0.000000e+000 -1.000000e+000
      outer loop
         vertex 1.000000e+001 1.000000e+001 0.000000e+000
         vertex 4.264075e+000 8.207608e+000 0.000000e+000
         vertex 3.992974e+000 8.280250e+000 0.000000e+000
      endloop
   endfacet
   facet normal 0.000000e+000 0.000000e+000 -1.000000e+000
      outer loop
         vertex 1.000000e+001 1.000000e+001 0.000000e+000
         vertex 3.992974e+000 8.280250e+000 0.000000e+000
         vertex 0.000000e+000 1.000000e+001 0.000000e+000
      endloop
   endfacet
   facet normal 0.000000e+000 0.000000e+000 -1.000000e+000
      outer loop
         vertex 0.000000e+000 1.000000e+001 0.000000e+000
         vertex 3.992974e+000 8.280250e+000 0.000000e+000
         vertex 3.713378e+000 8.304711e+000 0.000000e+000
      endloop
   endfacet
   facet normal 0.000000e+000 0.000000e+000 -1.000000e+000
      outer loop
         vertex 0.000000e+000 1.000000e+001 0.000000e+000
         vertex 3.713378e+000 8.304711e+000 0.000000e+000
         vertex 3.433782e+000 8.280250e+000 0.000000e+000
      endloop
   endfacet
   facet normal 0.000000e+000 1.000000e+000 0.000000e+000
      outer loop
         vertex 1.000000e+001 1.000000e+001 1.000000e+001
         vertex 1.000000e+001 1.000000e+001 0.000000e+000
         vertex 0.000000e+000 1.000000e+001 1.000000e+001
      endloop
   endfacet
   facet normal 0.000000e+000 1.000000e+000 0.000000e+000
      outer loop
         vertex 0.000000e+000 1.000000e+001 1.000000e+001
         vertex 1.000000e+001 1.000000e+001 0.000000e+000
         vertex 0.000000e+000 1.000000e+001 0.000000e+000
      endloop
   endfacet
   facet normal 0.000000e+000 -1.000000e+000 0.000000e+000
      outer loop
         vertex 1.000000e+001 0.000000e+000 0.000000e+000
         vertex 1.000000e+001 0.000000e+000 1.000000e+001
         vertex 0.000000e+000 0.000000e+000 0.000000e+000
      endloop
   endfacet
   facet normal 0.000000e+000 -1.000000e+000 0.000000e+000
      outer loop
         vertex 0.000000e+000 0.000000e+000 0.000000e+000
         vertex 1.000000e+001 0.000000e+000 1.000000e+001
         vertex 0.000000e+000 0.000000e+000 1.000000e+001
      endloop
   endfacet
   facet normal 9.983119e-001 5.807913e-002 0.000000e+000
      outer loop
         vertex 2.103250e+000 4.620810e+000 0.000000e+000
         vertex 2.103250e+000 4.620810e+000 1.000000e+001
         vertex 2.127711e+000 4.341214e+000 1.000000e+001
      endloop
   endfacet
   facet normal 9.932307e-001 1.161583e-001 0.000000e+000
      outer loop
         vertex 2.103250e+000 4.620810e+000 0.000000e+000
         vertex 2.127711e+000 4.341214e+000 1.000000e+001
         vertex 2.127711e+000 4.341214e+000 0.000000e+000
      endloop
   endfacet
   facet normal 9.730600e-001 2.305519e-001 0.000000e+000
      outer loop
         vertex 2.127711e+000 4.341214e+000 0.000000e+000
         vertex 2.127711e+000 4.341214e+000 1.000000e+001
         vertex 2.200352e+000 4.070113e+000 1.000000e+001
      endloop
   endfacet
   facet normal 9.579706e-001 2.868663e-001 0.000000e+000
      outer loop
         vertex 2.127711e+000 4.341214e+000 0.000000e+000
         vertex 2.200352e+000 4.070113e+000 1.000000e+001
         vertex 2.200352e+000 4.070113e+000 0.000000e+000
      endloop
   endfacet
   facet normal 9.182422e-001 3.960194e-001 0.000000e+000
      outer loop
         vertex 2.200352e+000 4.070113e+000 0.000000e+000
         vertex 2.200352e+000 4.070113e+000 1.000000e+001
         vertex 2.318966e+000 3.815745e+000 1.000000e+001
      endloop
   endfacet
   facet normal 8.936031e-001 4.488580e-001 0.000000e+000
      outer loop
         vertex 2.200352e+000 4.070113e+000 0.000000e+000
         vertex 2.318966e+000 3.815745e+000 1.000000e+001
         vertex 2.318966e+000 3.815745e+000 0.000000e+000
      endloop
   endfacet
   facet normal 8.355240e-001 5.494540e-001 0.000000e+000
      outer loop
         vertex 2.318966e+000 3.815745e+000 0.000000e+000
         vertex 2.318966e+000 3.815745e+000 1.000000e+001
         vertex 2.479948e+000 3.585839e+000 1.000000e+001
      endloop
   endfacet
   facet normal 8.020838e-001 5.972114e-001 0.000000e+000
      outer loop
         vertex 2.318966e+000 3.815745e+000 0.000000e+000
         vertex 2.479948e+000 3.585839e+000 1.000000e+001
         vertex 2.479948e+000 3.585839e+000 0.000000e+000
      endloop
   endfacet
   facet normal 7.274188e-001 6.861938e-001 0.000000e+000
      outer loop
         vertex 2.479948e+000 3.585839e+000 0.000000e+000
         vertex 2.479948e+000 3.585839e+000 1.000000e+001
         vertex 2.678408e+000 3.387379e+000 1.000000e+001
      endloop
   endfacet
   facet normal 6.861938e-001 7.274188e-001 0.000000e+000
      outer loop
         vertex 2.479948e+000 3.585839e+000 0.000000e+000
         vertex 2.678408e+000 3.387379e+000 1.000000e+001
         vertex 2.678408e+000 3.387379e+000 0.000000e+000
      endloop
   endfacet
   facet normal 5.972114e-001 8.020838e-001 0.000000e+000
      outer loop
         vertex 2.678408e+000 3.387379e+000 0.000000e+000
         vertex 2.678408e+000 3.387379e+000 1.000000e+001
         vertex 2.908314e+000 3.226397e+000 1.000000e+001
      endloop
   endfacet
   facet normal 5.494540e-001 8.355240e-001 0.000000e+000
      outer loop
         vertex 2.678408e+000 3.387379e+000 0.000000e+000
         vertex 2.908314e+000 3.226397e+000 1.000000e+001
         vertex 2.908314e+000 3.226397e+000 0.000000e+000
      endloop
   endfacet
   facet normal 4.488580e-001 8.936031e-001 0.000000e+000
      outer loop
         vertex 2.908314e+000 3.226397e+000 0.000000e+000
         vertex 2.908314e+000 3.226397e+000 1.000000e+001
         vertex 3.162682e+000 3.107784e+000 1.000000e+001
      endloop
   endfacet
   facet normal 3.960194e-001 9.182422e-001 0.000000e+000
      outer loop
         vertex 2.908314e+000 3.226397e+000 0.000000e+000
         vertex 3.162682e+000 3.107784e+000 1.000000e+001
         vertex 3.162682e+000 3.107784e+000 0.000000e+000
      endloop
   endfacet
   facet normal 2.868663e-001 9.579706e-001 0.000000e+000
      outer loop
         vertex 3.162682e+000 3.107784e+000 0.000000e+000
         vertex 3.162682e+000 3.107784e+000 1.000000e+001
         vertex 3.433782e+000 3.035142e+000 1.000000e+001
      endloop
   endfacet
   facet normal 2.305519e-001 9.730600e-001 0.000000e+000
      outer loop
         vertex 3.162682e+000 3.107784e+000 0.000000e+000
         vertex 3.433782e+000 3.035142e+000 1.000000e+001
         vertex 3.433782e+000 3.035142e+000 0.000000e+000
      endloop
   endfacet
   facet normal 1.161583e-001 9.932307e-001 0.000000e+000
      outer loop
         vertex 3.433782e+000 3.035142e+000 0.000000e+000
         vertex 3.433782e+000 3.035142e+000 1.000000e+001
         vertex 3.713378e+000 3.010681e+000 1.000000e+001
      endloop
   endfacet
   facet normal 5.807913e-002 9.983119e-001 0.000000e+000
      outer loop
         vertex 3.433782e+000 3.035142e+000 0.000000e+000
         vertex 3.713378e+000 3.010681e+000 1.000000e+001
         vertex 3.713378e+000 3.010681e+000 0.000000e+000
      endloop
   endfacet
   facet normal -5.807913e-002 9.983119e-001 0.000000e+000
      outer loop
         vertex 3.713378e+000 3.010681e+000 0.000000e+000
         vertex 3.713378e+000 3.010681e+000 1.000000e+001
         vertex 3.992974e+000 3.035142e+000 1.000000e+001
      endloop
   endfacet
   facet normal -1.161583e-001 9.932307e-001 0.000000e+000
      outer loop
         vertex 3.713378e+000 3.010681e+000 0.000000e+000
         vertex 3.992974e+000 3.035142e+000 1.000000e+001
         vertex 3.992974e+000 3.035142e+000 0.000000e+000
      endloop
   endfacet
   facet normal -2.305519e-001 9.730600e-001 0.000000e+000
      outer loop
         vertex 3.992974e+000 3.035142e+000 0.000000e+000
         vertex 3.992974e+000 3.035142e+000 1.000000e+001
         vertex 4.264075e+000 3.107784e+000 1.000000e+001
      endloop
   endfacet
   facet normal -2.868663e-001 9.579706e-001 0.000000e+000
      outer loop
         vertex 3.992974e+000 3.035142e+000 0.000000e+000
         vertex 4.264075e+000 3.107784e+000 1.000000e+001
         vertex 4.264075e+000 3.107784e+000 0.000000e+000
      endloop
   endfacet
   facet normal -3.960194e-001 9.182422e-001 0.000000e+000
      outer loop
         vertex 4.264075e+000 3.107784e+000 0.000000e+000
         vertex 4.264075e+000 3.107784e+000 1.000000e+001
         vertex 4.518443e+000 3.226397e+000 1.000000e+001
      endloop
   endfacet
   facet normal -4.488580e-001 8.936031e-001 0.000000e+000
      outer loop
         vertex 4.264075e+000 3.107784e+000 0.000000e+000
         vertex 4.518443e+000 3.226397e+000 1.000000e+001
         vertex 4.518443e+000 3.226397e+000 0.000000e+000
      endloop
   endfacet
   facet normal -5.494540e-001 8.355240e-001 0.000000e+000
      outer loop
         vertex 4.518443e+000 3.226397e+000 0.000000e+000
         vertex 4.518443e+000 3.226397e+000 1.000000e+001
         vertex 4.748349e+000 3.387379e+000 1.000000e+001
      endloop
   endfacet
   facet normal -5.972114e-001 8.020838e-001 0.000000e+000
      outer loop
         vertex 4.518443e+000 3.226397e+000 0.000000e+000
         vertex 4.748349e+000 3.387379e+000 1.000000e+001
         vertex 4.748349e+000 3.387379e+000 0.000000e+000
      endloop
   endfacet
   facet normal -6.861938e-001 7.274188e-001 0.000000e+000
      outer loop
         vertex 4.748349e+000 3.387379e+000 0.000000e+000
         vertex 4.748349e+000 3.387379e+000 1.000000e+001
         vertex 4.946808e+000 3.585839e+000 1.000000e+001
      endloop
   endfacet
   facet normal -7.274188e-001 6.861938e-001 0.000000e+000
      outer loop
         vertex 4.748349e+000 3.387379e+000 0.000000e+000
         vertex 4.946808e+000 3.585839e+000 1.000000e+001
         vertex 4.946808e+000 3.585839e+000 0.000000e+000
      endloop
   endfacet
   facet normal -8.020838e-001 5.972114e-001 0.000000e+000
      outer loop
         vertex 4.946808e+000 3.585839e+000 0.000000e+000
         vertex 4.946808e+000 3.585839e+000 1.000000e+001
         vertex 5.107790e+000 3.815745e+000 1.000000e+001
      endloop
   endfacet
   facet normal -8.355240e-001 5.494540e-001 0.000000e+000
      outer loop
         vertex 4.946808e+000 3.585839e+000 0.000000e+000
         vertex 5.107790e+000 3.815745e+000 1.000000e+001
         vertex 5.107790e+000 3.815745e+000 0.000000e+000
      endloop
   endfacet
   facet normal -8.936031e-001 4.488580e-001 0.000000e+000
      outer loop
         vertex 5.107790e+000 3.815745e+000 0.000000e+000
         vertex 5.107790e+000 3.815745e+000 1.000000e+001
         vertex 5.226404e+000 4.070113e+000 1.000000e+001
      endloop
   endfacet
   facet normal -9.182422e-001 3.960194e-001 0.000000e+000
      outer loop
         vertex 5.107790e+000 3.815745e+000 0.000000e+000
         vertex 5.226404e+000 4.070113e+000 1.000000e+001
         vertex 5.226404e+000 4.070113e+000 0.000000e+000
      endloop
   endfacet
   facet normal -9.579706e-001 2.868663e-001 0.000000e+000
      outer loop
         vertex 5.226404e+000 4.070113e+000 0.000000e+000
         vertex 5.226404e+000 4.070113e+000 1.000000e+001
         vertex 5.299046e+000 4.341214e+000 1.000000e+001
      endloop
   endfacet
   facet normal -9.730600e-001 2.305519e-001 0.000000e+000
      outer loop
         vertex 5.226404e+000 4.070113e+000 0.000000e+000
         vertex 5.299046e+000 4.341214e+000 1.000000e+001
         vertex 5.299046e+000 4.341214e+000 0.000000e+000
      endloop
   endfacet
   facet normal -9.932307e-001 1.161583e-001 0.000000e+000
      outer loop
         vertex 5.299046e+000 4.341214e+000 0.000000e+000
         vertex 5.299046e+000 4.341214e+000 1.000000e+001
         vertex 5.323507e+000 4.620810e+000 1.000000e+001
      endloop
   endfacet
   facet normal -9.983119e-001 5.807913e-002 0.000000e+000
      outer loop
         vertex 5.299046e+000 4.341214e+000 0.000000e+000
         vertex 5.323507e+000 4.620810e+000 1.000000e+001
         vertex 5.323507e+000 4.620810e+000 0.000000e+000
      endloop
   endfacet
   facet normal 1.000000e+000 0.000000e+000 0.000000e+000
      outer loop
         vertex 2.103250e+000 4.620810e+000 0.000000e+000
         vertex 2.103250e+000 6.694582e+000 0.000000e+000
         vertex 2.103250e+000 4.620810e+000 1.000000e+001
      endloop
   endfacet
   facet normal 1.000000e+000 0.000000e+000 0.000000e+000
      outer loop
         vertex 2.103250e+000 4.620810e+000 1.000000e+001
         vertex 2.103250e+000 6.694582e+000 0.000000e+000
         vertex 2.103250e+000 6.694582e+000 1.000000e+001
      endloop
   endfacet
   facet normal -9.983119e-001 -5.807913e-002 0.000000e+000
      outer loop
         vertex 5.323507e+000 6.694582e+000 0.000000e+000
         vertex 5.323507e+000 6.694582e+000 1.000000e+001
         vertex 5.299046e+000 6.974178e+000 1.000000e+001
      endloop
   endfacet
   facet normal -9.932307e-001 -1.161583e-001 0.000000e+000
      outer loop
         vertex 5.323507e+000 6.694582e+000 0.000000e+000
         vertex 5.299046e+000 6.974178e+000 1.000000e+001
         vertex 5.299046e+000 6.974178e+000 0.000000e+000
      endloop
   endfacet
   facet normal -9.730600e-001 -2.305519e-001 0.000000e+000
      outer loop
         vertex 5.299046e+000 6.974178e+000 0.000000e+000
         vertex 5.299046e+000 6.974178e+000 1.000000e+001
         vertex 5.226404e+000 7.245279e+000 1.000000e+001
      endloop
   endfacet
   facet normal -9.579706e-001 -2.868663e-001 0.000000e+000
      outer loop
         vertex 5.299046e+000 6.974178e+000 0.000000e+000
         vertex 5.226404e+000 7.245279e+000 1.000000e+001
         vertex 5.226404e+000 7.245279e+000 0.000000e+000
      endloop
   endfacet
   facet normal -9.182422e-001 -3.960194e-001 0.000000e+000
      outer loop
         vertex 5.226404e+000 7.245279e+000 0.000000e+000
         vertex 5.226404e+000 7.245279e+000 1.000000e+001
         vertex 5.107790e+000 7.499647e+000 1.000000e+001
      endloop
   endfacet
   facet normal -8.936031e-001 -4.488580e-001 0.000000e+000
      outer loop
         vertex 5.226404e+000 7.245279e+000 0.000000e+000
         vertex 5.107790e+000 7.499647e+000 1.000000e+001
         vertex 5.107790e+000 7.499647e+000 0.000000e+000
      endloop
   endfacet
   facet normal -8.355240e-001 -5.494540e-001 0.000000e+000
      outer loop
         vertex 5.107790e+000 7.499647e+000 0.000000e+000
         vertex 5.107790e+000 7.499647e+000 1.000000e+001
         vertex 4.946808e+000 7.729553e+000 1.000000e+001
      endloop
   endfacet
   facet normal -8.020838e-001 -5.972114e-001 0.000000e+000
      outer loop
         vertex 5.107790e+000 7.499647e+000 0.000000e+000
         vertex 4.946808e+000 7.729553e+000 1.000000e+001
         vertex 4.946808e+000 7.729553e+000 0.000000e+000
      endloop
   endfacet
   facet normal -7.274188e-001 -6.861938e-001 0.000000e+000
      outer loop
         vertex 4.946808e+000 7.729553e+000 0.000000e+000
         vertex 4.946808e+000 7.729553e+000 1.000000e+001
         vertex 4.748349e+000 7.928013e+000 1.000000e+001
      endloop
   endfacet
   facet normal -6.861938e-001 -7.274188e-001 0.000000e+000
      outer loop
         vertex 4.946808e+000 7.729553e+000 0.000000e+000
         vertex 4.748349e+000 7.928013e+000 1.000000e+001
         vertex 4.748349e+000 7.928013e+000 0.000000e+000
      endloop
   endfacet
   facet normal -5.972114e-001 -8.020838e-001 0.000000e+000
      outer loop
         vertex 4.748349e+000 7.928013e+000 0.000000e+000
         vertex 4.748349e+000 7.928013e+000 1.000000e+001
         vertex 4.518443e+000 8.088995e+000 1.000000e+001
      endloop
   endfacet
   facet normal -5.494540e-001 -8.355240e-001 0.000000e+000
      outer loop
         vertex 4.748349e+000 7.928013e+000 0.000000e+000
         vertex 4.518443e+000 8.088995e+000 1.000000e+001
         vertex 4.518443e+000 8.088995e+000 0.000000e+000
      endloop
   endfacet
   facet normal -4.488580e-001 -8.936031e-001 0.000000e+000
      outer loop
         vertex 4.518443e+000 8.088995e+000 0.000000e+000
         vertex 4.518443e+000 8.088995e+000 1.000000e+001
         vertex 4.264075e+000 8.207608e+000 1.000000e+001
      endloop
   endfacet
   facet normal -3.960194e-001 -9.182422e-001 0.000000e+000
      outer loop
         vertex 4.518443e+000 8.088995e+000 0.000000e+000
         vertex 4.264075e+000 8.207608e+000 1.000000e+001
         vertex 4.264075e+000 8.207608e+000 0.000000e+000
      endloop
   endfacet
   facet normal -2.868663e-001 -9.579706e-001 0.000000e+000
      outer loop
         vertex 4.264075e+000 8.207608e+000 0.000000e+000
         vertex 4.264075e+000 8.207608e+000 1.000000e+001
         vertex 3.992974e+000 8.280250e+000 1.000000e+001
      endloop
   endfacet
   facet normal -2.305519e-001 -9.730600e-001 0.000000e+000
      outer loop
         vertex 4.264075e+000 8.207608e+000 0.000000e+000
         vertex 3.992974e+000 8.280250e+000 1.000000e+001
         vertex 3.992974e+000 8.280250e+000 0.000000e+000
      endloop
   endfacet
   facet normal -1.161583e-001 -9.932307e-001 0.000000e+000
      outer loop
         vertex 3.992974e+000 8.280250e+000 0.000000e+000
         vertex 3.992974e+000 8.280250e+000 1.000000e+001
         vertex 3.713378e+000 8.304711e+000 1.000000e+001
      endloop
   endfacet
   facet normal -5.807913e-002 -9.983119e-001 0.000000e+000
      outer loop
         vertex 3.992974e+000 8.280250e+000 0.000000e+000
         vertex 3.713378e+000 8.304711e+000 1.000000e+001
         vertex 3.713378e+000 8.304711e+000 0.000000e+000
      endloop
   endfacet
   facet normal 5.807913e-002 -9.983119e-001 0.000000e+000
      outer loop
         vertex 3.713378e+000 8.304711e+000 0.000000e+000
         vertex 3.713378e+000 8.304711e+000 1.000000e+001
         vertex 3.433782e+000 8.280250e+000 1.000000e+001
      endloop
   endfacet
   facet normal 1.161583e-001 -9.932307e-001 0.000000e+000
      outer loop
         vertex 3.713378e+000 8.304711e+000 0.000000e+000
         vertex 3.433782e+000 8.280250e+000 1.000000e+001
         vertex 3.433782e+000 8.280250e+000 0.000000e+000
      endloop
   endfacet
   facet normal 2.305519e-001 -9.730600e-001 0.000000e+000
      outer loop
         vertex 3.433782e+000 8.280250e+000 0.000000e+000
         vertex 3.433782e+000 8.280250e+000 1.000000e+001
         vertex 3.162682e+000 8.207608e+000 1.000000e+001
      endloop
   endfacet
   facet normal 2.868663e-001 -9.579706e-001 0.000000e+000
      outer loop
         vertex 3.433782e+000 8.280250e+000 0.000000e+000
         vertex 3.162682e+000 8.207608e+000 1.000000e+001
         vertex 3.162682e+000 8.207608e+000 0.000000e+000
      endloop
   endfacet
   facet normal 3.960194e-001 -9.182422e-001 0.000000e+000
      outer loop
         vertex 3.162682e+000 8.207608e+000 0.000000e+000
         vertex 3.162682e+000 8.207608e+000 1.000000e+001
         vertex 2.908314e+000 8.088995e+000 1.000000e+001
      endloop
   endfacet
   facet normal 4.488580e-001 -8.936031e-001 0.000000e+000
      outer loop
         vertex 3.162682e+000 8.207608e+000 0.000000e+000
         vertex 2.908314e+000 8.088995e+000 1.000000e+001
         vertex 2.908314e+000 8.088995e+000 0.000000e+000
      endloop
   endfacet
   facet normal 5.494540e-001 -8.355240e-001 0.000000e+000
      outer loop
         vertex 2.908314e+000 8.088995e+000 0.000000e+000
         vertex 2.908314e+000 8.088995e+000 1.000000e+001
         vertex 2.678408e+000 7.928013e+000 1.000000e+001
      endloop
   endfacet
   facet normal 5.972114e-001 -8.020838e-001 0.000000e+000
      outer loop
         vertex 2.908314e+000 8.088995e+000 0.000000e+000
         vertex 2.678408e+000 7.928013e+000 1.000000e+001
         vertex 2.678408e+000 7.928013e+000 0.000000e+000
      endloop
   endfacet
   facet normal 6.861938e-001 -7.274188e-001 0.000000e+000
      outer loop
         vertex 2.678408e+000 7.928013e+000 0.000000e+000
         vertex 2.678408e+000 7.928013e+000 1.000000e+001
         vertex 2.479948e+000 7.729553e+000 1.000000e+001
      endloop
   endfacet
   facet normal 7.274188e-001 -6.861938e-001 0.000000e+000
      outer loop
         vertex 2.678408e+000 7.928013e+000 0.000000e+000
         vertex 2.479948e+000 7.729553e+000 1.000000e+001
         vertex 2.479948e+000 7.729553e+000 0.000000e+000
      endloop
   endfacet
   facet normal 8.020838e-001 -5.972114e-001 0.000000e+000
      outer loop
         vertex 2.479948e+000 7.729553e+000 0.000000e+000
         vertex 2.479948e+000 7.729553e+000 1.000000e+001
         vertex 2.318966e+000 7.499647e+000 1.000000e+001
      endloop
   endfacet
   facet normal 8.355240e-001 -5.494540e-001 0.000000e+000
      outer loop
         vertex 2.479948e+000 7.729553e+000 0.000000e+000
         vertex 2.318966e+000 7.499647e+000 1.000000e+001
         vertex 2.318966e+000 7.499647e+000 0.000000e+000
      endloop
   endfacet
   facet normal 8.936031e-001 -4.488580e-001 0.000000e+000
      outer loop
         vertex 2.318966e+000 7.499647e+000 0.000000e+000
         vertex 2.318966e+000 7.499647e+000 1.000000e+001
         vertex 2.200352e+000 7.245279e+000 1.000000e+001
      endloop
   endfacet
   facet normal 9.182422e-001 -3.960194e-001 0.000000e+000
      outer loop
         vertex 2.318966e+000 7.499647e+000 0.000000e+000
         vertex 2.200352e+000 7.245279e+000 1.000000e+001
         vertex 2.200352e+000 7.245279e+000 0.000000e+000
      endloop
   endfacet
   facet normal 9.579706e-001 -2.868663e-001 0.000000e+000
      outer loop
         vertex 2.200352e+000 7.245279e+000 0.000000e+000
         vertex 2.200352e+000 7.245279e+000 1.000000e+001
         vertex 2.127711e+000 6.974178e+000 1.000000e+001
      endloop
   endfacet
   facet normal 9.730600e-001 -2.305519e-001 0.000000e+000
      outer loop
         vertex 2.200352e+000 7.245279e+000 0.000000e+000
         vertex 2.127711e+000 6.974178e+000 1.000000e+001
         vertex 2.127711e+000 6.974178e+000 0.000000e+000
      endloop
   endfacet
   facet normal 9.932307e-001 -1.161583e-001 0.000000e+000
      outer loop
         vertex 2.127711e+000 6.974178e+000 0.000000e+000
         vertex 2.127711e+000 6.974178e+000 1.000000e+001
         vertex 2.103250e+000 6.694582e+000 1.000000e+001
      endloop
   endfacet
   facet normal 9.983119e-001 -5.807913e-002 0.000000e+000
      outer loop
         vertex 2.127711e+000 6.974178e+000 0.000000e+000
         vertex 2.103250e+000 6.694582e+000 1.000000e+001
         vertex 2.103250e+000 6.694582e+000 0.000000e+000
      endloop
   endfacet
   facet normal -1.000000e+000 0.000000e+000 0.000000e+000
      outer loop
         vertex 5.323507e+000 6.694582e+000 0.000000e+000
         vertex 5.323507e+000 4.620810e+000 0.000000e+000
         vertex 5.323507e+000 6.694582e+000 1.000000e+001
      endloop
   endfacet
   facet normal -1.000000e+000 0.000000e+000 0.000000e+000
      outer loop
         vertex 5.323507e+000 6.694582e+000 1.000000e+001
         vertex 5.323507e+000 4.620810e+000 0.000000e+000
         vertex 5.323507e+000 4.620810e+000 1.000000e+001
      endloop
   endfacet
endsolid