solid 11_271
   facet normal -1.000000e+000 0.000000e+000 0.000000e+000
      outer loop
         vertex 0.000000e+000 1.000000e+001 1.000000e+001
         vertex 0.000000e+000 1.000000e+001 0.000000e+000
         vertex 0.000000e+000 0.000000e+000 1.000000e+001
      endloop
   endfacet
   facet normal -1.000000e+000 0.000000e+000 0.000000e+000
      outer loop
         vertex 0.000000e+000 0.000000e+000 1.000000e+001
         vertex 0.000000e+000 1.000000e+001 0.000000e+000
         vertex 0.000000e+000 0.000000e+000 0.000000e+000
      endloop
   endfacet
   facet normal 0.000000e+000 0.000000e+000 1.000000e+000
      outer loop
         vertex 5.540855e+000 1.624187e+000 1.000000e+001
         vertex 1.000000e+001 0.000000e+000 1.000000e+001
         vertex 5.863541e+000 1.774658e+000 1.000000e+001
      endloop
   endfacet
   facet normal 0.000000e+000 0.000000e+000 1.000000e+000
      outer loop
         vertex 5.863541e+000 1.774658e+000 1.000000e+001
         vertex 1.000000e+001 0.000000e+000 1.000000e+001
         vertex 6.155196e+000 1.978877e+000 1.000000e+001
      endloop
   endfacet
   facet normal 0.000000e+000 0.000000e+000 1.000000e+000
      outer loop
         vertex 1.000000e+001 0.000000e+000 1.000000e+001
         vertex 6.853800e+000 3.188894e+000 1.000000e+001
         vertex 6.761649e+000 2.844981e+000 1.000000e+001
      endloop
   endfacet
   facet normal 0.000000e+000 0.000000e+000 1.000000e+000
      outer loop
         vertex 1.000000e+001 1.000000e+001 1.000000e+001
         vertex 5.540855e+000 7.785668e+000 1.000000e+001
         vertex 5.863541e+000 7.635197e+000 1.000000e+001
      endloop
   endfacet
   facet normal 0.000000e+000 0.000000e+000 1.000000e+000
      outer loop
         vertex 1.000000e+001 1.000000e+001 1.000000e+001
         vertex 6.884831e+000 5.866271e+000 1.000000e+001
         vertex 1.000000e+001 0.000000e+000 1.000000e+001
      endloop
   endfacet
   facet normal 0.000000e+000 0.000000e+000 1.000000e+000
      outer loop
         vertex 1.000000e+001 0.000000e+000 1.000000e+001
         vertex 6.884831e+000 5.866271e+000 1.000000e+001
         vertex 6.884831e+000 3.543585e+000 1.000000e+001
      endloop
   endfacet
   facet normal 0.000000e+000 0.000000e+000 1.000000e+000
      outer loop
         vertex 1.000000e+001 0.000000e+000 1.000000e+001
         vertex 6.884831e+000 3.543585e+000 1.000000e+001
         vertex 6.853800e+000 3.188894e+000 1.000000e+001
      endloop
   endfacet
   facet normal 0.000000e+000 0.000000e+000 1.000000e+000
      outer loop
         vertex 6.761649e+000 2.844981e+000 1.000000e+001
         vertex 6.611177e+000 2.522295e+000 1.000000e+001
         vertex 1.000000e+001 0.000000e+000 1.000000e+001
      endloop
   endfacet
   facet normal 0.000000e+000 0.000000e+000 1.000000e+000
      outer loop
         vertex 1.000000e+001 0.000000e+000 1.000000e+001
         vertex 6.611177e+000 2.522295e+000 1.000000e+001
         vertex 6.406958e+000 2.230639e+000 1.000000e+001
      endloop
   endfacet
   facet normal 0.000000e+000 0.000000e+000 1.000000e+000
      outer loop
         vertex 1.000000e+001 0.000000e+000 1.000000e+001
         vertex 6.406958e+000 2.230639e+000 1.000000e+001
         vertex 6.155196e+000 1.978877e+000 1.000000e+001
      endloop
   endfacet
   facet normal 0.000000e+000 0.000000e+000 1.000000e+000
      outer loop
         vertex 5.540855e+000 1.624187e+000 1.000000e+001
         vertex 5.196941e+000 1.532036e+000 1.000000e+001
         vertex 1.000000e+001 0.000000e+000 1.000000e+001
      endloop
   endfacet
   facet normal 0.000000e+000 0.000000e+000 1.000000e+000
      outer loop
         vertex 1.000000e+001 0.000000e+000 1.000000e+001
         vertex 5.196941e+000 1.532036e+000 1.000000e+001
         vertex 4.842251e+000 1.501004e+000 1.000000e+001
      endloop
   endfacet
   facet normal 0.000000e+000 0.000000e+000 1.000000e+000
      outer loop
         vertex 1.000000e+001 0.000000e+000 1.000000e+001
         vertex 4.842251e+000 1.501004e+000 1.000000e+001
         vertex 0.000000e+000 0.000000e+000 1.000000e+001
      endloop
   endfacet
   facet normal 0.000000e+000 0.000000e+000 1.000000e+000
      outer loop
         vertex 0.000000e+000 0.000000e+000 1.000000e+001
         vertex 4.842251e+000 1.501004e+000 1.000000e+001
         vertex 4.487561e+000 1.532036e+000 1.000000e+001
      endloop
   endfacet
   facet normal 0.000000e+000 0.000000e+000 1.000000e+000
      outer loop
         vertex 4.487561e+000 7.877819e+000 1.000000e+001
         vertex 4.842251e+000 7.908851e+000 1.000000e+001
         vertex 0.000000e+000 1.000000e+001 1.000000e+001
      endloop
   endfacet
   facet normal 0.000000e+000 0.000000e+000 1.000000e+000
      outer loop
         vertex 5.863541e+000 7.635197e+000 1.000000e+001
         vertex 6.155196e+000 7.430978e+000 1.000000e+001
         vertex 1.000000e+001 1.000000e+001 1.000000e+001
      endloop
   endfacet
   facet normal 0.000000e+000 0.000000e+000 1.000000e+000
      outer loop
         vertex 1.000000e+001 1.000000e+001 1.000000e+001
         vertex 6.155196e+000 7.430978e+000 1.000000e+001
         vertex 6.406958e+000 7.179216e+000 1.000000e+001
      endloop
   endfacet
   facet normal 0.000000e+000 0.000000e+000 1.000000e+000
      outer loop
         vertex 1.000000e+001 1.000000e+001 1.000000e+001
         vertex 6.406958e+000 7.179216e+000 1.000000e+001
         vertex 6.611177e+000 6.887561e+000 1.000000e+001
      endloop
   endfacet
   facet normal 0.000000e+000 0.000000e+000 1.000000e+000
      outer loop
         vertex 6.611177e+000 6.887561e+000 1.000000e+001
         vertex 6.761649e+000 6.564874e+000 1.000000e+001
         vertex 1.000000e+001 1.000000e+001 1.000000e+001
      endloop
   endfacet
   facet normal 0.000000e+000 0.000000e+000 1.000000e+000
      outer loop
         vertex 1.000000e+001 1.000000e+001 1.000000e+001
         vertex 6.761649e+000 6.564874e+000 1.000000e+001
         vertex 6.853800e+000 6.220961e+000 1.000000e+001
      endloop
   endfacet
   facet normal 0.000000e+000 0.000000e+000 1.000000e+000
      outer loop
         vertex 1.000000e+001 1.000000e+001 1.000000e+001
         vertex 6.853800e+000 6.220961e+000 1.000000e+001
         vertex 6.884831e+000 5.866271e+000 1.000000e+001
      endloop
   endfacet
   facet normal 0.000000e+000 0.000000e+000 1.000000e+000
      outer loop
         vertex 4.487561e+000 1.532036e+000 1.000000e+001
         vertex 4.143647e+000 1.624187e+000 1.000000e+001
         vertex 0.000000e+000 0.000000e+000 1.000000e+001
      endloop
   endfacet
   facet normal 0.000000e+000 0.000000e+000 1.000000e+000
      outer loop
         vertex 0.000000e+000 0.000000e+000 1.000000e+001
         vertex 4.143647e+000 1.624187e+000 1.000000e+001
         vertex 3.820961e+000 1.774658e+000 1.000000e+001
      endloop
   endfacet
   facet normal 0.000000e+000 0.000000e+000 1.000000e+000
      outer loop
         vertex 0.000000e+000 0.000000e+000 1.000000e+001
         vertex 3.820961e+000 1.774658e+000 1.000000e+001
         vertex 3.529306e+000 1.978877e+000 1.000000e+001
      endloop
   endfacet
   facet normal 0.000000e+000 0.000000e+000 1.000000e+000
      outer loop
         vertex 3.529306e+000 1.978877e+000 1.000000e+001
         vertex 3.277544e+000 2.230639e+000 1.000000e+001
         vertex 0.000000e+000 0.000000e+000 1.000000e+001
      endloop
   endfacet
   facet normal 0.000000e+000 0.000000e+000 1.000000e+000
      outer loop
         vertex 0.000000e+000 0.000000e+000 1.000000e+001
         vertex 3.277544e+000 2.230639e+000 1.000000e+001
         vertex 3.073325e+000 2.522295e+000 1.000000e+001
      endloop
   endfacet
   facet normal 0.000000e+000 0.000000e+000 1.000000e+000
      outer loop
         vertex 0.000000e+000 0.000000e+000 1.000000e+001
         vertex 3.073325e+000 2.522295e+000 1.000000e+001
         vertex 2.922853e+000 2.844981e+000 1.000000e+001
      endloop
   endfacet
   facet normal 0.000000e+000 0.000000e+000 1.000000e+000
      outer loop
         vertex 0.000000e+000 1.000000e+001 1.000000e+001
         vertex 4.842251e+000 7.908851e+000 1.000000e+001
         vertex 1.000000e+001 1.000000e+001 1.000000e+001
      endloop
   endfacet
   facet normal 0.000000e+000 0.000000e+000 1.000000e+000
      outer loop
         vertex 1.000000e+001 1.000000e+001 1.000000e+001
         vertex 4.842251e+000 7.908851e+000 1.000000e+001
         vertex 5.196941e+000 7.877819e+000 1.000000e+001
      endloop
   endfacet
   facet normal 0.000000e+000 0.000000e+000 1.000000e+000
      outer loop
         vertex 1.000000e+001 1.000000e+001 1.000000e+001
         vertex 5.196941e+000 7.877819e+000 1.000000e+001
         vertex 5.540855e+000 7.785668e+000 1.000000e+001
      endloop
   endfacet
   facet normal 0.000000e+000 0.000000e+000 1.000000e+000
      outer loop
         vertex 2.830702e+000 6.220961e+000 1.000000e+001
         vertex 2.922853e+000 6.564874e+000 1.000000e+001
         vertex 0.000000e+000 1.000000e+001 1.000000e+001
      endloop
   endfacet
   facet normal 0.000000e+000 0.000000e+000 1.000000e+000
      outer loop
         vertex 2.922853e+000 6.564874e+000 1.000000e+001
         vertex 3.073325e+000 6.887561e+000 1.000000e+001
         vertex 0.000000e+000 1.000000e+001 1.000000e+001
      endloop
   endfacet
   facet normal 0.000000e+000 0.000000e+000 1.000000e+000
      outer loop
         vertex 0.000000e+000 1.000000e+001 1.000000e+001
         vertex 3.073325e+000 6.887561e+000 1.000000e+001
         vertex 3.277544e+000 7.179216e+000 1.000000e+001
      endloop
   endfacet
   facet normal 0.000000e+000 0.000000e+000 1.000000e+000
      outer loop
         vertex 0.000000e+000 1.000000e+001 1.000000e+001
         vertex 3.277544e+000 7.179216e+000 1.000000e+001
         vertex 3.529306e+000 7.430978e+000 1.000000e+001
      endloop
   endfacet
   facet normal 0.000000e+000 0.000000e+000 1.000000e+000
      outer loop
         vertex 3.529306e+000 7.430978e+000 1.000000e+001
         vertex 3.820961e+000 7.635197e+000 1.000000e+001
         vertex 0.000000e+000 1.000000e+001 1.000000e+001
      endloop
   endfacet
   facet normal 0.000000e+000 0.000000e+000 1.000000e+000
      outer loop
         vertex 0.000000e+000 1.000000e+001 1.000000e+001
         vertex 3.820961e+000 7.635197e+000 1.000000e+001
         vertex 4.143647e+000 7.785668e+000 1.000000e+001
      endloop
   endfacet
   facet normal 0.000000e+000 0.000000e+000 1.000000e+000
      outer loop
         vertex 0.000000e+000 1.000000e+001 1.000000e+001
         vertex 4.143647e+000 7.785668e+000 1.000000e+001
         vertex 4.487561e+000 7.877819e+000 1.000000e+001
      endloop
   endfacet
   facet normal 0.000000e+000 0.000000e+000 1.000000e+000
      outer loop
         vertex 2.922853e+000 2.844981e+000 1.000000e+001
         vertex 2.830702e+000 3.188894e+000 1.000000e+001
         vertex 0.000000e+000 0.000000e+000 1.000000e+001
      endloop
   endfacet
   facet normal 0.000000e+000 0.000000e+000 1.000000e+000
      outer loop
         vertex 0.000000e+000 0.000000e+000 1.000000e+001
         vertex 2.830702e+000 3.188894e+000 1.000000e+001
         vertex 2.799671e+000 3.543585e+000 1.000000e+001
      endloop
   endfacet
   facet normal 0.000000e+000 0.000000e+000 1.000000e+000
      outer loop
         vertex 0.000000e+000 0.000000e+000 1.000000e+001
         vertex 2.799671e+000 3.543585e+000 1.000000e+001
         vertex 0.000000e+000 1.000000e+001 1.000000e+001
      endloop
   endfacet
   facet normal 0.000000e+000 0.000000e+000 1.000000e+000
      outer loop
         vertex 0.000000e+000 1.000000e+001 1.000000e+001
         vertex 2.799671e+000 3.543585e+000 1.000000e+001
         vertex 2.799671e+000 5.866271e+000 1.000000e+001
      endloop
   endfacet
   facet normal 0.000000e+000 0.000000e+000 1.000000e+000
      outer loop
         vertex 0.000000e+000 1.000000e+001 1.000000e+001
         vertex 2.799671e+000 5.866271e+000 1.000000e+001
         vertex 2.830702e+000 6.220961e+000 1.000000e+001
      endloop
   endfacet
   facet normal 1.000000e+000 0.000000e+000 0.000000e+000
      outer loop
         vertex 1.000000e+001 1.000000e+001 0.000000e+000
         vertex 1.000000e+001 1.000000e+001 1.000000e+001
         vertex 1.000000e+001 0.000000e+000 0.000000e+000
      endloop
   endfacet
   facet normal 1.000000e+000 0.000000e+000 0.000000e+000
      outer loop
         vertex 1.000000e+001 0.000000e+000 0.000000e+000
         vertex 1.000000e+001 1.000000e+001 1.000000e+001
         vertex 1.000000e+001 0.000000e+000 1.000000e+001
      endloop
   endfacet
   facet normal 0.000000e+000 0.000000e+000 -1.000000e+000
      outer loop
         vertex 6.155196e+000 1.978877e+000 0.000000e+000
         vertex 1.000000e+001 0.000000e+000 0.000000e+000
         vertex 5.863541e+000 1.774658e+000 0.000000e+000
      endloop
   endfacet
   facet normal 0.000000e+000 0.000000e+000 -1.000000e+000
      outer loop
         vertex 5.863541e+000 1.774658e+000 0.000000e+000
         vertex 1.000000e+001 0.000000e+000 0.000000e+000
         vertex 5.540855e+000 1.624187e+000 0.000000e+000
      endloop
   endfacet
   facet normal 0.000000e+000 0.000000e+000 -1.000000e+000
      outer loop
         vertex 4.143647e+000 1.624187e+000 0.000000e+000
         vertex 4.487561e+000 1.532036e+000 0.000000e+000
         vertex 0.000000e+000 0.000000e+000 0.000000e+000
      endloop
   endfacet
   facet normal 0.000000e+000 0.000000e+000 -1.000000e+000
      outer loop
         vertex 0.000000e+000 0.000000e+000 0.000000e+000
         vertex 4.487561e+000 1.532036e+000 0.000000e+000
         vertex 4.842251e+000 1.501004e+000 0.000000e+000
      endloop
   endfacet
   facet normal 0.000000e+000 0.000000e+000 -1.000000e+000
      outer loop
         vertex 0.000000e+000 0.000000e+000 0.000000e+000
         vertex 4.842251e+000 1.501004e+000 0.000000e+000
         vertex 1.000000e+001 0.000000e+000 0.000000e+000
      endloop
   endfacet
   facet normal 0.000000e+000 0.000000e+000 -1.000000e+000
      outer loop
         vertex 1.000000e+001 0.000000e+000 0.000000e+000
         vertex 4.842251e+000 1.501004e+000 0.000000e+000
         vertex 5.196941e+000 1.532036e+000 0.000000e+000
      endloop
   endfacet
   facet normal 0.000000e+000 0.000000e+000 -1.000000e+000
      outer loop
         vertex 1.000000e+001 0.000000e+000 0.000000e+000
         vertex 5.196941e+000 1.532036e+000 0.000000e+000
         vertex 5.540855e+000 1.624187e+000 0.000000e+000
      endloop
   endfacet
   facet normal 0.000000e+000 0.000000e+000 -1.000000e+000
      outer loop
         vertex 6.853800e+000 6.220961e+000 0.000000e+000
         vertex 6.761649e+000 6.564874e+000 0.000000e+000
         vertex 1.000000e+001 1.000000e+001 0.000000e+000
      endloop
   endfacet
   facet normal 0.000000e+000 0.000000e+000 -1.000000e+000
      outer loop
         vertex 1.000000e+001 1.000000e+001 0.000000e+000
         vertex 6.761649e+000 6.564874e+000 0.000000e+000
         vertex 6.611177e+000 6.887561e+000 0.000000e+000
      endloop
   endfacet
   facet normal 0.000000e+000 0.000000e+000 -1.000000e+000
      outer loop
         vertex 1.000000e+001 1.000000e+001 0.000000e+000
         vertex 6.611177e+000 6.887561e+000 0.000000e+000
         vertex 6.406958e+000 7.179216e+000 0.000000e+000
      endloop
   endfacet
   facet normal 0.000000e+000 0.000000e+000 -1.000000e+000
      outer loop
         vertex 0.000000e+000 1.000000e+001 0.000000e+000
         vertex 4.842251e+000 7.908851e+000 0.000000e+000
         vertex 4.487561e+000 7.877819e+000 0.000000e+000
      endloop
   endfacet
   facet normal 0.000000e+000 0.000000e+000 -1.000000e+000
      outer loop
         vertex 4.487561e+000 7.877819e+000 0.000000e+000
         vertex 4.143647e+000 7.785668e+000 0.000000e+000
         vertex 0.000000e+000 1.000000e+001 0.000000e+000
      endloop
   endfacet
   facet normal 0.000000e+000 0.000000e+000 -1.000000e+000
      outer loop
         vertex 0.000000e+000 1.000000e+001 0.000000e+000
         vertex 4.143647e+000 7.785668e+000 0.000000e+000
         vertex 3.820961e+000 7.635197e+000 0.000000e+000
      endloop
   endfacet
   facet normal 0.000000e+000 0.000000e+000 -1.000000e+000
      outer loop
         vertex 0.000000e+000 1.000000e+001 0.000000e+000
         vertex 3.820961e+000 7.635197e+000 0.000000e+000
         vertex 3.529306e+000 7.430978e+000 0.000000e+000
      endloop
   endfacet
   facet normal 0.000000e+000 0.000000e+000 -1.000000e+000
      outer loop
         vertex 2.830702e+000 3.188894e+000 0.000000e+000
         vertex 2.922853e+000 2.844981e+000 0.000000e+000
         vertex 0.000000e+000 0.000000e+000 0.000000e+000
      endloop
   endfacet
   facet normal 0.000000e+000 0.000000e+000 -1.000000e+000
      outer loop
         vertex 0.000000e+000 0.000000e+000 0.000000e+000
         vertex 2.922853e+000 2.844981e+000 0.000000e+000
         vertex 3.073325e+000 2.522295e+000 0.000000e+000
      endloop
   endfacet
   facet normal 0.000000e+000 0.000000e+000 -1.000000e+000
      outer loop
         vertex 0.000000e+000 0.000000e+000 0.000000e+000
         vertex 3.073325e+000 2.522295e+000 0.000000e+000
         vertex 3.277544e+000 2.230639e+000 0.000000e+000
      endloop
   endfacet
   facet normal 0.000000e+000 0.000000e+000 -1.000000e+000
      outer loop
         vertex 3.277544e+000 2.230639e+000 0.000000e+000
         vertex 3.529306e+000 1.978877e+000 0.000000e+000
         vertex 0.000000e+000 0.000000e+000 0.000000e+000
      endloop
   endfacet
   facet normal 0.000000e+000 0.000000e+000 -1.000000e+000
      outer loop
         vertex 0.000000e+000 0.000000e+000 0.000000e+000
         vertex 3.529306e+000 1.978877e+000 0.000000e+000
         vertex 3.820961e+000 1.774658e+000 0.000000e+000
      endloop
   endfacet
   facet normal 0.000000e+000 0.000000e+000 -1.000000e+000
      outer loop
         vertex 0.000000e+000 0.000000e+000 0.000000e+000
         vertex 3.820961e+000 1.774658e+000 0.000000e+000
         vertex 4.143647e+000 1.624187e+000 0.000000e+000
      endloop
   endfacet
   facet normal 0.000000e+000 0.000000e+000 -1.000000e+000
      outer loop
         vertex 4.842251e+000 7.908851e+000 0.000000e+000
         vertex 0.000000e+000 1.000000e+001 0.000000e+000
         vertex 5.196941e+000 7.877819e+000 0.000000e+000
      endloop
   endfacet
   facet normal 0.000000e+000 0.000000e+000 -1.000000e+000
      outer loop
         vertex 5.196941e+000 7.877819e+000 0.000000e+000
         vertex 0.000000e+000 1.000000e+001 0.000000e+000
         vertex 1.000000e+001 1.000000e+001 0.000000e+000
      endloop
   endfacet
   facet normal 0.000000e+000 0.000000e+000 -1.000000e+000
      outer loop
         vertex 5.196941e+000 7.877819e+000 0.000000e+000
         vertex 1.000000e+001 1.000000e+001 0.000000e+000
         vertex 5.540855e+000 7.785668e+000 0.000000e+000
      endloop
   endfacet
   facet normal 0.000000e+000 0.000000e+000 -1.000000e+000
      outer loop
         vertex 3.529306e+000 7.430978e+000 0.000000e+000
         vertex 3.277544e+000 7.179216e+000 0.000000e+000
         vertex 0.000000e+000 1.000000e+001 0.000000e+000
      endloop
   endfacet
   facet normal 0.000000e+000 0.000000e+000 -1.000000e+000
      outer loop
         vertex 0.000000e+000 1.000000e+001 0.000000e+000
         vertex 3.277544e+000 7.179216e+000 0.000000e+000
         vertex 3.073325e+000 6.887561e+000 0.000000e+000
      endloop
   endfacet
   facet normal 0.000000e+000 0.000000e+000 -1.000000e+000
      outer loop
         vertex 0.000000e+000 1.000000e+001 0.000000e+000
         vertex 3.073325e+000 6.887561e+000 0.000000e+000
         vertex 2.922853e+000 6.564874e+000 0.000000e+000
      endloop
   endfacet
   facet normal 0.000000e+000 0.000000e+000 -1.000000e+000
      outer loop
         vertex 6.155196e+000 1.978877e+000 0.000000e+000
         vertex 6.406958e+000 2.230639e+000 0.000000e+000
         vertex 1.000000e+001 0.000000e+000 0.000000e+000
      endloop
   endfacet
   facet normal 0.000000e+000 0.000000e+000 -1.000000e+000
      outer loop
         vertex 1.000000e+001 0.000000e+000 0.000000e+000
         vertex 6.406958e+000 2.230639e+000 0.000000e+000
         vertex 6.611177e+000 2.522295e+000 0.000000e+000
      endloop
   endfacet
   facet normal 0.000000e+000 0.000000e+000 -1.000000e+000
      outer loop
         vertex 1.000000e+001 0.000000e+000 0.000000e+000
         vertex 6.611177e+000 2.522295e+000 0.000000e+000
         vertex 6.761649e+000 2.844981e+000 0.000000e+000
      endloop
   endfacet
   facet normal 0.000000e+000 0.000000e+000 -1.000000e+000
      outer loop
         vertex 6.761649e+000 2.844981e+000 0.000000e+000
         vertex 6.853800e+000 3.188894e+000 0.000000e+000
         vertex 1.000000e+001 0.000000e+000 0.000000e+000
      endloop
   endfacet
   facet normal 0.000000e+000 0.000000e+000 -1.000000e+000
      outer loop
         vertex 1.000000e+001 0.000000e+000 0.000000e+000
         vertex 6.853800e+000 3.188894e+000 0.000000e+000
         vertex 6.884831e+000 3.543585e+000 0.000000e+000
      endloop
   endfacet
   facet normal 0.000000e+000 0.000000e+000 -1.000000e+000
      outer loop
         vertex 1.000000e+001 0.000000e+000 0.000000e+000
         vertex 6.884831e+000 3.543585e+000 0.000000e+000
         vertex 1.000000e+001 1.000000e+001 0.000000e+000
      endloop
   endfacet
   facet normal 0.000000e+000 0.000000e+000 -1.000000e+000
      outer loop
         vertex 1.000000e+001 1.000000e+001 0.000000e+000
         vertex 6.884831e+000 3.543585e+000 0.000000e+000
         vertex 6.884831e+000 5.866271e+000 0.000000e+000
      endloop
   endfacet
   facet normal 0.000000e+000 0.000000e+000 -1.000000e+000
      outer loop
         vertex 1.000000e+001 1.000000e+001 0.000000e+000
         vertex 6.884831e+000 5.866271e+000 0.000000e+000
         vertex 6.853800e+000 6.220961e+000 0.000000e+000
      endloop
   endfacet
   facet normal 0.000000e+000 0.000000e+000 -1.000000e+000
      outer loop
         vertex 6.406958e+000 7.179216e+000 0.000000e+000
         vertex 6.155196e+000 7.430978e+000 0.000000e+000
         vertex 1.000000e+001 1.000000e+001 0.000000e+000
      endloop
   endfacet
   facet normal 0.000000e+000 0.000000e+000 -1.000000e+000
      outer loop
         vertex 1.000000e+001 1.000000e+001 0.000000e+000
         vertex 6.155196e+000 7.430978e+000 0.000000e+000
         vertex 5.863541e+000 7.635197e+000 0.000000e+000
      endloop
   endfacet
   facet normal 0.000000e+000 0.000000e+000 -1.000000e+000
      outer loop
         vertex 1.000000e+001 1.000000e+001 0.000000e+000
         vertex 5.863541e+000 7.635197e+000 0.000000e+000
         vertex 5.540855e+000 7.785668e+000 0.000000e+000
      endloop
   endfacet
   facet normal 0.000000e+000 0.000000e+000 -1.000000e+000
      outer loop
         vertex 2.922853e+000 6.564874e+000 0.000000e+000
         vertex 2.830702e+000 6.220961e+000 0.000000e+000
         vertex 0.000000e+000 1.000000e+001 0.000000e+000
      endloop
   endfacet
   facet normal 0.000000e+000 0.000000e+000 -1.000000e+000
      outer loop
         vertex 0.000000e+000 1.000000e+001 0.000000e+000
         vertex 2.830702e+000 6.220961e+000 0.000000e+000
         vertex 2.799671e+000 5.866271e+000 0.000000e+000
      endloop
   endfacet
   facet normal 0.000000e+000 0.000000e+000 -1.000000e+000
      outer loop
         vertex 0.000000e+000 1.000000e+001 0.000000e+000
         vertex 2.799671e+000 5.866271e+000 0.000000e+000
         vertex 0.000000e+000 0.000000e+000 0.000000e+000
      endloop
   endfacet
   facet normal 0.000000e+000 0.000000e+000 -1.000000e+000
      outer loop
         vertex 0.000000e+000 0.000000e+000 0.000000e+000
         vertex 2.799671e+000 5.866271e+000 0.000000e+000
         vertex 2.799671e+000 3.543585e+000 0.000000e+000
      endloop
   endfacet
   facet normal 0.000000e+000 0.000000e+000 -1.000000e+000
      outer loop
         vertex 0.000000e+000 0.000000e+000 0.000000e+000
         vertex 2.799671e+000 3.543585e+000 0.000000e+000
         vertex 2.830702e+000 3.188894e+000 0.000000e+000
      endloop
   endfacet
   facet normal 0.000000e+000 1.000000e+000 0.000000e+000
      outer loop
         vertex 1.000000e+001 1.000000e+001 1.000000e+001
         vertex 1.000000e+001 1.000000e+001 0.000000e+000
         vertex 0.000000e+000 1.000000e+001 1.000000e+001
      endloop
   endfacet
   facet normal 0.000000e+000 1.000000e+000 0.000000e+000
      outer loop
         vertex 0.000000e+000 1.000000e+001 1.000000e+001
         vertex 1.000000e+001 1.000000e+001 0.000000e+000
         vertex 0.000000e+000 1.000000e+001 0.000000e+000
      endloop
   endfacet
   facet normal 0.000000e+000 -1.000000e+000 0.000000e+000
      outer loop
         vertex 1.000000e+001 0.000000e+000 0.000000e+000
         vertex 1.000000e+001 0.000000e+000 1.000000e+001
         vertex 0.000000e+000 0.000000e+000 0.000000e+000
      endloop
   endfacet
   facet normal 0.000000e+000 -1.000000e+000 0.000000e+000
      outer loop
         vertex 0.000000e+000 0.000000e+000 0.000000e+000
         vertex 1.000000e+001 0.000000e+000 1.000000e+001
         vertex 0.000000e+000 0.000000e+000 1.000000e+001
      endloop
   endfacet
   facet normal 9.983119e-001 5.807913e-002 0.000000e+000
      outer loop
         vertex 2.799671e+000 3.543585e+000 0.000000e+000
         vertex 2.799671e+000 3.543585e+000 1.000000e+001
         vertex 2.830702e+000 3.188894e+000 1.000000e+001
      endloop
   endfacet
   facet normal 9.932307e-001 1.161583e-001 0.000000e+000
      outer loop
         vertex 2.799671e+000 3.543585e+000 0.000000e+000
         vertex 2.830702e+000 3.188894e+000 1.000000e+001
         vertex 2.830702e+000 3.188894e+000 0.000000e+000
      endloop
   endfacet
   facet normal 9.730600e-001 2.305519e-001 0.000000e+000
      outer loop
         vertex 2.830702e+000 3.188894e+000 0.000000e+000
         vertex 2.830702e+000 3.188894e+000 1.000000e+001
         vertex 2.922853e+000 2.844981e+000 1.000000e+001
      endloop
   endfacet
   facet normal 9.579706e-001 2.868663e-001 0.000000e+000
      outer loop
         vertex 2.830702e+000 3.188894e+000 0.000000e+000
         vertex 2.922853e+000 2.844981e+000 1.000000e+001
         vertex 2.922853e+000 2.844981e+000 0.000000e+000
      endloop
   endfacet
   facet normal 9.182422e-001 3.960194e-001 0.000000e+000
      outer loop
         vertex 2.922853e+000 2.844981e+000 0.000000e+000
         vertex 2.922853e+000 2.844981e+000 1.000000e+001
         vertex 3.073325e+000 2.522295e+000 1.000000e+001
      endloop
   endfacet
   facet normal 8.936031e-001 4.488580e-001 0.000000e+000
      outer loop
         vertex 2.922853e+000 2.844981e+000 0.000000e+000
         vertex 3.073325e+000 2.522295e+000 1.000000e+001
         vertex 3.073325e+000 2.522295e+000 0.000000e+000
      endloop
   endfacet
   facet normal 8.355240e-001 5.494540e-001 0.000000e+000
      outer loop
         vertex 3.073325e+000 2.522295e+000 0.000000e+000
         vertex 3.073325e+000 2.522295e+000 1.000000e+001
         vertex 3.277544e+000 2.230639e+000 1.000000e+001
      endloop
   endfacet
   facet normal 8.020838e-001 5.972114e-001 0.000000e+000
      outer loop
         vertex 3.073325e+000 2.522295e+000 0.000000e+000
         vertex 3.277544e+000 2.230639e+000 1.000000e+001
         vertex 3.277544e+000 2.230639e+000 0.000000e+000
      endloop
   endfacet
   facet normal 7.274188e-001 6.861938e-001 0.000000e+000
      outer loop
         vertex 3.277544e+000 2.230639e+000 0.000000e+000
         vertex 3.277544e+000 2.230639e+000 1.000000e+001
         vertex 3.529306e+000 1.978877e+000 1.000000e+001
      endloop
   endfacet
   facet normal 6.861938e-001 7.274188e-001 0.000000e+000
      outer loop
         vertex 3.277544e+000 2.230639e+000 0.000000e+000
         vertex 3.529306e+000 1.978877e+000 1.000000e+001
         vertex 3.529306e+000 1.978877e+000 0.000000e+000
      endloop
   endfacet
   facet normal 5.972114e-001 8.020838e-001 0.000000e+000
      outer loop
         vertex 3.529306e+000 1.978877e+000 0.000000e+000
         vertex 3.529306e+000 1.978877e+000 1.000000e+001
         vertex 3.820961e+000 1.774658e+000 1.000000e+001
      endloop
   endfacet
   facet normal 5.494540e-001 8.355240e-001 0.000000e+000
      outer loop
         vertex 3.529306e+000 1.978877e+000 0.000000e+000
         vertex 3.820961e+000 1.774658e+000 1.000000e+001
         vertex 3.820961e+000 1.774658e+000 0.000000e+000
      endloop
   endfacet
   facet normal 4.488580e-001 8.936031e-001 0.000000e+000
      outer loop
         vertex 3.820961e+000 1.774658e+000 0.000000e+000
         vertex 3.820961e+000 1.774658e+000 1.000000e+001
         vertex 4.143647e+000 1.624187e+000 1.000000e+001
      endloop
   endfacet
   facet normal 3.960194e-001 9.182422e-001 0.000000e+000
      outer loop
         vertex 3.820961e+000 1.774658e+000 0.000000e+000
         vertex 4.143647e+000 1.624187e+000 1.000000e+001
         vertex 4.143647e+000 1.624187e+000 0.000000e+000
      endloop
   endfacet
   facet normal 2.868663e-001 9.579706e-001 0.000000e+000
      outer loop
         vertex 4.143647e+000 1.624187e+000 0.000000e+000
         vertex 4.143647e+000 1.624187e+000 1.000000e+001
         vertex 4.487561e+000 1.532036e+000 1.000000e+001
      endloop
   endfacet
   facet normal 2.305519e-001 9.730600e-001 0.000000e+000
      outer loop
         vertex 4.143647e+000 1.624187e+000 0.000000e+000
         vertex 4.487561e+000 1.532036e+000 1.000000e+001
         vertex 4.487561e+000 1.532036e+000 0.000000e+000
      endloop
   endfacet
   facet normal 1.161583e-001 9.932307e-001 0.000000e+000
      outer loop
         vertex 4.487561e+000 1.532036e+000 0.000000e+000
         vertex 4.487561e+000 1.532036e+000 1.000000e+001
         vertex 4.842251e+000 1.501004e+000 1.000000e+001
      endloop
   endfacet
   facet normal 5.807913e-002 9.983119e-001 0.000000e+000
      outer loop
         vertex 4.487561e+000 1.532036e+000 0.000000e+000
         vertex 4.842251e+000 1.501004e+000 1.000000e+001
         vertex 4.842251e+000 1.501004e+000 0.000000e+000
      endloop
   endfacet
   facet normal -5.807913e-002 9.983119e-001 0.000000e+000
      outer loop
         vertex 4.842251e+000 1.501004e+000 0.000000e+000
         vertex 4.842251e+000 1.501004e+000 1.000000e+001
         vertex 5.196941e+000 1.532036e+000 1.000000e+001
      endloop
   endfacet
   facet normal -1.161583e-001 9.932307e-001 0.000000e+000
      outer loop
         vertex 4.842251e+000 1.501004e+000 0.000000e+000
         vertex 5.196941e+000 1.532036e+000 1.000000e+001
         vertex 5.196941e+000 1.532036e+000 0.000000e+000
      endloop
   endfacet
   facet normal -2.305519e-001 9.730600e-001 0.000000e+000
      outer loop
         vertex 5.196941e+000 1.532036e+000 0.000000e+000
         vertex 5.196941e+000 1.532036e+000 1.000000e+001
         vertex 5.540855e+000 1.624187e+000 1.000000e+001
      endloop
   endfacet
   facet normal -2.868663e-001 9.579706e-001 0.000000e+000
      outer loop
         vertex 5.196941e+000 1.532036e+000 0.000000e+000
         vertex 5.540855e+000 1.624187e+000 1.000000e+001
         vertex 5.540855e+000 1.624187e+000 0.000000e+000
      endloop
   endfacet
   facet normal -3.960194e-001 9.182422e-001 0.000000e+000
      outer loop
         vertex 5.540855e+000 1.624187e+000 0.000000e+000
         vertex 5.540855e+000 1.624187e+000 1.000000e+001
         vertex 5.863541e+000 1.774658e+000 1.000000e+001
      endloop
   endfacet
   facet normal -4.488580e-001 8.936031e-001 0.000000e+000
      outer loop
         vertex 5.540855e+000 1.624187e+000 0.000000e+000
         vertex 5.863541e+000 1.774658e+000 1.000000e+001
         vertex 5.863541e+000 1.774658e+000 0.000000e+000
      endloop
   endfacet
   facet normal -5.494540e-001 8.355240e-001 0.000000e+000
      outer loop
         vertex 5.863541e+000 1.774658e+000 0.000000e+000
         vertex 5.863541e+000 1.774658e+000 1.000000e+001
         vertex 6.155196e+000 1.978877e+000 1.000000e+001
      endloop
   endfacet
   facet normal -5.972114e-001 8.020838e-001 0.000000e+000
      outer loop
         vertex 5.863541e+000 1.774658e+000 0.000000e+000
         vertex 6.155196e+000 1.978877e+000 1.000000e+001
         vertex 6.155196e+000 1.978877e+000 0.000000e+000
      endloop
   endfacet
   facet normal -6.861938e-001 7.274188e-001 0.000000e+000
      outer loop
         vertex 6.155196e+000 1.978877e+000 0.000000e+000
         vertex 6.155196e+000 1.978877e+000 1.000000e+001
         vertex 6.406958e+000 2.230639e+000 1.000000e+001
      endloop
   endfacet
   facet normal -7.274188e-001 6.861938e-001 0.000000e+000
      outer loop
         vertex 6.155196e+000 1.978877e+000 0.000000e+000
         vertex 6.406958e+000 2.230639e+000 1.000000e+001
         vertex 6.406958e+000 2.230639e+000 0.000000e+000
      endloop
   endfacet
   facet normal -8.020838e-001 5.972114e-001 0.000000e+000
      outer loop
         vertex 6.406958e+000 2.230639e+000 0.000000e+000
         vertex 6.406958e+000 2.230639e+000 1.000000e+001
         vertex 6.611177e+000 2.522295e+000 1.000000e+001
      endloop
   endfacet
   facet normal -8.355240e-001 5.494540e-001 0.000000e+000
      outer loop
         vertex 6.406958e+000 2.230639e+000 0.000000e+000
         vertex 6.611177e+000 2.522295e+000 1.000000e+001
         vertex 6.611177e+000 2.522295e+000 0.000000e+000
      endloop
   endfacet
   facet normal -8.936031e-001 4.488580e-001 0.000000e+000
      outer loop
         vertex 6.611177e+000 2.522295e+000 0.000000e+000
         vertex 6.611177e+000 2.522295e+000 1.000000e+001
         vertex 6.761649e+000 2.844981e+000 1.000000e+001
      endloop
   endfacet
   facet normal -9.182422e-001 3.960194e-001 0.000000e+000
      outer loop
         vertex 6.611177e+000 2.522295e+000 0.000000e+000
         vertex 6.761649e+000 2.844981e+000 1.000000e+001
         vertex 6.761649e+000 2.844981e+000 0.000000e+000
      endloop
   endfacet
   facet normal -9.579706e-001 2.868663e-001 0.000000e+000
      outer loop
         vertex 6.761649e+000 2.844981e+000 0.000000e+000
         vertex 6.761649e+000 2.844981e+000 1.000000e+001
         vertex 6.853800e+000 3.188894e+000 1.000000e+001
      endloop
   endfacet
   facet normal -9.730600e-001 2.305519e-001 0.000000e+000
      outer loop
         vertex 6.761649e+000 2.844981e+000 0.000000e+000
         vertex 6.853800e+000 3.188894e+000 1.000000e+001
         vertex 6.853800e+000 3.188894e+000 0.000000e+000
      endloop
   endfacet
   facet normal -9.932307e-001 1.161583e-001 0.000000e+000
      outer loop
         vertex 6.853800e+000 3.188894e+000 0.000000e+000
         vertex 6.853800e+000 3.188894e+000 1.000000e+001
         vertex 6.884831e+000 3.543585e+000 1.000000e+001
      endloop
   endfacet
   facet normal -9.983119e-001 5.807913e-002 0.000000e+000
      outer loop
         vertex 6.853800e+000 3.188894e+000 0.000000e+000
         vertex 6.884831e+000 3.543585e+000 1.000000e+001
         vertex 6.884831e+000 3.543585e+000 0.000000e+000
      endloop
   endfacet
   facet normal 1.000000e+000 0.000000e+000 0.000000e+000
      outer loop
         vertex 2.799671e+000 3.543585e+000 0.000000e+000
         vertex 2.799671e+000 5.866271e+000 0.000000e+000
         vertex 2.799671e+000 3.543585e+000 1.000000e+001
      endloop
   endfacet
   facet normal 1.000000e+000 0.000000e+000 0.000000e+000
      outer loop
         vertex 2.799671e+000 3.543585e+000 1.000000e+001
         vertex 2.799671e+000 5.866271e+000 0.000000e+000
         vertex 2.799671e+000 5.866271e+000 1.000000e+001
      endloop
   endfacet
   facet normal -9.983119e-001 -5.807913e-002 0.000000e+000
      outer loop
         vertex 6.884831e+000 5.866271e+000 0.000000e+000
         vertex 6.884831e+000 5.866271e+000 1.000000e+001
         vertex 6.853800e+000 6.220961e+000 1.000000e+001
      endloop
   endfacet
   facet normal -9.932307e-001 -1.161583e-001 0.000000e+000
      outer loop
         vertex 6.884831e+000 5.866271e+000 0.000000e+000
         vertex 6.853800e+000 6.220961e+000 1.000000e+001
         vertex 6.853800e+000 6.220961e+000 0.000000e+000
      endloop
   endfacet
   facet normal -9.730600e-001 -2.305519e-001 0.000000e+000
      outer loop
         vertex 6.853800e+000 6.220961e+000 0.000000e+000
         vertex 6.853800e+000 6.220961e+000 1.000000e+001
         vertex 6.761649e+000 6.564874e+000 1.000000e+001
      endloop
   endfacet
   facet normal -9.579706e-001 -2.868663e-001 0.000000e+000
      outer loop
         vertex 6.853800e+000 6.220961e+000 0.000000e+000
         vertex 6.761649e+000 6.564874e+000 1.000000e+001
         vertex 6.761649e+000 6.564874e+000 0.000000e+000
      endloop
   endfacet
   facet normal -9.182422e-001 -3.960194e-001 0.000000e+000
      outer loop
         vertex 6.761649e+000 6.564874e+000 0.000000e+000
         vertex 6.761649e+000 6.564874e+000 1.000000e+001
         vertex 6.611177e+000 6.887561e+000 1.000000e+001
      endloop
   endfacet
   facet normal -8.936031e-001 -4.488580e-001 0.000000e+000
      outer loop
         vertex 6.761649e+000 6.564874e+000 0.000000e+000
         vertex 6.611177e+000 6.887561e+000 1.000000e+001
         vertex 6.611177e+000 6.887561e+000 0.000000e+000
      endloop
   endfacet
   facet normal -8.355240e-001 -5.494540e-001 0.000000e+000
      outer loop
         vertex 6.611177e+000 6.887561e+000 0.000000e+000
         vertex 6.611177e+000 6.887561e+000 1.000000e+001
         vertex 6.406958e+000 7.179216e+000 1.000000e+001
      endloop
   endfacet
   facet normal -8.020838e-001 -5.972114e-001 0.000000e+000
      outer loop
         vertex 6.611177e+000 6.887561e+000 0.000000e+000
         vertex 6.406958e+000 7.179216e+000 1.000000e+001
         vertex 6.406958e+000 7.179216e+000 0.000000e+000
      endloop
   endfacet
   facet normal -7.274188e-001 -6.861938e-001 0.000000e+000
      outer loop
         vertex 6.406958e+000 7.179216e+000 0.000000e+000
         vertex 6.406958e+000 7.179216e+000 1.000000e+001
         vertex 6.155196e+000 7.430978e+000 1.000000e+001
      endloop
   endfacet
   facet normal -6.861938e-001 -7.274188e-001 0.000000e+000
      outer loop
         vertex 6.406958e+000 7.179216e+000 0.000000e+000
         vertex 6.155196e+000 7.430978e+000 1.000000e+001
         vertex 6.155196e+000 7.430978e+000 0.000000e+000
      endloop
   endfacet
   facet normal -5.972114e-001 -8.020838e-001 0.000000e+000
      outer loop
         vertex 6.155196e+000 7.430978e+000 0.000000e+000
         vertex 6.155196e+000 7.430978e+000 1.000000e+001
         vertex 5.863541e+000 7.635197e+000 1.000000e+001
      endloop
   endfacet
   facet normal -5.494540e-001 -8.355240e-001 0.000000e+000
      outer loop
         vertex 6.155196e+000 7.430978e+000 0.000000e+000
         vertex 5.863541e+000 7.635197e+000 1.000000e+001
         vertex 5.863541e+000 7.635197e+000 0.000000e+000
      endloop
   endfacet
   facet normal -4.488580e-001 -8.936031e-001 0.000000e+000
      outer loop
         vertex 5.863541e+000 7.635197e+000 0.000000e+000
         vertex 5.863541e+000 7.635197e+000 1.000000e+001
         vertex 5.540855e+000 7.785668e+000 1.000000e+001
      endloop
   endfacet
   facet normal -3.960194e-001 -9.182422e-001 0.000000e+000
      outer loop
         vertex 5.863541e+000 7.635197e+000 0.000000e+000
         vertex 5.540855e+000 7.785668e+000 1.000000e+001
         vertex 5.540855e+000 7.785668e+000 0.000000e+000
      endloop
   endfacet
   facet normal -2.868663e-001 -9.579706e-001 0.000000e+000
      outer loop
         vertex 5.540855e+000 7.785668e+000 0.000000e+000
         vertex 5.540855e+000 7.785668e+000 1.000000e+001
         vertex 5.196941e+000 7.877819e+000 1.000000e+001
      endloop
   endfacet
   facet normal -2.305519e-001 -9.730600e-001 0.000000e+000
      outer loop
         vertex 5.540855e+000 7.785668e+000 0.000000e+000
         vertex 5.196941e+000 7.877819e+000 1.000000e+001
         vertex 5.196941e+000 7.877819e+000 0.000000e+000
      endloop
   endfacet
   facet normal -1.161583e-001 -9.932307e-001 0.000000e+000
      outer loop
         vertex 5.196941e+000 7.877819e+000 0.000000e+000
         vertex 5.196941e+000 7.877819e+000 1.000000e+001
         vertex 4.842251e+000 7.908851e+000 1.000000e+001
      endloop
   endfacet
   facet normal -5.807913e-002 -9.983119e-001 0.000000e+000
      outer loop
         vertex 5.196941e+000 7.877819e+000 0.000000e+000
         vertex 4.842251e+000 7.908851e+000 1.000000e+001
         vertex 4.842251e+000 7.908851e+000 0.000000e+000
      endloop
   endfacet
   facet normal 5.807913e-002 -9.983119e-001 0.000000e+000
      outer loop
         vertex 4.842251e+000 7.908851e+000 0.000000e+000
         vertex 4.842251e+000 7.908851e+000 1.000000e+001
         vertex 4.487561e+000 7.877819e+000 1.000000e+001
      endloop
   endfacet
   facet normal 1.161583e-001 -9.932307e-001 0.000000e+000
      outer loop
         vertex 4.842251e+000 7.908851e+000 0.000000e+000
         vertex 4.487561e+000 7.877819e+000 1.000000e+001
         vertex 4.487561e+000 7.877819e+000 0.000000e+000
      endloop
   endfacet
   facet normal 2.305519e-001 -9.730600e-001 0.000000e+000
      outer loop
         vertex 4.487561e+000 7.877819e+000 0.000000e+000
         vertex 4.487561e+000 7.877819e+000 1.000000e+001
         vertex 4.143647e+000 7.785668e+000 1.000000e+001
      endloop
   endfacet
   facet normal 2.868663e-001 -9.579706e-001 0.000000e+000
      outer loop
         vertex 4.487561e+000 7.877819e+000 0.000000e+000
         vertex 4.143647e+000 7.785668e+000 1.000000e+001
         vertex 4.143647e+000 7.785668e+000 0.000000e+000
      endloop
   endfacet
   facet normal 3.960194e-001 -9.182422e-001 0.000000e+000
      outer loop
         vertex 4.143647e+000 7.785668e+000 0.000000e+000
         vertex 4.143647e+000 7.785668e+000 1.000000e+001
         vertex 3.820961e+000 7.635197e+000 1.000000e+001
      endloop
   endfacet
   facet normal 4.488580e-001 -8.936031e-001 0.000000e+000
      outer loop
         vertex 4.143647e+000 7.785668e+000 0.000000e+000
         vertex 3.820961e+000 7.635197e+000 1.000000e+001
         vertex 3.820961e+000 7.635197e+000 0.000000e+000
      endloop
   endfacet
   facet normal 5.494540e-001 -8.355240e-001 0.000000e+000
      outer loop
         vertex 3.820961e+000 7.635197e+000 0.000000e+000
         vertex 3.820961e+000 7.635197e+000 1.000000e+001
         vertex 3.529306e+000 7.430978e+000 1.000000e+001
      endloop
   endfacet
   facet normal 5.972114e-001 -8.020838e-001 0.000000e+000
      outer loop
         vertex 3.820961e+000 7.635197e+000 0.000000e+000
         vertex 3.529306e+000 7.430978e+000 1.000000e+001
         vertex 3.529306e+000 7.430978e+000 0.000000e+000
      endloop
   endfacet
   facet normal 6.861938e-001 -7.274188e-001 0.000000e+000
      outer loop
         vertex 3.529306e+000 7.430978e+000 0.000000e+000
         vertex 3.529306e+000 7.430978e+000 1.000000e+001
         vertex 3.277544e+000 7.179216e+000 1.000000e+001
      endloop
   endfacet
   facet normal 7.274188e-001 -6.861938e-001 0.000000e+000
      outer loop
         vertex 3.529306e+000 7.430978e+000 0.000000e+000
         vertex 3.277544e+000 7.179216e+000 1.000000e+001
         vertex 3.277544e+000 7.179216e+000 0.000000e+000
      endloop
   endfacet
   facet normal 8.020838e-001 -5.972114e-001 0.000000e+000
      outer loop
         vertex 3.277544e+000 7.179216e+000 0.000000e+000
         vertex 3.277544e+000 7.179216e+000 1.000000e+001
         vertex 3.073325e+000 6.887561e+000 1.000000e+001
      endloop
   endfacet
   facet normal 8.355240e-001 -5.494540e-001 0.000000e+000
      outer loop
         vertex 3.277544e+000 7.179216e+000 0.000000e+000
         vertex 3.073325e+000 6.887561e+000 1.000000e+001
         vertex 3.073325e+000 6.887561e+000 0.000000e+000
      endloop
   endfacet
   facet normal 8.936031e-001 -4.488580e-001 0.000000e+000
      outer loop
         vertex 3.073325e+000 6.887561e+000 0.000000e+000
         vertex 3.073325e+000 6.887561e+000 1.000000e+001
         vertex 2.922853e+000 6.564874e+000 1.000000e+001
      endloop
   endfacet
   facet normal 9.182422e-001 -3.960194e-001 0.000000e+000
      outer loop
         vertex 3.073325e+000 6.887561e+000 0.000000e+000
         vertex 2.922853e+000 6.564874e+000 1.000000e+001
         vertex 2.922853e+000 6.564874e+000 0.000000e+000
      endloop
   endfacet
   facet normal 9.579706e-001 -2.868663e-001 0.000000e+000
      outer loop
         vertex 2.922853e+000 6.564874e+000 0.000000e+000
         vertex 2.922853e+000 6.564874e+000 1.000000e+001
         vertex 2.830702e+000 6.220961e+000 1.000000e+001
      endloop
   endfacet
   facet normal 9.730600e-001 -2.305519e-001 0.000000e+000
      outer loop
         vertex 2.922853e+000 6.564874e+000 0.000000e+000
         vertex 2.830702e+000 6.220961e+000 1.000000e+001
         vertex 2.830702e+000 6.220961e+000 0.000000e+000
      endloop
   endfacet
   facet normal 9.932307e-001 -1.161583e-001 0.000000e+000
      outer loop
         vertex 2.830702e+000 6.220961e+000 0.000000e+000
         vertex 2.830702e+000 6.220961e+000 1.000000e+001
         vertex 2.799671e+000 5.866271e+000 1.000000e+001
      endloop
   endfacet
   facet normal 9.983119e-001 -5.807913e-002 0.000000e+000
      outer loop
         vertex 2.830702e+000 6.220961e+000 0.000000e+000
         vertex 2.799671e+000 5.866271e+000 1.000000e+001
         vertex 2.799671e+000 5.866271e+000 0.000000e+000
      endloop
   endfacet
   facet normal -1.000000e+000 0.000000e+000 0.000000e+000
      outer loop
         vertex 6.884831e+000 5.866271e+000 0.000000e+000
         vertex 6.884831e+000 3.543585e+000 0.000000e+000
         vertex 6.884831e+000 5.866271e+000 1.000000e+001
      endloop
   endfacet
   facet normal -1.000000e+000 0.000000e+000 0.000000e+000
      outer loop
         vertex 6.884831e+000 5.866271e+000 1.000000e+001
         vertex 6.884831e+000 3.543585e+000 0.000000e+000
         vertex 6.884831e+000 3.543585e+000 1.000000e+001
      endloop
   endfacet
endsolid