solid 11_406
   facet normal -1.000000e+000 0.000000e+000 0.000000e+000
      outer loop
         vertex 0.000000e+000 1.000000e+001 1.000000e+001
         vertex 0.000000e+000 1.000000e+001 0.000000e+000
         vertex 0.000000e+000 0.000000e+000 1.000000e+001
      endloop
   endfacet
   facet normal -1.000000e+000 0.000000e+000 0.000000e+000
      outer loop
         vertex 0.000000e+000 0.000000e+000 1.000000e+001
         vertex 0.000000e+000 1.000000e+001 0.000000e+000
         vertex 0.000000e+000 0.000000e+000 0.000000e+000
      endloop
   endfacet
   facet normal 0.000000e+000 0.000000e+000 1.000000e+000
      outer loop
         vertex 7.925769e+000 3.242902e+000 1.000000e+001
         vertex 7.828213e+000 2.815480e+000 1.000000e+001
         vertex 1.000000e+001 0.000000e+000 1.000000e+001
      endloop
   endfacet
   facet normal 0.000000e+000 0.000000e+000 1.000000e+000
      outer loop
         vertex 1.000000e+001 0.000000e+000 1.000000e+001
         vertex 7.828213e+000 2.815480e+000 1.000000e+001
         vertex 7.668042e+000 2.407372e+000 1.000000e+001
      endloop
   endfacet
   facet normal 0.000000e+000 0.000000e+000 1.000000e+000
      outer loop
         vertex 1.000000e+001 1.000000e+001 1.000000e+001
         vertex 5.677938e+000 9.198685e+000 1.000000e+001
         vertex 6.096875e+000 9.069460e+000 1.000000e+001
      endloop
   endfacet
   facet normal 0.000000e+000 0.000000e+000 1.000000e+000
      outer loop
         vertex 6.096875e+000 9.069460e+000 1.000000e+001
         vertex 6.491873e+000 8.879239e+000 1.000000e+001
         vertex 1.000000e+001 1.000000e+001 1.000000e+001
      endloop
   endfacet
   facet normal 0.000000e+000 0.000000e+000 1.000000e+000
      outer loop
         vertex 1.000000e+001 1.000000e+001 1.000000e+001
         vertex 6.491873e+000 8.879239e+000 1.000000e+001
         vertex 6.854107e+000 8.632272e+000 1.000000e+001
      endloop
   endfacet
   facet normal 0.000000e+000 0.000000e+000 1.000000e+000
      outer loop
         vertex 1.000000e+001 1.000000e+001 1.000000e+001
         vertex 6.854107e+000 8.632272e+000 1.000000e+001
         vertex 7.175488e+000 8.334074e+000 1.000000e+001
      endloop
   endfacet
   facet normal 0.000000e+000 0.000000e+000 1.000000e+000
      outer loop
         vertex 7.668042e+000 2.407372e+000 1.000000e+001
         vertex 7.448835e+000 2.027694e+000 1.000000e+001
         vertex 1.000000e+001 0.000000e+000 1.000000e+001
      endloop
   endfacet
   facet normal 0.000000e+000 0.000000e+000 1.000000e+000
      outer loop
         vertex 1.000000e+001 0.000000e+000 1.000000e+001
         vertex 7.448835e+000 2.027694e+000 1.000000e+001
         vertex 7.175488e+000 1.684927e+000 1.000000e+001
      endloop
   endfacet
   facet normal 0.000000e+000 0.000000e+000 1.000000e+000
      outer loop
         vertex 1.000000e+001 0.000000e+000 1.000000e+001
         vertex 7.175488e+000 1.684927e+000 1.000000e+001
         vertex 6.854107e+000 1.386730e+000 1.000000e+001
      endloop
   endfacet
   facet normal 0.000000e+000 0.000000e+000 1.000000e+000
      outer loop
         vertex 7.175488e+000 8.334074e+000 1.000000e+001
         vertex 7.448835e+000 7.991307e+000 1.000000e+001
         vertex 1.000000e+001 1.000000e+001 1.000000e+001
      endloop
   endfacet
   facet normal 0.000000e+000 0.000000e+000 1.000000e+000
      outer loop
         vertex 1.000000e+001 1.000000e+001 1.000000e+001
         vertex 7.448835e+000 7.991307e+000 1.000000e+001
         vertex 7.668042e+000 7.611629e+000 1.000000e+001
      endloop
   endfacet
   facet normal 0.000000e+000 0.000000e+000 1.000000e+000
      outer loop
         vertex 1.000000e+001 1.000000e+001 1.000000e+001
         vertex 7.668042e+000 7.611629e+000 1.000000e+001
         vertex 7.828213e+000 7.203521e+000 1.000000e+001
      endloop
   endfacet
   facet normal 0.000000e+000 0.000000e+000 1.000000e+000
      outer loop
         vertex 7.828213e+000 7.203521e+000 1.000000e+001
         vertex 7.925769e+000 6.776099e+000 1.000000e+001
         vertex 1.000000e+001 1.000000e+001 1.000000e+001
      endloop
   endfacet
   facet normal 0.000000e+000 0.000000e+000 1.000000e+000
      outer loop
         vertex 1.000000e+001 1.000000e+001 1.000000e+001
         vertex 7.925769e+000 6.776099e+000 1.000000e+001
         vertex 7.958532e+000 6.338911e+000 1.000000e+001
      endloop
   endfacet
   facet normal 0.000000e+000 0.000000e+000 1.000000e+000
      outer loop
         vertex 1.000000e+001 1.000000e+001 1.000000e+001
         vertex 7.958532e+000 6.338911e+000 1.000000e+001
         vertex 1.000000e+001 0.000000e+000 1.000000e+001
      endloop
   endfacet
   facet normal 0.000000e+000 0.000000e+000 1.000000e+000
      outer loop
         vertex 1.000000e+001 0.000000e+000 1.000000e+001
         vertex 7.958532e+000 6.338911e+000 1.000000e+001
         vertex 7.958532e+000 3.680091e+000 1.000000e+001
      endloop
   endfacet
   facet normal 0.000000e+000 0.000000e+000 1.000000e+000
      outer loop
         vertex 1.000000e+001 0.000000e+000 1.000000e+001
         vertex 7.958532e+000 3.680091e+000 1.000000e+001
         vertex 7.925769e+000 3.242902e+000 1.000000e+001
      endloop
   endfacet
   facet normal 0.000000e+000 0.000000e+000 1.000000e+000
      outer loop
         vertex 3.953552e+000 9.495417e-001 1.000000e+001
         vertex 3.558554e+000 1.139763e+000 1.000000e+001
         vertex 0.000000e+000 0.000000e+000 1.000000e+001
      endloop
   endfacet
   facet normal 0.000000e+000 0.000000e+000 1.000000e+000
      outer loop
         vertex 0.000000e+000 0.000000e+000 1.000000e+001
         vertex 3.558554e+000 1.139763e+000 1.000000e+001
         vertex 3.196320e+000 1.386730e+000 1.000000e+001
      endloop
   endfacet
   facet normal 0.000000e+000 0.000000e+000 1.000000e+000
      outer loop
         vertex 0.000000e+000 0.000000e+000 1.000000e+001
         vertex 3.196320e+000 1.386730e+000 1.000000e+001
         vertex 2.874939e+000 1.684927e+000 1.000000e+001
      endloop
   endfacet
   facet normal 0.000000e+000 0.000000e+000 1.000000e+000
      outer loop
         vertex 2.124658e+000 6.776099e+000 1.000000e+001
         vertex 2.222214e+000 7.203521e+000 1.000000e+001
         vertex 0.000000e+000 1.000000e+001 1.000000e+001
      endloop
   endfacet
   facet normal 0.000000e+000 0.000000e+000 1.000000e+000
      outer loop
         vertex 3.953552e+000 9.069460e+000 1.000000e+001
         vertex 4.372488e+000 9.198685e+000 1.000000e+001
         vertex 0.000000e+000 1.000000e+001 1.000000e+001
      endloop
   endfacet
   facet normal 0.000000e+000 0.000000e+000 1.000000e+000
      outer loop
         vertex 0.000000e+000 1.000000e+001 1.000000e+001
         vertex 4.372488e+000 9.198685e+000 1.000000e+001
         vertex 4.806006e+000 9.264027e+000 1.000000e+001
      endloop
   endfacet
   facet normal 0.000000e+000 0.000000e+000 1.000000e+000
      outer loop
         vertex 0.000000e+000 1.000000e+001 1.000000e+001
         vertex 4.806006e+000 9.264027e+000 1.000000e+001
         vertex 1.000000e+001 1.000000e+001 1.000000e+001
      endloop
   endfacet
   facet normal 0.000000e+000 0.000000e+000 1.000000e+000
      outer loop
         vertex 1.000000e+001 1.000000e+001 1.000000e+001
         vertex 4.806006e+000 9.264027e+000 1.000000e+001
         vertex 5.244421e+000 9.264027e+000 1.000000e+001
      endloop
   endfacet
   facet normal 0.000000e+000 0.000000e+000 1.000000e+000
      outer loop
         vertex 1.000000e+001 1.000000e+001 1.000000e+001
         vertex 5.244421e+000 9.264027e+000 1.000000e+001
         vertex 5.677938e+000 9.198685e+000 1.000000e+001
      endloop
   endfacet
   facet normal 0.000000e+000 0.000000e+000 1.000000e+000
      outer loop
         vertex 6.854107e+000 1.386730e+000 1.000000e+001
         vertex 6.491873e+000 1.139763e+000 1.000000e+001
         vertex 1.000000e+001 0.000000e+000 1.000000e+001
      endloop
   endfacet
   facet normal 0.000000e+000 0.000000e+000 1.000000e+000
      outer loop
         vertex 1.000000e+001 0.000000e+000 1.000000e+001
         vertex 6.491873e+000 1.139763e+000 1.000000e+001
         vertex 6.096875e+000 9.495417e-001 1.000000e+001
      endloop
   endfacet
   facet normal 0.000000e+000 0.000000e+000 1.000000e+000
      outer loop
         vertex 1.000000e+001 0.000000e+000 1.000000e+001
         vertex 6.096875e+000 9.495417e-001 1.000000e+001
         vertex 5.677938e+000 8.203168e-001 1.000000e+001
      endloop
   endfacet
   facet normal 0.000000e+000 0.000000e+000 1.000000e+000
      outer loop
         vertex 5.677938e+000 8.203168e-001 1.000000e+001
         vertex 5.244421e+000 7.549745e-001 1.000000e+001
         vertex 1.000000e+001 0.000000e+000 1.000000e+001
      endloop
   endfacet
   facet normal 0.000000e+000 0.000000e+000 1.000000e+000
      outer loop
         vertex 1.000000e+001 0.000000e+000 1.000000e+001
         vertex 5.244421e+000 7.549745e-001 1.000000e+001
         vertex 4.806006e+000 7.549745e-001 1.000000e+001
      endloop
   endfacet
   facet normal 0.000000e+000 0.000000e+000 1.000000e+000
      outer loop
         vertex 1.000000e+001 0.000000e+000 1.000000e+001
         vertex 4.806006e+000 7.549745e-001 1.000000e+001
         vertex 0.000000e+000 0.000000e+000 1.000000e+001
      endloop
   endfacet
   facet normal 0.000000e+000 0.000000e+000 1.000000e+000
      outer loop
         vertex 0.000000e+000 0.000000e+000 1.000000e+001
         vertex 4.806006e+000 7.549745e-001 1.000000e+001
         vertex 4.372488e+000 8.203168e-001 1.000000e+001
      endloop
   endfacet
   facet normal 0.000000e+000 0.000000e+000 1.000000e+000
      outer loop
         vertex 0.000000e+000 0.000000e+000 1.000000e+001
         vertex 4.372488e+000 8.203168e-001 1.000000e+001
         vertex 3.953552e+000 9.495417e-001 1.000000e+001
      endloop
   endfacet
   facet normal 0.000000e+000 0.000000e+000 1.000000e+000
      outer loop
         vertex 2.874939e+000 1.684927e+000 1.000000e+001
         vertex 2.601592e+000 2.027694e+000 1.000000e+001
         vertex 0.000000e+000 0.000000e+000 1.000000e+001
      endloop
   endfacet
   facet normal 0.000000e+000 0.000000e+000 1.000000e+000
      outer loop
         vertex 0.000000e+000 0.000000e+000 1.000000e+001
         vertex 2.601592e+000 2.027694e+000 1.000000e+001
         vertex 2.382385e+000 2.407372e+000 1.000000e+001
      endloop
   endfacet
   facet normal 0.000000e+000 0.000000e+000 1.000000e+000
      outer loop
         vertex 0.000000e+000 0.000000e+000 1.000000e+001
         vertex 2.382385e+000 2.407372e+000 1.000000e+001
         vertex 2.222214e+000 2.815480e+000 1.000000e+001
      endloop
   endfacet
   facet normal 0.000000e+000 0.000000e+000 1.000000e+000
      outer loop
         vertex 2.222214e+000 7.203521e+000 1.000000e+001
         vertex 2.382385e+000 7.611629e+000 1.000000e+001
         vertex 0.000000e+000 1.000000e+001 1.000000e+001
      endloop
   endfacet
   facet normal 0.000000e+000 0.000000e+000 1.000000e+000
      outer loop
         vertex 0.000000e+000 1.000000e+001 1.000000e+001
         vertex 2.382385e+000 7.611629e+000 1.000000e+001
         vertex 2.601592e+000 7.991307e+000 1.000000e+001
      endloop
   endfacet
   facet normal 0.000000e+000 0.000000e+000 1.000000e+000
      outer loop
         vertex 0.000000e+000 1.000000e+001 1.000000e+001
         vertex 2.601592e+000 7.991307e+000 1.000000e+001
         vertex 2.874939e+000 8.334074e+000 1.000000e+001
      endloop
   endfacet
   facet normal 0.000000e+000 0.000000e+000 1.000000e+000
      outer loop
         vertex 2.874939e+000 8.334074e+000 1.000000e+001
         vertex 3.196320e+000 8.632272e+000 1.000000e+001
         vertex 0.000000e+000 1.000000e+001 1.000000e+001
      endloop
   endfacet
   facet normal 0.000000e+000 0.000000e+000 1.000000e+000
      outer loop
         vertex 0.000000e+000 1.000000e+001 1.000000e+001
         vertex 3.196320e+000 8.632272e+000 1.000000e+001
         vertex 3.558554e+000 8.879239e+000 1.000000e+001
      endloop
   endfacet
   facet normal 0.000000e+000 0.000000e+000 1.000000e+000
      outer loop
         vertex 0.000000e+000 1.000000e+001 1.000000e+001
         vertex 3.558554e+000 8.879239e+000 1.000000e+001
         vertex 3.953552e+000 9.069460e+000 1.000000e+001
      endloop
   endfacet
   facet normal 0.000000e+000 0.000000e+000 1.000000e+000
      outer loop
         vertex 2.222214e+000 2.815480e+000 1.000000e+001
         vertex 2.124658e+000 3.242902e+000 1.000000e+001
         vertex 0.000000e+000 0.000000e+000 1.000000e+001
      endloop
   endfacet
   facet normal 0.000000e+000 0.000000e+000 1.000000e+000
      outer loop
         vertex 0.000000e+000 0.000000e+000 1.000000e+001
         vertex 2.124658e+000 3.242902e+000 1.000000e+001
         vertex 2.091895e+000 3.680091e+000 1.000000e+001
      endloop
   endfacet
   facet normal 0.000000e+000 0.000000e+000 1.000000e+000
      outer loop
         vertex 0.000000e+000 0.000000e+000 1.000000e+001
         vertex 2.091895e+000 3.680091e+000 1.000000e+001
         vertex 0.000000e+000 1.000000e+001 1.000000e+001
      endloop
   endfacet
   facet normal 0.000000e+000 0.000000e+000 1.000000e+000
      outer loop
         vertex 0.000000e+000 1.000000e+001 1.000000e+001
         vertex 2.091895e+000 3.680091e+000 1.000000e+001
         vertex 2.091895e+000 6.338911e+000 1.000000e+001
      endloop
   endfacet
   facet normal 0.000000e+000 0.000000e+000 1.000000e+000
      outer loop
         vertex 0.000000e+000 1.000000e+001 1.000000e+001
         vertex 2.091895e+000 6.338911e+000 1.000000e+001
         vertex 2.124658e+000 6.776099e+000 1.000000e+001
      endloop
   endfacet
   facet normal 1.000000e+000 0.000000e+000 0.000000e+000
      outer loop
         vertex 1.000000e+001 1.000000e+001 0.000000e+000
         vertex 1.000000e+001 1.000000e+001 1.000000e+001
         vertex 1.000000e+001 0.000000e+000 0.000000e+000
      endloop
   endfacet
   facet normal 1.000000e+000 0.000000e+000 0.000000e+000
      outer loop
         vertex 1.000000e+001 0.000000e+000 0.000000e+000
         vertex 1.000000e+001 1.000000e+001 1.000000e+001
         vertex 1.000000e+001 0.000000e+000 1.000000e+001
      endloop
   endfacet
   facet normal 0.000000e+000 0.000000e+000 -1.000000e+000
      outer loop
         vertex 7.925769e+000 6.776099e+000 0.000000e+000
         vertex 7.828213e+000 7.203521e+000 0.000000e+000
         vertex 1.000000e+001 1.000000e+001 0.000000e+000
      endloop
   endfacet
   facet normal 0.000000e+000 0.000000e+000 -1.000000e+000
      outer loop
         vertex 2.222214e+000 2.815480e+000 0.000000e+000
         vertex 2.382385e+000 2.407372e+000 0.000000e+000
         vertex 0.000000e+000 0.000000e+000 0.000000e+000
      endloop
   endfacet
   facet normal 0.000000e+000 0.000000e+000 -1.000000e+000
      outer loop
         vertex 2.222214e+000 2.815480e+000 0.000000e+000
         vertex 0.000000e+000 0.000000e+000 0.000000e+000
         vertex 2.124658e+000 3.242902e+000 0.000000e+000
      endloop
   endfacet
   facet normal 0.000000e+000 0.000000e+000 -1.000000e+000
      outer loop
         vertex 3.953552e+000 9.495417e-001 0.000000e+000
         vertex 0.000000e+000 0.000000e+000 0.000000e+000
         vertex 3.558554e+000 1.139763e+000 0.000000e+000
      endloop
   endfacet
   facet normal 0.000000e+000 0.000000e+000 -1.000000e+000
      outer loop
         vertex 3.558554e+000 1.139763e+000 0.000000e+000
         vertex 0.000000e+000 0.000000e+000 0.000000e+000
         vertex 3.196320e+000 1.386730e+000 0.000000e+000
      endloop
   endfacet
   facet normal 0.000000e+000 0.000000e+000 -1.000000e+000
      outer loop
         vertex 5.677938e+000 8.203168e-001 0.000000e+000
         vertex 6.096875e+000 9.495417e-001 0.000000e+000
         vertex 1.000000e+001 0.000000e+000 0.000000e+000
      endloop
   endfacet
   facet normal 0.000000e+000 0.000000e+000 -1.000000e+000
      outer loop
         vertex 1.000000e+001 0.000000e+000 0.000000e+000
         vertex 6.096875e+000 9.495417e-001 0.000000e+000
         vertex 6.491873e+000 1.139763e+000 0.000000e+000
      endloop
   endfacet
   facet normal 0.000000e+000 0.000000e+000 -1.000000e+000
      outer loop
         vertex 1.000000e+001 0.000000e+000 0.000000e+000
         vertex 6.491873e+000 1.139763e+000 0.000000e+000
         vertex 6.854107e+000 1.386730e+000 0.000000e+000
      endloop
   endfacet
   facet normal 0.000000e+000 0.000000e+000 -1.000000e+000
      outer loop
         vertex 2.382385e+000 2.407372e+000 0.000000e+000
         vertex 2.601592e+000 2.027694e+000 0.000000e+000
         vertex 0.000000e+000 0.000000e+000 0.000000e+000
      endloop
   endfacet
   facet normal 0.000000e+000 0.000000e+000 -1.000000e+000
      outer loop
         vertex 0.000000e+000 0.000000e+000 0.000000e+000
         vertex 2.601592e+000 2.027694e+000 0.000000e+000
         vertex 2.874939e+000 1.684927e+000 0.000000e+000
      endloop
   endfacet
   facet normal 0.000000e+000 0.000000e+000 -1.000000e+000
      outer loop
         vertex 0.000000e+000 0.000000e+000 0.000000e+000
         vertex 2.874939e+000 1.684927e+000 0.000000e+000
         vertex 3.196320e+000 1.386730e+000 0.000000e+000
      endloop
   endfacet
   facet normal 0.000000e+000 0.000000e+000 -1.000000e+000
      outer loop
         vertex 1.000000e+001 0.000000e+000 0.000000e+000
         vertex 7.668042e+000 2.407372e+000 0.000000e+000
         vertex 7.828213e+000 2.815480e+000 0.000000e+000
      endloop
   endfacet
   facet normal 0.000000e+000 0.000000e+000 -1.000000e+000
      outer loop
         vertex 1.000000e+001 1.000000e+001 0.000000e+000
         vertex 7.175488e+000 8.334074e+000 0.000000e+000
         vertex 6.854107e+000 8.632272e+000 0.000000e+000
      endloop
   endfacet
   facet normal 0.000000e+000 0.000000e+000 -1.000000e+000
      outer loop
         vertex 6.854107e+000 1.386730e+000 0.000000e+000
         vertex 7.175488e+000 1.684927e+000 0.000000e+000
         vertex 1.000000e+001 0.000000e+000 0.000000e+000
      endloop
   endfacet
   facet normal 0.000000e+000 0.000000e+000 -1.000000e+000
      outer loop
         vertex 1.000000e+001 0.000000e+000 0.000000e+000
         vertex 7.175488e+000 1.684927e+000 0.000000e+000
         vertex 7.448835e+000 2.027694e+000 0.000000e+000
      endloop
   endfacet
   facet normal 0.000000e+000 0.000000e+000 -1.000000e+000
      outer loop
         vertex 1.000000e+001 0.000000e+000 0.000000e+000
         vertex 7.448835e+000 2.027694e+000 0.000000e+000
         vertex 7.668042e+000 2.407372e+000 0.000000e+000
      endloop
   endfacet
   facet normal 0.000000e+000 0.000000e+000 -1.000000e+000
      outer loop
         vertex 7.828213e+000 7.203521e+000 0.000000e+000
         vertex 7.668042e+000 7.611629e+000 0.000000e+000
         vertex 1.000000e+001 1.000000e+001 0.000000e+000
      endloop
   endfacet
   facet normal 0.000000e+000 0.000000e+000 -1.000000e+000
      outer loop
         vertex 1.000000e+001 1.000000e+001 0.000000e+000
         vertex 7.668042e+000 7.611629e+000 0.000000e+000
         vertex 7.448835e+000 7.991307e+000 0.000000e+000
      endloop
   endfacet
   facet normal 0.000000e+000 0.000000e+000 -1.000000e+000
      outer loop
         vertex 1.000000e+001 1.000000e+001 0.000000e+000
         vertex 7.448835e+000 7.991307e+000 0.000000e+000
         vertex 7.175488e+000 8.334074e+000 0.000000e+000
      endloop
   endfacet
   facet normal 0.000000e+000 0.000000e+000 -1.000000e+000
      outer loop
         vertex 6.854107e+000 8.632272e+000 0.000000e+000
         vertex 6.491873e+000 8.879239e+000 0.000000e+000
         vertex 1.000000e+001 1.000000e+001 0.000000e+000
      endloop
   endfacet
   facet normal 0.000000e+000 0.000000e+000 -1.000000e+000
      outer loop
         vertex 1.000000e+001 1.000000e+001 0.000000e+000
         vertex 6.491873e+000 8.879239e+000 0.000000e+000
         vertex 6.096875e+000 9.069460e+000 0.000000e+000
      endloop
   endfacet
   facet normal 0.000000e+000 0.000000e+000 -1.000000e+000
      outer loop
         vertex 1.000000e+001 1.000000e+001 0.000000e+000
         vertex 6.096875e+000 9.069460e+000 0.000000e+000
         vertex 5.677938e+000 9.198685e+000 0.000000e+000
      endloop
   endfacet
   facet normal 0.000000e+000 0.000000e+000 -1.000000e+000
      outer loop
         vertex 0.000000e+000 1.000000e+001 0.000000e+000
         vertex 3.953552e+000 9.069460e+000 0.000000e+000
         vertex 3.558554e+000 8.879239e+000 0.000000e+000
      endloop
   endfacet
   facet normal 0.000000e+000 0.000000e+000 -1.000000e+000
      outer loop
         vertex 3.953552e+000 9.495417e-001 0.000000e+000
         vertex 4.372488e+000 8.203168e-001 0.000000e+000
         vertex 0.000000e+000 0.000000e+000 0.000000e+000
      endloop
   endfacet
   facet normal 0.000000e+000 0.000000e+000 -1.000000e+000
      outer loop
         vertex 0.000000e+000 0.000000e+000 0.000000e+000
         vertex 4.372488e+000 8.203168e-001 0.000000e+000
         vertex 4.806006e+000 7.549745e-001 0.000000e+000
      endloop
   endfacet
   facet normal 0.000000e+000 0.000000e+000 -1.000000e+000
      outer loop
         vertex 0.000000e+000 0.000000e+000 0.000000e+000
         vertex 4.806006e+000 7.549745e-001 0.000000e+000
         vertex 1.000000e+001 0.000000e+000 0.000000e+000
      endloop
   endfacet
   facet normal 0.000000e+000 0.000000e+000 -1.000000e+000
      outer loop
         vertex 1.000000e+001 0.000000e+000 0.000000e+000
         vertex 4.806006e+000 7.549745e-001 0.000000e+000
         vertex 5.244421e+000 7.549745e-001 0.000000e+000
      endloop
   endfacet
   facet normal 0.000000e+000 0.000000e+000 -1.000000e+000
      outer loop
         vertex 1.000000e+001 0.000000e+000 0.000000e+000
         vertex 5.244421e+000 7.549745e-001 0.000000e+000
         vertex 5.677938e+000 8.203168e-001 0.000000e+000
      endloop
   endfacet
   facet normal 0.000000e+000 0.000000e+000 -1.000000e+000
      outer loop
         vertex 2.222214e+000 7.203521e+000 0.000000e+000
         vertex 0.000000e+000 1.000000e+001 0.000000e+000
         vertex 2.382385e+000 7.611629e+000 0.000000e+000
      endloop
   endfacet
   facet normal 0.000000e+000 0.000000e+000 -1.000000e+000
      outer loop
         vertex 2.382385e+000 7.611629e+000 0.000000e+000
         vertex 0.000000e+000 1.000000e+001 0.000000e+000
         vertex 2.601592e+000 7.991307e+000 0.000000e+000
      endloop
   endfacet
   facet normal 0.000000e+000 0.000000e+000 -1.000000e+000
      outer loop
         vertex 5.677938e+000 9.198685e+000 0.000000e+000
         vertex 5.244421e+000 9.264027e+000 0.000000e+000
         vertex 1.000000e+001 1.000000e+001 0.000000e+000
      endloop
   endfacet
   facet normal 0.000000e+000 0.000000e+000 -1.000000e+000
      outer loop
         vertex 1.000000e+001 1.000000e+001 0.000000e+000
         vertex 5.244421e+000 9.264027e+000 0.000000e+000
         vertex 4.806006e+000 9.264027e+000 0.000000e+000
      endloop
   endfacet
   facet normal 0.000000e+000 0.000000e+000 -1.000000e+000
      outer loop
         vertex 1.000000e+001 1.000000e+001 0.000000e+000
         vertex 4.806006e+000 9.264027e+000 0.000000e+000
         vertex 0.000000e+000 1.000000e+001 0.000000e+000
      endloop
   endfacet
   facet normal 0.000000e+000 0.000000e+000 -1.000000e+000
      outer loop
         vertex 0.000000e+000 1.000000e+001 0.000000e+000
         vertex 4.806006e+000 9.264027e+000 0.000000e+000
         vertex 4.372488e+000 9.198685e+000 0.000000e+000
      endloop
   endfacet
   facet normal 0.000000e+000 0.000000e+000 -1.000000e+000
      outer loop
         vertex 0.000000e+000 1.000000e+001 0.000000e+000
         vertex 4.372488e+000 9.198685e+000 0.000000e+000
         vertex 3.953552e+000 9.069460e+000 0.000000e+000
      endloop
   endfacet
   facet normal 0.000000e+000 0.000000e+000 -1.000000e+000
      outer loop
         vertex 3.558554e+000 8.879239e+000 0.000000e+000
         vertex 3.196320e+000 8.632272e+000 0.000000e+000
         vertex 0.000000e+000 1.000000e+001 0.000000e+000
      endloop
   endfacet
   facet normal 0.000000e+000 0.000000e+000 -1.000000e+000
      outer loop
         vertex 0.000000e+000 1.000000e+001 0.000000e+000
         vertex 3.196320e+000 8.632272e+000 0.000000e+000
         vertex 2.874939e+000 8.334074e+000 0.000000e+000
      endloop
   endfacet
   facet normal 0.000000e+000 0.000000e+000 -1.000000e+000
      outer loop
         vertex 0.000000e+000 1.000000e+001 0.000000e+000
         vertex 2.874939e+000 8.334074e+000 0.000000e+000
         vertex 2.601592e+000 7.991307e+000 0.000000e+000
      endloop
   endfacet
   facet normal 0.000000e+000 0.000000e+000 -1.000000e+000
      outer loop
         vertex 2.222214e+000 7.203521e+000 0.000000e+000
         vertex 2.124658e+000 6.776099e+000 0.000000e+000
         vertex 0.000000e+000 1.000000e+001 0.000000e+000
      endloop
   endfacet
   facet normal 0.000000e+000 0.000000e+000 -1.000000e+000
      outer loop
         vertex 0.000000e+000 1.000000e+001 0.000000e+000
         vertex 2.124658e+000 6.776099e+000 0.000000e+000
         vertex 2.091895e+000 6.338911e+000 0.000000e+000
      endloop
   endfacet
   facet normal 0.000000e+000 0.000000e+000 -1.000000e+000
      outer loop
         vertex 0.000000e+000 1.000000e+001 0.000000e+000
         vertex 2.091895e+000 6.338911e+000 0.000000e+000
         vertex 0.000000e+000 0.000000e+000 0.000000e+000
      endloop
   endfacet
   facet normal 0.000000e+000 0.000000e+000 -1.000000e+000
      outer loop
         vertex 0.000000e+000 0.000000e+000 0.000000e+000
         vertex 2.091895e+000 6.338911e+000 0.000000e+000
         vertex 2.091895e+000 3.680091e+000 0.000000e+000
      endloop
   endfacet
   facet normal 0.000000e+000 0.000000e+000 -1.000000e+000
      outer loop
         vertex 0.000000e+000 0.000000e+000 0.000000e+000
         vertex 2.091895e+000 3.680091e+000 0.000000e+000
         vertex 2.124658e+000 3.242902e+000 0.000000e+000
      endloop
   endfacet
   facet normal 0.000000e+000 0.000000e+000 -1.000000e+000
      outer loop
         vertex 7.828213e+000 2.815480e+000 0.000000e+000
         vertex 7.925769e+000 3.242902e+000 0.000000e+000
         vertex 1.000000e+001 0.000000e+000 0.000000e+000
      endloop
   endfacet
   facet normal 0.000000e+000 0.000000e+000 -1.000000e+000
      outer loop
         vertex 1.000000e+001 0.000000e+000 0.000000e+000
         vertex 7.925769e+000 3.242902e+000 0.000000e+000
         vertex 7.958532e+000 3.680091e+000 0.000000e+000
      endloop
   endfacet
   facet normal 0.000000e+000 0.000000e+000 -1.000000e+000
      outer loop
         vertex 1.000000e+001 0.000000e+000 0.000000e+000
         vertex 7.958532e+000 3.680091e+000 0.000000e+000
         vertex 1.000000e+001 1.000000e+001 0.000000e+000
      endloop
   endfacet
   facet normal 0.000000e+000 0.000000e+000 -1.000000e+000
      outer loop
         vertex 1.000000e+001 1.000000e+001 0.000000e+000
         vertex 7.958532e+000 3.680091e+000 0.000000e+000
         vertex 7.958532e+000 6.338911e+000 0.000000e+000
      endloop
   endfacet
   facet normal 0.000000e+000 0.000000e+000 -1.000000e+000
      outer loop
         vertex 1.000000e+001 1.000000e+001 0.000000e+000
         vertex 7.958532e+000 6.338911e+000 0.000000e+000
         vertex 7.925769e+000 6.776099e+000 0.000000e+000
      endloop
   endfacet
   facet normal 0.000000e+000 1.000000e+000 0.000000e+000
      outer loop
         vertex 1.000000e+001 1.000000e+001 1.000000e+001
         vertex 1.000000e+001 1.000000e+001 0.000000e+000
         vertex 0.000000e+000 1.000000e+001 1.000000e+001
      endloop
   endfacet
   facet normal 0.000000e+000 1.000000e+000 0.000000e+000
      outer loop
         vertex 0.000000e+000 1.000000e+001 1.000000e+001
         vertex 1.000000e+001 1.000000e+001 0.000000e+000
         vertex 0.000000e+000 1.000000e+001 0.000000e+000
      endloop
   endfacet
   facet normal 0.000000e+000 -1.000000e+000 0.000000e+000
      outer loop
         vertex 1.000000e+001 0.000000e+000 0.000000e+000
         vertex 1.000000e+001 0.000000e+000 1.000000e+001
         vertex 0.000000e+000 0.000000e+000 0.000000e+000
      endloop
   endfacet
   facet normal 0.000000e+000 -1.000000e+000 0.000000e+000
      outer loop
         vertex 0.000000e+000 0.000000e+000 0.000000e+000
         vertex 1.000000e+001 0.000000e+000 1.000000e+001
         vertex 0.000000e+000 0.000000e+000 1.000000e+001
      endloop
   endfacet
   facet normal 9.987590e-001 4.980453e-002 0.000000e+000
      outer loop
         vertex 2.091895e+000 3.680091e+000 0.000000e+000
         vertex 2.091895e+000 3.680091e+000 1.000000e+001
         vertex 2.124658e+000 3.242902e+000 1.000000e+001
      endloop
   endfacet
   facet normal 9.950266e-001 9.960905e-002 0.000000e+000
      outer loop
         vertex 2.091895e+000 3.680091e+000 0.000000e+000
         vertex 2.124658e+000 3.242902e+000 1.000000e+001
         vertex 2.124658e+000 3.242902e+000 0.000000e+000
      endloop
   endfacet
   facet normal 9.801807e-001 1.981055e-001 0.000000e+000
      outer loop
         vertex 2.124658e+000 3.242902e+000 0.000000e+000
         vertex 2.124658e+000 3.242902e+000 1.000000e+001
         vertex 2.222214e+000 2.815480e+000 1.000000e+001
      endloop
   endfacet
   facet normal 9.690670e-001 2.467975e-001 0.000000e+000
      outer loop
         vertex 2.124658e+000 3.242902e+000 0.000000e+000
         vertex 2.222214e+000 2.815480e+000 1.000000e+001
         vertex 2.222214e+000 2.815480e+000 0.000000e+000
      endloop
   endfacet
   facet normal 9.397067e-001 3.419812e-001 0.000000e+000
      outer loop
         vertex 2.222214e+000 2.815480e+000 0.000000e+000
         vertex 2.222214e+000 2.815480e+000 1.000000e+001
         vertex 2.382385e+000 2.407372e+000 1.000000e+001
      endloop
   endfacet
   facet normal 9.214601e-001 3.884729e-001 0.000000e+000
      outer loop
         vertex 2.222214e+000 2.815480e+000 0.000000e+000
         vertex 2.382385e+000 2.407372e+000 1.000000e+001
         vertex 2.382385e+000 2.407372e+000 0.000000e+000
      endloop
   endfacet
   facet normal 8.782414e-001 4.782176e-001 0.000000e+000
      outer loop
         vertex 2.382385e+000 2.407372e+000 0.000000e+000
         vertex 2.382385e+000 2.407372e+000 1.000000e+001
         vertex 2.601592e+000 2.027694e+000 1.000000e+001
      endloop
   endfacet
   facet normal 8.532693e-001 5.214705e-001 0.000000e+000
      outer loop
         vertex 2.382385e+000 2.407372e+000 0.000000e+000
         vertex 2.601592e+000 2.027694e+000 1.000000e+001
         vertex 2.601592e+000 2.027694e+000 0.000000e+000
      endloop
   endfacet
   facet normal 7.971576e-001 6.037714e-001 0.000000e+000
      outer loop
         vertex 2.601592e+000 2.027694e+000 0.000000e+000
         vertex 2.601592e+000 2.027694e+000 1.000000e+001
         vertex 2.874939e+000 1.684927e+000 1.000000e+001
      endloop
   endfacet
   facet normal 7.660179e-001 6.428193e-001 0.000000e+000
      outer loop
         vertex 2.601592e+000 2.027694e+000 0.000000e+000
         vertex 2.874939e+000 1.684927e+000 1.000000e+001
         vertex 2.874939e+000 1.684927e+000 0.000000e+000
      endloop
   endfacet
   facet normal 6.982664e-001 7.158380e-001 0.000000e+000
      outer loop
         vertex 2.874939e+000 1.684927e+000 0.000000e+000
         vertex 2.874939e+000 1.684927e+000 1.000000e+001
         vertex 3.196320e+000 1.386730e+000 1.000000e+001
      endloop
   endfacet
   facet normal 6.616548e-001 7.498086e-001 0.000000e+000
      outer loop
         vertex 2.874939e+000 1.684927e+000 0.000000e+000
         vertex 3.196320e+000 1.386730e+000 1.000000e+001
         vertex 3.196320e+000 1.386730e+000 0.000000e+000
      endloop
   endfacet
   facet normal 5.837772e-001 8.119138e-001 0.000000e+000
      outer loop
         vertex 3.196320e+000 1.386730e+000 0.000000e+000
         vertex 3.196320e+000 1.386730e+000 1.000000e+001
         vertex 3.558554e+000 1.139763e+000 1.000000e+001
      endloop
   endfacet
   facet normal 5.425115e-001 8.400484e-001 0.000000e+000
      outer loop
         vertex 3.196320e+000 1.386730e+000 0.000000e+000
         vertex 3.558554e+000 1.139763e+000 1.000000e+001
         vertex 3.558554e+000 1.139763e+000 0.000000e+000
      endloop
   endfacet
   facet normal 4.562475e-001 8.898529e-001 0.000000e+000
      outer loop
         vertex 3.558554e+000 1.139763e+000 0.000000e+000
         vertex 3.558554e+000 1.139763e+000 1.000000e+001
         vertex 3.953552e+000 9.495417e-001 1.000000e+001
      endloop
   endfacet
   facet normal 4.112494e-001 9.115229e-001 0.000000e+000
      outer loop
         vertex 3.558554e+000 1.139763e+000 0.000000e+000
         vertex 3.953552e+000 9.495417e-001 1.000000e+001
         vertex 3.953552e+000 9.495417e-001 0.000000e+000
      endloop
   endfacet
   facet normal 3.185259e-001 9.479141e-001 0.000000e+000
      outer loop
         vertex 3.953552e+000 9.495417e-001 0.000000e+000
         vertex 3.953552e+000 9.495417e-001 1.000000e+001
         vertex 4.372488e+000 8.203168e-001 1.000000e+001
      endloop
   endfacet
   facet normal 2.708006e-001 9.626355e-001 0.000000e+000
      outer loop
         vertex 3.953552e+000 9.495417e-001 0.000000e+000
         vertex 4.372488e+000 8.203168e-001 1.000000e+001
         vertex 4.372488e+000 8.203168e-001 0.000000e+000
      endloop
   endfacet
   facet normal 1.736889e-001 9.848005e-001 0.000000e+000
      outer loop
         vertex 4.372488e+000 8.203168e-001 0.000000e+000
         vertex 4.372488e+000 8.203168e-001 1.000000e+001
         vertex 4.806006e+000 7.549745e-001 1.000000e+001
      endloop
   endfacet
   facet normal 1.243026e-001 9.922444e-001 0.000000e+000
      outer loop
         vertex 4.372488e+000 8.203168e-001 0.000000e+000
         vertex 4.806006e+000 7.549745e-001 1.000000e+001
         vertex 4.806006e+000 7.549745e-001 0.000000e+000
      endloop
   endfacet
   facet normal 2.497209e-002 9.996881e-001 0.000000e+000
      outer loop
         vertex 4.806006e+000 7.549745e-001 0.000000e+000
         vertex 4.806006e+000 7.549745e-001 1.000000e+001
         vertex 5.244421e+000 7.549745e-001 1.000000e+001
      endloop
   endfacet
   facet normal -2.497209e-002 9.996881e-001 0.000000e+000
      outer loop
         vertex 4.806006e+000 7.549745e-001 0.000000e+000
         vertex 5.244421e+000 7.549745e-001 1.000000e+001
         vertex 5.244421e+000 7.549745e-001 0.000000e+000
      endloop
   endfacet
   facet normal -1.243026e-001 9.922444e-001 0.000000e+000
      outer loop
         vertex 5.244421e+000 7.549745e-001 0.000000e+000
         vertex 5.244421e+000 7.549745e-001 1.000000e+001
         vertex 5.677938e+000 8.203168e-001 1.000000e+001
      endloop
   endfacet
   facet normal -1.736889e-001 9.848005e-001 0.000000e+000
      outer loop
         vertex 5.244421e+000 7.549745e-001 0.000000e+000
         vertex 5.677938e+000 8.203168e-001 1.000000e+001
         vertex 5.677938e+000 8.203168e-001 0.000000e+000
      endloop
   endfacet
   facet normal -2.708006e-001 9.626355e-001 0.000000e+000
      outer loop
         vertex 5.677938e+000 8.203168e-001 0.000000e+000
         vertex 5.677938e+000 8.203168e-001 1.000000e+001
         vertex 6.096875e+000 9.495417e-001 1.000000e+001
      endloop
   endfacet
   facet normal -3.185259e-001 9.479141e-001 0.000000e+000
      outer loop
         vertex 5.677938e+000 8.203168e-001 0.000000e+000
         vertex 6.096875e+000 9.495417e-001 1.000000e+001
         vertex 6.096875e+000 9.495417e-001 0.000000e+000
      endloop
   endfacet
   facet normal -4.112494e-001 9.115229e-001 0.000000e+000
      outer loop
         vertex 6.096875e+000 9.495417e-001 0.000000e+000
         vertex 6.096875e+000 9.495417e-001 1.000000e+001
         vertex 6.491873e+000 1.139763e+000 1.000000e+001
      endloop
   endfacet
   facet normal -4.562475e-001 8.898529e-001 0.000000e+000
      outer loop
         vertex 6.096875e+000 9.495417e-001 0.000000e+000
         vertex 6.491873e+000 1.139763e+000 1.000000e+001
         vertex 6.491873e+000 1.139763e+000 0.000000e+000
      endloop
   endfacet
   facet normal -5.425115e-001 8.400484e-001 0.000000e+000
      outer loop
         vertex 6.491873e+000 1.139763e+000 0.000000e+000
         vertex 6.491873e+000 1.139763e+000 1.000000e+001
         vertex 6.854107e+000 1.386730e+000 1.000000e+001
      endloop
   endfacet
   facet normal -5.837773e-001 8.119138e-001 0.000000e+000
      outer loop
         vertex 6.491873e+000 1.139763e+000 0.000000e+000
         vertex 6.854107e+000 1.386730e+000 1.000000e+001
         vertex 6.854107e+000 1.386730e+000 0.000000e+000
      endloop
   endfacet
   facet normal -6.616548e-001 7.498086e-001 0.000000e+000
      outer loop
         vertex 6.854107e+000 1.386730e+000 0.000000e+000
         vertex 6.854107e+000 1.386730e+000 1.000000e+001
         vertex 7.175488e+000 1.684927e+000 1.000000e+001
      endloop
   endfacet
   facet normal -6.982664e-001 7.158380e-001 0.000000e+000
      outer loop
         vertex 6.854107e+000 1.386730e+000 0.000000e+000
         vertex 7.175488e+000 1.684927e+000 1.000000e+001
         vertex 7.175488e+000 1.684927e+000 0.000000e+000
      endloop
   endfacet
   facet normal -7.660179e-001 6.428193e-001 0.000000e+000
      outer loop
         vertex 7.175488e+000 1.684927e+000 0.000000e+000
         vertex 7.175488e+000 1.684927e+000 1.000000e+001
         vertex 7.448835e+000 2.027694e+000 1.000000e+001
      endloop
   endfacet
   facet normal -7.971575e-001 6.037714e-001 0.000000e+000
      outer loop
         vertex 7.175488e+000 1.684927e+000 0.000000e+000
         vertex 7.448835e+000 2.027694e+000 1.000000e+001
         vertex 7.448835e+000 2.027694e+000 0.000000e+000
      endloop
   endfacet
   facet normal -8.532693e-001 5.214705e-001 0.000000e+000
      outer loop
         vertex 7.448835e+000 2.027694e+000 0.000000e+000
         vertex 7.448835e+000 2.027694e+000 1.000000e+001
         vertex 7.668042e+000 2.407372e+000 1.000000e+001
      endloop
   endfacet
   facet normal -8.782414e-001 4.782176e-001 0.000000e+000
      outer loop
         vertex 7.448835e+000 2.027694e+000 0.000000e+000
         vertex 7.668042e+000 2.407372e+000 1.000000e+001
         vertex 7.668042e+000 2.407372e+000 0.000000e+000
      endloop
   endfacet
   facet normal -9.214601e-001 3.884729e-001 0.000000e+000
      outer loop
         vertex 7.668042e+000 2.407372e+000 0.000000e+000
         vertex 7.668042e+000 2.407372e+000 1.000000e+001
         vertex 7.828213e+000 2.815480e+000 1.000000e+001
      endloop
   endfacet
   facet normal -9.397067e-001 3.419812e-001 0.000000e+000
      outer loop
         vertex 7.668042e+000 2.407372e+000 0.000000e+000
         vertex 7.828213e+000 2.815480e+000 1.000000e+001
         vertex 7.828213e+000 2.815480e+000 0.000000e+000
      endloop
   endfacet
   facet normal -9.690670e-001 2.467975e-001 0.000000e+000
      outer loop
         vertex 7.828213e+000 2.815480e+000 0.000000e+000
         vertex 7.828213e+000 2.815480e+000 1.000000e+001
         vertex 7.925769e+000 3.242902e+000 1.000000e+001
      endloop
   endfacet
   facet normal -9.801807e-001 1.981055e-001 0.000000e+000
      outer loop
         vertex 7.828213e+000 2.815480e+000 0.000000e+000
         vertex 7.925769e+000 3.242902e+000 1.000000e+001
         vertex 7.925769e+000 3.242902e+000 0.000000e+000
      endloop
   endfacet
   facet normal -9.950266e-001 9.960905e-002 0.000000e+000
      outer loop
         vertex 7.925769e+000 3.242902e+000 0.000000e+000
         vertex 7.925769e+000 3.242902e+000 1.000000e+001
         vertex 7.958532e+000 3.680091e+000 1.000000e+001
      endloop
   endfacet
   facet normal -9.987590e-001 4.980453e-002 0.000000e+000
      outer loop
         vertex 7.925769e+000 3.242902e+000 0.000000e+000
         vertex 7.958532e+000 3.680091e+000 1.000000e+001
         vertex 7.958532e+000 3.680091e+000 0.000000e+000
      endloop
   endfacet
   facet normal 1.000000e+000 0.000000e+000 0.000000e+000
      outer loop
         vertex 2.091895e+000 3.680091e+000 0.000000e+000
         vertex 2.091895e+000 6.338911e+000 0.000000e+000
         vertex 2.091895e+000 3.680091e+000 1.000000e+001
      endloop
   endfacet
   facet normal 1.000000e+000 0.000000e+000 0.000000e+000
      outer loop
         vertex 2.091895e+000 3.680091e+000 1.000000e+001
         vertex 2.091895e+000 6.338911e+000 0.000000e+000
         vertex 2.091895e+000 6.338911e+000 1.000000e+001
      endloop
   endfacet
   facet normal -9.987590e-001 -4.980453e-002 0.000000e+000
      outer loop
         vertex 7.958532e+000 6.338911e+000 0.000000e+000
         vertex 7.958532e+000 6.338911e+000 1.000000e+001
         vertex 7.925769e+000 6.776099e+000 1.000000e+001
      endloop
   endfacet
   facet normal -9.950266e-001 -9.960905e-002 0.000000e+000
      outer loop
         vertex 7.958532e+000 6.338911e+000 0.000000e+000
         vertex 7.925769e+000 6.776099e+000 1.000000e+001
         vertex 7.925769e+000 6.776099e+000 0.000000e+000
      endloop
   endfacet
   facet normal -9.801807e-001 -1.981055e-001 0.000000e+000
      outer loop
         vertex 7.925769e+000 6.776099e+000 0.000000e+000
         vertex 7.925769e+000 6.776099e+000 1.000000e+001
         vertex 7.828213e+000 7.203521e+000 1.000000e+001
      endloop
   endfacet
   facet normal -9.690670e-001 -2.467975e-001 0.000000e+000
      outer loop
         vertex 7.925769e+000 6.776099e+000 0.000000e+000
         vertex 7.828213e+000 7.203521e+000 1.000000e+001
         vertex 7.828213e+000 7.203521e+000 0.000000e+000
      endloop
   endfacet
   facet normal -9.397067e-001 -3.419812e-001 0.000000e+000
      outer loop
         vertex 7.828213e+000 7.203521e+000 0.000000e+000
         vertex 7.828213e+000 7.203521e+000 1.000000e+001
         vertex 7.668042e+000 7.611629e+000 1.000000e+001
      endloop
   endfacet
   facet normal -9.214601e-001 -3.884729e-001 0.000000e+000
      outer loop
         vertex 7.828213e+000 7.203521e+000 0.000000e+000
         vertex 7.668042e+000 7.611629e+000 1.000000e+001
         vertex 7.668042e+000 7.611629e+000 0.000000e+000
      endloop
   endfacet
   facet normal -8.782414e-001 -4.782176e-001 0.000000e+000
      outer loop
         vertex 7.668042e+000 7.611629e+000 0.000000e+000
         vertex 7.668042e+000 7.611629e+000 1.000000e+001
         vertex 7.448835e+000 7.991307e+000 1.000000e+001
      endloop
   endfacet
   facet normal -8.532693e-001 -5.214705e-001 0.000000e+000
      outer loop
         vertex 7.668042e+000 7.611629e+000 0.000000e+000
         vertex 7.448835e+000 7.991307e+000 1.000000e+001
         vertex 7.448835e+000 7.991307e+000 0.000000e+000
      endloop
   endfacet
   facet normal -7.971576e-001 -6.037714e-001 0.000000e+000
      outer loop
         vertex 7.448835e+000 7.991307e+000 0.000000e+000
         vertex 7.448835e+000 7.991307e+000 1.000000e+001
         vertex 7.175488e+000 8.334074e+000 1.000000e+001
      endloop
   endfacet
   facet normal -7.660179e-001 -6.428193e-001 0.000000e+000
      outer loop
         vertex 7.448835e+000 7.991307e+000 0.000000e+000
         vertex 7.175488e+000 8.334074e+000 1.000000e+001
         vertex 7.175488e+000 8.334074e+000 0.000000e+000
      endloop
   endfacet
   facet normal -6.982664e-001 -7.158380e-001 0.000000e+000
      outer loop
         vertex 7.175488e+000 8.334074e+000 0.000000e+000
         vertex 7.175488e+000 8.334074e+000 1.000000e+001
         vertex 6.854107e+000 8.632272e+000 1.000000e+001
      endloop
   endfacet
   facet normal -6.616548e-001 -7.498086e-001 0.000000e+000
      outer loop
         vertex 7.175488e+000 8.334074e+000 0.000000e+000
         vertex 6.854107e+000 8.632272e+000 1.000000e+001
         vertex 6.854107e+000 8.632272e+000 0.000000e+000
      endloop
   endfacet
   facet normal -5.837772e-001 -8.119138e-001 0.000000e+000
      outer loop
         vertex 6.854107e+000 8.632272e+000 0.000000e+000
         vertex 6.854107e+000 8.632272e+000 1.000000e+001
         vertex 6.491873e+000 8.879239e+000 1.000000e+001
      endloop
   endfacet
   facet normal -5.425115e-001 -8.400484e-001 0.000000e+000
      outer loop
         vertex 6.854107e+000 8.632272e+000 0.000000e+000
         vertex 6.491873e+000 8.879239e+000 1.000000e+001
         vertex 6.491873e+000 8.879239e+000 0.000000e+000
      endloop
   endfacet
   facet normal -4.562475e-001 -8.898529e-001 0.000000e+000
      outer loop
         vertex 6.491873e+000 8.879239e+000 0.000000e+000
         vertex 6.491873e+000 8.879239e+000 1.000000e+001
         vertex 6.096875e+000 9.069460e+000 1.000000e+001
      endloop
   endfacet
   facet normal -4.112494e-001 -9.115229e-001 0.000000e+000
      outer loop
         vertex 6.491873e+000 8.879239e+000 0.000000e+000
         vertex 6.096875e+000 9.069460e+000 1.000000e+001
         vertex 6.096875e+000 9.069460e+000 0.000000e+000
      endloop
   endfacet
   facet normal -3.185259e-001 -9.479141e-001 0.000000e+000
      outer loop
         vertex 6.096875e+000 9.069460e+000 0.000000e+000
         vertex 6.096875e+000 9.069460e+000 1.000000e+001
         vertex 5.677938e+000 9.198685e+000 1.000000e+001
      endloop
   endfacet
   facet normal -2.708006e-001 -9.626355e-001 0.000000e+000
      outer loop
         vertex 6.096875e+000 9.069460e+000 0.000000e+000
         vertex 5.677938e+000 9.198685e+000 1.000000e+001
         vertex 5.677938e+000 9.198685e+000 0.000000e+000
      endloop
   endfacet
   facet normal -1.736889e-001 -9.848005e-001 0.000000e+000
      outer loop
         vertex 5.677938e+000 9.198685e+000 0.000000e+000
         vertex 5.677938e+000 9.198685e+000 1.000000e+001
         vertex 5.244421e+000 9.264027e+000 1.000000e+001
      endloop
   endfacet
   facet normal -1.243026e-001 -9.922444e-001 0.000000e+000
      outer loop
         vertex 5.677938e+000 9.198685e+000 0.000000e+000
         vertex 5.244421e+000 9.264027e+000 1.000000e+001
         vertex 5.244421e+000 9.264027e+000 0.000000e+000
      endloop
   endfacet
   facet normal -2.497209e-002 -9.996881e-001 0.000000e+000
      outer loop
         vertex 5.244421e+000 9.264027e+000 0.000000e+000
         vertex 5.244421e+000 9.264027e+000 1.000000e+001
         vertex 4.806006e+000 9.264027e+000 1.000000e+001
      endloop
   endfacet
   facet normal 2.497209e-002 -9.996881e-001 0.000000e+000
      outer loop
         vertex 5.244421e+000 9.264027e+000 0.000000e+000
         vertex 4.806006e+000 9.264027e+000 1.000000e+001
         vertex 4.806006e+000 9.264027e+000 0.000000e+000
      endloop
   endfacet
   facet normal 1.243026e-001 -9.922444e-001 0.000000e+000
      outer loop
         vertex 4.806006e+000 9.264027e+000 0.000000e+000
         vertex 4.806006e+000 9.264027e+000 1.000000e+001
         vertex 4.372488e+000 9.198685e+000 1.000000e+001
      endloop
   endfacet
   facet normal 1.736889e-001 -9.848005e-001 0.000000e+000
      outer loop
         vertex 4.806006e+000 9.264027e+000 0.000000e+000
         vertex 4.372488e+000 9.198685e+000 1.000000e+001
         vertex 4.372488e+000 9.198685e+000 0.000000e+000
      endloop
   endfacet
   facet normal 2.708006e-001 -9.626355e-001 0.000000e+000
      outer loop
         vertex 4.372488e+000 9.198685e+000 0.000000e+000
         vertex 4.372488e+000 9.198685e+000 1.000000e+001
         vertex 3.953552e+000 9.069460e+000 1.000000e+001
      endloop
   endfacet
   facet normal 3.185259e-001 -9.479141e-001 0.000000e+000
      outer loop
         vertex 4.372488e+000 9.198685e+000 0.000000e+000
         vertex 3.953552e+000 9.069460e+000 1.000000e+001
         vertex 3.953552e+000 9.069460e+000 0.000000e+000
      endloop
   endfacet
   facet normal 4.112494e-001 -9.115229e-001 0.000000e+000
      outer loop
         vertex 3.953552e+000 9.069460e+000 0.000000e+000
         vertex 3.953552e+000 9.069460e+000 1.000000e+001
         vertex 3.558554e+000 8.879239e+000 1.000000e+001
      endloop
   endfacet
   facet normal 4.562475e-001 -8.898529e-001 0.000000e+000
      outer loop
         vertex 3.953552e+000 9.069460e+000 0.000000e+000
         vertex 3.558554e+000 8.879239e+000 1.000000e+001
         vertex 3.558554e+000 8.879239e+000 0.000000e+000
      endloop
   endfacet
   facet normal 5.425115e-001 -8.400484e-001 0.000000e+000
      outer loop
         vertex 3.558554e+000 8.879239e+000 0.000000e+000
         vertex 3.558554e+000 8.879239e+000 1.000000e+001
         vertex 3.196320e+000 8.632272e+000 1.000000e+001
      endloop
   endfacet
   facet normal 5.837773e-001 -8.119138e-001 0.000000e+000
      outer loop
         vertex 3.558554e+000 8.879239e+000 0.000000e+000
         vertex 3.196320e+000 8.632272e+000 1.000000e+001
         vertex 3.196320e+000 8.632272e+000 0.000000e+000
      endloop
   endfacet
   facet normal 6.616548e-001 -7.498086e-001 0.000000e+000
      outer loop
         vertex 3.196320e+000 8.632272e+000 0.000000e+000
         vertex 3.196320e+000 8.632272e+000 1.000000e+001
         vertex 2.874939e+000 8.334074e+000 1.000000e+001
      endloop
   endfacet
   facet normal 6.982664e-001 -7.158380e-001 0.000000e+000
      outer loop
         vertex 3.196320e+000 8.632272e+000 0.000000e+000
         vertex 2.874939e+000 8.334074e+000 1.000000e+001
         vertex 2.874939e+000 8.334074e+000 0.000000e+000
      endloop
   endfacet
   facet normal 7.660179e-001 -6.428193e-001 0.000000e+000
      outer loop
         vertex 2.874939e+000 8.334074e+000 0.000000e+000
         vertex 2.874939e+000 8.334074e+000 1.000000e+001
         vertex 2.601592e+000 7.991307e+000 1.000000e+001
      endloop
   endfacet
   facet normal 7.971575e-001 -6.037714e-001 0.000000e+000
      outer loop
         vertex 2.874939e+000 8.334074e+000 0.000000e+000
         vertex 2.601592e+000 7.991307e+000 1.000000e+001
         vertex 2.601592e+000 7.991307e+000 0.000000e+000
      endloop
   endfacet
   facet normal 8.532693e-001 -5.214705e-001 0.000000e+000
      outer loop
         vertex 2.601592e+000 7.991307e+000 0.000000e+000
         vertex 2.601592e+000 7.991307e+000 1.000000e+001
         vertex 2.382385e+000 7.611629e+000 1.000000e+001
      endloop
   endfacet
   facet normal 8.782414e-001 -4.782176e-001 0.000000e+000
      outer loop
         vertex 2.601592e+000 7.991307e+000 0.000000e+000
         vertex 2.382385e+000 7.611629e+000 1.000000e+001
         vertex 2.382385e+000 7.611629e+000 0.000000e+000
      endloop
   endfacet
   facet normal 9.214601e-001 -3.884729e-001 0.000000e+000
      outer loop
         vertex 2.382385e+000 7.611629e+000 0.000000e+000
         vertex 2.382385e+000 7.611629e+000 1.000000e+001
         vertex 2.222214e+000 7.203521e+000 1.000000e+001
      endloop
   endfacet
   facet normal 9.397067e-001 -3.419812e-001 0.000000e+000
      outer loop
         vertex 2.382385e+000 7.611629e+000 0.000000e+000
         vertex 2.222214e+000 7.203521e+000 1.000000e+001
         vertex 2.222214e+000 7.203521e+000 0.000000e+000
      endloop
   endfacet
   facet normal 9.690670e-001 -2.467975e-001 0.000000e+000
      outer loop
         vertex 2.222214e+000 7.203521e+000 0.000000e+000
         vertex 2.222214e+000 7.203521e+000 1.000000e+001
         vertex 2.124658e+000 6.776099e+000 1.000000e+001
      endloop
   endfacet
   facet normal 9.801807e-001 -1.981055e-001 0.000000e+000
      outer loop
         vertex 2.222214e+000 7.203521e+000 0.000000e+000
         vertex 2.124658e+000 6.776099e+000 1.000000e+001
         vertex 2.124658e+000 6.776099e+000 0.000000e+000
      endloop
   endfacet
   facet normal 9.950266e-001 -9.960905e-002 0.000000e+000
      outer loop
         vertex 2.124658e+000 6.776099e+000 0.000000e+000
         vertex 2.124658e+000 6.776099e+000 1.000000e+001
         vertex 2.091895e+000 6.338911e+000 1.000000e+001
      endloop
   endfacet
   facet normal 9.987590e-001 -4.980453e-002 0.000000e+000
      outer loop
         vertex 2.124658e+000 6.776099e+000 0.000000e+000
         vertex 2.091895e+000 6.338911e+000 1.000000e+001
         vertex 2.091895e+000 6.338911e+000 0.000000e+000
      endloop
   endfacet
   facet normal -1.000000e+000 0.000000e+000 0.000000e+000
      outer loop
         vertex 7.958532e+000 6.338911e+000 0.000000e+000
         vertex 7.958532e+000 3.680091e+000 0.000000e+000
         vertex 7.958532e+000 6.338911e+000 1.000000e+001
      endloop
   endfacet
   facet normal -1.000000e+000 0.000000e+000 0.000000e+000
      outer loop
         vertex 7.958532e+000 6.338911e+000 1.000000e+001
         vertex 7.958532e+000 3.680091e+000 0.000000e+000
         vertex 7.958532e+000 3.680091e+000 1.000000e+001
      endloop
   endfacet
endsolid