solid 11_506
   facet normal -1.000000e+000 0.000000e+000 0.000000e+000
      outer loop
         vertex 0.000000e+000 1.000000e+001 1.000000e+001
         vertex 0.000000e+000 1.000000e+001 0.000000e+000
         vertex 0.000000e+000 0.000000e+000 1.000000e+001
      endloop
   endfacet
   facet normal -1.000000e+000 0.000000e+000 0.000000e+000
      outer loop
         vertex 0.000000e+000 0.000000e+000 1.000000e+001
         vertex 0.000000e+000 1.000000e+001 0.000000e+000
         vertex 0.000000e+000 0.000000e+000 0.000000e+000
      endloop
   endfacet
   facet normal 0.000000e+000 0.000000e+000 1.000000e+000
      outer loop
         vertex 7.179034e+000 1.995669e+000 1.000000e+001
         vertex 6.729191e+000 1.842968e+000 1.000000e+001
         vertex 1.000000e+001 0.000000e+000 1.000000e+001
      endloop
   endfacet
   facet normal 0.000000e+000 0.000000e+000 1.000000e+000
      outer loop
         vertex 9.144519e+000 6.740769e+000 1.000000e+001
         vertex 9.297220e+000 6.290926e+000 1.000000e+001
         vertex 1.000000e+001 1.000000e+001 1.000000e+001
      endloop
   endfacet
   facet normal 0.000000e+000 0.000000e+000 1.000000e+000
      outer loop
         vertex 9.144519e+000 6.740769e+000 1.000000e+001
         vertex 1.000000e+001 1.000000e+001 1.000000e+001
         vertex 8.934407e+000 7.166833e+000 1.000000e+001
      endloop
   endfacet
   facet normal 0.000000e+000 0.000000e+000 1.000000e+000
      outer loop
         vertex 1.000000e+001 0.000000e+000 1.000000e+001
         vertex 9.297220e+000 4.410998e+000 1.000000e+001
         vertex 9.144519e+000 3.961154e+000 1.000000e+001
      endloop
   endfacet
   facet normal 0.000000e+000 0.000000e+000 1.000000e+000
      outer loop
         vertex 9.144519e+000 3.961154e+000 1.000000e+001
         vertex 8.934407e+000 3.535091e+000 1.000000e+001
         vertex 1.000000e+001 0.000000e+000 1.000000e+001
      endloop
   endfacet
   facet normal 0.000000e+000 0.000000e+000 1.000000e+000
      outer loop
         vertex 1.000000e+001 0.000000e+000 1.000000e+001
         vertex 8.934407e+000 3.535091e+000 1.000000e+001
         vertex 8.670482e+000 3.140097e+000 1.000000e+001
      endloop
   endfacet
   facet normal 0.000000e+000 0.000000e+000 1.000000e+000
      outer loop
         vertex 1.000000e+001 0.000000e+000 1.000000e+001
         vertex 8.670482e+000 3.140097e+000 1.000000e+001
         vertex 8.357256e+000 2.782932e+000 1.000000e+001
      endloop
   endfacet
   facet normal 0.000000e+000 0.000000e+000 1.000000e+000
      outer loop
         vertex 9.297220e+000 6.290926e+000 1.000000e+001
         vertex 9.389898e+000 5.824999e+000 1.000000e+001
         vertex 1.000000e+001 1.000000e+001 1.000000e+001
      endloop
   endfacet
   facet normal 0.000000e+000 0.000000e+000 1.000000e+000
      outer loop
         vertex 1.000000e+001 1.000000e+001 1.000000e+001
         vertex 9.389898e+000 5.824999e+000 1.000000e+001
         vertex 9.420969e+000 5.350962e+000 1.000000e+001
      endloop
   endfacet
   facet normal 0.000000e+000 0.000000e+000 1.000000e+000
      outer loop
         vertex 1.000000e+001 1.000000e+001 1.000000e+001
         vertex 9.420969e+000 5.350962e+000 1.000000e+001
         vertex 1.000000e+001 0.000000e+000 1.000000e+001
      endloop
   endfacet
   facet normal 0.000000e+000 0.000000e+000 1.000000e+000
      outer loop
         vertex 1.000000e+001 0.000000e+000 1.000000e+001
         vertex 9.420969e+000 5.350962e+000 1.000000e+001
         vertex 9.389898e+000 4.876924e+000 1.000000e+001
      endloop
   endfacet
   facet normal 0.000000e+000 0.000000e+000 1.000000e+000
      outer loop
         vertex 1.000000e+001 0.000000e+000 1.000000e+001
         vertex 9.389898e+000 4.876924e+000 1.000000e+001
         vertex 9.297220e+000 4.410998e+000 1.000000e+001
      endloop
   endfacet
   facet normal 0.000000e+000 0.000000e+000 1.000000e+000
      outer loop
         vertex 8.357256e+000 2.782932e+000 1.000000e+001
         vertex 8.000092e+000 2.469707e+000 1.000000e+001
         vertex 1.000000e+001 0.000000e+000 1.000000e+001
      endloop
   endfacet
   facet normal 0.000000e+000 0.000000e+000 1.000000e+000
      outer loop
         vertex 1.000000e+001 0.000000e+000 1.000000e+001
         vertex 8.000092e+000 2.469707e+000 1.000000e+001
         vertex 7.605098e+000 2.205781e+000 1.000000e+001
      endloop
   endfacet
   facet normal 0.000000e+000 0.000000e+000 1.000000e+000
      outer loop
         vertex 1.000000e+001 0.000000e+000 1.000000e+001
         vertex 7.605098e+000 2.205781e+000 1.000000e+001
         vertex 7.179034e+000 1.995669e+000 1.000000e+001
      endloop
   endfacet
   facet normal 0.000000e+000 0.000000e+000 1.000000e+000
      outer loop
         vertex 8.000092e+000 8.232216e+000 1.000000e+001
         vertex 8.357256e+000 7.918991e+000 1.000000e+001
         vertex 1.000000e+001 1.000000e+001 1.000000e+001
      endloop
   endfacet
   facet normal 0.000000e+000 0.000000e+000 1.000000e+000
      outer loop
         vertex 1.000000e+001 1.000000e+001 1.000000e+001
         vertex 8.357256e+000 7.918991e+000 1.000000e+001
         vertex 8.670482e+000 7.561827e+000 1.000000e+001
      endloop
   endfacet
   facet normal 0.000000e+000 0.000000e+000 1.000000e+000
      outer loop
         vertex 1.000000e+001 1.000000e+001 1.000000e+001
         vertex 8.670482e+000 7.561827e+000 1.000000e+001
         vertex 8.934407e+000 7.166833e+000 1.000000e+001
      endloop
   endfacet
   facet normal 0.000000e+000 0.000000e+000 1.000000e+000
      outer loop
         vertex 6.729191e+000 8.858955e+000 1.000000e+001
         vertex 7.179034e+000 8.706254e+000 1.000000e+001
         vertex 1.000000e+001 1.000000e+001 1.000000e+001
      endloop
   endfacet
   facet normal 0.000000e+000 0.000000e+000 1.000000e+000
      outer loop
         vertex 1.000000e+001 1.000000e+001 1.000000e+001
         vertex 7.179034e+000 8.706254e+000 1.000000e+001
         vertex 7.605098e+000 8.496143e+000 1.000000e+001
      endloop
   endfacet
   facet normal 0.000000e+000 0.000000e+000 1.000000e+000
      outer loop
         vertex 1.000000e+001 1.000000e+001 1.000000e+001
         vertex 7.605098e+000 8.496143e+000 1.000000e+001
         vertex 8.000092e+000 8.232216e+000 1.000000e+001
      endloop
   endfacet
   facet normal 0.000000e+000 0.000000e+000 1.000000e+000
      outer loop
         vertex 3.669152e+000 1.750290e+000 1.000000e+001
         vertex 3.203225e+000 1.842968e+000 1.000000e+001
         vertex 0.000000e+000 0.000000e+000 1.000000e+001
      endloop
   endfacet
   facet normal 0.000000e+000 0.000000e+000 1.000000e+000
      outer loop
         vertex 0.000000e+000 0.000000e+000 1.000000e+001
         vertex 3.203225e+000 1.842968e+000 1.000000e+001
         vertex 2.753381e+000 1.995669e+000 1.000000e+001
      endloop
   endfacet
   facet normal 0.000000e+000 0.000000e+000 1.000000e+000
      outer loop
         vertex 0.000000e+000 0.000000e+000 1.000000e+001
         vertex 2.753381e+000 1.995669e+000 1.000000e+001
         vertex 2.327318e+000 2.205781e+000 1.000000e+001
      endloop
   endfacet
   facet normal 0.000000e+000 0.000000e+000 1.000000e+000
      outer loop
         vertex 6.729191e+000 1.842968e+000 1.000000e+001
         vertex 6.263264e+000 1.750290e+000 1.000000e+001
         vertex 1.000000e+001 0.000000e+000 1.000000e+001
      endloop
   endfacet
   facet normal 0.000000e+000 0.000000e+000 1.000000e+000
      outer loop
         vertex 1.000000e+001 0.000000e+000 1.000000e+001
         vertex 6.263264e+000 1.750290e+000 1.000000e+001
         vertex 5.789227e+000 1.719220e+000 1.000000e+001
      endloop
   endfacet
   facet normal 0.000000e+000 0.000000e+000 1.000000e+000
      outer loop
         vertex 1.000000e+001 0.000000e+000 1.000000e+001
         vertex 5.789227e+000 1.719220e+000 1.000000e+001
         vertex 0.000000e+000 0.000000e+000 1.000000e+001
      endloop
   endfacet
   facet normal 0.000000e+000 0.000000e+000 1.000000e+000
      outer loop
         vertex 0.000000e+000 0.000000e+000 1.000000e+001
         vertex 5.789227e+000 1.719220e+000 1.000000e+001
         vertex 4.143189e+000 1.719220e+000 1.000000e+001
      endloop
   endfacet
   facet normal 0.000000e+000 0.000000e+000 1.000000e+000
      outer loop
         vertex 0.000000e+000 0.000000e+000 1.000000e+001
         vertex 4.143189e+000 1.719220e+000 1.000000e+001
         vertex 3.669152e+000 1.750290e+000 1.000000e+001
      endloop
   endfacet
   facet normal 0.000000e+000 0.000000e+000 1.000000e+000
      outer loop
         vertex 2.327318e+000 2.205781e+000 1.000000e+001
         vertex 1.932324e+000 2.469707e+000 1.000000e+001
         vertex 0.000000e+000 0.000000e+000 1.000000e+001
      endloop
   endfacet
   facet normal 0.000000e+000 0.000000e+000 1.000000e+000
      outer loop
         vertex 0.000000e+000 0.000000e+000 1.000000e+001
         vertex 1.932324e+000 2.469707e+000 1.000000e+001
         vertex 1.575160e+000 2.782932e+000 1.000000e+001
      endloop
   endfacet
   facet normal 0.000000e+000 0.000000e+000 1.000000e+000
      outer loop
         vertex 0.000000e+000 0.000000e+000 1.000000e+001
         vertex 1.575160e+000 2.782932e+000 1.000000e+001
         vertex 1.261934e+000 3.140097e+000 1.000000e+001
      endloop
   endfacet
   facet normal 0.000000e+000 0.000000e+000 1.000000e+000
      outer loop
         vertex 1.261934e+000 3.140097e+000 1.000000e+001
         vertex 9.980080e-001 3.535091e+000 1.000000e+001
         vertex 0.000000e+000 0.000000e+000 1.000000e+001
      endloop
   endfacet
   facet normal 0.000000e+000 0.000000e+000 1.000000e+000
      outer loop
         vertex 0.000000e+000 0.000000e+000 1.000000e+001
         vertex 9.980080e-001 3.535091e+000 1.000000e+001
         vertex 7.878967e-001 3.961154e+000 1.000000e+001
      endloop
   endfacet
   facet normal 0.000000e+000 0.000000e+000 1.000000e+000
      outer loop
         vertex 0.000000e+000 0.000000e+000 1.000000e+001
         vertex 7.878967e-001 3.961154e+000 1.000000e+001
         vertex 6.351954e-001 4.410998e+000 1.000000e+001
      endloop
   endfacet
   facet normal 0.000000e+000 0.000000e+000 1.000000e+000
      outer loop
         vertex 1.261934e+000 7.561827e+000 1.000000e+001
         vertex 1.575160e+000 7.918991e+000 1.000000e+001
         vertex 0.000000e+000 1.000000e+001 1.000000e+001
      endloop
   endfacet
   facet normal 0.000000e+000 0.000000e+000 1.000000e+000
      outer loop
         vertex 0.000000e+000 1.000000e+001 1.000000e+001
         vertex 1.575160e+000 7.918991e+000 1.000000e+001
         vertex 1.932324e+000 8.232216e+000 1.000000e+001
      endloop
   endfacet
   facet normal 0.000000e+000 0.000000e+000 1.000000e+000
      outer loop
         vertex 0.000000e+000 1.000000e+001 1.000000e+001
         vertex 1.932324e+000 8.232216e+000 1.000000e+001
         vertex 2.327318e+000 8.496143e+000 1.000000e+001
      endloop
   endfacet
   facet normal 0.000000e+000 0.000000e+000 1.000000e+000
      outer loop
         vertex 2.327318e+000 8.496143e+000 1.000000e+001
         vertex 2.753381e+000 8.706254e+000 1.000000e+001
         vertex 0.000000e+000 1.000000e+001 1.000000e+001
      endloop
   endfacet
   facet normal 0.000000e+000 0.000000e+000 1.000000e+000
      outer loop
         vertex 0.000000e+000 1.000000e+001 1.000000e+001
         vertex 2.753381e+000 8.706254e+000 1.000000e+001
         vertex 3.203225e+000 8.858955e+000 1.000000e+001
      endloop
   endfacet
   facet normal 0.000000e+000 0.000000e+000 1.000000e+000
      outer loop
         vertex 0.000000e+000 1.000000e+001 1.000000e+001
         vertex 3.203225e+000 8.858955e+000 1.000000e+001
         vertex 3.669152e+000 8.951634e+000 1.000000e+001
      endloop
   endfacet
   facet normal 0.000000e+000 0.000000e+000 1.000000e+000
      outer loop
         vertex 6.351954e-001 6.290926e+000 1.000000e+001
         vertex 7.878967e-001 6.740769e+000 1.000000e+001
         vertex 0.000000e+000 1.000000e+001 1.000000e+001
      endloop
   endfacet
   facet normal 0.000000e+000 0.000000e+000 1.000000e+000
      outer loop
         vertex 0.000000e+000 1.000000e+001 1.000000e+001
         vertex 7.878967e-001 6.740769e+000 1.000000e+001
         vertex 9.980080e-001 7.166833e+000 1.000000e+001
      endloop
   endfacet
   facet normal 0.000000e+000 0.000000e+000 1.000000e+000
      outer loop
         vertex 0.000000e+000 1.000000e+001 1.000000e+001
         vertex 9.980080e-001 7.166833e+000 1.000000e+001
         vertex 1.261934e+000 7.561827e+000 1.000000e+001
      endloop
   endfacet
   facet normal 0.000000e+000 0.000000e+000 1.000000e+000
      outer loop
         vertex 3.669152e+000 8.951634e+000 1.000000e+001
         vertex 4.143189e+000 8.982704e+000 1.000000e+001
         vertex 0.000000e+000 1.000000e+001 1.000000e+001
      endloop
   endfacet
   facet normal 0.000000e+000 0.000000e+000 1.000000e+000
      outer loop
         vertex 0.000000e+000 1.000000e+001 1.000000e+001
         vertex 4.143189e+000 8.982704e+000 1.000000e+001
         vertex 5.789227e+000 8.982704e+000 1.000000e+001
      endloop
   endfacet
   facet normal 0.000000e+000 0.000000e+000 1.000000e+000
      outer loop
         vertex 0.000000e+000 1.000000e+001 1.000000e+001
         vertex 5.789227e+000 8.982704e+000 1.000000e+001
         vertex 1.000000e+001 1.000000e+001 1.000000e+001
      endloop
   endfacet
   facet normal 0.000000e+000 0.000000e+000 1.000000e+000
      outer loop
         vertex 1.000000e+001 1.000000e+001 1.000000e+001
         vertex 5.789227e+000 8.982704e+000 1.000000e+001
         vertex 6.263264e+000 8.951634e+000 1.000000e+001
      endloop
   endfacet
   facet normal 0.000000e+000 0.000000e+000 1.000000e+000
      outer loop
         vertex 1.000000e+001 1.000000e+001 1.000000e+001
         vertex 6.263264e+000 8.951634e+000 1.000000e+001
         vertex 6.729191e+000 8.858955e+000 1.000000e+001
      endloop
   endfacet
   facet normal 0.000000e+000 0.000000e+000 1.000000e+000
      outer loop
         vertex 6.351954e-001 4.410998e+000 1.000000e+001
         vertex 5.425168e-001 4.876924e+000 1.000000e+001
         vertex 0.000000e+000 0.000000e+000 1.000000e+001
      endloop
   endfacet
   facet normal 0.000000e+000 0.000000e+000 1.000000e+000
      outer loop
         vertex 0.000000e+000 0.000000e+000 1.000000e+001
         vertex 5.425168e-001 4.876924e+000 1.000000e+001
         vertex 5.114468e-001 5.350962e+000 1.000000e+001
      endloop
   endfacet
   facet normal 0.000000e+000 0.000000e+000 1.000000e+000
      outer loop
         vertex 0.000000e+000 0.000000e+000 1.000000e+001
         vertex 5.114468e-001 5.350962e+000 1.000000e+001
         vertex 0.000000e+000 1.000000e+001 1.000000e+001
      endloop
   endfacet
   facet normal 0.000000e+000 0.000000e+000 1.000000e+000
      outer loop
         vertex 0.000000e+000 1.000000e+001 1.000000e+001
         vertex 5.114468e-001 5.350962e+000 1.000000e+001
         vertex 5.425168e-001 5.824999e+000 1.000000e+001
      endloop
   endfacet
   facet normal 0.000000e+000 0.000000e+000 1.000000e+000
      outer loop
         vertex 0.000000e+000 1.000000e+001 1.000000e+001
         vertex 5.425168e-001 5.824999e+000 1.000000e+001
         vertex 6.351954e-001 6.290926e+000 1.000000e+001
      endloop
   endfacet
   facet normal 1.000000e+000 0.000000e+000 0.000000e+000
      outer loop
         vertex 1.000000e+001 1.000000e+001 0.000000e+000
         vertex 1.000000e+001 1.000000e+001 1.000000e+001
         vertex 1.000000e+001 0.000000e+000 0.000000e+000
      endloop
   endfacet
   facet normal 1.000000e+000 0.000000e+000 0.000000e+000
      outer loop
         vertex 1.000000e+001 0.000000e+000 0.000000e+000
         vertex 1.000000e+001 1.000000e+001 1.000000e+001
         vertex 1.000000e+001 0.000000e+000 1.000000e+001
      endloop
   endfacet
   facet normal 0.000000e+000 0.000000e+000 -1.000000e+000
      outer loop
         vertex 6.263264e+000 1.750290e+000 0.000000e+000
         vertex 6.729191e+000 1.842968e+000 0.000000e+000
         vertex 1.000000e+001 0.000000e+000 0.000000e+000
      endloop
   endfacet
   facet normal 0.000000e+000 0.000000e+000 -1.000000e+000
      outer loop
         vertex 1.000000e+001 0.000000e+000 0.000000e+000
         vertex 6.729191e+000 1.842968e+000 0.000000e+000
         vertex 7.179034e+000 1.995669e+000 0.000000e+000
      endloop
   endfacet
   facet normal 0.000000e+000 0.000000e+000 -1.000000e+000
      outer loop
         vertex 0.000000e+000 0.000000e+000 0.000000e+000
         vertex 1.575160e+000 2.782932e+000 0.000000e+000
         vertex 1.932324e+000 2.469707e+000 0.000000e+000
      endloop
   endfacet
   facet normal 0.000000e+000 0.000000e+000 -1.000000e+000
      outer loop
         vertex 9.297220e+000 6.290926e+000 0.000000e+000
         vertex 9.144519e+000 6.740769e+000 0.000000e+000
         vertex 1.000000e+001 1.000000e+001 0.000000e+000
      endloop
   endfacet
   facet normal 0.000000e+000 0.000000e+000 -1.000000e+000
      outer loop
         vertex 1.000000e+001 1.000000e+001 0.000000e+000
         vertex 9.144519e+000 6.740769e+000 0.000000e+000
         vertex 8.934407e+000 7.166833e+000 0.000000e+000
      endloop
   endfacet
   facet normal 0.000000e+000 0.000000e+000 -1.000000e+000
      outer loop
         vertex 0.000000e+000 0.000000e+000 0.000000e+000
         vertex 6.351954e-001 4.410998e+000 0.000000e+000
         vertex 7.878967e-001 3.961154e+000 0.000000e+000
      endloop
   endfacet
   facet normal 0.000000e+000 0.000000e+000 -1.000000e+000
      outer loop
         vertex 1.932324e+000 2.469707e+000 0.000000e+000
         vertex 2.327318e+000 2.205781e+000 0.000000e+000
         vertex 0.000000e+000 0.000000e+000 0.000000e+000
      endloop
   endfacet
   facet normal 0.000000e+000 0.000000e+000 -1.000000e+000
      outer loop
         vertex 0.000000e+000 0.000000e+000 0.000000e+000
         vertex 2.327318e+000 2.205781e+000 0.000000e+000
         vertex 2.753381e+000 1.995669e+000 0.000000e+000
      endloop
   endfacet
   facet normal 0.000000e+000 0.000000e+000 -1.000000e+000
      outer loop
         vertex 0.000000e+000 0.000000e+000 0.000000e+000
         vertex 2.753381e+000 1.995669e+000 0.000000e+000
         vertex 3.203225e+000 1.842968e+000 0.000000e+000
      endloop
   endfacet
   facet normal 0.000000e+000 0.000000e+000 -1.000000e+000
      outer loop
         vertex 7.179034e+000 1.995669e+000 0.000000e+000
         vertex 7.605098e+000 2.205781e+000 0.000000e+000
         vertex 1.000000e+001 0.000000e+000 0.000000e+000
      endloop
   endfacet
   facet normal 0.000000e+000 0.000000e+000 -1.000000e+000
      outer loop
         vertex 1.000000e+001 0.000000e+000 0.000000e+000
         vertex 7.605098e+000 2.205781e+000 0.000000e+000
         vertex 8.000092e+000 2.469707e+000 0.000000e+000
      endloop
   endfacet
   facet normal 0.000000e+000 0.000000e+000 -1.000000e+000
      outer loop
         vertex 1.000000e+001 0.000000e+000 0.000000e+000
         vertex 8.000092e+000 2.469707e+000 0.000000e+000
         vertex 8.357256e+000 2.782932e+000 0.000000e+000
      endloop
   endfacet
   facet normal 0.000000e+000 0.000000e+000 -1.000000e+000
      outer loop
         vertex 1.000000e+001 0.000000e+000 0.000000e+000
         vertex 9.144519e+000 3.961154e+000 0.000000e+000
         vertex 9.297220e+000 4.410998e+000 0.000000e+000
      endloop
   endfacet
   facet normal 0.000000e+000 0.000000e+000 -1.000000e+000
      outer loop
         vertex 8.934407e+000 7.166833e+000 0.000000e+000
         vertex 8.670482e+000 7.561827e+000 0.000000e+000
         vertex 1.000000e+001 1.000000e+001 0.000000e+000
      endloop
   endfacet
   facet normal 0.000000e+000 0.000000e+000 -1.000000e+000
      outer loop
         vertex 1.000000e+001 1.000000e+001 0.000000e+000
         vertex 8.670482e+000 7.561827e+000 0.000000e+000
         vertex 8.357256e+000 7.918991e+000 0.000000e+000
      endloop
   endfacet
   facet normal 0.000000e+000 0.000000e+000 -1.000000e+000
      outer loop
         vertex 1.000000e+001 1.000000e+001 0.000000e+000
         vertex 8.357256e+000 7.918991e+000 0.000000e+000
         vertex 8.000092e+000 8.232216e+000 0.000000e+000
      endloop
   endfacet
   facet normal 0.000000e+000 0.000000e+000 -1.000000e+000
      outer loop
         vertex 7.878967e-001 3.961154e+000 0.000000e+000
         vertex 9.980080e-001 3.535091e+000 0.000000e+000
         vertex 0.000000e+000 0.000000e+000 0.000000e+000
      endloop
   endfacet
   facet normal 0.000000e+000 0.000000e+000 -1.000000e+000
      outer loop
         vertex 0.000000e+000 0.000000e+000 0.000000e+000
         vertex 9.980080e-001 3.535091e+000 0.000000e+000
         vertex 1.261934e+000 3.140097e+000 0.000000e+000
      endloop
   endfacet
   facet normal 0.000000e+000 0.000000e+000 -1.000000e+000
      outer loop
         vertex 0.000000e+000 0.000000e+000 0.000000e+000
         vertex 1.261934e+000 3.140097e+000 0.000000e+000
         vertex 1.575160e+000 2.782932e+000 0.000000e+000
      endloop
   endfacet
   facet normal 0.000000e+000 0.000000e+000 -1.000000e+000
      outer loop
         vertex 3.203225e+000 1.842968e+000 0.000000e+000
         vertex 3.669152e+000 1.750290e+000 0.000000e+000
         vertex 0.000000e+000 0.000000e+000 0.000000e+000
      endloop
   endfacet
   facet normal 0.000000e+000 0.000000e+000 -1.000000e+000
      outer loop
         vertex 0.000000e+000 0.000000e+000 0.000000e+000
         vertex 3.669152e+000 1.750290e+000 0.000000e+000
         vertex 4.143189e+000 1.719220e+000 0.000000e+000
      endloop
   endfacet
   facet normal 0.000000e+000 0.000000e+000 -1.000000e+000
      outer loop
         vertex 0.000000e+000 0.000000e+000 0.000000e+000
         vertex 4.143189e+000 1.719220e+000 0.000000e+000
         vertex 1.000000e+001 0.000000e+000 0.000000e+000
      endloop
   endfacet
   facet normal 0.000000e+000 0.000000e+000 -1.000000e+000
      outer loop
         vertex 1.000000e+001 0.000000e+000 0.000000e+000
         vertex 4.143189e+000 1.719220e+000 0.000000e+000
         vertex 5.789227e+000 1.719220e+000 0.000000e+000
      endloop
   endfacet
   facet normal 0.000000e+000 0.000000e+000 -1.000000e+000
      outer loop
         vertex 1.000000e+001 0.000000e+000 0.000000e+000
         vertex 5.789227e+000 1.719220e+000 0.000000e+000
         vertex 6.263264e+000 1.750290e+000 0.000000e+000
      endloop
   endfacet
   facet normal 0.000000e+000 0.000000e+000 -1.000000e+000
      outer loop
         vertex 8.357256e+000 2.782932e+000 0.000000e+000
         vertex 8.670482e+000 3.140097e+000 0.000000e+000
         vertex 1.000000e+001 0.000000e+000 0.000000e+000
      endloop
   endfacet
   facet normal 0.000000e+000 0.000000e+000 -1.000000e+000
      outer loop
         vertex 1.000000e+001 0.000000e+000 0.000000e+000
         vertex 8.670482e+000 3.140097e+000 0.000000e+000
         vertex 8.934407e+000 3.535091e+000 0.000000e+000
      endloop
   endfacet
   facet normal 0.000000e+000 0.000000e+000 -1.000000e+000
      outer loop
         vertex 1.000000e+001 0.000000e+000 0.000000e+000
         vertex 8.934407e+000 3.535091e+000 0.000000e+000
         vertex 9.144519e+000 3.961154e+000 0.000000e+000
      endloop
   endfacet
   facet normal 0.000000e+000 0.000000e+000 -1.000000e+000
      outer loop
         vertex 8.000092e+000 8.232216e+000 0.000000e+000
         vertex 7.605098e+000 8.496143e+000 0.000000e+000
         vertex 1.000000e+001 1.000000e+001 0.000000e+000
      endloop
   endfacet
   facet normal 0.000000e+000 0.000000e+000 -1.000000e+000
      outer loop
         vertex 1.000000e+001 1.000000e+001 0.000000e+000
         vertex 7.605098e+000 8.496143e+000 0.000000e+000
         vertex 7.179034e+000 8.706254e+000 0.000000e+000
      endloop
   endfacet
   facet normal 0.000000e+000 0.000000e+000 -1.000000e+000
      outer loop
         vertex 1.000000e+001 1.000000e+001 0.000000e+000
         vertex 7.179034e+000 8.706254e+000 0.000000e+000
         vertex 6.729191e+000 8.858955e+000 0.000000e+000
      endloop
   endfacet
   facet normal 0.000000e+000 0.000000e+000 -1.000000e+000
      outer loop
         vertex 3.669152e+000 8.951634e+000 0.000000e+000
         vertex 3.203225e+000 8.858955e+000 0.000000e+000
         vertex 0.000000e+000 1.000000e+001 0.000000e+000
      endloop
   endfacet
   facet normal 0.000000e+000 0.000000e+000 -1.000000e+000
      outer loop
         vertex 0.000000e+000 1.000000e+001 0.000000e+000
         vertex 3.203225e+000 8.858955e+000 0.000000e+000
         vertex 2.753381e+000 8.706254e+000 0.000000e+000
      endloop
   endfacet
   facet normal 0.000000e+000 0.000000e+000 -1.000000e+000
      outer loop
         vertex 0.000000e+000 1.000000e+001 0.000000e+000
         vertex 2.753381e+000 8.706254e+000 0.000000e+000
         vertex 2.327318e+000 8.496143e+000 0.000000e+000
      endloop
   endfacet
   facet normal 0.000000e+000 0.000000e+000 -1.000000e+000
      outer loop
         vertex 9.297220e+000 4.410998e+000 0.000000e+000
         vertex 9.389898e+000 4.876924e+000 0.000000e+000
         vertex 1.000000e+001 0.000000e+000 0.000000e+000
      endloop
   endfacet
   facet normal 0.000000e+000 0.000000e+000 -1.000000e+000
      outer loop
         vertex 1.000000e+001 0.000000e+000 0.000000e+000
         vertex 9.389898e+000 4.876924e+000 0.000000e+000
         vertex 9.420969e+000 5.350962e+000 0.000000e+000
      endloop
   endfacet
   facet normal 0.000000e+000 0.000000e+000 -1.000000e+000
      outer loop
         vertex 1.000000e+001 0.000000e+000 0.000000e+000
         vertex 9.420969e+000 5.350962e+000 0.000000e+000
         vertex 1.000000e+001 1.000000e+001 0.000000e+000
      endloop
   endfacet
   facet normal 0.000000e+000 0.000000e+000 -1.000000e+000
      outer loop
         vertex 1.000000e+001 1.000000e+001 0.000000e+000
         vertex 9.420969e+000 5.350962e+000 0.000000e+000
         vertex 9.389898e+000 5.824999e+000 0.000000e+000
      endloop
   endfacet
   facet normal 0.000000e+000 0.000000e+000 -1.000000e+000
      outer loop
         vertex 1.000000e+001 1.000000e+001 0.000000e+000
         vertex 9.389898e+000 5.824999e+000 0.000000e+000
         vertex 9.297220e+000 6.290926e+000 0.000000e+000
      endloop
   endfacet
   facet normal 0.000000e+000 0.000000e+000 -1.000000e+000
      outer loop
         vertex 2.327318e+000 8.496143e+000 0.000000e+000
         vertex 1.932324e+000 8.232216e+000 0.000000e+000
         vertex 0.000000e+000 1.000000e+001 0.000000e+000
      endloop
   endfacet
   facet normal 0.000000e+000 0.000000e+000 -1.000000e+000
      outer loop
         vertex 0.000000e+000 1.000000e+001 0.000000e+000
         vertex 1.932324e+000 8.232216e+000 0.000000e+000
         vertex 1.575160e+000 7.918991e+000 0.000000e+000
      endloop
   endfacet
   facet normal 0.000000e+000 0.000000e+000 -1.000000e+000
      outer loop
         vertex 0.000000e+000 1.000000e+001 0.000000e+000
         vertex 1.575160e+000 7.918991e+000 0.000000e+000
         vertex 1.261934e+000 7.561827e+000 0.000000e+000
      endloop
   endfacet
   facet normal 0.000000e+000 0.000000e+000 -1.000000e+000
      outer loop
         vertex 6.729191e+000 8.858955e+000 0.000000e+000
         vertex 6.263264e+000 8.951634e+000 0.000000e+000
         vertex 1.000000e+001 1.000000e+001 0.000000e+000
      endloop
   endfacet
   facet normal 0.000000e+000 0.000000e+000 -1.000000e+000
      outer loop
         vertex 1.000000e+001 1.000000e+001 0.000000e+000
         vertex 6.263264e+000 8.951634e+000 0.000000e+000
         vertex 5.789227e+000 8.982704e+000 0.000000e+000
      endloop
   endfacet
   facet normal 0.000000e+000 0.000000e+000 -1.000000e+000
      outer loop
         vertex 1.000000e+001 1.000000e+001 0.000000e+000
         vertex 5.789227e+000 8.982704e+000 0.000000e+000
         vertex 0.000000e+000 1.000000e+001 0.000000e+000
      endloop
   endfacet
   facet normal 0.000000e+000 0.000000e+000 -1.000000e+000
      outer loop
         vertex 0.000000e+000 1.000000e+001 0.000000e+000
         vertex 5.789227e+000 8.982704e+000 0.000000e+000
         vertex 4.143189e+000 8.982704e+000 0.000000e+000
      endloop
   endfacet
   facet normal 0.000000e+000 0.000000e+000 -1.000000e+000
      outer loop
         vertex 0.000000e+000 1.000000e+001 0.000000e+000
         vertex 4.143189e+000 8.982704e+000 0.000000e+000
         vertex 3.669152e+000 8.951634e+000 0.000000e+000
      endloop
   endfacet
   facet normal 0.000000e+000 0.000000e+000 -1.000000e+000
      outer loop
         vertex 1.261934e+000 7.561827e+000 0.000000e+000
         vertex 9.980080e-001 7.166833e+000 0.000000e+000
         vertex 0.000000e+000 1.000000e+001 0.000000e+000
      endloop
   endfacet
   facet normal 0.000000e+000 0.000000e+000 -1.000000e+000
      outer loop
         vertex 0.000000e+000 1.000000e+001 0.000000e+000
         vertex 9.980080e-001 7.166833e+000 0.000000e+000
         vertex 7.878967e-001 6.740769e+000 0.000000e+000
      endloop
   endfacet
   facet normal 0.000000e+000 0.000000e+000 -1.000000e+000
      outer loop
         vertex 0.000000e+000 1.000000e+001 0.000000e+000
         vertex 7.878967e-001 6.740769e+000 0.000000e+000
         vertex 6.351954e-001 6.290926e+000 0.000000e+000
      endloop
   endfacet
   facet normal 0.000000e+000 0.000000e+000 -1.000000e+000
      outer loop
         vertex 6.351954e-001 6.290926e+000 0.000000e+000
         vertex 5.425168e-001 5.824999e+000 0.000000e+000
         vertex 0.000000e+000 1.000000e+001 0.000000e+000
      endloop
   endfacet
   facet normal 0.000000e+000 0.000000e+000 -1.000000e+000
      outer loop
         vertex 0.000000e+000 1.000000e+001 0.000000e+000
         vertex 5.425168e-001 5.824999e+000 0.000000e+000
         vertex 5.114468e-001 5.350962e+000 0.000000e+000
      endloop
   endfacet
   facet normal 0.000000e+000 0.000000e+000 -1.000000e+000
      outer loop
         vertex 0.000000e+000 1.000000e+001 0.000000e+000
         vertex 5.114468e-001 5.350962e+000 0.000000e+000
         vertex 0.000000e+000 0.000000e+000 0.000000e+000
      endloop
   endfacet
   facet normal 0.000000e+000 0.000000e+000 -1.000000e+000
      outer loop
         vertex 0.000000e+000 0.000000e+000 0.000000e+000
         vertex 5.114468e-001 5.350962e+000 0.000000e+000
         vertex 5.425168e-001 4.876924e+000 0.000000e+000
      endloop
   endfacet
   facet normal 0.000000e+000 0.000000e+000 -1.000000e+000
      outer loop
         vertex 0.000000e+000 0.000000e+000 0.000000e+000
         vertex 5.425168e-001 4.876924e+000 0.000000e+000
         vertex 6.351954e-001 4.410998e+000 0.000000e+000
      endloop
   endfacet
   facet normal 0.000000e+000 1.000000e+000 0.000000e+000
      outer loop
         vertex 1.000000e+001 1.000000e+001 1.000000e+001
         vertex 1.000000e+001 1.000000e+001 0.000000e+000
         vertex 0.000000e+000 1.000000e+001 1.000000e+001
      endloop
   endfacet
   facet normal 0.000000e+000 1.000000e+000 0.000000e+000
      outer loop
         vertex 0.000000e+000 1.000000e+001 1.000000e+001
         vertex 1.000000e+001 1.000000e+001 0.000000e+000
         vertex 0.000000e+000 1.000000e+001 0.000000e+000
      endloop
   endfacet
   facet normal 0.000000e+000 -1.000000e+000 0.000000e+000
      outer loop
         vertex 1.000000e+001 0.000000e+000 0.000000e+000
         vertex 1.000000e+001 0.000000e+000 1.000000e+001
         vertex 0.000000e+000 0.000000e+000 0.000000e+000
      endloop
   endfacet
   facet normal 0.000000e+000 -1.000000e+000 0.000000e+000
      outer loop
         vertex 0.000000e+000 0.000000e+000 0.000000e+000
         vertex 1.000000e+001 0.000000e+000 1.000000e+001
         vertex 0.000000e+000 0.000000e+000 1.000000e+001
      endloop
   endfacet
   facet normal 4.359168e-002 -9.990495e-001 0.000000e+000
      outer loop
         vertex 4.143189e+000 8.982704e+000 0.000000e+000
         vertex 4.143189e+000 8.982704e+000 1.000000e+001
         vertex 3.669152e+000 8.951634e+000 1.000000e+001
      endloop
   endfacet
   facet normal 8.718336e-002 -9.961922e-001 0.000000e+000
      outer loop
         vertex 4.143189e+000 8.982704e+000 0.000000e+000
         vertex 3.669152e+000 8.951634e+000 1.000000e+001
         vertex 3.669152e+000 8.951634e+000 0.000000e+000
      endloop
   endfacet
   facet normal 1.736209e-001 -9.848126e-001 0.000000e+000
      outer loop
         vertex 3.669152e+000 8.951634e+000 0.000000e+000
         vertex 3.669152e+000 8.951634e+000 1.000000e+001
         vertex 3.203225e+000 8.858955e+000 1.000000e+001
      endloop
   endfacet
   facet normal 2.164667e-001 -9.762900e-001 0.000000e+000
      outer loop
         vertex 3.669152e+000 8.951634e+000 0.000000e+000
         vertex 3.203225e+000 8.858955e+000 1.000000e+001
         vertex 3.203225e+000 8.858955e+000 0.000000e+000
      endloop
   endfacet
   facet normal 3.006794e-001 -9.537253e-001 0.000000e+000
      outer loop
         vertex 3.203225e+000 8.858955e+000 0.000000e+000
         vertex 3.203225e+000 8.858955e+000 1.000000e+001
         vertex 2.753381e+000 8.706254e+000 1.000000e+001
      endloop
   endfacet
   facet normal 3.420462e-001 -9.396831e-001 0.000000e+000
      outer loop
         vertex 3.203225e+000 8.858955e+000 0.000000e+000
         vertex 2.753381e+000 8.706254e+000 1.000000e+001
         vertex 2.753381e+000 8.706254e+000 0.000000e+000
      endloop
   endfacet
   facet normal 4.225931e-001 -9.063195e-001 0.000000e+000
      outer loop
         vertex 2.753381e+000 8.706254e+000 0.000000e+000
         vertex 2.753381e+000 8.706254e+000 1.000000e+001
         vertex 2.327318e+000 8.496143e+000 1.000000e+001
      endloop
   endfacet
   facet normal 4.617732e-001 -8.869980e-001 0.000000e+000
      outer loop
         vertex 2.753381e+000 8.706254e+000 0.000000e+000
         vertex 2.327318e+000 8.496143e+000 1.000000e+001
         vertex 2.327318e+000 8.496143e+000 0.000000e+000
      endloop
   endfacet
   facet normal 5.372763e-001 -8.434063e-001 0.000000e+000
      outer loop
         vertex 2.327318e+000 8.496143e+000 0.000000e+000
         vertex 2.327318e+000 8.496143e+000 1.000000e+001
         vertex 1.932324e+000 8.232216e+000 1.000000e+001
      endloop
   endfacet
   facet normal 5.735992e-001 -8.191361e-001 0.000000e+000
      outer loop
         vertex 2.327318e+000 8.496143e+000 0.000000e+000
         vertex 1.932324e+000 8.232216e+000 1.000000e+001
         vertex 1.932324e+000 8.232216e+000 0.000000e+000
      endloop
   endfacet
   facet normal 6.427664e-001 -7.660623e-001 0.000000e+000
      outer loop
         vertex 1.932324e+000 8.232216e+000 0.000000e+000
         vertex 1.932324e+000 8.232216e+000 1.000000e+001
         vertex 1.575160e+000 7.918991e+000 1.000000e+001
      endloop
   endfacet
   facet normal 6.756107e-001 -7.372586e-001 0.000000e+000
      outer loop
         vertex 1.932324e+000 8.232216e+000 0.000000e+000
         vertex 1.575160e+000 7.918991e+000 1.000000e+001
         vertex 1.575160e+000 7.918991e+000 0.000000e+000
      endloop
   endfacet
   facet normal 7.372586e-001 -6.756107e-001 0.000000e+000
      outer loop
         vertex 1.575160e+000 7.918991e+000 0.000000e+000
         vertex 1.575160e+000 7.918991e+000 1.000000e+001
         vertex 1.261934e+000 7.561827e+000 1.000000e+001
      endloop
   endfacet
   facet normal 7.660623e-001 -6.427664e-001 0.000000e+000
      outer loop
         vertex 1.575160e+000 7.918991e+000 0.000000e+000
         vertex 1.261934e+000 7.561827e+000 1.000000e+001
         vertex 1.261934e+000 7.561827e+000 0.000000e+000
      endloop
   endfacet
   facet normal 8.191361e-001 -5.735992e-001 0.000000e+000
      outer loop
         vertex 1.261934e+000 7.561827e+000 0.000000e+000
         vertex 1.261934e+000 7.561827e+000 1.000000e+001
         vertex 9.980080e-001 7.166833e+000 1.000000e+001
      endloop
   endfacet
   facet normal 8.434064e-001 -5.372762e-001 0.000000e+000
      outer loop
         vertex 1.261934e+000 7.561827e+000 0.000000e+000
         vertex 9.980080e-001 7.166833e+000 1.000000e+001
         vertex 9.980080e-001 7.166833e+000 0.000000e+000
      endloop
   endfacet
   facet normal 8.869980e-001 -4.617732e-001 0.000000e+000
      outer loop
         vertex 9.980080e-001 7.166833e+000 0.000000e+000
         vertex 9.980080e-001 7.166833e+000 1.000000e+001
         vertex 7.878967e-001 6.740769e+000 1.000000e+001
      endloop
   endfacet
   facet normal 9.063195e-001 -4.225931e-001 0.000000e+000
      outer loop
         vertex 9.980080e-001 7.166833e+000 0.000000e+000
         vertex 7.878967e-001 6.740769e+000 1.000000e+001
         vertex 7.878967e-001 6.740769e+000 0.000000e+000
      endloop
   endfacet
   facet normal 9.396831e-001 -3.420462e-001 0.000000e+000
      outer loop
         vertex 7.878967e-001 6.740769e+000 0.000000e+000
         vertex 7.878967e-001 6.740769e+000 1.000000e+001
         vertex 6.351954e-001 6.290926e+000 1.000000e+001
      endloop
   endfacet
   facet normal 9.537253e-001 -3.006794e-001 0.000000e+000
      outer loop
         vertex 7.878967e-001 6.740769e+000 0.000000e+000
         vertex 6.351954e-001 6.290926e+000 1.000000e+001
         vertex 6.351954e-001 6.290926e+000 0.000000e+000
      endloop
   endfacet
   facet normal 9.762900e-001 -2.164667e-001 0.000000e+000
      outer loop
         vertex 6.351954e-001 6.290926e+000 0.000000e+000
         vertex 6.351954e-001 6.290926e+000 1.000000e+001
         vertex 5.425168e-001 5.824999e+000 1.000000e+001
      endloop
   endfacet
   facet normal 9.848126e-001 -1.736209e-001 0.000000e+000
      outer loop
         vertex 6.351954e-001 6.290926e+000 0.000000e+000
         vertex 5.425168e-001 5.824999e+000 1.000000e+001
         vertex 5.425168e-001 5.824999e+000 0.000000e+000
      endloop
   endfacet
   facet normal 9.961922e-001 -8.718336e-002 0.000000e+000
      outer loop
         vertex 5.425168e-001 5.824999e+000 0.000000e+000
         vertex 5.425168e-001 5.824999e+000 1.000000e+001
         vertex 5.114468e-001 5.350962e+000 1.000000e+001
      endloop
   endfacet
   facet normal 9.990495e-001 -4.359168e-002 0.000000e+000
      outer loop
         vertex 5.425168e-001 5.824999e+000 0.000000e+000
         vertex 5.114468e-001 5.350962e+000 1.000000e+001
         vertex 5.114468e-001 5.350962e+000 0.000000e+000
      endloop
   endfacet
   facet normal 9.990495e-001 4.359168e-002 0.000000e+000
      outer loop
         vertex 5.114468e-001 5.350962e+000 0.000000e+000
         vertex 5.114468e-001 5.350962e+000 1.000000e+001
         vertex 5.425168e-001 4.876924e+000 1.000000e+001
      endloop
   endfacet
   facet normal 9.961922e-001 8.718336e-002 0.000000e+000
      outer loop
         vertex 5.114468e-001 5.350962e+000 0.000000e+000
         vertex 5.425168e-001 4.876924e+000 1.000000e+001
         vertex 5.425168e-001 4.876924e+000 0.000000e+000
      endloop
   endfacet
   facet normal 9.848126e-001 1.736209e-001 0.000000e+000
      outer loop
         vertex 5.425168e-001 4.876924e+000 0.000000e+000
         vertex 5.425168e-001 4.876924e+000 1.000000e+001
         vertex 6.351954e-001 4.410998e+000 1.000000e+001
      endloop
   endfacet
   facet normal 9.762900e-001 2.164667e-001 0.000000e+000
      outer loop
         vertex 5.425168e-001 4.876924e+000 0.000000e+000
         vertex 6.351954e-001 4.410998e+000 1.000000e+001
         vertex 6.351954e-001 4.410998e+000 0.000000e+000
      endloop
   endfacet
   facet normal 9.537253e-001 3.006794e-001 0.000000e+000
      outer loop
         vertex 6.351954e-001 4.410998e+000 0.000000e+000
         vertex 6.351954e-001 4.410998e+000 1.000000e+001
         vertex 7.878967e-001 3.961154e+000 1.000000e+001
      endloop
   endfacet
   facet normal 9.396831e-001 3.420462e-001 0.000000e+000
      outer loop
         vertex 6.351954e-001 4.410998e+000 0.000000e+000
         vertex 7.878967e-001 3.961154e+000 1.000000e+001
         vertex 7.878967e-001 3.961154e+000 0.000000e+000
      endloop
   endfacet
   facet normal 9.063195e-001 4.225931e-001 0.000000e+000
      outer loop
         vertex 7.878967e-001 3.961154e+000 0.000000e+000
         vertex 7.878967e-001 3.961154e+000 1.000000e+001
         vertex 9.980080e-001 3.535091e+000 1.000000e+001
      endloop
   endfacet
   facet normal 8.869980e-001 4.617732e-001 0.000000e+000
      outer loop
         vertex 7.878967e-001 3.961154e+000 0.000000e+000
         vertex 9.980080e-001 3.535091e+000 1.000000e+001
         vertex 9.980080e-001 3.535091e+000 0.000000e+000
      endloop
   endfacet
   facet normal 8.434063e-001 5.372763e-001 0.000000e+000
      outer loop
         vertex 9.980080e-001 3.535091e+000 0.000000e+000
         vertex 9.980080e-001 3.535091e+000 1.000000e+001
         vertex 1.261934e+000 3.140097e+000 1.000000e+001
      endloop
   endfacet
   facet normal 8.191361e-001 5.735992e-001 0.000000e+000
      outer loop
         vertex 9.980080e-001 3.535091e+000 0.000000e+000
         vertex 1.261934e+000 3.140097e+000 1.000000e+001
         vertex 1.261934e+000 3.140097e+000 0.000000e+000
      endloop
   endfacet
   facet normal 7.660623e-001 6.427664e-001 0.000000e+000
      outer loop
         vertex 1.261934e+000 3.140097e+000 0.000000e+000
         vertex 1.261934e+000 3.140097e+000 1.000000e+001
         vertex 1.575160e+000 2.782932e+000 1.000000e+001
      endloop
   endfacet
   facet normal 7.372586e-001 6.756107e-001 0.000000e+000
      outer loop
         vertex 1.261934e+000 3.140097e+000 0.000000e+000
         vertex 1.575160e+000 2.782932e+000 1.000000e+001
         vertex 1.575160e+000 2.782932e+000 0.000000e+000
      endloop
   endfacet
   facet normal 6.756107e-001 7.372586e-001 0.000000e+000
      outer loop
         vertex 1.575160e+000 2.782932e+000 0.000000e+000
         vertex 1.575160e+000 2.782932e+000 1.000000e+001
         vertex 1.932324e+000 2.469707e+000 1.000000e+001
      endloop
   endfacet
   facet normal 6.427664e-001 7.660623e-001 0.000000e+000
      outer loop
         vertex 1.575160e+000 2.782932e+000 0.000000e+000
         vertex 1.932324e+000 2.469707e+000 1.000000e+001
         vertex 1.932324e+000 2.469707e+000 0.000000e+000
      endloop
   endfacet
   facet normal 5.735992e-001 8.191361e-001 0.000000e+000
      outer loop
         vertex 1.932324e+000 2.469707e+000 0.000000e+000
         vertex 1.932324e+000 2.469707e+000 1.000000e+001
         vertex 2.327318e+000 2.205781e+000 1.000000e+001
      endloop
   endfacet
   facet normal 5.372762e-001 8.434064e-001 0.000000e+000
      outer loop
         vertex 1.932324e+000 2.469707e+000 0.000000e+000
         vertex 2.327318e+000 2.205781e+000 1.000000e+001
         vertex 2.327318e+000 2.205781e+000 0.000000e+000
      endloop
   endfacet
   facet normal 4.617732e-001 8.869980e-001 0.000000e+000
      outer loop
         vertex 2.327318e+000 2.205781e+000 0.000000e+000
         vertex 2.327318e+000 2.205781e+000 1.000000e+001
         vertex 2.753381e+000 1.995669e+000 1.000000e+001
      endloop
   endfacet
   facet normal 4.225931e-001 9.063195e-001 0.000000e+000
      outer loop
         vertex 2.327318e+000 2.205781e+000 0.000000e+000
         vertex 2.753381e+000 1.995669e+000 1.000000e+001
         vertex 2.753381e+000 1.995669e+000 0.000000e+000
      endloop
   endfacet
   facet normal 3.420462e-001 9.396831e-001 0.000000e+000
      outer loop
         vertex 2.753381e+000 1.995669e+000 0.000000e+000
         vertex 2.753381e+000 1.995669e+000 1.000000e+001
         vertex 3.203225e+000 1.842968e+000 1.000000e+001
      endloop
   endfacet
   facet normal 3.006794e-001 9.537253e-001 0.000000e+000
      outer loop
         vertex 2.753381e+000 1.995669e+000 0.000000e+000
         vertex 3.203225e+000 1.842968e+000 1.000000e+001
         vertex 3.203225e+000 1.842968e+000 0.000000e+000
      endloop
   endfacet
   facet normal 2.164667e-001 9.762900e-001 0.000000e+000
      outer loop
         vertex 3.203225e+000 1.842968e+000 0.000000e+000
         vertex 3.203225e+000 1.842968e+000 1.000000e+001
         vertex 3.669152e+000 1.750290e+000 1.000000e+001
      endloop
   endfacet
   facet normal 1.736209e-001 9.848126e-001 0.000000e+000
      outer loop
         vertex 3.203225e+000 1.842968e+000 0.000000e+000
         vertex 3.669152e+000 1.750290e+000 1.000000e+001
         vertex 3.669152e+000 1.750290e+000 0.000000e+000
      endloop
   endfacet
   facet normal 8.718336e-002 9.961922e-001 0.000000e+000
      outer loop
         vertex 3.669152e+000 1.750290e+000 0.000000e+000
         vertex 3.669152e+000 1.750290e+000 1.000000e+001
         vertex 4.143189e+000 1.719220e+000 1.000000e+001
      endloop
   endfacet
   facet normal 4.359168e-002 9.990495e-001 0.000000e+000
      outer loop
         vertex 3.669152e+000 1.750290e+000 0.000000e+000
         vertex 4.143189e+000 1.719220e+000 1.000000e+001
         vertex 4.143189e+000 1.719220e+000 0.000000e+000
      endloop
   endfacet
   facet normal 0.000000e+000 -1.000000e+000 0.000000e+000
      outer loop
         vertex 4.143189e+000 8.982704e+000 0.000000e+000
         vertex 5.789227e+000 8.982704e+000 0.000000e+000
         vertex 4.143189e+000 8.982704e+000 1.000000e+001
      endloop
   endfacet
   facet normal 0.000000e+000 -1.000000e+000 0.000000e+000
      outer loop
         vertex 4.143189e+000 8.982704e+000 1.000000e+001
         vertex 5.789227e+000 8.982704e+000 0.000000e+000
         vertex 5.789227e+000 8.982704e+000 1.000000e+001
      endloop
   endfacet
   facet normal -4.359168e-002 9.990495e-001 0.000000e+000
      outer loop
         vertex 5.789227e+000 1.719220e+000 0.000000e+000
         vertex 5.789227e+000 1.719220e+000 1.000000e+001
         vertex 6.263264e+000 1.750290e+000 1.000000e+001
      endloop
   endfacet
   facet normal -8.718336e-002 9.961922e-001 0.000000e+000
      outer loop
         vertex 5.789227e+000 1.719220e+000 0.000000e+000
         vertex 6.263264e+000 1.750290e+000 1.000000e+001
         vertex 6.263264e+000 1.750290e+000 0.000000e+000
      endloop
   endfacet
   facet normal -1.736209e-001 9.848126e-001 0.000000e+000
      outer loop
         vertex 6.263264e+000 1.750290e+000 0.000000e+000
         vertex 6.263264e+000 1.750290e+000 1.000000e+001
         vertex 6.729191e+000 1.842968e+000 1.000000e+001
      endloop
   endfacet
   facet normal -2.164667e-001 9.762900e-001 0.000000e+000
      outer loop
         vertex 6.263264e+000 1.750290e+000 0.000000e+000
         vertex 6.729191e+000 1.842968e+000 1.000000e+001
         vertex 6.729191e+000 1.842968e+000 0.000000e+000
      endloop
   endfacet
   facet normal -3.006794e-001 9.537253e-001 0.000000e+000
      outer loop
         vertex 6.729191e+000 1.842968e+000 0.000000e+000
         vertex 6.729191e+000 1.842968e+000 1.000000e+001
         vertex 7.179034e+000 1.995669e+000 1.000000e+001
      endloop
   endfacet
   facet normal -3.420462e-001 9.396831e-001 0.000000e+000
      outer loop
         vertex 6.729191e+000 1.842968e+000 0.000000e+000
         vertex 7.179034e+000 1.995669e+000 1.000000e+001
         vertex 7.179034e+000 1.995669e+000 0.000000e+000
      endloop
   endfacet
   facet normal -4.225931e-001 9.063195e-001 0.000000e+000
      outer loop
         vertex 7.179034e+000 1.995669e+000 0.000000e+000
         vertex 7.179034e+000 1.995669e+000 1.000000e+001
         vertex 7.605098e+000 2.205781e+000 1.000000e+001
      endloop
   endfacet
   facet normal -4.617732e-001 8.869980e-001 0.000000e+000
      outer loop
         vertex 7.179034e+000 1.995669e+000 0.000000e+000
         vertex 7.605098e+000 2.205781e+000 1.000000e+001
         vertex 7.605098e+000 2.205781e+000 0.000000e+000
      endloop
   endfacet
   facet normal -5.372763e-001 8.434063e-001 0.000000e+000
      outer loop
         vertex 7.605098e+000 2.205781e+000 0.000000e+000
         vertex 7.605098e+000 2.205781e+000 1.000000e+001
         vertex 8.000092e+000 2.469707e+000 1.000000e+001
      endloop
   endfacet
   facet normal -5.735992e-001 8.191361e-001 0.000000e+000
      outer loop
         vertex 7.605098e+000 2.205781e+000 0.000000e+000
         vertex 8.000092e+000 2.469707e+000 1.000000e+001
         vertex 8.000092e+000 2.469707e+000 0.000000e+000
      endloop
   endfacet
   facet normal -6.427664e-001 7.660623e-001 0.000000e+000
      outer loop
         vertex 8.000092e+000 2.469707e+000 0.000000e+000
         vertex 8.000092e+000 2.469707e+000 1.000000e+001
         vertex 8.357256e+000 2.782932e+000 1.000000e+001
      endloop
   endfacet
   facet normal -6.756107e-001 7.372586e-001 0.000000e+000
      outer loop
         vertex 8.000092e+000 2.469707e+000 0.000000e+000
         vertex 8.357256e+000 2.782932e+000 1.000000e+001
         vertex 8.357256e+000 2.782932e+000 0.000000e+000
      endloop
   endfacet
   facet normal -7.372586e-001 6.756107e-001 0.000000e+000
      outer loop
         vertex 8.357256e+000 2.782932e+000 0.000000e+000
         vertex 8.357256e+000 2.782932e+000 1.000000e+001
         vertex 8.670482e+000 3.140097e+000 1.000000e+001
      endloop
   endfacet
   facet normal -7.660623e-001 6.427664e-001 0.000000e+000
      outer loop
         vertex 8.357256e+000 2.782932e+000 0.000000e+000
         vertex 8.670482e+000 3.140097e+000 1.000000e+001
         vertex 8.670482e+000 3.140097e+000 0.000000e+000
      endloop
   endfacet
   facet normal -8.191361e-001 5.735992e-001 0.000000e+000
      outer loop
         vertex 8.670482e+000 3.140097e+000 0.000000e+000
         vertex 8.670482e+000 3.140097e+000 1.000000e+001
         vertex 8.934407e+000 3.535091e+000 1.000000e+001
      endloop
   endfacet
   facet normal -8.434064e-001 5.372762e-001 0.000000e+000
      outer loop
         vertex 8.670482e+000 3.140097e+000 0.000000e+000
         vertex 8.934407e+000 3.535091e+000 1.000000e+001
         vertex 8.934407e+000 3.535091e+000 0.000000e+000
      endloop
   endfacet
   facet normal -8.869980e-001 4.617732e-001 0.000000e+000
      outer loop
         vertex 8.934407e+000 3.535091e+000 0.000000e+000
         vertex 8.934407e+000 3.535091e+000 1.000000e+001
         vertex 9.144519e+000 3.961154e+000 1.000000e+001
      endloop
   endfacet
   facet normal -9.063195e-001 4.225931e-001 0.000000e+000
      outer loop
         vertex 8.934407e+000 3.535091e+000 0.000000e+000
         vertex 9.144519e+000 3.961154e+000 1.000000e+001
         vertex 9.144519e+000 3.961154e+000 0.000000e+000
      endloop
   endfacet
   facet normal -9.396831e-001 3.420462e-001 0.000000e+000
      outer loop
         vertex 9.144519e+000 3.961154e+000 0.000000e+000
         vertex 9.144519e+000 3.961154e+000 1.000000e+001
         vertex 9.297220e+000 4.410998e+000 1.000000e+001
      endloop
   endfacet
   facet normal -9.537253e-001 3.006794e-001 0.000000e+000
      outer loop
         vertex 9.144519e+000 3.961154e+000 0.000000e+000
         vertex 9.297220e+000 4.410998e+000 1.000000e+001
         vertex 9.297220e+000 4.410998e+000 0.000000e+000
      endloop
   endfacet
   facet normal -9.762900e-001 2.164667e-001 0.000000e+000
      outer loop
         vertex 9.297220e+000 4.410998e+000 0.000000e+000
         vertex 9.297220e+000 4.410998e+000 1.000000e+001
         vertex 9.389898e+000 4.876924e+000 1.000000e+001
      endloop
   endfacet
   facet normal -9.848126e-001 1.736209e-001 0.000000e+000
      outer loop
         vertex 9.297220e+000 4.410998e+000 0.000000e+000
         vertex 9.389898e+000 4.876924e+000 1.000000e+001
         vertex 9.389898e+000 4.876924e+000 0.000000e+000
      endloop
   endfacet
   facet normal -9.961922e-001 8.718336e-002 0.000000e+000
      outer loop
         vertex 9.389898e+000 4.876924e+000 0.000000e+000
         vertex 9.389898e+000 4.876924e+000 1.000000e+001
         vertex 9.420969e+000 5.350962e+000 1.000000e+001
      endloop
   endfacet
   facet normal -9.990495e-001 4.359168e-002 0.000000e+000
      outer loop
         vertex 9.389898e+000 4.876924e+000 0.000000e+000
         vertex 9.420969e+000 5.350962e+000 1.000000e+001
         vertex 9.420969e+000 5.350962e+000 0.000000e+000
      endloop
   endfacet
   facet normal -9.990495e-001 -4.359168e-002 0.000000e+000
      outer loop
         vertex 9.420969e+000 5.350962e+000 0.000000e+000
         vertex 9.420969e+000 5.350962e+000 1.000000e+001
         vertex 9.389898e+000 5.824999e+000 1.000000e+001
      endloop
   endfacet
   facet normal -9.961922e-001 -8.718336e-002 0.000000e+000
      outer loop
         vertex 9.420969e+000 5.350962e+000 0.000000e+000
         vertex 9.389898e+000 5.824999e+000 1.000000e+001
         vertex 9.389898e+000 5.824999e+000 0.000000e+000
      endloop
   endfacet
   facet normal -9.848126e-001 -1.736209e-001 0.000000e+000
      outer loop
         vertex 9.389898e+000 5.824999e+000 0.000000e+000
         vertex 9.389898e+000 5.824999e+000 1.000000e+001
         vertex 9.297220e+000 6.290926e+000 1.000000e+001
      endloop
   endfacet
   facet normal -9.762900e-001 -2.164667e-001 0.000000e+000
      outer loop
         vertex 9.389898e+000 5.824999e+000 0.000000e+000
         vertex 9.297220e+000 6.290926e+000 1.000000e+001
         vertex 9.297220e+000 6.290926e+000 0.000000e+000
      endloop
   endfacet
   facet normal -9.537253e-001 -3.006794e-001 0.000000e+000
      outer loop
         vertex 9.297220e+000 6.290926e+000 0.000000e+000
         vertex 9.297220e+000 6.290926e+000 1.000000e+001
         vertex 9.144519e+000 6.740769e+000 1.000000e+001
      endloop
   endfacet
   facet normal -9.396831e-001 -3.420462e-001 0.000000e+000
      outer loop
         vertex 9.297220e+000 6.290926e+000 0.000000e+000
         vertex 9.144519e+000 6.740769e+000 1.000000e+001
         vertex 9.144519e+000 6.740769e+000 0.000000e+000
      endloop
   endfacet
   facet normal -9.063195e-001 -4.225931e-001 0.000000e+000
      outer loop
         vertex 9.144519e+000 6.740769e+000 0.000000e+000
         vertex 9.144519e+000 6.740769e+000 1.000000e+001
         vertex 8.934407e+000 7.166833e+000 1.000000e+001
      endloop
   endfacet
   facet normal -8.869980e-001 -4.617732e-001 0.000000e+000
      outer loop
         vertex 9.144519e+000 6.740769e+000 0.000000e+000
         vertex 8.934407e+000 7.166833e+000 1.000000e+001
         vertex 8.934407e+000 7.166833e+000 0.000000e+000
      endloop
   endfacet
   facet normal -8.434063e-001 -5.372763e-001 0.000000e+000
      outer loop
         vertex 8.934407e+000 7.166833e+000 0.000000e+000
         vertex 8.934407e+000 7.166833e+000 1.000000e+001
         vertex 8.670482e+000 7.561827e+000 1.000000e+001
      endloop
   endfacet
   facet normal -8.191361e-001 -5.735992e-001 0.000000e+000
      outer loop
         vertex 8.934407e+000 7.166833e+000 0.000000e+000
         vertex 8.670482e+000 7.561827e+000 1.000000e+001
         vertex 8.670482e+000 7.561827e+000 0.000000e+000
      endloop
   endfacet
   facet normal -7.660623e-001 -6.427664e-001 0.000000e+000
      outer loop
         vertex 8.670482e+000 7.561827e+000 0.000000e+000
         vertex 8.670482e+000 7.561827e+000 1.000000e+001
         vertex 8.357256e+000 7.918991e+000 1.000000e+001
      endloop
   endfacet
   facet normal -7.372586e-001 -6.756107e-001 0.000000e+000
      outer loop
         vertex 8.670482e+000 7.561827e+000 0.000000e+000
         vertex 8.357256e+000 7.918991e+000 1.000000e+001
         vertex 8.357256e+000 7.918991e+000 0.000000e+000
      endloop
   endfacet
   facet normal -6.756107e-001 -7.372586e-001 0.000000e+000
      outer loop
         vertex 8.357256e+000 7.918991e+000 0.000000e+000
         vertex 8.357256e+000 7.918991e+000 1.000000e+001
         vertex 8.000092e+000 8.232216e+000 1.000000e+001
      endloop
   endfacet
   facet normal -6.427664e-001 -7.660623e-001 0.000000e+000
      outer loop
         vertex 8.357256e+000 7.918991e+000 0.000000e+000
         vertex 8.000092e+000 8.232216e+000 1.000000e+001
         vertex 8.000092e+000 8.232216e+000 0.000000e+000
      endloop
   endfacet
   facet normal -5.735992e-001 -8.191361e-001 0.000000e+000
      outer loop
         vertex 8.000092e+000 8.232216e+000 0.000000e+000
         vertex 8.000092e+000 8.232216e+000 1.000000e+001
         vertex 7.605098e+000 8.496143e+000 1.000000e+001
      endloop
   endfacet
   facet normal -5.372762e-001 -8.434064e-001 0.000000e+000
      outer loop
         vertex 8.000092e+000 8.232216e+000 0.000000e+000
         vertex 7.605098e+000 8.496143e+000 1.000000e+001
         vertex 7.605098e+000 8.496143e+000 0.000000e+000
      endloop
   endfacet
   facet normal -4.617732e-001 -8.869980e-001 0.000000e+000
      outer loop
         vertex 7.605098e+000 8.496143e+000 0.000000e+000
         vertex 7.605098e+000 8.496143e+000 1.000000e+001
         vertex 7.179034e+000 8.706254e+000 1.000000e+001
      endloop
   endfacet
   facet normal -4.225931e-001 -9.063195e-001 0.000000e+000
      outer loop
         vertex 7.605098e+000 8.496143e+000 0.000000e+000
         vertex 7.179034e+000 8.706254e+000 1.000000e+001
         vertex 7.179034e+000 8.706254e+000 0.000000e+000
      endloop
   endfacet
   facet normal -3.420462e-001 -9.396831e-001 0.000000e+000
      outer loop
         vertex 7.179034e+000 8.706254e+000 0.000000e+000
         vertex 7.179034e+000 8.706254e+000 1.000000e+001
         vertex 6.729191e+000 8.858955e+000 1.000000e+001
      endloop
   endfacet
   facet normal -3.006794e-001 -9.537253e-001 0.000000e+000
      outer loop
         vertex 7.179034e+000 8.706254e+000 0.000000e+000
         vertex 6.729191e+000 8.858955e+000 1.000000e+001
         vertex 6.729191e+000 8.858955e+000 0.000000e+000
      endloop
   endfacet
   facet normal -2.164667e-001 -9.762900e-001 0.000000e+000
      outer loop
         vertex 6.729191e+000 8.858955e+000 0.000000e+000
         vertex 6.729191e+000 8.858955e+000 1.000000e+001
         vertex 6.263264e+000 8.951634e+000 1.000000e+001
      endloop
   endfacet
   facet normal -1.736209e-001 -9.848126e-001 0.000000e+000
      outer loop
         vertex 6.729191e+000 8.858955e+000 0.000000e+000
         vertex 6.263264e+000 8.951634e+000 1.000000e+001
         vertex 6.263264e+000 8.951634e+000 0.000000e+000
      endloop
   endfacet
   facet normal -8.718336e-002 -9.961922e-001 0.000000e+000
      outer loop
         vertex 6.263264e+000 8.951634e+000 0.000000e+000
         vertex 6.263264e+000 8.951634e+000 1.000000e+001
         vertex 5.789227e+000 8.982704e+000 1.000000e+001
      endloop
   endfacet
   facet normal -4.359168e-002 -9.990495e-001 0.000000e+000
      outer loop
         vertex 6.263264e+000 8.951634e+000 0.000000e+000
         vertex 5.789227e+000 8.982704e+000 1.000000e+001
         vertex 5.789227e+000 8.982704e+000 0.000000e+000
      endloop
   endfacet
   facet normal 0.000000e+000 1.000000e+000 0.000000e+000
      outer loop
         vertex 5.789227e+000 1.719220e+000 0.000000e+000
         vertex 4.143189e+000 1.719220e+000 0.000000e+000
         vertex 5.789227e+000 1.719220e+000 1.000000e+001
      endloop
   endfacet
   facet normal 0.000000e+000 1.000000e+000 0.000000e+000
      outer loop
         vertex 5.789227e+000 1.719220e+000 1.000000e+001
         vertex 4.143189e+000 1.719220e+000 0.000000e+000
         vertex 4.143189e+000 1.719220e+000 1.000000e+001
      endloop
   endfacet
endsolid