solid 11_621
   facet normal -1.000000e+000 0.000000e+000 0.000000e+000
      outer loop
         vertex 0.000000e+000 1.000000e+001 1.000000e+001
         vertex 0.000000e+000 1.000000e+001 0.000000e+000
         vertex 0.000000e+000 0.000000e+000 1.000000e+001
      endloop
   endfacet
   facet normal -1.000000e+000 0.000000e+000 0.000000e+000
      outer loop
         vertex 0.000000e+000 0.000000e+000 1.000000e+001
         vertex 0.000000e+000 1.000000e+001 0.000000e+000
         vertex 0.000000e+000 0.000000e+000 0.000000e+000
      endloop
   endfacet
   facet normal 0.000000e+000 0.000000e+000 1.000000e+000
      outer loop
         vertex 9.270338e+000 4.900895e+000 1.000000e+001
         vertex 1.000000e+001 0.000000e+000 1.000000e+001
         vertex 1.000000e+001 1.000000e+001 1.000000e+001
      endloop
   endfacet
   facet normal 0.000000e+000 0.000000e+000 1.000000e+000
      outer loop
         vertex 9.270338e+000 4.900895e+000 1.000000e+001
         vertex 9.239959e+000 4.476130e+000 1.000000e+001
         vertex 1.000000e+001 0.000000e+000 1.000000e+001
      endloop
   endfacet
   facet normal 0.000000e+000 0.000000e+000 1.000000e+000
      outer loop
         vertex 1.000000e+001 0.000000e+000 1.000000e+001
         vertex 9.239959e+000 4.476130e+000 1.000000e+001
         vertex 9.149438e+000 4.060012e+000 1.000000e+001
      endloop
   endfacet
   facet normal 0.000000e+000 0.000000e+000 1.000000e+000
      outer loop
         vertex 1.000000e+001 0.000000e+000 1.000000e+001
         vertex 9.149438e+000 4.060012e+000 1.000000e+001
         vertex 9.000618e+000 3.661012e+000 1.000000e+001
      endloop
   endfacet
   facet normal 0.000000e+000 0.000000e+000 1.000000e+000
      outer loop
         vertex 9.000618e+000 3.661012e+000 1.000000e+001
         vertex 8.796530e+000 3.287252e+000 1.000000e+001
         vertex 1.000000e+001 0.000000e+000 1.000000e+001
      endloop
   endfacet
   facet normal 0.000000e+000 0.000000e+000 1.000000e+000
      outer loop
         vertex 1.000000e+001 0.000000e+000 1.000000e+001
         vertex 8.796530e+000 3.287252e+000 1.000000e+001
         vertex 8.541327e+000 2.946342e+000 1.000000e+001
      endloop
   endfacet
   facet normal 0.000000e+000 0.000000e+000 1.000000e+000
      outer loop
         vertex 1.000000e+001 0.000000e+000 1.000000e+001
         vertex 8.541327e+000 2.946342e+000 1.000000e+001
         vertex 8.240206e+000 2.645221e+000 1.000000e+001
      endloop
   endfacet
   facet normal 0.000000e+000 0.000000e+000 1.000000e+000
      outer loop
         vertex 3.303808e+000 1.946590e+000 1.000000e+001
         vertex 2.887690e+000 2.037111e+000 1.000000e+001
         vertex 0.000000e+000 0.000000e+000 1.000000e+001
      endloop
   endfacet
   facet normal 0.000000e+000 0.000000e+000 1.000000e+000
      outer loop
         vertex 9.000618e+000 6.140778e+000 1.000000e+001
         vertex 9.149438e+000 5.741778e+000 1.000000e+001
         vertex 1.000000e+001 1.000000e+001 1.000000e+001
      endloop
   endfacet
   facet normal 0.000000e+000 0.000000e+000 1.000000e+000
      outer loop
         vertex 1.000000e+001 1.000000e+001 1.000000e+001
         vertex 9.149438e+000 5.741778e+000 1.000000e+001
         vertex 9.239959e+000 5.325660e+000 1.000000e+001
      endloop
   endfacet
   facet normal 0.000000e+000 0.000000e+000 1.000000e+000
      outer loop
         vertex 1.000000e+001 1.000000e+001 1.000000e+001
         vertex 9.239959e+000 5.325660e+000 1.000000e+001
         vertex 9.270338e+000 4.900895e+000 1.000000e+001
      endloop
   endfacet
   facet normal 0.000000e+000 0.000000e+000 1.000000e+000
      outer loop
         vertex 0.000000e+000 0.000000e+000 1.000000e+001
         vertex 1.774020e+000 2.645221e+000 1.000000e+001
         vertex 1.472899e+000 2.946342e+000 1.000000e+001
      endloop
   endfacet
   facet normal 0.000000e+000 0.000000e+000 1.000000e+000
      outer loop
         vertex 2.887690e+000 2.037111e+000 1.000000e+001
         vertex 2.488690e+000 2.185930e+000 1.000000e+001
         vertex 0.000000e+000 0.000000e+000 1.000000e+001
      endloop
   endfacet
   facet normal 0.000000e+000 0.000000e+000 1.000000e+000
      outer loop
         vertex 0.000000e+000 0.000000e+000 1.000000e+001
         vertex 2.488690e+000 2.185930e+000 1.000000e+001
         vertex 2.114931e+000 2.390018e+000 1.000000e+001
      endloop
   endfacet
   facet normal 0.000000e+000 0.000000e+000 1.000000e+000
      outer loop
         vertex 0.000000e+000 0.000000e+000 1.000000e+001
         vertex 2.114931e+000 2.390018e+000 1.000000e+001
         vertex 1.774020e+000 2.645221e+000 1.000000e+001
      endloop
   endfacet
   facet normal 0.000000e+000 0.000000e+000 1.000000e+000
      outer loop
         vertex 8.647888e-001 5.741778e+000 1.000000e+001
         vertex 1.013608e+000 6.140778e+000 1.000000e+001
         vertex 0.000000e+000 1.000000e+001 1.000000e+001
      endloop
   endfacet
   facet normal 0.000000e+000 0.000000e+000 1.000000e+000
      outer loop
         vertex 8.240206e+000 2.645221e+000 1.000000e+001
         vertex 7.899295e+000 2.390018e+000 1.000000e+001
         vertex 1.000000e+001 0.000000e+000 1.000000e+001
      endloop
   endfacet
   facet normal 0.000000e+000 0.000000e+000 1.000000e+000
      outer loop
         vertex 1.000000e+001 0.000000e+000 1.000000e+001
         vertex 7.899295e+000 2.390018e+000 1.000000e+001
         vertex 7.525536e+000 2.185930e+000 1.000000e+001
      endloop
   endfacet
   facet normal 0.000000e+000 0.000000e+000 1.000000e+000
      outer loop
         vertex 1.000000e+001 0.000000e+000 1.000000e+001
         vertex 7.525536e+000 2.185930e+000 1.000000e+001
         vertex 7.126536e+000 2.037111e+000 1.000000e+001
      endloop
   endfacet
   facet normal 0.000000e+000 0.000000e+000 1.000000e+000
      outer loop
         vertex 6.710419e+000 7.855200e+000 1.000000e+001
         vertex 7.126536e+000 7.764679e+000 1.000000e+001
         vertex 1.000000e+001 1.000000e+001 1.000000e+001
      endloop
   endfacet
   facet normal 0.000000e+000 0.000000e+000 1.000000e+000
      outer loop
         vertex 8.240206e+000 7.156569e+000 1.000000e+001
         vertex 8.541327e+000 6.855448e+000 1.000000e+001
         vertex 1.000000e+001 1.000000e+001 1.000000e+001
      endloop
   endfacet
   facet normal 0.000000e+000 0.000000e+000 1.000000e+000
      outer loop
         vertex 1.000000e+001 1.000000e+001 1.000000e+001
         vertex 8.541327e+000 6.855448e+000 1.000000e+001
         vertex 8.796530e+000 6.514537e+000 1.000000e+001
      endloop
   endfacet
   facet normal 0.000000e+000 0.000000e+000 1.000000e+000
      outer loop
         vertex 1.000000e+001 1.000000e+001 1.000000e+001
         vertex 8.796530e+000 6.514537e+000 1.000000e+001
         vertex 9.000618e+000 6.140778e+000 1.000000e+001
      endloop
   endfacet
   facet normal 0.000000e+000 0.000000e+000 1.000000e+000
      outer loop
         vertex 1.472899e+000 2.946342e+000 1.000000e+001
         vertex 1.217696e+000 3.287252e+000 1.000000e+001
         vertex 0.000000e+000 0.000000e+000 1.000000e+001
      endloop
   endfacet
   facet normal 0.000000e+000 0.000000e+000 1.000000e+000
      outer loop
         vertex 0.000000e+000 0.000000e+000 1.000000e+001
         vertex 1.217696e+000 3.287252e+000 1.000000e+001
         vertex 1.013608e+000 3.661012e+000 1.000000e+001
      endloop
   endfacet
   facet normal 0.000000e+000 0.000000e+000 1.000000e+000
      outer loop
         vertex 0.000000e+000 0.000000e+000 1.000000e+001
         vertex 1.013608e+000 3.661012e+000 1.000000e+001
         vertex 8.647888e-001 4.060012e+000 1.000000e+001
      endloop
   endfacet
   facet normal 0.000000e+000 0.000000e+000 1.000000e+000
      outer loop
         vertex 1.013608e+000 6.140778e+000 1.000000e+001
         vertex 1.217696e+000 6.514537e+000 1.000000e+001
         vertex 0.000000e+000 1.000000e+001 1.000000e+001
      endloop
   endfacet
   facet normal 0.000000e+000 0.000000e+000 1.000000e+000
      outer loop
         vertex 0.000000e+000 1.000000e+001 1.000000e+001
         vertex 1.217696e+000 6.514537e+000 1.000000e+001
         vertex 1.472899e+000 6.855448e+000 1.000000e+001
      endloop
   endfacet
   facet normal 0.000000e+000 0.000000e+000 1.000000e+000
      outer loop
         vertex 0.000000e+000 1.000000e+001 1.000000e+001
         vertex 1.472899e+000 6.855448e+000 1.000000e+001
         vertex 1.774020e+000 7.156569e+000 1.000000e+001
      endloop
   endfacet
   facet normal 0.000000e+000 0.000000e+000 1.000000e+000
      outer loop
         vertex 7.126536e+000 7.764679e+000 1.000000e+001
         vertex 7.525536e+000 7.615860e+000 1.000000e+001
         vertex 1.000000e+001 1.000000e+001 1.000000e+001
      endloop
   endfacet
   facet normal 0.000000e+000 0.000000e+000 1.000000e+000
      outer loop
         vertex 1.000000e+001 1.000000e+001 1.000000e+001
         vertex 7.525536e+000 7.615860e+000 1.000000e+001
         vertex 7.899295e+000 7.411771e+000 1.000000e+001
      endloop
   endfacet
   facet normal 0.000000e+000 0.000000e+000 1.000000e+000
      outer loop
         vertex 1.000000e+001 1.000000e+001 1.000000e+001
         vertex 7.899295e+000 7.411771e+000 1.000000e+001
         vertex 8.240206e+000 7.156569e+000 1.000000e+001
      endloop
   endfacet
   facet normal 0.000000e+000 0.000000e+000 1.000000e+000
      outer loop
         vertex 1.774020e+000 7.156569e+000 1.000000e+001
         vertex 2.114931e+000 7.411771e+000 1.000000e+001
         vertex 0.000000e+000 1.000000e+001 1.000000e+001
      endloop
   endfacet
   facet normal 0.000000e+000 0.000000e+000 1.000000e+000
      outer loop
         vertex 0.000000e+000 1.000000e+001 1.000000e+001
         vertex 2.114931e+000 7.411771e+000 1.000000e+001
         vertex 2.488690e+000 7.615860e+000 1.000000e+001
      endloop
   endfacet
   facet normal 0.000000e+000 0.000000e+000 1.000000e+000
      outer loop
         vertex 0.000000e+000 1.000000e+001 1.000000e+001
         vertex 2.488690e+000 7.615860e+000 1.000000e+001
         vertex 2.887690e+000 7.764679e+000 1.000000e+001
      endloop
   endfacet
   facet normal 0.000000e+000 0.000000e+000 1.000000e+000
      outer loop
         vertex 7.126536e+000 2.037111e+000 1.000000e+001
         vertex 6.710419e+000 1.946590e+000 1.000000e+001
         vertex 1.000000e+001 0.000000e+000 1.000000e+001
      endloop
   endfacet
   facet normal 0.000000e+000 0.000000e+000 1.000000e+000
      outer loop
         vertex 1.000000e+001 0.000000e+000 1.000000e+001
         vertex 6.710419e+000 1.946590e+000 1.000000e+001
         vertex 6.285654e+000 1.916210e+000 1.000000e+001
      endloop
   endfacet
   facet normal 0.000000e+000 0.000000e+000 1.000000e+000
      outer loop
         vertex 1.000000e+001 0.000000e+000 1.000000e+001
         vertex 6.285654e+000 1.916210e+000 1.000000e+001
         vertex 0.000000e+000 0.000000e+000 1.000000e+001
      endloop
   endfacet
   facet normal 0.000000e+000 0.000000e+000 1.000000e+000
      outer loop
         vertex 0.000000e+000 0.000000e+000 1.000000e+001
         vertex 6.285654e+000 1.916210e+000 1.000000e+001
         vertex 3.728573e+000 1.916210e+000 1.000000e+001
      endloop
   endfacet
   facet normal 0.000000e+000 0.000000e+000 1.000000e+000
      outer loop
         vertex 0.000000e+000 0.000000e+000 1.000000e+001
         vertex 3.728573e+000 1.916210e+000 1.000000e+001
         vertex 3.303808e+000 1.946590e+000 1.000000e+001
      endloop
   endfacet
   facet normal 0.000000e+000 0.000000e+000 1.000000e+000
      outer loop
         vertex 8.647888e-001 4.060012e+000 1.000000e+001
         vertex 7.742680e-001 4.476130e+000 1.000000e+001
         vertex 0.000000e+000 0.000000e+000 1.000000e+001
      endloop
   endfacet
   facet normal 0.000000e+000 0.000000e+000 1.000000e+000
      outer loop
         vertex 0.000000e+000 0.000000e+000 1.000000e+001
         vertex 7.742680e-001 4.476130e+000 1.000000e+001
         vertex 7.438881e-001 4.900895e+000 1.000000e+001
      endloop
   endfacet
   facet normal 0.000000e+000 0.000000e+000 1.000000e+000
      outer loop
         vertex 0.000000e+000 0.000000e+000 1.000000e+001
         vertex 7.438881e-001 4.900895e+000 1.000000e+001
         vertex 0.000000e+000 1.000000e+001 1.000000e+001
      endloop
   endfacet
   facet normal 0.000000e+000 0.000000e+000 1.000000e+000
      outer loop
         vertex 0.000000e+000 1.000000e+001 1.000000e+001
         vertex 7.438881e-001 4.900895e+000 1.000000e+001
         vertex 7.742680e-001 5.325660e+000 1.000000e+001
      endloop
   endfacet
   facet normal 0.000000e+000 0.000000e+000 1.000000e+000
      outer loop
         vertex 0.000000e+000 1.000000e+001 1.000000e+001
         vertex 7.742680e-001 5.325660e+000 1.000000e+001
         vertex 8.647888e-001 5.741778e+000 1.000000e+001
      endloop
   endfacet
   facet normal 0.000000e+000 0.000000e+000 1.000000e+000
      outer loop
         vertex 2.887690e+000 7.764679e+000 1.000000e+001
         vertex 3.303808e+000 7.855200e+000 1.000000e+001
         vertex 0.000000e+000 1.000000e+001 1.000000e+001
      endloop
   endfacet
   facet normal 0.000000e+000 0.000000e+000 1.000000e+000
      outer loop
         vertex 0.000000e+000 1.000000e+001 1.000000e+001
         vertex 3.303808e+000 7.855200e+000 1.000000e+001
         vertex 3.728573e+000 7.885580e+000 1.000000e+001
      endloop
   endfacet
   facet normal 0.000000e+000 0.000000e+000 1.000000e+000
      outer loop
         vertex 0.000000e+000 1.000000e+001 1.000000e+001
         vertex 3.728573e+000 7.885580e+000 1.000000e+001
         vertex 1.000000e+001 1.000000e+001 1.000000e+001
      endloop
   endfacet
   facet normal 0.000000e+000 0.000000e+000 1.000000e+000
      outer loop
         vertex 1.000000e+001 1.000000e+001 1.000000e+001
         vertex 3.728573e+000 7.885580e+000 1.000000e+001
         vertex 6.285654e+000 7.885580e+000 1.000000e+001
      endloop
   endfacet
   facet normal 0.000000e+000 0.000000e+000 1.000000e+000
      outer loop
         vertex 1.000000e+001 1.000000e+001 1.000000e+001
         vertex 6.285654e+000 7.885580e+000 1.000000e+001
         vertex 6.710419e+000 7.855200e+000 1.000000e+001
      endloop
   endfacet
   facet normal 1.000000e+000 0.000000e+000 0.000000e+000
      outer loop
         vertex 1.000000e+001 1.000000e+001 0.000000e+000
         vertex 1.000000e+001 1.000000e+001 1.000000e+001
         vertex 1.000000e+001 0.000000e+000 0.000000e+000
      endloop
   endfacet
   facet normal 1.000000e+000 0.000000e+000 0.000000e+000
      outer loop
         vertex 1.000000e+001 0.000000e+000 0.000000e+000
         vertex 1.000000e+001 1.000000e+001 1.000000e+001
         vertex 1.000000e+001 0.000000e+000 1.000000e+001
      endloop
   endfacet
   facet normal 0.000000e+000 0.000000e+000 -1.000000e+000
      outer loop
         vertex 9.149438e+000 5.741778e+000 0.000000e+000
         vertex 9.000618e+000 6.140778e+000 0.000000e+000
         vertex 1.000000e+001 1.000000e+001 0.000000e+000
      endloop
   endfacet
   facet normal 0.000000e+000 0.000000e+000 -1.000000e+000
      outer loop
         vertex 1.000000e+001 0.000000e+000 0.000000e+000
         vertex 8.240206e+000 2.645221e+000 0.000000e+000
         vertex 8.541327e+000 2.946342e+000 0.000000e+000
      endloop
   endfacet
   facet normal 0.000000e+000 0.000000e+000 -1.000000e+000
      outer loop
         vertex 8.541327e+000 2.946342e+000 0.000000e+000
         vertex 8.796530e+000 3.287252e+000 0.000000e+000
         vertex 1.000000e+001 0.000000e+000 0.000000e+000
      endloop
   endfacet
   facet normal 0.000000e+000 0.000000e+000 -1.000000e+000
      outer loop
         vertex 1.000000e+001 0.000000e+000 0.000000e+000
         vertex 8.796530e+000 3.287252e+000 0.000000e+000
         vertex 9.000618e+000 3.661012e+000 0.000000e+000
      endloop
   endfacet
   facet normal 0.000000e+000 0.000000e+000 -1.000000e+000
      outer loop
         vertex 1.000000e+001 0.000000e+000 0.000000e+000
         vertex 9.000618e+000 3.661012e+000 0.000000e+000
         vertex 9.149438e+000 4.060012e+000 0.000000e+000
      endloop
   endfacet
   facet normal 0.000000e+000 0.000000e+000 -1.000000e+000
      outer loop
         vertex 9.149438e+000 4.060012e+000 0.000000e+000
         vertex 9.239959e+000 4.476130e+000 0.000000e+000
         vertex 1.000000e+001 0.000000e+000 0.000000e+000
      endloop
   endfacet
   facet normal 0.000000e+000 0.000000e+000 -1.000000e+000
      outer loop
         vertex 1.000000e+001 0.000000e+000 0.000000e+000
         vertex 9.239959e+000 4.476130e+000 0.000000e+000
         vertex 9.270338e+000 4.900895e+000 0.000000e+000
      endloop
   endfacet
   facet normal 0.000000e+000 0.000000e+000 -1.000000e+000
      outer loop
         vertex 1.000000e+001 0.000000e+000 0.000000e+000
         vertex 9.270338e+000 4.900895e+000 0.000000e+000
         vertex 1.000000e+001 1.000000e+001 0.000000e+000
      endloop
   endfacet
   facet normal 0.000000e+000 0.000000e+000 -1.000000e+000
      outer loop
         vertex 1.000000e+001 1.000000e+001 0.000000e+000
         vertex 9.270338e+000 4.900895e+000 0.000000e+000
         vertex 9.239959e+000 5.325660e+000 0.000000e+000
      endloop
   endfacet
   facet normal 0.000000e+000 0.000000e+000 -1.000000e+000
      outer loop
         vertex 1.000000e+001 1.000000e+001 0.000000e+000
         vertex 9.239959e+000 5.325660e+000 0.000000e+000
         vertex 9.149438e+000 5.741778e+000 0.000000e+000
      endloop
   endfacet
   facet normal 0.000000e+000 0.000000e+000 -1.000000e+000
      outer loop
         vertex 1.472899e+000 6.855448e+000 0.000000e+000
         vertex 1.217696e+000 6.514537e+000 0.000000e+000
         vertex 0.000000e+000 1.000000e+001 0.000000e+000
      endloop
   endfacet
   facet normal 0.000000e+000 0.000000e+000 -1.000000e+000
      outer loop
         vertex 0.000000e+000 1.000000e+001 0.000000e+000
         vertex 1.217696e+000 6.514537e+000 0.000000e+000
         vertex 1.013608e+000 6.140778e+000 0.000000e+000
      endloop
   endfacet
   facet normal 0.000000e+000 0.000000e+000 -1.000000e+000
      outer loop
         vertex 0.000000e+000 1.000000e+001 0.000000e+000
         vertex 1.013608e+000 6.140778e+000 0.000000e+000
         vertex 8.647888e-001 5.741778e+000 0.000000e+000
      endloop
   endfacet
   facet normal 0.000000e+000 0.000000e+000 -1.000000e+000
      outer loop
         vertex 8.647888e-001 4.060012e+000 0.000000e+000
         vertex 1.013608e+000 3.661012e+000 0.000000e+000
         vertex 0.000000e+000 0.000000e+000 0.000000e+000
      endloop
   endfacet
   facet normal 0.000000e+000 0.000000e+000 -1.000000e+000
      outer loop
         vertex 1.013608e+000 3.661012e+000 0.000000e+000
         vertex 1.217696e+000 3.287252e+000 0.000000e+000
         vertex 0.000000e+000 0.000000e+000 0.000000e+000
      endloop
   endfacet
   facet normal 0.000000e+000 0.000000e+000 -1.000000e+000
      outer loop
         vertex 0.000000e+000 0.000000e+000 0.000000e+000
         vertex 1.217696e+000 3.287252e+000 0.000000e+000
         vertex 1.472899e+000 2.946342e+000 0.000000e+000
      endloop
   endfacet
   facet normal 0.000000e+000 0.000000e+000 -1.000000e+000
      outer loop
         vertex 0.000000e+000 0.000000e+000 0.000000e+000
         vertex 1.472899e+000 2.946342e+000 0.000000e+000
         vertex 1.774020e+000 2.645221e+000 0.000000e+000
      endloop
   endfacet
   facet normal 0.000000e+000 0.000000e+000 -1.000000e+000
      outer loop
         vertex 9.000618e+000 6.140778e+000 0.000000e+000
         vertex 8.796530e+000 6.514537e+000 0.000000e+000
         vertex 1.000000e+001 1.000000e+001 0.000000e+000
      endloop
   endfacet
   facet normal 0.000000e+000 0.000000e+000 -1.000000e+000
      outer loop
         vertex 1.000000e+001 1.000000e+001 0.000000e+000
         vertex 8.796530e+000 6.514537e+000 0.000000e+000
         vertex 8.541327e+000 6.855448e+000 0.000000e+000
      endloop
   endfacet
   facet normal 0.000000e+000 0.000000e+000 -1.000000e+000
      outer loop
         vertex 1.000000e+001 1.000000e+001 0.000000e+000
         vertex 8.541327e+000 6.855448e+000 0.000000e+000
         vertex 8.240206e+000 7.156569e+000 0.000000e+000
      endloop
   endfacet
   facet normal 0.000000e+000 0.000000e+000 -1.000000e+000
      outer loop
         vertex 3.303808e+000 7.855200e+000 0.000000e+000
         vertex 2.887690e+000 7.764679e+000 0.000000e+000
         vertex 0.000000e+000 1.000000e+001 0.000000e+000
      endloop
   endfacet
   facet normal 0.000000e+000 0.000000e+000 -1.000000e+000
      outer loop
         vertex 0.000000e+000 1.000000e+001 0.000000e+000
         vertex 2.887690e+000 7.764679e+000 0.000000e+000
         vertex 2.488690e+000 7.615860e+000 0.000000e+000
      endloop
   endfacet
   facet normal 0.000000e+000 0.000000e+000 -1.000000e+000
      outer loop
         vertex 6.710419e+000 1.946590e+000 0.000000e+000
         vertex 7.126536e+000 2.037111e+000 0.000000e+000
         vertex 1.000000e+001 0.000000e+000 0.000000e+000
      endloop
   endfacet
   facet normal 0.000000e+000 0.000000e+000 -1.000000e+000
      outer loop
         vertex 8.240206e+000 7.156569e+000 0.000000e+000
         vertex 7.899295e+000 7.411771e+000 0.000000e+000
         vertex 1.000000e+001 1.000000e+001 0.000000e+000
      endloop
   endfacet
   facet normal 0.000000e+000 0.000000e+000 -1.000000e+000
      outer loop
         vertex 1.000000e+001 1.000000e+001 0.000000e+000
         vertex 7.899295e+000 7.411771e+000 0.000000e+000
         vertex 7.525536e+000 7.615860e+000 0.000000e+000
      endloop
   endfacet
   facet normal 0.000000e+000 0.000000e+000 -1.000000e+000
      outer loop
         vertex 1.000000e+001 1.000000e+001 0.000000e+000
         vertex 7.525536e+000 7.615860e+000 0.000000e+000
         vertex 7.126536e+000 7.764679e+000 0.000000e+000
      endloop
   endfacet
   facet normal 0.000000e+000 0.000000e+000 -1.000000e+000
      outer loop
         vertex 8.647888e-001 5.741778e+000 0.000000e+000
         vertex 7.742680e-001 5.325660e+000 0.000000e+000
         vertex 0.000000e+000 1.000000e+001 0.000000e+000
      endloop
   endfacet
   facet normal 0.000000e+000 0.000000e+000 -1.000000e+000
      outer loop
         vertex 0.000000e+000 1.000000e+001 0.000000e+000
         vertex 7.742680e-001 5.325660e+000 0.000000e+000
         vertex 7.438881e-001 4.900895e+000 0.000000e+000
      endloop
   endfacet
   facet normal 0.000000e+000 0.000000e+000 -1.000000e+000
      outer loop
         vertex 0.000000e+000 1.000000e+001 0.000000e+000
         vertex 7.438881e-001 4.900895e+000 0.000000e+000
         vertex 0.000000e+000 0.000000e+000 0.000000e+000
      endloop
   endfacet
   facet normal 0.000000e+000 0.000000e+000 -1.000000e+000
      outer loop
         vertex 0.000000e+000 0.000000e+000 0.000000e+000
         vertex 7.438881e-001 4.900895e+000 0.000000e+000
         vertex 7.742680e-001 4.476130e+000 0.000000e+000
      endloop
   endfacet
   facet normal 0.000000e+000 0.000000e+000 -1.000000e+000
      outer loop
         vertex 0.000000e+000 0.000000e+000 0.000000e+000
         vertex 7.742680e-001 4.476130e+000 0.000000e+000
         vertex 8.647888e-001 4.060012e+000 0.000000e+000
      endloop
   endfacet
   facet normal 0.000000e+000 0.000000e+000 -1.000000e+000
      outer loop
         vertex 1.774020e+000 2.645221e+000 0.000000e+000
         vertex 2.114931e+000 2.390018e+000 0.000000e+000
         vertex 0.000000e+000 0.000000e+000 0.000000e+000
      endloop
   endfacet
   facet normal 0.000000e+000 0.000000e+000 -1.000000e+000
      outer loop
         vertex 0.000000e+000 0.000000e+000 0.000000e+000
         vertex 2.114931e+000 2.390018e+000 0.000000e+000
         vertex 2.488690e+000 2.185930e+000 0.000000e+000
      endloop
   endfacet
   facet normal 0.000000e+000 0.000000e+000 -1.000000e+000
      outer loop
         vertex 0.000000e+000 0.000000e+000 0.000000e+000
         vertex 2.488690e+000 2.185930e+000 0.000000e+000
         vertex 2.887690e+000 2.037111e+000 0.000000e+000
      endloop
   endfacet
   facet normal 0.000000e+000 0.000000e+000 -1.000000e+000
      outer loop
         vertex 2.488690e+000 7.615860e+000 0.000000e+000
         vertex 2.114931e+000 7.411771e+000 0.000000e+000
         vertex 0.000000e+000 1.000000e+001 0.000000e+000
      endloop
   endfacet
   facet normal 0.000000e+000 0.000000e+000 -1.000000e+000
      outer loop
         vertex 0.000000e+000 1.000000e+001 0.000000e+000
         vertex 2.114931e+000 7.411771e+000 0.000000e+000
         vertex 1.774020e+000 7.156569e+000 0.000000e+000
      endloop
   endfacet
   facet normal 0.000000e+000 0.000000e+000 -1.000000e+000
      outer loop
         vertex 0.000000e+000 1.000000e+001 0.000000e+000
         vertex 1.774020e+000 7.156569e+000 0.000000e+000
         vertex 1.472899e+000 6.855448e+000 0.000000e+000
      endloop
   endfacet
   facet normal 0.000000e+000 0.000000e+000 -1.000000e+000
      outer loop
         vertex 7.126536e+000 2.037111e+000 0.000000e+000
         vertex 7.525536e+000 2.185930e+000 0.000000e+000
         vertex 1.000000e+001 0.000000e+000 0.000000e+000
      endloop
   endfacet
   facet normal 0.000000e+000 0.000000e+000 -1.000000e+000
      outer loop
         vertex 1.000000e+001 0.000000e+000 0.000000e+000
         vertex 7.525536e+000 2.185930e+000 0.000000e+000
         vertex 7.899295e+000 2.390018e+000 0.000000e+000
      endloop
   endfacet
   facet normal 0.000000e+000 0.000000e+000 -1.000000e+000
      outer loop
         vertex 1.000000e+001 0.000000e+000 0.000000e+000
         vertex 7.899295e+000 2.390018e+000 0.000000e+000
         vertex 8.240206e+000 2.645221e+000 0.000000e+000
      endloop
   endfacet
   facet normal 0.000000e+000 0.000000e+000 -1.000000e+000
      outer loop
         vertex 7.126536e+000 7.764679e+000 0.000000e+000
         vertex 6.710419e+000 7.855200e+000 0.000000e+000
         vertex 1.000000e+001 1.000000e+001 0.000000e+000
      endloop
   endfacet
   facet normal 0.000000e+000 0.000000e+000 -1.000000e+000
      outer loop
         vertex 1.000000e+001 1.000000e+001 0.000000e+000
         vertex 6.710419e+000 7.855200e+000 0.000000e+000
         vertex 6.285654e+000 7.885580e+000 0.000000e+000
      endloop
   endfacet
   facet normal 0.000000e+000 0.000000e+000 -1.000000e+000
      outer loop
         vertex 1.000000e+001 1.000000e+001 0.000000e+000
         vertex 6.285654e+000 7.885580e+000 0.000000e+000
         vertex 0.000000e+000 1.000000e+001 0.000000e+000
      endloop
   endfacet
   facet normal 0.000000e+000 0.000000e+000 -1.000000e+000
      outer loop
         vertex 0.000000e+000 1.000000e+001 0.000000e+000
         vertex 6.285654e+000 7.885580e+000 0.000000e+000
         vertex 3.728573e+000 7.885580e+000 0.000000e+000
      endloop
   endfacet
   facet normal 0.000000e+000 0.000000e+000 -1.000000e+000
      outer loop
         vertex 0.000000e+000 1.000000e+001 0.000000e+000
         vertex 3.728573e+000 7.885580e+000 0.000000e+000
         vertex 3.303808e+000 7.855200e+000 0.000000e+000
      endloop
   endfacet
   facet normal 0.000000e+000 0.000000e+000 -1.000000e+000
      outer loop
         vertex 2.887690e+000 2.037111e+000 0.000000e+000
         vertex 3.303808e+000 1.946590e+000 0.000000e+000
         vertex 0.000000e+000 0.000000e+000 0.000000e+000
      endloop
   endfacet
   facet normal 0.000000e+000 0.000000e+000 -1.000000e+000
      outer loop
         vertex 0.000000e+000 0.000000e+000 0.000000e+000
         vertex 3.303808e+000 1.946590e+000 0.000000e+000
         vertex 3.728573e+000 1.916210e+000 0.000000e+000
      endloop
   endfacet
   facet normal 0.000000e+000 0.000000e+000 -1.000000e+000
      outer loop
         vertex 0.000000e+000 0.000000e+000 0.000000e+000
         vertex 3.728573e+000 1.916210e+000 0.000000e+000
         vertex 1.000000e+001 0.000000e+000 0.000000e+000
      endloop
   endfacet
   facet normal 0.000000e+000 0.000000e+000 -1.000000e+000
      outer loop
         vertex 1.000000e+001 0.000000e+000 0.000000e+000
         vertex 3.728573e+000 1.916210e+000 0.000000e+000
         vertex 6.285654e+000 1.916210e+000 0.000000e+000
      endloop
   endfacet
   facet normal 0.000000e+000 0.000000e+000 -1.000000e+000
      outer loop
         vertex 1.000000e+001 0.000000e+000 0.000000e+000
         vertex 6.285654e+000 1.916210e+000 0.000000e+000
         vertex 6.710419e+000 1.946590e+000 0.000000e+000
      endloop
   endfacet
   facet normal 0.000000e+000 1.000000e+000 0.000000e+000
      outer loop
         vertex 1.000000e+001 1.000000e+001 1.000000e+001
         vertex 1.000000e+001 1.000000e+001 0.000000e+000
         vertex 0.000000e+000 1.000000e+001 1.000000e+001
      endloop
   endfacet
   facet normal 0.000000e+000 1.000000e+000 0.000000e+000
      outer loop
         vertex 0.000000e+000 1.000000e+001 1.000000e+001
         vertex 1.000000e+001 1.000000e+001 0.000000e+000
         vertex 0.000000e+000 1.000000e+001 0.000000e+000
      endloop
   endfacet
   facet normal 0.000000e+000 -1.000000e+000 0.000000e+000
      outer loop
         vertex 1.000000e+001 0.000000e+000 0.000000e+000
         vertex 1.000000e+001 0.000000e+000 1.000000e+001
         vertex 0.000000e+000 0.000000e+000 0.000000e+000
      endloop
   endfacet
   facet normal 0.000000e+000 -1.000000e+000 0.000000e+000
      outer loop
         vertex 0.000000e+000 0.000000e+000 0.000000e+000
         vertex 1.000000e+001 0.000000e+000 1.000000e+001
         vertex 0.000000e+000 0.000000e+000 1.000000e+001
      endloop
   endfacet
   facet normal 4.754595e-002 -9.988691e-001 0.000000e+000
      outer loop
         vertex 3.728573e+000 7.885580e+000 0.000000e+000
         vertex 3.728573e+000 7.885580e+000 1.000000e+001
         vertex 3.303808e+000 7.855200e+000 1.000000e+001
      endloop
   endfacet
   facet normal 9.509189e-002 -9.954685e-001 0.000000e+000
      outer loop
         vertex 3.728573e+000 7.885580e+000 0.000000e+000
         vertex 3.303808e+000 7.855200e+000 1.000000e+001
         vertex 3.303808e+000 7.855200e+000 0.000000e+000
      endloop
   endfacet
   facet normal 1.892159e-001 -9.819355e-001 0.000000e+000
      outer loop
         vertex 3.303808e+000 7.855200e+000 0.000000e+000
         vertex 3.303808e+000 7.855200e+000 1.000000e+001
         vertex 2.887690e+000 7.764679e+000 1.000000e+001
      endloop
   endfacet
   facet normal 2.357940e-001 -9.718031e-001 0.000000e+000
      outer loop
         vertex 3.303808e+000 7.855200e+000 0.000000e+000
         vertex 2.887690e+000 7.764679e+000 1.000000e+001
         vertex 2.887690e+000 7.764679e+000 0.000000e+000
      endloop
   endfacet
   facet normal 3.270339e-001 -9.450126e-001 0.000000e+000
      outer loop
         vertex 2.887690e+000 7.764679e+000 0.000000e+000
         vertex 2.887690e+000 7.764679e+000 1.000000e+001
         vertex 2.488690e+000 7.615860e+000 1.000000e+001
      endloop
   endfacet
   facet normal 3.716959e-001 -9.283545e-001 0.000000e+000
      outer loop
         vertex 2.887690e+000 7.764679e+000 0.000000e+000
         vertex 2.488690e+000 7.615860e+000 1.000000e+001
         vertex 2.488690e+000 7.615860e+000 0.000000e+000
      endloop
   endfacet
   facet normal 4.581946e-001 -8.888519e-001 0.000000e+000
      outer loop
         vertex 2.488690e+000 7.615860e+000 0.000000e+000
         vertex 2.488690e+000 7.615860e+000 1.000000e+001
         vertex 2.114931e+000 7.411771e+000 1.000000e+001
      endloop
   endfacet
   facet normal 5.000312e-001 -8.660074e-001 0.000000e+000
      outer loop
         vertex 2.488690e+000 7.615860e+000 0.000000e+000
         vertex 2.114931e+000 7.411771e+000 1.000000e+001
         vertex 2.114931e+000 7.411771e+000 0.000000e+000
      endloop
   endfacet
   facet normal 5.800276e-001 -8.145968e-001 0.000000e+000
      outer loop
         vertex 2.114931e+000 7.411771e+000 0.000000e+000
         vertex 2.114931e+000 7.411771e+000 1.000000e+001
         vertex 1.774020e+000 7.156569e+000 1.000000e+001
      endloop
   endfacet
   facet normal 6.181873e-001 -7.860308e-001 0.000000e+000
      outer loop
         vertex 2.114931e+000 7.411771e+000 0.000000e+000
         vertex 1.774020e+000 7.156569e+000 1.000000e+001
         vertex 1.774020e+000 7.156569e+000 0.000000e+000
      endloop
   endfacet
   facet normal 6.900530e-001 -7.237589e-001 0.000000e+000
      outer loop
         vertex 1.774020e+000 7.156569e+000 0.000000e+000
         vertex 1.774020e+000 7.156569e+000 1.000000e+001
         vertex 1.472899e+000 6.855448e+000 1.000000e+001
      endloop
   endfacet
   facet normal 7.237589e-001 -6.900530e-001 0.000000e+000
      outer loop
         vertex 1.774020e+000 7.156569e+000 0.000000e+000
         vertex 1.472899e+000 6.855448e+000 1.000000e+001
         vertex 1.472899e+000 6.855448e+000 0.000000e+000
      endloop
   endfacet
   facet normal 7.860308e-001 -6.181873e-001 0.000000e+000
      outer loop
         vertex 1.472899e+000 6.855448e+000 0.000000e+000
         vertex 1.472899e+000 6.855448e+000 1.000000e+001
         vertex 1.217696e+000 6.514537e+000 1.000000e+001
      endloop
   endfacet
   facet normal 8.145968e-001 -5.800276e-001 0.000000e+000
      outer loop
         vertex 1.472899e+000 6.855448e+000 0.000000e+000
         vertex 1.217696e+000 6.514537e+000 1.000000e+001
         vertex 1.217696e+000 6.514537e+000 0.000000e+000
      endloop
   endfacet
   facet normal 8.660074e-001 -5.000312e-001 0.000000e+000
      outer loop
         vertex 1.217696e+000 6.514537e+000 0.000000e+000
         vertex 1.217696e+000 6.514537e+000 1.000000e+001
         vertex 1.013608e+000 6.140778e+000 1.000000e+001
      endloop
   endfacet
   facet normal 8.888519e-001 -4.581946e-001 0.000000e+000
      outer loop
         vertex 1.217696e+000 6.514537e+000 0.000000e+000
         vertex 1.013608e+000 6.140778e+000 1.000000e+001
         vertex 1.013608e+000 6.140778e+000 0.000000e+000
      endloop
   endfacet
   facet normal 9.283545e-001 -3.716959e-001 0.000000e+000
      outer loop
         vertex 1.013608e+000 6.140778e+000 0.000000e+000
         vertex 1.013608e+000 6.140778e+000 1.000000e+001
         vertex 8.647888e-001 5.741778e+000 1.000000e+001
      endloop
   endfacet
   facet normal 9.450126e-001 -3.270340e-001 0.000000e+000
      outer loop
         vertex 1.013608e+000 6.140778e+000 0.000000e+000
         vertex 8.647888e-001 5.741778e+000 1.000000e+001
         vertex 8.647888e-001 5.741778e+000 0.000000e+000
      endloop
   endfacet
   facet normal 9.718031e-001 -2.357940e-001 0.000000e+000
      outer loop
         vertex 8.647888e-001 5.741778e+000 0.000000e+000
         vertex 8.647888e-001 5.741778e+000 1.000000e+001
         vertex 7.742680e-001 5.325660e+000 1.000000e+001
      endloop
   endfacet
   facet normal 9.819355e-001 -1.892159e-001 0.000000e+000
      outer loop
         vertex 8.647888e-001 5.741778e+000 0.000000e+000
         vertex 7.742680e-001 5.325660e+000 1.000000e+001
         vertex 7.742680e-001 5.325660e+000 0.000000e+000
      endloop
   endfacet
   facet normal 9.954685e-001 -9.509189e-002 0.000000e+000
      outer loop
         vertex 7.742680e-001 5.325660e+000 0.000000e+000
         vertex 7.742680e-001 5.325660e+000 1.000000e+001
         vertex 7.438881e-001 4.900895e+000 1.000000e+001
      endloop
   endfacet
   facet normal 9.988691e-001 -4.754595e-002 0.000000e+000
      outer loop
         vertex 7.742680e-001 5.325660e+000 0.000000e+000
         vertex 7.438881e-001 4.900895e+000 1.000000e+001
         vertex 7.438881e-001 4.900895e+000 0.000000e+000
      endloop
   endfacet
   facet normal 9.988691e-001 4.754595e-002 0.000000e+000
      outer loop
         vertex 7.438881e-001 4.900895e+000 0.000000e+000
         vertex 7.438881e-001 4.900895e+000 1.000000e+001
         vertex 7.742680e-001 4.476130e+000 1.000000e+001
      endloop
   endfacet
   facet normal 9.954685e-001 9.509189e-002 0.000000e+000
      outer loop
         vertex 7.438881e-001 4.900895e+000 0.000000e+000
         vertex 7.742680e-001 4.476130e+000 1.000000e+001
         vertex 7.742680e-001 4.476130e+000 0.000000e+000
      endloop
   endfacet
   facet normal 9.819355e-001 1.892159e-001 0.000000e+000
      outer loop
         vertex 7.742680e-001 4.476130e+000 0.000000e+000
         vertex 7.742680e-001 4.476130e+000 1.000000e+001
         vertex 8.647888e-001 4.060012e+000 1.000000e+001
      endloop
   endfacet
   facet normal 9.718031e-001 2.357940e-001 0.000000e+000
      outer loop
         vertex 7.742680e-001 4.476130e+000 0.000000e+000
         vertex 8.647888e-001 4.060012e+000 1.000000e+001
         vertex 8.647888e-001 4.060012e+000 0.000000e+000
      endloop
   endfacet
   facet normal 9.450126e-001 3.270339e-001 0.000000e+000
      outer loop
         vertex 8.647888e-001 4.060012e+000 0.000000e+000
         vertex 8.647888e-001 4.060012e+000 1.000000e+001
         vertex 1.013608e+000 3.661012e+000 1.000000e+001
      endloop
   endfacet
   facet normal 9.283545e-001 3.716959e-001 0.000000e+000
      outer loop
         vertex 8.647888e-001 4.060012e+000 0.000000e+000
         vertex 1.013608e+000 3.661012e+000 1.000000e+001
         vertex 1.013608e+000 3.661012e+000 0.000000e+000
      endloop
   endfacet
   facet normal 8.888519e-001 4.581946e-001 0.000000e+000
      outer loop
         vertex 1.013608e+000 3.661012e+000 0.000000e+000
         vertex 1.013608e+000 3.661012e+000 1.000000e+001
         vertex 1.217696e+000 3.287252e+000 1.000000e+001
      endloop
   endfacet
   facet normal 8.660074e-001 5.000312e-001 0.000000e+000
      outer loop
         vertex 1.013608e+000 3.661012e+000 0.000000e+000
         vertex 1.217696e+000 3.287252e+000 1.000000e+001
         vertex 1.217696e+000 3.287252e+000 0.000000e+000
      endloop
   endfacet
   facet normal 8.145968e-001 5.800276e-001 0.000000e+000
      outer loop
         vertex 1.217696e+000 3.287252e+000 0.000000e+000
         vertex 1.217696e+000 3.287252e+000 1.000000e+001
         vertex 1.472899e+000 2.946342e+000 1.000000e+001
      endloop
   endfacet
   facet normal 7.860308e-001 6.181873e-001 0.000000e+000
      outer loop
         vertex 1.217696e+000 3.287252e+000 0.000000e+000
         vertex 1.472899e+000 2.946342e+000 1.000000e+001
         vertex 1.472899e+000 2.946342e+000 0.000000e+000
      endloop
   endfacet
   facet normal 7.237589e-001 6.900530e-001 0.000000e+000
      outer loop
         vertex 1.472899e+000 2.946342e+000 0.000000e+000
         vertex 1.472899e+000 2.946342e+000 1.000000e+001
         vertex 1.774020e+000 2.645221e+000 1.000000e+001
      endloop
   endfacet
   facet normal 6.900530e-001 7.237589e-001 0.000000e+000
      outer loop
         vertex 1.472899e+000 2.946342e+000 0.000000e+000
         vertex 1.774020e+000 2.645221e+000 1.000000e+001
         vertex 1.774020e+000 2.645221e+000 0.000000e+000
      endloop
   endfacet
   facet normal 6.181873e-001 7.860308e-001 0.000000e+000
      outer loop
         vertex 1.774020e+000 2.645221e+000 0.000000e+000
         vertex 1.774020e+000 2.645221e+000 1.000000e+001
         vertex 2.114931e+000 2.390018e+000 1.000000e+001
      endloop
   endfacet
   facet normal 5.800276e-001 8.145968e-001 0.000000e+000
      outer loop
         vertex 1.774020e+000 2.645221e+000 0.000000e+000
         vertex 2.114931e+000 2.390018e+000 1.000000e+001
         vertex 2.114931e+000 2.390018e+000 0.000000e+000
      endloop
   endfacet
   facet normal 5.000312e-001 8.660074e-001 0.000000e+000
      outer loop
         vertex 2.114931e+000 2.390018e+000 0.000000e+000
         vertex 2.114931e+000 2.390018e+000 1.000000e+001
         vertex 2.488690e+000 2.185930e+000 1.000000e+001
      endloop
   endfacet
   facet normal 4.581946e-001 8.888519e-001 0.000000e+000
      outer loop
         vertex 2.114931e+000 2.390018e+000 0.000000e+000
         vertex 2.488690e+000 2.185930e+000 1.000000e+001
         vertex 2.488690e+000 2.185930e+000 0.000000e+000
      endloop
   endfacet
   facet normal 3.716959e-001 9.283545e-001 0.000000e+000
      outer loop
         vertex 2.488690e+000 2.185930e+000 0.000000e+000
         vertex 2.488690e+000 2.185930e+000 1.000000e+001
         vertex 2.887690e+000 2.037111e+000 1.000000e+001
      endloop
   endfacet
   facet normal 3.270340e-001 9.450126e-001 0.000000e+000
      outer loop
         vertex 2.488690e+000 2.185930e+000 0.000000e+000
         vertex 2.887690e+000 2.037111e+000 1.000000e+001
         vertex 2.887690e+000 2.037111e+000 0.000000e+000
      endloop
   endfacet
   facet normal 2.357940e-001 9.718031e-001 0.000000e+000
      outer loop
         vertex 2.887690e+000 2.037111e+000 0.000000e+000
         vertex 2.887690e+000 2.037111e+000 1.000000e+001
         vertex 3.303808e+000 1.946590e+000 1.000000e+001
      endloop
   endfacet
   facet normal 1.892159e-001 9.819355e-001 0.000000e+000
      outer loop
         vertex 2.887690e+000 2.037111e+000 0.000000e+000
         vertex 3.303808e+000 1.946590e+000 1.000000e+001
         vertex 3.303808e+000 1.946590e+000 0.000000e+000
      endloop
   endfacet
   facet normal 9.509189e-002 9.954685e-001 0.000000e+000
      outer loop
         vertex 3.303808e+000 1.946590e+000 0.000000e+000
         vertex 3.303808e+000 1.946590e+000 1.000000e+001
         vertex 3.728573e+000 1.916210e+000 1.000000e+001
      endloop
   endfacet
   facet normal 4.754595e-002 9.988691e-001 0.000000e+000
      outer loop
         vertex 3.303808e+000 1.946590e+000 0.000000e+000
         vertex 3.728573e+000 1.916210e+000 1.000000e+001
         vertex 3.728573e+000 1.916210e+000 0.000000e+000
      endloop
   endfacet
   facet normal 0.000000e+000 -1.000000e+000 0.000000e+000
      outer loop
         vertex 3.728573e+000 7.885580e+000 0.000000e+000
         vertex 6.285654e+000 7.885580e+000 0.000000e+000
         vertex 3.728573e+000 7.885580e+000 1.000000e+001
      endloop
   endfacet
   facet normal 0.000000e+000 -1.000000e+000 0.000000e+000
      outer loop
         vertex 3.728573e+000 7.885580e+000 1.000000e+001
         vertex 6.285654e+000 7.885580e+000 0.000000e+000
         vertex 6.285654e+000 7.885580e+000 1.000000e+001
      endloop
   endfacet
   facet normal -4.754595e-002 9.988691e-001 0.000000e+000
      outer loop
         vertex 6.285654e+000 1.916210e+000 0.000000e+000
         vertex 6.285654e+000 1.916210e+000 1.000000e+001
         vertex 6.710419e+000 1.946590e+000 1.000000e+001
      endloop
   endfacet
   facet normal -9.509189e-002 9.954685e-001 0.000000e+000
      outer loop
         vertex 6.285654e+000 1.916210e+000 0.000000e+000
         vertex 6.710419e+000 1.946590e+000 1.000000e+001
         vertex 6.710419e+000 1.946590e+000 0.000000e+000
      endloop
   endfacet
   facet normal -1.892159e-001 9.819355e-001 0.000000e+000
      outer loop
         vertex 6.710419e+000 1.946590e+000 0.000000e+000
         vertex 6.710419e+000 1.946590e+000 1.000000e+001
         vertex 7.126536e+000 2.037111e+000 1.000000e+001
      endloop
   endfacet
   facet normal -2.357940e-001 9.718031e-001 0.000000e+000
      outer loop
         vertex 6.710419e+000 1.946590e+000 0.000000e+000
         vertex 7.126536e+000 2.037111e+000 1.000000e+001
         vertex 7.126536e+000 2.037111e+000 0.000000e+000
      endloop
   endfacet
   facet normal -3.270339e-001 9.450126e-001 0.000000e+000
      outer loop
         vertex 7.126536e+000 2.037111e+000 0.000000e+000
         vertex 7.126536e+000 2.037111e+000 1.000000e+001
         vertex 7.525536e+000 2.185930e+000 1.000000e+001
      endloop
   endfacet
   facet normal -3.716959e-001 9.283545e-001 0.000000e+000
      outer loop
         vertex 7.126536e+000 2.037111e+000 0.000000e+000
         vertex 7.525536e+000 2.185930e+000 1.000000e+001
         vertex 7.525536e+000 2.185930e+000 0.000000e+000
      endloop
   endfacet
   facet normal -4.581946e-001 8.888519e-001 0.000000e+000
      outer loop
         vertex 7.525536e+000 2.185930e+000 0.000000e+000
         vertex 7.525536e+000 2.185930e+000 1.000000e+001
         vertex 7.899295e+000 2.390018e+000 1.000000e+001
      endloop
   endfacet
   facet normal -5.000312e-001 8.660074e-001 0.000000e+000
      outer loop
         vertex 7.525536e+000 2.185930e+000 0.000000e+000
         vertex 7.899295e+000 2.390018e+000 1.000000e+001
         vertex 7.899295e+000 2.390018e+000 0.000000e+000
      endloop
   endfacet
   facet normal -5.800276e-001 8.145968e-001 0.000000e+000
      outer loop
         vertex 7.899295e+000 2.390018e+000 0.000000e+000
         vertex 7.899295e+000 2.390018e+000 1.000000e+001
         vertex 8.240206e+000 2.645221e+000 1.000000e+001
      endloop
   endfacet
   facet normal -6.181873e-001 7.860308e-001 0.000000e+000
      outer loop
         vertex 7.899295e+000 2.390018e+000 0.000000e+000
         vertex 8.240206e+000 2.645221e+000 1.000000e+001
         vertex 8.240206e+000 2.645221e+000 0.000000e+000
      endloop
   endfacet
   facet normal -6.900530e-001 7.237589e-001 0.000000e+000
      outer loop
         vertex 8.240206e+000 2.645221e+000 0.000000e+000
         vertex 8.240206e+000 2.645221e+000 1.000000e+001
         vertex 8.541327e+000 2.946342e+000 1.000000e+001
      endloop
   endfacet
   facet normal -7.237589e-001 6.900530e-001 0.000000e+000
      outer loop
         vertex 8.240206e+000 2.645221e+000 0.000000e+000
         vertex 8.541327e+000 2.946342e+000 1.000000e+001
         vertex 8.541327e+000 2.946342e+000 0.000000e+000
      endloop
   endfacet
   facet normal -7.860308e-001 6.181873e-001 0.000000e+000
      outer loop
         vertex 8.541327e+000 2.946342e+000 0.000000e+000
         vertex 8.541327e+000 2.946342e+000 1.000000e+001
         vertex 8.796530e+000 3.287252e+000 1.000000e+001
      endloop
   endfacet
   facet normal -8.145968e-001 5.800276e-001 0.000000e+000
      outer loop
         vertex 8.541327e+000 2.946342e+000 0.000000e+000
         vertex 8.796530e+000 3.287252e+000 1.000000e+001
         vertex 8.796530e+000 3.287252e+000 0.000000e+000
      endloop
   endfacet
   facet normal -8.660074e-001 5.000312e-001 0.000000e+000
      outer loop
         vertex 8.796530e+000 3.287252e+000 0.000000e+000
         vertex 8.796530e+000 3.287252e+000 1.000000e+001
         vertex 9.000618e+000 3.661012e+000 1.000000e+001
      endloop
   endfacet
   facet normal -8.888519e-001 4.581946e-001 0.000000e+000
      outer loop
         vertex 8.796530e+000 3.287252e+000 0.000000e+000
         vertex 9.000618e+000 3.661012e+000 1.000000e+001
         vertex 9.000618e+000 3.661012e+000 0.000000e+000
      endloop
   endfacet
   facet normal -9.283545e-001 3.716959e-001 0.000000e+000
      outer loop
         vertex 9.000618e+000 3.661012e+000 0.000000e+000
         vertex 9.000618e+000 3.661012e+000 1.000000e+001
         vertex 9.149438e+000 4.060012e+000 1.000000e+001
      endloop
   endfacet
   facet normal -9.450126e-001 3.270340e-001 0.000000e+000
      outer loop
         vertex 9.000618e+000 3.661012e+000 0.000000e+000
         vertex 9.149438e+000 4.060012e+000 1.000000e+001
         vertex 9.149438e+000 4.060012e+000 0.000000e+000
      endloop
   endfacet
   facet normal -9.718031e-001 2.357940e-001 0.000000e+000
      outer loop
         vertex 9.149438e+000 4.060012e+000 0.000000e+000
         vertex 9.149438e+000 4.060012e+000 1.000000e+001
         vertex 9.239959e+000 4.476130e+000 1.000000e+001
      endloop
   endfacet
   facet normal -9.819355e-001 1.892159e-001 0.000000e+000
      outer loop
         vertex 9.149438e+000 4.060012e+000 0.000000e+000
         vertex 9.239959e+000 4.476130e+000 1.000000e+001
         vertex 9.239959e+000 4.476130e+000 0.000000e+000
      endloop
   endfacet
   facet normal -9.954685e-001 9.509189e-002 0.000000e+000
      outer loop
         vertex 9.239959e+000 4.476130e+000 0.000000e+000
         vertex 9.239959e+000 4.476130e+000 1.000000e+001
         vertex 9.270338e+000 4.900895e+000 1.000000e+001
      endloop
   endfacet
   facet normal -9.988691e-001 4.754595e-002 0.000000e+000
      outer loop
         vertex 9.239959e+000 4.476130e+000 0.000000e+000
         vertex 9.270338e+000 4.900895e+000 1.000000e+001
         vertex 9.270338e+000 4.900895e+000 0.000000e+000
      endloop
   endfacet
   facet normal -9.988691e-001 -4.754595e-002 0.000000e+000
      outer loop
         vertex 9.270338e+000 4.900895e+000 0.000000e+000
         vertex 9.270338e+000 4.900895e+000 1.000000e+001
         vertex 9.239959e+000 5.325660e+000 1.000000e+001
      endloop
   endfacet
   facet normal -9.954685e-001 -9.509189e-002 0.000000e+000
      outer loop
         vertex 9.270338e+000 4.900895e+000 0.000000e+000
         vertex 9.239959e+000 5.325660e+000 1.000000e+001
         vertex 9.239959e+000 5.325660e+000 0.000000e+000
      endloop
   endfacet
   facet normal -9.819355e-001 -1.892159e-001 0.000000e+000
      outer loop
         vertex 9.239959e+000 5.325660e+000 0.000000e+000
         vertex 9.239959e+000 5.325660e+000 1.000000e+001
         vertex 9.149438e+000 5.741778e+000 1.000000e+001
      endloop
   endfacet
   facet normal -9.718031e-001 -2.357940e-001 0.000000e+000
      outer loop
         vertex 9.239959e+000 5.325660e+000 0.000000e+000
         vertex 9.149438e+000 5.741778e+000 1.000000e+001
         vertex 9.149438e+000 5.741778e+000 0.000000e+000
      endloop
   endfacet
   facet normal -9.450126e-001 -3.270339e-001 0.000000e+000
      outer loop
         vertex 9.149438e+000 5.741778e+000 0.000000e+000
         vertex 9.149438e+000 5.741778e+000 1.000000e+001
         vertex 9.000618e+000 6.140778e+000 1.000000e+001
      endloop
   endfacet
   facet normal -9.283545e-001 -3.716959e-001 0.000000e+000
      outer loop
         vertex 9.149438e+000 5.741778e+000 0.000000e+000
         vertex 9.000618e+000 6.140778e+000 1.000000e+001
         vertex 9.000618e+000 6.140778e+000 0.000000e+000
      endloop
   endfacet
   facet normal -8.888519e-001 -4.581946e-001 0.000000e+000
      outer loop
         vertex 9.000618e+000 6.140778e+000 0.000000e+000
         vertex 9.000618e+000 6.140778e+000 1.000000e+001
         vertex 8.796530e+000 6.514537e+000 1.000000e+001
      endloop
   endfacet
   facet normal -8.660074e-001 -5.000312e-001 0.000000e+000
      outer loop
         vertex 9.000618e+000 6.140778e+000 0.000000e+000
         vertex 8.796530e+000 6.514537e+000 1.000000e+001
         vertex 8.796530e+000 6.514537e+000 0.000000e+000
      endloop
   endfacet
   facet normal -8.145968e-001 -5.800276e-001 0.000000e+000
      outer loop
         vertex 8.796530e+000 6.514537e+000 0.000000e+000
         vertex 8.796530e+000 6.514537e+000 1.000000e+001
         vertex 8.541327e+000 6.855448e+000 1.000000e+001
      endloop
   endfacet
   facet normal -7.860308e-001 -6.181873e-001 0.000000e+000
      outer loop
         vertex 8.796530e+000 6.514537e+000 0.000000e+000
         vertex 8.541327e+000 6.855448e+000 1.000000e+001
         vertex 8.541327e+000 6.855448e+000 0.000000e+000
      endloop
   endfacet
   facet normal -7.237589e-001 -6.900530e-001 0.000000e+000
      outer loop
         vertex 8.541327e+000 6.855448e+000 0.000000e+000
         vertex 8.541327e+000 6.855448e+000 1.000000e+001
         vertex 8.240206e+000 7.156569e+000 1.000000e+001
      endloop
   endfacet
   facet normal -6.900530e-001 -7.237589e-001 0.000000e+000
      outer loop
         vertex 8.541327e+000 6.855448e+000 0.000000e+000
         vertex 8.240206e+000 7.156569e+000 1.000000e+001
         vertex 8.240206e+000 7.156569e+000 0.000000e+000
      endloop
   endfacet
   facet normal -6.181873e-001 -7.860308e-001 0.000000e+000
      outer loop
         vertex 8.240206e+000 7.156569e+000 0.000000e+000
         vertex 8.240206e+000 7.156569e+000 1.000000e+001
         vertex 7.899295e+000 7.411771e+000 1.000000e+001
      endloop
   endfacet
   facet normal -5.800276e-001 -8.145968e-001 0.000000e+000
      outer loop
         vertex 8.240206e+000 7.156569e+000 0.000000e+000
         vertex 7.899295e+000 7.411771e+000 1.000000e+001
         vertex 7.899295e+000 7.411771e+000 0.000000e+000
      endloop
   endfacet
   facet normal -5.000312e-001 -8.660074e-001 0.000000e+000
      outer loop
         vertex 7.899295e+000 7.411771e+000 0.000000e+000
         vertex 7.899295e+000 7.411771e+000 1.000000e+001
         vertex 7.525536e+000 7.615860e+000 1.000000e+001
      endloop
   endfacet
   facet normal -4.581946e-001 -8.888519e-001 0.000000e+000
      outer loop
         vertex 7.899295e+000 7.411771e+000 0.000000e+000
         vertex 7.525536e+000 7.615860e+000 1.000000e+001
         vertex 7.525536e+000 7.615860e+000 0.000000e+000
      endloop
   endfacet
   facet normal -3.716959e-001 -9.283545e-001 0.000000e+000
      outer loop
         vertex 7.525536e+000 7.615860e+000 0.000000e+000
         vertex 7.525536e+000 7.615860e+000 1.000000e+001
         vertex 7.126536e+000 7.764679e+000 1.000000e+001
      endloop
   endfacet
   facet normal -3.270340e-001 -9.450126e-001 0.000000e+000
      outer loop
         vertex 7.525536e+000 7.615860e+000 0.000000e+000
         vertex 7.126536e+000 7.764679e+000 1.000000e+001
         vertex 7.126536e+000 7.764679e+000 0.000000e+000
      endloop
   endfacet
   facet normal -2.357940e-001 -9.718031e-001 0.000000e+000
      outer loop
         vertex 7.126536e+000 7.764679e+000 0.000000e+000
         vertex 7.126536e+000 7.764679e+000 1.000000e+001
         vertex 6.710419e+000 7.855200e+000 1.000000e+001
      endloop
   endfacet
   facet normal -1.892159e-001 -9.819355e-001 0.000000e+000
      outer loop
         vertex 7.126536e+000 7.764679e+000 0.000000e+000
         vertex 6.710419e+000 7.855200e+000 1.000000e+001
         vertex 6.710419e+000 7.855200e+000 0.000000e+000
      endloop
   endfacet
   facet normal -9.509189e-002 -9.954685e-001 0.000000e+000
      outer loop
         vertex 6.710419e+000 7.855200e+000 0.000000e+000
         vertex 6.710419e+000 7.855200e+000 1.000000e+001
         vertex 6.285654e+000 7.885580e+000 1.000000e+001
      endloop
   endfacet
   facet normal -4.754595e-002 -9.988691e-001 0.000000e+000
      outer loop
         vertex 6.710419e+000 7.855200e+000 0.000000e+000
         vertex 6.285654e+000 7.885580e+000 1.000000e+001
         vertex 6.285654e+000 7.885580e+000 0.000000e+000
      endloop
   endfacet
   facet normal 0.000000e+000 1.000000e+000 0.000000e+000
      outer loop
         vertex 6.285654e+000 1.916210e+000 0.000000e+000
         vertex 3.728573e+000 1.916210e+000 0.000000e+000
         vertex 6.285654e+000 1.916210e+000 1.000000e+001
      endloop
   endfacet
   facet normal 0.000000e+000 1.000000e+000 0.000000e+000
      outer loop
         vertex 6.285654e+000 1.916210e+000 1.000000e+001
         vertex 3.728573e+000 1.916210e+000 0.000000e+000
         vertex 3.728573e+000 1.916210e+000 1.000000e+001
      endloop
   endfacet
endsolid