solid 11_678
   facet normal -1.000000e+000 0.000000e+000 0.000000e+000
      outer loop
         vertex 0.000000e+000 1.000000e+001 1.000000e+001
         vertex 0.000000e+000 1.000000e+001 0.000000e+000
         vertex 0.000000e+000 0.000000e+000 1.000000e+001
      endloop
   endfacet
   facet normal -1.000000e+000 0.000000e+000 0.000000e+000
      outer loop
         vertex 0.000000e+000 0.000000e+000 1.000000e+001
         vertex 0.000000e+000 1.000000e+001 0.000000e+000
         vertex 0.000000e+000 0.000000e+000 0.000000e+000
      endloop
   endfacet
   facet normal 0.000000e+000 0.000000e+000 1.000000e+000
      outer loop
         vertex 3.230880e+000 8.598028e+000 1.000000e+001
         vertex 3.618302e+000 8.750080e+000 1.000000e+001
         vertex 0.000000e+000 1.000000e+001 1.000000e+001
      endloop
   endfacet
   facet normal 0.000000e+000 0.000000e+000 1.000000e+000
      outer loop
         vertex 8.523545e+000 7.481474e+000 1.000000e+001
         vertex 8.704124e+000 7.106497e+000 1.000000e+001
         vertex 1.000000e+001 1.000000e+001 1.000000e+001
      endloop
   endfacet
   facet normal 0.000000e+000 0.000000e+000 1.000000e+000
      outer loop
         vertex 1.000000e+001 1.000000e+001 1.000000e+001
         vertex 8.704124e+000 7.106497e+000 1.000000e+001
         vertex 8.826799e+000 6.708795e+000 1.000000e+001
      endloop
   endfacet
   facet normal 0.000000e+000 0.000000e+000 1.000000e+000
      outer loop
         vertex 4.024060e+000 3.335618e+000 1.000000e+001
         vertex 3.618302e+000 3.428229e+000 1.000000e+001
         vertex 0.000000e+000 0.000000e+000 1.000000e+001
      endloop
   endfacet
   facet normal 0.000000e+000 0.000000e+000 1.000000e+000
      outer loop
         vertex 6.527006e+000 8.842691e+000 1.000000e+001
         vertex 6.932764e+000 8.750080e+000 1.000000e+001
         vertex 1.000000e+001 1.000000e+001 1.000000e+001
      endloop
   endfacet
   facet normal 0.000000e+000 0.000000e+000 1.000000e+000
      outer loop
         vertex 1.000000e+001 1.000000e+001 1.000000e+001
         vertex 6.932764e+000 8.750080e+000 1.000000e+001
         vertex 7.320187e+000 8.598028e+000 1.000000e+001
      endloop
   endfacet
   facet normal 0.000000e+000 0.000000e+000 1.000000e+000
      outer loop
         vertex 1.000000e+001 1.000000e+001 1.000000e+001
         vertex 7.320187e+000 8.598028e+000 1.000000e+001
         vertex 7.680620e+000 8.389931e+000 1.000000e+001
      endloop
   endfacet
   facet normal 0.000000e+000 0.000000e+000 1.000000e+000
      outer loop
         vertex 7.680620e+000 8.389931e+000 1.000000e+001
         vertex 8.006013e+000 8.130440e+000 1.000000e+001
         vertex 1.000000e+001 1.000000e+001 1.000000e+001
      endloop
   endfacet
   facet normal 0.000000e+000 0.000000e+000 1.000000e+000
      outer loop
         vertex 1.000000e+001 1.000000e+001 1.000000e+001
         vertex 8.006013e+000 8.130440e+000 1.000000e+001
         vertex 8.289096e+000 7.825348e+000 1.000000e+001
      endloop
   endfacet
   facet normal 0.000000e+000 0.000000e+000 1.000000e+000
      outer loop
         vertex 1.000000e+001 1.000000e+001 1.000000e+001
         vertex 8.289096e+000 7.825348e+000 1.000000e+001
         vertex 8.523545e+000 7.481474e+000 1.000000e+001
      endloop
   endfacet
   facet normal 0.000000e+000 0.000000e+000 1.000000e+000
      outer loop
         vertex 8.826799e+000 6.708795e+000 1.000000e+001
         vertex 8.888829e+000 6.297251e+000 1.000000e+001
         vertex 1.000000e+001 1.000000e+001 1.000000e+001
      endloop
   endfacet
   facet normal 0.000000e+000 0.000000e+000 1.000000e+000
      outer loop
         vertex 1.000000e+001 1.000000e+001 1.000000e+001
         vertex 8.888829e+000 6.297251e+000 1.000000e+001
         vertex 8.888829e+000 5.881058e+000 1.000000e+001
      endloop
   endfacet
   facet normal 0.000000e+000 0.000000e+000 1.000000e+000
      outer loop
         vertex 1.000000e+001 1.000000e+001 1.000000e+001
         vertex 8.888829e+000 5.881058e+000 1.000000e+001
         vertex 1.000000e+001 0.000000e+000 1.000000e+001
      endloop
   endfacet
   facet normal 0.000000e+000 0.000000e+000 1.000000e+000
      outer loop
         vertex 1.000000e+001 0.000000e+000 1.000000e+001
         vertex 8.888829e+000 5.881058e+000 1.000000e+001
         vertex 8.826799e+000 5.469514e+000 1.000000e+001
      endloop
   endfacet
   facet normal 0.000000e+000 0.000000e+000 1.000000e+000
      outer loop
         vertex 1.000000e+001 0.000000e+000 1.000000e+001
         vertex 8.826799e+000 5.469514e+000 1.000000e+001
         vertex 8.704124e+000 5.071811e+000 1.000000e+001
      endloop
   endfacet
   facet normal 0.000000e+000 0.000000e+000 1.000000e+000
      outer loop
         vertex 8.704124e+000 5.071811e+000 1.000000e+001
         vertex 8.523545e+000 4.696835e+000 1.000000e+001
         vertex 1.000000e+001 0.000000e+000 1.000000e+001
      endloop
   endfacet
   facet normal 0.000000e+000 0.000000e+000 1.000000e+000
      outer loop
         vertex 1.000000e+001 0.000000e+000 1.000000e+001
         vertex 8.523545e+000 4.696835e+000 1.000000e+001
         vertex 8.289096e+000 4.352960e+000 1.000000e+001
      endloop
   endfacet
   facet normal 0.000000e+000 0.000000e+000 1.000000e+000
      outer loop
         vertex 1.000000e+001 0.000000e+000 1.000000e+001
         vertex 8.289096e+000 4.352960e+000 1.000000e+001
         vertex 8.006013e+000 4.047870e+000 1.000000e+001
      endloop
   endfacet
   facet normal 0.000000e+000 0.000000e+000 1.000000e+000
      outer loop
         vertex 3.618302e+000 8.750080e+000 1.000000e+001
         vertex 4.024060e+000 8.842691e+000 1.000000e+001
         vertex 0.000000e+000 1.000000e+001 1.000000e+001
      endloop
   endfacet
   facet normal 0.000000e+000 0.000000e+000 1.000000e+000
      outer loop
         vertex 0.000000e+000 1.000000e+001 1.000000e+001
         vertex 4.024060e+000 8.842691e+000 1.000000e+001
         vertex 4.439089e+000 8.873794e+000 1.000000e+001
      endloop
   endfacet
   facet normal 0.000000e+000 0.000000e+000 1.000000e+000
      outer loop
         vertex 0.000000e+000 1.000000e+001 1.000000e+001
         vertex 4.439089e+000 8.873794e+000 1.000000e+001
         vertex 1.000000e+001 1.000000e+001 1.000000e+001
      endloop
   endfacet
   facet normal 0.000000e+000 0.000000e+000 1.000000e+000
      outer loop
         vertex 1.000000e+001 1.000000e+001 1.000000e+001
         vertex 4.439089e+000 8.873794e+000 1.000000e+001
         vertex 6.111977e+000 8.873794e+000 1.000000e+001
      endloop
   endfacet
   facet normal 0.000000e+000 0.000000e+000 1.000000e+000
      outer loop
         vertex 1.000000e+001 1.000000e+001 1.000000e+001
         vertex 6.111977e+000 8.873794e+000 1.000000e+001
         vertex 6.527006e+000 8.842691e+000 1.000000e+001
      endloop
   endfacet
   facet normal 0.000000e+000 0.000000e+000 1.000000e+000
      outer loop
         vertex 3.618302e+000 3.428229e+000 1.000000e+001
         vertex 3.230880e+000 3.580281e+000 1.000000e+001
         vertex 0.000000e+000 0.000000e+000 1.000000e+001
      endloop
   endfacet
   facet normal 0.000000e+000 0.000000e+000 1.000000e+000
      outer loop
         vertex 0.000000e+000 0.000000e+000 1.000000e+001
         vertex 3.230880e+000 3.580281e+000 1.000000e+001
         vertex 2.870446e+000 3.788378e+000 1.000000e+001
      endloop
   endfacet
   facet normal 0.000000e+000 0.000000e+000 1.000000e+000
      outer loop
         vertex 0.000000e+000 0.000000e+000 1.000000e+001
         vertex 2.870446e+000 3.788378e+000 1.000000e+001
         vertex 2.545054e+000 4.047870e+000 1.000000e+001
      endloop
   endfacet
   facet normal 0.000000e+000 0.000000e+000 1.000000e+000
      outer loop
         vertex 8.006013e+000 4.047870e+000 1.000000e+001
         vertex 7.680620e+000 3.788378e+000 1.000000e+001
         vertex 1.000000e+001 0.000000e+000 1.000000e+001
      endloop
   endfacet
   facet normal 0.000000e+000 0.000000e+000 1.000000e+000
      outer loop
         vertex 1.000000e+001 0.000000e+000 1.000000e+001
         vertex 7.680620e+000 3.788378e+000 1.000000e+001
         vertex 7.320187e+000 3.580281e+000 1.000000e+001
      endloop
   endfacet
   facet normal 0.000000e+000 0.000000e+000 1.000000e+000
      outer loop
         vertex 1.000000e+001 0.000000e+000 1.000000e+001
         vertex 7.320187e+000 3.580281e+000 1.000000e+001
         vertex 6.932764e+000 3.428229e+000 1.000000e+001
      endloop
   endfacet
   facet normal 0.000000e+000 0.000000e+000 1.000000e+000
      outer loop
         vertex 2.545054e+000 4.047870e+000 1.000000e+001
         vertex 2.261971e+000 4.352960e+000 1.000000e+001
         vertex 0.000000e+000 0.000000e+000 1.000000e+001
      endloop
   endfacet
   facet normal 0.000000e+000 0.000000e+000 1.000000e+000
      outer loop
         vertex 0.000000e+000 0.000000e+000 1.000000e+001
         vertex 2.261971e+000 4.352960e+000 1.000000e+001
         vertex 2.027521e+000 4.696835e+000 1.000000e+001
      endloop
   endfacet
   facet normal 0.000000e+000 0.000000e+000 1.000000e+000
      outer loop
         vertex 0.000000e+000 0.000000e+000 1.000000e+001
         vertex 2.027521e+000 4.696835e+000 1.000000e+001
         vertex 1.846942e+000 5.071811e+000 1.000000e+001
      endloop
   endfacet
   facet normal 0.000000e+000 0.000000e+000 1.000000e+000
      outer loop
         vertex 6.932764e+000 3.428229e+000 1.000000e+001
         vertex 6.527006e+000 3.335618e+000 1.000000e+001
         vertex 1.000000e+001 0.000000e+000 1.000000e+001
      endloop
   endfacet
   facet normal 0.000000e+000 0.000000e+000 1.000000e+000
      outer loop
         vertex 1.000000e+001 0.000000e+000 1.000000e+001
         vertex 6.527006e+000 3.335618e+000 1.000000e+001
         vertex 6.111977e+000 3.304515e+000 1.000000e+001
      endloop
   endfacet
   facet normal 0.000000e+000 0.000000e+000 1.000000e+000
      outer loop
         vertex 1.000000e+001 0.000000e+000 1.000000e+001
         vertex 6.111977e+000 3.304515e+000 1.000000e+001
         vertex 0.000000e+000 0.000000e+000 1.000000e+001
      endloop
   endfacet
   facet normal 0.000000e+000 0.000000e+000 1.000000e+000
      outer loop
         vertex 0.000000e+000 0.000000e+000 1.000000e+001
         vertex 6.111977e+000 3.304515e+000 1.000000e+001
         vertex 4.439089e+000 3.304515e+000 1.000000e+001
      endloop
   endfacet
   facet normal 0.000000e+000 0.000000e+000 1.000000e+000
      outer loop
         vertex 0.000000e+000 0.000000e+000 1.000000e+001
         vertex 4.439089e+000 3.304515e+000 1.000000e+001
         vertex 4.024060e+000 3.335618e+000 1.000000e+001
      endloop
   endfacet
   facet normal 0.000000e+000 0.000000e+000 1.000000e+000
      outer loop
         vertex 1.724267e+000 6.708795e+000 1.000000e+001
         vertex 1.846942e+000 7.106497e+000 1.000000e+001
         vertex 0.000000e+000 1.000000e+001 1.000000e+001
      endloop
   endfacet
   facet normal 0.000000e+000 0.000000e+000 1.000000e+000
      outer loop
         vertex 0.000000e+000 1.000000e+001 1.000000e+001
         vertex 1.846942e+000 7.106497e+000 1.000000e+001
         vertex 2.027521e+000 7.481474e+000 1.000000e+001
      endloop
   endfacet
   facet normal 0.000000e+000 0.000000e+000 1.000000e+000
      outer loop
         vertex 0.000000e+000 1.000000e+001 1.000000e+001
         vertex 2.027521e+000 7.481474e+000 1.000000e+001
         vertex 2.261971e+000 7.825348e+000 1.000000e+001
      endloop
   endfacet
   facet normal 0.000000e+000 0.000000e+000 1.000000e+000
      outer loop
         vertex 2.261971e+000 7.825348e+000 1.000000e+001
         vertex 2.545054e+000 8.130440e+000 1.000000e+001
         vertex 0.000000e+000 1.000000e+001 1.000000e+001
      endloop
   endfacet
   facet normal 0.000000e+000 0.000000e+000 1.000000e+000
      outer loop
         vertex 0.000000e+000 1.000000e+001 1.000000e+001
         vertex 2.545054e+000 8.130440e+000 1.000000e+001
         vertex 2.870446e+000 8.389931e+000 1.000000e+001
      endloop
   endfacet
   facet normal 0.000000e+000 0.000000e+000 1.000000e+000
      outer loop
         vertex 0.000000e+000 1.000000e+001 1.000000e+001
         vertex 2.870446e+000 8.389931e+000 1.000000e+001
         vertex 3.230880e+000 8.598028e+000 1.000000e+001
      endloop
   endfacet
   facet normal 0.000000e+000 0.000000e+000 1.000000e+000
      outer loop
         vertex 1.846942e+000 5.071811e+000 1.000000e+001
         vertex 1.724267e+000 5.469514e+000 1.000000e+001
         vertex 0.000000e+000 0.000000e+000 1.000000e+001
      endloop
   endfacet
   facet normal 0.000000e+000 0.000000e+000 1.000000e+000
      outer loop
         vertex 0.000000e+000 0.000000e+000 1.000000e+001
         vertex 1.724267e+000 5.469514e+000 1.000000e+001
         vertex 1.662236e+000 5.881058e+000 1.000000e+001
      endloop
   endfacet
   facet normal 0.000000e+000 0.000000e+000 1.000000e+000
      outer loop
         vertex 0.000000e+000 0.000000e+000 1.000000e+001
         vertex 1.662236e+000 5.881058e+000 1.000000e+001
         vertex 0.000000e+000 1.000000e+001 1.000000e+001
      endloop
   endfacet
   facet normal 0.000000e+000 0.000000e+000 1.000000e+000
      outer loop
         vertex 0.000000e+000 1.000000e+001 1.000000e+001
         vertex 1.662236e+000 5.881058e+000 1.000000e+001
         vertex 1.662236e+000 6.297251e+000 1.000000e+001
      endloop
   endfacet
   facet normal 0.000000e+000 0.000000e+000 1.000000e+000
      outer loop
         vertex 0.000000e+000 1.000000e+001 1.000000e+001
         vertex 1.662236e+000 6.297251e+000 1.000000e+001
         vertex 1.724267e+000 6.708795e+000 1.000000e+001
      endloop
   endfacet
   facet normal 1.000000e+000 0.000000e+000 0.000000e+000
      outer loop
         vertex 1.000000e+001 1.000000e+001 0.000000e+000
         vertex 1.000000e+001 1.000000e+001 1.000000e+001
         vertex 1.000000e+001 0.000000e+000 0.000000e+000
      endloop
   endfacet
   facet normal 1.000000e+000 0.000000e+000 0.000000e+000
      outer loop
         vertex 1.000000e+001 0.000000e+000 0.000000e+000
         vertex 1.000000e+001 1.000000e+001 1.000000e+001
         vertex 1.000000e+001 0.000000e+000 1.000000e+001
      endloop
   endfacet
   facet normal 0.000000e+000 0.000000e+000 -1.000000e+000
      outer loop
         vertex 8.826799e+000 6.708795e+000 0.000000e+000
         vertex 8.704124e+000 7.106497e+000 0.000000e+000
         vertex 1.000000e+001 1.000000e+001 0.000000e+000
      endloop
   endfacet
   facet normal 0.000000e+000 0.000000e+000 -1.000000e+000
      outer loop
         vertex 1.000000e+001 1.000000e+001 0.000000e+000
         vertex 8.704124e+000 7.106497e+000 0.000000e+000
         vertex 8.523545e+000 7.481474e+000 0.000000e+000
      endloop
   endfacet
   facet normal 0.000000e+000 0.000000e+000 -1.000000e+000
      outer loop
         vertex 8.523545e+000 7.481474e+000 0.000000e+000
         vertex 8.289096e+000 7.825348e+000 0.000000e+000
         vertex 1.000000e+001 1.000000e+001 0.000000e+000
      endloop
   endfacet
   facet normal 0.000000e+000 0.000000e+000 -1.000000e+000
      outer loop
         vertex 1.000000e+001 1.000000e+001 0.000000e+000
         vertex 8.289096e+000 7.825348e+000 0.000000e+000
         vertex 8.006013e+000 8.130440e+000 0.000000e+000
      endloop
   endfacet
   facet normal 0.000000e+000 0.000000e+000 -1.000000e+000
      outer loop
         vertex 1.000000e+001 1.000000e+001 0.000000e+000
         vertex 8.006013e+000 8.130440e+000 0.000000e+000
         vertex 7.680620e+000 8.389931e+000 0.000000e+000
      endloop
   endfacet
   facet normal 0.000000e+000 0.000000e+000 -1.000000e+000
      outer loop
         vertex 7.680620e+000 8.389931e+000 0.000000e+000
         vertex 7.320187e+000 8.598028e+000 0.000000e+000
         vertex 1.000000e+001 1.000000e+001 0.000000e+000
      endloop
   endfacet
   facet normal 0.000000e+000 0.000000e+000 -1.000000e+000
      outer loop
         vertex 1.000000e+001 1.000000e+001 0.000000e+000
         vertex 7.320187e+000 8.598028e+000 0.000000e+000
         vertex 6.932764e+000 8.750080e+000 0.000000e+000
      endloop
   endfacet
   facet normal 0.000000e+000 0.000000e+000 -1.000000e+000
      outer loop
         vertex 1.000000e+001 1.000000e+001 0.000000e+000
         vertex 6.932764e+000 8.750080e+000 0.000000e+000
         vertex 6.527006e+000 8.842691e+000 0.000000e+000
      endloop
   endfacet
   facet normal 0.000000e+000 0.000000e+000 -1.000000e+000
      outer loop
         vertex 3.618302e+000 8.750080e+000 0.000000e+000
         vertex 3.230880e+000 8.598028e+000 0.000000e+000
         vertex 0.000000e+000 1.000000e+001 0.000000e+000
      endloop
   endfacet
   facet normal 0.000000e+000 0.000000e+000 -1.000000e+000
      outer loop
         vertex 0.000000e+000 1.000000e+001 0.000000e+000
         vertex 3.230880e+000 8.598028e+000 0.000000e+000
         vertex 2.870446e+000 8.389931e+000 0.000000e+000
      endloop
   endfacet
   facet normal 0.000000e+000 0.000000e+000 -1.000000e+000
      outer loop
         vertex 0.000000e+000 1.000000e+001 0.000000e+000
         vertex 2.870446e+000 8.389931e+000 0.000000e+000
         vertex 2.545054e+000 8.130440e+000 0.000000e+000
      endloop
   endfacet
   facet normal 0.000000e+000 0.000000e+000 -1.000000e+000
      outer loop
         vertex 0.000000e+000 1.000000e+001 0.000000e+000
         vertex 1.846942e+000 7.106497e+000 0.000000e+000
         vertex 1.724267e+000 6.708795e+000 0.000000e+000
      endloop
   endfacet
   facet normal 0.000000e+000 0.000000e+000 -1.000000e+000
      outer loop
         vertex 2.545054e+000 4.047870e+000 0.000000e+000
         vertex 2.870446e+000 3.788378e+000 0.000000e+000
         vertex 0.000000e+000 0.000000e+000 0.000000e+000
      endloop
   endfacet
   facet normal 0.000000e+000 0.000000e+000 -1.000000e+000
      outer loop
         vertex 0.000000e+000 0.000000e+000 0.000000e+000
         vertex 2.870446e+000 3.788378e+000 0.000000e+000
         vertex 3.230880e+000 3.580281e+000 0.000000e+000
      endloop
   endfacet
   facet normal 0.000000e+000 0.000000e+000 -1.000000e+000
      outer loop
         vertex 0.000000e+000 0.000000e+000 0.000000e+000
         vertex 3.230880e+000 3.580281e+000 0.000000e+000
         vertex 3.618302e+000 3.428229e+000 0.000000e+000
      endloop
   endfacet
   facet normal 0.000000e+000 0.000000e+000 -1.000000e+000
      outer loop
         vertex 1.000000e+001 0.000000e+000 0.000000e+000
         vertex 6.527006e+000 3.335618e+000 0.000000e+000
         vertex 6.932764e+000 3.428229e+000 0.000000e+000
      endloop
   endfacet
   facet normal 0.000000e+000 0.000000e+000 -1.000000e+000
      outer loop
         vertex 2.545054e+000 8.130440e+000 0.000000e+000
         vertex 2.261971e+000 7.825348e+000 0.000000e+000
         vertex 0.000000e+000 1.000000e+001 0.000000e+000
      endloop
   endfacet
   facet normal 0.000000e+000 0.000000e+000 -1.000000e+000
      outer loop
         vertex 0.000000e+000 1.000000e+001 0.000000e+000
         vertex 2.261971e+000 7.825348e+000 0.000000e+000
         vertex 2.027521e+000 7.481474e+000 0.000000e+000
      endloop
   endfacet
   facet normal 0.000000e+000 0.000000e+000 -1.000000e+000
      outer loop
         vertex 0.000000e+000 1.000000e+001 0.000000e+000
         vertex 2.027521e+000 7.481474e+000 0.000000e+000
         vertex 1.846942e+000 7.106497e+000 0.000000e+000
      endloop
   endfacet
   facet normal 0.000000e+000 0.000000e+000 -1.000000e+000
      outer loop
         vertex 1.724267e+000 6.708795e+000 0.000000e+000
         vertex 1.662236e+000 6.297251e+000 0.000000e+000
         vertex 0.000000e+000 1.000000e+001 0.000000e+000
      endloop
   endfacet
   facet normal 0.000000e+000 0.000000e+000 -1.000000e+000
      outer loop
         vertex 0.000000e+000 1.000000e+001 0.000000e+000
         vertex 1.662236e+000 6.297251e+000 0.000000e+000
         vertex 1.662236e+000 5.881058e+000 0.000000e+000
      endloop
   endfacet
   facet normal 0.000000e+000 0.000000e+000 -1.000000e+000
      outer loop
         vertex 0.000000e+000 1.000000e+001 0.000000e+000
         vertex 1.662236e+000 5.881058e+000 0.000000e+000
         vertex 0.000000e+000 0.000000e+000 0.000000e+000
      endloop
   endfacet
   facet normal 0.000000e+000 0.000000e+000 -1.000000e+000
      outer loop
         vertex 0.000000e+000 0.000000e+000 0.000000e+000
         vertex 1.662236e+000 5.881058e+000 0.000000e+000
         vertex 1.724267e+000 5.469514e+000 0.000000e+000
      endloop
   endfacet
   facet normal 0.000000e+000 0.000000e+000 -1.000000e+000
      outer loop
         vertex 0.000000e+000 0.000000e+000 0.000000e+000
         vertex 1.724267e+000 5.469514e+000 0.000000e+000
         vertex 1.846942e+000 5.071811e+000 0.000000e+000
      endloop
   endfacet
   facet normal 0.000000e+000 0.000000e+000 -1.000000e+000
      outer loop
         vertex 1.846942e+000 5.071811e+000 0.000000e+000
         vertex 2.027521e+000 4.696835e+000 0.000000e+000
         vertex 0.000000e+000 0.000000e+000 0.000000e+000
      endloop
   endfacet
   facet normal 0.000000e+000 0.000000e+000 -1.000000e+000
      outer loop
         vertex 0.000000e+000 0.000000e+000 0.000000e+000
         vertex 2.027521e+000 4.696835e+000 0.000000e+000
         vertex 2.261971e+000 4.352960e+000 0.000000e+000
      endloop
   endfacet
   facet normal 0.000000e+000 0.000000e+000 -1.000000e+000
      outer loop
         vertex 0.000000e+000 0.000000e+000 0.000000e+000
         vertex 2.261971e+000 4.352960e+000 0.000000e+000
         vertex 2.545054e+000 4.047870e+000 0.000000e+000
      endloop
   endfacet
   facet normal 0.000000e+000 0.000000e+000 -1.000000e+000
      outer loop
         vertex 8.006013e+000 4.047870e+000 0.000000e+000
         vertex 8.289096e+000 4.352960e+000 0.000000e+000
         vertex 1.000000e+001 0.000000e+000 0.000000e+000
      endloop
   endfacet
   facet normal 0.000000e+000 0.000000e+000 -1.000000e+000
      outer loop
         vertex 1.000000e+001 0.000000e+000 0.000000e+000
         vertex 8.289096e+000 4.352960e+000 0.000000e+000
         vertex 8.523545e+000 4.696835e+000 0.000000e+000
      endloop
   endfacet
   facet normal 0.000000e+000 0.000000e+000 -1.000000e+000
      outer loop
         vertex 1.000000e+001 0.000000e+000 0.000000e+000
         vertex 8.523545e+000 4.696835e+000 0.000000e+000
         vertex 8.704124e+000 5.071811e+000 0.000000e+000
      endloop
   endfacet
   facet normal 0.000000e+000 0.000000e+000 -1.000000e+000
      outer loop
         vertex 6.527006e+000 8.842691e+000 0.000000e+000
         vertex 6.111977e+000 8.873794e+000 0.000000e+000
         vertex 1.000000e+001 1.000000e+001 0.000000e+000
      endloop
   endfacet
   facet normal 0.000000e+000 0.000000e+000 -1.000000e+000
      outer loop
         vertex 1.000000e+001 1.000000e+001 0.000000e+000
         vertex 6.111977e+000 8.873794e+000 0.000000e+000
         vertex 4.439089e+000 8.873794e+000 0.000000e+000
      endloop
   endfacet
   facet normal 0.000000e+000 0.000000e+000 -1.000000e+000
      outer loop
         vertex 1.000000e+001 1.000000e+001 0.000000e+000
         vertex 4.439089e+000 8.873794e+000 0.000000e+000
         vertex 0.000000e+000 1.000000e+001 0.000000e+000
      endloop
   endfacet
   facet normal 0.000000e+000 0.000000e+000 -1.000000e+000
      outer loop
         vertex 0.000000e+000 1.000000e+001 0.000000e+000
         vertex 4.439089e+000 8.873794e+000 0.000000e+000
         vertex 4.024060e+000 8.842691e+000 0.000000e+000
      endloop
   endfacet
   facet normal 0.000000e+000 0.000000e+000 -1.000000e+000
      outer loop
         vertex 0.000000e+000 1.000000e+001 0.000000e+000
         vertex 4.024060e+000 8.842691e+000 0.000000e+000
         vertex 3.618302e+000 8.750080e+000 0.000000e+000
      endloop
   endfacet
   facet normal 0.000000e+000 0.000000e+000 -1.000000e+000
      outer loop
         vertex 6.932764e+000 3.428229e+000 0.000000e+000
         vertex 7.320187e+000 3.580281e+000 0.000000e+000
         vertex 1.000000e+001 0.000000e+000 0.000000e+000
      endloop
   endfacet
   facet normal 0.000000e+000 0.000000e+000 -1.000000e+000
      outer loop
         vertex 1.000000e+001 0.000000e+000 0.000000e+000
         vertex 7.320187e+000 3.580281e+000 0.000000e+000
         vertex 7.680620e+000 3.788378e+000 0.000000e+000
      endloop
   endfacet
   facet normal 0.000000e+000 0.000000e+000 -1.000000e+000
      outer loop
         vertex 1.000000e+001 0.000000e+000 0.000000e+000
         vertex 7.680620e+000 3.788378e+000 0.000000e+000
         vertex 8.006013e+000 4.047870e+000 0.000000e+000
      endloop
   endfacet
   facet normal 0.000000e+000 0.000000e+000 -1.000000e+000
      outer loop
         vertex 3.618302e+000 3.428229e+000 0.000000e+000
         vertex 4.024060e+000 3.335618e+000 0.000000e+000
         vertex 0.000000e+000 0.000000e+000 0.000000e+000
      endloop
   endfacet
   facet normal 0.000000e+000 0.000000e+000 -1.000000e+000
      outer loop
         vertex 0.000000e+000 0.000000e+000 0.000000e+000
         vertex 4.024060e+000 3.335618e+000 0.000000e+000
         vertex 4.439089e+000 3.304515e+000 0.000000e+000
      endloop
   endfacet
   facet normal 0.000000e+000 0.000000e+000 -1.000000e+000
      outer loop
         vertex 0.000000e+000 0.000000e+000 0.000000e+000
         vertex 4.439089e+000 3.304515e+000 0.000000e+000
         vertex 1.000000e+001 0.000000e+000 0.000000e+000
      endloop
   endfacet
   facet normal 0.000000e+000 0.000000e+000 -1.000000e+000
      outer loop
         vertex 1.000000e+001 0.000000e+000 0.000000e+000
         vertex 4.439089e+000 3.304515e+000 0.000000e+000
         vertex 6.111977e+000 3.304515e+000 0.000000e+000
      endloop
   endfacet
   facet normal 0.000000e+000 0.000000e+000 -1.000000e+000
      outer loop
         vertex 1.000000e+001 0.000000e+000 0.000000e+000
         vertex 6.111977e+000 3.304515e+000 0.000000e+000
         vertex 6.527006e+000 3.335618e+000 0.000000e+000
      endloop
   endfacet
   facet normal 0.000000e+000 0.000000e+000 -1.000000e+000
      outer loop
         vertex 8.704124e+000 5.071811e+000 0.000000e+000
         vertex 8.826799e+000 5.469514e+000 0.000000e+000
         vertex 1.000000e+001 0.000000e+000 0.000000e+000
      endloop
   endfacet
   facet normal 0.000000e+000 0.000000e+000 -1.000000e+000
      outer loop
         vertex 1.000000e+001 0.000000e+000 0.000000e+000
         vertex 8.826799e+000 5.469514e+000 0.000000e+000
         vertex 8.888829e+000 5.881058e+000 0.000000e+000
      endloop
   endfacet
   facet normal 0.000000e+000 0.000000e+000 -1.000000e+000
      outer loop
         vertex 1.000000e+001 0.000000e+000 0.000000e+000
         vertex 8.888829e+000 5.881058e+000 0.000000e+000
         vertex 1.000000e+001 1.000000e+001 0.000000e+000
      endloop
   endfacet
   facet normal 0.000000e+000 0.000000e+000 -1.000000e+000
      outer loop
         vertex 1.000000e+001 1.000000e+001 0.000000e+000
         vertex 8.888829e+000 5.881058e+000 0.000000e+000
         vertex 8.888829e+000 6.297251e+000 0.000000e+000
      endloop
   endfacet
   facet normal 0.000000e+000 0.000000e+000 -1.000000e+000
      outer loop
         vertex 1.000000e+001 1.000000e+001 0.000000e+000
         vertex 8.888829e+000 6.297251e+000 0.000000e+000
         vertex 8.826799e+000 6.708795e+000 0.000000e+000
      endloop
   endfacet
   facet normal 0.000000e+000 1.000000e+000 0.000000e+000
      outer loop
         vertex 1.000000e+001 1.000000e+001 1.000000e+001
         vertex 1.000000e+001 1.000000e+001 0.000000e+000
         vertex 0.000000e+000 1.000000e+001 1.000000e+001
      endloop
   endfacet
   facet normal 0.000000e+000 1.000000e+000 0.000000e+000
      outer loop
         vertex 0.000000e+000 1.000000e+001 1.000000e+001
         vertex 1.000000e+001 1.000000e+001 0.000000e+000
         vertex 0.000000e+000 1.000000e+001 0.000000e+000
      endloop
   endfacet
   facet normal 0.000000e+000 -1.000000e+000 0.000000e+000
      outer loop
         vertex 1.000000e+001 0.000000e+000 0.000000e+000
         vertex 1.000000e+001 0.000000e+000 1.000000e+001
         vertex 0.000000e+000 0.000000e+000 0.000000e+000
      endloop
   endfacet
   facet normal 0.000000e+000 -1.000000e+000 0.000000e+000
      outer loop
         vertex 0.000000e+000 0.000000e+000 0.000000e+000
         vertex 1.000000e+001 0.000000e+000 1.000000e+001
         vertex 0.000000e+000 0.000000e+000 1.000000e+001
      endloop
   endfacet
   facet normal 4.980453e-002 -9.987590e-001 0.000000e+000
      outer loop
         vertex 4.439089e+000 8.873794e+000 0.000000e+000
         vertex 4.439089e+000 8.873794e+000 1.000000e+001
         vertex 4.024060e+000 8.842691e+000 1.000000e+001
      endloop
   endfacet
   facet normal 9.960905e-002 -9.950266e-001 0.000000e+000
      outer loop
         vertex 4.439089e+000 8.873794e+000 0.000000e+000
         vertex 4.024060e+000 8.842691e+000 1.000000e+001
         vertex 4.024060e+000 8.842691e+000 0.000000e+000
      endloop
   endfacet
   facet normal 1.981055e-001 -9.801807e-001 0.000000e+000
      outer loop
         vertex 4.024060e+000 8.842691e+000 0.000000e+000
         vertex 4.024060e+000 8.842691e+000 1.000000e+001
         vertex 3.618302e+000 8.750080e+000 1.000000e+001
      endloop
   endfacet
   facet normal 2.467975e-001 -9.690670e-001 0.000000e+000
      outer loop
         vertex 4.024060e+000 8.842691e+000 0.000000e+000
         vertex 3.618302e+000 8.750080e+000 1.000000e+001
         vertex 3.618302e+000 8.750080e+000 0.000000e+000
      endloop
   endfacet
   facet normal 3.419812e-001 -9.397067e-001 0.000000e+000
      outer loop
         vertex 3.618302e+000 8.750080e+000 0.000000e+000
         vertex 3.618302e+000 8.750080e+000 1.000000e+001
         vertex 3.230880e+000 8.598028e+000 1.000000e+001
      endloop
   endfacet
   facet normal 3.884729e-001 -9.214601e-001 0.000000e+000
      outer loop
         vertex 3.618302e+000 8.750080e+000 0.000000e+000
         vertex 3.230880e+000 8.598028e+000 1.000000e+001
         vertex 3.230880e+000 8.598028e+000 0.000000e+000
      endloop
   endfacet
   facet normal 4.782176e-001 -8.782414e-001 0.000000e+000
      outer loop
         vertex 3.230880e+000 8.598028e+000 0.000000e+000
         vertex 3.230880e+000 8.598028e+000 1.000000e+001
         vertex 2.870446e+000 8.389931e+000 1.000000e+001
      endloop
   endfacet
   facet normal 5.214705e-001 -8.532693e-001 0.000000e+000
      outer loop
         vertex 3.230880e+000 8.598028e+000 0.000000e+000
         vertex 2.870446e+000 8.389931e+000 1.000000e+001
         vertex 2.870446e+000 8.389931e+000 0.000000e+000
      endloop
   endfacet
   facet normal 6.037714e-001 -7.971576e-001 0.000000e+000
      outer loop
         vertex 2.870446e+000 8.389931e+000 0.000000e+000
         vertex 2.870446e+000 8.389931e+000 1.000000e+001
         vertex 2.545054e+000 8.130440e+000 1.000000e+001
      endloop
   endfacet
   facet normal 6.428193e-001 -7.660179e-001 0.000000e+000
      outer loop
         vertex 2.870446e+000 8.389931e+000 0.000000e+000
         vertex 2.545054e+000 8.130440e+000 1.000000e+001
         vertex 2.545054e+000 8.130440e+000 0.000000e+000
      endloop
   endfacet
   facet normal 7.158380e-001 -6.982664e-001 0.000000e+000
      outer loop
         vertex 2.545054e+000 8.130440e+000 0.000000e+000
         vertex 2.545054e+000 8.130440e+000 1.000000e+001
         vertex 2.261971e+000 7.825348e+000 1.000000e+001
      endloop
   endfacet
   facet normal 7.498086e-001 -6.616548e-001 0.000000e+000
      outer loop
         vertex 2.545054e+000 8.130440e+000 0.000000e+000
         vertex 2.261971e+000 7.825348e+000 1.000000e+001
         vertex 2.261971e+000 7.825348e+000 0.000000e+000
      endloop
   endfacet
   facet normal 8.119138e-001 -5.837772e-001 0.000000e+000
      outer loop
         vertex 2.261971e+000 7.825348e+000 0.000000e+000
         vertex 2.261971e+000 7.825348e+000 1.000000e+001
         vertex 2.027521e+000 7.481474e+000 1.000000e+001
      endloop
   endfacet
   facet normal 8.400484e-001 -5.425115e-001 0.000000e+000
      outer loop
         vertex 2.261971e+000 7.825348e+000 0.000000e+000
         vertex 2.027521e+000 7.481474e+000 1.000000e+001
         vertex 2.027521e+000 7.481474e+000 0.000000e+000
      endloop
   endfacet
   facet normal 8.898529e-001 -4.562475e-001 0.000000e+000
      outer loop
         vertex 2.027521e+000 7.481474e+000 0.000000e+000
         vertex 2.027521e+000 7.481474e+000 1.000000e+001
         vertex 1.846942e+000 7.106497e+000 1.000000e+001
      endloop
   endfacet
   facet normal 9.115229e-001 -4.112494e-001 0.000000e+000
      outer loop
         vertex 2.027521e+000 7.481474e+000 0.000000e+000
         vertex 1.846942e+000 7.106497e+000 1.000000e+001
         vertex 1.846942e+000 7.106497e+000 0.000000e+000
      endloop
   endfacet
   facet normal 9.479141e-001 -3.185259e-001 0.000000e+000
      outer loop
         vertex 1.846942e+000 7.106497e+000 0.000000e+000
         vertex 1.846942e+000 7.106497e+000 1.000000e+001
         vertex 1.724267e+000 6.708795e+000 1.000000e+001
      endloop
   endfacet
   facet normal 9.626355e-001 -2.708006e-001 0.000000e+000
      outer loop
         vertex 1.846942e+000 7.106497e+000 0.000000e+000
         vertex 1.724267e+000 6.708795e+000 1.000000e+001
         vertex 1.724267e+000 6.708795e+000 0.000000e+000
      endloop
   endfacet
   facet normal 9.848005e-001 -1.736889e-001 0.000000e+000
      outer loop
         vertex 1.724267e+000 6.708795e+000 0.000000e+000
         vertex 1.724267e+000 6.708795e+000 1.000000e+001
         vertex 1.662236e+000 6.297251e+000 1.000000e+001
      endloop
   endfacet
   facet normal 9.922444e-001 -1.243026e-001 0.000000e+000
      outer loop
         vertex 1.724267e+000 6.708795e+000 0.000000e+000
         vertex 1.662236e+000 6.297251e+000 1.000000e+001
         vertex 1.662236e+000 6.297251e+000 0.000000e+000
      endloop
   endfacet
   facet normal 9.996881e-001 -2.497209e-002 0.000000e+000
      outer loop
         vertex 1.662236e+000 6.297251e+000 0.000000e+000
         vertex 1.662236e+000 6.297251e+000 1.000000e+001
         vertex 1.662236e+000 5.881058e+000 1.000000e+001
      endloop
   endfacet
   facet normal 9.996881e-001 2.497209e-002 0.000000e+000
      outer loop
         vertex 1.662236e+000 6.297251e+000 0.000000e+000
         vertex 1.662236e+000 5.881058e+000 1.000000e+001
         vertex 1.662236e+000 5.881058e+000 0.000000e+000
      endloop
   endfacet
   facet normal 9.922444e-001 1.243026e-001 0.000000e+000
      outer loop
         vertex 1.662236e+000 5.881058e+000 0.000000e+000
         vertex 1.662236e+000 5.881058e+000 1.000000e+001
         vertex 1.724267e+000 5.469514e+000 1.000000e+001
      endloop
   endfacet
   facet normal 9.848005e-001 1.736889e-001 0.000000e+000
      outer loop
         vertex 1.662236e+000 5.881058e+000 0.000000e+000
         vertex 1.724267e+000 5.469514e+000 1.000000e+001
         vertex 1.724267e+000 5.469514e+000 0.000000e+000
      endloop
   endfacet
   facet normal 9.626355e-001 2.708006e-001 0.000000e+000
      outer loop
         vertex 1.724267e+000 5.469514e+000 0.000000e+000
         vertex 1.724267e+000 5.469514e+000 1.000000e+001
         vertex 1.846942e+000 5.071811e+000 1.000000e+001
      endloop
   endfacet
   facet normal 9.479141e-001 3.185259e-001 0.000000e+000
      outer loop
         vertex 1.724267e+000 5.469514e+000 0.000000e+000
         vertex 1.846942e+000 5.071811e+000 1.000000e+001
         vertex 1.846942e+000 5.071811e+000 0.000000e+000
      endloop
   endfacet
   facet normal 9.115229e-001 4.112494e-001 0.000000e+000
      outer loop
         vertex 1.846942e+000 5.071811e+000 0.000000e+000
         vertex 1.846942e+000 5.071811e+000 1.000000e+001
         vertex 2.027521e+000 4.696835e+000 1.000000e+001
      endloop
   endfacet
   facet normal 8.898529e-001 4.562475e-001 0.000000e+000
      outer loop
         vertex 1.846942e+000 5.071811e+000 0.000000e+000
         vertex 2.027521e+000 4.696835e+000 1.000000e+001
         vertex 2.027521e+000 4.696835e+000 0.000000e+000
      endloop
   endfacet
   facet normal 8.400484e-001 5.425115e-001 0.000000e+000
      outer loop
         vertex 2.027521e+000 4.696835e+000 0.000000e+000
         vertex 2.027521e+000 4.696835e+000 1.000000e+001
         vertex 2.261971e+000 4.352960e+000 1.000000e+001
      endloop
   endfacet
   facet normal 8.119138e-001 5.837773e-001 0.000000e+000
      outer loop
         vertex 2.027521e+000 4.696835e+000 0.000000e+000
         vertex 2.261971e+000 4.352960e+000 1.000000e+001
         vertex 2.261971e+000 4.352960e+000 0.000000e+000
      endloop
   endfacet
   facet normal 7.498086e-001 6.616548e-001 0.000000e+000
      outer loop
         vertex 2.261971e+000 4.352960e+000 0.000000e+000
         vertex 2.261971e+000 4.352960e+000 1.000000e+001
         vertex 2.545054e+000 4.047870e+000 1.000000e+001
      endloop
   endfacet
   facet normal 7.158380e-001 6.982664e-001 0.000000e+000
      outer loop
         vertex 2.261971e+000 4.352960e+000 0.000000e+000
         vertex 2.545054e+000 4.047870e+000 1.000000e+001
         vertex 2.545054e+000 4.047870e+000 0.000000e+000
      endloop
   endfacet
   facet normal 6.428193e-001 7.660179e-001 0.000000e+000
      outer loop
         vertex 2.545054e+000 4.047870e+000 0.000000e+000
         vertex 2.545054e+000 4.047870e+000 1.000000e+001
         vertex 2.870446e+000 3.788378e+000 1.000000e+001
      endloop
   endfacet
   facet normal 6.037714e-001 7.971575e-001 0.000000e+000
      outer loop
         vertex 2.545054e+000 4.047870e+000 0.000000e+000
         vertex 2.870446e+000 3.788378e+000 1.000000e+001
         vertex 2.870446e+000 3.788378e+000 0.000000e+000
      endloop
   endfacet
   facet normal 5.214705e-001 8.532693e-001 0.000000e+000
      outer loop
         vertex 2.870446e+000 3.788378e+000 0.000000e+000
         vertex 2.870446e+000 3.788378e+000 1.000000e+001
         vertex 3.230880e+000 3.580281e+000 1.000000e+001
      endloop
   endfacet
   facet normal 4.782176e-001 8.782414e-001 0.000000e+000
      outer loop
         vertex 2.870446e+000 3.788378e+000 0.000000e+000
         vertex 3.230880e+000 3.580281e+000 1.000000e+001
         vertex 3.230880e+000 3.580281e+000 0.000000e+000
      endloop
   endfacet
   facet normal 3.884729e-001 9.214601e-001 0.000000e+000
      outer loop
         vertex 3.230880e+000 3.580281e+000 0.000000e+000
         vertex 3.230880e+000 3.580281e+000 1.000000e+001
         vertex 3.618302e+000 3.428229e+000 1.000000e+001
      endloop
   endfacet
   facet normal 3.419812e-001 9.397067e-001 0.000000e+000
      outer loop
         vertex 3.230880e+000 3.580281e+000 0.000000e+000
         vertex 3.618302e+000 3.428229e+000 1.000000e+001
         vertex 3.618302e+000 3.428229e+000 0.000000e+000
      endloop
   endfacet
   facet normal 2.467975e-001 9.690670e-001 0.000000e+000
      outer loop
         vertex 3.618302e+000 3.428229e+000 0.000000e+000
         vertex 3.618302e+000 3.428229e+000 1.000000e+001
         vertex 4.024060e+000 3.335618e+000 1.000000e+001
      endloop
   endfacet
   facet normal 1.981055e-001 9.801807e-001 0.000000e+000
      outer loop
         vertex 3.618302e+000 3.428229e+000 0.000000e+000
         vertex 4.024060e+000 3.335618e+000 1.000000e+001
         vertex 4.024060e+000 3.335618e+000 0.000000e+000
      endloop
   endfacet
   facet normal 9.960905e-002 9.950266e-001 0.000000e+000
      outer loop
         vertex 4.024060e+000 3.335618e+000 0.000000e+000
         vertex 4.024060e+000 3.335618e+000 1.000000e+001
         vertex 4.439089e+000 3.304515e+000 1.000000e+001
      endloop
   endfacet
   facet normal 4.980453e-002 9.987590e-001 0.000000e+000
      outer loop
         vertex 4.024060e+000 3.335618e+000 0.000000e+000
         vertex 4.439089e+000 3.304515e+000 1.000000e+001
         vertex 4.439089e+000 3.304515e+000 0.000000e+000
      endloop
   endfacet
   facet normal 0.000000e+000 -1.000000e+000 0.000000e+000
      outer loop
         vertex 4.439089e+000 8.873794e+000 0.000000e+000
         vertex 6.111977e+000 8.873794e+000 0.000000e+000
         vertex 4.439089e+000 8.873794e+000 1.000000e+001
      endloop
   endfacet
   facet normal 0.000000e+000 -1.000000e+000 0.000000e+000
      outer loop
         vertex 4.439089e+000 8.873794e+000 1.000000e+001
         vertex 6.111977e+000 8.873794e+000 0.000000e+000
         vertex 6.111977e+000 8.873794e+000 1.000000e+001
      endloop
   endfacet
   facet normal -4.980453e-002 9.987590e-001 0.000000e+000
      outer loop
         vertex 6.111977e+000 3.304515e+000 0.000000e+000
         vertex 6.111977e+000 3.304515e+000 1.000000e+001
         vertex 6.527006e+000 3.335618e+000 1.000000e+001
      endloop
   endfacet
   facet normal -9.960905e-002 9.950266e-001 0.000000e+000
      outer loop
         vertex 6.111977e+000 3.304515e+000 0.000000e+000
         vertex 6.527006e+000 3.335618e+000 1.000000e+001
         vertex 6.527006e+000 3.335618e+000 0.000000e+000
      endloop
   endfacet
   facet normal -1.981055e-001 9.801807e-001 0.000000e+000
      outer loop
         vertex 6.527006e+000 3.335618e+000 0.000000e+000
         vertex 6.527006e+000 3.335618e+000 1.000000e+001
         vertex 6.932764e+000 3.428229e+000 1.000000e+001
      endloop
   endfacet
   facet normal -2.467975e-001 9.690670e-001 0.000000e+000
      outer loop
         vertex 6.527006e+000 3.335618e+000 0.000000e+000
         vertex 6.932764e+000 3.428229e+000 1.000000e+001
         vertex 6.932764e+000 3.428229e+000 0.000000e+000
      endloop
   endfacet
   facet normal -3.419812e-001 9.397067e-001 0.000000e+000
      outer loop
         vertex 6.932764e+000 3.428229e+000 0.000000e+000
         vertex 6.932764e+000 3.428229e+000 1.000000e+001
         vertex 7.320187e+000 3.580281e+000 1.000000e+001
      endloop
   endfacet
   facet normal -3.884729e-001 9.214601e-001 0.000000e+000
      outer loop
         vertex 6.932764e+000 3.428229e+000 0.000000e+000
         vertex 7.320187e+000 3.580281e+000 1.000000e+001
         vertex 7.320187e+000 3.580281e+000 0.000000e+000
      endloop
   endfacet
   facet normal -4.782176e-001 8.782414e-001 0.000000e+000
      outer loop
         vertex 7.320187e+000 3.580281e+000 0.000000e+000
         vertex 7.320187e+000 3.580281e+000 1.000000e+001
         vertex 7.680620e+000 3.788378e+000 1.000000e+001
      endloop
   endfacet
   facet normal -5.214705e-001 8.532693e-001 0.000000e+000
      outer loop
         vertex 7.320187e+000 3.580281e+000 0.000000e+000
         vertex 7.680620e+000 3.788378e+000 1.000000e+001
         vertex 7.680620e+000 3.788378e+000 0.000000e+000
      endloop
   endfacet
   facet normal -6.037714e-001 7.971576e-001 0.000000e+000
      outer loop
         vertex 7.680620e+000 3.788378e+000 0.000000e+000
         vertex 7.680620e+000 3.788378e+000 1.000000e+001
         vertex 8.006013e+000 4.047870e+000 1.000000e+001
      endloop
   endfacet
   facet normal -6.428193e-001 7.660179e-001 0.000000e+000
      outer loop
         vertex 7.680620e+000 3.788378e+000 0.000000e+000
         vertex 8.006013e+000 4.047870e+000 1.000000e+001
         vertex 8.006013e+000 4.047870e+000 0.000000e+000
      endloop
   endfacet
   facet normal -7.158380e-001 6.982664e-001 0.000000e+000
      outer loop
         vertex 8.006013e+000 4.047870e+000 0.000000e+000
         vertex 8.006013e+000 4.047870e+000 1.000000e+001
         vertex 8.289096e+000 4.352960e+000 1.000000e+001
      endloop
   endfacet
   facet normal -7.498086e-001 6.616548e-001 0.000000e+000
      outer loop
         vertex 8.006013e+000 4.047870e+000 0.000000e+000
         vertex 8.289096e+000 4.352960e+000 1.000000e+001
         vertex 8.289096e+000 4.352960e+000 0.000000e+000
      endloop
   endfacet
   facet normal -8.119138e-001 5.837772e-001 0.000000e+000
      outer loop
         vertex 8.289096e+000 4.352960e+000 0.000000e+000
         vertex 8.289096e+000 4.352960e+000 1.000000e+001
         vertex 8.523545e+000 4.696835e+000 1.000000e+001
      endloop
   endfacet
   facet normal -8.400484e-001 5.425115e-001 0.000000e+000
      outer loop
         vertex 8.289096e+000 4.352960e+000 0.000000e+000
         vertex 8.523545e+000 4.696835e+000 1.000000e+001
         vertex 8.523545e+000 4.696835e+000 0.000000e+000
      endloop
   endfacet
   facet normal -8.898529e-001 4.562475e-001 0.000000e+000
      outer loop
         vertex 8.523545e+000 4.696835e+000 0.000000e+000
         vertex 8.523545e+000 4.696835e+000 1.000000e+001
         vertex 8.704124e+000 5.071811e+000 1.000000e+001
      endloop
   endfacet
   facet normal -9.115229e-001 4.112494e-001 0.000000e+000
      outer loop
         vertex 8.523545e+000 4.696835e+000 0.000000e+000
         vertex 8.704124e+000 5.071811e+000 1.000000e+001
         vertex 8.704124e+000 5.071811e+000 0.000000e+000
      endloop
   endfacet
   facet normal -9.479141e-001 3.185259e-001 0.000000e+000
      outer loop
         vertex 8.704124e+000 5.071811e+000 0.000000e+000
         vertex 8.704124e+000 5.071811e+000 1.000000e+001
         vertex 8.826799e+000 5.469514e+000 1.000000e+001
      endloop
   endfacet
   facet normal -9.626355e-001 2.708006e-001 0.000000e+000
      outer loop
         vertex 8.704124e+000 5.071811e+000 0.000000e+000
         vertex 8.826799e+000 5.469514e+000 1.000000e+001
         vertex 8.826799e+000 5.469514e+000 0.000000e+000
      endloop
   endfacet
   facet normal -9.848005e-001 1.736889e-001 0.000000e+000
      outer loop
         vertex 8.826799e+000 5.469514e+000 0.000000e+000
         vertex 8.826799e+000 5.469514e+000 1.000000e+001
         vertex 8.888829e+000 5.881058e+000 1.000000e+001
      endloop
   endfacet
   facet normal -9.922444e-001 1.243026e-001 0.000000e+000
      outer loop
         vertex 8.826799e+000 5.469514e+000 0.000000e+000
         vertex 8.888829e+000 5.881058e+000 1.000000e+001
         vertex 8.888829e+000 5.881058e+000 0.000000e+000
      endloop
   endfacet
   facet normal -9.996881e-001 2.497209e-002 0.000000e+000
      outer loop
         vertex 8.888829e+000 5.881058e+000 0.000000e+000
         vertex 8.888829e+000 5.881058e+000 1.000000e+001
         vertex 8.888829e+000 6.297251e+000 1.000000e+001
      endloop
   endfacet
   facet normal -9.996881e-001 -2.497209e-002 0.000000e+000
      outer loop
         vertex 8.888829e+000 5.881058e+000 0.000000e+000
         vertex 8.888829e+000 6.297251e+000 1.000000e+001
         vertex 8.888829e+000 6.297251e+000 0.000000e+000
      endloop
   endfacet
   facet normal -9.922444e-001 -1.243026e-001 0.000000e+000
      outer loop
         vertex 8.888829e+000 6.297251e+000 0.000000e+000
         vertex 8.888829e+000 6.297251e+000 1.000000e+001
         vertex 8.826799e+000 6.708795e+000 1.000000e+001
      endloop
   endfacet
   facet normal -9.848005e-001 -1.736889e-001 0.000000e+000
      outer loop
         vertex 8.888829e+000 6.297251e+000 0.000000e+000
         vertex 8.826799e+000 6.708795e+000 1.000000e+001
         vertex 8.826799e+000 6.708795e+000 0.000000e+000
      endloop
   endfacet
   facet normal -9.626355e-001 -2.708006e-001 0.000000e+000
      outer loop
         vertex 8.826799e+000 6.708795e+000 0.000000e+000
         vertex 8.826799e+000 6.708795e+000 1.000000e+001
         vertex 8.704124e+000 7.106497e+000 1.000000e+001
      endloop
   endfacet
   facet normal -9.479141e-001 -3.185259e-001 0.000000e+000
      outer loop
         vertex 8.826799e+000 6.708795e+000 0.000000e+000
         vertex 8.704124e+000 7.106497e+000 1.000000e+001
         vertex 8.704124e+000 7.106497e+000 0.000000e+000
      endloop
   endfacet
   facet normal -9.115229e-001 -4.112494e-001 0.000000e+000
      outer loop
         vertex 8.704124e+000 7.106497e+000 0.000000e+000
         vertex 8.704124e+000 7.106497e+000 1.000000e+001
         vertex 8.523545e+000 7.481474e+000 1.000000e+001
      endloop
   endfacet
   facet normal -8.898529e-001 -4.562475e-001 0.000000e+000
      outer loop
         vertex 8.704124e+000 7.106497e+000 0.000000e+000
         vertex 8.523545e+000 7.481474e+000 1.000000e+001
         vertex 8.523545e+000 7.481474e+000 0.000000e+000
      endloop
   endfacet
   facet normal -8.400484e-001 -5.425115e-001 0.000000e+000
      outer loop
         vertex 8.523545e+000 7.481474e+000 0.000000e+000
         vertex 8.523545e+000 7.481474e+000 1.000000e+001
         vertex 8.289096e+000 7.825348e+000 1.000000e+001
      endloop
   endfacet
   facet normal -8.119138e-001 -5.837773e-001 0.000000e+000
      outer loop
         vertex 8.523545e+000 7.481474e+000 0.000000e+000
         vertex 8.289096e+000 7.825348e+000 1.000000e+001
         vertex 8.289096e+000 7.825348e+000 0.000000e+000
      endloop
   endfacet
   facet normal -7.498086e-001 -6.616548e-001 0.000000e+000
      outer loop
         vertex 8.289096e+000 7.825348e+000 0.000000e+000
         vertex 8.289096e+000 7.825348e+000 1.000000e+001
         vertex 8.006013e+000 8.130440e+000 1.000000e+001
      endloop
   endfacet
   facet normal -7.158380e-001 -6.982664e-001 0.000000e+000
      outer loop
         vertex 8.289096e+000 7.825348e+000 0.000000e+000
         vertex 8.006013e+000 8.130440e+000 1.000000e+001
         vertex 8.006013e+000 8.130440e+000 0.000000e+000
      endloop
   endfacet
   facet normal -6.428193e-001 -7.660179e-001 0.000000e+000
      outer loop
         vertex 8.006013e+000 8.130440e+000 0.000000e+000
         vertex 8.006013e+000 8.130440e+000 1.000000e+001
         vertex 7.680620e+000 8.389931e+000 1.000000e+001
      endloop
   endfacet
   facet normal -6.037714e-001 -7.971575e-001 0.000000e+000
      outer loop
         vertex 8.006013e+000 8.130440e+000 0.000000e+000
         vertex 7.680620e+000 8.389931e+000 1.000000e+001
         vertex 7.680620e+000 8.389931e+000 0.000000e+000
      endloop
   endfacet
   facet normal -5.214705e-001 -8.532693e-001 0.000000e+000
      outer loop
         vertex 7.680620e+000 8.389931e+000 0.000000e+000
         vertex 7.680620e+000 8.389931e+000 1.000000e+001
         vertex 7.320187e+000 8.598028e+000 1.000000e+001
      endloop
   endfacet
   facet normal -4.782176e-001 -8.782414e-001 0.000000e+000
      outer loop
         vertex 7.680620e+000 8.389931e+000 0.000000e+000
         vertex 7.320187e+000 8.598028e+000 1.000000e+001
         vertex 7.320187e+000 8.598028e+000 0.000000e+000
      endloop
   endfacet
   facet normal -3.884729e-001 -9.214601e-001 0.000000e+000
      outer loop
         vertex 7.320187e+000 8.598028e+000 0.000000e+000
         vertex 7.320187e+000 8.598028e+000 1.000000e+001
         vertex 6.932764e+000 8.750080e+000 1.000000e+001
      endloop
   endfacet
   facet normal -3.419812e-001 -9.397067e-001 0.000000e+000
      outer loop
         vertex 7.320187e+000 8.598028e+000 0.000000e+000
         vertex 6.932764e+000 8.750080e+000 1.000000e+001
         vertex 6.932764e+000 8.750080e+000 0.000000e+000
      endloop
   endfacet
   facet normal -2.467975e-001 -9.690670e-001 0.000000e+000
      outer loop
         vertex 6.932764e+000 8.750080e+000 0.000000e+000
         vertex 6.932764e+000 8.750080e+000 1.000000e+001
         vertex 6.527006e+000 8.842691e+000 1.000000e+001
      endloop
   endfacet
   facet normal -1.981055e-001 -9.801807e-001 0.000000e+000
      outer loop
         vertex 6.932764e+000 8.750080e+000 0.000000e+000
         vertex 6.527006e+000 8.842691e+000 1.000000e+001
         vertex 6.527006e+000 8.842691e+000 0.000000e+000
      endloop
   endfacet
   facet normal -9.960905e-002 -9.950266e-001 0.000000e+000
      outer loop
         vertex 6.527006e+000 8.842691e+000 0.000000e+000
         vertex 6.527006e+000 8.842691e+000 1.000000e+001
         vertex 6.111977e+000 8.873794e+000 1.000000e+001
      endloop
   endfacet
   facet normal -4.980453e-002 -9.987590e-001 0.000000e+000
      outer loop
         vertex 6.527006e+000 8.842691e+000 0.000000e+000
         vertex 6.111977e+000 8.873794e+000 1.000000e+001
         vertex 6.111977e+000 8.873794e+000 0.000000e+000
      endloop
   endfacet
   facet normal 0.000000e+000 1.000000e+000 0.000000e+000
      outer loop
         vertex 6.111977e+000 3.304515e+000 0.000000e+000
         vertex 4.439089e+000 3.304515e+000 0.000000e+000
         vertex 6.111977e+000 3.304515e+000 1.000000e+001
      endloop
   endfacet
   facet normal 0.000000e+000 1.000000e+000 0.000000e+000
      outer loop
         vertex 6.111977e+000 3.304515e+000 1.000000e+001
         vertex 4.439089e+000 3.304515e+000 0.000000e+000
         vertex 4.439089e+000 3.304515e+000 1.000000e+001
      endloop
   endfacet
endsolid