solid 22_110
   facet normal -1.000000e+000 0.000000e+000 0.000000e+000
      outer loop
         vertex 0.000000e+000 1.000000e+001 1.000000e+001
         vertex 0.000000e+000 1.000000e+001 0.000000e+000
         vertex 0.000000e+000 0.000000e+000 1.000000e+001
      endloop
   endfacet
   facet normal -1.000000e+000 0.000000e+000 0.000000e+000
      outer loop
         vertex 0.000000e+000 0.000000e+000 1.000000e+001
         vertex 0.000000e+000 1.000000e+001 0.000000e+000
         vertex 0.000000e+000 0.000000e+000 0.000000e+000
      endloop
   endfacet
   facet normal 0.000000e+000 0.000000e+000 1.000000e+000
      outer loop
         vertex 1.135261e+000 5.986948e+000 1.000000e+001
         vertex 0.000000e+000 1.000000e+001 1.000000e+001
         vertex 0.000000e+000 0.000000e+000 1.000000e+001
      endloop
   endfacet
   facet normal 0.000000e+000 0.000000e+000 1.000000e+000
      outer loop
         vertex 1.135261e+000 5.986948e+000 1.000000e+001
         vertex 2.831398e+000 8.924743e+000 1.000000e+001
         vertex 0.000000e+000 1.000000e+001 1.000000e+001
      endloop
   endfacet
   facet normal 0.000000e+000 0.000000e+000 1.000000e+000
      outer loop
         vertex 0.000000e+000 1.000000e+001 1.000000e+001
         vertex 2.831398e+000 8.924743e+000 1.000000e+001
         vertex 6.223671e+000 8.924743e+000 1.000000e+001
      endloop
   endfacet
   facet normal 0.000000e+000 0.000000e+000 1.000000e+000
      outer loop
         vertex 0.000000e+000 1.000000e+001 1.000000e+001
         vertex 6.223671e+000 8.924743e+000 1.000000e+001
         vertex 1.000000e+001 1.000000e+001 1.000000e+001
      endloop
   endfacet
   facet normal 0.000000e+000 0.000000e+000 1.000000e+000
      outer loop
         vertex 1.000000e+001 1.000000e+001 1.000000e+001
         vertex 6.223671e+000 8.924743e+000 1.000000e+001
         vertex 7.919809e+000 5.986948e+000 1.000000e+001
      endloop
   endfacet
   facet normal 0.000000e+000 0.000000e+000 1.000000e+000
      outer loop
         vertex 1.000000e+001 1.000000e+001 1.000000e+001
         vertex 7.919809e+000 5.986948e+000 1.000000e+001
         vertex 1.000000e+001 0.000000e+000 1.000000e+001
      endloop
   endfacet
   facet normal 0.000000e+000 0.000000e+000 1.000000e+000
      outer loop
         vertex 1.000000e+001 0.000000e+000 1.000000e+001
         vertex 7.919809e+000 5.986948e+000 1.000000e+001
         vertex 6.223671e+000 3.049152e+000 1.000000e+001
      endloop
   endfacet
   facet normal 0.000000e+000 0.000000e+000 1.000000e+000
      outer loop
         vertex 1.000000e+001 0.000000e+000 1.000000e+001
         vertex 6.223671e+000 3.049152e+000 1.000000e+001
         vertex 0.000000e+000 0.000000e+000 1.000000e+001
      endloop
   endfacet
   facet normal 0.000000e+000 0.000000e+000 1.000000e+000
      outer loop
         vertex 0.000000e+000 0.000000e+000 1.000000e+001
         vertex 6.223671e+000 3.049152e+000 1.000000e+001
         vertex 2.831398e+000 3.049152e+000 1.000000e+001
      endloop
   endfacet
   facet normal 0.000000e+000 0.000000e+000 1.000000e+000
      outer loop
         vertex 0.000000e+000 0.000000e+000 1.000000e+001
         vertex 2.831398e+000 3.049152e+000 1.000000e+001
         vertex 1.135261e+000 5.986948e+000 1.000000e+001
      endloop
   endfacet
   facet normal 1.000000e+000 0.000000e+000 0.000000e+000
      outer loop
         vertex 1.000000e+001 1.000000e+001 0.000000e+000
         vertex 1.000000e+001 1.000000e+001 1.000000e+001
         vertex 1.000000e+001 0.000000e+000 0.000000e+000
      endloop
   endfacet
   facet normal 1.000000e+000 0.000000e+000 0.000000e+000
      outer loop
         vertex 1.000000e+001 0.000000e+000 0.000000e+000
         vertex 1.000000e+001 1.000000e+001 1.000000e+001
         vertex 1.000000e+001 0.000000e+000 1.000000e+001
      endloop
   endfacet
   facet normal 0.000000e+000 0.000000e+000 -1.000000e+000
      outer loop
         vertex 0.000000e+000 1.000000e+001 0.000000e+000
         vertex 1.135261e+000 5.986948e+000 0.000000e+000
         vertex 0.000000e+000 0.000000e+000 0.000000e+000
      endloop
   endfacet
   facet normal 0.000000e+000 0.000000e+000 -1.000000e+000
      outer loop
         vertex 0.000000e+000 0.000000e+000 0.000000e+000
         vertex 1.135261e+000 5.986948e+000 0.000000e+000
         vertex 2.831398e+000 3.049152e+000 0.000000e+000
      endloop
   endfacet
   facet normal 0.000000e+000 0.000000e+000 -1.000000e+000
      outer loop
         vertex 0.000000e+000 0.000000e+000 0.000000e+000
         vertex 2.831398e+000 3.049152e+000 0.000000e+000
         vertex 1.000000e+001 0.000000e+000 0.000000e+000
      endloop
   endfacet
   facet normal 0.000000e+000 0.000000e+000 -1.000000e+000
      outer loop
         vertex 2.831398e+000 3.049152e+000 0.000000e+000
         vertex 6.223671e+000 3.049152e+000 0.000000e+000
         vertex 1.000000e+001 0.000000e+000 0.000000e+000
      endloop
   endfacet
   facet normal 0.000000e+000 0.000000e+000 -1.000000e+000
      outer loop
         vertex 1.000000e+001 0.000000e+000 0.000000e+000
         vertex 6.223671e+000 3.049152e+000 0.000000e+000
         vertex 7.919809e+000 5.986948e+000 0.000000e+000
      endloop
   endfacet
   facet normal 0.000000e+000 0.000000e+000 -1.000000e+000
      outer loop
         vertex 1.000000e+001 0.000000e+000 0.000000e+000
         vertex 7.919809e+000 5.986948e+000 0.000000e+000
         vertex 1.000000e+001 1.000000e+001 0.000000e+000
      endloop
   endfacet
   facet normal 0.000000e+000 0.000000e+000 -1.000000e+000
      outer loop
         vertex 1.000000e+001 1.000000e+001 0.000000e+000
         vertex 7.919809e+000 5.986948e+000 0.000000e+000
         vertex 6.223671e+000 8.924743e+000 0.000000e+000
      endloop
   endfacet
   facet normal 0.000000e+000 0.000000e+000 -1.000000e+000
      outer loop
         vertex 1.000000e+001 1.000000e+001 0.000000e+000
         vertex 6.223671e+000 8.924743e+000 0.000000e+000
         vertex 0.000000e+000 1.000000e+001 0.000000e+000
      endloop
   endfacet
   facet normal 0.000000e+000 0.000000e+000 -1.000000e+000
      outer loop
         vertex 0.000000e+000 1.000000e+001 0.000000e+000
         vertex 6.223671e+000 8.924743e+000 0.000000e+000
         vertex 2.831398e+000 8.924743e+000 0.000000e+000
      endloop
   endfacet
   facet normal 0.000000e+000 0.000000e+000 -1.000000e+000
      outer loop
         vertex 0.000000e+000 1.000000e+001 0.000000e+000
         vertex 2.831398e+000 8.924743e+000 0.000000e+000
         vertex 1.135261e+000 5.986948e+000 0.000000e+000
      endloop
   endfacet
   facet normal 0.000000e+000 1.000000e+000 0.000000e+000
      outer loop
         vertex 1.000000e+001 1.000000e+001 1.000000e+001
         vertex 1.000000e+001 1.000000e+001 0.000000e+000
         vertex 0.000000e+000 1.000000e+001 1.000000e+001
      endloop
   endfacet
   facet normal 0.000000e+000 1.000000e+000 0.000000e+000
      outer loop
         vertex 0.000000e+000 1.000000e+001 1.000000e+001
         vertex 1.000000e+001 1.000000e+001 0.000000e+000
         vertex 0.000000e+000 1.000000e+001 0.000000e+000
      endloop
   endfacet
   facet normal 0.000000e+000 -1.000000e+000 0.000000e+000
      outer loop
         vertex 1.000000e+001 0.000000e+000 0.000000e+000
         vertex 1.000000e+001 0.000000e+000 1.000000e+001
         vertex 0.000000e+000 0.000000e+000 0.000000e+000
      endloop
   endfacet
   facet normal 0.000000e+000 -1.000000e+000 0.000000e+000
      outer loop
         vertex 0.000000e+000 0.000000e+000 0.000000e+000
         vertex 1.000000e+001 0.000000e+000 1.000000e+001
         vertex 0.000000e+000 0.000000e+000 1.000000e+001
      endloop
   endfacet
   facet normal 8.660254e-001 -5.000000e-001 0.000000e+000
      outer loop
         vertex 1.135261e+000 5.986948e+000 0.000000e+000
         vertex 2.831398e+000 8.924743e+000 0.000000e+000
         vertex 1.135261e+000 5.986948e+000 1.000000e+001
      endloop
   endfacet
   facet normal 8.660254e-001 -5.000000e-001 0.000000e+000
      outer loop
         vertex 1.135261e+000 5.986948e+000 1.000000e+001
         vertex 2.831398e+000 8.924743e+000 0.000000e+000
         vertex 2.831398e+000 8.924743e+000 1.000000e+001
      endloop
   endfacet
   facet normal 1.073887e-014 -1.000000e+000 0.000000e+000
      outer loop
         vertex 2.831398e+000 8.924743e+000 0.000000e+000
         vertex 6.223671e+000 8.924743e+000 0.000000e+000
         vertex 2.831398e+000 8.924743e+000 1.000000e+001
      endloop
   endfacet
   facet normal 1.073887e-014 -1.000000e+000 0.000000e+000
      outer loop
         vertex 2.831398e+000 8.924743e+000 1.000000e+001
         vertex 6.223671e+000 8.924743e+000 0.000000e+000
         vertex 6.223671e+000 8.924743e+000 1.000000e+001
      endloop
   endfacet
   facet normal -8.660254e-001 -5.000000e-001 0.000000e+000
      outer loop
         vertex 6.223671e+000 8.924743e+000 0.000000e+000
         vertex 7.919809e+000 5.986948e+000 0.000000e+000
         vertex 6.223671e+000 8.924743e+000 1.000000e+001
      endloop
   endfacet
   facet normal -8.660254e-001 -5.000000e-001 0.000000e+000
      outer loop
         vertex 6.223671e+000 8.924743e+000 1.000000e+001
         vertex 7.919809e+000 5.986948e+000 0.000000e+000
         vertex 7.919809e+000 5.986948e+000 1.000000e+001
      endloop
   endfacet
   facet normal -8.660254e-001 5.000000e-001 0.000000e+000
      outer loop
         vertex 7.919809e+000 5.986948e+000 0.000000e+000
         vertex 6.223671e+000 3.049152e+000 0.000000e+000
         vertex 7.919809e+000 5.986948e+000 1.000000e+001
      endloop
   endfacet
   facet normal -8.660254e-001 5.000000e-001 0.000000e+000
      outer loop
         vertex 7.919809e+000 5.986948e+000 1.000000e+001
         vertex 6.223671e+000 3.049152e+000 0.000000e+000
         vertex 6.223671e+000 3.049152e+000 1.000000e+001
      endloop
   endfacet
   facet normal -3.579624e-015 1.000000e+000 0.000000e+000
      outer loop
         vertex 6.223671e+000 3.049152e+000 0.000000e+000
         vertex 2.831398e+000 3.049152e+000 0.000000e+000
         vertex 6.223671e+000 3.049152e+000 1.000000e+001
      endloop
   endfacet
   facet normal -3.579624e-015 1.000000e+000 0.000000e+000
      outer loop
         vertex 6.223671e+000 3.049152e+000 1.000000e+001
         vertex 2.831398e+000 3.049152e+000 0.000000e+000
         vertex 2.831398e+000 3.049152e+000 1.000000e+001
      endloop
   endfacet
   facet normal 8.660254e-001 5.000000e-001 0.000000e+000
      outer loop
         vertex 2.831398e+000 3.049152e+000 0.000000e+000
         vertex 1.135261e+000 5.986948e+000 0.000000e+000
         vertex 2.831398e+000 3.049152e+000 1.000000e+001
      endloop
   endfacet
   facet normal 8.660254e-001 5.000000e-001 0.000000e+000
      outer loop
         vertex 2.831398e+000 3.049152e+000 1.000000e+001
         vertex 1.135261e+000 5.986948e+000 0.000000e+000
         vertex 1.135261e+000 5.986948e+000 1.000000e+001
      endloop
   endfacet
endsolid