solid 22_303
   facet normal -1.000000e+000 0.000000e+000 0.000000e+000
      outer loop
         vertex 0.000000e+000 1.000000e+001 1.000000e+001
         vertex 0.000000e+000 1.000000e+001 0.000000e+000
         vertex 0.000000e+000 0.000000e+000 1.000000e+001
      endloop
   endfacet
   facet normal -1.000000e+000 0.000000e+000 0.000000e+000
      outer loop
         vertex 0.000000e+000 0.000000e+000 1.000000e+001
         vertex 0.000000e+000 1.000000e+001 0.000000e+000
         vertex 0.000000e+000 0.000000e+000 0.000000e+000
      endloop
   endfacet
   facet normal 0.000000e+000 0.000000e+000 1.000000e+000
      outer loop
         vertex 1.000000e+001 1.000000e+001 1.000000e+001
         vertex 7.732011e+000 3.647299e+000 1.000000e+001
         vertex 1.000000e+001 0.000000e+000 1.000000e+001
      endloop
   endfacet
   facet normal 0.000000e+000 0.000000e+000 1.000000e+000
      outer loop
         vertex 1.000000e+001 0.000000e+000 1.000000e+001
         vertex 7.732011e+000 3.647299e+000 1.000000e+001
         vertex 6.183753e+000 9.656380e-001 1.000000e+001
      endloop
   endfacet
   facet normal 0.000000e+000 0.000000e+000 1.000000e+000
      outer loop
         vertex 1.000000e+001 0.000000e+000 1.000000e+001
         vertex 6.183753e+000 9.656380e-001 1.000000e+001
         vertex 0.000000e+000 0.000000e+000 1.000000e+001
      endloop
   endfacet
   facet normal 0.000000e+000 0.000000e+000 1.000000e+000
      outer loop
         vertex 6.183753e+000 9.656380e-001 1.000000e+001
         vertex 3.087238e+000 9.656380e-001 1.000000e+001
         vertex 0.000000e+000 0.000000e+000 1.000000e+001
      endloop
   endfacet
   facet normal 0.000000e+000 0.000000e+000 1.000000e+000
      outer loop
         vertex 0.000000e+000 0.000000e+000 1.000000e+001
         vertex 3.087238e+000 9.656380e-001 1.000000e+001
         vertex 1.538980e+000 3.647299e+000 1.000000e+001
      endloop
   endfacet
   facet normal 0.000000e+000 0.000000e+000 1.000000e+000
      outer loop
         vertex 0.000000e+000 0.000000e+000 1.000000e+001
         vertex 1.538980e+000 3.647299e+000 1.000000e+001
         vertex 0.000000e+000 1.000000e+001 1.000000e+001
      endloop
   endfacet
   facet normal 0.000000e+000 0.000000e+000 1.000000e+000
      outer loop
         vertex 0.000000e+000 1.000000e+001 1.000000e+001
         vertex 1.538980e+000 3.647299e+000 1.000000e+001
         vertex 3.087238e+000 6.328960e+000 1.000000e+001
      endloop
   endfacet
   facet normal 0.000000e+000 0.000000e+000 1.000000e+000
      outer loop
         vertex 0.000000e+000 1.000000e+001 1.000000e+001
         vertex 3.087238e+000 6.328960e+000 1.000000e+001
         vertex 1.000000e+001 1.000000e+001 1.000000e+001
      endloop
   endfacet
   facet normal 0.000000e+000 0.000000e+000 1.000000e+000
      outer loop
         vertex 1.000000e+001 1.000000e+001 1.000000e+001
         vertex 3.087238e+000 6.328960e+000 1.000000e+001
         vertex 6.183753e+000 6.328960e+000 1.000000e+001
      endloop
   endfacet
   facet normal 0.000000e+000 0.000000e+000 1.000000e+000
      outer loop
         vertex 1.000000e+001 1.000000e+001 1.000000e+001
         vertex 6.183753e+000 6.328960e+000 1.000000e+001
         vertex 7.732011e+000 3.647299e+000 1.000000e+001
      endloop
   endfacet
   facet normal 1.000000e+000 0.000000e+000 0.000000e+000
      outer loop
         vertex 1.000000e+001 1.000000e+001 0.000000e+000
         vertex 1.000000e+001 1.000000e+001 1.000000e+001
         vertex 1.000000e+001 0.000000e+000 0.000000e+000
      endloop
   endfacet
   facet normal 1.000000e+000 0.000000e+000 0.000000e+000
      outer loop
         vertex 1.000000e+001 0.000000e+000 0.000000e+000
         vertex 1.000000e+001 1.000000e+001 1.000000e+001
         vertex 1.000000e+001 0.000000e+000 1.000000e+001
      endloop
   endfacet
   facet normal 0.000000e+000 0.000000e+000 -1.000000e+000
      outer loop
         vertex 1.538980e+000 3.647299e+000 0.000000e+000
         vertex 0.000000e+000 0.000000e+000 0.000000e+000
         vertex 0.000000e+000 1.000000e+001 0.000000e+000
      endloop
   endfacet
   facet normal 0.000000e+000 0.000000e+000 -1.000000e+000
      outer loop
         vertex 1.538980e+000 3.647299e+000 0.000000e+000
         vertex 3.087238e+000 9.656380e-001 0.000000e+000
         vertex 0.000000e+000 0.000000e+000 0.000000e+000
      endloop
   endfacet
   facet normal 0.000000e+000 0.000000e+000 -1.000000e+000
      outer loop
         vertex 0.000000e+000 0.000000e+000 0.000000e+000
         vertex 3.087238e+000 9.656380e-001 0.000000e+000
         vertex 6.183753e+000 9.656380e-001 0.000000e+000
      endloop
   endfacet
   facet normal 0.000000e+000 0.000000e+000 -1.000000e+000
      outer loop
         vertex 0.000000e+000 0.000000e+000 0.000000e+000
         vertex 6.183753e+000 9.656380e-001 0.000000e+000
         vertex 1.000000e+001 0.000000e+000 0.000000e+000
      endloop
   endfacet
   facet normal 0.000000e+000 0.000000e+000 -1.000000e+000
      outer loop
         vertex 1.000000e+001 0.000000e+000 0.000000e+000
         vertex 6.183753e+000 9.656380e-001 0.000000e+000
         vertex 7.732011e+000 3.647299e+000 0.000000e+000
      endloop
   endfacet
   facet normal 0.000000e+000 0.000000e+000 -1.000000e+000
      outer loop
         vertex 1.000000e+001 0.000000e+000 0.000000e+000
         vertex 7.732011e+000 3.647299e+000 0.000000e+000
         vertex 1.000000e+001 1.000000e+001 0.000000e+000
      endloop
   endfacet
   facet normal 0.000000e+000 0.000000e+000 -1.000000e+000
      outer loop
         vertex 1.000000e+001 1.000000e+001 0.000000e+000
         vertex 7.732011e+000 3.647299e+000 0.000000e+000
         vertex 6.183753e+000 6.328960e+000 0.000000e+000
      endloop
   endfacet
   facet normal 0.000000e+000 0.000000e+000 -1.000000e+000
      outer loop
         vertex 1.000000e+001 1.000000e+001 0.000000e+000
         vertex 6.183753e+000 6.328960e+000 0.000000e+000
         vertex 0.000000e+000 1.000000e+001 0.000000e+000
      endloop
   endfacet
   facet normal 0.000000e+000 0.000000e+000 -1.000000e+000
      outer loop
         vertex 0.000000e+000 1.000000e+001 0.000000e+000
         vertex 6.183753e+000 6.328960e+000 0.000000e+000
         vertex 3.087238e+000 6.328960e+000 0.000000e+000
      endloop
   endfacet
   facet normal 0.000000e+000 0.000000e+000 -1.000000e+000
      outer loop
         vertex 0.000000e+000 1.000000e+001 0.000000e+000
         vertex 3.087238e+000 6.328960e+000 0.000000e+000
         vertex 1.538980e+000 3.647299e+000 0.000000e+000
      endloop
   endfacet
   facet normal 0.000000e+000 1.000000e+000 0.000000e+000
      outer loop
         vertex 1.000000e+001 1.000000e+001 1.000000e+001
         vertex 1.000000e+001 1.000000e+001 0.000000e+000
         vertex 0.000000e+000 1.000000e+001 1.000000e+001
      endloop
   endfacet
   facet normal 0.000000e+000 1.000000e+000 0.000000e+000
      outer loop
         vertex 0.000000e+000 1.000000e+001 1.000000e+001
         vertex 1.000000e+001 1.000000e+001 0.000000e+000
         vertex 0.000000e+000 1.000000e+001 0.000000e+000
      endloop
   endfacet
   facet normal 0.000000e+000 -1.000000e+000 0.000000e+000
      outer loop
         vertex 1.000000e+001 0.000000e+000 0.000000e+000
         vertex 1.000000e+001 0.000000e+000 1.000000e+001
         vertex 0.000000e+000 0.000000e+000 0.000000e+000
      endloop
   endfacet
   facet normal 0.000000e+000 -1.000000e+000 0.000000e+000
      outer loop
         vertex 0.000000e+000 0.000000e+000 0.000000e+000
         vertex 1.000000e+001 0.000000e+000 1.000000e+001
         vertex 0.000000e+000 0.000000e+000 1.000000e+001
      endloop
   endfacet
   facet normal 8.660254e-001 -5.000000e-001 0.000000e+000
      outer loop
         vertex 1.538980e+000 3.647299e+000 0.000000e+000
         vertex 3.087238e+000 6.328960e+000 0.000000e+000
         vertex 1.538980e+000 3.647299e+000 1.000000e+001
      endloop
   endfacet
   facet normal 8.660254e-001 -5.000000e-001 0.000000e+000
      outer loop
         vertex 1.538980e+000 3.647299e+000 1.000000e+001
         vertex 3.087238e+000 6.328960e+000 0.000000e+000
         vertex 3.087238e+000 6.328960e+000 1.000000e+001
      endloop
   endfacet
   facet normal 1.064414e-014 -1.000000e+000 0.000000e+000
      outer loop
         vertex 3.087238e+000 6.328960e+000 0.000000e+000
         vertex 6.183753e+000 6.328960e+000 0.000000e+000
         vertex 3.087238e+000 6.328960e+000 1.000000e+001
      endloop
   endfacet
   facet normal 1.064414e-014 -1.000000e+000 0.000000e+000
      outer loop
         vertex 3.087238e+000 6.328960e+000 1.000000e+001
         vertex 6.183753e+000 6.328960e+000 0.000000e+000
         vertex 6.183753e+000 6.328960e+000 1.000000e+001
      endloop
   endfacet
   facet normal -8.660254e-001 -5.000000e-001 0.000000e+000
      outer loop
         vertex 6.183753e+000 6.328960e+000 0.000000e+000
         vertex 7.732011e+000 3.647299e+000 0.000000e+000
         vertex 6.183753e+000 6.328960e+000 1.000000e+001
      endloop
   endfacet
   facet normal -8.660254e-001 -5.000000e-001 0.000000e+000
      outer loop
         vertex 6.183753e+000 6.328960e+000 1.000000e+001
         vertex 7.732011e+000 3.647299e+000 0.000000e+000
         vertex 7.732011e+000 3.647299e+000 1.000000e+001
      endloop
   endfacet
   facet normal -8.660254e-001 5.000000e-001 0.000000e+000
      outer loop
         vertex 7.732011e+000 3.647299e+000 0.000000e+000
         vertex 6.183753e+000 9.656380e-001 0.000000e+000
         vertex 7.732011e+000 3.647299e+000 1.000000e+001
      endloop
   endfacet
   facet normal -8.660254e-001 5.000000e-001 0.000000e+000
      outer loop
         vertex 7.732011e+000 3.647299e+000 1.000000e+001
         vertex 6.183753e+000 9.656380e-001 0.000000e+000
         vertex 6.183753e+000 9.656380e-001 1.000000e+001
      endloop
   endfacet
   facet normal -3.501362e-015 1.000000e+000 0.000000e+000
      outer loop
         vertex 6.183753e+000 9.656380e-001 0.000000e+000
         vertex 3.087238e+000 9.656380e-001 0.000000e+000
         vertex 6.183753e+000 9.656380e-001 1.000000e+001
      endloop
   endfacet
   facet normal -3.501362e-015 1.000000e+000 0.000000e+000
      outer loop
         vertex 6.183753e+000 9.656380e-001 1.000000e+001
         vertex 3.087238e+000 9.656380e-001 0.000000e+000
         vertex 3.087238e+000 9.656380e-001 1.000000e+001
      endloop
   endfacet
   facet normal 8.660254e-001 5.000000e-001 0.000000e+000
      outer loop
         vertex 3.087238e+000 9.656380e-001 0.000000e+000
         vertex 1.538980e+000 3.647299e+000 0.000000e+000
         vertex 3.087238e+000 9.656380e-001 1.000000e+001
      endloop
   endfacet
   facet normal 8.660254e-001 5.000000e-001 0.000000e+000
      outer loop
         vertex 3.087238e+000 9.656380e-001 1.000000e+001
         vertex 1.538980e+000 3.647299e+000 0.000000e+000
         vertex 1.538980e+000 3.647299e+000 1.000000e+001
      endloop
   endfacet
endsolid