solid 22_318
   facet normal -1.000000e+000 0.000000e+000 0.000000e+000
      outer loop
         vertex 0.000000e+000 1.000000e+001 1.000000e+001
         vertex 0.000000e+000 1.000000e+001 0.000000e+000
         vertex 0.000000e+000 0.000000e+000 1.000000e+001
      endloop
   endfacet
   facet normal -1.000000e+000 0.000000e+000 0.000000e+000
      outer loop
         vertex 0.000000e+000 0.000000e+000 1.000000e+001
         vertex 0.000000e+000 1.000000e+001 0.000000e+000
         vertex 0.000000e+000 0.000000e+000 0.000000e+000
      endloop
   endfacet
   facet normal 0.000000e+000 0.000000e+000 1.000000e+000
      outer loop
         vertex 1.000000e+001 1.000000e+001 1.000000e+001
         vertex 7.979454e+000 5.595211e+000 1.000000e+001
         vertex 1.000000e+001 0.000000e+000 1.000000e+001
      endloop
   endfacet
   facet normal 0.000000e+000 0.000000e+000 1.000000e+000
      outer loop
         vertex 1.000000e+001 0.000000e+000 1.000000e+001
         vertex 7.979454e+000 5.595211e+000 1.000000e+001
         vertex 6.292331e+000 2.673028e+000 1.000000e+001
      endloop
   endfacet
   facet normal 0.000000e+000 0.000000e+000 1.000000e+000
      outer loop
         vertex 1.000000e+001 0.000000e+000 1.000000e+001
         vertex 6.292331e+000 2.673028e+000 1.000000e+001
         vertex 0.000000e+000 0.000000e+000 1.000000e+001
      endloop
   endfacet
   facet normal 0.000000e+000 0.000000e+000 1.000000e+000
      outer loop
         vertex 6.292331e+000 2.673028e+000 1.000000e+001
         vertex 2.918084e+000 2.673028e+000 1.000000e+001
         vertex 0.000000e+000 0.000000e+000 1.000000e+001
      endloop
   endfacet
   facet normal 0.000000e+000 0.000000e+000 1.000000e+000
      outer loop
         vertex 0.000000e+000 0.000000e+000 1.000000e+001
         vertex 2.918084e+000 2.673028e+000 1.000000e+001
         vertex 1.230961e+000 5.595211e+000 1.000000e+001
      endloop
   endfacet
   facet normal 0.000000e+000 0.000000e+000 1.000000e+000
      outer loop
         vertex 0.000000e+000 0.000000e+000 1.000000e+001
         vertex 1.230961e+000 5.595211e+000 1.000000e+001
         vertex 0.000000e+000 1.000000e+001 1.000000e+001
      endloop
   endfacet
   facet normal 0.000000e+000 0.000000e+000 1.000000e+000
      outer loop
         vertex 0.000000e+000 1.000000e+001 1.000000e+001
         vertex 1.230961e+000 5.595211e+000 1.000000e+001
         vertex 2.918084e+000 8.517394e+000 1.000000e+001
      endloop
   endfacet
   facet normal 0.000000e+000 0.000000e+000 1.000000e+000
      outer loop
         vertex 0.000000e+000 1.000000e+001 1.000000e+001
         vertex 2.918084e+000 8.517394e+000 1.000000e+001
         vertex 1.000000e+001 1.000000e+001 1.000000e+001
      endloop
   endfacet
   facet normal 0.000000e+000 0.000000e+000 1.000000e+000
      outer loop
         vertex 1.000000e+001 1.000000e+001 1.000000e+001
         vertex 2.918084e+000 8.517394e+000 1.000000e+001
         vertex 6.292331e+000 8.517394e+000 1.000000e+001
      endloop
   endfacet
   facet normal 0.000000e+000 0.000000e+000 1.000000e+000
      outer loop
         vertex 1.000000e+001 1.000000e+001 1.000000e+001
         vertex 6.292331e+000 8.517394e+000 1.000000e+001
         vertex 7.979454e+000 5.595211e+000 1.000000e+001
      endloop
   endfacet
   facet normal 1.000000e+000 0.000000e+000 0.000000e+000
      outer loop
         vertex 1.000000e+001 1.000000e+001 0.000000e+000
         vertex 1.000000e+001 1.000000e+001 1.000000e+001
         vertex 1.000000e+001 0.000000e+000 0.000000e+000
      endloop
   endfacet
   facet normal 1.000000e+000 0.000000e+000 0.000000e+000
      outer loop
         vertex 1.000000e+001 0.000000e+000 0.000000e+000
         vertex 1.000000e+001 1.000000e+001 1.000000e+001
         vertex 1.000000e+001 0.000000e+000 1.000000e+001
      endloop
   endfacet
   facet normal 0.000000e+000 0.000000e+000 -1.000000e+000
      outer loop
         vertex 0.000000e+000 1.000000e+001 0.000000e+000
         vertex 1.230961e+000 5.595211e+000 0.000000e+000
         vertex 0.000000e+000 0.000000e+000 0.000000e+000
      endloop
   endfacet
   facet normal 0.000000e+000 0.000000e+000 -1.000000e+000
      outer loop
         vertex 0.000000e+000 0.000000e+000 0.000000e+000
         vertex 1.230961e+000 5.595211e+000 0.000000e+000
         vertex 2.918084e+000 2.673028e+000 0.000000e+000
      endloop
   endfacet
   facet normal 0.000000e+000 0.000000e+000 -1.000000e+000
      outer loop
         vertex 0.000000e+000 0.000000e+000 0.000000e+000
         vertex 2.918084e+000 2.673028e+000 0.000000e+000
         vertex 1.000000e+001 0.000000e+000 0.000000e+000
      endloop
   endfacet
   facet normal 0.000000e+000 0.000000e+000 -1.000000e+000
      outer loop
         vertex 2.918084e+000 2.673028e+000 0.000000e+000
         vertex 6.292331e+000 2.673028e+000 0.000000e+000
         vertex 1.000000e+001 0.000000e+000 0.000000e+000
      endloop
   endfacet
   facet normal 0.000000e+000 0.000000e+000 -1.000000e+000
      outer loop
         vertex 1.000000e+001 0.000000e+000 0.000000e+000
         vertex 6.292331e+000 2.673028e+000 0.000000e+000
         vertex 7.979454e+000 5.595211e+000 0.000000e+000
      endloop
   endfacet
   facet normal 0.000000e+000 0.000000e+000 -1.000000e+000
      outer loop
         vertex 1.000000e+001 0.000000e+000 0.000000e+000
         vertex 7.979454e+000 5.595211e+000 0.000000e+000
         vertex 1.000000e+001 1.000000e+001 0.000000e+000
      endloop
   endfacet
   facet normal 0.000000e+000 0.000000e+000 -1.000000e+000
      outer loop
         vertex 1.000000e+001 1.000000e+001 0.000000e+000
         vertex 7.979454e+000 5.595211e+000 0.000000e+000
         vertex 6.292331e+000 8.517394e+000 0.000000e+000
      endloop
   endfacet
   facet normal 0.000000e+000 0.000000e+000 -1.000000e+000
      outer loop
         vertex 1.000000e+001 1.000000e+001 0.000000e+000
         vertex 6.292331e+000 8.517394e+000 0.000000e+000
         vertex 0.000000e+000 1.000000e+001 0.000000e+000
      endloop
   endfacet
   facet normal 0.000000e+000 0.000000e+000 -1.000000e+000
      outer loop
         vertex 0.000000e+000 1.000000e+001 0.000000e+000
         vertex 6.292331e+000 8.517394e+000 0.000000e+000
         vertex 2.918084e+000 8.517394e+000 0.000000e+000
      endloop
   endfacet
   facet normal 0.000000e+000 0.000000e+000 -1.000000e+000
      outer loop
         vertex 0.000000e+000 1.000000e+001 0.000000e+000
         vertex 2.918084e+000 8.517394e+000 0.000000e+000
         vertex 1.230961e+000 5.595211e+000 0.000000e+000
      endloop
   endfacet
   facet normal 0.000000e+000 1.000000e+000 0.000000e+000
      outer loop
         vertex 1.000000e+001 1.000000e+001 1.000000e+001
         vertex 1.000000e+001 1.000000e+001 0.000000e+000
         vertex 0.000000e+000 1.000000e+001 1.000000e+001
      endloop
   endfacet
   facet normal 0.000000e+000 1.000000e+000 0.000000e+000
      outer loop
         vertex 0.000000e+000 1.000000e+001 1.000000e+001
         vertex 1.000000e+001 1.000000e+001 0.000000e+000
         vertex 0.000000e+000 1.000000e+001 0.000000e+000
      endloop
   endfacet
   facet normal 0.000000e+000 -1.000000e+000 0.000000e+000
      outer loop
         vertex 1.000000e+001 0.000000e+000 0.000000e+000
         vertex 1.000000e+001 0.000000e+000 1.000000e+001
         vertex 0.000000e+000 0.000000e+000 0.000000e+000
      endloop
   endfacet
   facet normal 0.000000e+000 -1.000000e+000 0.000000e+000
      outer loop
         vertex 0.000000e+000 0.000000e+000 0.000000e+000
         vertex 1.000000e+001 0.000000e+000 1.000000e+001
         vertex 0.000000e+000 0.000000e+000 1.000000e+001
      endloop
   endfacet
   facet normal 8.660254e-001 -5.000000e-001 0.000000e+000
      outer loop
         vertex 1.230961e+000 5.595211e+000 0.000000e+000
         vertex 2.918084e+000 8.517394e+000 0.000000e+000
         vertex 1.230961e+000 5.595211e+000 1.000000e+001
      endloop
   endfacet
   facet normal 8.660254e-001 -5.000000e-001 0.000000e+000
      outer loop
         vertex 1.230961e+000 5.595211e+000 1.000000e+001
         vertex 2.918084e+000 8.517394e+000 0.000000e+000
         vertex 2.918084e+000 8.517394e+000 1.000000e+001
      endloop
   endfacet
   facet normal 1.079625e-014 -1.000000e+000 0.000000e+000
      outer loop
         vertex 2.918084e+000 8.517394e+000 0.000000e+000
         vertex 6.292331e+000 8.517394e+000 0.000000e+000
         vertex 2.918084e+000 8.517394e+000 1.000000e+001
      endloop
   endfacet
   facet normal 1.079625e-014 -1.000000e+000 0.000000e+000
      outer loop
         vertex 2.918084e+000 8.517394e+000 1.000000e+001
         vertex 6.292331e+000 8.517394e+000 0.000000e+000
         vertex 6.292331e+000 8.517394e+000 1.000000e+001
      endloop
   endfacet
   facet normal -8.660254e-001 -5.000000e-001 0.000000e+000
      outer loop
         vertex 6.292331e+000 8.517394e+000 0.000000e+000
         vertex 7.979454e+000 5.595211e+000 0.000000e+000
         vertex 6.292331e+000 8.517394e+000 1.000000e+001
      endloop
   endfacet
   facet normal -8.660254e-001 -5.000000e-001 0.000000e+000
      outer loop
         vertex 6.292331e+000 8.517394e+000 1.000000e+001
         vertex 7.979454e+000 5.595211e+000 0.000000e+000
         vertex 7.979454e+000 5.595211e+000 1.000000e+001
      endloop
   endfacet
   facet normal -8.660254e-001 5.000000e-001 0.000000e+000
      outer loop
         vertex 7.979454e+000 5.595211e+000 0.000000e+000
         vertex 6.292331e+000 2.673028e+000 0.000000e+000
         vertex 7.979454e+000 5.595211e+000 1.000000e+001
      endloop
   endfacet
   facet normal -8.660254e-001 5.000000e-001 0.000000e+000
      outer loop
         vertex 7.979454e+000 5.595211e+000 1.000000e+001
         vertex 6.292331e+000 2.673028e+000 0.000000e+000
         vertex 6.292331e+000 2.673028e+000 1.000000e+001
      endloop
   endfacet
   facet normal -3.470222e-015 1.000000e+000 0.000000e+000
      outer loop
         vertex 6.292331e+000 2.673028e+000 0.000000e+000
         vertex 2.918084e+000 2.673028e+000 0.000000e+000
         vertex 6.292331e+000 2.673028e+000 1.000000e+001
      endloop
   endfacet
   facet normal -3.470222e-015 1.000000e+000 0.000000e+000
      outer loop
         vertex 6.292331e+000 2.673028e+000 1.000000e+001
         vertex 2.918084e+000 2.673028e+000 0.000000e+000
         vertex 2.918084e+000 2.673028e+000 1.000000e+001
      endloop
   endfacet
   facet normal 8.660254e-001 5.000000e-001 0.000000e+000
      outer loop
         vertex 2.918084e+000 2.673028e+000 0.000000e+000
         vertex 1.230961e+000 5.595211e+000 0.000000e+000
         vertex 2.918084e+000 2.673028e+000 1.000000e+001
      endloop
   endfacet
   facet normal 8.660254e-001 5.000000e-001 0.000000e+000
      outer loop
         vertex 2.918084e+000 2.673028e+000 1.000000e+001
         vertex 1.230961e+000 5.595211e+000 0.000000e+000
         vertex 1.230961e+000 5.595211e+000 1.000000e+001
      endloop
   endfacet
endsolid