solid 22_302
   facet normal -1.000000e+000 0.000000e+000 0.000000e+000
      outer loop
         vertex 0.000000e+000 1.000000e+001 1.000000e+001
         vertex 0.000000e+000 1.000000e+001 0.000000e+000
         vertex 0.000000e+000 0.000000e+000 1.000000e+001
      endloop
   endfacet
   facet normal -1.000000e+000 0.000000e+000 0.000000e+000
      outer loop
         vertex 0.000000e+000 0.000000e+000 1.000000e+001
         vertex 0.000000e+000 1.000000e+001 0.000000e+000
         vertex 0.000000e+000 0.000000e+000 0.000000e+000
      endloop
   endfacet
   facet normal 0.000000e+000 0.000000e+000 1.000000e+000
      outer loop
         vertex 1.000000e+001 1.000000e+001 1.000000e+001
         vertex 8.848163e+000 5.933553e+000 1.000000e+001
         vertex 1.000000e+001 0.000000e+000 1.000000e+001
      endloop
   endfacet
   facet normal 0.000000e+000 0.000000e+000 1.000000e+000
      outer loop
         vertex 1.000000e+001 0.000000e+000 1.000000e+001
         vertex 8.848163e+000 5.933553e+000 1.000000e+001
         vertex 7.303424e+000 3.257988e+000 1.000000e+001
      endloop
   endfacet
   facet normal 0.000000e+000 0.000000e+000 1.000000e+000
      outer loop
         vertex 1.000000e+001 0.000000e+000 1.000000e+001
         vertex 7.303424e+000 3.257988e+000 1.000000e+001
         vertex 0.000000e+000 0.000000e+000 1.000000e+001
      endloop
   endfacet
   facet normal 0.000000e+000 0.000000e+000 1.000000e+000
      outer loop
         vertex 7.303424e+000 3.257988e+000 1.000000e+001
         vertex 4.213947e+000 3.257988e+000 1.000000e+001
         vertex 0.000000e+000 0.000000e+000 1.000000e+001
      endloop
   endfacet
   facet normal 0.000000e+000 0.000000e+000 1.000000e+000
      outer loop
         vertex 0.000000e+000 0.000000e+000 1.000000e+001
         vertex 4.213947e+000 3.257988e+000 1.000000e+001
         vertex 2.669209e+000 5.933553e+000 1.000000e+001
      endloop
   endfacet
   facet normal 0.000000e+000 0.000000e+000 1.000000e+000
      outer loop
         vertex 0.000000e+000 0.000000e+000 1.000000e+001
         vertex 2.669209e+000 5.933553e+000 1.000000e+001
         vertex 0.000000e+000 1.000000e+001 1.000000e+001
      endloop
   endfacet
   facet normal 0.000000e+000 0.000000e+000 1.000000e+000
      outer loop
         vertex 0.000000e+000 1.000000e+001 1.000000e+001
         vertex 2.669209e+000 5.933553e+000 1.000000e+001
         vertex 4.213947e+000 8.609118e+000 1.000000e+001
      endloop
   endfacet
   facet normal 0.000000e+000 0.000000e+000 1.000000e+000
      outer loop
         vertex 0.000000e+000 1.000000e+001 1.000000e+001
         vertex 4.213947e+000 8.609118e+000 1.000000e+001
         vertex 1.000000e+001 1.000000e+001 1.000000e+001
      endloop
   endfacet
   facet normal 0.000000e+000 0.000000e+000 1.000000e+000
      outer loop
         vertex 1.000000e+001 1.000000e+001 1.000000e+001
         vertex 4.213947e+000 8.609118e+000 1.000000e+001
         vertex 7.303424e+000 8.609118e+000 1.000000e+001
      endloop
   endfacet
   facet normal 0.000000e+000 0.000000e+000 1.000000e+000
      outer loop
         vertex 1.000000e+001 1.000000e+001 1.000000e+001
         vertex 7.303424e+000 8.609118e+000 1.000000e+001
         vertex 8.848163e+000 5.933553e+000 1.000000e+001
      endloop
   endfacet
   facet normal 1.000000e+000 0.000000e+000 0.000000e+000
      outer loop
         vertex 1.000000e+001 1.000000e+001 0.000000e+000
         vertex 1.000000e+001 1.000000e+001 1.000000e+001
         vertex 1.000000e+001 0.000000e+000 0.000000e+000
      endloop
   endfacet
   facet normal 1.000000e+000 0.000000e+000 0.000000e+000
      outer loop
         vertex 1.000000e+001 0.000000e+000 0.000000e+000
         vertex 1.000000e+001 1.000000e+001 1.000000e+001
         vertex 1.000000e+001 0.000000e+000 1.000000e+001
      endloop
   endfacet
   facet normal 0.000000e+000 0.000000e+000 -1.000000e+000
      outer loop
         vertex 0.000000e+000 1.000000e+001 0.000000e+000
         vertex 2.669209e+000 5.933553e+000 0.000000e+000
         vertex 0.000000e+000 0.000000e+000 0.000000e+000
      endloop
   endfacet
   facet normal 0.000000e+000 0.000000e+000 -1.000000e+000
      outer loop
         vertex 0.000000e+000 0.000000e+000 0.000000e+000
         vertex 2.669209e+000 5.933553e+000 0.000000e+000
         vertex 4.213947e+000 3.257988e+000 0.000000e+000
      endloop
   endfacet
   facet normal 0.000000e+000 0.000000e+000 -1.000000e+000
      outer loop
         vertex 0.000000e+000 0.000000e+000 0.000000e+000
         vertex 4.213947e+000 3.257988e+000 0.000000e+000
         vertex 1.000000e+001 0.000000e+000 0.000000e+000
      endloop
   endfacet
   facet normal 0.000000e+000 0.000000e+000 -1.000000e+000
      outer loop
         vertex 4.213947e+000 3.257988e+000 0.000000e+000
         vertex 7.303424e+000 3.257988e+000 0.000000e+000
         vertex 1.000000e+001 0.000000e+000 0.000000e+000
      endloop
   endfacet
   facet normal 0.000000e+000 0.000000e+000 -1.000000e+000
      outer loop
         vertex 1.000000e+001 0.000000e+000 0.000000e+000
         vertex 7.303424e+000 3.257988e+000 0.000000e+000
         vertex 8.848163e+000 5.933553e+000 0.000000e+000
      endloop
   endfacet
   facet normal 0.000000e+000 0.000000e+000 -1.000000e+000
      outer loop
         vertex 1.000000e+001 0.000000e+000 0.000000e+000
         vertex 8.848163e+000 5.933553e+000 0.000000e+000
         vertex 1.000000e+001 1.000000e+001 0.000000e+000
      endloop
   endfacet
   facet normal 0.000000e+000 0.000000e+000 -1.000000e+000
      outer loop
         vertex 1.000000e+001 1.000000e+001 0.000000e+000
         vertex 8.848163e+000 5.933553e+000 0.000000e+000
         vertex 7.303424e+000 8.609118e+000 0.000000e+000
      endloop
   endfacet
   facet normal 0.000000e+000 0.000000e+000 -1.000000e+000
      outer loop
         vertex 1.000000e+001 1.000000e+001 0.000000e+000
         vertex 7.303424e+000 8.609118e+000 0.000000e+000
         vertex 0.000000e+000 1.000000e+001 0.000000e+000
      endloop
   endfacet
   facet normal 0.000000e+000 0.000000e+000 -1.000000e+000
      outer loop
         vertex 0.000000e+000 1.000000e+001 0.000000e+000
         vertex 7.303424e+000 8.609118e+000 0.000000e+000
         vertex 4.213947e+000 8.609118e+000 0.000000e+000
      endloop
   endfacet
   facet normal 0.000000e+000 0.000000e+000 -1.000000e+000
      outer loop
         vertex 0.000000e+000 1.000000e+001 0.000000e+000
         vertex 4.213947e+000 8.609118e+000 0.000000e+000
         vertex 2.669209e+000 5.933553e+000 0.000000e+000
      endloop
   endfacet
   facet normal 0.000000e+000 1.000000e+000 0.000000e+000
      outer loop
         vertex 1.000000e+001 1.000000e+001 1.000000e+001
         vertex 1.000000e+001 1.000000e+001 0.000000e+000
         vertex 0.000000e+000 1.000000e+001 1.000000e+001
      endloop
   endfacet
   facet normal 0.000000e+000 1.000000e+000 0.000000e+000
      outer loop
         vertex 0.000000e+000 1.000000e+001 1.000000e+001
         vertex 1.000000e+001 1.000000e+001 0.000000e+000
         vertex 0.000000e+000 1.000000e+001 0.000000e+000
      endloop
   endfacet
   facet normal 0.000000e+000 -1.000000e+000 0.000000e+000
      outer loop
         vertex 1.000000e+001 0.000000e+000 0.000000e+000
         vertex 1.000000e+001 0.000000e+000 1.000000e+001
         vertex 0.000000e+000 0.000000e+000 0.000000e+000
      endloop
   endfacet
   facet normal 0.000000e+000 -1.000000e+000 0.000000e+000
      outer loop
         vertex 0.000000e+000 0.000000e+000 0.000000e+000
         vertex 1.000000e+001 0.000000e+000 1.000000e+001
         vertex 0.000000e+000 0.000000e+000 1.000000e+001
      endloop
   endfacet
   facet normal 8.660254e-001 -5.000000e-001 0.000000e+000
      outer loop
         vertex 2.669209e+000 5.933553e+000 0.000000e+000
         vertex 4.213947e+000 8.609118e+000 0.000000e+000
         vertex 2.669209e+000 5.933553e+000 1.000000e+001
      endloop
   endfacet
   facet normal 8.660254e-001 -5.000000e-001 0.000000e+000
      outer loop
         vertex 2.669209e+000 5.933553e+000 1.000000e+001
         vertex 4.213947e+000 8.609118e+000 0.000000e+000
         vertex 4.213947e+000 8.609118e+000 1.000000e+001
      endloop
   endfacet
   facet normal 1.066839e-014 -1.000000e+000 0.000000e+000
      outer loop
         vertex 4.213947e+000 8.609118e+000 0.000000e+000
         vertex 7.303424e+000 8.609118e+000 0.000000e+000
         vertex 4.213947e+000 8.609118e+000 1.000000e+001
      endloop
   endfacet
   facet normal 1.066839e-014 -1.000000e+000 0.000000e+000
      outer loop
         vertex 4.213947e+000 8.609118e+000 1.000000e+001
         vertex 7.303424e+000 8.609118e+000 0.000000e+000
         vertex 7.303424e+000 8.609118e+000 1.000000e+001
      endloop
   endfacet
   facet normal -8.660254e-001 -5.000000e-001 0.000000e+000
      outer loop
         vertex 7.303424e+000 8.609118e+000 0.000000e+000
         vertex 8.848163e+000 5.933553e+000 0.000000e+000
         vertex 7.303424e+000 8.609118e+000 1.000000e+001
      endloop
   endfacet
   facet normal -8.660254e-001 -5.000000e-001 0.000000e+000
      outer loop
         vertex 7.303424e+000 8.609118e+000 1.000000e+001
         vertex 8.848163e+000 5.933553e+000 0.000000e+000
         vertex 8.848163e+000 5.933553e+000 1.000000e+001
      endloop
   endfacet
   facet normal -8.660254e-001 5.000000e-001 0.000000e+000
      outer loop
         vertex 8.848163e+000 5.933553e+000 0.000000e+000
         vertex 7.303424e+000 3.257988e+000 0.000000e+000
         vertex 8.848163e+000 5.933553e+000 1.000000e+001
      endloop
   endfacet
   facet normal -8.660254e-001 5.000000e-001 0.000000e+000
      outer loop
         vertex 8.848163e+000 5.933553e+000 1.000000e+001
         vertex 7.303424e+000 3.257988e+000 0.000000e+000
         vertex 7.303424e+000 3.257988e+000 1.000000e+001
      endloop
   endfacet
   facet normal -3.509339e-015 1.000000e+000 0.000000e+000
      outer loop
         vertex 7.303424e+000 3.257988e+000 0.000000e+000
         vertex 4.213947e+000 3.257988e+000 0.000000e+000
         vertex 7.303424e+000 3.257988e+000 1.000000e+001
      endloop
   endfacet
   facet normal -3.509339e-015 1.000000e+000 0.000000e+000
      outer loop
         vertex 7.303424e+000 3.257988e+000 1.000000e+001
         vertex 4.213947e+000 3.257988e+000 0.000000e+000
         vertex 4.213947e+000 3.257988e+000 1.000000e+001
      endloop
   endfacet
   facet normal 8.660254e-001 5.000000e-001 0.000000e+000
      outer loop
         vertex 4.213947e+000 3.257988e+000 0.000000e+000
         vertex 2.669209e+000 5.933553e+000 0.000000e+000
         vertex 4.213947e+000 3.257988e+000 1.000000e+001
      endloop
   endfacet
   facet normal 8.660254e-001 5.000000e-001 0.000000e+000
      outer loop
         vertex 4.213947e+000 3.257988e+000 1.000000e+001
         vertex 2.669209e+000 5.933553e+000 0.000000e+000
         vertex 2.669209e+000 5.933553e+000 1.000000e+001
      endloop
   endfacet
endsolid