solid 22_579
   facet normal -1.000000e+000 0.000000e+000 0.000000e+000
      outer loop
         vertex 0.000000e+000 1.000000e+001 1.000000e+001
         vertex 0.000000e+000 1.000000e+001 0.000000e+000
         vertex 0.000000e+000 0.000000e+000 1.000000e+001
      endloop
   endfacet
   facet normal -1.000000e+000 0.000000e+000 0.000000e+000
      outer loop
         vertex 0.000000e+000 0.000000e+000 1.000000e+001
         vertex 0.000000e+000 1.000000e+001 0.000000e+000
         vertex 0.000000e+000 0.000000e+000 0.000000e+000
      endloop
   endfacet
   facet normal 0.000000e+000 0.000000e+000 1.000000e+000
      outer loop
         vertex 1.000000e+001 1.000000e+001 1.000000e+001
         vertex 6.720716e+000 3.431887e+000 1.000000e+001
         vertex 1.000000e+001 0.000000e+000 1.000000e+001
      endloop
   endfacet
   facet normal 0.000000e+000 0.000000e+000 1.000000e+000
      outer loop
         vertex 1.000000e+001 0.000000e+000 1.000000e+001
         vertex 6.720716e+000 3.431887e+000 1.000000e+001
         vertex 5.739540e+000 1.732439e+000 1.000000e+001
      endloop
   endfacet
   facet normal 0.000000e+000 0.000000e+000 1.000000e+000
      outer loop
         vertex 1.000000e+001 0.000000e+000 1.000000e+001
         vertex 5.739540e+000 1.732439e+000 1.000000e+001
         vertex 0.000000e+000 0.000000e+000 1.000000e+001
      endloop
   endfacet
   facet normal 0.000000e+000 0.000000e+000 1.000000e+000
      outer loop
         vertex 5.739540e+000 1.732439e+000 1.000000e+001
         vertex 3.777187e+000 1.732439e+000 1.000000e+001
         vertex 0.000000e+000 0.000000e+000 1.000000e+001
      endloop
   endfacet
   facet normal 0.000000e+000 0.000000e+000 1.000000e+000
      outer loop
         vertex 0.000000e+000 0.000000e+000 1.000000e+001
         vertex 3.777187e+000 1.732439e+000 1.000000e+001
         vertex 2.796010e+000 3.431887e+000 1.000000e+001
      endloop
   endfacet
   facet normal 0.000000e+000 0.000000e+000 1.000000e+000
      outer loop
         vertex 0.000000e+000 0.000000e+000 1.000000e+001
         vertex 2.796010e+000 3.431887e+000 1.000000e+001
         vertex 0.000000e+000 1.000000e+001 1.000000e+001
      endloop
   endfacet
   facet normal 0.000000e+000 0.000000e+000 1.000000e+000
      outer loop
         vertex 0.000000e+000 1.000000e+001 1.000000e+001
         vertex 2.796010e+000 3.431887e+000 1.000000e+001
         vertex 3.777187e+000 5.131335e+000 1.000000e+001
      endloop
   endfacet
   facet normal 0.000000e+000 0.000000e+000 1.000000e+000
      outer loop
         vertex 0.000000e+000 1.000000e+001 1.000000e+001
         vertex 3.777187e+000 5.131335e+000 1.000000e+001
         vertex 1.000000e+001 1.000000e+001 1.000000e+001
      endloop
   endfacet
   facet normal 0.000000e+000 0.000000e+000 1.000000e+000
      outer loop
         vertex 1.000000e+001 1.000000e+001 1.000000e+001
         vertex 3.777187e+000 5.131335e+000 1.000000e+001
         vertex 5.739540e+000 5.131335e+000 1.000000e+001
      endloop
   endfacet
   facet normal 0.000000e+000 0.000000e+000 1.000000e+000
      outer loop
         vertex 1.000000e+001 1.000000e+001 1.000000e+001
         vertex 5.739540e+000 5.131335e+000 1.000000e+001
         vertex 6.720716e+000 3.431887e+000 1.000000e+001
      endloop
   endfacet
   facet normal 1.000000e+000 0.000000e+000 0.000000e+000
      outer loop
         vertex 1.000000e+001 1.000000e+001 0.000000e+000
         vertex 1.000000e+001 1.000000e+001 1.000000e+001
         vertex 1.000000e+001 0.000000e+000 0.000000e+000
      endloop
   endfacet
   facet normal 1.000000e+000 0.000000e+000 0.000000e+000
      outer loop
         vertex 1.000000e+001 0.000000e+000 0.000000e+000
         vertex 1.000000e+001 1.000000e+001 1.000000e+001
         vertex 1.000000e+001 0.000000e+000 1.000000e+001
      endloop
   endfacet
   facet normal 0.000000e+000 0.000000e+000 -1.000000e+000
      outer loop
         vertex 1.000000e+001 0.000000e+000 0.000000e+000
         vertex 6.720716e+000 3.431887e+000 0.000000e+000
         vertex 1.000000e+001 1.000000e+001 0.000000e+000
      endloop
   endfacet
   facet normal 0.000000e+000 0.000000e+000 -1.000000e+000
      outer loop
         vertex 1.000000e+001 1.000000e+001 0.000000e+000
         vertex 6.720716e+000 3.431887e+000 0.000000e+000
         vertex 5.739540e+000 5.131335e+000 0.000000e+000
      endloop
   endfacet
   facet normal 0.000000e+000 0.000000e+000 -1.000000e+000
      outer loop
         vertex 1.000000e+001 1.000000e+001 0.000000e+000
         vertex 5.739540e+000 5.131335e+000 0.000000e+000
         vertex 0.000000e+000 1.000000e+001 0.000000e+000
      endloop
   endfacet
   facet normal 0.000000e+000 0.000000e+000 -1.000000e+000
      outer loop
         vertex 5.739540e+000 5.131335e+000 0.000000e+000
         vertex 3.777187e+000 5.131335e+000 0.000000e+000
         vertex 0.000000e+000 1.000000e+001 0.000000e+000
      endloop
   endfacet
   facet normal 0.000000e+000 0.000000e+000 -1.000000e+000
      outer loop
         vertex 0.000000e+000 1.000000e+001 0.000000e+000
         vertex 3.777187e+000 5.131335e+000 0.000000e+000
         vertex 2.796010e+000 3.431887e+000 0.000000e+000
      endloop
   endfacet
   facet normal 0.000000e+000 0.000000e+000 -1.000000e+000
      outer loop
         vertex 0.000000e+000 1.000000e+001 0.000000e+000
         vertex 2.796010e+000 3.431887e+000 0.000000e+000
         vertex 0.000000e+000 0.000000e+000 0.000000e+000
      endloop
   endfacet
   facet normal 0.000000e+000 0.000000e+000 -1.000000e+000
      outer loop
         vertex 0.000000e+000 0.000000e+000 0.000000e+000
         vertex 2.796010e+000 3.431887e+000 0.000000e+000
         vertex 3.777187e+000 1.732439e+000 0.000000e+000
      endloop
   endfacet
   facet normal 0.000000e+000 0.000000e+000 -1.000000e+000
      outer loop
         vertex 0.000000e+000 0.000000e+000 0.000000e+000
         vertex 3.777187e+000 1.732439e+000 0.000000e+000
         vertex 1.000000e+001 0.000000e+000 0.000000e+000
      endloop
   endfacet
   facet normal 0.000000e+000 0.000000e+000 -1.000000e+000
      outer loop
         vertex 1.000000e+001 0.000000e+000 0.000000e+000
         vertex 3.777187e+000 1.732439e+000 0.000000e+000
         vertex 5.739540e+000 1.732439e+000 0.000000e+000
      endloop
   endfacet
   facet normal 0.000000e+000 0.000000e+000 -1.000000e+000
      outer loop
         vertex 1.000000e+001 0.000000e+000 0.000000e+000
         vertex 5.739540e+000 1.732439e+000 0.000000e+000
         vertex 6.720716e+000 3.431887e+000 0.000000e+000
      endloop
   endfacet
   facet normal 0.000000e+000 1.000000e+000 0.000000e+000
      outer loop
         vertex 1.000000e+001 1.000000e+001 1.000000e+001
         vertex 1.000000e+001 1.000000e+001 0.000000e+000
         vertex 0.000000e+000 1.000000e+001 1.000000e+001
      endloop
   endfacet
   facet normal 0.000000e+000 1.000000e+000 0.000000e+000
      outer loop
         vertex 0.000000e+000 1.000000e+001 1.000000e+001
         vertex 1.000000e+001 1.000000e+001 0.000000e+000
         vertex 0.000000e+000 1.000000e+001 0.000000e+000
      endloop
   endfacet
   facet normal 0.000000e+000 -1.000000e+000 0.000000e+000
      outer loop
         vertex 1.000000e+001 0.000000e+000 0.000000e+000
         vertex 1.000000e+001 0.000000e+000 1.000000e+001
         vertex 0.000000e+000 0.000000e+000 0.000000e+000
      endloop
   endfacet
   facet normal 0.000000e+000 -1.000000e+000 0.000000e+000
      outer loop
         vertex 0.000000e+000 0.000000e+000 0.000000e+000
         vertex 1.000000e+001 0.000000e+000 1.000000e+001
         vertex 0.000000e+000 0.000000e+000 1.000000e+001
      endloop
   endfacet
   facet normal 8.660254e-001 -5.000000e-001 0.000000e+000
      outer loop
         vertex 2.796010e+000 3.431887e+000 0.000000e+000
         vertex 3.777187e+000 5.131335e+000 0.000000e+000
         vertex 2.796010e+000 3.431887e+000 1.000000e+001
      endloop
   endfacet
   facet normal 8.660254e-001 -5.000000e-001 0.000000e+000
      outer loop
         vertex 2.796010e+000 3.431887e+000 1.000000e+001
         vertex 3.777187e+000 5.131335e+000 0.000000e+000
         vertex 3.777187e+000 5.131335e+000 1.000000e+001
      endloop
   endfacet
   facet normal 1.060802e-014 -1.000000e+000 0.000000e+000
      outer loop
         vertex 3.777187e+000 5.131335e+000 0.000000e+000
         vertex 5.739540e+000 5.131335e+000 0.000000e+000
         vertex 3.777187e+000 5.131335e+000 1.000000e+001
      endloop
   endfacet
   facet normal 1.060802e-014 -1.000000e+000 0.000000e+000
      outer loop
         vertex 3.777187e+000 5.131335e+000 1.000000e+001
         vertex 5.739540e+000 5.131335e+000 0.000000e+000
         vertex 5.739540e+000 5.131335e+000 1.000000e+001
      endloop
   endfacet
   facet normal -8.660254e-001 -5.000000e-001 0.000000e+000
      outer loop
         vertex 5.739540e+000 5.131335e+000 0.000000e+000
         vertex 6.720716e+000 3.431887e+000 0.000000e+000
         vertex 5.739540e+000 5.131335e+000 1.000000e+001
      endloop
   endfacet
   facet normal -8.660254e-001 -5.000000e-001 0.000000e+000
      outer loop
         vertex 5.739540e+000 5.131335e+000 1.000000e+001
         vertex 6.720716e+000 3.431887e+000 0.000000e+000
         vertex 6.720716e+000 3.431887e+000 1.000000e+001
      endloop
   endfacet
   facet normal -8.660254e-001 5.000000e-001 0.000000e+000
      outer loop
         vertex 6.720716e+000 3.431887e+000 0.000000e+000
         vertex 5.739540e+000 1.732439e+000 0.000000e+000
         vertex 6.720716e+000 3.431887e+000 1.000000e+001
      endloop
   endfacet
   facet normal -8.660254e-001 5.000000e-001 0.000000e+000
      outer loop
         vertex 6.720716e+000 3.431887e+000 1.000000e+001
         vertex 5.739540e+000 1.732439e+000 0.000000e+000
         vertex 5.739540e+000 1.732439e+000 1.000000e+001
      endloop
   endfacet
   facet normal -3.646507e-015 1.000000e+000 0.000000e+000
      outer loop
         vertex 5.739540e+000 1.732439e+000 0.000000e+000
         vertex 3.777187e+000 1.732439e+000 0.000000e+000
         vertex 5.739540e+000 1.732439e+000 1.000000e+001
      endloop
   endfacet
   facet normal -3.646507e-015 1.000000e+000 0.000000e+000
      outer loop
         vertex 5.739540e+000 1.732439e+000 1.000000e+001
         vertex 3.777187e+000 1.732439e+000 0.000000e+000
         vertex 3.777187e+000 1.732439e+000 1.000000e+001
      endloop
   endfacet
   facet normal 8.660254e-001 5.000000e-001 0.000000e+000
      outer loop
         vertex 3.777187e+000 1.732439e+000 0.000000e+000
         vertex 2.796010e+000 3.431887e+000 0.000000e+000
         vertex 3.777187e+000 1.732439e+000 1.000000e+001
      endloop
   endfacet
   facet normal 8.660254e-001 5.000000e-001 0.000000e+000
      outer loop
         vertex 3.777187e+000 1.732439e+000 1.000000e+001
         vertex 2.796010e+000 3.431887e+000 0.000000e+000
         vertex 2.796010e+000 3.431887e+000 1.000000e+001
      endloop
   endfacet
endsolid