solid 22_568
   facet normal -1.000000e+000 0.000000e+000 0.000000e+000
      outer loop
         vertex 0.000000e+000 1.000000e+001 1.000000e+001
         vertex 0.000000e+000 1.000000e+001 0.000000e+000
         vertex 0.000000e+000 0.000000e+000 1.000000e+001
      endloop
   endfacet
   facet normal -1.000000e+000 0.000000e+000 0.000000e+000
      outer loop
         vertex 0.000000e+000 0.000000e+000 1.000000e+001
         vertex 0.000000e+000 1.000000e+001 0.000000e+000
         vertex 0.000000e+000 0.000000e+000 0.000000e+000
      endloop
   endfacet
   facet normal 0.000000e+000 0.000000e+000 1.000000e+000
      outer loop
         vertex 0.000000e+000 0.000000e+000 1.000000e+001
         vertex 1.000000e+001 0.000000e+000 1.000000e+001
         vertex 5.481715e+000 1.322164e+000 1.000000e+001
      endloop
   endfacet
   facet normal 0.000000e+000 0.000000e+000 1.000000e+000
      outer loop
         vertex 5.481715e+000 1.322164e+000 1.000000e+001
         vertex 3.404597e+000 1.322164e+000 1.000000e+001
         vertex 0.000000e+000 0.000000e+000 1.000000e+001
      endloop
   endfacet
   facet normal 0.000000e+000 0.000000e+000 1.000000e+000
      outer loop
         vertex 0.000000e+000 0.000000e+000 1.000000e+001
         vertex 3.404597e+000 1.322164e+000 1.000000e+001
         vertex 2.366038e+000 3.121001e+000 1.000000e+001
      endloop
   endfacet
   facet normal 0.000000e+000 0.000000e+000 1.000000e+000
      outer loop
         vertex 0.000000e+000 0.000000e+000 1.000000e+001
         vertex 2.366038e+000 3.121001e+000 1.000000e+001
         vertex 0.000000e+000 1.000000e+001 1.000000e+001
      endloop
   endfacet
   facet normal 0.000000e+000 0.000000e+000 1.000000e+000
      outer loop
         vertex 0.000000e+000 1.000000e+001 1.000000e+001
         vertex 2.366038e+000 3.121001e+000 1.000000e+001
         vertex 3.404597e+000 4.919838e+000 1.000000e+001
      endloop
   endfacet
   facet normal 0.000000e+000 0.000000e+000 1.000000e+000
      outer loop
         vertex 0.000000e+000 1.000000e+001 1.000000e+001
         vertex 3.404597e+000 4.919838e+000 1.000000e+001
         vertex 1.000000e+001 1.000000e+001 1.000000e+001
      endloop
   endfacet
   facet normal 0.000000e+000 0.000000e+000 1.000000e+000
      outer loop
         vertex 1.000000e+001 1.000000e+001 1.000000e+001
         vertex 3.404597e+000 4.919838e+000 1.000000e+001
         vertex 5.481715e+000 4.919838e+000 1.000000e+001
      endloop
   endfacet
   facet normal 0.000000e+000 0.000000e+000 1.000000e+000
      outer loop
         vertex 1.000000e+001 1.000000e+001 1.000000e+001
         vertex 5.481715e+000 4.919838e+000 1.000000e+001
         vertex 1.000000e+001 0.000000e+000 1.000000e+001
      endloop
   endfacet
   facet normal 0.000000e+000 0.000000e+000 1.000000e+000
      outer loop
         vertex 1.000000e+001 0.000000e+000 1.000000e+001
         vertex 5.481715e+000 4.919838e+000 1.000000e+001
         vertex 6.520275e+000 3.121001e+000 1.000000e+001
      endloop
   endfacet
   facet normal 0.000000e+000 0.000000e+000 1.000000e+000
      outer loop
         vertex 1.000000e+001 0.000000e+000 1.000000e+001
         vertex 6.520275e+000 3.121001e+000 1.000000e+001
         vertex 5.481715e+000 1.322164e+000 1.000000e+001
      endloop
   endfacet
   facet normal 1.000000e+000 0.000000e+000 0.000000e+000
      outer loop
         vertex 1.000000e+001 1.000000e+001 0.000000e+000
         vertex 1.000000e+001 1.000000e+001 1.000000e+001
         vertex 1.000000e+001 0.000000e+000 0.000000e+000
      endloop
   endfacet
   facet normal 1.000000e+000 0.000000e+000 0.000000e+000
      outer loop
         vertex 1.000000e+001 0.000000e+000 0.000000e+000
         vertex 1.000000e+001 1.000000e+001 1.000000e+001
         vertex 1.000000e+001 0.000000e+000 1.000000e+001
      endloop
   endfacet
   facet normal 0.000000e+000 0.000000e+000 -1.000000e+000
      outer loop
         vertex 2.366038e+000 3.121001e+000 0.000000e+000
         vertex 0.000000e+000 0.000000e+000 0.000000e+000
         vertex 0.000000e+000 1.000000e+001 0.000000e+000
      endloop
   endfacet
   facet normal 0.000000e+000 0.000000e+000 -1.000000e+000
      outer loop
         vertex 2.366038e+000 3.121001e+000 0.000000e+000
         vertex 3.404597e+000 1.322164e+000 0.000000e+000
         vertex 0.000000e+000 0.000000e+000 0.000000e+000
      endloop
   endfacet
   facet normal 0.000000e+000 0.000000e+000 -1.000000e+000
      outer loop
         vertex 0.000000e+000 0.000000e+000 0.000000e+000
         vertex 3.404597e+000 1.322164e+000 0.000000e+000
         vertex 5.481715e+000 1.322164e+000 0.000000e+000
      endloop
   endfacet
   facet normal 0.000000e+000 0.000000e+000 -1.000000e+000
      outer loop
         vertex 0.000000e+000 0.000000e+000 0.000000e+000
         vertex 5.481715e+000 1.322164e+000 0.000000e+000
         vertex 1.000000e+001 0.000000e+000 0.000000e+000
      endloop
   endfacet
   facet normal 0.000000e+000 0.000000e+000 -1.000000e+000
      outer loop
         vertex 1.000000e+001 0.000000e+000 0.000000e+000
         vertex 5.481715e+000 1.322164e+000 0.000000e+000
         vertex 6.520275e+000 3.121001e+000 0.000000e+000
      endloop
   endfacet
   facet normal 0.000000e+000 0.000000e+000 -1.000000e+000
      outer loop
         vertex 1.000000e+001 0.000000e+000 0.000000e+000
         vertex 6.520275e+000 3.121001e+000 0.000000e+000
         vertex 1.000000e+001 1.000000e+001 0.000000e+000
      endloop
   endfacet
   facet normal 0.000000e+000 0.000000e+000 -1.000000e+000
      outer loop
         vertex 1.000000e+001 1.000000e+001 0.000000e+000
         vertex 6.520275e+000 3.121001e+000 0.000000e+000
         vertex 5.481715e+000 4.919838e+000 0.000000e+000
      endloop
   endfacet
   facet normal 0.000000e+000 0.000000e+000 -1.000000e+000
      outer loop
         vertex 1.000000e+001 1.000000e+001 0.000000e+000
         vertex 5.481715e+000 4.919838e+000 0.000000e+000
         vertex 0.000000e+000 1.000000e+001 0.000000e+000
      endloop
   endfacet
   facet normal 0.000000e+000 0.000000e+000 -1.000000e+000
      outer loop
         vertex 0.000000e+000 1.000000e+001 0.000000e+000
         vertex 5.481715e+000 4.919838e+000 0.000000e+000
         vertex 3.404597e+000 4.919838e+000 0.000000e+000
      endloop
   endfacet
   facet normal 0.000000e+000 0.000000e+000 -1.000000e+000
      outer loop
         vertex 0.000000e+000 1.000000e+001 0.000000e+000
         vertex 3.404597e+000 4.919838e+000 0.000000e+000
         vertex 2.366038e+000 3.121001e+000 0.000000e+000
      endloop
   endfacet
   facet normal 0.000000e+000 1.000000e+000 0.000000e+000
      outer loop
         vertex 1.000000e+001 1.000000e+001 1.000000e+001
         vertex 1.000000e+001 1.000000e+001 0.000000e+000
         vertex 0.000000e+000 1.000000e+001 1.000000e+001
      endloop
   endfacet
   facet normal 0.000000e+000 1.000000e+000 0.000000e+000
      outer loop
         vertex 0.000000e+000 1.000000e+001 1.000000e+001
         vertex 1.000000e+001 1.000000e+001 0.000000e+000
         vertex 0.000000e+000 1.000000e+001 0.000000e+000
      endloop
   endfacet
   facet normal 0.000000e+000 -1.000000e+000 0.000000e+000
      outer loop
         vertex 1.000000e+001 0.000000e+000 0.000000e+000
         vertex 1.000000e+001 0.000000e+000 1.000000e+001
         vertex 0.000000e+000 0.000000e+000 0.000000e+000
      endloop
   endfacet
   facet normal 0.000000e+000 -1.000000e+000 0.000000e+000
      outer loop
         vertex 0.000000e+000 0.000000e+000 0.000000e+000
         vertex 1.000000e+001 0.000000e+000 1.000000e+001
         vertex 0.000000e+000 0.000000e+000 1.000000e+001
      endloop
   endfacet
   facet normal 8.660254e-001 -5.000000e-001 0.000000e+000
      outer loop
         vertex 2.366038e+000 3.121001e+000 0.000000e+000
         vertex 3.404597e+000 4.919838e+000 0.000000e+000
         vertex 2.366038e+000 3.121001e+000 1.000000e+001
      endloop
   endfacet
   facet normal 8.660254e-001 -5.000000e-001 0.000000e+000
      outer loop
         vertex 2.366038e+000 3.121001e+000 1.000000e+001
         vertex 3.404597e+000 4.919838e+000 0.000000e+000
         vertex 3.404597e+000 4.919838e+000 1.000000e+001
      endloop
   endfacet
   facet normal 1.043948e-014 -1.000000e+000 0.000000e+000
      outer loop
         vertex 3.404597e+000 4.919838e+000 0.000000e+000
         vertex 5.481715e+000 4.919838e+000 0.000000e+000
         vertex 3.404597e+000 4.919838e+000 1.000000e+001
      endloop
   endfacet
   facet normal 1.043948e-014 -1.000000e+000 0.000000e+000
      outer loop
         vertex 3.404597e+000 4.919838e+000 1.000000e+001
         vertex 5.481715e+000 4.919838e+000 0.000000e+000
         vertex 5.481715e+000 4.919838e+000 1.000000e+001
      endloop
   endfacet
   facet normal -8.660254e-001 -5.000000e-001 0.000000e+000
      outer loop
         vertex 5.481715e+000 4.919838e+000 0.000000e+000
         vertex 6.520275e+000 3.121001e+000 0.000000e+000
         vertex 5.481715e+000 4.919838e+000 1.000000e+001
      endloop
   endfacet
   facet normal -8.660254e-001 -5.000000e-001 0.000000e+000
      outer loop
         vertex 5.481715e+000 4.919838e+000 1.000000e+001
         vertex 6.520275e+000 3.121001e+000 0.000000e+000
         vertex 6.520275e+000 3.121001e+000 1.000000e+001
      endloop
   endfacet
   facet normal -8.660254e-001 5.000000e-001 0.000000e+000
      outer loop
         vertex 6.520275e+000 3.121001e+000 0.000000e+000
         vertex 5.481715e+000 1.322164e+000 0.000000e+000
         vertex 6.520275e+000 3.121001e+000 1.000000e+001
      endloop
   endfacet
   facet normal -8.660254e-001 5.000000e-001 0.000000e+000
      outer loop
         vertex 6.520275e+000 3.121001e+000 1.000000e+001
         vertex 5.481715e+000 1.322164e+000 0.000000e+000
         vertex 5.481715e+000 1.322164e+000 1.000000e+001
      endloop
   endfacet
   facet normal -3.549425e-015 1.000000e+000 0.000000e+000
      outer loop
         vertex 5.481715e+000 1.322164e+000 0.000000e+000
         vertex 3.404597e+000 1.322164e+000 0.000000e+000
         vertex 5.481715e+000 1.322164e+000 1.000000e+001
      endloop
   endfacet
   facet normal -3.549425e-015 1.000000e+000 0.000000e+000
      outer loop
         vertex 5.481715e+000 1.322164e+000 1.000000e+001
         vertex 3.404597e+000 1.322164e+000 0.000000e+000
         vertex 3.404597e+000 1.322164e+000 1.000000e+001
      endloop
   endfacet
   facet normal 8.660254e-001 5.000000e-001 0.000000e+000
      outer loop
         vertex 3.404597e+000 1.322164e+000 0.000000e+000
         vertex 2.366038e+000 3.121001e+000 0.000000e+000
         vertex 3.404597e+000 1.322164e+000 1.000000e+001
      endloop
   endfacet
   facet normal 8.660254e-001 5.000000e-001 0.000000e+000
      outer loop
         vertex 3.404597e+000 1.322164e+000 1.000000e+001
         vertex 2.366038e+000 3.121001e+000 0.000000e+000
         vertex 2.366038e+000 3.121001e+000 1.000000e+001
      endloop
   endfacet
endsolid