solid 22_545
   facet normal -1.000000e+000 0.000000e+000 0.000000e+000
      outer loop
         vertex 0.000000e+000 1.000000e+001 1.000000e+001
         vertex 0.000000e+000 1.000000e+001 0.000000e+000
         vertex 0.000000e+000 0.000000e+000 1.000000e+001
      endloop
   endfacet
   facet normal -1.000000e+000 0.000000e+000 0.000000e+000
      outer loop
         vertex 0.000000e+000 0.000000e+000 1.000000e+001
         vertex 0.000000e+000 1.000000e+001 0.000000e+000
         vertex 0.000000e+000 0.000000e+000 0.000000e+000
      endloop
   endfacet
   facet normal 0.000000e+000 0.000000e+000 1.000000e+000
      outer loop
         vertex 1.000000e+001 1.000000e+001 1.000000e+001
         vertex 9.375527e+000 4.344789e+000 1.000000e+001
         vertex 1.000000e+001 0.000000e+000 1.000000e+001
      endloop
   endfacet
   facet normal 0.000000e+000 0.000000e+000 1.000000e+000
      outer loop
         vertex 1.000000e+001 0.000000e+000 1.000000e+001
         vertex 9.375527e+000 4.344789e+000 1.000000e+001
         vertex 7.682815e+000 1.412924e+000 1.000000e+001
      endloop
   endfacet
   facet normal 0.000000e+000 0.000000e+000 1.000000e+000
      outer loop
         vertex 1.000000e+001 0.000000e+000 1.000000e+001
         vertex 7.682815e+000 1.412924e+000 1.000000e+001
         vertex 0.000000e+000 0.000000e+000 1.000000e+001
      endloop
   endfacet
   facet normal 0.000000e+000 0.000000e+000 1.000000e+000
      outer loop
         vertex 7.682815e+000 1.412924e+000 1.000000e+001
         vertex 4.297390e+000 1.412924e+000 1.000000e+001
         vertex 0.000000e+000 0.000000e+000 1.000000e+001
      endloop
   endfacet
   facet normal 0.000000e+000 0.000000e+000 1.000000e+000
      outer loop
         vertex 0.000000e+000 0.000000e+000 1.000000e+001
         vertex 4.297390e+000 1.412924e+000 1.000000e+001
         vertex 2.604677e+000 4.344789e+000 1.000000e+001
      endloop
   endfacet
   facet normal 0.000000e+000 0.000000e+000 1.000000e+000
      outer loop
         vertex 0.000000e+000 0.000000e+000 1.000000e+001
         vertex 2.604677e+000 4.344789e+000 1.000000e+001
         vertex 0.000000e+000 1.000000e+001 1.000000e+001
      endloop
   endfacet
   facet normal 0.000000e+000 0.000000e+000 1.000000e+000
      outer loop
         vertex 0.000000e+000 1.000000e+001 1.000000e+001
         vertex 2.604677e+000 4.344789e+000 1.000000e+001
         vertex 4.297390e+000 7.276653e+000 1.000000e+001
      endloop
   endfacet
   facet normal 0.000000e+000 0.000000e+000 1.000000e+000
      outer loop
         vertex 0.000000e+000 1.000000e+001 1.000000e+001
         vertex 4.297390e+000 7.276653e+000 1.000000e+001
         vertex 1.000000e+001 1.000000e+001 1.000000e+001
      endloop
   endfacet
   facet normal 0.000000e+000 0.000000e+000 1.000000e+000
      outer loop
         vertex 1.000000e+001 1.000000e+001 1.000000e+001
         vertex 4.297390e+000 7.276653e+000 1.000000e+001
         vertex 7.682815e+000 7.276653e+000 1.000000e+001
      endloop
   endfacet
   facet normal 0.000000e+000 0.000000e+000 1.000000e+000
      outer loop
         vertex 1.000000e+001 1.000000e+001 1.000000e+001
         vertex 7.682815e+000 7.276653e+000 1.000000e+001
         vertex 9.375527e+000 4.344789e+000 1.000000e+001
      endloop
   endfacet
   facet normal 1.000000e+000 0.000000e+000 0.000000e+000
      outer loop
         vertex 1.000000e+001 1.000000e+001 0.000000e+000
         vertex 1.000000e+001 1.000000e+001 1.000000e+001
         vertex 1.000000e+001 0.000000e+000 0.000000e+000
      endloop
   endfacet
   facet normal 1.000000e+000 0.000000e+000 0.000000e+000
      outer loop
         vertex 1.000000e+001 0.000000e+000 0.000000e+000
         vertex 1.000000e+001 1.000000e+001 1.000000e+001
         vertex 1.000000e+001 0.000000e+000 1.000000e+001
      endloop
   endfacet
   facet normal 0.000000e+000 0.000000e+000 -1.000000e+000
      outer loop
         vertex 1.000000e+001 0.000000e+000 0.000000e+000
         vertex 9.375527e+000 4.344789e+000 0.000000e+000
         vertex 1.000000e+001 1.000000e+001 0.000000e+000
      endloop
   endfacet
   facet normal 0.000000e+000 0.000000e+000 -1.000000e+000
      outer loop
         vertex 1.000000e+001 1.000000e+001 0.000000e+000
         vertex 9.375527e+000 4.344789e+000 0.000000e+000
         vertex 7.682815e+000 7.276653e+000 0.000000e+000
      endloop
   endfacet
   facet normal 0.000000e+000 0.000000e+000 -1.000000e+000
      outer loop
         vertex 1.000000e+001 1.000000e+001 0.000000e+000
         vertex 7.682815e+000 7.276653e+000 0.000000e+000
         vertex 0.000000e+000 1.000000e+001 0.000000e+000
      endloop
   endfacet
   facet normal 0.000000e+000 0.000000e+000 -1.000000e+000
      outer loop
         vertex 7.682815e+000 7.276653e+000 0.000000e+000
         vertex 4.297390e+000 7.276653e+000 0.000000e+000
         vertex 0.000000e+000 1.000000e+001 0.000000e+000
      endloop
   endfacet
   facet normal 0.000000e+000 0.000000e+000 -1.000000e+000
      outer loop
         vertex 0.000000e+000 1.000000e+001 0.000000e+000
         vertex 4.297390e+000 7.276653e+000 0.000000e+000
         vertex 2.604677e+000 4.344789e+000 0.000000e+000
      endloop
   endfacet
   facet normal 0.000000e+000 0.000000e+000 -1.000000e+000
      outer loop
         vertex 0.000000e+000 1.000000e+001 0.000000e+000
         vertex 2.604677e+000 4.344789e+000 0.000000e+000
         vertex 0.000000e+000 0.000000e+000 0.000000e+000
      endloop
   endfacet
   facet normal 0.000000e+000 0.000000e+000 -1.000000e+000
      outer loop
         vertex 0.000000e+000 0.000000e+000 0.000000e+000
         vertex 2.604677e+000 4.344789e+000 0.000000e+000
         vertex 4.297390e+000 1.412924e+000 0.000000e+000
      endloop
   endfacet
   facet normal 0.000000e+000 0.000000e+000 -1.000000e+000
      outer loop
         vertex 0.000000e+000 0.000000e+000 0.000000e+000
         vertex 4.297390e+000 1.412924e+000 0.000000e+000
         vertex 1.000000e+001 0.000000e+000 0.000000e+000
      endloop
   endfacet
   facet normal 0.000000e+000 0.000000e+000 -1.000000e+000
      outer loop
         vertex 1.000000e+001 0.000000e+000 0.000000e+000
         vertex 4.297390e+000 1.412924e+000 0.000000e+000
         vertex 7.682815e+000 1.412924e+000 0.000000e+000
      endloop
   endfacet
   facet normal 0.000000e+000 0.000000e+000 -1.000000e+000
      outer loop
         vertex 1.000000e+001 0.000000e+000 0.000000e+000
         vertex 7.682815e+000 1.412924e+000 0.000000e+000
         vertex 9.375527e+000 4.344789e+000 0.000000e+000
      endloop
   endfacet
   facet normal 0.000000e+000 1.000000e+000 0.000000e+000
      outer loop
         vertex 1.000000e+001 1.000000e+001 1.000000e+001
         vertex 1.000000e+001 1.000000e+001 0.000000e+000
         vertex 0.000000e+000 1.000000e+001 1.000000e+001
      endloop
   endfacet
   facet normal 0.000000e+000 1.000000e+000 0.000000e+000
      outer loop
         vertex 0.000000e+000 1.000000e+001 1.000000e+001
         vertex 1.000000e+001 1.000000e+001 0.000000e+000
         vertex 0.000000e+000 1.000000e+001 0.000000e+000
      endloop
   endfacet
   facet normal 0.000000e+000 -1.000000e+000 0.000000e+000
      outer loop
         vertex 1.000000e+001 0.000000e+000 0.000000e+000
         vertex 1.000000e+001 0.000000e+000 1.000000e+001
         vertex 0.000000e+000 0.000000e+000 0.000000e+000
      endloop
   endfacet
   facet normal 0.000000e+000 -1.000000e+000 0.000000e+000
      outer loop
         vertex 0.000000e+000 0.000000e+000 0.000000e+000
         vertex 1.000000e+001 0.000000e+000 1.000000e+001
         vertex 0.000000e+000 0.000000e+000 1.000000e+001
      endloop
   endfacet
   facet normal 8.660254e-001 -5.000000e-001 0.000000e+000
      outer loop
         vertex 2.604677e+000 4.344789e+000 0.000000e+000
         vertex 4.297390e+000 7.276653e+000 0.000000e+000
         vertex 2.604677e+000 4.344789e+000 1.000000e+001
      endloop
   endfacet
   facet normal 8.660254e-001 -5.000000e-001 0.000000e+000
      outer loop
         vertex 2.604677e+000 4.344789e+000 1.000000e+001
         vertex 4.297390e+000 7.276653e+000 0.000000e+000
         vertex 4.297390e+000 7.276653e+000 1.000000e+001
      endloop
   endfacet
   facet normal 1.050439e-014 -1.000000e+000 0.000000e+000
      outer loop
         vertex 4.297390e+000 7.276653e+000 0.000000e+000
         vertex 7.682815e+000 7.276653e+000 0.000000e+000
         vertex 4.297390e+000 7.276653e+000 1.000000e+001
      endloop
   endfacet
   facet normal 1.050439e-014 -1.000000e+000 0.000000e+000
      outer loop
         vertex 4.297390e+000 7.276653e+000 1.000000e+001
         vertex 7.682815e+000 7.276653e+000 0.000000e+000
         vertex 7.682815e+000 7.276653e+000 1.000000e+001
      endloop
   endfacet
   facet normal -8.660254e-001 -5.000000e-001 0.000000e+000
      outer loop
         vertex 7.682815e+000 7.276653e+000 0.000000e+000
         vertex 9.375527e+000 4.344789e+000 0.000000e+000
         vertex 7.682815e+000 7.276653e+000 1.000000e+001
      endloop
   endfacet
   facet normal -8.660254e-001 -5.000000e-001 0.000000e+000
      outer loop
         vertex 7.682815e+000 7.276653e+000 1.000000e+001
         vertex 9.375527e+000 4.344789e+000 0.000000e+000
         vertex 9.375527e+000 4.344789e+000 1.000000e+001
      endloop
   endfacet
   facet normal -8.660254e-001 5.000000e-001 0.000000e+000
      outer loop
         vertex 9.375527e+000 4.344789e+000 0.000000e+000
         vertex 7.682815e+000 1.412924e+000 0.000000e+000
         vertex 9.375527e+000 4.344789e+000 1.000000e+001
      endloop
   endfacet
   facet normal -8.660254e-001 5.000000e-001 0.000000e+000
      outer loop
         vertex 9.375527e+000 4.344789e+000 1.000000e+001
         vertex 7.682815e+000 1.412924e+000 0.000000e+000
         vertex 7.682815e+000 1.412924e+000 1.000000e+001
      endloop
   endfacet
   facet normal -3.458763e-015 1.000000e+000 0.000000e+000
      outer loop
         vertex 7.682815e+000 1.412924e+000 0.000000e+000
         vertex 4.297390e+000 1.412924e+000 0.000000e+000
         vertex 7.682815e+000 1.412924e+000 1.000000e+001
      endloop
   endfacet
   facet normal -3.458763e-015 1.000000e+000 0.000000e+000
      outer loop
         vertex 7.682815e+000 1.412924e+000 1.000000e+001
         vertex 4.297390e+000 1.412924e+000 0.000000e+000
         vertex 4.297390e+000 1.412924e+000 1.000000e+001
      endloop
   endfacet
   facet normal 8.660254e-001 5.000000e-001 0.000000e+000
      outer loop
         vertex 4.297390e+000 1.412924e+000 0.000000e+000
         vertex 2.604677e+000 4.344789e+000 0.000000e+000
         vertex 4.297390e+000 1.412924e+000 1.000000e+001
      endloop
   endfacet
   facet normal 8.660254e-001 5.000000e-001 0.000000e+000
      outer loop
         vertex 4.297390e+000 1.412924e+000 1.000000e+001
         vertex 2.604677e+000 4.344789e+000 0.000000e+000
         vertex 2.604677e+000 4.344789e+000 1.000000e+001
      endloop
   endfacet
endsolid