solid 22_522
   facet normal -1.000000e+000 0.000000e+000 0.000000e+000
      outer loop
         vertex 0.000000e+000 1.000000e+001 1.000000e+001
         vertex 0.000000e+000 1.000000e+001 0.000000e+000
         vertex 0.000000e+000 0.000000e+000 1.000000e+001
      endloop
   endfacet
   facet normal -1.000000e+000 0.000000e+000 0.000000e+000
      outer loop
         vertex 0.000000e+000 0.000000e+000 1.000000e+001
         vertex 0.000000e+000 1.000000e+001 0.000000e+000
         vertex 0.000000e+000 0.000000e+000 0.000000e+000
      endloop
   endfacet
   facet normal 0.000000e+000 0.000000e+000 1.000000e+000
      outer loop
         vertex 1.000000e+001 1.000000e+001 1.000000e+001
         vertex 8.265100e+000 4.369941e+000 1.000000e+001
         vertex 1.000000e+001 0.000000e+000 1.000000e+001
      endloop
   endfacet
   facet normal 0.000000e+000 0.000000e+000 1.000000e+000
      outer loop
         vertex 1.000000e+001 0.000000e+000 1.000000e+001
         vertex 8.265100e+000 4.369941e+000 1.000000e+001
         vertex 6.623252e+000 1.526176e+000 1.000000e+001
      endloop
   endfacet
   facet normal 0.000000e+000 0.000000e+000 1.000000e+000
      outer loop
         vertex 1.000000e+001 0.000000e+000 1.000000e+001
         vertex 6.623252e+000 1.526176e+000 1.000000e+001
         vertex 0.000000e+000 0.000000e+000 1.000000e+001
      endloop
   endfacet
   facet normal 0.000000e+000 0.000000e+000 1.000000e+000
      outer loop
         vertex 6.623252e+000 1.526176e+000 1.000000e+001
         vertex 3.339554e+000 1.526176e+000 1.000000e+001
         vertex 0.000000e+000 0.000000e+000 1.000000e+001
      endloop
   endfacet
   facet normal 0.000000e+000 0.000000e+000 1.000000e+000
      outer loop
         vertex 0.000000e+000 0.000000e+000 1.000000e+001
         vertex 3.339554e+000 1.526176e+000 1.000000e+001
         vertex 1.697706e+000 4.369941e+000 1.000000e+001
      endloop
   endfacet
   facet normal 0.000000e+000 0.000000e+000 1.000000e+000
      outer loop
         vertex 0.000000e+000 0.000000e+000 1.000000e+001
         vertex 1.697706e+000 4.369941e+000 1.000000e+001
         vertex 0.000000e+000 1.000000e+001 1.000000e+001
      endloop
   endfacet
   facet normal 0.000000e+000 0.000000e+000 1.000000e+000
      outer loop
         vertex 0.000000e+000 1.000000e+001 1.000000e+001
         vertex 1.697706e+000 4.369941e+000 1.000000e+001
         vertex 3.339554e+000 7.213706e+000 1.000000e+001
      endloop
   endfacet
   facet normal 0.000000e+000 0.000000e+000 1.000000e+000
      outer loop
         vertex 0.000000e+000 1.000000e+001 1.000000e+001
         vertex 3.339554e+000 7.213706e+000 1.000000e+001
         vertex 1.000000e+001 1.000000e+001 1.000000e+001
      endloop
   endfacet
   facet normal 0.000000e+000 0.000000e+000 1.000000e+000
      outer loop
         vertex 1.000000e+001 1.000000e+001 1.000000e+001
         vertex 3.339554e+000 7.213706e+000 1.000000e+001
         vertex 6.623252e+000 7.213706e+000 1.000000e+001
      endloop
   endfacet
   facet normal 0.000000e+000 0.000000e+000 1.000000e+000
      outer loop
         vertex 1.000000e+001 1.000000e+001 1.000000e+001
         vertex 6.623252e+000 7.213706e+000 1.000000e+001
         vertex 8.265100e+000 4.369941e+000 1.000000e+001
      endloop
   endfacet
   facet normal 1.000000e+000 0.000000e+000 0.000000e+000
      outer loop
         vertex 1.000000e+001 1.000000e+001 0.000000e+000
         vertex 1.000000e+001 1.000000e+001 1.000000e+001
         vertex 1.000000e+001 0.000000e+000 0.000000e+000
      endloop
   endfacet
   facet normal 1.000000e+000 0.000000e+000 0.000000e+000
      outer loop
         vertex 1.000000e+001 0.000000e+000 0.000000e+000
         vertex 1.000000e+001 1.000000e+001 1.000000e+001
         vertex 1.000000e+001 0.000000e+000 1.000000e+001
      endloop
   endfacet
   facet normal 0.000000e+000 0.000000e+000 -1.000000e+000
      outer loop
         vertex 1.000000e+001 0.000000e+000 0.000000e+000
         vertex 8.265100e+000 4.369941e+000 0.000000e+000
         vertex 1.000000e+001 1.000000e+001 0.000000e+000
      endloop
   endfacet
   facet normal 0.000000e+000 0.000000e+000 -1.000000e+000
      outer loop
         vertex 1.000000e+001 1.000000e+001 0.000000e+000
         vertex 8.265100e+000 4.369941e+000 0.000000e+000
         vertex 6.623252e+000 7.213706e+000 0.000000e+000
      endloop
   endfacet
   facet normal 0.000000e+000 0.000000e+000 -1.000000e+000
      outer loop
         vertex 1.000000e+001 1.000000e+001 0.000000e+000
         vertex 6.623252e+000 7.213706e+000 0.000000e+000
         vertex 0.000000e+000 1.000000e+001 0.000000e+000
      endloop
   endfacet
   facet normal 0.000000e+000 0.000000e+000 -1.000000e+000
      outer loop
         vertex 6.623252e+000 7.213706e+000 0.000000e+000
         vertex 3.339554e+000 7.213706e+000 0.000000e+000
         vertex 0.000000e+000 1.000000e+001 0.000000e+000
      endloop
   endfacet
   facet normal 0.000000e+000 0.000000e+000 -1.000000e+000
      outer loop
         vertex 0.000000e+000 1.000000e+001 0.000000e+000
         vertex 3.339554e+000 7.213706e+000 0.000000e+000
         vertex 1.697706e+000 4.369941e+000 0.000000e+000
      endloop
   endfacet
   facet normal 0.000000e+000 0.000000e+000 -1.000000e+000
      outer loop
         vertex 0.000000e+000 1.000000e+001 0.000000e+000
         vertex 1.697706e+000 4.369941e+000 0.000000e+000
         vertex 0.000000e+000 0.000000e+000 0.000000e+000
      endloop
   endfacet
   facet normal 0.000000e+000 0.000000e+000 -1.000000e+000
      outer loop
         vertex 0.000000e+000 0.000000e+000 0.000000e+000
         vertex 1.697706e+000 4.369941e+000 0.000000e+000
         vertex 3.339554e+000 1.526176e+000 0.000000e+000
      endloop
   endfacet
   facet normal 0.000000e+000 0.000000e+000 -1.000000e+000
      outer loop
         vertex 0.000000e+000 0.000000e+000 0.000000e+000
         vertex 3.339554e+000 1.526176e+000 0.000000e+000
         vertex 1.000000e+001 0.000000e+000 0.000000e+000
      endloop
   endfacet
   facet normal 0.000000e+000 0.000000e+000 -1.000000e+000
      outer loop
         vertex 1.000000e+001 0.000000e+000 0.000000e+000
         vertex 3.339554e+000 1.526176e+000 0.000000e+000
         vertex 6.623252e+000 1.526176e+000 0.000000e+000
      endloop
   endfacet
   facet normal 0.000000e+000 0.000000e+000 -1.000000e+000
      outer loop
         vertex 1.000000e+001 0.000000e+000 0.000000e+000
         vertex 6.623252e+000 1.526176e+000 0.000000e+000
         vertex 8.265100e+000 4.369941e+000 0.000000e+000
      endloop
   endfacet
   facet normal 0.000000e+000 1.000000e+000 0.000000e+000
      outer loop
         vertex 1.000000e+001 1.000000e+001 1.000000e+001
         vertex 1.000000e+001 1.000000e+001 0.000000e+000
         vertex 0.000000e+000 1.000000e+001 1.000000e+001
      endloop
   endfacet
   facet normal 0.000000e+000 1.000000e+000 0.000000e+000
      outer loop
         vertex 0.000000e+000 1.000000e+001 1.000000e+001
         vertex 1.000000e+001 1.000000e+001 0.000000e+000
         vertex 0.000000e+000 1.000000e+001 0.000000e+000
      endloop
   endfacet
   facet normal 0.000000e+000 -1.000000e+000 0.000000e+000
      outer loop
         vertex 1.000000e+001 0.000000e+000 0.000000e+000
         vertex 1.000000e+001 0.000000e+000 1.000000e+001
         vertex 0.000000e+000 0.000000e+000 0.000000e+000
      endloop
   endfacet
   facet normal 0.000000e+000 -1.000000e+000 0.000000e+000
      outer loop
         vertex 0.000000e+000 0.000000e+000 0.000000e+000
         vertex 1.000000e+001 0.000000e+000 1.000000e+001
         vertex 0.000000e+000 0.000000e+000 1.000000e+001
      endloop
   endfacet
   facet normal 8.660254e-001 -5.000000e-001 0.000000e+000
      outer loop
         vertex 1.697706e+000 4.369941e+000 0.000000e+000
         vertex 3.339554e+000 7.213706e+000 0.000000e+000
         vertex 1.697706e+000 4.369941e+000 1.000000e+001
      endloop
   endfacet
   facet normal 8.660254e-001 -5.000000e-001 0.000000e+000
      outer loop
         vertex 1.697706e+000 4.369941e+000 1.000000e+001
         vertex 3.339554e+000 7.213706e+000 0.000000e+000
         vertex 3.339554e+000 7.213706e+000 1.000000e+001
      endloop
   endfacet
   facet normal 1.030153e-014 -1.000000e+000 0.000000e+000
      outer loop
         vertex 3.339554e+000 7.213706e+000 0.000000e+000
         vertex 6.623252e+000 7.213706e+000 0.000000e+000
         vertex 3.339554e+000 7.213706e+000 1.000000e+001
      endloop
   endfacet
   facet normal 1.030153e-014 -1.000000e+000 0.000000e+000
      outer loop
         vertex 3.339554e+000 7.213706e+000 1.000000e+001
         vertex 6.623252e+000 7.213706e+000 0.000000e+000
         vertex 6.623252e+000 7.213706e+000 1.000000e+001
      endloop
   endfacet
   facet normal -8.660254e-001 -5.000000e-001 0.000000e+000
      outer loop
         vertex 6.623252e+000 7.213706e+000 0.000000e+000
         vertex 8.265100e+000 4.369941e+000 0.000000e+000
         vertex 6.623252e+000 7.213706e+000 1.000000e+001
      endloop
   endfacet
   facet normal -8.660254e-001 -5.000000e-001 0.000000e+000
      outer loop
         vertex 6.623252e+000 7.213706e+000 1.000000e+001
         vertex 8.265100e+000 4.369941e+000 0.000000e+000
         vertex 8.265100e+000 4.369941e+000 1.000000e+001
      endloop
   endfacet
   facet normal -8.660254e-001 5.000000e-001 0.000000e+000
      outer loop
         vertex 8.265100e+000 4.369941e+000 0.000000e+000
         vertex 6.623252e+000 1.526176e+000 0.000000e+000
         vertex 8.265100e+000 4.369941e+000 1.000000e+001
      endloop
   endfacet
   facet normal -8.660254e-001 5.000000e-001 0.000000e+000
      outer loop
         vertex 8.265100e+000 4.369941e+000 1.000000e+001
         vertex 6.623252e+000 1.526176e+000 0.000000e+000
         vertex 6.623252e+000 1.526176e+000 1.000000e+001
      endloop
   endfacet
   facet normal -3.565914e-015 1.000000e+000 0.000000e+000
      outer loop
         vertex 6.623252e+000 1.526176e+000 0.000000e+000
         vertex 3.339554e+000 1.526176e+000 0.000000e+000
         vertex 6.623252e+000 1.526176e+000 1.000000e+001
      endloop
   endfacet
   facet normal -3.565914e-015 1.000000e+000 0.000000e+000
      outer loop
         vertex 6.623252e+000 1.526176e+000 1.000000e+001
         vertex 3.339554e+000 1.526176e+000 0.000000e+000
         vertex 3.339554e+000 1.526176e+000 1.000000e+001
      endloop
   endfacet
   facet normal 8.660254e-001 5.000000e-001 0.000000e+000
      outer loop
         vertex 3.339554e+000 1.526176e+000 0.000000e+000
         vertex 1.697706e+000 4.369941e+000 0.000000e+000
         vertex 3.339554e+000 1.526176e+000 1.000000e+001
      endloop
   endfacet
   facet normal 8.660254e-001 5.000000e-001 0.000000e+000
      outer loop
         vertex 3.339554e+000 1.526176e+000 1.000000e+001
         vertex 1.697706e+000 4.369941e+000 0.000000e+000
         vertex 1.697706e+000 4.369941e+000 1.000000e+001
      endloop
   endfacet
endsolid