solid 22_650
   facet normal -1.000000e+000 0.000000e+000 0.000000e+000
      outer loop
         vertex 0.000000e+000 1.000000e+001 1.000000e+001
         vertex 0.000000e+000 1.000000e+001 0.000000e+000
         vertex 0.000000e+000 0.000000e+000 1.000000e+001
      endloop
   endfacet
   facet normal -1.000000e+000 0.000000e+000 0.000000e+000
      outer loop
         vertex 0.000000e+000 0.000000e+000 1.000000e+001
         vertex 0.000000e+000 1.000000e+001 0.000000e+000
         vertex 0.000000e+000 0.000000e+000 0.000000e+000
      endloop
   endfacet
   facet normal 0.000000e+000 0.000000e+000 1.000000e+000
      outer loop
         vertex 1.000000e+001 1.000000e+001 1.000000e+001
         vertex 7.212105e+000 3.477541e+000 1.000000e+001
         vertex 1.000000e+001 0.000000e+000 1.000000e+001
      endloop
   endfacet
   facet normal 0.000000e+000 0.000000e+000 1.000000e+000
      outer loop
         vertex 1.000000e+001 0.000000e+000 1.000000e+001
         vertex 7.212105e+000 3.477541e+000 1.000000e+001
         vertex 6.512507e+000 2.265803e+000 1.000000e+001
      endloop
   endfacet
   facet normal 0.000000e+000 0.000000e+000 1.000000e+000
      outer loop
         vertex 1.000000e+001 0.000000e+000 1.000000e+001
         vertex 6.512507e+000 2.265803e+000 1.000000e+001
         vertex 0.000000e+000 0.000000e+000 1.000000e+001
      endloop
   endfacet
   facet normal 0.000000e+000 0.000000e+000 1.000000e+000
      outer loop
         vertex 6.512507e+000 2.265803e+000 1.000000e+001
         vertex 5.113312e+000 2.265803e+000 1.000000e+001
         vertex 0.000000e+000 0.000000e+000 1.000000e+001
      endloop
   endfacet
   facet normal 0.000000e+000 0.000000e+000 1.000000e+000
      outer loop
         vertex 0.000000e+000 0.000000e+000 1.000000e+001
         vertex 5.113312e+000 2.265803e+000 1.000000e+001
         vertex 4.413714e+000 3.477541e+000 1.000000e+001
      endloop
   endfacet
   facet normal 0.000000e+000 0.000000e+000 1.000000e+000
      outer loop
         vertex 0.000000e+000 0.000000e+000 1.000000e+001
         vertex 4.413714e+000 3.477541e+000 1.000000e+001
         vertex 0.000000e+000 1.000000e+001 1.000000e+001
      endloop
   endfacet
   facet normal 0.000000e+000 0.000000e+000 1.000000e+000
      outer loop
         vertex 0.000000e+000 1.000000e+001 1.000000e+001
         vertex 4.413714e+000 3.477541e+000 1.000000e+001
         vertex 5.113312e+000 4.689280e+000 1.000000e+001
      endloop
   endfacet
   facet normal 0.000000e+000 0.000000e+000 1.000000e+000
      outer loop
         vertex 0.000000e+000 1.000000e+001 1.000000e+001
         vertex 5.113312e+000 4.689280e+000 1.000000e+001
         vertex 1.000000e+001 1.000000e+001 1.000000e+001
      endloop
   endfacet
   facet normal 0.000000e+000 0.000000e+000 1.000000e+000
      outer loop
         vertex 1.000000e+001 1.000000e+001 1.000000e+001
         vertex 5.113312e+000 4.689280e+000 1.000000e+001
         vertex 6.512507e+000 4.689280e+000 1.000000e+001
      endloop
   endfacet
   facet normal 0.000000e+000 0.000000e+000 1.000000e+000
      outer loop
         vertex 1.000000e+001 1.000000e+001 1.000000e+001
         vertex 6.512507e+000 4.689280e+000 1.000000e+001
         vertex 7.212105e+000 3.477541e+000 1.000000e+001
      endloop
   endfacet
   facet normal 1.000000e+000 0.000000e+000 0.000000e+000
      outer loop
         vertex 1.000000e+001 1.000000e+001 0.000000e+000
         vertex 1.000000e+001 1.000000e+001 1.000000e+001
         vertex 1.000000e+001 0.000000e+000 0.000000e+000
      endloop
   endfacet
   facet normal 1.000000e+000 0.000000e+000 0.000000e+000
      outer loop
         vertex 1.000000e+001 0.000000e+000 0.000000e+000
         vertex 1.000000e+001 1.000000e+001 1.000000e+001
         vertex 1.000000e+001 0.000000e+000 1.000000e+001
      endloop
   endfacet
   facet normal 0.000000e+000 0.000000e+000 -1.000000e+000
      outer loop
         vertex 1.000000e+001 0.000000e+000 0.000000e+000
         vertex 0.000000e+000 0.000000e+000 0.000000e+000
         vertex 5.113312e+000 2.265803e+000 0.000000e+000
      endloop
   endfacet
   facet normal 0.000000e+000 0.000000e+000 -1.000000e+000
      outer loop
         vertex 5.113312e+000 2.265803e+000 0.000000e+000
         vertex 6.512507e+000 2.265803e+000 0.000000e+000
         vertex 1.000000e+001 0.000000e+000 0.000000e+000
      endloop
   endfacet
   facet normal 0.000000e+000 0.000000e+000 -1.000000e+000
      outer loop
         vertex 1.000000e+001 0.000000e+000 0.000000e+000
         vertex 6.512507e+000 2.265803e+000 0.000000e+000
         vertex 7.212105e+000 3.477541e+000 0.000000e+000
      endloop
   endfacet
   facet normal 0.000000e+000 0.000000e+000 -1.000000e+000
      outer loop
         vertex 1.000000e+001 0.000000e+000 0.000000e+000
         vertex 7.212105e+000 3.477541e+000 0.000000e+000
         vertex 1.000000e+001 1.000000e+001 0.000000e+000
      endloop
   endfacet
   facet normal 0.000000e+000 0.000000e+000 -1.000000e+000
      outer loop
         vertex 1.000000e+001 1.000000e+001 0.000000e+000
         vertex 7.212105e+000 3.477541e+000 0.000000e+000
         vertex 6.512507e+000 4.689280e+000 0.000000e+000
      endloop
   endfacet
   facet normal 0.000000e+000 0.000000e+000 -1.000000e+000
      outer loop
         vertex 1.000000e+001 1.000000e+001 0.000000e+000
         vertex 6.512507e+000 4.689280e+000 0.000000e+000
         vertex 0.000000e+000 1.000000e+001 0.000000e+000
      endloop
   endfacet
   facet normal 0.000000e+000 0.000000e+000 -1.000000e+000
      outer loop
         vertex 0.000000e+000 1.000000e+001 0.000000e+000
         vertex 6.512507e+000 4.689280e+000 0.000000e+000
         vertex 5.113312e+000 4.689280e+000 0.000000e+000
      endloop
   endfacet
   facet normal 0.000000e+000 0.000000e+000 -1.000000e+000
      outer loop
         vertex 0.000000e+000 1.000000e+001 0.000000e+000
         vertex 5.113312e+000 4.689280e+000 0.000000e+000
         vertex 0.000000e+000 0.000000e+000 0.000000e+000
      endloop
   endfacet
   facet normal 0.000000e+000 0.000000e+000 -1.000000e+000
      outer loop
         vertex 0.000000e+000 0.000000e+000 0.000000e+000
         vertex 5.113312e+000 4.689280e+000 0.000000e+000
         vertex 4.413714e+000 3.477541e+000 0.000000e+000
      endloop
   endfacet
   facet normal 0.000000e+000 0.000000e+000 -1.000000e+000
      outer loop
         vertex 0.000000e+000 0.000000e+000 0.000000e+000
         vertex 4.413714e+000 3.477541e+000 0.000000e+000
         vertex 5.113312e+000 2.265803e+000 0.000000e+000
      endloop
   endfacet
   facet normal 0.000000e+000 1.000000e+000 0.000000e+000
      outer loop
         vertex 1.000000e+001 1.000000e+001 1.000000e+001
         vertex 1.000000e+001 1.000000e+001 0.000000e+000
         vertex 0.000000e+000 1.000000e+001 1.000000e+001
      endloop
   endfacet
   facet normal 0.000000e+000 1.000000e+000 0.000000e+000
      outer loop
         vertex 0.000000e+000 1.000000e+001 1.000000e+001
         vertex 1.000000e+001 1.000000e+001 0.000000e+000
         vertex 0.000000e+000 1.000000e+001 0.000000e+000
      endloop
   endfacet
   facet normal 0.000000e+000 -1.000000e+000 0.000000e+000
      outer loop
         vertex 1.000000e+001 0.000000e+000 0.000000e+000
         vertex 1.000000e+001 0.000000e+000 1.000000e+001
         vertex 0.000000e+000 0.000000e+000 0.000000e+000
      endloop
   endfacet
   facet normal 0.000000e+000 -1.000000e+000 0.000000e+000
      outer loop
         vertex 0.000000e+000 0.000000e+000 0.000000e+000
         vertex 1.000000e+001 0.000000e+000 1.000000e+001
         vertex 0.000000e+000 0.000000e+000 1.000000e+001
      endloop
   endfacet
   facet normal 8.660254e-001 -5.000000e-001 0.000000e+000
      outer loop
         vertex 4.413714e+000 3.477541e+000 0.000000e+000
         vertex 5.113312e+000 4.689280e+000 0.000000e+000
         vertex 4.413714e+000 3.477541e+000 1.000000e+001
      endloop
   endfacet
   facet normal 8.660254e-001 -5.000000e-001 0.000000e+000
      outer loop
         vertex 4.413714e+000 3.477541e+000 1.000000e+001
         vertex 5.113312e+000 4.689280e+000 0.000000e+000
         vertex 5.113312e+000 4.689280e+000 1.000000e+001
      endloop
   endfacet
   facet normal 1.053831e-014 -1.000000e+000 0.000000e+000
      outer loop
         vertex 5.113312e+000 4.689280e+000 0.000000e+000
         vertex 6.512507e+000 4.689280e+000 0.000000e+000
         vertex 5.113312e+000 4.689280e+000 1.000000e+001
      endloop
   endfacet
   facet normal 1.053831e-014 -1.000000e+000 0.000000e+000
      outer loop
         vertex 5.113312e+000 4.689280e+000 1.000000e+001
         vertex 6.512507e+000 4.689280e+000 0.000000e+000
         vertex 6.512507e+000 4.689280e+000 1.000000e+001
      endloop
   endfacet
   facet normal -8.660254e-001 -5.000000e-001 0.000000e+000
      outer loop
         vertex 6.512507e+000 4.689280e+000 0.000000e+000
         vertex 7.212105e+000 3.477541e+000 0.000000e+000
         vertex 6.512507e+000 4.689280e+000 1.000000e+001
      endloop
   endfacet
   facet normal -8.660254e-001 -5.000000e-001 0.000000e+000
      outer loop
         vertex 6.512507e+000 4.689280e+000 1.000000e+001
         vertex 7.212105e+000 3.477541e+000 0.000000e+000
         vertex 7.212105e+000 3.477541e+000 1.000000e+001
      endloop
   endfacet
   facet normal -8.660254e-001 5.000000e-001 0.000000e+000
      outer loop
         vertex 7.212105e+000 3.477541e+000 0.000000e+000
         vertex 6.512507e+000 2.265803e+000 0.000000e+000
         vertex 7.212105e+000 3.477541e+000 1.000000e+001
      endloop
   endfacet
   facet normal -8.660254e-001 5.000000e-001 0.000000e+000
      outer loop
         vertex 7.212105e+000 3.477541e+000 1.000000e+001
         vertex 6.512507e+000 2.265803e+000 0.000000e+000
         vertex 6.512507e+000 2.265803e+000 1.000000e+001
      endloop
   endfacet
   facet normal -3.719403e-015 1.000000e+000 0.000000e+000
      outer loop
         vertex 6.512507e+000 2.265803e+000 0.000000e+000
         vertex 5.113312e+000 2.265803e+000 0.000000e+000
         vertex 6.512507e+000 2.265803e+000 1.000000e+001
      endloop
   endfacet
   facet normal -3.719403e-015 1.000000e+000 0.000000e+000
      outer loop
         vertex 6.512507e+000 2.265803e+000 1.000000e+001
         vertex 5.113312e+000 2.265803e+000 0.000000e+000
         vertex 5.113312e+000 2.265803e+000 1.000000e+001
      endloop
   endfacet
   facet normal 8.660254e-001 5.000000e-001 0.000000e+000
      outer loop
         vertex 5.113312e+000 2.265803e+000 0.000000e+000
         vertex 4.413714e+000 3.477541e+000 0.000000e+000
         vertex 5.113312e+000 2.265803e+000 1.000000e+001
      endloop
   endfacet
   facet normal 8.660254e-001 5.000000e-001 0.000000e+000
      outer loop
         vertex 5.113312e+000 2.265803e+000 1.000000e+001
         vertex 4.413714e+000 3.477541e+000 0.000000e+000
         vertex 4.413714e+000 3.477541e+000 1.000000e+001
      endloop
   endfacet
endsolid