solid 22_842
   facet normal -1.000000e+000 0.000000e+000 0.000000e+000
      outer loop
         vertex 0.000000e+000 1.000000e+001 1.000000e+001
         vertex 0.000000e+000 1.000000e+001 0.000000e+000
         vertex 0.000000e+000 0.000000e+000 1.000000e+001
      endloop
   endfacet
   facet normal -1.000000e+000 0.000000e+000 0.000000e+000
      outer loop
         vertex 0.000000e+000 0.000000e+000 1.000000e+001
         vertex 0.000000e+000 1.000000e+001 0.000000e+000
         vertex 0.000000e+000 0.000000e+000 0.000000e+000
      endloop
   endfacet
   facet normal 0.000000e+000 0.000000e+000 1.000000e+000
      outer loop
         vertex 1.000000e+001 1.000000e+001 1.000000e+001
         vertex 7.750533e+000 5.287195e+000 1.000000e+001
         vertex 1.000000e+001 0.000000e+000 1.000000e+001
      endloop
   endfacet
   facet normal 0.000000e+000 0.000000e+000 1.000000e+000
      outer loop
         vertex 1.000000e+001 0.000000e+000 1.000000e+001
         vertex 7.750533e+000 5.287195e+000 1.000000e+001
         vertex 6.062335e+000 2.363149e+000 1.000000e+001
      endloop
   endfacet
   facet normal 0.000000e+000 0.000000e+000 1.000000e+000
      outer loop
         vertex 1.000000e+001 0.000000e+000 1.000000e+001
         vertex 6.062335e+000 2.363149e+000 1.000000e+001
         vertex 0.000000e+000 0.000000e+000 1.000000e+001
      endloop
   endfacet
   facet normal 0.000000e+000 0.000000e+000 1.000000e+000
      outer loop
         vertex 6.062335e+000 2.363149e+000 1.000000e+001
         vertex 2.685938e+000 2.363149e+000 1.000000e+001
         vertex 0.000000e+000 0.000000e+000 1.000000e+001
      endloop
   endfacet
   facet normal 0.000000e+000 0.000000e+000 1.000000e+000
      outer loop
         vertex 0.000000e+000 0.000000e+000 1.000000e+001
         vertex 2.685938e+000 2.363149e+000 1.000000e+001
         vertex 9.977396e-001 5.287195e+000 1.000000e+001
      endloop
   endfacet
   facet normal 0.000000e+000 0.000000e+000 1.000000e+000
      outer loop
         vertex 0.000000e+000 0.000000e+000 1.000000e+001
         vertex 9.977396e-001 5.287195e+000 1.000000e+001
         vertex 0.000000e+000 1.000000e+001 1.000000e+001
      endloop
   endfacet
   facet normal 0.000000e+000 0.000000e+000 1.000000e+000
      outer loop
         vertex 0.000000e+000 1.000000e+001 1.000000e+001
         vertex 9.977396e-001 5.287195e+000 1.000000e+001
         vertex 2.685938e+000 8.211240e+000 1.000000e+001
      endloop
   endfacet
   facet normal 0.000000e+000 0.000000e+000 1.000000e+000
      outer loop
         vertex 0.000000e+000 1.000000e+001 1.000000e+001
         vertex 2.685938e+000 8.211240e+000 1.000000e+001
         vertex 1.000000e+001 1.000000e+001 1.000000e+001
      endloop
   endfacet
   facet normal 0.000000e+000 0.000000e+000 1.000000e+000
      outer loop
         vertex 1.000000e+001 1.000000e+001 1.000000e+001
         vertex 2.685938e+000 8.211240e+000 1.000000e+001
         vertex 6.062335e+000 8.211240e+000 1.000000e+001
      endloop
   endfacet
   facet normal 0.000000e+000 0.000000e+000 1.000000e+000
      outer loop
         vertex 1.000000e+001 1.000000e+001 1.000000e+001
         vertex 6.062335e+000 8.211240e+000 1.000000e+001
         vertex 7.750533e+000 5.287195e+000 1.000000e+001
      endloop
   endfacet
   facet normal 1.000000e+000 0.000000e+000 0.000000e+000
      outer loop
         vertex 1.000000e+001 1.000000e+001 0.000000e+000
         vertex 1.000000e+001 1.000000e+001 1.000000e+001
         vertex 1.000000e+001 0.000000e+000 0.000000e+000
      endloop
   endfacet
   facet normal 1.000000e+000 0.000000e+000 0.000000e+000
      outer loop
         vertex 1.000000e+001 0.000000e+000 0.000000e+000
         vertex 1.000000e+001 1.000000e+001 1.000000e+001
         vertex 1.000000e+001 0.000000e+000 1.000000e+001
      endloop
   endfacet
   facet normal 0.000000e+000 0.000000e+000 -1.000000e+000
      outer loop
         vertex 0.000000e+000 1.000000e+001 0.000000e+000
         vertex 9.977396e-001 5.287195e+000 0.000000e+000
         vertex 0.000000e+000 0.000000e+000 0.000000e+000
      endloop
   endfacet
   facet normal 0.000000e+000 0.000000e+000 -1.000000e+000
      outer loop
         vertex 0.000000e+000 0.000000e+000 0.000000e+000
         vertex 9.977396e-001 5.287195e+000 0.000000e+000
         vertex 2.685938e+000 2.363149e+000 0.000000e+000
      endloop
   endfacet
   facet normal 0.000000e+000 0.000000e+000 -1.000000e+000
      outer loop
         vertex 0.000000e+000 0.000000e+000 0.000000e+000
         vertex 2.685938e+000 2.363149e+000 0.000000e+000
         vertex 1.000000e+001 0.000000e+000 0.000000e+000
      endloop
   endfacet
   facet normal 0.000000e+000 0.000000e+000 -1.000000e+000
      outer loop
         vertex 2.685938e+000 2.363149e+000 0.000000e+000
         vertex 6.062335e+000 2.363149e+000 0.000000e+000
         vertex 1.000000e+001 0.000000e+000 0.000000e+000
      endloop
   endfacet
   facet normal 0.000000e+000 0.000000e+000 -1.000000e+000
      outer loop
         vertex 1.000000e+001 0.000000e+000 0.000000e+000
         vertex 6.062335e+000 2.363149e+000 0.000000e+000
         vertex 7.750533e+000 5.287195e+000 0.000000e+000
      endloop
   endfacet
   facet normal 0.000000e+000 0.000000e+000 -1.000000e+000
      outer loop
         vertex 1.000000e+001 0.000000e+000 0.000000e+000
         vertex 7.750533e+000 5.287195e+000 0.000000e+000
         vertex 1.000000e+001 1.000000e+001 0.000000e+000
      endloop
   endfacet
   facet normal 0.000000e+000 0.000000e+000 -1.000000e+000
      outer loop
         vertex 1.000000e+001 1.000000e+001 0.000000e+000
         vertex 7.750533e+000 5.287195e+000 0.000000e+000
         vertex 6.062335e+000 8.211240e+000 0.000000e+000
      endloop
   endfacet
   facet normal 0.000000e+000 0.000000e+000 -1.000000e+000
      outer loop
         vertex 1.000000e+001 1.000000e+001 0.000000e+000
         vertex 6.062335e+000 8.211240e+000 0.000000e+000
         vertex 0.000000e+000 1.000000e+001 0.000000e+000
      endloop
   endfacet
   facet normal 0.000000e+000 0.000000e+000 -1.000000e+000
      outer loop
         vertex 0.000000e+000 1.000000e+001 0.000000e+000
         vertex 6.062335e+000 8.211240e+000 0.000000e+000
         vertex 2.685938e+000 8.211240e+000 0.000000e+000
      endloop
   endfacet
   facet normal 0.000000e+000 0.000000e+000 -1.000000e+000
      outer loop
         vertex 0.000000e+000 1.000000e+001 0.000000e+000
         vertex 2.685938e+000 8.211240e+000 0.000000e+000
         vertex 9.977396e-001 5.287195e+000 0.000000e+000
      endloop
   endfacet
   facet normal 0.000000e+000 1.000000e+000 0.000000e+000
      outer loop
         vertex 1.000000e+001 1.000000e+001 1.000000e+001
         vertex 1.000000e+001 1.000000e+001 0.000000e+000
         vertex 0.000000e+000 1.000000e+001 1.000000e+001
      endloop
   endfacet
   facet normal 0.000000e+000 1.000000e+000 0.000000e+000
      outer loop
         vertex 0.000000e+000 1.000000e+001 1.000000e+001
         vertex 1.000000e+001 1.000000e+001 0.000000e+000
         vertex 0.000000e+000 1.000000e+001 0.000000e+000
      endloop
   endfacet
   facet normal 0.000000e+000 -1.000000e+000 0.000000e+000
      outer loop
         vertex 1.000000e+001 0.000000e+000 0.000000e+000
         vertex 1.000000e+001 0.000000e+000 1.000000e+001
         vertex 0.000000e+000 0.000000e+000 0.000000e+000
      endloop
   endfacet
   facet normal 0.000000e+000 -1.000000e+000 0.000000e+000
      outer loop
         vertex 0.000000e+000 0.000000e+000 0.000000e+000
         vertex 1.000000e+001 0.000000e+000 1.000000e+001
         vertex 0.000000e+000 0.000000e+000 1.000000e+001
      endloop
   endfacet
   facet normal 8.660254e-001 -5.000000e-001 0.000000e+000
      outer loop
         vertex 9.977396e-001 5.287195e+000 0.000000e+000
         vertex 2.685938e+000 8.211240e+000 0.000000e+000
         vertex 9.977396e-001 5.287195e+000 1.000000e+001
      endloop
   endfacet
   facet normal 8.660254e-001 -5.000000e-001 0.000000e+000
      outer loop
         vertex 9.977396e-001 5.287195e+000 1.000000e+001
         vertex 2.685938e+000 8.211240e+000 0.000000e+000
         vertex 2.685938e+000 8.211240e+000 1.000000e+001
      endloop
   endfacet
   facet normal 1.027559e-014 -1.000000e+000 0.000000e+000
      outer loop
         vertex 2.685938e+000 8.211240e+000 0.000000e+000
         vertex 6.062335e+000 8.211240e+000 0.000000e+000
         vertex 2.685938e+000 8.211240e+000 1.000000e+001
      endloop
   endfacet
   facet normal 1.027559e-014 -1.000000e+000 0.000000e+000
      outer loop
         vertex 2.685938e+000 8.211240e+000 1.000000e+001
         vertex 6.062335e+000 8.211240e+000 0.000000e+000
         vertex 6.062335e+000 8.211240e+000 1.000000e+001
      endloop
   endfacet
   facet normal -8.660254e-001 -5.000000e-001 0.000000e+000
      outer loop
         vertex 6.062335e+000 8.211240e+000 0.000000e+000
         vertex 7.750533e+000 5.287195e+000 0.000000e+000
         vertex 6.062335e+000 8.211240e+000 1.000000e+001
      endloop
   endfacet
   facet normal -8.660254e-001 -5.000000e-001 0.000000e+000
      outer loop
         vertex 6.062335e+000 8.211240e+000 1.000000e+001
         vertex 7.750533e+000 5.287195e+000 0.000000e+000
         vertex 7.750533e+000 5.287195e+000 1.000000e+001
      endloop
   endfacet
   facet normal -8.660254e-001 5.000000e-001 0.000000e+000
      outer loop
         vertex 7.750533e+000 5.287195e+000 0.000000e+000
         vertex 6.062335e+000 2.363149e+000 0.000000e+000
         vertex 7.750533e+000 5.287195e+000 1.000000e+001
      endloop
   endfacet
   facet normal -8.660254e-001 5.000000e-001 0.000000e+000
      outer loop
         vertex 7.750533e+000 5.287195e+000 1.000000e+001
         vertex 6.062335e+000 2.363149e+000 0.000000e+000
         vertex 6.062335e+000 2.363149e+000 1.000000e+001
      endloop
   endfacet
   facet normal -3.596457e-015 1.000000e+000 0.000000e+000
      outer loop
         vertex 6.062335e+000 2.363149e+000 0.000000e+000
         vertex 2.685938e+000 2.363149e+000 0.000000e+000
         vertex 6.062335e+000 2.363149e+000 1.000000e+001
      endloop
   endfacet
   facet normal -3.596457e-015 1.000000e+000 0.000000e+000
      outer loop
         vertex 6.062335e+000 2.363149e+000 1.000000e+001
         vertex 2.685938e+000 2.363149e+000 0.000000e+000
         vertex 2.685938e+000 2.363149e+000 1.000000e+001
      endloop
   endfacet
   facet normal 8.660254e-001 5.000000e-001 0.000000e+000
      outer loop
         vertex 2.685938e+000 2.363149e+000 0.000000e+000
         vertex 9.977396e-001 5.287195e+000 0.000000e+000
         vertex 2.685938e+000 2.363149e+000 1.000000e+001
      endloop
   endfacet
   facet normal 8.660254e-001 5.000000e-001 0.000000e+000
      outer loop
         vertex 2.685938e+000 2.363149e+000 1.000000e+001
         vertex 9.977396e-001 5.287195e+000 0.000000e+000
         vertex 9.977396e-001 5.287195e+000 1.000000e+001
      endloop
   endfacet
endsolid