solid 23_145
   facet normal -1.000000e+000 0.000000e+000 0.000000e+000
      outer loop
         vertex 0.000000e+000 1.000000e+001 1.000000e+001
         vertex 0.000000e+000 1.000000e+001 0.000000e+000
         vertex 0.000000e+000 0.000000e+000 1.000000e+001
      endloop
   endfacet
   facet normal -1.000000e+000 0.000000e+000 0.000000e+000
      outer loop
         vertex 0.000000e+000 0.000000e+000 1.000000e+001
         vertex 0.000000e+000 1.000000e+001 0.000000e+000
         vertex 0.000000e+000 0.000000e+000 0.000000e+000
      endloop
   endfacet
   facet normal 0.000000e+000 0.000000e+000 1.000000e+000
      outer loop
         vertex 1.000000e+001 1.000000e+001 1.000000e+001
         vertex 5.946813e+000 4.914456e+000 1.000000e+001
         vertex 1.000000e+001 0.000000e+000 1.000000e+001
      endloop
   endfacet
   facet normal 0.000000e+000 0.000000e+000 1.000000e+000
      outer loop
         vertex 1.000000e+001 0.000000e+000 1.000000e+001
         vertex 5.946813e+000 4.914456e+000 1.000000e+001
         vertex 4.692551e+000 2.742012e+000 1.000000e+001
      endloop
   endfacet
   facet normal 0.000000e+000 0.000000e+000 1.000000e+000
      outer loop
         vertex 1.000000e+001 0.000000e+000 1.000000e+001
         vertex 4.692551e+000 2.742012e+000 1.000000e+001
         vertex 0.000000e+000 0.000000e+000 1.000000e+001
      endloop
   endfacet
   facet normal 0.000000e+000 0.000000e+000 1.000000e+000
      outer loop
         vertex 4.692551e+000 2.742012e+000 1.000000e+001
         vertex 2.184028e+000 2.742012e+000 1.000000e+001
         vertex 0.000000e+000 0.000000e+000 1.000000e+001
      endloop
   endfacet
   facet normal 0.000000e+000 0.000000e+000 1.000000e+000
      outer loop
         vertex 0.000000e+000 0.000000e+000 1.000000e+001
         vertex 2.184028e+000 2.742012e+000 1.000000e+001
         vertex 9.297671e-001 4.914456e+000 1.000000e+001
      endloop
   endfacet
   facet normal 0.000000e+000 0.000000e+000 1.000000e+000
      outer loop
         vertex 0.000000e+000 0.000000e+000 1.000000e+001
         vertex 9.297671e-001 4.914456e+000 1.000000e+001
         vertex 0.000000e+000 1.000000e+001 1.000000e+001
      endloop
   endfacet
   facet normal 0.000000e+000 0.000000e+000 1.000000e+000
      outer loop
         vertex 0.000000e+000 1.000000e+001 1.000000e+001
         vertex 9.297671e-001 4.914456e+000 1.000000e+001
         vertex 2.184028e+000 7.086901e+000 1.000000e+001
      endloop
   endfacet
   facet normal 0.000000e+000 0.000000e+000 1.000000e+000
      outer loop
         vertex 0.000000e+000 1.000000e+001 1.000000e+001
         vertex 2.184028e+000 7.086901e+000 1.000000e+001
         vertex 1.000000e+001 1.000000e+001 1.000000e+001
      endloop
   endfacet
   facet normal 0.000000e+000 0.000000e+000 1.000000e+000
      outer loop
         vertex 1.000000e+001 1.000000e+001 1.000000e+001
         vertex 2.184028e+000 7.086901e+000 1.000000e+001
         vertex 4.692551e+000 7.086901e+000 1.000000e+001
      endloop
   endfacet
   facet normal 0.000000e+000 0.000000e+000 1.000000e+000
      outer loop
         vertex 1.000000e+001 1.000000e+001 1.000000e+001
         vertex 4.692551e+000 7.086901e+000 1.000000e+001
         vertex 5.946813e+000 4.914456e+000 1.000000e+001
      endloop
   endfacet
   facet normal 1.000000e+000 0.000000e+000 0.000000e+000
      outer loop
         vertex 1.000000e+001 1.000000e+001 0.000000e+000
         vertex 1.000000e+001 1.000000e+001 1.000000e+001
         vertex 1.000000e+001 0.000000e+000 0.000000e+000
      endloop
   endfacet
   facet normal 1.000000e+000 0.000000e+000 0.000000e+000
      outer loop
         vertex 1.000000e+001 0.000000e+000 0.000000e+000
         vertex 1.000000e+001 1.000000e+001 1.000000e+001
         vertex 1.000000e+001 0.000000e+000 1.000000e+001
      endloop
   endfacet
   facet normal 0.000000e+000 0.000000e+000 -1.000000e+000
      outer loop
         vertex 0.000000e+000 1.000000e+001 0.000000e+000
         vertex 1.000000e+001 1.000000e+001 0.000000e+000
         vertex 0.000000e+000 0.000000e+000 0.000000e+000
      endloop
   endfacet
   facet normal 0.000000e+000 0.000000e+000 -1.000000e+000
      outer loop
         vertex 0.000000e+000 0.000000e+000 0.000000e+000
         vertex 1.000000e+001 1.000000e+001 0.000000e+000
         vertex 1.000000e+001 0.000000e+000 0.000000e+000
      endloop
   endfacet
   facet normal 0.000000e+000 1.000000e+000 0.000000e+000
      outer loop
         vertex 1.000000e+001 1.000000e+001 1.000000e+001
         vertex 1.000000e+001 1.000000e+001 0.000000e+000
         vertex 0.000000e+000 1.000000e+001 1.000000e+001
      endloop
   endfacet
   facet normal 0.000000e+000 1.000000e+000 0.000000e+000
      outer loop
         vertex 0.000000e+000 1.000000e+001 1.000000e+001
         vertex 1.000000e+001 1.000000e+001 0.000000e+000
         vertex 0.000000e+000 1.000000e+001 0.000000e+000
      endloop
   endfacet
   facet normal 0.000000e+000 -1.000000e+000 0.000000e+000
      outer loop
         vertex 1.000000e+001 0.000000e+000 0.000000e+000
         vertex 1.000000e+001 0.000000e+000 1.000000e+001
         vertex 0.000000e+000 0.000000e+000 0.000000e+000
      endloop
   endfacet
   facet normal 0.000000e+000 -1.000000e+000 0.000000e+000
      outer loop
         vertex 0.000000e+000 0.000000e+000 0.000000e+000
         vertex 1.000000e+001 0.000000e+000 1.000000e+001
         vertex 0.000000e+000 0.000000e+000 1.000000e+001
      endloop
   endfacet
   facet normal 8.660254e-001 -5.000000e-001 0.000000e+000
      outer loop
         vertex 9.297671e-001 4.914456e+000 8.198070e+000
         vertex 2.184028e+000 7.086901e+000 8.198070e+000
         vertex 9.297671e-001 4.914456e+000 1.000000e+001
      endloop
   endfacet
   facet normal 8.660254e-001 -5.000000e-001 0.000000e+000
      outer loop
         vertex 9.297671e-001 4.914456e+000 1.000000e+001
         vertex 2.184028e+000 7.086901e+000 8.198070e+000
         vertex 2.184028e+000 7.086901e+000 1.000000e+001
      endloop
   endfacet
   facet normal 1.037298e-014 -1.000000e+000 0.000000e+000
      outer loop
         vertex 2.184028e+000 7.086901e+000 8.198070e+000
         vertex 4.692551e+000 7.086901e+000 8.198070e+000
         vertex 2.184028e+000 7.086901e+000 1.000000e+001
      endloop
   endfacet
   facet normal 1.037298e-014 -1.000000e+000 0.000000e+000
      outer loop
         vertex 2.184028e+000 7.086901e+000 1.000000e+001
         vertex 4.692551e+000 7.086901e+000 8.198070e+000
         vertex 4.692551e+000 7.086901e+000 1.000000e+001
      endloop
   endfacet
   facet normal -8.660254e-001 -5.000000e-001 0.000000e+000
      outer loop
         vertex 4.692551e+000 7.086901e+000 8.198070e+000
         vertex 5.946813e+000 4.914456e+000 8.198070e+000
         vertex 4.692551e+000 7.086901e+000 1.000000e+001
      endloop
   endfacet
   facet normal -8.660254e-001 -5.000000e-001 0.000000e+000
      outer loop
         vertex 4.692551e+000 7.086901e+000 1.000000e+001
         vertex 5.946813e+000 4.914456e+000 8.198070e+000
         vertex 5.946813e+000 4.914456e+000 1.000000e+001
      endloop
   endfacet
   facet normal -8.660254e-001 5.000000e-001 0.000000e+000
      outer loop
         vertex 5.946813e+000 4.914456e+000 8.198070e+000
         vertex 4.692551e+000 2.742012e+000 8.198070e+000
         vertex 5.946813e+000 4.914456e+000 1.000000e+001
      endloop
   endfacet
   facet normal -8.660254e-001 5.000000e-001 0.000000e+000
      outer loop
         vertex 5.946813e+000 4.914456e+000 1.000000e+001
         vertex 4.692551e+000 2.742012e+000 8.198070e+000
         vertex 4.692551e+000 2.742012e+000 1.000000e+001
      endloop
   endfacet
   facet normal -3.457659e-015 1.000000e+000 0.000000e+000
      outer loop
         vertex 4.692551e+000 2.742012e+000 8.198070e+000
         vertex 2.184028e+000 2.742012e+000 8.198070e+000
         vertex 4.692551e+000 2.742012e+000 1.000000e+001
      endloop
   endfacet
   facet normal -3.457659e-015 1.000000e+000 0.000000e+000
      outer loop
         vertex 4.692551e+000 2.742012e+000 1.000000e+001
         vertex 2.184028e+000 2.742012e+000 8.198070e+000
         vertex 2.184028e+000 2.742012e+000 1.000000e+001
      endloop
   endfacet
   facet normal 8.660254e-001 5.000000e-001 0.000000e+000
      outer loop
         vertex 2.184028e+000 2.742012e+000 8.198070e+000
         vertex 9.297671e-001 4.914456e+000 8.198070e+000
         vertex 2.184028e+000 2.742012e+000 1.000000e+001
      endloop
   endfacet
   facet normal 8.660254e-001 5.000000e-001 0.000000e+000
      outer loop
         vertex 2.184028e+000 2.742012e+000 1.000000e+001
         vertex 9.297671e-001 4.914456e+000 8.198070e+000
         vertex 9.297671e-001 4.914456e+000 1.000000e+001
      endloop
   endfacet
   facet normal 0.000000e+000 0.000000e+000 1.000000e+000
      outer loop
         vertex 2.184028e+000 2.742012e+000 8.198070e+000
         vertex 4.692551e+000 2.742012e+000 8.198070e+000
         vertex 9.297671e-001 4.914456e+000 8.198070e+000
      endloop
   endfacet
   facet normal 0.000000e+000 0.000000e+000 1.000000e+000
      outer loop
         vertex 9.297671e-001 4.914456e+000 8.198070e+000
         vertex 4.692551e+000 2.742012e+000 8.198070e+000
         vertex 5.946813e+000 4.914456e+000 8.198070e+000
      endloop
   endfacet
   facet normal 0.000000e+000 0.000000e+000 1.000000e+000
      outer loop
         vertex 9.297671e-001 4.914456e+000 8.198070e+000
         vertex 5.946813e+000 4.914456e+000 8.198070e+000
         vertex 2.184028e+000 7.086901e+000 8.198070e+000
      endloop
   endfacet
   facet normal 0.000000e+000 0.000000e+000 1.000000e+000
      outer loop
         vertex 2.184028e+000 7.086901e+000 8.198070e+000
         vertex 5.946813e+000 4.914456e+000 8.198070e+000
         vertex 4.692551e+000 7.086901e+000 8.198070e+000
      endloop
   endfacet
endsolid