solid 23_251
   facet normal -1.000000e+000 0.000000e+000 0.000000e+000
      outer loop
         vertex 0.000000e+000 1.000000e+001 1.000000e+001
         vertex 0.000000e+000 1.000000e+001 0.000000e+000
         vertex 0.000000e+000 0.000000e+000 1.000000e+001
      endloop
   endfacet
   facet normal -1.000000e+000 0.000000e+000 0.000000e+000
      outer loop
         vertex 0.000000e+000 0.000000e+000 1.000000e+001
         vertex 0.000000e+000 1.000000e+001 0.000000e+000
         vertex 0.000000e+000 0.000000e+000 0.000000e+000
      endloop
   endfacet
   facet normal 0.000000e+000 0.000000e+000 1.000000e+000
      outer loop
         vertex 1.000000e+001 1.000000e+001 1.000000e+001
         vertex 0.000000e+000 1.000000e+001 1.000000e+001
         vertex 6.254408e+000 7.667096e+000 1.000000e+001
      endloop
   endfacet
   facet normal 0.000000e+000 0.000000e+000 1.000000e+000
      outer loop
         vertex 6.254408e+000 7.667096e+000 1.000000e+001
         vertex 7.885235e+000 7.667096e+000 1.000000e+001
         vertex 1.000000e+001 1.000000e+001 1.000000e+001
      endloop
   endfacet
   facet normal 0.000000e+000 0.000000e+000 1.000000e+000
      outer loop
         vertex 1.000000e+001 1.000000e+001 1.000000e+001
         vertex 7.885235e+000 7.667096e+000 1.000000e+001
         vertex 8.700649e+000 6.254758e+000 1.000000e+001
      endloop
   endfacet
   facet normal 0.000000e+000 0.000000e+000 1.000000e+000
      outer loop
         vertex 1.000000e+001 1.000000e+001 1.000000e+001
         vertex 8.700649e+000 6.254758e+000 1.000000e+001
         vertex 1.000000e+001 0.000000e+000 1.000000e+001
      endloop
   endfacet
   facet normal 0.000000e+000 0.000000e+000 1.000000e+000
      outer loop
         vertex 1.000000e+001 0.000000e+000 1.000000e+001
         vertex 8.700649e+000 6.254758e+000 1.000000e+001
         vertex 7.885235e+000 4.842420e+000 1.000000e+001
      endloop
   endfacet
   facet normal 0.000000e+000 0.000000e+000 1.000000e+000
      outer loop
         vertex 1.000000e+001 0.000000e+000 1.000000e+001
         vertex 7.885235e+000 4.842420e+000 1.000000e+001
         vertex 0.000000e+000 0.000000e+000 1.000000e+001
      endloop
   endfacet
   facet normal 0.000000e+000 0.000000e+000 1.000000e+000
      outer loop
         vertex 0.000000e+000 0.000000e+000 1.000000e+001
         vertex 7.885235e+000 4.842420e+000 1.000000e+001
         vertex 6.254408e+000 4.842420e+000 1.000000e+001
      endloop
   endfacet
   facet normal 0.000000e+000 0.000000e+000 1.000000e+000
      outer loop
         vertex 0.000000e+000 0.000000e+000 1.000000e+001
         vertex 6.254408e+000 4.842420e+000 1.000000e+001
         vertex 0.000000e+000 1.000000e+001 1.000000e+001
      endloop
   endfacet
   facet normal 0.000000e+000 0.000000e+000 1.000000e+000
      outer loop
         vertex 0.000000e+000 1.000000e+001 1.000000e+001
         vertex 6.254408e+000 4.842420e+000 1.000000e+001
         vertex 5.438994e+000 6.254758e+000 1.000000e+001
      endloop
   endfacet
   facet normal 0.000000e+000 0.000000e+000 1.000000e+000
      outer loop
         vertex 0.000000e+000 1.000000e+001 1.000000e+001
         vertex 5.438994e+000 6.254758e+000 1.000000e+001
         vertex 6.254408e+000 7.667096e+000 1.000000e+001
      endloop
   endfacet
   facet normal 1.000000e+000 0.000000e+000 0.000000e+000
      outer loop
         vertex 1.000000e+001 1.000000e+001 0.000000e+000
         vertex 1.000000e+001 1.000000e+001 1.000000e+001
         vertex 1.000000e+001 0.000000e+000 0.000000e+000
      endloop
   endfacet
   facet normal 1.000000e+000 0.000000e+000 0.000000e+000
      outer loop
         vertex 1.000000e+001 0.000000e+000 0.000000e+000
         vertex 1.000000e+001 1.000000e+001 1.000000e+001
         vertex 1.000000e+001 0.000000e+000 1.000000e+001
      endloop
   endfacet
   facet normal 0.000000e+000 0.000000e+000 -1.000000e+000
      outer loop
         vertex 0.000000e+000 1.000000e+001 0.000000e+000
         vertex 1.000000e+001 1.000000e+001 0.000000e+000
         vertex 0.000000e+000 0.000000e+000 0.000000e+000
      endloop
   endfacet
   facet normal 0.000000e+000 0.000000e+000 -1.000000e+000
      outer loop
         vertex 0.000000e+000 0.000000e+000 0.000000e+000
         vertex 1.000000e+001 1.000000e+001 0.000000e+000
         vertex 1.000000e+001 0.000000e+000 0.000000e+000
      endloop
   endfacet
   facet normal 0.000000e+000 1.000000e+000 0.000000e+000
      outer loop
         vertex 1.000000e+001 1.000000e+001 1.000000e+001
         vertex 1.000000e+001 1.000000e+001 0.000000e+000
         vertex 0.000000e+000 1.000000e+001 1.000000e+001
      endloop
   endfacet
   facet normal 0.000000e+000 1.000000e+000 0.000000e+000
      outer loop
         vertex 0.000000e+000 1.000000e+001 1.000000e+001
         vertex 1.000000e+001 1.000000e+001 0.000000e+000
         vertex 0.000000e+000 1.000000e+001 0.000000e+000
      endloop
   endfacet
   facet normal 0.000000e+000 -1.000000e+000 0.000000e+000
      outer loop
         vertex 1.000000e+001 0.000000e+000 0.000000e+000
         vertex 1.000000e+001 0.000000e+000 1.000000e+001
         vertex 0.000000e+000 0.000000e+000 0.000000e+000
      endloop
   endfacet
   facet normal 0.000000e+000 -1.000000e+000 0.000000e+000
      outer loop
         vertex 0.000000e+000 0.000000e+000 0.000000e+000
         vertex 1.000000e+001 0.000000e+000 1.000000e+001
         vertex 0.000000e+000 0.000000e+000 1.000000e+001
      endloop
   endfacet
   facet normal 8.660254e-001 -5.000000e-001 0.000000e+000
      outer loop
         vertex 5.438994e+000 6.254758e+000 5.926261e+000
         vertex 6.254408e+000 7.667096e+000 5.926261e+000
         vertex 5.438994e+000 6.254758e+000 1.000000e+001
      endloop
   endfacet
   facet normal 8.660254e-001 -5.000000e-001 0.000000e+000
      outer loop
         vertex 5.438994e+000 6.254758e+000 1.000000e+001
         vertex 6.254408e+000 7.667096e+000 5.926261e+000
         vertex 6.254408e+000 7.667096e+000 1.000000e+001
      endloop
   endfacet
   facet normal 1.010522e-014 -1.000000e+000 0.000000e+000
      outer loop
         vertex 6.254408e+000 7.667096e+000 5.926261e+000
         vertex 7.885235e+000 7.667096e+000 5.926261e+000
         vertex 6.254408e+000 7.667096e+000 1.000000e+001
      endloop
   endfacet
   facet normal 1.010522e-014 -1.000000e+000 0.000000e+000
      outer loop
         vertex 6.254408e+000 7.667096e+000 1.000000e+001
         vertex 7.885235e+000 7.667096e+000 5.926261e+000
         vertex 7.885235e+000 7.667096e+000 1.000000e+001
      endloop
   endfacet
   facet normal -8.660254e-001 -5.000000e-001 0.000000e+000
      outer loop
         vertex 7.885235e+000 7.667096e+000 5.926261e+000
         vertex 8.700649e+000 6.254758e+000 5.926261e+000
         vertex 7.885235e+000 7.667096e+000 1.000000e+001
      endloop
   endfacet
   facet normal -8.660254e-001 -5.000000e-001 0.000000e+000
      outer loop
         vertex 7.885235e+000 7.667096e+000 1.000000e+001
         vertex 8.700649e+000 6.254758e+000 5.926261e+000
         vertex 8.700649e+000 6.254758e+000 1.000000e+001
      endloop
   endfacet
   facet normal -8.660254e-001 5.000000e-001 0.000000e+000
      outer loop
         vertex 8.700649e+000 6.254758e+000 5.926261e+000
         vertex 7.885235e+000 4.842420e+000 5.926261e+000
         vertex 8.700649e+000 6.254758e+000 1.000000e+001
      endloop
   endfacet
   facet normal -8.660254e-001 5.000000e-001 0.000000e+000
      outer loop
         vertex 8.700649e+000 6.254758e+000 1.000000e+001
         vertex 7.885235e+000 4.842420e+000 5.926261e+000
         vertex 7.885235e+000 4.842420e+000 1.000000e+001
      endloop
   endfacet
   facet normal -3.191123e-015 1.000000e+000 0.000000e+000
      outer loop
         vertex 7.885235e+000 4.842420e+000 5.926261e+000
         vertex 6.254408e+000 4.842420e+000 5.926261e+000
         vertex 7.885235e+000 4.842420e+000 1.000000e+001
      endloop
   endfacet
   facet normal -3.191123e-015 1.000000e+000 0.000000e+000
      outer loop
         vertex 7.885235e+000 4.842420e+000 1.000000e+001
         vertex 6.254408e+000 4.842420e+000 5.926261e+000
         vertex 6.254408e+000 4.842420e+000 1.000000e+001
      endloop
   endfacet
   facet normal 8.660254e-001 5.000000e-001 0.000000e+000
      outer loop
         vertex 6.254408e+000 4.842420e+000 5.926261e+000
         vertex 5.438994e+000 6.254758e+000 5.926261e+000
         vertex 6.254408e+000 4.842420e+000 1.000000e+001
      endloop
   endfacet
   facet normal 8.660254e-001 5.000000e-001 0.000000e+000
      outer loop
         vertex 6.254408e+000 4.842420e+000 1.000000e+001
         vertex 5.438994e+000 6.254758e+000 5.926261e+000
         vertex 5.438994e+000 6.254758e+000 1.000000e+001
      endloop
   endfacet
   facet normal 0.000000e+000 0.000000e+000 1.000000e+000
      outer loop
         vertex 6.254408e+000 4.842420e+000 5.926261e+000
         vertex 7.885235e+000 4.842420e+000 5.926261e+000
         vertex 5.438994e+000 6.254758e+000 5.926261e+000
      endloop
   endfacet
   facet normal 0.000000e+000 0.000000e+000 1.000000e+000
      outer loop
         vertex 5.438994e+000 6.254758e+000 5.926261e+000
         vertex 7.885235e+000 4.842420e+000 5.926261e+000
         vertex 8.700649e+000 6.254758e+000 5.926261e+000
      endloop
   endfacet
   facet normal 0.000000e+000 0.000000e+000 1.000000e+000
      outer loop
         vertex 5.438994e+000 6.254758e+000 5.926261e+000
         vertex 8.700649e+000 6.254758e+000 5.926261e+000
         vertex 6.254408e+000 7.667096e+000 5.926261e+000
      endloop
   endfacet
   facet normal 0.000000e+000 0.000000e+000 1.000000e+000
      outer loop
         vertex 6.254408e+000 7.667096e+000 5.926261e+000
         vertex 8.700649e+000 6.254758e+000 5.926261e+000
         vertex 7.885235e+000 7.667096e+000 5.926261e+000
      endloop
   endfacet
endsolid