solid 23_432
   facet normal -1.000000e+000 0.000000e+000 0.000000e+000
      outer loop
         vertex 0.000000e+000 1.000000e+001 1.000000e+001
         vertex 0.000000e+000 1.000000e+001 0.000000e+000
         vertex 0.000000e+000 0.000000e+000 1.000000e+001
      endloop
   endfacet
   facet normal -1.000000e+000 0.000000e+000 0.000000e+000
      outer loop
         vertex 0.000000e+000 0.000000e+000 1.000000e+001
         vertex 0.000000e+000 1.000000e+001 0.000000e+000
         vertex 0.000000e+000 0.000000e+000 0.000000e+000
      endloop
   endfacet
   facet normal 0.000000e+000 0.000000e+000 1.000000e+000
      outer loop
         vertex 1.000000e+001 1.000000e+001 1.000000e+001
         vertex 9.387627e+000 4.989305e+000 1.000000e+001
         vertex 1.000000e+001 0.000000e+000 1.000000e+001
      endloop
   endfacet
   facet normal 0.000000e+000 0.000000e+000 1.000000e+000
      outer loop
         vertex 1.000000e+001 0.000000e+000 1.000000e+001
         vertex 9.387627e+000 4.989305e+000 1.000000e+001
         vertex 7.175247e+000 1.157353e+000 1.000000e+001
      endloop
   endfacet
   facet normal 0.000000e+000 0.000000e+000 1.000000e+000
      outer loop
         vertex 1.000000e+001 0.000000e+000 1.000000e+001
         vertex 7.175247e+000 1.157353e+000 1.000000e+001
         vertex 0.000000e+000 0.000000e+000 1.000000e+001
      endloop
   endfacet
   facet normal 0.000000e+000 0.000000e+000 1.000000e+000
      outer loop
         vertex 7.175247e+000 1.157353e+000 1.000000e+001
         vertex 2.750490e+000 1.157353e+000 1.000000e+001
         vertex 0.000000e+000 0.000000e+000 1.000000e+001
      endloop
   endfacet
   facet normal 0.000000e+000 0.000000e+000 1.000000e+000
      outer loop
         vertex 0.000000e+000 0.000000e+000 1.000000e+001
         vertex 2.750490e+000 1.157353e+000 1.000000e+001
         vertex 5.381114e-001 4.989305e+000 1.000000e+001
      endloop
   endfacet
   facet normal 0.000000e+000 0.000000e+000 1.000000e+000
      outer loop
         vertex 0.000000e+000 0.000000e+000 1.000000e+001
         vertex 5.381114e-001 4.989305e+000 1.000000e+001
         vertex 0.000000e+000 1.000000e+001 1.000000e+001
      endloop
   endfacet
   facet normal 0.000000e+000 0.000000e+000 1.000000e+000
      outer loop
         vertex 0.000000e+000 1.000000e+001 1.000000e+001
         vertex 5.381114e-001 4.989305e+000 1.000000e+001
         vertex 2.750490e+000 8.821258e+000 1.000000e+001
      endloop
   endfacet
   facet normal 0.000000e+000 0.000000e+000 1.000000e+000
      outer loop
         vertex 0.000000e+000 1.000000e+001 1.000000e+001
         vertex 2.750490e+000 8.821258e+000 1.000000e+001
         vertex 1.000000e+001 1.000000e+001 1.000000e+001
      endloop
   endfacet
   facet normal 0.000000e+000 0.000000e+000 1.000000e+000
      outer loop
         vertex 1.000000e+001 1.000000e+001 1.000000e+001
         vertex 2.750490e+000 8.821258e+000 1.000000e+001
         vertex 7.175247e+000 8.821258e+000 1.000000e+001
      endloop
   endfacet
   facet normal 0.000000e+000 0.000000e+000 1.000000e+000
      outer loop
         vertex 1.000000e+001 1.000000e+001 1.000000e+001
         vertex 7.175247e+000 8.821258e+000 1.000000e+001
         vertex 9.387627e+000 4.989305e+000 1.000000e+001
      endloop
   endfacet
   facet normal 1.000000e+000 0.000000e+000 0.000000e+000
      outer loop
         vertex 1.000000e+001 1.000000e+001 0.000000e+000
         vertex 1.000000e+001 1.000000e+001 1.000000e+001
         vertex 1.000000e+001 0.000000e+000 0.000000e+000
      endloop
   endfacet
   facet normal 1.000000e+000 0.000000e+000 0.000000e+000
      outer loop
         vertex 1.000000e+001 0.000000e+000 0.000000e+000
         vertex 1.000000e+001 1.000000e+001 1.000000e+001
         vertex 1.000000e+001 0.000000e+000 1.000000e+001
      endloop
   endfacet
   facet normal 0.000000e+000 0.000000e+000 -1.000000e+000
      outer loop
         vertex 0.000000e+000 1.000000e+001 0.000000e+000
         vertex 1.000000e+001 1.000000e+001 0.000000e+000
         vertex 0.000000e+000 0.000000e+000 0.000000e+000
      endloop
   endfacet
   facet normal 0.000000e+000 0.000000e+000 -1.000000e+000
      outer loop
         vertex 0.000000e+000 0.000000e+000 0.000000e+000
         vertex 1.000000e+001 1.000000e+001 0.000000e+000
         vertex 1.000000e+001 0.000000e+000 0.000000e+000
      endloop
   endfacet
   facet normal 0.000000e+000 1.000000e+000 0.000000e+000
      outer loop
         vertex 1.000000e+001 1.000000e+001 1.000000e+001
         vertex 1.000000e+001 1.000000e+001 0.000000e+000
         vertex 0.000000e+000 1.000000e+001 1.000000e+001
      endloop
   endfacet
   facet normal 0.000000e+000 1.000000e+000 0.000000e+000
      outer loop
         vertex 0.000000e+000 1.000000e+001 1.000000e+001
         vertex 1.000000e+001 1.000000e+001 0.000000e+000
         vertex 0.000000e+000 1.000000e+001 0.000000e+000
      endloop
   endfacet
   facet normal 0.000000e+000 -1.000000e+000 0.000000e+000
      outer loop
         vertex 1.000000e+001 0.000000e+000 0.000000e+000
         vertex 1.000000e+001 0.000000e+000 1.000000e+001
         vertex 0.000000e+000 0.000000e+000 0.000000e+000
      endloop
   endfacet
   facet normal 0.000000e+000 -1.000000e+000 0.000000e+000
      outer loop
         vertex 0.000000e+000 0.000000e+000 0.000000e+000
         vertex 1.000000e+001 0.000000e+000 1.000000e+001
         vertex 0.000000e+000 0.000000e+000 1.000000e+001
      endloop
   endfacet
   facet normal 8.660254e-001 -5.000000e-001 0.000000e+000
      outer loop
         vertex 5.381114e-001 4.989305e+000 2.283291e+000
         vertex 2.750490e+000 8.821258e+000 2.283291e+000
         vertex 5.381114e-001 4.989305e+000 1.000000e+001
      endloop
   endfacet
   facet normal 8.660254e-001 -5.000000e-001 0.000000e+000
      outer loop
         vertex 5.381114e-001 4.989305e+000 1.000000e+001
         vertex 2.750490e+000 8.821258e+000 2.283291e+000
         vertex 2.750490e+000 8.821258e+000 1.000000e+001
      endloop
   endfacet
   facet normal 1.019329e-014 -1.000000e+000 0.000000e+000
      outer loop
         vertex 2.750490e+000 8.821258e+000 2.283291e+000
         vertex 7.175247e+000 8.821258e+000 2.283291e+000
         vertex 2.750490e+000 8.821258e+000 1.000000e+001
      endloop
   endfacet
   facet normal 1.019329e-014 -1.000000e+000 0.000000e+000
      outer loop
         vertex 2.750490e+000 8.821258e+000 1.000000e+001
         vertex 7.175247e+000 8.821258e+000 2.283291e+000
         vertex 7.175247e+000 8.821258e+000 1.000000e+001
      endloop
   endfacet
   facet normal -8.660254e-001 -5.000000e-001 0.000000e+000
      outer loop
         vertex 7.175247e+000 8.821258e+000 2.283291e+000
         vertex 9.387627e+000 4.989305e+000 2.283291e+000
         vertex 7.175247e+000 8.821258e+000 1.000000e+001
      endloop
   endfacet
   facet normal -8.660254e-001 -5.000000e-001 0.000000e+000
      outer loop
         vertex 7.175247e+000 8.821258e+000 1.000000e+001
         vertex 9.387627e+000 4.989305e+000 2.283291e+000
         vertex 9.387627e+000 4.989305e+000 1.000000e+001
      endloop
   endfacet
   facet normal -8.660254e-001 5.000000e-001 0.000000e+000
      outer loop
         vertex 9.387627e+000 4.989305e+000 2.283291e+000
         vertex 7.175247e+000 1.157353e+000 2.283291e+000
         vertex 9.387627e+000 4.989305e+000 1.000000e+001
      endloop
   endfacet
   facet normal -8.660254e-001 5.000000e-001 0.000000e+000
      outer loop
         vertex 9.387627e+000 4.989305e+000 1.000000e+001
         vertex 7.175247e+000 1.157353e+000 2.283291e+000
         vertex 7.175247e+000 1.157353e+000 1.000000e+001
      endloop
   endfacet
   facet normal -3.528445e-015 1.000000e+000 0.000000e+000
      outer loop
         vertex 7.175247e+000 1.157353e+000 2.283291e+000
         vertex 2.750490e+000 1.157353e+000 2.283291e+000
         vertex 7.175247e+000 1.157353e+000 1.000000e+001
      endloop
   endfacet
   facet normal -3.528445e-015 1.000000e+000 0.000000e+000
      outer loop
         vertex 7.175247e+000 1.157353e+000 1.000000e+001
         vertex 2.750490e+000 1.157353e+000 2.283291e+000
         vertex 2.750490e+000 1.157353e+000 1.000000e+001
      endloop
   endfacet
   facet normal 8.660254e-001 5.000000e-001 0.000000e+000
      outer loop
         vertex 2.750490e+000 1.157353e+000 2.283291e+000
         vertex 5.381114e-001 4.989305e+000 2.283291e+000
         vertex 2.750490e+000 1.157353e+000 1.000000e+001
      endloop
   endfacet
   facet normal 8.660254e-001 5.000000e-001 0.000000e+000
      outer loop
         vertex 2.750490e+000 1.157353e+000 1.000000e+001
         vertex 5.381114e-001 4.989305e+000 2.283291e+000
         vertex 5.381114e-001 4.989305e+000 1.000000e+001
      endloop
   endfacet
   facet normal 0.000000e+000 0.000000e+000 1.000000e+000
      outer loop
         vertex 2.750490e+000 1.157353e+000 2.283291e+000
         vertex 7.175247e+000 1.157353e+000 2.283291e+000
         vertex 5.381114e-001 4.989305e+000 2.283291e+000
      endloop
   endfacet
   facet normal 0.000000e+000 0.000000e+000 1.000000e+000
      outer loop
         vertex 5.381114e-001 4.989305e+000 2.283291e+000
         vertex 7.175247e+000 1.157353e+000 2.283291e+000
         vertex 9.387627e+000 4.989305e+000 2.283291e+000
      endloop
   endfacet
   facet normal 0.000000e+000 0.000000e+000 1.000000e+000
      outer loop
         vertex 5.381114e-001 4.989305e+000 2.283291e+000
         vertex 9.387627e+000 4.989305e+000 2.283291e+000
         vertex 2.750490e+000 8.821258e+000 2.283291e+000
      endloop
   endfacet
   facet normal 0.000000e+000 0.000000e+000 1.000000e+000
      outer loop
         vertex 2.750490e+000 8.821258e+000 2.283291e+000
         vertex 9.387627e+000 4.989305e+000 2.283291e+000
         vertex 7.175247e+000 8.821258e+000 2.283291e+000
      endloop
   endfacet
endsolid