solid 23_437
   facet normal -1.000000e+000 0.000000e+000 0.000000e+000
      outer loop
         vertex 0.000000e+000 1.000000e+001 1.000000e+001
         vertex 0.000000e+000 1.000000e+001 0.000000e+000
         vertex 0.000000e+000 0.000000e+000 1.000000e+001
      endloop
   endfacet
   facet normal -1.000000e+000 0.000000e+000 0.000000e+000
      outer loop
         vertex 0.000000e+000 0.000000e+000 1.000000e+001
         vertex 0.000000e+000 1.000000e+001 0.000000e+000
         vertex 0.000000e+000 0.000000e+000 0.000000e+000
      endloop
   endfacet
   facet normal 0.000000e+000 0.000000e+000 1.000000e+000
      outer loop
         vertex 8.788895e+000 2.784871e+000 1.000000e+001
         vertex 1.000000e+001 0.000000e+000 1.000000e+001
         vertex 1.000000e+001 1.000000e+001 1.000000e+001
      endloop
   endfacet
   facet normal 0.000000e+000 0.000000e+000 1.000000e+000
      outer loop
         vertex 8.788895e+000 2.784871e+000 1.000000e+001
         vertex 7.970630e+000 1.367594e+000 1.000000e+001
         vertex 1.000000e+001 0.000000e+000 1.000000e+001
      endloop
   endfacet
   facet normal 0.000000e+000 0.000000e+000 1.000000e+000
      outer loop
         vertex 1.000000e+001 0.000000e+000 1.000000e+001
         vertex 7.970630e+000 1.367594e+000 1.000000e+001
         vertex 6.334100e+000 1.367594e+000 1.000000e+001
      endloop
   endfacet
   facet normal 0.000000e+000 0.000000e+000 1.000000e+000
      outer loop
         vertex 1.000000e+001 0.000000e+000 1.000000e+001
         vertex 6.334100e+000 1.367594e+000 1.000000e+001
         vertex 0.000000e+000 0.000000e+000 1.000000e+001
      endloop
   endfacet
   facet normal 0.000000e+000 0.000000e+000 1.000000e+000
      outer loop
         vertex 0.000000e+000 0.000000e+000 1.000000e+001
         vertex 6.334100e+000 1.367594e+000 1.000000e+001
         vertex 5.515835e+000 2.784871e+000 1.000000e+001
      endloop
   endfacet
   facet normal 0.000000e+000 0.000000e+000 1.000000e+000
      outer loop
         vertex 0.000000e+000 0.000000e+000 1.000000e+001
         vertex 5.515835e+000 2.784871e+000 1.000000e+001
         vertex 0.000000e+000 1.000000e+001 1.000000e+001
      endloop
   endfacet
   facet normal 0.000000e+000 0.000000e+000 1.000000e+000
      outer loop
         vertex 0.000000e+000 1.000000e+001 1.000000e+001
         vertex 5.515835e+000 2.784871e+000 1.000000e+001
         vertex 6.334100e+000 4.202147e+000 1.000000e+001
      endloop
   endfacet
   facet normal 0.000000e+000 0.000000e+000 1.000000e+000
      outer loop
         vertex 0.000000e+000 1.000000e+001 1.000000e+001
         vertex 6.334100e+000 4.202147e+000 1.000000e+001
         vertex 1.000000e+001 1.000000e+001 1.000000e+001
      endloop
   endfacet
   facet normal 0.000000e+000 0.000000e+000 1.000000e+000
      outer loop
         vertex 1.000000e+001 1.000000e+001 1.000000e+001
         vertex 6.334100e+000 4.202147e+000 1.000000e+001
         vertex 7.970630e+000 4.202147e+000 1.000000e+001
      endloop
   endfacet
   facet normal 0.000000e+000 0.000000e+000 1.000000e+000
      outer loop
         vertex 1.000000e+001 1.000000e+001 1.000000e+001
         vertex 7.970630e+000 4.202147e+000 1.000000e+001
         vertex 8.788895e+000 2.784871e+000 1.000000e+001
      endloop
   endfacet
   facet normal 1.000000e+000 0.000000e+000 0.000000e+000
      outer loop
         vertex 1.000000e+001 1.000000e+001 0.000000e+000
         vertex 1.000000e+001 1.000000e+001 1.000000e+001
         vertex 1.000000e+001 0.000000e+000 0.000000e+000
      endloop
   endfacet
   facet normal 1.000000e+000 0.000000e+000 0.000000e+000
      outer loop
         vertex 1.000000e+001 0.000000e+000 0.000000e+000
         vertex 1.000000e+001 1.000000e+001 1.000000e+001
         vertex 1.000000e+001 0.000000e+000 1.000000e+001
      endloop
   endfacet
   facet normal 0.000000e+000 0.000000e+000 -1.000000e+000
      outer loop
         vertex 0.000000e+000 1.000000e+001 0.000000e+000
         vertex 1.000000e+001 1.000000e+001 0.000000e+000
         vertex 0.000000e+000 0.000000e+000 0.000000e+000
      endloop
   endfacet
   facet normal 0.000000e+000 0.000000e+000 -1.000000e+000
      outer loop
         vertex 0.000000e+000 0.000000e+000 0.000000e+000
         vertex 1.000000e+001 1.000000e+001 0.000000e+000
         vertex 1.000000e+001 0.000000e+000 0.000000e+000
      endloop
   endfacet
   facet normal 0.000000e+000 1.000000e+000 0.000000e+000
      outer loop
         vertex 1.000000e+001 1.000000e+001 1.000000e+001
         vertex 1.000000e+001 1.000000e+001 0.000000e+000
         vertex 0.000000e+000 1.000000e+001 1.000000e+001
      endloop
   endfacet
   facet normal 0.000000e+000 1.000000e+000 0.000000e+000
      outer loop
         vertex 0.000000e+000 1.000000e+001 1.000000e+001
         vertex 1.000000e+001 1.000000e+001 0.000000e+000
         vertex 0.000000e+000 1.000000e+001 0.000000e+000
      endloop
   endfacet
   facet normal 0.000000e+000 -1.000000e+000 0.000000e+000
      outer loop
         vertex 1.000000e+001 0.000000e+000 0.000000e+000
         vertex 1.000000e+001 0.000000e+000 1.000000e+001
         vertex 0.000000e+000 0.000000e+000 0.000000e+000
      endloop
   endfacet
   facet normal 0.000000e+000 -1.000000e+000 0.000000e+000
      outer loop
         vertex 0.000000e+000 0.000000e+000 0.000000e+000
         vertex 1.000000e+001 0.000000e+000 1.000000e+001
         vertex 0.000000e+000 0.000000e+000 1.000000e+001
      endloop
   endfacet
   facet normal 8.660254e-001 -5.000000e-001 0.000000e+000
      outer loop
         vertex 5.515835e+000 2.784871e+000 5.953982e+000
         vertex 6.334100e+000 4.202147e+000 5.953982e+000
         vertex 5.515835e+000 2.784871e+000 1.000000e+001
      endloop
   endfacet
   facet normal 8.660254e-001 -5.000000e-001 0.000000e+000
      outer loop
         vertex 5.515835e+000 2.784871e+000 1.000000e+001
         vertex 6.334100e+000 4.202147e+000 5.953982e+000
         vertex 6.334100e+000 4.202147e+000 1.000000e+001
      endloop
   endfacet
   facet normal 1.007001e-014 -1.000000e+000 0.000000e+000
      outer loop
         vertex 6.334100e+000 4.202147e+000 5.953982e+000
         vertex 7.970630e+000 4.202147e+000 5.953982e+000
         vertex 6.334100e+000 4.202147e+000 1.000000e+001
      endloop
   endfacet
   facet normal 1.007001e-014 -1.000000e+000 0.000000e+000
      outer loop
         vertex 6.334100e+000 4.202147e+000 1.000000e+001
         vertex 7.970630e+000 4.202147e+000 5.953982e+000
         vertex 7.970630e+000 4.202147e+000 1.000000e+001
      endloop
   endfacet
   facet normal -8.660254e-001 -5.000000e-001 0.000000e+000
      outer loop
         vertex 7.970630e+000 4.202147e+000 5.953982e+000
         vertex 8.788895e+000 2.784871e+000 5.953982e+000
         vertex 7.970630e+000 4.202147e+000 1.000000e+001
      endloop
   endfacet
   facet normal -8.660254e-001 -5.000000e-001 0.000000e+000
      outer loop
         vertex 7.970630e+000 4.202147e+000 1.000000e+001
         vertex 8.788895e+000 2.784871e+000 5.953982e+000
         vertex 8.788895e+000 2.784871e+000 1.000000e+001
      endloop
   endfacet
   facet normal -8.660254e-001 5.000000e-001 0.000000e+000
      outer loop
         vertex 8.788895e+000 2.784871e+000 5.953982e+000
         vertex 7.970630e+000 1.367594e+000 5.953982e+000
         vertex 8.788895e+000 2.784871e+000 1.000000e+001
      endloop
   endfacet
   facet normal -8.660254e-001 5.000000e-001 0.000000e+000
      outer loop
         vertex 8.788895e+000 2.784871e+000 1.000000e+001
         vertex 7.970630e+000 1.367594e+000 5.953982e+000
         vertex 7.970630e+000 1.367594e+000 1.000000e+001
      endloop
   endfacet
   facet normal -3.445003e-015 1.000000e+000 0.000000e+000
      outer loop
         vertex 7.970630e+000 1.367594e+000 5.953982e+000
         vertex 6.334100e+000 1.367594e+000 5.953982e+000
         vertex 7.970630e+000 1.367594e+000 1.000000e+001
      endloop
   endfacet
   facet normal -3.445003e-015 1.000000e+000 0.000000e+000
      outer loop
         vertex 7.970630e+000 1.367594e+000 1.000000e+001
         vertex 6.334100e+000 1.367594e+000 5.953982e+000
         vertex 6.334100e+000 1.367594e+000 1.000000e+001
      endloop
   endfacet
   facet normal 8.660254e-001 5.000000e-001 0.000000e+000
      outer loop
         vertex 6.334100e+000 1.367594e+000 5.953982e+000
         vertex 5.515835e+000 2.784871e+000 5.953982e+000
         vertex 6.334100e+000 1.367594e+000 1.000000e+001
      endloop
   endfacet
   facet normal 8.660254e-001 5.000000e-001 0.000000e+000
      outer loop
         vertex 6.334100e+000 1.367594e+000 1.000000e+001
         vertex 5.515835e+000 2.784871e+000 5.953982e+000
         vertex 5.515835e+000 2.784871e+000 1.000000e+001
      endloop
   endfacet
   facet normal 0.000000e+000 0.000000e+000 1.000000e+000
      outer loop
         vertex 6.334100e+000 1.367594e+000 5.953982e+000
         vertex 7.970630e+000 1.367594e+000 5.953982e+000
         vertex 5.515835e+000 2.784871e+000 5.953982e+000
      endloop
   endfacet
   facet normal 0.000000e+000 0.000000e+000 1.000000e+000
      outer loop
         vertex 5.515835e+000 2.784871e+000 5.953982e+000
         vertex 7.970630e+000 1.367594e+000 5.953982e+000
         vertex 8.788895e+000 2.784871e+000 5.953982e+000
      endloop
   endfacet
   facet normal 0.000000e+000 0.000000e+000 1.000000e+000
      outer loop
         vertex 5.515835e+000 2.784871e+000 5.953982e+000
         vertex 8.788895e+000 2.784871e+000 5.953982e+000
         vertex 6.334100e+000 4.202147e+000 5.953982e+000
      endloop
   endfacet
   facet normal 0.000000e+000 0.000000e+000 1.000000e+000
      outer loop
         vertex 6.334100e+000 4.202147e+000 5.953982e+000
         vertex 8.788895e+000 2.784871e+000 5.953982e+000
         vertex 7.970630e+000 4.202147e+000 5.953982e+000
      endloop
   endfacet
endsolid