solid 23_57
   facet normal -1.000000e+000 0.000000e+000 0.000000e+000
      outer loop
         vertex 0.000000e+000 1.000000e+001 1.000000e+001
         vertex 0.000000e+000 1.000000e+001 0.000000e+000
         vertex 0.000000e+000 0.000000e+000 1.000000e+001
      endloop
   endfacet
   facet normal -1.000000e+000 0.000000e+000 0.000000e+000
      outer loop
         vertex 0.000000e+000 0.000000e+000 1.000000e+001
         vertex 0.000000e+000 1.000000e+001 0.000000e+000
         vertex 0.000000e+000 0.000000e+000 0.000000e+000
      endloop
   endfacet
   facet normal 0.000000e+000 0.000000e+000 1.000000e+000
      outer loop
         vertex 1.000000e+001 1.000000e+001 1.000000e+001
         vertex 9.270149e+000 5.262905e+000 1.000000e+001
         vertex 1.000000e+001 0.000000e+000 1.000000e+001
      endloop
   endfacet
   facet normal 0.000000e+000 0.000000e+000 1.000000e+000
      outer loop
         vertex 1.000000e+001 0.000000e+000 1.000000e+001
         vertex 9.270149e+000 5.262905e+000 1.000000e+001
         vertex 7.195038e+000 1.668707e+000 1.000000e+001
      endloop
   endfacet
   facet normal 0.000000e+000 0.000000e+000 1.000000e+000
      outer loop
         vertex 1.000000e+001 0.000000e+000 1.000000e+001
         vertex 7.195038e+000 1.668707e+000 1.000000e+001
         vertex 0.000000e+000 0.000000e+000 1.000000e+001
      endloop
   endfacet
   facet normal 0.000000e+000 0.000000e+000 1.000000e+000
      outer loop
         vertex 7.195038e+000 1.668707e+000 1.000000e+001
         vertex 3.044816e+000 1.668707e+000 1.000000e+001
         vertex 0.000000e+000 0.000000e+000 1.000000e+001
      endloop
   endfacet
   facet normal 0.000000e+000 0.000000e+000 1.000000e+000
      outer loop
         vertex 0.000000e+000 0.000000e+000 1.000000e+001
         vertex 3.044816e+000 1.668707e+000 1.000000e+001
         vertex 9.697046e-001 5.262905e+000 1.000000e+001
      endloop
   endfacet
   facet normal 0.000000e+000 0.000000e+000 1.000000e+000
      outer loop
         vertex 0.000000e+000 0.000000e+000 1.000000e+001
         vertex 9.697046e-001 5.262905e+000 1.000000e+001
         vertex 0.000000e+000 1.000000e+001 1.000000e+001
      endloop
   endfacet
   facet normal 0.000000e+000 0.000000e+000 1.000000e+000
      outer loop
         vertex 0.000000e+000 1.000000e+001 1.000000e+001
         vertex 9.697046e-001 5.262905e+000 1.000000e+001
         vertex 3.044816e+000 8.857103e+000 1.000000e+001
      endloop
   endfacet
   facet normal 0.000000e+000 0.000000e+000 1.000000e+000
      outer loop
         vertex 0.000000e+000 1.000000e+001 1.000000e+001
         vertex 3.044816e+000 8.857103e+000 1.000000e+001
         vertex 1.000000e+001 1.000000e+001 1.000000e+001
      endloop
   endfacet
   facet normal 0.000000e+000 0.000000e+000 1.000000e+000
      outer loop
         vertex 1.000000e+001 1.000000e+001 1.000000e+001
         vertex 3.044816e+000 8.857103e+000 1.000000e+001
         vertex 7.195038e+000 8.857103e+000 1.000000e+001
      endloop
   endfacet
   facet normal 0.000000e+000 0.000000e+000 1.000000e+000
      outer loop
         vertex 1.000000e+001 1.000000e+001 1.000000e+001
         vertex 7.195038e+000 8.857103e+000 1.000000e+001
         vertex 9.270149e+000 5.262905e+000 1.000000e+001
      endloop
   endfacet
   facet normal 1.000000e+000 0.000000e+000 0.000000e+000
      outer loop
         vertex 1.000000e+001 1.000000e+001 0.000000e+000
         vertex 1.000000e+001 1.000000e+001 1.000000e+001
         vertex 1.000000e+001 0.000000e+000 0.000000e+000
      endloop
   endfacet
   facet normal 1.000000e+000 0.000000e+000 0.000000e+000
      outer loop
         vertex 1.000000e+001 0.000000e+000 0.000000e+000
         vertex 1.000000e+001 1.000000e+001 1.000000e+001
         vertex 1.000000e+001 0.000000e+000 1.000000e+001
      endloop
   endfacet
   facet normal 0.000000e+000 0.000000e+000 -1.000000e+000
      outer loop
         vertex 0.000000e+000 1.000000e+001 0.000000e+000
         vertex 1.000000e+001 1.000000e+001 0.000000e+000
         vertex 0.000000e+000 0.000000e+000 0.000000e+000
      endloop
   endfacet
   facet normal 0.000000e+000 0.000000e+000 -1.000000e+000
      outer loop
         vertex 0.000000e+000 0.000000e+000 0.000000e+000
         vertex 1.000000e+001 1.000000e+001 0.000000e+000
         vertex 1.000000e+001 0.000000e+000 0.000000e+000
      endloop
   endfacet
   facet normal 0.000000e+000 1.000000e+000 0.000000e+000
      outer loop
         vertex 1.000000e+001 1.000000e+001 1.000000e+001
         vertex 1.000000e+001 1.000000e+001 0.000000e+000
         vertex 0.000000e+000 1.000000e+001 1.000000e+001
      endloop
   endfacet
   facet normal 0.000000e+000 1.000000e+000 0.000000e+000
      outer loop
         vertex 0.000000e+000 1.000000e+001 1.000000e+001
         vertex 1.000000e+001 1.000000e+001 0.000000e+000
         vertex 0.000000e+000 1.000000e+001 0.000000e+000
      endloop
   endfacet
   facet normal 0.000000e+000 -1.000000e+000 0.000000e+000
      outer loop
         vertex 1.000000e+001 0.000000e+000 0.000000e+000
         vertex 1.000000e+001 0.000000e+000 1.000000e+001
         vertex 0.000000e+000 0.000000e+000 0.000000e+000
      endloop
   endfacet
   facet normal 0.000000e+000 -1.000000e+000 0.000000e+000
      outer loop
         vertex 0.000000e+000 0.000000e+000 0.000000e+000
         vertex 1.000000e+001 0.000000e+000 1.000000e+001
         vertex 0.000000e+000 0.000000e+000 1.000000e+001
      endloop
   endfacet
   facet normal 8.660254e-001 -5.000000e-001 0.000000e+000
      outer loop
         vertex 9.697046e-001 5.262905e+000 3.842524e+000
         vertex 3.044816e+000 8.857103e+000 3.842524e+000
         vertex 9.697046e-001 5.262905e+000 1.000000e+001
      endloop
   endfacet
   facet normal 8.660254e-001 -5.000000e-001 0.000000e+000
      outer loop
         vertex 9.697046e-001 5.262905e+000 1.000000e+001
         vertex 3.044816e+000 8.857103e+000 3.842524e+000
         vertex 3.044816e+000 8.857103e+000 1.000000e+001
      endloop
   endfacet
   facet normal 1.044958e-014 -1.000000e+000 0.000000e+000
      outer loop
         vertex 3.044816e+000 8.857103e+000 3.842524e+000
         vertex 7.195038e+000 8.857103e+000 3.842524e+000
         vertex 3.044816e+000 8.857103e+000 1.000000e+001
      endloop
   endfacet
   facet normal 1.044958e-014 -1.000000e+000 0.000000e+000
      outer loop
         vertex 3.044816e+000 8.857103e+000 1.000000e+001
         vertex 7.195038e+000 8.857103e+000 3.842524e+000
         vertex 7.195038e+000 8.857103e+000 1.000000e+001
      endloop
   endfacet
   facet normal -8.660254e-001 -5.000000e-001 0.000000e+000
      outer loop
         vertex 7.195038e+000 8.857103e+000 3.842524e+000
         vertex 9.270149e+000 5.262905e+000 3.842524e+000
         vertex 7.195038e+000 8.857103e+000 1.000000e+001
      endloop
   endfacet
   facet normal -8.660254e-001 -5.000000e-001 0.000000e+000
      outer loop
         vertex 7.195038e+000 8.857103e+000 1.000000e+001
         vertex 9.270149e+000 5.262905e+000 3.842524e+000
         vertex 9.270149e+000 5.262905e+000 1.000000e+001
      endloop
   endfacet
   facet normal -8.660254e-001 5.000000e-001 0.000000e+000
      outer loop
         vertex 9.270149e+000 5.262905e+000 3.842524e+000
         vertex 7.195038e+000 1.668707e+000 3.842524e+000
         vertex 9.270149e+000 5.262905e+000 1.000000e+001
      endloop
   endfacet
   facet normal -8.660254e-001 5.000000e-001 0.000000e+000
      outer loop
         vertex 9.270149e+000 5.262905e+000 1.000000e+001
         vertex 7.195038e+000 1.668707e+000 3.842524e+000
         vertex 7.195038e+000 1.668707e+000 1.000000e+001
      endloop
   endfacet
   facet normal -3.552858e-015 1.000000e+000 0.000000e+000
      outer loop
         vertex 7.195038e+000 1.668707e+000 3.842524e+000
         vertex 3.044816e+000 1.668707e+000 3.842524e+000
         vertex 7.195038e+000 1.668707e+000 1.000000e+001
      endloop
   endfacet
   facet normal -3.552858e-015 1.000000e+000 0.000000e+000
      outer loop
         vertex 7.195038e+000 1.668707e+000 1.000000e+001
         vertex 3.044816e+000 1.668707e+000 3.842524e+000
         vertex 3.044816e+000 1.668707e+000 1.000000e+001
      endloop
   endfacet
   facet normal 8.660254e-001 5.000000e-001 0.000000e+000
      outer loop
         vertex 3.044816e+000 1.668707e+000 3.842524e+000
         vertex 9.697046e-001 5.262905e+000 3.842524e+000
         vertex 3.044816e+000 1.668707e+000 1.000000e+001
      endloop
   endfacet
   facet normal 8.660254e-001 5.000000e-001 0.000000e+000
      outer loop
         vertex 3.044816e+000 1.668707e+000 1.000000e+001
         vertex 9.697046e-001 5.262905e+000 3.842524e+000
         vertex 9.697046e-001 5.262905e+000 1.000000e+001
      endloop
   endfacet
   facet normal 0.000000e+000 0.000000e+000 1.000000e+000
      outer loop
         vertex 3.044816e+000 1.668707e+000 3.842524e+000
         vertex 7.195038e+000 1.668707e+000 3.842524e+000
         vertex 9.697046e-001 5.262905e+000 3.842524e+000
      endloop
   endfacet
   facet normal 0.000000e+000 0.000000e+000 1.000000e+000
      outer loop
         vertex 9.697046e-001 5.262905e+000 3.842524e+000
         vertex 7.195038e+000 1.668707e+000 3.842524e+000
         vertex 9.270149e+000 5.262905e+000 3.842524e+000
      endloop
   endfacet
   facet normal 0.000000e+000 0.000000e+000 1.000000e+000
      outer loop
         vertex 9.697046e-001 5.262905e+000 3.842524e+000
         vertex 9.270149e+000 5.262905e+000 3.842524e+000
         vertex 3.044816e+000 8.857103e+000 3.842524e+000
      endloop
   endfacet
   facet normal 0.000000e+000 0.000000e+000 1.000000e+000
      outer loop
         vertex 3.044816e+000 8.857103e+000 3.842524e+000
         vertex 9.270149e+000 5.262905e+000 3.842524e+000
         vertex 7.195038e+000 8.857103e+000 3.842524e+000
      endloop
   endfacet
endsolid