solid 23_699
   facet normal -1.000000e+000 0.000000e+000 0.000000e+000
      outer loop
         vertex 0.000000e+000 1.000000e+001 1.000000e+001
         vertex 0.000000e+000 1.000000e+001 0.000000e+000
         vertex 0.000000e+000 0.000000e+000 1.000000e+001
      endloop
   endfacet
   facet normal -1.000000e+000 0.000000e+000 0.000000e+000
      outer loop
         vertex 0.000000e+000 0.000000e+000 1.000000e+001
         vertex 0.000000e+000 1.000000e+001 0.000000e+000
         vertex 0.000000e+000 0.000000e+000 0.000000e+000
      endloop
   endfacet
   facet normal 0.000000e+000 0.000000e+000 1.000000e+000
      outer loop
         vertex 1.000000e+001 1.000000e+001 1.000000e+001
         vertex 9.403212e+000 4.977860e+000 1.000000e+001
         vertex 1.000000e+001 0.000000e+000 1.000000e+001
      endloop
   endfacet
   facet normal 0.000000e+000 0.000000e+000 1.000000e+000
      outer loop
         vertex 1.000000e+001 0.000000e+000 1.000000e+001
         vertex 9.403212e+000 4.977860e+000 1.000000e+001
         vertex 7.192974e+000 1.149615e+000 1.000000e+001
      endloop
   endfacet
   facet normal 0.000000e+000 0.000000e+000 1.000000e+000
      outer loop
         vertex 1.000000e+001 0.000000e+000 1.000000e+001
         vertex 7.192974e+000 1.149615e+000 1.000000e+001
         vertex 0.000000e+000 0.000000e+000 1.000000e+001
      endloop
   endfacet
   facet normal 0.000000e+000 0.000000e+000 1.000000e+000
      outer loop
         vertex 7.192974e+000 1.149615e+000 1.000000e+001
         vertex 2.772496e+000 1.149615e+000 1.000000e+001
         vertex 0.000000e+000 0.000000e+000 1.000000e+001
      endloop
   endfacet
   facet normal 0.000000e+000 0.000000e+000 1.000000e+000
      outer loop
         vertex 0.000000e+000 0.000000e+000 1.000000e+001
         vertex 2.772496e+000 1.149615e+000 1.000000e+001
         vertex 5.622577e-001 4.977860e+000 1.000000e+001
      endloop
   endfacet
   facet normal 0.000000e+000 0.000000e+000 1.000000e+000
      outer loop
         vertex 0.000000e+000 0.000000e+000 1.000000e+001
         vertex 5.622577e-001 4.977860e+000 1.000000e+001
         vertex 0.000000e+000 1.000000e+001 1.000000e+001
      endloop
   endfacet
   facet normal 0.000000e+000 0.000000e+000 1.000000e+000
      outer loop
         vertex 0.000000e+000 1.000000e+001 1.000000e+001
         vertex 5.622577e-001 4.977860e+000 1.000000e+001
         vertex 2.772496e+000 8.806107e+000 1.000000e+001
      endloop
   endfacet
   facet normal 0.000000e+000 0.000000e+000 1.000000e+000
      outer loop
         vertex 0.000000e+000 1.000000e+001 1.000000e+001
         vertex 2.772496e+000 8.806107e+000 1.000000e+001
         vertex 1.000000e+001 1.000000e+001 1.000000e+001
      endloop
   endfacet
   facet normal 0.000000e+000 0.000000e+000 1.000000e+000
      outer loop
         vertex 1.000000e+001 1.000000e+001 1.000000e+001
         vertex 2.772496e+000 8.806107e+000 1.000000e+001
         vertex 7.192974e+000 8.806107e+000 1.000000e+001
      endloop
   endfacet
   facet normal 0.000000e+000 0.000000e+000 1.000000e+000
      outer loop
         vertex 1.000000e+001 1.000000e+001 1.000000e+001
         vertex 7.192974e+000 8.806107e+000 1.000000e+001
         vertex 9.403212e+000 4.977860e+000 1.000000e+001
      endloop
   endfacet
   facet normal 1.000000e+000 0.000000e+000 0.000000e+000
      outer loop
         vertex 1.000000e+001 1.000000e+001 0.000000e+000
         vertex 1.000000e+001 1.000000e+001 1.000000e+001
         vertex 1.000000e+001 0.000000e+000 0.000000e+000
      endloop
   endfacet
   facet normal 1.000000e+000 0.000000e+000 0.000000e+000
      outer loop
         vertex 1.000000e+001 0.000000e+000 0.000000e+000
         vertex 1.000000e+001 1.000000e+001 1.000000e+001
         vertex 1.000000e+001 0.000000e+000 1.000000e+001
      endloop
   endfacet
   facet normal 0.000000e+000 0.000000e+000 -1.000000e+000
      outer loop
         vertex 0.000000e+000 1.000000e+001 0.000000e+000
         vertex 1.000000e+001 1.000000e+001 0.000000e+000
         vertex 0.000000e+000 0.000000e+000 0.000000e+000
      endloop
   endfacet
   facet normal 0.000000e+000 0.000000e+000 -1.000000e+000
      outer loop
         vertex 0.000000e+000 0.000000e+000 0.000000e+000
         vertex 1.000000e+001 1.000000e+001 0.000000e+000
         vertex 1.000000e+001 0.000000e+000 0.000000e+000
      endloop
   endfacet
   facet normal 0.000000e+000 1.000000e+000 0.000000e+000
      outer loop
         vertex 1.000000e+001 1.000000e+001 1.000000e+001
         vertex 1.000000e+001 1.000000e+001 0.000000e+000
         vertex 0.000000e+000 1.000000e+001 1.000000e+001
      endloop
   endfacet
   facet normal 0.000000e+000 1.000000e+000 0.000000e+000
      outer loop
         vertex 0.000000e+000 1.000000e+001 1.000000e+001
         vertex 1.000000e+001 1.000000e+001 0.000000e+000
         vertex 0.000000e+000 1.000000e+001 0.000000e+000
      endloop
   endfacet
   facet normal 0.000000e+000 -1.000000e+000 0.000000e+000
      outer loop
         vertex 1.000000e+001 0.000000e+000 0.000000e+000
         vertex 1.000000e+001 0.000000e+000 1.000000e+001
         vertex 0.000000e+000 0.000000e+000 0.000000e+000
      endloop
   endfacet
   facet normal 0.000000e+000 -1.000000e+000 0.000000e+000
      outer loop
         vertex 0.000000e+000 0.000000e+000 0.000000e+000
         vertex 1.000000e+001 0.000000e+000 1.000000e+001
         vertex 0.000000e+000 0.000000e+000 1.000000e+001
      endloop
   endfacet
   facet normal 8.660254e-001 -5.000000e-001 0.000000e+000
      outer loop
         vertex 5.622577e-001 4.977860e+000 2.962516e+000
         vertex 2.772496e+000 8.806107e+000 2.962516e+000
         vertex 5.622577e-001 4.977860e+000 1.000000e+001
      endloop
   endfacet
   facet normal 8.660254e-001 -5.000000e-001 0.000000e+000
      outer loop
         vertex 5.622577e-001 4.977860e+000 1.000000e+001
         vertex 2.772496e+000 8.806107e+000 2.962516e+000
         vertex 2.772496e+000 8.806107e+000 1.000000e+001
      endloop
   endfacet
   facet normal 1.020315e-014 -1.000000e+000 0.000000e+000
      outer loop
         vertex 2.772496e+000 8.806107e+000 2.962516e+000
         vertex 7.192974e+000 8.806107e+000 2.962516e+000
         vertex 2.772496e+000 8.806107e+000 1.000000e+001
      endloop
   endfacet
   facet normal 1.020315e-014 -1.000000e+000 0.000000e+000
      outer loop
         vertex 2.772496e+000 8.806107e+000 1.000000e+001
         vertex 7.192974e+000 8.806107e+000 2.962516e+000
         vertex 7.192974e+000 8.806107e+000 1.000000e+001
      endloop
   endfacet
   facet normal -8.660254e-001 -5.000000e-001 0.000000e+000
      outer loop
         vertex 7.192974e+000 8.806107e+000 2.962516e+000
         vertex 9.403212e+000 4.977860e+000 2.962516e+000
         vertex 7.192974e+000 8.806107e+000 1.000000e+001
      endloop
   endfacet
   facet normal -8.660254e-001 -5.000000e-001 0.000000e+000
      outer loop
         vertex 7.192974e+000 8.806107e+000 1.000000e+001
         vertex 9.403212e+000 4.977860e+000 2.962516e+000
         vertex 9.403212e+000 4.977860e+000 1.000000e+001
      endloop
   endfacet
   facet normal -8.660254e-001 5.000000e-001 0.000000e+000
      outer loop
         vertex 9.403212e+000 4.977860e+000 2.962516e+000
         vertex 7.192974e+000 1.149615e+000 2.962516e+000
         vertex 9.403212e+000 4.977860e+000 1.000000e+001
      endloop
   endfacet
   facet normal -8.660254e-001 5.000000e-001 0.000000e+000
      outer loop
         vertex 9.403212e+000 4.977860e+000 1.000000e+001
         vertex 7.192974e+000 1.149615e+000 2.962516e+000
         vertex 7.192974e+000 1.149615e+000 1.000000e+001
      endloop
   endfacet
   facet normal -3.531861e-015 1.000000e+000 0.000000e+000
      outer loop
         vertex 7.192974e+000 1.149615e+000 2.962516e+000
         vertex 2.772496e+000 1.149615e+000 2.962516e+000
         vertex 7.192974e+000 1.149615e+000 1.000000e+001
      endloop
   endfacet
   facet normal -3.531861e-015 1.000000e+000 0.000000e+000
      outer loop
         vertex 7.192974e+000 1.149615e+000 1.000000e+001
         vertex 2.772496e+000 1.149615e+000 2.962516e+000
         vertex 2.772496e+000 1.149615e+000 1.000000e+001
      endloop
   endfacet
   facet normal 8.660254e-001 5.000000e-001 0.000000e+000
      outer loop
         vertex 2.772496e+000 1.149615e+000 2.962516e+000
         vertex 5.622577e-001 4.977860e+000 2.962516e+000
         vertex 2.772496e+000 1.149615e+000 1.000000e+001
      endloop
   endfacet
   facet normal 8.660254e-001 5.000000e-001 0.000000e+000
      outer loop
         vertex 2.772496e+000 1.149615e+000 1.000000e+001
         vertex 5.622577e-001 4.977860e+000 2.962516e+000
         vertex 5.622577e-001 4.977860e+000 1.000000e+001
      endloop
   endfacet
   facet normal 0.000000e+000 0.000000e+000 1.000000e+000
      outer loop
         vertex 2.772496e+000 1.149615e+000 2.962516e+000
         vertex 7.192974e+000 1.149615e+000 2.962516e+000
         vertex 5.622577e-001 4.977860e+000 2.962516e+000
      endloop
   endfacet
   facet normal 0.000000e+000 0.000000e+000 1.000000e+000
      outer loop
         vertex 5.622577e-001 4.977860e+000 2.962516e+000
         vertex 7.192974e+000 1.149615e+000 2.962516e+000
         vertex 9.403212e+000 4.977860e+000 2.962516e+000
      endloop
   endfacet
   facet normal 0.000000e+000 0.000000e+000 1.000000e+000
      outer loop
         vertex 5.622577e-001 4.977860e+000 2.962516e+000
         vertex 9.403212e+000 4.977860e+000 2.962516e+000
         vertex 2.772496e+000 8.806107e+000 2.962516e+000
      endloop
   endfacet
   facet normal 0.000000e+000 0.000000e+000 1.000000e+000
      outer loop
         vertex 2.772496e+000 8.806107e+000 2.962516e+000
         vertex 9.403212e+000 4.977860e+000 2.962516e+000
         vertex 7.192974e+000 8.806107e+000 2.962516e+000
      endloop
   endfacet
endsolid