solid 23_742
   facet normal -1.000000e+000 0.000000e+000 0.000000e+000
      outer loop
         vertex 0.000000e+000 1.000000e+001 1.000000e+001
         vertex 0.000000e+000 1.000000e+001 0.000000e+000
         vertex 0.000000e+000 0.000000e+000 1.000000e+001
      endloop
   endfacet
   facet normal -1.000000e+000 0.000000e+000 0.000000e+000
      outer loop
         vertex 0.000000e+000 0.000000e+000 1.000000e+001
         vertex 0.000000e+000 1.000000e+001 0.000000e+000
         vertex 0.000000e+000 0.000000e+000 0.000000e+000
      endloop
   endfacet
   facet normal 0.000000e+000 0.000000e+000 1.000000e+000
      outer loop
         vertex 1.000000e+001 1.000000e+001 1.000000e+001
         vertex 9.082684e+000 4.638710e+000 1.000000e+001
         vertex 1.000000e+001 0.000000e+000 1.000000e+001
      endloop
   endfacet
   facet normal 0.000000e+000 0.000000e+000 1.000000e+000
      outer loop
         vertex 1.000000e+001 0.000000e+000 1.000000e+001
         vertex 9.082684e+000 4.638710e+000 1.000000e+001
         vertex 7.421600e+000 1.761629e+000 1.000000e+001
      endloop
   endfacet
   facet normal 0.000000e+000 0.000000e+000 1.000000e+000
      outer loop
         vertex 1.000000e+001 0.000000e+000 1.000000e+001
         vertex 7.421600e+000 1.761629e+000 1.000000e+001
         vertex 0.000000e+000 0.000000e+000 1.000000e+001
      endloop
   endfacet
   facet normal 0.000000e+000 0.000000e+000 1.000000e+000
      outer loop
         vertex 7.421600e+000 1.761629e+000 1.000000e+001
         vertex 4.099433e+000 1.761629e+000 1.000000e+001
         vertex 0.000000e+000 0.000000e+000 1.000000e+001
      endloop
   endfacet
   facet normal 0.000000e+000 0.000000e+000 1.000000e+000
      outer loop
         vertex 0.000000e+000 0.000000e+000 1.000000e+001
         vertex 4.099433e+000 1.761629e+000 1.000000e+001
         vertex 2.438350e+000 4.638710e+000 1.000000e+001
      endloop
   endfacet
   facet normal 0.000000e+000 0.000000e+000 1.000000e+000
      outer loop
         vertex 0.000000e+000 0.000000e+000 1.000000e+001
         vertex 2.438350e+000 4.638710e+000 1.000000e+001
         vertex 0.000000e+000 1.000000e+001 1.000000e+001
      endloop
   endfacet
   facet normal 0.000000e+000 0.000000e+000 1.000000e+000
      outer loop
         vertex 0.000000e+000 1.000000e+001 1.000000e+001
         vertex 2.438350e+000 4.638710e+000 1.000000e+001
         vertex 4.099433e+000 7.515791e+000 1.000000e+001
      endloop
   endfacet
   facet normal 0.000000e+000 0.000000e+000 1.000000e+000
      outer loop
         vertex 0.000000e+000 1.000000e+001 1.000000e+001
         vertex 4.099433e+000 7.515791e+000 1.000000e+001
         vertex 1.000000e+001 1.000000e+001 1.000000e+001
      endloop
   endfacet
   facet normal 0.000000e+000 0.000000e+000 1.000000e+000
      outer loop
         vertex 1.000000e+001 1.000000e+001 1.000000e+001
         vertex 4.099433e+000 7.515791e+000 1.000000e+001
         vertex 7.421600e+000 7.515791e+000 1.000000e+001
      endloop
   endfacet
   facet normal 0.000000e+000 0.000000e+000 1.000000e+000
      outer loop
         vertex 1.000000e+001 1.000000e+001 1.000000e+001
         vertex 7.421600e+000 7.515791e+000 1.000000e+001
         vertex 9.082684e+000 4.638710e+000 1.000000e+001
      endloop
   endfacet
   facet normal 1.000000e+000 0.000000e+000 0.000000e+000
      outer loop
         vertex 1.000000e+001 1.000000e+001 0.000000e+000
         vertex 1.000000e+001 1.000000e+001 1.000000e+001
         vertex 1.000000e+001 0.000000e+000 0.000000e+000
      endloop
   endfacet
   facet normal 1.000000e+000 0.000000e+000 0.000000e+000
      outer loop
         vertex 1.000000e+001 0.000000e+000 0.000000e+000
         vertex 1.000000e+001 1.000000e+001 1.000000e+001
         vertex 1.000000e+001 0.000000e+000 1.000000e+001
      endloop
   endfacet
   facet normal 0.000000e+000 0.000000e+000 -1.000000e+000
      outer loop
         vertex 0.000000e+000 1.000000e+001 0.000000e+000
         vertex 1.000000e+001 1.000000e+001 0.000000e+000
         vertex 0.000000e+000 0.000000e+000 0.000000e+000
      endloop
   endfacet
   facet normal 0.000000e+000 0.000000e+000 -1.000000e+000
      outer loop
         vertex 0.000000e+000 0.000000e+000 0.000000e+000
         vertex 1.000000e+001 1.000000e+001 0.000000e+000
         vertex 1.000000e+001 0.000000e+000 0.000000e+000
      endloop
   endfacet
   facet normal 0.000000e+000 1.000000e+000 0.000000e+000
      outer loop
         vertex 1.000000e+001 1.000000e+001 1.000000e+001
         vertex 1.000000e+001 1.000000e+001 0.000000e+000
         vertex 0.000000e+000 1.000000e+001 1.000000e+001
      endloop
   endfacet
   facet normal 0.000000e+000 1.000000e+000 0.000000e+000
      outer loop
         vertex 0.000000e+000 1.000000e+001 1.000000e+001
         vertex 1.000000e+001 1.000000e+001 0.000000e+000
         vertex 0.000000e+000 1.000000e+001 0.000000e+000
      endloop
   endfacet
   facet normal 0.000000e+000 -1.000000e+000 0.000000e+000
      outer loop
         vertex 1.000000e+001 0.000000e+000 0.000000e+000
         vertex 1.000000e+001 0.000000e+000 1.000000e+001
         vertex 0.000000e+000 0.000000e+000 0.000000e+000
      endloop
   endfacet
   facet normal 0.000000e+000 -1.000000e+000 0.000000e+000
      outer loop
         vertex 0.000000e+000 0.000000e+000 0.000000e+000
         vertex 1.000000e+001 0.000000e+000 1.000000e+001
         vertex 0.000000e+000 0.000000e+000 1.000000e+001
      endloop
   endfacet
   facet normal 8.660254e-001 -5.000000e-001 0.000000e+000
      outer loop
         vertex 2.438350e+000 4.638710e+000 3.343186e+000
         vertex 4.099433e+000 7.515791e+000 3.343186e+000
         vertex 2.438350e+000 4.638710e+000 1.000000e+001
      endloop
   endfacet
   facet normal 8.660254e-001 -5.000000e-001 0.000000e+000
      outer loop
         vertex 2.438350e+000 4.638710e+000 1.000000e+001
         vertex 4.099433e+000 7.515791e+000 3.343186e+000
         vertex 4.099433e+000 7.515791e+000 1.000000e+001
      endloop
   endfacet
   facet normal 1.044332e-014 -1.000000e+000 0.000000e+000
      outer loop
         vertex 4.099433e+000 7.515791e+000 3.343186e+000
         vertex 7.421600e+000 7.515791e+000 3.343186e+000
         vertex 4.099433e+000 7.515791e+000 1.000000e+001
      endloop
   endfacet
   facet normal 1.044332e-014 -1.000000e+000 0.000000e+000
      outer loop
         vertex 4.099433e+000 7.515791e+000 1.000000e+001
         vertex 7.421600e+000 7.515791e+000 3.343186e+000
         vertex 7.421600e+000 7.515791e+000 1.000000e+001
      endloop
   endfacet
   facet normal -8.660254e-001 -5.000000e-001 0.000000e+000
      outer loop
         vertex 7.421600e+000 7.515791e+000 3.343186e+000
         vertex 9.082684e+000 4.638710e+000 3.343186e+000
         vertex 7.421600e+000 7.515791e+000 1.000000e+001
      endloop
   endfacet
   facet normal -8.660254e-001 -5.000000e-001 0.000000e+000
      outer loop
         vertex 7.421600e+000 7.515791e+000 1.000000e+001
         vertex 9.082684e+000 4.638710e+000 3.343186e+000
         vertex 9.082684e+000 4.638710e+000 1.000000e+001
      endloop
   endfacet
   facet normal -8.660254e-001 5.000000e-001 0.000000e+000
      outer loop
         vertex 9.082684e+000 4.638710e+000 3.343186e+000
         vertex 7.421600e+000 1.761629e+000 3.343186e+000
         vertex 9.082684e+000 4.638710e+000 1.000000e+001
      endloop
   endfacet
   facet normal -8.660254e-001 5.000000e-001 0.000000e+000
      outer loop
         vertex 9.082684e+000 4.638710e+000 1.000000e+001
         vertex 7.421600e+000 1.761629e+000 3.343186e+000
         vertex 7.421600e+000 1.761629e+000 1.000000e+001
      endloop
   endfacet
   facet normal -3.655164e-015 1.000000e+000 0.000000e+000
      outer loop
         vertex 7.421600e+000 1.761629e+000 3.343186e+000
         vertex 4.099433e+000 1.761629e+000 3.343186e+000
         vertex 7.421600e+000 1.761629e+000 1.000000e+001
      endloop
   endfacet
   facet normal -3.655164e-015 1.000000e+000 0.000000e+000
      outer loop
         vertex 7.421600e+000 1.761629e+000 1.000000e+001
         vertex 4.099433e+000 1.761629e+000 3.343186e+000
         vertex 4.099433e+000 1.761629e+000 1.000000e+001
      endloop
   endfacet
   facet normal 8.660254e-001 5.000000e-001 0.000000e+000
      outer loop
         vertex 4.099433e+000 1.761629e+000 3.343186e+000
         vertex 2.438350e+000 4.638710e+000 3.343186e+000
         vertex 4.099433e+000 1.761629e+000 1.000000e+001
      endloop
   endfacet
   facet normal 8.660254e-001 5.000000e-001 0.000000e+000
      outer loop
         vertex 4.099433e+000 1.761629e+000 1.000000e+001
         vertex 2.438350e+000 4.638710e+000 3.343186e+000
         vertex 2.438350e+000 4.638710e+000 1.000000e+001
      endloop
   endfacet
   facet normal 0.000000e+000 0.000000e+000 1.000000e+000
      outer loop
         vertex 4.099433e+000 1.761629e+000 3.343186e+000
         vertex 7.421600e+000 1.761629e+000 3.343186e+000
         vertex 2.438350e+000 4.638710e+000 3.343186e+000
      endloop
   endfacet
   facet normal 0.000000e+000 0.000000e+000 1.000000e+000
      outer loop
         vertex 2.438350e+000 4.638710e+000 3.343186e+000
         vertex 7.421600e+000 1.761629e+000 3.343186e+000
         vertex 9.082684e+000 4.638710e+000 3.343186e+000
      endloop
   endfacet
   facet normal 0.000000e+000 0.000000e+000 1.000000e+000
      outer loop
         vertex 2.438350e+000 4.638710e+000 3.343186e+000
         vertex 9.082684e+000 4.638710e+000 3.343186e+000
         vertex 4.099433e+000 7.515791e+000 3.343186e+000
      endloop
   endfacet
   facet normal 0.000000e+000 0.000000e+000 1.000000e+000
      outer loop
         vertex 4.099433e+000 7.515791e+000 3.343186e+000
         vertex 9.082684e+000 4.638710e+000 3.343186e+000
         vertex 7.421600e+000 7.515791e+000 3.343186e+000
      endloop
   endfacet
endsolid