solid 5_112
   facet normal 0.000000e+000 0.000000e+000 1.000000e+000
      outer loop
         vertex 2.284911e+000 1.000000e+001 1.000000e+001
         vertex 0.000000e+000 1.000000e+001 1.000000e+001
         vertex 2.284911e+000 0.000000e+000 1.000000e+001
      endloop
   endfacet
   facet normal 0.000000e+000 0.000000e+000 1.000000e+000
      outer loop
         vertex 2.284911e+000 0.000000e+000 1.000000e+001
         vertex 0.000000e+000 1.000000e+001 1.000000e+001
         vertex 0.000000e+000 0.000000e+000 1.000000e+001
      endloop
   endfacet
   facet normal -1.000000e+000 0.000000e+000 0.000000e+000
      outer loop
         vertex 0.000000e+000 1.000000e+001 1.000000e+001
         vertex 0.000000e+000 1.000000e+001 0.000000e+000
         vertex 0.000000e+000 0.000000e+000 1.000000e+001
      endloop
   endfacet
   facet normal -1.000000e+000 0.000000e+000 0.000000e+000
      outer loop
         vertex 0.000000e+000 0.000000e+000 1.000000e+001
         vertex 0.000000e+000 1.000000e+001 0.000000e+000
         vertex 0.000000e+000 0.000000e+000 0.000000e+000
      endloop
   endfacet
   facet normal 0.000000e+000 0.000000e+000 1.000000e+000
      outer loop
         vertex 9.067837e+000 0.000000e+000 1.000000e+001
         vertex 1.000000e+001 0.000000e+000 1.000000e+001
         vertex 9.067837e+000 1.000000e+001 1.000000e+001
      endloop
   endfacet
   facet normal 0.000000e+000 0.000000e+000 1.000000e+000
      outer loop
         vertex 9.067837e+000 1.000000e+001 1.000000e+001
         vertex 1.000000e+001 0.000000e+000 1.000000e+001
         vertex 1.000000e+001 1.000000e+001 1.000000e+001
      endloop
   endfacet
   facet normal 1.000000e+000 0.000000e+000 0.000000e+000
      outer loop
         vertex 1.000000e+001 1.000000e+001 0.000000e+000
         vertex 1.000000e+001 1.000000e+001 1.000000e+001
         vertex 1.000000e+001 0.000000e+000 0.000000e+000
      endloop
   endfacet
   facet normal 1.000000e+000 0.000000e+000 0.000000e+000
      outer loop
         vertex 1.000000e+001 0.000000e+000 0.000000e+000
         vertex 1.000000e+001 1.000000e+001 1.000000e+001
         vertex 1.000000e+001 0.000000e+000 1.000000e+001
      endloop
   endfacet
   facet normal 0.000000e+000 0.000000e+000 -1.000000e+000
      outer loop
         vertex 0.000000e+000 1.000000e+001 0.000000e+000
         vertex 1.000000e+001 1.000000e+001 0.000000e+000
         vertex 0.000000e+000 0.000000e+000 0.000000e+000
      endloop
   endfacet
   facet normal 0.000000e+000 0.000000e+000 -1.000000e+000
      outer loop
         vertex 0.000000e+000 0.000000e+000 0.000000e+000
         vertex 1.000000e+001 1.000000e+001 0.000000e+000
         vertex 1.000000e+001 0.000000e+000 0.000000e+000
      endloop
   endfacet
   facet normal 0.000000e+000 1.000000e+000 0.000000e+000
      outer loop
         vertex 9.036248e+000 1.000000e+001 9.538196e+000
         vertex 9.067837e+000 1.000000e+001 1.000000e+001
         vertex 1.000000e+001 1.000000e+001 1.000000e+001
      endloop
   endfacet
   facet normal 0.000000e+000 1.000000e+000 0.000000e+000
      outer loop
         vertex 7.632164e+000 1.000000e+001 7.229277e+000
         vertex 7.991227e+000 1.000000e+001 7.521397e+000
         vertex 1.000000e+001 1.000000e+001 0.000000e+000
      endloop
   endfacet
   facet normal 0.000000e+000 1.000000e+000 0.000000e+000
      outer loop
         vertex 1.000000e+001 1.000000e+001 0.000000e+000
         vertex 7.991227e+000 1.000000e+001 7.521397e+000
         vertex 8.307170e+000 1.000000e+001 7.859688e+000
      endloop
   endfacet
   facet normal 0.000000e+000 1.000000e+000 0.000000e+000
      outer loop
         vertex 2.284911e+000 1.000000e+001 1.000000e+001
         vertex 2.316499e+000 1.000000e+001 9.538196e+000
         vertex 0.000000e+000 1.000000e+001 1.000000e+001
      endloop
   endfacet
   facet normal 0.000000e+000 1.000000e+000 0.000000e+000
      outer loop
         vertex 0.000000e+000 1.000000e+001 1.000000e+001
         vertex 2.316499e+000 1.000000e+001 9.538196e+000
         vertex 2.410675e+000 1.000000e+001 9.084994e+000
      endloop
   endfacet
   facet normal 0.000000e+000 1.000000e+000 0.000000e+000
      outer loop
         vertex 0.000000e+000 1.000000e+001 1.000000e+001
         vertex 2.410675e+000 1.000000e+001 9.084994e+000
         vertex 0.000000e+000 1.000000e+001 0.000000e+000
      endloop
   endfacet
   facet normal 0.000000e+000 1.000000e+000 0.000000e+000
      outer loop
         vertex 0.000000e+000 1.000000e+001 0.000000e+000
         vertex 2.410675e+000 1.000000e+001 9.084994e+000
         vertex 2.565686e+000 1.000000e+001 8.648837e+000
      endloop
   endfacet
   facet normal 0.000000e+000 1.000000e+000 0.000000e+000
      outer loop
         vertex 2.565686e+000 1.000000e+001 8.648837e+000
         vertex 2.778642e+000 1.000000e+001 8.237850e+000
         vertex 0.000000e+000 1.000000e+001 0.000000e+000
      endloop
   endfacet
   facet normal 0.000000e+000 1.000000e+000 0.000000e+000
      outer loop
         vertex 0.000000e+000 1.000000e+001 0.000000e+000
         vertex 2.778642e+000 1.000000e+001 8.237850e+000
         vertex 3.045578e+000 1.000000e+001 7.859688e+000
      endloop
   endfacet
   facet normal 0.000000e+000 1.000000e+000 0.000000e+000
      outer loop
         vertex 0.000000e+000 1.000000e+001 0.000000e+000
         vertex 3.045578e+000 1.000000e+001 7.859688e+000
         vertex 3.361520e+000 1.000000e+001 7.521397e+000
      endloop
   endfacet
   facet normal 0.000000e+000 1.000000e+000 0.000000e+000
      outer loop
         vertex 3.361520e+000 1.000000e+001 7.521397e+000
         vertex 3.720584e+000 1.000000e+001 7.229277e+000
         vertex 0.000000e+000 1.000000e+001 0.000000e+000
      endloop
   endfacet
   facet normal 0.000000e+000 1.000000e+000 0.000000e+000
      outer loop
         vertex 0.000000e+000 1.000000e+001 0.000000e+000
         vertex 3.720584e+000 1.000000e+001 7.229277e+000
         vertex 4.116080e+000 1.000000e+001 6.988770e+000
      endloop
   endfacet
   facet normal 0.000000e+000 1.000000e+000 0.000000e+000
      outer loop
         vertex 0.000000e+000 1.000000e+001 0.000000e+000
         vertex 4.116080e+000 1.000000e+001 6.988770e+000
         vertex 4.540642e+000 1.000000e+001 6.804357e+000
      endloop
   endfacet
   facet normal 0.000000e+000 1.000000e+000 0.000000e+000
      outer loop
         vertex 8.307170e+000 1.000000e+001 7.859688e+000
         vertex 8.574106e+000 1.000000e+001 8.237850e+000
         vertex 1.000000e+001 1.000000e+001 0.000000e+000
      endloop
   endfacet
   facet normal 0.000000e+000 1.000000e+000 0.000000e+000
      outer loop
         vertex 1.000000e+001 1.000000e+001 0.000000e+000
         vertex 8.574106e+000 1.000000e+001 8.237850e+000
         vertex 8.787062e+000 1.000000e+001 8.648837e+000
      endloop
   endfacet
   facet normal 0.000000e+000 1.000000e+000 0.000000e+000
      outer loop
         vertex 1.000000e+001 1.000000e+001 0.000000e+000
         vertex 8.787062e+000 1.000000e+001 8.648837e+000
         vertex 1.000000e+001 1.000000e+001 1.000000e+001
      endloop
   endfacet
   facet normal 0.000000e+000 1.000000e+000 0.000000e+000
      outer loop
         vertex 1.000000e+001 1.000000e+001 1.000000e+001
         vertex 8.787062e+000 1.000000e+001 8.648837e+000
         vertex 8.942072e+000 1.000000e+001 9.084994e+000
      endloop
   endfacet
   facet normal 0.000000e+000 1.000000e+000 0.000000e+000
      outer loop
         vertex 1.000000e+001 1.000000e+001 1.000000e+001
         vertex 8.942072e+000 1.000000e+001 9.084994e+000
         vertex 9.036248e+000 1.000000e+001 9.538196e+000
      endloop
   endfacet
   facet normal 0.000000e+000 1.000000e+000 0.000000e+000
      outer loop
         vertex 4.540642e+000 1.000000e+001 6.804357e+000
         vertex 4.986360e+000 1.000000e+001 6.679472e+000
         vertex 0.000000e+000 1.000000e+001 0.000000e+000
      endloop
   endfacet
   facet normal 0.000000e+000 1.000000e+000 0.000000e+000
      outer loop
         vertex 0.000000e+000 1.000000e+001 0.000000e+000
         vertex 4.986360e+000 1.000000e+001 6.679472e+000
         vertex 5.444932e+000 1.000000e+001 6.616443e+000
      endloop
   endfacet
   facet normal 0.000000e+000 1.000000e+000 0.000000e+000
      outer loop
         vertex 0.000000e+000 1.000000e+001 0.000000e+000
         vertex 5.444932e+000 1.000000e+001 6.616443e+000
         vertex 1.000000e+001 1.000000e+001 0.000000e+000
      endloop
   endfacet
   facet normal 0.000000e+000 1.000000e+000 0.000000e+000
      outer loop
         vertex 1.000000e+001 1.000000e+001 0.000000e+000
         vertex 5.444932e+000 1.000000e+001 6.616443e+000
         vertex 5.907815e+000 1.000000e+001 6.616443e+000
      endloop
   endfacet
   facet normal 0.000000e+000 1.000000e+000 0.000000e+000
      outer loop
         vertex 1.000000e+001 1.000000e+001 0.000000e+000
         vertex 5.907815e+000 1.000000e+001 6.616443e+000
         vertex 6.366387e+000 1.000000e+001 6.679472e+000
      endloop
   endfacet
   facet normal 0.000000e+000 1.000000e+000 0.000000e+000
      outer loop
         vertex 6.366387e+000 1.000000e+001 6.679472e+000
         vertex 6.812106e+000 1.000000e+001 6.804357e+000
         vertex 1.000000e+001 1.000000e+001 0.000000e+000
      endloop
   endfacet
   facet normal 0.000000e+000 1.000000e+000 0.000000e+000
      outer loop
         vertex 1.000000e+001 1.000000e+001 0.000000e+000
         vertex 6.812106e+000 1.000000e+001 6.804357e+000
         vertex 7.236668e+000 1.000000e+001 6.988770e+000
      endloop
   endfacet
   facet normal 0.000000e+000 1.000000e+000 0.000000e+000
      outer loop
         vertex 1.000000e+001 1.000000e+001 0.000000e+000
         vertex 7.236668e+000 1.000000e+001 6.988770e+000
         vertex 7.632164e+000 1.000000e+001 7.229277e+000
      endloop
   endfacet
   facet normal 0.000000e+000 -1.000000e+000 0.000000e+000
      outer loop
         vertex 2.316499e+000 0.000000e+000 9.538196e+000
         vertex 2.284911e+000 0.000000e+000 1.000000e+001
         vertex 0.000000e+000 0.000000e+000 1.000000e+001
      endloop
   endfacet
   facet normal 0.000000e+000 -1.000000e+000 0.000000e+000
      outer loop
         vertex 8.307170e+000 0.000000e+000 7.859688e+000
         vertex 7.991227e+000 0.000000e+000 7.521397e+000
         vertex 1.000000e+001 0.000000e+000 0.000000e+000
      endloop
   endfacet
   facet normal 0.000000e+000 -1.000000e+000 0.000000e+000
      outer loop
         vertex 8.307170e+000 0.000000e+000 7.859688e+000
         vertex 1.000000e+001 0.000000e+000 0.000000e+000
         vertex 8.574106e+000 0.000000e+000 8.237850e+000
      endloop
   endfacet
   facet normal 0.000000e+000 -1.000000e+000 0.000000e+000
      outer loop
         vertex 4.986360e+000 0.000000e+000 6.679472e+000
         vertex 4.540642e+000 0.000000e+000 6.804357e+000
         vertex 0.000000e+000 0.000000e+000 0.000000e+000
      endloop
   endfacet
   facet normal 0.000000e+000 -1.000000e+000 0.000000e+000
      outer loop
         vertex 0.000000e+000 0.000000e+000 0.000000e+000
         vertex 4.540642e+000 0.000000e+000 6.804357e+000
         vertex 4.116080e+000 0.000000e+000 6.988770e+000
      endloop
   endfacet
   facet normal 0.000000e+000 -1.000000e+000 0.000000e+000
      outer loop
         vertex 4.116080e+000 0.000000e+000 6.988770e+000
         vertex 3.720584e+000 0.000000e+000 7.229277e+000
         vertex 0.000000e+000 0.000000e+000 0.000000e+000
      endloop
   endfacet
   facet normal 0.000000e+000 -1.000000e+000 0.000000e+000
      outer loop
         vertex 0.000000e+000 0.000000e+000 0.000000e+000
         vertex 3.720584e+000 0.000000e+000 7.229277e+000
         vertex 3.361520e+000 0.000000e+000 7.521397e+000
      endloop
   endfacet
   facet normal 0.000000e+000 -1.000000e+000 0.000000e+000
      outer loop
         vertex 0.000000e+000 0.000000e+000 0.000000e+000
         vertex 3.361520e+000 0.000000e+000 7.521397e+000
         vertex 3.045578e+000 0.000000e+000 7.859688e+000
      endloop
   endfacet
   facet normal 0.000000e+000 -1.000000e+000 0.000000e+000
      outer loop
         vertex 9.067837e+000 0.000000e+000 1.000000e+001
         vertex 9.036248e+000 0.000000e+000 9.538196e+000
         vertex 1.000000e+001 0.000000e+000 1.000000e+001
      endloop
   endfacet
   facet normal 0.000000e+000 -1.000000e+000 0.000000e+000
      outer loop
         vertex 1.000000e+001 0.000000e+000 1.000000e+001
         vertex 9.036248e+000 0.000000e+000 9.538196e+000
         vertex 8.942072e+000 0.000000e+000 9.084994e+000
      endloop
   endfacet
   facet normal 0.000000e+000 -1.000000e+000 0.000000e+000
      outer loop
         vertex 1.000000e+001 0.000000e+000 1.000000e+001
         vertex 8.942072e+000 0.000000e+000 9.084994e+000
         vertex 1.000000e+001 0.000000e+000 0.000000e+000
      endloop
   endfacet
   facet normal 0.000000e+000 -1.000000e+000 0.000000e+000
      outer loop
         vertex 1.000000e+001 0.000000e+000 0.000000e+000
         vertex 8.942072e+000 0.000000e+000 9.084994e+000
         vertex 8.787062e+000 0.000000e+000 8.648837e+000
      endloop
   endfacet
   facet normal 0.000000e+000 -1.000000e+000 0.000000e+000
      outer loop
         vertex 1.000000e+001 0.000000e+000 0.000000e+000
         vertex 8.787062e+000 0.000000e+000 8.648837e+000
         vertex 8.574106e+000 0.000000e+000 8.237850e+000
      endloop
   endfacet
   facet normal 0.000000e+000 -1.000000e+000 0.000000e+000
      outer loop
         vertex 7.991227e+000 0.000000e+000 7.521397e+000
         vertex 7.632164e+000 0.000000e+000 7.229277e+000
         vertex 1.000000e+001 0.000000e+000 0.000000e+000
      endloop
   endfacet
   facet normal 0.000000e+000 -1.000000e+000 0.000000e+000
      outer loop
         vertex 1.000000e+001 0.000000e+000 0.000000e+000
         vertex 7.632164e+000 0.000000e+000 7.229277e+000
         vertex 7.236668e+000 0.000000e+000 6.988770e+000
      endloop
   endfacet
   facet normal 0.000000e+000 -1.000000e+000 0.000000e+000
      outer loop
         vertex 1.000000e+001 0.000000e+000 0.000000e+000
         vertex 7.236668e+000 0.000000e+000 6.988770e+000
         vertex 6.812106e+000 0.000000e+000 6.804357e+000
      endloop
   endfacet
   facet normal 0.000000e+000 -1.000000e+000 0.000000e+000
      outer loop
         vertex 6.812106e+000 0.000000e+000 6.804357e+000
         vertex 6.366387e+000 0.000000e+000 6.679472e+000
         vertex 1.000000e+001 0.000000e+000 0.000000e+000
      endloop
   endfacet
   facet normal 0.000000e+000 -1.000000e+000 0.000000e+000
      outer loop
         vertex 1.000000e+001 0.000000e+000 0.000000e+000
         vertex 6.366387e+000 0.000000e+000 6.679472e+000
         vertex 5.907815e+000 0.000000e+000 6.616443e+000
      endloop
   endfacet
   facet normal 0.000000e+000 -1.000000e+000 0.000000e+000
      outer loop
         vertex 1.000000e+001 0.000000e+000 0.000000e+000
         vertex 5.907815e+000 0.000000e+000 6.616443e+000
         vertex 0.000000e+000 0.000000e+000 0.000000e+000
      endloop
   endfacet
   facet normal 0.000000e+000 -1.000000e+000 0.000000e+000
      outer loop
         vertex 0.000000e+000 0.000000e+000 0.000000e+000
         vertex 5.907815e+000 0.000000e+000 6.616443e+000
         vertex 5.444932e+000 0.000000e+000 6.616443e+000
      endloop
   endfacet
   facet normal 0.000000e+000 -1.000000e+000 0.000000e+000
      outer loop
         vertex 0.000000e+000 0.000000e+000 0.000000e+000
         vertex 5.444932e+000 0.000000e+000 6.616443e+000
         vertex 4.986360e+000 0.000000e+000 6.679472e+000
      endloop
   endfacet
   facet normal 0.000000e+000 -1.000000e+000 0.000000e+000
      outer loop
         vertex 3.045578e+000 0.000000e+000 7.859688e+000
         vertex 2.778642e+000 0.000000e+000 8.237850e+000
         vertex 0.000000e+000 0.000000e+000 0.000000e+000
      endloop
   endfacet
   facet normal 0.000000e+000 -1.000000e+000 0.000000e+000
      outer loop
         vertex 0.000000e+000 0.000000e+000 0.000000e+000
         vertex 2.778642e+000 0.000000e+000 8.237850e+000
         vertex 2.565686e+000 0.000000e+000 8.648837e+000
      endloop
   endfacet
   facet normal 0.000000e+000 -1.000000e+000 0.000000e+000
      outer loop
         vertex 0.000000e+000 0.000000e+000 0.000000e+000
         vertex 2.565686e+000 0.000000e+000 8.648837e+000
         vertex 0.000000e+000 0.000000e+000 1.000000e+001
      endloop
   endfacet
   facet normal 0.000000e+000 -1.000000e+000 0.000000e+000
      outer loop
         vertex 0.000000e+000 0.000000e+000 1.000000e+001
         vertex 2.565686e+000 0.000000e+000 8.648837e+000
         vertex 2.410675e+000 0.000000e+000 9.084994e+000
      endloop
   endfacet
   facet normal 0.000000e+000 -1.000000e+000 0.000000e+000
      outer loop
         vertex 0.000000e+000 0.000000e+000 1.000000e+001
         vertex 2.410675e+000 0.000000e+000 9.084994e+000
         vertex 2.316499e+000 0.000000e+000 9.538196e+000
      endloop
   endfacet
   facet normal -9.989651e-001 0.000000e+000 4.548312e-002
      outer loop
         vertex 9.067837e+000 0.000000e+000 1.000000e+001
         vertex 9.067837e+000 1.000000e+001 1.000000e+001
         vertex 9.036248e+000 1.000000e+001 9.538196e+000
      endloop
   endfacet
   facet normal -9.958540e-001 0.000000e+000 9.096624e-002
      outer loop
         vertex 9.067837e+000 0.000000e+000 1.000000e+001
         vertex 9.036248e+000 1.000000e+001 9.538196e+000
         vertex 9.036248e+000 0.000000e+000 9.538196e+000
      endloop
   endfacet
   facet normal -9.834674e-001 0.000000e+000 1.810852e-001
      outer loop
         vertex 9.036248e+000 0.000000e+000 9.538196e+000
         vertex 9.036248e+000 1.000000e+001 9.538196e+000
         vertex 8.942072e+000 1.000000e+001 9.084994e+000
      endloop
   endfacet
   facet normal -9.741920e-001 0.000000e+000 2.257211e-001
      outer loop
         vertex 9.036248e+000 0.000000e+000 9.538196e+000
         vertex 8.942072e+000 1.000000e+001 9.084994e+000
         vertex 8.942072e+000 0.000000e+000 9.084994e+000
      endloop
   endfacet
   facet normal -9.496496e-001 0.000000e+000 3.133141e-001
      outer loop
         vertex 8.942072e+000 0.000000e+000 9.084994e+000
         vertex 8.942072e+000 1.000000e+001 9.084994e+000
         vertex 8.787062e+000 1.000000e+001 8.648837e+000
      endloop
   endfacet
   facet normal -9.343826e-001 0.000000e+000 3.562711e-001
      outer loop
         vertex 8.942072e+000 0.000000e+000 9.084994e+000
         vertex 8.787062e+000 1.000000e+001 8.648837e+000
         vertex 8.787062e+000 0.000000e+000 8.648837e+000
      endloop
   endfacet
   facet normal -8.981416e-001 0.000000e+000 4.397064e-001
      outer loop
         vertex 8.787062e+000 0.000000e+000 8.648837e+000
         vertex 8.787062e+000 1.000000e+001 8.648837e+000
         vertex 8.574106e+000 1.000000e+001 8.237850e+000
      endloop
   endfacet
   facet normal -8.771675e-001 0.000000e+000 4.801845e-001
      outer loop
         vertex 8.787062e+000 0.000000e+000 8.648837e+000
         vertex 8.574106e+000 1.000000e+001 8.237850e+000
         vertex 8.574106e+000 0.000000e+000 8.237850e+000
      endloop
   endfacet
   facet normal -8.299028e-001 0.000000e+000 5.579079e-001
      outer loop
         vertex 8.574106e+000 0.000000e+000 8.237850e+000
         vertex 8.574106e+000 1.000000e+001 8.237850e+000
         vertex 8.307170e+000 1.000000e+001 7.859688e+000
      endloop
   endfacet
   facet normal -8.036124e-001 0.000000e+000 5.951531e-001
      outer loop
         vertex 8.574106e+000 0.000000e+000 8.237850e+000
         vertex 8.307170e+000 1.000000e+001 7.859688e+000
         vertex 8.307170e+000 0.000000e+000 7.859688e+000
      endloop
   endfacet
   facet normal -7.462047e-001 0.000000e+000 6.657166e-001
      outer loop
         vertex 8.307170e+000 0.000000e+000 7.859688e+000
         vertex 8.307170e+000 1.000000e+001 7.859688e+000
         vertex 7.991227e+000 1.000000e+001 7.521397e+000
      endloop
   endfacet
   facet normal -7.150875e-001 0.000000e+000 6.990349e-001
      outer loop
         vertex 8.307170e+000 0.000000e+000 7.859688e+000
         vertex 7.991227e+000 1.000000e+001 7.521397e+000
         vertex 7.991227e+000 0.000000e+000 7.521397e+000
      endloop
   endfacet
   facet normal -6.486061e-001 0.000000e+000 7.611243e-001
      outer loop
         vertex 7.991227e+000 0.000000e+000 7.521397e+000
         vertex 7.991227e+000 1.000000e+001 7.521397e+000
         vertex 7.632164e+000 1.000000e+001 7.229277e+000
      endloop
   endfacet
   facet normal -6.132419e-001 0.000000e+000 7.898952e-001
      outer loop
         vertex 7.991227e+000 0.000000e+000 7.521397e+000
         vertex 7.632164e+000 1.000000e+001 7.229277e+000
         vertex 7.632164e+000 0.000000e+000 7.229277e+000
      endloop
   endfacet
   facet normal -5.389252e-001 0.000000e+000 8.423536e-001
      outer loop
         vertex 7.632164e+000 0.000000e+000 7.229277e+000
         vertex 7.632164e+000 1.000000e+001 7.229277e+000
         vertex 7.236668e+000 1.000000e+001 6.988770e+000
      endloop
   endfacet
   facet normal -4.999727e-001 0.000000e+000 8.660412e-001
      outer loop
         vertex 7.632164e+000 0.000000e+000 7.229277e+000
         vertex 7.236668e+000 1.000000e+001 6.988770e+000
         vertex 7.236668e+000 0.000000e+000 6.988770e+000
      endloop
   endfacet
   facet normal -4.192051e-001 0.000000e+000 9.078915e-001
      outer loop
         vertex 7.236668e+000 0.000000e+000 6.988770e+000
         vertex 7.236668e+000 1.000000e+001 6.988770e+000
         vertex 6.812106e+000 1.000000e+001 6.804357e+000
      endloop
   endfacet
   facet normal -3.773901e-001 0.000000e+000 9.260545e-001
      outer loop
         vertex 7.236668e+000 0.000000e+000 6.988770e+000
         vertex 6.812106e+000 1.000000e+001 6.804357e+000
         vertex 6.812106e+000 0.000000e+000 6.804357e+000
      endloop
   endfacet
   facet normal -2.916761e-001 0.000000e+000 9.565172e-001
      outer loop
         vertex 6.812106e+000 0.000000e+000 6.804357e+000
         vertex 6.812106e+000 1.000000e+001 6.804357e+000
         vertex 6.366387e+000 1.000000e+001 6.679472e+000
      endloop
   endfacet
   facet normal -2.477773e-001 0.000000e+000 9.688171e-001
      outer loop
         vertex 6.812106e+000 0.000000e+000 6.804357e+000
         vertex 6.366387e+000 1.000000e+001 6.679472e+000
         vertex 6.366387e+000 0.000000e+000 6.679472e+000
      endloop
   endfacet
   facet normal -1.587137e-001 0.000000e+000 9.873247e-001
      outer loop
         vertex 6.366387e+000 0.000000e+000 6.679472e+000
         vertex 6.366387e+000 1.000000e+001 6.679472e+000
         vertex 5.907815e+000 1.000000e+001 6.616443e+000
      endloop
   endfacet
   facet normal -1.135489e-001 0.000000e+000 9.935324e-001
      outer loop
         vertex 6.366387e+000 0.000000e+000 6.679472e+000
         vertex 5.907815e+000 1.000000e+001 6.616443e+000
         vertex 5.907815e+000 0.000000e+000 6.616443e+000
      endloop
   endfacet
   facet normal -2.279470e-002 0.000000e+000 9.997402e-001
      outer loop
         vertex 5.907815e+000 0.000000e+000 6.616443e+000
         vertex 5.907815e+000 1.000000e+001 6.616443e+000
         vertex 5.444932e+000 1.000000e+001 6.616443e+000
      endloop
   endfacet
   facet normal 2.279470e-002 0.000000e+000 9.997402e-001
      outer loop
         vertex 5.907815e+000 0.000000e+000 6.616443e+000
         vertex 5.444932e+000 1.000000e+001 6.616443e+000
         vertex 5.444932e+000 0.000000e+000 6.616443e+000
      endloop
   endfacet
   facet normal 1.135489e-001 0.000000e+000 9.935324e-001
      outer loop
         vertex 5.444932e+000 0.000000e+000 6.616443e+000
         vertex 5.444932e+000 1.000000e+001 6.616443e+000
         vertex 4.986360e+000 1.000000e+001 6.679472e+000
      endloop
   endfacet
   facet normal 1.587137e-001 0.000000e+000 9.873247e-001
      outer loop
         vertex 5.444932e+000 0.000000e+000 6.616443e+000
         vertex 4.986360e+000 1.000000e+001 6.679472e+000
         vertex 4.986360e+000 0.000000e+000 6.679472e+000
      endloop
   endfacet
   facet normal 2.477773e-001 0.000000e+000 9.688171e-001
      outer loop
         vertex 4.986360e+000 0.000000e+000 6.679472e+000
         vertex 4.986360e+000 1.000000e+001 6.679472e+000
         vertex 4.540642e+000 1.000000e+001 6.804357e+000
      endloop
   endfacet
   facet normal 2.916761e-001 0.000000e+000 9.565172e-001
      outer loop
         vertex 4.986360e+000 0.000000e+000 6.679472e+000
         vertex 4.540642e+000 1.000000e+001 6.804357e+000
         vertex 4.540642e+000 0.000000e+000 6.804357e+000
      endloop
   endfacet
   facet normal 3.773901e-001 0.000000e+000 9.260545e-001
      outer loop
         vertex 4.540642e+000 0.000000e+000 6.804357e+000
         vertex 4.540642e+000 1.000000e+001 6.804357e+000
         vertex 4.116080e+000 1.000000e+001 6.988770e+000
      endloop
   endfacet
   facet normal 4.192051e-001 0.000000e+000 9.078915e-001
      outer loop
         vertex 4.540642e+000 0.000000e+000 6.804357e+000
         vertex 4.116080e+000 1.000000e+001 6.988770e+000
         vertex 4.116080e+000 0.000000e+000 6.988770e+000
      endloop
   endfacet
   facet normal 4.999727e-001 0.000000e+000 8.660411e-001
      outer loop
         vertex 4.116080e+000 0.000000e+000 6.988770e+000
         vertex 4.116080e+000 1.000000e+001 6.988770e+000
         vertex 3.720584e+000 1.000000e+001 7.229277e+000
      endloop
   endfacet
   facet normal 5.389252e-001 0.000000e+000 8.423536e-001
      outer loop
         vertex 4.116080e+000 0.000000e+000 6.988770e+000
         vertex 3.720584e+000 1.000000e+001 7.229277e+000
         vertex 3.720584e+000 0.000000e+000 7.229277e+000
      endloop
   endfacet
   facet normal 6.132419e-001 0.000000e+000 7.898952e-001
      outer loop
         vertex 3.720584e+000 0.000000e+000 7.229277e+000
         vertex 3.720584e+000 1.000000e+001 7.229277e+000
         vertex 3.361520e+000 1.000000e+001 7.521397e+000
      endloop
   endfacet
   facet normal 6.486061e-001 0.000000e+000 7.611243e-001
      outer loop
         vertex 3.720584e+000 0.000000e+000 7.229277e+000
         vertex 3.361520e+000 1.000000e+001 7.521397e+000
         vertex 3.361520e+000 0.000000e+000 7.521397e+000
      endloop
   endfacet
   facet normal 7.150875e-001 0.000000e+000 6.990349e-001
      outer loop
         vertex 3.361520e+000 0.000000e+000 7.521397e+000
         vertex 3.361520e+000 1.000000e+001 7.521397e+000
         vertex 3.045578e+000 1.000000e+001 7.859688e+000
      endloop
   endfacet
   facet normal 7.462047e-001 0.000000e+000 6.657166e-001
      outer loop
         vertex 3.361520e+000 0.000000e+000 7.521397e+000
         vertex 3.045578e+000 1.000000e+001 7.859688e+000
         vertex 3.045578e+000 0.000000e+000 7.859688e+000
      endloop
   endfacet
   facet normal 8.036124e-001 0.000000e+000 5.951530e-001
      outer loop
         vertex 3.045578e+000 0.000000e+000 7.859688e+000
         vertex 3.045578e+000 1.000000e+001 7.859688e+000
         vertex 2.778642e+000 1.000000e+001 8.237850e+000
      endloop
   endfacet
   facet normal 8.299029e-001 0.000000e+000 5.579079e-001
      outer loop
         vertex 3.045578e+000 0.000000e+000 7.859688e+000
         vertex 2.778642e+000 1.000000e+001 8.237850e+000
         vertex 2.778642e+000 0.000000e+000 8.237850e+000
      endloop
   endfacet
   facet normal 8.771675e-001 0.000000e+000 4.801846e-001
      outer loop
         vertex 2.778642e+000 0.000000e+000 8.237850e+000
         vertex 2.778642e+000 1.000000e+001 8.237850e+000
         vertex 2.565686e+000 1.000000e+001 8.648837e+000
      endloop
   endfacet
   facet normal 8.981416e-001 0.000000e+000 4.397064e-001
      outer loop
         vertex 2.778642e+000 0.000000e+000 8.237850e+000
         vertex 2.565686e+000 1.000000e+001 8.648837e+000
         vertex 2.565686e+000 0.000000e+000 8.648837e+000
      endloop
   endfacet
   facet normal 9.343826e-001 0.000000e+000 3.562711e-001
      outer loop
         vertex 2.565686e+000 0.000000e+000 8.648837e+000
         vertex 2.565686e+000 1.000000e+001 8.648837e+000
         vertex 2.410675e+000 1.000000e+001 9.084994e+000
      endloop
   endfacet
   facet normal 9.496496e-001 0.000000e+000 3.133141e-001
      outer loop
         vertex 2.565686e+000 0.000000e+000 8.648837e+000
         vertex 2.410675e+000 1.000000e+001 9.084994e+000
         vertex 2.410675e+000 0.000000e+000 9.084994e+000
      endloop
   endfacet
   facet normal 9.741920e-001 0.000000e+000 2.257211e-001
      outer loop
         vertex 2.410675e+000 0.000000e+000 9.084994e+000
         vertex 2.410675e+000 1.000000e+001 9.084994e+000
         vertex 2.316499e+000 1.000000e+001 9.538196e+000
      endloop
   endfacet
   facet normal 9.834674e-001 0.000000e+000 1.810852e-001
      outer loop
         vertex 2.410675e+000 0.000000e+000 9.084994e+000
         vertex 2.316499e+000 1.000000e+001 9.538196e+000
         vertex 2.316499e+000 0.000000e+000 9.538196e+000
      endloop
   endfacet
   facet normal 9.958540e-001 0.000000e+000 9.096624e-002
      outer loop
         vertex 2.316499e+000 0.000000e+000 9.538196e+000
         vertex 2.316499e+000 1.000000e+001 9.538196e+000
         vertex 2.284911e+000 1.000000e+001 1.000000e+001
      endloop
   endfacet
   facet normal 9.989651e-001 0.000000e+000 4.548312e-002
      outer loop
         vertex 2.316499e+000 0.000000e+000 9.538196e+000
         vertex 2.284911e+000 1.000000e+001 1.000000e+001
         vertex 2.284911e+000 0.000000e+000 1.000000e+001
      endloop
   endfacet
endsolid