solid 5_229
   facet normal 0.000000e+000 0.000000e+000 1.000000e+000
      outer loop
         vertex 2.463162e+000 1.000000e+001 1.000000e+001
         vertex 0.000000e+000 1.000000e+001 1.000000e+001
         vertex 2.463162e+000 0.000000e+000 1.000000e+001
      endloop
   endfacet
   facet normal 0.000000e+000 0.000000e+000 1.000000e+000
      outer loop
         vertex 2.463162e+000 0.000000e+000 1.000000e+001
         vertex 0.000000e+000 1.000000e+001 1.000000e+001
         vertex 0.000000e+000 0.000000e+000 1.000000e+001
      endloop
   endfacet
   facet normal -1.000000e+000 0.000000e+000 0.000000e+000
      outer loop
         vertex 0.000000e+000 1.000000e+001 1.000000e+001
         vertex 0.000000e+000 1.000000e+001 0.000000e+000
         vertex 0.000000e+000 0.000000e+000 1.000000e+001
      endloop
   endfacet
   facet normal -1.000000e+000 0.000000e+000 0.000000e+000
      outer loop
         vertex 0.000000e+000 0.000000e+000 1.000000e+001
         vertex 0.000000e+000 1.000000e+001 0.000000e+000
         vertex 0.000000e+000 0.000000e+000 0.000000e+000
      endloop
   endfacet
   facet normal 0.000000e+000 0.000000e+000 1.000000e+000
      outer loop
         vertex 5.258517e+000 0.000000e+000 1.000000e+001
         vertex 1.000000e+001 0.000000e+000 1.000000e+001
         vertex 5.258517e+000 1.000000e+001 1.000000e+001
      endloop
   endfacet
   facet normal 0.000000e+000 0.000000e+000 1.000000e+000
      outer loop
         vertex 5.258517e+000 1.000000e+001 1.000000e+001
         vertex 1.000000e+001 0.000000e+000 1.000000e+001
         vertex 1.000000e+001 1.000000e+001 1.000000e+001
      endloop
   endfacet
   facet normal 1.000000e+000 0.000000e+000 0.000000e+000
      outer loop
         vertex 1.000000e+001 1.000000e+001 0.000000e+000
         vertex 1.000000e+001 1.000000e+001 1.000000e+001
         vertex 1.000000e+001 0.000000e+000 0.000000e+000
      endloop
   endfacet
   facet normal 1.000000e+000 0.000000e+000 0.000000e+000
      outer loop
         vertex 1.000000e+001 0.000000e+000 0.000000e+000
         vertex 1.000000e+001 1.000000e+001 1.000000e+001
         vertex 1.000000e+001 0.000000e+000 1.000000e+001
      endloop
   endfacet
   facet normal 0.000000e+000 0.000000e+000 -1.000000e+000
      outer loop
         vertex 0.000000e+000 1.000000e+001 0.000000e+000
         vertex 1.000000e+001 1.000000e+001 0.000000e+000
         vertex 0.000000e+000 0.000000e+000 0.000000e+000
      endloop
   endfacet
   facet normal 0.000000e+000 0.000000e+000 -1.000000e+000
      outer loop
         vertex 0.000000e+000 0.000000e+000 0.000000e+000
         vertex 1.000000e+001 1.000000e+001 0.000000e+000
         vertex 1.000000e+001 0.000000e+000 0.000000e+000
      endloop
   endfacet
   facet normal 0.000000e+000 1.000000e+000 0.000000e+000
      outer loop
         vertex 5.258517e+000 1.000000e+001 1.000000e+001
         vertex 1.000000e+001 1.000000e+001 1.000000e+001
         vertex 5.237284e+000 1.000000e+001 9.757296e+000
      endloop
   endfacet
   facet normal 0.000000e+000 1.000000e+000 0.000000e+000
      outer loop
         vertex 5.237284e+000 1.000000e+001 9.757296e+000
         vertex 1.000000e+001 1.000000e+001 1.000000e+001
         vertex 5.174227e+000 1.000000e+001 9.521966e+000
      endloop
   endfacet
   facet normal 0.000000e+000 1.000000e+000 0.000000e+000
      outer loop
         vertex 2.790156e+000 1.000000e+001 9.101590e+000
         vertex 2.962430e+000 1.000000e+001 8.929316e+000
         vertex 0.000000e+000 1.000000e+001 0.000000e+000
      endloop
   endfacet
   facet normal 0.000000e+000 1.000000e+000 0.000000e+000
      outer loop
         vertex 0.000000e+000 1.000000e+001 0.000000e+000
         vertex 2.962430e+000 1.000000e+001 8.929316e+000
         vertex 3.162001e+000 1.000000e+001 8.789575e+000
      endloop
   endfacet
   facet normal 0.000000e+000 1.000000e+000 0.000000e+000
      outer loop
         vertex 0.000000e+000 1.000000e+001 0.000000e+000
         vertex 3.162001e+000 1.000000e+001 8.789575e+000
         vertex 3.382806e+000 1.000000e+001 8.686612e+000
      endloop
   endfacet
   facet normal 0.000000e+000 1.000000e+000 0.000000e+000
      outer loop
         vertex 5.174227e+000 1.000000e+001 9.521966e+000
         vertex 1.000000e+001 1.000000e+001 1.000000e+001
         vertex 5.071264e+000 1.000000e+001 9.301161e+000
      endloop
   endfacet
   facet normal 0.000000e+000 1.000000e+000 0.000000e+000
      outer loop
         vertex 5.071264e+000 1.000000e+001 9.301161e+000
         vertex 1.000000e+001 1.000000e+001 1.000000e+001
         vertex 1.000000e+001 1.000000e+001 0.000000e+000
      endloop
   endfacet
   facet normal 0.000000e+000 1.000000e+000 0.000000e+000
      outer loop
         vertex 5.071264e+000 1.000000e+001 9.301161e+000
         vertex 1.000000e+001 1.000000e+001 0.000000e+000
         vertex 4.931523e+000 1.000000e+001 9.101590e+000
      endloop
   endfacet
   facet normal 0.000000e+000 1.000000e+000 0.000000e+000
      outer loop
         vertex 4.338873e+000 1.000000e+001 8.686612e+000
         vertex 4.559679e+000 1.000000e+001 8.789575e+000
         vertex 1.000000e+001 1.000000e+001 0.000000e+000
      endloop
   endfacet
   facet normal 0.000000e+000 1.000000e+000 0.000000e+000
      outer loop
         vertex 1.000000e+001 1.000000e+001 0.000000e+000
         vertex 4.559679e+000 1.000000e+001 8.789575e+000
         vertex 4.759249e+000 1.000000e+001 8.929316e+000
      endloop
   endfacet
   facet normal 0.000000e+000 1.000000e+000 0.000000e+000
      outer loop
         vertex 1.000000e+001 1.000000e+001 0.000000e+000
         vertex 4.759249e+000 1.000000e+001 8.929316e+000
         vertex 4.931523e+000 1.000000e+001 9.101590e+000
      endloop
   endfacet
   facet normal 0.000000e+000 1.000000e+000 0.000000e+000
      outer loop
         vertex 2.463162e+000 1.000000e+001 1.000000e+001
         vertex 2.484396e+000 1.000000e+001 9.757296e+000
         vertex 0.000000e+000 1.000000e+001 1.000000e+001
      endloop
   endfacet
   facet normal 0.000000e+000 1.000000e+000 0.000000e+000
      outer loop
         vertex 0.000000e+000 1.000000e+001 1.000000e+001
         vertex 2.484396e+000 1.000000e+001 9.757296e+000
         vertex 2.547452e+000 1.000000e+001 9.521966e+000
      endloop
   endfacet
   facet normal 0.000000e+000 1.000000e+000 0.000000e+000
      outer loop
         vertex 0.000000e+000 1.000000e+001 1.000000e+001
         vertex 2.547452e+000 1.000000e+001 9.521966e+000
         vertex 0.000000e+000 1.000000e+001 0.000000e+000
      endloop
   endfacet
   facet normal 0.000000e+000 1.000000e+000 0.000000e+000
      outer loop
         vertex 0.000000e+000 1.000000e+001 0.000000e+000
         vertex 2.547452e+000 1.000000e+001 9.521966e+000
         vertex 2.650415e+000 1.000000e+001 9.301161e+000
      endloop
   endfacet
   facet normal 0.000000e+000 1.000000e+000 0.000000e+000
      outer loop
         vertex 0.000000e+000 1.000000e+001 0.000000e+000
         vertex 2.650415e+000 1.000000e+001 9.301161e+000
         vertex 2.790156e+000 1.000000e+001 9.101590e+000
      endloop
   endfacet
   facet normal 0.000000e+000 1.000000e+000 0.000000e+000
      outer loop
         vertex 3.382806e+000 1.000000e+001 8.686612e+000
         vertex 3.618135e+000 1.000000e+001 8.623555e+000
         vertex 0.000000e+000 1.000000e+001 0.000000e+000
      endloop
   endfacet
   facet normal 0.000000e+000 1.000000e+000 0.000000e+000
      outer loop
         vertex 0.000000e+000 1.000000e+001 0.000000e+000
         vertex 3.618135e+000 1.000000e+001 8.623555e+000
         vertex 3.860839e+000 1.000000e+001 8.602322e+000
      endloop
   endfacet
   facet normal 0.000000e+000 1.000000e+000 0.000000e+000
      outer loop
         vertex 0.000000e+000 1.000000e+001 0.000000e+000
         vertex 3.860839e+000 1.000000e+001 8.602322e+000
         vertex 1.000000e+001 1.000000e+001 0.000000e+000
      endloop
   endfacet
   facet normal 0.000000e+000 1.000000e+000 0.000000e+000
      outer loop
         vertex 1.000000e+001 1.000000e+001 0.000000e+000
         vertex 3.860839e+000 1.000000e+001 8.602322e+000
         vertex 4.103544e+000 1.000000e+001 8.623555e+000
      endloop
   endfacet
   facet normal 0.000000e+000 1.000000e+000 0.000000e+000
      outer loop
         vertex 1.000000e+001 1.000000e+001 0.000000e+000
         vertex 4.103544e+000 1.000000e+001 8.623555e+000
         vertex 4.338873e+000 1.000000e+001 8.686612e+000
      endloop
   endfacet
   facet normal 0.000000e+000 -1.000000e+000 0.000000e+000
      outer loop
         vertex 2.484396e+000 0.000000e+000 9.757296e+000
         vertex 2.463162e+000 0.000000e+000 1.000000e+001
         vertex 0.000000e+000 0.000000e+000 1.000000e+001
      endloop
   endfacet
   facet normal 0.000000e+000 -1.000000e+000 0.000000e+000
      outer loop
         vertex 5.258517e+000 0.000000e+000 1.000000e+001
         vertex 5.237284e+000 0.000000e+000 9.757296e+000
         vertex 1.000000e+001 0.000000e+000 1.000000e+001
      endloop
   endfacet
   facet normal 0.000000e+000 -1.000000e+000 0.000000e+000
      outer loop
         vertex 1.000000e+001 0.000000e+000 1.000000e+001
         vertex 5.237284e+000 0.000000e+000 9.757296e+000
         vertex 5.174227e+000 0.000000e+000 9.521966e+000
      endloop
   endfacet
   facet normal 0.000000e+000 -1.000000e+000 0.000000e+000
      outer loop
         vertex 1.000000e+001 0.000000e+000 1.000000e+001
         vertex 5.174227e+000 0.000000e+000 9.521966e+000
         vertex 1.000000e+001 0.000000e+000 0.000000e+000
      endloop
   endfacet
   facet normal 0.000000e+000 -1.000000e+000 0.000000e+000
      outer loop
         vertex 1.000000e+001 0.000000e+000 0.000000e+000
         vertex 5.174227e+000 0.000000e+000 9.521966e+000
         vertex 5.071264e+000 0.000000e+000 9.301161e+000
      endloop
   endfacet
   facet normal 0.000000e+000 -1.000000e+000 0.000000e+000
      outer loop
         vertex 5.071264e+000 0.000000e+000 9.301161e+000
         vertex 4.931523e+000 0.000000e+000 9.101590e+000
         vertex 1.000000e+001 0.000000e+000 0.000000e+000
      endloop
   endfacet
   facet normal 0.000000e+000 -1.000000e+000 0.000000e+000
      outer loop
         vertex 1.000000e+001 0.000000e+000 0.000000e+000
         vertex 4.931523e+000 0.000000e+000 9.101590e+000
         vertex 4.759249e+000 0.000000e+000 8.929316e+000
      endloop
   endfacet
   facet normal 0.000000e+000 -1.000000e+000 0.000000e+000
      outer loop
         vertex 1.000000e+001 0.000000e+000 0.000000e+000
         vertex 4.759249e+000 0.000000e+000 8.929316e+000
         vertex 4.559679e+000 0.000000e+000 8.789575e+000
      endloop
   endfacet
   facet normal 0.000000e+000 -1.000000e+000 0.000000e+000
      outer loop
         vertex 3.618135e+000 0.000000e+000 8.623555e+000
         vertex 3.382806e+000 0.000000e+000 8.686612e+000
         vertex 0.000000e+000 0.000000e+000 0.000000e+000
      endloop
   endfacet
   facet normal 0.000000e+000 -1.000000e+000 0.000000e+000
      outer loop
         vertex 0.000000e+000 0.000000e+000 0.000000e+000
         vertex 3.382806e+000 0.000000e+000 8.686612e+000
         vertex 3.162001e+000 0.000000e+000 8.789575e+000
      endloop
   endfacet
   facet normal 0.000000e+000 -1.000000e+000 0.000000e+000
      outer loop
         vertex 0.000000e+000 0.000000e+000 0.000000e+000
         vertex 3.162001e+000 0.000000e+000 8.789575e+000
         vertex 2.962430e+000 0.000000e+000 8.929316e+000
      endloop
   endfacet
   facet normal 0.000000e+000 -1.000000e+000 0.000000e+000
      outer loop
         vertex 4.559679e+000 0.000000e+000 8.789575e+000
         vertex 4.338873e+000 0.000000e+000 8.686612e+000
         vertex 1.000000e+001 0.000000e+000 0.000000e+000
      endloop
   endfacet
   facet normal 0.000000e+000 -1.000000e+000 0.000000e+000
      outer loop
         vertex 1.000000e+001 0.000000e+000 0.000000e+000
         vertex 4.338873e+000 0.000000e+000 8.686612e+000
         vertex 4.103544e+000 0.000000e+000 8.623555e+000
      endloop
   endfacet
   facet normal 0.000000e+000 -1.000000e+000 0.000000e+000
      outer loop
         vertex 1.000000e+001 0.000000e+000 0.000000e+000
         vertex 4.103544e+000 0.000000e+000 8.623555e+000
         vertex 0.000000e+000 0.000000e+000 0.000000e+000
      endloop
   endfacet
   facet normal 0.000000e+000 -1.000000e+000 0.000000e+000
      outer loop
         vertex 0.000000e+000 0.000000e+000 0.000000e+000
         vertex 4.103544e+000 0.000000e+000 8.623555e+000
         vertex 3.860839e+000 0.000000e+000 8.602322e+000
      endloop
   endfacet
   facet normal 0.000000e+000 -1.000000e+000 0.000000e+000
      outer loop
         vertex 0.000000e+000 0.000000e+000 0.000000e+000
         vertex 3.860839e+000 0.000000e+000 8.602322e+000
         vertex 3.618135e+000 0.000000e+000 8.623555e+000
      endloop
   endfacet
   facet normal 0.000000e+000 -1.000000e+000 0.000000e+000
      outer loop
         vertex 2.962430e+000 0.000000e+000 8.929316e+000
         vertex 2.790156e+000 0.000000e+000 9.101590e+000
         vertex 0.000000e+000 0.000000e+000 0.000000e+000
      endloop
   endfacet
   facet normal 0.000000e+000 -1.000000e+000 0.000000e+000
      outer loop
         vertex 0.000000e+000 0.000000e+000 0.000000e+000
         vertex 2.790156e+000 0.000000e+000 9.101590e+000
         vertex 2.650415e+000 0.000000e+000 9.301161e+000
      endloop
   endfacet
   facet normal 0.000000e+000 -1.000000e+000 0.000000e+000
      outer loop
         vertex 0.000000e+000 0.000000e+000 0.000000e+000
         vertex 2.650415e+000 0.000000e+000 9.301161e+000
         vertex 0.000000e+000 0.000000e+000 1.000000e+001
      endloop
   endfacet
   facet normal 0.000000e+000 -1.000000e+000 0.000000e+000
      outer loop
         vertex 0.000000e+000 0.000000e+000 1.000000e+001
         vertex 2.650415e+000 0.000000e+000 9.301161e+000
         vertex 2.547452e+000 0.000000e+000 9.521966e+000
      endloop
   endfacet
   facet normal 0.000000e+000 -1.000000e+000 0.000000e+000
      outer loop
         vertex 0.000000e+000 0.000000e+000 1.000000e+001
         vertex 2.547452e+000 0.000000e+000 9.521966e+000
         vertex 2.484396e+000 0.000000e+000 9.757296e+000
      endloop
   endfacet
   facet normal -9.983119e-001 0.000000e+000 5.807913e-002
      outer loop
         vertex 5.258517e+000 0.000000e+000 1.000000e+001
         vertex 5.258517e+000 1.000000e+001 1.000000e+001
         vertex 5.237284e+000 1.000000e+001 9.757296e+000
      endloop
   endfacet
   facet normal -9.932307e-001 0.000000e+000 1.161583e-001
      outer loop
         vertex 5.258517e+000 0.000000e+000 1.000000e+001
         vertex 5.237284e+000 1.000000e+001 9.757296e+000
         vertex 5.237284e+000 0.000000e+000 9.757296e+000
      endloop
   endfacet
   facet normal -9.730600e-001 0.000000e+000 2.305519e-001
      outer loop
         vertex 5.237284e+000 0.000000e+000 9.757296e+000
         vertex 5.237284e+000 1.000000e+001 9.757296e+000
         vertex 5.174227e+000 1.000000e+001 9.521966e+000
      endloop
   endfacet
   facet normal -9.579706e-001 0.000000e+000 2.868663e-001
      outer loop
         vertex 5.237284e+000 0.000000e+000 9.757296e+000
         vertex 5.174227e+000 1.000000e+001 9.521966e+000
         vertex 5.174227e+000 0.000000e+000 9.521966e+000
      endloop
   endfacet
   facet normal -9.182422e-001 0.000000e+000 3.960194e-001
      outer loop
         vertex 5.174227e+000 0.000000e+000 9.521966e+000
         vertex 5.174227e+000 1.000000e+001 9.521966e+000
         vertex 5.071264e+000 1.000000e+001 9.301161e+000
      endloop
   endfacet
   facet normal -8.936031e-001 0.000000e+000 4.488580e-001
      outer loop
         vertex 5.174227e+000 0.000000e+000 9.521966e+000
         vertex 5.071264e+000 1.000000e+001 9.301161e+000
         vertex 5.071264e+000 0.000000e+000 9.301161e+000
      endloop
   endfacet
   facet normal -8.355240e-001 0.000000e+000 5.494540e-001
      outer loop
         vertex 5.071264e+000 0.000000e+000 9.301161e+000
         vertex 5.071264e+000 1.000000e+001 9.301161e+000
         vertex 4.931523e+000 1.000000e+001 9.101590e+000
      endloop
   endfacet
   facet normal -8.020838e-001 0.000000e+000 5.972114e-001
      outer loop
         vertex 5.071264e+000 0.000000e+000 9.301161e+000
         vertex 4.931523e+000 1.000000e+001 9.101590e+000
         vertex 4.931523e+000 0.000000e+000 9.101590e+000
      endloop
   endfacet
   facet normal -7.274188e-001 0.000000e+000 6.861938e-001
      outer loop
         vertex 4.931523e+000 0.000000e+000 9.101590e+000
         vertex 4.931523e+000 1.000000e+001 9.101590e+000
         vertex 4.759249e+000 1.000000e+001 8.929316e+000
      endloop
   endfacet
   facet normal -6.861938e-001 0.000000e+000 7.274188e-001
      outer loop
         vertex 4.931523e+000 0.000000e+000 9.101590e+000
         vertex 4.759249e+000 1.000000e+001 8.929316e+000
         vertex 4.759249e+000 0.000000e+000 8.929316e+000
      endloop
   endfacet
   facet normal -5.972114e-001 0.000000e+000 8.020838e-001
      outer loop
         vertex 4.759249e+000 0.000000e+000 8.929316e+000
         vertex 4.759249e+000 1.000000e+001 8.929316e+000
         vertex 4.559679e+000 1.000000e+001 8.789575e+000
      endloop
   endfacet
   facet normal -5.494540e-001 0.000000e+000 8.355240e-001
      outer loop
         vertex 4.759249e+000 0.000000e+000 8.929316e+000
         vertex 4.559679e+000 1.000000e+001 8.789575e+000
         vertex 4.559679e+000 0.000000e+000 8.789575e+000
      endloop
   endfacet
   facet normal -4.488580e-001 0.000000e+000 8.936031e-001
      outer loop
         vertex 4.559679e+000 0.000000e+000 8.789575e+000
         vertex 4.559679e+000 1.000000e+001 8.789575e+000
         vertex 4.338873e+000 1.000000e+001 8.686612e+000
      endloop
   endfacet
   facet normal -3.960194e-001 0.000000e+000 9.182422e-001
      outer loop
         vertex 4.559679e+000 0.000000e+000 8.789575e+000
         vertex 4.338873e+000 1.000000e+001 8.686612e+000
         vertex 4.338873e+000 0.000000e+000 8.686612e+000
      endloop
   endfacet
   facet normal -2.868663e-001 0.000000e+000 9.579706e-001
      outer loop
         vertex 4.338873e+000 0.000000e+000 8.686612e+000
         vertex 4.338873e+000 1.000000e+001 8.686612e+000
         vertex 4.103544e+000 1.000000e+001 8.623555e+000
      endloop
   endfacet
   facet normal -2.305519e-001 0.000000e+000 9.730600e-001
      outer loop
         vertex 4.338873e+000 0.000000e+000 8.686612e+000
         vertex 4.103544e+000 1.000000e+001 8.623555e+000
         vertex 4.103544e+000 0.000000e+000 8.623555e+000
      endloop
   endfacet
   facet normal -1.161583e-001 0.000000e+000 9.932307e-001
      outer loop
         vertex 4.103544e+000 0.000000e+000 8.623555e+000
         vertex 4.103544e+000 1.000000e+001 8.623555e+000
         vertex 3.860839e+000 1.000000e+001 8.602322e+000
      endloop
   endfacet
   facet normal -5.807913e-002 0.000000e+000 9.983119e-001
      outer loop
         vertex 4.103544e+000 0.000000e+000 8.623555e+000
         vertex 3.860839e+000 1.000000e+001 8.602322e+000
         vertex 3.860839e+000 0.000000e+000 8.602322e+000
      endloop
   endfacet
   facet normal 5.807913e-002 0.000000e+000 9.983119e-001
      outer loop
         vertex 3.860839e+000 0.000000e+000 8.602322e+000
         vertex 3.860839e+000 1.000000e+001 8.602322e+000
         vertex 3.618135e+000 1.000000e+001 8.623555e+000
      endloop
   endfacet
   facet normal 1.161583e-001 0.000000e+000 9.932307e-001
      outer loop
         vertex 3.860839e+000 0.000000e+000 8.602322e+000
         vertex 3.618135e+000 1.000000e+001 8.623555e+000
         vertex 3.618135e+000 0.000000e+000 8.623555e+000
      endloop
   endfacet
   facet normal 2.305519e-001 0.000000e+000 9.730600e-001
      outer loop
         vertex 3.618135e+000 0.000000e+000 8.623555e+000
         vertex 3.618135e+000 1.000000e+001 8.623555e+000
         vertex 3.382806e+000 1.000000e+001 8.686612e+000
      endloop
   endfacet
   facet normal 2.868663e-001 0.000000e+000 9.579706e-001
      outer loop
         vertex 3.618135e+000 0.000000e+000 8.623555e+000
         vertex 3.382806e+000 1.000000e+001 8.686612e+000
         vertex 3.382806e+000 0.000000e+000 8.686612e+000
      endloop
   endfacet
   facet normal 3.960194e-001 0.000000e+000 9.182422e-001
      outer loop
         vertex 3.382806e+000 0.000000e+000 8.686612e+000
         vertex 3.382806e+000 1.000000e+001 8.686612e+000
         vertex 3.162001e+000 1.000000e+001 8.789575e+000
      endloop
   endfacet
   facet normal 4.488580e-001 0.000000e+000 8.936031e-001
      outer loop
         vertex 3.382806e+000 0.000000e+000 8.686612e+000
         vertex 3.162001e+000 1.000000e+001 8.789575e+000
         vertex 3.162001e+000 0.000000e+000 8.789575e+000
      endloop
   endfacet
   facet normal 5.494540e-001 0.000000e+000 8.355240e-001
      outer loop
         vertex 3.162001e+000 0.000000e+000 8.789575e+000
         vertex 3.162001e+000 1.000000e+001 8.789575e+000
         vertex 2.962430e+000 1.000000e+001 8.929316e+000
      endloop
   endfacet
   facet normal 5.972114e-001 0.000000e+000 8.020838e-001
      outer loop
         vertex 3.162001e+000 0.000000e+000 8.789575e+000
         vertex 2.962430e+000 1.000000e+001 8.929316e+000
         vertex 2.962430e+000 0.000000e+000 8.929316e+000
      endloop
   endfacet
   facet normal 6.861938e-001 0.000000e+000 7.274188e-001
      outer loop
         vertex 2.962430e+000 0.000000e+000 8.929316e+000
         vertex 2.962430e+000 1.000000e+001 8.929316e+000
         vertex 2.790156e+000 1.000000e+001 9.101590e+000
      endloop
   endfacet
   facet normal 7.274188e-001 0.000000e+000 6.861938e-001
      outer loop
         vertex 2.962430e+000 0.000000e+000 8.929316e+000
         vertex 2.790156e+000 1.000000e+001 9.101590e+000
         vertex 2.790156e+000 0.000000e+000 9.101590e+000
      endloop
   endfacet
   facet normal 8.020838e-001 0.000000e+000 5.972114e-001
      outer loop
         vertex 2.790156e+000 0.000000e+000 9.101590e+000
         vertex 2.790156e+000 1.000000e+001 9.101590e+000
         vertex 2.650415e+000 1.000000e+001 9.301161e+000
      endloop
   endfacet
   facet normal 8.355240e-001 0.000000e+000 5.494540e-001
      outer loop
         vertex 2.790156e+000 0.000000e+000 9.101590e+000
         vertex 2.650415e+000 1.000000e+001 9.301161e+000
         vertex 2.650415e+000 0.000000e+000 9.301161e+000
      endloop
   endfacet
   facet normal 8.936031e-001 0.000000e+000 4.488580e-001
      outer loop
         vertex 2.650415e+000 0.000000e+000 9.301161e+000
         vertex 2.650415e+000 1.000000e+001 9.301161e+000
         vertex 2.547452e+000 1.000000e+001 9.521966e+000
      endloop
   endfacet
   facet normal 9.182422e-001 0.000000e+000 3.960194e-001
      outer loop
         vertex 2.650415e+000 0.000000e+000 9.301161e+000
         vertex 2.547452e+000 1.000000e+001 9.521966e+000
         vertex 2.547452e+000 0.000000e+000 9.521966e+000
      endloop
   endfacet
   facet normal 9.579706e-001 0.000000e+000 2.868663e-001
      outer loop
         vertex 2.547452e+000 0.000000e+000 9.521966e+000
         vertex 2.547452e+000 1.000000e+001 9.521966e+000
         vertex 2.484396e+000 1.000000e+001 9.757296e+000
      endloop
   endfacet
   facet normal 9.730600e-001 0.000000e+000 2.305519e-001
      outer loop
         vertex 2.547452e+000 0.000000e+000 9.521966e+000
         vertex 2.484396e+000 1.000000e+001 9.757296e+000
         vertex 2.484396e+000 0.000000e+000 9.757296e+000
      endloop
   endfacet
   facet normal 9.932307e-001 0.000000e+000 1.161583e-001
      outer loop
         vertex 2.484396e+000 0.000000e+000 9.757296e+000
         vertex 2.484396e+000 1.000000e+001 9.757296e+000
         vertex 2.463162e+000 1.000000e+001 1.000000e+001
      endloop
   endfacet
   facet normal 9.983119e-001 0.000000e+000 5.807913e-002
      outer loop
         vertex 2.484396e+000 0.000000e+000 9.757296e+000
         vertex 2.463162e+000 1.000000e+001 1.000000e+001
         vertex 2.463162e+000 0.000000e+000 1.000000e+001
      endloop
   endfacet
endsolid