solid 5_360
   facet normal 0.000000e+000 0.000000e+000 1.000000e+000
      outer loop
         vertex 4.816423e+000 1.000000e+001 1.000000e+001
         vertex 0.000000e+000 1.000000e+001 1.000000e+001
         vertex 4.816423e+000 0.000000e+000 1.000000e+001
      endloop
   endfacet
   facet normal 0.000000e+000 0.000000e+000 1.000000e+000
      outer loop
         vertex 4.816423e+000 0.000000e+000 1.000000e+001
         vertex 0.000000e+000 1.000000e+001 1.000000e+001
         vertex 0.000000e+000 0.000000e+000 1.000000e+001
      endloop
   endfacet
   facet normal -1.000000e+000 0.000000e+000 0.000000e+000
      outer loop
         vertex 0.000000e+000 1.000000e+001 1.000000e+001
         vertex 0.000000e+000 1.000000e+001 0.000000e+000
         vertex 0.000000e+000 0.000000e+000 1.000000e+001
      endloop
   endfacet
   facet normal -1.000000e+000 0.000000e+000 0.000000e+000
      outer loop
         vertex 0.000000e+000 0.000000e+000 1.000000e+001
         vertex 0.000000e+000 1.000000e+001 0.000000e+000
         vertex 0.000000e+000 0.000000e+000 0.000000e+000
      endloop
   endfacet
   facet normal 0.000000e+000 0.000000e+000 1.000000e+000
      outer loop
         vertex 9.079739e+000 0.000000e+000 1.000000e+001
         vertex 1.000000e+001 0.000000e+000 1.000000e+001
         vertex 9.079739e+000 1.000000e+001 1.000000e+001
      endloop
   endfacet
   facet normal 0.000000e+000 0.000000e+000 1.000000e+000
      outer loop
         vertex 9.079739e+000 1.000000e+001 1.000000e+001
         vertex 1.000000e+001 0.000000e+000 1.000000e+001
         vertex 1.000000e+001 1.000000e+001 1.000000e+001
      endloop
   endfacet
   facet normal 1.000000e+000 0.000000e+000 0.000000e+000
      outer loop
         vertex 1.000000e+001 1.000000e+001 0.000000e+000
         vertex 1.000000e+001 1.000000e+001 1.000000e+001
         vertex 1.000000e+001 0.000000e+000 0.000000e+000
      endloop
   endfacet
   facet normal 1.000000e+000 0.000000e+000 0.000000e+000
      outer loop
         vertex 1.000000e+001 0.000000e+000 0.000000e+000
         vertex 1.000000e+001 1.000000e+001 1.000000e+001
         vertex 1.000000e+001 0.000000e+000 1.000000e+001
      endloop
   endfacet
   facet normal 0.000000e+000 0.000000e+000 -1.000000e+000
      outer loop
         vertex 0.000000e+000 1.000000e+001 0.000000e+000
         vertex 1.000000e+001 1.000000e+001 0.000000e+000
         vertex 0.000000e+000 0.000000e+000 0.000000e+000
      endloop
   endfacet
   facet normal 0.000000e+000 0.000000e+000 -1.000000e+000
      outer loop
         vertex 0.000000e+000 0.000000e+000 0.000000e+000
         vertex 1.000000e+001 1.000000e+001 0.000000e+000
         vertex 1.000000e+001 0.000000e+000 0.000000e+000
      endloop
   endfacet
   facet normal 0.000000e+000 1.000000e+000 0.000000e+000
      outer loop
         vertex 9.047355e+000 1.000000e+001 9.629841e+000
         vertex 9.079739e+000 1.000000e+001 1.000000e+001
         vertex 1.000000e+001 1.000000e+001 1.000000e+001
      endloop
   endfacet
   facet normal 0.000000e+000 1.000000e+000 0.000000e+000
      outer loop
         vertex 1.000000e+001 1.000000e+001 0.000000e+000
         vertex 8.794151e+000 1.000000e+001 8.934171e+000
         vertex 1.000000e+001 1.000000e+001 1.000000e+001
      endloop
   endfacet
   facet normal 0.000000e+000 1.000000e+000 0.000000e+000
      outer loop
         vertex 1.000000e+001 1.000000e+001 1.000000e+001
         vertex 8.794151e+000 1.000000e+001 8.934171e+000
         vertex 8.951184e+000 1.000000e+001 9.270929e+000
      endloop
   endfacet
   facet normal 0.000000e+000 1.000000e+000 0.000000e+000
      outer loop
         vertex 1.000000e+001 1.000000e+001 1.000000e+001
         vertex 8.951184e+000 1.000000e+001 9.270929e+000
         vertex 9.047355e+000 1.000000e+001 9.629841e+000
      endloop
   endfacet
   facet normal 0.000000e+000 1.000000e+000 0.000000e+000
      outer loop
         vertex 5.882252e+000 1.000000e+001 8.153931e+000
         vertex 0.000000e+000 1.000000e+001 0.000000e+000
         vertex 5.577878e+000 1.000000e+001 8.367055e+000
      endloop
   endfacet
   facet normal 0.000000e+000 1.000000e+000 0.000000e+000
      outer loop
         vertex 5.577878e+000 1.000000e+001 8.367055e+000
         vertex 0.000000e+000 1.000000e+001 0.000000e+000
         vertex 5.315136e+000 1.000000e+001 8.629797e+000
      endloop
   endfacet
   facet normal 0.000000e+000 1.000000e+000 0.000000e+000
      outer loop
         vertex 7.318240e+000 1.000000e+001 7.900726e+000
         vertex 7.677151e+000 1.000000e+001 7.996896e+000
         vertex 1.000000e+001 1.000000e+001 0.000000e+000
      endloop
   endfacet
   facet normal 0.000000e+000 1.000000e+000 0.000000e+000
      outer loop
         vertex 1.000000e+001 1.000000e+001 0.000000e+000
         vertex 7.677151e+000 1.000000e+001 7.996896e+000
         vertex 8.013909e+000 1.000000e+001 8.153931e+000
      endloop
   endfacet
   facet normal 0.000000e+000 1.000000e+000 0.000000e+000
      outer loop
         vertex 4.816423e+000 1.000000e+001 1.000000e+001
         vertex 4.848808e+000 1.000000e+001 9.629841e+000
         vertex 0.000000e+000 1.000000e+001 1.000000e+001
      endloop
   endfacet
   facet normal 0.000000e+000 1.000000e+000 0.000000e+000
      outer loop
         vertex 0.000000e+000 1.000000e+001 1.000000e+001
         vertex 4.848808e+000 1.000000e+001 9.629841e+000
         vertex 4.944978e+000 1.000000e+001 9.270929e+000
      endloop
   endfacet
   facet normal 0.000000e+000 1.000000e+000 0.000000e+000
      outer loop
         vertex 0.000000e+000 1.000000e+001 1.000000e+001
         vertex 4.944978e+000 1.000000e+001 9.270929e+000
         vertex 0.000000e+000 1.000000e+001 0.000000e+000
      endloop
   endfacet
   facet normal 0.000000e+000 1.000000e+000 0.000000e+000
      outer loop
         vertex 0.000000e+000 1.000000e+001 0.000000e+000
         vertex 4.944978e+000 1.000000e+001 9.270929e+000
         vertex 5.102011e+000 1.000000e+001 8.934171e+000
      endloop
   endfacet
   facet normal 0.000000e+000 1.000000e+000 0.000000e+000
      outer loop
         vertex 0.000000e+000 1.000000e+001 0.000000e+000
         vertex 5.102011e+000 1.000000e+001 8.934171e+000
         vertex 5.315136e+000 1.000000e+001 8.629797e+000
      endloop
   endfacet
   facet normal 0.000000e+000 1.000000e+000 0.000000e+000
      outer loop
         vertex 8.013909e+000 1.000000e+001 8.153931e+000
         vertex 8.318285e+000 1.000000e+001 8.367055e+000
         vertex 1.000000e+001 1.000000e+001 0.000000e+000
      endloop
   endfacet
   facet normal 0.000000e+000 1.000000e+000 0.000000e+000
      outer loop
         vertex 1.000000e+001 1.000000e+001 0.000000e+000
         vertex 8.318285e+000 1.000000e+001 8.367055e+000
         vertex 8.581025e+000 1.000000e+001 8.629797e+000
      endloop
   endfacet
   facet normal 0.000000e+000 1.000000e+000 0.000000e+000
      outer loop
         vertex 1.000000e+001 1.000000e+001 0.000000e+000
         vertex 8.581025e+000 1.000000e+001 8.629797e+000
         vertex 8.794151e+000 1.000000e+001 8.934171e+000
      endloop
   endfacet
   facet normal 0.000000e+000 1.000000e+000 0.000000e+000
      outer loop
         vertex 5.882252e+000 1.000000e+001 8.153931e+000
         vertex 6.219011e+000 1.000000e+001 7.996896e+000
         vertex 0.000000e+000 1.000000e+001 0.000000e+000
      endloop
   endfacet
   facet normal 0.000000e+000 1.000000e+000 0.000000e+000
      outer loop
         vertex 0.000000e+000 1.000000e+001 0.000000e+000
         vertex 6.219011e+000 1.000000e+001 7.996896e+000
         vertex 6.577922e+000 1.000000e+001 7.900726e+000
      endloop
   endfacet
   facet normal 0.000000e+000 1.000000e+000 0.000000e+000
      outer loop
         vertex 0.000000e+000 1.000000e+001 0.000000e+000
         vertex 6.577922e+000 1.000000e+001 7.900726e+000
         vertex 1.000000e+001 1.000000e+001 0.000000e+000
      endloop
   endfacet
   facet normal 0.000000e+000 1.000000e+000 0.000000e+000
      outer loop
         vertex 1.000000e+001 1.000000e+001 0.000000e+000
         vertex 6.577922e+000 1.000000e+001 7.900726e+000
         vertex 6.948081e+000 1.000000e+001 7.868342e+000
      endloop
   endfacet
   facet normal 0.000000e+000 1.000000e+000 0.000000e+000
      outer loop
         vertex 1.000000e+001 1.000000e+001 0.000000e+000
         vertex 6.948081e+000 1.000000e+001 7.868342e+000
         vertex 7.318240e+000 1.000000e+001 7.900726e+000
      endloop
   endfacet
   facet normal 0.000000e+000 -1.000000e+000 0.000000e+000
      outer loop
         vertex 4.848808e+000 0.000000e+000 9.629841e+000
         vertex 4.816423e+000 0.000000e+000 1.000000e+001
         vertex 0.000000e+000 0.000000e+000 1.000000e+001
      endloop
   endfacet
   facet normal 0.000000e+000 -1.000000e+000 0.000000e+000
      outer loop
         vertex 9.079739e+000 0.000000e+000 1.000000e+001
         vertex 9.047355e+000 0.000000e+000 9.629841e+000
         vertex 1.000000e+001 0.000000e+000 1.000000e+001
      endloop
   endfacet
   facet normal 0.000000e+000 -1.000000e+000 0.000000e+000
      outer loop
         vertex 1.000000e+001 0.000000e+000 1.000000e+001
         vertex 9.047355e+000 0.000000e+000 9.629841e+000
         vertex 8.951184e+000 0.000000e+000 9.270929e+000
      endloop
   endfacet
   facet normal 0.000000e+000 -1.000000e+000 0.000000e+000
      outer loop
         vertex 1.000000e+001 0.000000e+000 1.000000e+001
         vertex 8.951184e+000 0.000000e+000 9.270929e+000
         vertex 1.000000e+001 0.000000e+000 0.000000e+000
      endloop
   endfacet
   facet normal 0.000000e+000 -1.000000e+000 0.000000e+000
      outer loop
         vertex 1.000000e+001 0.000000e+000 0.000000e+000
         vertex 8.951184e+000 0.000000e+000 9.270929e+000
         vertex 8.794151e+000 0.000000e+000 8.934171e+000
      endloop
   endfacet
   facet normal 0.000000e+000 -1.000000e+000 0.000000e+000
      outer loop
         vertex 1.000000e+001 0.000000e+000 0.000000e+000
         vertex 8.794151e+000 0.000000e+000 8.934171e+000
         vertex 8.581025e+000 0.000000e+000 8.629797e+000
      endloop
   endfacet
   facet normal 0.000000e+000 -1.000000e+000 0.000000e+000
      outer loop
         vertex 8.581025e+000 0.000000e+000 8.629797e+000
         vertex 8.318285e+000 0.000000e+000 8.367055e+000
         vertex 1.000000e+001 0.000000e+000 0.000000e+000
      endloop
   endfacet
   facet normal 0.000000e+000 -1.000000e+000 0.000000e+000
      outer loop
         vertex 1.000000e+001 0.000000e+000 0.000000e+000
         vertex 8.318285e+000 0.000000e+000 8.367055e+000
         vertex 8.013909e+000 0.000000e+000 8.153931e+000
      endloop
   endfacet
   facet normal 0.000000e+000 -1.000000e+000 0.000000e+000
      outer loop
         vertex 1.000000e+001 0.000000e+000 0.000000e+000
         vertex 8.013909e+000 0.000000e+000 8.153931e+000
         vertex 7.677151e+000 0.000000e+000 7.996896e+000
      endloop
   endfacet
   facet normal 0.000000e+000 -1.000000e+000 0.000000e+000
      outer loop
         vertex 6.219011e+000 0.000000e+000 7.996896e+000
         vertex 5.882252e+000 0.000000e+000 8.153931e+000
         vertex 0.000000e+000 0.000000e+000 0.000000e+000
      endloop
   endfacet
   facet normal 0.000000e+000 -1.000000e+000 0.000000e+000
      outer loop
         vertex 0.000000e+000 0.000000e+000 0.000000e+000
         vertex 5.882252e+000 0.000000e+000 8.153931e+000
         vertex 5.577878e+000 0.000000e+000 8.367055e+000
      endloop
   endfacet
   facet normal 0.000000e+000 -1.000000e+000 0.000000e+000
      outer loop
         vertex 5.577878e+000 0.000000e+000 8.367055e+000
         vertex 5.315136e+000 0.000000e+000 8.629797e+000
         vertex 0.000000e+000 0.000000e+000 0.000000e+000
      endloop
   endfacet
   facet normal 0.000000e+000 -1.000000e+000 0.000000e+000
      outer loop
         vertex 0.000000e+000 0.000000e+000 0.000000e+000
         vertex 5.315136e+000 0.000000e+000 8.629797e+000
         vertex 5.102011e+000 0.000000e+000 8.934171e+000
      endloop
   endfacet
   facet normal 0.000000e+000 -1.000000e+000 0.000000e+000
      outer loop
         vertex 0.000000e+000 0.000000e+000 0.000000e+000
         vertex 5.102011e+000 0.000000e+000 8.934171e+000
         vertex 0.000000e+000 0.000000e+000 1.000000e+001
      endloop
   endfacet
   facet normal 0.000000e+000 -1.000000e+000 0.000000e+000
      outer loop
         vertex 0.000000e+000 0.000000e+000 1.000000e+001
         vertex 5.102011e+000 0.000000e+000 8.934171e+000
         vertex 4.944978e+000 0.000000e+000 9.270929e+000
      endloop
   endfacet
   facet normal 0.000000e+000 -1.000000e+000 0.000000e+000
      outer loop
         vertex 0.000000e+000 0.000000e+000 1.000000e+001
         vertex 4.944978e+000 0.000000e+000 9.270929e+000
         vertex 4.848808e+000 0.000000e+000 9.629841e+000
      endloop
   endfacet
   facet normal 0.000000e+000 -1.000000e+000 0.000000e+000
      outer loop
         vertex 7.677151e+000 0.000000e+000 7.996896e+000
         vertex 7.318240e+000 0.000000e+000 7.900726e+000
         vertex 1.000000e+001 0.000000e+000 0.000000e+000
      endloop
   endfacet
   facet normal 0.000000e+000 -1.000000e+000 0.000000e+000
      outer loop
         vertex 1.000000e+001 0.000000e+000 0.000000e+000
         vertex 7.318240e+000 0.000000e+000 7.900726e+000
         vertex 6.948081e+000 0.000000e+000 7.868342e+000
      endloop
   endfacet
   facet normal 0.000000e+000 -1.000000e+000 0.000000e+000
      outer loop
         vertex 1.000000e+001 0.000000e+000 0.000000e+000
         vertex 6.948081e+000 0.000000e+000 7.868342e+000
         vertex 0.000000e+000 0.000000e+000 0.000000e+000
      endloop
   endfacet
   facet normal 0.000000e+000 -1.000000e+000 0.000000e+000
      outer loop
         vertex 0.000000e+000 0.000000e+000 0.000000e+000
         vertex 6.948081e+000 0.000000e+000 7.868342e+000
         vertex 6.577922e+000 0.000000e+000 7.900726e+000
      endloop
   endfacet
   facet normal 0.000000e+000 -1.000000e+000 0.000000e+000
      outer loop
         vertex 0.000000e+000 0.000000e+000 0.000000e+000
         vertex 6.577922e+000 0.000000e+000 7.900726e+000
         vertex 6.219011e+000 0.000000e+000 7.996896e+000
      endloop
   endfacet
   facet normal -9.983119e-001 0.000000e+000 5.807913e-002
      outer loop
         vertex 9.079739e+000 0.000000e+000 1.000000e+001
         vertex 9.079739e+000 1.000000e+001 1.000000e+001
         vertex 9.047355e+000 1.000000e+001 9.629841e+000
      endloop
   endfacet
   facet normal -9.932307e-001 0.000000e+000 1.161583e-001
      outer loop
         vertex 9.079739e+000 0.000000e+000 1.000000e+001
         vertex 9.047355e+000 1.000000e+001 9.629841e+000
         vertex 9.047355e+000 0.000000e+000 9.629841e+000
      endloop
   endfacet
   facet normal -9.730600e-001 0.000000e+000 2.305519e-001
      outer loop
         vertex 9.047355e+000 0.000000e+000 9.629841e+000
         vertex 9.047355e+000 1.000000e+001 9.629841e+000
         vertex 8.951184e+000 1.000000e+001 9.270929e+000
      endloop
   endfacet
   facet normal -9.579706e-001 0.000000e+000 2.868663e-001
      outer loop
         vertex 9.047355e+000 0.000000e+000 9.629841e+000
         vertex 8.951184e+000 1.000000e+001 9.270929e+000
         vertex 8.951184e+000 0.000000e+000 9.270929e+000
      endloop
   endfacet
   facet normal -9.182422e-001 0.000000e+000 3.960194e-001
      outer loop
         vertex 8.951184e+000 0.000000e+000 9.270929e+000
         vertex 8.951184e+000 1.000000e+001 9.270929e+000
         vertex 8.794151e+000 1.000000e+001 8.934171e+000
      endloop
   endfacet
   facet normal -8.936031e-001 0.000000e+000 4.488580e-001
      outer loop
         vertex 8.951184e+000 0.000000e+000 9.270929e+000
         vertex 8.794151e+000 1.000000e+001 8.934171e+000
         vertex 8.794151e+000 0.000000e+000 8.934171e+000
      endloop
   endfacet
   facet normal -8.355240e-001 0.000000e+000 5.494540e-001
      outer loop
         vertex 8.794151e+000 0.000000e+000 8.934171e+000
         vertex 8.794151e+000 1.000000e+001 8.934171e+000
         vertex 8.581025e+000 1.000000e+001 8.629797e+000
      endloop
   endfacet
   facet normal -8.020838e-001 0.000000e+000 5.972114e-001
      outer loop
         vertex 8.794151e+000 0.000000e+000 8.934171e+000
         vertex 8.581025e+000 1.000000e+001 8.629797e+000
         vertex 8.581025e+000 0.000000e+000 8.629797e+000
      endloop
   endfacet
   facet normal -7.274188e-001 0.000000e+000 6.861938e-001
      outer loop
         vertex 8.581025e+000 0.000000e+000 8.629797e+000
         vertex 8.581025e+000 1.000000e+001 8.629797e+000
         vertex 8.318285e+000 1.000000e+001 8.367055e+000
      endloop
   endfacet
   facet normal -6.861938e-001 0.000000e+000 7.274188e-001
      outer loop
         vertex 8.581025e+000 0.000000e+000 8.629797e+000
         vertex 8.318285e+000 1.000000e+001 8.367055e+000
         vertex 8.318285e+000 0.000000e+000 8.367055e+000
      endloop
   endfacet
   facet normal -5.972114e-001 0.000000e+000 8.020838e-001
      outer loop
         vertex 8.318285e+000 0.000000e+000 8.367055e+000
         vertex 8.318285e+000 1.000000e+001 8.367055e+000
         vertex 8.013909e+000 1.000000e+001 8.153931e+000
      endloop
   endfacet
   facet normal -5.494540e-001 0.000000e+000 8.355240e-001
      outer loop
         vertex 8.318285e+000 0.000000e+000 8.367055e+000
         vertex 8.013909e+000 1.000000e+001 8.153931e+000
         vertex 8.013909e+000 0.000000e+000 8.153931e+000
      endloop
   endfacet
   facet normal -4.488580e-001 0.000000e+000 8.936031e-001
      outer loop
         vertex 8.013909e+000 0.000000e+000 8.153931e+000
         vertex 8.013909e+000 1.000000e+001 8.153931e+000
         vertex 7.677151e+000 1.000000e+001 7.996896e+000
      endloop
   endfacet
   facet normal -3.960194e-001 0.000000e+000 9.182422e-001
      outer loop
         vertex 8.013909e+000 0.000000e+000 8.153931e+000
         vertex 7.677151e+000 1.000000e+001 7.996896e+000
         vertex 7.677151e+000 0.000000e+000 7.996896e+000
      endloop
   endfacet
   facet normal -2.868663e-001 0.000000e+000 9.579706e-001
      outer loop
         vertex 7.677151e+000 0.000000e+000 7.996896e+000
         vertex 7.677151e+000 1.000000e+001 7.996896e+000
         vertex 7.318240e+000 1.000000e+001 7.900726e+000
      endloop
   endfacet
   facet normal -2.305519e-001 0.000000e+000 9.730600e-001
      outer loop
         vertex 7.677151e+000 0.000000e+000 7.996896e+000
         vertex 7.318240e+000 1.000000e+001 7.900726e+000
         vertex 7.318240e+000 0.000000e+000 7.900726e+000
      endloop
   endfacet
   facet normal -1.161583e-001 0.000000e+000 9.932307e-001
      outer loop
         vertex 7.318240e+000 0.000000e+000 7.900726e+000
         vertex 7.318240e+000 1.000000e+001 7.900726e+000
         vertex 6.948081e+000 1.000000e+001 7.868342e+000
      endloop
   endfacet
   facet normal -5.807913e-002 0.000000e+000 9.983119e-001
      outer loop
         vertex 7.318240e+000 0.000000e+000 7.900726e+000
         vertex 6.948081e+000 1.000000e+001 7.868342e+000
         vertex 6.948081e+000 0.000000e+000 7.868342e+000
      endloop
   endfacet
   facet normal 5.807913e-002 0.000000e+000 9.983119e-001
      outer loop
         vertex 6.948081e+000 0.000000e+000 7.868342e+000
         vertex 6.948081e+000 1.000000e+001 7.868342e+000
         vertex 6.577922e+000 1.000000e+001 7.900726e+000
      endloop
   endfacet
   facet normal 1.161583e-001 0.000000e+000 9.932307e-001
      outer loop
         vertex 6.948081e+000 0.000000e+000 7.868342e+000
         vertex 6.577922e+000 1.000000e+001 7.900726e+000
         vertex 6.577922e+000 0.000000e+000 7.900726e+000
      endloop
   endfacet
   facet normal 2.305519e-001 0.000000e+000 9.730600e-001
      outer loop
         vertex 6.577922e+000 0.000000e+000 7.900726e+000
         vertex 6.577922e+000 1.000000e+001 7.900726e+000
         vertex 6.219011e+000 1.000000e+001 7.996896e+000
      endloop
   endfacet
   facet normal 2.868663e-001 0.000000e+000 9.579706e-001
      outer loop
         vertex 6.577922e+000 0.000000e+000 7.900726e+000
         vertex 6.219011e+000 1.000000e+001 7.996896e+000
         vertex 6.219011e+000 0.000000e+000 7.996896e+000
      endloop
   endfacet
   facet normal 3.960194e-001 0.000000e+000 9.182422e-001
      outer loop
         vertex 6.219011e+000 0.000000e+000 7.996896e+000
         vertex 6.219011e+000 1.000000e+001 7.996896e+000
         vertex 5.882252e+000 1.000000e+001 8.153931e+000
      endloop
   endfacet
   facet normal 4.488580e-001 0.000000e+000 8.936031e-001
      outer loop
         vertex 6.219011e+000 0.000000e+000 7.996896e+000
         vertex 5.882252e+000 1.000000e+001 8.153931e+000
         vertex 5.882252e+000 0.000000e+000 8.153931e+000
      endloop
   endfacet
   facet normal 5.494540e-001 0.000000e+000 8.355240e-001
      outer loop
         vertex 5.882252e+000 0.000000e+000 8.153931e+000
         vertex 5.882252e+000 1.000000e+001 8.153931e+000
         vertex 5.577878e+000 1.000000e+001 8.367055e+000
      endloop
   endfacet
   facet normal 5.972114e-001 0.000000e+000 8.020838e-001
      outer loop
         vertex 5.882252e+000 0.000000e+000 8.153931e+000
         vertex 5.577878e+000 1.000000e+001 8.367055e+000
         vertex 5.577878e+000 0.000000e+000 8.367055e+000
      endloop
   endfacet
   facet normal 6.861938e-001 0.000000e+000 7.274188e-001
      outer loop
         vertex 5.577878e+000 0.000000e+000 8.367055e+000
         vertex 5.577878e+000 1.000000e+001 8.367055e+000
         vertex 5.315136e+000 1.000000e+001 8.629797e+000
      endloop
   endfacet
   facet normal 7.274188e-001 0.000000e+000 6.861938e-001
      outer loop
         vertex 5.577878e+000 0.000000e+000 8.367055e+000
         vertex 5.315136e+000 1.000000e+001 8.629797e+000
         vertex 5.315136e+000 0.000000e+000 8.629797e+000
      endloop
   endfacet
   facet normal 8.020838e-001 0.000000e+000 5.972114e-001
      outer loop
         vertex 5.315136e+000 0.000000e+000 8.629797e+000
         vertex 5.315136e+000 1.000000e+001 8.629797e+000
         vertex 5.102011e+000 1.000000e+001 8.934171e+000
      endloop
   endfacet
   facet normal 8.355240e-001 0.000000e+000 5.494540e-001
      outer loop
         vertex 5.315136e+000 0.000000e+000 8.629797e+000
         vertex 5.102011e+000 1.000000e+001 8.934171e+000
         vertex 5.102011e+000 0.000000e+000 8.934171e+000
      endloop
   endfacet
   facet normal 8.936031e-001 0.000000e+000 4.488580e-001
      outer loop
         vertex 5.102011e+000 0.000000e+000 8.934171e+000
         vertex 5.102011e+000 1.000000e+001 8.934171e+000
         vertex 4.944978e+000 1.000000e+001 9.270929e+000
      endloop
   endfacet
   facet normal 9.182422e-001 0.000000e+000 3.960194e-001
      outer loop
         vertex 5.102011e+000 0.000000e+000 8.934171e+000
         vertex 4.944978e+000 1.000000e+001 9.270929e+000
         vertex 4.944978e+000 0.000000e+000 9.270929e+000
      endloop
   endfacet
   facet normal 9.579706e-001 0.000000e+000 2.868663e-001
      outer loop
         vertex 4.944978e+000 0.000000e+000 9.270929e+000
         vertex 4.944978e+000 1.000000e+001 9.270929e+000
         vertex 4.848808e+000 1.000000e+001 9.629841e+000
      endloop
   endfacet
   facet normal 9.730600e-001 0.000000e+000 2.305519e-001
      outer loop
         vertex 4.944978e+000 0.000000e+000 9.270929e+000
         vertex 4.848808e+000 1.000000e+001 9.629841e+000
         vertex 4.848808e+000 0.000000e+000 9.629841e+000
      endloop
   endfacet
   facet normal 9.932307e-001 0.000000e+000 1.161583e-001
      outer loop
         vertex 4.848808e+000 0.000000e+000 9.629841e+000
         vertex 4.848808e+000 1.000000e+001 9.629841e+000
         vertex 4.816423e+000 1.000000e+001 1.000000e+001
      endloop
   endfacet
   facet normal 9.983119e-001 0.000000e+000 5.807913e-002
      outer loop
         vertex 4.848808e+000 0.000000e+000 9.629841e+000
         vertex 4.816423e+000 1.000000e+001 1.000000e+001
         vertex 4.816423e+000 0.000000e+000 1.000000e+001
      endloop
   endfacet
endsolid