solid 5_49
   facet normal 0.000000e+000 0.000000e+000 1.000000e+000
      outer loop
         vertex 4.502973e+000 1.000000e+001 1.000000e+001
         vertex 0.000000e+000 1.000000e+001 1.000000e+001
         vertex 4.502973e+000 0.000000e+000 1.000000e+001
      endloop
   endfacet
   facet normal 0.000000e+000 0.000000e+000 1.000000e+000
      outer loop
         vertex 4.502973e+000 0.000000e+000 1.000000e+001
         vertex 0.000000e+000 1.000000e+001 1.000000e+001
         vertex 0.000000e+000 0.000000e+000 1.000000e+001
      endloop
   endfacet
   facet normal -1.000000e+000 0.000000e+000 0.000000e+000
      outer loop
         vertex 0.000000e+000 1.000000e+001 1.000000e+001
         vertex 0.000000e+000 1.000000e+001 0.000000e+000
         vertex 0.000000e+000 0.000000e+000 1.000000e+001
      endloop
   endfacet
   facet normal -1.000000e+000 0.000000e+000 0.000000e+000
      outer loop
         vertex 0.000000e+000 0.000000e+000 1.000000e+001
         vertex 0.000000e+000 1.000000e+001 0.000000e+000
         vertex 0.000000e+000 0.000000e+000 0.000000e+000
      endloop
   endfacet
   facet normal 0.000000e+000 0.000000e+000 1.000000e+000
      outer loop
         vertex 8.691762e+000 0.000000e+000 1.000000e+001
         vertex 1.000000e+001 0.000000e+000 1.000000e+001
         vertex 8.691762e+000 1.000000e+001 1.000000e+001
      endloop
   endfacet
   facet normal 0.000000e+000 0.000000e+000 1.000000e+000
      outer loop
         vertex 8.691762e+000 1.000000e+001 1.000000e+001
         vertex 1.000000e+001 0.000000e+000 1.000000e+001
         vertex 1.000000e+001 1.000000e+001 1.000000e+001
      endloop
   endfacet
   facet normal 1.000000e+000 0.000000e+000 0.000000e+000
      outer loop
         vertex 1.000000e+001 1.000000e+001 0.000000e+000
         vertex 1.000000e+001 1.000000e+001 1.000000e+001
         vertex 1.000000e+001 0.000000e+000 0.000000e+000
      endloop
   endfacet
   facet normal 1.000000e+000 0.000000e+000 0.000000e+000
      outer loop
         vertex 1.000000e+001 0.000000e+000 0.000000e+000
         vertex 1.000000e+001 1.000000e+001 1.000000e+001
         vertex 1.000000e+001 0.000000e+000 1.000000e+001
      endloop
   endfacet
   facet normal 0.000000e+000 0.000000e+000 -1.000000e+000
      outer loop
         vertex 0.000000e+000 1.000000e+001 0.000000e+000
         vertex 1.000000e+001 1.000000e+001 0.000000e+000
         vertex 0.000000e+000 0.000000e+000 0.000000e+000
      endloop
   endfacet
   facet normal 0.000000e+000 0.000000e+000 -1.000000e+000
      outer loop
         vertex 0.000000e+000 0.000000e+000 0.000000e+000
         vertex 1.000000e+001 1.000000e+001 0.000000e+000
         vertex 1.000000e+001 0.000000e+000 0.000000e+000
      endloop
   endfacet
   facet normal 0.000000e+000 1.000000e+000 0.000000e+000
      outer loop
         vertex 8.659943e+000 1.000000e+001 9.636312e+000
         vertex 8.691762e+000 1.000000e+001 1.000000e+001
         vertex 1.000000e+001 1.000000e+001 1.000000e+001
      endloop
   endfacet
   facet normal 0.000000e+000 1.000000e+000 0.000000e+000
      outer loop
         vertex 4.992968e+000 1.000000e+001 8.653749e+000
         vertex 5.251116e+000 1.000000e+001 8.395601e+000
         vertex 0.000000e+000 1.000000e+001 0.000000e+000
      endloop
   endfacet
   facet normal 0.000000e+000 1.000000e+000 0.000000e+000
      outer loop
         vertex 0.000000e+000 1.000000e+001 0.000000e+000
         vertex 5.251116e+000 1.000000e+001 8.395601e+000
         vertex 5.550170e+000 1.000000e+001 8.186201e+000
      endloop
   endfacet
   facet normal 0.000000e+000 1.000000e+000 0.000000e+000
      outer loop
         vertex 4.502973e+000 1.000000e+001 1.000000e+001
         vertex 4.534791e+000 1.000000e+001 9.636312e+000
         vertex 0.000000e+000 1.000000e+001 1.000000e+001
      endloop
   endfacet
   facet normal 0.000000e+000 1.000000e+000 0.000000e+000
      outer loop
         vertex 0.000000e+000 1.000000e+001 1.000000e+001
         vertex 4.534791e+000 1.000000e+001 9.636312e+000
         vertex 4.629280e+000 1.000000e+001 9.283675e+000
      endloop
   endfacet
   facet normal 0.000000e+000 1.000000e+000 0.000000e+000
      outer loop
         vertex 0.000000e+000 1.000000e+001 1.000000e+001
         vertex 4.629280e+000 1.000000e+001 9.283675e+000
         vertex 0.000000e+000 1.000000e+001 0.000000e+000
      endloop
   endfacet
   facet normal 0.000000e+000 1.000000e+000 0.000000e+000
      outer loop
         vertex 0.000000e+000 1.000000e+001 0.000000e+000
         vertex 4.629280e+000 1.000000e+001 9.283675e+000
         vertex 4.783568e+000 1.000000e+001 8.952802e+000
      endloop
   endfacet
   facet normal 0.000000e+000 1.000000e+000 0.000000e+000
      outer loop
         vertex 0.000000e+000 1.000000e+001 0.000000e+000
         vertex 4.783568e+000 1.000000e+001 8.952802e+000
         vertex 4.992968e+000 1.000000e+001 8.653749e+000
      endloop
   endfacet
   facet normal 0.000000e+000 1.000000e+000 0.000000e+000
      outer loop
         vertex 6.961055e+000 1.000000e+001 7.937424e+000
         vertex 7.313692e+000 1.000000e+001 8.031913e+000
         vertex 1.000000e+001 1.000000e+001 0.000000e+000
      endloop
   endfacet
   facet normal 0.000000e+000 1.000000e+000 0.000000e+000
      outer loop
         vertex 1.000000e+001 1.000000e+001 0.000000e+000
         vertex 7.313692e+000 1.000000e+001 8.031913e+000
         vertex 7.644564e+000 1.000000e+001 8.186201e+000
      endloop
   endfacet
   facet normal 0.000000e+000 1.000000e+000 0.000000e+000
      outer loop
         vertex 1.000000e+001 1.000000e+001 0.000000e+000
         vertex 7.644564e+000 1.000000e+001 8.186201e+000
         vertex 7.943618e+000 1.000000e+001 8.395601e+000
      endloop
   endfacet
   facet normal 0.000000e+000 1.000000e+000 0.000000e+000
      outer loop
         vertex 5.550170e+000 1.000000e+001 8.186201e+000
         vertex 5.881042e+000 1.000000e+001 8.031913e+000
         vertex 0.000000e+000 1.000000e+001 0.000000e+000
      endloop
   endfacet
   facet normal 0.000000e+000 1.000000e+000 0.000000e+000
      outer loop
         vertex 0.000000e+000 1.000000e+001 0.000000e+000
         vertex 5.881042e+000 1.000000e+001 8.031913e+000
         vertex 6.233679e+000 1.000000e+001 7.937424e+000
      endloop
   endfacet
   facet normal 0.000000e+000 1.000000e+000 0.000000e+000
      outer loop
         vertex 0.000000e+000 1.000000e+001 0.000000e+000
         vertex 6.233679e+000 1.000000e+001 7.937424e+000
         vertex 1.000000e+001 1.000000e+001 0.000000e+000
      endloop
   endfacet
   facet normal 0.000000e+000 1.000000e+000 0.000000e+000
      outer loop
         vertex 1.000000e+001 1.000000e+001 0.000000e+000
         vertex 6.233679e+000 1.000000e+001 7.937424e+000
         vertex 6.597367e+000 1.000000e+001 7.905605e+000
      endloop
   endfacet
   facet normal 0.000000e+000 1.000000e+000 0.000000e+000
      outer loop
         vertex 1.000000e+001 1.000000e+001 0.000000e+000
         vertex 6.597367e+000 1.000000e+001 7.905605e+000
         vertex 6.961055e+000 1.000000e+001 7.937424e+000
      endloop
   endfacet
   facet normal 0.000000e+000 1.000000e+000 0.000000e+000
      outer loop
         vertex 7.943618e+000 1.000000e+001 8.395601e+000
         vertex 8.201766e+000 1.000000e+001 8.653749e+000
         vertex 1.000000e+001 1.000000e+001 0.000000e+000
      endloop
   endfacet
   facet normal 0.000000e+000 1.000000e+000 0.000000e+000
      outer loop
         vertex 1.000000e+001 1.000000e+001 0.000000e+000
         vertex 8.201766e+000 1.000000e+001 8.653749e+000
         vertex 8.411165e+000 1.000000e+001 8.952802e+000
      endloop
   endfacet
   facet normal 0.000000e+000 1.000000e+000 0.000000e+000
      outer loop
         vertex 1.000000e+001 1.000000e+001 0.000000e+000
         vertex 8.411165e+000 1.000000e+001 8.952802e+000
         vertex 1.000000e+001 1.000000e+001 1.000000e+001
      endloop
   endfacet
   facet normal 0.000000e+000 1.000000e+000 0.000000e+000
      outer loop
         vertex 1.000000e+001 1.000000e+001 1.000000e+001
         vertex 8.411165e+000 1.000000e+001 8.952802e+000
         vertex 8.565454e+000 1.000000e+001 9.283675e+000
      endloop
   endfacet
   facet normal 0.000000e+000 1.000000e+000 0.000000e+000
      outer loop
         vertex 1.000000e+001 1.000000e+001 1.000000e+001
         vertex 8.565454e+000 1.000000e+001 9.283675e+000
         vertex 8.659943e+000 1.000000e+001 9.636312e+000
      endloop
   endfacet
   facet normal 0.000000e+000 -1.000000e+000 0.000000e+000
      outer loop
         vertex 4.534791e+000 0.000000e+000 9.636312e+000
         vertex 4.502973e+000 0.000000e+000 1.000000e+001
         vertex 0.000000e+000 0.000000e+000 1.000000e+001
      endloop
   endfacet
   facet normal 0.000000e+000 -1.000000e+000 0.000000e+000
      outer loop
         vertex 5.550170e+000 0.000000e+000 8.186201e+000
         vertex 5.251116e+000 0.000000e+000 8.395601e+000
         vertex 0.000000e+000 0.000000e+000 0.000000e+000
      endloop
   endfacet
   facet normal 0.000000e+000 -1.000000e+000 0.000000e+000
      outer loop
         vertex 5.550170e+000 0.000000e+000 8.186201e+000
         vertex 0.000000e+000 0.000000e+000 0.000000e+000
         vertex 5.881042e+000 0.000000e+000 8.031913e+000
      endloop
   endfacet
   facet normal 0.000000e+000 -1.000000e+000 0.000000e+000
      outer loop
         vertex 8.201766e+000 0.000000e+000 8.653749e+000
         vertex 7.943618e+000 0.000000e+000 8.395601e+000
         vertex 1.000000e+001 0.000000e+000 0.000000e+000
      endloop
   endfacet
   facet normal 0.000000e+000 -1.000000e+000 0.000000e+000
      outer loop
         vertex 1.000000e+001 0.000000e+000 0.000000e+000
         vertex 7.943618e+000 0.000000e+000 8.395601e+000
         vertex 7.644564e+000 0.000000e+000 8.186201e+000
      endloop
   endfacet
   facet normal 0.000000e+000 -1.000000e+000 0.000000e+000
      outer loop
         vertex 1.000000e+001 0.000000e+000 0.000000e+000
         vertex 7.644564e+000 0.000000e+000 8.186201e+000
         vertex 7.313692e+000 0.000000e+000 8.031913e+000
      endloop
   endfacet
   facet normal 0.000000e+000 -1.000000e+000 0.000000e+000
      outer loop
         vertex 7.313692e+000 0.000000e+000 8.031913e+000
         vertex 6.961055e+000 0.000000e+000 7.937424e+000
         vertex 1.000000e+001 0.000000e+000 0.000000e+000
      endloop
   endfacet
   facet normal 0.000000e+000 -1.000000e+000 0.000000e+000
      outer loop
         vertex 1.000000e+001 0.000000e+000 0.000000e+000
         vertex 6.961055e+000 0.000000e+000 7.937424e+000
         vertex 6.597367e+000 0.000000e+000 7.905605e+000
      endloop
   endfacet
   facet normal 0.000000e+000 -1.000000e+000 0.000000e+000
      outer loop
         vertex 1.000000e+001 0.000000e+000 0.000000e+000
         vertex 6.597367e+000 0.000000e+000 7.905605e+000
         vertex 0.000000e+000 0.000000e+000 0.000000e+000
      endloop
   endfacet
   facet normal 0.000000e+000 -1.000000e+000 0.000000e+000
      outer loop
         vertex 0.000000e+000 0.000000e+000 0.000000e+000
         vertex 6.597367e+000 0.000000e+000 7.905605e+000
         vertex 6.233679e+000 0.000000e+000 7.937424e+000
      endloop
   endfacet
   facet normal 0.000000e+000 -1.000000e+000 0.000000e+000
      outer loop
         vertex 0.000000e+000 0.000000e+000 0.000000e+000
         vertex 6.233679e+000 0.000000e+000 7.937424e+000
         vertex 5.881042e+000 0.000000e+000 8.031913e+000
      endloop
   endfacet
   facet normal 0.000000e+000 -1.000000e+000 0.000000e+000
      outer loop
         vertex 5.251116e+000 0.000000e+000 8.395601e+000
         vertex 4.992968e+000 0.000000e+000 8.653749e+000
         vertex 0.000000e+000 0.000000e+000 0.000000e+000
      endloop
   endfacet
   facet normal 0.000000e+000 -1.000000e+000 0.000000e+000
      outer loop
         vertex 0.000000e+000 0.000000e+000 0.000000e+000
         vertex 4.992968e+000 0.000000e+000 8.653749e+000
         vertex 4.783568e+000 0.000000e+000 8.952802e+000
      endloop
   endfacet
   facet normal 0.000000e+000 -1.000000e+000 0.000000e+000
      outer loop
         vertex 0.000000e+000 0.000000e+000 0.000000e+000
         vertex 4.783568e+000 0.000000e+000 8.952802e+000
         vertex 0.000000e+000 0.000000e+000 1.000000e+001
      endloop
   endfacet
   facet normal 0.000000e+000 -1.000000e+000 0.000000e+000
      outer loop
         vertex 0.000000e+000 0.000000e+000 1.000000e+001
         vertex 4.783568e+000 0.000000e+000 8.952802e+000
         vertex 4.629280e+000 0.000000e+000 9.283675e+000
      endloop
   endfacet
   facet normal 0.000000e+000 -1.000000e+000 0.000000e+000
      outer loop
         vertex 0.000000e+000 0.000000e+000 1.000000e+001
         vertex 4.629280e+000 0.000000e+000 9.283675e+000
         vertex 4.534791e+000 0.000000e+000 9.636312e+000
      endloop
   endfacet
   facet normal 0.000000e+000 -1.000000e+000 0.000000e+000
      outer loop
         vertex 8.691762e+000 0.000000e+000 1.000000e+001
         vertex 8.659943e+000 0.000000e+000 9.636312e+000
         vertex 1.000000e+001 0.000000e+000 1.000000e+001
      endloop
   endfacet
   facet normal 0.000000e+000 -1.000000e+000 0.000000e+000
      outer loop
         vertex 1.000000e+001 0.000000e+000 1.000000e+001
         vertex 8.659943e+000 0.000000e+000 9.636312e+000
         vertex 8.565454e+000 0.000000e+000 9.283675e+000
      endloop
   endfacet
   facet normal 0.000000e+000 -1.000000e+000 0.000000e+000
      outer loop
         vertex 1.000000e+001 0.000000e+000 1.000000e+001
         vertex 8.565454e+000 0.000000e+000 9.283675e+000
         vertex 1.000000e+001 0.000000e+000 0.000000e+000
      endloop
   endfacet
   facet normal 0.000000e+000 -1.000000e+000 0.000000e+000
      outer loop
         vertex 1.000000e+001 0.000000e+000 0.000000e+000
         vertex 8.565454e+000 0.000000e+000 9.283675e+000
         vertex 8.411165e+000 0.000000e+000 8.952802e+000
      endloop
   endfacet
   facet normal 0.000000e+000 -1.000000e+000 0.000000e+000
      outer loop
         vertex 1.000000e+001 0.000000e+000 0.000000e+000
         vertex 8.411165e+000 0.000000e+000 8.952802e+000
         vertex 8.201766e+000 0.000000e+000 8.653749e+000
      endloop
   endfacet
   facet normal -9.983119e-001 0.000000e+000 5.807913e-002
      outer loop
         vertex 8.691762e+000 0.000000e+000 1.000000e+001
         vertex 8.691762e+000 1.000000e+001 1.000000e+001
         vertex 8.659943e+000 1.000000e+001 9.636312e+000
      endloop
   endfacet
   facet normal -9.932307e-001 0.000000e+000 1.161583e-001
      outer loop
         vertex 8.691762e+000 0.000000e+000 1.000000e+001
         vertex 8.659943e+000 1.000000e+001 9.636312e+000
         vertex 8.659943e+000 0.000000e+000 9.636312e+000
      endloop
   endfacet
   facet normal -9.730600e-001 0.000000e+000 2.305519e-001
      outer loop
         vertex 8.659943e+000 0.000000e+000 9.636312e+000
         vertex 8.659943e+000 1.000000e+001 9.636312e+000
         vertex 8.565454e+000 1.000000e+001 9.283675e+000
      endloop
   endfacet
   facet normal -9.579706e-001 0.000000e+000 2.868663e-001
      outer loop
         vertex 8.659943e+000 0.000000e+000 9.636312e+000
         vertex 8.565454e+000 1.000000e+001 9.283675e+000
         vertex 8.565454e+000 0.000000e+000 9.283675e+000
      endloop
   endfacet
   facet normal -9.182422e-001 0.000000e+000 3.960194e-001
      outer loop
         vertex 8.565454e+000 0.000000e+000 9.283675e+000
         vertex 8.565454e+000 1.000000e+001 9.283675e+000
         vertex 8.411165e+000 1.000000e+001 8.952802e+000
      endloop
   endfacet
   facet normal -8.936031e-001 0.000000e+000 4.488580e-001
      outer loop
         vertex 8.565454e+000 0.000000e+000 9.283675e+000
         vertex 8.411165e+000 1.000000e+001 8.952802e+000
         vertex 8.411165e+000 0.000000e+000 8.952802e+000
      endloop
   endfacet
   facet normal -8.355240e-001 0.000000e+000 5.494540e-001
      outer loop
         vertex 8.411165e+000 0.000000e+000 8.952802e+000
         vertex 8.411165e+000 1.000000e+001 8.952802e+000
         vertex 8.201766e+000 1.000000e+001 8.653749e+000
      endloop
   endfacet
   facet normal -8.020838e-001 0.000000e+000 5.972114e-001
      outer loop
         vertex 8.411165e+000 0.000000e+000 8.952802e+000
         vertex 8.201766e+000 1.000000e+001 8.653749e+000
         vertex 8.201766e+000 0.000000e+000 8.653749e+000
      endloop
   endfacet
   facet normal -7.274188e-001 0.000000e+000 6.861938e-001
      outer loop
         vertex 8.201766e+000 0.000000e+000 8.653749e+000
         vertex 8.201766e+000 1.000000e+001 8.653749e+000
         vertex 7.943618e+000 1.000000e+001 8.395601e+000
      endloop
   endfacet
   facet normal -6.861938e-001 0.000000e+000 7.274188e-001
      outer loop
         vertex 8.201766e+000 0.000000e+000 8.653749e+000
         vertex 7.943618e+000 1.000000e+001 8.395601e+000
         vertex 7.943618e+000 0.000000e+000 8.395601e+000
      endloop
   endfacet
   facet normal -5.972114e-001 0.000000e+000 8.020838e-001
      outer loop
         vertex 7.943618e+000 0.000000e+000 8.395601e+000
         vertex 7.943618e+000 1.000000e+001 8.395601e+000
         vertex 7.644564e+000 1.000000e+001 8.186201e+000
      endloop
   endfacet
   facet normal -5.494540e-001 0.000000e+000 8.355240e-001
      outer loop
         vertex 7.943618e+000 0.000000e+000 8.395601e+000
         vertex 7.644564e+000 1.000000e+001 8.186201e+000
         vertex 7.644564e+000 0.000000e+000 8.186201e+000
      endloop
   endfacet
   facet normal -4.488580e-001 0.000000e+000 8.936031e-001
      outer loop
         vertex 7.644564e+000 0.000000e+000 8.186201e+000
         vertex 7.644564e+000 1.000000e+001 8.186201e+000
         vertex 7.313692e+000 1.000000e+001 8.031913e+000
      endloop
   endfacet
   facet normal -3.960194e-001 0.000000e+000 9.182422e-001
      outer loop
         vertex 7.644564e+000 0.000000e+000 8.186201e+000
         vertex 7.313692e+000 1.000000e+001 8.031913e+000
         vertex 7.313692e+000 0.000000e+000 8.031913e+000
      endloop
   endfacet
   facet normal -2.868663e-001 0.000000e+000 9.579706e-001
      outer loop
         vertex 7.313692e+000 0.000000e+000 8.031913e+000
         vertex 7.313692e+000 1.000000e+001 8.031913e+000
         vertex 6.961055e+000 1.000000e+001 7.937424e+000
      endloop
   endfacet
   facet normal -2.305519e-001 0.000000e+000 9.730600e-001
      outer loop
         vertex 7.313692e+000 0.000000e+000 8.031913e+000
         vertex 6.961055e+000 1.000000e+001 7.937424e+000
         vertex 6.961055e+000 0.000000e+000 7.937424e+000
      endloop
   endfacet
   facet normal -1.161583e-001 0.000000e+000 9.932307e-001
      outer loop
         vertex 6.961055e+000 0.000000e+000 7.937424e+000
         vertex 6.961055e+000 1.000000e+001 7.937424e+000
         vertex 6.597367e+000 1.000000e+001 7.905605e+000
      endloop
   endfacet
   facet normal -5.807913e-002 0.000000e+000 9.983119e-001
      outer loop
         vertex 6.961055e+000 0.000000e+000 7.937424e+000
         vertex 6.597367e+000 1.000000e+001 7.905605e+000
         vertex 6.597367e+000 0.000000e+000 7.905605e+000
      endloop
   endfacet
   facet normal 5.807913e-002 0.000000e+000 9.983119e-001
      outer loop
         vertex 6.597367e+000 0.000000e+000 7.905605e+000
         vertex 6.597367e+000 1.000000e+001 7.905605e+000
         vertex 6.233679e+000 1.000000e+001 7.937424e+000
      endloop
   endfacet
   facet normal 1.161583e-001 0.000000e+000 9.932307e-001
      outer loop
         vertex 6.597367e+000 0.000000e+000 7.905605e+000
         vertex 6.233679e+000 1.000000e+001 7.937424e+000
         vertex 6.233679e+000 0.000000e+000 7.937424e+000
      endloop
   endfacet
   facet normal 2.305519e-001 0.000000e+000 9.730600e-001
      outer loop
         vertex 6.233679e+000 0.000000e+000 7.937424e+000
         vertex 6.233679e+000 1.000000e+001 7.937424e+000
         vertex 5.881042e+000 1.000000e+001 8.031913e+000
      endloop
   endfacet
   facet normal 2.868663e-001 0.000000e+000 9.579706e-001
      outer loop
         vertex 6.233679e+000 0.000000e+000 7.937424e+000
         vertex 5.881042e+000 1.000000e+001 8.031913e+000
         vertex 5.881042e+000 0.000000e+000 8.031913e+000
      endloop
   endfacet
   facet normal 3.960194e-001 0.000000e+000 9.182422e-001
      outer loop
         vertex 5.881042e+000 0.000000e+000 8.031913e+000
         vertex 5.881042e+000 1.000000e+001 8.031913e+000
         vertex 5.550170e+000 1.000000e+001 8.186201e+000
      endloop
   endfacet
   facet normal 4.488580e-001 0.000000e+000 8.936031e-001
      outer loop
         vertex 5.881042e+000 0.000000e+000 8.031913e+000
         vertex 5.550170e+000 1.000000e+001 8.186201e+000
         vertex 5.550170e+000 0.000000e+000 8.186201e+000
      endloop
   endfacet
   facet normal 5.494540e-001 0.000000e+000 8.355240e-001
      outer loop
         vertex 5.550170e+000 0.000000e+000 8.186201e+000
         vertex 5.550170e+000 1.000000e+001 8.186201e+000
         vertex 5.251116e+000 1.000000e+001 8.395601e+000
      endloop
   endfacet
   facet normal 5.972114e-001 0.000000e+000 8.020838e-001
      outer loop
         vertex 5.550170e+000 0.000000e+000 8.186201e+000
         vertex 5.251116e+000 1.000000e+001 8.395601e+000
         vertex 5.251116e+000 0.000000e+000 8.395601e+000
      endloop
   endfacet
   facet normal 6.861938e-001 0.000000e+000 7.274188e-001
      outer loop
         vertex 5.251116e+000 0.000000e+000 8.395601e+000
         vertex 5.251116e+000 1.000000e+001 8.395601e+000
         vertex 4.992968e+000 1.000000e+001 8.653749e+000
      endloop
   endfacet
   facet normal 7.274188e-001 0.000000e+000 6.861938e-001
      outer loop
         vertex 5.251116e+000 0.000000e+000 8.395601e+000
         vertex 4.992968e+000 1.000000e+001 8.653749e+000
         vertex 4.992968e+000 0.000000e+000 8.653749e+000
      endloop
   endfacet
   facet normal 8.020838e-001 0.000000e+000 5.972114e-001
      outer loop
         vertex 4.992968e+000 0.000000e+000 8.653749e+000
         vertex 4.992968e+000 1.000000e+001 8.653749e+000
         vertex 4.783568e+000 1.000000e+001 8.952802e+000
      endloop
   endfacet
   facet normal 8.355240e-001 0.000000e+000 5.494540e-001
      outer loop
         vertex 4.992968e+000 0.000000e+000 8.653749e+000
         vertex 4.783568e+000 1.000000e+001 8.952802e+000
         vertex 4.783568e+000 0.000000e+000 8.952802e+000
      endloop
   endfacet
   facet normal 8.936031e-001 0.000000e+000 4.488580e-001
      outer loop
         vertex 4.783568e+000 0.000000e+000 8.952802e+000
         vertex 4.783568e+000 1.000000e+001 8.952802e+000
         vertex 4.629280e+000 1.000000e+001 9.283675e+000
      endloop
   endfacet
   facet normal 9.182422e-001 0.000000e+000 3.960194e-001
      outer loop
         vertex 4.783568e+000 0.000000e+000 8.952802e+000
         vertex 4.629280e+000 1.000000e+001 9.283675e+000
         vertex 4.629280e+000 0.000000e+000 9.283675e+000
      endloop
   endfacet
   facet normal 9.579706e-001 0.000000e+000 2.868663e-001
      outer loop
         vertex 4.629280e+000 0.000000e+000 9.283675e+000
         vertex 4.629280e+000 1.000000e+001 9.283675e+000
         vertex 4.534791e+000 1.000000e+001 9.636312e+000
      endloop
   endfacet
   facet normal 9.730600e-001 0.000000e+000 2.305519e-001
      outer loop
         vertex 4.629280e+000 0.000000e+000 9.283675e+000
         vertex 4.534791e+000 1.000000e+001 9.636312e+000
         vertex 4.534791e+000 0.000000e+000 9.636312e+000
      endloop
   endfacet
   facet normal 9.932307e-001 0.000000e+000 1.161583e-001
      outer loop
         vertex 4.534791e+000 0.000000e+000 9.636312e+000
         vertex 4.534791e+000 1.000000e+001 9.636312e+000
         vertex 4.502973e+000 1.000000e+001 1.000000e+001
      endloop
   endfacet
   facet normal 9.983119e-001 0.000000e+000 5.807913e-002
      outer loop
         vertex 4.534791e+000 0.000000e+000 9.636312e+000
         vertex 4.502973e+000 1.000000e+001 1.000000e+001
         vertex 4.502973e+000 0.000000e+000 1.000000e+001
      endloop
   endfacet
endsolid