solid 5_523
   facet normal 0.000000e+000 0.000000e+000 1.000000e+000
      outer loop
         vertex 1.000000e+001 8.083002e+000 1.000000e+001
         vertex 1.000000e+001 1.000000e+001 1.000000e+001
         vertex 0.000000e+000 8.083002e+000 1.000000e+001
      endloop
   endfacet
   facet normal 0.000000e+000 0.000000e+000 1.000000e+000
      outer loop
         vertex 0.000000e+000 8.083002e+000 1.000000e+001
         vertex 1.000000e+001 1.000000e+001 1.000000e+001
         vertex 0.000000e+000 1.000000e+001 1.000000e+001
      endloop
   endfacet
   facet normal -1.000000e+000 0.000000e+000 0.000000e+000
      outer loop
         vertex 0.000000e+000 8.053099e+000 9.639120e+000
         vertex 0.000000e+000 8.083002e+000 1.000000e+001
         vertex 0.000000e+000 1.000000e+001 1.000000e+001
      endloop
   endfacet
   facet normal -1.000000e+000 0.000000e+000 0.000000e+000
      outer loop
         vertex 0.000000e+000 6.428699e+000 7.874551e+000
         vertex 0.000000e+000 6.771195e+000 7.992130e+000
         vertex 0.000000e+000 1.000000e+001 0.000000e+000
      endloop
   endfacet
   facet normal -1.000000e+000 0.000000e+000 0.000000e+000
      outer loop
         vertex 0.000000e+000 1.000000e+001 0.000000e+000
         vertex 0.000000e+000 6.771195e+000 7.992130e+000
         vertex 0.000000e+000 7.089668e+000 8.164478e+000
      endloop
   endfacet
   facet normal -1.000000e+000 0.000000e+000 0.000000e+000
      outer loop
         vertex 0.000000e+000 1.000000e+001 0.000000e+000
         vertex 0.000000e+000 7.089668e+000 8.164478e+000
         vertex 0.000000e+000 7.375429e+000 8.386896e+000
      endloop
   endfacet
   facet normal -1.000000e+000 0.000000e+000 0.000000e+000
      outer loop
         vertex 0.000000e+000 3.697922e+000 1.000000e+001
         vertex 0.000000e+000 3.727825e+000 9.639120e+000
         vertex 0.000000e+000 0.000000e+000 1.000000e+001
      endloop
   endfacet
   facet normal -1.000000e+000 0.000000e+000 0.000000e+000
      outer loop
         vertex 0.000000e+000 0.000000e+000 1.000000e+001
         vertex 0.000000e+000 3.727825e+000 9.639120e+000
         vertex 0.000000e+000 3.816720e+000 9.288083e+000
      endloop
   endfacet
   facet normal -1.000000e+000 0.000000e+000 0.000000e+000
      outer loop
         vertex 0.000000e+000 0.000000e+000 1.000000e+001
         vertex 0.000000e+000 3.816720e+000 9.288083e+000
         vertex 0.000000e+000 0.000000e+000 0.000000e+000
      endloop
   endfacet
   facet normal -1.000000e+000 0.000000e+000 0.000000e+000
      outer loop
         vertex 0.000000e+000 0.000000e+000 0.000000e+000
         vertex 0.000000e+000 3.816720e+000 9.288083e+000
         vertex 0.000000e+000 3.962181e+000 8.956466e+000
      endloop
   endfacet
   facet normal -1.000000e+000 0.000000e+000 0.000000e+000
      outer loop
         vertex 0.000000e+000 0.000000e+000 0.000000e+000
         vertex 0.000000e+000 3.962181e+000 8.956466e+000
         vertex 0.000000e+000 4.160240e+000 8.653314e+000
      endloop
   endfacet
   facet normal -1.000000e+000 0.000000e+000 0.000000e+000
      outer loop
         vertex 0.000000e+000 4.160240e+000 8.653314e+000
         vertex 0.000000e+000 4.405495e+000 8.386896e+000
         vertex 0.000000e+000 0.000000e+000 0.000000e+000
      endloop
   endfacet
   facet normal -1.000000e+000 0.000000e+000 0.000000e+000
      outer loop
         vertex 0.000000e+000 0.000000e+000 0.000000e+000
         vertex 0.000000e+000 4.405495e+000 8.386896e+000
         vertex 0.000000e+000 4.691256e+000 8.164478e+000
      endloop
   endfacet
   facet normal -1.000000e+000 0.000000e+000 0.000000e+000
      outer loop
         vertex 0.000000e+000 0.000000e+000 0.000000e+000
         vertex 0.000000e+000 4.691256e+000 8.164478e+000
         vertex 0.000000e+000 5.009729e+000 7.992130e+000
      endloop
   endfacet
   facet normal -1.000000e+000 0.000000e+000 0.000000e+000
      outer loop
         vertex 0.000000e+000 7.375429e+000 8.386896e+000
         vertex 0.000000e+000 7.620684e+000 8.653314e+000
         vertex 0.000000e+000 1.000000e+001 0.000000e+000
      endloop
   endfacet
   facet normal -1.000000e+000 0.000000e+000 0.000000e+000
      outer loop
         vertex 0.000000e+000 1.000000e+001 0.000000e+000
         vertex 0.000000e+000 7.620684e+000 8.653314e+000
         vertex 0.000000e+000 7.818744e+000 8.956466e+000
      endloop
   endfacet
   facet normal -1.000000e+000 0.000000e+000 0.000000e+000
      outer loop
         vertex 0.000000e+000 1.000000e+001 0.000000e+000
         vertex 0.000000e+000 7.818744e+000 8.956466e+000
         vertex 0.000000e+000 1.000000e+001 1.000000e+001
      endloop
   endfacet
   facet normal -1.000000e+000 0.000000e+000 0.000000e+000
      outer loop
         vertex 0.000000e+000 1.000000e+001 1.000000e+001
         vertex 0.000000e+000 7.818744e+000 8.956466e+000
         vertex 0.000000e+000 7.964204e+000 9.288083e+000
      endloop
   endfacet
   facet normal -1.000000e+000 0.000000e+000 0.000000e+000
      outer loop
         vertex 0.000000e+000 1.000000e+001 1.000000e+001
         vertex 0.000000e+000 7.964204e+000 9.288083e+000
         vertex 0.000000e+000 8.053099e+000 9.639120e+000
      endloop
   endfacet
   facet normal -1.000000e+000 0.000000e+000 0.000000e+000
      outer loop
         vertex 0.000000e+000 5.009729e+000 7.992130e+000
         vertex 0.000000e+000 5.352225e+000 7.874551e+000
         vertex 0.000000e+000 0.000000e+000 0.000000e+000
      endloop
   endfacet
   facet normal -1.000000e+000 0.000000e+000 0.000000e+000
      outer loop
         vertex 0.000000e+000 0.000000e+000 0.000000e+000
         vertex 0.000000e+000 5.352225e+000 7.874551e+000
         vertex 0.000000e+000 5.709404e+000 7.814949e+000
      endloop
   endfacet
   facet normal -1.000000e+000 0.000000e+000 0.000000e+000
      outer loop
         vertex 0.000000e+000 0.000000e+000 0.000000e+000
         vertex 0.000000e+000 5.709404e+000 7.814949e+000
         vertex 0.000000e+000 1.000000e+001 0.000000e+000
      endloop
   endfacet
   facet normal -1.000000e+000 0.000000e+000 0.000000e+000
      outer loop
         vertex 0.000000e+000 1.000000e+001 0.000000e+000
         vertex 0.000000e+000 5.709404e+000 7.814949e+000
         vertex 0.000000e+000 6.071520e+000 7.814949e+000
      endloop
   endfacet
   facet normal -1.000000e+000 0.000000e+000 0.000000e+000
      outer loop
         vertex 0.000000e+000 1.000000e+001 0.000000e+000
         vertex 0.000000e+000 6.071520e+000 7.814949e+000
         vertex 0.000000e+000 6.428699e+000 7.874551e+000
      endloop
   endfacet
   facet normal 0.000000e+000 0.000000e+000 1.000000e+000
      outer loop
         vertex 0.000000e+000 3.697922e+000 1.000000e+001
         vertex 0.000000e+000 0.000000e+000 1.000000e+001
         vertex 1.000000e+001 3.697922e+000 1.000000e+001
      endloop
   endfacet
   facet normal 0.000000e+000 0.000000e+000 1.000000e+000
      outer loop
         vertex 1.000000e+001 3.697922e+000 1.000000e+001
         vertex 0.000000e+000 0.000000e+000 1.000000e+001
         vertex 1.000000e+001 0.000000e+000 1.000000e+001
      endloop
   endfacet
   facet normal 1.000000e+000 0.000000e+000 0.000000e+000
      outer loop
         vertex 1.000000e+001 3.727825e+000 9.639120e+000
         vertex 1.000000e+001 3.697922e+000 1.000000e+001
         vertex 1.000000e+001 0.000000e+000 1.000000e+001
      endloop
   endfacet
   facet normal 1.000000e+000 0.000000e+000 0.000000e+000
      outer loop
         vertex 1.000000e+001 8.083002e+000 1.000000e+001
         vertex 1.000000e+001 8.053099e+000 9.639120e+000
         vertex 1.000000e+001 1.000000e+001 1.000000e+001
      endloop
   endfacet
   facet normal 1.000000e+000 0.000000e+000 0.000000e+000
      outer loop
         vertex 1.000000e+001 1.000000e+001 1.000000e+001
         vertex 1.000000e+001 8.053099e+000 9.639120e+000
         vertex 1.000000e+001 7.964204e+000 9.288083e+000
      endloop
   endfacet
   facet normal 1.000000e+000 0.000000e+000 0.000000e+000
      outer loop
         vertex 1.000000e+001 1.000000e+001 1.000000e+001
         vertex 1.000000e+001 7.964204e+000 9.288083e+000
         vertex 1.000000e+001 1.000000e+001 0.000000e+000
      endloop
   endfacet
   facet normal 1.000000e+000 0.000000e+000 0.000000e+000
      outer loop
         vertex 1.000000e+001 1.000000e+001 0.000000e+000
         vertex 1.000000e+001 7.964204e+000 9.288083e+000
         vertex 1.000000e+001 7.818744e+000 8.956466e+000
      endloop
   endfacet
   facet normal 1.000000e+000 0.000000e+000 0.000000e+000
      outer loop
         vertex 1.000000e+001 1.000000e+001 0.000000e+000
         vertex 1.000000e+001 7.818744e+000 8.956466e+000
         vertex 1.000000e+001 7.620684e+000 8.653314e+000
      endloop
   endfacet
   facet normal 1.000000e+000 0.000000e+000 0.000000e+000
      outer loop
         vertex 1.000000e+001 7.620684e+000 8.653314e+000
         vertex 1.000000e+001 7.375429e+000 8.386896e+000
         vertex 1.000000e+001 1.000000e+001 0.000000e+000
      endloop
   endfacet
   facet normal 1.000000e+000 0.000000e+000 0.000000e+000
      outer loop
         vertex 1.000000e+001 1.000000e+001 0.000000e+000
         vertex 1.000000e+001 7.375429e+000 8.386896e+000
         vertex 1.000000e+001 7.089668e+000 8.164478e+000
      endloop
   endfacet
   facet normal 1.000000e+000 0.000000e+000 0.000000e+000
      outer loop
         vertex 1.000000e+001 1.000000e+001 0.000000e+000
         vertex 1.000000e+001 7.089668e+000 8.164478e+000
         vertex 1.000000e+001 6.771195e+000 7.992130e+000
      endloop
   endfacet
   facet normal 1.000000e+000 0.000000e+000 0.000000e+000
      outer loop
         vertex 1.000000e+001 5.352225e+000 7.874551e+000
         vertex 1.000000e+001 5.009729e+000 7.992130e+000
         vertex 1.000000e+001 0.000000e+000 0.000000e+000
      endloop
   endfacet
   facet normal 1.000000e+000 0.000000e+000 0.000000e+000
      outer loop
         vertex 1.000000e+001 0.000000e+000 0.000000e+000
         vertex 1.000000e+001 5.009729e+000 7.992130e+000
         vertex 1.000000e+001 4.691256e+000 8.164478e+000
      endloop
   endfacet
   facet normal 1.000000e+000 0.000000e+000 0.000000e+000
      outer loop
         vertex 1.000000e+001 0.000000e+000 0.000000e+000
         vertex 1.000000e+001 4.691256e+000 8.164478e+000
         vertex 1.000000e+001 4.405495e+000 8.386896e+000
      endloop
   endfacet
   facet normal 1.000000e+000 0.000000e+000 0.000000e+000
      outer loop
         vertex 1.000000e+001 6.771195e+000 7.992130e+000
         vertex 1.000000e+001 6.428699e+000 7.874551e+000
         vertex 1.000000e+001 1.000000e+001 0.000000e+000
      endloop
   endfacet
   facet normal 1.000000e+000 0.000000e+000 0.000000e+000
      outer loop
         vertex 1.000000e+001 1.000000e+001 0.000000e+000
         vertex 1.000000e+001 6.428699e+000 7.874551e+000
         vertex 1.000000e+001 6.071520e+000 7.814949e+000
      endloop
   endfacet
   facet normal 1.000000e+000 0.000000e+000 0.000000e+000
      outer loop
         vertex 1.000000e+001 1.000000e+001 0.000000e+000
         vertex 1.000000e+001 6.071520e+000 7.814949e+000
         vertex 1.000000e+001 0.000000e+000 0.000000e+000
      endloop
   endfacet
   facet normal 1.000000e+000 0.000000e+000 0.000000e+000
      outer loop
         vertex 1.000000e+001 0.000000e+000 0.000000e+000
         vertex 1.000000e+001 6.071520e+000 7.814949e+000
         vertex 1.000000e+001 5.709404e+000 7.814949e+000
      endloop
   endfacet
   facet normal 1.000000e+000 0.000000e+000 0.000000e+000
      outer loop
         vertex 1.000000e+001 0.000000e+000 0.000000e+000
         vertex 1.000000e+001 5.709404e+000 7.814949e+000
         vertex 1.000000e+001 5.352225e+000 7.874551e+000
      endloop
   endfacet
   facet normal 1.000000e+000 0.000000e+000 0.000000e+000
      outer loop
         vertex 1.000000e+001 4.405495e+000 8.386896e+000
         vertex 1.000000e+001 4.160240e+000 8.653314e+000
         vertex 1.000000e+001 0.000000e+000 0.000000e+000
      endloop
   endfacet
   facet normal 1.000000e+000 0.000000e+000 0.000000e+000
      outer loop
         vertex 1.000000e+001 0.000000e+000 0.000000e+000
         vertex 1.000000e+001 4.160240e+000 8.653314e+000
         vertex 1.000000e+001 3.962181e+000 8.956466e+000
      endloop
   endfacet
   facet normal 1.000000e+000 0.000000e+000 0.000000e+000
      outer loop
         vertex 1.000000e+001 0.000000e+000 0.000000e+000
         vertex 1.000000e+001 3.962181e+000 8.956466e+000
         vertex 1.000000e+001 0.000000e+000 1.000000e+001
      endloop
   endfacet
   facet normal 1.000000e+000 0.000000e+000 0.000000e+000
      outer loop
         vertex 1.000000e+001 0.000000e+000 1.000000e+001
         vertex 1.000000e+001 3.962181e+000 8.956466e+000
         vertex 1.000000e+001 3.816720e+000 9.288083e+000
      endloop
   endfacet
   facet normal 1.000000e+000 0.000000e+000 0.000000e+000
      outer loop
         vertex 1.000000e+001 0.000000e+000 1.000000e+001
         vertex 1.000000e+001 3.816720e+000 9.288083e+000
         vertex 1.000000e+001 3.727825e+000 9.639120e+000
      endloop
   endfacet
   facet normal 0.000000e+000 0.000000e+000 -1.000000e+000
      outer loop
         vertex 0.000000e+000 1.000000e+001 0.000000e+000
         vertex 1.000000e+001 1.000000e+001 0.000000e+000
         vertex 0.000000e+000 0.000000e+000 0.000000e+000
      endloop
   endfacet
   facet normal 0.000000e+000 0.000000e+000 -1.000000e+000
      outer loop
         vertex 0.000000e+000 0.000000e+000 0.000000e+000
         vertex 1.000000e+001 1.000000e+001 0.000000e+000
         vertex 1.000000e+001 0.000000e+000 0.000000e+000
      endloop
   endfacet
   facet normal 0.000000e+000 1.000000e+000 0.000000e+000
      outer loop
         vertex 1.000000e+001 1.000000e+001 1.000000e+001
         vertex 1.000000e+001 1.000000e+001 0.000000e+000
         vertex 0.000000e+000 1.000000e+001 1.000000e+001
      endloop
   endfacet
   facet normal 0.000000e+000 1.000000e+000 0.000000e+000
      outer loop
         vertex 0.000000e+000 1.000000e+001 1.000000e+001
         vertex 1.000000e+001 1.000000e+001 0.000000e+000
         vertex 0.000000e+000 1.000000e+001 0.000000e+000
      endloop
   endfacet
   facet normal 0.000000e+000 -1.000000e+000 0.000000e+000
      outer loop
         vertex 1.000000e+001 0.000000e+000 0.000000e+000
         vertex 1.000000e+001 0.000000e+000 1.000000e+001
         vertex 0.000000e+000 0.000000e+000 0.000000e+000
      endloop
   endfacet
   facet normal 0.000000e+000 -1.000000e+000 0.000000e+000
      outer loop
         vertex 0.000000e+000 0.000000e+000 0.000000e+000
         vertex 1.000000e+001 0.000000e+000 1.000000e+001
         vertex 0.000000e+000 0.000000e+000 1.000000e+001
      endloop
   endfacet
   facet normal 0.000000e+000 9.984846e-001 5.503191e-002
      outer loop
         vertex 0.000000e+000 3.697922e+000 1.000000e+001
         vertex 1.000000e+001 3.697922e+000 1.000000e+001
         vertex 1.000000e+001 3.727825e+000 9.639120e+000
      endloop
   endfacet
   facet normal 0.000000e+000 9.939246e-001 1.100638e-001
      outer loop
         vertex 0.000000e+000 3.697922e+000 1.000000e+001
         vertex 1.000000e+001 3.727825e+000 9.639120e+000
         vertex 0.000000e+000 3.727825e+000 9.639120e+000
      endloop
   endfacet
   facet normal 0.000000e+000 9.758086e-001 2.186265e-001
      outer loop
         vertex 0.000000e+000 3.727825e+000 9.639120e+000
         vertex 1.000000e+001 3.727825e+000 9.639120e+000
         vertex 1.000000e+001 3.816720e+000 9.288083e+000
      endloop
   endfacet
   facet normal 0.000000e+000 9.622528e-001 2.721573e-001
      outer loop
         vertex 0.000000e+000 3.727825e+000 9.639120e+000
         vertex 1.000000e+001 3.816720e+000 9.288083e+000
         vertex 0.000000e+000 3.816720e+000 9.288083e+000
      endloop
   endfacet
   facet normal 0.000000e+000 9.265151e-001 3.762575e-001
      outer loop
         vertex 0.000000e+000 3.816720e+000 9.288083e+000
         vertex 1.000000e+001 3.816720e+000 9.288083e+000
         vertex 1.000000e+001 3.962181e+000 8.956466e+000
      endloop
   endfacet
   facet normal 0.000000e+000 9.043333e-001 4.268270e-001
      outer loop
         vertex 0.000000e+000 3.816720e+000 9.288083e+000
         vertex 1.000000e+001 3.962181e+000 8.956466e+000
         vertex 0.000000e+000 3.962181e+000 8.956466e+000
      endloop
   endfacet
   facet normal 0.000000e+000 8.519487e-001 5.236253e-001
      outer loop
         vertex 0.000000e+000 3.962181e+000 8.956466e+000
         vertex 1.000000e+001 3.962181e+000 8.956466e+000
         vertex 1.000000e+001 4.160240e+000 8.653314e+000
      endloop
   endfacet
   facet normal 0.000000e+000 8.217459e-001 5.698540e-001
      outer loop
         vertex 0.000000e+000 3.962181e+000 8.956466e+000
         vertex 1.000000e+001 4.160240e+000 8.653314e+000
         vertex 0.000000e+000 4.160240e+000 8.653314e+000
      endloop
   endfacet
   facet normal 0.000000e+000 7.541434e-001 6.567098e-001
      outer loop
         vertex 0.000000e+000 4.160240e+000 8.653314e+000
         vertex 1.000000e+001 4.160240e+000 8.653314e+000
         vertex 1.000000e+001 4.405495e+000 8.386896e+000
      endloop
   endfacet
   facet normal 0.000000e+000 7.167435e-001 6.973369e-001
      outer loop
         vertex 0.000000e+000 4.160240e+000 8.653314e+000
         vertex 1.000000e+001 4.405495e+000 8.386896e+000
         vertex 0.000000e+000 4.405495e+000 8.386896e+000
      endloop
   endfacet
   facet normal 0.000000e+000 6.357669e-001 7.718811e-001
      outer loop
         vertex 0.000000e+000 4.405495e+000 8.386896e+000
         vertex 1.000000e+001 4.405495e+000 8.386896e+000
         vertex 1.000000e+001 4.691256e+000 8.164478e+000
      endloop
   endfacet
   facet normal 0.000000e+000 5.921901e-001 8.057982e-001
      outer loop
         vertex 0.000000e+000 4.405495e+000 8.386896e+000
         vertex 1.000000e+001 4.691256e+000 8.164478e+000
         vertex 0.000000e+000 4.691256e+000 8.164478e+000
      endloop
   endfacet
   facet normal 0.000000e+000 5.000484e-001 8.659974e-001
      outer loop
         vertex 0.000000e+000 4.691256e+000 8.164478e+000
         vertex 1.000000e+001 4.691256e+000 8.164478e+000
         vertex 1.000000e+001 5.009729e+000 7.992130e+000
      endloop
   endfacet
   facet normal 0.000000e+000 4.514834e-001 8.922795e-001
      outer loop
         vertex 0.000000e+000 4.691256e+000 8.164478e+000
         vertex 1.000000e+001 5.009729e+000 7.992130e+000
         vertex 0.000000e+000 5.009729e+000 7.992130e+000
      endloop
   endfacet
   facet normal 0.000000e+000 3.506899e-001 9.364916e-001
      outer loop
         vertex 0.000000e+000 5.009729e+000 7.992130e+000
         vertex 1.000000e+001 5.009729e+000 7.992130e+000
         vertex 1.000000e+001 5.352225e+000 7.874551e+000
      endloop
   endfacet
   facet normal 0.000000e+000 2.984614e-001 9.544217e-001
      outer loop
         vertex 0.000000e+000 5.009729e+000 7.992130e+000
         vertex 1.000000e+001 5.352225e+000 7.874551e+000
         vertex 0.000000e+000 5.352225e+000 7.874551e+000
      endloop
   endfacet
   facet normal 0.000000e+000 1.917655e-001 9.814408e-001
      outer loop
         vertex 0.000000e+000 5.352225e+000 7.874551e+000
         vertex 1.000000e+001 5.352225e+000 7.874551e+000
         vertex 1.000000e+001 5.709404e+000 7.814949e+000
      endloop
   endfacet
   facet normal 0.000000e+000 1.372982e-001 9.905298e-001
      outer loop
         vertex 0.000000e+000 5.352225e+000 7.874551e+000
         vertex 1.000000e+001 5.709404e+000 7.814949e+000
         vertex 0.000000e+000 5.709404e+000 7.814949e+000
      endloop
   endfacet
   facet normal 0.000000e+000 2.761026e-002 9.996188e-001
      outer loop
         vertex 0.000000e+000 5.709404e+000 7.814949e+000
         vertex 1.000000e+001 5.709404e+000 7.814949e+000
         vertex 1.000000e+001 6.071520e+000 7.814949e+000
      endloop
   endfacet
   facet normal 0.000000e+000 -2.761026e-002 9.996188e-001
      outer loop
         vertex 0.000000e+000 5.709404e+000 7.814949e+000
         vertex 1.000000e+001 6.071520e+000 7.814949e+000
         vertex 0.000000e+000 6.071520e+000 7.814949e+000
      endloop
   endfacet
   facet normal 0.000000e+000 -1.372982e-001 9.905298e-001
      outer loop
         vertex 0.000000e+000 6.071520e+000 7.814949e+000
         vertex 1.000000e+001 6.071520e+000 7.814949e+000
         vertex 1.000000e+001 6.428699e+000 7.874551e+000
      endloop
   endfacet
   facet normal 0.000000e+000 -1.917655e-001 9.814408e-001
      outer loop
         vertex 0.000000e+000 6.071520e+000 7.814949e+000
         vertex 1.000000e+001 6.428699e+000 7.874551e+000
         vertex 0.000000e+000 6.428699e+000 7.874551e+000
      endloop
   endfacet
   facet normal 0.000000e+000 -2.984614e-001 9.544217e-001
      outer loop
         vertex 0.000000e+000 6.428699e+000 7.874551e+000
         vertex 1.000000e+001 6.428699e+000 7.874551e+000
         vertex 1.000000e+001 6.771195e+000 7.992130e+000
      endloop
   endfacet
   facet normal 0.000000e+000 -3.506899e-001 9.364916e-001
      outer loop
         vertex 0.000000e+000 6.428699e+000 7.874551e+000
         vertex 1.000000e+001 6.771195e+000 7.992130e+000
         vertex 0.000000e+000 6.771195e+000 7.992130e+000
      endloop
   endfacet
   facet normal 0.000000e+000 -4.514834e-001 8.922795e-001
      outer loop
         vertex 0.000000e+000 6.771195e+000 7.992130e+000
         vertex 1.000000e+001 6.771195e+000 7.992130e+000
         vertex 1.000000e+001 7.089668e+000 8.164478e+000
      endloop
   endfacet
   facet normal 0.000000e+000 -5.000484e-001 8.659974e-001
      outer loop
         vertex 0.000000e+000 6.771195e+000 7.992130e+000
         vertex 1.000000e+001 7.089668e+000 8.164478e+000
         vertex 0.000000e+000 7.089668e+000 8.164478e+000
      endloop
   endfacet
   facet normal 0.000000e+000 -5.921901e-001 8.057982e-001
      outer loop
         vertex 0.000000e+000 7.089668e+000 8.164478e+000
         vertex 1.000000e+001 7.089668e+000 8.164478e+000
         vertex 1.000000e+001 7.375429e+000 8.386896e+000
      endloop
   endfacet
   facet normal 0.000000e+000 -6.357669e-001 7.718811e-001
      outer loop
         vertex 0.000000e+000 7.089668e+000 8.164478e+000
         vertex 1.000000e+001 7.375429e+000 8.386896e+000
         vertex 0.000000e+000 7.375429e+000 8.386896e+000
      endloop
   endfacet
   facet normal 0.000000e+000 -7.167435e-001 6.973369e-001
      outer loop
         vertex 0.000000e+000 7.375429e+000 8.386896e+000
         vertex 1.000000e+001 7.375429e+000 8.386896e+000
         vertex 1.000000e+001 7.620684e+000 8.653314e+000
      endloop
   endfacet
   facet normal 0.000000e+000 -7.541434e-001 6.567098e-001
      outer loop
         vertex 0.000000e+000 7.375429e+000 8.386896e+000
         vertex 1.000000e+001 7.620684e+000 8.653314e+000
         vertex 0.000000e+000 7.620684e+000 8.653314e+000
      endloop
   endfacet
   facet normal 0.000000e+000 -8.217459e-001 5.698540e-001
      outer loop
         vertex 0.000000e+000 7.620684e+000 8.653314e+000
         vertex 1.000000e+001 7.620684e+000 8.653314e+000
         vertex 1.000000e+001 7.818744e+000 8.956466e+000
      endloop
   endfacet
   facet normal 0.000000e+000 -8.519487e-001 5.236253e-001
      outer loop
         vertex 0.000000e+000 7.620684e+000 8.653314e+000
         vertex 1.000000e+001 7.818744e+000 8.956466e+000
         vertex 0.000000e+000 7.818744e+000 8.956466e+000
      endloop
   endfacet
   facet normal 0.000000e+000 -9.043333e-001 4.268270e-001
      outer loop
         vertex 0.000000e+000 7.818744e+000 8.956466e+000
         vertex 1.000000e+001 7.818744e+000 8.956466e+000
         vertex 1.000000e+001 7.964204e+000 9.288083e+000
      endloop
   endfacet
   facet normal 0.000000e+000 -9.265151e-001 3.762575e-001
      outer loop
         vertex 0.000000e+000 7.818744e+000 8.956466e+000
         vertex 1.000000e+001 7.964204e+000 9.288083e+000
         vertex 0.000000e+000 7.964204e+000 9.288083e+000
      endloop
   endfacet
   facet normal 0.000000e+000 -9.622528e-001 2.721573e-001
      outer loop
         vertex 0.000000e+000 7.964204e+000 9.288083e+000
         vertex 1.000000e+001 7.964204e+000 9.288083e+000
         vertex 1.000000e+001 8.053099e+000 9.639120e+000
      endloop
   endfacet
   facet normal 0.000000e+000 -9.758086e-001 2.186265e-001
      outer loop
         vertex 0.000000e+000 7.964204e+000 9.288083e+000
         vertex 1.000000e+001 8.053099e+000 9.639120e+000
         vertex 0.000000e+000 8.053099e+000 9.639120e+000
      endloop
   endfacet
   facet normal 0.000000e+000 -9.939246e-001 1.100638e-001
      outer loop
         vertex 0.000000e+000 8.053099e+000 9.639120e+000
         vertex 1.000000e+001 8.053099e+000 9.639120e+000
         vertex 1.000000e+001 8.083002e+000 1.000000e+001
      endloop
   endfacet
   facet normal 0.000000e+000 -9.984846e-001 5.503191e-002
      outer loop
         vertex 0.000000e+000 8.053099e+000 9.639120e+000
         vertex 1.000000e+001 8.083002e+000 1.000000e+001
         vertex 0.000000e+000 8.083002e+000 1.000000e+001
      endloop
   endfacet
endsolid