solid 5_531
   facet normal 0.000000e+000 0.000000e+000 1.000000e+000
      outer loop
         vertex 1.000000e+001 7.233732e+000 1.000000e+001
         vertex 1.000000e+001 1.000000e+001 1.000000e+001
         vertex 0.000000e+000 7.233732e+000 1.000000e+001
      endloop
   endfacet
   facet normal 0.000000e+000 0.000000e+000 1.000000e+000
      outer loop
         vertex 0.000000e+000 7.233732e+000 1.000000e+001
         vertex 1.000000e+001 1.000000e+001 1.000000e+001
         vertex 0.000000e+000 1.000000e+001 1.000000e+001
      endloop
   endfacet
   facet normal -1.000000e+000 0.000000e+000 0.000000e+000
      outer loop
         vertex 0.000000e+000 7.202074e+000 9.557357e+000
         vertex 0.000000e+000 7.233732e+000 1.000000e+001
         vertex 0.000000e+000 1.000000e+001 1.000000e+001
      endloop
   endfacet
   facet normal -1.000000e+000 0.000000e+000 0.000000e+000
      outer loop
         vertex 0.000000e+000 4.999699e+000 7.015681e+000
         vertex 0.000000e+000 5.415492e+000 7.170764e+000
         vertex 0.000000e+000 1.000000e+001 0.000000e+000
      endloop
   endfacet
   facet normal -1.000000e+000 0.000000e+000 0.000000e+000
      outer loop
         vertex 0.000000e+000 5.415492e+000 7.170764e+000
         vertex 0.000000e+000 5.804983e+000 7.383442e+000
         vertex 0.000000e+000 1.000000e+001 0.000000e+000
      endloop
   endfacet
   facet normal -1.000000e+000 0.000000e+000 0.000000e+000
      outer loop
         vertex 0.000000e+000 1.000000e+001 0.000000e+000
         vertex 0.000000e+000 5.804983e+000 7.383442e+000
         vertex 0.000000e+000 6.160243e+000 7.649386e+000
      endloop
   endfacet
   facet normal -1.000000e+000 0.000000e+000 0.000000e+000
      outer loop
         vertex 0.000000e+000 1.000000e+001 0.000000e+000
         vertex 0.000000e+000 6.160243e+000 7.649386e+000
         vertex 0.000000e+000 6.474038e+000 7.963181e+000
      endloop
   endfacet
   facet normal -1.000000e+000 0.000000e+000 0.000000e+000
      outer loop
         vertex 0.000000e+000 2.086605e+000 7.649386e+000
         vertex 0.000000e+000 0.000000e+000 0.000000e+000
         vertex 0.000000e+000 1.772810e+000 7.963181e+000
      endloop
   endfacet
   facet normal -1.000000e+000 0.000000e+000 0.000000e+000
      outer loop
         vertex 0.000000e+000 1.772810e+000 7.963181e+000
         vertex 0.000000e+000 0.000000e+000 0.000000e+000
         vertex 0.000000e+000 1.506866e+000 8.318440e+000
      endloop
   endfacet
   facet normal -1.000000e+000 0.000000e+000 0.000000e+000
      outer loop
         vertex 0.000000e+000 2.086605e+000 7.649386e+000
         vertex 0.000000e+000 2.441864e+000 7.383442e+000
         vertex 0.000000e+000 0.000000e+000 0.000000e+000
      endloop
   endfacet
   facet normal -1.000000e+000 0.000000e+000 0.000000e+000
      outer loop
         vertex 0.000000e+000 0.000000e+000 0.000000e+000
         vertex 0.000000e+000 2.441864e+000 7.383442e+000
         vertex 0.000000e+000 2.831355e+000 7.170764e+000
      endloop
   endfacet
   facet normal -1.000000e+000 0.000000e+000 0.000000e+000
      outer loop
         vertex 0.000000e+000 0.000000e+000 0.000000e+000
         vertex 0.000000e+000 2.831355e+000 7.170764e+000
         vertex 0.000000e+000 3.247149e+000 7.015681e+000
      endloop
   endfacet
   facet normal -1.000000e+000 0.000000e+000 0.000000e+000
      outer loop
         vertex 0.000000e+000 6.474038e+000 7.963181e+000
         vertex 0.000000e+000 6.739982e+000 8.318440e+000
         vertex 0.000000e+000 1.000000e+001 0.000000e+000
      endloop
   endfacet
   facet normal -1.000000e+000 0.000000e+000 0.000000e+000
      outer loop
         vertex 0.000000e+000 1.000000e+001 0.000000e+000
         vertex 0.000000e+000 6.739982e+000 8.318440e+000
         vertex 0.000000e+000 6.952659e+000 8.707932e+000
      endloop
   endfacet
   facet normal -1.000000e+000 0.000000e+000 0.000000e+000
      outer loop
         vertex 0.000000e+000 1.000000e+001 0.000000e+000
         vertex 0.000000e+000 6.952659e+000 8.707932e+000
         vertex 0.000000e+000 1.000000e+001 1.000000e+001
      endloop
   endfacet
   facet normal -1.000000e+000 0.000000e+000 0.000000e+000
      outer loop
         vertex 0.000000e+000 1.000000e+001 1.000000e+001
         vertex 0.000000e+000 6.952659e+000 8.707932e+000
         vertex 0.000000e+000 7.107743e+000 9.123725e+000
      endloop
   endfacet
   facet normal -1.000000e+000 0.000000e+000 0.000000e+000
      outer loop
         vertex 0.000000e+000 1.000000e+001 1.000000e+001
         vertex 0.000000e+000 7.107743e+000 9.123725e+000
         vertex 0.000000e+000 7.202074e+000 9.557357e+000
      endloop
   endfacet
   facet normal -1.000000e+000 0.000000e+000 0.000000e+000
      outer loop
         vertex 0.000000e+000 3.247149e+000 7.015681e+000
         vertex 0.000000e+000 3.680781e+000 6.921350e+000
         vertex 0.000000e+000 0.000000e+000 0.000000e+000
      endloop
   endfacet
   facet normal -1.000000e+000 0.000000e+000 0.000000e+000
      outer loop
         vertex 0.000000e+000 0.000000e+000 0.000000e+000
         vertex 0.000000e+000 3.680781e+000 6.921350e+000
         vertex 0.000000e+000 4.123424e+000 6.889691e+000
      endloop
   endfacet
   facet normal -1.000000e+000 0.000000e+000 0.000000e+000
      outer loop
         vertex 0.000000e+000 0.000000e+000 0.000000e+000
         vertex 0.000000e+000 4.123424e+000 6.889691e+000
         vertex 0.000000e+000 1.000000e+001 0.000000e+000
      endloop
   endfacet
   facet normal -1.000000e+000 0.000000e+000 0.000000e+000
      outer loop
         vertex 0.000000e+000 1.000000e+001 0.000000e+000
         vertex 0.000000e+000 4.123424e+000 6.889691e+000
         vertex 0.000000e+000 4.566067e+000 6.921350e+000
      endloop
   endfacet
   facet normal -1.000000e+000 0.000000e+000 0.000000e+000
      outer loop
         vertex 0.000000e+000 1.000000e+001 0.000000e+000
         vertex 0.000000e+000 4.566067e+000 6.921350e+000
         vertex 0.000000e+000 4.999699e+000 7.015681e+000
      endloop
   endfacet
   facet normal -1.000000e+000 0.000000e+000 0.000000e+000
      outer loop
         vertex 0.000000e+000 1.013116e+000 1.000000e+001
         vertex 0.000000e+000 1.044774e+000 9.557357e+000
         vertex 0.000000e+000 0.000000e+000 1.000000e+001
      endloop
   endfacet
   facet normal -1.000000e+000 0.000000e+000 0.000000e+000
      outer loop
         vertex 0.000000e+000 0.000000e+000 1.000000e+001
         vertex 0.000000e+000 1.044774e+000 9.557357e+000
         vertex 0.000000e+000 1.139105e+000 9.123725e+000
      endloop
   endfacet
   facet normal -1.000000e+000 0.000000e+000 0.000000e+000
      outer loop
         vertex 0.000000e+000 0.000000e+000 1.000000e+001
         vertex 0.000000e+000 1.139105e+000 9.123725e+000
         vertex 0.000000e+000 0.000000e+000 0.000000e+000
      endloop
   endfacet
   facet normal -1.000000e+000 0.000000e+000 0.000000e+000
      outer loop
         vertex 0.000000e+000 0.000000e+000 0.000000e+000
         vertex 0.000000e+000 1.139105e+000 9.123725e+000
         vertex 0.000000e+000 1.294188e+000 8.707932e+000
      endloop
   endfacet
   facet normal -1.000000e+000 0.000000e+000 0.000000e+000
      outer loop
         vertex 0.000000e+000 0.000000e+000 0.000000e+000
         vertex 0.000000e+000 1.294188e+000 8.707932e+000
         vertex 0.000000e+000 1.506866e+000 8.318440e+000
      endloop
   endfacet
   facet normal 0.000000e+000 0.000000e+000 1.000000e+000
      outer loop
         vertex 0.000000e+000 1.013116e+000 1.000000e+001
         vertex 0.000000e+000 0.000000e+000 1.000000e+001
         vertex 1.000000e+001 1.013116e+000 1.000000e+001
      endloop
   endfacet
   facet normal 0.000000e+000 0.000000e+000 1.000000e+000
      outer loop
         vertex 1.000000e+001 1.013116e+000 1.000000e+001
         vertex 0.000000e+000 0.000000e+000 1.000000e+001
         vertex 1.000000e+001 0.000000e+000 1.000000e+001
      endloop
   endfacet
   facet normal 1.000000e+000 0.000000e+000 0.000000e+000
      outer loop
         vertex 1.000000e+001 1.044774e+000 9.557357e+000
         vertex 1.000000e+001 1.013116e+000 1.000000e+001
         vertex 1.000000e+001 0.000000e+000 1.000000e+001
      endloop
   endfacet
   facet normal 1.000000e+000 0.000000e+000 0.000000e+000
      outer loop
         vertex 1.000000e+001 6.739982e+000 8.318440e+000
         vertex 1.000000e+001 6.474038e+000 7.963181e+000
         vertex 1.000000e+001 1.000000e+001 0.000000e+000
      endloop
   endfacet
   facet normal 1.000000e+000 0.000000e+000 0.000000e+000
      outer loop
         vertex 1.000000e+001 6.474038e+000 7.963181e+000
         vertex 1.000000e+001 6.160243e+000 7.649386e+000
         vertex 1.000000e+001 1.000000e+001 0.000000e+000
      endloop
   endfacet
   facet normal 1.000000e+000 0.000000e+000 0.000000e+000
      outer loop
         vertex 1.000000e+001 1.000000e+001 0.000000e+000
         vertex 1.000000e+001 6.160243e+000 7.649386e+000
         vertex 1.000000e+001 5.804983e+000 7.383442e+000
      endloop
   endfacet
   facet normal 1.000000e+000 0.000000e+000 0.000000e+000
      outer loop
         vertex 1.000000e+001 1.000000e+001 0.000000e+000
         vertex 1.000000e+001 5.804983e+000 7.383442e+000
         vertex 1.000000e+001 5.415492e+000 7.170764e+000
      endloop
   endfacet
   facet normal 1.000000e+000 0.000000e+000 0.000000e+000
      outer loop
         vertex 1.000000e+001 7.233732e+000 1.000000e+001
         vertex 1.000000e+001 7.202074e+000 9.557357e+000
         vertex 1.000000e+001 1.000000e+001 1.000000e+001
      endloop
   endfacet
   facet normal 1.000000e+000 0.000000e+000 0.000000e+000
      outer loop
         vertex 1.000000e+001 1.000000e+001 1.000000e+001
         vertex 1.000000e+001 7.202074e+000 9.557357e+000
         vertex 1.000000e+001 7.107743e+000 9.123725e+000
      endloop
   endfacet
   facet normal 1.000000e+000 0.000000e+000 0.000000e+000
      outer loop
         vertex 1.000000e+001 1.000000e+001 1.000000e+001
         vertex 1.000000e+001 7.107743e+000 9.123725e+000
         vertex 1.000000e+001 1.000000e+001 0.000000e+000
      endloop
   endfacet
   facet normal 1.000000e+000 0.000000e+000 0.000000e+000
      outer loop
         vertex 1.000000e+001 1.000000e+001 0.000000e+000
         vertex 1.000000e+001 7.107743e+000 9.123725e+000
         vertex 1.000000e+001 6.952659e+000 8.707932e+000
      endloop
   endfacet
   facet normal 1.000000e+000 0.000000e+000 0.000000e+000
      outer loop
         vertex 1.000000e+001 1.000000e+001 0.000000e+000
         vertex 1.000000e+001 6.952659e+000 8.707932e+000
         vertex 1.000000e+001 6.739982e+000 8.318440e+000
      endloop
   endfacet
   facet normal 1.000000e+000 0.000000e+000 0.000000e+000
      outer loop
         vertex 1.000000e+001 5.415492e+000 7.170764e+000
         vertex 1.000000e+001 4.999699e+000 7.015681e+000
         vertex 1.000000e+001 1.000000e+001 0.000000e+000
      endloop
   endfacet
   facet normal 1.000000e+000 0.000000e+000 0.000000e+000
      outer loop
         vertex 1.000000e+001 1.000000e+001 0.000000e+000
         vertex 1.000000e+001 4.999699e+000 7.015681e+000
         vertex 1.000000e+001 4.566067e+000 6.921350e+000
      endloop
   endfacet
   facet normal 1.000000e+000 0.000000e+000 0.000000e+000
      outer loop
         vertex 1.000000e+001 1.000000e+001 0.000000e+000
         vertex 1.000000e+001 4.566067e+000 6.921350e+000
         vertex 1.000000e+001 0.000000e+000 0.000000e+000
      endloop
   endfacet
   facet normal 1.000000e+000 0.000000e+000 0.000000e+000
      outer loop
         vertex 1.000000e+001 0.000000e+000 0.000000e+000
         vertex 1.000000e+001 4.566067e+000 6.921350e+000
         vertex 1.000000e+001 4.123424e+000 6.889691e+000
      endloop
   endfacet
   facet normal 1.000000e+000 0.000000e+000 0.000000e+000
      outer loop
         vertex 1.000000e+001 0.000000e+000 0.000000e+000
         vertex 1.000000e+001 4.123424e+000 6.889691e+000
         vertex 1.000000e+001 3.680781e+000 6.921350e+000
      endloop
   endfacet
   facet normal 1.000000e+000 0.000000e+000 0.000000e+000
      outer loop
         vertex 1.000000e+001 2.441864e+000 7.383442e+000
         vertex 1.000000e+001 2.086605e+000 7.649386e+000
         vertex 1.000000e+001 0.000000e+000 0.000000e+000
      endloop
   endfacet
   facet normal 1.000000e+000 0.000000e+000 0.000000e+000
      outer loop
         vertex 1.000000e+001 0.000000e+000 0.000000e+000
         vertex 1.000000e+001 2.086605e+000 7.649386e+000
         vertex 1.000000e+001 1.772810e+000 7.963181e+000
      endloop
   endfacet
   facet normal 1.000000e+000 0.000000e+000 0.000000e+000
      outer loop
         vertex 1.000000e+001 3.680781e+000 6.921350e+000
         vertex 1.000000e+001 3.247149e+000 7.015681e+000
         vertex 1.000000e+001 0.000000e+000 0.000000e+000
      endloop
   endfacet
   facet normal 1.000000e+000 0.000000e+000 0.000000e+000
      outer loop
         vertex 1.000000e+001 0.000000e+000 0.000000e+000
         vertex 1.000000e+001 3.247149e+000 7.015681e+000
         vertex 1.000000e+001 2.831355e+000 7.170764e+000
      endloop
   endfacet
   facet normal 1.000000e+000 0.000000e+000 0.000000e+000
      outer loop
         vertex 1.000000e+001 0.000000e+000 0.000000e+000
         vertex 1.000000e+001 2.831355e+000 7.170764e+000
         vertex 1.000000e+001 2.441864e+000 7.383442e+000
      endloop
   endfacet
   facet normal 1.000000e+000 0.000000e+000 0.000000e+000
      outer loop
         vertex 1.000000e+001 1.772810e+000 7.963181e+000
         vertex 1.000000e+001 1.506866e+000 8.318440e+000
         vertex 1.000000e+001 0.000000e+000 0.000000e+000
      endloop
   endfacet
   facet normal 1.000000e+000 0.000000e+000 0.000000e+000
      outer loop
         vertex 1.000000e+001 0.000000e+000 0.000000e+000
         vertex 1.000000e+001 1.506866e+000 8.318440e+000
         vertex 1.000000e+001 1.294188e+000 8.707932e+000
      endloop
   endfacet
   facet normal 1.000000e+000 0.000000e+000 0.000000e+000
      outer loop
         vertex 1.000000e+001 0.000000e+000 0.000000e+000
         vertex 1.000000e+001 1.294188e+000 8.707932e+000
         vertex 1.000000e+001 0.000000e+000 1.000000e+001
      endloop
   endfacet
   facet normal 1.000000e+000 0.000000e+000 0.000000e+000
      outer loop
         vertex 1.000000e+001 0.000000e+000 1.000000e+001
         vertex 1.000000e+001 1.294188e+000 8.707932e+000
         vertex 1.000000e+001 1.139105e+000 9.123725e+000
      endloop
   endfacet
   facet normal 1.000000e+000 0.000000e+000 0.000000e+000
      outer loop
         vertex 1.000000e+001 0.000000e+000 1.000000e+001
         vertex 1.000000e+001 1.139105e+000 9.123725e+000
         vertex 1.000000e+001 1.044774e+000 9.557357e+000
      endloop
   endfacet
   facet normal 0.000000e+000 0.000000e+000 -1.000000e+000
      outer loop
         vertex 0.000000e+000 1.000000e+001 0.000000e+000
         vertex 1.000000e+001 1.000000e+001 0.000000e+000
         vertex 0.000000e+000 0.000000e+000 0.000000e+000
      endloop
   endfacet
   facet normal 0.000000e+000 0.000000e+000 -1.000000e+000
      outer loop
         vertex 0.000000e+000 0.000000e+000 0.000000e+000
         vertex 1.000000e+001 1.000000e+001 0.000000e+000
         vertex 1.000000e+001 0.000000e+000 0.000000e+000
      endloop
   endfacet
   facet normal 0.000000e+000 1.000000e+000 0.000000e+000
      outer loop
         vertex 1.000000e+001 1.000000e+001 1.000000e+001
         vertex 1.000000e+001 1.000000e+001 0.000000e+000
         vertex 0.000000e+000 1.000000e+001 1.000000e+001
      endloop
   endfacet
   facet normal 0.000000e+000 1.000000e+000 0.000000e+000
      outer loop
         vertex 0.000000e+000 1.000000e+001 1.000000e+001
         vertex 1.000000e+001 1.000000e+001 0.000000e+000
         vertex 0.000000e+000 1.000000e+001 0.000000e+000
      endloop
   endfacet
   facet normal 0.000000e+000 -1.000000e+000 0.000000e+000
      outer loop
         vertex 1.000000e+001 0.000000e+000 0.000000e+000
         vertex 1.000000e+001 0.000000e+000 1.000000e+001
         vertex 0.000000e+000 0.000000e+000 0.000000e+000
      endloop
   endfacet
   facet normal 0.000000e+000 -1.000000e+000 0.000000e+000
      outer loop
         vertex 0.000000e+000 0.000000e+000 0.000000e+000
         vertex 1.000000e+001 0.000000e+000 1.000000e+001
         vertex 0.000000e+000 0.000000e+000 1.000000e+001
      endloop
   endfacet
   facet normal 0.000000e+000 9.988691e-001 4.754595e-002
      outer loop
         vertex 0.000000e+000 1.013116e+000 1.000000e+001
         vertex 1.000000e+001 1.013116e+000 1.000000e+001
         vertex 1.000000e+001 1.044774e+000 9.557357e+000
      endloop
   endfacet
   facet normal 0.000000e+000 9.954685e-001 9.509189e-002
      outer loop
         vertex 0.000000e+000 1.013116e+000 1.000000e+001
         vertex 1.000000e+001 1.044774e+000 9.557357e+000
         vertex 0.000000e+000 1.044774e+000 9.557357e+000
      endloop
   endfacet
   facet normal 0.000000e+000 9.819355e-001 1.892159e-001
      outer loop
         vertex 0.000000e+000 1.044774e+000 9.557357e+000
         vertex 1.000000e+001 1.044774e+000 9.557357e+000
         vertex 1.000000e+001 1.139105e+000 9.123725e+000
      endloop
   endfacet
   facet normal 0.000000e+000 9.718031e-001 2.357940e-001
      outer loop
         vertex 0.000000e+000 1.044774e+000 9.557357e+000
         vertex 1.000000e+001 1.139105e+000 9.123725e+000
         vertex 0.000000e+000 1.139105e+000 9.123725e+000
      endloop
   endfacet
   facet normal 0.000000e+000 9.450126e-001 3.270339e-001
      outer loop
         vertex 0.000000e+000 1.139105e+000 9.123725e+000
         vertex 1.000000e+001 1.139105e+000 9.123725e+000
         vertex 1.000000e+001 1.294188e+000 8.707932e+000
      endloop
   endfacet
   facet normal 0.000000e+000 9.283545e-001 3.716959e-001
      outer loop
         vertex 0.000000e+000 1.139105e+000 9.123725e+000
         vertex 1.000000e+001 1.294188e+000 8.707932e+000
         vertex 0.000000e+000 1.294188e+000 8.707932e+000
      endloop
   endfacet
   facet normal 0.000000e+000 8.888519e-001 4.581946e-001
      outer loop
         vertex 0.000000e+000 1.294188e+000 8.707932e+000
         vertex 1.000000e+001 1.294188e+000 8.707932e+000
         vertex 1.000000e+001 1.506866e+000 8.318440e+000
      endloop
   endfacet
   facet normal 0.000000e+000 8.660074e-001 5.000312e-001
      outer loop
         vertex 0.000000e+000 1.294188e+000 8.707932e+000
         vertex 1.000000e+001 1.506866e+000 8.318440e+000
         vertex 0.000000e+000 1.506866e+000 8.318440e+000
      endloop
   endfacet
   facet normal 0.000000e+000 8.145968e-001 5.800276e-001
      outer loop
         vertex 0.000000e+000 1.506866e+000 8.318440e+000
         vertex 1.000000e+001 1.506866e+000 8.318440e+000
         vertex 1.000000e+001 1.772810e+000 7.963181e+000
      endloop
   endfacet
   facet normal 0.000000e+000 7.860308e-001 6.181873e-001
      outer loop
         vertex 0.000000e+000 1.506866e+000 8.318440e+000
         vertex 1.000000e+001 1.772810e+000 7.963181e+000
         vertex 0.000000e+000 1.772810e+000 7.963181e+000
      endloop
   endfacet
   facet normal 0.000000e+000 7.237589e-001 6.900530e-001
      outer loop
         vertex 0.000000e+000 1.772810e+000 7.963181e+000
         vertex 1.000000e+001 1.772810e+000 7.963181e+000
         vertex 1.000000e+001 2.086605e+000 7.649386e+000
      endloop
   endfacet
   facet normal 0.000000e+000 6.900530e-001 7.237589e-001
      outer loop
         vertex 0.000000e+000 1.772810e+000 7.963181e+000
         vertex 1.000000e+001 2.086605e+000 7.649386e+000
         vertex 0.000000e+000 2.086605e+000 7.649386e+000
      endloop
   endfacet
   facet normal 0.000000e+000 6.181873e-001 7.860308e-001
      outer loop
         vertex 0.000000e+000 2.086605e+000 7.649386e+000
         vertex 1.000000e+001 2.086605e+000 7.649386e+000
         vertex 1.000000e+001 2.441864e+000 7.383442e+000
      endloop
   endfacet
   facet normal 0.000000e+000 5.800276e-001 8.145968e-001
      outer loop
         vertex 0.000000e+000 2.086605e+000 7.649386e+000
         vertex 1.000000e+001 2.441864e+000 7.383442e+000
         vertex 0.000000e+000 2.441864e+000 7.383442e+000
      endloop
   endfacet
   facet normal 0.000000e+000 5.000312e-001 8.660074e-001
      outer loop
         vertex 0.000000e+000 2.441864e+000 7.383442e+000
         vertex 1.000000e+001 2.441864e+000 7.383442e+000
         vertex 1.000000e+001 2.831355e+000 7.170764e+000
      endloop
   endfacet
   facet normal 0.000000e+000 4.581946e-001 8.888519e-001
      outer loop
         vertex 0.000000e+000 2.441864e+000 7.383442e+000
         vertex 1.000000e+001 2.831355e+000 7.170764e+000
         vertex 0.000000e+000 2.831355e+000 7.170764e+000
      endloop
   endfacet
   facet normal 0.000000e+000 3.716959e-001 9.283545e-001
      outer loop
         vertex 0.000000e+000 2.831355e+000 7.170764e+000
         vertex 1.000000e+001 2.831355e+000 7.170764e+000
         vertex 1.000000e+001 3.247149e+000 7.015681e+000
      endloop
   endfacet
   facet normal 0.000000e+000 3.270340e-001 9.450126e-001
      outer loop
         vertex 0.000000e+000 2.831355e+000 7.170764e+000
         vertex 1.000000e+001 3.247149e+000 7.015681e+000
         vertex 0.000000e+000 3.247149e+000 7.015681e+000
      endloop
   endfacet
   facet normal 0.000000e+000 2.357940e-001 9.718031e-001
      outer loop
         vertex 0.000000e+000 3.247149e+000 7.015681e+000
         vertex 1.000000e+001 3.247149e+000 7.015681e+000
         vertex 1.000000e+001 3.680781e+000 6.921350e+000
      endloop
   endfacet
   facet normal 0.000000e+000 1.892159e-001 9.819355e-001
      outer loop
         vertex 0.000000e+000 3.247149e+000 7.015681e+000
         vertex 1.000000e+001 3.680781e+000 6.921350e+000
         vertex 0.000000e+000 3.680781e+000 6.921350e+000
      endloop
   endfacet
   facet normal 0.000000e+000 9.509189e-002 9.954685e-001
      outer loop
         vertex 0.000000e+000 3.680781e+000 6.921350e+000
         vertex 1.000000e+001 3.680781e+000 6.921350e+000
         vertex 1.000000e+001 4.123424e+000 6.889691e+000
      endloop
   endfacet
   facet normal 0.000000e+000 4.754595e-002 9.988691e-001
      outer loop
         vertex 0.000000e+000 3.680781e+000 6.921350e+000
         vertex 1.000000e+001 4.123424e+000 6.889691e+000
         vertex 0.000000e+000 4.123424e+000 6.889691e+000
      endloop
   endfacet
   facet normal 0.000000e+000 -4.754595e-002 9.988691e-001
      outer loop
         vertex 0.000000e+000 4.123424e+000 6.889691e+000
         vertex 1.000000e+001 4.123424e+000 6.889691e+000
         vertex 1.000000e+001 4.566067e+000 6.921350e+000
      endloop
   endfacet
   facet normal 0.000000e+000 -9.509189e-002 9.954685e-001
      outer loop
         vertex 0.000000e+000 4.123424e+000 6.889691e+000
         vertex 1.000000e+001 4.566067e+000 6.921350e+000
         vertex 0.000000e+000 4.566067e+000 6.921350e+000
      endloop
   endfacet
   facet normal 0.000000e+000 -1.892159e-001 9.819355e-001
      outer loop
         vertex 0.000000e+000 4.566067e+000 6.921350e+000
         vertex 1.000000e+001 4.566067e+000 6.921350e+000
         vertex 1.000000e+001 4.999699e+000 7.015681e+000
      endloop
   endfacet
   facet normal 0.000000e+000 -2.357940e-001 9.718031e-001
      outer loop
         vertex 0.000000e+000 4.566067e+000 6.921350e+000
         vertex 1.000000e+001 4.999699e+000 7.015681e+000
         vertex 0.000000e+000 4.999699e+000 7.015681e+000
      endloop
   endfacet
   facet normal 0.000000e+000 -3.270339e-001 9.450126e-001
      outer loop
         vertex 0.000000e+000 4.999699e+000 7.015681e+000
         vertex 1.000000e+001 4.999699e+000 7.015681e+000
         vertex 1.000000e+001 5.415492e+000 7.170764e+000
      endloop
   endfacet
   facet normal 0.000000e+000 -3.716959e-001 9.283545e-001
      outer loop
         vertex 0.000000e+000 4.999699e+000 7.015681e+000
         vertex 1.000000e+001 5.415492e+000 7.170764e+000
         vertex 0.000000e+000 5.415492e+000 7.170764e+000
      endloop
   endfacet
   facet normal 0.000000e+000 -4.581946e-001 8.888519e-001
      outer loop
         vertex 0.000000e+000 5.415492e+000 7.170764e+000
         vertex 1.000000e+001 5.415492e+000 7.170764e+000
         vertex 1.000000e+001 5.804983e+000 7.383442e+000
      endloop
   endfacet
   facet normal 0.000000e+000 -5.000312e-001 8.660074e-001
      outer loop
         vertex 0.000000e+000 5.415492e+000 7.170764e+000
         vertex 1.000000e+001 5.804983e+000 7.383442e+000
         vertex 0.000000e+000 5.804983e+000 7.383442e+000
      endloop
   endfacet
   facet normal 0.000000e+000 -5.800276e-001 8.145968e-001
      outer loop
         vertex 0.000000e+000 5.804983e+000 7.383442e+000
         vertex 1.000000e+001 5.804983e+000 7.383442e+000
         vertex 1.000000e+001 6.160243e+000 7.649386e+000
      endloop
   endfacet
   facet normal 0.000000e+000 -6.181873e-001 7.860308e-001
      outer loop
         vertex 0.000000e+000 5.804983e+000 7.383442e+000
         vertex 1.000000e+001 6.160243e+000 7.649386e+000
         vertex 0.000000e+000 6.160243e+000 7.649386e+000
      endloop
   endfacet
   facet normal 0.000000e+000 -6.900530e-001 7.237589e-001
      outer loop
         vertex 0.000000e+000 6.160243e+000 7.649386e+000
         vertex 1.000000e+001 6.160243e+000 7.649386e+000
         vertex 1.000000e+001 6.474038e+000 7.963181e+000
      endloop
   endfacet
   facet normal 0.000000e+000 -7.237589e-001 6.900530e-001
      outer loop
         vertex 0.000000e+000 6.160243e+000 7.649386e+000
         vertex 1.000000e+001 6.474038e+000 7.963181e+000
         vertex 0.000000e+000 6.474038e+000 7.963181e+000
      endloop
   endfacet
   facet normal 0.000000e+000 -7.860308e-001 6.181873e-001
      outer loop
         vertex 0.000000e+000 6.474038e+000 7.963181e+000
         vertex 1.000000e+001 6.474038e+000 7.963181e+000
         vertex 1.000000e+001 6.739982e+000 8.318440e+000
      endloop
   endfacet
   facet normal 0.000000e+000 -8.145968e-001 5.800276e-001
      outer loop
         vertex 0.000000e+000 6.474038e+000 7.963181e+000
         vertex 1.000000e+001 6.739982e+000 8.318440e+000
         vertex 0.000000e+000 6.739982e+000 8.318440e+000
      endloop
   endfacet
   facet normal 0.000000e+000 -8.660074e-001 5.000312e-001
      outer loop
         vertex 0.000000e+000 6.739982e+000 8.318440e+000
         vertex 1.000000e+001 6.739982e+000 8.318440e+000
         vertex 1.000000e+001 6.952659e+000 8.707932e+000
      endloop
   endfacet
   facet normal 0.000000e+000 -8.888519e-001 4.581946e-001
      outer loop
         vertex 0.000000e+000 6.739982e+000 8.318440e+000
         vertex 1.000000e+001 6.952659e+000 8.707932e+000
         vertex 0.000000e+000 6.952659e+000 8.707932e+000
      endloop
   endfacet
   facet normal 0.000000e+000 -9.283545e-001 3.716959e-001
      outer loop
         vertex 0.000000e+000 6.952659e+000 8.707932e+000
         vertex 1.000000e+001 6.952659e+000 8.707932e+000
         vertex 1.000000e+001 7.107743e+000 9.123725e+000
      endloop
   endfacet
   facet normal 0.000000e+000 -9.450126e-001 3.270340e-001
      outer loop
         vertex 0.000000e+000 6.952659e+000 8.707932e+000
         vertex 1.000000e+001 7.107743e+000 9.123725e+000
         vertex 0.000000e+000 7.107743e+000 9.123725e+000
      endloop
   endfacet
   facet normal 0.000000e+000 -9.718031e-001 2.357940e-001
      outer loop
         vertex 0.000000e+000 7.107743e+000 9.123725e+000
         vertex 1.000000e+001 7.107743e+000 9.123725e+000
         vertex 1.000000e+001 7.202074e+000 9.557357e+000
      endloop
   endfacet
   facet normal 0.000000e+000 -9.819355e-001 1.892159e-001
      outer loop
         vertex 0.000000e+000 7.107743e+000 9.123725e+000
         vertex 1.000000e+001 7.202074e+000 9.557357e+000
         vertex 0.000000e+000 7.202074e+000 9.557357e+000
      endloop
   endfacet
   facet normal 0.000000e+000 -9.954685e-001 9.509189e-002
      outer loop
         vertex 0.000000e+000 7.202074e+000 9.557357e+000
         vertex 1.000000e+001 7.202074e+000 9.557357e+000
         vertex 1.000000e+001 7.233732e+000 1.000000e+001
      endloop
   endfacet
   facet normal 0.000000e+000 -9.988691e-001 4.754595e-002
      outer loop
         vertex 0.000000e+000 7.202074e+000 9.557357e+000
         vertex 1.000000e+001 7.233732e+000 1.000000e+001
         vertex 0.000000e+000 7.233732e+000 1.000000e+001
      endloop
   endfacet
endsolid