solid 5_53
   facet normal 0.000000e+000 0.000000e+000 1.000000e+000
      outer loop
         vertex 3.089392e+000 1.000000e+001 1.000000e+001
         vertex 0.000000e+000 1.000000e+001 1.000000e+001
         vertex 3.089392e+000 0.000000e+000 1.000000e+001
      endloop
   endfacet
   facet normal 0.000000e+000 0.000000e+000 1.000000e+000
      outer loop
         vertex 3.089392e+000 0.000000e+000 1.000000e+001
         vertex 0.000000e+000 1.000000e+001 1.000000e+001
         vertex 0.000000e+000 0.000000e+000 1.000000e+001
      endloop
   endfacet
   facet normal -1.000000e+000 0.000000e+000 0.000000e+000
      outer loop
         vertex 0.000000e+000 1.000000e+001 1.000000e+001
         vertex 0.000000e+000 1.000000e+001 0.000000e+000
         vertex 0.000000e+000 0.000000e+000 1.000000e+001
      endloop
   endfacet
   facet normal -1.000000e+000 0.000000e+000 0.000000e+000
      outer loop
         vertex 0.000000e+000 0.000000e+000 1.000000e+001
         vertex 0.000000e+000 1.000000e+001 0.000000e+000
         vertex 0.000000e+000 0.000000e+000 0.000000e+000
      endloop
   endfacet
   facet normal 0.000000e+000 0.000000e+000 1.000000e+000
      outer loop
         vertex 7.211788e+000 0.000000e+000 1.000000e+001
         vertex 1.000000e+001 0.000000e+000 1.000000e+001
         vertex 7.211788e+000 1.000000e+001 1.000000e+001
      endloop
   endfacet
   facet normal 0.000000e+000 0.000000e+000 1.000000e+000
      outer loop
         vertex 7.211788e+000 1.000000e+001 1.000000e+001
         vertex 1.000000e+001 0.000000e+000 1.000000e+001
         vertex 1.000000e+001 1.000000e+001 1.000000e+001
      endloop
   endfacet
   facet normal 1.000000e+000 0.000000e+000 0.000000e+000
      outer loop
         vertex 1.000000e+001 1.000000e+001 0.000000e+000
         vertex 1.000000e+001 1.000000e+001 1.000000e+001
         vertex 1.000000e+001 0.000000e+000 0.000000e+000
      endloop
   endfacet
   facet normal 1.000000e+000 0.000000e+000 0.000000e+000
      outer loop
         vertex 1.000000e+001 0.000000e+000 0.000000e+000
         vertex 1.000000e+001 1.000000e+001 1.000000e+001
         vertex 1.000000e+001 0.000000e+000 1.000000e+001
      endloop
   endfacet
   facet normal 0.000000e+000 0.000000e+000 -1.000000e+000
      outer loop
         vertex 0.000000e+000 1.000000e+001 0.000000e+000
         vertex 1.000000e+001 1.000000e+001 0.000000e+000
         vertex 0.000000e+000 0.000000e+000 0.000000e+000
      endloop
   endfacet
   facet normal 0.000000e+000 0.000000e+000 -1.000000e+000
      outer loop
         vertex 0.000000e+000 0.000000e+000 0.000000e+000
         vertex 1.000000e+001 1.000000e+001 0.000000e+000
         vertex 1.000000e+001 0.000000e+000 0.000000e+000
      endloop
   endfacet
   facet normal 0.000000e+000 1.000000e+000 0.000000e+000
      outer loop
         vertex 7.180474e+000 1.000000e+001 9.642076e+000
         vertex 7.211788e+000 1.000000e+001 1.000000e+001
         vertex 1.000000e+001 1.000000e+001 1.000000e+001
      endloop
   endfacet
   facet normal 0.000000e+000 1.000000e+000 0.000000e+000
      outer loop
         vertex 3.365541e+000 1.000000e+001 8.969401e+000
         vertex 0.000000e+000 1.000000e+001 0.000000e+000
         vertex 3.213698e+000 1.000000e+001 9.295029e+000
      endloop
   endfacet
   facet normal 0.000000e+000 1.000000e+000 0.000000e+000
      outer loop
         vertex 3.213698e+000 1.000000e+001 9.295029e+000
         vertex 0.000000e+000 1.000000e+001 0.000000e+000
         vertex 0.000000e+000 1.000000e+001 1.000000e+001
      endloop
   endfacet
   facet normal 0.000000e+000 1.000000e+000 0.000000e+000
      outer loop
         vertex 3.213698e+000 1.000000e+001 9.295029e+000
         vertex 0.000000e+000 1.000000e+001 1.000000e+001
         vertex 3.120707e+000 1.000000e+001 9.642076e+000
      endloop
   endfacet
   facet normal 0.000000e+000 1.000000e+000 0.000000e+000
      outer loop
         vertex 3.120707e+000 1.000000e+001 9.642076e+000
         vertex 0.000000e+000 1.000000e+001 1.000000e+001
         vertex 3.089392e+000 1.000000e+001 1.000000e+001
      endloop
   endfacet
   facet normal 0.000000e+000 1.000000e+000 0.000000e+000
      outer loop
         vertex 6.475502e+000 1.000000e+001 8.421031e+000
         vertex 6.729559e+000 1.000000e+001 8.675087e+000
         vertex 1.000000e+001 1.000000e+001 0.000000e+000
      endloop
   endfacet
   facet normal 0.000000e+000 1.000000e+000 0.000000e+000
      outer loop
         vertex 1.000000e+001 1.000000e+001 0.000000e+000
         vertex 6.729559e+000 1.000000e+001 8.675087e+000
         vertex 6.935640e+000 1.000000e+001 8.969401e+000
      endloop
   endfacet
   facet normal 0.000000e+000 1.000000e+000 0.000000e+000
      outer loop
         vertex 1.000000e+001 1.000000e+001 0.000000e+000
         vertex 6.935640e+000 1.000000e+001 8.969401e+000
         vertex 1.000000e+001 1.000000e+001 1.000000e+001
      endloop
   endfacet
   facet normal 0.000000e+000 1.000000e+000 0.000000e+000
      outer loop
         vertex 1.000000e+001 1.000000e+001 1.000000e+001
         vertex 6.935640e+000 1.000000e+001 8.969401e+000
         vertex 7.087482e+000 1.000000e+001 9.295029e+000
      endloop
   endfacet
   facet normal 0.000000e+000 1.000000e+000 0.000000e+000
      outer loop
         vertex 1.000000e+001 1.000000e+001 1.000000e+001
         vertex 7.087482e+000 1.000000e+001 9.295029e+000
         vertex 7.180474e+000 1.000000e+001 9.642076e+000
      endloop
   endfacet
   facet normal 0.000000e+000 1.000000e+000 0.000000e+000
      outer loop
         vertex 3.365541e+000 1.000000e+001 8.969401e+000
         vertex 3.571621e+000 1.000000e+001 8.675087e+000
         vertex 0.000000e+000 1.000000e+001 0.000000e+000
      endloop
   endfacet
   facet normal 0.000000e+000 1.000000e+000 0.000000e+000
      outer loop
         vertex 0.000000e+000 1.000000e+001 0.000000e+000
         vertex 3.571621e+000 1.000000e+001 8.675087e+000
         vertex 3.825678e+000 1.000000e+001 8.421031e+000
      endloop
   endfacet
   facet normal 0.000000e+000 1.000000e+000 0.000000e+000
      outer loop
         vertex 0.000000e+000 1.000000e+001 0.000000e+000
         vertex 3.825678e+000 1.000000e+001 8.421031e+000
         vertex 4.119991e+000 1.000000e+001 8.214951e+000
      endloop
   endfacet
   facet normal 0.000000e+000 1.000000e+000 0.000000e+000
      outer loop
         vertex 5.508513e+000 1.000000e+001 7.970116e+000
         vertex 5.855561e+000 1.000000e+001 8.063107e+000
         vertex 1.000000e+001 1.000000e+001 0.000000e+000
      endloop
   endfacet
   facet normal 0.000000e+000 1.000000e+000 0.000000e+000
      outer loop
         vertex 1.000000e+001 1.000000e+001 0.000000e+000
         vertex 5.855561e+000 1.000000e+001 8.063107e+000
         vertex 6.181189e+000 1.000000e+001 8.214951e+000
      endloop
   endfacet
   facet normal 0.000000e+000 1.000000e+000 0.000000e+000
      outer loop
         vertex 1.000000e+001 1.000000e+001 0.000000e+000
         vertex 6.181189e+000 1.000000e+001 8.214951e+000
         vertex 6.475502e+000 1.000000e+001 8.421031e+000
      endloop
   endfacet
   facet normal 0.000000e+000 1.000000e+000 0.000000e+000
      outer loop
         vertex 4.119991e+000 1.000000e+001 8.214951e+000
         vertex 4.445619e+000 1.000000e+001 8.063107e+000
         vertex 0.000000e+000 1.000000e+001 0.000000e+000
      endloop
   endfacet
   facet normal 0.000000e+000 1.000000e+000 0.000000e+000
      outer loop
         vertex 0.000000e+000 1.000000e+001 0.000000e+000
         vertex 4.445619e+000 1.000000e+001 8.063107e+000
         vertex 4.792667e+000 1.000000e+001 7.970116e+000
      endloop
   endfacet
   facet normal 0.000000e+000 1.000000e+000 0.000000e+000
      outer loop
         vertex 0.000000e+000 1.000000e+001 0.000000e+000
         vertex 4.792667e+000 1.000000e+001 7.970116e+000
         vertex 1.000000e+001 1.000000e+001 0.000000e+000
      endloop
   endfacet
   facet normal 0.000000e+000 1.000000e+000 0.000000e+000
      outer loop
         vertex 1.000000e+001 1.000000e+001 0.000000e+000
         vertex 4.792667e+000 1.000000e+001 7.970116e+000
         vertex 5.150590e+000 1.000000e+001 7.938802e+000
      endloop
   endfacet
   facet normal 0.000000e+000 1.000000e+000 0.000000e+000
      outer loop
         vertex 1.000000e+001 1.000000e+001 0.000000e+000
         vertex 5.150590e+000 1.000000e+001 7.938802e+000
         vertex 5.508513e+000 1.000000e+001 7.970116e+000
      endloop
   endfacet
   facet normal 0.000000e+000 -1.000000e+000 0.000000e+000
      outer loop
         vertex 3.120707e+000 0.000000e+000 9.642076e+000
         vertex 3.089392e+000 0.000000e+000 1.000000e+001
         vertex 0.000000e+000 0.000000e+000 1.000000e+001
      endloop
   endfacet
   facet normal 0.000000e+000 -1.000000e+000 0.000000e+000
      outer loop
         vertex 3.571621e+000 0.000000e+000 8.675087e+000
         vertex 3.365541e+000 0.000000e+000 8.969401e+000
         vertex 0.000000e+000 0.000000e+000 0.000000e+000
      endloop
   endfacet
   facet normal 0.000000e+000 -1.000000e+000 0.000000e+000
      outer loop
         vertex 0.000000e+000 0.000000e+000 0.000000e+000
         vertex 3.365541e+000 0.000000e+000 8.969401e+000
         vertex 0.000000e+000 0.000000e+000 1.000000e+001
      endloop
   endfacet
   facet normal 0.000000e+000 -1.000000e+000 0.000000e+000
      outer loop
         vertex 0.000000e+000 0.000000e+000 1.000000e+001
         vertex 3.365541e+000 0.000000e+000 8.969401e+000
         vertex 3.213698e+000 0.000000e+000 9.295029e+000
      endloop
   endfacet
   facet normal 0.000000e+000 -1.000000e+000 0.000000e+000
      outer loop
         vertex 0.000000e+000 0.000000e+000 1.000000e+001
         vertex 3.213698e+000 0.000000e+000 9.295029e+000
         vertex 3.120707e+000 0.000000e+000 9.642076e+000
      endloop
   endfacet
   facet normal 0.000000e+000 -1.000000e+000 0.000000e+000
      outer loop
         vertex 7.211788e+000 0.000000e+000 1.000000e+001
         vertex 7.180474e+000 0.000000e+000 9.642076e+000
         vertex 1.000000e+001 0.000000e+000 1.000000e+001
      endloop
   endfacet
   facet normal 0.000000e+000 -1.000000e+000 0.000000e+000
      outer loop
         vertex 1.000000e+001 0.000000e+000 1.000000e+001
         vertex 7.180474e+000 0.000000e+000 9.642076e+000
         vertex 7.087482e+000 0.000000e+000 9.295029e+000
      endloop
   endfacet
   facet normal 0.000000e+000 -1.000000e+000 0.000000e+000
      outer loop
         vertex 1.000000e+001 0.000000e+000 1.000000e+001
         vertex 7.087482e+000 0.000000e+000 9.295029e+000
         vertex 1.000000e+001 0.000000e+000 0.000000e+000
      endloop
   endfacet
   facet normal 0.000000e+000 -1.000000e+000 0.000000e+000
      outer loop
         vertex 1.000000e+001 0.000000e+000 0.000000e+000
         vertex 7.087482e+000 0.000000e+000 9.295029e+000
         vertex 6.935640e+000 0.000000e+000 8.969401e+000
      endloop
   endfacet
   facet normal 0.000000e+000 -1.000000e+000 0.000000e+000
      outer loop
         vertex 1.000000e+001 0.000000e+000 0.000000e+000
         vertex 6.935640e+000 0.000000e+000 8.969401e+000
         vertex 6.729559e+000 0.000000e+000 8.675087e+000
      endloop
   endfacet
   facet normal 0.000000e+000 -1.000000e+000 0.000000e+000
      outer loop
         vertex 6.729559e+000 0.000000e+000 8.675087e+000
         vertex 6.475502e+000 0.000000e+000 8.421031e+000
         vertex 1.000000e+001 0.000000e+000 0.000000e+000
      endloop
   endfacet
   facet normal 0.000000e+000 -1.000000e+000 0.000000e+000
      outer loop
         vertex 1.000000e+001 0.000000e+000 0.000000e+000
         vertex 6.475502e+000 0.000000e+000 8.421031e+000
         vertex 6.181189e+000 0.000000e+000 8.214951e+000
      endloop
   endfacet
   facet normal 0.000000e+000 -1.000000e+000 0.000000e+000
      outer loop
         vertex 1.000000e+001 0.000000e+000 0.000000e+000
         vertex 6.181189e+000 0.000000e+000 8.214951e+000
         vertex 5.855561e+000 0.000000e+000 8.063107e+000
      endloop
   endfacet
   facet normal 0.000000e+000 -1.000000e+000 0.000000e+000
      outer loop
         vertex 5.855561e+000 0.000000e+000 8.063107e+000
         vertex 5.508513e+000 0.000000e+000 7.970116e+000
         vertex 1.000000e+001 0.000000e+000 0.000000e+000
      endloop
   endfacet
   facet normal 0.000000e+000 -1.000000e+000 0.000000e+000
      outer loop
         vertex 1.000000e+001 0.000000e+000 0.000000e+000
         vertex 5.508513e+000 0.000000e+000 7.970116e+000
         vertex 5.150590e+000 0.000000e+000 7.938802e+000
      endloop
   endfacet
   facet normal 0.000000e+000 -1.000000e+000 0.000000e+000
      outer loop
         vertex 1.000000e+001 0.000000e+000 0.000000e+000
         vertex 5.150590e+000 0.000000e+000 7.938802e+000
         vertex 0.000000e+000 0.000000e+000 0.000000e+000
      endloop
   endfacet
   facet normal 0.000000e+000 -1.000000e+000 0.000000e+000
      outer loop
         vertex 0.000000e+000 0.000000e+000 0.000000e+000
         vertex 5.150590e+000 0.000000e+000 7.938802e+000
         vertex 4.792667e+000 0.000000e+000 7.970116e+000
      endloop
   endfacet
   facet normal 0.000000e+000 -1.000000e+000 0.000000e+000
      outer loop
         vertex 0.000000e+000 0.000000e+000 0.000000e+000
         vertex 4.792667e+000 0.000000e+000 7.970116e+000
         vertex 4.445619e+000 0.000000e+000 8.063107e+000
      endloop
   endfacet
   facet normal 0.000000e+000 -1.000000e+000 0.000000e+000
      outer loop
         vertex 4.445619e+000 0.000000e+000 8.063107e+000
         vertex 4.119991e+000 0.000000e+000 8.214951e+000
         vertex 0.000000e+000 0.000000e+000 0.000000e+000
      endloop
   endfacet
   facet normal 0.000000e+000 -1.000000e+000 0.000000e+000
      outer loop
         vertex 0.000000e+000 0.000000e+000 0.000000e+000
         vertex 4.119991e+000 0.000000e+000 8.214951e+000
         vertex 3.825678e+000 0.000000e+000 8.421031e+000
      endloop
   endfacet
   facet normal 0.000000e+000 -1.000000e+000 0.000000e+000
      outer loop
         vertex 0.000000e+000 0.000000e+000 0.000000e+000
         vertex 3.825678e+000 0.000000e+000 8.421031e+000
         vertex 3.571621e+000 0.000000e+000 8.675087e+000
      endloop
   endfacet
   facet normal -9.983119e-001 0.000000e+000 5.807913e-002
      outer loop
         vertex 7.211788e+000 0.000000e+000 1.000000e+001
         vertex 7.211788e+000 1.000000e+001 1.000000e+001
         vertex 7.180474e+000 1.000000e+001 9.642076e+000
      endloop
   endfacet
   facet normal -9.932307e-001 0.000000e+000 1.161583e-001
      outer loop
         vertex 7.211788e+000 0.000000e+000 1.000000e+001
         vertex 7.180474e+000 1.000000e+001 9.642076e+000
         vertex 7.180474e+000 0.000000e+000 9.642076e+000
      endloop
   endfacet
   facet normal -9.730600e-001 0.000000e+000 2.305519e-001
      outer loop
         vertex 7.180474e+000 0.000000e+000 9.642076e+000
         vertex 7.180474e+000 1.000000e+001 9.642076e+000
         vertex 7.087482e+000 1.000000e+001 9.295029e+000
      endloop
   endfacet
   facet normal -9.579706e-001 0.000000e+000 2.868663e-001
      outer loop
         vertex 7.180474e+000 0.000000e+000 9.642076e+000
         vertex 7.087482e+000 1.000000e+001 9.295029e+000
         vertex 7.087482e+000 0.000000e+000 9.295029e+000
      endloop
   endfacet
   facet normal -9.182422e-001 0.000000e+000 3.960194e-001
      outer loop
         vertex 7.087482e+000 0.000000e+000 9.295029e+000
         vertex 7.087482e+000 1.000000e+001 9.295029e+000
         vertex 6.935640e+000 1.000000e+001 8.969401e+000
      endloop
   endfacet
   facet normal -8.936031e-001 0.000000e+000 4.488580e-001
      outer loop
         vertex 7.087482e+000 0.000000e+000 9.295029e+000
         vertex 6.935640e+000 1.000000e+001 8.969401e+000
         vertex 6.935640e+000 0.000000e+000 8.969401e+000
      endloop
   endfacet
   facet normal -8.355240e-001 0.000000e+000 5.494540e-001
      outer loop
         vertex 6.935640e+000 0.000000e+000 8.969401e+000
         vertex 6.935640e+000 1.000000e+001 8.969401e+000
         vertex 6.729559e+000 1.000000e+001 8.675087e+000
      endloop
   endfacet
   facet normal -8.020838e-001 0.000000e+000 5.972114e-001
      outer loop
         vertex 6.935640e+000 0.000000e+000 8.969401e+000
         vertex 6.729559e+000 1.000000e+001 8.675087e+000
         vertex 6.729559e+000 0.000000e+000 8.675087e+000
      endloop
   endfacet
   facet normal -7.274188e-001 0.000000e+000 6.861938e-001
      outer loop
         vertex 6.729559e+000 0.000000e+000 8.675087e+000
         vertex 6.729559e+000 1.000000e+001 8.675087e+000
         vertex 6.475502e+000 1.000000e+001 8.421031e+000
      endloop
   endfacet
   facet normal -6.861938e-001 0.000000e+000 7.274188e-001
      outer loop
         vertex 6.729559e+000 0.000000e+000 8.675087e+000
         vertex 6.475502e+000 1.000000e+001 8.421031e+000
         vertex 6.475502e+000 0.000000e+000 8.421031e+000
      endloop
   endfacet
   facet normal -5.972114e-001 0.000000e+000 8.020838e-001
      outer loop
         vertex 6.475502e+000 0.000000e+000 8.421031e+000
         vertex 6.475502e+000 1.000000e+001 8.421031e+000
         vertex 6.181189e+000 1.000000e+001 8.214951e+000
      endloop
   endfacet
   facet normal -5.494540e-001 0.000000e+000 8.355240e-001
      outer loop
         vertex 6.475502e+000 0.000000e+000 8.421031e+000
         vertex 6.181189e+000 1.000000e+001 8.214951e+000
         vertex 6.181189e+000 0.000000e+000 8.214951e+000
      endloop
   endfacet
   facet normal -4.488580e-001 0.000000e+000 8.936031e-001
      outer loop
         vertex 6.181189e+000 0.000000e+000 8.214951e+000
         vertex 6.181189e+000 1.000000e+001 8.214951e+000
         vertex 5.855561e+000 1.000000e+001 8.063107e+000
      endloop
   endfacet
   facet normal -3.960194e-001 0.000000e+000 9.182422e-001
      outer loop
         vertex 6.181189e+000 0.000000e+000 8.214951e+000
         vertex 5.855561e+000 1.000000e+001 8.063107e+000
         vertex 5.855561e+000 0.000000e+000 8.063107e+000
      endloop
   endfacet
   facet normal -2.868663e-001 0.000000e+000 9.579706e-001
      outer loop
         vertex 5.855561e+000 0.000000e+000 8.063107e+000
         vertex 5.855561e+000 1.000000e+001 8.063107e+000
         vertex 5.508513e+000 1.000000e+001 7.970116e+000
      endloop
   endfacet
   facet normal -2.305519e-001 0.000000e+000 9.730600e-001
      outer loop
         vertex 5.855561e+000 0.000000e+000 8.063107e+000
         vertex 5.508513e+000 1.000000e+001 7.970116e+000
         vertex 5.508513e+000 0.000000e+000 7.970116e+000
      endloop
   endfacet
   facet normal -1.161583e-001 0.000000e+000 9.932307e-001
      outer loop
         vertex 5.508513e+000 0.000000e+000 7.970116e+000
         vertex 5.508513e+000 1.000000e+001 7.970116e+000
         vertex 5.150590e+000 1.000000e+001 7.938802e+000
      endloop
   endfacet
   facet normal -5.807913e-002 0.000000e+000 9.983119e-001
      outer loop
         vertex 5.508513e+000 0.000000e+000 7.970116e+000
         vertex 5.150590e+000 1.000000e+001 7.938802e+000
         vertex 5.150590e+000 0.000000e+000 7.938802e+000
      endloop
   endfacet
   facet normal 5.807913e-002 0.000000e+000 9.983119e-001
      outer loop
         vertex 5.150590e+000 0.000000e+000 7.938802e+000
         vertex 5.150590e+000 1.000000e+001 7.938802e+000
         vertex 4.792667e+000 1.000000e+001 7.970116e+000
      endloop
   endfacet
   facet normal 1.161583e-001 0.000000e+000 9.932307e-001
      outer loop
         vertex 5.150590e+000 0.000000e+000 7.938802e+000
         vertex 4.792667e+000 1.000000e+001 7.970116e+000
         vertex 4.792667e+000 0.000000e+000 7.970116e+000
      endloop
   endfacet
   facet normal 2.305519e-001 0.000000e+000 9.730600e-001
      outer loop
         vertex 4.792667e+000 0.000000e+000 7.970116e+000
         vertex 4.792667e+000 1.000000e+001 7.970116e+000
         vertex 4.445619e+000 1.000000e+001 8.063107e+000
      endloop
   endfacet
   facet normal 2.868663e-001 0.000000e+000 9.579706e-001
      outer loop
         vertex 4.792667e+000 0.000000e+000 7.970116e+000
         vertex 4.445619e+000 1.000000e+001 8.063107e+000
         vertex 4.445619e+000 0.000000e+000 8.063107e+000
      endloop
   endfacet
   facet normal 3.960194e-001 0.000000e+000 9.182422e-001
      outer loop
         vertex 4.445619e+000 0.000000e+000 8.063107e+000
         vertex 4.445619e+000 1.000000e+001 8.063107e+000
         vertex 4.119991e+000 1.000000e+001 8.214951e+000
      endloop
   endfacet
   facet normal 4.488580e-001 0.000000e+000 8.936031e-001
      outer loop
         vertex 4.445619e+000 0.000000e+000 8.063107e+000
         vertex 4.119991e+000 1.000000e+001 8.214951e+000
         vertex 4.119991e+000 0.000000e+000 8.214951e+000
      endloop
   endfacet
   facet normal 5.494540e-001 0.000000e+000 8.355240e-001
      outer loop
         vertex 4.119991e+000 0.000000e+000 8.214951e+000
         vertex 4.119991e+000 1.000000e+001 8.214951e+000
         vertex 3.825678e+000 1.000000e+001 8.421031e+000
      endloop
   endfacet
   facet normal 5.972114e-001 0.000000e+000 8.020838e-001
      outer loop
         vertex 4.119991e+000 0.000000e+000 8.214951e+000
         vertex 3.825678e+000 1.000000e+001 8.421031e+000
         vertex 3.825678e+000 0.000000e+000 8.421031e+000
      endloop
   endfacet
   facet normal 6.861938e-001 0.000000e+000 7.274188e-001
      outer loop
         vertex 3.825678e+000 0.000000e+000 8.421031e+000
         vertex 3.825678e+000 1.000000e+001 8.421031e+000
         vertex 3.571621e+000 1.000000e+001 8.675087e+000
      endloop
   endfacet
   facet normal 7.274188e-001 0.000000e+000 6.861938e-001
      outer loop
         vertex 3.825678e+000 0.000000e+000 8.421031e+000
         vertex 3.571621e+000 1.000000e+001 8.675087e+000
         vertex 3.571621e+000 0.000000e+000 8.675087e+000
      endloop
   endfacet
   facet normal 8.020838e-001 0.000000e+000 5.972114e-001
      outer loop
         vertex 3.571621e+000 0.000000e+000 8.675087e+000
         vertex 3.571621e+000 1.000000e+001 8.675087e+000
         vertex 3.365541e+000 1.000000e+001 8.969401e+000
      endloop
   endfacet
   facet normal 8.355240e-001 0.000000e+000 5.494540e-001
      outer loop
         vertex 3.571621e+000 0.000000e+000 8.675087e+000
         vertex 3.365541e+000 1.000000e+001 8.969401e+000
         vertex 3.365541e+000 0.000000e+000 8.969401e+000
      endloop
   endfacet
   facet normal 8.936031e-001 0.000000e+000 4.488580e-001
      outer loop
         vertex 3.365541e+000 0.000000e+000 8.969401e+000
         vertex 3.365541e+000 1.000000e+001 8.969401e+000
         vertex 3.213698e+000 1.000000e+001 9.295029e+000
      endloop
   endfacet
   facet normal 9.182422e-001 0.000000e+000 3.960194e-001
      outer loop
         vertex 3.365541e+000 0.000000e+000 8.969401e+000
         vertex 3.213698e+000 1.000000e+001 9.295029e+000
         vertex 3.213698e+000 0.000000e+000 9.295029e+000
      endloop
   endfacet
   facet normal 9.579706e-001 0.000000e+000 2.868663e-001
      outer loop
         vertex 3.213698e+000 0.000000e+000 9.295029e+000
         vertex 3.213698e+000 1.000000e+001 9.295029e+000
         vertex 3.120707e+000 1.000000e+001 9.642076e+000
      endloop
   endfacet
   facet normal 9.730600e-001 0.000000e+000 2.305519e-001
      outer loop
         vertex 3.213698e+000 0.000000e+000 9.295029e+000
         vertex 3.120707e+000 1.000000e+001 9.642076e+000
         vertex 3.120707e+000 0.000000e+000 9.642076e+000
      endloop
   endfacet
   facet normal 9.932307e-001 0.000000e+000 1.161583e-001
      outer loop
         vertex 3.120707e+000 0.000000e+000 9.642076e+000
         vertex 3.120707e+000 1.000000e+001 9.642076e+000
         vertex 3.089392e+000 1.000000e+001 1.000000e+001
      endloop
   endfacet
   facet normal 9.983119e-001 0.000000e+000 5.807913e-002
      outer loop
         vertex 3.120707e+000 0.000000e+000 9.642076e+000
         vertex 3.089392e+000 1.000000e+001 1.000000e+001
         vertex 3.089392e+000 0.000000e+000 1.000000e+001
      endloop
   endfacet
endsolid