solid 5_603
   facet normal 0.000000e+000 0.000000e+000 1.000000e+000
      outer loop
         vertex 1.000000e+001 8.682106e+000 1.000000e+001
         vertex 1.000000e+001 1.000000e+001 1.000000e+001
         vertex 0.000000e+000 8.682106e+000 1.000000e+001
      endloop
   endfacet
   facet normal 0.000000e+000 0.000000e+000 1.000000e+000
      outer loop
         vertex 0.000000e+000 8.682106e+000 1.000000e+001
         vertex 1.000000e+001 1.000000e+001 1.000000e+001
         vertex 0.000000e+000 1.000000e+001 1.000000e+001
      endloop
   endfacet
   facet normal -1.000000e+000 0.000000e+000 0.000000e+000
      outer loop
         vertex 0.000000e+000 8.650604e+000 9.519389e+000
         vertex 0.000000e+000 8.682106e+000 1.000000e+001
         vertex 0.000000e+000 1.000000e+001 1.000000e+001
      endloop
   endfacet
   facet normal -1.000000e+000 0.000000e+000 0.000000e+000
      outer loop
         vertex 0.000000e+000 1.317894e+000 1.000000e+001
         vertex 0.000000e+000 1.349395e+000 9.519389e+000
         vertex 0.000000e+000 0.000000e+000 1.000000e+001
      endloop
   endfacet
   facet normal -1.000000e+000 0.000000e+000 0.000000e+000
      outer loop
         vertex 0.000000e+000 0.000000e+000 1.000000e+001
         vertex 0.000000e+000 1.349395e+000 9.519389e+000
         vertex 0.000000e+000 1.443359e+000 9.047001e+000
      endloop
   endfacet
   facet normal -1.000000e+000 0.000000e+000 0.000000e+000
      outer loop
         vertex 0.000000e+000 0.000000e+000 1.000000e+001
         vertex 0.000000e+000 1.443359e+000 9.047001e+000
         vertex 0.000000e+000 0.000000e+000 0.000000e+000
      endloop
   endfacet
   facet normal -1.000000e+000 0.000000e+000 0.000000e+000
      outer loop
         vertex 0.000000e+000 0.000000e+000 0.000000e+000
         vertex 0.000000e+000 1.443359e+000 9.047001e+000
         vertex 0.000000e+000 1.598178e+000 8.590919e+000
      endloop
   endfacet
   facet normal -1.000000e+000 0.000000e+000 0.000000e+000
      outer loop
         vertex 0.000000e+000 0.000000e+000 0.000000e+000
         vertex 0.000000e+000 1.598178e+000 8.590919e+000
         vertex 0.000000e+000 1.811203e+000 8.158946e+000
      endloop
   endfacet
   facet normal -1.000000e+000 0.000000e+000 0.000000e+000
      outer loop
         vertex 0.000000e+000 1.811203e+000 8.158946e+000
         vertex 0.000000e+000 2.078789e+000 7.758476e+000
         vertex 0.000000e+000 0.000000e+000 0.000000e+000
      endloop
   endfacet
   facet normal -1.000000e+000 0.000000e+000 0.000000e+000
      outer loop
         vertex 0.000000e+000 0.000000e+000 0.000000e+000
         vertex 0.000000e+000 2.078789e+000 7.758476e+000
         vertex 0.000000e+000 2.396358e+000 7.396358e+000
      endloop
   endfacet
   facet normal -1.000000e+000 0.000000e+000 0.000000e+000
      outer loop
         vertex 0.000000e+000 0.000000e+000 0.000000e+000
         vertex 0.000000e+000 2.396358e+000 7.396358e+000
         vertex 0.000000e+000 2.758476e+000 7.078789e+000
      endloop
   endfacet
   facet normal -1.000000e+000 0.000000e+000 0.000000e+000
      outer loop
         vertex 0.000000e+000 5.952999e+000 6.443358e+000
         vertex 0.000000e+000 6.409081e+000 6.598177e+000
         vertex 0.000000e+000 1.000000e+001 0.000000e+000
      endloop
   endfacet
   facet normal -1.000000e+000 0.000000e+000 0.000000e+000
      outer loop
         vertex 0.000000e+000 1.000000e+001 0.000000e+000
         vertex 0.000000e+000 6.409081e+000 6.598177e+000
         vertex 0.000000e+000 6.841053e+000 6.811203e+000
      endloop
   endfacet
   facet normal -1.000000e+000 0.000000e+000 0.000000e+000
      outer loop
         vertex 0.000000e+000 6.841053e+000 6.811203e+000
         vertex 0.000000e+000 7.241524e+000 7.078789e+000
         vertex 0.000000e+000 1.000000e+001 0.000000e+000
      endloop
   endfacet
   facet normal -1.000000e+000 0.000000e+000 0.000000e+000
      outer loop
         vertex 0.000000e+000 1.000000e+001 0.000000e+000
         vertex 0.000000e+000 7.241524e+000 7.078789e+000
         vertex 0.000000e+000 7.603642e+000 7.396358e+000
      endloop
   endfacet
   facet normal -1.000000e+000 0.000000e+000 0.000000e+000
      outer loop
         vertex 0.000000e+000 1.000000e+001 0.000000e+000
         vertex 0.000000e+000 7.603642e+000 7.396358e+000
         vertex 0.000000e+000 7.921211e+000 7.758476e+000
      endloop
   endfacet
   facet normal -1.000000e+000 0.000000e+000 0.000000e+000
      outer loop
         vertex 0.000000e+000 2.758476e+000 7.078789e+000
         vertex 0.000000e+000 3.158947e+000 6.811203e+000
         vertex 0.000000e+000 0.000000e+000 0.000000e+000
      endloop
   endfacet
   facet normal -1.000000e+000 0.000000e+000 0.000000e+000
      outer loop
         vertex 0.000000e+000 0.000000e+000 0.000000e+000
         vertex 0.000000e+000 3.158947e+000 6.811203e+000
         vertex 0.000000e+000 3.590919e+000 6.598177e+000
      endloop
   endfacet
   facet normal -1.000000e+000 0.000000e+000 0.000000e+000
      outer loop
         vertex 0.000000e+000 0.000000e+000 0.000000e+000
         vertex 0.000000e+000 3.590919e+000 6.598177e+000
         vertex 0.000000e+000 4.047001e+000 6.443358e+000
      endloop
   endfacet
   facet normal -1.000000e+000 0.000000e+000 0.000000e+000
      outer loop
         vertex 0.000000e+000 7.921211e+000 7.758476e+000
         vertex 0.000000e+000 8.188797e+000 8.158946e+000
         vertex 0.000000e+000 1.000000e+001 0.000000e+000
      endloop
   endfacet
   facet normal -1.000000e+000 0.000000e+000 0.000000e+000
      outer loop
         vertex 0.000000e+000 1.000000e+001 0.000000e+000
         vertex 0.000000e+000 8.188797e+000 8.158946e+000
         vertex 0.000000e+000 8.401822e+000 8.590919e+000
      endloop
   endfacet
   facet normal -1.000000e+000 0.000000e+000 0.000000e+000
      outer loop
         vertex 0.000000e+000 1.000000e+001 0.000000e+000
         vertex 0.000000e+000 8.401822e+000 8.590919e+000
         vertex 0.000000e+000 1.000000e+001 1.000000e+001
      endloop
   endfacet
   facet normal -1.000000e+000 0.000000e+000 0.000000e+000
      outer loop
         vertex 0.000000e+000 1.000000e+001 1.000000e+001
         vertex 0.000000e+000 8.401822e+000 8.590919e+000
         vertex 0.000000e+000 8.556642e+000 9.047001e+000
      endloop
   endfacet
   facet normal -1.000000e+000 0.000000e+000 0.000000e+000
      outer loop
         vertex 0.000000e+000 1.000000e+001 1.000000e+001
         vertex 0.000000e+000 8.556642e+000 9.047001e+000
         vertex 0.000000e+000 8.650604e+000 9.519389e+000
      endloop
   endfacet
   facet normal -1.000000e+000 0.000000e+000 0.000000e+000
      outer loop
         vertex 0.000000e+000 4.047001e+000 6.443358e+000
         vertex 0.000000e+000 4.519389e+000 6.349395e+000
         vertex 0.000000e+000 0.000000e+000 0.000000e+000
      endloop
   endfacet
   facet normal -1.000000e+000 0.000000e+000 0.000000e+000
      outer loop
         vertex 0.000000e+000 0.000000e+000 0.000000e+000
         vertex 0.000000e+000 4.519389e+000 6.349395e+000
         vertex 0.000000e+000 5.000000e+000 6.317894e+000
      endloop
   endfacet
   facet normal -1.000000e+000 0.000000e+000 0.000000e+000
      outer loop
         vertex 0.000000e+000 0.000000e+000 0.000000e+000
         vertex 0.000000e+000 5.000000e+000 6.317894e+000
         vertex 0.000000e+000 1.000000e+001 0.000000e+000
      endloop
   endfacet
   facet normal -1.000000e+000 0.000000e+000 0.000000e+000
      outer loop
         vertex 0.000000e+000 1.000000e+001 0.000000e+000
         vertex 0.000000e+000 5.000000e+000 6.317894e+000
         vertex 0.000000e+000 5.480611e+000 6.349395e+000
      endloop
   endfacet
   facet normal -1.000000e+000 0.000000e+000 0.000000e+000
      outer loop
         vertex 0.000000e+000 1.000000e+001 0.000000e+000
         vertex 0.000000e+000 5.480611e+000 6.349395e+000
         vertex 0.000000e+000 5.952999e+000 6.443358e+000
      endloop
   endfacet
   facet normal 0.000000e+000 0.000000e+000 1.000000e+000
      outer loop
         vertex 0.000000e+000 1.317894e+000 1.000000e+001
         vertex 0.000000e+000 0.000000e+000 1.000000e+001
         vertex 1.000000e+001 1.317894e+000 1.000000e+001
      endloop
   endfacet
   facet normal 0.000000e+000 0.000000e+000 1.000000e+000
      outer loop
         vertex 1.000000e+001 1.317894e+000 1.000000e+001
         vertex 0.000000e+000 0.000000e+000 1.000000e+001
         vertex 1.000000e+001 0.000000e+000 1.000000e+001
      endloop
   endfacet
   facet normal 1.000000e+000 0.000000e+000 0.000000e+000
      outer loop
         vertex 1.000000e+001 1.317894e+000 1.000000e+001
         vertex 1.000000e+001 0.000000e+000 1.000000e+001
         vertex 1.000000e+001 1.349395e+000 9.519389e+000
      endloop
   endfacet
   facet normal 1.000000e+000 0.000000e+000 0.000000e+000
      outer loop
         vertex 1.000000e+001 1.349395e+000 9.519389e+000
         vertex 1.000000e+001 0.000000e+000 1.000000e+001
         vertex 1.000000e+001 1.443359e+000 9.047001e+000
      endloop
   endfacet
   facet normal 1.000000e+000 0.000000e+000 0.000000e+000
      outer loop
         vertex 1.000000e+001 1.443359e+000 9.047001e+000
         vertex 1.000000e+001 0.000000e+000 1.000000e+001
         vertex 1.000000e+001 1.598178e+000 8.590919e+000
      endloop
   endfacet
   facet normal 1.000000e+000 0.000000e+000 0.000000e+000
      outer loop
         vertex 1.000000e+001 1.598178e+000 8.590919e+000
         vertex 1.000000e+001 0.000000e+000 1.000000e+001
         vertex 1.000000e+001 0.000000e+000 0.000000e+000
      endloop
   endfacet
   facet normal 1.000000e+000 0.000000e+000 0.000000e+000
      outer loop
         vertex 1.000000e+001 1.598178e+000 8.590919e+000
         vertex 1.000000e+001 0.000000e+000 0.000000e+000
         vertex 1.000000e+001 1.811203e+000 8.158946e+000
      endloop
   endfacet
   facet normal 1.000000e+000 0.000000e+000 0.000000e+000
      outer loop
         vertex 1.000000e+001 8.682106e+000 1.000000e+001
         vertex 1.000000e+001 8.650604e+000 9.519389e+000
         vertex 1.000000e+001 1.000000e+001 1.000000e+001
      endloop
   endfacet
   facet normal 1.000000e+000 0.000000e+000 0.000000e+000
      outer loop
         vertex 1.000000e+001 1.000000e+001 1.000000e+001
         vertex 1.000000e+001 8.650604e+000 9.519389e+000
         vertex 1.000000e+001 8.556642e+000 9.047001e+000
      endloop
   endfacet
   facet normal 1.000000e+000 0.000000e+000 0.000000e+000
      outer loop
         vertex 1.000000e+001 1.000000e+001 1.000000e+001
         vertex 1.000000e+001 8.556642e+000 9.047001e+000
         vertex 1.000000e+001 1.000000e+001 0.000000e+000
      endloop
   endfacet
   facet normal 1.000000e+000 0.000000e+000 0.000000e+000
      outer loop
         vertex 1.000000e+001 1.000000e+001 0.000000e+000
         vertex 1.000000e+001 8.556642e+000 9.047001e+000
         vertex 1.000000e+001 8.401822e+000 8.590919e+000
      endloop
   endfacet
   facet normal 1.000000e+000 0.000000e+000 0.000000e+000
      outer loop
         vertex 1.000000e+001 8.401822e+000 8.590919e+000
         vertex 1.000000e+001 8.188797e+000 8.158946e+000
         vertex 1.000000e+001 1.000000e+001 0.000000e+000
      endloop
   endfacet
   facet normal 1.000000e+000 0.000000e+000 0.000000e+000
      outer loop
         vertex 1.000000e+001 1.000000e+001 0.000000e+000
         vertex 1.000000e+001 8.188797e+000 8.158946e+000
         vertex 1.000000e+001 7.921211e+000 7.758476e+000
      endloop
   endfacet
   facet normal 1.000000e+000 0.000000e+000 0.000000e+000
      outer loop
         vertex 1.000000e+001 1.000000e+001 0.000000e+000
         vertex 1.000000e+001 7.921211e+000 7.758476e+000
         vertex 1.000000e+001 7.603642e+000 7.396358e+000
      endloop
   endfacet
   facet normal 1.000000e+000 0.000000e+000 0.000000e+000
      outer loop
         vertex 1.000000e+001 7.603642e+000 7.396358e+000
         vertex 1.000000e+001 7.241524e+000 7.078789e+000
         vertex 1.000000e+001 1.000000e+001 0.000000e+000
      endloop
   endfacet
   facet normal 1.000000e+000 0.000000e+000 0.000000e+000
      outer loop
         vertex 1.000000e+001 1.000000e+001 0.000000e+000
         vertex 1.000000e+001 7.241524e+000 7.078789e+000
         vertex 1.000000e+001 6.841053e+000 6.811203e+000
      endloop
   endfacet
   facet normal 1.000000e+000 0.000000e+000 0.000000e+000
      outer loop
         vertex 1.000000e+001 1.000000e+001 0.000000e+000
         vertex 1.000000e+001 6.841053e+000 6.811203e+000
         vertex 1.000000e+001 6.409081e+000 6.598177e+000
      endloop
   endfacet
   facet normal 1.000000e+000 0.000000e+000 0.000000e+000
      outer loop
         vertex 1.000000e+001 2.758476e+000 7.078789e+000
         vertex 1.000000e+001 2.396358e+000 7.396358e+000
         vertex 1.000000e+001 0.000000e+000 0.000000e+000
      endloop
   endfacet
   facet normal 1.000000e+000 0.000000e+000 0.000000e+000
      outer loop
         vertex 1.000000e+001 0.000000e+000 0.000000e+000
         vertex 1.000000e+001 2.396358e+000 7.396358e+000
         vertex 1.000000e+001 2.078789e+000 7.758476e+000
      endloop
   endfacet
   facet normal 1.000000e+000 0.000000e+000 0.000000e+000
      outer loop
         vertex 1.000000e+001 0.000000e+000 0.000000e+000
         vertex 1.000000e+001 2.078789e+000 7.758476e+000
         vertex 1.000000e+001 1.811203e+000 8.158946e+000
      endloop
   endfacet
   facet normal 1.000000e+000 0.000000e+000 0.000000e+000
      outer loop
         vertex 1.000000e+001 0.000000e+000 0.000000e+000
         vertex 1.000000e+001 4.519389e+000 6.349395e+000
         vertex 1.000000e+001 4.047001e+000 6.443358e+000
      endloop
   endfacet
   facet normal 1.000000e+000 0.000000e+000 0.000000e+000
      outer loop
         vertex 1.000000e+001 6.409081e+000 6.598177e+000
         vertex 1.000000e+001 5.952999e+000 6.443358e+000
         vertex 1.000000e+001 1.000000e+001 0.000000e+000
      endloop
   endfacet
   facet normal 1.000000e+000 0.000000e+000 0.000000e+000
      outer loop
         vertex 1.000000e+001 1.000000e+001 0.000000e+000
         vertex 1.000000e+001 5.952999e+000 6.443358e+000
         vertex 1.000000e+001 5.480611e+000 6.349395e+000
      endloop
   endfacet
   facet normal 1.000000e+000 0.000000e+000 0.000000e+000
      outer loop
         vertex 1.000000e+001 1.000000e+001 0.000000e+000
         vertex 1.000000e+001 5.480611e+000 6.349395e+000
         vertex 1.000000e+001 0.000000e+000 0.000000e+000
      endloop
   endfacet
   facet normal 1.000000e+000 0.000000e+000 0.000000e+000
      outer loop
         vertex 1.000000e+001 0.000000e+000 0.000000e+000
         vertex 1.000000e+001 5.480611e+000 6.349395e+000
         vertex 1.000000e+001 5.000000e+000 6.317894e+000
      endloop
   endfacet
   facet normal 1.000000e+000 0.000000e+000 0.000000e+000
      outer loop
         vertex 1.000000e+001 0.000000e+000 0.000000e+000
         vertex 1.000000e+001 5.000000e+000 6.317894e+000
         vertex 1.000000e+001 4.519389e+000 6.349395e+000
      endloop
   endfacet
   facet normal 1.000000e+000 0.000000e+000 0.000000e+000
      outer loop
         vertex 1.000000e+001 4.047001e+000 6.443358e+000
         vertex 1.000000e+001 3.590919e+000 6.598177e+000
         vertex 1.000000e+001 0.000000e+000 0.000000e+000
      endloop
   endfacet
   facet normal 1.000000e+000 0.000000e+000 0.000000e+000
      outer loop
         vertex 1.000000e+001 0.000000e+000 0.000000e+000
         vertex 1.000000e+001 3.590919e+000 6.598177e+000
         vertex 1.000000e+001 3.158947e+000 6.811203e+000
      endloop
   endfacet
   facet normal 1.000000e+000 0.000000e+000 0.000000e+000
      outer loop
         vertex 1.000000e+001 0.000000e+000 0.000000e+000
         vertex 1.000000e+001 3.158947e+000 6.811203e+000
         vertex 1.000000e+001 2.758476e+000 7.078789e+000
      endloop
   endfacet
   facet normal 0.000000e+000 0.000000e+000 -1.000000e+000
      outer loop
         vertex 0.000000e+000 1.000000e+001 0.000000e+000
         vertex 1.000000e+001 1.000000e+001 0.000000e+000
         vertex 0.000000e+000 0.000000e+000 0.000000e+000
      endloop
   endfacet
   facet normal 0.000000e+000 0.000000e+000 -1.000000e+000
      outer loop
         vertex 0.000000e+000 0.000000e+000 0.000000e+000
         vertex 1.000000e+001 1.000000e+001 0.000000e+000
         vertex 1.000000e+001 0.000000e+000 0.000000e+000
      endloop
   endfacet
   facet normal 0.000000e+000 1.000000e+000 0.000000e+000
      outer loop
         vertex 1.000000e+001 1.000000e+001 1.000000e+001
         vertex 1.000000e+001 1.000000e+001 0.000000e+000
         vertex 0.000000e+000 1.000000e+001 1.000000e+001
      endloop
   endfacet
   facet normal 0.000000e+000 1.000000e+000 0.000000e+000
      outer loop
         vertex 0.000000e+000 1.000000e+001 1.000000e+001
         vertex 1.000000e+001 1.000000e+001 0.000000e+000
         vertex 0.000000e+000 1.000000e+001 0.000000e+000
      endloop
   endfacet
   facet normal 0.000000e+000 -1.000000e+000 0.000000e+000
      outer loop
         vertex 1.000000e+001 0.000000e+000 0.000000e+000
         vertex 1.000000e+001 0.000000e+000 1.000000e+001
         vertex 0.000000e+000 0.000000e+000 0.000000e+000
      endloop
   endfacet
   facet normal 0.000000e+000 -1.000000e+000 0.000000e+000
      outer loop
         vertex 0.000000e+000 0.000000e+000 0.000000e+000
         vertex 1.000000e+001 0.000000e+000 1.000000e+001
         vertex 0.000000e+000 0.000000e+000 1.000000e+001
      endloop
   endfacet
   facet normal 0.000000e+000 9.990495e-001 4.359168e-002
      outer loop
         vertex 0.000000e+000 1.317894e+000 1.000000e+001
         vertex 1.000000e+001 1.317894e+000 1.000000e+001
         vertex 1.000000e+001 1.349395e+000 9.519389e+000
      endloop
   endfacet
   facet normal 0.000000e+000 9.961922e-001 8.718336e-002
      outer loop
         vertex 0.000000e+000 1.317894e+000 1.000000e+001
         vertex 1.000000e+001 1.349395e+000 9.519389e+000
         vertex 0.000000e+000 1.349395e+000 9.519389e+000
      endloop
   endfacet
   facet normal 0.000000e+000 9.848126e-001 1.736209e-001
      outer loop
         vertex 0.000000e+000 1.349395e+000 9.519389e+000
         vertex 1.000000e+001 1.349395e+000 9.519389e+000
         vertex 1.000000e+001 1.443359e+000 9.047001e+000
      endloop
   endfacet
   facet normal 0.000000e+000 9.762900e-001 2.164667e-001
      outer loop
         vertex 0.000000e+000 1.349395e+000 9.519389e+000
         vertex 1.000000e+001 1.443359e+000 9.047001e+000
         vertex 0.000000e+000 1.443359e+000 9.047001e+000
      endloop
   endfacet
   facet normal 0.000000e+000 9.537253e-001 3.006794e-001
      outer loop
         vertex 0.000000e+000 1.443359e+000 9.047001e+000
         vertex 1.000000e+001 1.443359e+000 9.047001e+000
         vertex 1.000000e+001 1.598178e+000 8.590919e+000
      endloop
   endfacet
   facet normal 0.000000e+000 9.396831e-001 3.420462e-001
      outer loop
         vertex 0.000000e+000 1.443359e+000 9.047001e+000
         vertex 1.000000e+001 1.598178e+000 8.590919e+000
         vertex 0.000000e+000 1.598178e+000 8.590919e+000
      endloop
   endfacet
   facet normal 0.000000e+000 9.063195e-001 4.225931e-001
      outer loop
         vertex 0.000000e+000 1.598178e+000 8.590919e+000
         vertex 1.000000e+001 1.598178e+000 8.590919e+000
         vertex 1.000000e+001 1.811203e+000 8.158946e+000
      endloop
   endfacet
   facet normal 0.000000e+000 8.869980e-001 4.617732e-001
      outer loop
         vertex 0.000000e+000 1.598178e+000 8.590919e+000
         vertex 1.000000e+001 1.811203e+000 8.158946e+000
         vertex 0.000000e+000 1.811203e+000 8.158946e+000
      endloop
   endfacet
   facet normal 0.000000e+000 8.434063e-001 5.372763e-001
      outer loop
         vertex 0.000000e+000 1.811203e+000 8.158946e+000
         vertex 1.000000e+001 1.811203e+000 8.158946e+000
         vertex 1.000000e+001 2.078789e+000 7.758476e+000
      endloop
   endfacet
   facet normal 0.000000e+000 8.191361e-001 5.735992e-001
      outer loop
         vertex 0.000000e+000 1.811203e+000 8.158946e+000
         vertex 1.000000e+001 2.078789e+000 7.758476e+000
         vertex 0.000000e+000 2.078789e+000 7.758476e+000
      endloop
   endfacet
   facet normal 0.000000e+000 7.660623e-001 6.427664e-001
      outer loop
         vertex 0.000000e+000 2.078789e+000 7.758476e+000
         vertex 1.000000e+001 2.078789e+000 7.758476e+000
         vertex 1.000000e+001 2.396358e+000 7.396358e+000
      endloop
   endfacet
   facet normal 0.000000e+000 7.372586e-001 6.756107e-001
      outer loop
         vertex 0.000000e+000 2.078789e+000 7.758476e+000
         vertex 1.000000e+001 2.396358e+000 7.396358e+000
         vertex 0.000000e+000 2.396358e+000 7.396358e+000
      endloop
   endfacet
   facet normal 0.000000e+000 6.756107e-001 7.372586e-001
      outer loop
         vertex 0.000000e+000 2.396358e+000 7.396358e+000
         vertex 1.000000e+001 2.396358e+000 7.396358e+000
         vertex 1.000000e+001 2.758476e+000 7.078789e+000
      endloop
   endfacet
   facet normal 0.000000e+000 6.427664e-001 7.660623e-001
      outer loop
         vertex 0.000000e+000 2.396358e+000 7.396358e+000
         vertex 1.000000e+001 2.758476e+000 7.078789e+000
         vertex 0.000000e+000 2.758476e+000 7.078789e+000
      endloop
   endfacet
   facet normal 0.000000e+000 5.735992e-001 8.191361e-001
      outer loop
         vertex 0.000000e+000 2.758476e+000 7.078789e+000
         vertex 1.000000e+001 2.758476e+000 7.078789e+000
         vertex 1.000000e+001 3.158947e+000 6.811203e+000
      endloop
   endfacet
   facet normal 0.000000e+000 5.372762e-001 8.434064e-001
      outer loop
         vertex 0.000000e+000 2.758476e+000 7.078789e+000
         vertex 1.000000e+001 3.158947e+000 6.811203e+000
         vertex 0.000000e+000 3.158947e+000 6.811203e+000
      endloop
   endfacet
   facet normal 0.000000e+000 4.617732e-001 8.869980e-001
      outer loop
         vertex 0.000000e+000 3.158947e+000 6.811203e+000
         vertex 1.000000e+001 3.158947e+000 6.811203e+000
         vertex 1.000000e+001 3.590919e+000 6.598177e+000
      endloop
   endfacet
   facet normal 0.000000e+000 4.225931e-001 9.063195e-001
      outer loop
         vertex 0.000000e+000 3.158947e+000 6.811203e+000
         vertex 1.000000e+001 3.590919e+000 6.598177e+000
         vertex 0.000000e+000 3.590919e+000 6.598177e+000
      endloop
   endfacet
   facet normal 0.000000e+000 3.420462e-001 9.396831e-001
      outer loop
         vertex 0.000000e+000 3.590919e+000 6.598177e+000
         vertex 1.000000e+001 3.590919e+000 6.598177e+000
         vertex 1.000000e+001 4.047001e+000 6.443358e+000
      endloop
   endfacet
   facet normal 0.000000e+000 3.006794e-001 9.537253e-001
      outer loop
         vertex 0.000000e+000 3.590919e+000 6.598177e+000
         vertex 1.000000e+001 4.047001e+000 6.443358e+000
         vertex 0.000000e+000 4.047001e+000 6.443358e+000
      endloop
   endfacet
   facet normal 0.000000e+000 2.164667e-001 9.762900e-001
      outer loop
         vertex 0.000000e+000 4.047001e+000 6.443358e+000
         vertex 1.000000e+001 4.047001e+000 6.443358e+000
         vertex 1.000000e+001 4.519389e+000 6.349395e+000
      endloop
   endfacet
   facet normal 0.000000e+000 1.736209e-001 9.848126e-001
      outer loop
         vertex 0.000000e+000 4.047001e+000 6.443358e+000
         vertex 1.000000e+001 4.519389e+000 6.349395e+000
         vertex 0.000000e+000 4.519389e+000 6.349395e+000
      endloop
   endfacet
   facet normal 0.000000e+000 8.718336e-002 9.961922e-001
      outer loop
         vertex 0.000000e+000 4.519389e+000 6.349395e+000
         vertex 1.000000e+001 4.519389e+000 6.349395e+000
         vertex 1.000000e+001 5.000000e+000 6.317894e+000
      endloop
   endfacet
   facet normal 0.000000e+000 4.359168e-002 9.990495e-001
      outer loop
         vertex 0.000000e+000 4.519389e+000 6.349395e+000
         vertex 1.000000e+001 5.000000e+000 6.317894e+000
         vertex 0.000000e+000 5.000000e+000 6.317894e+000
      endloop
   endfacet
   facet normal 0.000000e+000 -4.359168e-002 9.990495e-001
      outer loop
         vertex 0.000000e+000 5.000000e+000 6.317894e+000
         vertex 1.000000e+001 5.000000e+000 6.317894e+000
         vertex 1.000000e+001 5.480611e+000 6.349395e+000
      endloop
   endfacet
   facet normal 0.000000e+000 -8.718336e-002 9.961922e-001
      outer loop
         vertex 0.000000e+000 5.000000e+000 6.317894e+000
         vertex 1.000000e+001 5.480611e+000 6.349395e+000
         vertex 0.000000e+000 5.480611e+000 6.349395e+000
      endloop
   endfacet
   facet normal 0.000000e+000 -1.736209e-001 9.848126e-001
      outer loop
         vertex 0.000000e+000 5.480611e+000 6.349395e+000
         vertex 1.000000e+001 5.480611e+000 6.349395e+000
         vertex 1.000000e+001 5.952999e+000 6.443358e+000
      endloop
   endfacet
   facet normal 0.000000e+000 -2.164667e-001 9.762900e-001
      outer loop
         vertex 0.000000e+000 5.480611e+000 6.349395e+000
         vertex 1.000000e+001 5.952999e+000 6.443358e+000
         vertex 0.000000e+000 5.952999e+000 6.443358e+000
      endloop
   endfacet
   facet normal 0.000000e+000 -3.006794e-001 9.537253e-001
      outer loop
         vertex 0.000000e+000 5.952999e+000 6.443358e+000
         vertex 1.000000e+001 5.952999e+000 6.443358e+000
         vertex 1.000000e+001 6.409081e+000 6.598177e+000
      endloop
   endfacet
   facet normal 0.000000e+000 -3.420462e-001 9.396831e-001
      outer loop
         vertex 0.000000e+000 5.952999e+000 6.443358e+000
         vertex 1.000000e+001 6.409081e+000 6.598177e+000
         vertex 0.000000e+000 6.409081e+000 6.598177e+000
      endloop
   endfacet
   facet normal 0.000000e+000 -4.225931e-001 9.063195e-001
      outer loop
         vertex 0.000000e+000 6.409081e+000 6.598177e+000
         vertex 1.000000e+001 6.409081e+000 6.598177e+000
         vertex 1.000000e+001 6.841053e+000 6.811203e+000
      endloop
   endfacet
   facet normal 0.000000e+000 -4.617732e-001 8.869980e-001
      outer loop
         vertex 0.000000e+000 6.409081e+000 6.598177e+000
         vertex 1.000000e+001 6.841053e+000 6.811203e+000
         vertex 0.000000e+000 6.841053e+000 6.811203e+000
      endloop
   endfacet
   facet normal 0.000000e+000 -5.372763e-001 8.434063e-001
      outer loop
         vertex 0.000000e+000 6.841053e+000 6.811203e+000
         vertex 1.000000e+001 6.841053e+000 6.811203e+000
         vertex 1.000000e+001 7.241524e+000 7.078789e+000
      endloop
   endfacet
   facet normal 0.000000e+000 -5.735992e-001 8.191361e-001
      outer loop
         vertex 0.000000e+000 6.841053e+000 6.811203e+000
         vertex 1.000000e+001 7.241524e+000 7.078789e+000
         vertex 0.000000e+000 7.241524e+000 7.078789e+000
      endloop
   endfacet
   facet normal 0.000000e+000 -6.427664e-001 7.660623e-001
      outer loop
         vertex 0.000000e+000 7.241524e+000 7.078789e+000
         vertex 1.000000e+001 7.241524e+000 7.078789e+000
         vertex 1.000000e+001 7.603642e+000 7.396358e+000
      endloop
   endfacet
   facet normal 0.000000e+000 -6.756107e-001 7.372586e-001
      outer loop
         vertex 0.000000e+000 7.241524e+000 7.078789e+000
         vertex 1.000000e+001 7.603642e+000 7.396358e+000
         vertex 0.000000e+000 7.603642e+000 7.396358e+000
      endloop
   endfacet
   facet normal 0.000000e+000 -7.372586e-001 6.756107e-001
      outer loop
         vertex 0.000000e+000 7.603642e+000 7.396358e+000
         vertex 1.000000e+001 7.603642e+000 7.396358e+000
         vertex 1.000000e+001 7.921211e+000 7.758476e+000
      endloop
   endfacet
   facet normal 0.000000e+000 -7.660623e-001 6.427664e-001
      outer loop
         vertex 0.000000e+000 7.603642e+000 7.396358e+000
         vertex 1.000000e+001 7.921211e+000 7.758476e+000
         vertex 0.000000e+000 7.921211e+000 7.758476e+000
      endloop
   endfacet
   facet normal 0.000000e+000 -8.191361e-001 5.735992e-001
      outer loop
         vertex 0.000000e+000 7.921211e+000 7.758476e+000
         vertex 1.000000e+001 7.921211e+000 7.758476e+000
         vertex 1.000000e+001 8.188797e+000 8.158946e+000
      endloop
   endfacet
   facet normal 0.000000e+000 -8.434064e-001 5.372762e-001
      outer loop
         vertex 0.000000e+000 7.921211e+000 7.758476e+000
         vertex 1.000000e+001 8.188797e+000 8.158946e+000
         vertex 0.000000e+000 8.188797e+000 8.158946e+000
      endloop
   endfacet
   facet normal 0.000000e+000 -8.869980e-001 4.617732e-001
      outer loop
         vertex 0.000000e+000 8.188797e+000 8.158946e+000
         vertex 1.000000e+001 8.188797e+000 8.158946e+000
         vertex 1.000000e+001 8.401822e+000 8.590919e+000
      endloop
   endfacet
   facet normal 0.000000e+000 -9.063195e-001 4.225931e-001
      outer loop
         vertex 0.000000e+000 8.188797e+000 8.158946e+000
         vertex 1.000000e+001 8.401822e+000 8.590919e+000
         vertex 0.000000e+000 8.401822e+000 8.590919e+000
      endloop
   endfacet
   facet normal 0.000000e+000 -9.396831e-001 3.420462e-001
      outer loop
         vertex 0.000000e+000 8.401822e+000 8.590919e+000
         vertex 1.000000e+001 8.401822e+000 8.590919e+000
         vertex 1.000000e+001 8.556642e+000 9.047001e+000
      endloop
   endfacet
   facet normal 0.000000e+000 -9.537253e-001 3.006794e-001
      outer loop
         vertex 0.000000e+000 8.401822e+000 8.590919e+000
         vertex 1.000000e+001 8.556642e+000 9.047001e+000
         vertex 0.000000e+000 8.556642e+000 9.047001e+000
      endloop
   endfacet
   facet normal 0.000000e+000 -9.762900e-001 2.164667e-001
      outer loop
         vertex 0.000000e+000 8.556642e+000 9.047001e+000
         vertex 1.000000e+001 8.556642e+000 9.047001e+000
         vertex 1.000000e+001 8.650604e+000 9.519389e+000
      endloop
   endfacet
   facet normal 0.000000e+000 -9.848126e-001 1.736209e-001
      outer loop
         vertex 0.000000e+000 8.556642e+000 9.047001e+000
         vertex 1.000000e+001 8.650604e+000 9.519389e+000
         vertex 0.000000e+000 8.650604e+000 9.519389e+000
      endloop
   endfacet
   facet normal 0.000000e+000 -9.961922e-001 8.718336e-002
      outer loop
         vertex 0.000000e+000 8.650604e+000 9.519389e+000
         vertex 1.000000e+001 8.650604e+000 9.519389e+000
         vertex 1.000000e+001 8.682106e+000 1.000000e+001
      endloop
   endfacet
   facet normal 0.000000e+000 -9.990495e-001 4.359168e-002
      outer loop
         vertex 0.000000e+000 8.650604e+000 9.519389e+000
         vertex 1.000000e+001 8.682106e+000 1.000000e+001
         vertex 0.000000e+000 8.682106e+000 1.000000e+001
      endloop
   endfacet
endsolid