solid 5_921
   facet normal 0.000000e+000 0.000000e+000 1.000000e+000
      outer loop
         vertex 1.000000e+001 8.087510e+000 1.000000e+001
         vertex 1.000000e+001 1.000000e+001 1.000000e+001
         vertex 0.000000e+000 8.087510e+000 1.000000e+001
      endloop
   endfacet
   facet normal 0.000000e+000 0.000000e+000 1.000000e+000
      outer loop
         vertex 0.000000e+000 8.087510e+000 1.000000e+001
         vertex 1.000000e+001 1.000000e+001 1.000000e+001
         vertex 0.000000e+000 1.000000e+001 1.000000e+001
      endloop
   endfacet
   facet normal -1.000000e+000 0.000000e+000 0.000000e+000
      outer loop
         vertex 0.000000e+000 8.054637e+000 9.561337e+000
         vertex 0.000000e+000 8.087510e+000 1.000000e+001
         vertex 0.000000e+000 1.000000e+001 1.000000e+001
      endloop
   endfacet
   facet normal -1.000000e+000 0.000000e+000 0.000000e+000
      outer loop
         vertex 0.000000e+000 2.712499e+000 8.342029e+000
         vertex 0.000000e+000 2.986768e+000 7.998106e+000
         vertex 0.000000e+000 0.000000e+000 0.000000e+000
      endloop
   endfacet
   facet normal -1.000000e+000 0.000000e+000 0.000000e+000
      outer loop
         vertex 0.000000e+000 2.201082e+000 1.000000e+001
         vertex 0.000000e+000 2.233956e+000 9.561337e+000
         vertex 0.000000e+000 0.000000e+000 1.000000e+001
      endloop
   endfacet
   facet normal -1.000000e+000 0.000000e+000 0.000000e+000
      outer loop
         vertex 0.000000e+000 0.000000e+000 1.000000e+001
         vertex 0.000000e+000 2.233956e+000 9.561337e+000
         vertex 0.000000e+000 2.331841e+000 9.132472e+000
      endloop
   endfacet
   facet normal -1.000000e+000 0.000000e+000 0.000000e+000
      outer loop
         vertex 0.000000e+000 0.000000e+000 1.000000e+001
         vertex 0.000000e+000 2.331841e+000 9.132472e+000
         vertex 0.000000e+000 0.000000e+000 0.000000e+000
      endloop
   endfacet
   facet normal -1.000000e+000 0.000000e+000 0.000000e+000
      outer loop
         vertex 0.000000e+000 0.000000e+000 0.000000e+000
         vertex 0.000000e+000 2.331841e+000 9.132472e+000
         vertex 0.000000e+000 2.492552e+000 8.722987e+000
      endloop
   endfacet
   facet normal -1.000000e+000 0.000000e+000 0.000000e+000
      outer loop
         vertex 0.000000e+000 0.000000e+000 0.000000e+000
         vertex 0.000000e+000 2.492552e+000 8.722987e+000
         vertex 0.000000e+000 2.712499e+000 8.342029e+000
      endloop
   endfacet
   facet normal -1.000000e+000 0.000000e+000 0.000000e+000
      outer loop
         vertex 0.000000e+000 1.000000e+001 0.000000e+000
         vertex 0.000000e+000 7.576094e+000 8.342029e+000
         vertex 0.000000e+000 7.796040e+000 8.722987e+000
      endloop
   endfacet
   facet normal -1.000000e+000 0.000000e+000 0.000000e+000
      outer loop
         vertex 0.000000e+000 2.986768e+000 7.998106e+000
         vertex 0.000000e+000 3.309232e+000 7.698903e+000
         vertex 0.000000e+000 0.000000e+000 0.000000e+000
      endloop
   endfacet
   facet normal -1.000000e+000 0.000000e+000 0.000000e+000
      outer loop
         vertex 0.000000e+000 0.000000e+000 0.000000e+000
         vertex 0.000000e+000 3.309232e+000 7.698903e+000
         vertex 0.000000e+000 3.672689e+000 7.451102e+000
      endloop
   endfacet
   facet normal -1.000000e+000 0.000000e+000 0.000000e+000
      outer loop
         vertex 0.000000e+000 0.000000e+000 0.000000e+000
         vertex 0.000000e+000 3.672689e+000 7.451102e+000
         vertex 0.000000e+000 4.069020e+000 7.260239e+000
      endloop
   endfacet
   facet normal -1.000000e+000 0.000000e+000 0.000000e+000
      outer loop
         vertex 0.000000e+000 5.799223e+000 7.130578e+000
         vertex 0.000000e+000 6.219573e+000 7.260239e+000
         vertex 0.000000e+000 1.000000e+001 0.000000e+000
      endloop
   endfacet
   facet normal -1.000000e+000 0.000000e+000 0.000000e+000
      outer loop
         vertex 0.000000e+000 1.000000e+001 0.000000e+000
         vertex 0.000000e+000 6.219573e+000 7.260239e+000
         vertex 0.000000e+000 6.615903e+000 7.451102e+000
      endloop
   endfacet
   facet normal -1.000000e+000 0.000000e+000 0.000000e+000
      outer loop
         vertex 0.000000e+000 4.069020e+000 7.260239e+000
         vertex 0.000000e+000 4.489370e+000 7.130578e+000
         vertex 0.000000e+000 0.000000e+000 0.000000e+000
      endloop
   endfacet
   facet normal -1.000000e+000 0.000000e+000 0.000000e+000
      outer loop
         vertex 0.000000e+000 0.000000e+000 0.000000e+000
         vertex 0.000000e+000 4.489370e+000 7.130578e+000
         vertex 0.000000e+000 4.924349e+000 7.065016e+000
      endloop
   endfacet
   facet normal -1.000000e+000 0.000000e+000 0.000000e+000
      outer loop
         vertex 0.000000e+000 0.000000e+000 0.000000e+000
         vertex 0.000000e+000 4.924349e+000 7.065016e+000
         vertex 0.000000e+000 1.000000e+001 0.000000e+000
      endloop
   endfacet
   facet normal -1.000000e+000 0.000000e+000 0.000000e+000
      outer loop
         vertex 0.000000e+000 1.000000e+001 0.000000e+000
         vertex 0.000000e+000 4.924349e+000 7.065016e+000
         vertex 0.000000e+000 5.364243e+000 7.065016e+000
      endloop
   endfacet
   facet normal -1.000000e+000 0.000000e+000 0.000000e+000
      outer loop
         vertex 0.000000e+000 1.000000e+001 0.000000e+000
         vertex 0.000000e+000 5.364243e+000 7.065016e+000
         vertex 0.000000e+000 5.799223e+000 7.130578e+000
      endloop
   endfacet
   facet normal -1.000000e+000 0.000000e+000 0.000000e+000
      outer loop
         vertex 0.000000e+000 1.000000e+001 0.000000e+000
         vertex 0.000000e+000 7.796040e+000 8.722987e+000
         vertex 0.000000e+000 1.000000e+001 1.000000e+001
      endloop
   endfacet
   facet normal -1.000000e+000 0.000000e+000 0.000000e+000
      outer loop
         vertex 0.000000e+000 1.000000e+001 1.000000e+001
         vertex 0.000000e+000 7.796040e+000 8.722987e+000
         vertex 0.000000e+000 7.956752e+000 9.132472e+000
      endloop
   endfacet
   facet normal -1.000000e+000 0.000000e+000 0.000000e+000
      outer loop
         vertex 0.000000e+000 1.000000e+001 1.000000e+001
         vertex 0.000000e+000 7.956752e+000 9.132472e+000
         vertex 0.000000e+000 8.054637e+000 9.561337e+000
      endloop
   endfacet
   facet normal -1.000000e+000 0.000000e+000 0.000000e+000
      outer loop
         vertex 0.000000e+000 6.615903e+000 7.451102e+000
         vertex 0.000000e+000 6.979360e+000 7.698903e+000
         vertex 0.000000e+000 1.000000e+001 0.000000e+000
      endloop
   endfacet
   facet normal -1.000000e+000 0.000000e+000 0.000000e+000
      outer loop
         vertex 0.000000e+000 1.000000e+001 0.000000e+000
         vertex 0.000000e+000 6.979360e+000 7.698903e+000
         vertex 0.000000e+000 7.301825e+000 7.998106e+000
      endloop
   endfacet
   facet normal -1.000000e+000 0.000000e+000 0.000000e+000
      outer loop
         vertex 0.000000e+000 1.000000e+001 0.000000e+000
         vertex 0.000000e+000 7.301825e+000 7.998106e+000
         vertex 0.000000e+000 7.576094e+000 8.342029e+000
      endloop
   endfacet
   facet normal 0.000000e+000 0.000000e+000 1.000000e+000
      outer loop
         vertex 0.000000e+000 2.201082e+000 1.000000e+001
         vertex 0.000000e+000 0.000000e+000 1.000000e+001
         vertex 1.000000e+001 2.201082e+000 1.000000e+001
      endloop
   endfacet
   facet normal 0.000000e+000 0.000000e+000 1.000000e+000
      outer loop
         vertex 1.000000e+001 2.201082e+000 1.000000e+001
         vertex 0.000000e+000 0.000000e+000 1.000000e+001
         vertex 1.000000e+001 0.000000e+000 1.000000e+001
      endloop
   endfacet
   facet normal 1.000000e+000 0.000000e+000 0.000000e+000
      outer loop
         vertex 1.000000e+001 2.233956e+000 9.561337e+000
         vertex 1.000000e+001 2.201082e+000 1.000000e+001
         vertex 1.000000e+001 0.000000e+000 1.000000e+001
      endloop
   endfacet
   facet normal 1.000000e+000 0.000000e+000 0.000000e+000
      outer loop
         vertex 1.000000e+001 4.489370e+000 7.130578e+000
         vertex 1.000000e+001 4.069020e+000 7.260239e+000
         vertex 1.000000e+001 0.000000e+000 0.000000e+000
      endloop
   endfacet
   facet normal 1.000000e+000 0.000000e+000 0.000000e+000
      outer loop
         vertex 1.000000e+001 8.087510e+000 1.000000e+001
         vertex 1.000000e+001 8.054637e+000 9.561337e+000
         vertex 1.000000e+001 1.000000e+001 1.000000e+001
      endloop
   endfacet
   facet normal 1.000000e+000 0.000000e+000 0.000000e+000
      outer loop
         vertex 1.000000e+001 1.000000e+001 1.000000e+001
         vertex 1.000000e+001 8.054637e+000 9.561337e+000
         vertex 1.000000e+001 7.956752e+000 9.132472e+000
      endloop
   endfacet
   facet normal 1.000000e+000 0.000000e+000 0.000000e+000
      outer loop
         vertex 1.000000e+001 1.000000e+001 1.000000e+001
         vertex 1.000000e+001 7.956752e+000 9.132472e+000
         vertex 1.000000e+001 1.000000e+001 0.000000e+000
      endloop
   endfacet
   facet normal 1.000000e+000 0.000000e+000 0.000000e+000
      outer loop
         vertex 1.000000e+001 7.956752e+000 9.132472e+000
         vertex 1.000000e+001 7.796040e+000 8.722987e+000
         vertex 1.000000e+001 1.000000e+001 0.000000e+000
      endloop
   endfacet
   facet normal 1.000000e+000 0.000000e+000 0.000000e+000
      outer loop
         vertex 1.000000e+001 1.000000e+001 0.000000e+000
         vertex 1.000000e+001 7.796040e+000 8.722987e+000
         vertex 1.000000e+001 7.576094e+000 8.342029e+000
      endloop
   endfacet
   facet normal 1.000000e+000 0.000000e+000 0.000000e+000
      outer loop
         vertex 1.000000e+001 1.000000e+001 0.000000e+000
         vertex 1.000000e+001 7.576094e+000 8.342029e+000
         vertex 1.000000e+001 7.301825e+000 7.998106e+000
      endloop
   endfacet
   facet normal 1.000000e+000 0.000000e+000 0.000000e+000
      outer loop
         vertex 1.000000e+001 4.069020e+000 7.260239e+000
         vertex 1.000000e+001 3.672689e+000 7.451102e+000
         vertex 1.000000e+001 0.000000e+000 0.000000e+000
      endloop
   endfacet
   facet normal 1.000000e+000 0.000000e+000 0.000000e+000
      outer loop
         vertex 1.000000e+001 0.000000e+000 0.000000e+000
         vertex 1.000000e+001 3.672689e+000 7.451102e+000
         vertex 1.000000e+001 3.309232e+000 7.698903e+000
      endloop
   endfacet
   facet normal 1.000000e+000 0.000000e+000 0.000000e+000
      outer loop
         vertex 1.000000e+001 0.000000e+000 0.000000e+000
         vertex 1.000000e+001 3.309232e+000 7.698903e+000
         vertex 1.000000e+001 2.986768e+000 7.998106e+000
      endloop
   endfacet
   facet normal 1.000000e+000 0.000000e+000 0.000000e+000
      outer loop
         vertex 1.000000e+001 2.986768e+000 7.998106e+000
         vertex 1.000000e+001 2.712499e+000 8.342029e+000
         vertex 1.000000e+001 0.000000e+000 0.000000e+000
      endloop
   endfacet
   facet normal 1.000000e+000 0.000000e+000 0.000000e+000
      outer loop
         vertex 1.000000e+001 0.000000e+000 0.000000e+000
         vertex 1.000000e+001 2.712499e+000 8.342029e+000
         vertex 1.000000e+001 2.492552e+000 8.722987e+000
      endloop
   endfacet
   facet normal 1.000000e+000 0.000000e+000 0.000000e+000
      outer loop
         vertex 1.000000e+001 0.000000e+000 0.000000e+000
         vertex 1.000000e+001 2.492552e+000 8.722987e+000
         vertex 1.000000e+001 0.000000e+000 1.000000e+001
      endloop
   endfacet
   facet normal 1.000000e+000 0.000000e+000 0.000000e+000
      outer loop
         vertex 1.000000e+001 0.000000e+000 1.000000e+001
         vertex 1.000000e+001 2.492552e+000 8.722987e+000
         vertex 1.000000e+001 2.331841e+000 9.132472e+000
      endloop
   endfacet
   facet normal 1.000000e+000 0.000000e+000 0.000000e+000
      outer loop
         vertex 1.000000e+001 0.000000e+000 1.000000e+001
         vertex 1.000000e+001 2.331841e+000 9.132472e+000
         vertex 1.000000e+001 2.233956e+000 9.561337e+000
      endloop
   endfacet
   facet normal 1.000000e+000 0.000000e+000 0.000000e+000
      outer loop
         vertex 1.000000e+001 6.219573e+000 7.260239e+000
         vertex 1.000000e+001 5.799223e+000 7.130578e+000
         vertex 1.000000e+001 1.000000e+001 0.000000e+000
      endloop
   endfacet
   facet normal 1.000000e+000 0.000000e+000 0.000000e+000
      outer loop
         vertex 1.000000e+001 1.000000e+001 0.000000e+000
         vertex 1.000000e+001 5.799223e+000 7.130578e+000
         vertex 1.000000e+001 5.364243e+000 7.065016e+000
      endloop
   endfacet
   facet normal 1.000000e+000 0.000000e+000 0.000000e+000
      outer loop
         vertex 1.000000e+001 1.000000e+001 0.000000e+000
         vertex 1.000000e+001 5.364243e+000 7.065016e+000
         vertex 1.000000e+001 0.000000e+000 0.000000e+000
      endloop
   endfacet
   facet normal 1.000000e+000 0.000000e+000 0.000000e+000
      outer loop
         vertex 1.000000e+001 0.000000e+000 0.000000e+000
         vertex 1.000000e+001 5.364243e+000 7.065016e+000
         vertex 1.000000e+001 4.924349e+000 7.065016e+000
      endloop
   endfacet
   facet normal 1.000000e+000 0.000000e+000 0.000000e+000
      outer loop
         vertex 1.000000e+001 0.000000e+000 0.000000e+000
         vertex 1.000000e+001 4.924349e+000 7.065016e+000
         vertex 1.000000e+001 4.489370e+000 7.130578e+000
      endloop
   endfacet
   facet normal 1.000000e+000 0.000000e+000 0.000000e+000
      outer loop
         vertex 1.000000e+001 7.301825e+000 7.998106e+000
         vertex 1.000000e+001 6.979360e+000 7.698903e+000
         vertex 1.000000e+001 1.000000e+001 0.000000e+000
      endloop
   endfacet
   facet normal 1.000000e+000 0.000000e+000 0.000000e+000
      outer loop
         vertex 1.000000e+001 1.000000e+001 0.000000e+000
         vertex 1.000000e+001 6.979360e+000 7.698903e+000
         vertex 1.000000e+001 6.615903e+000 7.451102e+000
      endloop
   endfacet
   facet normal 1.000000e+000 0.000000e+000 0.000000e+000
      outer loop
         vertex 1.000000e+001 1.000000e+001 0.000000e+000
         vertex 1.000000e+001 6.615903e+000 7.451102e+000
         vertex 1.000000e+001 6.219573e+000 7.260239e+000
      endloop
   endfacet
   facet normal 0.000000e+000 0.000000e+000 -1.000000e+000
      outer loop
         vertex 0.000000e+000 1.000000e+001 0.000000e+000
         vertex 1.000000e+001 1.000000e+001 0.000000e+000
         vertex 0.000000e+000 0.000000e+000 0.000000e+000
      endloop
   endfacet
   facet normal 0.000000e+000 0.000000e+000 -1.000000e+000
      outer loop
         vertex 0.000000e+000 0.000000e+000 0.000000e+000
         vertex 1.000000e+001 1.000000e+001 0.000000e+000
         vertex 1.000000e+001 0.000000e+000 0.000000e+000
      endloop
   endfacet
   facet normal 0.000000e+000 1.000000e+000 0.000000e+000
      outer loop
         vertex 1.000000e+001 1.000000e+001 1.000000e+001
         vertex 1.000000e+001 1.000000e+001 0.000000e+000
         vertex 0.000000e+000 1.000000e+001 1.000000e+001
      endloop
   endfacet
   facet normal 0.000000e+000 1.000000e+000 0.000000e+000
      outer loop
         vertex 0.000000e+000 1.000000e+001 1.000000e+001
         vertex 1.000000e+001 1.000000e+001 0.000000e+000
         vertex 0.000000e+000 1.000000e+001 0.000000e+000
      endloop
   endfacet
   facet normal 0.000000e+000 -1.000000e+000 0.000000e+000
      outer loop
         vertex 1.000000e+001 0.000000e+000 0.000000e+000
         vertex 1.000000e+001 0.000000e+000 1.000000e+001
         vertex 0.000000e+000 0.000000e+000 0.000000e+000
      endloop
   endfacet
   facet normal 0.000000e+000 -1.000000e+000 0.000000e+000
      outer loop
         vertex 0.000000e+000 0.000000e+000 0.000000e+000
         vertex 1.000000e+001 0.000000e+000 1.000000e+001
         vertex 0.000000e+000 0.000000e+000 1.000000e+001
      endloop
   endfacet
   facet normal 0.000000e+000 9.987590e-001 4.980453e-002
      outer loop
         vertex 0.000000e+000 2.201082e+000 1.000000e+001
         vertex 1.000000e+001 2.201082e+000 1.000000e+001
         vertex 1.000000e+001 2.233956e+000 9.561337e+000
      endloop
   endfacet
   facet normal 0.000000e+000 9.950266e-001 9.960905e-002
      outer loop
         vertex 0.000000e+000 2.201082e+000 1.000000e+001
         vertex 1.000000e+001 2.233956e+000 9.561337e+000
         vertex 0.000000e+000 2.233956e+000 9.561337e+000
      endloop
   endfacet
   facet normal 0.000000e+000 9.801807e-001 1.981055e-001
      outer loop
         vertex 0.000000e+000 2.233956e+000 9.561337e+000
         vertex 1.000000e+001 2.233956e+000 9.561337e+000
         vertex 1.000000e+001 2.331841e+000 9.132472e+000
      endloop
   endfacet
   facet normal 0.000000e+000 9.690670e-001 2.467975e-001
      outer loop
         vertex 0.000000e+000 2.233956e+000 9.561337e+000
         vertex 1.000000e+001 2.331841e+000 9.132472e+000
         vertex 0.000000e+000 2.331841e+000 9.132472e+000
      endloop
   endfacet
   facet normal 0.000000e+000 9.397067e-001 3.419812e-001
      outer loop
         vertex 0.000000e+000 2.331841e+000 9.132472e+000
         vertex 1.000000e+001 2.331841e+000 9.132472e+000
         vertex 1.000000e+001 2.492552e+000 8.722987e+000
      endloop
   endfacet
   facet normal 0.000000e+000 9.214601e-001 3.884729e-001
      outer loop
         vertex 0.000000e+000 2.331841e+000 9.132472e+000
         vertex 1.000000e+001 2.492552e+000 8.722987e+000
         vertex 0.000000e+000 2.492552e+000 8.722987e+000
      endloop
   endfacet
   facet normal 0.000000e+000 8.782414e-001 4.782176e-001
      outer loop
         vertex 0.000000e+000 2.492552e+000 8.722987e+000
         vertex 1.000000e+001 2.492552e+000 8.722987e+000
         vertex 1.000000e+001 2.712499e+000 8.342029e+000
      endloop
   endfacet
   facet normal 0.000000e+000 8.532693e-001 5.214705e-001
      outer loop
         vertex 0.000000e+000 2.492552e+000 8.722987e+000
         vertex 1.000000e+001 2.712499e+000 8.342029e+000
         vertex 0.000000e+000 2.712499e+000 8.342029e+000
      endloop
   endfacet
   facet normal 0.000000e+000 7.971576e-001 6.037714e-001
      outer loop
         vertex 0.000000e+000 2.712499e+000 8.342029e+000
         vertex 1.000000e+001 2.712499e+000 8.342029e+000
         vertex 1.000000e+001 2.986768e+000 7.998106e+000
      endloop
   endfacet
   facet normal 0.000000e+000 7.660179e-001 6.428193e-001
      outer loop
         vertex 0.000000e+000 2.712499e+000 8.342029e+000
         vertex 1.000000e+001 2.986768e+000 7.998106e+000
         vertex 0.000000e+000 2.986768e+000 7.998106e+000
      endloop
   endfacet
   facet normal 0.000000e+000 6.982664e-001 7.158380e-001
      outer loop
         vertex 0.000000e+000 2.986768e+000 7.998106e+000
         vertex 1.000000e+001 2.986768e+000 7.998106e+000
         vertex 1.000000e+001 3.309232e+000 7.698903e+000
      endloop
   endfacet
   facet normal 0.000000e+000 6.616548e-001 7.498086e-001
      outer loop
         vertex 0.000000e+000 2.986768e+000 7.998106e+000
         vertex 1.000000e+001 3.309232e+000 7.698903e+000
         vertex 0.000000e+000 3.309232e+000 7.698903e+000
      endloop
   endfacet
   facet normal 0.000000e+000 5.837772e-001 8.119138e-001
      outer loop
         vertex 0.000000e+000 3.309232e+000 7.698903e+000
         vertex 1.000000e+001 3.309232e+000 7.698903e+000
         vertex 1.000000e+001 3.672689e+000 7.451102e+000
      endloop
   endfacet
   facet normal 0.000000e+000 5.425115e-001 8.400484e-001
      outer loop
         vertex 0.000000e+000 3.309232e+000 7.698903e+000
         vertex 1.000000e+001 3.672689e+000 7.451102e+000
         vertex 0.000000e+000 3.672689e+000 7.451102e+000
      endloop
   endfacet
   facet normal 0.000000e+000 4.562475e-001 8.898529e-001
      outer loop
         vertex 0.000000e+000 3.672689e+000 7.451102e+000
         vertex 1.000000e+001 3.672689e+000 7.451102e+000
         vertex 1.000000e+001 4.069020e+000 7.260239e+000
      endloop
   endfacet
   facet normal 0.000000e+000 4.112494e-001 9.115229e-001
      outer loop
         vertex 0.000000e+000 3.672689e+000 7.451102e+000
         vertex 1.000000e+001 4.069020e+000 7.260239e+000
         vertex 0.000000e+000 4.069020e+000 7.260239e+000
      endloop
   endfacet
   facet normal 0.000000e+000 3.185259e-001 9.479141e-001
      outer loop
         vertex 0.000000e+000 4.069020e+000 7.260239e+000
         vertex 1.000000e+001 4.069020e+000 7.260239e+000
         vertex 1.000000e+001 4.489370e+000 7.130578e+000
      endloop
   endfacet
   facet normal 0.000000e+000 2.708006e-001 9.626355e-001
      outer loop
         vertex 0.000000e+000 4.069020e+000 7.260239e+000
         vertex 1.000000e+001 4.489370e+000 7.130578e+000
         vertex 0.000000e+000 4.489370e+000 7.130578e+000
      endloop
   endfacet
   facet normal 0.000000e+000 1.736889e-001 9.848005e-001
      outer loop
         vertex 0.000000e+000 4.489370e+000 7.130578e+000
         vertex 1.000000e+001 4.489370e+000 7.130578e+000
         vertex 1.000000e+001 4.924349e+000 7.065016e+000
      endloop
   endfacet
   facet normal 0.000000e+000 1.243026e-001 9.922444e-001
      outer loop
         vertex 0.000000e+000 4.489370e+000 7.130578e+000
         vertex 1.000000e+001 4.924349e+000 7.065016e+000
         vertex 0.000000e+000 4.924349e+000 7.065016e+000
      endloop
   endfacet
   facet normal 0.000000e+000 2.497209e-002 9.996881e-001
      outer loop
         vertex 0.000000e+000 4.924349e+000 7.065016e+000
         vertex 1.000000e+001 4.924349e+000 7.065016e+000
         vertex 1.000000e+001 5.364243e+000 7.065016e+000
      endloop
   endfacet
   facet normal 0.000000e+000 -2.497209e-002 9.996881e-001
      outer loop
         vertex 0.000000e+000 4.924349e+000 7.065016e+000
         vertex 1.000000e+001 5.364243e+000 7.065016e+000
         vertex 0.000000e+000 5.364243e+000 7.065016e+000
      endloop
   endfacet
   facet normal 0.000000e+000 -1.243026e-001 9.922444e-001
      outer loop
         vertex 0.000000e+000 5.364243e+000 7.065016e+000
         vertex 1.000000e+001 5.364243e+000 7.065016e+000
         vertex 1.000000e+001 5.799223e+000 7.130578e+000
      endloop
   endfacet
   facet normal 0.000000e+000 -1.736889e-001 9.848005e-001
      outer loop
         vertex 0.000000e+000 5.364243e+000 7.065016e+000
         vertex 1.000000e+001 5.799223e+000 7.130578e+000
         vertex 0.000000e+000 5.799223e+000 7.130578e+000
      endloop
   endfacet
   facet normal 0.000000e+000 -2.708006e-001 9.626355e-001
      outer loop
         vertex 0.000000e+000 5.799223e+000 7.130578e+000
         vertex 1.000000e+001 5.799223e+000 7.130578e+000
         vertex 1.000000e+001 6.219573e+000 7.260239e+000
      endloop
   endfacet
   facet normal 0.000000e+000 -3.185259e-001 9.479141e-001
      outer loop
         vertex 0.000000e+000 5.799223e+000 7.130578e+000
         vertex 1.000000e+001 6.219573e+000 7.260239e+000
         vertex 0.000000e+000 6.219573e+000 7.260239e+000
      endloop
   endfacet
   facet normal 0.000000e+000 -4.112494e-001 9.115229e-001
      outer loop
         vertex 0.000000e+000 6.219573e+000 7.260239e+000
         vertex 1.000000e+001 6.219573e+000 7.260239e+000
         vertex 1.000000e+001 6.615903e+000 7.451102e+000
      endloop
   endfacet
   facet normal 0.000000e+000 -4.562475e-001 8.898529e-001
      outer loop
         vertex 0.000000e+000 6.219573e+000 7.260239e+000
         vertex 1.000000e+001 6.615903e+000 7.451102e+000
         vertex 0.000000e+000 6.615903e+000 7.451102e+000
      endloop
   endfacet
   facet normal 0.000000e+000 -5.425115e-001 8.400484e-001
      outer loop
         vertex 0.000000e+000 6.615903e+000 7.451102e+000
         vertex 1.000000e+001 6.615903e+000 7.451102e+000
         vertex 1.000000e+001 6.979360e+000 7.698903e+000
      endloop
   endfacet
   facet normal 0.000000e+000 -5.837773e-001 8.119138e-001
      outer loop
         vertex 0.000000e+000 6.615903e+000 7.451102e+000
         vertex 1.000000e+001 6.979360e+000 7.698903e+000
         vertex 0.000000e+000 6.979360e+000 7.698903e+000
      endloop
   endfacet
   facet normal 0.000000e+000 -6.616548e-001 7.498086e-001
      outer loop
         vertex 0.000000e+000 6.979360e+000 7.698903e+000
         vertex 1.000000e+001 6.979360e+000 7.698903e+000
         vertex 1.000000e+001 7.301825e+000 7.998106e+000
      endloop
   endfacet
   facet normal 0.000000e+000 -6.982664e-001 7.158380e-001
      outer loop
         vertex 0.000000e+000 6.979360e+000 7.698903e+000
         vertex 1.000000e+001 7.301825e+000 7.998106e+000
         vertex 0.000000e+000 7.301825e+000 7.998106e+000
      endloop
   endfacet
   facet normal 0.000000e+000 -7.660179e-001 6.428193e-001
      outer loop
         vertex 0.000000e+000 7.301825e+000 7.998106e+000
         vertex 1.000000e+001 7.301825e+000 7.998106e+000
         vertex 1.000000e+001 7.576094e+000 8.342029e+000
      endloop
   endfacet
   facet normal 0.000000e+000 -7.971575e-001 6.037714e-001
      outer loop
         vertex 0.000000e+000 7.301825e+000 7.998106e+000
         vertex 1.000000e+001 7.576094e+000 8.342029e+000
         vertex 0.000000e+000 7.576094e+000 8.342029e+000
      endloop
   endfacet
   facet normal 0.000000e+000 -8.532693e-001 5.214705e-001
      outer loop
         vertex 0.000000e+000 7.576094e+000 8.342029e+000
         vertex 1.000000e+001 7.576094e+000 8.342029e+000
         vertex 1.000000e+001 7.796040e+000 8.722987e+000
      endloop
   endfacet
   facet normal 0.000000e+000 -8.782414e-001 4.782176e-001
      outer loop
         vertex 0.000000e+000 7.576094e+000 8.342029e+000
         vertex 1.000000e+001 7.796040e+000 8.722987e+000
         vertex 0.000000e+000 7.796040e+000 8.722987e+000
      endloop
   endfacet
   facet normal 0.000000e+000 -9.214601e-001 3.884729e-001
      outer loop
         vertex 0.000000e+000 7.796040e+000 8.722987e+000
         vertex 1.000000e+001 7.796040e+000 8.722987e+000
         vertex 1.000000e+001 7.956752e+000 9.132472e+000
      endloop
   endfacet
   facet normal 0.000000e+000 -9.397067e-001 3.419812e-001
      outer loop
         vertex 0.000000e+000 7.796040e+000 8.722987e+000
         vertex 1.000000e+001 7.956752e+000 9.132472e+000
         vertex 0.000000e+000 7.956752e+000 9.132472e+000
      endloop
   endfacet
   facet normal 0.000000e+000 -9.690670e-001 2.467975e-001
      outer loop
         vertex 0.000000e+000 7.956752e+000 9.132472e+000
         vertex 1.000000e+001 7.956752e+000 9.132472e+000
         vertex 1.000000e+001 8.054637e+000 9.561337e+000
      endloop
   endfacet
   facet normal 0.000000e+000 -9.801807e-001 1.981055e-001
      outer loop
         vertex 0.000000e+000 7.956752e+000 9.132472e+000
         vertex 1.000000e+001 8.054637e+000 9.561337e+000
         vertex 0.000000e+000 8.054637e+000 9.561337e+000
      endloop
   endfacet
   facet normal 0.000000e+000 -9.950266e-001 9.960905e-002
      outer loop
         vertex 0.000000e+000 8.054637e+000 9.561337e+000
         vertex 1.000000e+001 8.054637e+000 9.561337e+000
         vertex 1.000000e+001 8.087510e+000 1.000000e+001
      endloop
   endfacet
   facet normal 0.000000e+000 -9.987590e-001 4.980453e-002
      outer loop
         vertex 0.000000e+000 8.054637e+000 9.561337e+000
         vertex 1.000000e+001 8.087510e+000 1.000000e+001
         vertex 0.000000e+000 8.087510e+000 1.000000e+001
      endloop
   endfacet
endsolid